G04 #@! TF.GenerationSoftware,KiCad,Pcbnew,5.1.10-88a1d61d58~90~ubuntu21.04.1*
G04 #@! TF.CreationDate,2021-10-08T15:23:41+02:00*
G04 #@! TF.ProjectId,DccDecoder,44636344-6563-46f6-9465-722e6b696361,rev?*
G04 #@! TF.SameCoordinates,Original*
G04 #@! TF.FileFunction,Legend,Top*
G04 #@! TF.FilePolarity,Positive*
%FSLAX46Y46*%
G04 Gerber Fmt 4.6, Leading zero omitted, Abs format (unit mm)*
G04 Created by KiCad (PCBNEW 5.1.10-88a1d61d58~90~ubuntu21.04.1) date 2021-10-08 15:23:41*
%MOMM*%
%LPD*%
G01*
G04 APERTURE LIST*
%ADD10C,0.150000*%
%ADD11C,0.120000*%
%ADD12O,1.000000X1.000000*%
%ADD13R,1.000000X1.000000*%
%ADD14R,5.500000X2.000000*%
%ADD15R,0.800000X0.900000*%
%ADD16R,0.900000X0.800000*%
%ADD17C,0.100000*%
%ADD18O,1.700000X1.700000*%
%ADD19R,1.700000X1.700000*%
%ADD20C,4.700000*%
%ADD21C,2.000000*%
%ADD22R,2.400000X2.400000*%
%ADD23C,2.400000*%
%ADD24O,1.700000X1.950000*%
G04 APERTURE END LIST*
D10*
X53404761Y-65476190D02*
X53452380Y-65333333D01*
X53452380Y-65095238D01*
X53404761Y-65000000D01*
X53357142Y-64952380D01*
X53261904Y-64904761D01*
X53166666Y-64904761D01*
X53071428Y-64952380D01*
X53023809Y-65000000D01*
X52976190Y-65095238D01*
X52928571Y-65285714D01*
X52880952Y-65380952D01*
X52833333Y-65428571D01*
X52738095Y-65476190D01*
X52642857Y-65476190D01*
X52547619Y-65428571D01*
X52500000Y-65380952D01*
X52452380Y-65285714D01*
X52452380Y-65047619D01*
X52500000Y-64904761D01*
X53452380Y-64476190D02*
X52785714Y-64476190D01*
X52452380Y-64476190D02*
X52500000Y-64523809D01*
X52547619Y-64476190D01*
X52500000Y-64428571D01*
X52452380Y-64476190D01*
X52547619Y-64476190D01*
X52785714Y-63571428D02*
X53595238Y-63571428D01*
X53690476Y-63619047D01*
X53738095Y-63666666D01*
X53785714Y-63761904D01*
X53785714Y-63904761D01*
X53738095Y-64000000D01*
X53404761Y-63571428D02*
X53452380Y-63666666D01*
X53452380Y-63857142D01*
X53404761Y-63952380D01*
X53357142Y-64000000D01*
X53261904Y-64047619D01*
X52976190Y-64047619D01*
X52880952Y-64000000D01*
X52833333Y-63952380D01*
X52785714Y-63857142D01*
X52785714Y-63666666D01*
X52833333Y-63571428D01*
X54952380Y-64690476D02*
X54952380Y-65166666D01*
X55428571Y-65214285D01*
X55380952Y-65166666D01*
X55333333Y-65071428D01*
X55333333Y-64833333D01*
X55380952Y-64738095D01*
X55428571Y-64690476D01*
X55523809Y-64642857D01*
X55761904Y-64642857D01*
X55857142Y-64690476D01*
X55904761Y-64738095D01*
X55952380Y-64833333D01*
X55952380Y-65071428D01*
X55904761Y-65166666D01*
X55857142Y-65214285D01*
X54952380Y-64357142D02*
X55952380Y-64023809D01*
X54952380Y-63690476D01*
X57500000Y-65261904D02*
X57452380Y-65357142D01*
X57452380Y-65500000D01*
X57500000Y-65642857D01*
X57595238Y-65738095D01*
X57690476Y-65785714D01*
X57880952Y-65833333D01*
X58023809Y-65833333D01*
X58214285Y-65785714D01*
X58309523Y-65738095D01*
X58404761Y-65642857D01*
X58452380Y-65500000D01*
X58452380Y-65404761D01*
X58404761Y-65261904D01*
X58357142Y-65214285D01*
X58023809Y-65214285D01*
X58023809Y-65404761D01*
X58452380Y-64785714D02*
X57452380Y-64785714D01*
X58452380Y-64214285D01*
X57452380Y-64214285D01*
X58452380Y-63738095D02*
X57452380Y-63738095D01*
X57452380Y-63500000D01*
X57500000Y-63357142D01*
X57595238Y-63261904D01*
X57690476Y-63214285D01*
X57880952Y-63166666D01*
X58023809Y-63166666D01*
X58214285Y-63214285D01*
X58309523Y-63261904D01*
X58404761Y-63357142D01*
X58452380Y-63500000D01*
X58452380Y-63738095D01*
X33119047Y-61571428D02*
X33880952Y-61571428D01*
X33119047Y-54071428D02*
X33880952Y-54071428D01*
X33119047Y-58571428D02*
X33880952Y-58571428D01*
X33500000Y-58952380D02*
X33500000Y-58190476D01*
X33119047Y-51071428D02*
X33880952Y-51071428D01*
X33500000Y-51452380D02*
X33500000Y-50690476D01*
X27047619Y-60357142D02*
X27000000Y-60404761D01*
X26857142Y-60452380D01*
X26761904Y-60452380D01*
X26619047Y-60404761D01*
X26523809Y-60309523D01*
X26476190Y-60214285D01*
X26428571Y-60023809D01*
X26428571Y-59880952D01*
X26476190Y-59690476D01*
X26523809Y-59595238D01*
X26619047Y-59500000D01*
X26761904Y-59452380D01*
X26857142Y-59452380D01*
X27000000Y-59500000D01*
X27047619Y-59547619D01*
X27619047Y-60452380D02*
X27523809Y-60404761D01*
X27476190Y-60309523D01*
X27476190Y-59452380D01*
X26261904Y-51952380D02*
X26833333Y-51952380D01*
X26547619Y-52952380D02*
X26547619Y-51952380D01*
X27166666Y-52952380D02*
X27166666Y-51952380D01*
X27595238Y-52952380D02*
X27595238Y-52428571D01*
X27547619Y-52333333D01*
X27452380Y-52285714D01*
X27309523Y-52285714D01*
X27214285Y-52333333D01*
X27166666Y-52380952D01*
X106004761Y-56690476D02*
X106052380Y-56547619D01*
X106052380Y-56309523D01*
X106004761Y-56214285D01*
X105957142Y-56166666D01*
X105861904Y-56119047D01*
X105766666Y-56119047D01*
X105671428Y-56166666D01*
X105623809Y-56214285D01*
X105576190Y-56309523D01*
X105528571Y-56500000D01*
X105480952Y-56595238D01*
X105433333Y-56642857D01*
X105338095Y-56690476D01*
X105242857Y-56690476D01*
X105147619Y-56642857D01*
X105100000Y-56595238D01*
X105052380Y-56500000D01*
X105052380Y-56261904D01*
X105100000Y-56119047D01*
X105957142Y-55119047D02*
X106004761Y-55166666D01*
X106052380Y-55309523D01*
X106052380Y-55404761D01*
X106004761Y-55547619D01*
X105909523Y-55642857D01*
X105814285Y-55690476D01*
X105623809Y-55738095D01*
X105480952Y-55738095D01*
X105290476Y-55690476D01*
X105195238Y-55642857D01*
X105100000Y-55547619D01*
X105052380Y-55404761D01*
X105052380Y-55309523D01*
X105100000Y-55166666D01*
X105147619Y-55119047D01*
X106052380Y-54214285D02*
X106052380Y-54690476D01*
X105052380Y-54690476D01*
X106750000Y-56261904D02*
X106702380Y-56357142D01*
X106702380Y-56500000D01*
X106750000Y-56642857D01*
X106845238Y-56738095D01*
X106940476Y-56785714D01*
X107130952Y-56833333D01*
X107273809Y-56833333D01*
X107464285Y-56785714D01*
X107559523Y-56738095D01*
X107654761Y-56642857D01*
X107702380Y-56500000D01*
X107702380Y-56404761D01*
X107654761Y-56261904D01*
X107607142Y-56214285D01*
X107273809Y-56214285D01*
X107273809Y-56404761D01*
X107702380Y-55785714D02*
X106702380Y-55785714D01*
X107702380Y-55214285D01*
X106702380Y-55214285D01*
X107702380Y-54738095D02*
X106702380Y-54738095D01*
X106702380Y-54500000D01*
X106750000Y-54357142D01*
X106845238Y-54261904D01*
X106940476Y-54214285D01*
X107130952Y-54166666D01*
X107273809Y-54166666D01*
X107464285Y-54214285D01*
X107559523Y-54261904D01*
X107654761Y-54357142D01*
X107702380Y-54500000D01*
X107702380Y-54738095D01*
X109304761Y-56714285D02*
X109352380Y-56571428D01*
X109352380Y-56333333D01*
X109304761Y-56238095D01*
X109257142Y-56190476D01*
X109161904Y-56142857D01*
X109066666Y-56142857D01*
X108971428Y-56190476D01*
X108923809Y-56238095D01*
X108876190Y-56333333D01*
X108828571Y-56523809D01*
X108780952Y-56619047D01*
X108733333Y-56666666D01*
X108638095Y-56714285D01*
X108542857Y-56714285D01*
X108447619Y-56666666D01*
X108400000Y-56619047D01*
X108352380Y-56523809D01*
X108352380Y-56285714D01*
X108400000Y-56142857D01*
X109352380Y-55714285D02*
X108352380Y-55714285D01*
X108352380Y-55476190D01*
X108400000Y-55333333D01*
X108495238Y-55238095D01*
X108590476Y-55190476D01*
X108780952Y-55142857D01*
X108923809Y-55142857D01*
X109114285Y-55190476D01*
X109209523Y-55238095D01*
X109304761Y-55333333D01*
X109352380Y-55476190D01*
X109352380Y-55714285D01*
X109066666Y-54761904D02*
X109066666Y-54285714D01*
X109352380Y-54857142D02*
X108352380Y-54523809D01*
X109352380Y-54190476D01*
X112833333Y-58785714D02*
X113214285Y-58785714D01*
X112976190Y-59452380D02*
X112976190Y-58595238D01*
X113023809Y-58500000D01*
X113119047Y-58452380D01*
X113214285Y-58452380D01*
X114119047Y-59452380D02*
X113785714Y-58976190D01*
X113547619Y-59452380D02*
X113547619Y-58452380D01*
X113928571Y-58452380D01*
X114023809Y-58500000D01*
X114071428Y-58547619D01*
X114119047Y-58642857D01*
X114119047Y-58785714D01*
X114071428Y-58880952D01*
X114023809Y-58928571D01*
X113928571Y-58976190D01*
X113547619Y-58976190D01*
X114452380Y-58452380D02*
X115119047Y-59452380D01*
X115119047Y-58452380D02*
X114452380Y-59452380D01*
X112952380Y-56285714D02*
X113333333Y-56285714D01*
X113095238Y-56952380D02*
X113095238Y-56095238D01*
X113142857Y-56000000D01*
X113238095Y-55952380D01*
X113333333Y-55952380D01*
X113523809Y-55952380D02*
X114095238Y-55952380D01*
X113809523Y-56952380D02*
X113809523Y-55952380D01*
X114333333Y-55952380D02*
X115000000Y-56952380D01*
X115000000Y-55952380D02*
X114333333Y-56952380D01*
X112523809Y-53452380D02*
X113142857Y-53452380D01*
X112809523Y-53833333D01*
X112952380Y-53833333D01*
X113047619Y-53880952D01*
X113095238Y-53928571D01*
X113142857Y-54023809D01*
X113142857Y-54261904D01*
X113095238Y-54357142D01*
X113047619Y-54404761D01*
X112952380Y-54452380D01*
X112666666Y-54452380D01*
X112571428Y-54404761D01*
X112523809Y-54357142D01*
X113571428Y-54357142D02*
X113619047Y-54404761D01*
X113571428Y-54452380D01*
X113523809Y-54404761D01*
X113571428Y-54357142D01*
X113571428Y-54452380D01*
X113952380Y-53452380D02*
X114571428Y-53452380D01*
X114238095Y-53833333D01*
X114380952Y-53833333D01*
X114476190Y-53880952D01*
X114523809Y-53928571D01*
X114571428Y-54023809D01*
X114571428Y-54261904D01*
X114523809Y-54357142D01*
X114476190Y-54404761D01*
X114380952Y-54452380D01*
X114095238Y-54452380D01*
X114000000Y-54404761D01*
X113952380Y-54357142D01*
X114857142Y-53452380D02*
X115190476Y-54452380D01*
X115523809Y-53452380D01*
X113238095Y-48500000D02*
X113142857Y-48452380D01*
X113000000Y-48452380D01*
X112857142Y-48500000D01*
X112761904Y-48595238D01*
X112714285Y-48690476D01*
X112666666Y-48880952D01*
X112666666Y-49023809D01*
X112714285Y-49214285D01*
X112761904Y-49309523D01*
X112857142Y-49404761D01*
X113000000Y-49452380D01*
X113095238Y-49452380D01*
X113238095Y-49404761D01*
X113285714Y-49357142D01*
X113285714Y-49023809D01*
X113095238Y-49023809D01*
X113714285Y-49452380D02*
X113714285Y-48452380D01*
X114285714Y-49452380D01*
X114285714Y-48452380D01*
X114761904Y-49452380D02*
X114761904Y-48452380D01*
X115000000Y-48452380D01*
X115142857Y-48500000D01*
X115238095Y-48595238D01*
X115285714Y-48690476D01*
X115333333Y-48880952D01*
X115333333Y-49023809D01*
X115285714Y-49214285D01*
X115238095Y-49309523D01*
X115142857Y-49404761D01*
X115000000Y-49452380D01*
X114761904Y-49452380D01*
X67666666Y-49071428D02*
X68428571Y-49071428D01*
X69571428Y-48452380D02*
X70190476Y-48452380D01*
X69857142Y-48833333D01*
X70000000Y-48833333D01*
X70095238Y-48880952D01*
X70142857Y-48928571D01*
X70190476Y-49023809D01*
X70190476Y-49261904D01*
X70142857Y-49357142D01*
X70095238Y-49404761D01*
X70000000Y-49452380D01*
X69714285Y-49452380D01*
X69619047Y-49404761D01*
X69571428Y-49357142D01*
X70619047Y-49357142D02*
X70666666Y-49404761D01*
X70619047Y-49452380D01*
X70571428Y-49404761D01*
X70619047Y-49357142D01*
X70619047Y-49452380D01*
X71000000Y-48452380D02*
X71619047Y-48452380D01*
X71285714Y-48833333D01*
X71428571Y-48833333D01*
X71523809Y-48880952D01*
X71571428Y-48928571D01*
X71619047Y-49023809D01*
X71619047Y-49261904D01*
X71571428Y-49357142D01*
X71523809Y-49404761D01*
X71428571Y-49452380D01*
X71142857Y-49452380D01*
X71047619Y-49404761D01*
X71000000Y-49357142D01*
X71952380Y-48785714D02*
X72190476Y-49452380D01*
X72428571Y-48785714D01*
X73571428Y-49071428D02*
X74333333Y-49071428D01*
X73952380Y-49452380D02*
X73952380Y-48690476D01*
X43928571Y-55833333D02*
X43880952Y-55785714D01*
X43785714Y-55642857D01*
X43738095Y-55547619D01*
X43690476Y-55404761D01*
X43642857Y-55166666D01*
X43642857Y-54976190D01*
X43690476Y-54738095D01*
X43738095Y-54595238D01*
X43785714Y-54500000D01*
X43880952Y-54357142D01*
X43928571Y-54309523D01*
X44738095Y-55404761D02*
X44642857Y-55452380D01*
X44452380Y-55452380D01*
X44357142Y-55404761D01*
X44309523Y-55357142D01*
X44261904Y-55261904D01*
X44261904Y-54976190D01*
X44309523Y-54880952D01*
X44357142Y-54833333D01*
X44452380Y-54785714D01*
X44642857Y-54785714D01*
X44738095Y-54833333D01*
X45071428Y-55833333D02*
X45119047Y-55785714D01*
X45214285Y-55642857D01*
X45261904Y-55547619D01*
X45309523Y-55404761D01*
X45357142Y-55166666D01*
X45357142Y-54976190D01*
X45309523Y-54738095D01*
X45261904Y-54595238D01*
X45214285Y-54500000D01*
X45119047Y-54357142D01*
X45071428Y-54309523D01*
X45833333Y-55452380D02*
X45833333Y-54452380D01*
X46071428Y-54452380D01*
X46214285Y-54500000D01*
X46309523Y-54595238D01*
X46357142Y-54690476D01*
X46404761Y-54880952D01*
X46404761Y-55023809D01*
X46357142Y-55214285D01*
X46309523Y-55309523D01*
X46214285Y-55404761D01*
X46071428Y-55452380D01*
X45833333Y-55452380D01*
X47261904Y-55452380D02*
X47261904Y-54928571D01*
X47214285Y-54833333D01*
X47119047Y-54785714D01*
X46928571Y-54785714D01*
X46833333Y-54833333D01*
X47261904Y-55404761D02*
X47166666Y-55452380D01*
X46928571Y-55452380D01*
X46833333Y-55404761D01*
X46785714Y-55309523D01*
X46785714Y-55214285D01*
X46833333Y-55119047D01*
X46928571Y-55071428D01*
X47166666Y-55071428D01*
X47261904Y-55023809D01*
X47738095Y-54785714D02*
X47738095Y-55452380D01*
X47738095Y-54880952D02*
X47785714Y-54833333D01*
X47880952Y-54785714D01*
X48023809Y-54785714D01*
X48119047Y-54833333D01*
X48166666Y-54928571D01*
X48166666Y-55452380D01*
X48642857Y-55452380D02*
X48642857Y-54785714D01*
X48642857Y-54452380D02*
X48595238Y-54500000D01*
X48642857Y-54547619D01*
X48690476Y-54500000D01*
X48642857Y-54452380D01*
X48642857Y-54547619D01*
X49500000Y-55404761D02*
X49404761Y-55452380D01*
X49214285Y-55452380D01*
X49119047Y-55404761D01*
X49071428Y-55309523D01*
X49071428Y-54928571D01*
X49119047Y-54833333D01*
X49214285Y-54785714D01*
X49404761Y-54785714D01*
X49500000Y-54833333D01*
X49547619Y-54928571D01*
X49547619Y-55023809D01*
X49071428Y-55119047D01*
X50119047Y-55452380D02*
X50023809Y-55404761D01*
X49976190Y-55309523D01*
X49976190Y-54452380D01*
X51119047Y-54452380D02*
X51452380Y-55452380D01*
X51785714Y-54452380D01*
X52119047Y-55452380D02*
X52119047Y-54785714D01*
X52119047Y-54452380D02*
X52071428Y-54500000D01*
X52119047Y-54547619D01*
X52166666Y-54500000D01*
X52119047Y-54452380D01*
X52119047Y-54547619D01*
X52738095Y-55452380D02*
X52642857Y-55404761D01*
X52595238Y-55309523D01*
X52595238Y-54452380D01*
X53547619Y-55452380D02*
X53547619Y-54928571D01*
X53500000Y-54833333D01*
X53404761Y-54785714D01*
X53214285Y-54785714D01*
X53119047Y-54833333D01*
X53547619Y-55404761D02*
X53452380Y-55452380D01*
X53214285Y-55452380D01*
X53119047Y-55404761D01*
X53071428Y-55309523D01*
X53071428Y-55214285D01*
X53119047Y-55119047D01*
X53214285Y-55071428D01*
X53452380Y-55071428D01*
X53547619Y-55023809D01*
X53976190Y-55404761D02*
X54071428Y-55452380D01*
X54261904Y-55452380D01*
X54357142Y-55404761D01*
X54404761Y-55309523D01*
X54404761Y-55261904D01*
X54357142Y-55166666D01*
X54261904Y-55119047D01*
X54119047Y-55119047D01*
X54023809Y-55071428D01*
X53976190Y-54976190D01*
X53976190Y-54928571D01*
X54023809Y-54833333D01*
X54119047Y-54785714D01*
X54261904Y-54785714D01*
X54357142Y-54833333D01*
X47380952Y-49071428D02*
X48142857Y-49071428D01*
X49857142Y-48452380D02*
X49380952Y-48452380D01*
X49333333Y-48928571D01*
X49380952Y-48880952D01*
X49476190Y-48833333D01*
X49714285Y-48833333D01*
X49809523Y-48880952D01*
X49857142Y-48928571D01*
X49904761Y-49023809D01*
X49904761Y-49261904D01*
X49857142Y-49357142D01*
X49809523Y-49404761D01*
X49714285Y-49452380D01*
X49476190Y-49452380D01*
X49380952Y-49404761D01*
X49333333Y-49357142D01*
X50238095Y-48785714D02*
X50476190Y-49452380D01*
X50714285Y-48785714D01*
X51857142Y-49071428D02*
X52619047Y-49071428D01*
X52238095Y-49452380D02*
X52238095Y-48690476D01*
X32952380Y-49071428D02*
X33714285Y-49071428D01*
X34809523Y-48452380D02*
X35142857Y-49452380D01*
X35476190Y-48452380D01*
X35809523Y-49452380D02*
X35809523Y-48452380D01*
X36047619Y-48452380D01*
X36190476Y-48500000D01*
X36285714Y-48595238D01*
X36333333Y-48690476D01*
X36380952Y-48880952D01*
X36380952Y-49023809D01*
X36333333Y-49214285D01*
X36285714Y-49309523D01*
X36190476Y-49404761D01*
X36047619Y-49452380D01*
X35809523Y-49452380D01*
X36809523Y-49452380D02*
X36809523Y-48785714D01*
X36809523Y-48976190D02*
X36857142Y-48880952D01*
X36904761Y-48833333D01*
X37000000Y-48785714D01*
X37095238Y-48785714D01*
X37428571Y-49452380D02*
X37428571Y-48785714D01*
X37428571Y-48452380D02*
X37380952Y-48500000D01*
X37428571Y-48547619D01*
X37476190Y-48500000D01*
X37428571Y-48452380D01*
X37428571Y-48547619D01*
X37809523Y-48785714D02*
X38047619Y-49452380D01*
X38285714Y-48785714D01*
X39047619Y-49404761D02*
X38952380Y-49452380D01*
X38761904Y-49452380D01*
X38666666Y-49404761D01*
X38619047Y-49309523D01*
X38619047Y-48928571D01*
X38666666Y-48833333D01*
X38761904Y-48785714D01*
X38952380Y-48785714D01*
X39047619Y-48833333D01*
X39095238Y-48928571D01*
X39095238Y-49023809D01*
X38619047Y-49119047D01*
X40285714Y-49071428D02*
X41047619Y-49071428D01*
X40666666Y-49452380D02*
X40666666Y-48690476D01*
D11*
X85225000Y-42870000D02*
X85225000Y-43692470D01*
X85225000Y-45577530D02*
X85225000Y-46400000D01*
X85225000Y-44307530D02*
X85225000Y-44962470D01*
X90240000Y-42870000D02*
X85225000Y-42870000D01*
X91695000Y-46400000D02*
X85225000Y-46400000D01*
X90240000Y-42870000D02*
X90240000Y-43436529D01*
X90240000Y-44563471D02*
X90240000Y-44706529D01*
X90293471Y-44760000D02*
X90436529Y-44760000D01*
X91563471Y-44760000D02*
X91695000Y-44760000D01*
X91695000Y-44760000D02*
X91695000Y-44962470D01*
X91695000Y-45577530D02*
X91695000Y-46400000D01*
X91000000Y-42870000D02*
X91760000Y-42870000D01*
X91760000Y-42870000D02*
X91760000Y-44000000D01*
X76500000Y-63500000D02*
X76500000Y-68500000D01*
X76500000Y-69000000D02*
X91750000Y-69000000D01*
X76500000Y-63000000D02*
X91750000Y-63000000D01*
X85145000Y-58606000D02*
X85145000Y-59921000D01*
X84845000Y-58606000D02*
X85145000Y-58606000D01*
X84845000Y-58306000D02*
X84845000Y-58606000D01*
X84845000Y-51386000D02*
X85145000Y-51386000D01*
X84845000Y-51686000D02*
X84845000Y-51386000D01*
X92065000Y-58606000D02*
X91765000Y-58606000D01*
X92065000Y-58306000D02*
X92065000Y-58606000D01*
X92065000Y-51386000D02*
X91765000Y-51386000D01*
X92065000Y-51686000D02*
X92065000Y-51386000D01*
X78727064Y-62410000D02*
X77272936Y-62410000D01*
X78727064Y-60590000D02*
X77272936Y-60590000D01*
X68090000Y-66227064D02*
X68090000Y-64772936D01*
X69910000Y-66227064D02*
X69910000Y-64772936D01*
X70420000Y-62760000D02*
X71350000Y-62760000D01*
X73580000Y-62760000D02*
X72650000Y-62760000D01*
X73580000Y-62760000D02*
X73580000Y-60600000D01*
X70420000Y-62760000D02*
X70420000Y-61300000D01*
X63740000Y-63420000D02*
X63740000Y-64350000D01*
X63740000Y-66580000D02*
X63740000Y-65650000D01*
X63740000Y-66580000D02*
X65900000Y-66580000D01*
X63740000Y-63420000D02*
X65200000Y-63420000D01*
X62400000Y-61700000D02*
X62400000Y-62300000D01*
X60300000Y-61000000D02*
X61700000Y-61000000D01*
X59600000Y-62300000D02*
X59600000Y-61700000D01*
X61700000Y-63000000D02*
X60300000Y-63000000D01*
X62400000Y-62300000D02*
G75*
G02*
X61700000Y-63000000I-700000J0D01*
G01*
X61700000Y-61000000D02*
G75*
G02*
X62400000Y-61700000I0J-700000D01*
G01*
X59600000Y-61700000D02*
G75*
G02*
X60300000Y-61000000I700000J0D01*
G01*
X60300000Y-63000000D02*
G75*
G02*
X59600000Y-62300000I0J700000D01*
G01*
X78410000Y-47772936D02*
X78410000Y-49227064D01*
X76590000Y-47772936D02*
X76590000Y-49227064D01*
X76365000Y-41800000D02*
X76365000Y-45685000D01*
X76365000Y-45685000D02*
X78635000Y-45685000D01*
X78635000Y-45685000D02*
X78635000Y-41800000D01*
X76772936Y-52090000D02*
X78227064Y-52090000D01*
X76772936Y-53910000D02*
X78227064Y-53910000D01*
X82830000Y-40550000D02*
X80170000Y-40550000D01*
X82830000Y-48230000D02*
X82830000Y-40550000D01*
X80170000Y-48230000D02*
X80170000Y-40550000D01*
X82830000Y-48230000D02*
X80170000Y-48230000D01*
X82830000Y-49500000D02*
X82830000Y-50830000D01*
X82830000Y-50830000D02*
X81500000Y-50830000D01*
X76772936Y-54590000D02*
X78227064Y-54590000D01*
X76772936Y-56410000D02*
X78227064Y-56410000D01*
X34920000Y-67260000D02*
X35850000Y-67260000D01*
X38080000Y-67260000D02*
X37150000Y-67260000D01*
X38080000Y-67260000D02*
X38080000Y-65100000D01*
X34920000Y-67260000D02*
X34920000Y-65800000D01*
X49227064Y-63410000D02*
X47772936Y-63410000D01*
X49227064Y-61590000D02*
X47772936Y-61590000D01*
X37727064Y-63910000D02*
X36272936Y-63910000D01*
X37727064Y-62090000D02*
X36272936Y-62090000D01*
X42740000Y-61920000D02*
X42740000Y-62850000D01*
X42740000Y-65080000D02*
X42740000Y-64150000D01*
X42740000Y-65080000D02*
X44900000Y-65080000D01*
X42740000Y-61920000D02*
X44200000Y-61920000D01*
X46870000Y-68830000D02*
X46870000Y-66170000D01*
X44270000Y-68830000D02*
X46870000Y-68830000D01*
X44270000Y-66170000D02*
X46870000Y-66170000D01*
X44270000Y-68830000D02*
X44270000Y-66170000D01*
X43000000Y-68830000D02*
X41670000Y-68830000D01*
X41670000Y-68830000D02*
X41670000Y-67500000D01*
X58870000Y-68830000D02*
X58870000Y-66170000D01*
X53730000Y-68830000D02*
X58870000Y-68830000D01*
X53730000Y-66170000D02*
X58870000Y-66170000D01*
X53730000Y-68830000D02*
X53730000Y-66170000D01*
X52460000Y-68830000D02*
X51130000Y-68830000D01*
X51130000Y-68830000D02*
X51130000Y-67500000D01*
X49227064Y-58910000D02*
X47772936Y-58910000D01*
X49227064Y-57090000D02*
X47772936Y-57090000D01*
X36272936Y-57590000D02*
X37727064Y-57590000D01*
X36272936Y-59410000D02*
X37727064Y-59410000D01*
X42240000Y-56920000D02*
X42240000Y-57850000D01*
X42240000Y-60080000D02*
X42240000Y-59150000D01*
X42240000Y-60080000D02*
X44400000Y-60080000D01*
X42240000Y-56920000D02*
X43700000Y-56920000D01*
X29670000Y-62370000D02*
X32330000Y-62370000D01*
X29670000Y-59770000D02*
X29670000Y-62370000D01*
X32330000Y-59770000D02*
X32330000Y-62370000D01*
X29670000Y-59770000D02*
X32330000Y-59770000D01*
X29670000Y-58500000D02*
X29670000Y-57170000D01*
X29670000Y-57170000D02*
X31000000Y-57170000D01*
X36235436Y-50590000D02*
X37689564Y-50590000D01*
X36235436Y-52410000D02*
X37689564Y-52410000D01*
X29665000Y-55085000D02*
X32325000Y-55085000D01*
X29665000Y-52485000D02*
X29665000Y-55085000D01*
X32325000Y-52485000D02*
X32325000Y-55085000D01*
X29665000Y-52485000D02*
X32325000Y-52485000D01*
X29665000Y-51215000D02*
X29665000Y-49885000D01*
X29665000Y-49885000D02*
X30995000Y-49885000D01*
X49227064Y-52410000D02*
X47772936Y-52410000D01*
X49227064Y-50590000D02*
X47772936Y-50590000D01*
X104727064Y-51090000D02*
X103272936Y-51090000D01*
X104727064Y-52910000D02*
X103272936Y-52910000D01*
X108272936Y-52910000D02*
X109727064Y-52910000D01*
X108272936Y-51090000D02*
X109727064Y-51090000D01*
X42240000Y-50420000D02*
X42240000Y-51350000D01*
X42240000Y-53580000D02*
X42240000Y-52650000D01*
X42240000Y-53580000D02*
X44400000Y-53580000D01*
X42240000Y-50420000D02*
X43700000Y-50420000D01*
X111330000Y-57170000D02*
X111330000Y-58500000D01*
X110000000Y-57170000D02*
X111330000Y-57170000D01*
X108730000Y-57170000D02*
X108730000Y-59830000D01*
X108730000Y-59830000D02*
X103590000Y-59830000D01*
X108730000Y-57170000D02*
X103590000Y-57170000D01*
X103590000Y-57170000D02*
X103590000Y-59830000D01*
X113700000Y-60100000D02*
X114300000Y-60100000D01*
X113000000Y-62200000D02*
X113000000Y-60800000D01*
X114300000Y-62900000D02*
X113700000Y-62900000D01*
X115000000Y-60800000D02*
X115000000Y-62200000D01*
X114300000Y-60100000D02*
G75*
G02*
X115000000Y-60800000I0J-700000D01*
G01*
X113000000Y-60800000D02*
G75*
G02*
X113700000Y-60100000I700000J0D01*
G01*
X113700000Y-62900000D02*
G75*
G02*
X113000000Y-62200000I0J700000D01*
G01*
X115000000Y-62200000D02*
G75*
G02*
X114300000Y-62900000I-700000J0D01*
G01*
X118830000Y-47470000D02*
X116170000Y-47470000D01*
X118830000Y-60230000D02*
X118830000Y-47470000D01*
X116170000Y-60230000D02*
X116170000Y-47470000D01*
X118830000Y-60230000D02*
X116170000Y-60230000D01*
X118830000Y-61500000D02*
X118830000Y-62830000D01*
X118830000Y-62830000D02*
X117500000Y-62830000D01*
X99510000Y-58711252D02*
X99510000Y-57288748D01*
X97690000Y-58711252D02*
X97690000Y-57288748D01*
X100090000Y-64488748D02*
X100090000Y-65911252D01*
X101910000Y-64488748D02*
X101910000Y-65911252D01*
X100118000Y-58810436D02*
X100118000Y-60264564D01*
X101938000Y-58810436D02*
X101938000Y-60264564D01*
X78227064Y-57090000D02*
X76772936Y-57090000D01*
X78227064Y-58910000D02*
X76772936Y-58910000D01*
X96564758Y-62510000D02*
X98235242Y-62510000D01*
X96564758Y-60690000D02*
X98235242Y-60690000D01*
X95165000Y-64488748D02*
X95165000Y-65911252D01*
X96985000Y-64488748D02*
X96985000Y-65911252D01*
X97690000Y-64488748D02*
X97690000Y-65911252D01*
X99510000Y-64488748D02*
X99510000Y-65911252D01*
X96985000Y-58711252D02*
X96985000Y-57288748D01*
X95165000Y-58711252D02*
X95165000Y-57288748D01*
X92590000Y-65288748D02*
X92590000Y-66711252D01*
X94410000Y-65288748D02*
X94410000Y-66711252D01*
X75910000Y-66711252D02*
X75910000Y-65288748D01*
X74090000Y-66711252D02*
X74090000Y-65288748D01*
X96146398Y-49521464D02*
X95140536Y-48515602D01*
X94859464Y-50808398D02*
X93853602Y-49802536D01*
X81353602Y-60640536D02*
X82359464Y-61646398D01*
X82640536Y-59353602D02*
X83646398Y-60359464D01*
X105000000Y-68500000D02*
X109500000Y-68500000D01*
X103750000Y-64500000D02*
X103750000Y-66000000D01*
X109500000Y-62000000D02*
X105000000Y-62000000D01*
X110750000Y-66000000D02*
X110750000Y-64500000D01*
X55865000Y-45900000D02*
X55865000Y-49785000D01*
X55865000Y-49785000D02*
X58135000Y-49785000D01*
X58135000Y-49785000D02*
X58135000Y-45900000D01*
X41050000Y-40200000D02*
X40650000Y-40200000D01*
X41050000Y-40840000D02*
X41050000Y-40200000D01*
X36645000Y-44059000D02*
X36774000Y-43931000D01*
X34430000Y-46275000D02*
X34524000Y-46181000D01*
X36475000Y-43819000D02*
X36569000Y-43726000D01*
X34225000Y-46069000D02*
X34354000Y-45941000D01*
X33690000Y-48160000D02*
X33690000Y-40440000D01*
X40810000Y-48160000D02*
X40810000Y-40440000D01*
X40810000Y-40440000D02*
X33690000Y-40440000D01*
X40810000Y-48160000D02*
X33690000Y-48160000D01*
X40810000Y-42000000D02*
X33690000Y-42000000D01*
X40810000Y-40900000D02*
X33690000Y-40900000D01*
X37180000Y-45000000D02*
G75*
G03*
X37180000Y-45000000I-1680000J0D01*
G01*
X38109736Y-43575279D02*
G75*
G02*
X39000000Y-43320000I890264J-1424721D01*
G01*
X37574495Y-45890193D02*
G75*
G02*
X37575000Y-44109000I1425505J890193D01*
G01*
X39889894Y-46425358D02*
G75*
G02*
X38134000Y-46440000I-889894J1425358D01*
G01*
X40425358Y-44110106D02*
G75*
G02*
X40440000Y-45866000I-1425358J-889894D01*
G01*
X38971326Y-43319901D02*
G75*
G02*
X39866000Y-43560000I28674J-1680099D01*
G01*
X75050000Y-40200000D02*
X74650000Y-40200000D01*
X75050000Y-40840000D02*
X75050000Y-40200000D01*
X70645000Y-44059000D02*
X70774000Y-43931000D01*
X68430000Y-46275000D02*
X68524000Y-46181000D01*
X70475000Y-43819000D02*
X70569000Y-43726000D01*
X68225000Y-46069000D02*
X68354000Y-45941000D01*
X67690000Y-48160000D02*
X67690000Y-40440000D01*
X74810000Y-48160000D02*
X74810000Y-40440000D01*
X74810000Y-40440000D02*
X67690000Y-40440000D01*
X74810000Y-48160000D02*
X67690000Y-48160000D01*
X74810000Y-42000000D02*
X67690000Y-42000000D01*
X74810000Y-40900000D02*
X67690000Y-40900000D01*
X71180000Y-45000000D02*
G75*
G03*
X71180000Y-45000000I-1680000J0D01*
G01*
X72109736Y-43575279D02*
G75*
G02*
X73000000Y-43320000I890264J-1424721D01*
G01*
X71574495Y-45890193D02*
G75*
G02*
X71575000Y-44109000I1425505J890193D01*
G01*
X73889894Y-46425358D02*
G75*
G02*
X72134000Y-46440000I-889894J1425358D01*
G01*
X74425358Y-44110106D02*
G75*
G02*
X74440000Y-45866000I-1425358J-889894D01*
G01*
X72971326Y-43319901D02*
G75*
G02*
X73866000Y-43560000I28674J-1680099D01*
G01*
X53550000Y-40200000D02*
X53150000Y-40200000D01*
X53550000Y-40840000D02*
X53550000Y-40200000D01*
X49145000Y-44059000D02*
X49274000Y-43931000D01*
X46930000Y-46275000D02*
X47024000Y-46181000D01*
X48975000Y-43819000D02*
X49069000Y-43726000D01*
X46725000Y-46069000D02*
X46854000Y-45941000D01*
X46190000Y-48160000D02*
X46190000Y-40440000D01*
X53310000Y-48160000D02*
X53310000Y-40440000D01*
X53310000Y-40440000D02*
X46190000Y-40440000D01*
X53310000Y-48160000D02*
X46190000Y-48160000D01*
X53310000Y-42000000D02*
X46190000Y-42000000D01*
X53310000Y-40900000D02*
X46190000Y-40900000D01*
X49680000Y-45000000D02*
G75*
G03*
X49680000Y-45000000I-1680000J0D01*
G01*
X50609736Y-43575279D02*
G75*
G02*
X51500000Y-43320000I890264J-1424721D01*
G01*
X50074495Y-45890193D02*
G75*
G02*
X50075000Y-44109000I1425505J890193D01*
G01*
X52389894Y-46425358D02*
G75*
G02*
X50634000Y-46440000I-889894J1425358D01*
G01*
X52925358Y-44110106D02*
G75*
G02*
X52940000Y-45866000I-1425358J-889894D01*
G01*
X51471326Y-43319901D02*
G75*
G02*
X52366000Y-43560000I28674J-1680099D01*
G01*
X108200000Y-50100000D02*
X108500000Y-49500000D01*
X108800000Y-50100000D02*
X108200000Y-50100000D01*
X108500000Y-49500000D02*
X108800000Y-50100000D01*
X100750000Y-44800000D02*
X101250000Y-44800000D01*
X100750000Y-39300000D02*
X100750000Y-44800000D01*
X101250000Y-39300000D02*
X100750000Y-39300000D01*
X101250000Y-44800000D02*
X101250000Y-39300000D01*
X103250000Y-44800000D02*
X103750000Y-44800000D01*
X103250000Y-39300000D02*
X103250000Y-44800000D01*
X103750000Y-39300000D02*
X103250000Y-39300000D01*
X103750000Y-44800000D02*
X103750000Y-39300000D01*
X105750000Y-44800000D02*
X106250000Y-44800000D01*
X105750000Y-39300000D02*
X105750000Y-44800000D01*
X106250000Y-39300000D02*
X105750000Y-39300000D01*
X106250000Y-44800000D02*
X106250000Y-39300000D01*
X108250000Y-44800000D02*
X108750000Y-44800000D01*
X108250000Y-39300000D02*
X108250000Y-44800000D01*
X108750000Y-39300000D02*
X108250000Y-39300000D01*
X108750000Y-44800000D02*
X108750000Y-39300000D01*
X99860000Y-45910000D02*
X104750000Y-45910000D01*
X99860000Y-50410000D02*
X99860000Y-45910000D01*
X98440000Y-50410000D02*
X99860000Y-50410000D01*
X98440000Y-38690000D02*
X98440000Y-50410000D01*
X104750000Y-38690000D02*
X98440000Y-38690000D01*
X109640000Y-45910000D02*
X104750000Y-45910000D01*
X109640000Y-50410000D02*
X109640000Y-45910000D01*
X111060000Y-50410000D02*
X109640000Y-50410000D01*
X111060000Y-38690000D02*
X111060000Y-50410000D01*
X104750000Y-38690000D02*
X111060000Y-38690000D01*
X65910000Y-52772936D02*
X65910000Y-54227064D01*
X64090000Y-52772936D02*
X64090000Y-54227064D01*
X61910000Y-52772936D02*
X61910000Y-54227064D01*
X60090000Y-52772936D02*
X60090000Y-54227064D01*
X57910000Y-52772936D02*
X57910000Y-54227064D01*
X56090000Y-52772936D02*
X56090000Y-54227064D01*
X61300000Y-44400000D02*
X60700000Y-44400000D01*
X62000000Y-42300000D02*
X62000000Y-43700000D01*
X60700000Y-41600000D02*
X61300000Y-41600000D01*
X60000000Y-43700000D02*
X60000000Y-42300000D01*
X60000000Y-42300000D02*
G75*
G02*
X60700000Y-41600000I700000J0D01*
G01*
X61300000Y-41600000D02*
G75*
G02*
X62000000Y-42300000I0J-700000D01*
G01*
X62000000Y-43700000D02*
G75*
G02*
X61300000Y-44400000I-700000J0D01*
G01*
X60700000Y-44400000D02*
G75*
G02*
X60000000Y-43700000I0J700000D01*
G01*
X57300000Y-44400000D02*
X56700000Y-44400000D01*
X58000000Y-42300000D02*
X58000000Y-43700000D01*
X56700000Y-41600000D02*
X57300000Y-41600000D01*
X56000000Y-43700000D02*
X56000000Y-42300000D01*
X56000000Y-42300000D02*
G75*
G02*
X56700000Y-41600000I700000J0D01*
G01*
X57300000Y-41600000D02*
G75*
G02*
X58000000Y-42300000I0J-700000D01*
G01*
X58000000Y-43700000D02*
G75*
G02*
X57300000Y-44400000I-700000J0D01*
G01*
X56700000Y-44400000D02*
G75*
G02*
X56000000Y-43700000I0J700000D01*
G01*
X65300000Y-44400000D02*
X64700000Y-44400000D01*
X66000000Y-42300000D02*
X66000000Y-43700000D01*
X64700000Y-41600000D02*
X65300000Y-41600000D01*
X64000000Y-43700000D02*
X64000000Y-42300000D01*
X64000000Y-42300000D02*
G75*
G02*
X64700000Y-41600000I700000J0D01*
G01*
X65300000Y-41600000D02*
G75*
G02*
X66000000Y-42300000I0J-700000D01*
G01*
X66000000Y-43700000D02*
G75*
G02*
X65300000Y-44400000I-700000J0D01*
G01*
X64700000Y-44400000D02*
G75*
G02*
X64000000Y-43700000I0J700000D01*
G01*
X63865000Y-45900000D02*
X63865000Y-49785000D01*
X63865000Y-49785000D02*
X66135000Y-49785000D01*
X66135000Y-49785000D02*
X66135000Y-45900000D01*
X59865000Y-45900000D02*
X59865000Y-49785000D01*
X59865000Y-49785000D02*
X62135000Y-49785000D01*
X62135000Y-49785000D02*
X62135000Y-45900000D01*
D10*
X92147380Y-44968333D02*
X92861666Y-44968333D01*
X93004523Y-45015952D01*
X93099761Y-45111190D01*
X93147380Y-45254047D01*
X93147380Y-45349285D01*
X92147380Y-44063571D02*
X92147380Y-44254047D01*
X92195000Y-44349285D01*
X92242619Y-44396904D01*
X92385476Y-44492142D01*
X92575952Y-44539761D01*
X92956904Y-44539761D01*
X93052142Y-44492142D01*
X93099761Y-44444523D01*
X93147380Y-44349285D01*
X93147380Y-44158809D01*
X93099761Y-44063571D01*
X93052142Y-44015952D01*
X92956904Y-43968333D01*
X92718809Y-43968333D01*
X92623571Y-44015952D01*
X92575952Y-44063571D01*
X92528333Y-44158809D01*
X92528333Y-44349285D01*
X92575952Y-44444523D01*
X92623571Y-44492142D01*
X92718809Y-44539761D01*
X84023809Y-62226190D02*
X84023809Y-62702380D01*
X83690476Y-61702380D02*
X84023809Y-62226190D01*
X84357142Y-61702380D01*
X85214285Y-62702380D02*
X84642857Y-62702380D01*
X84928571Y-62702380D02*
X84928571Y-61702380D01*
X84833333Y-61845238D01*
X84738095Y-61940476D01*
X84642857Y-61988095D01*
X82027380Y-55757904D02*
X82836904Y-55757904D01*
X82932142Y-55710285D01*
X82979761Y-55662666D01*
X83027380Y-55567428D01*
X83027380Y-55376952D01*
X82979761Y-55281714D01*
X82932142Y-55234095D01*
X82836904Y-55186476D01*
X82027380Y-55186476D01*
X83027380Y-54186476D02*
X83027380Y-54757904D01*
X83027380Y-54472190D02*
X82027380Y-54472190D01*
X82170238Y-54567428D01*
X82265476Y-54662666D01*
X82313095Y-54757904D01*
X77357142Y-60452380D02*
X77023809Y-59976190D01*
X76785714Y-60452380D02*
X76785714Y-59452380D01*
X77166666Y-59452380D01*
X77261904Y-59500000D01*
X77309523Y-59547619D01*
X77357142Y-59642857D01*
X77357142Y-59785714D01*
X77309523Y-59880952D01*
X77261904Y-59928571D01*
X77166666Y-59976190D01*
X76785714Y-59976190D01*
X78309523Y-60452380D02*
X77738095Y-60452380D01*
X78023809Y-60452380D02*
X78023809Y-59452380D01*
X77928571Y-59595238D01*
X77833333Y-59690476D01*
X77738095Y-59738095D01*
X78880952Y-59880952D02*
X78785714Y-59833333D01*
X78738095Y-59785714D01*
X78690476Y-59690476D01*
X78690476Y-59642857D01*
X78738095Y-59547619D01*
X78785714Y-59500000D01*
X78880952Y-59452380D01*
X79071428Y-59452380D01*
X79166666Y-59500000D01*
X79214285Y-59547619D01*
X79261904Y-59642857D01*
X79261904Y-59690476D01*
X79214285Y-59785714D01*
X79166666Y-59833333D01*
X79071428Y-59880952D01*
X78880952Y-59880952D01*
X78785714Y-59928571D01*
X78738095Y-59976190D01*
X78690476Y-60071428D01*
X78690476Y-60261904D01*
X78738095Y-60357142D01*
X78785714Y-60404761D01*
X78880952Y-60452380D01*
X79071428Y-60452380D01*
X79166666Y-60404761D01*
X79214285Y-60357142D01*
X79261904Y-60261904D01*
X79261904Y-60071428D01*
X79214285Y-59976190D01*
X79166666Y-59928571D01*
X79071428Y-59880952D01*
X67632380Y-66142857D02*
X67156190Y-66476190D01*
X67632380Y-66714285D02*
X66632380Y-66714285D01*
X66632380Y-66333333D01*
X66680000Y-66238095D01*
X66727619Y-66190476D01*
X66822857Y-66142857D01*
X66965714Y-66142857D01*
X67060952Y-66190476D01*
X67108571Y-66238095D01*
X67156190Y-66333333D01*
X67156190Y-66714285D01*
X67632380Y-65190476D02*
X67632380Y-65761904D01*
X67632380Y-65476190D02*
X66632380Y-65476190D01*
X66775238Y-65571428D01*
X66870476Y-65666666D01*
X66918095Y-65761904D01*
X66632380Y-64857142D02*
X66632380Y-64190476D01*
X67632380Y-64619047D01*
X75047619Y-62095238D02*
X75000000Y-62190476D01*
X74904761Y-62285714D01*
X74761904Y-62428571D01*
X74714285Y-62523809D01*
X74714285Y-62619047D01*
X74952380Y-62571428D02*
X74904761Y-62666666D01*
X74809523Y-62761904D01*
X74619047Y-62809523D01*
X74285714Y-62809523D01*
X74095238Y-62761904D01*
X74000000Y-62666666D01*
X73952380Y-62571428D01*
X73952380Y-62380952D01*
X74000000Y-62285714D01*
X74095238Y-62190476D01*
X74285714Y-62142857D01*
X74619047Y-62142857D01*
X74809523Y-62190476D01*
X74904761Y-62285714D01*
X74952380Y-62380952D01*
X74952380Y-62571428D01*
X73952380Y-61285714D02*
X73952380Y-61476190D01*
X74000000Y-61571428D01*
X74047619Y-61619047D01*
X74190476Y-61714285D01*
X74380952Y-61761904D01*
X74761904Y-61761904D01*
X74857142Y-61714285D01*
X74904761Y-61666666D01*
X74952380Y-61571428D01*
X74952380Y-61380952D01*
X74904761Y-61285714D01*
X74857142Y-61238095D01*
X74761904Y-61190476D01*
X74523809Y-61190476D01*
X74428571Y-61238095D01*
X74380952Y-61285714D01*
X74333333Y-61380952D01*
X74333333Y-61571428D01*
X74380952Y-61666666D01*
X74428571Y-61714285D01*
X74523809Y-61761904D01*
X64404761Y-68047619D02*
X64309523Y-68000000D01*
X64214285Y-67904761D01*
X64071428Y-67761904D01*
X63976190Y-67714285D01*
X63880952Y-67714285D01*
X63928571Y-67952380D02*
X63833333Y-67904761D01*
X63738095Y-67809523D01*
X63690476Y-67619047D01*
X63690476Y-67285714D01*
X63738095Y-67095238D01*
X63833333Y-67000000D01*
X63928571Y-66952380D01*
X64119047Y-66952380D01*
X64214285Y-67000000D01*
X64309523Y-67095238D01*
X64357142Y-67285714D01*
X64357142Y-67619047D01*
X64309523Y-67809523D01*
X64214285Y-67904761D01*
X64119047Y-67952380D01*
X63928571Y-67952380D01*
X65261904Y-66952380D02*
X64785714Y-66952380D01*
X64738095Y-67428571D01*
X64785714Y-67380952D01*
X64880952Y-67333333D01*
X65119047Y-67333333D01*
X65214285Y-67380952D01*
X65261904Y-67428571D01*
X65309523Y-67523809D01*
X65309523Y-67761904D01*
X65261904Y-67857142D01*
X65214285Y-67904761D01*
X65119047Y-67952380D01*
X64880952Y-67952380D01*
X64785714Y-67904761D01*
X64738095Y-67857142D01*
X60166666Y-63252380D02*
X60166666Y-63966666D01*
X60119047Y-64109523D01*
X60023809Y-64204761D01*
X59880952Y-64252380D01*
X59785714Y-64252380D01*
X60642857Y-64252380D02*
X60642857Y-63252380D01*
X61023809Y-63252380D01*
X61119047Y-63300000D01*
X61166666Y-63347619D01*
X61214285Y-63442857D01*
X61214285Y-63585714D01*
X61166666Y-63680952D01*
X61119047Y-63728571D01*
X61023809Y-63776190D01*
X60642857Y-63776190D01*
X62119047Y-63252380D02*
X61642857Y-63252380D01*
X61595238Y-63728571D01*
X61642857Y-63680952D01*
X61738095Y-63633333D01*
X61976190Y-63633333D01*
X62071428Y-63680952D01*
X62119047Y-63728571D01*
X62166666Y-63823809D01*
X62166666Y-64061904D01*
X62119047Y-64157142D01*
X62071428Y-64204761D01*
X61976190Y-64252380D01*
X61738095Y-64252380D01*
X61642857Y-64204761D01*
X61595238Y-64157142D01*
X73857142Y-50952380D02*
X73523809Y-50476190D01*
X73285714Y-50952380D02*
X73285714Y-49952380D01*
X73666666Y-49952380D01*
X73761904Y-50000000D01*
X73809523Y-50047619D01*
X73857142Y-50142857D01*
X73857142Y-50285714D01*
X73809523Y-50380952D01*
X73761904Y-50428571D01*
X73666666Y-50476190D01*
X73285714Y-50476190D01*
X74809523Y-50952380D02*
X74238095Y-50952380D01*
X74523809Y-50952380D02*
X74523809Y-49952380D01*
X74428571Y-50095238D01*
X74333333Y-50190476D01*
X74238095Y-50238095D01*
X75666666Y-49952380D02*
X75476190Y-49952380D01*
X75380952Y-50000000D01*
X75333333Y-50047619D01*
X75238095Y-50190476D01*
X75190476Y-50380952D01*
X75190476Y-50761904D01*
X75238095Y-50857142D01*
X75285714Y-50904761D01*
X75380952Y-50952380D01*
X75571428Y-50952380D01*
X75666666Y-50904761D01*
X75714285Y-50857142D01*
X75761904Y-50761904D01*
X75761904Y-50523809D01*
X75714285Y-50428571D01*
X75666666Y-50380952D01*
X75571428Y-50333333D01*
X75380952Y-50333333D01*
X75285714Y-50380952D01*
X75238095Y-50428571D01*
X75190476Y-50523809D01*
X76761904Y-43952380D02*
X76761904Y-42952380D01*
X77000000Y-42952380D01*
X77142857Y-43000000D01*
X77238095Y-43095238D01*
X77285714Y-43190476D01*
X77333333Y-43380952D01*
X77333333Y-43523809D01*
X77285714Y-43714285D01*
X77238095Y-43809523D01*
X77142857Y-43904761D01*
X77000000Y-43952380D01*
X76761904Y-43952380D01*
X78190476Y-43285714D02*
X78190476Y-43952380D01*
X77952380Y-42904761D02*
X77714285Y-43619047D01*
X78333333Y-43619047D01*
X72857142Y-53452380D02*
X72523809Y-52976190D01*
X72285714Y-53452380D02*
X72285714Y-52452380D01*
X72666666Y-52452380D01*
X72761904Y-52500000D01*
X72809523Y-52547619D01*
X72857142Y-52642857D01*
X72857142Y-52785714D01*
X72809523Y-52880952D01*
X72761904Y-52928571D01*
X72666666Y-52976190D01*
X72285714Y-52976190D01*
X73809523Y-53452380D02*
X73238095Y-53452380D01*
X73523809Y-53452380D02*
X73523809Y-52452380D01*
X73428571Y-52595238D01*
X73333333Y-52690476D01*
X73238095Y-52738095D01*
X74714285Y-52452380D02*
X74238095Y-52452380D01*
X74190476Y-52928571D01*
X74238095Y-52880952D01*
X74333333Y-52833333D01*
X74571428Y-52833333D01*
X74666666Y-52880952D01*
X74714285Y-52928571D01*
X74761904Y-53023809D01*
X74761904Y-53261904D01*
X74714285Y-53357142D01*
X74666666Y-53404761D01*
X74571428Y-53452380D01*
X74333333Y-53452380D01*
X74238095Y-53404761D01*
X74190476Y-53357142D01*
X80690476Y-51952380D02*
X80690476Y-52666666D01*
X80642857Y-52809523D01*
X80547619Y-52904761D01*
X80404761Y-52952380D01*
X80309523Y-52952380D01*
X81690476Y-52952380D02*
X81119047Y-52952380D01*
X81404761Y-52952380D02*
X81404761Y-51952380D01*
X81309523Y-52095238D01*
X81214285Y-52190476D01*
X81119047Y-52238095D01*
X82023809Y-51952380D02*
X82690476Y-51952380D01*
X82261904Y-52952380D01*
X72857142Y-55952380D02*
X72523809Y-55476190D01*
X72285714Y-55952380D02*
X72285714Y-54952380D01*
X72666666Y-54952380D01*
X72761904Y-55000000D01*
X72809523Y-55047619D01*
X72857142Y-55142857D01*
X72857142Y-55285714D01*
X72809523Y-55380952D01*
X72761904Y-55428571D01*
X72666666Y-55476190D01*
X72285714Y-55476190D01*
X73809523Y-55952380D02*
X73238095Y-55952380D01*
X73523809Y-55952380D02*
X73523809Y-54952380D01*
X73428571Y-55095238D01*
X73333333Y-55190476D01*
X73238095Y-55238095D01*
X74666666Y-55285714D02*
X74666666Y-55952380D01*
X74428571Y-54904761D02*
X74190476Y-55619047D01*
X74809523Y-55619047D01*
X34547619Y-66595238D02*
X34500000Y-66690476D01*
X34404761Y-66785714D01*
X34261904Y-66928571D01*
X34214285Y-67023809D01*
X34214285Y-67119047D01*
X34452380Y-67071428D02*
X34404761Y-67166666D01*
X34309523Y-67261904D01*
X34119047Y-67309523D01*
X33785714Y-67309523D01*
X33595238Y-67261904D01*
X33500000Y-67166666D01*
X33452380Y-67071428D01*
X33452380Y-66880952D01*
X33500000Y-66785714D01*
X33595238Y-66690476D01*
X33785714Y-66642857D01*
X34119047Y-66642857D01*
X34309523Y-66690476D01*
X34404761Y-66785714D01*
X34452380Y-66880952D01*
X34452380Y-67071428D01*
X33452380Y-66309523D02*
X33452380Y-65690476D01*
X33833333Y-66023809D01*
X33833333Y-65880952D01*
X33880952Y-65785714D01*
X33928571Y-65738095D01*
X34023809Y-65690476D01*
X34261904Y-65690476D01*
X34357142Y-65738095D01*
X34404761Y-65785714D01*
X34452380Y-65880952D01*
X34452380Y-66166666D01*
X34404761Y-66261904D01*
X34357142Y-66309523D01*
X47857142Y-64772380D02*
X47523809Y-64296190D01*
X47285714Y-64772380D02*
X47285714Y-63772380D01*
X47666666Y-63772380D01*
X47761904Y-63820000D01*
X47809523Y-63867619D01*
X47857142Y-63962857D01*
X47857142Y-64105714D01*
X47809523Y-64200952D01*
X47761904Y-64248571D01*
X47666666Y-64296190D01*
X47285714Y-64296190D01*
X48809523Y-64772380D02*
X48238095Y-64772380D01*
X48523809Y-64772380D02*
X48523809Y-63772380D01*
X48428571Y-63915238D01*
X48333333Y-64010476D01*
X48238095Y-64058095D01*
X49142857Y-63772380D02*
X49761904Y-63772380D01*
X49428571Y-64153333D01*
X49571428Y-64153333D01*
X49666666Y-64200952D01*
X49714285Y-64248571D01*
X49761904Y-64343809D01*
X49761904Y-64581904D01*
X49714285Y-64677142D01*
X49666666Y-64724761D01*
X49571428Y-64772380D01*
X49285714Y-64772380D01*
X49190476Y-64724761D01*
X49142857Y-64677142D01*
X36357142Y-61452380D02*
X36023809Y-60976190D01*
X35785714Y-61452380D02*
X35785714Y-60452380D01*
X36166666Y-60452380D01*
X36261904Y-60500000D01*
X36309523Y-60547619D01*
X36357142Y-60642857D01*
X36357142Y-60785714D01*
X36309523Y-60880952D01*
X36261904Y-60928571D01*
X36166666Y-60976190D01*
X35785714Y-60976190D01*
X37309523Y-61452380D02*
X36738095Y-61452380D01*
X37023809Y-61452380D02*
X37023809Y-60452380D01*
X36928571Y-60595238D01*
X36833333Y-60690476D01*
X36738095Y-60738095D01*
X37690476Y-60547619D02*
X37738095Y-60500000D01*
X37833333Y-60452380D01*
X38071428Y-60452380D01*
X38166666Y-60500000D01*
X38214285Y-60547619D01*
X38261904Y-60642857D01*
X38261904Y-60738095D01*
X38214285Y-60880952D01*
X37642857Y-61452380D01*
X38261904Y-61452380D01*
X41404761Y-62047619D02*
X41309523Y-62000000D01*
X41214285Y-61904761D01*
X41071428Y-61761904D01*
X40976190Y-61714285D01*
X40880952Y-61714285D01*
X40928571Y-61952380D02*
X40833333Y-61904761D01*
X40738095Y-61809523D01*
X40690476Y-61619047D01*
X40690476Y-61285714D01*
X40738095Y-61095238D01*
X40833333Y-61000000D01*
X40928571Y-60952380D01*
X41119047Y-60952380D01*
X41214285Y-61000000D01*
X41309523Y-61095238D01*
X41357142Y-61285714D01*
X41357142Y-61619047D01*
X41309523Y-61809523D01*
X41214285Y-61904761D01*
X41119047Y-61952380D01*
X40928571Y-61952380D01*
X42214285Y-61285714D02*
X42214285Y-61952380D01*
X41976190Y-60904761D02*
X41738095Y-61619047D01*
X42357142Y-61619047D01*
X40122380Y-68309523D02*
X40836666Y-68309523D01*
X40979523Y-68357142D01*
X41074761Y-68452380D01*
X41122380Y-68595238D01*
X41122380Y-68690476D01*
X41122380Y-67309523D02*
X41122380Y-67880952D01*
X41122380Y-67595238D02*
X40122380Y-67595238D01*
X40265238Y-67690476D01*
X40360476Y-67785714D01*
X40408095Y-67880952D01*
X40122380Y-66452380D02*
X40122380Y-66642857D01*
X40170000Y-66738095D01*
X40217619Y-66785714D01*
X40360476Y-66880952D01*
X40550952Y-66928571D01*
X40931904Y-66928571D01*
X41027142Y-66880952D01*
X41074761Y-66833333D01*
X41122380Y-66738095D01*
X41122380Y-66547619D01*
X41074761Y-66452380D01*
X41027142Y-66404761D01*
X40931904Y-66357142D01*
X40693809Y-66357142D01*
X40598571Y-66404761D01*
X40550952Y-66452380D01*
X40503333Y-66547619D01*
X40503333Y-66738095D01*
X40550952Y-66833333D01*
X40598571Y-66880952D01*
X40693809Y-66928571D01*
X49582380Y-68309523D02*
X50296666Y-68309523D01*
X50439523Y-68357142D01*
X50534761Y-68452380D01*
X50582380Y-68595238D01*
X50582380Y-68690476D01*
X50582380Y-67309523D02*
X50582380Y-67880952D01*
X50582380Y-67595238D02*
X49582380Y-67595238D01*
X49725238Y-67690476D01*
X49820476Y-67785714D01*
X49868095Y-67880952D01*
X49582380Y-66404761D02*
X49582380Y-66880952D01*
X50058571Y-66928571D01*
X50010952Y-66880952D01*
X49963333Y-66785714D01*
X49963333Y-66547619D01*
X50010952Y-66452380D01*
X50058571Y-66404761D01*
X50153809Y-66357142D01*
X50391904Y-66357142D01*
X50487142Y-66404761D01*
X50534761Y-66452380D01*
X50582380Y-66547619D01*
X50582380Y-66785714D01*
X50534761Y-66880952D01*
X50487142Y-66928571D01*
X47857142Y-60272380D02*
X47523809Y-59796190D01*
X47285714Y-60272380D02*
X47285714Y-59272380D01*
X47666666Y-59272380D01*
X47761904Y-59320000D01*
X47809523Y-59367619D01*
X47857142Y-59462857D01*
X47857142Y-59605714D01*
X47809523Y-59700952D01*
X47761904Y-59748571D01*
X47666666Y-59796190D01*
X47285714Y-59796190D01*
X48809523Y-60272380D02*
X48238095Y-60272380D01*
X48523809Y-60272380D02*
X48523809Y-59272380D01*
X48428571Y-59415238D01*
X48333333Y-59510476D01*
X48238095Y-59558095D01*
X49761904Y-60272380D02*
X49190476Y-60272380D01*
X49476190Y-60272380D02*
X49476190Y-59272380D01*
X49380952Y-59415238D01*
X49285714Y-59510476D01*
X49190476Y-59558095D01*
X36357142Y-57132380D02*
X36023809Y-56656190D01*
X35785714Y-57132380D02*
X35785714Y-56132380D01*
X36166666Y-56132380D01*
X36261904Y-56180000D01*
X36309523Y-56227619D01*
X36357142Y-56322857D01*
X36357142Y-56465714D01*
X36309523Y-56560952D01*
X36261904Y-56608571D01*
X36166666Y-56656190D01*
X35785714Y-56656190D01*
X37309523Y-57132380D02*
X36738095Y-57132380D01*
X37023809Y-57132380D02*
X37023809Y-56132380D01*
X36928571Y-56275238D01*
X36833333Y-56370476D01*
X36738095Y-56418095D01*
X37928571Y-56132380D02*
X38023809Y-56132380D01*
X38119047Y-56180000D01*
X38166666Y-56227619D01*
X38214285Y-56322857D01*
X38261904Y-56513333D01*
X38261904Y-56751428D01*
X38214285Y-56941904D01*
X38166666Y-57037142D01*
X38119047Y-57084761D01*
X38023809Y-57132380D01*
X37928571Y-57132380D01*
X37833333Y-57084761D01*
X37785714Y-57037142D01*
X37738095Y-56941904D01*
X37690476Y-56751428D01*
X37690476Y-56513333D01*
X37738095Y-56322857D01*
X37785714Y-56227619D01*
X37833333Y-56180000D01*
X37928571Y-56132380D01*
X40904761Y-57047619D02*
X40809523Y-57000000D01*
X40714285Y-56904761D01*
X40571428Y-56761904D01*
X40476190Y-56714285D01*
X40380952Y-56714285D01*
X40428571Y-56952380D02*
X40333333Y-56904761D01*
X40238095Y-56809523D01*
X40190476Y-56619047D01*
X40190476Y-56285714D01*
X40238095Y-56095238D01*
X40333333Y-56000000D01*
X40428571Y-55952380D01*
X40619047Y-55952380D01*
X40714285Y-56000000D01*
X40809523Y-56095238D01*
X40857142Y-56285714D01*
X40857142Y-56619047D01*
X40809523Y-56809523D01*
X40714285Y-56904761D01*
X40619047Y-56952380D01*
X40428571Y-56952380D01*
X41238095Y-56047619D02*
X41285714Y-56000000D01*
X41380952Y-55952380D01*
X41619047Y-55952380D01*
X41714285Y-56000000D01*
X41761904Y-56047619D01*
X41809523Y-56142857D01*
X41809523Y-56238095D01*
X41761904Y-56380952D01*
X41190476Y-56952380D01*
X41809523Y-56952380D01*
X30190476Y-55622380D02*
X30190476Y-56336666D01*
X30142857Y-56479523D01*
X30047619Y-56574761D01*
X29904761Y-56622380D01*
X29809523Y-56622380D01*
X31190476Y-56622380D02*
X30619047Y-56622380D01*
X30904761Y-56622380D02*
X30904761Y-55622380D01*
X30809523Y-55765238D01*
X30714285Y-55860476D01*
X30619047Y-55908095D01*
X32047619Y-55955714D02*
X32047619Y-56622380D01*
X31809523Y-55574761D02*
X31571428Y-56289047D01*
X32190476Y-56289047D01*
X36795833Y-51952380D02*
X36462500Y-51476190D01*
X36224404Y-51952380D02*
X36224404Y-50952380D01*
X36605357Y-50952380D01*
X36700595Y-51000000D01*
X36748214Y-51047619D01*
X36795833Y-51142857D01*
X36795833Y-51285714D01*
X36748214Y-51380952D01*
X36700595Y-51428571D01*
X36605357Y-51476190D01*
X36224404Y-51476190D01*
X37272023Y-51952380D02*
X37462500Y-51952380D01*
X37557738Y-51904761D01*
X37605357Y-51857142D01*
X37700595Y-51714285D01*
X37748214Y-51523809D01*
X37748214Y-51142857D01*
X37700595Y-51047619D01*
X37652976Y-51000000D01*
X37557738Y-50952380D01*
X37367261Y-50952380D01*
X37272023Y-51000000D01*
X37224404Y-51047619D01*
X37176785Y-51142857D01*
X37176785Y-51380952D01*
X37224404Y-51476190D01*
X37272023Y-51523809D01*
X37367261Y-51571428D01*
X37557738Y-51571428D01*
X37652976Y-51523809D01*
X37700595Y-51476190D01*
X37748214Y-51380952D01*
X30185476Y-48337380D02*
X30185476Y-49051666D01*
X30137857Y-49194523D01*
X30042619Y-49289761D01*
X29899761Y-49337380D01*
X29804523Y-49337380D01*
X31185476Y-49337380D02*
X30614047Y-49337380D01*
X30899761Y-49337380D02*
X30899761Y-48337380D01*
X30804523Y-48480238D01*
X30709285Y-48575476D01*
X30614047Y-48623095D01*
X32137857Y-49337380D02*
X31566428Y-49337380D01*
X31852142Y-49337380D02*
X31852142Y-48337380D01*
X31756904Y-48480238D01*
X31661666Y-48575476D01*
X31566428Y-48623095D01*
X48333333Y-53772380D02*
X48000000Y-53296190D01*
X47761904Y-53772380D02*
X47761904Y-52772380D01*
X48142857Y-52772380D01*
X48238095Y-52820000D01*
X48285714Y-52867619D01*
X48333333Y-52962857D01*
X48333333Y-53105714D01*
X48285714Y-53200952D01*
X48238095Y-53248571D01*
X48142857Y-53296190D01*
X47761904Y-53296190D01*
X48904761Y-53200952D02*
X48809523Y-53153333D01*
X48761904Y-53105714D01*
X48714285Y-53010476D01*
X48714285Y-52962857D01*
X48761904Y-52867619D01*
X48809523Y-52820000D01*
X48904761Y-52772380D01*
X49095238Y-52772380D01*
X49190476Y-52820000D01*
X49238095Y-52867619D01*
X49285714Y-52962857D01*
X49285714Y-53010476D01*
X49238095Y-53105714D01*
X49190476Y-53153333D01*
X49095238Y-53200952D01*
X48904761Y-53200952D01*
X48809523Y-53248571D01*
X48761904Y-53296190D01*
X48714285Y-53391428D01*
X48714285Y-53581904D01*
X48761904Y-53677142D01*
X48809523Y-53724761D01*
X48904761Y-53772380D01*
X49095238Y-53772380D01*
X49190476Y-53724761D01*
X49238095Y-53677142D01*
X49285714Y-53581904D01*
X49285714Y-53391428D01*
X49238095Y-53296190D01*
X49190476Y-53248571D01*
X49095238Y-53200952D01*
X103833333Y-54272380D02*
X103500000Y-53796190D01*
X103261904Y-54272380D02*
X103261904Y-53272380D01*
X103642857Y-53272380D01*
X103738095Y-53320000D01*
X103785714Y-53367619D01*
X103833333Y-53462857D01*
X103833333Y-53605714D01*
X103785714Y-53700952D01*
X103738095Y-53748571D01*
X103642857Y-53796190D01*
X103261904Y-53796190D01*
X104166666Y-53272380D02*
X104833333Y-53272380D01*
X104404761Y-54272380D01*
X108833333Y-50632380D02*
X108500000Y-50156190D01*
X108261904Y-50632380D02*
X108261904Y-49632380D01*
X108642857Y-49632380D01*
X108738095Y-49680000D01*
X108785714Y-49727619D01*
X108833333Y-49822857D01*
X108833333Y-49965714D01*
X108785714Y-50060952D01*
X108738095Y-50108571D01*
X108642857Y-50156190D01*
X108261904Y-50156190D01*
X109690476Y-49632380D02*
X109500000Y-49632380D01*
X109404761Y-49680000D01*
X109357142Y-49727619D01*
X109261904Y-49870476D01*
X109214285Y-50060952D01*
X109214285Y-50441904D01*
X109261904Y-50537142D01*
X109309523Y-50584761D01*
X109404761Y-50632380D01*
X109595238Y-50632380D01*
X109690476Y-50584761D01*
X109738095Y-50537142D01*
X109785714Y-50441904D01*
X109785714Y-50203809D01*
X109738095Y-50108571D01*
X109690476Y-50060952D01*
X109595238Y-50013333D01*
X109404761Y-50013333D01*
X109309523Y-50060952D01*
X109261904Y-50108571D01*
X109214285Y-50203809D01*
X40904761Y-51047619D02*
X40809523Y-51000000D01*
X40714285Y-50904761D01*
X40571428Y-50761904D01*
X40476190Y-50714285D01*
X40380952Y-50714285D01*
X40428571Y-50952380D02*
X40333333Y-50904761D01*
X40238095Y-50809523D01*
X40190476Y-50619047D01*
X40190476Y-50285714D01*
X40238095Y-50095238D01*
X40333333Y-50000000D01*
X40428571Y-49952380D01*
X40619047Y-49952380D01*
X40714285Y-50000000D01*
X40809523Y-50095238D01*
X40857142Y-50285714D01*
X40857142Y-50619047D01*
X40809523Y-50809523D01*
X40714285Y-50904761D01*
X40619047Y-50952380D01*
X40428571Y-50952380D01*
X41809523Y-50952380D02*
X41238095Y-50952380D01*
X41523809Y-50952380D02*
X41523809Y-49952380D01*
X41428571Y-50095238D01*
X41333333Y-50190476D01*
X41238095Y-50238095D01*
X110702380Y-56583333D02*
X111416666Y-56583333D01*
X111559523Y-56630952D01*
X111654761Y-56726190D01*
X111702380Y-56869047D01*
X111702380Y-56964285D01*
X111130952Y-55964285D02*
X111083333Y-56059523D01*
X111035714Y-56107142D01*
X110940476Y-56154761D01*
X110892857Y-56154761D01*
X110797619Y-56107142D01*
X110750000Y-56059523D01*
X110702380Y-55964285D01*
X110702380Y-55773809D01*
X110750000Y-55678571D01*
X110797619Y-55630952D01*
X110892857Y-55583333D01*
X110940476Y-55583333D01*
X111035714Y-55630952D01*
X111083333Y-55678571D01*
X111130952Y-55773809D01*
X111130952Y-55964285D01*
X111178571Y-56059523D01*
X111226190Y-56107142D01*
X111321428Y-56154761D01*
X111511904Y-56154761D01*
X111607142Y-56107142D01*
X111654761Y-56059523D01*
X111702380Y-55964285D01*
X111702380Y-55773809D01*
X111654761Y-55678571D01*
X111607142Y-55630952D01*
X111511904Y-55583333D01*
X111321428Y-55583333D01*
X111226190Y-55630952D01*
X111178571Y-55678571D01*
X111130952Y-55773809D01*
X111452380Y-62333333D02*
X112166666Y-62333333D01*
X112309523Y-62380952D01*
X112404761Y-62476190D01*
X112452380Y-62619047D01*
X112452380Y-62714285D01*
X112452380Y-61857142D02*
X111452380Y-61857142D01*
X111452380Y-61476190D01*
X111500000Y-61380952D01*
X111547619Y-61333333D01*
X111642857Y-61285714D01*
X111785714Y-61285714D01*
X111880952Y-61333333D01*
X111928571Y-61380952D01*
X111976190Y-61476190D01*
X111976190Y-61857142D01*
X111785714Y-60428571D02*
X112452380Y-60428571D01*
X111404761Y-60666666D02*
X112119047Y-60904761D01*
X112119047Y-60285714D01*
X117166666Y-63282380D02*
X117166666Y-63996666D01*
X117119047Y-64139523D01*
X117023809Y-64234761D01*
X116880952Y-64282380D01*
X116785714Y-64282380D01*
X117547619Y-63282380D02*
X118214285Y-63282380D01*
X117785714Y-64282380D01*
X98433333Y-55357142D02*
X98385714Y-55404761D01*
X98242857Y-55452380D01*
X98147619Y-55452380D01*
X98004761Y-55404761D01*
X97909523Y-55309523D01*
X97861904Y-55214285D01*
X97814285Y-55023809D01*
X97814285Y-54880952D01*
X97861904Y-54690476D01*
X97909523Y-54595238D01*
X98004761Y-54500000D01*
X98147619Y-54452380D01*
X98242857Y-54452380D01*
X98385714Y-54500000D01*
X98433333Y-54547619D01*
X99290476Y-54785714D02*
X99290476Y-55452380D01*
X99052380Y-54404761D02*
X98814285Y-55119047D01*
X99433333Y-55119047D01*
X100833333Y-68757142D02*
X100785714Y-68804761D01*
X100642857Y-68852380D01*
X100547619Y-68852380D01*
X100404761Y-68804761D01*
X100309523Y-68709523D01*
X100261904Y-68614285D01*
X100214285Y-68423809D01*
X100214285Y-68280952D01*
X100261904Y-68090476D01*
X100309523Y-67995238D01*
X100404761Y-67900000D01*
X100547619Y-67852380D01*
X100642857Y-67852380D01*
X100785714Y-67900000D01*
X100833333Y-67947619D01*
X101166666Y-67852380D02*
X101785714Y-67852380D01*
X101452380Y-68233333D01*
X101595238Y-68233333D01*
X101690476Y-68280952D01*
X101738095Y-68328571D01*
X101785714Y-68423809D01*
X101785714Y-68661904D01*
X101738095Y-68757142D01*
X101690476Y-68804761D01*
X101595238Y-68852380D01*
X101309523Y-68852380D01*
X101214285Y-68804761D01*
X101166666Y-68757142D01*
X101452380Y-56166666D02*
X100976190Y-56500000D01*
X101452380Y-56738095D02*
X100452380Y-56738095D01*
X100452380Y-56357142D01*
X100500000Y-56261904D01*
X100547619Y-56214285D01*
X100642857Y-56166666D01*
X100785714Y-56166666D01*
X100880952Y-56214285D01*
X100928571Y-56261904D01*
X100976190Y-56357142D01*
X100976190Y-56738095D01*
X100452380Y-55261904D02*
X100452380Y-55738095D01*
X100928571Y-55785714D01*
X100880952Y-55738095D01*
X100833333Y-55642857D01*
X100833333Y-55404761D01*
X100880952Y-55309523D01*
X100928571Y-55261904D01*
X101023809Y-55214285D01*
X101261904Y-55214285D01*
X101357142Y-55261904D01*
X101404761Y-55309523D01*
X101452380Y-55404761D01*
X101452380Y-55642857D01*
X101404761Y-55738095D01*
X101357142Y-55785714D01*
X74952380Y-58166666D02*
X74476190Y-58500000D01*
X74952380Y-58738095D02*
X73952380Y-58738095D01*
X73952380Y-58357142D01*
X74000000Y-58261904D01*
X74047619Y-58214285D01*
X74142857Y-58166666D01*
X74285714Y-58166666D01*
X74380952Y-58214285D01*
X74428571Y-58261904D01*
X74476190Y-58357142D01*
X74476190Y-58738095D01*
X74285714Y-57309523D02*
X74952380Y-57309523D01*
X73904761Y-57547619D02*
X74619047Y-57785714D01*
X74619047Y-57166666D01*
X97233333Y-62052380D02*
X96757142Y-62052380D01*
X96757142Y-61052380D01*
X98090476Y-62052380D02*
X97519047Y-62052380D01*
X97804761Y-62052380D02*
X97804761Y-61052380D01*
X97709523Y-61195238D01*
X97614285Y-61290476D01*
X97519047Y-61338095D01*
X95833333Y-68757142D02*
X95785714Y-68804761D01*
X95642857Y-68852380D01*
X95547619Y-68852380D01*
X95404761Y-68804761D01*
X95309523Y-68709523D01*
X95261904Y-68614285D01*
X95214285Y-68423809D01*
X95214285Y-68280952D01*
X95261904Y-68090476D01*
X95309523Y-67995238D01*
X95404761Y-67900000D01*
X95547619Y-67852380D01*
X95642857Y-67852380D01*
X95785714Y-67900000D01*
X95833333Y-67947619D01*
X96309523Y-68852380D02*
X96500000Y-68852380D01*
X96595238Y-68804761D01*
X96642857Y-68757142D01*
X96738095Y-68614285D01*
X96785714Y-68423809D01*
X96785714Y-68042857D01*
X96738095Y-67947619D01*
X96690476Y-67900000D01*
X96595238Y-67852380D01*
X96404761Y-67852380D01*
X96309523Y-67900000D01*
X96261904Y-67947619D01*
X96214285Y-68042857D01*
X96214285Y-68280952D01*
X96261904Y-68376190D01*
X96309523Y-68423809D01*
X96404761Y-68471428D01*
X96595238Y-68471428D01*
X96690476Y-68423809D01*
X96738095Y-68376190D01*
X96785714Y-68280952D01*
X98433333Y-68757142D02*
X98385714Y-68804761D01*
X98242857Y-68852380D01*
X98147619Y-68852380D01*
X98004761Y-68804761D01*
X97909523Y-68709523D01*
X97861904Y-68614285D01*
X97814285Y-68423809D01*
X97814285Y-68280952D01*
X97861904Y-68090476D01*
X97909523Y-67995238D01*
X98004761Y-67900000D01*
X98147619Y-67852380D01*
X98242857Y-67852380D01*
X98385714Y-67900000D01*
X98433333Y-67947619D01*
X99004761Y-68280952D02*
X98909523Y-68233333D01*
X98861904Y-68185714D01*
X98814285Y-68090476D01*
X98814285Y-68042857D01*
X98861904Y-67947619D01*
X98909523Y-67900000D01*
X99004761Y-67852380D01*
X99195238Y-67852380D01*
X99290476Y-67900000D01*
X99338095Y-67947619D01*
X99385714Y-68042857D01*
X99385714Y-68090476D01*
X99338095Y-68185714D01*
X99290476Y-68233333D01*
X99195238Y-68280952D01*
X99004761Y-68280952D01*
X98909523Y-68328571D01*
X98861904Y-68376190D01*
X98814285Y-68471428D01*
X98814285Y-68661904D01*
X98861904Y-68757142D01*
X98909523Y-68804761D01*
X99004761Y-68852380D01*
X99195238Y-68852380D01*
X99290476Y-68804761D01*
X99338095Y-68757142D01*
X99385714Y-68661904D01*
X99385714Y-68471428D01*
X99338095Y-68376190D01*
X99290476Y-68328571D01*
X99195238Y-68280952D01*
X95833333Y-55357142D02*
X95785714Y-55404761D01*
X95642857Y-55452380D01*
X95547619Y-55452380D01*
X95404761Y-55404761D01*
X95309523Y-55309523D01*
X95261904Y-55214285D01*
X95214285Y-55023809D01*
X95214285Y-54880952D01*
X95261904Y-54690476D01*
X95309523Y-54595238D01*
X95404761Y-54500000D01*
X95547619Y-54452380D01*
X95642857Y-54452380D01*
X95785714Y-54500000D01*
X95833333Y-54547619D01*
X96166666Y-54452380D02*
X96833333Y-54452380D01*
X96404761Y-55452380D01*
X93857142Y-62666666D02*
X93904761Y-62714285D01*
X93952380Y-62857142D01*
X93952380Y-62952380D01*
X93904761Y-63095238D01*
X93809523Y-63190476D01*
X93714285Y-63238095D01*
X93523809Y-63285714D01*
X93380952Y-63285714D01*
X93190476Y-63238095D01*
X93095238Y-63190476D01*
X93000000Y-63095238D01*
X92952380Y-62952380D01*
X92952380Y-62857142D01*
X93000000Y-62714285D01*
X93047619Y-62666666D01*
X92952380Y-61809523D02*
X92952380Y-62000000D01*
X93000000Y-62095238D01*
X93047619Y-62142857D01*
X93190476Y-62238095D01*
X93380952Y-62285714D01*
X93761904Y-62285714D01*
X93857142Y-62238095D01*
X93904761Y-62190476D01*
X93952380Y-62095238D01*
X93952380Y-61904761D01*
X93904761Y-61809523D01*
X93857142Y-61761904D01*
X93761904Y-61714285D01*
X93523809Y-61714285D01*
X93428571Y-61761904D01*
X93380952Y-61809523D01*
X93333333Y-61904761D01*
X93333333Y-62095238D01*
X93380952Y-62190476D01*
X93428571Y-62238095D01*
X93523809Y-62285714D01*
X73357142Y-67666666D02*
X73404761Y-67714285D01*
X73452380Y-67857142D01*
X73452380Y-67952380D01*
X73404761Y-68095238D01*
X73309523Y-68190476D01*
X73214285Y-68238095D01*
X73023809Y-68285714D01*
X72880952Y-68285714D01*
X72690476Y-68238095D01*
X72595238Y-68190476D01*
X72500000Y-68095238D01*
X72452380Y-67952380D01*
X72452380Y-67857142D01*
X72500000Y-67714285D01*
X72547619Y-67666666D01*
X72452380Y-66761904D02*
X72452380Y-67238095D01*
X72928571Y-67285714D01*
X72880952Y-67238095D01*
X72833333Y-67142857D01*
X72833333Y-66904761D01*
X72880952Y-66809523D01*
X72928571Y-66761904D01*
X73023809Y-66714285D01*
X73261904Y-66714285D01*
X73357142Y-66761904D01*
X73404761Y-66809523D01*
X73452380Y-66904761D01*
X73452380Y-67142857D01*
X73404761Y-67238095D01*
X73357142Y-67285714D01*
X93321462Y-51104835D02*
X93254119Y-51104835D01*
X93119432Y-51037491D01*
X93052088Y-50970148D01*
X92984745Y-50835460D01*
X92984745Y-50700773D01*
X93018416Y-50599758D01*
X93119432Y-50431399D01*
X93220447Y-50330384D01*
X93388806Y-50229369D01*
X93489821Y-50195697D01*
X93624508Y-50195697D01*
X93759195Y-50263041D01*
X93826539Y-50330384D01*
X93893882Y-50465071D01*
X93893882Y-50532415D01*
X94163256Y-50801789D02*
X94230600Y-50801789D01*
X94331615Y-50835460D01*
X94499974Y-51003819D01*
X94533645Y-51104835D01*
X94533645Y-51172178D01*
X94499974Y-51273193D01*
X94432630Y-51340537D01*
X94297943Y-51407880D01*
X93489821Y-51407880D01*
X93927554Y-51845613D01*
X83437758Y-59326539D02*
X83370415Y-59326539D01*
X83235728Y-59259195D01*
X83168384Y-59191852D01*
X83101041Y-59057164D01*
X83101041Y-58922477D01*
X83134712Y-58821462D01*
X83235728Y-58653103D01*
X83336743Y-58552088D01*
X83505102Y-58451073D01*
X83606117Y-58417401D01*
X83740804Y-58417401D01*
X83875491Y-58484745D01*
X83942835Y-58552088D01*
X84010178Y-58686775D01*
X84010178Y-58754119D01*
X84043850Y-60067317D02*
X83639789Y-59663256D01*
X83841819Y-59865287D02*
X84548926Y-59158180D01*
X84380567Y-59191852D01*
X84245880Y-59191852D01*
X84144865Y-59158180D01*
X105916666Y-65904761D02*
X106059523Y-65952380D01*
X106297619Y-65952380D01*
X106392857Y-65904761D01*
X106440476Y-65857142D01*
X106488095Y-65761904D01*
X106488095Y-65666666D01*
X106440476Y-65571428D01*
X106392857Y-65523809D01*
X106297619Y-65476190D01*
X106107142Y-65428571D01*
X106011904Y-65380952D01*
X105964285Y-65333333D01*
X105916666Y-65238095D01*
X105916666Y-65142857D01*
X105964285Y-65047619D01*
X106011904Y-65000000D01*
X106107142Y-64952380D01*
X106345238Y-64952380D01*
X106488095Y-65000000D01*
X106821428Y-64952380D02*
X107059523Y-65952380D01*
X107250000Y-65238095D01*
X107440476Y-65952380D01*
X107678571Y-64952380D01*
X108583333Y-65952380D02*
X108011904Y-65952380D01*
X108297619Y-65952380D02*
X108297619Y-64952380D01*
X108202380Y-65095238D01*
X108107142Y-65190476D01*
X108011904Y-65238095D01*
X56261904Y-50997380D02*
X56261904Y-49997380D01*
X56500000Y-49997380D01*
X56642857Y-50045000D01*
X56738095Y-50140238D01*
X56785714Y-50235476D01*
X56833333Y-50425952D01*
X56833333Y-50568809D01*
X56785714Y-50759285D01*
X56738095Y-50854523D01*
X56642857Y-50949761D01*
X56500000Y-50997380D01*
X56261904Y-50997380D01*
X57785714Y-50997380D02*
X57214285Y-50997380D01*
X57500000Y-50997380D02*
X57500000Y-49997380D01*
X57404761Y-50140238D01*
X57309523Y-50235476D01*
X57214285Y-50283095D01*
X39166666Y-46952380D02*
X39166666Y-47666666D01*
X39119047Y-47809523D01*
X39023809Y-47904761D01*
X38880952Y-47952380D01*
X38785714Y-47952380D01*
X40166666Y-47952380D02*
X39595238Y-47952380D01*
X39880952Y-47952380D02*
X39880952Y-46952380D01*
X39785714Y-47095238D01*
X39690476Y-47190476D01*
X39595238Y-47238095D01*
X73166666Y-46952380D02*
X73166666Y-47666666D01*
X73119047Y-47809523D01*
X73023809Y-47904761D01*
X72880952Y-47952380D01*
X72785714Y-47952380D01*
X73547619Y-46952380D02*
X74166666Y-46952380D01*
X73833333Y-47333333D01*
X73976190Y-47333333D01*
X74071428Y-47380952D01*
X74119047Y-47428571D01*
X74166666Y-47523809D01*
X74166666Y-47761904D01*
X74119047Y-47857142D01*
X74071428Y-47904761D01*
X73976190Y-47952380D01*
X73690476Y-47952380D01*
X73595238Y-47904761D01*
X73547619Y-47857142D01*
X51666666Y-46952380D02*
X51666666Y-47666666D01*
X51619047Y-47809523D01*
X51523809Y-47904761D01*
X51380952Y-47952380D01*
X51285714Y-47952380D01*
X52095238Y-47047619D02*
X52142857Y-47000000D01*
X52238095Y-46952380D01*
X52476190Y-46952380D01*
X52571428Y-47000000D01*
X52619047Y-47047619D01*
X52666666Y-47142857D01*
X52666666Y-47238095D01*
X52619047Y-47380952D01*
X52047619Y-47952380D01*
X52666666Y-47952380D01*
X96766380Y-48335833D02*
X97480666Y-48335833D01*
X97623523Y-48383452D01*
X97718761Y-48478690D01*
X97766380Y-48621547D01*
X97766380Y-48716785D01*
X97099714Y-47431071D02*
X97766380Y-47431071D01*
X96718761Y-47669166D02*
X97433047Y-47907261D01*
X97433047Y-47288214D01*
X67357380Y-53704166D02*
X66881190Y-54037500D01*
X67357380Y-54275595D02*
X66357380Y-54275595D01*
X66357380Y-53894642D01*
X66405000Y-53799404D01*
X66452619Y-53751785D01*
X66547857Y-53704166D01*
X66690714Y-53704166D01*
X66785952Y-53751785D01*
X66833571Y-53799404D01*
X66881190Y-53894642D01*
X66881190Y-54275595D01*
X66357380Y-53370833D02*
X66357380Y-52751785D01*
X66738333Y-53085119D01*
X66738333Y-52942261D01*
X66785952Y-52847023D01*
X66833571Y-52799404D01*
X66928809Y-52751785D01*
X67166904Y-52751785D01*
X67262142Y-52799404D01*
X67309761Y-52847023D01*
X67357380Y-52942261D01*
X67357380Y-53227976D01*
X67309761Y-53323214D01*
X67262142Y-53370833D01*
X63357380Y-53666666D02*
X62881190Y-54000000D01*
X63357380Y-54238095D02*
X62357380Y-54238095D01*
X62357380Y-53857142D01*
X62405000Y-53761904D01*
X62452619Y-53714285D01*
X62547857Y-53666666D01*
X62690714Y-53666666D01*
X62785952Y-53714285D01*
X62833571Y-53761904D01*
X62881190Y-53857142D01*
X62881190Y-54238095D01*
X62452619Y-53285714D02*
X62405000Y-53238095D01*
X62357380Y-53142857D01*
X62357380Y-52904761D01*
X62405000Y-52809523D01*
X62452619Y-52761904D01*
X62547857Y-52714285D01*
X62643095Y-52714285D01*
X62785952Y-52761904D01*
X63357380Y-53333333D01*
X63357380Y-52714285D01*
X59357380Y-53474166D02*
X58881190Y-53807500D01*
X59357380Y-54045595D02*
X58357380Y-54045595D01*
X58357380Y-53664642D01*
X58405000Y-53569404D01*
X58452619Y-53521785D01*
X58547857Y-53474166D01*
X58690714Y-53474166D01*
X58785952Y-53521785D01*
X58833571Y-53569404D01*
X58881190Y-53664642D01*
X58881190Y-54045595D01*
X59357380Y-52521785D02*
X59357380Y-53093214D01*
X59357380Y-52807500D02*
X58357380Y-52807500D01*
X58500238Y-52902738D01*
X58595476Y-52997976D01*
X58643095Y-53093214D01*
X58652380Y-43833333D02*
X59366666Y-43833333D01*
X59509523Y-43880952D01*
X59604761Y-43976190D01*
X59652380Y-44119047D01*
X59652380Y-44214285D01*
X59652380Y-43357142D02*
X58652380Y-43357142D01*
X58652380Y-42976190D01*
X58700000Y-42880952D01*
X58747619Y-42833333D01*
X58842857Y-42785714D01*
X58985714Y-42785714D01*
X59080952Y-42833333D01*
X59128571Y-42880952D01*
X59176190Y-42976190D01*
X59176190Y-43357142D01*
X58652380Y-42452380D02*
X58652380Y-41833333D01*
X59033333Y-42166666D01*
X59033333Y-42023809D01*
X59080952Y-41928571D01*
X59128571Y-41880952D01*
X59223809Y-41833333D01*
X59461904Y-41833333D01*
X59557142Y-41880952D01*
X59604761Y-41928571D01*
X59652380Y-42023809D01*
X59652380Y-42309523D01*
X59604761Y-42404761D01*
X59557142Y-42452380D01*
X54652380Y-43833333D02*
X55366666Y-43833333D01*
X55509523Y-43880952D01*
X55604761Y-43976190D01*
X55652380Y-44119047D01*
X55652380Y-44214285D01*
X55652380Y-43357142D02*
X54652380Y-43357142D01*
X54652380Y-42976190D01*
X54700000Y-42880952D01*
X54747619Y-42833333D01*
X54842857Y-42785714D01*
X54985714Y-42785714D01*
X55080952Y-42833333D01*
X55128571Y-42880952D01*
X55176190Y-42976190D01*
X55176190Y-43357142D01*
X54747619Y-42404761D02*
X54700000Y-42357142D01*
X54652380Y-42261904D01*
X54652380Y-42023809D01*
X54700000Y-41928571D01*
X54747619Y-41880952D01*
X54842857Y-41833333D01*
X54938095Y-41833333D01*
X55080952Y-41880952D01*
X55652380Y-42452380D01*
X55652380Y-41833333D01*
X62652380Y-43833333D02*
X63366666Y-43833333D01*
X63509523Y-43880952D01*
X63604761Y-43976190D01*
X63652380Y-44119047D01*
X63652380Y-44214285D01*
X63652380Y-43357142D02*
X62652380Y-43357142D01*
X62652380Y-42976190D01*
X62700000Y-42880952D01*
X62747619Y-42833333D01*
X62842857Y-42785714D01*
X62985714Y-42785714D01*
X63080952Y-42833333D01*
X63128571Y-42880952D01*
X63176190Y-42976190D01*
X63176190Y-43357142D01*
X63652380Y-41833333D02*
X63652380Y-42404761D01*
X63652380Y-42119047D02*
X62652380Y-42119047D01*
X62795238Y-42214285D01*
X62890476Y-42309523D01*
X62938095Y-42404761D01*
X64261904Y-51127380D02*
X64261904Y-50127380D01*
X64500000Y-50127380D01*
X64642857Y-50175000D01*
X64738095Y-50270238D01*
X64785714Y-50365476D01*
X64833333Y-50555952D01*
X64833333Y-50698809D01*
X64785714Y-50889285D01*
X64738095Y-50984523D01*
X64642857Y-51079761D01*
X64500000Y-51127380D01*
X64261904Y-51127380D01*
X65166666Y-50127380D02*
X65785714Y-50127380D01*
X65452380Y-50508333D01*
X65595238Y-50508333D01*
X65690476Y-50555952D01*
X65738095Y-50603571D01*
X65785714Y-50698809D01*
X65785714Y-50936904D01*
X65738095Y-51032142D01*
X65690476Y-51079761D01*
X65595238Y-51127380D01*
X65309523Y-51127380D01*
X65214285Y-51079761D01*
X65166666Y-51032142D01*
X60261904Y-51127380D02*
X60261904Y-50127380D01*
X60500000Y-50127380D01*
X60642857Y-50175000D01*
X60738095Y-50270238D01*
X60785714Y-50365476D01*
X60833333Y-50555952D01*
X60833333Y-50698809D01*
X60785714Y-50889285D01*
X60738095Y-50984523D01*
X60642857Y-51079761D01*
X60500000Y-51127380D01*
X60261904Y-51127380D01*
X61214285Y-50222619D02*
X61261904Y-50175000D01*
X61357142Y-50127380D01*
X61595238Y-50127380D01*
X61690476Y-50175000D01*
X61738095Y-50222619D01*
X61785714Y-50317857D01*
X61785714Y-50413095D01*
X61738095Y-50555952D01*
X61166666Y-51127380D01*
X61785714Y-51127380D01*
%LPC*%
D12*
X85920000Y-45270000D03*
X85920000Y-44000000D03*
X87190000Y-45270000D03*
X87190000Y-44000000D03*
X88460000Y-45270000D03*
X88460000Y-44000000D03*
X89730000Y-45270000D03*
X89730000Y-44000000D03*
X91000000Y-45270000D03*
D13*
X91000000Y-44000000D03*
D14*
X89250000Y-66000000D03*
X79750000Y-66000000D03*
G36*
G01*
X84905000Y-58046000D02*
X83655000Y-58046000D01*
G75*
G02*
X83530000Y-57921000I0J125000D01*
G01*
X83530000Y-57671000D01*
G75*
G02*
X83655000Y-57546000I125000J0D01*
G01*
X84905000Y-57546000D01*
G75*
G02*
X85030000Y-57671000I0J-125000D01*
G01*
X85030000Y-57921000D01*
G75*
G02*
X84905000Y-58046000I-125000J0D01*
G01*
G37*
G36*
G01*
X84905000Y-57246000D02*
X83655000Y-57246000D01*
G75*
G02*
X83530000Y-57121000I0J125000D01*
G01*
X83530000Y-56871000D01*
G75*
G02*
X83655000Y-56746000I125000J0D01*
G01*
X84905000Y-56746000D01*
G75*
G02*
X85030000Y-56871000I0J-125000D01*
G01*
X85030000Y-57121000D01*
G75*
G02*
X84905000Y-57246000I-125000J0D01*
G01*
G37*
G36*
G01*
X84905000Y-56446000D02*
X83655000Y-56446000D01*
G75*
G02*
X83530000Y-56321000I0J125000D01*
G01*
X83530000Y-56071000D01*
G75*
G02*
X83655000Y-55946000I125000J0D01*
G01*
X84905000Y-55946000D01*
G75*
G02*
X85030000Y-56071000I0J-125000D01*
G01*
X85030000Y-56321000D01*
G75*
G02*
X84905000Y-56446000I-125000J0D01*
G01*
G37*
G36*
G01*
X84905000Y-55646000D02*
X83655000Y-55646000D01*
G75*
G02*
X83530000Y-55521000I0J125000D01*
G01*
X83530000Y-55271000D01*
G75*
G02*
X83655000Y-55146000I125000J0D01*
G01*
X84905000Y-55146000D01*
G75*
G02*
X85030000Y-55271000I0J-125000D01*
G01*
X85030000Y-55521000D01*
G75*
G02*
X84905000Y-55646000I-125000J0D01*
G01*
G37*
G36*
G01*
X84905000Y-54846000D02*
X83655000Y-54846000D01*
G75*
G02*
X83530000Y-54721000I0J125000D01*
G01*
X83530000Y-54471000D01*
G75*
G02*
X83655000Y-54346000I125000J0D01*
G01*
X84905000Y-54346000D01*
G75*
G02*
X85030000Y-54471000I0J-125000D01*
G01*
X85030000Y-54721000D01*
G75*
G02*
X84905000Y-54846000I-125000J0D01*
G01*
G37*
G36*
G01*
X84905000Y-54046000D02*
X83655000Y-54046000D01*
G75*
G02*
X83530000Y-53921000I0J125000D01*
G01*
X83530000Y-53671000D01*
G75*
G02*
X83655000Y-53546000I125000J0D01*
G01*
X84905000Y-53546000D01*
G75*
G02*
X85030000Y-53671000I0J-125000D01*
G01*
X85030000Y-53921000D01*
G75*
G02*
X84905000Y-54046000I-125000J0D01*
G01*
G37*
G36*
G01*
X84905000Y-53246000D02*
X83655000Y-53246000D01*
G75*
G02*
X83530000Y-53121000I0J125000D01*
G01*
X83530000Y-52871000D01*
G75*
G02*
X83655000Y-52746000I125000J0D01*
G01*
X84905000Y-52746000D01*
G75*
G02*
X85030000Y-52871000I0J-125000D01*
G01*
X85030000Y-53121000D01*
G75*
G02*
X84905000Y-53246000I-125000J0D01*
G01*
G37*
G36*
G01*
X84905000Y-52446000D02*
X83655000Y-52446000D01*
G75*
G02*
X83530000Y-52321000I0J125000D01*
G01*
X83530000Y-52071000D01*
G75*
G02*
X83655000Y-51946000I125000J0D01*
G01*
X84905000Y-51946000D01*
G75*
G02*
X85030000Y-52071000I0J-125000D01*
G01*
X85030000Y-52321000D01*
G75*
G02*
X84905000Y-52446000I-125000J0D01*
G01*
G37*
G36*
G01*
X85780000Y-51571000D02*
X85530000Y-51571000D01*
G75*
G02*
X85405000Y-51446000I0J125000D01*
G01*
X85405000Y-50196000D01*
G75*
G02*
X85530000Y-50071000I125000J0D01*
G01*
X85780000Y-50071000D01*
G75*
G02*
X85905000Y-50196000I0J-125000D01*
G01*
X85905000Y-51446000D01*
G75*
G02*
X85780000Y-51571000I-125000J0D01*
G01*
G37*
G36*
G01*
X86580000Y-51571000D02*
X86330000Y-51571000D01*
G75*
G02*
X86205000Y-51446000I0J125000D01*
G01*
X86205000Y-50196000D01*
G75*
G02*
X86330000Y-50071000I125000J0D01*
G01*
X86580000Y-50071000D01*
G75*
G02*
X86705000Y-50196000I0J-125000D01*
G01*
X86705000Y-51446000D01*
G75*
G02*
X86580000Y-51571000I-125000J0D01*
G01*
G37*
G36*
G01*
X87380000Y-51571000D02*
X87130000Y-51571000D01*
G75*
G02*
X87005000Y-51446000I0J125000D01*
G01*
X87005000Y-50196000D01*
G75*
G02*
X87130000Y-50071000I125000J0D01*
G01*
X87380000Y-50071000D01*
G75*
G02*
X87505000Y-50196000I0J-125000D01*
G01*
X87505000Y-51446000D01*
G75*
G02*
X87380000Y-51571000I-125000J0D01*
G01*
G37*
G36*
G01*
X88180000Y-51571000D02*
X87930000Y-51571000D01*
G75*
G02*
X87805000Y-51446000I0J125000D01*
G01*
X87805000Y-50196000D01*
G75*
G02*
X87930000Y-50071000I125000J0D01*
G01*
X88180000Y-50071000D01*
G75*
G02*
X88305000Y-50196000I0J-125000D01*
G01*
X88305000Y-51446000D01*
G75*
G02*
X88180000Y-51571000I-125000J0D01*
G01*
G37*
G36*
G01*
X88980000Y-51571000D02*
X88730000Y-51571000D01*
G75*
G02*
X88605000Y-51446000I0J125000D01*
G01*
X88605000Y-50196000D01*
G75*
G02*
X88730000Y-50071000I125000J0D01*
G01*
X88980000Y-50071000D01*
G75*
G02*
X89105000Y-50196000I0J-125000D01*
G01*
X89105000Y-51446000D01*
G75*
G02*
X88980000Y-51571000I-125000J0D01*
G01*
G37*
G36*
G01*
X89780000Y-51571000D02*
X89530000Y-51571000D01*
G75*
G02*
X89405000Y-51446000I0J125000D01*
G01*
X89405000Y-50196000D01*
G75*
G02*
X89530000Y-50071000I125000J0D01*
G01*
X89780000Y-50071000D01*
G75*
G02*
X89905000Y-50196000I0J-125000D01*
G01*
X89905000Y-51446000D01*
G75*
G02*
X89780000Y-51571000I-125000J0D01*
G01*
G37*
G36*
G01*
X90580000Y-51571000D02*
X90330000Y-51571000D01*
G75*
G02*
X90205000Y-51446000I0J125000D01*
G01*
X90205000Y-50196000D01*
G75*
G02*
X90330000Y-50071000I125000J0D01*
G01*
X90580000Y-50071000D01*
G75*
G02*
X90705000Y-50196000I0J-125000D01*
G01*
X90705000Y-51446000D01*
G75*
G02*
X90580000Y-51571000I-125000J0D01*
G01*
G37*
G36*
G01*
X91380000Y-51571000D02*
X91130000Y-51571000D01*
G75*
G02*
X91005000Y-51446000I0J125000D01*
G01*
X91005000Y-50196000D01*
G75*
G02*
X91130000Y-50071000I125000J0D01*
G01*
X91380000Y-50071000D01*
G75*
G02*
X91505000Y-50196000I0J-125000D01*
G01*
X91505000Y-51446000D01*
G75*
G02*
X91380000Y-51571000I-125000J0D01*
G01*
G37*
G36*
G01*
X93255000Y-52446000D02*
X92005000Y-52446000D01*
G75*
G02*
X91880000Y-52321000I0J125000D01*
G01*
X91880000Y-52071000D01*
G75*
G02*
X92005000Y-51946000I125000J0D01*
G01*
X93255000Y-51946000D01*
G75*
G02*
X93380000Y-52071000I0J-125000D01*
G01*
X93380000Y-52321000D01*
G75*
G02*
X93255000Y-52446000I-125000J0D01*
G01*
G37*
G36*
G01*
X93255000Y-53246000D02*
X92005000Y-53246000D01*
G75*
G02*
X91880000Y-53121000I0J125000D01*
G01*
X91880000Y-52871000D01*
G75*
G02*
X92005000Y-52746000I125000J0D01*
G01*
X93255000Y-52746000D01*
G75*
G02*
X93380000Y-52871000I0J-125000D01*
G01*
X93380000Y-53121000D01*
G75*
G02*
X93255000Y-53246000I-125000J0D01*
G01*
G37*
G36*
G01*
X93255000Y-54046000D02*
X92005000Y-54046000D01*
G75*
G02*
X91880000Y-53921000I0J125000D01*
G01*
X91880000Y-53671000D01*
G75*
G02*
X92005000Y-53546000I125000J0D01*
G01*
X93255000Y-53546000D01*
G75*
G02*
X93380000Y-53671000I0J-125000D01*
G01*
X93380000Y-53921000D01*
G75*
G02*
X93255000Y-54046000I-125000J0D01*
G01*
G37*
G36*
G01*
X93255000Y-54846000D02*
X92005000Y-54846000D01*
G75*
G02*
X91880000Y-54721000I0J125000D01*
G01*
X91880000Y-54471000D01*
G75*
G02*
X92005000Y-54346000I125000J0D01*
G01*
X93255000Y-54346000D01*
G75*
G02*
X93380000Y-54471000I0J-125000D01*
G01*
X93380000Y-54721000D01*
G75*
G02*
X93255000Y-54846000I-125000J0D01*
G01*
G37*
G36*
G01*
X93255000Y-55646000D02*
X92005000Y-55646000D01*
G75*
G02*
X91880000Y-55521000I0J125000D01*
G01*
X91880000Y-55271000D01*
G75*
G02*
X92005000Y-55146000I125000J0D01*
G01*
X93255000Y-55146000D01*
G75*
G02*
X93380000Y-55271000I0J-125000D01*
G01*
X93380000Y-55521000D01*
G75*
G02*
X93255000Y-55646000I-125000J0D01*
G01*
G37*
G36*
G01*
X93255000Y-56446000D02*
X92005000Y-56446000D01*
G75*
G02*
X91880000Y-56321000I0J125000D01*
G01*
X91880000Y-56071000D01*
G75*
G02*
X92005000Y-55946000I125000J0D01*
G01*
X93255000Y-55946000D01*
G75*
G02*
X93380000Y-56071000I0J-125000D01*
G01*
X93380000Y-56321000D01*
G75*
G02*
X93255000Y-56446000I-125000J0D01*
G01*
G37*
G36*
G01*
X93255000Y-57246000D02*
X92005000Y-57246000D01*
G75*
G02*
X91880000Y-57121000I0J125000D01*
G01*
X91880000Y-56871000D01*
G75*
G02*
X92005000Y-56746000I125000J0D01*
G01*
X93255000Y-56746000D01*
G75*
G02*
X93380000Y-56871000I0J-125000D01*
G01*
X93380000Y-57121000D01*
G75*
G02*
X93255000Y-57246000I-125000J0D01*
G01*
G37*
G36*
G01*
X93255000Y-58046000D02*
X92005000Y-58046000D01*
G75*
G02*
X91880000Y-57921000I0J125000D01*
G01*
X91880000Y-57671000D01*
G75*
G02*
X92005000Y-57546000I125000J0D01*
G01*
X93255000Y-57546000D01*
G75*
G02*
X93380000Y-57671000I0J-125000D01*
G01*
X93380000Y-57921000D01*
G75*
G02*
X93255000Y-58046000I-125000J0D01*
G01*
G37*
G36*
G01*
X91380000Y-59921000D02*
X91130000Y-59921000D01*
G75*
G02*
X91005000Y-59796000I0J125000D01*
G01*
X91005000Y-58546000D01*
G75*
G02*
X91130000Y-58421000I125000J0D01*
G01*
X91380000Y-58421000D01*
G75*
G02*
X91505000Y-58546000I0J-125000D01*
G01*
X91505000Y-59796000D01*
G75*
G02*
X91380000Y-59921000I-125000J0D01*
G01*
G37*
G36*
G01*
X90580000Y-59921000D02*
X90330000Y-59921000D01*
G75*
G02*
X90205000Y-59796000I0J125000D01*
G01*
X90205000Y-58546000D01*
G75*
G02*
X90330000Y-58421000I125000J0D01*
G01*
X90580000Y-58421000D01*
G75*
G02*
X90705000Y-58546000I0J-125000D01*
G01*
X90705000Y-59796000D01*
G75*
G02*
X90580000Y-59921000I-125000J0D01*
G01*
G37*
G36*
G01*
X89780000Y-59921000D02*
X89530000Y-59921000D01*
G75*
G02*
X89405000Y-59796000I0J125000D01*
G01*
X89405000Y-58546000D01*
G75*
G02*
X89530000Y-58421000I125000J0D01*
G01*
X89780000Y-58421000D01*
G75*
G02*
X89905000Y-58546000I0J-125000D01*
G01*
X89905000Y-59796000D01*
G75*
G02*
X89780000Y-59921000I-125000J0D01*
G01*
G37*
G36*
G01*
X88980000Y-59921000D02*
X88730000Y-59921000D01*
G75*
G02*
X88605000Y-59796000I0J125000D01*
G01*
X88605000Y-58546000D01*
G75*
G02*
X88730000Y-58421000I125000J0D01*
G01*
X88980000Y-58421000D01*
G75*
G02*
X89105000Y-58546000I0J-125000D01*
G01*
X89105000Y-59796000D01*
G75*
G02*
X88980000Y-59921000I-125000J0D01*
G01*
G37*
G36*
G01*
X88180000Y-59921000D02*
X87930000Y-59921000D01*
G75*
G02*
X87805000Y-59796000I0J125000D01*
G01*
X87805000Y-58546000D01*
G75*
G02*
X87930000Y-58421000I125000J0D01*
G01*
X88180000Y-58421000D01*
G75*
G02*
X88305000Y-58546000I0J-125000D01*
G01*
X88305000Y-59796000D01*
G75*
G02*
X88180000Y-59921000I-125000J0D01*
G01*
G37*
G36*
G01*
X87380000Y-59921000D02*
X87130000Y-59921000D01*
G75*
G02*
X87005000Y-59796000I0J125000D01*
G01*
X87005000Y-58546000D01*
G75*
G02*
X87130000Y-58421000I125000J0D01*
G01*
X87380000Y-58421000D01*
G75*
G02*
X87505000Y-58546000I0J-125000D01*
G01*
X87505000Y-59796000D01*
G75*
G02*
X87380000Y-59921000I-125000J0D01*
G01*
G37*
G36*
G01*
X86580000Y-59921000D02*
X86330000Y-59921000D01*
G75*
G02*
X86205000Y-59796000I0J125000D01*
G01*
X86205000Y-58546000D01*
G75*
G02*
X86330000Y-58421000I125000J0D01*
G01*
X86580000Y-58421000D01*
G75*
G02*
X86705000Y-58546000I0J-125000D01*
G01*
X86705000Y-59796000D01*
G75*
G02*
X86580000Y-59921000I-125000J0D01*
G01*
G37*
G36*
G01*
X85780000Y-59921000D02*
X85530000Y-59921000D01*
G75*
G02*
X85405000Y-59796000I0J125000D01*
G01*
X85405000Y-58546000D01*
G75*
G02*
X85530000Y-58421000I125000J0D01*
G01*
X85780000Y-58421000D01*
G75*
G02*
X85905000Y-58546000I0J-125000D01*
G01*
X85905000Y-59796000D01*
G75*
G02*
X85780000Y-59921000I-125000J0D01*
G01*
G37*
G36*
G01*
X77100000Y-60874999D02*
X77100000Y-62125001D01*
G75*
G02*
X76850001Y-62375000I-249999J0D01*
G01*
X76224999Y-62375000D01*
G75*
G02*
X75975000Y-62125001I0J249999D01*
G01*
X75975000Y-60874999D01*
G75*
G02*
X76224999Y-60625000I249999J0D01*
G01*
X76850001Y-60625000D01*
G75*
G02*
X77100000Y-60874999I0J-249999D01*
G01*
G37*
G36*
G01*
X80025000Y-60874999D02*
X80025000Y-62125001D01*
G75*
G02*
X79775001Y-62375000I-249999J0D01*
G01*
X79149999Y-62375000D01*
G75*
G02*
X78900000Y-62125001I0J249999D01*
G01*
X78900000Y-60874999D01*
G75*
G02*
X79149999Y-60625000I249999J0D01*
G01*
X79775001Y-60625000D01*
G75*
G02*
X80025000Y-60874999I0J-249999D01*
G01*
G37*
G36*
G01*
X69625001Y-64600000D02*
X68374999Y-64600000D01*
G75*
G02*
X68125000Y-64350001I0J249999D01*
G01*
X68125000Y-63724999D01*
G75*
G02*
X68374999Y-63475000I249999J0D01*
G01*
X69625001Y-63475000D01*
G75*
G02*
X69875000Y-63724999I0J-249999D01*
G01*
X69875000Y-64350001D01*
G75*
G02*
X69625001Y-64600000I-249999J0D01*
G01*
G37*
G36*
G01*
X69625001Y-67525000D02*
X68374999Y-67525000D01*
G75*
G02*
X68125000Y-67275001I0J249999D01*
G01*
X68125000Y-66649999D01*
G75*
G02*
X68374999Y-66400000I249999J0D01*
G01*
X69625001Y-66400000D01*
G75*
G02*
X69875000Y-66649999I0J-249999D01*
G01*
X69875000Y-67275001D01*
G75*
G02*
X69625001Y-67525000I-249999J0D01*
G01*
G37*
D15*
X72000000Y-63000000D03*
X71050000Y-61000000D03*
X72950000Y-61000000D03*
D16*
X63500000Y-65000000D03*
X65500000Y-64050000D03*
X65500000Y-65950000D03*
D17*
G36*
X60350000Y-62749398D02*
G01*
X60325466Y-62749398D01*
X60276635Y-62744588D01*
X60228510Y-62735016D01*
X60181555Y-62720772D01*
X60136222Y-62701995D01*
X60092949Y-62678864D01*
X60052150Y-62651604D01*
X60014221Y-62620476D01*
X59979524Y-62585779D01*
X59948396Y-62547850D01*
X59921136Y-62507051D01*
X59898005Y-62463778D01*
X59879228Y-62418445D01*
X59864984Y-62371490D01*
X59855412Y-62323365D01*
X59850602Y-62274534D01*
X59850602Y-62250000D01*
X59850000Y-62250000D01*
X59850000Y-61750000D01*
X59850602Y-61750000D01*
X59850602Y-61725466D01*
X59855412Y-61676635D01*
X59864984Y-61628510D01*
X59879228Y-61581555D01*
X59898005Y-61536222D01*
X59921136Y-61492949D01*
X59948396Y-61452150D01*
X59979524Y-61414221D01*
X60014221Y-61379524D01*
X60052150Y-61348396D01*
X60092949Y-61321136D01*
X60136222Y-61298005D01*
X60181555Y-61279228D01*
X60228510Y-61264984D01*
X60276635Y-61255412D01*
X60325466Y-61250602D01*
X60350000Y-61250602D01*
X60350000Y-61250000D01*
X60850000Y-61250000D01*
X60850000Y-62750000D01*
X60350000Y-62750000D01*
X60350000Y-62749398D01*
G37*
G36*
X61150000Y-61250000D02*
G01*
X61650000Y-61250000D01*
X61650000Y-61250602D01*
X61674534Y-61250602D01*
X61723365Y-61255412D01*
X61771490Y-61264984D01*
X61818445Y-61279228D01*
X61863778Y-61298005D01*
X61907051Y-61321136D01*
X61947850Y-61348396D01*
X61985779Y-61379524D01*
X62020476Y-61414221D01*
X62051604Y-61452150D01*
X62078864Y-61492949D01*
X62101995Y-61536222D01*
X62120772Y-61581555D01*
X62135016Y-61628510D01*
X62144588Y-61676635D01*
X62149398Y-61725466D01*
X62149398Y-61750000D01*
X62150000Y-61750000D01*
X62150000Y-62250000D01*
X62149398Y-62250000D01*
X62149398Y-62274534D01*
X62144588Y-62323365D01*
X62135016Y-62371490D01*
X62120772Y-62418445D01*
X62101995Y-62463778D01*
X62078864Y-62507051D01*
X62051604Y-62547850D01*
X62020476Y-62585779D01*
X61985779Y-62620476D01*
X61947850Y-62651604D01*
X61907051Y-62678864D01*
X61863778Y-62701995D01*
X61818445Y-62720772D01*
X61771490Y-62735016D01*
X61723365Y-62744588D01*
X61674534Y-62749398D01*
X61650000Y-62749398D01*
X61650000Y-62750000D01*
X61150000Y-62750000D01*
X61150000Y-61250000D01*
G37*
G36*
G01*
X76874999Y-49400000D02*
X78125001Y-49400000D01*
G75*
G02*
X78375000Y-49649999I0J-249999D01*
G01*
X78375000Y-50275001D01*
G75*
G02*
X78125001Y-50525000I-249999J0D01*
G01*
X76874999Y-50525000D01*
G75*
G02*
X76625000Y-50275001I0J249999D01*
G01*
X76625000Y-49649999D01*
G75*
G02*
X76874999Y-49400000I249999J0D01*
G01*
G37*
G36*
G01*
X76874999Y-46475000D02*
X78125001Y-46475000D01*
G75*
G02*
X78375000Y-46724999I0J-249999D01*
G01*
X78375000Y-47350001D01*
G75*
G02*
X78125001Y-47600000I-249999J0D01*
G01*
X76874999Y-47600000D01*
G75*
G02*
X76625000Y-47350001I0J249999D01*
G01*
X76625000Y-46724999D01*
G75*
G02*
X76874999Y-46475000I249999J0D01*
G01*
G37*
G36*
G01*
X78125000Y-42625000D02*
X76875000Y-42625000D01*
G75*
G02*
X76625000Y-42375000I0J250000D01*
G01*
X76625000Y-41625000D01*
G75*
G02*
X76875000Y-41375000I250000J0D01*
G01*
X78125000Y-41375000D01*
G75*
G02*
X78375000Y-41625000I0J-250000D01*
G01*
X78375000Y-42375000D01*
G75*
G02*
X78125000Y-42625000I-250000J0D01*
G01*
G37*
G36*
G01*
X78125000Y-45425000D02*
X76875000Y-45425000D01*
G75*
G02*
X76625000Y-45175000I0J250000D01*
G01*
X76625000Y-44425000D01*
G75*
G02*
X76875000Y-44175000I250000J0D01*
G01*
X78125000Y-44175000D01*
G75*
G02*
X78375000Y-44425000I0J-250000D01*
G01*
X78375000Y-45175000D01*
G75*
G02*
X78125000Y-45425000I-250000J0D01*
G01*
G37*
G36*
G01*
X78400000Y-53625001D02*
X78400000Y-52374999D01*
G75*
G02*
X78649999Y-52125000I249999J0D01*
G01*
X79275001Y-52125000D01*
G75*
G02*
X79525000Y-52374999I0J-249999D01*
G01*
X79525000Y-53625001D01*
G75*
G02*
X79275001Y-53875000I-249999J0D01*
G01*
X78649999Y-53875000D01*
G75*
G02*
X78400000Y-53625001I0J249999D01*
G01*
G37*
G36*
G01*
X75475000Y-53625001D02*
X75475000Y-52374999D01*
G75*
G02*
X75724999Y-52125000I249999J0D01*
G01*
X76350001Y-52125000D01*
G75*
G02*
X76600000Y-52374999I0J-249999D01*
G01*
X76600000Y-53625001D01*
G75*
G02*
X76350001Y-53875000I-249999J0D01*
G01*
X75724999Y-53875000D01*
G75*
G02*
X75475000Y-53625001I0J249999D01*
G01*
G37*
D18*
X81500000Y-41880000D03*
X81500000Y-44420000D03*
X81500000Y-46960000D03*
D19*
X81500000Y-49500000D03*
G36*
G01*
X78400000Y-56125001D02*
X78400000Y-54874999D01*
G75*
G02*
X78649999Y-54625000I249999J0D01*
G01*
X79275001Y-54625000D01*
G75*
G02*
X79525000Y-54874999I0J-249999D01*
G01*
X79525000Y-56125001D01*
G75*
G02*
X79275001Y-56375000I-249999J0D01*
G01*
X78649999Y-56375000D01*
G75*
G02*
X78400000Y-56125001I0J249999D01*
G01*
G37*
G36*
G01*
X75475000Y-56125001D02*
X75475000Y-54874999D01*
G75*
G02*
X75724999Y-54625000I249999J0D01*
G01*
X76350001Y-54625000D01*
G75*
G02*
X76600000Y-54874999I0J-249999D01*
G01*
X76600000Y-56125001D01*
G75*
G02*
X76350001Y-56375000I-249999J0D01*
G01*
X75724999Y-56375000D01*
G75*
G02*
X75475000Y-56125001I0J249999D01*
G01*
G37*
D15*
X36500000Y-67500000D03*
X35550000Y-65500000D03*
X37450000Y-65500000D03*
G36*
G01*
X47600000Y-61874999D02*
X47600000Y-63125001D01*
G75*
G02*
X47350001Y-63375000I-249999J0D01*
G01*
X46724999Y-63375000D01*
G75*
G02*
X46475000Y-63125001I0J249999D01*
G01*
X46475000Y-61874999D01*
G75*
G02*
X46724999Y-61625000I249999J0D01*
G01*
X47350001Y-61625000D01*
G75*
G02*
X47600000Y-61874999I0J-249999D01*
G01*
G37*
G36*
G01*
X50525000Y-61874999D02*
X50525000Y-63125001D01*
G75*
G02*
X50275001Y-63375000I-249999J0D01*
G01*
X49649999Y-63375000D01*
G75*
G02*
X49400000Y-63125001I0J249999D01*
G01*
X49400000Y-61874999D01*
G75*
G02*
X49649999Y-61625000I249999J0D01*
G01*
X50275001Y-61625000D01*
G75*
G02*
X50525000Y-61874999I0J-249999D01*
G01*
G37*
G36*
G01*
X36100000Y-62374999D02*
X36100000Y-63625001D01*
G75*
G02*
X35850001Y-63875000I-249999J0D01*
G01*
X35224999Y-63875000D01*
G75*
G02*
X34975000Y-63625001I0J249999D01*
G01*
X34975000Y-62374999D01*
G75*
G02*
X35224999Y-62125000I249999J0D01*
G01*
X35850001Y-62125000D01*
G75*
G02*
X36100000Y-62374999I0J-249999D01*
G01*
G37*
G36*
G01*
X39025000Y-62374999D02*
X39025000Y-63625001D01*
G75*
G02*
X38775001Y-63875000I-249999J0D01*
G01*
X38149999Y-63875000D01*
G75*
G02*
X37900000Y-63625001I0J249999D01*
G01*
X37900000Y-62374999D01*
G75*
G02*
X38149999Y-62125000I249999J0D01*
G01*
X38775001Y-62125000D01*
G75*
G02*
X39025000Y-62374999I0J-249999D01*
G01*
G37*
D16*
X42500000Y-63500000D03*
X44500000Y-62550000D03*
X44500000Y-64450000D03*
D18*
X45540000Y-67500000D03*
D19*
X43000000Y-67500000D03*
D18*
X57540000Y-67500000D03*
X55000000Y-67500000D03*
D19*
X52460000Y-67500000D03*
G36*
G01*
X47600000Y-57374999D02*
X47600000Y-58625001D01*
G75*
G02*
X47350001Y-58875000I-249999J0D01*
G01*
X46724999Y-58875000D01*
G75*
G02*
X46475000Y-58625001I0J249999D01*
G01*
X46475000Y-57374999D01*
G75*
G02*
X46724999Y-57125000I249999J0D01*
G01*
X47350001Y-57125000D01*
G75*
G02*
X47600000Y-57374999I0J-249999D01*
G01*
G37*
G36*
G01*
X50525000Y-57374999D02*
X50525000Y-58625001D01*
G75*
G02*
X50275001Y-58875000I-249999J0D01*
G01*
X49649999Y-58875000D01*
G75*
G02*
X49400000Y-58625001I0J249999D01*
G01*
X49400000Y-57374999D01*
G75*
G02*
X49649999Y-57125000I249999J0D01*
G01*
X50275001Y-57125000D01*
G75*
G02*
X50525000Y-57374999I0J-249999D01*
G01*
G37*
G36*
G01*
X37900000Y-59125001D02*
X37900000Y-57874999D01*
G75*
G02*
X38149999Y-57625000I249999J0D01*
G01*
X38775001Y-57625000D01*
G75*
G02*
X39025000Y-57874999I0J-249999D01*
G01*
X39025000Y-59125001D01*
G75*
G02*
X38775001Y-59375000I-249999J0D01*
G01*
X38149999Y-59375000D01*
G75*
G02*
X37900000Y-59125001I0J249999D01*
G01*
G37*
G36*
G01*
X34975000Y-59125001D02*
X34975000Y-57874999D01*
G75*
G02*
X35224999Y-57625000I249999J0D01*
G01*
X35850001Y-57625000D01*
G75*
G02*
X36100000Y-57874999I0J-249999D01*
G01*
X36100000Y-59125001D01*
G75*
G02*
X35850001Y-59375000I-249999J0D01*
G01*
X35224999Y-59375000D01*
G75*
G02*
X34975000Y-59125001I0J249999D01*
G01*
G37*
D16*
X42000000Y-58500000D03*
X44000000Y-57550000D03*
X44000000Y-59450000D03*
D18*
X31000000Y-61040000D03*
D19*
X31000000Y-58500000D03*
G36*
G01*
X27750000Y-62000000D02*
X26250000Y-62000000D01*
G75*
G02*
X26000000Y-61750000I0J250000D01*
G01*
X26000000Y-61250000D01*
G75*
G02*
X26250000Y-61000000I250000J0D01*
G01*
X27750000Y-61000000D01*
G75*
G02*
X28000000Y-61250000I0J-250000D01*
G01*
X28000000Y-61750000D01*
G75*
G02*
X27750000Y-62000000I-250000J0D01*
G01*
G37*
G36*
G01*
X27750000Y-59000000D02*
X26250000Y-59000000D01*
G75*
G02*
X26000000Y-58750000I0J250000D01*
G01*
X26000000Y-58250000D01*
G75*
G02*
X26250000Y-58000000I250000J0D01*
G01*
X27750000Y-58000000D01*
G75*
G02*
X28000000Y-58250000I0J-250000D01*
G01*
X28000000Y-58750000D01*
G75*
G02*
X27750000Y-59000000I-250000J0D01*
G01*
G37*
G36*
G01*
X37862500Y-52125001D02*
X37862500Y-50874999D01*
G75*
G02*
X38112499Y-50625000I249999J0D01*
G01*
X38737501Y-50625000D01*
G75*
G02*
X38987500Y-50874999I0J-249999D01*
G01*
X38987500Y-52125001D01*
G75*
G02*
X38737501Y-52375000I-249999J0D01*
G01*
X38112499Y-52375000D01*
G75*
G02*
X37862500Y-52125001I0J249999D01*
G01*
G37*
G36*
G01*
X34937500Y-52125001D02*
X34937500Y-50874999D01*
G75*
G02*
X35187499Y-50625000I249999J0D01*
G01*
X35812501Y-50625000D01*
G75*
G02*
X36062500Y-50874999I0J-249999D01*
G01*
X36062500Y-52125001D01*
G75*
G02*
X35812501Y-52375000I-249999J0D01*
G01*
X35187499Y-52375000D01*
G75*
G02*
X34937500Y-52125001I0J249999D01*
G01*
G37*
D18*
X30995000Y-53755000D03*
D19*
X30995000Y-51215000D03*
G36*
G01*
X27750000Y-54500000D02*
X26250000Y-54500000D01*
G75*
G02*
X26000000Y-54250000I0J250000D01*
G01*
X26000000Y-53750000D01*
G75*
G02*
X26250000Y-53500000I250000J0D01*
G01*
X27750000Y-53500000D01*
G75*
G02*
X28000000Y-53750000I0J-250000D01*
G01*
X28000000Y-54250000D01*
G75*
G02*
X27750000Y-54500000I-250000J0D01*
G01*
G37*
G36*
G01*
X27750000Y-51500000D02*
X26250000Y-51500000D01*
G75*
G02*
X26000000Y-51250000I0J250000D01*
G01*
X26000000Y-50750000D01*
G75*
G02*
X26250000Y-50500000I250000J0D01*
G01*
X27750000Y-50500000D01*
G75*
G02*
X28000000Y-50750000I0J-250000D01*
G01*
X28000000Y-51250000D01*
G75*
G02*
X27750000Y-51500000I-250000J0D01*
G01*
G37*
G36*
G01*
X47600000Y-50874999D02*
X47600000Y-52125001D01*
G75*
G02*
X47350001Y-52375000I-249999J0D01*
G01*
X46724999Y-52375000D01*
G75*
G02*
X46475000Y-52125001I0J249999D01*
G01*
X46475000Y-50874999D01*
G75*
G02*
X46724999Y-50625000I249999J0D01*
G01*
X47350001Y-50625000D01*
G75*
G02*
X47600000Y-50874999I0J-249999D01*
G01*
G37*
G36*
G01*
X50525000Y-50874999D02*
X50525000Y-52125001D01*
G75*
G02*
X50275001Y-52375000I-249999J0D01*
G01*
X49649999Y-52375000D01*
G75*
G02*
X49400000Y-52125001I0J249999D01*
G01*
X49400000Y-50874999D01*
G75*
G02*
X49649999Y-50625000I249999J0D01*
G01*
X50275001Y-50625000D01*
G75*
G02*
X50525000Y-50874999I0J-249999D01*
G01*
G37*
G36*
G01*
X106025000Y-51374999D02*
X106025000Y-52625001D01*
G75*
G02*
X105775001Y-52875000I-249999J0D01*
G01*
X105149999Y-52875000D01*
G75*
G02*
X104900000Y-52625001I0J249999D01*
G01*
X104900000Y-51374999D01*
G75*
G02*
X105149999Y-51125000I249999J0D01*
G01*
X105775001Y-51125000D01*
G75*
G02*
X106025000Y-51374999I0J-249999D01*
G01*
G37*
G36*
G01*
X103100000Y-51374999D02*
X103100000Y-52625001D01*
G75*
G02*
X102850001Y-52875000I-249999J0D01*
G01*
X102224999Y-52875000D01*
G75*
G02*
X101975000Y-52625001I0J249999D01*
G01*
X101975000Y-51374999D01*
G75*
G02*
X102224999Y-51125000I249999J0D01*
G01*
X102850001Y-51125000D01*
G75*
G02*
X103100000Y-51374999I0J-249999D01*
G01*
G37*
G36*
G01*
X106975000Y-52625001D02*
X106975000Y-51374999D01*
G75*
G02*
X107224999Y-51125000I249999J0D01*
G01*
X107850001Y-51125000D01*
G75*
G02*
X108100000Y-51374999I0J-249999D01*
G01*
X108100000Y-52625001D01*
G75*
G02*
X107850001Y-52875000I-249999J0D01*
G01*
X107224999Y-52875000D01*
G75*
G02*
X106975000Y-52625001I0J249999D01*
G01*
G37*
G36*
G01*
X109900000Y-52625001D02*
X109900000Y-51374999D01*
G75*
G02*
X110149999Y-51125000I249999J0D01*
G01*
X110775001Y-51125000D01*
G75*
G02*
X111025000Y-51374999I0J-249999D01*
G01*
X111025000Y-52625001D01*
G75*
G02*
X110775001Y-52875000I-249999J0D01*
G01*
X110149999Y-52875000D01*
G75*
G02*
X109900000Y-52625001I0J249999D01*
G01*
G37*
D16*
X42000000Y-52000000D03*
X44000000Y-51050000D03*
X44000000Y-52950000D03*
D19*
X110000000Y-58500000D03*
D18*
X107460000Y-58500000D03*
X104920000Y-58500000D03*
D17*
G36*
X113250000Y-61350000D02*
G01*
X113250000Y-60850000D01*
X113250602Y-60850000D01*
X113250602Y-60825466D01*
X113255412Y-60776635D01*
X113264984Y-60728510D01*
X113279228Y-60681555D01*
X113298005Y-60636222D01*
X113321136Y-60592949D01*
X113348396Y-60552150D01*
X113379524Y-60514221D01*
X113414221Y-60479524D01*
X113452150Y-60448396D01*
X113492949Y-60421136D01*
X113536222Y-60398005D01*
X113581555Y-60379228D01*
X113628510Y-60364984D01*
X113676635Y-60355412D01*
X113725466Y-60350602D01*
X113750000Y-60350602D01*
X113750000Y-60350000D01*
X114250000Y-60350000D01*
X114250000Y-60350602D01*
X114274534Y-60350602D01*
X114323365Y-60355412D01*
X114371490Y-60364984D01*
X114418445Y-60379228D01*
X114463778Y-60398005D01*
X114507051Y-60421136D01*
X114547850Y-60448396D01*
X114585779Y-60479524D01*
X114620476Y-60514221D01*
X114651604Y-60552150D01*
X114678864Y-60592949D01*
X114701995Y-60636222D01*
X114720772Y-60681555D01*
X114735016Y-60728510D01*
X114744588Y-60776635D01*
X114749398Y-60825466D01*
X114749398Y-60850000D01*
X114750000Y-60850000D01*
X114750000Y-61350000D01*
X113250000Y-61350000D01*
G37*
G36*
X114749398Y-62150000D02*
G01*
X114749398Y-62174534D01*
X114744588Y-62223365D01*
X114735016Y-62271490D01*
X114720772Y-62318445D01*
X114701995Y-62363778D01*
X114678864Y-62407051D01*
X114651604Y-62447850D01*
X114620476Y-62485779D01*
X114585779Y-62520476D01*
X114547850Y-62551604D01*
X114507051Y-62578864D01*
X114463778Y-62601995D01*
X114418445Y-62620772D01*
X114371490Y-62635016D01*
X114323365Y-62644588D01*
X114274534Y-62649398D01*
X114250000Y-62649398D01*
X114250000Y-62650000D01*
X113750000Y-62650000D01*
X113750000Y-62649398D01*
X113725466Y-62649398D01*
X113676635Y-62644588D01*
X113628510Y-62635016D01*
X113581555Y-62620772D01*
X113536222Y-62601995D01*
X113492949Y-62578864D01*
X113452150Y-62551604D01*
X113414221Y-62520476D01*
X113379524Y-62485779D01*
X113348396Y-62447850D01*
X113321136Y-62407051D01*
X113298005Y-62363778D01*
X113279228Y-62318445D01*
X113264984Y-62271490D01*
X113255412Y-62223365D01*
X113250602Y-62174534D01*
X113250602Y-62150000D01*
X113250000Y-62150000D01*
X113250000Y-61650000D01*
X114750000Y-61650000D01*
X114750000Y-62150000D01*
X114749398Y-62150000D01*
G37*
D18*
X117500000Y-48800000D03*
X117500000Y-51340000D03*
X117500000Y-53880000D03*
X117500000Y-56420000D03*
X117500000Y-58960000D03*
D19*
X117500000Y-61500000D03*
G36*
G01*
X99250001Y-60050000D02*
X97949999Y-60050000D01*
G75*
G02*
X97700000Y-59800001I0J249999D01*
G01*
X97700000Y-59149999D01*
G75*
G02*
X97949999Y-58900000I249999J0D01*
G01*
X99250001Y-58900000D01*
G75*
G02*
X99500000Y-59149999I0J-249999D01*
G01*
X99500000Y-59800001D01*
G75*
G02*
X99250001Y-60050000I-249999J0D01*
G01*
G37*
G36*
G01*
X99250001Y-57100000D02*
X97949999Y-57100000D01*
G75*
G02*
X97700000Y-56850001I0J249999D01*
G01*
X97700000Y-56199999D01*
G75*
G02*
X97949999Y-55950000I249999J0D01*
G01*
X99250001Y-55950000D01*
G75*
G02*
X99500000Y-56199999I0J-249999D01*
G01*
X99500000Y-56850001D01*
G75*
G02*
X99250001Y-57100000I-249999J0D01*
G01*
G37*
G36*
G01*
X100349999Y-63150000D02*
X101650001Y-63150000D01*
G75*
G02*
X101900000Y-63399999I0J-249999D01*
G01*
X101900000Y-64050001D01*
G75*
G02*
X101650001Y-64300000I-249999J0D01*
G01*
X100349999Y-64300000D01*
G75*
G02*
X100100000Y-64050001I0J249999D01*
G01*
X100100000Y-63399999D01*
G75*
G02*
X100349999Y-63150000I249999J0D01*
G01*
G37*
G36*
G01*
X100349999Y-66100000D02*
X101650001Y-66100000D01*
G75*
G02*
X101900000Y-66349999I0J-249999D01*
G01*
X101900000Y-67000001D01*
G75*
G02*
X101650001Y-67250000I-249999J0D01*
G01*
X100349999Y-67250000D01*
G75*
G02*
X100100000Y-67000001I0J249999D01*
G01*
X100100000Y-66349999D01*
G75*
G02*
X100349999Y-66100000I249999J0D01*
G01*
G37*
G36*
G01*
X100402999Y-57512500D02*
X101653001Y-57512500D01*
G75*
G02*
X101903000Y-57762499I0J-249999D01*
G01*
X101903000Y-58387501D01*
G75*
G02*
X101653001Y-58637500I-249999J0D01*
G01*
X100402999Y-58637500D01*
G75*
G02*
X100153000Y-58387501I0J249999D01*
G01*
X100153000Y-57762499D01*
G75*
G02*
X100402999Y-57512500I249999J0D01*
G01*
G37*
G36*
G01*
X100402999Y-60437500D02*
X101653001Y-60437500D01*
G75*
G02*
X101903000Y-60687499I0J-249999D01*
G01*
X101903000Y-61312501D01*
G75*
G02*
X101653001Y-61562500I-249999J0D01*
G01*
X100402999Y-61562500D01*
G75*
G02*
X100153000Y-61312501I0J249999D01*
G01*
X100153000Y-60687499D01*
G75*
G02*
X100402999Y-60437500I249999J0D01*
G01*
G37*
G36*
G01*
X79525000Y-57374999D02*
X79525000Y-58625001D01*
G75*
G02*
X79275001Y-58875000I-249999J0D01*
G01*
X78649999Y-58875000D01*
G75*
G02*
X78400000Y-58625001I0J249999D01*
G01*
X78400000Y-57374999D01*
G75*
G02*
X78649999Y-57125000I249999J0D01*
G01*
X79275001Y-57125000D01*
G75*
G02*
X79525000Y-57374999I0J-249999D01*
G01*
G37*
G36*
G01*
X76600000Y-57374999D02*
X76600000Y-58625001D01*
G75*
G02*
X76350001Y-58875000I-249999J0D01*
G01*
X75724999Y-58875000D01*
G75*
G02*
X75475000Y-58625001I0J249999D01*
G01*
X75475000Y-57374999D01*
G75*
G02*
X75724999Y-57125000I249999J0D01*
G01*
X76350001Y-57125000D01*
G75*
G02*
X76600000Y-57374999I0J-249999D01*
G01*
G37*
G36*
G01*
X95300000Y-62300001D02*
X95300000Y-60899999D01*
G75*
G02*
X95549999Y-60650000I249999J0D01*
G01*
X96100001Y-60650000D01*
G75*
G02*
X96350000Y-60899999I0J-249999D01*
G01*
X96350000Y-62300001D01*
G75*
G02*
X96100001Y-62550000I-249999J0D01*
G01*
X95549999Y-62550000D01*
G75*
G02*
X95300000Y-62300001I0J249999D01*
G01*
G37*
G36*
G01*
X98450000Y-62300001D02*
X98450000Y-60899999D01*
G75*
G02*
X98699999Y-60650000I249999J0D01*
G01*
X99250001Y-60650000D01*
G75*
G02*
X99500000Y-60899999I0J-249999D01*
G01*
X99500000Y-62300001D01*
G75*
G02*
X99250001Y-62550000I-249999J0D01*
G01*
X98699999Y-62550000D01*
G75*
G02*
X98450000Y-62300001I0J249999D01*
G01*
G37*
G36*
G01*
X95424999Y-63150000D02*
X96725001Y-63150000D01*
G75*
G02*
X96975000Y-63399999I0J-249999D01*
G01*
X96975000Y-64050001D01*
G75*
G02*
X96725001Y-64300000I-249999J0D01*
G01*
X95424999Y-64300000D01*
G75*
G02*
X95175000Y-64050001I0J249999D01*
G01*
X95175000Y-63399999D01*
G75*
G02*
X95424999Y-63150000I249999J0D01*
G01*
G37*
G36*
G01*
X95424999Y-66100000D02*
X96725001Y-66100000D01*
G75*
G02*
X96975000Y-66349999I0J-249999D01*
G01*
X96975000Y-67000001D01*
G75*
G02*
X96725001Y-67250000I-249999J0D01*
G01*
X95424999Y-67250000D01*
G75*
G02*
X95175000Y-67000001I0J249999D01*
G01*
X95175000Y-66349999D01*
G75*
G02*
X95424999Y-66100000I249999J0D01*
G01*
G37*
G36*
G01*
X97949999Y-63150000D02*
X99250001Y-63150000D01*
G75*
G02*
X99500000Y-63399999I0J-249999D01*
G01*
X99500000Y-64050001D01*
G75*
G02*
X99250001Y-64300000I-249999J0D01*
G01*
X97949999Y-64300000D01*
G75*
G02*
X97700000Y-64050001I0J249999D01*
G01*
X97700000Y-63399999D01*
G75*
G02*
X97949999Y-63150000I249999J0D01*
G01*
G37*
G36*
G01*
X97949999Y-66100000D02*
X99250001Y-66100000D01*
G75*
G02*
X99500000Y-66349999I0J-249999D01*
G01*
X99500000Y-67000001D01*
G75*
G02*
X99250001Y-67250000I-249999J0D01*
G01*
X97949999Y-67250000D01*
G75*
G02*
X97700000Y-67000001I0J249999D01*
G01*
X97700000Y-66349999D01*
G75*
G02*
X97949999Y-66100000I249999J0D01*
G01*
G37*
G36*
G01*
X96725001Y-60050000D02*
X95424999Y-60050000D01*
G75*
G02*
X95175000Y-59800001I0J249999D01*
G01*
X95175000Y-59149999D01*
G75*
G02*
X95424999Y-58900000I249999J0D01*
G01*
X96725001Y-58900000D01*
G75*
G02*
X96975000Y-59149999I0J-249999D01*
G01*
X96975000Y-59800001D01*
G75*
G02*
X96725001Y-60050000I-249999J0D01*
G01*
G37*
G36*
G01*
X96725001Y-57100000D02*
X95424999Y-57100000D01*
G75*
G02*
X95175000Y-56850001I0J249999D01*
G01*
X95175000Y-56199999D01*
G75*
G02*
X95424999Y-55950000I249999J0D01*
G01*
X96725001Y-55950000D01*
G75*
G02*
X96975000Y-56199999I0J-249999D01*
G01*
X96975000Y-56850001D01*
G75*
G02*
X96725001Y-57100000I-249999J0D01*
G01*
G37*
G36*
G01*
X92849999Y-63950000D02*
X94150001Y-63950000D01*
G75*
G02*
X94400000Y-64199999I0J-249999D01*
G01*
X94400000Y-64850001D01*
G75*
G02*
X94150001Y-65100000I-249999J0D01*
G01*
X92849999Y-65100000D01*
G75*
G02*
X92600000Y-64850001I0J249999D01*
G01*
X92600000Y-64199999D01*
G75*
G02*
X92849999Y-63950000I249999J0D01*
G01*
G37*
G36*
G01*
X92849999Y-66900000D02*
X94150001Y-66900000D01*
G75*
G02*
X94400000Y-67149999I0J-249999D01*
G01*
X94400000Y-67800001D01*
G75*
G02*
X94150001Y-68050000I-249999J0D01*
G01*
X92849999Y-68050000D01*
G75*
G02*
X92600000Y-67800001I0J249999D01*
G01*
X92600000Y-67149999D01*
G75*
G02*
X92849999Y-66900000I249999J0D01*
G01*
G37*
G36*
G01*
X75650001Y-68050000D02*
X74349999Y-68050000D01*
G75*
G02*
X74100000Y-67800001I0J249999D01*
G01*
X74100000Y-67149999D01*
G75*
G02*
X74349999Y-66900000I249999J0D01*
G01*
X75650001Y-66900000D01*
G75*
G02*
X75900000Y-67149999I0J-249999D01*
G01*
X75900000Y-67800001D01*
G75*
G02*
X75650001Y-68050000I-249999J0D01*
G01*
G37*
G36*
G01*
X75650001Y-65100000D02*
X74349999Y-65100000D01*
G75*
G02*
X74100000Y-64850001I0J249999D01*
G01*
X74100000Y-64199999D01*
G75*
G02*
X74349999Y-63950000I249999J0D01*
G01*
X75650001Y-63950000D01*
G75*
G02*
X75900000Y-64199999I0J-249999D01*
G01*
X75900000Y-64850001D01*
G75*
G02*
X75650001Y-65100000I-249999J0D01*
G01*
G37*
G36*
G01*
X96909190Y-50651949D02*
X95989949Y-51571190D01*
G75*
G02*
X95636397Y-51571190I-176776J176776D01*
G01*
X95176776Y-51111569D01*
G75*
G02*
X95176776Y-50758017I176776J176776D01*
G01*
X96096017Y-49838776D01*
G75*
G02*
X96449569Y-49838776I176776J-176776D01*
G01*
X96909190Y-50298397D01*
G75*
G02*
X96909190Y-50651949I-176776J-176776D01*
G01*
G37*
G36*
G01*
X94823224Y-48565983D02*
X93903983Y-49485224D01*
G75*
G02*
X93550431Y-49485224I-176776J176776D01*
G01*
X93090810Y-49025603D01*
G75*
G02*
X93090810Y-48672051I176776J176776D01*
G01*
X94010051Y-47752810D01*
G75*
G02*
X94363603Y-47752810I176776J-176776D01*
G01*
X94823224Y-48212431D01*
G75*
G02*
X94823224Y-48565983I-176776J-176776D01*
G01*
G37*
G36*
G01*
X80590810Y-59510051D02*
X81510051Y-58590810D01*
G75*
G02*
X81863603Y-58590810I176776J-176776D01*
G01*
X82323224Y-59050431D01*
G75*
G02*
X82323224Y-59403983I-176776J-176776D01*
G01*
X81403983Y-60323224D01*
G75*
G02*
X81050431Y-60323224I-176776J176776D01*
G01*
X80590810Y-59863603D01*
G75*
G02*
X80590810Y-59510051I176776J176776D01*
G01*
G37*
G36*
G01*
X82676776Y-61596017D02*
X83596017Y-60676776D01*
G75*
G02*
X83949569Y-60676776I176776J-176776D01*
G01*
X84409190Y-61136397D01*
G75*
G02*
X84409190Y-61489949I-176776J-176776D01*
G01*
X83489949Y-62409190D01*
G75*
G02*
X83136397Y-62409190I-176776J176776D01*
G01*
X82676776Y-61949569D01*
G75*
G02*
X82676776Y-61596017I176776J176776D01*
G01*
G37*
D20*
X116000000Y-66000000D03*
X29000000Y-66000000D03*
X29000000Y-44000000D03*
X116000000Y-44000000D03*
D21*
X104000000Y-67500000D03*
X104000000Y-63000000D03*
X110500000Y-67500000D03*
X110500000Y-63000000D03*
G36*
G01*
X57625000Y-49525000D02*
X56375000Y-49525000D01*
G75*
G02*
X56125000Y-49275000I0J250000D01*
G01*
X56125000Y-48525000D01*
G75*
G02*
X56375000Y-48275000I250000J0D01*
G01*
X57625000Y-48275000D01*
G75*
G02*
X57875000Y-48525000I0J-250000D01*
G01*
X57875000Y-49275000D01*
G75*
G02*
X57625000Y-49525000I-250000J0D01*
G01*
G37*
G36*
G01*
X57625000Y-46725000D02*
X56375000Y-46725000D01*
G75*
G02*
X56125000Y-46475000I0J250000D01*
G01*
X56125000Y-45725000D01*
G75*
G02*
X56375000Y-45475000I250000J0D01*
G01*
X57625000Y-45475000D01*
G75*
G02*
X57875000Y-45725000I0J-250000D01*
G01*
X57875000Y-46475000D01*
G75*
G02*
X57625000Y-46725000I-250000J0D01*
G01*
G37*
D22*
X39000000Y-45000000D03*
D23*
X35500000Y-45000000D03*
D22*
X73000000Y-45000000D03*
D23*
X69500000Y-45000000D03*
D22*
X51500000Y-45000000D03*
D23*
X48000000Y-45000000D03*
D24*
X101000000Y-48000000D03*
X103500000Y-48000000D03*
X106000000Y-48000000D03*
G36*
G01*
X109350000Y-47275000D02*
X109350000Y-48725000D01*
G75*
G02*
X109100000Y-48975000I-250000J0D01*
G01*
X107900000Y-48975000D01*
G75*
G02*
X107650000Y-48725000I0J250000D01*
G01*
X107650000Y-47275000D01*
G75*
G02*
X107900000Y-47025000I250000J0D01*
G01*
X109100000Y-47025000D01*
G75*
G02*
X109350000Y-47275000I0J-250000D01*
G01*
G37*
G36*
G01*
X64374998Y-51475000D02*
X65625002Y-51475000D01*
G75*
G02*
X65875000Y-51724998I0J-249998D01*
G01*
X65875000Y-52350002D01*
G75*
G02*
X65625002Y-52600000I-249998J0D01*
G01*
X64374998Y-52600000D01*
G75*
G02*
X64125000Y-52350002I0J249998D01*
G01*
X64125000Y-51724998D01*
G75*
G02*
X64374998Y-51475000I249998J0D01*
G01*
G37*
G36*
G01*
X64374998Y-54400000D02*
X65625002Y-54400000D01*
G75*
G02*
X65875000Y-54649998I0J-249998D01*
G01*
X65875000Y-55275002D01*
G75*
G02*
X65625002Y-55525000I-249998J0D01*
G01*
X64374998Y-55525000D01*
G75*
G02*
X64125000Y-55275002I0J249998D01*
G01*
X64125000Y-54649998D01*
G75*
G02*
X64374998Y-54400000I249998J0D01*
G01*
G37*
G36*
G01*
X60374998Y-51475000D02*
X61625002Y-51475000D01*
G75*
G02*
X61875000Y-51724998I0J-249998D01*
G01*
X61875000Y-52350002D01*
G75*
G02*
X61625002Y-52600000I-249998J0D01*
G01*
X60374998Y-52600000D01*
G75*
G02*
X60125000Y-52350002I0J249998D01*
G01*
X60125000Y-51724998D01*
G75*
G02*
X60374998Y-51475000I249998J0D01*
G01*
G37*
G36*
G01*
X60374998Y-54400000D02*
X61625002Y-54400000D01*
G75*
G02*
X61875000Y-54649998I0J-249998D01*
G01*
X61875000Y-55275002D01*
G75*
G02*
X61625002Y-55525000I-249998J0D01*
G01*
X60374998Y-55525000D01*
G75*
G02*
X60125000Y-55275002I0J249998D01*
G01*
X60125000Y-54649998D01*
G75*
G02*
X60374998Y-54400000I249998J0D01*
G01*
G37*
G36*
G01*
X56374998Y-51475000D02*
X57625002Y-51475000D01*
G75*
G02*
X57875000Y-51724998I0J-249998D01*
G01*
X57875000Y-52350002D01*
G75*
G02*
X57625002Y-52600000I-249998J0D01*
G01*
X56374998Y-52600000D01*
G75*
G02*
X56125000Y-52350002I0J249998D01*
G01*
X56125000Y-51724998D01*
G75*
G02*
X56374998Y-51475000I249998J0D01*
G01*
G37*
G36*
G01*
X56374998Y-54400000D02*
X57625002Y-54400000D01*
G75*
G02*
X57875000Y-54649998I0J-249998D01*
G01*
X57875000Y-55275002D01*
G75*
G02*
X57625002Y-55525000I-249998J0D01*
G01*
X56374998Y-55525000D01*
G75*
G02*
X56125000Y-55275002I0J249998D01*
G01*
X56125000Y-54649998D01*
G75*
G02*
X56374998Y-54400000I249998J0D01*
G01*
G37*
D17*
G36*
X60250602Y-42350000D02*
G01*
X60250602Y-42325466D01*
X60255412Y-42276635D01*
X60264984Y-42228510D01*
X60279228Y-42181555D01*
X60298005Y-42136222D01*
X60321136Y-42092949D01*
X60348396Y-42052150D01*
X60379524Y-42014221D01*
X60414221Y-41979524D01*
X60452150Y-41948396D01*
X60492949Y-41921136D01*
X60536222Y-41898005D01*
X60581555Y-41879228D01*
X60628510Y-41864984D01*
X60676635Y-41855412D01*
X60725466Y-41850602D01*
X60750000Y-41850602D01*
X60750000Y-41850000D01*
X61250000Y-41850000D01*
X61250000Y-41850602D01*
X61274534Y-41850602D01*
X61323365Y-41855412D01*
X61371490Y-41864984D01*
X61418445Y-41879228D01*
X61463778Y-41898005D01*
X61507051Y-41921136D01*
X61547850Y-41948396D01*
X61585779Y-41979524D01*
X61620476Y-42014221D01*
X61651604Y-42052150D01*
X61678864Y-42092949D01*
X61701995Y-42136222D01*
X61720772Y-42181555D01*
X61735016Y-42228510D01*
X61744588Y-42276635D01*
X61749398Y-42325466D01*
X61749398Y-42350000D01*
X61750000Y-42350000D01*
X61750000Y-42850000D01*
X60250000Y-42850000D01*
X60250000Y-42350000D01*
X60250602Y-42350000D01*
G37*
G36*
X61750000Y-43150000D02*
G01*
X61750000Y-43650000D01*
X61749398Y-43650000D01*
X61749398Y-43674534D01*
X61744588Y-43723365D01*
X61735016Y-43771490D01*
X61720772Y-43818445D01*
X61701995Y-43863778D01*
X61678864Y-43907051D01*
X61651604Y-43947850D01*
X61620476Y-43985779D01*
X61585779Y-44020476D01*
X61547850Y-44051604D01*
X61507051Y-44078864D01*
X61463778Y-44101995D01*
X61418445Y-44120772D01*
X61371490Y-44135016D01*
X61323365Y-44144588D01*
X61274534Y-44149398D01*
X61250000Y-44149398D01*
X61250000Y-44150000D01*
X60750000Y-44150000D01*
X60750000Y-44149398D01*
X60725466Y-44149398D01*
X60676635Y-44144588D01*
X60628510Y-44135016D01*
X60581555Y-44120772D01*
X60536222Y-44101995D01*
X60492949Y-44078864D01*
X60452150Y-44051604D01*
X60414221Y-44020476D01*
X60379524Y-43985779D01*
X60348396Y-43947850D01*
X60321136Y-43907051D01*
X60298005Y-43863778D01*
X60279228Y-43818445D01*
X60264984Y-43771490D01*
X60255412Y-43723365D01*
X60250602Y-43674534D01*
X60250602Y-43650000D01*
X60250000Y-43650000D01*
X60250000Y-43150000D01*
X61750000Y-43150000D01*
G37*
G36*
X56250602Y-42350000D02*
G01*
X56250602Y-42325466D01*
X56255412Y-42276635D01*
X56264984Y-42228510D01*
X56279228Y-42181555D01*
X56298005Y-42136222D01*
X56321136Y-42092949D01*
X56348396Y-42052150D01*
X56379524Y-42014221D01*
X56414221Y-41979524D01*
X56452150Y-41948396D01*
X56492949Y-41921136D01*
X56536222Y-41898005D01*
X56581555Y-41879228D01*
X56628510Y-41864984D01*
X56676635Y-41855412D01*
X56725466Y-41850602D01*
X56750000Y-41850602D01*
X56750000Y-41850000D01*
X57250000Y-41850000D01*
X57250000Y-41850602D01*
X57274534Y-41850602D01*
X57323365Y-41855412D01*
X57371490Y-41864984D01*
X57418445Y-41879228D01*
X57463778Y-41898005D01*
X57507051Y-41921136D01*
X57547850Y-41948396D01*
X57585779Y-41979524D01*
X57620476Y-42014221D01*
X57651604Y-42052150D01*
X57678864Y-42092949D01*
X57701995Y-42136222D01*
X57720772Y-42181555D01*
X57735016Y-42228510D01*
X57744588Y-42276635D01*
X57749398Y-42325466D01*
X57749398Y-42350000D01*
X57750000Y-42350000D01*
X57750000Y-42850000D01*
X56250000Y-42850000D01*
X56250000Y-42350000D01*
X56250602Y-42350000D01*
G37*
G36*
X57750000Y-43150000D02*
G01*
X57750000Y-43650000D01*
X57749398Y-43650000D01*
X57749398Y-43674534D01*
X57744588Y-43723365D01*
X57735016Y-43771490D01*
X57720772Y-43818445D01*
X57701995Y-43863778D01*
X57678864Y-43907051D01*
X57651604Y-43947850D01*
X57620476Y-43985779D01*
X57585779Y-44020476D01*
X57547850Y-44051604D01*
X57507051Y-44078864D01*
X57463778Y-44101995D01*
X57418445Y-44120772D01*
X57371490Y-44135016D01*
X57323365Y-44144588D01*
X57274534Y-44149398D01*
X57250000Y-44149398D01*
X57250000Y-44150000D01*
X56750000Y-44150000D01*
X56750000Y-44149398D01*
X56725466Y-44149398D01*
X56676635Y-44144588D01*
X56628510Y-44135016D01*
X56581555Y-44120772D01*
X56536222Y-44101995D01*
X56492949Y-44078864D01*
X56452150Y-44051604D01*
X56414221Y-44020476D01*
X56379524Y-43985779D01*
X56348396Y-43947850D01*
X56321136Y-43907051D01*
X56298005Y-43863778D01*
X56279228Y-43818445D01*
X56264984Y-43771490D01*
X56255412Y-43723365D01*
X56250602Y-43674534D01*
X56250602Y-43650000D01*
X56250000Y-43650000D01*
X56250000Y-43150000D01*
X57750000Y-43150000D01*
G37*
G36*
X64250602Y-42350000D02*
G01*
X64250602Y-42325466D01*
X64255412Y-42276635D01*
X64264984Y-42228510D01*
X64279228Y-42181555D01*
X64298005Y-42136222D01*
X64321136Y-42092949D01*
X64348396Y-42052150D01*
X64379524Y-42014221D01*
X64414221Y-41979524D01*
X64452150Y-41948396D01*
X64492949Y-41921136D01*
X64536222Y-41898005D01*
X64581555Y-41879228D01*
X64628510Y-41864984D01*
X64676635Y-41855412D01*
X64725466Y-41850602D01*
X64750000Y-41850602D01*
X64750000Y-41850000D01*
X65250000Y-41850000D01*
X65250000Y-41850602D01*
X65274534Y-41850602D01*
X65323365Y-41855412D01*
X65371490Y-41864984D01*
X65418445Y-41879228D01*
X65463778Y-41898005D01*
X65507051Y-41921136D01*
X65547850Y-41948396D01*
X65585779Y-41979524D01*
X65620476Y-42014221D01*
X65651604Y-42052150D01*
X65678864Y-42092949D01*
X65701995Y-42136222D01*
X65720772Y-42181555D01*
X65735016Y-42228510D01*
X65744588Y-42276635D01*
X65749398Y-42325466D01*
X65749398Y-42350000D01*
X65750000Y-42350000D01*
X65750000Y-42850000D01*
X64250000Y-42850000D01*
X64250000Y-42350000D01*
X64250602Y-42350000D01*
G37*
G36*
X65750000Y-43150000D02*
G01*
X65750000Y-43650000D01*
X65749398Y-43650000D01*
X65749398Y-43674534D01*
X65744588Y-43723365D01*
X65735016Y-43771490D01*
X65720772Y-43818445D01*
X65701995Y-43863778D01*
X65678864Y-43907051D01*
X65651604Y-43947850D01*
X65620476Y-43985779D01*
X65585779Y-44020476D01*
X65547850Y-44051604D01*
X65507051Y-44078864D01*
X65463778Y-44101995D01*
X65418445Y-44120772D01*
X65371490Y-44135016D01*
X65323365Y-44144588D01*
X65274534Y-44149398D01*
X65250000Y-44149398D01*
X65250000Y-44150000D01*
X64750000Y-44150000D01*
X64750000Y-44149398D01*
X64725466Y-44149398D01*
X64676635Y-44144588D01*
X64628510Y-44135016D01*
X64581555Y-44120772D01*
X64536222Y-44101995D01*
X64492949Y-44078864D01*
X64452150Y-44051604D01*
X64414221Y-44020476D01*
X64379524Y-43985779D01*
X64348396Y-43947850D01*
X64321136Y-43907051D01*
X64298005Y-43863778D01*
X64279228Y-43818445D01*
X64264984Y-43771490D01*
X64255412Y-43723365D01*
X64250602Y-43674534D01*
X64250602Y-43650000D01*
X64250000Y-43650000D01*
X64250000Y-43150000D01*
X65750000Y-43150000D01*
G37*
G36*
G01*
X65625000Y-49525000D02*
X64375000Y-49525000D01*
G75*
G02*
X64125000Y-49275000I0J250000D01*
G01*
X64125000Y-48525000D01*
G75*
G02*
X64375000Y-48275000I250000J0D01*
G01*
X65625000Y-48275000D01*
G75*
G02*
X65875000Y-48525000I0J-250000D01*
G01*
X65875000Y-49275000D01*
G75*
G02*
X65625000Y-49525000I-250000J0D01*
G01*
G37*
G36*
G01*
X65625000Y-46725000D02*
X64375000Y-46725000D01*
G75*
G02*
X64125000Y-46475000I0J250000D01*
G01*
X64125000Y-45725000D01*
G75*
G02*
X64375000Y-45475000I250000J0D01*
G01*
X65625000Y-45475000D01*
G75*
G02*
X65875000Y-45725000I0J-250000D01*
G01*
X65875000Y-46475000D01*
G75*
G02*
X65625000Y-46725000I-250000J0D01*
G01*
G37*
G36*
G01*
X61625000Y-49525000D02*
X60375000Y-49525000D01*
G75*
G02*
X60125000Y-49275000I0J250000D01*
G01*
X60125000Y-48525000D01*
G75*
G02*
X60375000Y-48275000I250000J0D01*
G01*
X61625000Y-48275000D01*
G75*
G02*
X61875000Y-48525000I0J-250000D01*
G01*
X61875000Y-49275000D01*
G75*
G02*
X61625000Y-49525000I-250000J0D01*
G01*
G37*
G36*
G01*
X61625000Y-46725000D02*
X60375000Y-46725000D01*
G75*
G02*
X60125000Y-46475000I0J250000D01*
G01*
X60125000Y-45725000D01*
G75*
G02*
X60375000Y-45475000I250000J0D01*
G01*
X61625000Y-45475000D01*
G75*
G02*
X61875000Y-45725000I0J-250000D01*
G01*
X61875000Y-46475000D01*
G75*
G02*
X61625000Y-46725000I-250000J0D01*
G01*
G37*
M02*
