G04 #@! TF.GenerationSoftware,KiCad,Pcbnew,5.1.10-88a1d61d58~90~ubuntu21.04.1*
G04 #@! TF.CreationDate,2021-10-15T10:00:40+02:00*
G04 #@! TF.ProjectId,IndicatorLeds,496e6469-6361-4746-9f72-4c6564732e6b,rev?*
G04 #@! TF.SameCoordinates,Original*
G04 #@! TF.FileFunction,Legend,Bot*
G04 #@! TF.FilePolarity,Positive*
%FSLAX46Y46*%
G04 Gerber Fmt 4.6, Leading zero omitted, Abs format (unit mm)*
G04 Created by KiCad (PCBNEW 5.1.10-88a1d61d58~90~ubuntu21.04.1) date 2021-10-15 10:00:40*
%MOMM*%
%LPD*%
G01*
G04 APERTURE LIST*
%ADD10C,0.150000*%
%ADD11C,0.120000*%
%ADD12O,1.700000X1.700000*%
%ADD13R,1.700000X1.700000*%
G04 APERTURE END LIST*
D10*
X101592857Y-109988214D02*
X100392857Y-109988214D01*
X100392857Y-110273928D01*
X100450000Y-110445357D01*
X100564285Y-110559642D01*
X100678571Y-110616785D01*
X100907142Y-110673928D01*
X101078571Y-110673928D01*
X101307142Y-110616785D01*
X101421428Y-110559642D01*
X101535714Y-110445357D01*
X101592857Y-110273928D01*
X101592857Y-109988214D01*
X101592857Y-111359642D02*
X101535714Y-111245357D01*
X101478571Y-111188214D01*
X101364285Y-111131071D01*
X101021428Y-111131071D01*
X100907142Y-111188214D01*
X100850000Y-111245357D01*
X100792857Y-111359642D01*
X100792857Y-111531071D01*
X100850000Y-111645357D01*
X100907142Y-111702500D01*
X101021428Y-111759642D01*
X101364285Y-111759642D01*
X101478571Y-111702500D01*
X101535714Y-111645357D01*
X101592857Y-111531071D01*
X101592857Y-111359642D01*
X101992857Y-112559642D02*
X100278571Y-112559642D01*
X101592857Y-113416785D02*
X100392857Y-113416785D01*
X100392857Y-113702500D01*
X100450000Y-113873928D01*
X100564285Y-113988214D01*
X100678571Y-114045357D01*
X100907142Y-114102500D01*
X101078571Y-114102500D01*
X101307142Y-114045357D01*
X101421428Y-113988214D01*
X101535714Y-113873928D01*
X101592857Y-113702500D01*
X101592857Y-113416785D01*
X101592857Y-114616785D02*
X100792857Y-114616785D01*
X100392857Y-114616785D02*
X100450000Y-114559642D01*
X100507142Y-114616785D01*
X100450000Y-114673928D01*
X100392857Y-114616785D01*
X100507142Y-114616785D01*
X102400000Y-112159642D02*
X102342857Y-112045357D01*
X102342857Y-111873928D01*
X102400000Y-111702500D01*
X102514285Y-111588214D01*
X102628571Y-111531071D01*
X102857142Y-111473928D01*
X103028571Y-111473928D01*
X103257142Y-111531071D01*
X103371428Y-111588214D01*
X103485714Y-111702500D01*
X103542857Y-111873928D01*
X103542857Y-111988214D01*
X103485714Y-112159642D01*
X103428571Y-112216785D01*
X103028571Y-112216785D01*
X103028571Y-111988214D01*
X103542857Y-112731071D02*
X102342857Y-112731071D01*
X103542857Y-113416785D01*
X102342857Y-113416785D01*
X103542857Y-113988214D02*
X102342857Y-113988214D01*
X102342857Y-114273928D01*
X102400000Y-114445357D01*
X102514285Y-114559642D01*
X102628571Y-114616785D01*
X102857142Y-114673928D01*
X103028571Y-114673928D01*
X103257142Y-114616785D01*
X103371428Y-114559642D01*
X103485714Y-114445357D01*
X103542857Y-114273928D01*
X103542857Y-113988214D01*
X104292857Y-111588214D02*
X105492857Y-111988214D01*
X104292857Y-112388214D01*
X105378571Y-113473928D02*
X105435714Y-113416785D01*
X105492857Y-113245357D01*
X105492857Y-113131071D01*
X105435714Y-112959642D01*
X105321428Y-112845357D01*
X105207142Y-112788214D01*
X104978571Y-112731071D01*
X104807142Y-112731071D01*
X104578571Y-112788214D01*
X104464285Y-112845357D01*
X104350000Y-112959642D01*
X104292857Y-113131071D01*
X104292857Y-113245357D01*
X104350000Y-113416785D01*
X104407142Y-113473928D01*
X105378571Y-114673928D02*
X105435714Y-114616785D01*
X105492857Y-114445357D01*
X105492857Y-114331071D01*
X105435714Y-114159642D01*
X105321428Y-114045357D01*
X105207142Y-113988214D01*
X104978571Y-113931071D01*
X104807142Y-113931071D01*
X104578571Y-113988214D01*
X104464285Y-114045357D01*
X104350000Y-114159642D01*
X104292857Y-114331071D01*
X104292857Y-114445357D01*
X104350000Y-114616785D01*
X104407142Y-114673928D01*
D11*
X99119000Y-121591000D02*
X99119000Y-116391000D01*
X104259000Y-121591000D02*
X99119000Y-121591000D01*
X106859000Y-116391000D02*
X99119000Y-116391000D01*
X104259000Y-121591000D02*
X104259000Y-118991000D01*
X104259000Y-118991000D02*
X106859000Y-118991000D01*
X106859000Y-118991000D02*
X106859000Y-116391000D01*
X105529000Y-121591000D02*
X106859000Y-121591000D01*
X106859000Y-121591000D02*
X106859000Y-120261000D01*
D10*
X107083333Y-114702380D02*
X107083333Y-115416666D01*
X107130952Y-115559523D01*
X107226190Y-115654761D01*
X107369047Y-115702380D01*
X107464285Y-115702380D01*
X106083333Y-115702380D02*
X106654761Y-115702380D01*
X106369047Y-115702380D02*
X106369047Y-114702380D01*
X106464285Y-114845238D01*
X106559523Y-114940476D01*
X106654761Y-114988095D01*
%LPC*%
D12*
X100449000Y-117721000D03*
X100449000Y-120261000D03*
X102989000Y-117721000D03*
X102989000Y-120261000D03*
X105529000Y-117721000D03*
D13*
X105529000Y-120261000D03*
M02*
