G04 #@! TF.GenerationSoftware,KiCad,Pcbnew,5.1.10-88a1d61d58~90~ubuntu21.04.1*
G04 #@! TF.CreationDate,2021-10-08T15:30:08+02:00*
G04 #@! TF.ProjectId,BoardArduinos,426f6172-6441-4726-9475-696e6f732e6b,rev?*
G04 #@! TF.SameCoordinates,Original*
G04 #@! TF.FileFunction,Copper,L1,Top*
G04 #@! TF.FilePolarity,Positive*
%FSLAX46Y46*%
G04 Gerber Fmt 4.6, Leading zero omitted, Abs format (unit mm)*
G04 Created by KiCad (PCBNEW 5.1.10-88a1d61d58~90~ubuntu21.04.1) date 2021-10-08 15:30:08*
%MOMM*%
%LPD*%
G01*
G04 APERTURE LIST*
G04 #@! TA.AperFunction,ComponentPad*
%ADD10O,1.950000X1.700000*%
G04 #@! TD*
G04 #@! TA.AperFunction,ComponentPad*
%ADD11C,1.879600*%
G04 #@! TD*
G04 #@! TA.AperFunction,ComponentPad*
%ADD12O,1.700000X1.700000*%
G04 #@! TD*
G04 #@! TA.AperFunction,ComponentPad*
%ADD13R,1.700000X1.700000*%
G04 #@! TD*
G04 #@! TA.AperFunction,ComponentPad*
%ADD14O,1.600000X1.600000*%
G04 #@! TD*
G04 #@! TA.AperFunction,ComponentPad*
%ADD15R,1.600000X1.600000*%
G04 #@! TD*
G04 #@! TA.AperFunction,ViaPad*
%ADD16C,0.800000*%
G04 #@! TD*
G04 #@! TA.AperFunction,Conductor*
%ADD17C,0.250000*%
G04 #@! TD*
G04 #@! TA.AperFunction,Conductor*
%ADD18C,0.800000*%
G04 #@! TD*
G04 #@! TA.AperFunction,Conductor*
%ADD19C,0.254000*%
G04 #@! TD*
G04 #@! TA.AperFunction,Conductor*
%ADD20C,0.100000*%
G04 #@! TD*
G04 APERTURE END LIST*
D10*
X168500000Y-57000000D03*
X168500000Y-59500000D03*
X168500000Y-62000000D03*
G04 #@! TA.AperFunction,ComponentPad*
G36*
G01*
X169225000Y-65350000D02*
X167775000Y-65350000D01*
G75*
G02*
X167525000Y-65100000I0J250000D01*
G01*
X167525000Y-63900000D01*
G75*
G02*
X167775000Y-63650000I250000J0D01*
G01*
X169225000Y-63650000D01*
G75*
G02*
X169475000Y-63900000I0J-250000D01*
G01*
X169475000Y-65100000D01*
G75*
G02*
X169225000Y-65350000I-250000J0D01*
G01*
G37*
G04 #@! TD.AperFunction*
D11*
X108000000Y-85740000D03*
X100380000Y-57800000D03*
X100380000Y-60340000D03*
X100380000Y-62880000D03*
X100380000Y-65420000D03*
X100380000Y-67960000D03*
X100380000Y-70500000D03*
X100380000Y-73040000D03*
X100380000Y-75580000D03*
X100380000Y-78120000D03*
X100380000Y-80660000D03*
X100380000Y-83200000D03*
X100380000Y-85740000D03*
X115620000Y-85740000D03*
X115620000Y-83200000D03*
X115620000Y-80660000D03*
X115620000Y-78120000D03*
X115620000Y-75580000D03*
X115620000Y-73040000D03*
X115620000Y-70500000D03*
X115620000Y-67960000D03*
X115620000Y-65420000D03*
X115620000Y-62880000D03*
X115620000Y-60340000D03*
X115620000Y-57800000D03*
X110540000Y-85740000D03*
X113080000Y-85740000D03*
X112699000Y-66563000D03*
X112699000Y-69103000D03*
X101650000Y-55260000D03*
X104190000Y-55260000D03*
X106730000Y-55260000D03*
X109270000Y-55260000D03*
X111810000Y-55260000D03*
X114350000Y-55260000D03*
D12*
X117200000Y-44500000D03*
X114660000Y-44500000D03*
X112120000Y-44500000D03*
X109580000Y-44500000D03*
X107040000Y-44500000D03*
D13*
X104500000Y-44500000D03*
D12*
X87920000Y-83500000D03*
X90460000Y-83500000D03*
D13*
X93000000Y-83500000D03*
D12*
X87920000Y-78000000D03*
X90460000Y-78000000D03*
D13*
X93000000Y-78000000D03*
D12*
X87920000Y-73000000D03*
X90460000Y-73000000D03*
D13*
X93000000Y-73000000D03*
D12*
X87920000Y-68000000D03*
X90460000Y-68000000D03*
D13*
X93000000Y-68000000D03*
D12*
X132580000Y-73000000D03*
X130040000Y-73000000D03*
D13*
X127500000Y-73000000D03*
D12*
X132580000Y-68000000D03*
X130040000Y-68000000D03*
D13*
X127500000Y-68000000D03*
D12*
X132580000Y-78000000D03*
X130040000Y-78000000D03*
D13*
X127500000Y-78000000D03*
D12*
X132580000Y-83500000D03*
X130040000Y-83500000D03*
D13*
X127500000Y-83500000D03*
D12*
X137960000Y-80420000D03*
X140500000Y-80420000D03*
X137960000Y-82960000D03*
X140500000Y-82960000D03*
X137960000Y-85500000D03*
D13*
X140500000Y-85500000D03*
D14*
X147260000Y-49440000D03*
X162500000Y-49440000D03*
X147260000Y-85000000D03*
X162500000Y-51980000D03*
X147260000Y-82460000D03*
X162500000Y-54520000D03*
X147260000Y-79920000D03*
X162500000Y-57060000D03*
X147260000Y-77380000D03*
X162500000Y-59600000D03*
X147260000Y-74840000D03*
X162500000Y-62140000D03*
X147260000Y-72300000D03*
X162500000Y-64680000D03*
X147260000Y-69760000D03*
X162500000Y-67220000D03*
X147260000Y-67220000D03*
X162500000Y-69760000D03*
X147260000Y-64680000D03*
X162500000Y-72300000D03*
X147260000Y-62140000D03*
X162500000Y-74840000D03*
X147260000Y-59600000D03*
X162500000Y-77380000D03*
X147260000Y-57060000D03*
X162500000Y-79920000D03*
X147260000Y-54520000D03*
X162500000Y-82460000D03*
X147260000Y-51980000D03*
D15*
X162500000Y-85000000D03*
D16*
X142500000Y-77000000D03*
X113500000Y-47500000D03*
X110500000Y-62774990D03*
D17*
X145500000Y-85000000D02*
X147260000Y-85000000D01*
X144000000Y-83500000D02*
X145500000Y-85000000D01*
X144000000Y-60500000D02*
X144000000Y-83500000D01*
X141300000Y-57800000D02*
X144000000Y-60500000D01*
X115620000Y-57800000D02*
X141300000Y-57800000D01*
D18*
X115620000Y-65420000D02*
X141420000Y-65420000D01*
X142500000Y-66500000D02*
X142500000Y-77000000D01*
X141420000Y-65420000D02*
X142500000Y-66500000D01*
X142500000Y-77000000D02*
X142500000Y-79500000D01*
X141580000Y-80420000D02*
X140500000Y-80420000D01*
X142500000Y-79500000D02*
X141580000Y-80420000D01*
X113700000Y-63500000D02*
X115620000Y-65420000D01*
X113700000Y-60200000D02*
X113700000Y-63500000D01*
X112500000Y-59000000D02*
X113700000Y-60200000D01*
X107500000Y-59000000D02*
X112500000Y-59000000D01*
X106730000Y-58230000D02*
X107500000Y-59000000D01*
X106730000Y-55260000D02*
X106730000Y-58230000D01*
X168500000Y-64500000D02*
X168500000Y-85500000D01*
X168500000Y-85500000D02*
X166000000Y-88000000D01*
X166000000Y-88000000D02*
X159000000Y-88000000D01*
X159000000Y-88000000D02*
X155000000Y-84000000D01*
X155000000Y-84000000D02*
X155000000Y-79000000D01*
X153380000Y-77380000D02*
X147260000Y-77380000D01*
X155000000Y-79000000D02*
X153380000Y-77380000D01*
D17*
X168320000Y-59600000D02*
X168500000Y-59420000D01*
X162500000Y-59600000D02*
X168320000Y-59600000D01*
X168320000Y-62140000D02*
X168500000Y-61960000D01*
X162500000Y-62140000D02*
X168320000Y-62140000D01*
X113500000Y-47500000D02*
X110500000Y-47500000D01*
X109580000Y-46580000D02*
X109580000Y-44500000D01*
X110500000Y-47500000D02*
X109580000Y-46580000D01*
X110500000Y-68500000D02*
X110500000Y-62774990D01*
X111103000Y-69103000D02*
X110500000Y-68500000D01*
X112699000Y-69103000D02*
X111103000Y-69103000D01*
D18*
X114660000Y-44500000D02*
X117200000Y-44500000D01*
X147260000Y-51980000D02*
X144480000Y-51980000D01*
X144480000Y-51980000D02*
X142500000Y-50000000D01*
X142500000Y-50000000D02*
X142500000Y-45000000D01*
X142500000Y-45000000D02*
X142000000Y-44500000D01*
X117200000Y-44500000D02*
X142000000Y-44500000D01*
D17*
X127380000Y-78120000D02*
X127500000Y-78000000D01*
X115620000Y-78120000D02*
X127380000Y-78120000D01*
X132580000Y-78000000D02*
X132580000Y-79420000D01*
X131340000Y-80660000D02*
X115620000Y-80660000D01*
X137960000Y-80420000D02*
X131580000Y-80420000D01*
X131580000Y-80420000D02*
X131500000Y-80500000D01*
X131500000Y-80500000D02*
X131340000Y-80660000D01*
X132580000Y-79420000D02*
X131500000Y-80500000D01*
X115620000Y-85740000D02*
X131760000Y-85740000D01*
X132580000Y-84920000D02*
X132580000Y-83500000D01*
X131760000Y-85740000D02*
X132580000Y-84920000D01*
X115920000Y-83500000D02*
X115620000Y-83200000D01*
X127500000Y-83500000D02*
X115920000Y-83500000D01*
X132580000Y-68000000D02*
X132580000Y-69420000D01*
X131500000Y-70500000D02*
X115620000Y-70500000D01*
X132580000Y-69420000D02*
X131500000Y-70500000D01*
X115660000Y-68000000D02*
X115620000Y-67960000D01*
X127500000Y-68000000D02*
X115660000Y-68000000D01*
X132580000Y-73000000D02*
X132580000Y-74920000D01*
X131920000Y-75580000D02*
X115620000Y-75580000D01*
X132580000Y-74920000D02*
X131920000Y-75580000D01*
X115660000Y-73000000D02*
X115620000Y-73040000D01*
X127500000Y-73000000D02*
X115660000Y-73000000D01*
X87920000Y-68000000D02*
X87920000Y-69420000D01*
X89000000Y-70500000D02*
X100380000Y-70500000D01*
X87920000Y-69420000D02*
X89000000Y-70500000D01*
X93040000Y-67960000D02*
X93000000Y-68000000D01*
X100380000Y-67960000D02*
X93040000Y-67960000D01*
X87920000Y-73000000D02*
X87920000Y-74920000D01*
X88580000Y-75580000D02*
X100380000Y-75580000D01*
X87920000Y-74920000D02*
X88580000Y-75580000D01*
X100340000Y-73000000D02*
X100380000Y-73040000D01*
X93000000Y-73000000D02*
X100340000Y-73000000D01*
X87920000Y-78000000D02*
X87920000Y-79920000D01*
X88660000Y-80660000D02*
X100380000Y-80660000D01*
X87920000Y-79920000D02*
X88660000Y-80660000D01*
X100260000Y-78000000D02*
X100380000Y-78120000D01*
X93000000Y-78000000D02*
X100260000Y-78000000D01*
X87920000Y-83500000D02*
X87920000Y-85420000D01*
X88240000Y-85740000D02*
X100380000Y-85740000D01*
X87920000Y-85420000D02*
X88240000Y-85740000D01*
X100080000Y-83500000D02*
X100380000Y-83200000D01*
X93000000Y-83500000D02*
X100080000Y-83500000D01*
D19*
X174340000Y-92340000D02*
X80660000Y-92340000D01*
X80660000Y-67853740D01*
X86435000Y-67853740D01*
X86435000Y-68146260D01*
X86492068Y-68433158D01*
X86604010Y-68703411D01*
X86766525Y-68946632D01*
X86973368Y-69153475D01*
X87160001Y-69278179D01*
X87160001Y-69382668D01*
X87156324Y-69420000D01*
X87170998Y-69568985D01*
X87214454Y-69712246D01*
X87285026Y-69844276D01*
X87331854Y-69901335D01*
X87380000Y-69960001D01*
X87408998Y-69983799D01*
X88436201Y-71011003D01*
X88459999Y-71040001D01*
X88575724Y-71134974D01*
X88707753Y-71205546D01*
X88851014Y-71249003D01*
X88962667Y-71260000D01*
X88962675Y-71260000D01*
X89000000Y-71263676D01*
X89037325Y-71260000D01*
X98993819Y-71260000D01*
X99156773Y-71503877D01*
X99376123Y-71723227D01*
X99446124Y-71770000D01*
X99376123Y-71816773D01*
X99156773Y-72036123D01*
X99020546Y-72240000D01*
X94488072Y-72240000D01*
X94488072Y-72150000D01*
X94475812Y-72025518D01*
X94439502Y-71905820D01*
X94380537Y-71795506D01*
X94301185Y-71698815D01*
X94204494Y-71619463D01*
X94094180Y-71560498D01*
X93974482Y-71524188D01*
X93850000Y-71511928D01*
X92150000Y-71511928D01*
X92025518Y-71524188D01*
X91905820Y-71560498D01*
X91795506Y-71619463D01*
X91698815Y-71698815D01*
X91619463Y-71795506D01*
X91560498Y-71905820D01*
X91536034Y-71986466D01*
X91460269Y-71902412D01*
X91226920Y-71728359D01*
X90964099Y-71603175D01*
X90816890Y-71558524D01*
X90587000Y-71679845D01*
X90587000Y-72873000D01*
X90607000Y-72873000D01*
X90607000Y-73127000D01*
X90587000Y-73127000D01*
X90587000Y-74320155D01*
X90816890Y-74441476D01*
X90964099Y-74396825D01*
X91226920Y-74271641D01*
X91460269Y-74097588D01*
X91536034Y-74013534D01*
X91560498Y-74094180D01*
X91619463Y-74204494D01*
X91698815Y-74301185D01*
X91795506Y-74380537D01*
X91905820Y-74439502D01*
X92025518Y-74475812D01*
X92150000Y-74488072D01*
X93850000Y-74488072D01*
X93974482Y-74475812D01*
X94094180Y-74439502D01*
X94204494Y-74380537D01*
X94301185Y-74301185D01*
X94380537Y-74204494D01*
X94439502Y-74094180D01*
X94475812Y-73974482D01*
X94488072Y-73850000D01*
X94488072Y-73760000D01*
X98973682Y-73760000D01*
X98984430Y-73785948D01*
X99156773Y-74043877D01*
X99376123Y-74263227D01*
X99446124Y-74310000D01*
X99376123Y-74356773D01*
X99156773Y-74576123D01*
X98993819Y-74820000D01*
X88894802Y-74820000D01*
X88680000Y-74605199D01*
X88680000Y-74278178D01*
X88866632Y-74153475D01*
X89073475Y-73946632D01*
X89195195Y-73764466D01*
X89264822Y-73881355D01*
X89459731Y-74097588D01*
X89693080Y-74271641D01*
X89955901Y-74396825D01*
X90103110Y-74441476D01*
X90333000Y-74320155D01*
X90333000Y-73127000D01*
X90313000Y-73127000D01*
X90313000Y-72873000D01*
X90333000Y-72873000D01*
X90333000Y-71679845D01*
X90103110Y-71558524D01*
X89955901Y-71603175D01*
X89693080Y-71728359D01*
X89459731Y-71902412D01*
X89264822Y-72118645D01*
X89195195Y-72235534D01*
X89073475Y-72053368D01*
X88866632Y-71846525D01*
X88623411Y-71684010D01*
X88353158Y-71572068D01*
X88066260Y-71515000D01*
X87773740Y-71515000D01*
X87486842Y-71572068D01*
X87216589Y-71684010D01*
X86973368Y-71846525D01*
X86766525Y-72053368D01*
X86604010Y-72296589D01*
X86492068Y-72566842D01*
X86435000Y-72853740D01*
X86435000Y-73146260D01*
X86492068Y-73433158D01*
X86604010Y-73703411D01*
X86766525Y-73946632D01*
X86973368Y-74153475D01*
X87160001Y-74278179D01*
X87160001Y-74882668D01*
X87156324Y-74920000D01*
X87160001Y-74957333D01*
X87170998Y-75068986D01*
X87171002Y-75068998D01*
X87214454Y-75212246D01*
X87285026Y-75344276D01*
X87351190Y-75424896D01*
X87380000Y-75460001D01*
X87408998Y-75483799D01*
X88016200Y-76091002D01*
X88039999Y-76120001D01*
X88068997Y-76143799D01*
X88155723Y-76214974D01*
X88248574Y-76264604D01*
X88287753Y-76285546D01*
X88431014Y-76329003D01*
X88542667Y-76340000D01*
X88542677Y-76340000D01*
X88580000Y-76343676D01*
X88617323Y-76340000D01*
X98993819Y-76340000D01*
X99156773Y-76583877D01*
X99376123Y-76803227D01*
X99446124Y-76850000D01*
X99376123Y-76896773D01*
X99156773Y-77116123D01*
X99074001Y-77240000D01*
X94488072Y-77240000D01*
X94488072Y-77150000D01*
X94475812Y-77025518D01*
X94439502Y-76905820D01*
X94380537Y-76795506D01*
X94301185Y-76698815D01*
X94204494Y-76619463D01*
X94094180Y-76560498D01*
X93974482Y-76524188D01*
X93850000Y-76511928D01*
X92150000Y-76511928D01*
X92025518Y-76524188D01*
X91905820Y-76560498D01*
X91795506Y-76619463D01*
X91698815Y-76698815D01*
X91619463Y-76795506D01*
X91560498Y-76905820D01*
X91536034Y-76986466D01*
X91460269Y-76902412D01*
X91226920Y-76728359D01*
X90964099Y-76603175D01*
X90816890Y-76558524D01*
X90587000Y-76679845D01*
X90587000Y-77873000D01*
X90607000Y-77873000D01*
X90607000Y-78127000D01*
X90587000Y-78127000D01*
X90587000Y-79320155D01*
X90816890Y-79441476D01*
X90964099Y-79396825D01*
X91226920Y-79271641D01*
X91460269Y-79097588D01*
X91536034Y-79013534D01*
X91560498Y-79094180D01*
X91619463Y-79204494D01*
X91698815Y-79301185D01*
X91795506Y-79380537D01*
X91905820Y-79439502D01*
X92025518Y-79475812D01*
X92150000Y-79488072D01*
X93850000Y-79488072D01*
X93974482Y-79475812D01*
X94094180Y-79439502D01*
X94204494Y-79380537D01*
X94301185Y-79301185D01*
X94380537Y-79204494D01*
X94439502Y-79094180D01*
X94475812Y-78974482D01*
X94488072Y-78850000D01*
X94488072Y-78760000D01*
X98940545Y-78760000D01*
X98984430Y-78865948D01*
X99156773Y-79123877D01*
X99376123Y-79343227D01*
X99446124Y-79390000D01*
X99376123Y-79436773D01*
X99156773Y-79656123D01*
X98993819Y-79900000D01*
X88974802Y-79900000D01*
X88680000Y-79605199D01*
X88680000Y-79278178D01*
X88866632Y-79153475D01*
X89073475Y-78946632D01*
X89195195Y-78764466D01*
X89264822Y-78881355D01*
X89459731Y-79097588D01*
X89693080Y-79271641D01*
X89955901Y-79396825D01*
X90103110Y-79441476D01*
X90333000Y-79320155D01*
X90333000Y-78127000D01*
X90313000Y-78127000D01*
X90313000Y-77873000D01*
X90333000Y-77873000D01*
X90333000Y-76679845D01*
X90103110Y-76558524D01*
X89955901Y-76603175D01*
X89693080Y-76728359D01*
X89459731Y-76902412D01*
X89264822Y-77118645D01*
X89195195Y-77235534D01*
X89073475Y-77053368D01*
X88866632Y-76846525D01*
X88623411Y-76684010D01*
X88353158Y-76572068D01*
X88066260Y-76515000D01*
X87773740Y-76515000D01*
X87486842Y-76572068D01*
X87216589Y-76684010D01*
X86973368Y-76846525D01*
X86766525Y-77053368D01*
X86604010Y-77296589D01*
X86492068Y-77566842D01*
X86435000Y-77853740D01*
X86435000Y-78146260D01*
X86492068Y-78433158D01*
X86604010Y-78703411D01*
X86766525Y-78946632D01*
X86973368Y-79153475D01*
X87160001Y-79278179D01*
X87160001Y-79882668D01*
X87156324Y-79920000D01*
X87160001Y-79957333D01*
X87170245Y-80061335D01*
X87170998Y-80068985D01*
X87214454Y-80212246D01*
X87285026Y-80344276D01*
X87347172Y-80420000D01*
X87380000Y-80460001D01*
X87408998Y-80483799D01*
X88096201Y-81171002D01*
X88119999Y-81200001D01*
X88148997Y-81223799D01*
X88235723Y-81294974D01*
X88329994Y-81345363D01*
X88367753Y-81365546D01*
X88511014Y-81409003D01*
X88622667Y-81420000D01*
X88622676Y-81420000D01*
X88659999Y-81423676D01*
X88697322Y-81420000D01*
X98993819Y-81420000D01*
X99156773Y-81663877D01*
X99376123Y-81883227D01*
X99446124Y-81930000D01*
X99376123Y-81976773D01*
X99156773Y-82196123D01*
X98984430Y-82454052D01*
X98865986Y-82740000D01*
X94488072Y-82740000D01*
X94488072Y-82650000D01*
X94475812Y-82525518D01*
X94439502Y-82405820D01*
X94380537Y-82295506D01*
X94301185Y-82198815D01*
X94204494Y-82119463D01*
X94094180Y-82060498D01*
X93974482Y-82024188D01*
X93850000Y-82011928D01*
X92150000Y-82011928D01*
X92025518Y-82024188D01*
X91905820Y-82060498D01*
X91795506Y-82119463D01*
X91698815Y-82198815D01*
X91619463Y-82295506D01*
X91560498Y-82405820D01*
X91536034Y-82486466D01*
X91460269Y-82402412D01*
X91226920Y-82228359D01*
X90964099Y-82103175D01*
X90816890Y-82058524D01*
X90587000Y-82179845D01*
X90587000Y-83373000D01*
X90607000Y-83373000D01*
X90607000Y-83627000D01*
X90587000Y-83627000D01*
X90587000Y-83647000D01*
X90333000Y-83647000D01*
X90333000Y-83627000D01*
X90313000Y-83627000D01*
X90313000Y-83373000D01*
X90333000Y-83373000D01*
X90333000Y-82179845D01*
X90103110Y-82058524D01*
X89955901Y-82103175D01*
X89693080Y-82228359D01*
X89459731Y-82402412D01*
X89264822Y-82618645D01*
X89195195Y-82735534D01*
X89073475Y-82553368D01*
X88866632Y-82346525D01*
X88623411Y-82184010D01*
X88353158Y-82072068D01*
X88066260Y-82015000D01*
X87773740Y-82015000D01*
X87486842Y-82072068D01*
X87216589Y-82184010D01*
X86973368Y-82346525D01*
X86766525Y-82553368D01*
X86604010Y-82796589D01*
X86492068Y-83066842D01*
X86435000Y-83353740D01*
X86435000Y-83646260D01*
X86492068Y-83933158D01*
X86604010Y-84203411D01*
X86766525Y-84446632D01*
X86973368Y-84653475D01*
X87160001Y-84778179D01*
X87160001Y-85382668D01*
X87156324Y-85420000D01*
X87170998Y-85568985D01*
X87214454Y-85712246D01*
X87285026Y-85844276D01*
X87326740Y-85895104D01*
X87380000Y-85960001D01*
X87408998Y-85983799D01*
X87676196Y-86250997D01*
X87699999Y-86280001D01*
X87815724Y-86374974D01*
X87947753Y-86445546D01*
X88091014Y-86489003D01*
X88202667Y-86500000D01*
X88202676Y-86500000D01*
X88239999Y-86503676D01*
X88277322Y-86500000D01*
X98993819Y-86500000D01*
X99156773Y-86743877D01*
X99376123Y-86963227D01*
X99634052Y-87135570D01*
X99920648Y-87254282D01*
X100224896Y-87314800D01*
X100535104Y-87314800D01*
X100839352Y-87254282D01*
X101125948Y-87135570D01*
X101383877Y-86963227D01*
X101514628Y-86832476D01*
X107087129Y-86832476D01*
X107175623Y-87090723D01*
X107454976Y-87225597D01*
X107755275Y-87303381D01*
X108064977Y-87321084D01*
X108372184Y-87278027D01*
X108665086Y-87175865D01*
X108824377Y-87090723D01*
X108912871Y-86832476D01*
X108000000Y-85919605D01*
X107087129Y-86832476D01*
X101514628Y-86832476D01*
X101603227Y-86743877D01*
X101775570Y-86485948D01*
X101894282Y-86199352D01*
X101954800Y-85895104D01*
X101954800Y-85804977D01*
X106418916Y-85804977D01*
X106461973Y-86112184D01*
X106564135Y-86405086D01*
X106649277Y-86564377D01*
X106907524Y-86652871D01*
X107820395Y-85740000D01*
X106907524Y-84827129D01*
X106649277Y-84915623D01*
X106514403Y-85194976D01*
X106436619Y-85495275D01*
X106418916Y-85804977D01*
X101954800Y-85804977D01*
X101954800Y-85584896D01*
X101894282Y-85280648D01*
X101775570Y-84994052D01*
X101603227Y-84736123D01*
X101514628Y-84647524D01*
X107087129Y-84647524D01*
X108000000Y-85560395D01*
X108912871Y-84647524D01*
X108824377Y-84389277D01*
X108545024Y-84254403D01*
X108244725Y-84176619D01*
X107935023Y-84158916D01*
X107627816Y-84201973D01*
X107334914Y-84304135D01*
X107175623Y-84389277D01*
X107087129Y-84647524D01*
X101514628Y-84647524D01*
X101383877Y-84516773D01*
X101313876Y-84470000D01*
X101383877Y-84423227D01*
X101603227Y-84203877D01*
X101775570Y-83945948D01*
X101894282Y-83659352D01*
X101954800Y-83355104D01*
X101954800Y-83044896D01*
X101894282Y-82740648D01*
X101775570Y-82454052D01*
X101603227Y-82196123D01*
X101383877Y-81976773D01*
X101313876Y-81930000D01*
X101383877Y-81883227D01*
X101603227Y-81663877D01*
X101775570Y-81405948D01*
X101894282Y-81119352D01*
X101954800Y-80815104D01*
X101954800Y-80504896D01*
X101894282Y-80200648D01*
X101775570Y-79914052D01*
X101603227Y-79656123D01*
X101383877Y-79436773D01*
X101313876Y-79390000D01*
X101383877Y-79343227D01*
X101603227Y-79123877D01*
X101775570Y-78865948D01*
X101894282Y-78579352D01*
X101954800Y-78275104D01*
X101954800Y-77964896D01*
X101894282Y-77660648D01*
X101775570Y-77374052D01*
X101603227Y-77116123D01*
X101383877Y-76896773D01*
X101313876Y-76850000D01*
X101383877Y-76803227D01*
X101603227Y-76583877D01*
X101775570Y-76325948D01*
X101894282Y-76039352D01*
X101954800Y-75735104D01*
X101954800Y-75424896D01*
X101894282Y-75120648D01*
X101775570Y-74834052D01*
X101603227Y-74576123D01*
X101383877Y-74356773D01*
X101313876Y-74310000D01*
X101383877Y-74263227D01*
X101603227Y-74043877D01*
X101775570Y-73785948D01*
X101894282Y-73499352D01*
X101954800Y-73195104D01*
X101954800Y-72884896D01*
X101894282Y-72580648D01*
X101775570Y-72294052D01*
X101603227Y-72036123D01*
X101383877Y-71816773D01*
X101313876Y-71770000D01*
X101383877Y-71723227D01*
X101603227Y-71503877D01*
X101775570Y-71245948D01*
X101894282Y-70959352D01*
X101954800Y-70655104D01*
X101954800Y-70344896D01*
X101894282Y-70040648D01*
X101775570Y-69754052D01*
X101603227Y-69496123D01*
X101383877Y-69276773D01*
X101313876Y-69230000D01*
X101383877Y-69183227D01*
X101603227Y-68963877D01*
X101775570Y-68705948D01*
X101894282Y-68419352D01*
X101954800Y-68115104D01*
X101954800Y-67804896D01*
X101894282Y-67500648D01*
X101775570Y-67214052D01*
X101603227Y-66956123D01*
X101383877Y-66736773D01*
X101247286Y-66645505D01*
X101292871Y-66512476D01*
X100380000Y-65599605D01*
X99467129Y-66512476D01*
X99512714Y-66645505D01*
X99376123Y-66736773D01*
X99156773Y-66956123D01*
X98993819Y-67200000D01*
X94488072Y-67200000D01*
X94488072Y-67150000D01*
X94475812Y-67025518D01*
X94439502Y-66905820D01*
X94380537Y-66795506D01*
X94301185Y-66698815D01*
X94204494Y-66619463D01*
X94094180Y-66560498D01*
X93974482Y-66524188D01*
X93850000Y-66511928D01*
X92150000Y-66511928D01*
X92025518Y-66524188D01*
X91905820Y-66560498D01*
X91795506Y-66619463D01*
X91698815Y-66698815D01*
X91619463Y-66795506D01*
X91560498Y-66905820D01*
X91536034Y-66986466D01*
X91460269Y-66902412D01*
X91226920Y-66728359D01*
X90964099Y-66603175D01*
X90816890Y-66558524D01*
X90587000Y-66679845D01*
X90587000Y-67873000D01*
X90607000Y-67873000D01*
X90607000Y-68127000D01*
X90587000Y-68127000D01*
X90587000Y-69320155D01*
X90816890Y-69441476D01*
X90964099Y-69396825D01*
X91226920Y-69271641D01*
X91460269Y-69097588D01*
X91536034Y-69013534D01*
X91560498Y-69094180D01*
X91619463Y-69204494D01*
X91698815Y-69301185D01*
X91795506Y-69380537D01*
X91905820Y-69439502D01*
X92025518Y-69475812D01*
X92150000Y-69488072D01*
X93850000Y-69488072D01*
X93974482Y-69475812D01*
X94094180Y-69439502D01*
X94204494Y-69380537D01*
X94301185Y-69301185D01*
X94380537Y-69204494D01*
X94439502Y-69094180D01*
X94475812Y-68974482D01*
X94488072Y-68850000D01*
X94488072Y-68720000D01*
X98993819Y-68720000D01*
X99156773Y-68963877D01*
X99376123Y-69183227D01*
X99446124Y-69230000D01*
X99376123Y-69276773D01*
X99156773Y-69496123D01*
X98993819Y-69740000D01*
X89314802Y-69740000D01*
X88783694Y-69208892D01*
X88866632Y-69153475D01*
X89073475Y-68946632D01*
X89195195Y-68764466D01*
X89264822Y-68881355D01*
X89459731Y-69097588D01*
X89693080Y-69271641D01*
X89955901Y-69396825D01*
X90103110Y-69441476D01*
X90333000Y-69320155D01*
X90333000Y-68127000D01*
X90313000Y-68127000D01*
X90313000Y-67873000D01*
X90333000Y-67873000D01*
X90333000Y-66679845D01*
X90103110Y-66558524D01*
X89955901Y-66603175D01*
X89693080Y-66728359D01*
X89459731Y-66902412D01*
X89264822Y-67118645D01*
X89195195Y-67235534D01*
X89073475Y-67053368D01*
X88866632Y-66846525D01*
X88623411Y-66684010D01*
X88353158Y-66572068D01*
X88066260Y-66515000D01*
X87773740Y-66515000D01*
X87486842Y-66572068D01*
X87216589Y-66684010D01*
X86973368Y-66846525D01*
X86766525Y-67053368D01*
X86604010Y-67296589D01*
X86492068Y-67566842D01*
X86435000Y-67853740D01*
X80660000Y-67853740D01*
X80660000Y-65484977D01*
X98798916Y-65484977D01*
X98841973Y-65792184D01*
X98944135Y-66085086D01*
X99029277Y-66244377D01*
X99287524Y-66332871D01*
X100200395Y-65420000D01*
X100559605Y-65420000D01*
X101472476Y-66332871D01*
X101730723Y-66244377D01*
X101865597Y-65965024D01*
X101943381Y-65664725D01*
X101961084Y-65355023D01*
X101918027Y-65047816D01*
X101815865Y-64754914D01*
X101730723Y-64595623D01*
X101472476Y-64507129D01*
X100559605Y-65420000D01*
X100200395Y-65420000D01*
X99287524Y-64507129D01*
X99029277Y-64595623D01*
X98894403Y-64874976D01*
X98816619Y-65175275D01*
X98798916Y-65484977D01*
X80660000Y-65484977D01*
X80660000Y-57644896D01*
X98805200Y-57644896D01*
X98805200Y-57955104D01*
X98865718Y-58259352D01*
X98984430Y-58545948D01*
X99156773Y-58803877D01*
X99376123Y-59023227D01*
X99446124Y-59070000D01*
X99376123Y-59116773D01*
X99156773Y-59336123D01*
X98984430Y-59594052D01*
X98865718Y-59880648D01*
X98805200Y-60184896D01*
X98805200Y-60495104D01*
X98865718Y-60799352D01*
X98984430Y-61085948D01*
X99156773Y-61343877D01*
X99376123Y-61563227D01*
X99446124Y-61610000D01*
X99376123Y-61656773D01*
X99156773Y-61876123D01*
X98984430Y-62134052D01*
X98865718Y-62420648D01*
X98805200Y-62724896D01*
X98805200Y-63035104D01*
X98865718Y-63339352D01*
X98984430Y-63625948D01*
X99156773Y-63883877D01*
X99376123Y-64103227D01*
X99512714Y-64194495D01*
X99467129Y-64327524D01*
X100380000Y-65240395D01*
X101292871Y-64327524D01*
X101247286Y-64194495D01*
X101383877Y-64103227D01*
X101603227Y-63883877D01*
X101775570Y-63625948D01*
X101894282Y-63339352D01*
X101954800Y-63035104D01*
X101954800Y-62724896D01*
X101894282Y-62420648D01*
X101775570Y-62134052D01*
X101603227Y-61876123D01*
X101383877Y-61656773D01*
X101313876Y-61610000D01*
X101383877Y-61563227D01*
X101603227Y-61343877D01*
X101775570Y-61085948D01*
X101894282Y-60799352D01*
X101954800Y-60495104D01*
X101954800Y-60184896D01*
X101894282Y-59880648D01*
X101775570Y-59594052D01*
X101603227Y-59336123D01*
X101383877Y-59116773D01*
X101313876Y-59070000D01*
X101383877Y-59023227D01*
X101603227Y-58803877D01*
X101775570Y-58545948D01*
X101894282Y-58259352D01*
X101954800Y-57955104D01*
X101954800Y-57644896D01*
X101894282Y-57340648D01*
X101775570Y-57054052D01*
X101630024Y-56836228D01*
X101714977Y-56841084D01*
X102022184Y-56798027D01*
X102315086Y-56695865D01*
X102474377Y-56610723D01*
X102562871Y-56352476D01*
X103277129Y-56352476D01*
X103365623Y-56610723D01*
X103644976Y-56745597D01*
X103945275Y-56823381D01*
X104254977Y-56841084D01*
X104562184Y-56798027D01*
X104855086Y-56695865D01*
X105014377Y-56610723D01*
X105102871Y-56352476D01*
X104190000Y-55439605D01*
X103277129Y-56352476D01*
X102562871Y-56352476D01*
X101650000Y-55439605D01*
X101635858Y-55453748D01*
X101456253Y-55274143D01*
X101470395Y-55260000D01*
X101829605Y-55260000D01*
X102742476Y-56172871D01*
X102920000Y-56112039D01*
X103097524Y-56172871D01*
X104010395Y-55260000D01*
X104369605Y-55260000D01*
X105282476Y-56172871D01*
X105415505Y-56127286D01*
X105506773Y-56263877D01*
X105695000Y-56452104D01*
X105695001Y-58179162D01*
X105689994Y-58230000D01*
X105709977Y-58432895D01*
X105769160Y-58627993D01*
X105865266Y-58807797D01*
X105962197Y-58925907D01*
X105994605Y-58965396D01*
X106034092Y-58997802D01*
X106732196Y-59695907D01*
X106764604Y-59735396D01*
X106804092Y-59767803D01*
X106922202Y-59864734D01*
X106973674Y-59892246D01*
X107102007Y-59960841D01*
X107297105Y-60020024D01*
X107449162Y-60035000D01*
X107449171Y-60035000D01*
X107499999Y-60040006D01*
X107550827Y-60035000D01*
X112071290Y-60035000D01*
X112665000Y-60628711D01*
X112665001Y-63449162D01*
X112659994Y-63500000D01*
X112679977Y-63702895D01*
X112739160Y-63897993D01*
X112835266Y-64077797D01*
X112932197Y-64195907D01*
X112964605Y-64235396D01*
X113004092Y-64267802D01*
X114045200Y-65308911D01*
X114045200Y-65575104D01*
X114092799Y-65814401D01*
X113922227Y-65559123D01*
X113702877Y-65339773D01*
X113444948Y-65167430D01*
X113158352Y-65048718D01*
X112854104Y-64988200D01*
X112543896Y-64988200D01*
X112239648Y-65048718D01*
X111953052Y-65167430D01*
X111695123Y-65339773D01*
X111475773Y-65559123D01*
X111303430Y-65817052D01*
X111260000Y-65921901D01*
X111260000Y-63478701D01*
X111303937Y-63434764D01*
X111417205Y-63265246D01*
X111495226Y-63076888D01*
X111535000Y-62876929D01*
X111535000Y-62673051D01*
X111495226Y-62473092D01*
X111417205Y-62284734D01*
X111303937Y-62115216D01*
X111159774Y-61971053D01*
X110990256Y-61857785D01*
X110801898Y-61779764D01*
X110601939Y-61739990D01*
X110398061Y-61739990D01*
X110198102Y-61779764D01*
X110009744Y-61857785D01*
X109840226Y-61971053D01*
X109696063Y-62115216D01*
X109582795Y-62284734D01*
X109504774Y-62473092D01*
X109465000Y-62673051D01*
X109465000Y-62876929D01*
X109504774Y-63076888D01*
X109582795Y-63265246D01*
X109696063Y-63434764D01*
X109740001Y-63478702D01*
X109740000Y-68462677D01*
X109736324Y-68500000D01*
X109740000Y-68537322D01*
X109740000Y-68537332D01*
X109750997Y-68648985D01*
X109785788Y-68763676D01*
X109794454Y-68792246D01*
X109865026Y-68924276D01*
X109884411Y-68947896D01*
X109959999Y-69040001D01*
X109989002Y-69063803D01*
X110539200Y-69614002D01*
X110562999Y-69643001D01*
X110678724Y-69737974D01*
X110810753Y-69808546D01*
X110954014Y-69852003D01*
X111065667Y-69863000D01*
X111065675Y-69863000D01*
X111103000Y-69866676D01*
X111140325Y-69863000D01*
X111312819Y-69863000D01*
X111475773Y-70106877D01*
X111695123Y-70326227D01*
X111953052Y-70498570D01*
X112239648Y-70617282D01*
X112543896Y-70677800D01*
X112854104Y-70677800D01*
X113158352Y-70617282D01*
X113444948Y-70498570D01*
X113702877Y-70326227D01*
X113922227Y-70106877D01*
X114094570Y-69848948D01*
X114213282Y-69562352D01*
X114273800Y-69258104D01*
X114273800Y-68947896D01*
X114226201Y-68708599D01*
X114396773Y-68963877D01*
X114616123Y-69183227D01*
X114686124Y-69230000D01*
X114616123Y-69276773D01*
X114396773Y-69496123D01*
X114224430Y-69754052D01*
X114105718Y-70040648D01*
X114045200Y-70344896D01*
X114045200Y-70655104D01*
X114105718Y-70959352D01*
X114224430Y-71245948D01*
X114396773Y-71503877D01*
X114616123Y-71723227D01*
X114686124Y-71770000D01*
X114616123Y-71816773D01*
X114396773Y-72036123D01*
X114224430Y-72294052D01*
X114105718Y-72580648D01*
X114045200Y-72884896D01*
X114045200Y-73195104D01*
X114105718Y-73499352D01*
X114224430Y-73785948D01*
X114396773Y-74043877D01*
X114616123Y-74263227D01*
X114686124Y-74310000D01*
X114616123Y-74356773D01*
X114396773Y-74576123D01*
X114224430Y-74834052D01*
X114105718Y-75120648D01*
X114045200Y-75424896D01*
X114045200Y-75735104D01*
X114105718Y-76039352D01*
X114224430Y-76325948D01*
X114396773Y-76583877D01*
X114616123Y-76803227D01*
X114686124Y-76850000D01*
X114616123Y-76896773D01*
X114396773Y-77116123D01*
X114224430Y-77374052D01*
X114105718Y-77660648D01*
X114045200Y-77964896D01*
X114045200Y-78275104D01*
X114105718Y-78579352D01*
X114224430Y-78865948D01*
X114396773Y-79123877D01*
X114616123Y-79343227D01*
X114686124Y-79390000D01*
X114616123Y-79436773D01*
X114396773Y-79656123D01*
X114224430Y-79914052D01*
X114105718Y-80200648D01*
X114045200Y-80504896D01*
X114045200Y-80815104D01*
X114105718Y-81119352D01*
X114224430Y-81405948D01*
X114396773Y-81663877D01*
X114616123Y-81883227D01*
X114686124Y-81930000D01*
X114616123Y-81976773D01*
X114396773Y-82196123D01*
X114224430Y-82454052D01*
X114105718Y-82740648D01*
X114045200Y-83044896D01*
X114045200Y-83355104D01*
X114105718Y-83659352D01*
X114224430Y-83945948D01*
X114396773Y-84203877D01*
X114616123Y-84423227D01*
X114686124Y-84470000D01*
X114616123Y-84516773D01*
X114396773Y-84736123D01*
X114350000Y-84806124D01*
X114303227Y-84736123D01*
X114083877Y-84516773D01*
X113825948Y-84344430D01*
X113539352Y-84225718D01*
X113235104Y-84165200D01*
X112924896Y-84165200D01*
X112620648Y-84225718D01*
X112334052Y-84344430D01*
X112076123Y-84516773D01*
X111856773Y-84736123D01*
X111810000Y-84806124D01*
X111763227Y-84736123D01*
X111543877Y-84516773D01*
X111285948Y-84344430D01*
X110999352Y-84225718D01*
X110695104Y-84165200D01*
X110384896Y-84165200D01*
X110080648Y-84225718D01*
X109794052Y-84344430D01*
X109536123Y-84516773D01*
X109316773Y-84736123D01*
X109225505Y-84872714D01*
X109092476Y-84827129D01*
X108179605Y-85740000D01*
X109092476Y-86652871D01*
X109225505Y-86607286D01*
X109316773Y-86743877D01*
X109536123Y-86963227D01*
X109794052Y-87135570D01*
X110080648Y-87254282D01*
X110384896Y-87314800D01*
X110695104Y-87314800D01*
X110999352Y-87254282D01*
X111285948Y-87135570D01*
X111543877Y-86963227D01*
X111763227Y-86743877D01*
X111810000Y-86673876D01*
X111856773Y-86743877D01*
X112076123Y-86963227D01*
X112334052Y-87135570D01*
X112620648Y-87254282D01*
X112924896Y-87314800D01*
X113235104Y-87314800D01*
X113539352Y-87254282D01*
X113825948Y-87135570D01*
X114083877Y-86963227D01*
X114303227Y-86743877D01*
X114350000Y-86673876D01*
X114396773Y-86743877D01*
X114616123Y-86963227D01*
X114874052Y-87135570D01*
X115160648Y-87254282D01*
X115464896Y-87314800D01*
X115775104Y-87314800D01*
X116079352Y-87254282D01*
X116365948Y-87135570D01*
X116623877Y-86963227D01*
X116843227Y-86743877D01*
X117006181Y-86500000D01*
X131722678Y-86500000D01*
X131760000Y-86503676D01*
X131797322Y-86500000D01*
X131797333Y-86500000D01*
X131908986Y-86489003D01*
X132052247Y-86445546D01*
X132184276Y-86374974D01*
X132300001Y-86280001D01*
X132323803Y-86250998D01*
X133091004Y-85483798D01*
X133120001Y-85460001D01*
X133191401Y-85373000D01*
X133214974Y-85344277D01*
X133285546Y-85212247D01*
X133290785Y-85194976D01*
X133329003Y-85068986D01*
X133340000Y-84957333D01*
X133340000Y-84957324D01*
X133343676Y-84920001D01*
X133340000Y-84882678D01*
X133340000Y-84778178D01*
X133526632Y-84653475D01*
X133733475Y-84446632D01*
X133895990Y-84203411D01*
X134007932Y-83933158D01*
X134065000Y-83646260D01*
X134065000Y-83353740D01*
X134007932Y-83066842D01*
X133895990Y-82796589D01*
X133733475Y-82553368D01*
X133526632Y-82346525D01*
X133283411Y-82184010D01*
X133013158Y-82072068D01*
X132726260Y-82015000D01*
X132433740Y-82015000D01*
X132146842Y-82072068D01*
X131876589Y-82184010D01*
X131633368Y-82346525D01*
X131426525Y-82553368D01*
X131304805Y-82735534D01*
X131235178Y-82618645D01*
X131040269Y-82402412D01*
X130806920Y-82228359D01*
X130544099Y-82103175D01*
X130396890Y-82058524D01*
X130167000Y-82179845D01*
X130167000Y-83373000D01*
X130187000Y-83373000D01*
X130187000Y-83627000D01*
X130167000Y-83627000D01*
X130167000Y-83647000D01*
X129913000Y-83647000D01*
X129913000Y-83627000D01*
X129893000Y-83627000D01*
X129893000Y-83373000D01*
X129913000Y-83373000D01*
X129913000Y-82179845D01*
X129683110Y-82058524D01*
X129535901Y-82103175D01*
X129273080Y-82228359D01*
X129039731Y-82402412D01*
X128963966Y-82486466D01*
X128939502Y-82405820D01*
X128880537Y-82295506D01*
X128801185Y-82198815D01*
X128704494Y-82119463D01*
X128594180Y-82060498D01*
X128474482Y-82024188D01*
X128350000Y-82011928D01*
X126650000Y-82011928D01*
X126525518Y-82024188D01*
X126405820Y-82060498D01*
X126295506Y-82119463D01*
X126198815Y-82198815D01*
X126119463Y-82295506D01*
X126060498Y-82405820D01*
X126024188Y-82525518D01*
X126011928Y-82650000D01*
X126011928Y-82740000D01*
X117134014Y-82740000D01*
X117015570Y-82454052D01*
X116843227Y-82196123D01*
X116623877Y-81976773D01*
X116553876Y-81930000D01*
X116623877Y-81883227D01*
X116843227Y-81663877D01*
X117006181Y-81420000D01*
X131302678Y-81420000D01*
X131340000Y-81423676D01*
X131377322Y-81420000D01*
X131377333Y-81420000D01*
X131488986Y-81409003D01*
X131632247Y-81365546D01*
X131764276Y-81294974D01*
X131880001Y-81200001D01*
X131896415Y-81180000D01*
X136681822Y-81180000D01*
X136806525Y-81366632D01*
X137013368Y-81573475D01*
X137187760Y-81690000D01*
X137013368Y-81806525D01*
X136806525Y-82013368D01*
X136644010Y-82256589D01*
X136532068Y-82526842D01*
X136475000Y-82813740D01*
X136475000Y-83106260D01*
X136532068Y-83393158D01*
X136644010Y-83663411D01*
X136806525Y-83906632D01*
X137013368Y-84113475D01*
X137187760Y-84230000D01*
X137013368Y-84346525D01*
X136806525Y-84553368D01*
X136644010Y-84796589D01*
X136532068Y-85066842D01*
X136475000Y-85353740D01*
X136475000Y-85646260D01*
X136532068Y-85933158D01*
X136644010Y-86203411D01*
X136806525Y-86446632D01*
X137013368Y-86653475D01*
X137256589Y-86815990D01*
X137526842Y-86927932D01*
X137813740Y-86985000D01*
X138106260Y-86985000D01*
X138393158Y-86927932D01*
X138663411Y-86815990D01*
X138906632Y-86653475D01*
X139038487Y-86521620D01*
X139060498Y-86594180D01*
X139119463Y-86704494D01*
X139198815Y-86801185D01*
X139295506Y-86880537D01*
X139405820Y-86939502D01*
X139525518Y-86975812D01*
X139650000Y-86988072D01*
X140214250Y-86985000D01*
X140373000Y-86826250D01*
X140373000Y-85627000D01*
X140627000Y-85627000D01*
X140627000Y-86826250D01*
X140785750Y-86985000D01*
X141350000Y-86988072D01*
X141474482Y-86975812D01*
X141594180Y-86939502D01*
X141704494Y-86880537D01*
X141801185Y-86801185D01*
X141880537Y-86704494D01*
X141939502Y-86594180D01*
X141975812Y-86474482D01*
X141988072Y-86350000D01*
X141985000Y-85785750D01*
X141826250Y-85627000D01*
X140627000Y-85627000D01*
X140373000Y-85627000D01*
X140353000Y-85627000D01*
X140353000Y-85373000D01*
X140373000Y-85373000D01*
X140373000Y-85353000D01*
X140627000Y-85353000D01*
X140627000Y-85373000D01*
X141826250Y-85373000D01*
X141985000Y-85214250D01*
X141988072Y-84650000D01*
X141975812Y-84525518D01*
X141939502Y-84405820D01*
X141880537Y-84295506D01*
X141801185Y-84198815D01*
X141704494Y-84119463D01*
X141594180Y-84060498D01*
X141521620Y-84038487D01*
X141653475Y-83906632D01*
X141815990Y-83663411D01*
X141927932Y-83393158D01*
X141985000Y-83106260D01*
X141985000Y-82813740D01*
X141927932Y-82526842D01*
X141815990Y-82256589D01*
X141653475Y-82013368D01*
X141446632Y-81806525D01*
X141272240Y-81690000D01*
X141446632Y-81573475D01*
X141561885Y-81458222D01*
X141580000Y-81460006D01*
X141630828Y-81455000D01*
X141630838Y-81455000D01*
X141782895Y-81440024D01*
X141977993Y-81380841D01*
X142157797Y-81284734D01*
X142315396Y-81155396D01*
X142347807Y-81115903D01*
X143195908Y-80267803D01*
X143235396Y-80235396D01*
X143240001Y-80229785D01*
X143240001Y-83462667D01*
X143236324Y-83500000D01*
X143240001Y-83537333D01*
X143250998Y-83648986D01*
X143255374Y-83663411D01*
X143294454Y-83792246D01*
X143365026Y-83924276D01*
X143390914Y-83955820D01*
X143460000Y-84040001D01*
X143488998Y-84063799D01*
X144936201Y-85511003D01*
X144959999Y-85540001D01*
X145075724Y-85634974D01*
X145207753Y-85705546D01*
X145351014Y-85749003D01*
X145462667Y-85760000D01*
X145462676Y-85760000D01*
X145499999Y-85763676D01*
X145537322Y-85760000D01*
X146041957Y-85760000D01*
X146145363Y-85914759D01*
X146345241Y-86114637D01*
X146580273Y-86271680D01*
X146841426Y-86379853D01*
X147118665Y-86435000D01*
X147401335Y-86435000D01*
X147678574Y-86379853D01*
X147939727Y-86271680D01*
X148174759Y-86114637D01*
X148374637Y-85914759D01*
X148531680Y-85679727D01*
X148639853Y-85418574D01*
X148695000Y-85141335D01*
X148695000Y-84858665D01*
X148639853Y-84581426D01*
X148531680Y-84320273D01*
X148374637Y-84085241D01*
X148174759Y-83885363D01*
X147939727Y-83728320D01*
X147929135Y-83723933D01*
X148115131Y-83612385D01*
X148323519Y-83423414D01*
X148491037Y-83197420D01*
X148611246Y-82943087D01*
X148651904Y-82809039D01*
X148529915Y-82587000D01*
X147387000Y-82587000D01*
X147387000Y-82607000D01*
X147133000Y-82607000D01*
X147133000Y-82587000D01*
X145990085Y-82587000D01*
X145868096Y-82809039D01*
X145908754Y-82943087D01*
X146028963Y-83197420D01*
X146196481Y-83423414D01*
X146404869Y-83612385D01*
X146590865Y-83723933D01*
X146580273Y-83728320D01*
X146345241Y-83885363D01*
X146145363Y-84085241D01*
X146041957Y-84240000D01*
X145814802Y-84240000D01*
X144760000Y-83185199D01*
X144760000Y-60537333D01*
X144763677Y-60500000D01*
X144749003Y-60351014D01*
X144705546Y-60207753D01*
X144634974Y-60075724D01*
X144563799Y-59988997D01*
X144540001Y-59959999D01*
X144511004Y-59936202D01*
X141863804Y-57289003D01*
X141840001Y-57259999D01*
X141724276Y-57165026D01*
X141592247Y-57094454D01*
X141448986Y-57050997D01*
X141337333Y-57040000D01*
X141337322Y-57040000D01*
X141300000Y-57036324D01*
X141262678Y-57040000D01*
X117006181Y-57040000D01*
X116843227Y-56796123D01*
X116623877Y-56576773D01*
X116365948Y-56404430D01*
X116079352Y-56285718D01*
X115775104Y-56225200D01*
X115599070Y-56225200D01*
X115745570Y-56005948D01*
X115864282Y-55719352D01*
X115924800Y-55415104D01*
X115924800Y-55104896D01*
X115864282Y-54800648D01*
X115745570Y-54514052D01*
X115573227Y-54256123D01*
X115353877Y-54036773D01*
X115095948Y-53864430D01*
X114809352Y-53745718D01*
X114505104Y-53685200D01*
X114194896Y-53685200D01*
X113890648Y-53745718D01*
X113604052Y-53864430D01*
X113346123Y-54036773D01*
X113126773Y-54256123D01*
X113080000Y-54326124D01*
X113033227Y-54256123D01*
X112813877Y-54036773D01*
X112555948Y-53864430D01*
X112269352Y-53745718D01*
X111965104Y-53685200D01*
X111654896Y-53685200D01*
X111350648Y-53745718D01*
X111064052Y-53864430D01*
X110806123Y-54036773D01*
X110586773Y-54256123D01*
X110540000Y-54326124D01*
X110493227Y-54256123D01*
X110273877Y-54036773D01*
X110015948Y-53864430D01*
X109729352Y-53745718D01*
X109425104Y-53685200D01*
X109114896Y-53685200D01*
X108810648Y-53745718D01*
X108524052Y-53864430D01*
X108266123Y-54036773D01*
X108046773Y-54256123D01*
X108000000Y-54326124D01*
X107953227Y-54256123D01*
X107733877Y-54036773D01*
X107475948Y-53864430D01*
X107189352Y-53745718D01*
X106885104Y-53685200D01*
X106574896Y-53685200D01*
X106270648Y-53745718D01*
X105984052Y-53864430D01*
X105726123Y-54036773D01*
X105506773Y-54256123D01*
X105415505Y-54392714D01*
X105282476Y-54347129D01*
X104369605Y-55260000D01*
X104010395Y-55260000D01*
X103097524Y-54347129D01*
X102920000Y-54407961D01*
X102742476Y-54347129D01*
X101829605Y-55260000D01*
X101470395Y-55260000D01*
X100557524Y-54347129D01*
X100299277Y-54435623D01*
X100164403Y-54714976D01*
X100086619Y-55015275D01*
X100068916Y-55324977D01*
X100111973Y-55632184D01*
X100214135Y-55925086D01*
X100299277Y-56084377D01*
X100557522Y-56172870D01*
X100505192Y-56225200D01*
X100224896Y-56225200D01*
X99920648Y-56285718D01*
X99634052Y-56404430D01*
X99376123Y-56576773D01*
X99156773Y-56796123D01*
X98984430Y-57054052D01*
X98865718Y-57340648D01*
X98805200Y-57644896D01*
X80660000Y-57644896D01*
X80660000Y-54167524D01*
X100737129Y-54167524D01*
X101650000Y-55080395D01*
X102562871Y-54167524D01*
X103277129Y-54167524D01*
X104190000Y-55080395D01*
X105102871Y-54167524D01*
X105014377Y-53909277D01*
X104735024Y-53774403D01*
X104434725Y-53696619D01*
X104125023Y-53678916D01*
X103817816Y-53721973D01*
X103524914Y-53824135D01*
X103365623Y-53909277D01*
X103277129Y-54167524D01*
X102562871Y-54167524D01*
X102474377Y-53909277D01*
X102195024Y-53774403D01*
X101894725Y-53696619D01*
X101585023Y-53678916D01*
X101277816Y-53721973D01*
X100984914Y-53824135D01*
X100825623Y-53909277D01*
X100737129Y-54167524D01*
X80660000Y-54167524D01*
X80660000Y-45350000D01*
X103011928Y-45350000D01*
X103024188Y-45474482D01*
X103060498Y-45594180D01*
X103119463Y-45704494D01*
X103198815Y-45801185D01*
X103295506Y-45880537D01*
X103405820Y-45939502D01*
X103525518Y-45975812D01*
X103650000Y-45988072D01*
X104214250Y-45985000D01*
X104373000Y-45826250D01*
X104373000Y-44627000D01*
X103173750Y-44627000D01*
X103015000Y-44785750D01*
X103011928Y-45350000D01*
X80660000Y-45350000D01*
X80660000Y-43650000D01*
X103011928Y-43650000D01*
X103015000Y-44214250D01*
X103173750Y-44373000D01*
X104373000Y-44373000D01*
X104373000Y-43173750D01*
X104627000Y-43173750D01*
X104627000Y-44373000D01*
X104647000Y-44373000D01*
X104647000Y-44627000D01*
X104627000Y-44627000D01*
X104627000Y-45826250D01*
X104785750Y-45985000D01*
X105350000Y-45988072D01*
X105474482Y-45975812D01*
X105594180Y-45939502D01*
X105704494Y-45880537D01*
X105801185Y-45801185D01*
X105880537Y-45704494D01*
X105939502Y-45594180D01*
X105961513Y-45521620D01*
X106093368Y-45653475D01*
X106336589Y-45815990D01*
X106606842Y-45927932D01*
X106893740Y-45985000D01*
X107186260Y-45985000D01*
X107473158Y-45927932D01*
X107743411Y-45815990D01*
X107986632Y-45653475D01*
X108193475Y-45446632D01*
X108310000Y-45272240D01*
X108426525Y-45446632D01*
X108633368Y-45653475D01*
X108820000Y-45778179D01*
X108820000Y-46542677D01*
X108816324Y-46580000D01*
X108820000Y-46617322D01*
X108820000Y-46617332D01*
X108830997Y-46728985D01*
X108864741Y-46840226D01*
X108874454Y-46872246D01*
X108945026Y-47004276D01*
X108949514Y-47009744D01*
X109039999Y-47120001D01*
X109069002Y-47143803D01*
X109936205Y-48011008D01*
X109959999Y-48040001D01*
X109988992Y-48063795D01*
X109988996Y-48063799D01*
X110059685Y-48121811D01*
X110075724Y-48134974D01*
X110207753Y-48205546D01*
X110351014Y-48249003D01*
X110462667Y-48260000D01*
X110462676Y-48260000D01*
X110499999Y-48263676D01*
X110537322Y-48260000D01*
X112796289Y-48260000D01*
X112840226Y-48303937D01*
X113009744Y-48417205D01*
X113198102Y-48495226D01*
X113398061Y-48535000D01*
X113601939Y-48535000D01*
X113801898Y-48495226D01*
X113990256Y-48417205D01*
X114159774Y-48303937D01*
X114303937Y-48159774D01*
X114417205Y-47990256D01*
X114495226Y-47801898D01*
X114535000Y-47601939D01*
X114535000Y-47398061D01*
X114495226Y-47198102D01*
X114417205Y-47009744D01*
X114303937Y-46840226D01*
X114159774Y-46696063D01*
X113990256Y-46582795D01*
X113801898Y-46504774D01*
X113601939Y-46465000D01*
X113398061Y-46465000D01*
X113198102Y-46504774D01*
X113009744Y-46582795D01*
X112840226Y-46696063D01*
X112796289Y-46740000D01*
X110814802Y-46740000D01*
X110340000Y-46265198D01*
X110340000Y-45778178D01*
X110526632Y-45653475D01*
X110733475Y-45446632D01*
X110850000Y-45272240D01*
X110966525Y-45446632D01*
X111173368Y-45653475D01*
X111416589Y-45815990D01*
X111686842Y-45927932D01*
X111973740Y-45985000D01*
X112266260Y-45985000D01*
X112553158Y-45927932D01*
X112823411Y-45815990D01*
X113066632Y-45653475D01*
X113273475Y-45446632D01*
X113390000Y-45272240D01*
X113506525Y-45446632D01*
X113713368Y-45653475D01*
X113956589Y-45815990D01*
X114226842Y-45927932D01*
X114513740Y-45985000D01*
X114806260Y-45985000D01*
X115093158Y-45927932D01*
X115363411Y-45815990D01*
X115606632Y-45653475D01*
X115725107Y-45535000D01*
X116134893Y-45535000D01*
X116253368Y-45653475D01*
X116496589Y-45815990D01*
X116766842Y-45927932D01*
X117053740Y-45985000D01*
X117346260Y-45985000D01*
X117633158Y-45927932D01*
X117903411Y-45815990D01*
X118146632Y-45653475D01*
X118265107Y-45535000D01*
X141465001Y-45535000D01*
X141465000Y-49949172D01*
X141459994Y-50000000D01*
X141465000Y-50050828D01*
X141465000Y-50050837D01*
X141479976Y-50202894D01*
X141539159Y-50397992D01*
X141635266Y-50577797D01*
X141764604Y-50735396D01*
X141804097Y-50767807D01*
X143712197Y-52675908D01*
X143744604Y-52715396D01*
X143784092Y-52747803D01*
X143902202Y-52844734D01*
X143995793Y-52894759D01*
X144082007Y-52940841D01*
X144277105Y-53000024D01*
X144429162Y-53015000D01*
X144429165Y-53015000D01*
X144480000Y-53020007D01*
X144530835Y-53015000D01*
X146265604Y-53015000D01*
X146345241Y-53094637D01*
X146577759Y-53250000D01*
X146345241Y-53405363D01*
X146145363Y-53605241D01*
X145988320Y-53840273D01*
X145880147Y-54101426D01*
X145825000Y-54378665D01*
X145825000Y-54661335D01*
X145880147Y-54938574D01*
X145988320Y-55199727D01*
X146145363Y-55434759D01*
X146345241Y-55634637D01*
X146577759Y-55790000D01*
X146345241Y-55945363D01*
X146145363Y-56145241D01*
X145988320Y-56380273D01*
X145880147Y-56641426D01*
X145825000Y-56918665D01*
X145825000Y-57201335D01*
X145880147Y-57478574D01*
X145988320Y-57739727D01*
X146145363Y-57974759D01*
X146345241Y-58174637D01*
X146577759Y-58330000D01*
X146345241Y-58485363D01*
X146145363Y-58685241D01*
X145988320Y-58920273D01*
X145880147Y-59181426D01*
X145825000Y-59458665D01*
X145825000Y-59741335D01*
X145880147Y-60018574D01*
X145988320Y-60279727D01*
X146145363Y-60514759D01*
X146345241Y-60714637D01*
X146577759Y-60870000D01*
X146345241Y-61025363D01*
X146145363Y-61225241D01*
X145988320Y-61460273D01*
X145880147Y-61721426D01*
X145825000Y-61998665D01*
X145825000Y-62281335D01*
X145880147Y-62558574D01*
X145988320Y-62819727D01*
X146145363Y-63054759D01*
X146345241Y-63254637D01*
X146577759Y-63410000D01*
X146345241Y-63565363D01*
X146145363Y-63765241D01*
X145988320Y-64000273D01*
X145880147Y-64261426D01*
X145825000Y-64538665D01*
X145825000Y-64821335D01*
X145880147Y-65098574D01*
X145988320Y-65359727D01*
X146145363Y-65594759D01*
X146345241Y-65794637D01*
X146577759Y-65950000D01*
X146345241Y-66105363D01*
X146145363Y-66305241D01*
X145988320Y-66540273D01*
X145880147Y-66801426D01*
X145825000Y-67078665D01*
X145825000Y-67361335D01*
X145880147Y-67638574D01*
X145988320Y-67899727D01*
X146145363Y-68134759D01*
X146345241Y-68334637D01*
X146577759Y-68490000D01*
X146345241Y-68645363D01*
X146145363Y-68845241D01*
X145988320Y-69080273D01*
X145880147Y-69341426D01*
X145825000Y-69618665D01*
X145825000Y-69901335D01*
X145880147Y-70178574D01*
X145988320Y-70439727D01*
X146145363Y-70674759D01*
X146345241Y-70874637D01*
X146577759Y-71030000D01*
X146345241Y-71185363D01*
X146145363Y-71385241D01*
X145988320Y-71620273D01*
X145880147Y-71881426D01*
X145825000Y-72158665D01*
X145825000Y-72441335D01*
X145880147Y-72718574D01*
X145988320Y-72979727D01*
X146145363Y-73214759D01*
X146345241Y-73414637D01*
X146577759Y-73570000D01*
X146345241Y-73725363D01*
X146145363Y-73925241D01*
X145988320Y-74160273D01*
X145880147Y-74421426D01*
X145825000Y-74698665D01*
X145825000Y-74981335D01*
X145880147Y-75258574D01*
X145988320Y-75519727D01*
X146145363Y-75754759D01*
X146345241Y-75954637D01*
X146577759Y-76110000D01*
X146345241Y-76265363D01*
X146145363Y-76465241D01*
X145988320Y-76700273D01*
X145880147Y-76961426D01*
X145825000Y-77238665D01*
X145825000Y-77521335D01*
X145880147Y-77798574D01*
X145988320Y-78059727D01*
X146145363Y-78294759D01*
X146345241Y-78494637D01*
X146577759Y-78650000D01*
X146345241Y-78805363D01*
X146145363Y-79005241D01*
X145988320Y-79240273D01*
X145880147Y-79501426D01*
X145825000Y-79778665D01*
X145825000Y-80061335D01*
X145880147Y-80338574D01*
X145988320Y-80599727D01*
X146145363Y-80834759D01*
X146345241Y-81034637D01*
X146580273Y-81191680D01*
X146590865Y-81196067D01*
X146404869Y-81307615D01*
X146196481Y-81496586D01*
X146028963Y-81722580D01*
X145908754Y-81976913D01*
X145868096Y-82110961D01*
X145990085Y-82333000D01*
X147133000Y-82333000D01*
X147133000Y-82313000D01*
X147387000Y-82313000D01*
X147387000Y-82333000D01*
X148529915Y-82333000D01*
X148651904Y-82110961D01*
X148611246Y-81976913D01*
X148491037Y-81722580D01*
X148323519Y-81496586D01*
X148115131Y-81307615D01*
X147929135Y-81196067D01*
X147939727Y-81191680D01*
X148174759Y-81034637D01*
X148374637Y-80834759D01*
X148531680Y-80599727D01*
X148639853Y-80338574D01*
X148695000Y-80061335D01*
X148695000Y-79778665D01*
X148639853Y-79501426D01*
X148531680Y-79240273D01*
X148374637Y-79005241D01*
X148174759Y-78805363D01*
X147942241Y-78650000D01*
X148174759Y-78494637D01*
X148254396Y-78415000D01*
X152951290Y-78415000D01*
X153965001Y-79428712D01*
X153965000Y-83949172D01*
X153959994Y-84000000D01*
X153965000Y-84050828D01*
X153965000Y-84050837D01*
X153979976Y-84202894D01*
X154039159Y-84397992D01*
X154135266Y-84577797D01*
X154264604Y-84735396D01*
X154304097Y-84767807D01*
X158232197Y-88695908D01*
X158264604Y-88735396D01*
X158304092Y-88767803D01*
X158422202Y-88864734D01*
X158518309Y-88916104D01*
X158602007Y-88960841D01*
X158797105Y-89020024D01*
X158949162Y-89035000D01*
X158949171Y-89035000D01*
X158999999Y-89040006D01*
X159050827Y-89035000D01*
X165949172Y-89035000D01*
X166000000Y-89040006D01*
X166050828Y-89035000D01*
X166050838Y-89035000D01*
X166202895Y-89020024D01*
X166397993Y-88960841D01*
X166577797Y-88864734D01*
X166735396Y-88735396D01*
X166767807Y-88695903D01*
X169195908Y-86267803D01*
X169235396Y-86235396D01*
X169277841Y-86183677D01*
X169364734Y-86077798D01*
X169460840Y-85897994D01*
X169460841Y-85897993D01*
X169520024Y-85702895D01*
X169535000Y-85550838D01*
X169535000Y-85550836D01*
X169540007Y-85500000D01*
X169535000Y-85449165D01*
X169535000Y-65929527D01*
X169564850Y-65920472D01*
X169718386Y-65838405D01*
X169852962Y-65727962D01*
X169963405Y-65593386D01*
X170045472Y-65439850D01*
X170096008Y-65273254D01*
X170113072Y-65100000D01*
X170113072Y-63900000D01*
X170096008Y-63726746D01*
X170045472Y-63560150D01*
X169963405Y-63406614D01*
X169852962Y-63272038D01*
X169718386Y-63161595D01*
X169616663Y-63107223D01*
X169680134Y-63055134D01*
X169865706Y-62829014D01*
X170003599Y-62571034D01*
X170088513Y-62291111D01*
X170117185Y-62000000D01*
X170088513Y-61708889D01*
X170003599Y-61428966D01*
X169865706Y-61170986D01*
X169680134Y-60944866D01*
X169454014Y-60759294D01*
X169436626Y-60750000D01*
X169454014Y-60740706D01*
X169680134Y-60555134D01*
X169865706Y-60329014D01*
X170003599Y-60071034D01*
X170088513Y-59791111D01*
X170117185Y-59500000D01*
X170088513Y-59208889D01*
X170003599Y-58928966D01*
X169865706Y-58670986D01*
X169680134Y-58444866D01*
X169454014Y-58259294D01*
X169428278Y-58245538D01*
X169634429Y-58089049D01*
X169827496Y-57871193D01*
X169974352Y-57619858D01*
X170066476Y-57356890D01*
X169945155Y-57127000D01*
X168627000Y-57127000D01*
X168627000Y-57147000D01*
X168373000Y-57147000D01*
X168373000Y-57127000D01*
X167054845Y-57127000D01*
X166933524Y-57356890D01*
X167025648Y-57619858D01*
X167172504Y-57871193D01*
X167365571Y-58089049D01*
X167571722Y-58245538D01*
X167545986Y-58259294D01*
X167319866Y-58444866D01*
X167134294Y-58670986D01*
X167043954Y-58840000D01*
X163718043Y-58840000D01*
X163614637Y-58685241D01*
X163414759Y-58485363D01*
X163182241Y-58330000D01*
X163414759Y-58174637D01*
X163614637Y-57974759D01*
X163771680Y-57739727D01*
X163879853Y-57478574D01*
X163935000Y-57201335D01*
X163935000Y-56918665D01*
X163880188Y-56643110D01*
X166933524Y-56643110D01*
X167054845Y-56873000D01*
X168373000Y-56873000D01*
X168373000Y-55673835D01*
X168627000Y-55673835D01*
X168627000Y-56873000D01*
X169945155Y-56873000D01*
X170066476Y-56643110D01*
X169974352Y-56380142D01*
X169827496Y-56128807D01*
X169634429Y-55910951D01*
X169402570Y-55734947D01*
X169140830Y-55607558D01*
X168859267Y-55533680D01*
X168627000Y-55673835D01*
X168373000Y-55673835D01*
X168140733Y-55533680D01*
X167859170Y-55607558D01*
X167597430Y-55734947D01*
X167365571Y-55910951D01*
X167172504Y-56128807D01*
X167025648Y-56380142D01*
X166933524Y-56643110D01*
X163880188Y-56643110D01*
X163879853Y-56641426D01*
X163771680Y-56380273D01*
X163614637Y-56145241D01*
X163414759Y-55945363D01*
X163182241Y-55790000D01*
X163414759Y-55634637D01*
X163614637Y-55434759D01*
X163771680Y-55199727D01*
X163879853Y-54938574D01*
X163935000Y-54661335D01*
X163935000Y-54378665D01*
X163879853Y-54101426D01*
X163771680Y-53840273D01*
X163614637Y-53605241D01*
X163414759Y-53405363D01*
X163182241Y-53250000D01*
X163414759Y-53094637D01*
X163614637Y-52894759D01*
X163771680Y-52659727D01*
X163879853Y-52398574D01*
X163935000Y-52121335D01*
X163935000Y-51838665D01*
X163879853Y-51561426D01*
X163771680Y-51300273D01*
X163614637Y-51065241D01*
X163414759Y-50865363D01*
X163182241Y-50710000D01*
X163414759Y-50554637D01*
X163614637Y-50354759D01*
X163771680Y-50119727D01*
X163879853Y-49858574D01*
X163935000Y-49581335D01*
X163935000Y-49298665D01*
X163879853Y-49021426D01*
X163771680Y-48760273D01*
X163614637Y-48525241D01*
X163414759Y-48325363D01*
X163179727Y-48168320D01*
X162918574Y-48060147D01*
X162641335Y-48005000D01*
X162358665Y-48005000D01*
X162081426Y-48060147D01*
X161820273Y-48168320D01*
X161585241Y-48325363D01*
X161385363Y-48525241D01*
X161228320Y-48760273D01*
X161120147Y-49021426D01*
X161065000Y-49298665D01*
X161065000Y-49581335D01*
X161120147Y-49858574D01*
X161228320Y-50119727D01*
X161385363Y-50354759D01*
X161585241Y-50554637D01*
X161817759Y-50710000D01*
X161585241Y-50865363D01*
X161385363Y-51065241D01*
X161228320Y-51300273D01*
X161120147Y-51561426D01*
X161065000Y-51838665D01*
X161065000Y-52121335D01*
X161120147Y-52398574D01*
X161228320Y-52659727D01*
X161385363Y-52894759D01*
X161585241Y-53094637D01*
X161817759Y-53250000D01*
X161585241Y-53405363D01*
X161385363Y-53605241D01*
X161228320Y-53840273D01*
X161120147Y-54101426D01*
X161065000Y-54378665D01*
X161065000Y-54661335D01*
X161120147Y-54938574D01*
X161228320Y-55199727D01*
X161385363Y-55434759D01*
X161585241Y-55634637D01*
X161817759Y-55790000D01*
X161585241Y-55945363D01*
X161385363Y-56145241D01*
X161228320Y-56380273D01*
X161120147Y-56641426D01*
X161065000Y-56918665D01*
X161065000Y-57201335D01*
X161120147Y-57478574D01*
X161228320Y-57739727D01*
X161385363Y-57974759D01*
X161585241Y-58174637D01*
X161817759Y-58330000D01*
X161585241Y-58485363D01*
X161385363Y-58685241D01*
X161228320Y-58920273D01*
X161120147Y-59181426D01*
X161065000Y-59458665D01*
X161065000Y-59741335D01*
X161120147Y-60018574D01*
X161228320Y-60279727D01*
X161385363Y-60514759D01*
X161585241Y-60714637D01*
X161817759Y-60870000D01*
X161585241Y-61025363D01*
X161385363Y-61225241D01*
X161228320Y-61460273D01*
X161120147Y-61721426D01*
X161065000Y-61998665D01*
X161065000Y-62281335D01*
X161120147Y-62558574D01*
X161228320Y-62819727D01*
X161385363Y-63054759D01*
X161585241Y-63254637D01*
X161817759Y-63410000D01*
X161585241Y-63565363D01*
X161385363Y-63765241D01*
X161228320Y-64000273D01*
X161120147Y-64261426D01*
X161065000Y-64538665D01*
X161065000Y-64821335D01*
X161120147Y-65098574D01*
X161228320Y-65359727D01*
X161385363Y-65594759D01*
X161585241Y-65794637D01*
X161817759Y-65950000D01*
X161585241Y-66105363D01*
X161385363Y-66305241D01*
X161228320Y-66540273D01*
X161120147Y-66801426D01*
X161065000Y-67078665D01*
X161065000Y-67361335D01*
X161120147Y-67638574D01*
X161228320Y-67899727D01*
X161385363Y-68134759D01*
X161585241Y-68334637D01*
X161817759Y-68490000D01*
X161585241Y-68645363D01*
X161385363Y-68845241D01*
X161228320Y-69080273D01*
X161120147Y-69341426D01*
X161065000Y-69618665D01*
X161065000Y-69901335D01*
X161120147Y-70178574D01*
X161228320Y-70439727D01*
X161385363Y-70674759D01*
X161585241Y-70874637D01*
X161817759Y-71030000D01*
X161585241Y-71185363D01*
X161385363Y-71385241D01*
X161228320Y-71620273D01*
X161120147Y-71881426D01*
X161065000Y-72158665D01*
X161065000Y-72441335D01*
X161120147Y-72718574D01*
X161228320Y-72979727D01*
X161385363Y-73214759D01*
X161585241Y-73414637D01*
X161817759Y-73570000D01*
X161585241Y-73725363D01*
X161385363Y-73925241D01*
X161228320Y-74160273D01*
X161120147Y-74421426D01*
X161065000Y-74698665D01*
X161065000Y-74981335D01*
X161120147Y-75258574D01*
X161228320Y-75519727D01*
X161385363Y-75754759D01*
X161585241Y-75954637D01*
X161820273Y-76111680D01*
X161830865Y-76116067D01*
X161644869Y-76227615D01*
X161436481Y-76416586D01*
X161268963Y-76642580D01*
X161148754Y-76896913D01*
X161108096Y-77030961D01*
X161230085Y-77253000D01*
X162373000Y-77253000D01*
X162373000Y-77233000D01*
X162627000Y-77233000D01*
X162627000Y-77253000D01*
X163769915Y-77253000D01*
X163891904Y-77030961D01*
X163851246Y-76896913D01*
X163731037Y-76642580D01*
X163563519Y-76416586D01*
X163355131Y-76227615D01*
X163169135Y-76116067D01*
X163179727Y-76111680D01*
X163414759Y-75954637D01*
X163614637Y-75754759D01*
X163771680Y-75519727D01*
X163879853Y-75258574D01*
X163935000Y-74981335D01*
X163935000Y-74698665D01*
X163879853Y-74421426D01*
X163771680Y-74160273D01*
X163614637Y-73925241D01*
X163414759Y-73725363D01*
X163182241Y-73570000D01*
X163414759Y-73414637D01*
X163614637Y-73214759D01*
X163771680Y-72979727D01*
X163879853Y-72718574D01*
X163935000Y-72441335D01*
X163935000Y-72158665D01*
X163879853Y-71881426D01*
X163771680Y-71620273D01*
X163614637Y-71385241D01*
X163414759Y-71185363D01*
X163182241Y-71030000D01*
X163414759Y-70874637D01*
X163614637Y-70674759D01*
X163771680Y-70439727D01*
X163879853Y-70178574D01*
X163935000Y-69901335D01*
X163935000Y-69618665D01*
X163879853Y-69341426D01*
X163771680Y-69080273D01*
X163614637Y-68845241D01*
X163414759Y-68645363D01*
X163182241Y-68490000D01*
X163414759Y-68334637D01*
X163614637Y-68134759D01*
X163771680Y-67899727D01*
X163879853Y-67638574D01*
X163935000Y-67361335D01*
X163935000Y-67078665D01*
X163879853Y-66801426D01*
X163771680Y-66540273D01*
X163614637Y-66305241D01*
X163414759Y-66105363D01*
X163182241Y-65950000D01*
X163414759Y-65794637D01*
X163614637Y-65594759D01*
X163771680Y-65359727D01*
X163879853Y-65098574D01*
X163935000Y-64821335D01*
X163935000Y-64538665D01*
X163879853Y-64261426D01*
X163771680Y-64000273D01*
X163614637Y-63765241D01*
X163414759Y-63565363D01*
X163182241Y-63410000D01*
X163414759Y-63254637D01*
X163614637Y-63054759D01*
X163718043Y-62900000D01*
X167192551Y-62900000D01*
X167319866Y-63055134D01*
X167383337Y-63107223D01*
X167281614Y-63161595D01*
X167147038Y-63272038D01*
X167036595Y-63406614D01*
X166954528Y-63560150D01*
X166903992Y-63726746D01*
X166886928Y-63900000D01*
X166886928Y-65100000D01*
X166903992Y-65273254D01*
X166954528Y-65439850D01*
X167036595Y-65593386D01*
X167147038Y-65727962D01*
X167281614Y-65838405D01*
X167435150Y-65920472D01*
X167465000Y-65929527D01*
X167465001Y-85071288D01*
X165571290Y-86965000D01*
X159428711Y-86965000D01*
X156663711Y-84200000D01*
X161061928Y-84200000D01*
X161061928Y-85800000D01*
X161074188Y-85924482D01*
X161110498Y-86044180D01*
X161169463Y-86154494D01*
X161248815Y-86251185D01*
X161345506Y-86330537D01*
X161455820Y-86389502D01*
X161575518Y-86425812D01*
X161700000Y-86438072D01*
X163300000Y-86438072D01*
X163424482Y-86425812D01*
X163544180Y-86389502D01*
X163654494Y-86330537D01*
X163751185Y-86251185D01*
X163830537Y-86154494D01*
X163889502Y-86044180D01*
X163925812Y-85924482D01*
X163938072Y-85800000D01*
X163938072Y-84200000D01*
X163925812Y-84075518D01*
X163889502Y-83955820D01*
X163830537Y-83845506D01*
X163751185Y-83748815D01*
X163654494Y-83669463D01*
X163544180Y-83610498D01*
X163424482Y-83574188D01*
X163416039Y-83573357D01*
X163614637Y-83374759D01*
X163771680Y-83139727D01*
X163879853Y-82878574D01*
X163935000Y-82601335D01*
X163935000Y-82318665D01*
X163879853Y-82041426D01*
X163771680Y-81780273D01*
X163614637Y-81545241D01*
X163414759Y-81345363D01*
X163182241Y-81190000D01*
X163414759Y-81034637D01*
X163614637Y-80834759D01*
X163771680Y-80599727D01*
X163879853Y-80338574D01*
X163935000Y-80061335D01*
X163935000Y-79778665D01*
X163879853Y-79501426D01*
X163771680Y-79240273D01*
X163614637Y-79005241D01*
X163414759Y-78805363D01*
X163179727Y-78648320D01*
X163169135Y-78643933D01*
X163355131Y-78532385D01*
X163563519Y-78343414D01*
X163731037Y-78117420D01*
X163851246Y-77863087D01*
X163891904Y-77729039D01*
X163769915Y-77507000D01*
X162627000Y-77507000D01*
X162627000Y-77527000D01*
X162373000Y-77527000D01*
X162373000Y-77507000D01*
X161230085Y-77507000D01*
X161108096Y-77729039D01*
X161148754Y-77863087D01*
X161268963Y-78117420D01*
X161436481Y-78343414D01*
X161644869Y-78532385D01*
X161830865Y-78643933D01*
X161820273Y-78648320D01*
X161585241Y-78805363D01*
X161385363Y-79005241D01*
X161228320Y-79240273D01*
X161120147Y-79501426D01*
X161065000Y-79778665D01*
X161065000Y-80061335D01*
X161120147Y-80338574D01*
X161228320Y-80599727D01*
X161385363Y-80834759D01*
X161585241Y-81034637D01*
X161817759Y-81190000D01*
X161585241Y-81345363D01*
X161385363Y-81545241D01*
X161228320Y-81780273D01*
X161120147Y-82041426D01*
X161065000Y-82318665D01*
X161065000Y-82601335D01*
X161120147Y-82878574D01*
X161228320Y-83139727D01*
X161385363Y-83374759D01*
X161583961Y-83573357D01*
X161575518Y-83574188D01*
X161455820Y-83610498D01*
X161345506Y-83669463D01*
X161248815Y-83748815D01*
X161169463Y-83845506D01*
X161110498Y-83955820D01*
X161074188Y-84075518D01*
X161061928Y-84200000D01*
X156663711Y-84200000D01*
X156035000Y-83571290D01*
X156035000Y-79050835D01*
X156040007Y-79000000D01*
X156033605Y-78935000D01*
X156020024Y-78797105D01*
X155960841Y-78602007D01*
X155870590Y-78433158D01*
X155864734Y-78422202D01*
X155767803Y-78304092D01*
X155735396Y-78264604D01*
X155695908Y-78232197D01*
X154147807Y-76684097D01*
X154115396Y-76644604D01*
X153957797Y-76515266D01*
X153777993Y-76419159D01*
X153582895Y-76359976D01*
X153430838Y-76345000D01*
X153430828Y-76345000D01*
X153380000Y-76339994D01*
X153329172Y-76345000D01*
X148254396Y-76345000D01*
X148174759Y-76265363D01*
X147942241Y-76110000D01*
X148174759Y-75954637D01*
X148374637Y-75754759D01*
X148531680Y-75519727D01*
X148639853Y-75258574D01*
X148695000Y-74981335D01*
X148695000Y-74698665D01*
X148639853Y-74421426D01*
X148531680Y-74160273D01*
X148374637Y-73925241D01*
X148174759Y-73725363D01*
X147942241Y-73570000D01*
X148174759Y-73414637D01*
X148374637Y-73214759D01*
X148531680Y-72979727D01*
X148639853Y-72718574D01*
X148695000Y-72441335D01*
X148695000Y-72158665D01*
X148639853Y-71881426D01*
X148531680Y-71620273D01*
X148374637Y-71385241D01*
X148174759Y-71185363D01*
X147942241Y-71030000D01*
X148174759Y-70874637D01*
X148374637Y-70674759D01*
X148531680Y-70439727D01*
X148639853Y-70178574D01*
X148695000Y-69901335D01*
X148695000Y-69618665D01*
X148639853Y-69341426D01*
X148531680Y-69080273D01*
X148374637Y-68845241D01*
X148174759Y-68645363D01*
X147942241Y-68490000D01*
X148174759Y-68334637D01*
X148374637Y-68134759D01*
X148531680Y-67899727D01*
X148639853Y-67638574D01*
X148695000Y-67361335D01*
X148695000Y-67078665D01*
X148639853Y-66801426D01*
X148531680Y-66540273D01*
X148374637Y-66305241D01*
X148174759Y-66105363D01*
X147942241Y-65950000D01*
X148174759Y-65794637D01*
X148374637Y-65594759D01*
X148531680Y-65359727D01*
X148639853Y-65098574D01*
X148695000Y-64821335D01*
X148695000Y-64538665D01*
X148639853Y-64261426D01*
X148531680Y-64000273D01*
X148374637Y-63765241D01*
X148174759Y-63565363D01*
X147942241Y-63410000D01*
X148174759Y-63254637D01*
X148374637Y-63054759D01*
X148531680Y-62819727D01*
X148639853Y-62558574D01*
X148695000Y-62281335D01*
X148695000Y-61998665D01*
X148639853Y-61721426D01*
X148531680Y-61460273D01*
X148374637Y-61225241D01*
X148174759Y-61025363D01*
X147942241Y-60870000D01*
X148174759Y-60714637D01*
X148374637Y-60514759D01*
X148531680Y-60279727D01*
X148639853Y-60018574D01*
X148695000Y-59741335D01*
X148695000Y-59458665D01*
X148639853Y-59181426D01*
X148531680Y-58920273D01*
X148374637Y-58685241D01*
X148174759Y-58485363D01*
X147942241Y-58330000D01*
X148174759Y-58174637D01*
X148374637Y-57974759D01*
X148531680Y-57739727D01*
X148639853Y-57478574D01*
X148695000Y-57201335D01*
X148695000Y-56918665D01*
X148639853Y-56641426D01*
X148531680Y-56380273D01*
X148374637Y-56145241D01*
X148174759Y-55945363D01*
X147942241Y-55790000D01*
X148174759Y-55634637D01*
X148374637Y-55434759D01*
X148531680Y-55199727D01*
X148639853Y-54938574D01*
X148695000Y-54661335D01*
X148695000Y-54378665D01*
X148639853Y-54101426D01*
X148531680Y-53840273D01*
X148374637Y-53605241D01*
X148174759Y-53405363D01*
X147942241Y-53250000D01*
X148174759Y-53094637D01*
X148374637Y-52894759D01*
X148531680Y-52659727D01*
X148639853Y-52398574D01*
X148695000Y-52121335D01*
X148695000Y-51838665D01*
X148639853Y-51561426D01*
X148531680Y-51300273D01*
X148374637Y-51065241D01*
X148174759Y-50865363D01*
X147942241Y-50710000D01*
X148174759Y-50554637D01*
X148374637Y-50354759D01*
X148531680Y-50119727D01*
X148639853Y-49858574D01*
X148695000Y-49581335D01*
X148695000Y-49298665D01*
X148639853Y-49021426D01*
X148531680Y-48760273D01*
X148374637Y-48525241D01*
X148174759Y-48325363D01*
X147939727Y-48168320D01*
X147678574Y-48060147D01*
X147401335Y-48005000D01*
X147118665Y-48005000D01*
X146841426Y-48060147D01*
X146580273Y-48168320D01*
X146345241Y-48325363D01*
X146145363Y-48525241D01*
X145988320Y-48760273D01*
X145880147Y-49021426D01*
X145825000Y-49298665D01*
X145825000Y-49581335D01*
X145880147Y-49858574D01*
X145988320Y-50119727D01*
X146145363Y-50354759D01*
X146345241Y-50554637D01*
X146577759Y-50710000D01*
X146345241Y-50865363D01*
X146265604Y-50945000D01*
X144908711Y-50945000D01*
X143535000Y-49571290D01*
X143535000Y-45050835D01*
X143540007Y-45000000D01*
X143535000Y-44949162D01*
X143520024Y-44797105D01*
X143460841Y-44602007D01*
X143364734Y-44422203D01*
X143235396Y-44264604D01*
X143195903Y-44232193D01*
X142767807Y-43804097D01*
X142735396Y-43764604D01*
X142577797Y-43635266D01*
X142397993Y-43539159D01*
X142202895Y-43479976D01*
X142050838Y-43465000D01*
X142050828Y-43465000D01*
X142000000Y-43459994D01*
X141949172Y-43465000D01*
X118265107Y-43465000D01*
X118146632Y-43346525D01*
X117903411Y-43184010D01*
X117633158Y-43072068D01*
X117346260Y-43015000D01*
X117053740Y-43015000D01*
X116766842Y-43072068D01*
X116496589Y-43184010D01*
X116253368Y-43346525D01*
X116134893Y-43465000D01*
X115725107Y-43465000D01*
X115606632Y-43346525D01*
X115363411Y-43184010D01*
X115093158Y-43072068D01*
X114806260Y-43015000D01*
X114513740Y-43015000D01*
X114226842Y-43072068D01*
X113956589Y-43184010D01*
X113713368Y-43346525D01*
X113506525Y-43553368D01*
X113390000Y-43727760D01*
X113273475Y-43553368D01*
X113066632Y-43346525D01*
X112823411Y-43184010D01*
X112553158Y-43072068D01*
X112266260Y-43015000D01*
X111973740Y-43015000D01*
X111686842Y-43072068D01*
X111416589Y-43184010D01*
X111173368Y-43346525D01*
X110966525Y-43553368D01*
X110850000Y-43727760D01*
X110733475Y-43553368D01*
X110526632Y-43346525D01*
X110283411Y-43184010D01*
X110013158Y-43072068D01*
X109726260Y-43015000D01*
X109433740Y-43015000D01*
X109146842Y-43072068D01*
X108876589Y-43184010D01*
X108633368Y-43346525D01*
X108426525Y-43553368D01*
X108310000Y-43727760D01*
X108193475Y-43553368D01*
X107986632Y-43346525D01*
X107743411Y-43184010D01*
X107473158Y-43072068D01*
X107186260Y-43015000D01*
X106893740Y-43015000D01*
X106606842Y-43072068D01*
X106336589Y-43184010D01*
X106093368Y-43346525D01*
X105961513Y-43478380D01*
X105939502Y-43405820D01*
X105880537Y-43295506D01*
X105801185Y-43198815D01*
X105704494Y-43119463D01*
X105594180Y-43060498D01*
X105474482Y-43024188D01*
X105350000Y-43011928D01*
X104785750Y-43015000D01*
X104627000Y-43173750D01*
X104373000Y-43173750D01*
X104214250Y-43015000D01*
X103650000Y-43011928D01*
X103525518Y-43024188D01*
X103405820Y-43060498D01*
X103295506Y-43119463D01*
X103198815Y-43198815D01*
X103119463Y-43295506D01*
X103060498Y-43405820D01*
X103024188Y-43525518D01*
X103011928Y-43650000D01*
X80660000Y-43650000D01*
X80660000Y-40660000D01*
X174340001Y-40660000D01*
X174340000Y-92340000D01*
G04 #@! TA.AperFunction,Conductor*
D20*
G36*
X174340000Y-92340000D02*
G01*
X80660000Y-92340000D01*
X80660000Y-67853740D01*
X86435000Y-67853740D01*
X86435000Y-68146260D01*
X86492068Y-68433158D01*
X86604010Y-68703411D01*
X86766525Y-68946632D01*
X86973368Y-69153475D01*
X87160001Y-69278179D01*
X87160001Y-69382668D01*
X87156324Y-69420000D01*
X87170998Y-69568985D01*
X87214454Y-69712246D01*
X87285026Y-69844276D01*
X87331854Y-69901335D01*
X87380000Y-69960001D01*
X87408998Y-69983799D01*
X88436201Y-71011003D01*
X88459999Y-71040001D01*
X88575724Y-71134974D01*
X88707753Y-71205546D01*
X88851014Y-71249003D01*
X88962667Y-71260000D01*
X88962675Y-71260000D01*
X89000000Y-71263676D01*
X89037325Y-71260000D01*
X98993819Y-71260000D01*
X99156773Y-71503877D01*
X99376123Y-71723227D01*
X99446124Y-71770000D01*
X99376123Y-71816773D01*
X99156773Y-72036123D01*
X99020546Y-72240000D01*
X94488072Y-72240000D01*
X94488072Y-72150000D01*
X94475812Y-72025518D01*
X94439502Y-71905820D01*
X94380537Y-71795506D01*
X94301185Y-71698815D01*
X94204494Y-71619463D01*
X94094180Y-71560498D01*
X93974482Y-71524188D01*
X93850000Y-71511928D01*
X92150000Y-71511928D01*
X92025518Y-71524188D01*
X91905820Y-71560498D01*
X91795506Y-71619463D01*
X91698815Y-71698815D01*
X91619463Y-71795506D01*
X91560498Y-71905820D01*
X91536034Y-71986466D01*
X91460269Y-71902412D01*
X91226920Y-71728359D01*
X90964099Y-71603175D01*
X90816890Y-71558524D01*
X90587000Y-71679845D01*
X90587000Y-72873000D01*
X90607000Y-72873000D01*
X90607000Y-73127000D01*
X90587000Y-73127000D01*
X90587000Y-74320155D01*
X90816890Y-74441476D01*
X90964099Y-74396825D01*
X91226920Y-74271641D01*
X91460269Y-74097588D01*
X91536034Y-74013534D01*
X91560498Y-74094180D01*
X91619463Y-74204494D01*
X91698815Y-74301185D01*
X91795506Y-74380537D01*
X91905820Y-74439502D01*
X92025518Y-74475812D01*
X92150000Y-74488072D01*
X93850000Y-74488072D01*
X93974482Y-74475812D01*
X94094180Y-74439502D01*
X94204494Y-74380537D01*
X94301185Y-74301185D01*
X94380537Y-74204494D01*
X94439502Y-74094180D01*
X94475812Y-73974482D01*
X94488072Y-73850000D01*
X94488072Y-73760000D01*
X98973682Y-73760000D01*
X98984430Y-73785948D01*
X99156773Y-74043877D01*
X99376123Y-74263227D01*
X99446124Y-74310000D01*
X99376123Y-74356773D01*
X99156773Y-74576123D01*
X98993819Y-74820000D01*
X88894802Y-74820000D01*
X88680000Y-74605199D01*
X88680000Y-74278178D01*
X88866632Y-74153475D01*
X89073475Y-73946632D01*
X89195195Y-73764466D01*
X89264822Y-73881355D01*
X89459731Y-74097588D01*
X89693080Y-74271641D01*
X89955901Y-74396825D01*
X90103110Y-74441476D01*
X90333000Y-74320155D01*
X90333000Y-73127000D01*
X90313000Y-73127000D01*
X90313000Y-72873000D01*
X90333000Y-72873000D01*
X90333000Y-71679845D01*
X90103110Y-71558524D01*
X89955901Y-71603175D01*
X89693080Y-71728359D01*
X89459731Y-71902412D01*
X89264822Y-72118645D01*
X89195195Y-72235534D01*
X89073475Y-72053368D01*
X88866632Y-71846525D01*
X88623411Y-71684010D01*
X88353158Y-71572068D01*
X88066260Y-71515000D01*
X87773740Y-71515000D01*
X87486842Y-71572068D01*
X87216589Y-71684010D01*
X86973368Y-71846525D01*
X86766525Y-72053368D01*
X86604010Y-72296589D01*
X86492068Y-72566842D01*
X86435000Y-72853740D01*
X86435000Y-73146260D01*
X86492068Y-73433158D01*
X86604010Y-73703411D01*
X86766525Y-73946632D01*
X86973368Y-74153475D01*
X87160001Y-74278179D01*
X87160001Y-74882668D01*
X87156324Y-74920000D01*
X87160001Y-74957333D01*
X87170998Y-75068986D01*
X87171002Y-75068998D01*
X87214454Y-75212246D01*
X87285026Y-75344276D01*
X87351190Y-75424896D01*
X87380000Y-75460001D01*
X87408998Y-75483799D01*
X88016200Y-76091002D01*
X88039999Y-76120001D01*
X88068997Y-76143799D01*
X88155723Y-76214974D01*
X88248574Y-76264604D01*
X88287753Y-76285546D01*
X88431014Y-76329003D01*
X88542667Y-76340000D01*
X88542677Y-76340000D01*
X88580000Y-76343676D01*
X88617323Y-76340000D01*
X98993819Y-76340000D01*
X99156773Y-76583877D01*
X99376123Y-76803227D01*
X99446124Y-76850000D01*
X99376123Y-76896773D01*
X99156773Y-77116123D01*
X99074001Y-77240000D01*
X94488072Y-77240000D01*
X94488072Y-77150000D01*
X94475812Y-77025518D01*
X94439502Y-76905820D01*
X94380537Y-76795506D01*
X94301185Y-76698815D01*
X94204494Y-76619463D01*
X94094180Y-76560498D01*
X93974482Y-76524188D01*
X93850000Y-76511928D01*
X92150000Y-76511928D01*
X92025518Y-76524188D01*
X91905820Y-76560498D01*
X91795506Y-76619463D01*
X91698815Y-76698815D01*
X91619463Y-76795506D01*
X91560498Y-76905820D01*
X91536034Y-76986466D01*
X91460269Y-76902412D01*
X91226920Y-76728359D01*
X90964099Y-76603175D01*
X90816890Y-76558524D01*
X90587000Y-76679845D01*
X90587000Y-77873000D01*
X90607000Y-77873000D01*
X90607000Y-78127000D01*
X90587000Y-78127000D01*
X90587000Y-79320155D01*
X90816890Y-79441476D01*
X90964099Y-79396825D01*
X91226920Y-79271641D01*
X91460269Y-79097588D01*
X91536034Y-79013534D01*
X91560498Y-79094180D01*
X91619463Y-79204494D01*
X91698815Y-79301185D01*
X91795506Y-79380537D01*
X91905820Y-79439502D01*
X92025518Y-79475812D01*
X92150000Y-79488072D01*
X93850000Y-79488072D01*
X93974482Y-79475812D01*
X94094180Y-79439502D01*
X94204494Y-79380537D01*
X94301185Y-79301185D01*
X94380537Y-79204494D01*
X94439502Y-79094180D01*
X94475812Y-78974482D01*
X94488072Y-78850000D01*
X94488072Y-78760000D01*
X98940545Y-78760000D01*
X98984430Y-78865948D01*
X99156773Y-79123877D01*
X99376123Y-79343227D01*
X99446124Y-79390000D01*
X99376123Y-79436773D01*
X99156773Y-79656123D01*
X98993819Y-79900000D01*
X88974802Y-79900000D01*
X88680000Y-79605199D01*
X88680000Y-79278178D01*
X88866632Y-79153475D01*
X89073475Y-78946632D01*
X89195195Y-78764466D01*
X89264822Y-78881355D01*
X89459731Y-79097588D01*
X89693080Y-79271641D01*
X89955901Y-79396825D01*
X90103110Y-79441476D01*
X90333000Y-79320155D01*
X90333000Y-78127000D01*
X90313000Y-78127000D01*
X90313000Y-77873000D01*
X90333000Y-77873000D01*
X90333000Y-76679845D01*
X90103110Y-76558524D01*
X89955901Y-76603175D01*
X89693080Y-76728359D01*
X89459731Y-76902412D01*
X89264822Y-77118645D01*
X89195195Y-77235534D01*
X89073475Y-77053368D01*
X88866632Y-76846525D01*
X88623411Y-76684010D01*
X88353158Y-76572068D01*
X88066260Y-76515000D01*
X87773740Y-76515000D01*
X87486842Y-76572068D01*
X87216589Y-76684010D01*
X86973368Y-76846525D01*
X86766525Y-77053368D01*
X86604010Y-77296589D01*
X86492068Y-77566842D01*
X86435000Y-77853740D01*
X86435000Y-78146260D01*
X86492068Y-78433158D01*
X86604010Y-78703411D01*
X86766525Y-78946632D01*
X86973368Y-79153475D01*
X87160001Y-79278179D01*
X87160001Y-79882668D01*
X87156324Y-79920000D01*
X87160001Y-79957333D01*
X87170245Y-80061335D01*
X87170998Y-80068985D01*
X87214454Y-80212246D01*
X87285026Y-80344276D01*
X87347172Y-80420000D01*
X87380000Y-80460001D01*
X87408998Y-80483799D01*
X88096201Y-81171002D01*
X88119999Y-81200001D01*
X88148997Y-81223799D01*
X88235723Y-81294974D01*
X88329994Y-81345363D01*
X88367753Y-81365546D01*
X88511014Y-81409003D01*
X88622667Y-81420000D01*
X88622676Y-81420000D01*
X88659999Y-81423676D01*
X88697322Y-81420000D01*
X98993819Y-81420000D01*
X99156773Y-81663877D01*
X99376123Y-81883227D01*
X99446124Y-81930000D01*
X99376123Y-81976773D01*
X99156773Y-82196123D01*
X98984430Y-82454052D01*
X98865986Y-82740000D01*
X94488072Y-82740000D01*
X94488072Y-82650000D01*
X94475812Y-82525518D01*
X94439502Y-82405820D01*
X94380537Y-82295506D01*
X94301185Y-82198815D01*
X94204494Y-82119463D01*
X94094180Y-82060498D01*
X93974482Y-82024188D01*
X93850000Y-82011928D01*
X92150000Y-82011928D01*
X92025518Y-82024188D01*
X91905820Y-82060498D01*
X91795506Y-82119463D01*
X91698815Y-82198815D01*
X91619463Y-82295506D01*
X91560498Y-82405820D01*
X91536034Y-82486466D01*
X91460269Y-82402412D01*
X91226920Y-82228359D01*
X90964099Y-82103175D01*
X90816890Y-82058524D01*
X90587000Y-82179845D01*
X90587000Y-83373000D01*
X90607000Y-83373000D01*
X90607000Y-83627000D01*
X90587000Y-83627000D01*
X90587000Y-83647000D01*
X90333000Y-83647000D01*
X90333000Y-83627000D01*
X90313000Y-83627000D01*
X90313000Y-83373000D01*
X90333000Y-83373000D01*
X90333000Y-82179845D01*
X90103110Y-82058524D01*
X89955901Y-82103175D01*
X89693080Y-82228359D01*
X89459731Y-82402412D01*
X89264822Y-82618645D01*
X89195195Y-82735534D01*
X89073475Y-82553368D01*
X88866632Y-82346525D01*
X88623411Y-82184010D01*
X88353158Y-82072068D01*
X88066260Y-82015000D01*
X87773740Y-82015000D01*
X87486842Y-82072068D01*
X87216589Y-82184010D01*
X86973368Y-82346525D01*
X86766525Y-82553368D01*
X86604010Y-82796589D01*
X86492068Y-83066842D01*
X86435000Y-83353740D01*
X86435000Y-83646260D01*
X86492068Y-83933158D01*
X86604010Y-84203411D01*
X86766525Y-84446632D01*
X86973368Y-84653475D01*
X87160001Y-84778179D01*
X87160001Y-85382668D01*
X87156324Y-85420000D01*
X87170998Y-85568985D01*
X87214454Y-85712246D01*
X87285026Y-85844276D01*
X87326740Y-85895104D01*
X87380000Y-85960001D01*
X87408998Y-85983799D01*
X87676196Y-86250997D01*
X87699999Y-86280001D01*
X87815724Y-86374974D01*
X87947753Y-86445546D01*
X88091014Y-86489003D01*
X88202667Y-86500000D01*
X88202676Y-86500000D01*
X88239999Y-86503676D01*
X88277322Y-86500000D01*
X98993819Y-86500000D01*
X99156773Y-86743877D01*
X99376123Y-86963227D01*
X99634052Y-87135570D01*
X99920648Y-87254282D01*
X100224896Y-87314800D01*
X100535104Y-87314800D01*
X100839352Y-87254282D01*
X101125948Y-87135570D01*
X101383877Y-86963227D01*
X101514628Y-86832476D01*
X107087129Y-86832476D01*
X107175623Y-87090723D01*
X107454976Y-87225597D01*
X107755275Y-87303381D01*
X108064977Y-87321084D01*
X108372184Y-87278027D01*
X108665086Y-87175865D01*
X108824377Y-87090723D01*
X108912871Y-86832476D01*
X108000000Y-85919605D01*
X107087129Y-86832476D01*
X101514628Y-86832476D01*
X101603227Y-86743877D01*
X101775570Y-86485948D01*
X101894282Y-86199352D01*
X101954800Y-85895104D01*
X101954800Y-85804977D01*
X106418916Y-85804977D01*
X106461973Y-86112184D01*
X106564135Y-86405086D01*
X106649277Y-86564377D01*
X106907524Y-86652871D01*
X107820395Y-85740000D01*
X106907524Y-84827129D01*
X106649277Y-84915623D01*
X106514403Y-85194976D01*
X106436619Y-85495275D01*
X106418916Y-85804977D01*
X101954800Y-85804977D01*
X101954800Y-85584896D01*
X101894282Y-85280648D01*
X101775570Y-84994052D01*
X101603227Y-84736123D01*
X101514628Y-84647524D01*
X107087129Y-84647524D01*
X108000000Y-85560395D01*
X108912871Y-84647524D01*
X108824377Y-84389277D01*
X108545024Y-84254403D01*
X108244725Y-84176619D01*
X107935023Y-84158916D01*
X107627816Y-84201973D01*
X107334914Y-84304135D01*
X107175623Y-84389277D01*
X107087129Y-84647524D01*
X101514628Y-84647524D01*
X101383877Y-84516773D01*
X101313876Y-84470000D01*
X101383877Y-84423227D01*
X101603227Y-84203877D01*
X101775570Y-83945948D01*
X101894282Y-83659352D01*
X101954800Y-83355104D01*
X101954800Y-83044896D01*
X101894282Y-82740648D01*
X101775570Y-82454052D01*
X101603227Y-82196123D01*
X101383877Y-81976773D01*
X101313876Y-81930000D01*
X101383877Y-81883227D01*
X101603227Y-81663877D01*
X101775570Y-81405948D01*
X101894282Y-81119352D01*
X101954800Y-80815104D01*
X101954800Y-80504896D01*
X101894282Y-80200648D01*
X101775570Y-79914052D01*
X101603227Y-79656123D01*
X101383877Y-79436773D01*
X101313876Y-79390000D01*
X101383877Y-79343227D01*
X101603227Y-79123877D01*
X101775570Y-78865948D01*
X101894282Y-78579352D01*
X101954800Y-78275104D01*
X101954800Y-77964896D01*
X101894282Y-77660648D01*
X101775570Y-77374052D01*
X101603227Y-77116123D01*
X101383877Y-76896773D01*
X101313876Y-76850000D01*
X101383877Y-76803227D01*
X101603227Y-76583877D01*
X101775570Y-76325948D01*
X101894282Y-76039352D01*
X101954800Y-75735104D01*
X101954800Y-75424896D01*
X101894282Y-75120648D01*
X101775570Y-74834052D01*
X101603227Y-74576123D01*
X101383877Y-74356773D01*
X101313876Y-74310000D01*
X101383877Y-74263227D01*
X101603227Y-74043877D01*
X101775570Y-73785948D01*
X101894282Y-73499352D01*
X101954800Y-73195104D01*
X101954800Y-72884896D01*
X101894282Y-72580648D01*
X101775570Y-72294052D01*
X101603227Y-72036123D01*
X101383877Y-71816773D01*
X101313876Y-71770000D01*
X101383877Y-71723227D01*
X101603227Y-71503877D01*
X101775570Y-71245948D01*
X101894282Y-70959352D01*
X101954800Y-70655104D01*
X101954800Y-70344896D01*
X101894282Y-70040648D01*
X101775570Y-69754052D01*
X101603227Y-69496123D01*
X101383877Y-69276773D01*
X101313876Y-69230000D01*
X101383877Y-69183227D01*
X101603227Y-68963877D01*
X101775570Y-68705948D01*
X101894282Y-68419352D01*
X101954800Y-68115104D01*
X101954800Y-67804896D01*
X101894282Y-67500648D01*
X101775570Y-67214052D01*
X101603227Y-66956123D01*
X101383877Y-66736773D01*
X101247286Y-66645505D01*
X101292871Y-66512476D01*
X100380000Y-65599605D01*
X99467129Y-66512476D01*
X99512714Y-66645505D01*
X99376123Y-66736773D01*
X99156773Y-66956123D01*
X98993819Y-67200000D01*
X94488072Y-67200000D01*
X94488072Y-67150000D01*
X94475812Y-67025518D01*
X94439502Y-66905820D01*
X94380537Y-66795506D01*
X94301185Y-66698815D01*
X94204494Y-66619463D01*
X94094180Y-66560498D01*
X93974482Y-66524188D01*
X93850000Y-66511928D01*
X92150000Y-66511928D01*
X92025518Y-66524188D01*
X91905820Y-66560498D01*
X91795506Y-66619463D01*
X91698815Y-66698815D01*
X91619463Y-66795506D01*
X91560498Y-66905820D01*
X91536034Y-66986466D01*
X91460269Y-66902412D01*
X91226920Y-66728359D01*
X90964099Y-66603175D01*
X90816890Y-66558524D01*
X90587000Y-66679845D01*
X90587000Y-67873000D01*
X90607000Y-67873000D01*
X90607000Y-68127000D01*
X90587000Y-68127000D01*
X90587000Y-69320155D01*
X90816890Y-69441476D01*
X90964099Y-69396825D01*
X91226920Y-69271641D01*
X91460269Y-69097588D01*
X91536034Y-69013534D01*
X91560498Y-69094180D01*
X91619463Y-69204494D01*
X91698815Y-69301185D01*
X91795506Y-69380537D01*
X91905820Y-69439502D01*
X92025518Y-69475812D01*
X92150000Y-69488072D01*
X93850000Y-69488072D01*
X93974482Y-69475812D01*
X94094180Y-69439502D01*
X94204494Y-69380537D01*
X94301185Y-69301185D01*
X94380537Y-69204494D01*
X94439502Y-69094180D01*
X94475812Y-68974482D01*
X94488072Y-68850000D01*
X94488072Y-68720000D01*
X98993819Y-68720000D01*
X99156773Y-68963877D01*
X99376123Y-69183227D01*
X99446124Y-69230000D01*
X99376123Y-69276773D01*
X99156773Y-69496123D01*
X98993819Y-69740000D01*
X89314802Y-69740000D01*
X88783694Y-69208892D01*
X88866632Y-69153475D01*
X89073475Y-68946632D01*
X89195195Y-68764466D01*
X89264822Y-68881355D01*
X89459731Y-69097588D01*
X89693080Y-69271641D01*
X89955901Y-69396825D01*
X90103110Y-69441476D01*
X90333000Y-69320155D01*
X90333000Y-68127000D01*
X90313000Y-68127000D01*
X90313000Y-67873000D01*
X90333000Y-67873000D01*
X90333000Y-66679845D01*
X90103110Y-66558524D01*
X89955901Y-66603175D01*
X89693080Y-66728359D01*
X89459731Y-66902412D01*
X89264822Y-67118645D01*
X89195195Y-67235534D01*
X89073475Y-67053368D01*
X88866632Y-66846525D01*
X88623411Y-66684010D01*
X88353158Y-66572068D01*
X88066260Y-66515000D01*
X87773740Y-66515000D01*
X87486842Y-66572068D01*
X87216589Y-66684010D01*
X86973368Y-66846525D01*
X86766525Y-67053368D01*
X86604010Y-67296589D01*
X86492068Y-67566842D01*
X86435000Y-67853740D01*
X80660000Y-67853740D01*
X80660000Y-65484977D01*
X98798916Y-65484977D01*
X98841973Y-65792184D01*
X98944135Y-66085086D01*
X99029277Y-66244377D01*
X99287524Y-66332871D01*
X100200395Y-65420000D01*
X100559605Y-65420000D01*
X101472476Y-66332871D01*
X101730723Y-66244377D01*
X101865597Y-65965024D01*
X101943381Y-65664725D01*
X101961084Y-65355023D01*
X101918027Y-65047816D01*
X101815865Y-64754914D01*
X101730723Y-64595623D01*
X101472476Y-64507129D01*
X100559605Y-65420000D01*
X100200395Y-65420000D01*
X99287524Y-64507129D01*
X99029277Y-64595623D01*
X98894403Y-64874976D01*
X98816619Y-65175275D01*
X98798916Y-65484977D01*
X80660000Y-65484977D01*
X80660000Y-57644896D01*
X98805200Y-57644896D01*
X98805200Y-57955104D01*
X98865718Y-58259352D01*
X98984430Y-58545948D01*
X99156773Y-58803877D01*
X99376123Y-59023227D01*
X99446124Y-59070000D01*
X99376123Y-59116773D01*
X99156773Y-59336123D01*
X98984430Y-59594052D01*
X98865718Y-59880648D01*
X98805200Y-60184896D01*
X98805200Y-60495104D01*
X98865718Y-60799352D01*
X98984430Y-61085948D01*
X99156773Y-61343877D01*
X99376123Y-61563227D01*
X99446124Y-61610000D01*
X99376123Y-61656773D01*
X99156773Y-61876123D01*
X98984430Y-62134052D01*
X98865718Y-62420648D01*
X98805200Y-62724896D01*
X98805200Y-63035104D01*
X98865718Y-63339352D01*
X98984430Y-63625948D01*
X99156773Y-63883877D01*
X99376123Y-64103227D01*
X99512714Y-64194495D01*
X99467129Y-64327524D01*
X100380000Y-65240395D01*
X101292871Y-64327524D01*
X101247286Y-64194495D01*
X101383877Y-64103227D01*
X101603227Y-63883877D01*
X101775570Y-63625948D01*
X101894282Y-63339352D01*
X101954800Y-63035104D01*
X101954800Y-62724896D01*
X101894282Y-62420648D01*
X101775570Y-62134052D01*
X101603227Y-61876123D01*
X101383877Y-61656773D01*
X101313876Y-61610000D01*
X101383877Y-61563227D01*
X101603227Y-61343877D01*
X101775570Y-61085948D01*
X101894282Y-60799352D01*
X101954800Y-60495104D01*
X101954800Y-60184896D01*
X101894282Y-59880648D01*
X101775570Y-59594052D01*
X101603227Y-59336123D01*
X101383877Y-59116773D01*
X101313876Y-59070000D01*
X101383877Y-59023227D01*
X101603227Y-58803877D01*
X101775570Y-58545948D01*
X101894282Y-58259352D01*
X101954800Y-57955104D01*
X101954800Y-57644896D01*
X101894282Y-57340648D01*
X101775570Y-57054052D01*
X101630024Y-56836228D01*
X101714977Y-56841084D01*
X102022184Y-56798027D01*
X102315086Y-56695865D01*
X102474377Y-56610723D01*
X102562871Y-56352476D01*
X103277129Y-56352476D01*
X103365623Y-56610723D01*
X103644976Y-56745597D01*
X103945275Y-56823381D01*
X104254977Y-56841084D01*
X104562184Y-56798027D01*
X104855086Y-56695865D01*
X105014377Y-56610723D01*
X105102871Y-56352476D01*
X104190000Y-55439605D01*
X103277129Y-56352476D01*
X102562871Y-56352476D01*
X101650000Y-55439605D01*
X101635858Y-55453748D01*
X101456253Y-55274143D01*
X101470395Y-55260000D01*
X101829605Y-55260000D01*
X102742476Y-56172871D01*
X102920000Y-56112039D01*
X103097524Y-56172871D01*
X104010395Y-55260000D01*
X104369605Y-55260000D01*
X105282476Y-56172871D01*
X105415505Y-56127286D01*
X105506773Y-56263877D01*
X105695000Y-56452104D01*
X105695001Y-58179162D01*
X105689994Y-58230000D01*
X105709977Y-58432895D01*
X105769160Y-58627993D01*
X105865266Y-58807797D01*
X105962197Y-58925907D01*
X105994605Y-58965396D01*
X106034092Y-58997802D01*
X106732196Y-59695907D01*
X106764604Y-59735396D01*
X106804092Y-59767803D01*
X106922202Y-59864734D01*
X106973674Y-59892246D01*
X107102007Y-59960841D01*
X107297105Y-60020024D01*
X107449162Y-60035000D01*
X107449171Y-60035000D01*
X107499999Y-60040006D01*
X107550827Y-60035000D01*
X112071290Y-60035000D01*
X112665000Y-60628711D01*
X112665001Y-63449162D01*
X112659994Y-63500000D01*
X112679977Y-63702895D01*
X112739160Y-63897993D01*
X112835266Y-64077797D01*
X112932197Y-64195907D01*
X112964605Y-64235396D01*
X113004092Y-64267802D01*
X114045200Y-65308911D01*
X114045200Y-65575104D01*
X114092799Y-65814401D01*
X113922227Y-65559123D01*
X113702877Y-65339773D01*
X113444948Y-65167430D01*
X113158352Y-65048718D01*
X112854104Y-64988200D01*
X112543896Y-64988200D01*
X112239648Y-65048718D01*
X111953052Y-65167430D01*
X111695123Y-65339773D01*
X111475773Y-65559123D01*
X111303430Y-65817052D01*
X111260000Y-65921901D01*
X111260000Y-63478701D01*
X111303937Y-63434764D01*
X111417205Y-63265246D01*
X111495226Y-63076888D01*
X111535000Y-62876929D01*
X111535000Y-62673051D01*
X111495226Y-62473092D01*
X111417205Y-62284734D01*
X111303937Y-62115216D01*
X111159774Y-61971053D01*
X110990256Y-61857785D01*
X110801898Y-61779764D01*
X110601939Y-61739990D01*
X110398061Y-61739990D01*
X110198102Y-61779764D01*
X110009744Y-61857785D01*
X109840226Y-61971053D01*
X109696063Y-62115216D01*
X109582795Y-62284734D01*
X109504774Y-62473092D01*
X109465000Y-62673051D01*
X109465000Y-62876929D01*
X109504774Y-63076888D01*
X109582795Y-63265246D01*
X109696063Y-63434764D01*
X109740001Y-63478702D01*
X109740000Y-68462677D01*
X109736324Y-68500000D01*
X109740000Y-68537322D01*
X109740000Y-68537332D01*
X109750997Y-68648985D01*
X109785788Y-68763676D01*
X109794454Y-68792246D01*
X109865026Y-68924276D01*
X109884411Y-68947896D01*
X109959999Y-69040001D01*
X109989002Y-69063803D01*
X110539200Y-69614002D01*
X110562999Y-69643001D01*
X110678724Y-69737974D01*
X110810753Y-69808546D01*
X110954014Y-69852003D01*
X111065667Y-69863000D01*
X111065675Y-69863000D01*
X111103000Y-69866676D01*
X111140325Y-69863000D01*
X111312819Y-69863000D01*
X111475773Y-70106877D01*
X111695123Y-70326227D01*
X111953052Y-70498570D01*
X112239648Y-70617282D01*
X112543896Y-70677800D01*
X112854104Y-70677800D01*
X113158352Y-70617282D01*
X113444948Y-70498570D01*
X113702877Y-70326227D01*
X113922227Y-70106877D01*
X114094570Y-69848948D01*
X114213282Y-69562352D01*
X114273800Y-69258104D01*
X114273800Y-68947896D01*
X114226201Y-68708599D01*
X114396773Y-68963877D01*
X114616123Y-69183227D01*
X114686124Y-69230000D01*
X114616123Y-69276773D01*
X114396773Y-69496123D01*
X114224430Y-69754052D01*
X114105718Y-70040648D01*
X114045200Y-70344896D01*
X114045200Y-70655104D01*
X114105718Y-70959352D01*
X114224430Y-71245948D01*
X114396773Y-71503877D01*
X114616123Y-71723227D01*
X114686124Y-71770000D01*
X114616123Y-71816773D01*
X114396773Y-72036123D01*
X114224430Y-72294052D01*
X114105718Y-72580648D01*
X114045200Y-72884896D01*
X114045200Y-73195104D01*
X114105718Y-73499352D01*
X114224430Y-73785948D01*
X114396773Y-74043877D01*
X114616123Y-74263227D01*
X114686124Y-74310000D01*
X114616123Y-74356773D01*
X114396773Y-74576123D01*
X114224430Y-74834052D01*
X114105718Y-75120648D01*
X114045200Y-75424896D01*
X114045200Y-75735104D01*
X114105718Y-76039352D01*
X114224430Y-76325948D01*
X114396773Y-76583877D01*
X114616123Y-76803227D01*
X114686124Y-76850000D01*
X114616123Y-76896773D01*
X114396773Y-77116123D01*
X114224430Y-77374052D01*
X114105718Y-77660648D01*
X114045200Y-77964896D01*
X114045200Y-78275104D01*
X114105718Y-78579352D01*
X114224430Y-78865948D01*
X114396773Y-79123877D01*
X114616123Y-79343227D01*
X114686124Y-79390000D01*
X114616123Y-79436773D01*
X114396773Y-79656123D01*
X114224430Y-79914052D01*
X114105718Y-80200648D01*
X114045200Y-80504896D01*
X114045200Y-80815104D01*
X114105718Y-81119352D01*
X114224430Y-81405948D01*
X114396773Y-81663877D01*
X114616123Y-81883227D01*
X114686124Y-81930000D01*
X114616123Y-81976773D01*
X114396773Y-82196123D01*
X114224430Y-82454052D01*
X114105718Y-82740648D01*
X114045200Y-83044896D01*
X114045200Y-83355104D01*
X114105718Y-83659352D01*
X114224430Y-83945948D01*
X114396773Y-84203877D01*
X114616123Y-84423227D01*
X114686124Y-84470000D01*
X114616123Y-84516773D01*
X114396773Y-84736123D01*
X114350000Y-84806124D01*
X114303227Y-84736123D01*
X114083877Y-84516773D01*
X113825948Y-84344430D01*
X113539352Y-84225718D01*
X113235104Y-84165200D01*
X112924896Y-84165200D01*
X112620648Y-84225718D01*
X112334052Y-84344430D01*
X112076123Y-84516773D01*
X111856773Y-84736123D01*
X111810000Y-84806124D01*
X111763227Y-84736123D01*
X111543877Y-84516773D01*
X111285948Y-84344430D01*
X110999352Y-84225718D01*
X110695104Y-84165200D01*
X110384896Y-84165200D01*
X110080648Y-84225718D01*
X109794052Y-84344430D01*
X109536123Y-84516773D01*
X109316773Y-84736123D01*
X109225505Y-84872714D01*
X109092476Y-84827129D01*
X108179605Y-85740000D01*
X109092476Y-86652871D01*
X109225505Y-86607286D01*
X109316773Y-86743877D01*
X109536123Y-86963227D01*
X109794052Y-87135570D01*
X110080648Y-87254282D01*
X110384896Y-87314800D01*
X110695104Y-87314800D01*
X110999352Y-87254282D01*
X111285948Y-87135570D01*
X111543877Y-86963227D01*
X111763227Y-86743877D01*
X111810000Y-86673876D01*
X111856773Y-86743877D01*
X112076123Y-86963227D01*
X112334052Y-87135570D01*
X112620648Y-87254282D01*
X112924896Y-87314800D01*
X113235104Y-87314800D01*
X113539352Y-87254282D01*
X113825948Y-87135570D01*
X114083877Y-86963227D01*
X114303227Y-86743877D01*
X114350000Y-86673876D01*
X114396773Y-86743877D01*
X114616123Y-86963227D01*
X114874052Y-87135570D01*
X115160648Y-87254282D01*
X115464896Y-87314800D01*
X115775104Y-87314800D01*
X116079352Y-87254282D01*
X116365948Y-87135570D01*
X116623877Y-86963227D01*
X116843227Y-86743877D01*
X117006181Y-86500000D01*
X131722678Y-86500000D01*
X131760000Y-86503676D01*
X131797322Y-86500000D01*
X131797333Y-86500000D01*
X131908986Y-86489003D01*
X132052247Y-86445546D01*
X132184276Y-86374974D01*
X132300001Y-86280001D01*
X132323803Y-86250998D01*
X133091004Y-85483798D01*
X133120001Y-85460001D01*
X133191401Y-85373000D01*
X133214974Y-85344277D01*
X133285546Y-85212247D01*
X133290785Y-85194976D01*
X133329003Y-85068986D01*
X133340000Y-84957333D01*
X133340000Y-84957324D01*
X133343676Y-84920001D01*
X133340000Y-84882678D01*
X133340000Y-84778178D01*
X133526632Y-84653475D01*
X133733475Y-84446632D01*
X133895990Y-84203411D01*
X134007932Y-83933158D01*
X134065000Y-83646260D01*
X134065000Y-83353740D01*
X134007932Y-83066842D01*
X133895990Y-82796589D01*
X133733475Y-82553368D01*
X133526632Y-82346525D01*
X133283411Y-82184010D01*
X133013158Y-82072068D01*
X132726260Y-82015000D01*
X132433740Y-82015000D01*
X132146842Y-82072068D01*
X131876589Y-82184010D01*
X131633368Y-82346525D01*
X131426525Y-82553368D01*
X131304805Y-82735534D01*
X131235178Y-82618645D01*
X131040269Y-82402412D01*
X130806920Y-82228359D01*
X130544099Y-82103175D01*
X130396890Y-82058524D01*
X130167000Y-82179845D01*
X130167000Y-83373000D01*
X130187000Y-83373000D01*
X130187000Y-83627000D01*
X130167000Y-83627000D01*
X130167000Y-83647000D01*
X129913000Y-83647000D01*
X129913000Y-83627000D01*
X129893000Y-83627000D01*
X129893000Y-83373000D01*
X129913000Y-83373000D01*
X129913000Y-82179845D01*
X129683110Y-82058524D01*
X129535901Y-82103175D01*
X129273080Y-82228359D01*
X129039731Y-82402412D01*
X128963966Y-82486466D01*
X128939502Y-82405820D01*
X128880537Y-82295506D01*
X128801185Y-82198815D01*
X128704494Y-82119463D01*
X128594180Y-82060498D01*
X128474482Y-82024188D01*
X128350000Y-82011928D01*
X126650000Y-82011928D01*
X126525518Y-82024188D01*
X126405820Y-82060498D01*
X126295506Y-82119463D01*
X126198815Y-82198815D01*
X126119463Y-82295506D01*
X126060498Y-82405820D01*
X126024188Y-82525518D01*
X126011928Y-82650000D01*
X126011928Y-82740000D01*
X117134014Y-82740000D01*
X117015570Y-82454052D01*
X116843227Y-82196123D01*
X116623877Y-81976773D01*
X116553876Y-81930000D01*
X116623877Y-81883227D01*
X116843227Y-81663877D01*
X117006181Y-81420000D01*
X131302678Y-81420000D01*
X131340000Y-81423676D01*
X131377322Y-81420000D01*
X131377333Y-81420000D01*
X131488986Y-81409003D01*
X131632247Y-81365546D01*
X131764276Y-81294974D01*
X131880001Y-81200001D01*
X131896415Y-81180000D01*
X136681822Y-81180000D01*
X136806525Y-81366632D01*
X137013368Y-81573475D01*
X137187760Y-81690000D01*
X137013368Y-81806525D01*
X136806525Y-82013368D01*
X136644010Y-82256589D01*
X136532068Y-82526842D01*
X136475000Y-82813740D01*
X136475000Y-83106260D01*
X136532068Y-83393158D01*
X136644010Y-83663411D01*
X136806525Y-83906632D01*
X137013368Y-84113475D01*
X137187760Y-84230000D01*
X137013368Y-84346525D01*
X136806525Y-84553368D01*
X136644010Y-84796589D01*
X136532068Y-85066842D01*
X136475000Y-85353740D01*
X136475000Y-85646260D01*
X136532068Y-85933158D01*
X136644010Y-86203411D01*
X136806525Y-86446632D01*
X137013368Y-86653475D01*
X137256589Y-86815990D01*
X137526842Y-86927932D01*
X137813740Y-86985000D01*
X138106260Y-86985000D01*
X138393158Y-86927932D01*
X138663411Y-86815990D01*
X138906632Y-86653475D01*
X139038487Y-86521620D01*
X139060498Y-86594180D01*
X139119463Y-86704494D01*
X139198815Y-86801185D01*
X139295506Y-86880537D01*
X139405820Y-86939502D01*
X139525518Y-86975812D01*
X139650000Y-86988072D01*
X140214250Y-86985000D01*
X140373000Y-86826250D01*
X140373000Y-85627000D01*
X140627000Y-85627000D01*
X140627000Y-86826250D01*
X140785750Y-86985000D01*
X141350000Y-86988072D01*
X141474482Y-86975812D01*
X141594180Y-86939502D01*
X141704494Y-86880537D01*
X141801185Y-86801185D01*
X141880537Y-86704494D01*
X141939502Y-86594180D01*
X141975812Y-86474482D01*
X141988072Y-86350000D01*
X141985000Y-85785750D01*
X141826250Y-85627000D01*
X140627000Y-85627000D01*
X140373000Y-85627000D01*
X140353000Y-85627000D01*
X140353000Y-85373000D01*
X140373000Y-85373000D01*
X140373000Y-85353000D01*
X140627000Y-85353000D01*
X140627000Y-85373000D01*
X141826250Y-85373000D01*
X141985000Y-85214250D01*
X141988072Y-84650000D01*
X141975812Y-84525518D01*
X141939502Y-84405820D01*
X141880537Y-84295506D01*
X141801185Y-84198815D01*
X141704494Y-84119463D01*
X141594180Y-84060498D01*
X141521620Y-84038487D01*
X141653475Y-83906632D01*
X141815990Y-83663411D01*
X141927932Y-83393158D01*
X141985000Y-83106260D01*
X141985000Y-82813740D01*
X141927932Y-82526842D01*
X141815990Y-82256589D01*
X141653475Y-82013368D01*
X141446632Y-81806525D01*
X141272240Y-81690000D01*
X141446632Y-81573475D01*
X141561885Y-81458222D01*
X141580000Y-81460006D01*
X141630828Y-81455000D01*
X141630838Y-81455000D01*
X141782895Y-81440024D01*
X141977993Y-81380841D01*
X142157797Y-81284734D01*
X142315396Y-81155396D01*
X142347807Y-81115903D01*
X143195908Y-80267803D01*
X143235396Y-80235396D01*
X143240001Y-80229785D01*
X143240001Y-83462667D01*
X143236324Y-83500000D01*
X143240001Y-83537333D01*
X143250998Y-83648986D01*
X143255374Y-83663411D01*
X143294454Y-83792246D01*
X143365026Y-83924276D01*
X143390914Y-83955820D01*
X143460000Y-84040001D01*
X143488998Y-84063799D01*
X144936201Y-85511003D01*
X144959999Y-85540001D01*
X145075724Y-85634974D01*
X145207753Y-85705546D01*
X145351014Y-85749003D01*
X145462667Y-85760000D01*
X145462676Y-85760000D01*
X145499999Y-85763676D01*
X145537322Y-85760000D01*
X146041957Y-85760000D01*
X146145363Y-85914759D01*
X146345241Y-86114637D01*
X146580273Y-86271680D01*
X146841426Y-86379853D01*
X147118665Y-86435000D01*
X147401335Y-86435000D01*
X147678574Y-86379853D01*
X147939727Y-86271680D01*
X148174759Y-86114637D01*
X148374637Y-85914759D01*
X148531680Y-85679727D01*
X148639853Y-85418574D01*
X148695000Y-85141335D01*
X148695000Y-84858665D01*
X148639853Y-84581426D01*
X148531680Y-84320273D01*
X148374637Y-84085241D01*
X148174759Y-83885363D01*
X147939727Y-83728320D01*
X147929135Y-83723933D01*
X148115131Y-83612385D01*
X148323519Y-83423414D01*
X148491037Y-83197420D01*
X148611246Y-82943087D01*
X148651904Y-82809039D01*
X148529915Y-82587000D01*
X147387000Y-82587000D01*
X147387000Y-82607000D01*
X147133000Y-82607000D01*
X147133000Y-82587000D01*
X145990085Y-82587000D01*
X145868096Y-82809039D01*
X145908754Y-82943087D01*
X146028963Y-83197420D01*
X146196481Y-83423414D01*
X146404869Y-83612385D01*
X146590865Y-83723933D01*
X146580273Y-83728320D01*
X146345241Y-83885363D01*
X146145363Y-84085241D01*
X146041957Y-84240000D01*
X145814802Y-84240000D01*
X144760000Y-83185199D01*
X144760000Y-60537333D01*
X144763677Y-60500000D01*
X144749003Y-60351014D01*
X144705546Y-60207753D01*
X144634974Y-60075724D01*
X144563799Y-59988997D01*
X144540001Y-59959999D01*
X144511004Y-59936202D01*
X141863804Y-57289003D01*
X141840001Y-57259999D01*
X141724276Y-57165026D01*
X141592247Y-57094454D01*
X141448986Y-57050997D01*
X141337333Y-57040000D01*
X141337322Y-57040000D01*
X141300000Y-57036324D01*
X141262678Y-57040000D01*
X117006181Y-57040000D01*
X116843227Y-56796123D01*
X116623877Y-56576773D01*
X116365948Y-56404430D01*
X116079352Y-56285718D01*
X115775104Y-56225200D01*
X115599070Y-56225200D01*
X115745570Y-56005948D01*
X115864282Y-55719352D01*
X115924800Y-55415104D01*
X115924800Y-55104896D01*
X115864282Y-54800648D01*
X115745570Y-54514052D01*
X115573227Y-54256123D01*
X115353877Y-54036773D01*
X115095948Y-53864430D01*
X114809352Y-53745718D01*
X114505104Y-53685200D01*
X114194896Y-53685200D01*
X113890648Y-53745718D01*
X113604052Y-53864430D01*
X113346123Y-54036773D01*
X113126773Y-54256123D01*
X113080000Y-54326124D01*
X113033227Y-54256123D01*
X112813877Y-54036773D01*
X112555948Y-53864430D01*
X112269352Y-53745718D01*
X111965104Y-53685200D01*
X111654896Y-53685200D01*
X111350648Y-53745718D01*
X111064052Y-53864430D01*
X110806123Y-54036773D01*
X110586773Y-54256123D01*
X110540000Y-54326124D01*
X110493227Y-54256123D01*
X110273877Y-54036773D01*
X110015948Y-53864430D01*
X109729352Y-53745718D01*
X109425104Y-53685200D01*
X109114896Y-53685200D01*
X108810648Y-53745718D01*
X108524052Y-53864430D01*
X108266123Y-54036773D01*
X108046773Y-54256123D01*
X108000000Y-54326124D01*
X107953227Y-54256123D01*
X107733877Y-54036773D01*
X107475948Y-53864430D01*
X107189352Y-53745718D01*
X106885104Y-53685200D01*
X106574896Y-53685200D01*
X106270648Y-53745718D01*
X105984052Y-53864430D01*
X105726123Y-54036773D01*
X105506773Y-54256123D01*
X105415505Y-54392714D01*
X105282476Y-54347129D01*
X104369605Y-55260000D01*
X104010395Y-55260000D01*
X103097524Y-54347129D01*
X102920000Y-54407961D01*
X102742476Y-54347129D01*
X101829605Y-55260000D01*
X101470395Y-55260000D01*
X100557524Y-54347129D01*
X100299277Y-54435623D01*
X100164403Y-54714976D01*
X100086619Y-55015275D01*
X100068916Y-55324977D01*
X100111973Y-55632184D01*
X100214135Y-55925086D01*
X100299277Y-56084377D01*
X100557522Y-56172870D01*
X100505192Y-56225200D01*
X100224896Y-56225200D01*
X99920648Y-56285718D01*
X99634052Y-56404430D01*
X99376123Y-56576773D01*
X99156773Y-56796123D01*
X98984430Y-57054052D01*
X98865718Y-57340648D01*
X98805200Y-57644896D01*
X80660000Y-57644896D01*
X80660000Y-54167524D01*
X100737129Y-54167524D01*
X101650000Y-55080395D01*
X102562871Y-54167524D01*
X103277129Y-54167524D01*
X104190000Y-55080395D01*
X105102871Y-54167524D01*
X105014377Y-53909277D01*
X104735024Y-53774403D01*
X104434725Y-53696619D01*
X104125023Y-53678916D01*
X103817816Y-53721973D01*
X103524914Y-53824135D01*
X103365623Y-53909277D01*
X103277129Y-54167524D01*
X102562871Y-54167524D01*
X102474377Y-53909277D01*
X102195024Y-53774403D01*
X101894725Y-53696619D01*
X101585023Y-53678916D01*
X101277816Y-53721973D01*
X100984914Y-53824135D01*
X100825623Y-53909277D01*
X100737129Y-54167524D01*
X80660000Y-54167524D01*
X80660000Y-45350000D01*
X103011928Y-45350000D01*
X103024188Y-45474482D01*
X103060498Y-45594180D01*
X103119463Y-45704494D01*
X103198815Y-45801185D01*
X103295506Y-45880537D01*
X103405820Y-45939502D01*
X103525518Y-45975812D01*
X103650000Y-45988072D01*
X104214250Y-45985000D01*
X104373000Y-45826250D01*
X104373000Y-44627000D01*
X103173750Y-44627000D01*
X103015000Y-44785750D01*
X103011928Y-45350000D01*
X80660000Y-45350000D01*
X80660000Y-43650000D01*
X103011928Y-43650000D01*
X103015000Y-44214250D01*
X103173750Y-44373000D01*
X104373000Y-44373000D01*
X104373000Y-43173750D01*
X104627000Y-43173750D01*
X104627000Y-44373000D01*
X104647000Y-44373000D01*
X104647000Y-44627000D01*
X104627000Y-44627000D01*
X104627000Y-45826250D01*
X104785750Y-45985000D01*
X105350000Y-45988072D01*
X105474482Y-45975812D01*
X105594180Y-45939502D01*
X105704494Y-45880537D01*
X105801185Y-45801185D01*
X105880537Y-45704494D01*
X105939502Y-45594180D01*
X105961513Y-45521620D01*
X106093368Y-45653475D01*
X106336589Y-45815990D01*
X106606842Y-45927932D01*
X106893740Y-45985000D01*
X107186260Y-45985000D01*
X107473158Y-45927932D01*
X107743411Y-45815990D01*
X107986632Y-45653475D01*
X108193475Y-45446632D01*
X108310000Y-45272240D01*
X108426525Y-45446632D01*
X108633368Y-45653475D01*
X108820000Y-45778179D01*
X108820000Y-46542677D01*
X108816324Y-46580000D01*
X108820000Y-46617322D01*
X108820000Y-46617332D01*
X108830997Y-46728985D01*
X108864741Y-46840226D01*
X108874454Y-46872246D01*
X108945026Y-47004276D01*
X108949514Y-47009744D01*
X109039999Y-47120001D01*
X109069002Y-47143803D01*
X109936205Y-48011008D01*
X109959999Y-48040001D01*
X109988992Y-48063795D01*
X109988996Y-48063799D01*
X110059685Y-48121811D01*
X110075724Y-48134974D01*
X110207753Y-48205546D01*
X110351014Y-48249003D01*
X110462667Y-48260000D01*
X110462676Y-48260000D01*
X110499999Y-48263676D01*
X110537322Y-48260000D01*
X112796289Y-48260000D01*
X112840226Y-48303937D01*
X113009744Y-48417205D01*
X113198102Y-48495226D01*
X113398061Y-48535000D01*
X113601939Y-48535000D01*
X113801898Y-48495226D01*
X113990256Y-48417205D01*
X114159774Y-48303937D01*
X114303937Y-48159774D01*
X114417205Y-47990256D01*
X114495226Y-47801898D01*
X114535000Y-47601939D01*
X114535000Y-47398061D01*
X114495226Y-47198102D01*
X114417205Y-47009744D01*
X114303937Y-46840226D01*
X114159774Y-46696063D01*
X113990256Y-46582795D01*
X113801898Y-46504774D01*
X113601939Y-46465000D01*
X113398061Y-46465000D01*
X113198102Y-46504774D01*
X113009744Y-46582795D01*
X112840226Y-46696063D01*
X112796289Y-46740000D01*
X110814802Y-46740000D01*
X110340000Y-46265198D01*
X110340000Y-45778178D01*
X110526632Y-45653475D01*
X110733475Y-45446632D01*
X110850000Y-45272240D01*
X110966525Y-45446632D01*
X111173368Y-45653475D01*
X111416589Y-45815990D01*
X111686842Y-45927932D01*
X111973740Y-45985000D01*
X112266260Y-45985000D01*
X112553158Y-45927932D01*
X112823411Y-45815990D01*
X113066632Y-45653475D01*
X113273475Y-45446632D01*
X113390000Y-45272240D01*
X113506525Y-45446632D01*
X113713368Y-45653475D01*
X113956589Y-45815990D01*
X114226842Y-45927932D01*
X114513740Y-45985000D01*
X114806260Y-45985000D01*
X115093158Y-45927932D01*
X115363411Y-45815990D01*
X115606632Y-45653475D01*
X115725107Y-45535000D01*
X116134893Y-45535000D01*
X116253368Y-45653475D01*
X116496589Y-45815990D01*
X116766842Y-45927932D01*
X117053740Y-45985000D01*
X117346260Y-45985000D01*
X117633158Y-45927932D01*
X117903411Y-45815990D01*
X118146632Y-45653475D01*
X118265107Y-45535000D01*
X141465001Y-45535000D01*
X141465000Y-49949172D01*
X141459994Y-50000000D01*
X141465000Y-50050828D01*
X141465000Y-50050837D01*
X141479976Y-50202894D01*
X141539159Y-50397992D01*
X141635266Y-50577797D01*
X141764604Y-50735396D01*
X141804097Y-50767807D01*
X143712197Y-52675908D01*
X143744604Y-52715396D01*
X143784092Y-52747803D01*
X143902202Y-52844734D01*
X143995793Y-52894759D01*
X144082007Y-52940841D01*
X144277105Y-53000024D01*
X144429162Y-53015000D01*
X144429165Y-53015000D01*
X144480000Y-53020007D01*
X144530835Y-53015000D01*
X146265604Y-53015000D01*
X146345241Y-53094637D01*
X146577759Y-53250000D01*
X146345241Y-53405363D01*
X146145363Y-53605241D01*
X145988320Y-53840273D01*
X145880147Y-54101426D01*
X145825000Y-54378665D01*
X145825000Y-54661335D01*
X145880147Y-54938574D01*
X145988320Y-55199727D01*
X146145363Y-55434759D01*
X146345241Y-55634637D01*
X146577759Y-55790000D01*
X146345241Y-55945363D01*
X146145363Y-56145241D01*
X145988320Y-56380273D01*
X145880147Y-56641426D01*
X145825000Y-56918665D01*
X145825000Y-57201335D01*
X145880147Y-57478574D01*
X145988320Y-57739727D01*
X146145363Y-57974759D01*
X146345241Y-58174637D01*
X146577759Y-58330000D01*
X146345241Y-58485363D01*
X146145363Y-58685241D01*
X145988320Y-58920273D01*
X145880147Y-59181426D01*
X145825000Y-59458665D01*
X145825000Y-59741335D01*
X145880147Y-60018574D01*
X145988320Y-60279727D01*
X146145363Y-60514759D01*
X146345241Y-60714637D01*
X146577759Y-60870000D01*
X146345241Y-61025363D01*
X146145363Y-61225241D01*
X145988320Y-61460273D01*
X145880147Y-61721426D01*
X145825000Y-61998665D01*
X145825000Y-62281335D01*
X145880147Y-62558574D01*
X145988320Y-62819727D01*
X146145363Y-63054759D01*
X146345241Y-63254637D01*
X146577759Y-63410000D01*
X146345241Y-63565363D01*
X146145363Y-63765241D01*
X145988320Y-64000273D01*
X145880147Y-64261426D01*
X145825000Y-64538665D01*
X145825000Y-64821335D01*
X145880147Y-65098574D01*
X145988320Y-65359727D01*
X146145363Y-65594759D01*
X146345241Y-65794637D01*
X146577759Y-65950000D01*
X146345241Y-66105363D01*
X146145363Y-66305241D01*
X145988320Y-66540273D01*
X145880147Y-66801426D01*
X145825000Y-67078665D01*
X145825000Y-67361335D01*
X145880147Y-67638574D01*
X145988320Y-67899727D01*
X146145363Y-68134759D01*
X146345241Y-68334637D01*
X146577759Y-68490000D01*
X146345241Y-68645363D01*
X146145363Y-68845241D01*
X145988320Y-69080273D01*
X145880147Y-69341426D01*
X145825000Y-69618665D01*
X145825000Y-69901335D01*
X145880147Y-70178574D01*
X145988320Y-70439727D01*
X146145363Y-70674759D01*
X146345241Y-70874637D01*
X146577759Y-71030000D01*
X146345241Y-71185363D01*
X146145363Y-71385241D01*
X145988320Y-71620273D01*
X145880147Y-71881426D01*
X145825000Y-72158665D01*
X145825000Y-72441335D01*
X145880147Y-72718574D01*
X145988320Y-72979727D01*
X146145363Y-73214759D01*
X146345241Y-73414637D01*
X146577759Y-73570000D01*
X146345241Y-73725363D01*
X146145363Y-73925241D01*
X145988320Y-74160273D01*
X145880147Y-74421426D01*
X145825000Y-74698665D01*
X145825000Y-74981335D01*
X145880147Y-75258574D01*
X145988320Y-75519727D01*
X146145363Y-75754759D01*
X146345241Y-75954637D01*
X146577759Y-76110000D01*
X146345241Y-76265363D01*
X146145363Y-76465241D01*
X145988320Y-76700273D01*
X145880147Y-76961426D01*
X145825000Y-77238665D01*
X145825000Y-77521335D01*
X145880147Y-77798574D01*
X145988320Y-78059727D01*
X146145363Y-78294759D01*
X146345241Y-78494637D01*
X146577759Y-78650000D01*
X146345241Y-78805363D01*
X146145363Y-79005241D01*
X145988320Y-79240273D01*
X145880147Y-79501426D01*
X145825000Y-79778665D01*
X145825000Y-80061335D01*
X145880147Y-80338574D01*
X145988320Y-80599727D01*
X146145363Y-80834759D01*
X146345241Y-81034637D01*
X146580273Y-81191680D01*
X146590865Y-81196067D01*
X146404869Y-81307615D01*
X146196481Y-81496586D01*
X146028963Y-81722580D01*
X145908754Y-81976913D01*
X145868096Y-82110961D01*
X145990085Y-82333000D01*
X147133000Y-82333000D01*
X147133000Y-82313000D01*
X147387000Y-82313000D01*
X147387000Y-82333000D01*
X148529915Y-82333000D01*
X148651904Y-82110961D01*
X148611246Y-81976913D01*
X148491037Y-81722580D01*
X148323519Y-81496586D01*
X148115131Y-81307615D01*
X147929135Y-81196067D01*
X147939727Y-81191680D01*
X148174759Y-81034637D01*
X148374637Y-80834759D01*
X148531680Y-80599727D01*
X148639853Y-80338574D01*
X148695000Y-80061335D01*
X148695000Y-79778665D01*
X148639853Y-79501426D01*
X148531680Y-79240273D01*
X148374637Y-79005241D01*
X148174759Y-78805363D01*
X147942241Y-78650000D01*
X148174759Y-78494637D01*
X148254396Y-78415000D01*
X152951290Y-78415000D01*
X153965001Y-79428712D01*
X153965000Y-83949172D01*
X153959994Y-84000000D01*
X153965000Y-84050828D01*
X153965000Y-84050837D01*
X153979976Y-84202894D01*
X154039159Y-84397992D01*
X154135266Y-84577797D01*
X154264604Y-84735396D01*
X154304097Y-84767807D01*
X158232197Y-88695908D01*
X158264604Y-88735396D01*
X158304092Y-88767803D01*
X158422202Y-88864734D01*
X158518309Y-88916104D01*
X158602007Y-88960841D01*
X158797105Y-89020024D01*
X158949162Y-89035000D01*
X158949171Y-89035000D01*
X158999999Y-89040006D01*
X159050827Y-89035000D01*
X165949172Y-89035000D01*
X166000000Y-89040006D01*
X166050828Y-89035000D01*
X166050838Y-89035000D01*
X166202895Y-89020024D01*
X166397993Y-88960841D01*
X166577797Y-88864734D01*
X166735396Y-88735396D01*
X166767807Y-88695903D01*
X169195908Y-86267803D01*
X169235396Y-86235396D01*
X169277841Y-86183677D01*
X169364734Y-86077798D01*
X169460840Y-85897994D01*
X169460841Y-85897993D01*
X169520024Y-85702895D01*
X169535000Y-85550838D01*
X169535000Y-85550836D01*
X169540007Y-85500000D01*
X169535000Y-85449165D01*
X169535000Y-65929527D01*
X169564850Y-65920472D01*
X169718386Y-65838405D01*
X169852962Y-65727962D01*
X169963405Y-65593386D01*
X170045472Y-65439850D01*
X170096008Y-65273254D01*
X170113072Y-65100000D01*
X170113072Y-63900000D01*
X170096008Y-63726746D01*
X170045472Y-63560150D01*
X169963405Y-63406614D01*
X169852962Y-63272038D01*
X169718386Y-63161595D01*
X169616663Y-63107223D01*
X169680134Y-63055134D01*
X169865706Y-62829014D01*
X170003599Y-62571034D01*
X170088513Y-62291111D01*
X170117185Y-62000000D01*
X170088513Y-61708889D01*
X170003599Y-61428966D01*
X169865706Y-61170986D01*
X169680134Y-60944866D01*
X169454014Y-60759294D01*
X169436626Y-60750000D01*
X169454014Y-60740706D01*
X169680134Y-60555134D01*
X169865706Y-60329014D01*
X170003599Y-60071034D01*
X170088513Y-59791111D01*
X170117185Y-59500000D01*
X170088513Y-59208889D01*
X170003599Y-58928966D01*
X169865706Y-58670986D01*
X169680134Y-58444866D01*
X169454014Y-58259294D01*
X169428278Y-58245538D01*
X169634429Y-58089049D01*
X169827496Y-57871193D01*
X169974352Y-57619858D01*
X170066476Y-57356890D01*
X169945155Y-57127000D01*
X168627000Y-57127000D01*
X168627000Y-57147000D01*
X168373000Y-57147000D01*
X168373000Y-57127000D01*
X167054845Y-57127000D01*
X166933524Y-57356890D01*
X167025648Y-57619858D01*
X167172504Y-57871193D01*
X167365571Y-58089049D01*
X167571722Y-58245538D01*
X167545986Y-58259294D01*
X167319866Y-58444866D01*
X167134294Y-58670986D01*
X167043954Y-58840000D01*
X163718043Y-58840000D01*
X163614637Y-58685241D01*
X163414759Y-58485363D01*
X163182241Y-58330000D01*
X163414759Y-58174637D01*
X163614637Y-57974759D01*
X163771680Y-57739727D01*
X163879853Y-57478574D01*
X163935000Y-57201335D01*
X163935000Y-56918665D01*
X163880188Y-56643110D01*
X166933524Y-56643110D01*
X167054845Y-56873000D01*
X168373000Y-56873000D01*
X168373000Y-55673835D01*
X168627000Y-55673835D01*
X168627000Y-56873000D01*
X169945155Y-56873000D01*
X170066476Y-56643110D01*
X169974352Y-56380142D01*
X169827496Y-56128807D01*
X169634429Y-55910951D01*
X169402570Y-55734947D01*
X169140830Y-55607558D01*
X168859267Y-55533680D01*
X168627000Y-55673835D01*
X168373000Y-55673835D01*
X168140733Y-55533680D01*
X167859170Y-55607558D01*
X167597430Y-55734947D01*
X167365571Y-55910951D01*
X167172504Y-56128807D01*
X167025648Y-56380142D01*
X166933524Y-56643110D01*
X163880188Y-56643110D01*
X163879853Y-56641426D01*
X163771680Y-56380273D01*
X163614637Y-56145241D01*
X163414759Y-55945363D01*
X163182241Y-55790000D01*
X163414759Y-55634637D01*
X163614637Y-55434759D01*
X163771680Y-55199727D01*
X163879853Y-54938574D01*
X163935000Y-54661335D01*
X163935000Y-54378665D01*
X163879853Y-54101426D01*
X163771680Y-53840273D01*
X163614637Y-53605241D01*
X163414759Y-53405363D01*
X163182241Y-53250000D01*
X163414759Y-53094637D01*
X163614637Y-52894759D01*
X163771680Y-52659727D01*
X163879853Y-52398574D01*
X163935000Y-52121335D01*
X163935000Y-51838665D01*
X163879853Y-51561426D01*
X163771680Y-51300273D01*
X163614637Y-51065241D01*
X163414759Y-50865363D01*
X163182241Y-50710000D01*
X163414759Y-50554637D01*
X163614637Y-50354759D01*
X163771680Y-50119727D01*
X163879853Y-49858574D01*
X163935000Y-49581335D01*
X163935000Y-49298665D01*
X163879853Y-49021426D01*
X163771680Y-48760273D01*
X163614637Y-48525241D01*
X163414759Y-48325363D01*
X163179727Y-48168320D01*
X162918574Y-48060147D01*
X162641335Y-48005000D01*
X162358665Y-48005000D01*
X162081426Y-48060147D01*
X161820273Y-48168320D01*
X161585241Y-48325363D01*
X161385363Y-48525241D01*
X161228320Y-48760273D01*
X161120147Y-49021426D01*
X161065000Y-49298665D01*
X161065000Y-49581335D01*
X161120147Y-49858574D01*
X161228320Y-50119727D01*
X161385363Y-50354759D01*
X161585241Y-50554637D01*
X161817759Y-50710000D01*
X161585241Y-50865363D01*
X161385363Y-51065241D01*
X161228320Y-51300273D01*
X161120147Y-51561426D01*
X161065000Y-51838665D01*
X161065000Y-52121335D01*
X161120147Y-52398574D01*
X161228320Y-52659727D01*
X161385363Y-52894759D01*
X161585241Y-53094637D01*
X161817759Y-53250000D01*
X161585241Y-53405363D01*
X161385363Y-53605241D01*
X161228320Y-53840273D01*
X161120147Y-54101426D01*
X161065000Y-54378665D01*
X161065000Y-54661335D01*
X161120147Y-54938574D01*
X161228320Y-55199727D01*
X161385363Y-55434759D01*
X161585241Y-55634637D01*
X161817759Y-55790000D01*
X161585241Y-55945363D01*
X161385363Y-56145241D01*
X161228320Y-56380273D01*
X161120147Y-56641426D01*
X161065000Y-56918665D01*
X161065000Y-57201335D01*
X161120147Y-57478574D01*
X161228320Y-57739727D01*
X161385363Y-57974759D01*
X161585241Y-58174637D01*
X161817759Y-58330000D01*
X161585241Y-58485363D01*
X161385363Y-58685241D01*
X161228320Y-58920273D01*
X161120147Y-59181426D01*
X161065000Y-59458665D01*
X161065000Y-59741335D01*
X161120147Y-60018574D01*
X161228320Y-60279727D01*
X161385363Y-60514759D01*
X161585241Y-60714637D01*
X161817759Y-60870000D01*
X161585241Y-61025363D01*
X161385363Y-61225241D01*
X161228320Y-61460273D01*
X161120147Y-61721426D01*
X161065000Y-61998665D01*
X161065000Y-62281335D01*
X161120147Y-62558574D01*
X161228320Y-62819727D01*
X161385363Y-63054759D01*
X161585241Y-63254637D01*
X161817759Y-63410000D01*
X161585241Y-63565363D01*
X161385363Y-63765241D01*
X161228320Y-64000273D01*
X161120147Y-64261426D01*
X161065000Y-64538665D01*
X161065000Y-64821335D01*
X161120147Y-65098574D01*
X161228320Y-65359727D01*
X161385363Y-65594759D01*
X161585241Y-65794637D01*
X161817759Y-65950000D01*
X161585241Y-66105363D01*
X161385363Y-66305241D01*
X161228320Y-66540273D01*
X161120147Y-66801426D01*
X161065000Y-67078665D01*
X161065000Y-67361335D01*
X161120147Y-67638574D01*
X161228320Y-67899727D01*
X161385363Y-68134759D01*
X161585241Y-68334637D01*
X161817759Y-68490000D01*
X161585241Y-68645363D01*
X161385363Y-68845241D01*
X161228320Y-69080273D01*
X161120147Y-69341426D01*
X161065000Y-69618665D01*
X161065000Y-69901335D01*
X161120147Y-70178574D01*
X161228320Y-70439727D01*
X161385363Y-70674759D01*
X161585241Y-70874637D01*
X161817759Y-71030000D01*
X161585241Y-71185363D01*
X161385363Y-71385241D01*
X161228320Y-71620273D01*
X161120147Y-71881426D01*
X161065000Y-72158665D01*
X161065000Y-72441335D01*
X161120147Y-72718574D01*
X161228320Y-72979727D01*
X161385363Y-73214759D01*
X161585241Y-73414637D01*
X161817759Y-73570000D01*
X161585241Y-73725363D01*
X161385363Y-73925241D01*
X161228320Y-74160273D01*
X161120147Y-74421426D01*
X161065000Y-74698665D01*
X161065000Y-74981335D01*
X161120147Y-75258574D01*
X161228320Y-75519727D01*
X161385363Y-75754759D01*
X161585241Y-75954637D01*
X161820273Y-76111680D01*
X161830865Y-76116067D01*
X161644869Y-76227615D01*
X161436481Y-76416586D01*
X161268963Y-76642580D01*
X161148754Y-76896913D01*
X161108096Y-77030961D01*
X161230085Y-77253000D01*
X162373000Y-77253000D01*
X162373000Y-77233000D01*
X162627000Y-77233000D01*
X162627000Y-77253000D01*
X163769915Y-77253000D01*
X163891904Y-77030961D01*
X163851246Y-76896913D01*
X163731037Y-76642580D01*
X163563519Y-76416586D01*
X163355131Y-76227615D01*
X163169135Y-76116067D01*
X163179727Y-76111680D01*
X163414759Y-75954637D01*
X163614637Y-75754759D01*
X163771680Y-75519727D01*
X163879853Y-75258574D01*
X163935000Y-74981335D01*
X163935000Y-74698665D01*
X163879853Y-74421426D01*
X163771680Y-74160273D01*
X163614637Y-73925241D01*
X163414759Y-73725363D01*
X163182241Y-73570000D01*
X163414759Y-73414637D01*
X163614637Y-73214759D01*
X163771680Y-72979727D01*
X163879853Y-72718574D01*
X163935000Y-72441335D01*
X163935000Y-72158665D01*
X163879853Y-71881426D01*
X163771680Y-71620273D01*
X163614637Y-71385241D01*
X163414759Y-71185363D01*
X163182241Y-71030000D01*
X163414759Y-70874637D01*
X163614637Y-70674759D01*
X163771680Y-70439727D01*
X163879853Y-70178574D01*
X163935000Y-69901335D01*
X163935000Y-69618665D01*
X163879853Y-69341426D01*
X163771680Y-69080273D01*
X163614637Y-68845241D01*
X163414759Y-68645363D01*
X163182241Y-68490000D01*
X163414759Y-68334637D01*
X163614637Y-68134759D01*
X163771680Y-67899727D01*
X163879853Y-67638574D01*
X163935000Y-67361335D01*
X163935000Y-67078665D01*
X163879853Y-66801426D01*
X163771680Y-66540273D01*
X163614637Y-66305241D01*
X163414759Y-66105363D01*
X163182241Y-65950000D01*
X163414759Y-65794637D01*
X163614637Y-65594759D01*
X163771680Y-65359727D01*
X163879853Y-65098574D01*
X163935000Y-64821335D01*
X163935000Y-64538665D01*
X163879853Y-64261426D01*
X163771680Y-64000273D01*
X163614637Y-63765241D01*
X163414759Y-63565363D01*
X163182241Y-63410000D01*
X163414759Y-63254637D01*
X163614637Y-63054759D01*
X163718043Y-62900000D01*
X167192551Y-62900000D01*
X167319866Y-63055134D01*
X167383337Y-63107223D01*
X167281614Y-63161595D01*
X167147038Y-63272038D01*
X167036595Y-63406614D01*
X166954528Y-63560150D01*
X166903992Y-63726746D01*
X166886928Y-63900000D01*
X166886928Y-65100000D01*
X166903992Y-65273254D01*
X166954528Y-65439850D01*
X167036595Y-65593386D01*
X167147038Y-65727962D01*
X167281614Y-65838405D01*
X167435150Y-65920472D01*
X167465000Y-65929527D01*
X167465001Y-85071288D01*
X165571290Y-86965000D01*
X159428711Y-86965000D01*
X156663711Y-84200000D01*
X161061928Y-84200000D01*
X161061928Y-85800000D01*
X161074188Y-85924482D01*
X161110498Y-86044180D01*
X161169463Y-86154494D01*
X161248815Y-86251185D01*
X161345506Y-86330537D01*
X161455820Y-86389502D01*
X161575518Y-86425812D01*
X161700000Y-86438072D01*
X163300000Y-86438072D01*
X163424482Y-86425812D01*
X163544180Y-86389502D01*
X163654494Y-86330537D01*
X163751185Y-86251185D01*
X163830537Y-86154494D01*
X163889502Y-86044180D01*
X163925812Y-85924482D01*
X163938072Y-85800000D01*
X163938072Y-84200000D01*
X163925812Y-84075518D01*
X163889502Y-83955820D01*
X163830537Y-83845506D01*
X163751185Y-83748815D01*
X163654494Y-83669463D01*
X163544180Y-83610498D01*
X163424482Y-83574188D01*
X163416039Y-83573357D01*
X163614637Y-83374759D01*
X163771680Y-83139727D01*
X163879853Y-82878574D01*
X163935000Y-82601335D01*
X163935000Y-82318665D01*
X163879853Y-82041426D01*
X163771680Y-81780273D01*
X163614637Y-81545241D01*
X163414759Y-81345363D01*
X163182241Y-81190000D01*
X163414759Y-81034637D01*
X163614637Y-80834759D01*
X163771680Y-80599727D01*
X163879853Y-80338574D01*
X163935000Y-80061335D01*
X163935000Y-79778665D01*
X163879853Y-79501426D01*
X163771680Y-79240273D01*
X163614637Y-79005241D01*
X163414759Y-78805363D01*
X163179727Y-78648320D01*
X163169135Y-78643933D01*
X163355131Y-78532385D01*
X163563519Y-78343414D01*
X163731037Y-78117420D01*
X163851246Y-77863087D01*
X163891904Y-77729039D01*
X163769915Y-77507000D01*
X162627000Y-77507000D01*
X162627000Y-77527000D01*
X162373000Y-77527000D01*
X162373000Y-77507000D01*
X161230085Y-77507000D01*
X161108096Y-77729039D01*
X161148754Y-77863087D01*
X161268963Y-78117420D01*
X161436481Y-78343414D01*
X161644869Y-78532385D01*
X161830865Y-78643933D01*
X161820273Y-78648320D01*
X161585241Y-78805363D01*
X161385363Y-79005241D01*
X161228320Y-79240273D01*
X161120147Y-79501426D01*
X161065000Y-79778665D01*
X161065000Y-80061335D01*
X161120147Y-80338574D01*
X161228320Y-80599727D01*
X161385363Y-80834759D01*
X161585241Y-81034637D01*
X161817759Y-81190000D01*
X161585241Y-81345363D01*
X161385363Y-81545241D01*
X161228320Y-81780273D01*
X161120147Y-82041426D01*
X161065000Y-82318665D01*
X161065000Y-82601335D01*
X161120147Y-82878574D01*
X161228320Y-83139727D01*
X161385363Y-83374759D01*
X161583961Y-83573357D01*
X161575518Y-83574188D01*
X161455820Y-83610498D01*
X161345506Y-83669463D01*
X161248815Y-83748815D01*
X161169463Y-83845506D01*
X161110498Y-83955820D01*
X161074188Y-84075518D01*
X161061928Y-84200000D01*
X156663711Y-84200000D01*
X156035000Y-83571290D01*
X156035000Y-79050835D01*
X156040007Y-79000000D01*
X156033605Y-78935000D01*
X156020024Y-78797105D01*
X155960841Y-78602007D01*
X155870590Y-78433158D01*
X155864734Y-78422202D01*
X155767803Y-78304092D01*
X155735396Y-78264604D01*
X155695908Y-78232197D01*
X154147807Y-76684097D01*
X154115396Y-76644604D01*
X153957797Y-76515266D01*
X153777993Y-76419159D01*
X153582895Y-76359976D01*
X153430838Y-76345000D01*
X153430828Y-76345000D01*
X153380000Y-76339994D01*
X153329172Y-76345000D01*
X148254396Y-76345000D01*
X148174759Y-76265363D01*
X147942241Y-76110000D01*
X148174759Y-75954637D01*
X148374637Y-75754759D01*
X148531680Y-75519727D01*
X148639853Y-75258574D01*
X148695000Y-74981335D01*
X148695000Y-74698665D01*
X148639853Y-74421426D01*
X148531680Y-74160273D01*
X148374637Y-73925241D01*
X148174759Y-73725363D01*
X147942241Y-73570000D01*
X148174759Y-73414637D01*
X148374637Y-73214759D01*
X148531680Y-72979727D01*
X148639853Y-72718574D01*
X148695000Y-72441335D01*
X148695000Y-72158665D01*
X148639853Y-71881426D01*
X148531680Y-71620273D01*
X148374637Y-71385241D01*
X148174759Y-71185363D01*
X147942241Y-71030000D01*
X148174759Y-70874637D01*
X148374637Y-70674759D01*
X148531680Y-70439727D01*
X148639853Y-70178574D01*
X148695000Y-69901335D01*
X148695000Y-69618665D01*
X148639853Y-69341426D01*
X148531680Y-69080273D01*
X148374637Y-68845241D01*
X148174759Y-68645363D01*
X147942241Y-68490000D01*
X148174759Y-68334637D01*
X148374637Y-68134759D01*
X148531680Y-67899727D01*
X148639853Y-67638574D01*
X148695000Y-67361335D01*
X148695000Y-67078665D01*
X148639853Y-66801426D01*
X148531680Y-66540273D01*
X148374637Y-66305241D01*
X148174759Y-66105363D01*
X147942241Y-65950000D01*
X148174759Y-65794637D01*
X148374637Y-65594759D01*
X148531680Y-65359727D01*
X148639853Y-65098574D01*
X148695000Y-64821335D01*
X148695000Y-64538665D01*
X148639853Y-64261426D01*
X148531680Y-64000273D01*
X148374637Y-63765241D01*
X148174759Y-63565363D01*
X147942241Y-63410000D01*
X148174759Y-63254637D01*
X148374637Y-63054759D01*
X148531680Y-62819727D01*
X148639853Y-62558574D01*
X148695000Y-62281335D01*
X148695000Y-61998665D01*
X148639853Y-61721426D01*
X148531680Y-61460273D01*
X148374637Y-61225241D01*
X148174759Y-61025363D01*
X147942241Y-60870000D01*
X148174759Y-60714637D01*
X148374637Y-60514759D01*
X148531680Y-60279727D01*
X148639853Y-60018574D01*
X148695000Y-59741335D01*
X148695000Y-59458665D01*
X148639853Y-59181426D01*
X148531680Y-58920273D01*
X148374637Y-58685241D01*
X148174759Y-58485363D01*
X147942241Y-58330000D01*
X148174759Y-58174637D01*
X148374637Y-57974759D01*
X148531680Y-57739727D01*
X148639853Y-57478574D01*
X148695000Y-57201335D01*
X148695000Y-56918665D01*
X148639853Y-56641426D01*
X148531680Y-56380273D01*
X148374637Y-56145241D01*
X148174759Y-55945363D01*
X147942241Y-55790000D01*
X148174759Y-55634637D01*
X148374637Y-55434759D01*
X148531680Y-55199727D01*
X148639853Y-54938574D01*
X148695000Y-54661335D01*
X148695000Y-54378665D01*
X148639853Y-54101426D01*
X148531680Y-53840273D01*
X148374637Y-53605241D01*
X148174759Y-53405363D01*
X147942241Y-53250000D01*
X148174759Y-53094637D01*
X148374637Y-52894759D01*
X148531680Y-52659727D01*
X148639853Y-52398574D01*
X148695000Y-52121335D01*
X148695000Y-51838665D01*
X148639853Y-51561426D01*
X148531680Y-51300273D01*
X148374637Y-51065241D01*
X148174759Y-50865363D01*
X147942241Y-50710000D01*
X148174759Y-50554637D01*
X148374637Y-50354759D01*
X148531680Y-50119727D01*
X148639853Y-49858574D01*
X148695000Y-49581335D01*
X148695000Y-49298665D01*
X148639853Y-49021426D01*
X148531680Y-48760273D01*
X148374637Y-48525241D01*
X148174759Y-48325363D01*
X147939727Y-48168320D01*
X147678574Y-48060147D01*
X147401335Y-48005000D01*
X147118665Y-48005000D01*
X146841426Y-48060147D01*
X146580273Y-48168320D01*
X146345241Y-48325363D01*
X146145363Y-48525241D01*
X145988320Y-48760273D01*
X145880147Y-49021426D01*
X145825000Y-49298665D01*
X145825000Y-49581335D01*
X145880147Y-49858574D01*
X145988320Y-50119727D01*
X146145363Y-50354759D01*
X146345241Y-50554637D01*
X146577759Y-50710000D01*
X146345241Y-50865363D01*
X146265604Y-50945000D01*
X144908711Y-50945000D01*
X143535000Y-49571290D01*
X143535000Y-45050835D01*
X143540007Y-45000000D01*
X143535000Y-44949162D01*
X143520024Y-44797105D01*
X143460841Y-44602007D01*
X143364734Y-44422203D01*
X143235396Y-44264604D01*
X143195903Y-44232193D01*
X142767807Y-43804097D01*
X142735396Y-43764604D01*
X142577797Y-43635266D01*
X142397993Y-43539159D01*
X142202895Y-43479976D01*
X142050838Y-43465000D01*
X142050828Y-43465000D01*
X142000000Y-43459994D01*
X141949172Y-43465000D01*
X118265107Y-43465000D01*
X118146632Y-43346525D01*
X117903411Y-43184010D01*
X117633158Y-43072068D01*
X117346260Y-43015000D01*
X117053740Y-43015000D01*
X116766842Y-43072068D01*
X116496589Y-43184010D01*
X116253368Y-43346525D01*
X116134893Y-43465000D01*
X115725107Y-43465000D01*
X115606632Y-43346525D01*
X115363411Y-43184010D01*
X115093158Y-43072068D01*
X114806260Y-43015000D01*
X114513740Y-43015000D01*
X114226842Y-43072068D01*
X113956589Y-43184010D01*
X113713368Y-43346525D01*
X113506525Y-43553368D01*
X113390000Y-43727760D01*
X113273475Y-43553368D01*
X113066632Y-43346525D01*
X112823411Y-43184010D01*
X112553158Y-43072068D01*
X112266260Y-43015000D01*
X111973740Y-43015000D01*
X111686842Y-43072068D01*
X111416589Y-43184010D01*
X111173368Y-43346525D01*
X110966525Y-43553368D01*
X110850000Y-43727760D01*
X110733475Y-43553368D01*
X110526632Y-43346525D01*
X110283411Y-43184010D01*
X110013158Y-43072068D01*
X109726260Y-43015000D01*
X109433740Y-43015000D01*
X109146842Y-43072068D01*
X108876589Y-43184010D01*
X108633368Y-43346525D01*
X108426525Y-43553368D01*
X108310000Y-43727760D01*
X108193475Y-43553368D01*
X107986632Y-43346525D01*
X107743411Y-43184010D01*
X107473158Y-43072068D01*
X107186260Y-43015000D01*
X106893740Y-43015000D01*
X106606842Y-43072068D01*
X106336589Y-43184010D01*
X106093368Y-43346525D01*
X105961513Y-43478380D01*
X105939502Y-43405820D01*
X105880537Y-43295506D01*
X105801185Y-43198815D01*
X105704494Y-43119463D01*
X105594180Y-43060498D01*
X105474482Y-43024188D01*
X105350000Y-43011928D01*
X104785750Y-43015000D01*
X104627000Y-43173750D01*
X104373000Y-43173750D01*
X104214250Y-43015000D01*
X103650000Y-43011928D01*
X103525518Y-43024188D01*
X103405820Y-43060498D01*
X103295506Y-43119463D01*
X103198815Y-43198815D01*
X103119463Y-43295506D01*
X103060498Y-43405820D01*
X103024188Y-43525518D01*
X103011928Y-43650000D01*
X80660000Y-43650000D01*
X80660000Y-40660000D01*
X174340001Y-40660000D01*
X174340000Y-92340000D01*
G37*
G04 #@! TD.AperFunction*
D19*
X141465000Y-66928711D02*
X141465001Y-76898056D01*
X141465000Y-76898061D01*
X141465000Y-76949163D01*
X141465001Y-79071289D01*
X141340608Y-79195682D01*
X141203411Y-79104010D01*
X140933158Y-78992068D01*
X140646260Y-78935000D01*
X140353740Y-78935000D01*
X140066842Y-78992068D01*
X139796589Y-79104010D01*
X139553368Y-79266525D01*
X139346525Y-79473368D01*
X139230000Y-79647760D01*
X139113475Y-79473368D01*
X138906632Y-79266525D01*
X138663411Y-79104010D01*
X138393158Y-78992068D01*
X138106260Y-78935000D01*
X137813740Y-78935000D01*
X137526842Y-78992068D01*
X137256589Y-79104010D01*
X137013368Y-79266525D01*
X136806525Y-79473368D01*
X136681822Y-79660000D01*
X133301395Y-79660000D01*
X133329003Y-79568986D01*
X133340000Y-79457333D01*
X133340000Y-79457325D01*
X133343676Y-79420000D01*
X133340000Y-79382675D01*
X133340000Y-79278178D01*
X133526632Y-79153475D01*
X133733475Y-78946632D01*
X133895990Y-78703411D01*
X134007932Y-78433158D01*
X134065000Y-78146260D01*
X134065000Y-77853740D01*
X134007932Y-77566842D01*
X133895990Y-77296589D01*
X133733475Y-77053368D01*
X133526632Y-76846525D01*
X133283411Y-76684010D01*
X133013158Y-76572068D01*
X132726260Y-76515000D01*
X132433740Y-76515000D01*
X132146842Y-76572068D01*
X131876589Y-76684010D01*
X131633368Y-76846525D01*
X131426525Y-77053368D01*
X131304805Y-77235534D01*
X131235178Y-77118645D01*
X131040269Y-76902412D01*
X130806920Y-76728359D01*
X130544099Y-76603175D01*
X130396890Y-76558524D01*
X130167000Y-76679845D01*
X130167000Y-77873000D01*
X130187000Y-77873000D01*
X130187000Y-78127000D01*
X130167000Y-78127000D01*
X130167000Y-79320155D01*
X130396890Y-79441476D01*
X130544099Y-79396825D01*
X130806920Y-79271641D01*
X131040269Y-79097588D01*
X131235178Y-78881355D01*
X131304805Y-78764466D01*
X131426525Y-78946632D01*
X131633368Y-79153475D01*
X131716306Y-79208892D01*
X131069002Y-79856197D01*
X131039999Y-79879999D01*
X131023585Y-79900000D01*
X117006181Y-79900000D01*
X116843227Y-79656123D01*
X116623877Y-79436773D01*
X116553876Y-79390000D01*
X116623877Y-79343227D01*
X116843227Y-79123877D01*
X117006181Y-78880000D01*
X126014883Y-78880000D01*
X126024188Y-78974482D01*
X126060498Y-79094180D01*
X126119463Y-79204494D01*
X126198815Y-79301185D01*
X126295506Y-79380537D01*
X126405820Y-79439502D01*
X126525518Y-79475812D01*
X126650000Y-79488072D01*
X128350000Y-79488072D01*
X128474482Y-79475812D01*
X128594180Y-79439502D01*
X128704494Y-79380537D01*
X128801185Y-79301185D01*
X128880537Y-79204494D01*
X128939502Y-79094180D01*
X128963966Y-79013534D01*
X129039731Y-79097588D01*
X129273080Y-79271641D01*
X129535901Y-79396825D01*
X129683110Y-79441476D01*
X129913000Y-79320155D01*
X129913000Y-78127000D01*
X129893000Y-78127000D01*
X129893000Y-77873000D01*
X129913000Y-77873000D01*
X129913000Y-76679845D01*
X129683110Y-76558524D01*
X129535901Y-76603175D01*
X129273080Y-76728359D01*
X129039731Y-76902412D01*
X128963966Y-76986466D01*
X128939502Y-76905820D01*
X128880537Y-76795506D01*
X128801185Y-76698815D01*
X128704494Y-76619463D01*
X128594180Y-76560498D01*
X128474482Y-76524188D01*
X128350000Y-76511928D01*
X126650000Y-76511928D01*
X126525518Y-76524188D01*
X126405820Y-76560498D01*
X126295506Y-76619463D01*
X126198815Y-76698815D01*
X126119463Y-76795506D01*
X126060498Y-76905820D01*
X126024188Y-77025518D01*
X126011928Y-77150000D01*
X126011928Y-77360000D01*
X117006181Y-77360000D01*
X116843227Y-77116123D01*
X116623877Y-76896773D01*
X116553876Y-76850000D01*
X116623877Y-76803227D01*
X116843227Y-76583877D01*
X117006181Y-76340000D01*
X131882678Y-76340000D01*
X131920000Y-76343676D01*
X131957322Y-76340000D01*
X131957333Y-76340000D01*
X132068986Y-76329003D01*
X132212247Y-76285546D01*
X132344276Y-76214974D01*
X132460001Y-76120001D01*
X132483803Y-76090998D01*
X133091002Y-75483800D01*
X133120001Y-75460001D01*
X133148811Y-75424896D01*
X133214974Y-75344277D01*
X133285546Y-75212247D01*
X133285546Y-75212246D01*
X133329003Y-75068986D01*
X133340000Y-74957333D01*
X133340000Y-74957323D01*
X133343676Y-74920000D01*
X133340000Y-74882677D01*
X133340000Y-74278178D01*
X133526632Y-74153475D01*
X133733475Y-73946632D01*
X133895990Y-73703411D01*
X134007932Y-73433158D01*
X134065000Y-73146260D01*
X134065000Y-72853740D01*
X134007932Y-72566842D01*
X133895990Y-72296589D01*
X133733475Y-72053368D01*
X133526632Y-71846525D01*
X133283411Y-71684010D01*
X133013158Y-71572068D01*
X132726260Y-71515000D01*
X132433740Y-71515000D01*
X132146842Y-71572068D01*
X131876589Y-71684010D01*
X131633368Y-71846525D01*
X131426525Y-72053368D01*
X131304805Y-72235534D01*
X131235178Y-72118645D01*
X131040269Y-71902412D01*
X130806920Y-71728359D01*
X130544099Y-71603175D01*
X130396890Y-71558524D01*
X130167000Y-71679845D01*
X130167000Y-72873000D01*
X130187000Y-72873000D01*
X130187000Y-73127000D01*
X130167000Y-73127000D01*
X130167000Y-74320155D01*
X130396890Y-74441476D01*
X130544099Y-74396825D01*
X130806920Y-74271641D01*
X131040269Y-74097588D01*
X131235178Y-73881355D01*
X131304805Y-73764466D01*
X131426525Y-73946632D01*
X131633368Y-74153475D01*
X131820001Y-74278179D01*
X131820001Y-74605198D01*
X131605199Y-74820000D01*
X117006181Y-74820000D01*
X116843227Y-74576123D01*
X116623877Y-74356773D01*
X116553876Y-74310000D01*
X116623877Y-74263227D01*
X116843227Y-74043877D01*
X117015570Y-73785948D01*
X117026318Y-73760000D01*
X126011928Y-73760000D01*
X126011928Y-73850000D01*
X126024188Y-73974482D01*
X126060498Y-74094180D01*
X126119463Y-74204494D01*
X126198815Y-74301185D01*
X126295506Y-74380537D01*
X126405820Y-74439502D01*
X126525518Y-74475812D01*
X126650000Y-74488072D01*
X128350000Y-74488072D01*
X128474482Y-74475812D01*
X128594180Y-74439502D01*
X128704494Y-74380537D01*
X128801185Y-74301185D01*
X128880537Y-74204494D01*
X128939502Y-74094180D01*
X128963966Y-74013534D01*
X129039731Y-74097588D01*
X129273080Y-74271641D01*
X129535901Y-74396825D01*
X129683110Y-74441476D01*
X129913000Y-74320155D01*
X129913000Y-73127000D01*
X129893000Y-73127000D01*
X129893000Y-72873000D01*
X129913000Y-72873000D01*
X129913000Y-71679845D01*
X129683110Y-71558524D01*
X129535901Y-71603175D01*
X129273080Y-71728359D01*
X129039731Y-71902412D01*
X128963966Y-71986466D01*
X128939502Y-71905820D01*
X128880537Y-71795506D01*
X128801185Y-71698815D01*
X128704494Y-71619463D01*
X128594180Y-71560498D01*
X128474482Y-71524188D01*
X128350000Y-71511928D01*
X126650000Y-71511928D01*
X126525518Y-71524188D01*
X126405820Y-71560498D01*
X126295506Y-71619463D01*
X126198815Y-71698815D01*
X126119463Y-71795506D01*
X126060498Y-71905820D01*
X126024188Y-72025518D01*
X126011928Y-72150000D01*
X126011928Y-72240000D01*
X116979454Y-72240000D01*
X116843227Y-72036123D01*
X116623877Y-71816773D01*
X116553876Y-71770000D01*
X116623877Y-71723227D01*
X116843227Y-71503877D01*
X117006181Y-71260000D01*
X131462678Y-71260000D01*
X131500000Y-71263676D01*
X131537322Y-71260000D01*
X131537333Y-71260000D01*
X131648986Y-71249003D01*
X131792247Y-71205546D01*
X131924276Y-71134974D01*
X132040001Y-71040001D01*
X132063804Y-71010998D01*
X133091003Y-69983799D01*
X133120001Y-69960001D01*
X133214974Y-69844276D01*
X133285546Y-69712247D01*
X133329003Y-69568986D01*
X133340000Y-69457333D01*
X133340000Y-69457325D01*
X133343676Y-69420000D01*
X133340000Y-69382675D01*
X133340000Y-69278178D01*
X133526632Y-69153475D01*
X133733475Y-68946632D01*
X133895990Y-68703411D01*
X134007932Y-68433158D01*
X134065000Y-68146260D01*
X134065000Y-67853740D01*
X134007932Y-67566842D01*
X133895990Y-67296589D01*
X133733475Y-67053368D01*
X133526632Y-66846525D01*
X133283411Y-66684010D01*
X133013158Y-66572068D01*
X132726260Y-66515000D01*
X132433740Y-66515000D01*
X132146842Y-66572068D01*
X131876589Y-66684010D01*
X131633368Y-66846525D01*
X131426525Y-67053368D01*
X131304805Y-67235534D01*
X131235178Y-67118645D01*
X131040269Y-66902412D01*
X130806920Y-66728359D01*
X130544099Y-66603175D01*
X130396890Y-66558524D01*
X130167000Y-66679845D01*
X130167000Y-67873000D01*
X130187000Y-67873000D01*
X130187000Y-68127000D01*
X130167000Y-68127000D01*
X130167000Y-69320155D01*
X130396890Y-69441476D01*
X130544099Y-69396825D01*
X130806920Y-69271641D01*
X131040269Y-69097588D01*
X131235178Y-68881355D01*
X131304805Y-68764466D01*
X131426525Y-68946632D01*
X131633368Y-69153475D01*
X131716306Y-69208892D01*
X131185199Y-69740000D01*
X117006181Y-69740000D01*
X116843227Y-69496123D01*
X116623877Y-69276773D01*
X116553876Y-69230000D01*
X116623877Y-69183227D01*
X116843227Y-68963877D01*
X116979454Y-68760000D01*
X126011928Y-68760000D01*
X126011928Y-68850000D01*
X126024188Y-68974482D01*
X126060498Y-69094180D01*
X126119463Y-69204494D01*
X126198815Y-69301185D01*
X126295506Y-69380537D01*
X126405820Y-69439502D01*
X126525518Y-69475812D01*
X126650000Y-69488072D01*
X128350000Y-69488072D01*
X128474482Y-69475812D01*
X128594180Y-69439502D01*
X128704494Y-69380537D01*
X128801185Y-69301185D01*
X128880537Y-69204494D01*
X128939502Y-69094180D01*
X128963966Y-69013534D01*
X129039731Y-69097588D01*
X129273080Y-69271641D01*
X129535901Y-69396825D01*
X129683110Y-69441476D01*
X129913000Y-69320155D01*
X129913000Y-68127000D01*
X129893000Y-68127000D01*
X129893000Y-67873000D01*
X129913000Y-67873000D01*
X129913000Y-66679845D01*
X129683110Y-66558524D01*
X129535901Y-66603175D01*
X129273080Y-66728359D01*
X129039731Y-66902412D01*
X128963966Y-66986466D01*
X128939502Y-66905820D01*
X128880537Y-66795506D01*
X128801185Y-66698815D01*
X128704494Y-66619463D01*
X128594180Y-66560498D01*
X128474482Y-66524188D01*
X128350000Y-66511928D01*
X126650000Y-66511928D01*
X126525518Y-66524188D01*
X126405820Y-66560498D01*
X126295506Y-66619463D01*
X126198815Y-66698815D01*
X126119463Y-66795506D01*
X126060498Y-66905820D01*
X126024188Y-67025518D01*
X126011928Y-67150000D01*
X126011928Y-67240000D01*
X117026318Y-67240000D01*
X117015570Y-67214052D01*
X116843227Y-66956123D01*
X116623877Y-66736773D01*
X116553876Y-66690000D01*
X116623877Y-66643227D01*
X116812104Y-66455000D01*
X140991290Y-66455000D01*
X141465000Y-66928711D01*
G04 #@! TA.AperFunction,Conductor*
D20*
G36*
X141465000Y-66928711D02*
G01*
X141465001Y-76898056D01*
X141465000Y-76898061D01*
X141465000Y-76949163D01*
X141465001Y-79071289D01*
X141340608Y-79195682D01*
X141203411Y-79104010D01*
X140933158Y-78992068D01*
X140646260Y-78935000D01*
X140353740Y-78935000D01*
X140066842Y-78992068D01*
X139796589Y-79104010D01*
X139553368Y-79266525D01*
X139346525Y-79473368D01*
X139230000Y-79647760D01*
X139113475Y-79473368D01*
X138906632Y-79266525D01*
X138663411Y-79104010D01*
X138393158Y-78992068D01*
X138106260Y-78935000D01*
X137813740Y-78935000D01*
X137526842Y-78992068D01*
X137256589Y-79104010D01*
X137013368Y-79266525D01*
X136806525Y-79473368D01*
X136681822Y-79660000D01*
X133301395Y-79660000D01*
X133329003Y-79568986D01*
X133340000Y-79457333D01*
X133340000Y-79457325D01*
X133343676Y-79420000D01*
X133340000Y-79382675D01*
X133340000Y-79278178D01*
X133526632Y-79153475D01*
X133733475Y-78946632D01*
X133895990Y-78703411D01*
X134007932Y-78433158D01*
X134065000Y-78146260D01*
X134065000Y-77853740D01*
X134007932Y-77566842D01*
X133895990Y-77296589D01*
X133733475Y-77053368D01*
X133526632Y-76846525D01*
X133283411Y-76684010D01*
X133013158Y-76572068D01*
X132726260Y-76515000D01*
X132433740Y-76515000D01*
X132146842Y-76572068D01*
X131876589Y-76684010D01*
X131633368Y-76846525D01*
X131426525Y-77053368D01*
X131304805Y-77235534D01*
X131235178Y-77118645D01*
X131040269Y-76902412D01*
X130806920Y-76728359D01*
X130544099Y-76603175D01*
X130396890Y-76558524D01*
X130167000Y-76679845D01*
X130167000Y-77873000D01*
X130187000Y-77873000D01*
X130187000Y-78127000D01*
X130167000Y-78127000D01*
X130167000Y-79320155D01*
X130396890Y-79441476D01*
X130544099Y-79396825D01*
X130806920Y-79271641D01*
X131040269Y-79097588D01*
X131235178Y-78881355D01*
X131304805Y-78764466D01*
X131426525Y-78946632D01*
X131633368Y-79153475D01*
X131716306Y-79208892D01*
X131069002Y-79856197D01*
X131039999Y-79879999D01*
X131023585Y-79900000D01*
X117006181Y-79900000D01*
X116843227Y-79656123D01*
X116623877Y-79436773D01*
X116553876Y-79390000D01*
X116623877Y-79343227D01*
X116843227Y-79123877D01*
X117006181Y-78880000D01*
X126014883Y-78880000D01*
X126024188Y-78974482D01*
X126060498Y-79094180D01*
X126119463Y-79204494D01*
X126198815Y-79301185D01*
X126295506Y-79380537D01*
X126405820Y-79439502D01*
X126525518Y-79475812D01*
X126650000Y-79488072D01*
X128350000Y-79488072D01*
X128474482Y-79475812D01*
X128594180Y-79439502D01*
X128704494Y-79380537D01*
X128801185Y-79301185D01*
X128880537Y-79204494D01*
X128939502Y-79094180D01*
X128963966Y-79013534D01*
X129039731Y-79097588D01*
X129273080Y-79271641D01*
X129535901Y-79396825D01*
X129683110Y-79441476D01*
X129913000Y-79320155D01*
X129913000Y-78127000D01*
X129893000Y-78127000D01*
X129893000Y-77873000D01*
X129913000Y-77873000D01*
X129913000Y-76679845D01*
X129683110Y-76558524D01*
X129535901Y-76603175D01*
X129273080Y-76728359D01*
X129039731Y-76902412D01*
X128963966Y-76986466D01*
X128939502Y-76905820D01*
X128880537Y-76795506D01*
X128801185Y-76698815D01*
X128704494Y-76619463D01*
X128594180Y-76560498D01*
X128474482Y-76524188D01*
X128350000Y-76511928D01*
X126650000Y-76511928D01*
X126525518Y-76524188D01*
X126405820Y-76560498D01*
X126295506Y-76619463D01*
X126198815Y-76698815D01*
X126119463Y-76795506D01*
X126060498Y-76905820D01*
X126024188Y-77025518D01*
X126011928Y-77150000D01*
X126011928Y-77360000D01*
X117006181Y-77360000D01*
X116843227Y-77116123D01*
X116623877Y-76896773D01*
X116553876Y-76850000D01*
X116623877Y-76803227D01*
X116843227Y-76583877D01*
X117006181Y-76340000D01*
X131882678Y-76340000D01*
X131920000Y-76343676D01*
X131957322Y-76340000D01*
X131957333Y-76340000D01*
X132068986Y-76329003D01*
X132212247Y-76285546D01*
X132344276Y-76214974D01*
X132460001Y-76120001D01*
X132483803Y-76090998D01*
X133091002Y-75483800D01*
X133120001Y-75460001D01*
X133148811Y-75424896D01*
X133214974Y-75344277D01*
X133285546Y-75212247D01*
X133285546Y-75212246D01*
X133329003Y-75068986D01*
X133340000Y-74957333D01*
X133340000Y-74957323D01*
X133343676Y-74920000D01*
X133340000Y-74882677D01*
X133340000Y-74278178D01*
X133526632Y-74153475D01*
X133733475Y-73946632D01*
X133895990Y-73703411D01*
X134007932Y-73433158D01*
X134065000Y-73146260D01*
X134065000Y-72853740D01*
X134007932Y-72566842D01*
X133895990Y-72296589D01*
X133733475Y-72053368D01*
X133526632Y-71846525D01*
X133283411Y-71684010D01*
X133013158Y-71572068D01*
X132726260Y-71515000D01*
X132433740Y-71515000D01*
X132146842Y-71572068D01*
X131876589Y-71684010D01*
X131633368Y-71846525D01*
X131426525Y-72053368D01*
X131304805Y-72235534D01*
X131235178Y-72118645D01*
X131040269Y-71902412D01*
X130806920Y-71728359D01*
X130544099Y-71603175D01*
X130396890Y-71558524D01*
X130167000Y-71679845D01*
X130167000Y-72873000D01*
X130187000Y-72873000D01*
X130187000Y-73127000D01*
X130167000Y-73127000D01*
X130167000Y-74320155D01*
X130396890Y-74441476D01*
X130544099Y-74396825D01*
X130806920Y-74271641D01*
X131040269Y-74097588D01*
X131235178Y-73881355D01*
X131304805Y-73764466D01*
X131426525Y-73946632D01*
X131633368Y-74153475D01*
X131820001Y-74278179D01*
X131820001Y-74605198D01*
X131605199Y-74820000D01*
X117006181Y-74820000D01*
X116843227Y-74576123D01*
X116623877Y-74356773D01*
X116553876Y-74310000D01*
X116623877Y-74263227D01*
X116843227Y-74043877D01*
X117015570Y-73785948D01*
X117026318Y-73760000D01*
X126011928Y-73760000D01*
X126011928Y-73850000D01*
X126024188Y-73974482D01*
X126060498Y-74094180D01*
X126119463Y-74204494D01*
X126198815Y-74301185D01*
X126295506Y-74380537D01*
X126405820Y-74439502D01*
X126525518Y-74475812D01*
X126650000Y-74488072D01*
X128350000Y-74488072D01*
X128474482Y-74475812D01*
X128594180Y-74439502D01*
X128704494Y-74380537D01*
X128801185Y-74301185D01*
X128880537Y-74204494D01*
X128939502Y-74094180D01*
X128963966Y-74013534D01*
X129039731Y-74097588D01*
X129273080Y-74271641D01*
X129535901Y-74396825D01*
X129683110Y-74441476D01*
X129913000Y-74320155D01*
X129913000Y-73127000D01*
X129893000Y-73127000D01*
X129893000Y-72873000D01*
X129913000Y-72873000D01*
X129913000Y-71679845D01*
X129683110Y-71558524D01*
X129535901Y-71603175D01*
X129273080Y-71728359D01*
X129039731Y-71902412D01*
X128963966Y-71986466D01*
X128939502Y-71905820D01*
X128880537Y-71795506D01*
X128801185Y-71698815D01*
X128704494Y-71619463D01*
X128594180Y-71560498D01*
X128474482Y-71524188D01*
X128350000Y-71511928D01*
X126650000Y-71511928D01*
X126525518Y-71524188D01*
X126405820Y-71560498D01*
X126295506Y-71619463D01*
X126198815Y-71698815D01*
X126119463Y-71795506D01*
X126060498Y-71905820D01*
X126024188Y-72025518D01*
X126011928Y-72150000D01*
X126011928Y-72240000D01*
X116979454Y-72240000D01*
X116843227Y-72036123D01*
X116623877Y-71816773D01*
X116553876Y-71770000D01*
X116623877Y-71723227D01*
X116843227Y-71503877D01*
X117006181Y-71260000D01*
X131462678Y-71260000D01*
X131500000Y-71263676D01*
X131537322Y-71260000D01*
X131537333Y-71260000D01*
X131648986Y-71249003D01*
X131792247Y-71205546D01*
X131924276Y-71134974D01*
X132040001Y-71040001D01*
X132063804Y-71010998D01*
X133091003Y-69983799D01*
X133120001Y-69960001D01*
X133214974Y-69844276D01*
X133285546Y-69712247D01*
X133329003Y-69568986D01*
X133340000Y-69457333D01*
X133340000Y-69457325D01*
X133343676Y-69420000D01*
X133340000Y-69382675D01*
X133340000Y-69278178D01*
X133526632Y-69153475D01*
X133733475Y-68946632D01*
X133895990Y-68703411D01*
X134007932Y-68433158D01*
X134065000Y-68146260D01*
X134065000Y-67853740D01*
X134007932Y-67566842D01*
X133895990Y-67296589D01*
X133733475Y-67053368D01*
X133526632Y-66846525D01*
X133283411Y-66684010D01*
X133013158Y-66572068D01*
X132726260Y-66515000D01*
X132433740Y-66515000D01*
X132146842Y-66572068D01*
X131876589Y-66684010D01*
X131633368Y-66846525D01*
X131426525Y-67053368D01*
X131304805Y-67235534D01*
X131235178Y-67118645D01*
X131040269Y-66902412D01*
X130806920Y-66728359D01*
X130544099Y-66603175D01*
X130396890Y-66558524D01*
X130167000Y-66679845D01*
X130167000Y-67873000D01*
X130187000Y-67873000D01*
X130187000Y-68127000D01*
X130167000Y-68127000D01*
X130167000Y-69320155D01*
X130396890Y-69441476D01*
X130544099Y-69396825D01*
X130806920Y-69271641D01*
X131040269Y-69097588D01*
X131235178Y-68881355D01*
X131304805Y-68764466D01*
X131426525Y-68946632D01*
X131633368Y-69153475D01*
X131716306Y-69208892D01*
X131185199Y-69740000D01*
X117006181Y-69740000D01*
X116843227Y-69496123D01*
X116623877Y-69276773D01*
X116553876Y-69230000D01*
X116623877Y-69183227D01*
X116843227Y-68963877D01*
X116979454Y-68760000D01*
X126011928Y-68760000D01*
X126011928Y-68850000D01*
X126024188Y-68974482D01*
X126060498Y-69094180D01*
X126119463Y-69204494D01*
X126198815Y-69301185D01*
X126295506Y-69380537D01*
X126405820Y-69439502D01*
X126525518Y-69475812D01*
X126650000Y-69488072D01*
X128350000Y-69488072D01*
X128474482Y-69475812D01*
X128594180Y-69439502D01*
X128704494Y-69380537D01*
X128801185Y-69301185D01*
X128880537Y-69204494D01*
X128939502Y-69094180D01*
X128963966Y-69013534D01*
X129039731Y-69097588D01*
X129273080Y-69271641D01*
X129535901Y-69396825D01*
X129683110Y-69441476D01*
X129913000Y-69320155D01*
X129913000Y-68127000D01*
X129893000Y-68127000D01*
X129893000Y-67873000D01*
X129913000Y-67873000D01*
X129913000Y-66679845D01*
X129683110Y-66558524D01*
X129535901Y-66603175D01*
X129273080Y-66728359D01*
X129039731Y-66902412D01*
X128963966Y-66986466D01*
X128939502Y-66905820D01*
X128880537Y-66795506D01*
X128801185Y-66698815D01*
X128704494Y-66619463D01*
X128594180Y-66560498D01*
X128474482Y-66524188D01*
X128350000Y-66511928D01*
X126650000Y-66511928D01*
X126525518Y-66524188D01*
X126405820Y-66560498D01*
X126295506Y-66619463D01*
X126198815Y-66698815D01*
X126119463Y-66795506D01*
X126060498Y-66905820D01*
X126024188Y-67025518D01*
X126011928Y-67150000D01*
X126011928Y-67240000D01*
X117026318Y-67240000D01*
X117015570Y-67214052D01*
X116843227Y-66956123D01*
X116623877Y-66736773D01*
X116553876Y-66690000D01*
X116623877Y-66643227D01*
X116812104Y-66455000D01*
X140991290Y-66455000D01*
X141465000Y-66928711D01*
G37*
G04 #@! TD.AperFunction*
D19*
X113126773Y-56263877D02*
X113346123Y-56483227D01*
X113604052Y-56655570D01*
X113890648Y-56774282D01*
X114194896Y-56834800D01*
X114370930Y-56834800D01*
X114224430Y-57054052D01*
X114105718Y-57340648D01*
X114045200Y-57644896D01*
X114045200Y-57955104D01*
X114105718Y-58259352D01*
X114224430Y-58545948D01*
X114396773Y-58803877D01*
X114616123Y-59023227D01*
X114752714Y-59114495D01*
X114707129Y-59247524D01*
X115620000Y-60160395D01*
X116532871Y-59247524D01*
X116487286Y-59114495D01*
X116623877Y-59023227D01*
X116843227Y-58803877D01*
X117006181Y-58560000D01*
X140985199Y-58560000D01*
X143240000Y-60814802D01*
X143240000Y-65770214D01*
X143235396Y-65764604D01*
X143195908Y-65732197D01*
X142187807Y-64724097D01*
X142155396Y-64684604D01*
X141997797Y-64555266D01*
X141817993Y-64459159D01*
X141622895Y-64399976D01*
X141470838Y-64385000D01*
X141470828Y-64385000D01*
X141420000Y-64379994D01*
X141369172Y-64385000D01*
X116812104Y-64385000D01*
X116623877Y-64196773D01*
X116553876Y-64150000D01*
X116623877Y-64103227D01*
X116843227Y-63883877D01*
X117015570Y-63625948D01*
X117134282Y-63339352D01*
X117194800Y-63035104D01*
X117194800Y-62724896D01*
X117134282Y-62420648D01*
X117015570Y-62134052D01*
X116843227Y-61876123D01*
X116623877Y-61656773D01*
X116487286Y-61565505D01*
X116532871Y-61432476D01*
X115620000Y-60519605D01*
X115605858Y-60533748D01*
X115426253Y-60354143D01*
X115440395Y-60340000D01*
X115799605Y-60340000D01*
X116712476Y-61252871D01*
X116970723Y-61164377D01*
X117105597Y-60885024D01*
X117183381Y-60584725D01*
X117201084Y-60275023D01*
X117158027Y-59967816D01*
X117055865Y-59674914D01*
X116970723Y-59515623D01*
X116712476Y-59427129D01*
X115799605Y-60340000D01*
X115440395Y-60340000D01*
X114527524Y-59427129D01*
X114430320Y-59460438D01*
X114395908Y-59432197D01*
X113267807Y-58304097D01*
X113235396Y-58264604D01*
X113077797Y-58135266D01*
X112897993Y-58039159D01*
X112702895Y-57979976D01*
X112550838Y-57965000D01*
X112550828Y-57965000D01*
X112500000Y-57959994D01*
X112449172Y-57965000D01*
X107928711Y-57965000D01*
X107765000Y-57801290D01*
X107765000Y-56452104D01*
X107953227Y-56263877D01*
X108000000Y-56193876D01*
X108046773Y-56263877D01*
X108266123Y-56483227D01*
X108524052Y-56655570D01*
X108810648Y-56774282D01*
X109114896Y-56834800D01*
X109425104Y-56834800D01*
X109729352Y-56774282D01*
X110015948Y-56655570D01*
X110273877Y-56483227D01*
X110493227Y-56263877D01*
X110540000Y-56193876D01*
X110586773Y-56263877D01*
X110806123Y-56483227D01*
X111064052Y-56655570D01*
X111350648Y-56774282D01*
X111654896Y-56834800D01*
X111965104Y-56834800D01*
X112269352Y-56774282D01*
X112555948Y-56655570D01*
X112813877Y-56483227D01*
X113033227Y-56263877D01*
X113080000Y-56193876D01*
X113126773Y-56263877D01*
G04 #@! TA.AperFunction,Conductor*
D20*
G36*
X113126773Y-56263877D02*
G01*
X113346123Y-56483227D01*
X113604052Y-56655570D01*
X113890648Y-56774282D01*
X114194896Y-56834800D01*
X114370930Y-56834800D01*
X114224430Y-57054052D01*
X114105718Y-57340648D01*
X114045200Y-57644896D01*
X114045200Y-57955104D01*
X114105718Y-58259352D01*
X114224430Y-58545948D01*
X114396773Y-58803877D01*
X114616123Y-59023227D01*
X114752714Y-59114495D01*
X114707129Y-59247524D01*
X115620000Y-60160395D01*
X116532871Y-59247524D01*
X116487286Y-59114495D01*
X116623877Y-59023227D01*
X116843227Y-58803877D01*
X117006181Y-58560000D01*
X140985199Y-58560000D01*
X143240000Y-60814802D01*
X143240000Y-65770214D01*
X143235396Y-65764604D01*
X143195908Y-65732197D01*
X142187807Y-64724097D01*
X142155396Y-64684604D01*
X141997797Y-64555266D01*
X141817993Y-64459159D01*
X141622895Y-64399976D01*
X141470838Y-64385000D01*
X141470828Y-64385000D01*
X141420000Y-64379994D01*
X141369172Y-64385000D01*
X116812104Y-64385000D01*
X116623877Y-64196773D01*
X116553876Y-64150000D01*
X116623877Y-64103227D01*
X116843227Y-63883877D01*
X117015570Y-63625948D01*
X117134282Y-63339352D01*
X117194800Y-63035104D01*
X117194800Y-62724896D01*
X117134282Y-62420648D01*
X117015570Y-62134052D01*
X116843227Y-61876123D01*
X116623877Y-61656773D01*
X116487286Y-61565505D01*
X116532871Y-61432476D01*
X115620000Y-60519605D01*
X115605858Y-60533748D01*
X115426253Y-60354143D01*
X115440395Y-60340000D01*
X115799605Y-60340000D01*
X116712476Y-61252871D01*
X116970723Y-61164377D01*
X117105597Y-60885024D01*
X117183381Y-60584725D01*
X117201084Y-60275023D01*
X117158027Y-59967816D01*
X117055865Y-59674914D01*
X116970723Y-59515623D01*
X116712476Y-59427129D01*
X115799605Y-60340000D01*
X115440395Y-60340000D01*
X114527524Y-59427129D01*
X114430320Y-59460438D01*
X114395908Y-59432197D01*
X113267807Y-58304097D01*
X113235396Y-58264604D01*
X113077797Y-58135266D01*
X112897993Y-58039159D01*
X112702895Y-57979976D01*
X112550838Y-57965000D01*
X112550828Y-57965000D01*
X112500000Y-57959994D01*
X112449172Y-57965000D01*
X107928711Y-57965000D01*
X107765000Y-57801290D01*
X107765000Y-56452104D01*
X107953227Y-56263877D01*
X108000000Y-56193876D01*
X108046773Y-56263877D01*
X108266123Y-56483227D01*
X108524052Y-56655570D01*
X108810648Y-56774282D01*
X109114896Y-56834800D01*
X109425104Y-56834800D01*
X109729352Y-56774282D01*
X110015948Y-56655570D01*
X110273877Y-56483227D01*
X110493227Y-56263877D01*
X110540000Y-56193876D01*
X110586773Y-56263877D01*
X110806123Y-56483227D01*
X111064052Y-56655570D01*
X111350648Y-56774282D01*
X111654896Y-56834800D01*
X111965104Y-56834800D01*
X112269352Y-56774282D01*
X112555948Y-56655570D01*
X112813877Y-56483227D01*
X113033227Y-56263877D01*
X113080000Y-56193876D01*
X113126773Y-56263877D01*
G37*
G04 #@! TD.AperFunction*
M02*
