M48
; DRILL file {KiCad 5.1.10-88a1d61d58~90~ubuntu21.04.1} date Fri Oct  8 15:30:08 2021
; FORMAT={-:-/ absolute / inch / decimal}
; #@! TF.CreationDate,2021-10-08T15:30:08+02:00
; #@! TF.GenerationSoftware,Kicad,Pcbnew,5.1.10-88a1d61d58~90~ubuntu21.04.1
; #@! TF.FileFunction,Plated,1,2,PTH
FMAT,2
INCH
T1C0.0157
T2C0.0374
T3C0.0394
T4C0.0400
%
G90
G05
T1
X4.3504Y-2.4715
X4.4685Y-1.8701
X5.6102Y-3.0315
T2
X6.6339Y-2.2441
X6.6339Y-2.3425
X6.6339Y-2.4409
X6.6339Y-2.5394
T3
X3.4614Y-2.6772
X3.4614Y-2.874
X3.4614Y-3.0709
X3.4614Y-3.2874
X3.5614Y-2.6772
X3.5614Y-2.874
X3.5614Y-3.0709
X3.5614Y-3.2874
X3.6614Y-2.6772
X3.6614Y-2.874
X3.6614Y-3.0709
X3.6614Y-3.2874
X4.1142Y-1.752
X4.2142Y-1.752
X4.3142Y-1.752
X4.4142Y-1.752
X4.5142Y-1.752
X4.6142Y-1.752
X5.0197Y-2.6772
X5.0197Y-2.874
X5.0197Y-3.0709
X5.0197Y-3.2874
X5.1197Y-2.6772
X5.1197Y-2.874
X5.1197Y-3.0709
X5.1197Y-3.2874
X5.2197Y-2.6772
X5.2197Y-2.874
X5.2197Y-3.0709
X5.2197Y-3.2874
X5.4315Y-3.1661
X5.4315Y-3.2661
X5.4315Y-3.3661
X5.5315Y-3.1661
X5.5315Y-3.2661
X5.5315Y-3.3661
X5.7976Y-1.9465
X5.7976Y-2.0465
X5.7976Y-2.1465
X5.7976Y-2.2465
X5.7976Y-2.3465
X5.7976Y-2.4465
X5.7976Y-2.5465
X5.7976Y-2.6465
X5.7976Y-2.7465
X5.7976Y-2.8465
X5.7976Y-2.9465
X5.7976Y-3.0465
X5.7976Y-3.1465
X5.7976Y-3.2465
X5.7976Y-3.3465
X6.3976Y-1.9465
X6.3976Y-2.0465
X6.3976Y-2.1465
X6.3976Y-2.2465
X6.3976Y-2.3465
X6.3976Y-2.4465
X6.3976Y-2.5465
X6.3976Y-2.6465
X6.3976Y-2.7465
X6.3976Y-2.8465
X6.3976Y-2.9465
X6.3976Y-3.0465
X6.3976Y-3.1465
X6.3976Y-3.2465
X6.3976Y-3.3465
T4
X3.952Y-2.2756
X3.952Y-2.3756
X3.952Y-2.4756
X3.952Y-2.5756
X3.952Y-2.6756
X3.952Y-2.7756
X3.952Y-2.8756
X3.952Y-2.9756
X3.952Y-3.0756
X3.952Y-3.1756
X3.952Y-3.2756
X3.952Y-3.3756
X4.002Y-2.1756
X4.102Y-2.1756
X4.202Y-2.1756
X4.252Y-3.3756
X4.302Y-2.1756
X4.352Y-3.3756
X4.402Y-2.1756
X4.437Y-2.6206
X4.437Y-2.7206
X4.452Y-3.3756
X4.502Y-2.1756
X4.552Y-2.2756
X4.552Y-2.3756
X4.552Y-2.4756
X4.552Y-2.5756
X4.552Y-2.6756
X4.552Y-2.7756
X4.552Y-2.8756
X4.552Y-2.9756
X4.552Y-3.0756
X4.552Y-3.1756
X4.552Y-3.2756
X4.552Y-3.3756
T0
M30
