G04 #@! TF.GenerationSoftware,KiCad,Pcbnew,5.1.10-88a1d61d58~90~ubuntu21.04.1*
G04 #@! TF.CreationDate,2021-10-08T15:30:08+02:00*
G04 #@! TF.ProjectId,BoardArduinos,426f6172-6441-4726-9475-696e6f732e6b,rev?*
G04 #@! TF.SameCoordinates,Original*
G04 #@! TF.FileFunction,Soldermask,Top*
G04 #@! TF.FilePolarity,Negative*
%FSLAX46Y46*%
G04 Gerber Fmt 4.6, Leading zero omitted, Abs format (unit mm)*
G04 Created by KiCad (PCBNEW 5.1.10-88a1d61d58~90~ubuntu21.04.1) date 2021-10-08 15:30:08*
%MOMM*%
%LPD*%
G01*
G04 APERTURE LIST*
%ADD10O,1.950000X1.700000*%
%ADD11C,1.879600*%
%ADD12O,1.700000X1.700000*%
%ADD13R,1.700000X1.700000*%
%ADD14O,1.600000X1.600000*%
%ADD15R,1.600000X1.600000*%
G04 APERTURE END LIST*
D10*
X168500000Y-57000000D03*
X168500000Y-59500000D03*
X168500000Y-62000000D03*
G36*
G01*
X169225000Y-65350000D02*
X167775000Y-65350000D01*
G75*
G02*
X167525000Y-65100000I0J250000D01*
G01*
X167525000Y-63900000D01*
G75*
G02*
X167775000Y-63650000I250000J0D01*
G01*
X169225000Y-63650000D01*
G75*
G02*
X169475000Y-63900000I0J-250000D01*
G01*
X169475000Y-65100000D01*
G75*
G02*
X169225000Y-65350000I-250000J0D01*
G01*
G37*
D11*
X108000000Y-85740000D03*
X100380000Y-57800000D03*
X100380000Y-60340000D03*
X100380000Y-62880000D03*
X100380000Y-65420000D03*
X100380000Y-67960000D03*
X100380000Y-70500000D03*
X100380000Y-73040000D03*
X100380000Y-75580000D03*
X100380000Y-78120000D03*
X100380000Y-80660000D03*
X100380000Y-83200000D03*
X100380000Y-85740000D03*
X115620000Y-85740000D03*
X115620000Y-83200000D03*
X115620000Y-80660000D03*
X115620000Y-78120000D03*
X115620000Y-75580000D03*
X115620000Y-73040000D03*
X115620000Y-70500000D03*
X115620000Y-67960000D03*
X115620000Y-65420000D03*
X115620000Y-62880000D03*
X115620000Y-60340000D03*
X115620000Y-57800000D03*
X110540000Y-85740000D03*
X113080000Y-85740000D03*
X112699000Y-66563000D03*
X112699000Y-69103000D03*
X101650000Y-55260000D03*
X104190000Y-55260000D03*
X106730000Y-55260000D03*
X109270000Y-55260000D03*
X111810000Y-55260000D03*
X114350000Y-55260000D03*
D12*
X117200000Y-44500000D03*
X114660000Y-44500000D03*
X112120000Y-44500000D03*
X109580000Y-44500000D03*
X107040000Y-44500000D03*
D13*
X104500000Y-44500000D03*
D12*
X87920000Y-83500000D03*
X90460000Y-83500000D03*
D13*
X93000000Y-83500000D03*
D12*
X87920000Y-78000000D03*
X90460000Y-78000000D03*
D13*
X93000000Y-78000000D03*
D12*
X87920000Y-73000000D03*
X90460000Y-73000000D03*
D13*
X93000000Y-73000000D03*
D12*
X87920000Y-68000000D03*
X90460000Y-68000000D03*
D13*
X93000000Y-68000000D03*
D12*
X132580000Y-73000000D03*
X130040000Y-73000000D03*
D13*
X127500000Y-73000000D03*
D12*
X132580000Y-68000000D03*
X130040000Y-68000000D03*
D13*
X127500000Y-68000000D03*
D12*
X132580000Y-78000000D03*
X130040000Y-78000000D03*
D13*
X127500000Y-78000000D03*
D12*
X132580000Y-83500000D03*
X130040000Y-83500000D03*
D13*
X127500000Y-83500000D03*
D12*
X137960000Y-80420000D03*
X140500000Y-80420000D03*
X137960000Y-82960000D03*
X140500000Y-82960000D03*
X137960000Y-85500000D03*
D13*
X140500000Y-85500000D03*
D14*
X147260000Y-49440000D03*
X162500000Y-49440000D03*
X147260000Y-85000000D03*
X162500000Y-51980000D03*
X147260000Y-82460000D03*
X162500000Y-54520000D03*
X147260000Y-79920000D03*
X162500000Y-57060000D03*
X147260000Y-77380000D03*
X162500000Y-59600000D03*
X147260000Y-74840000D03*
X162500000Y-62140000D03*
X147260000Y-72300000D03*
X162500000Y-64680000D03*
X147260000Y-69760000D03*
X162500000Y-67220000D03*
X147260000Y-67220000D03*
X162500000Y-69760000D03*
X147260000Y-64680000D03*
X162500000Y-72300000D03*
X147260000Y-62140000D03*
X162500000Y-74840000D03*
X147260000Y-59600000D03*
X162500000Y-77380000D03*
X147260000Y-57060000D03*
X162500000Y-79920000D03*
X147260000Y-54520000D03*
X162500000Y-82460000D03*
X147260000Y-51980000D03*
D15*
X162500000Y-85000000D03*
M02*
