G04 #@! TF.GenerationSoftware,KiCad,Pcbnew,5.1.10-88a1d61d58~90~ubuntu21.04.1*
G04 #@! TF.CreationDate,2021-10-15T09:48:57+02:00*
G04 #@! TF.ProjectId,IndicatorLeds,496e6469-6361-4746-9f72-4c6564732e6b,rev?*
G04 #@! TF.SameCoordinates,Original*
G04 #@! TF.FileFunction,Copper,L2,Bot*
G04 #@! TF.FilePolarity,Positive*
%FSLAX46Y46*%
G04 Gerber Fmt 4.6, Leading zero omitted, Abs format (unit mm)*
G04 Created by KiCad (PCBNEW 5.1.10-88a1d61d58~90~ubuntu21.04.1) date 2021-10-15 09:48:57*
%MOMM*%
%LPD*%
G01*
G04 APERTURE LIST*
G04 #@! TA.AperFunction,SMDPad,CuDef*
%ADD10C,0.100000*%
G04 #@! TD*
G04 #@! TA.AperFunction,ComponentPad*
%ADD11O,1.700000X1.700000*%
G04 #@! TD*
G04 #@! TA.AperFunction,ComponentPad*
%ADD12R,1.700000X1.700000*%
G04 #@! TD*
G04 #@! TA.AperFunction,ViaPad*
%ADD13C,0.800000*%
G04 #@! TD*
G04 #@! TA.AperFunction,Conductor*
%ADD14C,0.250000*%
G04 #@! TD*
G04 #@! TA.AperFunction,Conductor*
%ADD15C,0.254000*%
G04 #@! TD*
G04 #@! TA.AperFunction,Conductor*
%ADD16C,0.100000*%
G04 #@! TD*
G04 APERTURE END LIST*
G04 #@! TA.AperFunction,SMDPad,CuDef*
D10*
G36*
X103650000Y-107250602D02*
G01*
X103674534Y-107250602D01*
X103723365Y-107255412D01*
X103771490Y-107264984D01*
X103818445Y-107279228D01*
X103863778Y-107298005D01*
X103907051Y-107321136D01*
X103947850Y-107348396D01*
X103985779Y-107379524D01*
X104020476Y-107414221D01*
X104051604Y-107452150D01*
X104078864Y-107492949D01*
X104101995Y-107536222D01*
X104120772Y-107581555D01*
X104135016Y-107628510D01*
X104144588Y-107676635D01*
X104149398Y-107725466D01*
X104149398Y-107750000D01*
X104150000Y-107750000D01*
X104150000Y-108250000D01*
X104149398Y-108250000D01*
X104149398Y-108274534D01*
X104144588Y-108323365D01*
X104135016Y-108371490D01*
X104120772Y-108418445D01*
X104101995Y-108463778D01*
X104078864Y-108507051D01*
X104051604Y-108547850D01*
X104020476Y-108585779D01*
X103985779Y-108620476D01*
X103947850Y-108651604D01*
X103907051Y-108678864D01*
X103863778Y-108701995D01*
X103818445Y-108720772D01*
X103771490Y-108735016D01*
X103723365Y-108744588D01*
X103674534Y-108749398D01*
X103650000Y-108749398D01*
X103650000Y-108750000D01*
X103150000Y-108750000D01*
X103150000Y-107250000D01*
X103650000Y-107250000D01*
X103650000Y-107250602D01*
G37*
G04 #@! TD.AperFunction*
G04 #@! TA.AperFunction,SMDPad,CuDef*
G36*
X102850000Y-108750000D02*
G01*
X102350000Y-108750000D01*
X102350000Y-108749398D01*
X102325466Y-108749398D01*
X102276635Y-108744588D01*
X102228510Y-108735016D01*
X102181555Y-108720772D01*
X102136222Y-108701995D01*
X102092949Y-108678864D01*
X102052150Y-108651604D01*
X102014221Y-108620476D01*
X101979524Y-108585779D01*
X101948396Y-108547850D01*
X101921136Y-108507051D01*
X101898005Y-108463778D01*
X101879228Y-108418445D01*
X101864984Y-108371490D01*
X101855412Y-108323365D01*
X101850602Y-108274534D01*
X101850602Y-108250000D01*
X101850000Y-108250000D01*
X101850000Y-107750000D01*
X101850602Y-107750000D01*
X101850602Y-107725466D01*
X101855412Y-107676635D01*
X101864984Y-107628510D01*
X101879228Y-107581555D01*
X101898005Y-107536222D01*
X101921136Y-107492949D01*
X101948396Y-107452150D01*
X101979524Y-107414221D01*
X102014221Y-107379524D01*
X102052150Y-107348396D01*
X102092949Y-107321136D01*
X102136222Y-107298005D01*
X102181555Y-107279228D01*
X102228510Y-107264984D01*
X102276635Y-107255412D01*
X102325466Y-107250602D01*
X102350000Y-107250602D01*
X102350000Y-107250000D01*
X102850000Y-107250000D01*
X102850000Y-108750000D01*
G37*
G04 #@! TD.AperFunction*
D11*
X100449000Y-117721000D03*
X100449000Y-120261000D03*
X102989000Y-117721000D03*
X102989000Y-120261000D03*
X105529000Y-117721000D03*
D12*
X105529000Y-120261000D03*
D13*
X100999992Y-108000000D03*
X101846000Y-111371000D03*
X102500000Y-102000016D03*
X101973000Y-106418000D03*
X105000000Y-108000000D03*
X104000000Y-103000000D03*
D14*
X102350000Y-108000000D02*
X100999992Y-108000000D01*
X103650000Y-108000000D02*
X105000000Y-108000000D01*
X101000000Y-103000000D02*
X104000000Y-103000000D01*
X100000000Y-104000000D02*
X101000000Y-103000000D01*
X100000000Y-117272000D02*
X100000000Y-104000000D01*
X100449000Y-117721000D02*
X100000000Y-117272000D01*
D15*
X107340000Y-121340000D02*
X106973107Y-121340000D01*
X107004812Y-121235482D01*
X107017072Y-121111000D01*
X107017072Y-119411000D01*
X107004812Y-119286518D01*
X106968502Y-119166820D01*
X106909537Y-119056506D01*
X106830185Y-118959815D01*
X106733494Y-118880463D01*
X106623180Y-118821498D01*
X106550620Y-118799487D01*
X106682475Y-118667632D01*
X106844990Y-118424411D01*
X106956932Y-118154158D01*
X107014000Y-117867260D01*
X107014000Y-117574740D01*
X106956932Y-117287842D01*
X106844990Y-117017589D01*
X106682475Y-116774368D01*
X106475632Y-116567525D01*
X106232411Y-116405010D01*
X105962158Y-116293068D01*
X105675260Y-116236000D01*
X105382740Y-116236000D01*
X105095842Y-116293068D01*
X104825589Y-116405010D01*
X104582368Y-116567525D01*
X104375525Y-116774368D01*
X104253805Y-116956534D01*
X104184178Y-116839645D01*
X103989269Y-116623412D01*
X103755920Y-116449359D01*
X103493099Y-116324175D01*
X103345890Y-116279524D01*
X103116000Y-116400845D01*
X103116000Y-117594000D01*
X103136000Y-117594000D01*
X103136000Y-117848000D01*
X103116000Y-117848000D01*
X103116000Y-120134000D01*
X103136000Y-120134000D01*
X103136000Y-120388000D01*
X103116000Y-120388000D01*
X103116000Y-120408000D01*
X102862000Y-120408000D01*
X102862000Y-120388000D01*
X102842000Y-120388000D01*
X102842000Y-120134000D01*
X102862000Y-120134000D01*
X102862000Y-117848000D01*
X102842000Y-117848000D01*
X102842000Y-117594000D01*
X102862000Y-117594000D01*
X102862000Y-116400845D01*
X102632110Y-116279524D01*
X102484901Y-116324175D01*
X102222080Y-116449359D01*
X101988731Y-116623412D01*
X101793822Y-116839645D01*
X101724195Y-116956534D01*
X101602475Y-116774368D01*
X101395632Y-116567525D01*
X101152411Y-116405010D01*
X100882158Y-116293068D01*
X100760000Y-116268769D01*
X100760000Y-109007540D01*
X100898053Y-109035000D01*
X101101931Y-109035000D01*
X101301890Y-108995226D01*
X101444745Y-108936053D01*
X101512310Y-109018382D01*
X101581618Y-109087690D01*
X101678309Y-109167042D01*
X101759808Y-109221498D01*
X101870125Y-109280464D01*
X101960681Y-109317973D01*
X102080377Y-109354282D01*
X102176510Y-109373404D01*
X102300991Y-109385664D01*
X102325550Y-109385664D01*
X102350000Y-109388072D01*
X102850000Y-109388072D01*
X102974482Y-109375812D01*
X103000000Y-109368071D01*
X103025518Y-109375812D01*
X103150000Y-109388072D01*
X103650000Y-109388072D01*
X103674450Y-109385664D01*
X103699009Y-109385664D01*
X103823490Y-109373404D01*
X103919623Y-109354282D01*
X104039319Y-109317973D01*
X104129875Y-109280464D01*
X104240192Y-109221498D01*
X104321691Y-109167042D01*
X104418382Y-109087690D01*
X104487690Y-109018382D01*
X104555253Y-108936056D01*
X104698102Y-108995226D01*
X104898061Y-109035000D01*
X105101939Y-109035000D01*
X105301898Y-108995226D01*
X105490256Y-108917205D01*
X105659774Y-108803937D01*
X105803937Y-108659774D01*
X105917205Y-108490256D01*
X105995226Y-108301898D01*
X106035000Y-108101939D01*
X106035000Y-107898061D01*
X105995226Y-107698102D01*
X105917205Y-107509744D01*
X105803937Y-107340226D01*
X105659774Y-107196063D01*
X105490256Y-107082795D01*
X105301898Y-107004774D01*
X105101939Y-106965000D01*
X104898061Y-106965000D01*
X104698102Y-107004774D01*
X104555253Y-107063944D01*
X104487690Y-106981618D01*
X104418382Y-106912310D01*
X104321691Y-106832958D01*
X104240192Y-106778502D01*
X104129875Y-106719536D01*
X104039319Y-106682027D01*
X103919623Y-106645718D01*
X103823490Y-106626596D01*
X103699009Y-106614336D01*
X103674450Y-106614336D01*
X103650000Y-106611928D01*
X103150000Y-106611928D01*
X103025518Y-106624188D01*
X103000000Y-106631929D01*
X102974482Y-106624188D01*
X102850000Y-106611928D01*
X102350000Y-106611928D01*
X102325550Y-106614336D01*
X102300991Y-106614336D01*
X102176510Y-106626596D01*
X102080377Y-106645718D01*
X101960681Y-106682027D01*
X101870125Y-106719536D01*
X101759808Y-106778502D01*
X101678309Y-106832958D01*
X101581618Y-106912310D01*
X101512310Y-106981618D01*
X101444745Y-107063947D01*
X101301890Y-107004774D01*
X101101931Y-106965000D01*
X100898053Y-106965000D01*
X100760000Y-106992460D01*
X100760000Y-104314801D01*
X101314802Y-103760000D01*
X103296289Y-103760000D01*
X103340226Y-103803937D01*
X103509744Y-103917205D01*
X103698102Y-103995226D01*
X103898061Y-104035000D01*
X104101939Y-104035000D01*
X104301898Y-103995226D01*
X104490256Y-103917205D01*
X104659774Y-103803937D01*
X104803937Y-103659774D01*
X104917205Y-103490256D01*
X104995226Y-103301898D01*
X105035000Y-103101939D01*
X105035000Y-102898061D01*
X104995226Y-102698102D01*
X104917205Y-102509744D01*
X104803937Y-102340226D01*
X104659774Y-102196063D01*
X104490256Y-102082795D01*
X104301898Y-102004774D01*
X104101939Y-101965000D01*
X103898061Y-101965000D01*
X103698102Y-102004774D01*
X103509744Y-102082795D01*
X103340226Y-102196063D01*
X103296289Y-102240000D01*
X101037333Y-102240000D01*
X101000000Y-102236323D01*
X100962667Y-102240000D01*
X100851014Y-102250997D01*
X100707753Y-102294454D01*
X100575724Y-102365026D01*
X100459999Y-102459999D01*
X100436201Y-102488997D01*
X99488998Y-103436201D01*
X99460000Y-103459999D01*
X99436202Y-103488997D01*
X99436201Y-103488998D01*
X99365026Y-103575724D01*
X99294454Y-103707754D01*
X99250998Y-103851015D01*
X99236324Y-104000000D01*
X99240001Y-104037332D01*
X99240000Y-116857467D01*
X99133010Y-117017589D01*
X99021068Y-117287842D01*
X98964000Y-117574740D01*
X98964000Y-117867260D01*
X99021068Y-118154158D01*
X99133010Y-118424411D01*
X99295525Y-118667632D01*
X99502368Y-118874475D01*
X99676760Y-118991000D01*
X99502368Y-119107525D01*
X99295525Y-119314368D01*
X99133010Y-119557589D01*
X99021068Y-119827842D01*
X98964000Y-120114740D01*
X98964000Y-120407260D01*
X99021068Y-120694158D01*
X99133010Y-120964411D01*
X99295525Y-121207632D01*
X99427893Y-121340000D01*
X98660000Y-121340000D01*
X98660000Y-100160000D01*
X107340001Y-100160000D01*
X107340000Y-121340000D01*
G04 #@! TA.AperFunction,Conductor*
D16*
G36*
X107340000Y-121340000D02*
G01*
X106973107Y-121340000D01*
X107004812Y-121235482D01*
X107017072Y-121111000D01*
X107017072Y-119411000D01*
X107004812Y-119286518D01*
X106968502Y-119166820D01*
X106909537Y-119056506D01*
X106830185Y-118959815D01*
X106733494Y-118880463D01*
X106623180Y-118821498D01*
X106550620Y-118799487D01*
X106682475Y-118667632D01*
X106844990Y-118424411D01*
X106956932Y-118154158D01*
X107014000Y-117867260D01*
X107014000Y-117574740D01*
X106956932Y-117287842D01*
X106844990Y-117017589D01*
X106682475Y-116774368D01*
X106475632Y-116567525D01*
X106232411Y-116405010D01*
X105962158Y-116293068D01*
X105675260Y-116236000D01*
X105382740Y-116236000D01*
X105095842Y-116293068D01*
X104825589Y-116405010D01*
X104582368Y-116567525D01*
X104375525Y-116774368D01*
X104253805Y-116956534D01*
X104184178Y-116839645D01*
X103989269Y-116623412D01*
X103755920Y-116449359D01*
X103493099Y-116324175D01*
X103345890Y-116279524D01*
X103116000Y-116400845D01*
X103116000Y-117594000D01*
X103136000Y-117594000D01*
X103136000Y-117848000D01*
X103116000Y-117848000D01*
X103116000Y-120134000D01*
X103136000Y-120134000D01*
X103136000Y-120388000D01*
X103116000Y-120388000D01*
X103116000Y-120408000D01*
X102862000Y-120408000D01*
X102862000Y-120388000D01*
X102842000Y-120388000D01*
X102842000Y-120134000D01*
X102862000Y-120134000D01*
X102862000Y-117848000D01*
X102842000Y-117848000D01*
X102842000Y-117594000D01*
X102862000Y-117594000D01*
X102862000Y-116400845D01*
X102632110Y-116279524D01*
X102484901Y-116324175D01*
X102222080Y-116449359D01*
X101988731Y-116623412D01*
X101793822Y-116839645D01*
X101724195Y-116956534D01*
X101602475Y-116774368D01*
X101395632Y-116567525D01*
X101152411Y-116405010D01*
X100882158Y-116293068D01*
X100760000Y-116268769D01*
X100760000Y-109007540D01*
X100898053Y-109035000D01*
X101101931Y-109035000D01*
X101301890Y-108995226D01*
X101444745Y-108936053D01*
X101512310Y-109018382D01*
X101581618Y-109087690D01*
X101678309Y-109167042D01*
X101759808Y-109221498D01*
X101870125Y-109280464D01*
X101960681Y-109317973D01*
X102080377Y-109354282D01*
X102176510Y-109373404D01*
X102300991Y-109385664D01*
X102325550Y-109385664D01*
X102350000Y-109388072D01*
X102850000Y-109388072D01*
X102974482Y-109375812D01*
X103000000Y-109368071D01*
X103025518Y-109375812D01*
X103150000Y-109388072D01*
X103650000Y-109388072D01*
X103674450Y-109385664D01*
X103699009Y-109385664D01*
X103823490Y-109373404D01*
X103919623Y-109354282D01*
X104039319Y-109317973D01*
X104129875Y-109280464D01*
X104240192Y-109221498D01*
X104321691Y-109167042D01*
X104418382Y-109087690D01*
X104487690Y-109018382D01*
X104555253Y-108936056D01*
X104698102Y-108995226D01*
X104898061Y-109035000D01*
X105101939Y-109035000D01*
X105301898Y-108995226D01*
X105490256Y-108917205D01*
X105659774Y-108803937D01*
X105803937Y-108659774D01*
X105917205Y-108490256D01*
X105995226Y-108301898D01*
X106035000Y-108101939D01*
X106035000Y-107898061D01*
X105995226Y-107698102D01*
X105917205Y-107509744D01*
X105803937Y-107340226D01*
X105659774Y-107196063D01*
X105490256Y-107082795D01*
X105301898Y-107004774D01*
X105101939Y-106965000D01*
X104898061Y-106965000D01*
X104698102Y-107004774D01*
X104555253Y-107063944D01*
X104487690Y-106981618D01*
X104418382Y-106912310D01*
X104321691Y-106832958D01*
X104240192Y-106778502D01*
X104129875Y-106719536D01*
X104039319Y-106682027D01*
X103919623Y-106645718D01*
X103823490Y-106626596D01*
X103699009Y-106614336D01*
X103674450Y-106614336D01*
X103650000Y-106611928D01*
X103150000Y-106611928D01*
X103025518Y-106624188D01*
X103000000Y-106631929D01*
X102974482Y-106624188D01*
X102850000Y-106611928D01*
X102350000Y-106611928D01*
X102325550Y-106614336D01*
X102300991Y-106614336D01*
X102176510Y-106626596D01*
X102080377Y-106645718D01*
X101960681Y-106682027D01*
X101870125Y-106719536D01*
X101759808Y-106778502D01*
X101678309Y-106832958D01*
X101581618Y-106912310D01*
X101512310Y-106981618D01*
X101444745Y-107063947D01*
X101301890Y-107004774D01*
X101101931Y-106965000D01*
X100898053Y-106965000D01*
X100760000Y-106992460D01*
X100760000Y-104314801D01*
X101314802Y-103760000D01*
X103296289Y-103760000D01*
X103340226Y-103803937D01*
X103509744Y-103917205D01*
X103698102Y-103995226D01*
X103898061Y-104035000D01*
X104101939Y-104035000D01*
X104301898Y-103995226D01*
X104490256Y-103917205D01*
X104659774Y-103803937D01*
X104803937Y-103659774D01*
X104917205Y-103490256D01*
X104995226Y-103301898D01*
X105035000Y-103101939D01*
X105035000Y-102898061D01*
X104995226Y-102698102D01*
X104917205Y-102509744D01*
X104803937Y-102340226D01*
X104659774Y-102196063D01*
X104490256Y-102082795D01*
X104301898Y-102004774D01*
X104101939Y-101965000D01*
X103898061Y-101965000D01*
X103698102Y-102004774D01*
X103509744Y-102082795D01*
X103340226Y-102196063D01*
X103296289Y-102240000D01*
X101037333Y-102240000D01*
X101000000Y-102236323D01*
X100962667Y-102240000D01*
X100851014Y-102250997D01*
X100707753Y-102294454D01*
X100575724Y-102365026D01*
X100459999Y-102459999D01*
X100436201Y-102488997D01*
X99488998Y-103436201D01*
X99460000Y-103459999D01*
X99436202Y-103488997D01*
X99436201Y-103488998D01*
X99365026Y-103575724D01*
X99294454Y-103707754D01*
X99250998Y-103851015D01*
X99236324Y-104000000D01*
X99240001Y-104037332D01*
X99240000Y-116857467D01*
X99133010Y-117017589D01*
X99021068Y-117287842D01*
X98964000Y-117574740D01*
X98964000Y-117867260D01*
X99021068Y-118154158D01*
X99133010Y-118424411D01*
X99295525Y-118667632D01*
X99502368Y-118874475D01*
X99676760Y-118991000D01*
X99502368Y-119107525D01*
X99295525Y-119314368D01*
X99133010Y-119557589D01*
X99021068Y-119827842D01*
X98964000Y-120114740D01*
X98964000Y-120407260D01*
X99021068Y-120694158D01*
X99133010Y-120964411D01*
X99295525Y-121207632D01*
X99427893Y-121340000D01*
X98660000Y-121340000D01*
X98660000Y-100160000D01*
X107340001Y-100160000D01*
X107340000Y-121340000D01*
G37*
G04 #@! TD.AperFunction*
M02*
