G04 #@! TF.GenerationSoftware,KiCad,Pcbnew,5.1.10-88a1d61d58~90~ubuntu21.04.1*
G04 #@! TF.CreationDate,2021-10-15T10:02:03+02:00*
G04 #@! TF.ProjectId,IndicatorLeds,496e6469-6361-4746-9f72-4c6564732e6b,rev?*
G04 #@! TF.SameCoordinates,Original*
G04 #@! TF.FileFunction,Legend,Bot*
G04 #@! TF.FilePolarity,Positive*
%FSLAX46Y46*%
G04 Gerber Fmt 4.6, Leading zero omitted, Abs format (unit mm)*
G04 Created by KiCad (PCBNEW 5.1.10-88a1d61d58~90~ubuntu21.04.1) date 2021-10-15 10:02:03*
%MOMM*%
%LPD*%
G01*
G04 APERTURE LIST*
%ADD10C,0.150000*%
%ADD11C,0.120000*%
%ADD12C,0.100000*%
%ADD13O,1.700000X1.700000*%
%ADD14R,1.700000X1.700000*%
G04 APERTURE END LIST*
D10*
X101592857Y-109988214D02*
X100392857Y-109988214D01*
X100392857Y-110273928D01*
X100450000Y-110445357D01*
X100564285Y-110559642D01*
X100678571Y-110616785D01*
X100907142Y-110673928D01*
X101078571Y-110673928D01*
X101307142Y-110616785D01*
X101421428Y-110559642D01*
X101535714Y-110445357D01*
X101592857Y-110273928D01*
X101592857Y-109988214D01*
X101592857Y-111359642D02*
X101535714Y-111245357D01*
X101478571Y-111188214D01*
X101364285Y-111131071D01*
X101021428Y-111131071D01*
X100907142Y-111188214D01*
X100850000Y-111245357D01*
X100792857Y-111359642D01*
X100792857Y-111531071D01*
X100850000Y-111645357D01*
X100907142Y-111702500D01*
X101021428Y-111759642D01*
X101364285Y-111759642D01*
X101478571Y-111702500D01*
X101535714Y-111645357D01*
X101592857Y-111531071D01*
X101592857Y-111359642D01*
X101992857Y-112559642D02*
X100278571Y-112559642D01*
X101592857Y-113416785D02*
X100392857Y-113416785D01*
X100392857Y-113702500D01*
X100450000Y-113873928D01*
X100564285Y-113988214D01*
X100678571Y-114045357D01*
X100907142Y-114102500D01*
X101078571Y-114102500D01*
X101307142Y-114045357D01*
X101421428Y-113988214D01*
X101535714Y-113873928D01*
X101592857Y-113702500D01*
X101592857Y-113416785D01*
X101592857Y-114616785D02*
X100792857Y-114616785D01*
X100392857Y-114616785D02*
X100450000Y-114559642D01*
X100507142Y-114616785D01*
X100450000Y-114673928D01*
X100392857Y-114616785D01*
X100507142Y-114616785D01*
X102400000Y-112159642D02*
X102342857Y-112045357D01*
X102342857Y-111873928D01*
X102400000Y-111702500D01*
X102514285Y-111588214D01*
X102628571Y-111531071D01*
X102857142Y-111473928D01*
X103028571Y-111473928D01*
X103257142Y-111531071D01*
X103371428Y-111588214D01*
X103485714Y-111702500D01*
X103542857Y-111873928D01*
X103542857Y-111988214D01*
X103485714Y-112159642D01*
X103428571Y-112216785D01*
X103028571Y-112216785D01*
X103028571Y-111988214D01*
X103542857Y-112731071D02*
X102342857Y-112731071D01*
X103542857Y-113416785D01*
X102342857Y-113416785D01*
X103542857Y-113988214D02*
X102342857Y-113988214D01*
X102342857Y-114273928D01*
X102400000Y-114445357D01*
X102514285Y-114559642D01*
X102628571Y-114616785D01*
X102857142Y-114673928D01*
X103028571Y-114673928D01*
X103257142Y-114616785D01*
X103371428Y-114559642D01*
X103485714Y-114445357D01*
X103542857Y-114273928D01*
X103542857Y-113988214D01*
X104292857Y-111588214D02*
X105492857Y-111988214D01*
X104292857Y-112388214D01*
X105378571Y-113473928D02*
X105435714Y-113416785D01*
X105492857Y-113245357D01*
X105492857Y-113131071D01*
X105435714Y-112959642D01*
X105321428Y-112845357D01*
X105207142Y-112788214D01*
X104978571Y-112731071D01*
X104807142Y-112731071D01*
X104578571Y-112788214D01*
X104464285Y-112845357D01*
X104350000Y-112959642D01*
X104292857Y-113131071D01*
X104292857Y-113245357D01*
X104350000Y-113416785D01*
X104407142Y-113473928D01*
X105378571Y-114673928D02*
X105435714Y-114616785D01*
X105492857Y-114445357D01*
X105492857Y-114331071D01*
X105435714Y-114159642D01*
X105321428Y-114045357D01*
X105207142Y-113988214D01*
X104978571Y-113931071D01*
X104807142Y-113931071D01*
X104578571Y-113988214D01*
X104464285Y-114045357D01*
X104350000Y-114159642D01*
X104292857Y-114331071D01*
X104292857Y-114445357D01*
X104350000Y-114616785D01*
X104407142Y-114673928D01*
D11*
X102300000Y-109000000D02*
X103700000Y-109000000D01*
X104400000Y-108300000D02*
X104400000Y-107700000D01*
X103700000Y-107000000D02*
X102300000Y-107000000D01*
X101600000Y-107700000D02*
X101600000Y-108300000D01*
X101600000Y-108300000D02*
G75*
G03*
X102300000Y-109000000I700000J0D01*
G01*
X102300000Y-107000000D02*
G75*
G03*
X101600000Y-107700000I0J-700000D01*
G01*
X104400000Y-107700000D02*
G75*
G03*
X103700000Y-107000000I-700000J0D01*
G01*
X103700000Y-109000000D02*
G75*
G03*
X104400000Y-108300000I0J700000D01*
G01*
X106859000Y-121591000D02*
X106859000Y-120261000D01*
X105529000Y-121591000D02*
X106859000Y-121591000D01*
X106859000Y-118991000D02*
X106859000Y-116391000D01*
X104259000Y-118991000D02*
X106859000Y-118991000D01*
X104259000Y-121591000D02*
X104259000Y-118991000D01*
X106859000Y-116391000D02*
X99119000Y-116391000D01*
X104259000Y-121591000D02*
X99119000Y-121591000D01*
X99119000Y-121591000D02*
X99119000Y-116391000D01*
D10*
X104083333Y-104952380D02*
X104083333Y-105666666D01*
X104130952Y-105809523D01*
X104226190Y-105904761D01*
X104369047Y-105952380D01*
X104464285Y-105952380D01*
X103607142Y-105952380D02*
X103607142Y-104952380D01*
X103226190Y-104952380D01*
X103130952Y-105000000D01*
X103083333Y-105047619D01*
X103035714Y-105142857D01*
X103035714Y-105285714D01*
X103083333Y-105380952D01*
X103130952Y-105428571D01*
X103226190Y-105476190D01*
X103607142Y-105476190D01*
X102083333Y-105952380D02*
X102654761Y-105952380D01*
X102369047Y-105952380D02*
X102369047Y-104952380D01*
X102464285Y-105095238D01*
X102559523Y-105190476D01*
X102654761Y-105238095D01*
X107083333Y-114702380D02*
X107083333Y-115416666D01*
X107130952Y-115559523D01*
X107226190Y-115654761D01*
X107369047Y-115702380D01*
X107464285Y-115702380D01*
X106083333Y-115702380D02*
X106654761Y-115702380D01*
X106369047Y-115702380D02*
X106369047Y-114702380D01*
X106464285Y-114845238D01*
X106559523Y-114940476D01*
X106654761Y-114988095D01*
%LPC*%
D12*
G36*
X103650000Y-107250602D02*
G01*
X103674534Y-107250602D01*
X103723365Y-107255412D01*
X103771490Y-107264984D01*
X103818445Y-107279228D01*
X103863778Y-107298005D01*
X103907051Y-107321136D01*
X103947850Y-107348396D01*
X103985779Y-107379524D01*
X104020476Y-107414221D01*
X104051604Y-107452150D01*
X104078864Y-107492949D01*
X104101995Y-107536222D01*
X104120772Y-107581555D01*
X104135016Y-107628510D01*
X104144588Y-107676635D01*
X104149398Y-107725466D01*
X104149398Y-107750000D01*
X104150000Y-107750000D01*
X104150000Y-108250000D01*
X104149398Y-108250000D01*
X104149398Y-108274534D01*
X104144588Y-108323365D01*
X104135016Y-108371490D01*
X104120772Y-108418445D01*
X104101995Y-108463778D01*
X104078864Y-108507051D01*
X104051604Y-108547850D01*
X104020476Y-108585779D01*
X103985779Y-108620476D01*
X103947850Y-108651604D01*
X103907051Y-108678864D01*
X103863778Y-108701995D01*
X103818445Y-108720772D01*
X103771490Y-108735016D01*
X103723365Y-108744588D01*
X103674534Y-108749398D01*
X103650000Y-108749398D01*
X103650000Y-108750000D01*
X103150000Y-108750000D01*
X103150000Y-107250000D01*
X103650000Y-107250000D01*
X103650000Y-107250602D01*
G37*
G36*
X102850000Y-108750000D02*
G01*
X102350000Y-108750000D01*
X102350000Y-108749398D01*
X102325466Y-108749398D01*
X102276635Y-108744588D01*
X102228510Y-108735016D01*
X102181555Y-108720772D01*
X102136222Y-108701995D01*
X102092949Y-108678864D01*
X102052150Y-108651604D01*
X102014221Y-108620476D01*
X101979524Y-108585779D01*
X101948396Y-108547850D01*
X101921136Y-108507051D01*
X101898005Y-108463778D01*
X101879228Y-108418445D01*
X101864984Y-108371490D01*
X101855412Y-108323365D01*
X101850602Y-108274534D01*
X101850602Y-108250000D01*
X101850000Y-108250000D01*
X101850000Y-107750000D01*
X101850602Y-107750000D01*
X101850602Y-107725466D01*
X101855412Y-107676635D01*
X101864984Y-107628510D01*
X101879228Y-107581555D01*
X101898005Y-107536222D01*
X101921136Y-107492949D01*
X101948396Y-107452150D01*
X101979524Y-107414221D01*
X102014221Y-107379524D01*
X102052150Y-107348396D01*
X102092949Y-107321136D01*
X102136222Y-107298005D01*
X102181555Y-107279228D01*
X102228510Y-107264984D01*
X102276635Y-107255412D01*
X102325466Y-107250602D01*
X102350000Y-107250602D01*
X102350000Y-107250000D01*
X102850000Y-107250000D01*
X102850000Y-108750000D01*
G37*
D13*
X100449000Y-117721000D03*
X100449000Y-120261000D03*
X102989000Y-117721000D03*
X102989000Y-120261000D03*
X105529000Y-117721000D03*
D14*
X105529000Y-120261000D03*
M02*
