G04 #@! TF.GenerationSoftware,KiCad,Pcbnew,5.1.10-88a1d61d58~90~ubuntu21.04.1*
G04 #@! TF.CreationDate,2021-10-15T10:06:39+02:00*
G04 #@! TF.ProjectId,IndicatorLeds,496e6469-6361-4746-9f72-4c6564732e6b,rev?*
G04 #@! TF.SameCoordinates,Original*
G04 #@! TF.FileFunction,Legend,Top*
G04 #@! TF.FilePolarity,Positive*
%FSLAX46Y46*%
G04 Gerber Fmt 4.6, Leading zero omitted, Abs format (unit mm)*
G04 Created by KiCad (PCBNEW 5.1.10-88a1d61d58~90~ubuntu21.04.1) date 2021-10-15 10:06:39*
%MOMM*%
%LPD*%
G01*
G04 APERTURE LIST*
G04 #@! TA.AperFunction,Profile*
%ADD10C,0.100000*%
G04 #@! TD*
%ADD11C,0.120000*%
%ADD12C,0.150000*%
G04 APERTURE END LIST*
D10*
X45000000Y-49999000D02*
X110000000Y-49999000D01*
X45000000Y-87501000D02*
X45000000Y-49999000D01*
X115001000Y-87501000D02*
X45000000Y-87501000D01*
X115001000Y-49999000D02*
X115001000Y-87501000D01*
X110000000Y-49999000D02*
X115001000Y-49999000D01*
D11*
G04 #@! TO.C,D1*
X101350026Y-75750011D02*
X101350026Y-76900011D01*
X91350021Y-75750011D02*
X91350021Y-76900011D01*
X81350016Y-75750011D02*
X81350016Y-76900011D01*
X71350011Y-75750011D02*
X71350011Y-76900011D01*
X61350006Y-75750011D02*
X61350006Y-76900011D01*
X51350001Y-75750011D02*
X51350001Y-76900011D01*
X101350026Y-63250006D02*
X101350026Y-64400006D01*
X91350021Y-63250006D02*
X91350021Y-64400006D01*
X81350016Y-63250006D02*
X81350016Y-64400006D01*
X71350011Y-63250006D02*
X71350011Y-64400006D01*
X61350006Y-63250006D02*
X61350006Y-64400006D01*
X51350001Y-63250006D02*
X51350001Y-64400006D01*
X101350026Y-50750001D02*
X101350026Y-51900001D01*
X91350021Y-50750001D02*
X91350021Y-51900001D01*
X81350016Y-50750001D02*
X81350016Y-51900001D01*
X71350011Y-50750001D02*
X71350011Y-51900001D01*
X61350006Y-50750001D02*
X61350006Y-51900001D01*
X51350001Y-50750001D02*
X51350001Y-51900001D01*
G04 #@! TD*
G04 #@! TO.C,D1*
D12*
X109435740Y-80552391D02*
X108864311Y-80552391D01*
X109150026Y-80552391D02*
X109150026Y-79552391D01*
X109054787Y-79695249D01*
X108959549Y-79790487D01*
X108864311Y-79838106D01*
X99435735Y-80552391D02*
X98864306Y-80552391D01*
X99150021Y-80552391D02*
X99150021Y-79552391D01*
X99054782Y-79695249D01*
X98959544Y-79790487D01*
X98864306Y-79838106D01*
X89435730Y-80552391D02*
X88864301Y-80552391D01*
X89150016Y-80552391D02*
X89150016Y-79552391D01*
X89054777Y-79695249D01*
X88959539Y-79790487D01*
X88864301Y-79838106D01*
X79435725Y-80552391D02*
X78864296Y-80552391D01*
X79150011Y-80552391D02*
X79150011Y-79552391D01*
X79054772Y-79695249D01*
X78959534Y-79790487D01*
X78864296Y-79838106D01*
X69435720Y-80552391D02*
X68864291Y-80552391D01*
X69150006Y-80552391D02*
X69150006Y-79552391D01*
X69054767Y-79695249D01*
X68959529Y-79790487D01*
X68864291Y-79838106D01*
X59435715Y-80552391D02*
X58864286Y-80552391D01*
X59150001Y-80552391D02*
X59150001Y-79552391D01*
X59054762Y-79695249D01*
X58959524Y-79790487D01*
X58864286Y-79838106D01*
X109435740Y-68052386D02*
X108864311Y-68052386D01*
X109150026Y-68052386D02*
X109150026Y-67052386D01*
X109054787Y-67195244D01*
X108959549Y-67290482D01*
X108864311Y-67338101D01*
X99435735Y-68052386D02*
X98864306Y-68052386D01*
X99150021Y-68052386D02*
X99150021Y-67052386D01*
X99054782Y-67195244D01*
X98959544Y-67290482D01*
X98864306Y-67338101D01*
X89435730Y-68052386D02*
X88864301Y-68052386D01*
X89150016Y-68052386D02*
X89150016Y-67052386D01*
X89054777Y-67195244D01*
X88959539Y-67290482D01*
X88864301Y-67338101D01*
X79435725Y-68052386D02*
X78864296Y-68052386D01*
X79150011Y-68052386D02*
X79150011Y-67052386D01*
X79054772Y-67195244D01*
X78959534Y-67290482D01*
X78864296Y-67338101D01*
X69435720Y-68052386D02*
X68864291Y-68052386D01*
X69150006Y-68052386D02*
X69150006Y-67052386D01*
X69054767Y-67195244D01*
X68959529Y-67290482D01*
X68864291Y-67338101D01*
X59435715Y-68052386D02*
X58864286Y-68052386D01*
X59150001Y-68052386D02*
X59150001Y-67052386D01*
X59054762Y-67195244D01*
X58959524Y-67290482D01*
X58864286Y-67338101D01*
X109435740Y-55552381D02*
X108864311Y-55552381D01*
X109150026Y-55552381D02*
X109150026Y-54552381D01*
X109054787Y-54695239D01*
X108959549Y-54790477D01*
X108864311Y-54838096D01*
X99435735Y-55552381D02*
X98864306Y-55552381D01*
X99150021Y-55552381D02*
X99150021Y-54552381D01*
X99054782Y-54695239D01*
X98959544Y-54790477D01*
X98864306Y-54838096D01*
X89435730Y-55552381D02*
X88864301Y-55552381D01*
X89150016Y-55552381D02*
X89150016Y-54552381D01*
X89054777Y-54695239D01*
X88959539Y-54790477D01*
X88864301Y-54838096D01*
X79435725Y-55552381D02*
X78864296Y-55552381D01*
X79150011Y-55552381D02*
X79150011Y-54552381D01*
X79054772Y-54695239D01*
X78959534Y-54790477D01*
X78864296Y-54838096D01*
X69435720Y-55552381D02*
X68864291Y-55552381D01*
X69150006Y-55552381D02*
X69150006Y-54552381D01*
X69054767Y-54695239D01*
X68959529Y-54790477D01*
X68864291Y-54838096D01*
X59435715Y-55552381D02*
X58864286Y-55552381D01*
X59150001Y-55552381D02*
X59150001Y-54552381D01*
X59054762Y-54695239D01*
X58959524Y-54790477D01*
X58864286Y-54838096D01*
G04 #@! TD*
M02*
