%TF.GenerationSoftware,KiCad,Pcbnew,5.1.6-c6e7f7d~87~ubuntu20.04.1*%
%TF.CreationDate,2020-08-28T13:01:10+02:00*%
%TF.ProjectId,DccModule,4463634d-6f64-4756-9c65-2e6b69636164,rev?*%
%TF.SameCoordinates,Original*%
%TF.FileFunction,Paste,Top*%
%TF.FilePolarity,Positive*%
%FSLAX46Y46*%
G04 Gerber Fmt 4.6, Leading zero omitted, Abs format (unit mm)*
G04 Created by KiCad (PCBNEW 5.1.6-c6e7f7d~87~ubuntu20.04.1) date 2020-08-28 13:01:10*
%MOMM*%
%LPD*%
G01*
G04 APERTURE LIST*
%ADD10R,0.550000X1.600000*%
%ADD11R,1.600000X0.550000*%
%ADD12R,1.000000X1.500000*%
G04 APERTURE END LIST*
D10*
%TO.C,U1*%
X155200000Y-100750000D03*
X156000000Y-100750000D03*
X156800000Y-100750000D03*
X157600000Y-100750000D03*
X158400000Y-100750000D03*
X159200000Y-100750000D03*
X160000000Y-100750000D03*
X160800000Y-100750000D03*
D11*
X162250000Y-102200000D03*
X162250000Y-103000000D03*
X162250000Y-103800000D03*
X162250000Y-104600000D03*
X162250000Y-105400000D03*
X162250000Y-106200000D03*
X162250000Y-107000000D03*
X162250000Y-107800000D03*
D10*
X160800000Y-109250000D03*
X160000000Y-109250000D03*
X159200000Y-109250000D03*
X158400000Y-109250000D03*
X157600000Y-109250000D03*
X156800000Y-109250000D03*
X156000000Y-109250000D03*
X155200000Y-109250000D03*
D11*
X153750000Y-107800000D03*
X153750000Y-107000000D03*
X153750000Y-106200000D03*
X153750000Y-105400000D03*
X153750000Y-104600000D03*
X153750000Y-103800000D03*
X153750000Y-103000000D03*
X153750000Y-102200000D03*
%TD*%
%TO.C,R6*%
G36*
G01*
X191037500Y-122625000D02*
X191037500Y-121375000D01*
G75*
G02*
X191287500Y-121125000I250000J0D01*
G01*
X192212500Y-121125000D01*
G75*
G02*
X192462500Y-121375000I0J-250000D01*
G01*
X192462500Y-122625000D01*
G75*
G02*
X192212500Y-122875000I-250000J0D01*
G01*
X191287500Y-122875000D01*
G75*
G02*
X191037500Y-122625000I0J250000D01*
G01*
G37*
G36*
G01*
X188062500Y-122625000D02*
X188062500Y-121375000D01*
G75*
G02*
X188312500Y-121125000I250000J0D01*
G01*
X189237500Y-121125000D01*
G75*
G02*
X189487500Y-121375000I0J-250000D01*
G01*
X189487500Y-122625000D01*
G75*
G02*
X189237500Y-122875000I-250000J0D01*
G01*
X188312500Y-122875000D01*
G75*
G02*
X188062500Y-122625000I0J250000D01*
G01*
G37*
%TD*%
%TO.C,R5*%
G36*
G01*
X191025000Y-128125000D02*
X191025000Y-126875000D01*
G75*
G02*
X191275000Y-126625000I250000J0D01*
G01*
X192200000Y-126625000D01*
G75*
G02*
X192450000Y-126875000I0J-250000D01*
G01*
X192450000Y-128125000D01*
G75*
G02*
X192200000Y-128375000I-250000J0D01*
G01*
X191275000Y-128375000D01*
G75*
G02*
X191025000Y-128125000I0J250000D01*
G01*
G37*
G36*
G01*
X188050000Y-128125000D02*
X188050000Y-126875000D01*
G75*
G02*
X188300000Y-126625000I250000J0D01*
G01*
X189225000Y-126625000D01*
G75*
G02*
X189475000Y-126875000I0J-250000D01*
G01*
X189475000Y-128125000D01*
G75*
G02*
X189225000Y-128375000I-250000J0D01*
G01*
X188300000Y-128375000D01*
G75*
G02*
X188050000Y-128125000I0J250000D01*
G01*
G37*
%TD*%
%TO.C,R4*%
G36*
G01*
X199275000Y-100625000D02*
X199275000Y-99375000D01*
G75*
G02*
X199525000Y-99125000I250000J0D01*
G01*
X200450000Y-99125000D01*
G75*
G02*
X200700000Y-99375000I0J-250000D01*
G01*
X200700000Y-100625000D01*
G75*
G02*
X200450000Y-100875000I-250000J0D01*
G01*
X199525000Y-100875000D01*
G75*
G02*
X199275000Y-100625000I0J250000D01*
G01*
G37*
G36*
G01*
X196300000Y-100625000D02*
X196300000Y-99375000D01*
G75*
G02*
X196550000Y-99125000I250000J0D01*
G01*
X197475000Y-99125000D01*
G75*
G02*
X197725000Y-99375000I0J-250000D01*
G01*
X197725000Y-100625000D01*
G75*
G02*
X197475000Y-100875000I-250000J0D01*
G01*
X196550000Y-100875000D01*
G75*
G02*
X196300000Y-100625000I0J250000D01*
G01*
G37*
%TD*%
%TO.C,R3*%
G36*
G01*
X136025000Y-101875000D02*
X136025000Y-100625000D01*
G75*
G02*
X136275000Y-100375000I250000J0D01*
G01*
X137200000Y-100375000D01*
G75*
G02*
X137450000Y-100625000I0J-250000D01*
G01*
X137450000Y-101875000D01*
G75*
G02*
X137200000Y-102125000I-250000J0D01*
G01*
X136275000Y-102125000D01*
G75*
G02*
X136025000Y-101875000I0J250000D01*
G01*
G37*
G36*
G01*
X133050000Y-101875000D02*
X133050000Y-100625000D01*
G75*
G02*
X133300000Y-100375000I250000J0D01*
G01*
X134225000Y-100375000D01*
G75*
G02*
X134475000Y-100625000I0J-250000D01*
G01*
X134475000Y-101875000D01*
G75*
G02*
X134225000Y-102125000I-250000J0D01*
G01*
X133300000Y-102125000D01*
G75*
G02*
X133050000Y-101875000I0J250000D01*
G01*
G37*
%TD*%
%TO.C,R2*%
G36*
G01*
X140775000Y-96625000D02*
X140775000Y-95375000D01*
G75*
G02*
X141025000Y-95125000I250000J0D01*
G01*
X141950000Y-95125000D01*
G75*
G02*
X142200000Y-95375000I0J-250000D01*
G01*
X142200000Y-96625000D01*
G75*
G02*
X141950000Y-96875000I-250000J0D01*
G01*
X141025000Y-96875000D01*
G75*
G02*
X140775000Y-96625000I0J250000D01*
G01*
G37*
G36*
G01*
X137800000Y-96625000D02*
X137800000Y-95375000D01*
G75*
G02*
X138050000Y-95125000I250000J0D01*
G01*
X138975000Y-95125000D01*
G75*
G02*
X139225000Y-95375000I0J-250000D01*
G01*
X139225000Y-96625000D01*
G75*
G02*
X138975000Y-96875000I-250000J0D01*
G01*
X138050000Y-96875000D01*
G75*
G02*
X137800000Y-96625000I0J250000D01*
G01*
G37*
%TD*%
%TO.C,R1*%
G36*
G01*
X146375000Y-109775000D02*
X147625000Y-109775000D01*
G75*
G02*
X147875000Y-110025000I0J-250000D01*
G01*
X147875000Y-110950000D01*
G75*
G02*
X147625000Y-111200000I-250000J0D01*
G01*
X146375000Y-111200000D01*
G75*
G02*
X146125000Y-110950000I0J250000D01*
G01*
X146125000Y-110025000D01*
G75*
G02*
X146375000Y-109775000I250000J0D01*
G01*
G37*
G36*
G01*
X146375000Y-106800000D02*
X147625000Y-106800000D01*
G75*
G02*
X147875000Y-107050000I0J-250000D01*
G01*
X147875000Y-107975000D01*
G75*
G02*
X147625000Y-108225000I-250000J0D01*
G01*
X146375000Y-108225000D01*
G75*
G02*
X146125000Y-107975000I0J250000D01*
G01*
X146125000Y-107050000D01*
G75*
G02*
X146375000Y-106800000I250000J0D01*
G01*
G37*
%TD*%
D12*
%TO.C,D7*%
X191850000Y-93300000D03*
X188650000Y-93300000D03*
X191850000Y-98200000D03*
X188650000Y-98200000D03*
%TD*%
%TO.C,D6*%
X191850000Y-102800000D03*
X188650000Y-102800000D03*
X191850000Y-107700000D03*
X188650000Y-107700000D03*
%TD*%
%TO.C,D5*%
X191850000Y-112300000D03*
X188650000Y-112300000D03*
X191850000Y-117200000D03*
X188650000Y-117200000D03*
%TD*%
%TO.C,D4*%
G36*
G01*
X195975000Y-121375000D02*
X195975000Y-122625000D01*
G75*
G02*
X195725000Y-122875000I-250000J0D01*
G01*
X194800000Y-122875000D01*
G75*
G02*
X194550000Y-122625000I0J250000D01*
G01*
X194550000Y-121375000D01*
G75*
G02*
X194800000Y-121125000I250000J0D01*
G01*
X195725000Y-121125000D01*
G75*
G02*
X195975000Y-121375000I0J-250000D01*
G01*
G37*
G36*
G01*
X198950000Y-121375000D02*
X198950000Y-122625000D01*
G75*
G02*
X198700000Y-122875000I-250000J0D01*
G01*
X197775000Y-122875000D01*
G75*
G02*
X197525000Y-122625000I0J250000D01*
G01*
X197525000Y-121375000D01*
G75*
G02*
X197775000Y-121125000I250000J0D01*
G01*
X198700000Y-121125000D01*
G75*
G02*
X198950000Y-121375000I0J-250000D01*
G01*
G37*
%TD*%
%TO.C,D3*%
G36*
G01*
X195962500Y-126875000D02*
X195962500Y-128125000D01*
G75*
G02*
X195712500Y-128375000I-250000J0D01*
G01*
X194787500Y-128375000D01*
G75*
G02*
X194537500Y-128125000I0J250000D01*
G01*
X194537500Y-126875000D01*
G75*
G02*
X194787500Y-126625000I250000J0D01*
G01*
X195712500Y-126625000D01*
G75*
G02*
X195962500Y-126875000I0J-250000D01*
G01*
G37*
G36*
G01*
X198937500Y-126875000D02*
X198937500Y-128125000D01*
G75*
G02*
X198687500Y-128375000I-250000J0D01*
G01*
X197762500Y-128375000D01*
G75*
G02*
X197512500Y-128125000I0J250000D01*
G01*
X197512500Y-126875000D01*
G75*
G02*
X197762500Y-126625000I250000J0D01*
G01*
X198687500Y-126625000D01*
G75*
G02*
X198937500Y-126875000I0J-250000D01*
G01*
G37*
%TD*%
%TO.C,D2*%
G36*
G01*
X136037500Y-105125000D02*
X136037500Y-103875000D01*
G75*
G02*
X136287500Y-103625000I250000J0D01*
G01*
X137212500Y-103625000D01*
G75*
G02*
X137462500Y-103875000I0J-250000D01*
G01*
X137462500Y-105125000D01*
G75*
G02*
X137212500Y-105375000I-250000J0D01*
G01*
X136287500Y-105375000D01*
G75*
G02*
X136037500Y-105125000I0J250000D01*
G01*
G37*
G36*
G01*
X133062500Y-105125000D02*
X133062500Y-103875000D01*
G75*
G02*
X133312500Y-103625000I250000J0D01*
G01*
X134237500Y-103625000D01*
G75*
G02*
X134487500Y-103875000I0J-250000D01*
G01*
X134487500Y-105125000D01*
G75*
G02*
X134237500Y-105375000I-250000J0D01*
G01*
X133312500Y-105375000D01*
G75*
G02*
X133062500Y-105125000I0J250000D01*
G01*
G37*
%TD*%
%TO.C,D1*%
G36*
G01*
X140775000Y-93625000D02*
X140775000Y-92375000D01*
G75*
G02*
X141025000Y-92125000I250000J0D01*
G01*
X141950000Y-92125000D01*
G75*
G02*
X142200000Y-92375000I0J-250000D01*
G01*
X142200000Y-93625000D01*
G75*
G02*
X141950000Y-93875000I-250000J0D01*
G01*
X141025000Y-93875000D01*
G75*
G02*
X140775000Y-93625000I0J250000D01*
G01*
G37*
G36*
G01*
X137800000Y-93625000D02*
X137800000Y-92375000D01*
G75*
G02*
X138050000Y-92125000I250000J0D01*
G01*
X138975000Y-92125000D01*
G75*
G02*
X139225000Y-92375000I0J-250000D01*
G01*
X139225000Y-93625000D01*
G75*
G02*
X138975000Y-93875000I-250000J0D01*
G01*
X138050000Y-93875000D01*
G75*
G02*
X137800000Y-93625000I0J250000D01*
G01*
G37*
%TD*%
%TO.C,C3*%
G36*
G01*
X148225000Y-103375000D02*
X148225000Y-104625000D01*
G75*
G02*
X147975000Y-104875000I-250000J0D01*
G01*
X147050000Y-104875000D01*
G75*
G02*
X146800000Y-104625000I0J250000D01*
G01*
X146800000Y-103375000D01*
G75*
G02*
X147050000Y-103125000I250000J0D01*
G01*
X147975000Y-103125000D01*
G75*
G02*
X148225000Y-103375000I0J-250000D01*
G01*
G37*
G36*
G01*
X151200000Y-103375000D02*
X151200000Y-104625000D01*
G75*
G02*
X150950000Y-104875000I-250000J0D01*
G01*
X150025000Y-104875000D01*
G75*
G02*
X149775000Y-104625000I0J250000D01*
G01*
X149775000Y-103375000D01*
G75*
G02*
X150025000Y-103125000I250000J0D01*
G01*
X150950000Y-103125000D01*
G75*
G02*
X151200000Y-103375000I0J-250000D01*
G01*
G37*
%TD*%
%TO.C,C2*%
G36*
G01*
X166462500Y-106375000D02*
X166462500Y-107625000D01*
G75*
G02*
X166212500Y-107875000I-250000J0D01*
G01*
X165287500Y-107875000D01*
G75*
G02*
X165037500Y-107625000I0J250000D01*
G01*
X165037500Y-106375000D01*
G75*
G02*
X165287500Y-106125000I250000J0D01*
G01*
X166212500Y-106125000D01*
G75*
G02*
X166462500Y-106375000I0J-250000D01*
G01*
G37*
G36*
G01*
X169437500Y-106375000D02*
X169437500Y-107625000D01*
G75*
G02*
X169187500Y-107875000I-250000J0D01*
G01*
X168262500Y-107875000D01*
G75*
G02*
X168012500Y-107625000I0J250000D01*
G01*
X168012500Y-106375000D01*
G75*
G02*
X168262500Y-106125000I250000J0D01*
G01*
X169187500Y-106125000D01*
G75*
G02*
X169437500Y-106375000I0J-250000D01*
G01*
G37*
%TD*%
%TO.C,C1*%
G36*
G01*
X130125000Y-89375000D02*
X130125000Y-90625000D01*
G75*
G02*
X129875000Y-90875000I-250000J0D01*
G01*
X129125000Y-90875000D01*
G75*
G02*
X128875000Y-90625000I0J250000D01*
G01*
X128875000Y-89375000D01*
G75*
G02*
X129125000Y-89125000I250000J0D01*
G01*
X129875000Y-89125000D01*
G75*
G02*
X130125000Y-89375000I0J-250000D01*
G01*
G37*
G36*
G01*
X132925000Y-89375000D02*
X132925000Y-90625000D01*
G75*
G02*
X132675000Y-90875000I-250000J0D01*
G01*
X131925000Y-90875000D01*
G75*
G02*
X131675000Y-90625000I0J250000D01*
G01*
X131675000Y-89375000D01*
G75*
G02*
X131925000Y-89125000I250000J0D01*
G01*
X132675000Y-89125000D01*
G75*
G02*
X132925000Y-89375000I0J-250000D01*
G01*
G37*
%TD*%
M02*
