M48
; DRILL file {KiCad 5.1.6-c6e7f7d~87~ubuntu20.04.1} date Fri Aug 28 13:01:07 2020
; FORMAT={-:-/ absolute / inch / decimal}
; #@! TF.CreationDate,2020-08-28T13:01:07+02:00
; #@! TF.GenerationSoftware,Kicad,Pcbnew,5.1.6-c6e7f7d~87~ubuntu20.04.1
; #@! TF.FileFunction,Plated,1,2,PTH
FMAT,2
INCH
T1C0.0157
T2C0.0374
T3C0.0394
T4C0.0433
%
G90
G05
T1
X5.0492Y-3.8681
X5.128Y-3.9567
X5.3937Y-3.7795
X5.7185Y-3.6417
X5.7185Y-4.6949
X5.8957Y-3.5138
X5.9252Y-4.0157
X5.9744Y-4.0256
X6.0433Y-4.3898
X6.1319Y-4.0748
X6.1609Y-4.2318
X6.1713Y-4.0453
X6.1909Y-4.4587
X6.2106Y-4.5472
X6.2303Y-4.2323
X6.3091Y-4.1732
X6.3287Y-4.3898
X6.3878Y-4.2913
X6.4961Y-4.0059
X6.4961Y-4.0551
X6.5059Y-3.9469
X6.5256Y-4.1437
X6.565Y-3.5236
X6.5846Y-3.8976
X6.6142Y-4.0157
X6.6339Y-3.7303
X6.7421Y-3.9862
X6.7421Y-4.0354
X6.7815Y-3.8091
X6.7815Y-3.937
X7.0374Y-3.9173
X7.5492Y-3.4941
X7.687Y-3.937
T2
X7.4606Y-3.3071
X7.5591Y-3.3071
X7.6575Y-3.3071
X7.7559Y-3.3071
T3
X6.2173Y-3.4252
X6.2173Y-3.5252
X6.3173Y-3.4252
X6.3173Y-3.5252
X6.4173Y-3.4252
X6.4173Y-3.5252
X4.8819Y-3.7402
X4.8819Y-3.8402
X4.8819Y-3.9402
X4.8819Y-4.0402
X4.8819Y-4.1402
X4.8819Y-4.2402
X6.1173Y-3.7795
X6.2173Y-3.7795
X6.3173Y-3.7795
X6.4173Y-3.7795
X5.2724Y-4.685
X5.2724Y-4.785
X5.3724Y-4.685
X5.3724Y-4.785
X5.4724Y-4.685
X5.4724Y-4.785
X6.0992Y-4.685
X6.0992Y-4.785
X6.1992Y-4.685
X6.1992Y-4.785
X6.2992Y-4.685
X6.2992Y-4.785
X5.6299Y-4.2323
X5.6299Y-4.3307
X5.6299Y-4.4291
T4
X5.3346Y-3.3465
X5.3346Y-3.5236
X5.5906Y-3.3465
X5.5906Y-3.5236
X7.7559Y-4.1043
X7.7559Y-4.3602
X7.9331Y-4.1043
X7.9331Y-4.3602
T0
M30
