%TF.GenerationSoftware,KiCad,Pcbnew,5.1.6-c6e7f7d~87~ubuntu20.04.1*%
%TF.CreationDate,2020-08-28T13:01:10+02:00*%
%TF.ProjectId,DccModule,4463634d-6f64-4756-9c65-2e6b69636164,rev?*%
%TF.SameCoordinates,Original*%
%TF.FileFunction,Legend,Top*%
%TF.FilePolarity,Positive*%
%FSLAX46Y46*%
G04 Gerber Fmt 4.6, Leading zero omitted, Abs format (unit mm)*
G04 Created by KiCad (PCBNEW 5.1.6-c6e7f7d~87~ubuntu20.04.1) date 2020-08-28 13:01:10*
%MOMM*%
%LPD*%
G01*
G04 APERTURE LIST*
%ADD10C,0.150000*%
%ADD11C,0.120000*%
G04 APERTURE END LIST*
D10*
X126238095Y-107250000D02*
X126142857Y-107202380D01*
X126000000Y-107202380D01*
X125857142Y-107250000D01*
X125761904Y-107345238D01*
X125714285Y-107440476D01*
X125666666Y-107630952D01*
X125666666Y-107773809D01*
X125714285Y-107964285D01*
X125761904Y-108059523D01*
X125857142Y-108154761D01*
X126000000Y-108202380D01*
X126095238Y-108202380D01*
X126238095Y-108154761D01*
X126285714Y-108107142D01*
X126285714Y-107773809D01*
X126095238Y-107773809D01*
X126714285Y-108202380D02*
X126714285Y-107202380D01*
X127285714Y-108202380D01*
X127285714Y-107202380D01*
X127761904Y-108202380D02*
X127761904Y-107202380D01*
X128000000Y-107202380D01*
X128142857Y-107250000D01*
X128238095Y-107345238D01*
X128285714Y-107440476D01*
X128333333Y-107630952D01*
X128333333Y-107773809D01*
X128285714Y-107964285D01*
X128238095Y-108059523D01*
X128142857Y-108154761D01*
X128000000Y-108202380D01*
X127761904Y-108202380D01*
X126428571Y-101976190D02*
X126428571Y-102309523D01*
X126952380Y-102309523D02*
X125952380Y-102309523D01*
X125952380Y-101833333D01*
X125952380Y-101595238D02*
X125952380Y-101023809D01*
X126952380Y-101309523D02*
X125952380Y-101309523D01*
X126952380Y-100690476D02*
X125952380Y-100690476D01*
X125952380Y-100452380D01*
X126000000Y-100309523D01*
X126095238Y-100214285D01*
X126190476Y-100166666D01*
X126380952Y-100119047D01*
X126523809Y-100119047D01*
X126714285Y-100166666D01*
X126809523Y-100214285D01*
X126904761Y-100309523D01*
X126952380Y-100452380D01*
X126952380Y-100690476D01*
X126952380Y-99690476D02*
X125952380Y-99690476D01*
X186452380Y-99333333D02*
X185452380Y-99333333D01*
X185452380Y-98952380D01*
X185500000Y-98857142D01*
X185547619Y-98809523D01*
X185642857Y-98761904D01*
X185785714Y-98761904D01*
X185880952Y-98809523D01*
X185928571Y-98857142D01*
X185976190Y-98952380D01*
X185976190Y-99333333D01*
X186452380Y-97761904D02*
X185976190Y-98095238D01*
X186452380Y-98333333D02*
X185452380Y-98333333D01*
X185452380Y-97952380D01*
X185500000Y-97857142D01*
X185547619Y-97809523D01*
X185642857Y-97761904D01*
X185785714Y-97761904D01*
X185880952Y-97809523D01*
X185928571Y-97857142D01*
X185976190Y-97952380D01*
X185976190Y-98333333D01*
X185452380Y-97142857D02*
X185452380Y-96952380D01*
X185500000Y-96857142D01*
X185595238Y-96761904D01*
X185785714Y-96714285D01*
X186119047Y-96714285D01*
X186309523Y-96761904D01*
X186404761Y-96857142D01*
X186452380Y-96952380D01*
X186452380Y-97142857D01*
X186404761Y-97238095D01*
X186309523Y-97333333D01*
X186119047Y-97380952D01*
X185785714Y-97380952D01*
X185595238Y-97333333D01*
X185500000Y-97238095D01*
X185452380Y-97142857D01*
X185500000Y-95761904D02*
X185452380Y-95857142D01*
X185452380Y-96000000D01*
X185500000Y-96142857D01*
X185595238Y-96238095D01*
X185690476Y-96285714D01*
X185880952Y-96333333D01*
X186023809Y-96333333D01*
X186214285Y-96285714D01*
X186309523Y-96238095D01*
X186404761Y-96142857D01*
X186452380Y-96000000D01*
X186452380Y-95904761D01*
X186404761Y-95761904D01*
X186357142Y-95714285D01*
X186023809Y-95714285D01*
X186023809Y-95904761D01*
X186833333Y-94238095D02*
X186785714Y-94285714D01*
X186642857Y-94380952D01*
X186547619Y-94428571D01*
X186404761Y-94476190D01*
X186166666Y-94523809D01*
X185976190Y-94523809D01*
X185738095Y-94476190D01*
X185595238Y-94428571D01*
X185500000Y-94380952D01*
X185357142Y-94285714D01*
X185309523Y-94238095D01*
X185928571Y-93523809D02*
X185976190Y-93380952D01*
X186023809Y-93333333D01*
X186119047Y-93285714D01*
X186261904Y-93285714D01*
X186357142Y-93333333D01*
X186404761Y-93380952D01*
X186452380Y-93476190D01*
X186452380Y-93857142D01*
X185452380Y-93857142D01*
X185452380Y-93523809D01*
X185500000Y-93428571D01*
X185547619Y-93380952D01*
X185642857Y-93333333D01*
X185738095Y-93333333D01*
X185833333Y-93380952D01*
X185880952Y-93428571D01*
X185928571Y-93523809D01*
X185928571Y-93857142D01*
X186833333Y-92952380D02*
X186785714Y-92904761D01*
X186642857Y-92809523D01*
X186547619Y-92761904D01*
X186404761Y-92714285D01*
X186166666Y-92666666D01*
X185976190Y-92666666D01*
X185738095Y-92714285D01*
X185595238Y-92761904D01*
X185500000Y-92809523D01*
X185357142Y-92904761D01*
X185309523Y-92952380D01*
X186452380Y-108500000D02*
X185452380Y-108500000D01*
X186166666Y-108166666D01*
X185452380Y-107833333D01*
X186452380Y-107833333D01*
X186166666Y-107404761D02*
X186166666Y-106928571D01*
X186452380Y-107500000D02*
X185452380Y-107166666D01*
X186452380Y-106833333D01*
X186452380Y-106500000D02*
X185452380Y-106500000D01*
X186452380Y-106023809D02*
X185452380Y-106023809D01*
X186452380Y-105452380D01*
X185452380Y-105452380D01*
X186833333Y-103928571D02*
X186785714Y-103976190D01*
X186642857Y-104071428D01*
X186547619Y-104119047D01*
X186404761Y-104166666D01*
X186166666Y-104214285D01*
X185976190Y-104214285D01*
X185738095Y-104166666D01*
X185595238Y-104119047D01*
X185500000Y-104071428D01*
X185357142Y-103976190D01*
X185309523Y-103928571D01*
X186166666Y-103595238D02*
X186166666Y-103119047D01*
X186452380Y-103690476D02*
X185452380Y-103357142D01*
X186452380Y-103023809D01*
X186833333Y-102785714D02*
X186785714Y-102738095D01*
X186642857Y-102642857D01*
X186547619Y-102595238D01*
X186404761Y-102547619D01*
X186166666Y-102500000D01*
X185976190Y-102500000D01*
X185738095Y-102547619D01*
X185595238Y-102595238D01*
X185500000Y-102642857D01*
X185357142Y-102738095D01*
X185309523Y-102785714D01*
X186404761Y-116666666D02*
X186452380Y-116523809D01*
X186452380Y-116285714D01*
X186404761Y-116190476D01*
X186357142Y-116142857D01*
X186261904Y-116095238D01*
X186166666Y-116095238D01*
X186071428Y-116142857D01*
X186023809Y-116190476D01*
X185976190Y-116285714D01*
X185928571Y-116476190D01*
X185880952Y-116571428D01*
X185833333Y-116619047D01*
X185738095Y-116666666D01*
X185642857Y-116666666D01*
X185547619Y-116619047D01*
X185500000Y-116571428D01*
X185452380Y-116476190D01*
X185452380Y-116238095D01*
X185500000Y-116095238D01*
X185785714Y-115809523D02*
X185785714Y-115428571D01*
X185452380Y-115666666D02*
X186309523Y-115666666D01*
X186404761Y-115619047D01*
X186452380Y-115523809D01*
X186452380Y-115428571D01*
X186452380Y-114666666D02*
X185928571Y-114666666D01*
X185833333Y-114714285D01*
X185785714Y-114809523D01*
X185785714Y-115000000D01*
X185833333Y-115095238D01*
X186404761Y-114666666D02*
X186452380Y-114761904D01*
X186452380Y-115000000D01*
X186404761Y-115095238D01*
X186309523Y-115142857D01*
X186214285Y-115142857D01*
X186119047Y-115095238D01*
X186071428Y-115000000D01*
X186071428Y-114761904D01*
X186023809Y-114666666D01*
X185785714Y-114333333D02*
X185785714Y-113952380D01*
X185452380Y-114190476D02*
X186309523Y-114190476D01*
X186404761Y-114142857D01*
X186452380Y-114047619D01*
X186452380Y-113952380D01*
X185785714Y-113190476D02*
X186452380Y-113190476D01*
X185785714Y-113619047D02*
X186309523Y-113619047D01*
X186404761Y-113571428D01*
X186452380Y-113476190D01*
X186452380Y-113333333D01*
X186404761Y-113238095D01*
X186357142Y-113190476D01*
X186404761Y-112761904D02*
X186452380Y-112666666D01*
X186452380Y-112476190D01*
X186404761Y-112380952D01*
X186309523Y-112333333D01*
X186261904Y-112333333D01*
X186166666Y-112380952D01*
X186119047Y-112476190D01*
X186119047Y-112619047D01*
X186071428Y-112714285D01*
X185976190Y-112761904D01*
X185928571Y-112761904D01*
X185833333Y-112714285D01*
X185785714Y-112619047D01*
X185785714Y-112476190D01*
X185833333Y-112380952D01*
X195452380Y-108238095D02*
X194976190Y-108571428D01*
X195452380Y-108809523D02*
X194452380Y-108809523D01*
X194452380Y-108428571D01*
X194500000Y-108333333D01*
X194547619Y-108285714D01*
X194642857Y-108238095D01*
X194785714Y-108238095D01*
X194880952Y-108285714D01*
X194928571Y-108333333D01*
X194976190Y-108428571D01*
X194976190Y-108809523D01*
X194452380Y-107809523D02*
X195261904Y-107809523D01*
X195357142Y-107761904D01*
X195404761Y-107714285D01*
X195452380Y-107619047D01*
X195452380Y-107428571D01*
X195404761Y-107333333D01*
X195357142Y-107285714D01*
X195261904Y-107238095D01*
X194452380Y-107238095D01*
X195452380Y-106761904D02*
X194452380Y-106761904D01*
X195452380Y-106190476D01*
X194452380Y-106190476D01*
X200904761Y-127952380D02*
X200571428Y-127476190D01*
X200333333Y-127952380D02*
X200333333Y-126952380D01*
X200714285Y-126952380D01*
X200809523Y-127000000D01*
X200857142Y-127047619D01*
X200904761Y-127142857D01*
X200904761Y-127285714D01*
X200857142Y-127380952D01*
X200809523Y-127428571D01*
X200714285Y-127476190D01*
X200333333Y-127476190D01*
X201761904Y-127285714D02*
X201761904Y-127952380D01*
X201333333Y-127285714D02*
X201333333Y-127809523D01*
X201380952Y-127904761D01*
X201476190Y-127952380D01*
X201619047Y-127952380D01*
X201714285Y-127904761D01*
X201761904Y-127857142D01*
X202238095Y-127285714D02*
X202238095Y-127952380D01*
X202238095Y-127380952D02*
X202285714Y-127333333D01*
X202380952Y-127285714D01*
X202523809Y-127285714D01*
X202619047Y-127333333D01*
X202666666Y-127428571D01*
X202666666Y-127952380D01*
X200285714Y-121928571D02*
X200619047Y-121928571D01*
X200761904Y-122452380D02*
X200285714Y-122452380D01*
X200285714Y-121452380D01*
X200761904Y-121452380D01*
X201761904Y-122452380D02*
X201428571Y-121976190D01*
X201190476Y-122452380D02*
X201190476Y-121452380D01*
X201571428Y-121452380D01*
X201666666Y-121500000D01*
X201714285Y-121547619D01*
X201761904Y-121642857D01*
X201761904Y-121785714D01*
X201714285Y-121880952D01*
X201666666Y-121928571D01*
X201571428Y-121976190D01*
X201190476Y-121976190D01*
X202761904Y-122452380D02*
X202428571Y-121976190D01*
X202190476Y-122452380D02*
X202190476Y-121452380D01*
X202571428Y-121452380D01*
X202666666Y-121500000D01*
X202714285Y-121547619D01*
X202761904Y-121642857D01*
X202761904Y-121785714D01*
X202714285Y-121880952D01*
X202666666Y-121928571D01*
X202571428Y-121976190D01*
X202190476Y-121976190D01*
X133166666Y-126952380D02*
X133166666Y-125952380D01*
X133547619Y-125952380D01*
X133642857Y-126000000D01*
X133690476Y-126047619D01*
X133738095Y-126142857D01*
X133738095Y-126285714D01*
X133690476Y-126380952D01*
X133642857Y-126428571D01*
X133547619Y-126476190D01*
X133166666Y-126476190D01*
X134738095Y-126952380D02*
X134404761Y-126476190D01*
X134166666Y-126952380D02*
X134166666Y-125952380D01*
X134547619Y-125952380D01*
X134642857Y-126000000D01*
X134690476Y-126047619D01*
X134738095Y-126142857D01*
X134738095Y-126285714D01*
X134690476Y-126380952D01*
X134642857Y-126428571D01*
X134547619Y-126476190D01*
X134166666Y-126476190D01*
X135357142Y-125952380D02*
X135547619Y-125952380D01*
X135642857Y-126000000D01*
X135738095Y-126095238D01*
X135785714Y-126285714D01*
X135785714Y-126619047D01*
X135738095Y-126809523D01*
X135642857Y-126904761D01*
X135547619Y-126952380D01*
X135357142Y-126952380D01*
X135261904Y-126904761D01*
X135166666Y-126809523D01*
X135119047Y-126619047D01*
X135119047Y-126285714D01*
X135166666Y-126095238D01*
X135261904Y-126000000D01*
X135357142Y-125952380D01*
X136738095Y-126000000D02*
X136642857Y-125952380D01*
X136500000Y-125952380D01*
X136357142Y-126000000D01*
X136261904Y-126095238D01*
X136214285Y-126190476D01*
X136166666Y-126380952D01*
X136166666Y-126523809D01*
X136214285Y-126714285D01*
X136261904Y-126809523D01*
X136357142Y-126904761D01*
X136500000Y-126952380D01*
X136595238Y-126952380D01*
X136738095Y-126904761D01*
X136785714Y-126857142D01*
X136785714Y-126523809D01*
X136595238Y-126523809D01*
X138261904Y-127333333D02*
X138214285Y-127285714D01*
X138119047Y-127142857D01*
X138071428Y-127047619D01*
X138023809Y-126904761D01*
X137976190Y-126666666D01*
X137976190Y-126476190D01*
X138023809Y-126238095D01*
X138071428Y-126095238D01*
X138119047Y-126000000D01*
X138214285Y-125857142D01*
X138261904Y-125809523D01*
X138976190Y-126428571D02*
X139119047Y-126476190D01*
X139166666Y-126523809D01*
X139214285Y-126619047D01*
X139214285Y-126761904D01*
X139166666Y-126857142D01*
X139119047Y-126904761D01*
X139023809Y-126952380D01*
X138642857Y-126952380D01*
X138642857Y-125952380D01*
X138976190Y-125952380D01*
X139071428Y-126000000D01*
X139119047Y-126047619D01*
X139166666Y-126142857D01*
X139166666Y-126238095D01*
X139119047Y-126333333D01*
X139071428Y-126380952D01*
X138976190Y-126428571D01*
X138642857Y-126428571D01*
X139547619Y-127333333D02*
X139595238Y-127285714D01*
X139690476Y-127142857D01*
X139738095Y-127047619D01*
X139785714Y-126904761D01*
X139833333Y-126666666D01*
X139833333Y-126476190D01*
X139785714Y-126238095D01*
X139738095Y-126095238D01*
X139690476Y-126000000D01*
X139595238Y-125857142D01*
X139547619Y-125809523D01*
X154500000Y-126952380D02*
X154500000Y-125952380D01*
X154833333Y-126666666D01*
X155166666Y-125952380D01*
X155166666Y-126952380D01*
X155595238Y-126666666D02*
X156071428Y-126666666D01*
X155500000Y-126952380D02*
X155833333Y-125952380D01*
X156166666Y-126952380D01*
X156500000Y-126952380D02*
X156500000Y-125952380D01*
X156976190Y-126952380D02*
X156976190Y-125952380D01*
X157547619Y-126952380D01*
X157547619Y-125952380D01*
X159071428Y-127333333D02*
X159023809Y-127285714D01*
X158928571Y-127142857D01*
X158880952Y-127047619D01*
X158833333Y-126904761D01*
X158785714Y-126666666D01*
X158785714Y-126476190D01*
X158833333Y-126238095D01*
X158880952Y-126095238D01*
X158928571Y-126000000D01*
X159023809Y-125857142D01*
X159071428Y-125809523D01*
X159404761Y-126666666D02*
X159880952Y-126666666D01*
X159309523Y-126952380D02*
X159642857Y-125952380D01*
X159976190Y-126952380D01*
X160214285Y-127333333D02*
X160261904Y-127285714D01*
X160357142Y-127142857D01*
X160404761Y-127047619D01*
X160452380Y-126904761D01*
X160500000Y-126666666D01*
X160500000Y-126476190D01*
X160452380Y-126238095D01*
X160404761Y-126095238D01*
X160357142Y-126000000D01*
X160261904Y-125857142D01*
X160214285Y-125809523D01*
X133666666Y-107452380D02*
X133666666Y-106452380D01*
X134047619Y-106452380D01*
X134142857Y-106500000D01*
X134190476Y-106547619D01*
X134238095Y-106642857D01*
X134238095Y-106785714D01*
X134190476Y-106880952D01*
X134142857Y-106928571D01*
X134047619Y-106976190D01*
X133666666Y-106976190D01*
X134571428Y-106452380D02*
X134809523Y-107452380D01*
X135000000Y-106738095D01*
X135190476Y-107452380D01*
X135428571Y-106452380D01*
X136380952Y-107452380D02*
X136047619Y-106976190D01*
X135809523Y-107452380D02*
X135809523Y-106452380D01*
X136190476Y-106452380D01*
X136285714Y-106500000D01*
X136333333Y-106547619D01*
X136380952Y-106642857D01*
X136380952Y-106785714D01*
X136333333Y-106880952D01*
X136285714Y-106928571D01*
X136190476Y-106976190D01*
X135809523Y-106976190D01*
X167023809Y-96377380D02*
X167023809Y-95377380D01*
X167452380Y-95472619D02*
X167500000Y-95425000D01*
X167595238Y-95377380D01*
X167833333Y-95377380D01*
X167928571Y-95425000D01*
X167976190Y-95472619D01*
X168023809Y-95567857D01*
X168023809Y-95663095D01*
X167976190Y-95805952D01*
X167404761Y-96377380D01*
X168023809Y-96377380D01*
X169023809Y-96282142D02*
X168976190Y-96329761D01*
X168833333Y-96377380D01*
X168738095Y-96377380D01*
X168595238Y-96329761D01*
X168500000Y-96234523D01*
X168452380Y-96139285D01*
X168404761Y-95948809D01*
X168404761Y-95805952D01*
X168452380Y-95615476D01*
X168500000Y-95520238D01*
X168595238Y-95425000D01*
X168738095Y-95377380D01*
X168833333Y-95377380D01*
X168976190Y-95425000D01*
X169023809Y-95472619D01*
X165690476Y-97075000D02*
X165595238Y-97027380D01*
X165452380Y-97027380D01*
X165309523Y-97075000D01*
X165214285Y-97170238D01*
X165166666Y-97265476D01*
X165119047Y-97455952D01*
X165119047Y-97598809D01*
X165166666Y-97789285D01*
X165214285Y-97884523D01*
X165309523Y-97979761D01*
X165452380Y-98027380D01*
X165547619Y-98027380D01*
X165690476Y-97979761D01*
X165738095Y-97932142D01*
X165738095Y-97598809D01*
X165547619Y-97598809D01*
X166785714Y-97027380D02*
X167119047Y-98027380D01*
X167452380Y-97027380D01*
X169119047Y-97932142D02*
X169071428Y-97979761D01*
X168928571Y-98027380D01*
X168833333Y-98027380D01*
X168690476Y-97979761D01*
X168595238Y-97884523D01*
X168547619Y-97789285D01*
X168500000Y-97598809D01*
X168500000Y-97455952D01*
X168547619Y-97265476D01*
X168595238Y-97170238D01*
X168690476Y-97075000D01*
X168833333Y-97027380D01*
X168928571Y-97027380D01*
X169071428Y-97075000D01*
X169119047Y-97122619D01*
X170309523Y-98027380D02*
X170309523Y-97027380D01*
X170547619Y-97027380D01*
X170690476Y-97075000D01*
X170785714Y-97170238D01*
X170833333Y-97265476D01*
X170880952Y-97455952D01*
X170880952Y-97598809D01*
X170833333Y-97789285D01*
X170785714Y-97884523D01*
X170690476Y-97979761D01*
X170547619Y-98027380D01*
X170309523Y-98027380D01*
X137761904Y-82952380D02*
X137428571Y-82476190D01*
X137190476Y-82952380D02*
X137190476Y-81952380D01*
X137571428Y-81952380D01*
X137666666Y-82000000D01*
X137714285Y-82047619D01*
X137761904Y-82142857D01*
X137761904Y-82285714D01*
X137714285Y-82380952D01*
X137666666Y-82428571D01*
X137571428Y-82476190D01*
X137190476Y-82476190D01*
X138571428Y-82904761D02*
X138476190Y-82952380D01*
X138285714Y-82952380D01*
X138190476Y-82904761D01*
X138142857Y-82809523D01*
X138142857Y-82428571D01*
X138190476Y-82333333D01*
X138285714Y-82285714D01*
X138476190Y-82285714D01*
X138571428Y-82333333D01*
X138619047Y-82428571D01*
X138619047Y-82523809D01*
X138142857Y-82619047D01*
X139000000Y-82904761D02*
X139095238Y-82952380D01*
X139285714Y-82952380D01*
X139380952Y-82904761D01*
X139428571Y-82809523D01*
X139428571Y-82761904D01*
X139380952Y-82666666D01*
X139285714Y-82619047D01*
X139142857Y-82619047D01*
X139047619Y-82571428D01*
X139000000Y-82476190D01*
X139000000Y-82428571D01*
X139047619Y-82333333D01*
X139142857Y-82285714D01*
X139285714Y-82285714D01*
X139380952Y-82333333D01*
X140238095Y-82904761D02*
X140142857Y-82952380D01*
X139952380Y-82952380D01*
X139857142Y-82904761D01*
X139809523Y-82809523D01*
X139809523Y-82428571D01*
X139857142Y-82333333D01*
X139952380Y-82285714D01*
X140142857Y-82285714D01*
X140238095Y-82333333D01*
X140285714Y-82428571D01*
X140285714Y-82523809D01*
X139809523Y-82619047D01*
X140571428Y-82285714D02*
X140952380Y-82285714D01*
X140714285Y-81952380D02*
X140714285Y-82809523D01*
X140761904Y-82904761D01*
X140857142Y-82952380D01*
X140952380Y-82952380D01*
X158773809Y-82952380D02*
X158773809Y-81952380D01*
X159821428Y-82857142D02*
X159773809Y-82904761D01*
X159630952Y-82952380D01*
X159535714Y-82952380D01*
X159392857Y-82904761D01*
X159297619Y-82809523D01*
X159250000Y-82714285D01*
X159202380Y-82523809D01*
X159202380Y-82380952D01*
X159250000Y-82190476D01*
X159297619Y-82095238D01*
X159392857Y-82000000D01*
X159535714Y-81952380D01*
X159630952Y-81952380D01*
X159773809Y-82000000D01*
X159821428Y-82047619D01*
X160202380Y-82904761D02*
X160345238Y-82952380D01*
X160583333Y-82952380D01*
X160678571Y-82904761D01*
X160726190Y-82857142D01*
X160773809Y-82761904D01*
X160773809Y-82666666D01*
X160726190Y-82571428D01*
X160678571Y-82523809D01*
X160583333Y-82476190D01*
X160392857Y-82428571D01*
X160297619Y-82380952D01*
X160250000Y-82333333D01*
X160202380Y-82238095D01*
X160202380Y-82142857D01*
X160250000Y-82047619D01*
X160297619Y-82000000D01*
X160392857Y-81952380D01*
X160630952Y-81952380D01*
X160773809Y-82000000D01*
X161202380Y-82952380D02*
X161202380Y-81952380D01*
X161583333Y-81952380D01*
X161678571Y-82000000D01*
X161726190Y-82047619D01*
X161773809Y-82142857D01*
X161773809Y-82285714D01*
X161726190Y-82380952D01*
X161678571Y-82428571D01*
X161583333Y-82476190D01*
X161202380Y-82476190D01*
X167547619Y-118385714D02*
X167547619Y-116957142D01*
X168261904Y-118052380D02*
X168261904Y-117052380D01*
X168500000Y-117052380D01*
X168642857Y-117100000D01*
X168738095Y-117195238D01*
X168785714Y-117290476D01*
X168833333Y-117480952D01*
X168833333Y-117623809D01*
X168785714Y-117814285D01*
X168738095Y-117909523D01*
X168642857Y-118004761D01*
X168500000Y-118052380D01*
X168261904Y-118052380D01*
X169833333Y-117957142D02*
X169785714Y-118004761D01*
X169642857Y-118052380D01*
X169547619Y-118052380D01*
X169404761Y-118004761D01*
X169309523Y-117909523D01*
X169261904Y-117814285D01*
X169214285Y-117623809D01*
X169214285Y-117480952D01*
X169261904Y-117290476D01*
X169309523Y-117195238D01*
X169404761Y-117100000D01*
X169547619Y-117052380D01*
X169642857Y-117052380D01*
X169785714Y-117100000D01*
X169833333Y-117147619D01*
X170833333Y-117957142D02*
X170785714Y-118004761D01*
X170642857Y-118052380D01*
X170547619Y-118052380D01*
X170404761Y-118004761D01*
X170309523Y-117909523D01*
X170261904Y-117814285D01*
X170214285Y-117623809D01*
X170214285Y-117480952D01*
X170261904Y-117290476D01*
X170309523Y-117195238D01*
X170404761Y-117100000D01*
X170547619Y-117052380D01*
X170642857Y-117052380D01*
X170785714Y-117100000D01*
X170833333Y-117147619D01*
X171500000Y-118385714D02*
X171500000Y-116957142D01*
X172547619Y-117528571D02*
X172690476Y-117576190D01*
X172738095Y-117623809D01*
X172785714Y-117719047D01*
X172785714Y-117861904D01*
X172738095Y-117957142D01*
X172690476Y-118004761D01*
X172595238Y-118052380D01*
X172214285Y-118052380D01*
X172214285Y-117052380D01*
X172547619Y-117052380D01*
X172642857Y-117100000D01*
X172690476Y-117147619D01*
X172738095Y-117242857D01*
X172738095Y-117338095D01*
X172690476Y-117433333D01*
X172642857Y-117480952D01*
X172547619Y-117528571D01*
X172214285Y-117528571D01*
X173785714Y-118052380D02*
X173452380Y-117576190D01*
X173214285Y-118052380D02*
X173214285Y-117052380D01*
X173595238Y-117052380D01*
X173690476Y-117100000D01*
X173738095Y-117147619D01*
X173785714Y-117242857D01*
X173785714Y-117385714D01*
X173738095Y-117480952D01*
X173690476Y-117528571D01*
X173595238Y-117576190D01*
X173214285Y-117576190D01*
X174214285Y-118052380D02*
X174214285Y-117052380D01*
X174785714Y-118052380D02*
X174357142Y-117480952D01*
X174785714Y-117052380D02*
X174214285Y-117623809D01*
X175452380Y-118385714D02*
X175452380Y-116957142D01*
X176166666Y-117671428D02*
X176928571Y-117671428D01*
X176547619Y-118052380D02*
X176547619Y-117290476D01*
X177880952Y-117052380D02*
X177404761Y-117052380D01*
X177357142Y-117528571D01*
X177404761Y-117480952D01*
X177500000Y-117433333D01*
X177738095Y-117433333D01*
X177833333Y-117480952D01*
X177880952Y-117528571D01*
X177928571Y-117623809D01*
X177928571Y-117861904D01*
X177880952Y-117957142D01*
X177833333Y-118004761D01*
X177738095Y-118052380D01*
X177500000Y-118052380D01*
X177404761Y-118004761D01*
X177357142Y-117957142D01*
X178214285Y-117052380D02*
X178547619Y-118052380D01*
X178880952Y-117052380D01*
X179452380Y-118385714D02*
X179452380Y-116957142D01*
X166928571Y-119321428D02*
X167690476Y-119321428D01*
X168166666Y-119321428D02*
X168928571Y-119321428D01*
X169404761Y-119321428D02*
X170166666Y-119321428D01*
X170642857Y-119321428D02*
X171404761Y-119321428D01*
X171880952Y-119321428D02*
X172642857Y-119321428D01*
X173119047Y-119321428D02*
X173880952Y-119321428D01*
X174357142Y-119321428D02*
X175119047Y-119321428D01*
X175595238Y-119321428D02*
X176357142Y-119321428D01*
X176833333Y-119321428D02*
X177595238Y-119321428D01*
X178071428Y-119321428D02*
X178833333Y-119321428D01*
X179309523Y-119321428D02*
X180071428Y-119321428D01*
X167714285Y-121685714D02*
X167714285Y-120257142D01*
X168428571Y-120828571D02*
X168761904Y-120828571D01*
X168904761Y-121352380D02*
X168428571Y-121352380D01*
X168428571Y-120352380D01*
X168904761Y-120352380D01*
X169333333Y-121352380D02*
X169333333Y-120352380D01*
X169904761Y-121352380D01*
X169904761Y-120352380D01*
X171380952Y-121685714D02*
X171380952Y-120257142D01*
X172047619Y-121304761D02*
X172190476Y-121352380D01*
X172428571Y-121352380D01*
X172523809Y-121304761D01*
X172571428Y-121257142D01*
X172619047Y-121161904D01*
X172619047Y-121066666D01*
X172571428Y-120971428D01*
X172523809Y-120923809D01*
X172428571Y-120876190D01*
X172238095Y-120828571D01*
X172142857Y-120780952D01*
X172095238Y-120733333D01*
X172047619Y-120638095D01*
X172047619Y-120542857D01*
X172095238Y-120447619D01*
X172142857Y-120400000D01*
X172238095Y-120352380D01*
X172476190Y-120352380D01*
X172619047Y-120400000D01*
X173047619Y-121352380D02*
X173047619Y-120352380D01*
X173619047Y-121352380D01*
X173619047Y-120352380D01*
X174047619Y-121304761D02*
X174190476Y-121352380D01*
X174428571Y-121352380D01*
X174523809Y-121304761D01*
X174571428Y-121257142D01*
X174619047Y-121161904D01*
X174619047Y-121066666D01*
X174571428Y-120971428D01*
X174523809Y-120923809D01*
X174428571Y-120876190D01*
X174238095Y-120828571D01*
X174142857Y-120780952D01*
X174095238Y-120733333D01*
X174047619Y-120638095D01*
X174047619Y-120542857D01*
X174095238Y-120447619D01*
X174142857Y-120400000D01*
X174238095Y-120352380D01*
X174476190Y-120352380D01*
X174619047Y-120400000D01*
X175285714Y-121685714D02*
X175285714Y-120257142D01*
X176523809Y-120400000D02*
X176428571Y-120352380D01*
X176285714Y-120352380D01*
X176142857Y-120400000D01*
X176047619Y-120495238D01*
X176000000Y-120590476D01*
X175952380Y-120780952D01*
X175952380Y-120923809D01*
X176000000Y-121114285D01*
X176047619Y-121209523D01*
X176142857Y-121304761D01*
X176285714Y-121352380D01*
X176380952Y-121352380D01*
X176523809Y-121304761D01*
X176571428Y-121257142D01*
X176571428Y-120923809D01*
X176380952Y-120923809D01*
X177000000Y-121352380D02*
X177000000Y-120352380D01*
X177571428Y-121352380D01*
X177571428Y-120352380D01*
X178047619Y-121352380D02*
X178047619Y-120352380D01*
X178285714Y-120352380D01*
X178428571Y-120400000D01*
X178523809Y-120495238D01*
X178571428Y-120590476D01*
X178619047Y-120780952D01*
X178619047Y-120923809D01*
X178571428Y-121114285D01*
X178523809Y-121209523D01*
X178428571Y-121304761D01*
X178285714Y-121352380D01*
X178047619Y-121352380D01*
X179285714Y-121685714D02*
X179285714Y-120257142D01*
D11*
%TO.C,Y1*%
X144700000Y-111250000D02*
X144700000Y-108750000D01*
X141300000Y-111250000D02*
X141300000Y-108750000D01*
X144048961Y-107412210D02*
G75*
G02*
X144700000Y-108750000I-1048961J-1337790D01*
G01*
X144048961Y-112587790D02*
G75*
G03*
X144700000Y-111250000I-1048961J1337790D01*
G01*
X141951039Y-107412210D02*
G75*
G03*
X141300000Y-108750000I1048961J-1337790D01*
G01*
X141951039Y-112587790D02*
G75*
G02*
X141300000Y-111250000I1048961J1337790D01*
G01*
%TO.C,U1*%
X153882000Y-100936000D02*
G75*
G03*
X153882000Y-100936000I-200000J0D01*
G01*
X155995635Y-102460000D02*
G75*
G03*
X155995635Y-102460000I-434035J0D01*
G01*
D10*
X154375000Y-101375000D02*
X154375000Y-101600000D01*
X161625000Y-101375000D02*
X161625000Y-101700000D01*
X161625000Y-108625000D02*
X161625000Y-108300000D01*
X154375000Y-108625000D02*
X154375000Y-108300000D01*
X154375000Y-101375000D02*
X154700000Y-101375000D01*
X154375000Y-108625000D02*
X154700000Y-108625000D01*
X161625000Y-108625000D02*
X161300000Y-108625000D01*
X161625000Y-101375000D02*
X161300000Y-101375000D01*
X154375000Y-101600000D02*
X152950000Y-101600000D01*
D11*
%TO.C,SW2*%
X200000000Y-104000000D02*
X198500000Y-104000000D01*
X196000000Y-105250000D02*
X196000000Y-109750000D01*
X198500000Y-111000000D02*
X200000000Y-111000000D01*
X202500000Y-109750000D02*
X202500000Y-105250000D01*
%TO.C,SW1*%
X142250000Y-88000000D02*
X142250000Y-86500000D01*
X141000000Y-84000000D02*
X136500000Y-84000000D01*
X135250000Y-86500000D02*
X135250000Y-88000000D01*
X136500000Y-90500000D02*
X141000000Y-90500000D01*
%TO.C,R6*%
X189660436Y-122910000D02*
X190864564Y-122910000D01*
X189660436Y-121090000D02*
X190864564Y-121090000D01*
%TO.C,R5*%
X189647936Y-128410000D02*
X190852064Y-128410000D01*
X189647936Y-126590000D02*
X190852064Y-126590000D01*
%TO.C,R4*%
X197897936Y-100910000D02*
X199102064Y-100910000D01*
X197897936Y-99090000D02*
X199102064Y-99090000D01*
%TO.C,R3*%
X134647936Y-102160000D02*
X135852064Y-102160000D01*
X134647936Y-100340000D02*
X135852064Y-100340000D01*
%TO.C,R2*%
X139397936Y-96910000D02*
X140602064Y-96910000D01*
X139397936Y-95090000D02*
X140602064Y-95090000D01*
%TO.C,R1*%
X146090000Y-108397936D02*
X146090000Y-109602064D01*
X147910000Y-108397936D02*
X147910000Y-109602064D01*
%TO.C,J6*%
X186650000Y-81250000D02*
X186650000Y-82500000D01*
X187900000Y-81250000D02*
X186650000Y-81250000D01*
X198800000Y-86750000D02*
X193250000Y-86750000D01*
X198800000Y-83800000D02*
X198800000Y-86750000D01*
X199550000Y-83800000D02*
X198800000Y-83800000D01*
X187700000Y-86750000D02*
X193250000Y-86750000D01*
X187700000Y-83800000D02*
X187700000Y-86750000D01*
X186950000Y-83800000D02*
X187700000Y-83800000D01*
X199550000Y-81550000D02*
X197750000Y-81550000D01*
X199550000Y-82300000D02*
X199550000Y-81550000D01*
X197750000Y-82300000D02*
X199550000Y-82300000D01*
X197750000Y-81550000D02*
X197750000Y-82300000D01*
X188750000Y-81550000D02*
X186950000Y-81550000D01*
X188750000Y-82300000D02*
X188750000Y-81550000D01*
X186950000Y-82300000D02*
X188750000Y-82300000D01*
X186950000Y-81550000D02*
X186950000Y-82300000D01*
X196250000Y-81550000D02*
X190250000Y-81550000D01*
X196250000Y-82300000D02*
X196250000Y-81550000D01*
X190250000Y-82300000D02*
X196250000Y-82300000D01*
X190250000Y-81550000D02*
X190250000Y-82300000D01*
X199560000Y-81540000D02*
X186940000Y-81540000D01*
X199560000Y-87510000D02*
X199560000Y-81540000D01*
X186940000Y-87510000D02*
X199560000Y-87510000D01*
X186940000Y-81540000D02*
X186940000Y-87510000D01*
%TO.C,J5*%
X162500000Y-82320000D02*
X163000000Y-83320000D01*
X163500000Y-82320000D02*
X162500000Y-82320000D01*
X163000000Y-83320000D02*
X163500000Y-82320000D01*
X158410000Y-85020000D02*
X158410000Y-83710000D01*
X158410000Y-85020000D02*
X158410000Y-85020000D01*
X154010000Y-85020000D02*
X158410000Y-85020000D01*
X154010000Y-91520000D02*
X154010000Y-85020000D01*
X166910000Y-91520000D02*
X154010000Y-91520000D01*
X166910000Y-85020000D02*
X166910000Y-91520000D01*
X162510000Y-85020000D02*
X166910000Y-85020000D01*
X162510000Y-83710000D02*
X162510000Y-85020000D01*
X152710000Y-83710000D02*
X168210000Y-83710000D01*
X152710000Y-92830000D02*
X152710000Y-83710000D01*
X168210000Y-92830000D02*
X152710000Y-92830000D01*
X168210000Y-83710000D02*
X168210000Y-92830000D01*
%TO.C,J4*%
X159500000Y-114320000D02*
X160000000Y-115320000D01*
X160500000Y-114320000D02*
X159500000Y-114320000D01*
X160000000Y-115320000D02*
X160500000Y-114320000D01*
X155410000Y-117020000D02*
X155410000Y-115710000D01*
X155410000Y-117020000D02*
X155410000Y-117020000D01*
X151010000Y-117020000D02*
X155410000Y-117020000D01*
X151010000Y-123520000D02*
X151010000Y-117020000D01*
X163910000Y-123520000D02*
X151010000Y-123520000D01*
X163910000Y-117020000D02*
X163910000Y-123520000D01*
X159510000Y-117020000D02*
X163910000Y-117020000D01*
X159510000Y-115710000D02*
X159510000Y-117020000D01*
X149710000Y-115710000D02*
X165210000Y-115710000D01*
X149710000Y-124830000D02*
X149710000Y-115710000D01*
X165210000Y-124830000D02*
X149710000Y-124830000D01*
X165210000Y-115710000D02*
X165210000Y-124830000D01*
%TO.C,J3*%
X138500000Y-114320000D02*
X139000000Y-115320000D01*
X139500000Y-114320000D02*
X138500000Y-114320000D01*
X139000000Y-115320000D02*
X139500000Y-114320000D01*
X134410000Y-117020000D02*
X134410000Y-115710000D01*
X134410000Y-117020000D02*
X134410000Y-117020000D01*
X130010000Y-117020000D02*
X134410000Y-117020000D01*
X130010000Y-123520000D02*
X130010000Y-117020000D01*
X142910000Y-123520000D02*
X130010000Y-123520000D01*
X142910000Y-117020000D02*
X142910000Y-123520000D01*
X138510000Y-117020000D02*
X142910000Y-117020000D01*
X138510000Y-115710000D02*
X138510000Y-117020000D01*
X128710000Y-115710000D02*
X144210000Y-115710000D01*
X128710000Y-124830000D02*
X128710000Y-115710000D01*
X144210000Y-124830000D02*
X128710000Y-124830000D01*
X144210000Y-115710000D02*
X144210000Y-124830000D01*
%TO.C,J2*%
X124000000Y-93670000D02*
X125330000Y-93670000D01*
X125330000Y-93670000D02*
X125330000Y-95000000D01*
X125330000Y-96270000D02*
X125330000Y-109030000D01*
X122670000Y-109030000D02*
X125330000Y-109030000D01*
X122670000Y-96270000D02*
X122670000Y-109030000D01*
X122670000Y-96270000D02*
X125330000Y-96270000D01*
%TO.C,J1*%
X164330000Y-94670000D02*
X164330000Y-96000000D01*
X163000000Y-94670000D02*
X164330000Y-94670000D01*
X161730000Y-94670000D02*
X161730000Y-97330000D01*
X161730000Y-97330000D02*
X154050000Y-97330000D01*
X161730000Y-94670000D02*
X154050000Y-94670000D01*
X154050000Y-94670000D02*
X154050000Y-97330000D01*
%TO.C,D7*%
X187500000Y-99400000D02*
X188650000Y-99400000D01*
X187500000Y-92100000D02*
X187500000Y-99400000D01*
X193000000Y-92100000D02*
X193000000Y-99400000D01*
%TO.C,D6*%
X187500000Y-108900000D02*
X188650000Y-108900000D01*
X187500000Y-101600000D02*
X187500000Y-108900000D01*
X193000000Y-101600000D02*
X193000000Y-108900000D01*
%TO.C,D5*%
X187500000Y-118400000D02*
X188650000Y-118400000D01*
X187500000Y-111100000D02*
X187500000Y-118400000D01*
X193000000Y-111100000D02*
X193000000Y-118400000D01*
%TO.C,D4*%
X199210000Y-120865000D02*
X195150000Y-120865000D01*
X199210000Y-123135000D02*
X199210000Y-120865000D01*
X195150000Y-123135000D02*
X199210000Y-123135000D01*
%TO.C,D3*%
X199197500Y-126365000D02*
X195137500Y-126365000D01*
X199197500Y-128635000D02*
X199197500Y-126365000D01*
X195137500Y-128635000D02*
X199197500Y-128635000D01*
%TO.C,D2*%
X132802500Y-105635000D02*
X136862500Y-105635000D01*
X132802500Y-103365000D02*
X132802500Y-105635000D01*
X136862500Y-103365000D02*
X132802500Y-103365000D01*
%TO.C,D1*%
X137540000Y-94135000D02*
X141600000Y-94135000D01*
X137540000Y-91865000D02*
X137540000Y-94135000D01*
X141600000Y-91865000D02*
X137540000Y-91865000D01*
%TO.C,C3*%
X149602064Y-103090000D02*
X148397936Y-103090000D01*
X149602064Y-104910000D02*
X148397936Y-104910000D01*
%TO.C,C2*%
X167839564Y-106090000D02*
X166635436Y-106090000D01*
X167839564Y-107910000D02*
X166635436Y-107910000D01*
%TO.C,C1*%
X131502064Y-89090000D02*
X130297936Y-89090000D01*
X131502064Y-90910000D02*
X130297936Y-90910000D01*
%TO.C,Y1*%
D10*
X140276190Y-110476190D02*
X140752380Y-110476190D01*
X139752380Y-110809523D02*
X140276190Y-110476190D01*
X139752380Y-110142857D01*
X140752380Y-109285714D02*
X140752380Y-109857142D01*
X140752380Y-109571428D02*
X139752380Y-109571428D01*
X139895238Y-109666666D01*
X139990476Y-109761904D01*
X140038095Y-109857142D01*
%TO.C,U1*%
X157238095Y-98402380D02*
X157238095Y-99211904D01*
X157285714Y-99307142D01*
X157333333Y-99354761D01*
X157428571Y-99402380D01*
X157619047Y-99402380D01*
X157714285Y-99354761D01*
X157761904Y-99307142D01*
X157809523Y-99211904D01*
X157809523Y-98402380D01*
X158809523Y-99402380D02*
X158238095Y-99402380D01*
X158523809Y-99402380D02*
X158523809Y-98402380D01*
X158428571Y-98545238D01*
X158333333Y-98640476D01*
X158238095Y-98688095D01*
%TO.C,SW2*%
X199404761Y-108833333D02*
X199452380Y-108690476D01*
X199452380Y-108452380D01*
X199404761Y-108357142D01*
X199357142Y-108309523D01*
X199261904Y-108261904D01*
X199166666Y-108261904D01*
X199071428Y-108309523D01*
X199023809Y-108357142D01*
X198976190Y-108452380D01*
X198928571Y-108642857D01*
X198880952Y-108738095D01*
X198833333Y-108785714D01*
X198738095Y-108833333D01*
X198642857Y-108833333D01*
X198547619Y-108785714D01*
X198500000Y-108738095D01*
X198452380Y-108642857D01*
X198452380Y-108404761D01*
X198500000Y-108261904D01*
X198452380Y-107928571D02*
X199452380Y-107690476D01*
X198738095Y-107500000D01*
X199452380Y-107309523D01*
X198452380Y-107071428D01*
X198547619Y-106738095D02*
X198500000Y-106690476D01*
X198452380Y-106595238D01*
X198452380Y-106357142D01*
X198500000Y-106261904D01*
X198547619Y-106214285D01*
X198642857Y-106166666D01*
X198738095Y-106166666D01*
X198880952Y-106214285D01*
X199452380Y-106785714D01*
X199452380Y-106166666D01*
%TO.C,SW1*%
X137416666Y-87154761D02*
X137559523Y-87202380D01*
X137797619Y-87202380D01*
X137892857Y-87154761D01*
X137940476Y-87107142D01*
X137988095Y-87011904D01*
X137988095Y-86916666D01*
X137940476Y-86821428D01*
X137892857Y-86773809D01*
X137797619Y-86726190D01*
X137607142Y-86678571D01*
X137511904Y-86630952D01*
X137464285Y-86583333D01*
X137416666Y-86488095D01*
X137416666Y-86392857D01*
X137464285Y-86297619D01*
X137511904Y-86250000D01*
X137607142Y-86202380D01*
X137845238Y-86202380D01*
X137988095Y-86250000D01*
X138321428Y-86202380D02*
X138559523Y-87202380D01*
X138750000Y-86488095D01*
X138940476Y-87202380D01*
X139178571Y-86202380D01*
X140083333Y-87202380D02*
X139511904Y-87202380D01*
X139797619Y-87202380D02*
X139797619Y-86202380D01*
X139702380Y-86345238D01*
X139607142Y-86440476D01*
X139511904Y-86488095D01*
%TO.C,R6*%
X190095833Y-120632380D02*
X189762500Y-120156190D01*
X189524404Y-120632380D02*
X189524404Y-119632380D01*
X189905357Y-119632380D01*
X190000595Y-119680000D01*
X190048214Y-119727619D01*
X190095833Y-119822857D01*
X190095833Y-119965714D01*
X190048214Y-120060952D01*
X190000595Y-120108571D01*
X189905357Y-120156190D01*
X189524404Y-120156190D01*
X190952976Y-119632380D02*
X190762500Y-119632380D01*
X190667261Y-119680000D01*
X190619642Y-119727619D01*
X190524404Y-119870476D01*
X190476785Y-120060952D01*
X190476785Y-120441904D01*
X190524404Y-120537142D01*
X190572023Y-120584761D01*
X190667261Y-120632380D01*
X190857738Y-120632380D01*
X190952976Y-120584761D01*
X191000595Y-120537142D01*
X191048214Y-120441904D01*
X191048214Y-120203809D01*
X191000595Y-120108571D01*
X190952976Y-120060952D01*
X190857738Y-120013333D01*
X190667261Y-120013333D01*
X190572023Y-120060952D01*
X190524404Y-120108571D01*
X190476785Y-120203809D01*
%TO.C,R5*%
X190083333Y-126132380D02*
X189750000Y-125656190D01*
X189511904Y-126132380D02*
X189511904Y-125132380D01*
X189892857Y-125132380D01*
X189988095Y-125180000D01*
X190035714Y-125227619D01*
X190083333Y-125322857D01*
X190083333Y-125465714D01*
X190035714Y-125560952D01*
X189988095Y-125608571D01*
X189892857Y-125656190D01*
X189511904Y-125656190D01*
X190988095Y-125132380D02*
X190511904Y-125132380D01*
X190464285Y-125608571D01*
X190511904Y-125560952D01*
X190607142Y-125513333D01*
X190845238Y-125513333D01*
X190940476Y-125560952D01*
X190988095Y-125608571D01*
X191035714Y-125703809D01*
X191035714Y-125941904D01*
X190988095Y-126037142D01*
X190940476Y-126084761D01*
X190845238Y-126132380D01*
X190607142Y-126132380D01*
X190511904Y-126084761D01*
X190464285Y-126037142D01*
%TO.C,R4*%
X198333333Y-98632380D02*
X198000000Y-98156190D01*
X197761904Y-98632380D02*
X197761904Y-97632380D01*
X198142857Y-97632380D01*
X198238095Y-97680000D01*
X198285714Y-97727619D01*
X198333333Y-97822857D01*
X198333333Y-97965714D01*
X198285714Y-98060952D01*
X198238095Y-98108571D01*
X198142857Y-98156190D01*
X197761904Y-98156190D01*
X199190476Y-97965714D02*
X199190476Y-98632380D01*
X198952380Y-97584761D02*
X198714285Y-98299047D01*
X199333333Y-98299047D01*
%TO.C,R3*%
X139083333Y-101702380D02*
X138750000Y-101226190D01*
X138511904Y-101702380D02*
X138511904Y-100702380D01*
X138892857Y-100702380D01*
X138988095Y-100750000D01*
X139035714Y-100797619D01*
X139083333Y-100892857D01*
X139083333Y-101035714D01*
X139035714Y-101130952D01*
X138988095Y-101178571D01*
X138892857Y-101226190D01*
X138511904Y-101226190D01*
X139416666Y-100702380D02*
X140035714Y-100702380D01*
X139702380Y-101083333D01*
X139845238Y-101083333D01*
X139940476Y-101130952D01*
X139988095Y-101178571D01*
X140035714Y-101273809D01*
X140035714Y-101511904D01*
X139988095Y-101607142D01*
X139940476Y-101654761D01*
X139845238Y-101702380D01*
X139559523Y-101702380D01*
X139464285Y-101654761D01*
X139416666Y-101607142D01*
%TO.C,R2*%
X143583333Y-96452380D02*
X143250000Y-95976190D01*
X143011904Y-96452380D02*
X143011904Y-95452380D01*
X143392857Y-95452380D01*
X143488095Y-95500000D01*
X143535714Y-95547619D01*
X143583333Y-95642857D01*
X143583333Y-95785714D01*
X143535714Y-95880952D01*
X143488095Y-95928571D01*
X143392857Y-95976190D01*
X143011904Y-95976190D01*
X143964285Y-95547619D02*
X144011904Y-95500000D01*
X144107142Y-95452380D01*
X144345238Y-95452380D01*
X144440476Y-95500000D01*
X144488095Y-95547619D01*
X144535714Y-95642857D01*
X144535714Y-95738095D01*
X144488095Y-95880952D01*
X143916666Y-96452380D01*
X144535714Y-96452380D01*
%TO.C,R1*%
X149272380Y-109166666D02*
X148796190Y-109500000D01*
X149272380Y-109738095D02*
X148272380Y-109738095D01*
X148272380Y-109357142D01*
X148320000Y-109261904D01*
X148367619Y-109214285D01*
X148462857Y-109166666D01*
X148605714Y-109166666D01*
X148700952Y-109214285D01*
X148748571Y-109261904D01*
X148796190Y-109357142D01*
X148796190Y-109738095D01*
X149272380Y-108214285D02*
X149272380Y-108785714D01*
X149272380Y-108500000D02*
X148272380Y-108500000D01*
X148415238Y-108595238D01*
X148510476Y-108690476D01*
X148558095Y-108785714D01*
%TO.C,J6*%
X192916666Y-87702380D02*
X192916666Y-88416666D01*
X192869047Y-88559523D01*
X192773809Y-88654761D01*
X192630952Y-88702380D01*
X192535714Y-88702380D01*
X193821428Y-87702380D02*
X193630952Y-87702380D01*
X193535714Y-87750000D01*
X193488095Y-87797619D01*
X193392857Y-87940476D01*
X193345238Y-88130952D01*
X193345238Y-88511904D01*
X193392857Y-88607142D01*
X193440476Y-88654761D01*
X193535714Y-88702380D01*
X193726190Y-88702380D01*
X193821428Y-88654761D01*
X193869047Y-88607142D01*
X193916666Y-88511904D01*
X193916666Y-88273809D01*
X193869047Y-88178571D01*
X193821428Y-88130952D01*
X193726190Y-88083333D01*
X193535714Y-88083333D01*
X193440476Y-88130952D01*
X193392857Y-88178571D01*
X193345238Y-88273809D01*
%TO.C,J5*%
X168552380Y-88603333D02*
X169266666Y-88603333D01*
X169409523Y-88650952D01*
X169504761Y-88746190D01*
X169552380Y-88889047D01*
X169552380Y-88984285D01*
X168552380Y-87650952D02*
X168552380Y-88127142D01*
X169028571Y-88174761D01*
X168980952Y-88127142D01*
X168933333Y-88031904D01*
X168933333Y-87793809D01*
X168980952Y-87698571D01*
X169028571Y-87650952D01*
X169123809Y-87603333D01*
X169361904Y-87603333D01*
X169457142Y-87650952D01*
X169504761Y-87698571D01*
X169552380Y-87793809D01*
X169552380Y-88031904D01*
X169504761Y-88127142D01*
X169457142Y-88174761D01*
%TO.C,J4*%
X165552380Y-120603333D02*
X166266666Y-120603333D01*
X166409523Y-120650952D01*
X166504761Y-120746190D01*
X166552380Y-120889047D01*
X166552380Y-120984285D01*
X165885714Y-119698571D02*
X166552380Y-119698571D01*
X165504761Y-119936666D02*
X166219047Y-120174761D01*
X166219047Y-119555714D01*
%TO.C,J3*%
X144552380Y-120603333D02*
X145266666Y-120603333D01*
X145409523Y-120650952D01*
X145504761Y-120746190D01*
X145552380Y-120889047D01*
X145552380Y-120984285D01*
X144552380Y-120222380D02*
X144552380Y-119603333D01*
X144933333Y-119936666D01*
X144933333Y-119793809D01*
X144980952Y-119698571D01*
X145028571Y-119650952D01*
X145123809Y-119603333D01*
X145361904Y-119603333D01*
X145457142Y-119650952D01*
X145504761Y-119698571D01*
X145552380Y-119793809D01*
X145552380Y-120079523D01*
X145504761Y-120174761D01*
X145457142Y-120222380D01*
%TO.C,J2*%
X123666666Y-91682380D02*
X123666666Y-92396666D01*
X123619047Y-92539523D01*
X123523809Y-92634761D01*
X123380952Y-92682380D01*
X123285714Y-92682380D01*
X124095238Y-91777619D02*
X124142857Y-91730000D01*
X124238095Y-91682380D01*
X124476190Y-91682380D01*
X124571428Y-91730000D01*
X124619047Y-91777619D01*
X124666666Y-91872857D01*
X124666666Y-91968095D01*
X124619047Y-92110952D01*
X124047619Y-92682380D01*
X124666666Y-92682380D01*
%TO.C,J1*%
X152202380Y-96333333D02*
X152916666Y-96333333D01*
X153059523Y-96380952D01*
X153154761Y-96476190D01*
X153202380Y-96619047D01*
X153202380Y-96714285D01*
X153202380Y-95333333D02*
X153202380Y-95904761D01*
X153202380Y-95619047D02*
X152202380Y-95619047D01*
X152345238Y-95714285D01*
X152440476Y-95809523D01*
X152488095Y-95904761D01*
%TO.C,D7*%
X194202380Y-96488095D02*
X193202380Y-96488095D01*
X193202380Y-96250000D01*
X193250000Y-96107142D01*
X193345238Y-96011904D01*
X193440476Y-95964285D01*
X193630952Y-95916666D01*
X193773809Y-95916666D01*
X193964285Y-95964285D01*
X194059523Y-96011904D01*
X194154761Y-96107142D01*
X194202380Y-96250000D01*
X194202380Y-96488095D01*
X193202380Y-95583333D02*
X193202380Y-94916666D01*
X194202380Y-95345238D01*
X192302380Y-91314285D02*
X192302380Y-91885714D01*
X192302380Y-91600000D02*
X191302380Y-91600000D01*
X191445238Y-91695238D01*
X191540476Y-91790476D01*
X191588095Y-91885714D01*
%TO.C,D6*%
X194202380Y-105988095D02*
X193202380Y-105988095D01*
X193202380Y-105750000D01*
X193250000Y-105607142D01*
X193345238Y-105511904D01*
X193440476Y-105464285D01*
X193630952Y-105416666D01*
X193773809Y-105416666D01*
X193964285Y-105464285D01*
X194059523Y-105511904D01*
X194154761Y-105607142D01*
X194202380Y-105750000D01*
X194202380Y-105988095D01*
X193202380Y-104559523D02*
X193202380Y-104750000D01*
X193250000Y-104845238D01*
X193297619Y-104892857D01*
X193440476Y-104988095D01*
X193630952Y-105035714D01*
X194011904Y-105035714D01*
X194107142Y-104988095D01*
X194154761Y-104940476D01*
X194202380Y-104845238D01*
X194202380Y-104654761D01*
X194154761Y-104559523D01*
X194107142Y-104511904D01*
X194011904Y-104464285D01*
X193773809Y-104464285D01*
X193678571Y-104511904D01*
X193630952Y-104559523D01*
X193583333Y-104654761D01*
X193583333Y-104845238D01*
X193630952Y-104940476D01*
X193678571Y-104988095D01*
X193773809Y-105035714D01*
X192302380Y-100814285D02*
X192302380Y-101385714D01*
X192302380Y-101100000D02*
X191302380Y-101100000D01*
X191445238Y-101195238D01*
X191540476Y-101290476D01*
X191588095Y-101385714D01*
%TO.C,D5*%
X194202380Y-115488095D02*
X193202380Y-115488095D01*
X193202380Y-115250000D01*
X193250000Y-115107142D01*
X193345238Y-115011904D01*
X193440476Y-114964285D01*
X193630952Y-114916666D01*
X193773809Y-114916666D01*
X193964285Y-114964285D01*
X194059523Y-115011904D01*
X194154761Y-115107142D01*
X194202380Y-115250000D01*
X194202380Y-115488095D01*
X193202380Y-114011904D02*
X193202380Y-114488095D01*
X193678571Y-114535714D01*
X193630952Y-114488095D01*
X193583333Y-114392857D01*
X193583333Y-114154761D01*
X193630952Y-114059523D01*
X193678571Y-114011904D01*
X193773809Y-113964285D01*
X194011904Y-113964285D01*
X194107142Y-114011904D01*
X194154761Y-114059523D01*
X194202380Y-114154761D01*
X194202380Y-114392857D01*
X194154761Y-114488095D01*
X194107142Y-114535714D01*
X192302380Y-110314285D02*
X192302380Y-110885714D01*
X192302380Y-110600000D02*
X191302380Y-110600000D01*
X191445238Y-110695238D01*
X191540476Y-110790476D01*
X191588095Y-110885714D01*
%TO.C,D4*%
X196011904Y-120452380D02*
X196011904Y-119452380D01*
X196250000Y-119452380D01*
X196392857Y-119500000D01*
X196488095Y-119595238D01*
X196535714Y-119690476D01*
X196583333Y-119880952D01*
X196583333Y-120023809D01*
X196535714Y-120214285D01*
X196488095Y-120309523D01*
X196392857Y-120404761D01*
X196250000Y-120452380D01*
X196011904Y-120452380D01*
X197440476Y-119785714D02*
X197440476Y-120452380D01*
X197202380Y-119404761D02*
X196964285Y-120119047D01*
X197583333Y-120119047D01*
%TO.C,D3*%
X196011904Y-125702380D02*
X196011904Y-124702380D01*
X196250000Y-124702380D01*
X196392857Y-124750000D01*
X196488095Y-124845238D01*
X196535714Y-124940476D01*
X196583333Y-125130952D01*
X196583333Y-125273809D01*
X196535714Y-125464285D01*
X196488095Y-125559523D01*
X196392857Y-125654761D01*
X196250000Y-125702380D01*
X196011904Y-125702380D01*
X196916666Y-124702380D02*
X197535714Y-124702380D01*
X197202380Y-125083333D01*
X197345238Y-125083333D01*
X197440476Y-125130952D01*
X197488095Y-125178571D01*
X197535714Y-125273809D01*
X197535714Y-125511904D01*
X197488095Y-125607142D01*
X197440476Y-125654761D01*
X197345238Y-125702380D01*
X197059523Y-125702380D01*
X196964285Y-125654761D01*
X196916666Y-125607142D01*
%TO.C,D2*%
X138261904Y-104952380D02*
X138261904Y-103952380D01*
X138500000Y-103952380D01*
X138642857Y-104000000D01*
X138738095Y-104095238D01*
X138785714Y-104190476D01*
X138833333Y-104380952D01*
X138833333Y-104523809D01*
X138785714Y-104714285D01*
X138738095Y-104809523D01*
X138642857Y-104904761D01*
X138500000Y-104952380D01*
X138261904Y-104952380D01*
X139214285Y-104047619D02*
X139261904Y-104000000D01*
X139357142Y-103952380D01*
X139595238Y-103952380D01*
X139690476Y-104000000D01*
X139738095Y-104047619D01*
X139785714Y-104142857D01*
X139785714Y-104238095D01*
X139738095Y-104380952D01*
X139166666Y-104952380D01*
X139785714Y-104952380D01*
%TO.C,D1*%
X143011904Y-93452380D02*
X143011904Y-92452380D01*
X143250000Y-92452380D01*
X143392857Y-92500000D01*
X143488095Y-92595238D01*
X143535714Y-92690476D01*
X143583333Y-92880952D01*
X143583333Y-93023809D01*
X143535714Y-93214285D01*
X143488095Y-93309523D01*
X143392857Y-93404761D01*
X143250000Y-93452380D01*
X143011904Y-93452380D01*
X144535714Y-93452380D02*
X143964285Y-93452380D01*
X144250000Y-93452380D02*
X144250000Y-92452380D01*
X144154761Y-92595238D01*
X144059523Y-92690476D01*
X143964285Y-92738095D01*
%TO.C,C3*%
X148833333Y-106177142D02*
X148785714Y-106224761D01*
X148642857Y-106272380D01*
X148547619Y-106272380D01*
X148404761Y-106224761D01*
X148309523Y-106129523D01*
X148261904Y-106034285D01*
X148214285Y-105843809D01*
X148214285Y-105700952D01*
X148261904Y-105510476D01*
X148309523Y-105415238D01*
X148404761Y-105320000D01*
X148547619Y-105272380D01*
X148642857Y-105272380D01*
X148785714Y-105320000D01*
X148833333Y-105367619D01*
X149166666Y-105272380D02*
X149785714Y-105272380D01*
X149452380Y-105653333D01*
X149595238Y-105653333D01*
X149690476Y-105700952D01*
X149738095Y-105748571D01*
X149785714Y-105843809D01*
X149785714Y-106081904D01*
X149738095Y-106177142D01*
X149690476Y-106224761D01*
X149595238Y-106272380D01*
X149309523Y-106272380D01*
X149214285Y-106224761D01*
X149166666Y-106177142D01*
%TO.C,C2*%
X167070833Y-109177142D02*
X167023214Y-109224761D01*
X166880357Y-109272380D01*
X166785119Y-109272380D01*
X166642261Y-109224761D01*
X166547023Y-109129523D01*
X166499404Y-109034285D01*
X166451785Y-108843809D01*
X166451785Y-108700952D01*
X166499404Y-108510476D01*
X166547023Y-108415238D01*
X166642261Y-108320000D01*
X166785119Y-108272380D01*
X166880357Y-108272380D01*
X167023214Y-108320000D01*
X167070833Y-108367619D01*
X167451785Y-108367619D02*
X167499404Y-108320000D01*
X167594642Y-108272380D01*
X167832738Y-108272380D01*
X167927976Y-108320000D01*
X167975595Y-108367619D01*
X168023214Y-108462857D01*
X168023214Y-108558095D01*
X167975595Y-108700952D01*
X167404166Y-109272380D01*
X168023214Y-109272380D01*
%TO.C,C1*%
X130733333Y-92177142D02*
X130685714Y-92224761D01*
X130542857Y-92272380D01*
X130447619Y-92272380D01*
X130304761Y-92224761D01*
X130209523Y-92129523D01*
X130161904Y-92034285D01*
X130114285Y-91843809D01*
X130114285Y-91700952D01*
X130161904Y-91510476D01*
X130209523Y-91415238D01*
X130304761Y-91320000D01*
X130447619Y-91272380D01*
X130542857Y-91272380D01*
X130685714Y-91320000D01*
X130733333Y-91367619D01*
X131685714Y-92272380D02*
X131114285Y-92272380D01*
X131400000Y-92272380D02*
X131400000Y-91272380D01*
X131304761Y-91415238D01*
X131209523Y-91510476D01*
X131114285Y-91558095D01*
%TD*%
M02*
