M48
; DRILL file {KiCad 5.1.6-c6e7f7d~86~ubuntu20.04.1} date Thu May 21 14:16:38 2020
; FORMAT={-:-/ absolute / inch / decimal}
; #@! TF.CreationDate,2020-05-21T14:16:38+02:00
; #@! TF.GenerationSoftware,Kicad,Pcbnew,5.1.6-c6e7f7d~86~ubuntu20.04.1
; #@! TF.FileFunction,Plated,1,2,PTH
FMAT,2
INCH
T1C0.0157
T2C0.0217
T3C0.0236
T4C0.0256
T5C0.0276
T6C0.0335
T7C0.0374
T8C0.0394
T9C0.0400
T10C0.0433
T11C0.0598
%
G90
G05
T1
X2.1385Y-5.0355
X2.1783Y-3.789
X2.2416Y-3.0672
X2.2728Y-3.3732
X2.287Y-4.0783
X2.302Y-3.7772
X2.3307Y-4.1161
X2.3642Y-3.6476
X2.5453Y-3.0925
X2.6093Y-5.3199
X2.6431Y-2.6757
X2.6931Y-3.0057
X2.7131Y-2.5957
X2.7313Y-5.311
X2.7618Y-4.9035
X2.7985Y-5.2536
X2.8307Y-3.0797
X2.8622Y-5.2156
X2.8685Y-5.3936
X2.8711Y-4.8376
X2.8935Y-3.0953
X2.9116Y-3.3157
X2.9131Y-3.1557
X2.9528Y-4.6093
X2.9606Y-3.0935
X3.001Y-5.0768
X3.06Y-4.4035
X3.0827Y-4.3297
X3.1024Y-4.7136
X3.1585Y-3.4872
X3.1631Y-2.9657
X3.1762Y-3.0128
X3.1785Y-5.3036
X3.1985Y-5.1536
X3.2067Y-3.3041
X3.2246Y-4.5276
X3.2254Y-4.9429
X3.2685Y-4.7736
X3.2697Y-5.4783
X3.2795Y-3.0167
X3.2913Y-4.2913
X3.3159Y-5.062
X3.3715Y-4.9507
X3.3715Y-5.4607
X3.3885Y-5.1136
X3.4254Y-5.4567
X3.4601Y-4.952
X3.6683Y-4.1053
X3.7234Y-4.1063
X3.7746Y-3.9961
X3.7943Y-4.2933
X3.875Y-2.9016
X3.9222Y-3.814
X4.0482Y-5.2943
X4.1085Y-5.2536
X4.1787Y-3.9531
X4.2165Y-4.6447
X4.2343Y-3.5531
X4.2717Y-4.2815
X4.3209Y-4.5984
X4.3278Y-3.5207
X4.4614Y-3.6563
X4.5059Y-3.5591
X4.5167Y-3.8474
X4.5591Y-4.4311
X4.5985Y-4.9736
X4.6024Y-4.2362
X4.6439Y-5.1949
X4.6585Y-5.5536
X4.6585Y-5.7536
X4.7126Y-3.2756
X4.997Y-3.561
X5.3809Y-4.8238
X5.3819Y-5.0906
X5.3819Y-5.4331
X5.3829Y-5.6614
X5.4163Y-3.3376
X5.4537Y-3.1014
X5.5541Y-4.1496
T6
X2.169Y-4.1063
X2.169Y-4.3031
T7
X5.3543Y-4.1024
X5.3543Y-4.2008
X5.3543Y-4.2992
X5.3543Y-4.3976
T8
X3.7217Y-4.1961
X3.8217Y-4.1961
X3.9217Y-4.1961
X4.0217Y-4.1961
X4.1217Y-4.1961
X4.2217Y-4.1961
X4.3217Y-4.1961
X4.4217Y-4.1961
X4.6217Y-3.3961
X4.6217Y-3.4961
X4.6217Y-3.5961
X4.6217Y-3.6961
X4.6217Y-3.7961
X4.6217Y-3.8961
X4.6217Y-3.9961
X4.6217Y-4.0961
X3.4016Y-4.2313
X3.5Y-4.2313
X3.5984Y-4.2313
X5.0984Y-2.7746
X5.0984Y-2.8746
X5.0984Y-2.9746
X5.1984Y-2.7746
X5.1984Y-2.8746
X5.1984Y-2.9746
X3.7217Y-3.2961
X3.8217Y-3.2961
X3.9217Y-3.2961
X4.0217Y-3.2961
X4.1217Y-3.2961
X4.2217Y-3.2961
X4.3217Y-3.2961
X4.4217Y-3.2961
X3.4547Y-3.4861
X3.4547Y-3.5861
X3.4547Y-3.6861
X3.4547Y-3.7861
X3.4547Y-3.8861
X3.4547Y-3.9861
X2.8135Y-3.6705
X2.8135Y-3.7705
X2.9135Y-3.6705
X2.9135Y-3.7705
X3.0135Y-3.6705
X3.0135Y-3.7705
X2.813Y-3.9894
X2.813Y-4.0894
X2.913Y-3.9894
X2.913Y-4.0894
X3.013Y-3.9894
X3.013Y-4.0894
T9
X5.0984Y-3.4203
X5.0984Y-3.5203
X5.0984Y-3.6203
X5.1984Y-3.4203
X5.1984Y-3.5203
X5.1984Y-3.6203
T10
X3.7402Y-2.5466
X3.7402Y-2.7238
X3.9961Y-2.5466
X3.9961Y-2.7238
T11
X5.7318Y-4.7244
X5.7318Y-4.9244
X5.7285Y-5.2362
X5.7285Y-5.4362
T2
G00X2.0951Y-3.6821
M15
G01X2.0695Y-3.6821
M16
G05
G00X2.0951Y-3.9872
M15
G01X2.0695Y-3.9872
M16
G05
T3
G00X2.0489Y-4.0669
M15
G01X2.0765Y-4.0669
M16
G05
G00X2.0765Y-4.3425
M15
G01X2.0489Y-4.3425
M16
G05
T4
G00X2.1748Y-3.3793
M15
G01X2.1906Y-3.3793
M16
G05
G00X2.1748Y-3.5698
M15
G01X2.1906Y-3.5698
M16
G05
T5
G00X2.0548Y-3.367
M15
G01X2.0744Y-3.367
M16
G05
G00X2.0548Y-3.582
M15
G01X2.0744Y-3.582
M16
G05
T6
G00X2.2427Y-3.688
M15
G01X2.2211Y-3.688
M16
G05
G00X2.2427Y-3.9813
M15
G01X2.2211Y-3.9813
M16
G05
T8
G00X2.2819Y-4.561
M15
G01X2.2819Y-4.6398
M16
G05
G00X2.3606Y-4.7854
M15
G01X2.4394Y-4.7854
M16
G05
G00X2.5181Y-4.561
M15
G01X2.5181Y-4.6398
M16
G05
T0
M30
