G04 #@! TF.GenerationSoftware,KiCad,Pcbnew,5.1.6-c6e7f7d~86~ubuntu20.04.1*
G04 #@! TF.CreationDate,2020-05-21T14:16:40+02:00*
G04 #@! TF.ProjectId,ArduinoDCC++,41726475-696e-46f4-9443-432b2b2e6b69,v.0.0.2a*
G04 #@! TF.SameCoordinates,Original*
G04 #@! TF.FileFunction,Legend,Top*
G04 #@! TF.FilePolarity,Positive*
%FSLAX46Y46*%
G04 Gerber Fmt 4.6, Leading zero omitted, Abs format (unit mm)*
G04 Created by KiCad (PCBNEW 5.1.6-c6e7f7d~86~ubuntu20.04.1) date 2020-05-21 14:16:40*
%MOMM*%
%LPD*%
G01*
G04 APERTURE LIST*
%ADD10C,0.150000*%
G04 #@! TA.AperFunction,Profile*
%ADD11C,0.050000*%
G04 #@! TD*
%ADD12C,0.120000*%
G04 APERTURE END LIST*
D10*
X126375000Y-87778571D02*
X125875000Y-87064285D01*
X125517857Y-87778571D02*
X125517857Y-86278571D01*
X126089285Y-86278571D01*
X126232142Y-86350000D01*
X126303571Y-86421428D01*
X126375000Y-86564285D01*
X126375000Y-86778571D01*
X126303571Y-86921428D01*
X126232142Y-86992857D01*
X126089285Y-87064285D01*
X125517857Y-87064285D01*
X126946428Y-87707142D02*
X127160714Y-87778571D01*
X127517857Y-87778571D01*
X127660714Y-87707142D01*
X127732142Y-87635714D01*
X127803571Y-87492857D01*
X127803571Y-87350000D01*
X127732142Y-87207142D01*
X127660714Y-87135714D01*
X127517857Y-87064285D01*
X127232142Y-86992857D01*
X127089285Y-86921428D01*
X127017857Y-86850000D01*
X126946428Y-86707142D01*
X126946428Y-86564285D01*
X127017857Y-86421428D01*
X127089285Y-86350000D01*
X127232142Y-86278571D01*
X127589285Y-86278571D01*
X127803571Y-86350000D01*
X125482142Y-90107142D02*
X125696428Y-90178571D01*
X126053571Y-90178571D01*
X126196428Y-90107142D01*
X126267857Y-90035714D01*
X126339285Y-89892857D01*
X126339285Y-89750000D01*
X126267857Y-89607142D01*
X126196428Y-89535714D01*
X126053571Y-89464285D01*
X125767857Y-89392857D01*
X125625000Y-89321428D01*
X125553571Y-89250000D01*
X125482142Y-89107142D01*
X125482142Y-88964285D01*
X125553571Y-88821428D01*
X125625000Y-88750000D01*
X125767857Y-88678571D01*
X126125000Y-88678571D01*
X126339285Y-88750000D01*
X126910714Y-90107142D02*
X127125000Y-90178571D01*
X127482142Y-90178571D01*
X127625000Y-90107142D01*
X127696428Y-90035714D01*
X127767857Y-89892857D01*
X127767857Y-89750000D01*
X127696428Y-89607142D01*
X127625000Y-89535714D01*
X127482142Y-89464285D01*
X127196428Y-89392857D01*
X127053571Y-89321428D01*
X126982142Y-89250000D01*
X126910714Y-89107142D01*
X126910714Y-88964285D01*
X126982142Y-88821428D01*
X127053571Y-88750000D01*
X127196428Y-88678571D01*
X127553571Y-88678571D01*
X127767857Y-88750000D01*
X125839285Y-92578571D02*
X125839285Y-91078571D01*
X126839285Y-91078571D02*
X127125000Y-91078571D01*
X127267857Y-91150000D01*
X127410714Y-91292857D01*
X127482142Y-91578571D01*
X127482142Y-92078571D01*
X127410714Y-92364285D01*
X127267857Y-92507142D01*
X127125000Y-92578571D01*
X126839285Y-92578571D01*
X126696428Y-92507142D01*
X126553571Y-92364285D01*
X126482142Y-92078571D01*
X126482142Y-91578571D01*
X126553571Y-91292857D01*
X126696428Y-91150000D01*
X126839285Y-91078571D01*
X134782142Y-86225000D02*
X134639285Y-86153571D01*
X134425000Y-86153571D01*
X134210714Y-86225000D01*
X134067857Y-86367857D01*
X133996428Y-86510714D01*
X133925000Y-86796428D01*
X133925000Y-87010714D01*
X133996428Y-87296428D01*
X134067857Y-87439285D01*
X134210714Y-87582142D01*
X134425000Y-87653571D01*
X134567857Y-87653571D01*
X134782142Y-87582142D01*
X134853571Y-87510714D01*
X134853571Y-87010714D01*
X134567857Y-87010714D01*
X135496428Y-87653571D02*
X135496428Y-86153571D01*
X136353571Y-87653571D01*
X136353571Y-86153571D01*
X137067857Y-87653571D02*
X137067857Y-86153571D01*
X137425000Y-86153571D01*
X137639285Y-86225000D01*
X137782142Y-86367857D01*
X137853571Y-86510714D01*
X137925000Y-86796428D01*
X137925000Y-87010714D01*
X137853571Y-87296428D01*
X137782142Y-87439285D01*
X137639285Y-87582142D01*
X137425000Y-87653571D01*
X137067857Y-87653571D01*
X133567857Y-90053571D02*
X133567857Y-88553571D01*
X134067857Y-89625000D01*
X134567857Y-88553571D01*
X134567857Y-90053571D01*
X135567857Y-88553571D02*
X135853571Y-88553571D01*
X135996428Y-88625000D01*
X136139285Y-88767857D01*
X136210714Y-89053571D01*
X136210714Y-89553571D01*
X136139285Y-89839285D01*
X135996428Y-89982142D01*
X135853571Y-90053571D01*
X135567857Y-90053571D01*
X135425000Y-89982142D01*
X135282142Y-89839285D01*
X135210714Y-89553571D01*
X135210714Y-89053571D01*
X135282142Y-88767857D01*
X135425000Y-88625000D01*
X135567857Y-88553571D01*
X136782142Y-89982142D02*
X136996428Y-90053571D01*
X137353571Y-90053571D01*
X137496428Y-89982142D01*
X137567857Y-89910714D01*
X137639285Y-89767857D01*
X137639285Y-89625000D01*
X137567857Y-89482142D01*
X137496428Y-89410714D01*
X137353571Y-89339285D01*
X137067857Y-89267857D01*
X136925000Y-89196428D01*
X136853571Y-89125000D01*
X136782142Y-88982142D01*
X136782142Y-88839285D01*
X136853571Y-88696428D01*
X136925000Y-88625000D01*
X137067857Y-88553571D01*
X137425000Y-88553571D01*
X137639285Y-88625000D01*
X138282142Y-90053571D02*
X138282142Y-88553571D01*
X135639285Y-90953571D02*
X134925000Y-90953571D01*
X134853571Y-91667857D01*
X134925000Y-91596428D01*
X135067857Y-91525000D01*
X135425000Y-91525000D01*
X135567857Y-91596428D01*
X135639285Y-91667857D01*
X135710714Y-91810714D01*
X135710714Y-92167857D01*
X135639285Y-92310714D01*
X135567857Y-92382142D01*
X135425000Y-92453571D01*
X135067857Y-92453571D01*
X134925000Y-92382142D01*
X134853571Y-92310714D01*
X136139285Y-90953571D02*
X136639285Y-92453571D01*
X137139285Y-90953571D01*
X124773928Y-69878571D02*
X125631071Y-69878571D01*
X125202500Y-71378571D02*
X125202500Y-69878571D01*
X125988214Y-69878571D02*
X126988214Y-71378571D01*
X126988214Y-69878571D02*
X125988214Y-71378571D01*
X125488214Y-73778571D02*
X124988214Y-73064285D01*
X124631071Y-73778571D02*
X124631071Y-72278571D01*
X125202500Y-72278571D01*
X125345357Y-72350000D01*
X125416785Y-72421428D01*
X125488214Y-72564285D01*
X125488214Y-72778571D01*
X125416785Y-72921428D01*
X125345357Y-72992857D01*
X125202500Y-73064285D01*
X124631071Y-73064285D01*
X125988214Y-72278571D02*
X126988214Y-73778571D01*
X126988214Y-72278571D02*
X125988214Y-73778571D01*
X125559642Y-74678571D02*
X124845357Y-74678571D01*
X124773928Y-75392857D01*
X124845357Y-75321428D01*
X124988214Y-75250000D01*
X125345357Y-75250000D01*
X125488214Y-75321428D01*
X125559642Y-75392857D01*
X125631071Y-75535714D01*
X125631071Y-75892857D01*
X125559642Y-76035714D01*
X125488214Y-76107142D01*
X125345357Y-76178571D01*
X124988214Y-76178571D01*
X124845357Y-76107142D01*
X124773928Y-76035714D01*
X126059642Y-74678571D02*
X126559642Y-76178571D01*
X127059642Y-74678571D01*
X134553571Y-70467857D02*
X135053571Y-70467857D01*
X135267857Y-71253571D02*
X134553571Y-71253571D01*
X134553571Y-69753571D01*
X135267857Y-69753571D01*
X136767857Y-71253571D02*
X136267857Y-70539285D01*
X135910714Y-71253571D02*
X135910714Y-69753571D01*
X136482142Y-69753571D01*
X136625000Y-69825000D01*
X136696428Y-69896428D01*
X136767857Y-70039285D01*
X136767857Y-70253571D01*
X136696428Y-70396428D01*
X136625000Y-70467857D01*
X136482142Y-70539285D01*
X135910714Y-70539285D01*
X138267857Y-71253571D02*
X137767857Y-70539285D01*
X137410714Y-71253571D02*
X137410714Y-69753571D01*
X137982142Y-69753571D01*
X138125000Y-69825000D01*
X138196428Y-69896428D01*
X138267857Y-70039285D01*
X138267857Y-70253571D01*
X138196428Y-70396428D01*
X138125000Y-70467857D01*
X137982142Y-70539285D01*
X137410714Y-70539285D01*
X135267857Y-73653571D02*
X134767857Y-72939285D01*
X134410714Y-73653571D02*
X134410714Y-72153571D01*
X134982142Y-72153571D01*
X135125000Y-72225000D01*
X135196428Y-72296428D01*
X135267857Y-72439285D01*
X135267857Y-72653571D01*
X135196428Y-72796428D01*
X135125000Y-72867857D01*
X134982142Y-72939285D01*
X134410714Y-72939285D01*
X135910714Y-72153571D02*
X135910714Y-73367857D01*
X135982142Y-73510714D01*
X136053571Y-73582142D01*
X136196428Y-73653571D01*
X136482142Y-73653571D01*
X136625000Y-73582142D01*
X136696428Y-73510714D01*
X136767857Y-73367857D01*
X136767857Y-72153571D01*
X137482142Y-73653571D02*
X137482142Y-72153571D01*
X138339285Y-73653571D01*
X138339285Y-72153571D01*
X135232142Y-74625000D02*
X135089285Y-74553571D01*
X134875000Y-74553571D01*
X134660714Y-74625000D01*
X134517857Y-74767857D01*
X134446428Y-74910714D01*
X134375000Y-75196428D01*
X134375000Y-75410714D01*
X134446428Y-75696428D01*
X134517857Y-75839285D01*
X134660714Y-75982142D01*
X134875000Y-76053571D01*
X135017857Y-76053571D01*
X135232142Y-75982142D01*
X135303571Y-75910714D01*
X135303571Y-75410714D01*
X135017857Y-75410714D01*
X135946428Y-76053571D02*
X135946428Y-74553571D01*
X136803571Y-76053571D01*
X136803571Y-74553571D01*
X137517857Y-76053571D02*
X137517857Y-74553571D01*
X137875000Y-74553571D01*
X138089285Y-74625000D01*
X138232142Y-74767857D01*
X138303571Y-74910714D01*
X138375000Y-75196428D01*
X138375000Y-75410714D01*
X138303571Y-75696428D01*
X138232142Y-75839285D01*
X138089285Y-75982142D01*
X137875000Y-76053571D01*
X137517857Y-76053571D01*
X129332142Y-103550000D02*
X129189285Y-103478571D01*
X128975000Y-103478571D01*
X128760714Y-103550000D01*
X128617857Y-103692857D01*
X128546428Y-103835714D01*
X128475000Y-104121428D01*
X128475000Y-104335714D01*
X128546428Y-104621428D01*
X128617857Y-104764285D01*
X128760714Y-104907142D01*
X128975000Y-104978571D01*
X129117857Y-104978571D01*
X129332142Y-104907142D01*
X129403571Y-104835714D01*
X129403571Y-104335714D01*
X129117857Y-104335714D01*
X130046428Y-104978571D02*
X130046428Y-103478571D01*
X130903571Y-104978571D01*
X130903571Y-103478571D01*
X131617857Y-104978571D02*
X131617857Y-103478571D01*
X131975000Y-103478571D01*
X132189285Y-103550000D01*
X132332142Y-103692857D01*
X132403571Y-103835714D01*
X132475000Y-104121428D01*
X132475000Y-104335714D01*
X132403571Y-104621428D01*
X132332142Y-104764285D01*
X132189285Y-104907142D01*
X131975000Y-104978571D01*
X131617857Y-104978571D01*
X128296428Y-109778571D02*
X128296428Y-108278571D01*
X128653571Y-108278571D01*
X128867857Y-108350000D01*
X129010714Y-108492857D01*
X129082142Y-108635714D01*
X129153571Y-108921428D01*
X129153571Y-109135714D01*
X129082142Y-109421428D01*
X129010714Y-109564285D01*
X128867857Y-109707142D01*
X128653571Y-109778571D01*
X128296428Y-109778571D01*
X130439285Y-109778571D02*
X130439285Y-108992857D01*
X130367857Y-108850000D01*
X130225000Y-108778571D01*
X129939285Y-108778571D01*
X129796428Y-108850000D01*
X130439285Y-109707142D02*
X130296428Y-109778571D01*
X129939285Y-109778571D01*
X129796428Y-109707142D01*
X129725000Y-109564285D01*
X129725000Y-109421428D01*
X129796428Y-109278571D01*
X129939285Y-109207142D01*
X130296428Y-109207142D01*
X130439285Y-109135714D01*
X130939285Y-108778571D02*
X131510714Y-108778571D01*
X131153571Y-108278571D02*
X131153571Y-109564285D01*
X131225000Y-109707142D01*
X131367857Y-109778571D01*
X131510714Y-109778571D01*
X132653571Y-109778571D02*
X132653571Y-108992857D01*
X132582142Y-108850000D01*
X132439285Y-108778571D01*
X132153571Y-108778571D01*
X132010714Y-108850000D01*
X132653571Y-109707142D02*
X132510714Y-109778571D01*
X132153571Y-109778571D01*
X132010714Y-109707142D01*
X131939285Y-109564285D01*
X131939285Y-109421428D01*
X132010714Y-109278571D01*
X132153571Y-109207142D01*
X132510714Y-109207142D01*
X132653571Y-109135714D01*
X130189285Y-110678571D02*
X129475000Y-110678571D01*
X129403571Y-111392857D01*
X129475000Y-111321428D01*
X129617857Y-111250000D01*
X129975000Y-111250000D01*
X130117857Y-111321428D01*
X130189285Y-111392857D01*
X130260714Y-111535714D01*
X130260714Y-111892857D01*
X130189285Y-112035714D01*
X130117857Y-112107142D01*
X129975000Y-112178571D01*
X129617857Y-112178571D01*
X129475000Y-112107142D01*
X129403571Y-112035714D01*
X130689285Y-110678571D02*
X131189285Y-112178571D01*
X131689285Y-110678571D01*
X141702380Y-111851190D02*
X140702380Y-111851190D01*
X140702380Y-111470238D01*
X140750000Y-111375000D01*
X140797619Y-111327380D01*
X140892857Y-111279761D01*
X141035714Y-111279761D01*
X141130952Y-111327380D01*
X141178571Y-111375000D01*
X141226190Y-111470238D01*
X141226190Y-111851190D01*
X141702380Y-110851190D02*
X141035714Y-110851190D01*
X141226190Y-110851190D02*
X141130952Y-110803571D01*
X141083333Y-110755952D01*
X141035714Y-110660714D01*
X141035714Y-110565476D01*
X141702380Y-110089285D02*
X141654761Y-110184523D01*
X141607142Y-110232142D01*
X141511904Y-110279761D01*
X141226190Y-110279761D01*
X141130952Y-110232142D01*
X141083333Y-110184523D01*
X141035714Y-110089285D01*
X141035714Y-109946428D01*
X141083333Y-109851190D01*
X141130952Y-109803571D01*
X141226190Y-109755952D01*
X141511904Y-109755952D01*
X141607142Y-109803571D01*
X141654761Y-109851190D01*
X141702380Y-109946428D01*
X141702380Y-110089285D01*
X141035714Y-108898809D02*
X141845238Y-108898809D01*
X141940476Y-108946428D01*
X141988095Y-108994047D01*
X142035714Y-109089285D01*
X142035714Y-109232142D01*
X141988095Y-109327380D01*
X141654761Y-108898809D02*
X141702380Y-108994047D01*
X141702380Y-109184523D01*
X141654761Y-109279761D01*
X141607142Y-109327380D01*
X141511904Y-109375000D01*
X141226190Y-109375000D01*
X141130952Y-109327380D01*
X141083333Y-109279761D01*
X141035714Y-109184523D01*
X141035714Y-108994047D01*
X141083333Y-108898809D01*
X141727380Y-102926190D02*
X140727380Y-102926190D01*
X141441666Y-102592857D01*
X140727380Y-102259523D01*
X141727380Y-102259523D01*
X141727380Y-101354761D02*
X141203571Y-101354761D01*
X141108333Y-101402380D01*
X141060714Y-101497619D01*
X141060714Y-101688095D01*
X141108333Y-101783333D01*
X141679761Y-101354761D02*
X141727380Y-101450000D01*
X141727380Y-101688095D01*
X141679761Y-101783333D01*
X141584523Y-101830952D01*
X141489285Y-101830952D01*
X141394047Y-101783333D01*
X141346428Y-101688095D01*
X141346428Y-101450000D01*
X141298809Y-101354761D01*
X141727380Y-100878571D02*
X141060714Y-100878571D01*
X140727380Y-100878571D02*
X140775000Y-100926190D01*
X140822619Y-100878571D01*
X140775000Y-100830952D01*
X140727380Y-100878571D01*
X140822619Y-100878571D01*
X141060714Y-100402380D02*
X141727380Y-100402380D01*
X141155952Y-100402380D02*
X141108333Y-100354761D01*
X141060714Y-100259523D01*
X141060714Y-100116666D01*
X141108333Y-100021428D01*
X141203571Y-99973809D01*
X141727380Y-99973809D01*
X141679761Y-94841666D02*
X141727380Y-94698809D01*
X141727380Y-94460714D01*
X141679761Y-94365476D01*
X141632142Y-94317857D01*
X141536904Y-94270238D01*
X141441666Y-94270238D01*
X141346428Y-94317857D01*
X141298809Y-94365476D01*
X141251190Y-94460714D01*
X141203571Y-94651190D01*
X141155952Y-94746428D01*
X141108333Y-94794047D01*
X141013095Y-94841666D01*
X140917857Y-94841666D01*
X140822619Y-94794047D01*
X140775000Y-94746428D01*
X140727380Y-94651190D01*
X140727380Y-94413095D01*
X140775000Y-94270238D01*
X141060714Y-93984523D02*
X141060714Y-93603571D01*
X140727380Y-93841666D02*
X141584523Y-93841666D01*
X141679761Y-93794047D01*
X141727380Y-93698809D01*
X141727380Y-93603571D01*
X141727380Y-92841666D02*
X141203571Y-92841666D01*
X141108333Y-92889285D01*
X141060714Y-92984523D01*
X141060714Y-93175000D01*
X141108333Y-93270238D01*
X141679761Y-92841666D02*
X141727380Y-92936904D01*
X141727380Y-93175000D01*
X141679761Y-93270238D01*
X141584523Y-93317857D01*
X141489285Y-93317857D01*
X141394047Y-93270238D01*
X141346428Y-93175000D01*
X141346428Y-92936904D01*
X141298809Y-92841666D01*
X141060714Y-92508333D02*
X141060714Y-92127380D01*
X140727380Y-92365476D02*
X141584523Y-92365476D01*
X141679761Y-92317857D01*
X141727380Y-92222619D01*
X141727380Y-92127380D01*
X141060714Y-91365476D02*
X141727380Y-91365476D01*
X141060714Y-91794047D02*
X141584523Y-91794047D01*
X141679761Y-91746428D01*
X141727380Y-91651190D01*
X141727380Y-91508333D01*
X141679761Y-91413095D01*
X141632142Y-91365476D01*
X141679761Y-90936904D02*
X141727380Y-90841666D01*
X141727380Y-90651190D01*
X141679761Y-90555952D01*
X141584523Y-90508333D01*
X141536904Y-90508333D01*
X141441666Y-90555952D01*
X141394047Y-90651190D01*
X141394047Y-90794047D01*
X141346428Y-90889285D01*
X141251190Y-90936904D01*
X141203571Y-90936904D01*
X141108333Y-90889285D01*
X141060714Y-90794047D01*
X141060714Y-90651190D01*
X141108333Y-90555952D01*
X139653571Y-87114285D02*
X139653571Y-86780952D01*
X140177380Y-86638095D02*
X140177380Y-87114285D01*
X139177380Y-87114285D01*
X139177380Y-86638095D01*
X140177380Y-85638095D02*
X139701190Y-85971428D01*
X140177380Y-86209523D02*
X139177380Y-86209523D01*
X139177380Y-85828571D01*
X139225000Y-85733333D01*
X139272619Y-85685714D01*
X139367857Y-85638095D01*
X139510714Y-85638095D01*
X139605952Y-85685714D01*
X139653571Y-85733333D01*
X139701190Y-85828571D01*
X139701190Y-86209523D01*
X140177380Y-84638095D02*
X139701190Y-84971428D01*
X140177380Y-85209523D02*
X139177380Y-85209523D01*
X139177380Y-84828571D01*
X139225000Y-84733333D01*
X139272619Y-84685714D01*
X139367857Y-84638095D01*
X139510714Y-84638095D01*
X139605952Y-84685714D01*
X139653571Y-84733333D01*
X139701190Y-84828571D01*
X139701190Y-85209523D01*
X140027380Y-80745238D02*
X139551190Y-81078571D01*
X140027380Y-81316666D02*
X139027380Y-81316666D01*
X139027380Y-80935714D01*
X139075000Y-80840476D01*
X139122619Y-80792857D01*
X139217857Y-80745238D01*
X139360714Y-80745238D01*
X139455952Y-80792857D01*
X139503571Y-80840476D01*
X139551190Y-80935714D01*
X139551190Y-81316666D01*
X139360714Y-79888095D02*
X140027380Y-79888095D01*
X139360714Y-80316666D02*
X139884523Y-80316666D01*
X139979761Y-80269047D01*
X140027380Y-80173809D01*
X140027380Y-80030952D01*
X139979761Y-79935714D01*
X139932142Y-79888095D01*
X139360714Y-79411904D02*
X140027380Y-79411904D01*
X139455952Y-79411904D02*
X139408333Y-79364285D01*
X139360714Y-79269047D01*
X139360714Y-79126190D01*
X139408333Y-79030952D01*
X139503571Y-78983333D01*
X140027380Y-78983333D01*
X75265595Y-106451428D02*
X76027500Y-106451428D01*
X75646547Y-106832380D02*
X75646547Y-106070476D01*
X76408452Y-105832380D02*
X77027500Y-105832380D01*
X76694166Y-106213333D01*
X76837023Y-106213333D01*
X76932261Y-106260952D01*
X76979880Y-106308571D01*
X77027500Y-106403809D01*
X77027500Y-106641904D01*
X76979880Y-106737142D01*
X76932261Y-106784761D01*
X76837023Y-106832380D01*
X76551309Y-106832380D01*
X76456071Y-106784761D01*
X76408452Y-106737142D01*
X77456071Y-106737142D02*
X77503690Y-106784761D01*
X77456071Y-106832380D01*
X77408452Y-106784761D01*
X77456071Y-106737142D01*
X77456071Y-106832380D01*
X77837023Y-105832380D02*
X78456071Y-105832380D01*
X78122738Y-106213333D01*
X78265595Y-106213333D01*
X78360833Y-106260952D01*
X78408452Y-106308571D01*
X78456071Y-106403809D01*
X78456071Y-106641904D01*
X78408452Y-106737142D01*
X78360833Y-106784761D01*
X78265595Y-106832380D01*
X77979880Y-106832380D01*
X77884642Y-106784761D01*
X77837023Y-106737142D01*
X75995595Y-90591428D02*
X76757500Y-90591428D01*
X76376547Y-90972380D02*
X76376547Y-90210476D01*
X77709880Y-89972380D02*
X77233690Y-89972380D01*
X77186071Y-90448571D01*
X77233690Y-90400952D01*
X77328928Y-90353333D01*
X77567023Y-90353333D01*
X77662261Y-90400952D01*
X77709880Y-90448571D01*
X77757500Y-90543809D01*
X77757500Y-90781904D01*
X77709880Y-90877142D01*
X77662261Y-90924761D01*
X77567023Y-90972380D01*
X77328928Y-90972380D01*
X77233690Y-90924761D01*
X77186071Y-90877142D01*
X95273809Y-104596547D02*
X93673809Y-104596547D01*
X93673809Y-104215595D01*
X93750000Y-103987023D01*
X93902380Y-103834642D01*
X94054761Y-103758452D01*
X94359523Y-103682261D01*
X94588095Y-103682261D01*
X94892857Y-103758452D01*
X95045238Y-103834642D01*
X95197619Y-103987023D01*
X95273809Y-104215595D01*
X95273809Y-104596547D01*
X93673809Y-102234642D02*
X93673809Y-102996547D01*
X94435714Y-103072738D01*
X94359523Y-102996547D01*
X94283333Y-102844166D01*
X94283333Y-102463214D01*
X94359523Y-102310833D01*
X94435714Y-102234642D01*
X94588095Y-102158452D01*
X94969047Y-102158452D01*
X95121428Y-102234642D01*
X95197619Y-102310833D01*
X95273809Y-102463214D01*
X95273809Y-102844166D01*
X95197619Y-102996547D01*
X95121428Y-103072738D01*
X97823809Y-104596547D02*
X96223809Y-104596547D01*
X96223809Y-104215595D01*
X96300000Y-103987023D01*
X96452380Y-103834642D01*
X96604761Y-103758452D01*
X96909523Y-103682261D01*
X97138095Y-103682261D01*
X97442857Y-103758452D01*
X97595238Y-103834642D01*
X97747619Y-103987023D01*
X97823809Y-104215595D01*
X97823809Y-104596547D01*
X96223809Y-102310833D02*
X96223809Y-102615595D01*
X96300000Y-102767976D01*
X96376190Y-102844166D01*
X96604761Y-102996547D01*
X96909523Y-103072738D01*
X97519047Y-103072738D01*
X97671428Y-102996547D01*
X97747619Y-102920357D01*
X97823809Y-102767976D01*
X97823809Y-102463214D01*
X97747619Y-102310833D01*
X97671428Y-102234642D01*
X97519047Y-102158452D01*
X97138095Y-102158452D01*
X96985714Y-102234642D01*
X96909523Y-102310833D01*
X96833333Y-102463214D01*
X96833333Y-102767976D01*
X96909523Y-102920357D01*
X96985714Y-102996547D01*
X97138095Y-103072738D01*
X100373809Y-104596547D02*
X98773809Y-104596547D01*
X98773809Y-104215595D01*
X98850000Y-103987023D01*
X99002380Y-103834642D01*
X99154761Y-103758452D01*
X99459523Y-103682261D01*
X99688095Y-103682261D01*
X99992857Y-103758452D01*
X100145238Y-103834642D01*
X100297619Y-103987023D01*
X100373809Y-104215595D01*
X100373809Y-104596547D01*
X98773809Y-103148928D02*
X98773809Y-102082261D01*
X100373809Y-102767976D01*
X102085714Y-104063214D02*
X102161904Y-103834642D01*
X102238095Y-103758452D01*
X102390476Y-103682261D01*
X102619047Y-103682261D01*
X102771428Y-103758452D01*
X102847619Y-103834642D01*
X102923809Y-103987023D01*
X102923809Y-104596547D01*
X101323809Y-104596547D01*
X101323809Y-104063214D01*
X101400000Y-103910833D01*
X101476190Y-103834642D01*
X101628571Y-103758452D01*
X101780952Y-103758452D01*
X101933333Y-103834642D01*
X102009523Y-103910833D01*
X102085714Y-104063214D01*
X102085714Y-104596547D01*
X101323809Y-102691785D02*
X101323809Y-102539404D01*
X101400000Y-102387023D01*
X101476190Y-102310833D01*
X101628571Y-102234642D01*
X101933333Y-102158452D01*
X102314285Y-102158452D01*
X102619047Y-102234642D01*
X102771428Y-102310833D01*
X102847619Y-102387023D01*
X102923809Y-102539404D01*
X102923809Y-102691785D01*
X102847619Y-102844166D01*
X102771428Y-102920357D01*
X102619047Y-102996547D01*
X102314285Y-103072738D01*
X101933333Y-103072738D01*
X101628571Y-102996547D01*
X101476190Y-102920357D01*
X101400000Y-102844166D01*
X101323809Y-102691785D01*
X104635714Y-104063214D02*
X104711904Y-103834642D01*
X104788095Y-103758452D01*
X104940476Y-103682261D01*
X105169047Y-103682261D01*
X105321428Y-103758452D01*
X105397619Y-103834642D01*
X105473809Y-103987023D01*
X105473809Y-104596547D01*
X103873809Y-104596547D01*
X103873809Y-104063214D01*
X103950000Y-103910833D01*
X104026190Y-103834642D01*
X104178571Y-103758452D01*
X104330952Y-103758452D01*
X104483333Y-103834642D01*
X104559523Y-103910833D01*
X104635714Y-104063214D01*
X104635714Y-104596547D01*
X105473809Y-102158452D02*
X105473809Y-103072738D01*
X105473809Y-102615595D02*
X103873809Y-102615595D01*
X104102380Y-102767976D01*
X104254761Y-102920357D01*
X104330952Y-103072738D01*
X107185714Y-104063214D02*
X107261904Y-103834642D01*
X107338095Y-103758452D01*
X107490476Y-103682261D01*
X107719047Y-103682261D01*
X107871428Y-103758452D01*
X107947619Y-103834642D01*
X108023809Y-103987023D01*
X108023809Y-104596547D01*
X106423809Y-104596547D01*
X106423809Y-104063214D01*
X106500000Y-103910833D01*
X106576190Y-103834642D01*
X106728571Y-103758452D01*
X106880952Y-103758452D01*
X107033333Y-103834642D01*
X107109523Y-103910833D01*
X107185714Y-104063214D01*
X107185714Y-104596547D01*
X106576190Y-103072738D02*
X106500000Y-102996547D01*
X106423809Y-102844166D01*
X106423809Y-102463214D01*
X106500000Y-102310833D01*
X106576190Y-102234642D01*
X106728571Y-102158452D01*
X106880952Y-102158452D01*
X107109523Y-102234642D01*
X108023809Y-103148928D01*
X108023809Y-102158452D01*
X109735714Y-104063214D02*
X109811904Y-103834642D01*
X109888095Y-103758452D01*
X110040476Y-103682261D01*
X110269047Y-103682261D01*
X110421428Y-103758452D01*
X110497619Y-103834642D01*
X110573809Y-103987023D01*
X110573809Y-104596547D01*
X108973809Y-104596547D01*
X108973809Y-104063214D01*
X109050000Y-103910833D01*
X109126190Y-103834642D01*
X109278571Y-103758452D01*
X109430952Y-103758452D01*
X109583333Y-103834642D01*
X109659523Y-103910833D01*
X109735714Y-104063214D01*
X109735714Y-104596547D01*
X108973809Y-103148928D02*
X108973809Y-102158452D01*
X109583333Y-102691785D01*
X109583333Y-102463214D01*
X109659523Y-102310833D01*
X109735714Y-102234642D01*
X109888095Y-102158452D01*
X110269047Y-102158452D01*
X110421428Y-102234642D01*
X110497619Y-102310833D01*
X110573809Y-102463214D01*
X110573809Y-102920357D01*
X110497619Y-103072738D01*
X110421428Y-103148928D01*
X112285714Y-104063214D02*
X112361904Y-103834642D01*
X112438095Y-103758452D01*
X112590476Y-103682261D01*
X112819047Y-103682261D01*
X112971428Y-103758452D01*
X113047619Y-103834642D01*
X113123809Y-103987023D01*
X113123809Y-104596547D01*
X111523809Y-104596547D01*
X111523809Y-104063214D01*
X111600000Y-103910833D01*
X111676190Y-103834642D01*
X111828571Y-103758452D01*
X111980952Y-103758452D01*
X112133333Y-103834642D01*
X112209523Y-103910833D01*
X112285714Y-104063214D01*
X112285714Y-104596547D01*
X112057142Y-102310833D02*
X113123809Y-102310833D01*
X111447619Y-102691785D02*
X112590476Y-103072738D01*
X112590476Y-102082261D01*
X95123809Y-88315357D02*
X93523809Y-88315357D01*
X93523809Y-87934404D01*
X93600000Y-87705833D01*
X93752380Y-87553452D01*
X93904761Y-87477261D01*
X94209523Y-87401071D01*
X94438095Y-87401071D01*
X94742857Y-87477261D01*
X94895238Y-87553452D01*
X95047619Y-87705833D01*
X95123809Y-87934404D01*
X95123809Y-88315357D01*
X93676190Y-86791547D02*
X93600000Y-86715357D01*
X93523809Y-86562976D01*
X93523809Y-86182023D01*
X93600000Y-86029642D01*
X93676190Y-85953452D01*
X93828571Y-85877261D01*
X93980952Y-85877261D01*
X94209523Y-85953452D01*
X95123809Y-86867738D01*
X95123809Y-85877261D01*
X97673809Y-88315357D02*
X96073809Y-88315357D01*
X96073809Y-87934404D01*
X96150000Y-87705833D01*
X96302380Y-87553452D01*
X96454761Y-87477261D01*
X96759523Y-87401071D01*
X96988095Y-87401071D01*
X97292857Y-87477261D01*
X97445238Y-87553452D01*
X97597619Y-87705833D01*
X97673809Y-87934404D01*
X97673809Y-88315357D01*
X97673809Y-85877261D02*
X97673809Y-86791547D01*
X97673809Y-86334404D02*
X96073809Y-86334404D01*
X96302380Y-86486785D01*
X96454761Y-86639166D01*
X96530952Y-86791547D01*
X100223809Y-88315357D02*
X98623809Y-88315357D01*
X98623809Y-87934404D01*
X98700000Y-87705833D01*
X98852380Y-87553452D01*
X99004761Y-87477261D01*
X99309523Y-87401071D01*
X99538095Y-87401071D01*
X99842857Y-87477261D01*
X99995238Y-87553452D01*
X100147619Y-87705833D01*
X100223809Y-87934404D01*
X100223809Y-88315357D01*
X98623809Y-86410595D02*
X98623809Y-86258214D01*
X98700000Y-86105833D01*
X98776190Y-86029642D01*
X98928571Y-85953452D01*
X99233333Y-85877261D01*
X99614285Y-85877261D01*
X99919047Y-85953452D01*
X100071428Y-86029642D01*
X100147619Y-86105833D01*
X100223809Y-86258214D01*
X100223809Y-86410595D01*
X100147619Y-86562976D01*
X100071428Y-86639166D01*
X99919047Y-86715357D01*
X99614285Y-86791547D01*
X99233333Y-86791547D01*
X98928571Y-86715357D01*
X98776190Y-86639166D01*
X98700000Y-86562976D01*
X98623809Y-86410595D01*
X102621428Y-87401071D02*
X102697619Y-87477261D01*
X102773809Y-87705833D01*
X102773809Y-87858214D01*
X102697619Y-88086785D01*
X102545238Y-88239166D01*
X102392857Y-88315357D01*
X102088095Y-88391547D01*
X101859523Y-88391547D01*
X101554761Y-88315357D01*
X101402380Y-88239166D01*
X101250000Y-88086785D01*
X101173809Y-87858214D01*
X101173809Y-87705833D01*
X101250000Y-87477261D01*
X101326190Y-87401071D01*
X101173809Y-86029642D02*
X101173809Y-86334404D01*
X101250000Y-86486785D01*
X101326190Y-86562976D01*
X101554761Y-86715357D01*
X101859523Y-86791547D01*
X102469047Y-86791547D01*
X102621428Y-86715357D01*
X102697619Y-86639166D01*
X102773809Y-86486785D01*
X102773809Y-86182023D01*
X102697619Y-86029642D01*
X102621428Y-85953452D01*
X102469047Y-85877261D01*
X102088095Y-85877261D01*
X101935714Y-85953452D01*
X101859523Y-86029642D01*
X101783333Y-86182023D01*
X101783333Y-86486785D01*
X101859523Y-86639166D01*
X101935714Y-86715357D01*
X102088095Y-86791547D01*
X105171428Y-87401071D02*
X105247619Y-87477261D01*
X105323809Y-87705833D01*
X105323809Y-87858214D01*
X105247619Y-88086785D01*
X105095238Y-88239166D01*
X104942857Y-88315357D01*
X104638095Y-88391547D01*
X104409523Y-88391547D01*
X104104761Y-88315357D01*
X103952380Y-88239166D01*
X103800000Y-88086785D01*
X103723809Y-87858214D01*
X103723809Y-87705833D01*
X103800000Y-87477261D01*
X103876190Y-87401071D01*
X103723809Y-85953452D02*
X103723809Y-86715357D01*
X104485714Y-86791547D01*
X104409523Y-86715357D01*
X104333333Y-86562976D01*
X104333333Y-86182023D01*
X104409523Y-86029642D01*
X104485714Y-85953452D01*
X104638095Y-85877261D01*
X105019047Y-85877261D01*
X105171428Y-85953452D01*
X105247619Y-86029642D01*
X105323809Y-86182023D01*
X105323809Y-86562976D01*
X105247619Y-86715357D01*
X105171428Y-86791547D01*
X107721428Y-87401071D02*
X107797619Y-87477261D01*
X107873809Y-87705833D01*
X107873809Y-87858214D01*
X107797619Y-88086785D01*
X107645238Y-88239166D01*
X107492857Y-88315357D01*
X107188095Y-88391547D01*
X106959523Y-88391547D01*
X106654761Y-88315357D01*
X106502380Y-88239166D01*
X106350000Y-88086785D01*
X106273809Y-87858214D01*
X106273809Y-87705833D01*
X106350000Y-87477261D01*
X106426190Y-87401071D01*
X106807142Y-86029642D02*
X107873809Y-86029642D01*
X106197619Y-86410595D02*
X107340476Y-86791547D01*
X107340476Y-85801071D01*
X110271428Y-87401071D02*
X110347619Y-87477261D01*
X110423809Y-87705833D01*
X110423809Y-87858214D01*
X110347619Y-88086785D01*
X110195238Y-88239166D01*
X110042857Y-88315357D01*
X109738095Y-88391547D01*
X109509523Y-88391547D01*
X109204761Y-88315357D01*
X109052380Y-88239166D01*
X108900000Y-88086785D01*
X108823809Y-87858214D01*
X108823809Y-87705833D01*
X108900000Y-87477261D01*
X108976190Y-87401071D01*
X108823809Y-86867738D02*
X108823809Y-85877261D01*
X109433333Y-86410595D01*
X109433333Y-86182023D01*
X109509523Y-86029642D01*
X109585714Y-85953452D01*
X109738095Y-85877261D01*
X110119047Y-85877261D01*
X110271428Y-85953452D01*
X110347619Y-86029642D01*
X110423809Y-86182023D01*
X110423809Y-86639166D01*
X110347619Y-86791547D01*
X110271428Y-86867738D01*
X112821428Y-87401071D02*
X112897619Y-87477261D01*
X112973809Y-87705833D01*
X112973809Y-87858214D01*
X112897619Y-88086785D01*
X112745238Y-88239166D01*
X112592857Y-88315357D01*
X112288095Y-88391547D01*
X112059523Y-88391547D01*
X111754761Y-88315357D01*
X111602380Y-88239166D01*
X111450000Y-88086785D01*
X111373809Y-87858214D01*
X111373809Y-87705833D01*
X111450000Y-87477261D01*
X111526190Y-87401071D01*
X111526190Y-86791547D02*
X111450000Y-86715357D01*
X111373809Y-86562976D01*
X111373809Y-86182023D01*
X111450000Y-86029642D01*
X111526190Y-85953452D01*
X111678571Y-85877261D01*
X111830952Y-85877261D01*
X112059523Y-85953452D01*
X112973809Y-86867738D01*
X112973809Y-85877261D01*
X119628452Y-87048809D02*
X119628452Y-85448809D01*
X120237976Y-85448809D01*
X120390357Y-85525000D01*
X120466547Y-85601190D01*
X120542738Y-85753571D01*
X120542738Y-85982142D01*
X120466547Y-86134523D01*
X120390357Y-86210714D01*
X120237976Y-86286904D01*
X119628452Y-86286904D01*
X122142738Y-86896428D02*
X122066547Y-86972619D01*
X121837976Y-87048809D01*
X121685595Y-87048809D01*
X121457023Y-86972619D01*
X121304642Y-86820238D01*
X121228452Y-86667857D01*
X121152261Y-86363095D01*
X121152261Y-86134523D01*
X121228452Y-85829761D01*
X121304642Y-85677380D01*
X121457023Y-85525000D01*
X121685595Y-85448809D01*
X121837976Y-85448809D01*
X122066547Y-85525000D01*
X122142738Y-85601190D01*
X123666547Y-87048809D02*
X122752261Y-87048809D01*
X123209404Y-87048809D02*
X123209404Y-85448809D01*
X123057023Y-85677380D01*
X122904642Y-85829761D01*
X122752261Y-85905952D01*
X119628452Y-89598809D02*
X119628452Y-87998809D01*
X120237976Y-87998809D01*
X120390357Y-88075000D01*
X120466547Y-88151190D01*
X120542738Y-88303571D01*
X120542738Y-88532142D01*
X120466547Y-88684523D01*
X120390357Y-88760714D01*
X120237976Y-88836904D01*
X119628452Y-88836904D01*
X122142738Y-89446428D02*
X122066547Y-89522619D01*
X121837976Y-89598809D01*
X121685595Y-89598809D01*
X121457023Y-89522619D01*
X121304642Y-89370238D01*
X121228452Y-89217857D01*
X121152261Y-88913095D01*
X121152261Y-88684523D01*
X121228452Y-88379761D01*
X121304642Y-88227380D01*
X121457023Y-88075000D01*
X121685595Y-87998809D01*
X121837976Y-87998809D01*
X122066547Y-88075000D01*
X122142738Y-88151190D01*
X123133214Y-87998809D02*
X123285595Y-87998809D01*
X123437976Y-88075000D01*
X123514166Y-88151190D01*
X123590357Y-88303571D01*
X123666547Y-88608333D01*
X123666547Y-88989285D01*
X123590357Y-89294047D01*
X123514166Y-89446428D01*
X123437976Y-89522619D01*
X123285595Y-89598809D01*
X123133214Y-89598809D01*
X122980833Y-89522619D01*
X122904642Y-89446428D01*
X122828452Y-89294047D01*
X122752261Y-88989285D01*
X122752261Y-88608333D01*
X122828452Y-88303571D01*
X122904642Y-88151190D01*
X122980833Y-88075000D01*
X123133214Y-87998809D01*
X119628452Y-92148809D02*
X119628452Y-90548809D01*
X120237976Y-90548809D01*
X120390357Y-90625000D01*
X120466547Y-90701190D01*
X120542738Y-90853571D01*
X120542738Y-91082142D01*
X120466547Y-91234523D01*
X120390357Y-91310714D01*
X120237976Y-91386904D01*
X119628452Y-91386904D01*
X121228452Y-91310714D02*
X121761785Y-91310714D01*
X121990357Y-92148809D02*
X121228452Y-92148809D01*
X121228452Y-90548809D01*
X121990357Y-90548809D01*
X122523690Y-90548809D02*
X123514166Y-90548809D01*
X122980833Y-91158333D01*
X123209404Y-91158333D01*
X123361785Y-91234523D01*
X123437976Y-91310714D01*
X123514166Y-91463095D01*
X123514166Y-91844047D01*
X123437976Y-91996428D01*
X123361785Y-92072619D01*
X123209404Y-92148809D01*
X122752261Y-92148809D01*
X122599880Y-92072619D01*
X122523690Y-91996428D01*
X120466547Y-93175000D02*
X120314166Y-93098809D01*
X120085595Y-93098809D01*
X119857023Y-93175000D01*
X119704642Y-93327380D01*
X119628452Y-93479761D01*
X119552261Y-93784523D01*
X119552261Y-94013095D01*
X119628452Y-94317857D01*
X119704642Y-94470238D01*
X119857023Y-94622619D01*
X120085595Y-94698809D01*
X120237976Y-94698809D01*
X120466547Y-94622619D01*
X120542738Y-94546428D01*
X120542738Y-94013095D01*
X120237976Y-94013095D01*
X121228452Y-94698809D02*
X121228452Y-93098809D01*
X122142738Y-94698809D01*
X122142738Y-93098809D01*
X122904642Y-94698809D02*
X122904642Y-93098809D01*
X123285595Y-93098809D01*
X123514166Y-93175000D01*
X123666547Y-93327380D01*
X123742738Y-93479761D01*
X123818928Y-93784523D01*
X123818928Y-94013095D01*
X123742738Y-94317857D01*
X123666547Y-94470238D01*
X123514166Y-94622619D01*
X123285595Y-94698809D01*
X122904642Y-94698809D01*
X119552261Y-96791666D02*
X120314166Y-96791666D01*
X119399880Y-97248809D02*
X119933214Y-95648809D01*
X120466547Y-97248809D01*
X121914166Y-97248809D02*
X121380833Y-96486904D01*
X120999880Y-97248809D02*
X120999880Y-95648809D01*
X121609404Y-95648809D01*
X121761785Y-95725000D01*
X121837976Y-95801190D01*
X121914166Y-95953571D01*
X121914166Y-96182142D01*
X121837976Y-96334523D01*
X121761785Y-96410714D01*
X121609404Y-96486904D01*
X120999880Y-96486904D01*
X122599880Y-96410714D02*
X123133214Y-96410714D01*
X123361785Y-97248809D02*
X122599880Y-97248809D01*
X122599880Y-95648809D01*
X123361785Y-95648809D01*
X124580833Y-96410714D02*
X124047500Y-96410714D01*
X124047500Y-97248809D02*
X124047500Y-95648809D01*
X124809404Y-95648809D01*
X119628452Y-99798809D02*
X119628452Y-98198809D01*
X120237976Y-98198809D01*
X120390357Y-98275000D01*
X120466547Y-98351190D01*
X120542738Y-98503571D01*
X120542738Y-98732142D01*
X120466547Y-98884523D01*
X120390357Y-98960714D01*
X120237976Y-99036904D01*
X119628452Y-99036904D01*
X121228452Y-98960714D02*
X121761785Y-98960714D01*
X121990357Y-99798809D02*
X121228452Y-99798809D01*
X121228452Y-98198809D01*
X121990357Y-98198809D01*
X122599880Y-98351190D02*
X122676071Y-98275000D01*
X122828452Y-98198809D01*
X123209404Y-98198809D01*
X123361785Y-98275000D01*
X123437976Y-98351190D01*
X123514166Y-98503571D01*
X123514166Y-98655952D01*
X123437976Y-98884523D01*
X122523690Y-99798809D01*
X123514166Y-99798809D01*
X119552261Y-101891666D02*
X120314166Y-101891666D01*
X119399880Y-102348809D02*
X119933214Y-100748809D01*
X120466547Y-102348809D01*
X120771309Y-100748809D02*
X121304642Y-102348809D01*
X121837976Y-100748809D01*
X123285595Y-102196428D02*
X123209404Y-102272619D01*
X122980833Y-102348809D01*
X122828452Y-102348809D01*
X122599880Y-102272619D01*
X122447500Y-102120238D01*
X122371309Y-101967857D01*
X122295119Y-101663095D01*
X122295119Y-101434523D01*
X122371309Y-101129761D01*
X122447500Y-100977380D01*
X122599880Y-100825000D01*
X122828452Y-100748809D01*
X122980833Y-100748809D01*
X123209404Y-100825000D01*
X123285595Y-100901190D01*
X124885595Y-102196428D02*
X124809404Y-102272619D01*
X124580833Y-102348809D01*
X124428452Y-102348809D01*
X124199880Y-102272619D01*
X124047500Y-102120238D01*
X123971309Y-101967857D01*
X123895119Y-101663095D01*
X123895119Y-101434523D01*
X123971309Y-101129761D01*
X124047500Y-100977380D01*
X124199880Y-100825000D01*
X124428452Y-100748809D01*
X124580833Y-100748809D01*
X124809404Y-100825000D01*
X124885595Y-100901190D01*
X119628452Y-104898809D02*
X119628452Y-103298809D01*
X120237976Y-103298809D01*
X120390357Y-103375000D01*
X120466547Y-103451190D01*
X120542738Y-103603571D01*
X120542738Y-103832142D01*
X120466547Y-103984523D01*
X120390357Y-104060714D01*
X120237976Y-104136904D01*
X119628452Y-104136904D01*
X121761785Y-104060714D02*
X121990357Y-104136904D01*
X122066547Y-104213095D01*
X122142738Y-104365476D01*
X122142738Y-104594047D01*
X122066547Y-104746428D01*
X121990357Y-104822619D01*
X121837976Y-104898809D01*
X121228452Y-104898809D01*
X121228452Y-103298809D01*
X121761785Y-103298809D01*
X121914166Y-103375000D01*
X121990357Y-103451190D01*
X122066547Y-103603571D01*
X122066547Y-103755952D01*
X121990357Y-103908333D01*
X121914166Y-103984523D01*
X121761785Y-104060714D01*
X121228452Y-104060714D01*
X123590357Y-103298809D02*
X122828452Y-103298809D01*
X122752261Y-104060714D01*
X122828452Y-103984523D01*
X122980833Y-103908333D01*
X123361785Y-103908333D01*
X123514166Y-103984523D01*
X123590357Y-104060714D01*
X123666547Y-104213095D01*
X123666547Y-104594047D01*
X123590357Y-104746428D01*
X123514166Y-104822619D01*
X123361785Y-104898809D01*
X122980833Y-104898809D01*
X122828452Y-104822619D01*
X122752261Y-104746428D01*
X80859642Y-89098809D02*
X80859642Y-87498809D01*
X81469166Y-87498809D01*
X81621547Y-87575000D01*
X81697738Y-87651190D01*
X81773928Y-87803571D01*
X81773928Y-88032142D01*
X81697738Y-88184523D01*
X81621547Y-88260714D01*
X81469166Y-88336904D01*
X80859642Y-88336904D01*
X82459642Y-89098809D02*
X82459642Y-87498809D01*
X82840595Y-87498809D01*
X83069166Y-87575000D01*
X83221547Y-87727380D01*
X83297738Y-87879761D01*
X83373928Y-88184523D01*
X83373928Y-88413095D01*
X83297738Y-88717857D01*
X83221547Y-88870238D01*
X83069166Y-89022619D01*
X82840595Y-89098809D01*
X82459642Y-89098809D01*
X83907261Y-87498809D02*
X84897738Y-87498809D01*
X84364404Y-88108333D01*
X84592976Y-88108333D01*
X84745357Y-88184523D01*
X84821547Y-88260714D01*
X84897738Y-88413095D01*
X84897738Y-88794047D01*
X84821547Y-88946428D01*
X84745357Y-89022619D01*
X84592976Y-89098809D01*
X84135833Y-89098809D01*
X83983452Y-89022619D01*
X83907261Y-88946428D01*
X80859642Y-91648809D02*
X80859642Y-90048809D01*
X81469166Y-90048809D01*
X81621547Y-90125000D01*
X81697738Y-90201190D01*
X81773928Y-90353571D01*
X81773928Y-90582142D01*
X81697738Y-90734523D01*
X81621547Y-90810714D01*
X81469166Y-90886904D01*
X80859642Y-90886904D01*
X82459642Y-91648809D02*
X82459642Y-90048809D01*
X82840595Y-90048809D01*
X83069166Y-90125000D01*
X83221547Y-90277380D01*
X83297738Y-90429761D01*
X83373928Y-90734523D01*
X83373928Y-90963095D01*
X83297738Y-91267857D01*
X83221547Y-91420238D01*
X83069166Y-91572619D01*
X82840595Y-91648809D01*
X82459642Y-91648809D01*
X84745357Y-90582142D02*
X84745357Y-91648809D01*
X84364404Y-89972619D02*
X83983452Y-91115476D01*
X84973928Y-91115476D01*
X81012023Y-94198809D02*
X81012023Y-92598809D01*
X81621547Y-92598809D01*
X81773928Y-92675000D01*
X81850119Y-92751190D01*
X81926309Y-92903571D01*
X81926309Y-93132142D01*
X81850119Y-93284523D01*
X81773928Y-93360714D01*
X81621547Y-93436904D01*
X81012023Y-93436904D01*
X82612023Y-93360714D02*
X83145357Y-93360714D01*
X83373928Y-94198809D02*
X82612023Y-94198809D01*
X82612023Y-92598809D01*
X83373928Y-92598809D01*
X84364404Y-92598809D02*
X84516785Y-92598809D01*
X84669166Y-92675000D01*
X84745357Y-92751190D01*
X84821547Y-92903571D01*
X84897738Y-93208333D01*
X84897738Y-93589285D01*
X84821547Y-93894047D01*
X84745357Y-94046428D01*
X84669166Y-94122619D01*
X84516785Y-94198809D01*
X84364404Y-94198809D01*
X84212023Y-94122619D01*
X84135833Y-94046428D01*
X84059642Y-93894047D01*
X83983452Y-93589285D01*
X83983452Y-93208333D01*
X84059642Y-92903571D01*
X84135833Y-92751190D01*
X84212023Y-92675000D01*
X84364404Y-92598809D01*
X80783452Y-95148809D02*
X81316785Y-96748809D01*
X81850119Y-95148809D01*
X83297738Y-96596428D02*
X83221547Y-96672619D01*
X82992976Y-96748809D01*
X82840595Y-96748809D01*
X82612023Y-96672619D01*
X82459642Y-96520238D01*
X82383452Y-96367857D01*
X82307261Y-96063095D01*
X82307261Y-95834523D01*
X82383452Y-95529761D01*
X82459642Y-95377380D01*
X82612023Y-95225000D01*
X82840595Y-95148809D01*
X82992976Y-95148809D01*
X83221547Y-95225000D01*
X83297738Y-95301190D01*
X84897738Y-96596428D02*
X84821547Y-96672619D01*
X84592976Y-96748809D01*
X84440595Y-96748809D01*
X84212023Y-96672619D01*
X84059642Y-96520238D01*
X83983452Y-96367857D01*
X83907261Y-96063095D01*
X83907261Y-95834523D01*
X83983452Y-95529761D01*
X84059642Y-95377380D01*
X84212023Y-95225000D01*
X84440595Y-95148809D01*
X84592976Y-95148809D01*
X84821547Y-95225000D01*
X84897738Y-95301190D01*
X81545357Y-97775000D02*
X81392976Y-97698809D01*
X81164404Y-97698809D01*
X80935833Y-97775000D01*
X80783452Y-97927380D01*
X80707261Y-98079761D01*
X80631071Y-98384523D01*
X80631071Y-98613095D01*
X80707261Y-98917857D01*
X80783452Y-99070238D01*
X80935833Y-99222619D01*
X81164404Y-99298809D01*
X81316785Y-99298809D01*
X81545357Y-99222619D01*
X81621547Y-99146428D01*
X81621547Y-98613095D01*
X81316785Y-98613095D01*
X82307261Y-99298809D02*
X82307261Y-97698809D01*
X83221547Y-99298809D01*
X83221547Y-97698809D01*
X83983452Y-99298809D02*
X83983452Y-97698809D01*
X84364404Y-97698809D01*
X84592976Y-97775000D01*
X84745357Y-97927380D01*
X84821547Y-98079761D01*
X84897738Y-98384523D01*
X84897738Y-98613095D01*
X84821547Y-98917857D01*
X84745357Y-99070238D01*
X84592976Y-99222619D01*
X84364404Y-99298809D01*
X83983452Y-99298809D01*
X81012023Y-101848809D02*
X81012023Y-100248809D01*
X81621547Y-100248809D01*
X81773928Y-100325000D01*
X81850119Y-100401190D01*
X81926309Y-100553571D01*
X81926309Y-100782142D01*
X81850119Y-100934523D01*
X81773928Y-101010714D01*
X81621547Y-101086904D01*
X81012023Y-101086904D01*
X82612023Y-101010714D02*
X83145357Y-101010714D01*
X83373928Y-101848809D02*
X82612023Y-101848809D01*
X82612023Y-100248809D01*
X83373928Y-100248809D01*
X84897738Y-101848809D02*
X83983452Y-101848809D01*
X84440595Y-101848809D02*
X84440595Y-100248809D01*
X84288214Y-100477380D01*
X84135833Y-100629761D01*
X83983452Y-100705952D01*
X73339404Y-97950000D02*
X73244166Y-97902380D01*
X73101309Y-97902380D01*
X72958452Y-97950000D01*
X72863214Y-98045238D01*
X72815595Y-98140476D01*
X72767976Y-98330952D01*
X72767976Y-98473809D01*
X72815595Y-98664285D01*
X72863214Y-98759523D01*
X72958452Y-98854761D01*
X73101309Y-98902380D01*
X73196547Y-98902380D01*
X73339404Y-98854761D01*
X73387023Y-98807142D01*
X73387023Y-98473809D01*
X73196547Y-98473809D01*
X73815595Y-98902380D02*
X73815595Y-97902380D01*
X74387023Y-98902380D01*
X74387023Y-97902380D01*
X74863214Y-98902380D02*
X74863214Y-97902380D01*
X75101309Y-97902380D01*
X75244166Y-97950000D01*
X75339404Y-98045238D01*
X75387023Y-98140476D01*
X75434642Y-98330952D01*
X75434642Y-98473809D01*
X75387023Y-98664285D01*
X75339404Y-98759523D01*
X75244166Y-98854761D01*
X75101309Y-98902380D01*
X74863214Y-98902380D01*
X128645380Y-65934380D02*
X128645380Y-64934380D01*
X128883476Y-64934380D01*
X129026333Y-64982000D01*
X129121571Y-65077238D01*
X129169190Y-65172476D01*
X129216809Y-65362952D01*
X129216809Y-65505809D01*
X129169190Y-65696285D01*
X129121571Y-65791523D01*
X129026333Y-65886761D01*
X128883476Y-65934380D01*
X128645380Y-65934380D01*
X130216809Y-65839142D02*
X130169190Y-65886761D01*
X130026333Y-65934380D01*
X129931095Y-65934380D01*
X129788238Y-65886761D01*
X129693000Y-65791523D01*
X129645380Y-65696285D01*
X129597761Y-65505809D01*
X129597761Y-65362952D01*
X129645380Y-65172476D01*
X129693000Y-65077238D01*
X129788238Y-64982000D01*
X129931095Y-64934380D01*
X130026333Y-64934380D01*
X130169190Y-64982000D01*
X130216809Y-65029619D01*
X131216809Y-65839142D02*
X131169190Y-65886761D01*
X131026333Y-65934380D01*
X130931095Y-65934380D01*
X130788238Y-65886761D01*
X130693000Y-65791523D01*
X130645380Y-65696285D01*
X130597761Y-65505809D01*
X130597761Y-65362952D01*
X130645380Y-65172476D01*
X130693000Y-65077238D01*
X130788238Y-64982000D01*
X130931095Y-64934380D01*
X131026333Y-64934380D01*
X131169190Y-64982000D01*
X131216809Y-65029619D01*
X131645380Y-65553428D02*
X132407285Y-65553428D01*
X132026333Y-65934380D02*
X132026333Y-65172476D01*
X132883476Y-65553428D02*
X133645380Y-65553428D01*
X133264428Y-65934380D02*
X133264428Y-65172476D01*
X135216809Y-65410571D02*
X135359666Y-65458190D01*
X135407285Y-65505809D01*
X135454904Y-65601047D01*
X135454904Y-65743904D01*
X135407285Y-65839142D01*
X135359666Y-65886761D01*
X135264428Y-65934380D01*
X134883476Y-65934380D01*
X134883476Y-64934380D01*
X135216809Y-64934380D01*
X135312047Y-64982000D01*
X135359666Y-65029619D01*
X135407285Y-65124857D01*
X135407285Y-65220095D01*
X135359666Y-65315333D01*
X135312047Y-65362952D01*
X135216809Y-65410571D01*
X134883476Y-65410571D01*
X136026333Y-65934380D02*
X135931095Y-65886761D01*
X135883476Y-65839142D01*
X135835857Y-65743904D01*
X135835857Y-65458190D01*
X135883476Y-65362952D01*
X135931095Y-65315333D01*
X136026333Y-65267714D01*
X136169190Y-65267714D01*
X136264428Y-65315333D01*
X136312047Y-65362952D01*
X136359666Y-65458190D01*
X136359666Y-65743904D01*
X136312047Y-65839142D01*
X136264428Y-65886761D01*
X136169190Y-65934380D01*
X136026333Y-65934380D01*
X137216809Y-65934380D02*
X137216809Y-65410571D01*
X137169190Y-65315333D01*
X137073952Y-65267714D01*
X136883476Y-65267714D01*
X136788238Y-65315333D01*
X137216809Y-65886761D02*
X137121571Y-65934380D01*
X136883476Y-65934380D01*
X136788238Y-65886761D01*
X136740619Y-65791523D01*
X136740619Y-65696285D01*
X136788238Y-65601047D01*
X136883476Y-65553428D01*
X137121571Y-65553428D01*
X137216809Y-65505809D01*
X137693000Y-65934380D02*
X137693000Y-65267714D01*
X137693000Y-65458190D02*
X137740619Y-65362952D01*
X137788238Y-65315333D01*
X137883476Y-65267714D01*
X137978714Y-65267714D01*
X138740619Y-65934380D02*
X138740619Y-64934380D01*
X138740619Y-65886761D02*
X138645380Y-65934380D01*
X138454904Y-65934380D01*
X138359666Y-65886761D01*
X138312047Y-65839142D01*
X138264428Y-65743904D01*
X138264428Y-65458190D01*
X138312047Y-65362952D01*
X138359666Y-65315333D01*
X138454904Y-65267714D01*
X138645380Y-65267714D01*
X138740619Y-65315333D01*
X131097761Y-66917714D02*
X131335857Y-67584380D01*
X131573952Y-66917714D01*
X132145380Y-66584380D02*
X132240619Y-66584380D01*
X132335857Y-66632000D01*
X132383476Y-66679619D01*
X132431095Y-66774857D01*
X132478714Y-66965333D01*
X132478714Y-67203428D01*
X132431095Y-67393904D01*
X132383476Y-67489142D01*
X132335857Y-67536761D01*
X132240619Y-67584380D01*
X132145380Y-67584380D01*
X132050142Y-67536761D01*
X132002523Y-67489142D01*
X131954904Y-67393904D01*
X131907285Y-67203428D01*
X131907285Y-66965333D01*
X131954904Y-66774857D01*
X132002523Y-66679619D01*
X132050142Y-66632000D01*
X132145380Y-66584380D01*
X132907285Y-67489142D02*
X132954904Y-67536761D01*
X132907285Y-67584380D01*
X132859666Y-67536761D01*
X132907285Y-67489142D01*
X132907285Y-67584380D01*
X133573952Y-66584380D02*
X133669190Y-66584380D01*
X133764428Y-66632000D01*
X133812047Y-66679619D01*
X133859666Y-66774857D01*
X133907285Y-66965333D01*
X133907285Y-67203428D01*
X133859666Y-67393904D01*
X133812047Y-67489142D01*
X133764428Y-67536761D01*
X133669190Y-67584380D01*
X133573952Y-67584380D01*
X133478714Y-67536761D01*
X133431095Y-67489142D01*
X133383476Y-67393904D01*
X133335857Y-67203428D01*
X133335857Y-66965333D01*
X133383476Y-66774857D01*
X133431095Y-66679619D01*
X133478714Y-66632000D01*
X133573952Y-66584380D01*
X134335857Y-67489142D02*
X134383476Y-67536761D01*
X134335857Y-67584380D01*
X134288238Y-67536761D01*
X134335857Y-67489142D01*
X134335857Y-67584380D01*
X134764428Y-66679619D02*
X134812047Y-66632000D01*
X134907285Y-66584380D01*
X135145380Y-66584380D01*
X135240619Y-66632000D01*
X135288238Y-66679619D01*
X135335857Y-66774857D01*
X135335857Y-66870095D01*
X135288238Y-67012952D01*
X134716809Y-67584380D01*
X135335857Y-67584380D01*
X136193000Y-67584380D02*
X136193000Y-67060571D01*
X136145380Y-66965333D01*
X136050142Y-66917714D01*
X135859666Y-66917714D01*
X135764428Y-66965333D01*
X136193000Y-67536761D02*
X136097761Y-67584380D01*
X135859666Y-67584380D01*
X135764428Y-67536761D01*
X135716809Y-67441523D01*
X135716809Y-67346285D01*
X135764428Y-67251047D01*
X135859666Y-67203428D01*
X136097761Y-67203428D01*
X136193000Y-67155809D01*
X143951609Y-129979980D02*
X143951609Y-128979980D01*
X144332561Y-128979980D01*
X144427800Y-129027600D01*
X144475419Y-129075219D01*
X144523038Y-129170457D01*
X144523038Y-129313314D01*
X144475419Y-129408552D01*
X144427800Y-129456171D01*
X144332561Y-129503790D01*
X143951609Y-129503790D01*
X144951609Y-129979980D02*
X144951609Y-129313314D01*
X144951609Y-129503790D02*
X144999228Y-129408552D01*
X145046847Y-129360933D01*
X145142085Y-129313314D01*
X145237323Y-129313314D01*
X145713514Y-129979980D02*
X145618276Y-129932361D01*
X145570657Y-129884742D01*
X145523038Y-129789504D01*
X145523038Y-129503790D01*
X145570657Y-129408552D01*
X145618276Y-129360933D01*
X145713514Y-129313314D01*
X145856371Y-129313314D01*
X145951609Y-129360933D01*
X145999228Y-129408552D01*
X146046847Y-129503790D01*
X146046847Y-129789504D01*
X145999228Y-129884742D01*
X145951609Y-129932361D01*
X145856371Y-129979980D01*
X145713514Y-129979980D01*
X146903990Y-129313314D02*
X146903990Y-130122838D01*
X146856371Y-130218076D01*
X146808752Y-130265695D01*
X146713514Y-130313314D01*
X146570657Y-130313314D01*
X146475419Y-130265695D01*
X146903990Y-129932361D02*
X146808752Y-129979980D01*
X146618276Y-129979980D01*
X146523038Y-129932361D01*
X146475419Y-129884742D01*
X146427800Y-129789504D01*
X146427800Y-129503790D01*
X146475419Y-129408552D01*
X146523038Y-129360933D01*
X146618276Y-129313314D01*
X146808752Y-129313314D01*
X146903990Y-129360933D01*
X144231009Y-116797380D02*
X144231009Y-115797380D01*
X144564342Y-116511666D01*
X144897676Y-115797380D01*
X144897676Y-116797380D01*
X145802438Y-116797380D02*
X145802438Y-116273571D01*
X145754819Y-116178333D01*
X145659580Y-116130714D01*
X145469104Y-116130714D01*
X145373866Y-116178333D01*
X145802438Y-116749761D02*
X145707200Y-116797380D01*
X145469104Y-116797380D01*
X145373866Y-116749761D01*
X145326247Y-116654523D01*
X145326247Y-116559285D01*
X145373866Y-116464047D01*
X145469104Y-116416428D01*
X145707200Y-116416428D01*
X145802438Y-116368809D01*
X146278628Y-116797380D02*
X146278628Y-116130714D01*
X146278628Y-115797380D02*
X146231009Y-115845000D01*
X146278628Y-115892619D01*
X146326247Y-115845000D01*
X146278628Y-115797380D01*
X146278628Y-115892619D01*
X146754819Y-116130714D02*
X146754819Y-116797380D01*
X146754819Y-116225952D02*
X146802438Y-116178333D01*
X146897676Y-116130714D01*
X147040533Y-116130714D01*
X147135771Y-116178333D01*
X147183390Y-116273571D01*
X147183390Y-116797380D01*
X81686666Y-65870380D02*
X81686666Y-64870380D01*
X82067619Y-64870380D01*
X82162857Y-64918000D01*
X82210476Y-64965619D01*
X82258095Y-65060857D01*
X82258095Y-65203714D01*
X82210476Y-65298952D01*
X82162857Y-65346571D01*
X82067619Y-65394190D01*
X81686666Y-65394190D01*
X82591428Y-64870380D02*
X82829523Y-65870380D01*
X83020000Y-65156095D01*
X83210476Y-65870380D01*
X83448571Y-64870380D01*
X84400952Y-65870380D02*
X84067619Y-65394190D01*
X83829523Y-65870380D02*
X83829523Y-64870380D01*
X84210476Y-64870380D01*
X84305714Y-64918000D01*
X84353333Y-64965619D01*
X84400952Y-65060857D01*
X84400952Y-65203714D01*
X84353333Y-65298952D01*
X84305714Y-65346571D01*
X84210476Y-65394190D01*
X83829523Y-65394190D01*
X69812095Y-64870380D02*
X70383523Y-64870380D01*
X70097809Y-65870380D02*
X70097809Y-64870380D01*
X70621619Y-64870380D02*
X71288285Y-65870380D01*
X71288285Y-64870380D02*
X70621619Y-65870380D01*
X63549333Y-65870380D02*
X63216000Y-65394190D01*
X62977904Y-65870380D02*
X62977904Y-64870380D01*
X63358857Y-64870380D01*
X63454095Y-64918000D01*
X63501714Y-64965619D01*
X63549333Y-65060857D01*
X63549333Y-65203714D01*
X63501714Y-65298952D01*
X63454095Y-65346571D01*
X63358857Y-65394190D01*
X62977904Y-65394190D01*
X63882666Y-64870380D02*
X64549333Y-65870380D01*
X64549333Y-64870380D02*
X63882666Y-65870380D01*
D11*
X55000000Y-150000000D02*
X145000000Y-150000000D01*
X50000000Y-67000000D02*
X50000000Y-145000000D01*
X145000000Y-62000000D02*
X55000000Y-62000000D01*
X150000000Y-145000000D02*
X150000000Y-67000000D01*
X150000000Y-145000000D02*
G75*
G02*
X145000000Y-150000000I-5000000J0D01*
G01*
X145000000Y-62000000D02*
G75*
G02*
X150000000Y-67000000I0J-5000000D01*
G01*
X50000000Y-67000000D02*
G75*
G02*
X55000000Y-62000000I5000000J0D01*
G01*
X55000000Y-150000000D02*
G75*
G02*
X50000000Y-145000000I0J5000000D01*
G01*
D12*
X94650000Y-79650000D02*
X94650000Y-77650000D01*
X97450000Y-79650000D02*
X94650000Y-79650000D01*
X97450000Y-77650000D02*
X97450000Y-79650000D01*
X94650000Y-77650000D02*
X97450000Y-77650000D01*
X92335000Y-75852064D02*
X92335000Y-74647936D01*
X90515000Y-75852064D02*
X90515000Y-74647936D01*
X128170000Y-76885000D02*
X133370000Y-76885000D01*
X128170000Y-71745000D02*
X128170000Y-76885000D01*
X133370000Y-69145000D02*
X133370000Y-76885000D01*
X128170000Y-71745000D02*
X130770000Y-71745000D01*
X130770000Y-71745000D02*
X130770000Y-69145000D01*
X130770000Y-69145000D02*
X133370000Y-69145000D01*
X128170000Y-70475000D02*
X128170000Y-69145000D01*
X128170000Y-69145000D02*
X129500000Y-69145000D01*
X135445000Y-81525000D02*
X135445000Y-97305000D01*
X135445000Y-97305000D02*
X126095000Y-97305000D01*
X126095000Y-97305000D02*
X126095000Y-81525000D01*
X126095000Y-81525000D02*
X135445000Y-81525000D01*
X125845000Y-81275000D02*
X125845000Y-83815000D01*
X125845000Y-81275000D02*
X128385000Y-81275000D01*
X143985000Y-85397936D02*
X143985000Y-86602064D01*
X142165000Y-85397936D02*
X142165000Y-86602064D01*
X144010000Y-79472936D02*
X144010000Y-80677064D01*
X142190000Y-79472936D02*
X142190000Y-80677064D01*
X133540000Y-114260000D02*
X139510000Y-114260000D01*
X139510000Y-114260000D02*
X139510000Y-101640000D01*
X139510000Y-101640000D02*
X133540000Y-101640000D01*
X133540000Y-101640000D02*
X133540000Y-114260000D01*
X133550000Y-110950000D02*
X134300000Y-110950000D01*
X134300000Y-110950000D02*
X134300000Y-104950000D01*
X134300000Y-104950000D02*
X133550000Y-104950000D01*
X133550000Y-104950000D02*
X133550000Y-110950000D01*
X133550000Y-114250000D02*
X134300000Y-114250000D01*
X134300000Y-114250000D02*
X134300000Y-112450000D01*
X134300000Y-112450000D02*
X133550000Y-112450000D01*
X133550000Y-112450000D02*
X133550000Y-114250000D01*
X133550000Y-103450000D02*
X134300000Y-103450000D01*
X134300000Y-103450000D02*
X134300000Y-101650000D01*
X134300000Y-101650000D02*
X133550000Y-101650000D01*
X133550000Y-101650000D02*
X133550000Y-103450000D01*
X135800000Y-114250000D02*
X135800000Y-113500000D01*
X135800000Y-113500000D02*
X138750000Y-113500000D01*
X138750000Y-113500000D02*
X138750000Y-107950000D01*
X135800000Y-101650000D02*
X135800000Y-102400000D01*
X135800000Y-102400000D02*
X138750000Y-102400000D01*
X138750000Y-102400000D02*
X138750000Y-107950000D01*
X133250000Y-113300000D02*
X133250000Y-114550000D01*
X133250000Y-114550000D02*
X134500000Y-114550000D01*
X142925000Y-114400000D02*
X142925000Y-107100000D01*
X148425000Y-114400000D02*
X148425000Y-107100000D01*
X148425000Y-107100000D02*
X147275000Y-107100000D01*
X142775000Y-105475000D02*
X142775000Y-98175000D01*
X148275000Y-105475000D02*
X148275000Y-98175000D01*
X148275000Y-98175000D02*
X147125000Y-98175000D01*
X142700000Y-96600000D02*
X142700000Y-89300000D01*
X148200000Y-96600000D02*
X148200000Y-89300000D01*
X148200000Y-89300000D02*
X147050000Y-89300000D01*
X148215000Y-87670000D02*
X148215000Y-83610000D01*
X148215000Y-83610000D02*
X145945000Y-83610000D01*
X145945000Y-83610000D02*
X145945000Y-87670000D01*
X148210000Y-81725000D02*
X148210000Y-77665000D01*
X148210000Y-77665000D02*
X145940000Y-77665000D01*
X145940000Y-77665000D02*
X145940000Y-81725000D01*
X65067064Y-101410000D02*
X63862936Y-101410000D01*
X65067064Y-103230000D02*
X63862936Y-103230000D01*
X66880000Y-104525000D02*
X62820000Y-104525000D01*
X66880000Y-106795000D02*
X66880000Y-104525000D01*
X62820000Y-106795000D02*
X66880000Y-106795000D01*
X82352936Y-72130000D02*
X83557064Y-72130000D01*
X82352936Y-70310000D02*
X83557064Y-70310000D01*
X70120000Y-105200000D02*
X70120000Y-103870000D01*
X71450000Y-105200000D02*
X70120000Y-105200000D01*
X70120000Y-102600000D02*
X70120000Y-100000000D01*
X72720000Y-102600000D02*
X70120000Y-102600000D01*
X72720000Y-105200000D02*
X72720000Y-102600000D01*
X70120000Y-100000000D02*
X77860000Y-100000000D01*
X72720000Y-105200000D02*
X77860000Y-105200000D01*
X77860000Y-105200000D02*
X77860000Y-100000000D01*
X80540000Y-69015000D02*
X84600000Y-69015000D01*
X80540000Y-66745000D02*
X80540000Y-69015000D01*
X84600000Y-66745000D02*
X80540000Y-66745000D01*
D10*
X57240000Y-99200000D02*
X57240000Y-100200000D01*
X57240000Y-95600000D02*
X57240000Y-94600000D01*
X57665000Y-95600000D02*
X57240000Y-95600000D01*
X57665000Y-96325000D02*
X57665000Y-95600000D01*
X54090000Y-101550000D02*
X55490000Y-101550000D01*
X51540000Y-101550000D02*
X51690000Y-101550000D01*
X51540000Y-101250000D02*
X51540000Y-101550000D01*
X51090000Y-101250000D02*
X51540000Y-101250000D01*
X51540000Y-93550000D02*
X51090000Y-93550000D01*
X51540000Y-93250000D02*
X51540000Y-93550000D01*
X51690000Y-93250000D02*
X51540000Y-93250000D01*
X55490000Y-93250000D02*
X54090000Y-93250000D01*
D12*
X55942500Y-105100000D02*
X55492500Y-105100000D01*
X55942500Y-105100000D02*
X55942500Y-105550000D01*
X55392500Y-110700000D02*
X55392500Y-110250000D01*
X53542500Y-110700000D02*
X55392500Y-110700000D01*
X50992500Y-102900000D02*
X51242500Y-102900000D01*
X50992500Y-110700000D02*
X51242500Y-110700000D01*
X53542500Y-102900000D02*
X55392500Y-102900000D01*
X55392500Y-102900000D02*
X55392500Y-103350000D01*
X134500000Y-139146000D02*
X130600000Y-139146000D01*
X134500000Y-136946000D02*
X130600000Y-136946000D01*
X134500000Y-139146000D02*
X134500000Y-136946000D01*
X126675000Y-123620000D02*
X122775000Y-123620000D01*
X126675000Y-121420000D02*
X122775000Y-121420000D01*
X126675000Y-123620000D02*
X126675000Y-121420000D01*
X134350000Y-123625000D02*
X130450000Y-123625000D01*
X134350000Y-121425000D02*
X130450000Y-121425000D01*
X134350000Y-123625000D02*
X134350000Y-121425000D01*
X126400000Y-130550000D02*
X122500000Y-130550000D01*
X126400000Y-128350000D02*
X122500000Y-128350000D01*
X126400000Y-130550000D02*
X126400000Y-128350000D01*
X134625000Y-130475000D02*
X130725000Y-130475000D01*
X134625000Y-128275000D02*
X130725000Y-128275000D01*
X134625000Y-130475000D02*
X134625000Y-128275000D01*
X126400000Y-144700000D02*
X122500000Y-144700000D01*
X126400000Y-142500000D02*
X122500000Y-142500000D01*
X126400000Y-144700000D02*
X126400000Y-142500000D01*
X134600000Y-144700000D02*
X130700000Y-144700000D01*
X134600000Y-142500000D02*
X130700000Y-142500000D01*
X134600000Y-144700000D02*
X134600000Y-142500000D01*
X126450000Y-139150000D02*
X122550000Y-139150000D01*
X126450000Y-136950000D02*
X122550000Y-136950000D01*
X126450000Y-139150000D02*
X126450000Y-136950000D01*
X99390000Y-75689564D02*
X99390000Y-74485436D01*
X101210000Y-75689564D02*
X101210000Y-74485436D01*
X107860000Y-76605000D02*
X107860000Y-75675000D01*
X107860000Y-73445000D02*
X107860000Y-74375000D01*
X107860000Y-73445000D02*
X105700000Y-73445000D01*
X107860000Y-76605000D02*
X106400000Y-76605000D01*
X96535000Y-76280000D02*
X96535000Y-75350000D01*
X96535000Y-73120000D02*
X96535000Y-74050000D01*
X96535000Y-73120000D02*
X94375000Y-73120000D01*
X96535000Y-76280000D02*
X95075000Y-76280000D01*
X86994064Y-85543000D02*
X85789936Y-85543000D01*
X86994064Y-83723000D02*
X85789936Y-83723000D01*
X116060000Y-105370000D02*
X118720000Y-105370000D01*
X116060000Y-87530000D02*
X116060000Y-105370000D01*
X118720000Y-87530000D02*
X118720000Y-105370000D01*
X116060000Y-87530000D02*
X118720000Y-87530000D01*
X116060000Y-86260000D02*
X116060000Y-84930000D01*
X116060000Y-84930000D02*
X117390000Y-84930000D01*
X93200000Y-105250000D02*
X93200000Y-107910000D01*
X111040000Y-105250000D02*
X93200000Y-105250000D01*
X111040000Y-107910000D02*
X93200000Y-107910000D01*
X111040000Y-105250000D02*
X111040000Y-107910000D01*
X112310000Y-105250000D02*
X113640000Y-105250000D01*
X113640000Y-105250000D02*
X113640000Y-106580000D01*
X89078200Y-87216000D02*
X86418200Y-87216000D01*
X89078200Y-99976000D02*
X89078200Y-87216000D01*
X86418200Y-99976000D02*
X86418200Y-87216000D01*
X89078200Y-99976000D02*
X86418200Y-99976000D01*
X89078200Y-101246000D02*
X89078200Y-102576000D01*
X89078200Y-102576000D02*
X87748200Y-102576000D01*
X93200000Y-82390000D02*
X93200000Y-85050000D01*
X111040000Y-82390000D02*
X93200000Y-82390000D01*
X111040000Y-85050000D02*
X93200000Y-85050000D01*
X111040000Y-82390000D02*
X111040000Y-85050000D01*
X112310000Y-82390000D02*
X113640000Y-82390000D01*
X113640000Y-82390000D02*
X113640000Y-83720000D01*
X101354000Y-128209600D02*
G75*
G03*
X101354000Y-128209600I-300000J0D01*
G01*
X102625600Y-126279200D02*
G75*
G03*
X102625600Y-126279200I-200000J0D01*
G01*
X101836000Y-129124000D02*
X101836000Y-125674000D01*
X101836000Y-129124000D02*
X101836000Y-131074000D01*
X96716000Y-129124000D02*
X96716000Y-127174000D01*
X96716000Y-129124000D02*
X96716000Y-131074000D01*
X68843600Y-129022400D02*
G75*
G03*
X68843600Y-129022400I-200000J0D01*
G01*
X70496385Y-127346000D02*
G75*
G03*
X70496385Y-127346000I-227185J0D01*
G01*
X69675000Y-130140000D02*
X69675000Y-126690000D01*
X69675000Y-130140000D02*
X69675000Y-132090000D01*
X60805000Y-130140000D02*
X60805000Y-128190000D01*
X60805000Y-130140000D02*
X60805000Y-132090000D01*
X91908800Y-124412000D02*
X93026400Y-125529600D01*
X92361288Y-125783600D02*
G75*
G03*
X92361288Y-125783600I-683444J0D01*
G01*
X91905600Y-123243600D02*
G75*
G03*
X91905600Y-123243600I-200000J0D01*
G01*
X93050000Y-135600000D02*
X93050000Y-124400000D01*
X91300000Y-124400000D02*
X91300000Y-122400000D01*
X93050000Y-124400000D02*
X91300000Y-124400000D01*
X76950000Y-124400000D02*
X78700000Y-124400000D01*
X76950000Y-135600000D02*
X76950000Y-124400000D01*
X76950000Y-135600000D02*
X78700000Y-135600000D01*
X93050000Y-135600000D02*
X91300000Y-135600000D01*
X97295400Y-90806600D02*
G75*
G03*
X97295400Y-90806600I-200000J0D01*
G01*
X99409035Y-92330600D02*
G75*
G03*
X99409035Y-92330600I-434035J0D01*
G01*
D10*
X97788400Y-91245600D02*
X97788400Y-91470600D01*
X105038400Y-91245600D02*
X105038400Y-91570600D01*
X105038400Y-98495600D02*
X105038400Y-98170600D01*
X97788400Y-98495600D02*
X97788400Y-98170600D01*
X97788400Y-91245600D02*
X98113400Y-91245600D01*
X97788400Y-98495600D02*
X98113400Y-98495600D01*
X105038400Y-98495600D02*
X104713400Y-98495600D01*
X105038400Y-91245600D02*
X104713400Y-91245600D01*
X97788400Y-91470600D02*
X96363400Y-91470600D01*
D12*
X77189200Y-76396800D02*
G75*
G03*
X77189200Y-76396800I-200000J0D01*
G01*
X76638630Y-77920800D02*
G75*
G03*
X76638630Y-77920800I-259030J0D01*
G01*
D10*
X76341000Y-77065000D02*
X76341000Y-75940000D01*
X68501000Y-77065000D02*
X68501000Y-81215000D01*
X77451000Y-77065000D02*
X77451000Y-81215000D01*
X68501000Y-77065000D02*
X69611000Y-77065000D01*
X68501000Y-81215000D02*
X69611000Y-81215000D01*
X77451000Y-81215000D02*
X76341000Y-81215000D01*
X76341000Y-77065000D02*
X77451000Y-77065000D01*
D12*
X90150000Y-109175000D02*
X87650000Y-109175000D01*
X90150000Y-105775000D02*
X87650000Y-105775000D01*
X86312210Y-106426039D02*
G75*
G02*
X87650000Y-105775000I1337790J-1048961D01*
G01*
X91487790Y-106426039D02*
G75*
G03*
X90150000Y-105775000I-1337790J-1048961D01*
G01*
X86312210Y-108523961D02*
G75*
G03*
X87650000Y-109175000I1337790J1048961D01*
G01*
X91487790Y-108523961D02*
G75*
G02*
X90150000Y-109175000I-1337790J1048961D01*
G01*
X70133000Y-91901000D02*
X70133000Y-97101000D01*
X75273000Y-91901000D02*
X70133000Y-91901000D01*
X77873000Y-97101000D02*
X70133000Y-97101000D01*
X75273000Y-91901000D02*
X75273000Y-94501000D01*
X75273000Y-94501000D02*
X77873000Y-94501000D01*
X77873000Y-94501000D02*
X77873000Y-97101000D01*
X76543000Y-91901000D02*
X77873000Y-91901000D01*
X77873000Y-91901000D02*
X77873000Y-93231000D01*
X63982500Y-86174000D02*
X59182500Y-86174000D01*
X59182500Y-86174000D02*
X59182500Y-82774000D01*
X59182500Y-82774000D02*
X63982500Y-82774000D01*
X63982500Y-82774000D02*
X63982500Y-86174000D01*
X66870000Y-139595564D02*
X66870000Y-138391436D01*
X68690000Y-139595564D02*
X68690000Y-138391436D01*
X68690000Y-121917936D02*
X68690000Y-123122064D01*
X66870000Y-121917936D02*
X66870000Y-123122064D01*
X58784000Y-129283936D02*
X58784000Y-130488064D01*
X56964000Y-129283936D02*
X56964000Y-130488064D01*
X70468000Y-111249936D02*
X70468000Y-112454064D01*
X68648000Y-111249936D02*
X68648000Y-112454064D01*
X75040000Y-111249936D02*
X75040000Y-112454064D01*
X73220000Y-111249936D02*
X73220000Y-112454064D01*
X72754000Y-111249936D02*
X72754000Y-112454064D01*
X70934000Y-111249936D02*
X70934000Y-112454064D01*
X77284000Y-142135564D02*
X77284000Y-140931436D01*
X79104000Y-142135564D02*
X79104000Y-140931436D01*
X74998000Y-142135564D02*
X74998000Y-140931436D01*
X76818000Y-142135564D02*
X76818000Y-140931436D01*
X81390000Y-140931436D02*
X81390000Y-142135564D01*
X79570000Y-140931436D02*
X79570000Y-142135564D01*
X90291936Y-139898000D02*
X91496064Y-139898000D01*
X90291936Y-141718000D02*
X91496064Y-141718000D01*
X90291936Y-119070000D02*
X91496064Y-119070000D01*
X90291936Y-120890000D02*
X91496064Y-120890000D01*
X101148064Y-122668000D02*
X99943936Y-122668000D01*
X101148064Y-120848000D02*
X99943936Y-120848000D01*
X101148064Y-137146000D02*
X99943936Y-137146000D01*
X101148064Y-135326000D02*
X99943936Y-135326000D01*
X99943936Y-137612000D02*
X101148064Y-137612000D01*
X99943936Y-139432000D02*
X101148064Y-139432000D01*
X99943936Y-118562000D02*
X101148064Y-118562000D01*
X99943936Y-120382000D02*
X101148064Y-120382000D01*
X103446000Y-130742064D02*
X103446000Y-129537936D01*
X105266000Y-130742064D02*
X105266000Y-129537936D01*
X115662564Y-138924000D02*
X114458436Y-138924000D01*
X115662564Y-137104000D02*
X114458436Y-137104000D01*
X115626064Y-144512000D02*
X114421936Y-144512000D01*
X115626064Y-142692000D02*
X114421936Y-142692000D01*
X115626064Y-130542000D02*
X114421936Y-130542000D01*
X115626064Y-128722000D02*
X114421936Y-128722000D01*
X115880064Y-123430000D02*
X114675936Y-123430000D01*
X115880064Y-121610000D02*
X114675936Y-121610000D01*
X111290000Y-136879000D02*
X107230000Y-136879000D01*
X107230000Y-136879000D02*
X107230000Y-139149000D01*
X107230000Y-139149000D02*
X111290000Y-139149000D01*
X111290000Y-142467000D02*
X107230000Y-142467000D01*
X107230000Y-142467000D02*
X107230000Y-144737000D01*
X107230000Y-144737000D02*
X111290000Y-144737000D01*
X111290000Y-128497000D02*
X107230000Y-128497000D01*
X107230000Y-128497000D02*
X107230000Y-130767000D01*
X107230000Y-130767000D02*
X111290000Y-130767000D01*
X111290000Y-121385000D02*
X107230000Y-121385000D01*
X107230000Y-121385000D02*
X107230000Y-123655000D01*
X107230000Y-123655000D02*
X111290000Y-123655000D01*
X53621000Y-84103000D02*
X55171000Y-84103000D01*
X53621000Y-84103000D02*
X53621000Y-84403000D01*
X50821000Y-84403000D02*
X53621000Y-84403000D01*
X53621000Y-92403000D02*
X55171000Y-92403000D01*
X53621000Y-92103000D02*
X53621000Y-92403000D01*
X50821000Y-92103000D02*
X53621000Y-92103000D01*
X56871000Y-87353000D02*
X56421000Y-86953000D01*
X56871000Y-86553000D02*
X56871000Y-87353000D01*
X56421000Y-86953000D02*
X56871000Y-86553000D01*
X65060000Y-113100000D02*
X65060000Y-112050000D01*
X64010000Y-112050000D02*
X65060000Y-112050000D01*
X58960000Y-121450000D02*
X50160000Y-121450000D01*
X50160000Y-121450000D02*
X50160000Y-112250000D01*
X64860000Y-118750000D02*
X64860000Y-121450000D01*
X64860000Y-121450000D02*
X62960000Y-121450000D01*
X50160000Y-112250000D02*
X64860000Y-112250000D01*
X64860000Y-112250000D02*
X64860000Y-114850000D01*
X142964000Y-140620000D02*
X142964000Y-130460000D01*
X141694000Y-140620000D02*
X149314000Y-140620000D01*
X149314000Y-140620000D02*
X149314000Y-130460000D01*
X149314000Y-130460000D02*
X141694000Y-130460000D01*
X141694000Y-130460000D02*
X141694000Y-140620000D01*
X143048000Y-127620000D02*
X143048000Y-117460000D01*
X141778000Y-127620000D02*
X149398000Y-127620000D01*
X149398000Y-127620000D02*
X149398000Y-117460000D01*
X149398000Y-117460000D02*
X141778000Y-117460000D01*
X141778000Y-117460000D02*
X141778000Y-127620000D01*
X96000000Y-70184000D02*
X100500000Y-70184000D01*
X94750000Y-66184000D02*
X94750000Y-67684000D01*
X100500000Y-63684000D02*
X96000000Y-63684000D01*
X101750000Y-67684000D02*
X101750000Y-66184000D01*
X64434064Y-71922000D02*
X63229936Y-71922000D01*
X64434064Y-70102000D02*
X63229936Y-70102000D01*
X69833936Y-70102000D02*
X71038064Y-70102000D01*
X69833936Y-71922000D02*
X71038064Y-71922000D01*
X86994064Y-82495000D02*
X85789936Y-82495000D01*
X86994064Y-80675000D02*
X85789936Y-80675000D01*
X62402064Y-95544000D02*
X61197936Y-95544000D01*
X62402064Y-93724000D02*
X61197936Y-93724000D01*
X62402064Y-89194000D02*
X61197936Y-89194000D01*
X62402064Y-87374000D02*
X61197936Y-87374000D01*
X115460000Y-77572936D02*
X115460000Y-78777064D01*
X113640000Y-77572936D02*
X113640000Y-78777064D01*
X88547936Y-103340000D02*
X89752064Y-103340000D01*
X88547936Y-105160000D02*
X89752064Y-105160000D01*
X62232000Y-69099000D02*
X66292000Y-69099000D01*
X66292000Y-69099000D02*
X66292000Y-66829000D01*
X66292000Y-66829000D02*
X62232000Y-66829000D01*
X72036000Y-66829000D02*
X67976000Y-66829000D01*
X67976000Y-66829000D02*
X67976000Y-69099000D01*
X67976000Y-69099000D02*
X72036000Y-69099000D01*
X112160000Y-79700000D02*
X112160000Y-75640000D01*
X112160000Y-75640000D02*
X109890000Y-75640000D01*
X109890000Y-75640000D02*
X109890000Y-79700000D01*
X73056436Y-87368000D02*
X74260564Y-87368000D01*
X73056436Y-89188000D02*
X74260564Y-89188000D01*
X53190000Y-72054000D02*
X53190000Y-73254000D01*
X53190000Y-76574000D02*
X53190000Y-75374000D01*
X56645563Y-76574000D02*
X53190000Y-76574000D01*
X56645563Y-72054000D02*
X53190000Y-72054000D01*
X57710000Y-73118437D02*
X57710000Y-73254000D01*
X57710000Y-75509563D02*
X57710000Y-75374000D01*
X57710000Y-75509563D02*
X56645563Y-76574000D01*
X57710000Y-73118437D02*
X56645563Y-72054000D01*
X58450000Y-75874000D02*
X57950000Y-75874000D01*
X58200000Y-76124000D02*
X58200000Y-75624000D01*
X61197936Y-96264000D02*
X62402064Y-96264000D01*
X61197936Y-98084000D02*
X62402064Y-98084000D01*
X56052064Y-82844000D02*
X54847936Y-82844000D01*
X56052064Y-81024000D02*
X54847936Y-81024000D01*
X61197936Y-89914000D02*
X62402064Y-89914000D01*
X61197936Y-91734000D02*
X62402064Y-91734000D01*
X56052064Y-80304000D02*
X54847936Y-80304000D01*
X56052064Y-78484000D02*
X54847936Y-78484000D01*
X111149136Y-96500600D02*
X112353264Y-96500600D01*
X111149136Y-98320600D02*
X112353264Y-98320600D01*
X92556336Y-94113000D02*
X93760464Y-94113000D01*
X92556336Y-95933000D02*
X93760464Y-95933000D01*
D10*
X92041666Y-78027380D02*
X92041666Y-78741666D01*
X91994047Y-78884523D01*
X91898809Y-78979761D01*
X91755952Y-79027380D01*
X91660714Y-79027380D01*
X92517857Y-79027380D02*
X92517857Y-78027380D01*
X92898809Y-78027380D01*
X92994047Y-78075000D01*
X93041666Y-78122619D01*
X93089285Y-78217857D01*
X93089285Y-78360714D01*
X93041666Y-78455952D01*
X92994047Y-78503571D01*
X92898809Y-78551190D01*
X92517857Y-78551190D01*
X94041666Y-79027380D02*
X93470238Y-79027380D01*
X93755952Y-79027380D02*
X93755952Y-78027380D01*
X93660714Y-78170238D01*
X93565476Y-78265476D01*
X93470238Y-78313095D01*
X90057380Y-75892857D02*
X89581190Y-76226190D01*
X90057380Y-76464285D02*
X89057380Y-76464285D01*
X89057380Y-76083333D01*
X89105000Y-75988095D01*
X89152619Y-75940476D01*
X89247857Y-75892857D01*
X89390714Y-75892857D01*
X89485952Y-75940476D01*
X89533571Y-75988095D01*
X89581190Y-76083333D01*
X89581190Y-76464285D01*
X89152619Y-75511904D02*
X89105000Y-75464285D01*
X89057380Y-75369047D01*
X89057380Y-75130952D01*
X89105000Y-75035714D01*
X89152619Y-74988095D01*
X89247857Y-74940476D01*
X89343095Y-74940476D01*
X89485952Y-74988095D01*
X90057380Y-75559523D01*
X90057380Y-74940476D01*
X89057380Y-74083333D02*
X89057380Y-74273809D01*
X89105000Y-74369047D01*
X89152619Y-74416666D01*
X89295476Y-74511904D01*
X89485952Y-74559523D01*
X89866904Y-74559523D01*
X89962142Y-74511904D01*
X90009761Y-74464285D01*
X90057380Y-74369047D01*
X90057380Y-74178571D01*
X90009761Y-74083333D01*
X89962142Y-74035714D01*
X89866904Y-73988095D01*
X89628809Y-73988095D01*
X89533571Y-74035714D01*
X89485952Y-74083333D01*
X89438333Y-74178571D01*
X89438333Y-74369047D01*
X89485952Y-74464285D01*
X89533571Y-74511904D01*
X89628809Y-74559523D01*
X126465476Y-77577380D02*
X126465476Y-78291666D01*
X126417857Y-78434523D01*
X126322619Y-78529761D01*
X126179761Y-78577380D01*
X126084523Y-78577380D01*
X127465476Y-78577380D02*
X126894047Y-78577380D01*
X127179761Y-78577380D02*
X127179761Y-77577380D01*
X127084523Y-77720238D01*
X126989285Y-77815476D01*
X126894047Y-77863095D01*
X128370238Y-77577380D02*
X127894047Y-77577380D01*
X127846428Y-78053571D01*
X127894047Y-78005952D01*
X127989285Y-77958333D01*
X128227380Y-77958333D01*
X128322619Y-78005952D01*
X128370238Y-78053571D01*
X128417857Y-78148809D01*
X128417857Y-78386904D01*
X128370238Y-78482142D01*
X128322619Y-78529761D01*
X128227380Y-78577380D01*
X127989285Y-78577380D01*
X127894047Y-78529761D01*
X127846428Y-78482142D01*
X133666666Y-81927380D02*
X133666666Y-82641666D01*
X133619047Y-82784523D01*
X133523809Y-82879761D01*
X133380952Y-82927380D01*
X133285714Y-82927380D01*
X134047619Y-81927380D02*
X134714285Y-81927380D01*
X134285714Y-82927380D01*
X141762380Y-86567857D02*
X141286190Y-86901190D01*
X141762380Y-87139285D02*
X140762380Y-87139285D01*
X140762380Y-86758333D01*
X140810000Y-86663095D01*
X140857619Y-86615476D01*
X140952857Y-86567857D01*
X141095714Y-86567857D01*
X141190952Y-86615476D01*
X141238571Y-86663095D01*
X141286190Y-86758333D01*
X141286190Y-87139285D01*
X140857619Y-86186904D02*
X140810000Y-86139285D01*
X140762380Y-86044047D01*
X140762380Y-85805952D01*
X140810000Y-85710714D01*
X140857619Y-85663095D01*
X140952857Y-85615476D01*
X141048095Y-85615476D01*
X141190952Y-85663095D01*
X141762380Y-86234523D01*
X141762380Y-85615476D01*
X140762380Y-84710714D02*
X140762380Y-85186904D01*
X141238571Y-85234523D01*
X141190952Y-85186904D01*
X141143333Y-85091666D01*
X141143333Y-84853571D01*
X141190952Y-84758333D01*
X141238571Y-84710714D01*
X141333809Y-84663095D01*
X141571904Y-84663095D01*
X141667142Y-84710714D01*
X141714761Y-84758333D01*
X141762380Y-84853571D01*
X141762380Y-85091666D01*
X141714761Y-85186904D01*
X141667142Y-85234523D01*
X141542380Y-80737857D02*
X141066190Y-81071190D01*
X141542380Y-81309285D02*
X140542380Y-81309285D01*
X140542380Y-80928333D01*
X140590000Y-80833095D01*
X140637619Y-80785476D01*
X140732857Y-80737857D01*
X140875714Y-80737857D01*
X140970952Y-80785476D01*
X141018571Y-80833095D01*
X141066190Y-80928333D01*
X141066190Y-81309285D01*
X140637619Y-80356904D02*
X140590000Y-80309285D01*
X140542380Y-80214047D01*
X140542380Y-79975952D01*
X140590000Y-79880714D01*
X140637619Y-79833095D01*
X140732857Y-79785476D01*
X140828095Y-79785476D01*
X140970952Y-79833095D01*
X141542380Y-80404523D01*
X141542380Y-79785476D01*
X140875714Y-78928333D02*
X141542380Y-78928333D01*
X140494761Y-79166428D02*
X141209047Y-79404523D01*
X141209047Y-78785476D01*
X135540476Y-99852380D02*
X135540476Y-100566666D01*
X135492857Y-100709523D01*
X135397619Y-100804761D01*
X135254761Y-100852380D01*
X135159523Y-100852380D01*
X136540476Y-100852380D02*
X135969047Y-100852380D01*
X136254761Y-100852380D02*
X136254761Y-99852380D01*
X136159523Y-99995238D01*
X136064285Y-100090476D01*
X135969047Y-100138095D01*
X137397619Y-100185714D02*
X137397619Y-100852380D01*
X137159523Y-99804761D02*
X136921428Y-100519047D01*
X137540476Y-100519047D01*
X145977380Y-112039285D02*
X144977380Y-112039285D01*
X144977380Y-111801190D01*
X145025000Y-111658333D01*
X145120238Y-111563095D01*
X145215476Y-111515476D01*
X145405952Y-111467857D01*
X145548809Y-111467857D01*
X145739285Y-111515476D01*
X145834523Y-111563095D01*
X145929761Y-111658333D01*
X145977380Y-111801190D01*
X145977380Y-112039285D01*
X145072619Y-111086904D02*
X145025000Y-111039285D01*
X144977380Y-110944047D01*
X144977380Y-110705952D01*
X145025000Y-110610714D01*
X145072619Y-110563095D01*
X145167857Y-110515476D01*
X145263095Y-110515476D01*
X145405952Y-110563095D01*
X145977380Y-111134523D01*
X145977380Y-110515476D01*
X145072619Y-110134523D02*
X145025000Y-110086904D01*
X144977380Y-109991666D01*
X144977380Y-109753571D01*
X145025000Y-109658333D01*
X145072619Y-109610714D01*
X145167857Y-109563095D01*
X145263095Y-109563095D01*
X145405952Y-109610714D01*
X145977380Y-110182142D01*
X145977380Y-109563095D01*
X144527380Y-114614285D02*
X144527380Y-115185714D01*
X144527380Y-114900000D02*
X143527380Y-114900000D01*
X143670238Y-114995238D01*
X143765476Y-115090476D01*
X143813095Y-115185714D01*
X145952380Y-103014285D02*
X144952380Y-103014285D01*
X144952380Y-102776190D01*
X145000000Y-102633333D01*
X145095238Y-102538095D01*
X145190476Y-102490476D01*
X145380952Y-102442857D01*
X145523809Y-102442857D01*
X145714285Y-102490476D01*
X145809523Y-102538095D01*
X145904761Y-102633333D01*
X145952380Y-102776190D01*
X145952380Y-103014285D01*
X145047619Y-102061904D02*
X145000000Y-102014285D01*
X144952380Y-101919047D01*
X144952380Y-101680952D01*
X145000000Y-101585714D01*
X145047619Y-101538095D01*
X145142857Y-101490476D01*
X145238095Y-101490476D01*
X145380952Y-101538095D01*
X145952380Y-102109523D01*
X145952380Y-101490476D01*
X145952380Y-100538095D02*
X145952380Y-101109523D01*
X145952380Y-100823809D02*
X144952380Y-100823809D01*
X145095238Y-100919047D01*
X145190476Y-101014285D01*
X145238095Y-101109523D01*
X144377380Y-105689285D02*
X144377380Y-106260714D01*
X144377380Y-105975000D02*
X143377380Y-105975000D01*
X143520238Y-106070238D01*
X143615476Y-106165476D01*
X143663095Y-106260714D01*
X145777380Y-94114285D02*
X144777380Y-94114285D01*
X144777380Y-93876190D01*
X144825000Y-93733333D01*
X144920238Y-93638095D01*
X145015476Y-93590476D01*
X145205952Y-93542857D01*
X145348809Y-93542857D01*
X145539285Y-93590476D01*
X145634523Y-93638095D01*
X145729761Y-93733333D01*
X145777380Y-93876190D01*
X145777380Y-94114285D01*
X144872619Y-93161904D02*
X144825000Y-93114285D01*
X144777380Y-93019047D01*
X144777380Y-92780952D01*
X144825000Y-92685714D01*
X144872619Y-92638095D01*
X144967857Y-92590476D01*
X145063095Y-92590476D01*
X145205952Y-92638095D01*
X145777380Y-93209523D01*
X145777380Y-92590476D01*
X144777380Y-91971428D02*
X144777380Y-91876190D01*
X144825000Y-91780952D01*
X144872619Y-91733333D01*
X144967857Y-91685714D01*
X145158333Y-91638095D01*
X145396428Y-91638095D01*
X145586904Y-91685714D01*
X145682142Y-91733333D01*
X145729761Y-91780952D01*
X145777380Y-91876190D01*
X145777380Y-91971428D01*
X145729761Y-92066666D01*
X145682142Y-92114285D01*
X145586904Y-92161904D01*
X145396428Y-92209523D01*
X145158333Y-92209523D01*
X144967857Y-92161904D01*
X144872619Y-92114285D01*
X144825000Y-92066666D01*
X144777380Y-91971428D01*
X144302380Y-96814285D02*
X144302380Y-97385714D01*
X144302380Y-97100000D02*
X143302380Y-97100000D01*
X143445238Y-97195238D01*
X143540476Y-97290476D01*
X143588095Y-97385714D01*
X145477380Y-87339285D02*
X144477380Y-87339285D01*
X144477380Y-87101190D01*
X144525000Y-86958333D01*
X144620238Y-86863095D01*
X144715476Y-86815476D01*
X144905952Y-86767857D01*
X145048809Y-86767857D01*
X145239285Y-86815476D01*
X145334523Y-86863095D01*
X145429761Y-86958333D01*
X145477380Y-87101190D01*
X145477380Y-87339285D01*
X145477380Y-85815476D02*
X145477380Y-86386904D01*
X145477380Y-86101190D02*
X144477380Y-86101190D01*
X144620238Y-86196428D01*
X144715476Y-86291666D01*
X144763095Y-86386904D01*
X145477380Y-85339285D02*
X145477380Y-85148809D01*
X145429761Y-85053571D01*
X145382142Y-85005952D01*
X145239285Y-84910714D01*
X145048809Y-84863095D01*
X144667857Y-84863095D01*
X144572619Y-84910714D01*
X144525000Y-84958333D01*
X144477380Y-85053571D01*
X144477380Y-85244047D01*
X144525000Y-85339285D01*
X144572619Y-85386904D01*
X144667857Y-85434523D01*
X144905952Y-85434523D01*
X145001190Y-85386904D01*
X145048809Y-85339285D01*
X145096428Y-85244047D01*
X145096428Y-85053571D01*
X145048809Y-84958333D01*
X145001190Y-84910714D01*
X144905952Y-84863095D01*
X145427380Y-81314285D02*
X144427380Y-81314285D01*
X144427380Y-81076190D01*
X144475000Y-80933333D01*
X144570238Y-80838095D01*
X144665476Y-80790476D01*
X144855952Y-80742857D01*
X144998809Y-80742857D01*
X145189285Y-80790476D01*
X145284523Y-80838095D01*
X145379761Y-80933333D01*
X145427380Y-81076190D01*
X145427380Y-81314285D01*
X145427380Y-79790476D02*
X145427380Y-80361904D01*
X145427380Y-80076190D02*
X144427380Y-80076190D01*
X144570238Y-80171428D01*
X144665476Y-80266666D01*
X144713095Y-80361904D01*
X144855952Y-79219047D02*
X144808333Y-79314285D01*
X144760714Y-79361904D01*
X144665476Y-79409523D01*
X144617857Y-79409523D01*
X144522619Y-79361904D01*
X144475000Y-79314285D01*
X144427380Y-79219047D01*
X144427380Y-79028571D01*
X144475000Y-78933333D01*
X144522619Y-78885714D01*
X144617857Y-78838095D01*
X144665476Y-78838095D01*
X144760714Y-78885714D01*
X144808333Y-78933333D01*
X144855952Y-79028571D01*
X144855952Y-79219047D01*
X144903571Y-79314285D01*
X144951190Y-79361904D01*
X145046428Y-79409523D01*
X145236904Y-79409523D01*
X145332142Y-79361904D01*
X145379761Y-79314285D01*
X145427380Y-79219047D01*
X145427380Y-79028571D01*
X145379761Y-78933333D01*
X145332142Y-78885714D01*
X145236904Y-78838095D01*
X145046428Y-78838095D01*
X144951190Y-78885714D01*
X144903571Y-78933333D01*
X144855952Y-79028571D01*
X59837142Y-102772380D02*
X59503809Y-102296190D01*
X59265714Y-102772380D02*
X59265714Y-101772380D01*
X59646666Y-101772380D01*
X59741904Y-101820000D01*
X59789523Y-101867619D01*
X59837142Y-101962857D01*
X59837142Y-102105714D01*
X59789523Y-102200952D01*
X59741904Y-102248571D01*
X59646666Y-102296190D01*
X59265714Y-102296190D01*
X60218095Y-101867619D02*
X60265714Y-101820000D01*
X60360952Y-101772380D01*
X60599047Y-101772380D01*
X60694285Y-101820000D01*
X60741904Y-101867619D01*
X60789523Y-101962857D01*
X60789523Y-102058095D01*
X60741904Y-102200952D01*
X60170476Y-102772380D01*
X60789523Y-102772380D01*
X61122857Y-101772380D02*
X61741904Y-101772380D01*
X61408571Y-102153333D01*
X61551428Y-102153333D01*
X61646666Y-102200952D01*
X61694285Y-102248571D01*
X61741904Y-102343809D01*
X61741904Y-102581904D01*
X61694285Y-102677142D01*
X61646666Y-102724761D01*
X61551428Y-102772380D01*
X61265714Y-102772380D01*
X61170476Y-102724761D01*
X61122857Y-102677142D01*
X59065714Y-106072380D02*
X59065714Y-105072380D01*
X59303809Y-105072380D01*
X59446666Y-105120000D01*
X59541904Y-105215238D01*
X59589523Y-105310476D01*
X59637142Y-105500952D01*
X59637142Y-105643809D01*
X59589523Y-105834285D01*
X59541904Y-105929523D01*
X59446666Y-106024761D01*
X59303809Y-106072380D01*
X59065714Y-106072380D01*
X60589523Y-106072380D02*
X60018095Y-106072380D01*
X60303809Y-106072380D02*
X60303809Y-105072380D01*
X60208571Y-105215238D01*
X60113333Y-105310476D01*
X60018095Y-105358095D01*
X60922857Y-105072380D02*
X61589523Y-105072380D01*
X61160952Y-106072380D01*
X86593333Y-71662380D02*
X86260000Y-71186190D01*
X86021904Y-71662380D02*
X86021904Y-70662380D01*
X86402857Y-70662380D01*
X86498095Y-70710000D01*
X86545714Y-70757619D01*
X86593333Y-70852857D01*
X86593333Y-70995714D01*
X86545714Y-71090952D01*
X86498095Y-71138571D01*
X86402857Y-71186190D01*
X86021904Y-71186190D01*
X87545714Y-71662380D02*
X86974285Y-71662380D01*
X87260000Y-71662380D02*
X87260000Y-70662380D01*
X87164761Y-70805238D01*
X87069523Y-70900476D01*
X86974285Y-70948095D01*
X78452380Y-103619523D02*
X79166666Y-103619523D01*
X79309523Y-103667142D01*
X79404761Y-103762380D01*
X79452380Y-103905238D01*
X79452380Y-104000476D01*
X79452380Y-102619523D02*
X79452380Y-103190952D01*
X79452380Y-102905238D02*
X78452380Y-102905238D01*
X78595238Y-103000476D01*
X78690476Y-103095714D01*
X78738095Y-103190952D01*
X78452380Y-102286190D02*
X78452380Y-101667142D01*
X78833333Y-102000476D01*
X78833333Y-101857619D01*
X78880952Y-101762380D01*
X78928571Y-101714761D01*
X79023809Y-101667142D01*
X79261904Y-101667142D01*
X79357142Y-101714761D01*
X79404761Y-101762380D01*
X79452380Y-101857619D01*
X79452380Y-102143333D01*
X79404761Y-102238571D01*
X79357142Y-102286190D01*
X86021904Y-68332380D02*
X86021904Y-67332380D01*
X86260000Y-67332380D01*
X86402857Y-67380000D01*
X86498095Y-67475238D01*
X86545714Y-67570476D01*
X86593333Y-67760952D01*
X86593333Y-67903809D01*
X86545714Y-68094285D01*
X86498095Y-68189523D01*
X86402857Y-68284761D01*
X86260000Y-68332380D01*
X86021904Y-68332380D01*
X87545714Y-68332380D02*
X86974285Y-68332380D01*
X87260000Y-68332380D02*
X87260000Y-67332380D01*
X87164761Y-67475238D01*
X87069523Y-67570476D01*
X86974285Y-67618095D01*
X57792380Y-98209523D02*
X58506666Y-98209523D01*
X58649523Y-98257142D01*
X58744761Y-98352380D01*
X58792380Y-98495238D01*
X58792380Y-98590476D01*
X58792380Y-97209523D02*
X58792380Y-97780952D01*
X58792380Y-97495238D02*
X57792380Y-97495238D01*
X57935238Y-97590476D01*
X58030476Y-97685714D01*
X58078095Y-97780952D01*
X57887619Y-96828571D02*
X57840000Y-96780952D01*
X57792380Y-96685714D01*
X57792380Y-96447619D01*
X57840000Y-96352380D01*
X57887619Y-96304761D01*
X57982857Y-96257142D01*
X58078095Y-96257142D01*
X58220952Y-96304761D01*
X58792380Y-96876190D01*
X58792380Y-96257142D01*
X56194880Y-107609523D02*
X56909166Y-107609523D01*
X57052023Y-107657142D01*
X57147261Y-107752380D01*
X57194880Y-107895238D01*
X57194880Y-107990476D01*
X57194880Y-106609523D02*
X57194880Y-107180952D01*
X57194880Y-106895238D02*
X56194880Y-106895238D01*
X56337738Y-106990476D01*
X56432976Y-107085714D01*
X56480595Y-107180952D01*
X57194880Y-105657142D02*
X57194880Y-106228571D01*
X57194880Y-105942857D02*
X56194880Y-105942857D01*
X56337738Y-106038095D01*
X56432976Y-106133333D01*
X56480595Y-106228571D01*
X131261904Y-140998380D02*
X131261904Y-139998380D01*
X131500000Y-139998380D01*
X131642857Y-140046000D01*
X131738095Y-140141238D01*
X131785714Y-140236476D01*
X131833333Y-140426952D01*
X131833333Y-140569809D01*
X131785714Y-140760285D01*
X131738095Y-140855523D01*
X131642857Y-140950761D01*
X131500000Y-140998380D01*
X131261904Y-140998380D01*
X132738095Y-139998380D02*
X132261904Y-139998380D01*
X132214285Y-140474571D01*
X132261904Y-140426952D01*
X132357142Y-140379333D01*
X132595238Y-140379333D01*
X132690476Y-140426952D01*
X132738095Y-140474571D01*
X132785714Y-140569809D01*
X132785714Y-140807904D01*
X132738095Y-140903142D01*
X132690476Y-140950761D01*
X132595238Y-140998380D01*
X132357142Y-140998380D01*
X132261904Y-140950761D01*
X132214285Y-140903142D01*
X129942647Y-139539828D02*
X130704552Y-139539828D01*
X130323600Y-139920780D02*
X130323600Y-139158876D01*
X122960714Y-125472380D02*
X122960714Y-124472380D01*
X123198809Y-124472380D01*
X123341666Y-124520000D01*
X123436904Y-124615238D01*
X123484523Y-124710476D01*
X123532142Y-124900952D01*
X123532142Y-125043809D01*
X123484523Y-125234285D01*
X123436904Y-125329523D01*
X123341666Y-125424761D01*
X123198809Y-125472380D01*
X122960714Y-125472380D01*
X124484523Y-125472380D02*
X123913095Y-125472380D01*
X124198809Y-125472380D02*
X124198809Y-124472380D01*
X124103571Y-124615238D01*
X124008333Y-124710476D01*
X123913095Y-124758095D01*
X124865476Y-124567619D02*
X124913095Y-124520000D01*
X125008333Y-124472380D01*
X125246428Y-124472380D01*
X125341666Y-124520000D01*
X125389285Y-124567619D01*
X125436904Y-124662857D01*
X125436904Y-124758095D01*
X125389285Y-124900952D01*
X124817857Y-125472380D01*
X125436904Y-125472380D01*
X122117647Y-124013828D02*
X122879552Y-124013828D01*
X122498600Y-124394780D02*
X122498600Y-123632876D01*
X130635714Y-125477380D02*
X130635714Y-124477380D01*
X130873809Y-124477380D01*
X131016666Y-124525000D01*
X131111904Y-124620238D01*
X131159523Y-124715476D01*
X131207142Y-124905952D01*
X131207142Y-125048809D01*
X131159523Y-125239285D01*
X131111904Y-125334523D01*
X131016666Y-125429761D01*
X130873809Y-125477380D01*
X130635714Y-125477380D01*
X132159523Y-125477380D02*
X131588095Y-125477380D01*
X131873809Y-125477380D02*
X131873809Y-124477380D01*
X131778571Y-124620238D01*
X131683333Y-124715476D01*
X131588095Y-124763095D01*
X133111904Y-125477380D02*
X132540476Y-125477380D01*
X132826190Y-125477380D02*
X132826190Y-124477380D01*
X132730952Y-124620238D01*
X132635714Y-124715476D01*
X132540476Y-124763095D01*
X129792647Y-124018828D02*
X130554552Y-124018828D01*
X130173600Y-124399780D02*
X130173600Y-123637876D01*
X122685714Y-132402380D02*
X122685714Y-131402380D01*
X122923809Y-131402380D01*
X123066666Y-131450000D01*
X123161904Y-131545238D01*
X123209523Y-131640476D01*
X123257142Y-131830952D01*
X123257142Y-131973809D01*
X123209523Y-132164285D01*
X123161904Y-132259523D01*
X123066666Y-132354761D01*
X122923809Y-132402380D01*
X122685714Y-132402380D01*
X124209523Y-132402380D02*
X123638095Y-132402380D01*
X123923809Y-132402380D02*
X123923809Y-131402380D01*
X123828571Y-131545238D01*
X123733333Y-131640476D01*
X123638095Y-131688095D01*
X124828571Y-131402380D02*
X124923809Y-131402380D01*
X125019047Y-131450000D01*
X125066666Y-131497619D01*
X125114285Y-131592857D01*
X125161904Y-131783333D01*
X125161904Y-132021428D01*
X125114285Y-132211904D01*
X125066666Y-132307142D01*
X125019047Y-132354761D01*
X124923809Y-132402380D01*
X124828571Y-132402380D01*
X124733333Y-132354761D01*
X124685714Y-132307142D01*
X124638095Y-132211904D01*
X124590476Y-132021428D01*
X124590476Y-131783333D01*
X124638095Y-131592857D01*
X124685714Y-131497619D01*
X124733333Y-131450000D01*
X124828571Y-131402380D01*
X121842647Y-130943828D02*
X122604552Y-130943828D01*
X122223600Y-131324780D02*
X122223600Y-130562876D01*
X131386904Y-132327380D02*
X131386904Y-131327380D01*
X131625000Y-131327380D01*
X131767857Y-131375000D01*
X131863095Y-131470238D01*
X131910714Y-131565476D01*
X131958333Y-131755952D01*
X131958333Y-131898809D01*
X131910714Y-132089285D01*
X131863095Y-132184523D01*
X131767857Y-132279761D01*
X131625000Y-132327380D01*
X131386904Y-132327380D01*
X132434523Y-132327380D02*
X132625000Y-132327380D01*
X132720238Y-132279761D01*
X132767857Y-132232142D01*
X132863095Y-132089285D01*
X132910714Y-131898809D01*
X132910714Y-131517857D01*
X132863095Y-131422619D01*
X132815476Y-131375000D01*
X132720238Y-131327380D01*
X132529761Y-131327380D01*
X132434523Y-131375000D01*
X132386904Y-131422619D01*
X132339285Y-131517857D01*
X132339285Y-131755952D01*
X132386904Y-131851190D01*
X132434523Y-131898809D01*
X132529761Y-131946428D01*
X132720238Y-131946428D01*
X132815476Y-131898809D01*
X132863095Y-131851190D01*
X132910714Y-131755952D01*
X130067647Y-130868828D02*
X130829552Y-130868828D01*
X130448600Y-131249780D02*
X130448600Y-130487876D01*
X123161904Y-146552380D02*
X123161904Y-145552380D01*
X123400000Y-145552380D01*
X123542857Y-145600000D01*
X123638095Y-145695238D01*
X123685714Y-145790476D01*
X123733333Y-145980952D01*
X123733333Y-146123809D01*
X123685714Y-146314285D01*
X123638095Y-146409523D01*
X123542857Y-146504761D01*
X123400000Y-146552380D01*
X123161904Y-146552380D01*
X124304761Y-145980952D02*
X124209523Y-145933333D01*
X124161904Y-145885714D01*
X124114285Y-145790476D01*
X124114285Y-145742857D01*
X124161904Y-145647619D01*
X124209523Y-145600000D01*
X124304761Y-145552380D01*
X124495238Y-145552380D01*
X124590476Y-145600000D01*
X124638095Y-145647619D01*
X124685714Y-145742857D01*
X124685714Y-145790476D01*
X124638095Y-145885714D01*
X124590476Y-145933333D01*
X124495238Y-145980952D01*
X124304761Y-145980952D01*
X124209523Y-146028571D01*
X124161904Y-146076190D01*
X124114285Y-146171428D01*
X124114285Y-146361904D01*
X124161904Y-146457142D01*
X124209523Y-146504761D01*
X124304761Y-146552380D01*
X124495238Y-146552380D01*
X124590476Y-146504761D01*
X124638095Y-146457142D01*
X124685714Y-146361904D01*
X124685714Y-146171428D01*
X124638095Y-146076190D01*
X124590476Y-146028571D01*
X124495238Y-145980952D01*
X121842647Y-145093828D02*
X122604552Y-145093828D01*
X122223600Y-145474780D02*
X122223600Y-144712876D01*
X131361904Y-146552380D02*
X131361904Y-145552380D01*
X131600000Y-145552380D01*
X131742857Y-145600000D01*
X131838095Y-145695238D01*
X131885714Y-145790476D01*
X131933333Y-145980952D01*
X131933333Y-146123809D01*
X131885714Y-146314285D01*
X131838095Y-146409523D01*
X131742857Y-146504761D01*
X131600000Y-146552380D01*
X131361904Y-146552380D01*
X132266666Y-145552380D02*
X132933333Y-145552380D01*
X132504761Y-146552380D01*
X130042647Y-145093828D02*
X130804552Y-145093828D01*
X130423600Y-145474780D02*
X130423600Y-144712876D01*
X123211904Y-141002380D02*
X123211904Y-140002380D01*
X123450000Y-140002380D01*
X123592857Y-140050000D01*
X123688095Y-140145238D01*
X123735714Y-140240476D01*
X123783333Y-140430952D01*
X123783333Y-140573809D01*
X123735714Y-140764285D01*
X123688095Y-140859523D01*
X123592857Y-140954761D01*
X123450000Y-141002380D01*
X123211904Y-141002380D01*
X124640476Y-140002380D02*
X124450000Y-140002380D01*
X124354761Y-140050000D01*
X124307142Y-140097619D01*
X124211904Y-140240476D01*
X124164285Y-140430952D01*
X124164285Y-140811904D01*
X124211904Y-140907142D01*
X124259523Y-140954761D01*
X124354761Y-141002380D01*
X124545238Y-141002380D01*
X124640476Y-140954761D01*
X124688095Y-140907142D01*
X124735714Y-140811904D01*
X124735714Y-140573809D01*
X124688095Y-140478571D01*
X124640476Y-140430952D01*
X124545238Y-140383333D01*
X124354761Y-140383333D01*
X124259523Y-140430952D01*
X124211904Y-140478571D01*
X124164285Y-140573809D01*
X121892647Y-139543828D02*
X122654552Y-139543828D01*
X122273600Y-139924780D02*
X122273600Y-139162876D01*
X102652380Y-75730357D02*
X102176190Y-76063690D01*
X102652380Y-76301785D02*
X101652380Y-76301785D01*
X101652380Y-75920833D01*
X101700000Y-75825595D01*
X101747619Y-75777976D01*
X101842857Y-75730357D01*
X101985714Y-75730357D01*
X102080952Y-75777976D01*
X102128571Y-75825595D01*
X102176190Y-75920833D01*
X102176190Y-76301785D01*
X101747619Y-75349404D02*
X101700000Y-75301785D01*
X101652380Y-75206547D01*
X101652380Y-74968452D01*
X101700000Y-74873214D01*
X101747619Y-74825595D01*
X101842857Y-74777976D01*
X101938095Y-74777976D01*
X102080952Y-74825595D01*
X102652380Y-75397023D01*
X102652380Y-74777976D01*
X101747619Y-74397023D02*
X101700000Y-74349404D01*
X101652380Y-74254166D01*
X101652380Y-74016071D01*
X101700000Y-73920833D01*
X101747619Y-73873214D01*
X101842857Y-73825595D01*
X101938095Y-73825595D01*
X102080952Y-73873214D01*
X102652380Y-74444642D01*
X102652380Y-73825595D01*
X107004761Y-73072619D02*
X106909523Y-73025000D01*
X106814285Y-72929761D01*
X106671428Y-72786904D01*
X106576190Y-72739285D01*
X106480952Y-72739285D01*
X106528571Y-72977380D02*
X106433333Y-72929761D01*
X106338095Y-72834523D01*
X106290476Y-72644047D01*
X106290476Y-72310714D01*
X106338095Y-72120238D01*
X106433333Y-72025000D01*
X106528571Y-71977380D01*
X106719047Y-71977380D01*
X106814285Y-72025000D01*
X106909523Y-72120238D01*
X106957142Y-72310714D01*
X106957142Y-72644047D01*
X106909523Y-72834523D01*
X106814285Y-72929761D01*
X106719047Y-72977380D01*
X106528571Y-72977380D01*
X107338095Y-72072619D02*
X107385714Y-72025000D01*
X107480952Y-71977380D01*
X107719047Y-71977380D01*
X107814285Y-72025000D01*
X107861904Y-72072619D01*
X107909523Y-72167857D01*
X107909523Y-72263095D01*
X107861904Y-72405952D01*
X107290476Y-72977380D01*
X107909523Y-72977380D01*
X95679761Y-72747619D02*
X95584523Y-72700000D01*
X95489285Y-72604761D01*
X95346428Y-72461904D01*
X95251190Y-72414285D01*
X95155952Y-72414285D01*
X95203571Y-72652380D02*
X95108333Y-72604761D01*
X95013095Y-72509523D01*
X94965476Y-72319047D01*
X94965476Y-71985714D01*
X95013095Y-71795238D01*
X95108333Y-71700000D01*
X95203571Y-71652380D01*
X95394047Y-71652380D01*
X95489285Y-71700000D01*
X95584523Y-71795238D01*
X95632142Y-71985714D01*
X95632142Y-72319047D01*
X95584523Y-72509523D01*
X95489285Y-72604761D01*
X95394047Y-72652380D01*
X95203571Y-72652380D01*
X96584523Y-72652380D02*
X96013095Y-72652380D01*
X96298809Y-72652380D02*
X96298809Y-71652380D01*
X96203571Y-71795238D01*
X96108333Y-71890476D01*
X96013095Y-71938095D01*
X90289333Y-85085380D02*
X89956000Y-84609190D01*
X89717904Y-85085380D02*
X89717904Y-84085380D01*
X90098857Y-84085380D01*
X90194095Y-84133000D01*
X90241714Y-84180619D01*
X90289333Y-84275857D01*
X90289333Y-84418714D01*
X90241714Y-84513952D01*
X90194095Y-84561571D01*
X90098857Y-84609190D01*
X89717904Y-84609190D01*
X91194095Y-84085380D02*
X90717904Y-84085380D01*
X90670285Y-84561571D01*
X90717904Y-84513952D01*
X90813142Y-84466333D01*
X91051238Y-84466333D01*
X91146476Y-84513952D01*
X91194095Y-84561571D01*
X91241714Y-84656809D01*
X91241714Y-84894904D01*
X91194095Y-84990142D01*
X91146476Y-85037761D01*
X91051238Y-85085380D01*
X90813142Y-85085380D01*
X90717904Y-85037761D01*
X90670285Y-84990142D01*
X117056666Y-83382380D02*
X117056666Y-84096666D01*
X117009047Y-84239523D01*
X116913809Y-84334761D01*
X116770952Y-84382380D01*
X116675714Y-84382380D01*
X117961428Y-83382380D02*
X117770952Y-83382380D01*
X117675714Y-83430000D01*
X117628095Y-83477619D01*
X117532857Y-83620476D01*
X117485238Y-83810952D01*
X117485238Y-84191904D01*
X117532857Y-84287142D01*
X117580476Y-84334761D01*
X117675714Y-84382380D01*
X117866190Y-84382380D01*
X117961428Y-84334761D01*
X118009047Y-84287142D01*
X118056666Y-84191904D01*
X118056666Y-83953809D01*
X118009047Y-83858571D01*
X117961428Y-83810952D01*
X117866190Y-83763333D01*
X117675714Y-83763333D01*
X117580476Y-83810952D01*
X117532857Y-83858571D01*
X117485238Y-83953809D01*
X114092380Y-106913333D02*
X114806666Y-106913333D01*
X114949523Y-106960952D01*
X115044761Y-107056190D01*
X115092380Y-107199047D01*
X115092380Y-107294285D01*
X114092380Y-105960952D02*
X114092380Y-106437142D01*
X114568571Y-106484761D01*
X114520952Y-106437142D01*
X114473333Y-106341904D01*
X114473333Y-106103809D01*
X114520952Y-106008571D01*
X114568571Y-105960952D01*
X114663809Y-105913333D01*
X114901904Y-105913333D01*
X114997142Y-105960952D01*
X115044761Y-106008571D01*
X115092380Y-106103809D01*
X115092380Y-106341904D01*
X115044761Y-106437142D01*
X114997142Y-106484761D01*
X90291666Y-100627380D02*
X90291666Y-101341666D01*
X90244047Y-101484523D01*
X90148809Y-101579761D01*
X90005952Y-101627380D01*
X89910714Y-101627380D01*
X91196428Y-100960714D02*
X91196428Y-101627380D01*
X90958333Y-100579761D02*
X90720238Y-101294047D01*
X91339285Y-101294047D01*
X114092380Y-84053333D02*
X114806666Y-84053333D01*
X114949523Y-84100952D01*
X115044761Y-84196190D01*
X115092380Y-84339047D01*
X115092380Y-84434285D01*
X114092380Y-83672380D02*
X114092380Y-83053333D01*
X114473333Y-83386666D01*
X114473333Y-83243809D01*
X114520952Y-83148571D01*
X114568571Y-83100952D01*
X114663809Y-83053333D01*
X114901904Y-83053333D01*
X114997142Y-83100952D01*
X115044761Y-83148571D01*
X115092380Y-83243809D01*
X115092380Y-83529523D01*
X115044761Y-83624761D01*
X114997142Y-83672380D01*
X102128380Y-129885904D02*
X102937904Y-129885904D01*
X103033142Y-129838285D01*
X103080761Y-129790666D01*
X103128380Y-129695428D01*
X103128380Y-129504952D01*
X103080761Y-129409714D01*
X103033142Y-129362095D01*
X102937904Y-129314476D01*
X102128380Y-129314476D01*
X102128380Y-128933523D02*
X102128380Y-128314476D01*
X102509333Y-128647809D01*
X102509333Y-128504952D01*
X102556952Y-128409714D01*
X102604571Y-128362095D01*
X102699809Y-128314476D01*
X102937904Y-128314476D01*
X103033142Y-128362095D01*
X103080761Y-128409714D01*
X103128380Y-128504952D01*
X103128380Y-128790666D01*
X103080761Y-128885904D01*
X103033142Y-128933523D01*
X69972380Y-130901904D02*
X70781904Y-130901904D01*
X70877142Y-130854285D01*
X70924761Y-130806666D01*
X70972380Y-130711428D01*
X70972380Y-130520952D01*
X70924761Y-130425714D01*
X70877142Y-130378095D01*
X70781904Y-130330476D01*
X69972380Y-130330476D01*
X70305714Y-129425714D02*
X70972380Y-129425714D01*
X69924761Y-129663809D02*
X70639047Y-129901904D01*
X70639047Y-129282857D01*
X93352380Y-130761904D02*
X94161904Y-130761904D01*
X94257142Y-130714285D01*
X94304761Y-130666666D01*
X94352380Y-130571428D01*
X94352380Y-130380952D01*
X94304761Y-130285714D01*
X94257142Y-130238095D01*
X94161904Y-130190476D01*
X93352380Y-130190476D01*
X93352380Y-129238095D02*
X93352380Y-129714285D01*
X93828571Y-129761904D01*
X93780952Y-129714285D01*
X93733333Y-129619047D01*
X93733333Y-129380952D01*
X93780952Y-129285714D01*
X93828571Y-129238095D01*
X93923809Y-129190476D01*
X94161904Y-129190476D01*
X94257142Y-129238095D01*
X94304761Y-129285714D01*
X94352380Y-129380952D01*
X94352380Y-129619047D01*
X94304761Y-129714285D01*
X94257142Y-129761904D01*
X105588095Y-98652380D02*
X105588095Y-99461904D01*
X105635714Y-99557142D01*
X105683333Y-99604761D01*
X105778571Y-99652380D01*
X105969047Y-99652380D01*
X106064285Y-99604761D01*
X106111904Y-99557142D01*
X106159523Y-99461904D01*
X106159523Y-98652380D01*
X106588095Y-98747619D02*
X106635714Y-98700000D01*
X106730952Y-98652380D01*
X106969047Y-98652380D01*
X107064285Y-98700000D01*
X107111904Y-98747619D01*
X107159523Y-98842857D01*
X107159523Y-98938095D01*
X107111904Y-99080952D01*
X106540476Y-99652380D01*
X107159523Y-99652380D01*
X77828380Y-79901904D02*
X78637904Y-79901904D01*
X78733142Y-79854285D01*
X78780761Y-79806666D01*
X78828380Y-79711428D01*
X78828380Y-79520952D01*
X78780761Y-79425714D01*
X78733142Y-79378095D01*
X78637904Y-79330476D01*
X77828380Y-79330476D01*
X78828380Y-78330476D02*
X78828380Y-78901904D01*
X78828380Y-78616190D02*
X77828380Y-78616190D01*
X77971238Y-78711428D01*
X78066476Y-78806666D01*
X78114095Y-78901904D01*
X88423809Y-110151190D02*
X88423809Y-110627380D01*
X88090476Y-109627380D02*
X88423809Y-110151190D01*
X88757142Y-109627380D01*
X89614285Y-110627380D02*
X89042857Y-110627380D01*
X89328571Y-110627380D02*
X89328571Y-109627380D01*
X89233333Y-109770238D01*
X89138095Y-109865476D01*
X89042857Y-109913095D01*
X78412380Y-94883333D02*
X79126666Y-94883333D01*
X79269523Y-94930952D01*
X79364761Y-95026190D01*
X79412380Y-95169047D01*
X79412380Y-95264285D01*
X78507619Y-94454761D02*
X78460000Y-94407142D01*
X78412380Y-94311904D01*
X78412380Y-94073809D01*
X78460000Y-93978571D01*
X78507619Y-93930952D01*
X78602857Y-93883333D01*
X78698095Y-93883333D01*
X78840952Y-93930952D01*
X79412380Y-94502380D01*
X79412380Y-93883333D01*
X64941666Y-84378571D02*
X64608333Y-84378571D01*
X64608333Y-84902380D02*
X64608333Y-83902380D01*
X65084523Y-83902380D01*
X65989285Y-84902380D02*
X65417857Y-84902380D01*
X65703571Y-84902380D02*
X65703571Y-83902380D01*
X65608333Y-84045238D01*
X65513095Y-84140476D01*
X65417857Y-84188095D01*
X70264380Y-139636357D02*
X69788190Y-139969690D01*
X70264380Y-140207785D02*
X69264380Y-140207785D01*
X69264380Y-139826833D01*
X69312000Y-139731595D01*
X69359619Y-139683976D01*
X69454857Y-139636357D01*
X69597714Y-139636357D01*
X69692952Y-139683976D01*
X69740571Y-139731595D01*
X69788190Y-139826833D01*
X69788190Y-140207785D01*
X70264380Y-138683976D02*
X70264380Y-139255404D01*
X70264380Y-138969690D02*
X69264380Y-138969690D01*
X69407238Y-139064928D01*
X69502476Y-139160166D01*
X69550095Y-139255404D01*
X70264380Y-137731595D02*
X70264380Y-138303023D01*
X70264380Y-138017309D02*
X69264380Y-138017309D01*
X69407238Y-138112547D01*
X69502476Y-138207785D01*
X69550095Y-138303023D01*
X70052380Y-123162857D02*
X69576190Y-123496190D01*
X70052380Y-123734285D02*
X69052380Y-123734285D01*
X69052380Y-123353333D01*
X69100000Y-123258095D01*
X69147619Y-123210476D01*
X69242857Y-123162857D01*
X69385714Y-123162857D01*
X69480952Y-123210476D01*
X69528571Y-123258095D01*
X69576190Y-123353333D01*
X69576190Y-123734285D01*
X70052380Y-122210476D02*
X70052380Y-122781904D01*
X70052380Y-122496190D02*
X69052380Y-122496190D01*
X69195238Y-122591428D01*
X69290476Y-122686666D01*
X69338095Y-122781904D01*
X69052380Y-121591428D02*
X69052380Y-121496190D01*
X69100000Y-121400952D01*
X69147619Y-121353333D01*
X69242857Y-121305714D01*
X69433333Y-121258095D01*
X69671428Y-121258095D01*
X69861904Y-121305714D01*
X69957142Y-121353333D01*
X70004761Y-121400952D01*
X70052380Y-121496190D01*
X70052380Y-121591428D01*
X70004761Y-121686666D01*
X69957142Y-121734285D01*
X69861904Y-121781904D01*
X69671428Y-121829523D01*
X69433333Y-121829523D01*
X69242857Y-121781904D01*
X69147619Y-121734285D01*
X69100000Y-121686666D01*
X69052380Y-121591428D01*
X56199142Y-130528857D02*
X56246761Y-130576476D01*
X56294380Y-130719333D01*
X56294380Y-130814571D01*
X56246761Y-130957428D01*
X56151523Y-131052666D01*
X56056285Y-131100285D01*
X55865809Y-131147904D01*
X55722952Y-131147904D01*
X55532476Y-131100285D01*
X55437238Y-131052666D01*
X55342000Y-130957428D01*
X55294380Y-130814571D01*
X55294380Y-130719333D01*
X55342000Y-130576476D01*
X55389619Y-130528857D01*
X56294380Y-129576476D02*
X56294380Y-130147904D01*
X56294380Y-129862190D02*
X55294380Y-129862190D01*
X55437238Y-129957428D01*
X55532476Y-130052666D01*
X55580095Y-130147904D01*
X55294380Y-129243142D02*
X55294380Y-128576476D01*
X56294380Y-129005047D01*
X69915142Y-108684857D02*
X69962761Y-108732476D01*
X70010380Y-108875333D01*
X70010380Y-108970571D01*
X69962761Y-109113428D01*
X69867523Y-109208666D01*
X69772285Y-109256285D01*
X69581809Y-109303904D01*
X69438952Y-109303904D01*
X69248476Y-109256285D01*
X69153238Y-109208666D01*
X69058000Y-109113428D01*
X69010380Y-108970571D01*
X69010380Y-108875333D01*
X69058000Y-108732476D01*
X69105619Y-108684857D01*
X70010380Y-107732476D02*
X70010380Y-108303904D01*
X70010380Y-108018190D02*
X69010380Y-108018190D01*
X69153238Y-108113428D01*
X69248476Y-108208666D01*
X69296095Y-108303904D01*
X69010380Y-106875333D02*
X69010380Y-107065809D01*
X69058000Y-107161047D01*
X69105619Y-107208666D01*
X69248476Y-107303904D01*
X69438952Y-107351523D01*
X69819904Y-107351523D01*
X69915142Y-107303904D01*
X69962761Y-107256285D01*
X70010380Y-107161047D01*
X70010380Y-106970571D01*
X69962761Y-106875333D01*
X69915142Y-106827714D01*
X69819904Y-106780095D01*
X69581809Y-106780095D01*
X69486571Y-106827714D01*
X69438952Y-106875333D01*
X69391333Y-106970571D01*
X69391333Y-107161047D01*
X69438952Y-107256285D01*
X69486571Y-107303904D01*
X69581809Y-107351523D01*
X74487142Y-108684857D02*
X74534761Y-108732476D01*
X74582380Y-108875333D01*
X74582380Y-108970571D01*
X74534761Y-109113428D01*
X74439523Y-109208666D01*
X74344285Y-109256285D01*
X74153809Y-109303904D01*
X74010952Y-109303904D01*
X73820476Y-109256285D01*
X73725238Y-109208666D01*
X73630000Y-109113428D01*
X73582380Y-108970571D01*
X73582380Y-108875333D01*
X73630000Y-108732476D01*
X73677619Y-108684857D01*
X74582380Y-107732476D02*
X74582380Y-108303904D01*
X74582380Y-108018190D02*
X73582380Y-108018190D01*
X73725238Y-108113428D01*
X73820476Y-108208666D01*
X73868095Y-108303904D01*
X73582380Y-106827714D02*
X73582380Y-107303904D01*
X74058571Y-107351523D01*
X74010952Y-107303904D01*
X73963333Y-107208666D01*
X73963333Y-106970571D01*
X74010952Y-106875333D01*
X74058571Y-106827714D01*
X74153809Y-106780095D01*
X74391904Y-106780095D01*
X74487142Y-106827714D01*
X74534761Y-106875333D01*
X74582380Y-106970571D01*
X74582380Y-107208666D01*
X74534761Y-107303904D01*
X74487142Y-107351523D01*
X72201142Y-108684857D02*
X72248761Y-108732476D01*
X72296380Y-108875333D01*
X72296380Y-108970571D01*
X72248761Y-109113428D01*
X72153523Y-109208666D01*
X72058285Y-109256285D01*
X71867809Y-109303904D01*
X71724952Y-109303904D01*
X71534476Y-109256285D01*
X71439238Y-109208666D01*
X71344000Y-109113428D01*
X71296380Y-108970571D01*
X71296380Y-108875333D01*
X71344000Y-108732476D01*
X71391619Y-108684857D01*
X72296380Y-107732476D02*
X72296380Y-108303904D01*
X72296380Y-108018190D02*
X71296380Y-108018190D01*
X71439238Y-108113428D01*
X71534476Y-108208666D01*
X71582095Y-108303904D01*
X71629714Y-106875333D02*
X72296380Y-106875333D01*
X71248761Y-107113428D02*
X71963047Y-107351523D01*
X71963047Y-106732476D01*
X78551142Y-146022857D02*
X78598761Y-146070476D01*
X78646380Y-146213333D01*
X78646380Y-146308571D01*
X78598761Y-146451428D01*
X78503523Y-146546666D01*
X78408285Y-146594285D01*
X78217809Y-146641904D01*
X78074952Y-146641904D01*
X77884476Y-146594285D01*
X77789238Y-146546666D01*
X77694000Y-146451428D01*
X77646380Y-146308571D01*
X77646380Y-146213333D01*
X77694000Y-146070476D01*
X77741619Y-146022857D01*
X78646380Y-145070476D02*
X78646380Y-145641904D01*
X78646380Y-145356190D02*
X77646380Y-145356190D01*
X77789238Y-145451428D01*
X77884476Y-145546666D01*
X77932095Y-145641904D01*
X77646380Y-144737142D02*
X77646380Y-144118095D01*
X78027333Y-144451428D01*
X78027333Y-144308571D01*
X78074952Y-144213333D01*
X78122571Y-144165714D01*
X78217809Y-144118095D01*
X78455904Y-144118095D01*
X78551142Y-144165714D01*
X78598761Y-144213333D01*
X78646380Y-144308571D01*
X78646380Y-144594285D01*
X78598761Y-144689523D01*
X78551142Y-144737142D01*
X76392142Y-146022857D02*
X76439761Y-146070476D01*
X76487380Y-146213333D01*
X76487380Y-146308571D01*
X76439761Y-146451428D01*
X76344523Y-146546666D01*
X76249285Y-146594285D01*
X76058809Y-146641904D01*
X75915952Y-146641904D01*
X75725476Y-146594285D01*
X75630238Y-146546666D01*
X75535000Y-146451428D01*
X75487380Y-146308571D01*
X75487380Y-146213333D01*
X75535000Y-146070476D01*
X75582619Y-146022857D01*
X76487380Y-145070476D02*
X76487380Y-145641904D01*
X76487380Y-145356190D02*
X75487380Y-145356190D01*
X75630238Y-145451428D01*
X75725476Y-145546666D01*
X75773095Y-145641904D01*
X75582619Y-144689523D02*
X75535000Y-144641904D01*
X75487380Y-144546666D01*
X75487380Y-144308571D01*
X75535000Y-144213333D01*
X75582619Y-144165714D01*
X75677857Y-144118095D01*
X75773095Y-144118095D01*
X75915952Y-144165714D01*
X76487380Y-144737142D01*
X76487380Y-144118095D01*
X80837142Y-146022857D02*
X80884761Y-146070476D01*
X80932380Y-146213333D01*
X80932380Y-146308571D01*
X80884761Y-146451428D01*
X80789523Y-146546666D01*
X80694285Y-146594285D01*
X80503809Y-146641904D01*
X80360952Y-146641904D01*
X80170476Y-146594285D01*
X80075238Y-146546666D01*
X79980000Y-146451428D01*
X79932380Y-146308571D01*
X79932380Y-146213333D01*
X79980000Y-146070476D01*
X80027619Y-146022857D01*
X80932380Y-145070476D02*
X80932380Y-145641904D01*
X80932380Y-145356190D02*
X79932380Y-145356190D01*
X80075238Y-145451428D01*
X80170476Y-145546666D01*
X80218095Y-145641904D01*
X80932380Y-144118095D02*
X80932380Y-144689523D01*
X80932380Y-144403809D02*
X79932380Y-144403809D01*
X80075238Y-144499047D01*
X80170476Y-144594285D01*
X80218095Y-144689523D01*
X90251142Y-143292380D02*
X89917809Y-142816190D01*
X89679714Y-143292380D02*
X89679714Y-142292380D01*
X90060666Y-142292380D01*
X90155904Y-142340000D01*
X90203523Y-142387619D01*
X90251142Y-142482857D01*
X90251142Y-142625714D01*
X90203523Y-142720952D01*
X90155904Y-142768571D01*
X90060666Y-142816190D01*
X89679714Y-142816190D01*
X91203523Y-143292380D02*
X90632095Y-143292380D01*
X90917809Y-143292380D02*
X90917809Y-142292380D01*
X90822571Y-142435238D01*
X90727333Y-142530476D01*
X90632095Y-142578095D01*
X91536857Y-142292380D02*
X92203523Y-142292380D01*
X91774952Y-143292380D01*
X90251142Y-118612380D02*
X89917809Y-118136190D01*
X89679714Y-118612380D02*
X89679714Y-117612380D01*
X90060666Y-117612380D01*
X90155904Y-117660000D01*
X90203523Y-117707619D01*
X90251142Y-117802857D01*
X90251142Y-117945714D01*
X90203523Y-118040952D01*
X90155904Y-118088571D01*
X90060666Y-118136190D01*
X89679714Y-118136190D01*
X91203523Y-118612380D02*
X90632095Y-118612380D01*
X90917809Y-118612380D02*
X90917809Y-117612380D01*
X90822571Y-117755238D01*
X90727333Y-117850476D01*
X90632095Y-117898095D01*
X92060666Y-117612380D02*
X91870190Y-117612380D01*
X91774952Y-117660000D01*
X91727333Y-117707619D01*
X91632095Y-117850476D01*
X91584476Y-118040952D01*
X91584476Y-118421904D01*
X91632095Y-118517142D01*
X91679714Y-118564761D01*
X91774952Y-118612380D01*
X91965428Y-118612380D01*
X92060666Y-118564761D01*
X92108285Y-118517142D01*
X92155904Y-118421904D01*
X92155904Y-118183809D01*
X92108285Y-118088571D01*
X92060666Y-118040952D01*
X91965428Y-117993333D01*
X91774952Y-117993333D01*
X91679714Y-118040952D01*
X91632095Y-118088571D01*
X91584476Y-118183809D01*
X99903142Y-124030380D02*
X99569809Y-123554190D01*
X99331714Y-124030380D02*
X99331714Y-123030380D01*
X99712666Y-123030380D01*
X99807904Y-123078000D01*
X99855523Y-123125619D01*
X99903142Y-123220857D01*
X99903142Y-123363714D01*
X99855523Y-123458952D01*
X99807904Y-123506571D01*
X99712666Y-123554190D01*
X99331714Y-123554190D01*
X100855523Y-124030380D02*
X100284095Y-124030380D01*
X100569809Y-124030380D02*
X100569809Y-123030380D01*
X100474571Y-123173238D01*
X100379333Y-123268476D01*
X100284095Y-123316095D01*
X101760285Y-123030380D02*
X101284095Y-123030380D01*
X101236476Y-123506571D01*
X101284095Y-123458952D01*
X101379333Y-123411333D01*
X101617428Y-123411333D01*
X101712666Y-123458952D01*
X101760285Y-123506571D01*
X101807904Y-123601809D01*
X101807904Y-123839904D01*
X101760285Y-123935142D01*
X101712666Y-123982761D01*
X101617428Y-124030380D01*
X101379333Y-124030380D01*
X101284095Y-123982761D01*
X101236476Y-123935142D01*
X103982142Y-136652380D02*
X103648809Y-136176190D01*
X103410714Y-136652380D02*
X103410714Y-135652380D01*
X103791666Y-135652380D01*
X103886904Y-135700000D01*
X103934523Y-135747619D01*
X103982142Y-135842857D01*
X103982142Y-135985714D01*
X103934523Y-136080952D01*
X103886904Y-136128571D01*
X103791666Y-136176190D01*
X103410714Y-136176190D01*
X104934523Y-136652380D02*
X104363095Y-136652380D01*
X104648809Y-136652380D02*
X104648809Y-135652380D01*
X104553571Y-135795238D01*
X104458333Y-135890476D01*
X104363095Y-135938095D01*
X105791666Y-135985714D02*
X105791666Y-136652380D01*
X105553571Y-135604761D02*
X105315476Y-136319047D01*
X105934523Y-136319047D01*
X104007142Y-138952380D02*
X103673809Y-138476190D01*
X103435714Y-138952380D02*
X103435714Y-137952380D01*
X103816666Y-137952380D01*
X103911904Y-138000000D01*
X103959523Y-138047619D01*
X104007142Y-138142857D01*
X104007142Y-138285714D01*
X103959523Y-138380952D01*
X103911904Y-138428571D01*
X103816666Y-138476190D01*
X103435714Y-138476190D01*
X104959523Y-138952380D02*
X104388095Y-138952380D01*
X104673809Y-138952380D02*
X104673809Y-137952380D01*
X104578571Y-138095238D01*
X104483333Y-138190476D01*
X104388095Y-138238095D01*
X105292857Y-137952380D02*
X105911904Y-137952380D01*
X105578571Y-138333333D01*
X105721428Y-138333333D01*
X105816666Y-138380952D01*
X105864285Y-138428571D01*
X105911904Y-138523809D01*
X105911904Y-138761904D01*
X105864285Y-138857142D01*
X105816666Y-138904761D01*
X105721428Y-138952380D01*
X105435714Y-138952380D01*
X105340476Y-138904761D01*
X105292857Y-138857142D01*
X99903142Y-118104380D02*
X99569809Y-117628190D01*
X99331714Y-118104380D02*
X99331714Y-117104380D01*
X99712666Y-117104380D01*
X99807904Y-117152000D01*
X99855523Y-117199619D01*
X99903142Y-117294857D01*
X99903142Y-117437714D01*
X99855523Y-117532952D01*
X99807904Y-117580571D01*
X99712666Y-117628190D01*
X99331714Y-117628190D01*
X100855523Y-118104380D02*
X100284095Y-118104380D01*
X100569809Y-118104380D02*
X100569809Y-117104380D01*
X100474571Y-117247238D01*
X100379333Y-117342476D01*
X100284095Y-117390095D01*
X101236476Y-117199619D02*
X101284095Y-117152000D01*
X101379333Y-117104380D01*
X101617428Y-117104380D01*
X101712666Y-117152000D01*
X101760285Y-117199619D01*
X101807904Y-117294857D01*
X101807904Y-117390095D01*
X101760285Y-117532952D01*
X101188857Y-118104380D01*
X101807904Y-118104380D01*
X104713142Y-126718857D02*
X104760761Y-126766476D01*
X104808380Y-126909333D01*
X104808380Y-127004571D01*
X104760761Y-127147428D01*
X104665523Y-127242666D01*
X104570285Y-127290285D01*
X104379809Y-127337904D01*
X104236952Y-127337904D01*
X104046476Y-127290285D01*
X103951238Y-127242666D01*
X103856000Y-127147428D01*
X103808380Y-127004571D01*
X103808380Y-126909333D01*
X103856000Y-126766476D01*
X103903619Y-126718857D01*
X104808380Y-125766476D02*
X104808380Y-126337904D01*
X104808380Y-126052190D02*
X103808380Y-126052190D01*
X103951238Y-126147428D01*
X104046476Y-126242666D01*
X104094095Y-126337904D01*
X103808380Y-125147428D02*
X103808380Y-125052190D01*
X103856000Y-124956952D01*
X103903619Y-124909333D01*
X103998857Y-124861714D01*
X104189333Y-124814095D01*
X104427428Y-124814095D01*
X104617904Y-124861714D01*
X104713142Y-124909333D01*
X104760761Y-124956952D01*
X104808380Y-125052190D01*
X104808380Y-125147428D01*
X104760761Y-125242666D01*
X104713142Y-125290285D01*
X104617904Y-125337904D01*
X104427428Y-125385523D01*
X104189333Y-125385523D01*
X103998857Y-125337904D01*
X103903619Y-125290285D01*
X103856000Y-125242666D01*
X103808380Y-125147428D01*
X114417642Y-140286380D02*
X114084309Y-139810190D01*
X113846214Y-140286380D02*
X113846214Y-139286380D01*
X114227166Y-139286380D01*
X114322404Y-139334000D01*
X114370023Y-139381619D01*
X114417642Y-139476857D01*
X114417642Y-139619714D01*
X114370023Y-139714952D01*
X114322404Y-139762571D01*
X114227166Y-139810190D01*
X113846214Y-139810190D01*
X114798595Y-139381619D02*
X114846214Y-139334000D01*
X114941452Y-139286380D01*
X115179547Y-139286380D01*
X115274785Y-139334000D01*
X115322404Y-139381619D01*
X115370023Y-139476857D01*
X115370023Y-139572095D01*
X115322404Y-139714952D01*
X114750976Y-140286380D01*
X115370023Y-140286380D01*
X116322404Y-140286380D02*
X115750976Y-140286380D01*
X116036690Y-140286380D02*
X116036690Y-139286380D01*
X115941452Y-139429238D01*
X115846214Y-139524476D01*
X115750976Y-139572095D01*
X114381142Y-146086380D02*
X114047809Y-145610190D01*
X113809714Y-146086380D02*
X113809714Y-145086380D01*
X114190666Y-145086380D01*
X114285904Y-145134000D01*
X114333523Y-145181619D01*
X114381142Y-145276857D01*
X114381142Y-145419714D01*
X114333523Y-145514952D01*
X114285904Y-145562571D01*
X114190666Y-145610190D01*
X113809714Y-145610190D01*
X114762095Y-145181619D02*
X114809714Y-145134000D01*
X114904952Y-145086380D01*
X115143047Y-145086380D01*
X115238285Y-145134000D01*
X115285904Y-145181619D01*
X115333523Y-145276857D01*
X115333523Y-145372095D01*
X115285904Y-145514952D01*
X114714476Y-146086380D01*
X115333523Y-146086380D01*
X115952571Y-145086380D02*
X116047809Y-145086380D01*
X116143047Y-145134000D01*
X116190666Y-145181619D01*
X116238285Y-145276857D01*
X116285904Y-145467333D01*
X116285904Y-145705428D01*
X116238285Y-145895904D01*
X116190666Y-145991142D01*
X116143047Y-146038761D01*
X116047809Y-146086380D01*
X115952571Y-146086380D01*
X115857333Y-146038761D01*
X115809714Y-145991142D01*
X115762095Y-145895904D01*
X115714476Y-145705428D01*
X115714476Y-145467333D01*
X115762095Y-145276857D01*
X115809714Y-145181619D01*
X115857333Y-145134000D01*
X115952571Y-145086380D01*
X114381142Y-131904380D02*
X114047809Y-131428190D01*
X113809714Y-131904380D02*
X113809714Y-130904380D01*
X114190666Y-130904380D01*
X114285904Y-130952000D01*
X114333523Y-130999619D01*
X114381142Y-131094857D01*
X114381142Y-131237714D01*
X114333523Y-131332952D01*
X114285904Y-131380571D01*
X114190666Y-131428190D01*
X113809714Y-131428190D01*
X115333523Y-131904380D02*
X114762095Y-131904380D01*
X115047809Y-131904380D02*
X115047809Y-130904380D01*
X114952571Y-131047238D01*
X114857333Y-131142476D01*
X114762095Y-131190095D01*
X115809714Y-131904380D02*
X116000190Y-131904380D01*
X116095428Y-131856761D01*
X116143047Y-131809142D01*
X116238285Y-131666285D01*
X116285904Y-131475809D01*
X116285904Y-131094857D01*
X116238285Y-130999619D01*
X116190666Y-130952000D01*
X116095428Y-130904380D01*
X115904952Y-130904380D01*
X115809714Y-130952000D01*
X115762095Y-130999619D01*
X115714476Y-131094857D01*
X115714476Y-131332952D01*
X115762095Y-131428190D01*
X115809714Y-131475809D01*
X115904952Y-131523428D01*
X116095428Y-131523428D01*
X116190666Y-131475809D01*
X116238285Y-131428190D01*
X116285904Y-131332952D01*
X114635142Y-124792380D02*
X114301809Y-124316190D01*
X114063714Y-124792380D02*
X114063714Y-123792380D01*
X114444666Y-123792380D01*
X114539904Y-123840000D01*
X114587523Y-123887619D01*
X114635142Y-123982857D01*
X114635142Y-124125714D01*
X114587523Y-124220952D01*
X114539904Y-124268571D01*
X114444666Y-124316190D01*
X114063714Y-124316190D01*
X115587523Y-124792380D02*
X115016095Y-124792380D01*
X115301809Y-124792380D02*
X115301809Y-123792380D01*
X115206571Y-123935238D01*
X115111333Y-124030476D01*
X115016095Y-124078095D01*
X116158952Y-124220952D02*
X116063714Y-124173333D01*
X116016095Y-124125714D01*
X115968476Y-124030476D01*
X115968476Y-123982857D01*
X116016095Y-123887619D01*
X116063714Y-123840000D01*
X116158952Y-123792380D01*
X116349428Y-123792380D01*
X116444666Y-123840000D01*
X116492285Y-123887619D01*
X116539904Y-123982857D01*
X116539904Y-124030476D01*
X116492285Y-124125714D01*
X116444666Y-124173333D01*
X116349428Y-124220952D01*
X116158952Y-124220952D01*
X116063714Y-124268571D01*
X116016095Y-124316190D01*
X115968476Y-124411428D01*
X115968476Y-124601904D01*
X116016095Y-124697142D01*
X116063714Y-124744761D01*
X116158952Y-124792380D01*
X116349428Y-124792380D01*
X116444666Y-124744761D01*
X116492285Y-124697142D01*
X116539904Y-124601904D01*
X116539904Y-124411428D01*
X116492285Y-124316190D01*
X116444666Y-124268571D01*
X116349428Y-124220952D01*
X108475714Y-140244380D02*
X108475714Y-139244380D01*
X108713809Y-139244380D01*
X108856666Y-139292000D01*
X108951904Y-139387238D01*
X108999523Y-139482476D01*
X109047142Y-139672952D01*
X109047142Y-139815809D01*
X108999523Y-140006285D01*
X108951904Y-140101523D01*
X108856666Y-140196761D01*
X108713809Y-140244380D01*
X108475714Y-140244380D01*
X109999523Y-140244380D02*
X109428095Y-140244380D01*
X109713809Y-140244380D02*
X109713809Y-139244380D01*
X109618571Y-139387238D01*
X109523333Y-139482476D01*
X109428095Y-139530095D01*
X110856666Y-139244380D02*
X110666190Y-139244380D01*
X110570952Y-139292000D01*
X110523333Y-139339619D01*
X110428095Y-139482476D01*
X110380476Y-139672952D01*
X110380476Y-140053904D01*
X110428095Y-140149142D01*
X110475714Y-140196761D01*
X110570952Y-140244380D01*
X110761428Y-140244380D01*
X110856666Y-140196761D01*
X110904285Y-140149142D01*
X110951904Y-140053904D01*
X110951904Y-139815809D01*
X110904285Y-139720571D01*
X110856666Y-139672952D01*
X110761428Y-139625333D01*
X110570952Y-139625333D01*
X110475714Y-139672952D01*
X110428095Y-139720571D01*
X110380476Y-139815809D01*
X108475714Y-146086380D02*
X108475714Y-145086380D01*
X108713809Y-145086380D01*
X108856666Y-145134000D01*
X108951904Y-145229238D01*
X108999523Y-145324476D01*
X109047142Y-145514952D01*
X109047142Y-145657809D01*
X108999523Y-145848285D01*
X108951904Y-145943523D01*
X108856666Y-146038761D01*
X108713809Y-146086380D01*
X108475714Y-146086380D01*
X109999523Y-146086380D02*
X109428095Y-146086380D01*
X109713809Y-146086380D02*
X109713809Y-145086380D01*
X109618571Y-145229238D01*
X109523333Y-145324476D01*
X109428095Y-145372095D01*
X110904285Y-145086380D02*
X110428095Y-145086380D01*
X110380476Y-145562571D01*
X110428095Y-145514952D01*
X110523333Y-145467333D01*
X110761428Y-145467333D01*
X110856666Y-145514952D01*
X110904285Y-145562571D01*
X110951904Y-145657809D01*
X110951904Y-145895904D01*
X110904285Y-145991142D01*
X110856666Y-146038761D01*
X110761428Y-146086380D01*
X110523333Y-146086380D01*
X110428095Y-146038761D01*
X110380476Y-145991142D01*
X108475714Y-132116380D02*
X108475714Y-131116380D01*
X108713809Y-131116380D01*
X108856666Y-131164000D01*
X108951904Y-131259238D01*
X108999523Y-131354476D01*
X109047142Y-131544952D01*
X109047142Y-131687809D01*
X108999523Y-131878285D01*
X108951904Y-131973523D01*
X108856666Y-132068761D01*
X108713809Y-132116380D01*
X108475714Y-132116380D01*
X109999523Y-132116380D02*
X109428095Y-132116380D01*
X109713809Y-132116380D02*
X109713809Y-131116380D01*
X109618571Y-131259238D01*
X109523333Y-131354476D01*
X109428095Y-131402095D01*
X110856666Y-131449714D02*
X110856666Y-132116380D01*
X110618571Y-131068761D02*
X110380476Y-131783047D01*
X110999523Y-131783047D01*
X108475714Y-125004380D02*
X108475714Y-124004380D01*
X108713809Y-124004380D01*
X108856666Y-124052000D01*
X108951904Y-124147238D01*
X108999523Y-124242476D01*
X109047142Y-124432952D01*
X109047142Y-124575809D01*
X108999523Y-124766285D01*
X108951904Y-124861523D01*
X108856666Y-124956761D01*
X108713809Y-125004380D01*
X108475714Y-125004380D01*
X109999523Y-125004380D02*
X109428095Y-125004380D01*
X109713809Y-125004380D02*
X109713809Y-124004380D01*
X109618571Y-124147238D01*
X109523333Y-124242476D01*
X109428095Y-124290095D01*
X110332857Y-124004380D02*
X110951904Y-124004380D01*
X110618571Y-124385333D01*
X110761428Y-124385333D01*
X110856666Y-124432952D01*
X110904285Y-124480571D01*
X110951904Y-124575809D01*
X110951904Y-124813904D01*
X110904285Y-124909142D01*
X110856666Y-124956761D01*
X110761428Y-125004380D01*
X110475714Y-125004380D01*
X110380476Y-124956761D01*
X110332857Y-124909142D01*
X56564380Y-90389333D02*
X57278666Y-90389333D01*
X57421523Y-90436952D01*
X57516761Y-90532190D01*
X57564380Y-90675047D01*
X57564380Y-90770285D01*
X57564380Y-89389333D02*
X57564380Y-89960761D01*
X57564380Y-89675047D02*
X56564380Y-89675047D01*
X56707238Y-89770285D01*
X56802476Y-89865523D01*
X56850095Y-89960761D01*
X55176666Y-122052380D02*
X55176666Y-122766666D01*
X55129047Y-122909523D01*
X55033809Y-123004761D01*
X54890952Y-123052380D01*
X54795714Y-123052380D01*
X55795714Y-122480952D02*
X55700476Y-122433333D01*
X55652857Y-122385714D01*
X55605238Y-122290476D01*
X55605238Y-122242857D01*
X55652857Y-122147619D01*
X55700476Y-122100000D01*
X55795714Y-122052380D01*
X55986190Y-122052380D01*
X56081428Y-122100000D01*
X56129047Y-122147619D01*
X56176666Y-122242857D01*
X56176666Y-122290476D01*
X56129047Y-122385714D01*
X56081428Y-122433333D01*
X55986190Y-122480952D01*
X55795714Y-122480952D01*
X55700476Y-122528571D01*
X55652857Y-122576190D01*
X55605238Y-122671428D01*
X55605238Y-122861904D01*
X55652857Y-122957142D01*
X55700476Y-123004761D01*
X55795714Y-123052380D01*
X55986190Y-123052380D01*
X56081428Y-123004761D01*
X56129047Y-122957142D01*
X56176666Y-122861904D01*
X56176666Y-122671428D01*
X56129047Y-122576190D01*
X56081428Y-122528571D01*
X55986190Y-122480952D01*
X140130380Y-136349523D02*
X140844666Y-136349523D01*
X140987523Y-136397142D01*
X141082761Y-136492380D01*
X141130380Y-136635238D01*
X141130380Y-136730476D01*
X141130380Y-135349523D02*
X141130380Y-135920952D01*
X141130380Y-135635238D02*
X140130380Y-135635238D01*
X140273238Y-135730476D01*
X140368476Y-135825714D01*
X140416095Y-135920952D01*
X140130380Y-134730476D02*
X140130380Y-134635238D01*
X140178000Y-134540000D01*
X140225619Y-134492380D01*
X140320857Y-134444761D01*
X140511333Y-134397142D01*
X140749428Y-134397142D01*
X140939904Y-134444761D01*
X141035142Y-134492380D01*
X141082761Y-134540000D01*
X141130380Y-134635238D01*
X141130380Y-134730476D01*
X141082761Y-134825714D01*
X141035142Y-134873333D01*
X140939904Y-134920952D01*
X140749428Y-134968571D01*
X140511333Y-134968571D01*
X140320857Y-134920952D01*
X140225619Y-134873333D01*
X140178000Y-134825714D01*
X140130380Y-134730476D01*
X140130380Y-122873333D02*
X140844666Y-122873333D01*
X140987523Y-122920952D01*
X141082761Y-123016190D01*
X141130380Y-123159047D01*
X141130380Y-123254285D01*
X141130380Y-122349523D02*
X141130380Y-122159047D01*
X141082761Y-122063809D01*
X141035142Y-122016190D01*
X140892285Y-121920952D01*
X140701809Y-121873333D01*
X140320857Y-121873333D01*
X140225619Y-121920952D01*
X140178000Y-121968571D01*
X140130380Y-122063809D01*
X140130380Y-122254285D01*
X140178000Y-122349523D01*
X140225619Y-122397142D01*
X140320857Y-122444761D01*
X140558952Y-122444761D01*
X140654190Y-122397142D01*
X140701809Y-122349523D01*
X140749428Y-122254285D01*
X140749428Y-122063809D01*
X140701809Y-121968571D01*
X140654190Y-121920952D01*
X140558952Y-121873333D01*
X96916666Y-67501761D02*
X97059523Y-67549380D01*
X97297619Y-67549380D01*
X97392857Y-67501761D01*
X97440476Y-67454142D01*
X97488095Y-67358904D01*
X97488095Y-67263666D01*
X97440476Y-67168428D01*
X97392857Y-67120809D01*
X97297619Y-67073190D01*
X97107142Y-67025571D01*
X97011904Y-66977952D01*
X96964285Y-66930333D01*
X96916666Y-66835095D01*
X96916666Y-66739857D01*
X96964285Y-66644619D01*
X97011904Y-66597000D01*
X97107142Y-66549380D01*
X97345238Y-66549380D01*
X97488095Y-66597000D01*
X97821428Y-66549380D02*
X98059523Y-67549380D01*
X98250000Y-66835095D01*
X98440476Y-67549380D01*
X98678571Y-66549380D01*
X99583333Y-67549380D02*
X99011904Y-67549380D01*
X99297619Y-67549380D02*
X99297619Y-66549380D01*
X99202380Y-66692238D01*
X99107142Y-66787476D01*
X99011904Y-66835095D01*
X59601333Y-71464380D02*
X59268000Y-70988190D01*
X59029904Y-71464380D02*
X59029904Y-70464380D01*
X59410857Y-70464380D01*
X59506095Y-70512000D01*
X59553714Y-70559619D01*
X59601333Y-70654857D01*
X59601333Y-70797714D01*
X59553714Y-70892952D01*
X59506095Y-70940571D01*
X59410857Y-70988190D01*
X59029904Y-70988190D01*
X59934666Y-70464380D02*
X60601333Y-70464380D01*
X60172761Y-71464380D01*
X74333333Y-71464380D02*
X74000000Y-70988190D01*
X73761904Y-71464380D02*
X73761904Y-70464380D01*
X74142857Y-70464380D01*
X74238095Y-70512000D01*
X74285714Y-70559619D01*
X74333333Y-70654857D01*
X74333333Y-70797714D01*
X74285714Y-70892952D01*
X74238095Y-70940571D01*
X74142857Y-70988190D01*
X73761904Y-70988190D01*
X75190476Y-70464380D02*
X75000000Y-70464380D01*
X74904761Y-70512000D01*
X74857142Y-70559619D01*
X74761904Y-70702476D01*
X74714285Y-70892952D01*
X74714285Y-71273904D01*
X74761904Y-71369142D01*
X74809523Y-71416761D01*
X74904761Y-71464380D01*
X75095238Y-71464380D01*
X75190476Y-71416761D01*
X75238095Y-71369142D01*
X75285714Y-71273904D01*
X75285714Y-71035809D01*
X75238095Y-70940571D01*
X75190476Y-70892952D01*
X75095238Y-70845333D01*
X74904761Y-70845333D01*
X74809523Y-70892952D01*
X74761904Y-70940571D01*
X74714285Y-71035809D01*
X90035333Y-82037380D02*
X89702000Y-81561190D01*
X89463904Y-82037380D02*
X89463904Y-81037380D01*
X89844857Y-81037380D01*
X89940095Y-81085000D01*
X89987714Y-81132619D01*
X90035333Y-81227857D01*
X90035333Y-81370714D01*
X89987714Y-81465952D01*
X89940095Y-81513571D01*
X89844857Y-81561190D01*
X89463904Y-81561190D01*
X90892476Y-81370714D02*
X90892476Y-82037380D01*
X90654380Y-80989761D02*
X90416285Y-81704047D01*
X91035333Y-81704047D01*
X65660833Y-95086380D02*
X65327500Y-94610190D01*
X65089404Y-95086380D02*
X65089404Y-94086380D01*
X65470357Y-94086380D01*
X65565595Y-94134000D01*
X65613214Y-94181619D01*
X65660833Y-94276857D01*
X65660833Y-94419714D01*
X65613214Y-94514952D01*
X65565595Y-94562571D01*
X65470357Y-94610190D01*
X65089404Y-94610190D01*
X65994166Y-94086380D02*
X66613214Y-94086380D01*
X66279880Y-94467333D01*
X66422738Y-94467333D01*
X66517976Y-94514952D01*
X66565595Y-94562571D01*
X66613214Y-94657809D01*
X66613214Y-94895904D01*
X66565595Y-94991142D01*
X66517976Y-95038761D01*
X66422738Y-95086380D01*
X66137023Y-95086380D01*
X66041785Y-95038761D01*
X65994166Y-94991142D01*
X65327333Y-88730380D02*
X64994000Y-88254190D01*
X64755904Y-88730380D02*
X64755904Y-87730380D01*
X65136857Y-87730380D01*
X65232095Y-87778000D01*
X65279714Y-87825619D01*
X65327333Y-87920857D01*
X65327333Y-88063714D01*
X65279714Y-88158952D01*
X65232095Y-88206571D01*
X65136857Y-88254190D01*
X64755904Y-88254190D01*
X65708285Y-87825619D02*
X65755904Y-87778000D01*
X65851142Y-87730380D01*
X66089238Y-87730380D01*
X66184476Y-87778000D01*
X66232095Y-87825619D01*
X66279714Y-87920857D01*
X66279714Y-88016095D01*
X66232095Y-88158952D01*
X65660666Y-88730380D01*
X66279714Y-88730380D01*
X115002380Y-74630666D02*
X114526190Y-74964000D01*
X115002380Y-75202095D02*
X114002380Y-75202095D01*
X114002380Y-74821142D01*
X114050000Y-74725904D01*
X114097619Y-74678285D01*
X114192857Y-74630666D01*
X114335714Y-74630666D01*
X114430952Y-74678285D01*
X114478571Y-74725904D01*
X114526190Y-74821142D01*
X114526190Y-75202095D01*
X115002380Y-74154476D02*
X115002380Y-73964000D01*
X114954761Y-73868761D01*
X114907142Y-73821142D01*
X114764285Y-73725904D01*
X114573809Y-73678285D01*
X114192857Y-73678285D01*
X114097619Y-73725904D01*
X114050000Y-73773523D01*
X114002380Y-73868761D01*
X114002380Y-74059238D01*
X114050000Y-74154476D01*
X114097619Y-74202095D01*
X114192857Y-74249714D01*
X114430952Y-74249714D01*
X114526190Y-74202095D01*
X114573809Y-74154476D01*
X114621428Y-74059238D01*
X114621428Y-73868761D01*
X114573809Y-73773523D01*
X114526190Y-73725904D01*
X114430952Y-73678285D01*
X83827433Y-104685380D02*
X83494100Y-104209190D01*
X83256004Y-104685380D02*
X83256004Y-103685380D01*
X83636957Y-103685380D01*
X83732195Y-103733000D01*
X83779814Y-103780619D01*
X83827433Y-103875857D01*
X83827433Y-104018714D01*
X83779814Y-104113952D01*
X83732195Y-104161571D01*
X83636957Y-104209190D01*
X83256004Y-104209190D01*
X84398861Y-104113952D02*
X84303623Y-104066333D01*
X84256004Y-104018714D01*
X84208385Y-103923476D01*
X84208385Y-103875857D01*
X84256004Y-103780619D01*
X84303623Y-103733000D01*
X84398861Y-103685380D01*
X84589338Y-103685380D01*
X84684576Y-103733000D01*
X84732195Y-103780619D01*
X84779814Y-103875857D01*
X84779814Y-103923476D01*
X84732195Y-104018714D01*
X84684576Y-104066333D01*
X84589338Y-104113952D01*
X84398861Y-104113952D01*
X84303623Y-104161571D01*
X84256004Y-104209190D01*
X84208385Y-104304428D01*
X84208385Y-104494904D01*
X84256004Y-104590142D01*
X84303623Y-104637761D01*
X84398861Y-104685380D01*
X84589338Y-104685380D01*
X84684576Y-104637761D01*
X84732195Y-104590142D01*
X84779814Y-104494904D01*
X84779814Y-104304428D01*
X84732195Y-104209190D01*
X84684576Y-104161571D01*
X84589338Y-104113952D01*
X59029904Y-68416380D02*
X59029904Y-67416380D01*
X59268000Y-67416380D01*
X59410857Y-67464000D01*
X59506095Y-67559238D01*
X59553714Y-67654476D01*
X59601333Y-67844952D01*
X59601333Y-67987809D01*
X59553714Y-68178285D01*
X59506095Y-68273523D01*
X59410857Y-68368761D01*
X59268000Y-68416380D01*
X59029904Y-68416380D01*
X59934666Y-67416380D02*
X60553714Y-67416380D01*
X60220380Y-67797333D01*
X60363238Y-67797333D01*
X60458476Y-67844952D01*
X60506095Y-67892571D01*
X60553714Y-67987809D01*
X60553714Y-68225904D01*
X60506095Y-68321142D01*
X60458476Y-68368761D01*
X60363238Y-68416380D01*
X60077523Y-68416380D01*
X59982285Y-68368761D01*
X59934666Y-68321142D01*
X73761904Y-68416380D02*
X73761904Y-67416380D01*
X74000000Y-67416380D01*
X74142857Y-67464000D01*
X74238095Y-67559238D01*
X74285714Y-67654476D01*
X74333333Y-67844952D01*
X74333333Y-67987809D01*
X74285714Y-68178285D01*
X74238095Y-68273523D01*
X74142857Y-68368761D01*
X74000000Y-68416380D01*
X73761904Y-68416380D01*
X74714285Y-67511619D02*
X74761904Y-67464000D01*
X74857142Y-67416380D01*
X75095238Y-67416380D01*
X75190476Y-67464000D01*
X75238095Y-67511619D01*
X75285714Y-67606857D01*
X75285714Y-67702095D01*
X75238095Y-67844952D01*
X74666666Y-68416380D01*
X75285714Y-68416380D01*
X111477380Y-75127095D02*
X110477380Y-75127095D01*
X110477380Y-74889000D01*
X110525000Y-74746142D01*
X110620238Y-74650904D01*
X110715476Y-74603285D01*
X110905952Y-74555666D01*
X111048809Y-74555666D01*
X111239285Y-74603285D01*
X111334523Y-74650904D01*
X111429761Y-74746142D01*
X111477380Y-74889000D01*
X111477380Y-75127095D01*
X110810714Y-73698523D02*
X111477380Y-73698523D01*
X110429761Y-73936619D02*
X111144047Y-74174714D01*
X111144047Y-73555666D01*
X73491833Y-86815142D02*
X73444214Y-86862761D01*
X73301357Y-86910380D01*
X73206119Y-86910380D01*
X73063261Y-86862761D01*
X72968023Y-86767523D01*
X72920404Y-86672285D01*
X72872785Y-86481809D01*
X72872785Y-86338952D01*
X72920404Y-86148476D01*
X72968023Y-86053238D01*
X73063261Y-85958000D01*
X73206119Y-85910380D01*
X73301357Y-85910380D01*
X73444214Y-85958000D01*
X73491833Y-86005619D01*
X74348976Y-85910380D02*
X74158500Y-85910380D01*
X74063261Y-85958000D01*
X74015642Y-86005619D01*
X73920404Y-86148476D01*
X73872785Y-86338952D01*
X73872785Y-86719904D01*
X73920404Y-86815142D01*
X73968023Y-86862761D01*
X74063261Y-86910380D01*
X74253738Y-86910380D01*
X74348976Y-86862761D01*
X74396595Y-86815142D01*
X74444214Y-86719904D01*
X74444214Y-86481809D01*
X74396595Y-86386571D01*
X74348976Y-86338952D01*
X74253738Y-86291333D01*
X74063261Y-86291333D01*
X73968023Y-86338952D01*
X73920404Y-86386571D01*
X73872785Y-86481809D01*
X60363333Y-74671142D02*
X60315714Y-74718761D01*
X60172857Y-74766380D01*
X60077619Y-74766380D01*
X59934761Y-74718761D01*
X59839523Y-74623523D01*
X59791904Y-74528285D01*
X59744285Y-74337809D01*
X59744285Y-74194952D01*
X59791904Y-74004476D01*
X59839523Y-73909238D01*
X59934761Y-73814000D01*
X60077619Y-73766380D01*
X60172857Y-73766380D01*
X60315714Y-73814000D01*
X60363333Y-73861619D01*
X61268095Y-73766380D02*
X60791904Y-73766380D01*
X60744285Y-74242571D01*
X60791904Y-74194952D01*
X60887142Y-74147333D01*
X61125238Y-74147333D01*
X61220476Y-74194952D01*
X61268095Y-74242571D01*
X61315714Y-74337809D01*
X61315714Y-74575904D01*
X61268095Y-74671142D01*
X61220476Y-74718761D01*
X61125238Y-74766380D01*
X60887142Y-74766380D01*
X60791904Y-74718761D01*
X60744285Y-74671142D01*
X65443333Y-97531142D02*
X65395714Y-97578761D01*
X65252857Y-97626380D01*
X65157619Y-97626380D01*
X65014761Y-97578761D01*
X64919523Y-97483523D01*
X64871904Y-97388285D01*
X64824285Y-97197809D01*
X64824285Y-97054952D01*
X64871904Y-96864476D01*
X64919523Y-96769238D01*
X65014761Y-96674000D01*
X65157619Y-96626380D01*
X65252857Y-96626380D01*
X65395714Y-96674000D01*
X65443333Y-96721619D01*
X66300476Y-96959714D02*
X66300476Y-97626380D01*
X66062380Y-96578761D02*
X65824285Y-97293047D01*
X66443333Y-97293047D01*
X59093333Y-82291142D02*
X59045714Y-82338761D01*
X58902857Y-82386380D01*
X58807619Y-82386380D01*
X58664761Y-82338761D01*
X58569523Y-82243523D01*
X58521904Y-82148285D01*
X58474285Y-81957809D01*
X58474285Y-81814952D01*
X58521904Y-81624476D01*
X58569523Y-81529238D01*
X58664761Y-81434000D01*
X58807619Y-81386380D01*
X58902857Y-81386380D01*
X59045714Y-81434000D01*
X59093333Y-81481619D01*
X59426666Y-81386380D02*
X60045714Y-81386380D01*
X59712380Y-81767333D01*
X59855238Y-81767333D01*
X59950476Y-81814952D01*
X59998095Y-81862571D01*
X60045714Y-81957809D01*
X60045714Y-82195904D01*
X59998095Y-82291142D01*
X59950476Y-82338761D01*
X59855238Y-82386380D01*
X59569523Y-82386380D01*
X59474285Y-82338761D01*
X59426666Y-82291142D01*
X65443333Y-91181142D02*
X65395714Y-91228761D01*
X65252857Y-91276380D01*
X65157619Y-91276380D01*
X65014761Y-91228761D01*
X64919523Y-91133523D01*
X64871904Y-91038285D01*
X64824285Y-90847809D01*
X64824285Y-90704952D01*
X64871904Y-90514476D01*
X64919523Y-90419238D01*
X65014761Y-90324000D01*
X65157619Y-90276380D01*
X65252857Y-90276380D01*
X65395714Y-90324000D01*
X65443333Y-90371619D01*
X65824285Y-90371619D02*
X65871904Y-90324000D01*
X65967142Y-90276380D01*
X66205238Y-90276380D01*
X66300476Y-90324000D01*
X66348095Y-90371619D01*
X66395714Y-90466857D01*
X66395714Y-90562095D01*
X66348095Y-90704952D01*
X65776666Y-91276380D01*
X66395714Y-91276380D01*
X59093333Y-79751142D02*
X59045714Y-79798761D01*
X58902857Y-79846380D01*
X58807619Y-79846380D01*
X58664761Y-79798761D01*
X58569523Y-79703523D01*
X58521904Y-79608285D01*
X58474285Y-79417809D01*
X58474285Y-79274952D01*
X58521904Y-79084476D01*
X58569523Y-78989238D01*
X58664761Y-78894000D01*
X58807619Y-78846380D01*
X58902857Y-78846380D01*
X59045714Y-78894000D01*
X59093333Y-78941619D01*
X60045714Y-79846380D02*
X59474285Y-79846380D01*
X59760000Y-79846380D02*
X59760000Y-78846380D01*
X59664761Y-78989238D01*
X59569523Y-79084476D01*
X59474285Y-79132095D01*
X111608333Y-100032142D02*
X111560714Y-100079761D01*
X111417857Y-100127380D01*
X111322619Y-100127380D01*
X111179761Y-100079761D01*
X111084523Y-99984523D01*
X111036904Y-99889285D01*
X110989285Y-99698809D01*
X110989285Y-99555952D01*
X111036904Y-99365476D01*
X111084523Y-99270238D01*
X111179761Y-99175000D01*
X111322619Y-99127380D01*
X111417857Y-99127380D01*
X111560714Y-99175000D01*
X111608333Y-99222619D01*
X112084523Y-100127380D02*
X112275000Y-100127380D01*
X112370238Y-100079761D01*
X112417857Y-100032142D01*
X112513095Y-99889285D01*
X112560714Y-99698809D01*
X112560714Y-99317857D01*
X112513095Y-99222619D01*
X112465476Y-99175000D01*
X112370238Y-99127380D01*
X112179761Y-99127380D01*
X112084523Y-99175000D01*
X112036904Y-99222619D01*
X111989285Y-99317857D01*
X111989285Y-99555952D01*
X112036904Y-99651190D01*
X112084523Y-99698809D01*
X112179761Y-99746428D01*
X112370238Y-99746428D01*
X112465476Y-99698809D01*
X112513095Y-99651190D01*
X112560714Y-99555952D01*
X93008333Y-97582142D02*
X92960714Y-97629761D01*
X92817857Y-97677380D01*
X92722619Y-97677380D01*
X92579761Y-97629761D01*
X92484523Y-97534523D01*
X92436904Y-97439285D01*
X92389285Y-97248809D01*
X92389285Y-97105952D01*
X92436904Y-96915476D01*
X92484523Y-96820238D01*
X92579761Y-96725000D01*
X92722619Y-96677380D01*
X92817857Y-96677380D01*
X92960714Y-96725000D01*
X93008333Y-96772619D01*
X93579761Y-97105952D02*
X93484523Y-97058333D01*
X93436904Y-97010714D01*
X93389285Y-96915476D01*
X93389285Y-96867857D01*
X93436904Y-96772619D01*
X93484523Y-96725000D01*
X93579761Y-96677380D01*
X93770238Y-96677380D01*
X93865476Y-96725000D01*
X93913095Y-96772619D01*
X93960714Y-96867857D01*
X93960714Y-96915476D01*
X93913095Y-97010714D01*
X93865476Y-97058333D01*
X93770238Y-97105952D01*
X93579761Y-97105952D01*
X93484523Y-97153571D01*
X93436904Y-97201190D01*
X93389285Y-97296428D01*
X93389285Y-97486904D01*
X93436904Y-97582142D01*
X93484523Y-97629761D01*
X93579761Y-97677380D01*
X93770238Y-97677380D01*
X93865476Y-97629761D01*
X93913095Y-97582142D01*
X93960714Y-97486904D01*
X93960714Y-97296428D01*
X93913095Y-97201190D01*
X93865476Y-97153571D01*
X93770238Y-97105952D01*
M02*
