G04 #@! TF.GenerationSoftware,KiCad,Pcbnew,5.1.10-88a1d61d58~90~ubuntu21.04.1*
G04 #@! TF.CreationDate,2021-10-01T11:59:45+02:00*
G04 #@! TF.ProjectId,IndicatorLeds,496e6469-6361-4746-9f72-4c6564732e6b,rev?*
G04 #@! TF.SameCoordinates,Original*
G04 #@! TF.FileFunction,Soldermask,Top*
G04 #@! TF.FilePolarity,Negative*
%FSLAX46Y46*%
G04 Gerber Fmt 4.6, Leading zero omitted, Abs format (unit mm)*
G04 Created by KiCad (PCBNEW 5.1.10-88a1d61d58~90~ubuntu21.04.1) date 2021-10-01 11:59:45*
%MOMM*%
%LPD*%
G01*
G04 APERTURE LIST*
G04 #@! TA.AperFunction,Profile*
%ADD10C,0.100000*%
G04 #@! TD*
%ADD11R,1.700000X1.700000*%
%ADD12O,1.700000X1.700000*%
%ADD13R,1.500000X1.000000*%
G04 APERTURE END LIST*
D10*
X45000000Y-49999000D02*
X110000000Y-49999000D01*
X45000000Y-122001000D02*
X45000000Y-49999000D01*
X115001000Y-122001000D02*
X45000000Y-122001000D01*
X115001000Y-49999000D02*
X115001000Y-122001000D01*
X110000000Y-49999000D02*
X115001000Y-49999000D01*
D11*
G04 #@! TO.C,J1*
X107529026Y-120261011D03*
D12*
X107529026Y-117721011D03*
X104989026Y-120261011D03*
X104989026Y-117721011D03*
X102449026Y-120261011D03*
X102449026Y-117721011D03*
G04 #@! TD*
D13*
G04 #@! TO.C,D1*
X107450026Y-114600011D03*
X107450026Y-111400011D03*
X102550026Y-114600011D03*
X102550026Y-111400011D03*
G04 #@! TD*
G04 #@! TO.C,D2*
X107450026Y-109600011D03*
X107450026Y-106400011D03*
X102550026Y-109600011D03*
X102550026Y-106400011D03*
G04 #@! TD*
G04 #@! TO.C,D3*
X107450026Y-104600011D03*
X107450026Y-101400011D03*
X102550026Y-104600011D03*
X102550026Y-101400011D03*
G04 #@! TD*
D11*
G04 #@! TO.C,J1*
X97529021Y-120261011D03*
D12*
X97529021Y-117721011D03*
X94989021Y-120261011D03*
X94989021Y-117721011D03*
X92449021Y-120261011D03*
X92449021Y-117721011D03*
G04 #@! TD*
D13*
G04 #@! TO.C,D1*
X97450021Y-114600011D03*
X97450021Y-111400011D03*
X92550021Y-114600011D03*
X92550021Y-111400011D03*
G04 #@! TD*
G04 #@! TO.C,D2*
X97450021Y-109600011D03*
X97450021Y-106400011D03*
X92550021Y-109600011D03*
X92550021Y-106400011D03*
G04 #@! TD*
G04 #@! TO.C,D3*
X97450021Y-104600011D03*
X97450021Y-101400011D03*
X92550021Y-104600011D03*
X92550021Y-101400011D03*
G04 #@! TD*
D11*
G04 #@! TO.C,J1*
X87529016Y-120261011D03*
D12*
X87529016Y-117721011D03*
X84989016Y-120261011D03*
X84989016Y-117721011D03*
X82449016Y-120261011D03*
X82449016Y-117721011D03*
G04 #@! TD*
D13*
G04 #@! TO.C,D1*
X87450016Y-114600011D03*
X87450016Y-111400011D03*
X82550016Y-114600011D03*
X82550016Y-111400011D03*
G04 #@! TD*
G04 #@! TO.C,D2*
X87450016Y-109600011D03*
X87450016Y-106400011D03*
X82550016Y-109600011D03*
X82550016Y-106400011D03*
G04 #@! TD*
G04 #@! TO.C,D3*
X87450016Y-104600011D03*
X87450016Y-101400011D03*
X82550016Y-104600011D03*
X82550016Y-101400011D03*
G04 #@! TD*
D11*
G04 #@! TO.C,J1*
X77529011Y-120261011D03*
D12*
X77529011Y-117721011D03*
X74989011Y-120261011D03*
X74989011Y-117721011D03*
X72449011Y-120261011D03*
X72449011Y-117721011D03*
G04 #@! TD*
D13*
G04 #@! TO.C,D1*
X77450011Y-114600011D03*
X77450011Y-111400011D03*
X72550011Y-114600011D03*
X72550011Y-111400011D03*
G04 #@! TD*
G04 #@! TO.C,D2*
X77450011Y-109600011D03*
X77450011Y-106400011D03*
X72550011Y-109600011D03*
X72550011Y-106400011D03*
G04 #@! TD*
G04 #@! TO.C,D3*
X77450011Y-104600011D03*
X77450011Y-101400011D03*
X72550011Y-104600011D03*
X72550011Y-101400011D03*
G04 #@! TD*
D11*
G04 #@! TO.C,J1*
X67529006Y-120261011D03*
D12*
X67529006Y-117721011D03*
X64989006Y-120261011D03*
X64989006Y-117721011D03*
X62449006Y-120261011D03*
X62449006Y-117721011D03*
G04 #@! TD*
D13*
G04 #@! TO.C,D1*
X67450006Y-114600011D03*
X67450006Y-111400011D03*
X62550006Y-114600011D03*
X62550006Y-111400011D03*
G04 #@! TD*
G04 #@! TO.C,D2*
X67450006Y-109600011D03*
X67450006Y-106400011D03*
X62550006Y-109600011D03*
X62550006Y-106400011D03*
G04 #@! TD*
G04 #@! TO.C,D3*
X67450006Y-104600011D03*
X67450006Y-101400011D03*
X62550006Y-104600011D03*
X62550006Y-101400011D03*
G04 #@! TD*
D11*
G04 #@! TO.C,J1*
X57529001Y-120261011D03*
D12*
X57529001Y-117721011D03*
X54989001Y-120261011D03*
X54989001Y-117721011D03*
X52449001Y-120261011D03*
X52449001Y-117721011D03*
G04 #@! TD*
D13*
G04 #@! TO.C,D1*
X57450001Y-114600011D03*
X57450001Y-111400011D03*
X52550001Y-114600011D03*
X52550001Y-111400011D03*
G04 #@! TD*
G04 #@! TO.C,D2*
X57450001Y-109600011D03*
X57450001Y-106400011D03*
X52550001Y-109600011D03*
X52550001Y-106400011D03*
G04 #@! TD*
G04 #@! TO.C,D3*
X57450001Y-104600011D03*
X57450001Y-101400011D03*
X52550001Y-104600011D03*
X52550001Y-101400011D03*
G04 #@! TD*
D11*
G04 #@! TO.C,J1*
X107529026Y-96261006D03*
D12*
X107529026Y-93721006D03*
X104989026Y-96261006D03*
X104989026Y-93721006D03*
X102449026Y-96261006D03*
X102449026Y-93721006D03*
G04 #@! TD*
D13*
G04 #@! TO.C,D1*
X107450026Y-90600006D03*
X107450026Y-87400006D03*
X102550026Y-90600006D03*
X102550026Y-87400006D03*
G04 #@! TD*
G04 #@! TO.C,D2*
X107450026Y-85600006D03*
X107450026Y-82400006D03*
X102550026Y-85600006D03*
X102550026Y-82400006D03*
G04 #@! TD*
G04 #@! TO.C,D3*
X107450026Y-80600006D03*
X107450026Y-77400006D03*
X102550026Y-80600006D03*
X102550026Y-77400006D03*
G04 #@! TD*
D11*
G04 #@! TO.C,J1*
X97529021Y-96261006D03*
D12*
X97529021Y-93721006D03*
X94989021Y-96261006D03*
X94989021Y-93721006D03*
X92449021Y-96261006D03*
X92449021Y-93721006D03*
G04 #@! TD*
D13*
G04 #@! TO.C,D1*
X97450021Y-90600006D03*
X97450021Y-87400006D03*
X92550021Y-90600006D03*
X92550021Y-87400006D03*
G04 #@! TD*
G04 #@! TO.C,D2*
X97450021Y-85600006D03*
X97450021Y-82400006D03*
X92550021Y-85600006D03*
X92550021Y-82400006D03*
G04 #@! TD*
G04 #@! TO.C,D3*
X97450021Y-80600006D03*
X97450021Y-77400006D03*
X92550021Y-80600006D03*
X92550021Y-77400006D03*
G04 #@! TD*
D11*
G04 #@! TO.C,J1*
X87529016Y-96261006D03*
D12*
X87529016Y-93721006D03*
X84989016Y-96261006D03*
X84989016Y-93721006D03*
X82449016Y-96261006D03*
X82449016Y-93721006D03*
G04 #@! TD*
D13*
G04 #@! TO.C,D1*
X87450016Y-90600006D03*
X87450016Y-87400006D03*
X82550016Y-90600006D03*
X82550016Y-87400006D03*
G04 #@! TD*
G04 #@! TO.C,D2*
X87450016Y-85600006D03*
X87450016Y-82400006D03*
X82550016Y-85600006D03*
X82550016Y-82400006D03*
G04 #@! TD*
G04 #@! TO.C,D3*
X87450016Y-80600006D03*
X87450016Y-77400006D03*
X82550016Y-80600006D03*
X82550016Y-77400006D03*
G04 #@! TD*
D11*
G04 #@! TO.C,J1*
X77529011Y-96261006D03*
D12*
X77529011Y-93721006D03*
X74989011Y-96261006D03*
X74989011Y-93721006D03*
X72449011Y-96261006D03*
X72449011Y-93721006D03*
G04 #@! TD*
D13*
G04 #@! TO.C,D1*
X77450011Y-90600006D03*
X77450011Y-87400006D03*
X72550011Y-90600006D03*
X72550011Y-87400006D03*
G04 #@! TD*
G04 #@! TO.C,D2*
X77450011Y-85600006D03*
X77450011Y-82400006D03*
X72550011Y-85600006D03*
X72550011Y-82400006D03*
G04 #@! TD*
G04 #@! TO.C,D3*
X77450011Y-80600006D03*
X77450011Y-77400006D03*
X72550011Y-80600006D03*
X72550011Y-77400006D03*
G04 #@! TD*
D11*
G04 #@! TO.C,J1*
X67529006Y-96261006D03*
D12*
X67529006Y-93721006D03*
X64989006Y-96261006D03*
X64989006Y-93721006D03*
X62449006Y-96261006D03*
X62449006Y-93721006D03*
G04 #@! TD*
D13*
G04 #@! TO.C,D1*
X67450006Y-90600006D03*
X67450006Y-87400006D03*
X62550006Y-90600006D03*
X62550006Y-87400006D03*
G04 #@! TD*
G04 #@! TO.C,D2*
X67450006Y-85600006D03*
X67450006Y-82400006D03*
X62550006Y-85600006D03*
X62550006Y-82400006D03*
G04 #@! TD*
G04 #@! TO.C,D3*
X67450006Y-80600006D03*
X67450006Y-77400006D03*
X62550006Y-80600006D03*
X62550006Y-77400006D03*
G04 #@! TD*
D11*
G04 #@! TO.C,J1*
X57529001Y-96261006D03*
D12*
X57529001Y-93721006D03*
X54989001Y-96261006D03*
X54989001Y-93721006D03*
X52449001Y-96261006D03*
X52449001Y-93721006D03*
G04 #@! TD*
D13*
G04 #@! TO.C,D1*
X57450001Y-90600006D03*
X57450001Y-87400006D03*
X52550001Y-90600006D03*
X52550001Y-87400006D03*
G04 #@! TD*
G04 #@! TO.C,D2*
X57450001Y-85600006D03*
X57450001Y-82400006D03*
X52550001Y-85600006D03*
X52550001Y-82400006D03*
G04 #@! TD*
G04 #@! TO.C,D3*
X57450001Y-80600006D03*
X57450001Y-77400006D03*
X52550001Y-80600006D03*
X52550001Y-77400006D03*
G04 #@! TD*
D11*
G04 #@! TO.C,J1*
X107529026Y-72261001D03*
D12*
X107529026Y-69721001D03*
X104989026Y-72261001D03*
X104989026Y-69721001D03*
X102449026Y-72261001D03*
X102449026Y-69721001D03*
G04 #@! TD*
D13*
G04 #@! TO.C,D1*
X107450026Y-66600001D03*
X107450026Y-63400001D03*
X102550026Y-66600001D03*
X102550026Y-63400001D03*
G04 #@! TD*
G04 #@! TO.C,D2*
X107450026Y-61600001D03*
X107450026Y-58400001D03*
X102550026Y-61600001D03*
X102550026Y-58400001D03*
G04 #@! TD*
G04 #@! TO.C,D3*
X107450026Y-56600001D03*
X107450026Y-53400001D03*
X102550026Y-56600001D03*
X102550026Y-53400001D03*
G04 #@! TD*
D11*
G04 #@! TO.C,J1*
X97529021Y-72261001D03*
D12*
X97529021Y-69721001D03*
X94989021Y-72261001D03*
X94989021Y-69721001D03*
X92449021Y-72261001D03*
X92449021Y-69721001D03*
G04 #@! TD*
D13*
G04 #@! TO.C,D1*
X97450021Y-66600001D03*
X97450021Y-63400001D03*
X92550021Y-66600001D03*
X92550021Y-63400001D03*
G04 #@! TD*
G04 #@! TO.C,D2*
X97450021Y-61600001D03*
X97450021Y-58400001D03*
X92550021Y-61600001D03*
X92550021Y-58400001D03*
G04 #@! TD*
G04 #@! TO.C,D3*
X97450021Y-56600001D03*
X97450021Y-53400001D03*
X92550021Y-56600001D03*
X92550021Y-53400001D03*
G04 #@! TD*
D11*
G04 #@! TO.C,J1*
X87529016Y-72261001D03*
D12*
X87529016Y-69721001D03*
X84989016Y-72261001D03*
X84989016Y-69721001D03*
X82449016Y-72261001D03*
X82449016Y-69721001D03*
G04 #@! TD*
D13*
G04 #@! TO.C,D1*
X87450016Y-66600001D03*
X87450016Y-63400001D03*
X82550016Y-66600001D03*
X82550016Y-63400001D03*
G04 #@! TD*
G04 #@! TO.C,D2*
X87450016Y-61600001D03*
X87450016Y-58400001D03*
X82550016Y-61600001D03*
X82550016Y-58400001D03*
G04 #@! TD*
G04 #@! TO.C,D3*
X87450016Y-56600001D03*
X87450016Y-53400001D03*
X82550016Y-56600001D03*
X82550016Y-53400001D03*
G04 #@! TD*
D11*
G04 #@! TO.C,J1*
X77529011Y-72261001D03*
D12*
X77529011Y-69721001D03*
X74989011Y-72261001D03*
X74989011Y-69721001D03*
X72449011Y-72261001D03*
X72449011Y-69721001D03*
G04 #@! TD*
D13*
G04 #@! TO.C,D1*
X77450011Y-66600001D03*
X77450011Y-63400001D03*
X72550011Y-66600001D03*
X72550011Y-63400001D03*
G04 #@! TD*
G04 #@! TO.C,D2*
X77450011Y-61600001D03*
X77450011Y-58400001D03*
X72550011Y-61600001D03*
X72550011Y-58400001D03*
G04 #@! TD*
G04 #@! TO.C,D3*
X77450011Y-56600001D03*
X77450011Y-53400001D03*
X72550011Y-56600001D03*
X72550011Y-53400001D03*
G04 #@! TD*
D11*
G04 #@! TO.C,J1*
X67529006Y-72261001D03*
D12*
X67529006Y-69721001D03*
X64989006Y-72261001D03*
X64989006Y-69721001D03*
X62449006Y-72261001D03*
X62449006Y-69721001D03*
G04 #@! TD*
D13*
G04 #@! TO.C,D1*
X67450006Y-66600001D03*
X67450006Y-63400001D03*
X62550006Y-66600001D03*
X62550006Y-63400001D03*
G04 #@! TD*
G04 #@! TO.C,D2*
X67450006Y-61600001D03*
X67450006Y-58400001D03*
X62550006Y-61600001D03*
X62550006Y-58400001D03*
G04 #@! TD*
G04 #@! TO.C,D3*
X67450006Y-56600001D03*
X67450006Y-53400001D03*
X62550006Y-56600001D03*
X62550006Y-53400001D03*
G04 #@! TD*
D11*
G04 #@! TO.C,J1*
X57529001Y-72261001D03*
D12*
X57529001Y-69721001D03*
X54989001Y-72261001D03*
X54989001Y-69721001D03*
X52449001Y-72261001D03*
X52449001Y-69721001D03*
G04 #@! TD*
D13*
G04 #@! TO.C,D1*
X57450001Y-66600001D03*
X57450001Y-63400001D03*
X52550001Y-66600001D03*
X52550001Y-63400001D03*
G04 #@! TD*
G04 #@! TO.C,D2*
X57450001Y-61600001D03*
X57450001Y-58400001D03*
X52550001Y-61600001D03*
X52550001Y-58400001D03*
G04 #@! TD*
G04 #@! TO.C,D3*
X57450001Y-56600001D03*
X57450001Y-53400001D03*
X52550001Y-56600001D03*
X52550001Y-53400001D03*
G04 #@! TD*
M02*
