G04 #@! TF.GenerationSoftware,KiCad,Pcbnew,5.1.10-88a1d61d58~90~ubuntu21.04.1*
G04 #@! TF.CreationDate,2021-10-01T11:59:45+02:00*
G04 #@! TF.ProjectId,IndicatorLeds,496e6469-6361-4746-9f72-4c6564732e6b,rev?*
G04 #@! TF.SameCoordinates,Original*
G04 #@! TF.FileFunction,Soldermask,Bot*
G04 #@! TF.FilePolarity,Negative*
%FSLAX46Y46*%
G04 Gerber Fmt 4.6, Leading zero omitted, Abs format (unit mm)*
G04 Created by KiCad (PCBNEW 5.1.10-88a1d61d58~90~ubuntu21.04.1) date 2021-10-01 11:59:45*
%MOMM*%
%LPD*%
G01*
G04 APERTURE LIST*
G04 #@! TA.AperFunction,Profile*
%ADD10C,0.100000*%
G04 #@! TD*
%ADD11R,1.700000X1.700000*%
%ADD12O,1.700000X1.700000*%
G04 APERTURE END LIST*
D10*
X45000000Y-49999000D02*
X110000000Y-49999000D01*
X45000000Y-122001000D02*
X45000000Y-49999000D01*
X115001000Y-122001000D02*
X45000000Y-122001000D01*
X115001000Y-49999000D02*
X115001000Y-122001000D01*
X110000000Y-49999000D02*
X115001000Y-49999000D01*
D11*
G04 #@! TO.C,J1*
X107529026Y-120261011D03*
D12*
X107529026Y-117721011D03*
X104989026Y-120261011D03*
X104989026Y-117721011D03*
X102449026Y-120261011D03*
X102449026Y-117721011D03*
G04 #@! TD*
D11*
G04 #@! TO.C,J1*
X97529021Y-120261011D03*
D12*
X97529021Y-117721011D03*
X94989021Y-120261011D03*
X94989021Y-117721011D03*
X92449021Y-120261011D03*
X92449021Y-117721011D03*
G04 #@! TD*
D11*
G04 #@! TO.C,J1*
X87529016Y-120261011D03*
D12*
X87529016Y-117721011D03*
X84989016Y-120261011D03*
X84989016Y-117721011D03*
X82449016Y-120261011D03*
X82449016Y-117721011D03*
G04 #@! TD*
D11*
G04 #@! TO.C,J1*
X77529011Y-120261011D03*
D12*
X77529011Y-117721011D03*
X74989011Y-120261011D03*
X74989011Y-117721011D03*
X72449011Y-120261011D03*
X72449011Y-117721011D03*
G04 #@! TD*
D11*
G04 #@! TO.C,J1*
X67529006Y-120261011D03*
D12*
X67529006Y-117721011D03*
X64989006Y-120261011D03*
X64989006Y-117721011D03*
X62449006Y-120261011D03*
X62449006Y-117721011D03*
G04 #@! TD*
D11*
G04 #@! TO.C,J1*
X57529001Y-120261011D03*
D12*
X57529001Y-117721011D03*
X54989001Y-120261011D03*
X54989001Y-117721011D03*
X52449001Y-120261011D03*
X52449001Y-117721011D03*
G04 #@! TD*
D11*
G04 #@! TO.C,J1*
X107529026Y-96261006D03*
D12*
X107529026Y-93721006D03*
X104989026Y-96261006D03*
X104989026Y-93721006D03*
X102449026Y-96261006D03*
X102449026Y-93721006D03*
G04 #@! TD*
D11*
G04 #@! TO.C,J1*
X97529021Y-96261006D03*
D12*
X97529021Y-93721006D03*
X94989021Y-96261006D03*
X94989021Y-93721006D03*
X92449021Y-96261006D03*
X92449021Y-93721006D03*
G04 #@! TD*
D11*
G04 #@! TO.C,J1*
X87529016Y-96261006D03*
D12*
X87529016Y-93721006D03*
X84989016Y-96261006D03*
X84989016Y-93721006D03*
X82449016Y-96261006D03*
X82449016Y-93721006D03*
G04 #@! TD*
D11*
G04 #@! TO.C,J1*
X77529011Y-96261006D03*
D12*
X77529011Y-93721006D03*
X74989011Y-96261006D03*
X74989011Y-93721006D03*
X72449011Y-96261006D03*
X72449011Y-93721006D03*
G04 #@! TD*
D11*
G04 #@! TO.C,J1*
X67529006Y-96261006D03*
D12*
X67529006Y-93721006D03*
X64989006Y-96261006D03*
X64989006Y-93721006D03*
X62449006Y-96261006D03*
X62449006Y-93721006D03*
G04 #@! TD*
D11*
G04 #@! TO.C,J1*
X57529001Y-96261006D03*
D12*
X57529001Y-93721006D03*
X54989001Y-96261006D03*
X54989001Y-93721006D03*
X52449001Y-96261006D03*
X52449001Y-93721006D03*
G04 #@! TD*
D11*
G04 #@! TO.C,J1*
X107529026Y-72261001D03*
D12*
X107529026Y-69721001D03*
X104989026Y-72261001D03*
X104989026Y-69721001D03*
X102449026Y-72261001D03*
X102449026Y-69721001D03*
G04 #@! TD*
D11*
G04 #@! TO.C,J1*
X97529021Y-72261001D03*
D12*
X97529021Y-69721001D03*
X94989021Y-72261001D03*
X94989021Y-69721001D03*
X92449021Y-72261001D03*
X92449021Y-69721001D03*
G04 #@! TD*
D11*
G04 #@! TO.C,J1*
X87529016Y-72261001D03*
D12*
X87529016Y-69721001D03*
X84989016Y-72261001D03*
X84989016Y-69721001D03*
X82449016Y-72261001D03*
X82449016Y-69721001D03*
G04 #@! TD*
D11*
G04 #@! TO.C,J1*
X77529011Y-72261001D03*
D12*
X77529011Y-69721001D03*
X74989011Y-72261001D03*
X74989011Y-69721001D03*
X72449011Y-72261001D03*
X72449011Y-69721001D03*
G04 #@! TD*
D11*
G04 #@! TO.C,J1*
X67529006Y-72261001D03*
D12*
X67529006Y-69721001D03*
X64989006Y-72261001D03*
X64989006Y-69721001D03*
X62449006Y-72261001D03*
X62449006Y-69721001D03*
G04 #@! TD*
D11*
G04 #@! TO.C,J1*
X57529001Y-72261001D03*
D12*
X57529001Y-69721001D03*
X54989001Y-72261001D03*
X54989001Y-69721001D03*
X52449001Y-72261001D03*
X52449001Y-69721001D03*
G04 #@! TD*
M02*
