M48
; DRILL file {KiCad 5.1.10-88a1d61d58~90~ubuntu21.04.1} date Fri Oct  1 11:59:45 2021
; FORMAT={-:-/ absolute / metric / decimal}
; #@! TF.CreationDate,2021-10-01T11:59:45+02:00
; #@! TF.GenerationSoftware,Kicad,Pcbnew,5.1.10-88a1d61d58~90~ubuntu21.04.1
FMAT,2
METRIC
T1C0.400
T2C1.000
%
G90
G05
T1
X53.846Y-63.371
X53.846Y-87.371
X53.846Y-111.371
X53.973Y-58.418
X53.973Y-82.418
X53.973Y-106.418
X54.5Y-54.0
X54.5Y-78.0
X54.5Y-102.0
X56.0Y-53.5
X56.0Y-77.5
X56.0Y-101.5
X63.846Y-63.371
X63.846Y-87.371
X63.846Y-111.371
X63.973Y-58.418
X63.973Y-82.418
X63.973Y-106.418
X64.5Y-54.0
X64.5Y-78.0
X64.5Y-102.0
X66.0Y-53.5
X66.0Y-77.5
X66.0Y-101.5
X73.846Y-63.371
X73.846Y-87.371
X73.846Y-111.371
X73.973Y-58.418
X73.973Y-82.418
X73.973Y-106.418
X74.5Y-54.0
X74.5Y-78.0
X74.5Y-102.0
X76.0Y-53.5
X76.0Y-77.5
X76.0Y-101.5
X83.846Y-63.371
X83.846Y-87.371
X83.846Y-111.371
X83.973Y-58.418
X83.973Y-82.418
X83.973Y-106.418
X84.5Y-54.0
X84.5Y-78.0
X84.5Y-102.0
X86.0Y-53.5
X86.0Y-77.5
X86.0Y-101.5
X93.846Y-63.371
X93.846Y-87.371
X93.846Y-111.371
X93.973Y-58.418
X93.973Y-82.418
X93.973Y-106.418
X94.5Y-54.0
X94.5Y-78.0
X94.5Y-102.0
X96.0Y-53.5
X96.0Y-77.5
X96.0Y-101.5
X103.846Y-63.371
X103.846Y-87.371
X103.846Y-111.371
X103.973Y-58.418
X103.973Y-82.418
X103.973Y-106.418
X104.5Y-54.0
X104.5Y-78.0
X104.5Y-102.0
X106.0Y-53.5
X106.0Y-77.5
X106.0Y-101.5
T2
X52.449Y-69.721
X52.449Y-72.261
X52.449Y-93.721
X52.449Y-96.261
X52.449Y-117.721
X52.449Y-120.261
X54.989Y-69.721
X54.989Y-72.261
X54.989Y-93.721
X54.989Y-96.261
X54.989Y-117.721
X54.989Y-120.261
X57.529Y-69.721
X57.529Y-72.261
X57.529Y-93.721
X57.529Y-96.261
X57.529Y-117.721
X57.529Y-120.261
X62.449Y-69.721
X62.449Y-72.261
X62.449Y-93.721
X62.449Y-96.261
X62.449Y-117.721
X62.449Y-120.261
X64.989Y-69.721
X64.989Y-72.261
X64.989Y-93.721
X64.989Y-96.261
X64.989Y-117.721
X64.989Y-120.261
X67.529Y-69.721
X67.529Y-72.261
X67.529Y-93.721
X67.529Y-96.261
X67.529Y-117.721
X67.529Y-120.261
X72.449Y-69.721
X72.449Y-72.261
X72.449Y-93.721
X72.449Y-96.261
X72.449Y-117.721
X72.449Y-120.261
X74.989Y-69.721
X74.989Y-72.261
X74.989Y-93.721
X74.989Y-96.261
X74.989Y-117.721
X74.989Y-120.261
X77.529Y-69.721
X77.529Y-72.261
X77.529Y-93.721
X77.529Y-96.261
X77.529Y-117.721
X77.529Y-120.261
X82.449Y-69.721
X82.449Y-72.261
X82.449Y-93.721
X82.449Y-96.261
X82.449Y-117.721
X82.449Y-120.261
X84.989Y-69.721
X84.989Y-72.261
X84.989Y-93.721
X84.989Y-96.261
X84.989Y-117.721
X84.989Y-120.261
X87.529Y-69.721
X87.529Y-72.261
X87.529Y-93.721
X87.529Y-96.261
X87.529Y-117.721
X87.529Y-120.261
X92.449Y-69.721
X92.449Y-72.261
X92.449Y-93.721
X92.449Y-96.261
X92.449Y-117.721
X92.449Y-120.261
X94.989Y-69.721
X94.989Y-72.261
X94.989Y-93.721
X94.989Y-96.261
X94.989Y-117.721
X94.989Y-120.261
X97.529Y-69.721
X97.529Y-72.261
X97.529Y-93.721
X97.529Y-96.261
X97.529Y-117.721
X97.529Y-120.261
X102.449Y-69.721
X102.449Y-72.261
X102.449Y-93.721
X102.449Y-96.261
X102.449Y-117.721
X102.449Y-120.261
X104.989Y-69.721
X104.989Y-72.261
X104.989Y-93.721
X104.989Y-96.261
X104.989Y-117.721
X104.989Y-120.261
X107.529Y-69.721
X107.529Y-72.261
X107.529Y-93.721
X107.529Y-96.261
X107.529Y-117.721
X107.529Y-120.261
T0
M30
