%TF.GenerationSoftware,KiCad,Pcbnew,5.1.10-88a1d61d58~90~ubuntu21.04.1*%
%TF.CreationDate,2021-07-30T13:00:39+02:00*%
%TF.ProjectId,Detector_SMD_AD,44657465-6374-46f7-925f-534d445f4144,rev?*%
%TF.SameCoordinates,Original*%
%TF.FileFunction,Legend,Top*%
%TF.FilePolarity,Positive*%
%FSLAX46Y46*%
G04 Gerber Fmt 4.6, Leading zero omitted, Abs format (unit mm)*
G04 Created by KiCad (PCBNEW 5.1.10-88a1d61d58~90~ubuntu21.04.1) date 2021-07-30 13:00:39*
%MOMM*%
%LPD*%
G01*
G04 APERTURE LIST*
%ADD10C,0.120000*%
%ADD11C,0.150000*%
G04 APERTURE END LIST*
D10*
%TO.C,R4*%
X88235000Y-47272936D02*
X88235000Y-47727064D01*
X86765000Y-47272936D02*
X86765000Y-47727064D01*
%TO.C,R3*%
X96735000Y-51860436D02*
X96735000Y-52314564D01*
X95265000Y-51860436D02*
X95265000Y-52314564D01*
%TO.C,R2*%
X78235000Y-52272936D02*
X78235000Y-52727064D01*
X76765000Y-52272936D02*
X76765000Y-52727064D01*
%TO.C,R1*%
X88639564Y-53235000D02*
X88185436Y-53235000D01*
X88639564Y-51765000D02*
X88185436Y-51765000D01*
%TO.C,Q3*%
X83260000Y-49080000D02*
X83260000Y-48150000D01*
X83260000Y-45920000D02*
X83260000Y-46850000D01*
X83260000Y-45920000D02*
X81100000Y-45920000D01*
X83260000Y-49080000D02*
X81800000Y-49080000D01*
%TO.C,Q2*%
X79080000Y-46740000D02*
X78150000Y-46740000D01*
X75920000Y-46740000D02*
X76850000Y-46740000D01*
X75920000Y-46740000D02*
X75920000Y-48900000D01*
X79080000Y-46740000D02*
X79080000Y-48200000D01*
%TO.C,Q1*%
X91740000Y-45920000D02*
X91740000Y-46850000D01*
X91740000Y-49080000D02*
X91740000Y-48150000D01*
X91740000Y-49080000D02*
X93900000Y-49080000D01*
X91740000Y-45920000D02*
X93200000Y-45920000D01*
%TO.C,J3*%
X101440000Y-44880000D02*
X101440000Y-55160000D01*
X101440000Y-55160000D02*
X104100000Y-55160000D01*
X104100000Y-55160000D02*
X104100000Y-44880000D01*
X104100000Y-44880000D02*
X101440000Y-44880000D01*
X104100000Y-45830000D02*
X110100000Y-45830000D01*
X110100000Y-45830000D02*
X110100000Y-46590000D01*
X110100000Y-46590000D02*
X104100000Y-46590000D01*
X104100000Y-45890000D02*
X110100000Y-45890000D01*
X104100000Y-46010000D02*
X110100000Y-46010000D01*
X104100000Y-46130000D02*
X110100000Y-46130000D01*
X104100000Y-46250000D02*
X110100000Y-46250000D01*
X104100000Y-46370000D02*
X110100000Y-46370000D01*
X104100000Y-46490000D02*
X110100000Y-46490000D01*
X101110000Y-45830000D02*
X101440000Y-45830000D01*
X101110000Y-46590000D02*
X101440000Y-46590000D01*
X101440000Y-47480000D02*
X104100000Y-47480000D01*
X104100000Y-48370000D02*
X110100000Y-48370000D01*
X110100000Y-48370000D02*
X110100000Y-49130000D01*
X110100000Y-49130000D02*
X104100000Y-49130000D01*
X101042929Y-48370000D02*
X101440000Y-48370000D01*
X101042929Y-49130000D02*
X101440000Y-49130000D01*
X101440000Y-50020000D02*
X104100000Y-50020000D01*
X104100000Y-50910000D02*
X110100000Y-50910000D01*
X110100000Y-50910000D02*
X110100000Y-51670000D01*
X110100000Y-51670000D02*
X104100000Y-51670000D01*
X101042929Y-50910000D02*
X101440000Y-50910000D01*
X101042929Y-51670000D02*
X101440000Y-51670000D01*
X101440000Y-52560000D02*
X104100000Y-52560000D01*
X104100000Y-53450000D02*
X110100000Y-53450000D01*
X110100000Y-53450000D02*
X110100000Y-54210000D01*
X110100000Y-54210000D02*
X104100000Y-54210000D01*
X101042929Y-53450000D02*
X101440000Y-53450000D01*
X101042929Y-54210000D02*
X101440000Y-54210000D01*
X98730000Y-46210000D02*
X98730000Y-44940000D01*
X98730000Y-44940000D02*
X100000000Y-44940000D01*
%TO.C,C2*%
X82761252Y-53235000D02*
X82238748Y-53235000D01*
X82761252Y-51765000D02*
X82238748Y-51765000D01*
%TO.C,J2*%
X60120000Y-42540000D02*
X49960000Y-42540000D01*
X60120000Y-43810000D02*
X60120000Y-36190000D01*
X60120000Y-36190000D02*
X49960000Y-36190000D01*
X49960000Y-36190000D02*
X49960000Y-43810000D01*
X49960000Y-43810000D02*
X60120000Y-43810000D01*
%TO.C,J1*%
X49880000Y-57460000D02*
X60040000Y-57460000D01*
X49880000Y-56190000D02*
X49880000Y-63810000D01*
X49880000Y-63810000D02*
X60040000Y-63810000D01*
X60040000Y-63810000D02*
X60040000Y-56190000D01*
X60040000Y-56190000D02*
X49880000Y-56190000D01*
%TO.C,D1*%
X73250000Y-53500000D02*
X73250000Y-51500000D01*
X73250000Y-51500000D02*
X69350000Y-51500000D01*
X73250000Y-53500000D02*
X69350000Y-53500000D01*
%TO.C,CT1*%
X65067199Y-52667000D02*
X65067199Y-53556000D01*
X65067199Y-53556000D02*
X63289199Y-53556000D01*
X59733199Y-53556000D02*
X57955199Y-53556000D01*
X57955199Y-53556000D02*
X57955199Y-52667000D01*
X57955199Y-47333000D02*
X57955199Y-46444000D01*
X57955199Y-46444000D02*
X59733199Y-46444000D01*
X63289199Y-46444000D02*
X65067199Y-46444000D01*
X65067199Y-46444000D02*
X65067199Y-47333000D01*
X65676799Y-53175000D02*
G75*
G03*
X65676799Y-53175000I-101600J0D01*
G01*
%TO.C,C1*%
X71211252Y-47735000D02*
X70688748Y-47735000D01*
X71211252Y-46265000D02*
X70688748Y-46265000D01*
%TO.C,R4*%
D11*
X87233333Y-45852380D02*
X86900000Y-45376190D01*
X86661904Y-45852380D02*
X86661904Y-44852380D01*
X87042857Y-44852380D01*
X87138095Y-44900000D01*
X87185714Y-44947619D01*
X87233333Y-45042857D01*
X87233333Y-45185714D01*
X87185714Y-45280952D01*
X87138095Y-45328571D01*
X87042857Y-45376190D01*
X86661904Y-45376190D01*
X88090476Y-45185714D02*
X88090476Y-45852380D01*
X87852380Y-44804761D02*
X87614285Y-45519047D01*
X88233333Y-45519047D01*
%TO.C,R3*%
X95833333Y-55052380D02*
X95500000Y-54576190D01*
X95261904Y-55052380D02*
X95261904Y-54052380D01*
X95642857Y-54052380D01*
X95738095Y-54100000D01*
X95785714Y-54147619D01*
X95833333Y-54242857D01*
X95833333Y-54385714D01*
X95785714Y-54480952D01*
X95738095Y-54528571D01*
X95642857Y-54576190D01*
X95261904Y-54576190D01*
X96166666Y-54052380D02*
X96785714Y-54052380D01*
X96452380Y-54433333D01*
X96595238Y-54433333D01*
X96690476Y-54480952D01*
X96738095Y-54528571D01*
X96785714Y-54623809D01*
X96785714Y-54861904D01*
X96738095Y-54957142D01*
X96690476Y-55004761D01*
X96595238Y-55052380D01*
X96309523Y-55052380D01*
X96214285Y-55004761D01*
X96166666Y-54957142D01*
%TO.C,R2*%
X77233333Y-55252380D02*
X76900000Y-54776190D01*
X76661904Y-55252380D02*
X76661904Y-54252380D01*
X77042857Y-54252380D01*
X77138095Y-54300000D01*
X77185714Y-54347619D01*
X77233333Y-54442857D01*
X77233333Y-54585714D01*
X77185714Y-54680952D01*
X77138095Y-54728571D01*
X77042857Y-54776190D01*
X76661904Y-54776190D01*
X77614285Y-54347619D02*
X77661904Y-54300000D01*
X77757142Y-54252380D01*
X77995238Y-54252380D01*
X78090476Y-54300000D01*
X78138095Y-54347619D01*
X78185714Y-54442857D01*
X78185714Y-54538095D01*
X78138095Y-54680952D01*
X77566666Y-55252380D01*
X78185714Y-55252380D01*
%TO.C,R1*%
X88245833Y-54602380D02*
X87912500Y-54126190D01*
X87674404Y-54602380D02*
X87674404Y-53602380D01*
X88055357Y-53602380D01*
X88150595Y-53650000D01*
X88198214Y-53697619D01*
X88245833Y-53792857D01*
X88245833Y-53935714D01*
X88198214Y-54030952D01*
X88150595Y-54078571D01*
X88055357Y-54126190D01*
X87674404Y-54126190D01*
X89198214Y-54602380D02*
X88626785Y-54602380D01*
X88912500Y-54602380D02*
X88912500Y-53602380D01*
X88817261Y-53745238D01*
X88722023Y-53840476D01*
X88626785Y-53888095D01*
%TO.C,Q3*%
X82404761Y-45547619D02*
X82309523Y-45500000D01*
X82214285Y-45404761D01*
X82071428Y-45261904D01*
X81976190Y-45214285D01*
X81880952Y-45214285D01*
X81928571Y-45452380D02*
X81833333Y-45404761D01*
X81738095Y-45309523D01*
X81690476Y-45119047D01*
X81690476Y-44785714D01*
X81738095Y-44595238D01*
X81833333Y-44500000D01*
X81928571Y-44452380D01*
X82119047Y-44452380D01*
X82214285Y-44500000D01*
X82309523Y-44595238D01*
X82357142Y-44785714D01*
X82357142Y-45119047D01*
X82309523Y-45309523D01*
X82214285Y-45404761D01*
X82119047Y-45452380D01*
X81928571Y-45452380D01*
X82690476Y-44452380D02*
X83309523Y-44452380D01*
X82976190Y-44833333D01*
X83119047Y-44833333D01*
X83214285Y-44880952D01*
X83261904Y-44928571D01*
X83309523Y-45023809D01*
X83309523Y-45261904D01*
X83261904Y-45357142D01*
X83214285Y-45404761D01*
X83119047Y-45452380D01*
X82833333Y-45452380D01*
X82738095Y-45404761D01*
X82690476Y-45357142D01*
%TO.C,Q2*%
X77304761Y-45747619D02*
X77209523Y-45700000D01*
X77114285Y-45604761D01*
X76971428Y-45461904D01*
X76876190Y-45414285D01*
X76780952Y-45414285D01*
X76828571Y-45652380D02*
X76733333Y-45604761D01*
X76638095Y-45509523D01*
X76590476Y-45319047D01*
X76590476Y-44985714D01*
X76638095Y-44795238D01*
X76733333Y-44700000D01*
X76828571Y-44652380D01*
X77019047Y-44652380D01*
X77114285Y-44700000D01*
X77209523Y-44795238D01*
X77257142Y-44985714D01*
X77257142Y-45319047D01*
X77209523Y-45509523D01*
X77114285Y-45604761D01*
X77019047Y-45652380D01*
X76828571Y-45652380D01*
X77638095Y-44747619D02*
X77685714Y-44700000D01*
X77780952Y-44652380D01*
X78019047Y-44652380D01*
X78114285Y-44700000D01*
X78161904Y-44747619D01*
X78209523Y-44842857D01*
X78209523Y-44938095D01*
X78161904Y-45080952D01*
X77590476Y-45652380D01*
X78209523Y-45652380D01*
%TO.C,Q1*%
X92504761Y-45147619D02*
X92409523Y-45100000D01*
X92314285Y-45004761D01*
X92171428Y-44861904D01*
X92076190Y-44814285D01*
X91980952Y-44814285D01*
X92028571Y-45052380D02*
X91933333Y-45004761D01*
X91838095Y-44909523D01*
X91790476Y-44719047D01*
X91790476Y-44385714D01*
X91838095Y-44195238D01*
X91933333Y-44100000D01*
X92028571Y-44052380D01*
X92219047Y-44052380D01*
X92314285Y-44100000D01*
X92409523Y-44195238D01*
X92457142Y-44385714D01*
X92457142Y-44719047D01*
X92409523Y-44909523D01*
X92314285Y-45004761D01*
X92219047Y-45052380D01*
X92028571Y-45052380D01*
X93409523Y-45052380D02*
X92838095Y-45052380D01*
X93123809Y-45052380D02*
X93123809Y-44052380D01*
X93028571Y-44195238D01*
X92933333Y-44290476D01*
X92838095Y-44338095D01*
%TO.C,J3*%
X104051666Y-43392380D02*
X104051666Y-44106666D01*
X104004047Y-44249523D01*
X103908809Y-44344761D01*
X103765952Y-44392380D01*
X103670714Y-44392380D01*
X104432619Y-43392380D02*
X105051666Y-43392380D01*
X104718333Y-43773333D01*
X104861190Y-43773333D01*
X104956428Y-43820952D01*
X105004047Y-43868571D01*
X105051666Y-43963809D01*
X105051666Y-44201904D01*
X105004047Y-44297142D01*
X104956428Y-44344761D01*
X104861190Y-44392380D01*
X104575476Y-44392380D01*
X104480238Y-44344761D01*
X104432619Y-44297142D01*
%TO.C,C2*%
X82333333Y-54537142D02*
X82285714Y-54584761D01*
X82142857Y-54632380D01*
X82047619Y-54632380D01*
X81904761Y-54584761D01*
X81809523Y-54489523D01*
X81761904Y-54394285D01*
X81714285Y-54203809D01*
X81714285Y-54060952D01*
X81761904Y-53870476D01*
X81809523Y-53775238D01*
X81904761Y-53680000D01*
X82047619Y-53632380D01*
X82142857Y-53632380D01*
X82285714Y-53680000D01*
X82333333Y-53727619D01*
X82714285Y-53727619D02*
X82761904Y-53680000D01*
X82857142Y-53632380D01*
X83095238Y-53632380D01*
X83190476Y-53680000D01*
X83238095Y-53727619D01*
X83285714Y-53822857D01*
X83285714Y-53918095D01*
X83238095Y-54060952D01*
X82666666Y-54632380D01*
X83285714Y-54632380D01*
%TO.C,J2*%
X60866666Y-39452380D02*
X60866666Y-40166666D01*
X60819047Y-40309523D01*
X60723809Y-40404761D01*
X60580952Y-40452380D01*
X60485714Y-40452380D01*
X61295238Y-39547619D02*
X61342857Y-39500000D01*
X61438095Y-39452380D01*
X61676190Y-39452380D01*
X61771428Y-39500000D01*
X61819047Y-39547619D01*
X61866666Y-39642857D01*
X61866666Y-39738095D01*
X61819047Y-39880952D01*
X61247619Y-40452380D01*
X61866666Y-40452380D01*
%TO.C,J1*%
X60466666Y-59452380D02*
X60466666Y-60166666D01*
X60419047Y-60309523D01*
X60323809Y-60404761D01*
X60180952Y-60452380D01*
X60085714Y-60452380D01*
X61466666Y-60452380D02*
X60895238Y-60452380D01*
X61180952Y-60452380D02*
X61180952Y-59452380D01*
X61085714Y-59595238D01*
X60990476Y-59690476D01*
X60895238Y-59738095D01*
%TO.C,D1*%
X70261904Y-54952380D02*
X70261904Y-53952380D01*
X70500000Y-53952380D01*
X70642857Y-54000000D01*
X70738095Y-54095238D01*
X70785714Y-54190476D01*
X70833333Y-54380952D01*
X70833333Y-54523809D01*
X70785714Y-54714285D01*
X70738095Y-54809523D01*
X70642857Y-54904761D01*
X70500000Y-54952380D01*
X70261904Y-54952380D01*
X71785714Y-54952380D02*
X71214285Y-54952380D01*
X71500000Y-54952380D02*
X71500000Y-53952380D01*
X71404761Y-54095238D01*
X71309523Y-54190476D01*
X71214285Y-54238095D01*
%TO.C,CT1*%
X61052380Y-45557142D02*
X61004761Y-45604761D01*
X60861904Y-45652380D01*
X60766666Y-45652380D01*
X60623809Y-45604761D01*
X60528571Y-45509523D01*
X60480952Y-45414285D01*
X60433333Y-45223809D01*
X60433333Y-45080952D01*
X60480952Y-44890476D01*
X60528571Y-44795238D01*
X60623809Y-44700000D01*
X60766666Y-44652380D01*
X60861904Y-44652380D01*
X61004761Y-44700000D01*
X61052380Y-44747619D01*
X61338095Y-44652380D02*
X61909523Y-44652380D01*
X61623809Y-45652380D02*
X61623809Y-44652380D01*
X62766666Y-45652380D02*
X62195238Y-45652380D01*
X62480952Y-45652380D02*
X62480952Y-44652380D01*
X62385714Y-44795238D01*
X62290476Y-44890476D01*
X62195238Y-44938095D01*
%TO.C,C1*%
X70633333Y-45757142D02*
X70585714Y-45804761D01*
X70442857Y-45852380D01*
X70347619Y-45852380D01*
X70204761Y-45804761D01*
X70109523Y-45709523D01*
X70061904Y-45614285D01*
X70014285Y-45423809D01*
X70014285Y-45280952D01*
X70061904Y-45090476D01*
X70109523Y-44995238D01*
X70204761Y-44900000D01*
X70347619Y-44852380D01*
X70442857Y-44852380D01*
X70585714Y-44900000D01*
X70633333Y-44947619D01*
X71585714Y-45852380D02*
X71014285Y-45852380D01*
X71300000Y-45852380D02*
X71300000Y-44852380D01*
X71204761Y-44995238D01*
X71109523Y-45090476D01*
X71014285Y-45138095D01*
%TD*%
M02*
