M48
; DRILL file {KiCad 5.1.10-88a1d61d58~90~ubuntu21.04.1} date Fri Oct 15 10:00:42 2021
; FORMAT={-:-/ absolute / metric / decimal}
; #@! TF.CreationDate,2021-10-15T10:00:42+02:00
; #@! TF.GenerationSoftware,Kicad,Pcbnew,5.1.10-88a1d61d58~90~ubuntu21.04.1
FMAT,2
METRIC
T1C0.400
T2C1.000
%
G90
G05
T1
X53.846Y-56.871
X53.846Y-74.371
X53.846Y-91.871
X53.973Y-51.918
X53.973Y-69.418
X53.973Y-86.918
X55.5Y-53.5
X55.5Y-71.0
X55.5Y-88.5
X63.846Y-56.871
X63.846Y-74.371
X63.846Y-91.871
X63.973Y-51.918
X63.973Y-69.418
X63.973Y-86.918
X65.5Y-53.5
X65.5Y-71.0
X65.5Y-88.5
X73.846Y-56.871
X73.846Y-74.371
X73.846Y-91.871
X73.973Y-51.918
X73.973Y-69.418
X73.973Y-86.918
X75.5Y-53.5
X75.5Y-71.0
X75.5Y-88.5
X83.846Y-56.871
X83.846Y-74.371
X83.846Y-91.871
X83.973Y-51.918
X83.973Y-69.418
X83.973Y-86.918
X85.5Y-53.5
X85.5Y-71.0
X85.5Y-88.5
X93.846Y-56.871
X93.846Y-74.371
X93.846Y-91.871
X93.973Y-51.918
X93.973Y-69.418
X93.973Y-86.918
X95.5Y-53.5
X95.5Y-71.0
X95.5Y-88.5
X103.846Y-56.871
X103.846Y-74.371
X103.846Y-91.871
X103.973Y-51.918
X103.973Y-69.418
X103.973Y-86.918
X105.5Y-53.5
X105.5Y-71.0
X105.5Y-88.5
T2
X52.449Y-63.221
X52.449Y-65.761
X52.449Y-80.721
X52.449Y-83.261
X52.449Y-98.221
X52.449Y-100.761
X54.989Y-63.221
X54.989Y-65.761
X54.989Y-80.721
X54.989Y-83.261
X54.989Y-98.221
X54.989Y-100.761
X57.529Y-63.221
X57.529Y-65.761
X57.529Y-80.721
X57.529Y-83.261
X57.529Y-98.221
X57.529Y-100.761
X62.449Y-63.221
X62.449Y-65.761
X62.449Y-80.721
X62.449Y-83.261
X62.449Y-98.221
X62.449Y-100.761
X64.989Y-63.221
X64.989Y-65.761
X64.989Y-80.721
X64.989Y-83.261
X64.989Y-98.221
X64.989Y-100.761
X67.529Y-63.221
X67.529Y-65.761
X67.529Y-80.721
X67.529Y-83.261
X67.529Y-98.221
X67.529Y-100.761
X72.449Y-63.221
X72.449Y-65.761
X72.449Y-80.721
X72.449Y-83.261
X72.449Y-98.221
X72.449Y-100.761
X74.989Y-63.221
X74.989Y-65.761
X74.989Y-80.721
X74.989Y-83.261
X74.989Y-98.221
X74.989Y-100.761
X77.529Y-63.221
X77.529Y-65.761
X77.529Y-80.721
X77.529Y-83.261
X77.529Y-98.221
X77.529Y-100.761
X82.449Y-63.221
X82.449Y-65.761
X82.449Y-80.721
X82.449Y-83.261
X82.449Y-98.221
X82.449Y-100.761
X84.989Y-63.221
X84.989Y-65.761
X84.989Y-80.721
X84.989Y-83.261
X84.989Y-98.221
X84.989Y-100.761
X87.529Y-63.221
X87.529Y-65.761
X87.529Y-80.721
X87.529Y-83.261
X87.529Y-98.221
X87.529Y-100.761
X92.449Y-63.221
X92.449Y-65.761
X92.449Y-80.721
X92.449Y-83.261
X92.449Y-98.221
X92.449Y-100.761
X94.989Y-63.221
X94.989Y-65.761
X94.989Y-80.721
X94.989Y-83.261
X94.989Y-98.221
X94.989Y-100.761
X97.529Y-63.221
X97.529Y-65.761
X97.529Y-80.721
X97.529Y-83.261
X97.529Y-98.221
X97.529Y-100.761
X102.449Y-63.221
X102.449Y-65.761
X102.449Y-80.721
X102.449Y-83.261
X102.449Y-98.221
X102.449Y-100.761
X104.989Y-63.221
X104.989Y-65.761
X104.989Y-80.721
X104.989Y-83.261
X104.989Y-98.221
X104.989Y-100.761
X107.529Y-63.221
X107.529Y-65.761
X107.529Y-80.721
X107.529Y-83.261
X107.529Y-98.221
X107.529Y-100.761
T0
M30
