G04 #@! TF.GenerationSoftware,KiCad,Pcbnew,5.1.10-88a1d61d58~90~ubuntu21.04.1*
G04 #@! TF.CreationDate,2021-10-15T10:00:42+02:00*
G04 #@! TF.ProjectId,IndicatorLeds,496e6469-6361-4746-9f72-4c6564732e6b,rev?*
G04 #@! TF.SameCoordinates,Original*
G04 #@! TF.FileFunction,Soldermask,Top*
G04 #@! TF.FilePolarity,Negative*
%FSLAX46Y46*%
G04 Gerber Fmt 4.6, Leading zero omitted, Abs format (unit mm)*
G04 Created by KiCad (PCBNEW 5.1.10-88a1d61d58~90~ubuntu21.04.1) date 2021-10-15 10:00:42*
%MOMM*%
%LPD*%
G01*
G04 APERTURE LIST*
G04 #@! TA.AperFunction,Profile*
%ADD10C,0.100000*%
G04 #@! TD*
%ADD11R,1.700000X1.700000*%
%ADD12O,1.700000X1.700000*%
%ADD13R,1.500000X1.000000*%
G04 APERTURE END LIST*
D10*
X45000000Y-49999000D02*
X110000000Y-49999000D01*
X45000000Y-102501000D02*
X45000000Y-49999000D01*
X115001000Y-102501000D02*
X45000000Y-102501000D01*
X115001000Y-49999000D02*
X115001000Y-102501000D01*
X110000000Y-49999000D02*
X115001000Y-49999000D01*
D11*
G04 #@! TO.C,J1*
X107529026Y-100761011D03*
D12*
X107529026Y-98221011D03*
X104989026Y-100761011D03*
X104989026Y-98221011D03*
X102449026Y-100761011D03*
X102449026Y-98221011D03*
G04 #@! TD*
D13*
G04 #@! TO.C,D1*
X107450026Y-95100011D03*
X107450026Y-91900011D03*
X102550026Y-95100011D03*
X102550026Y-91900011D03*
G04 #@! TD*
G04 #@! TO.C,D2*
X107450026Y-90100011D03*
X107450026Y-86900011D03*
X102550026Y-90100011D03*
X102550026Y-86900011D03*
G04 #@! TD*
D11*
G04 #@! TO.C,J1*
X97529021Y-100761011D03*
D12*
X97529021Y-98221011D03*
X94989021Y-100761011D03*
X94989021Y-98221011D03*
X92449021Y-100761011D03*
X92449021Y-98221011D03*
G04 #@! TD*
D13*
G04 #@! TO.C,D1*
X97450021Y-95100011D03*
X97450021Y-91900011D03*
X92550021Y-95100011D03*
X92550021Y-91900011D03*
G04 #@! TD*
G04 #@! TO.C,D2*
X97450021Y-90100011D03*
X97450021Y-86900011D03*
X92550021Y-90100011D03*
X92550021Y-86900011D03*
G04 #@! TD*
D11*
G04 #@! TO.C,J1*
X87529016Y-100761011D03*
D12*
X87529016Y-98221011D03*
X84989016Y-100761011D03*
X84989016Y-98221011D03*
X82449016Y-100761011D03*
X82449016Y-98221011D03*
G04 #@! TD*
D13*
G04 #@! TO.C,D1*
X87450016Y-95100011D03*
X87450016Y-91900011D03*
X82550016Y-95100011D03*
X82550016Y-91900011D03*
G04 #@! TD*
G04 #@! TO.C,D2*
X87450016Y-90100011D03*
X87450016Y-86900011D03*
X82550016Y-90100011D03*
X82550016Y-86900011D03*
G04 #@! TD*
D11*
G04 #@! TO.C,J1*
X77529011Y-100761011D03*
D12*
X77529011Y-98221011D03*
X74989011Y-100761011D03*
X74989011Y-98221011D03*
X72449011Y-100761011D03*
X72449011Y-98221011D03*
G04 #@! TD*
D13*
G04 #@! TO.C,D1*
X77450011Y-95100011D03*
X77450011Y-91900011D03*
X72550011Y-95100011D03*
X72550011Y-91900011D03*
G04 #@! TD*
G04 #@! TO.C,D2*
X77450011Y-90100011D03*
X77450011Y-86900011D03*
X72550011Y-90100011D03*
X72550011Y-86900011D03*
G04 #@! TD*
D11*
G04 #@! TO.C,J1*
X67529006Y-100761011D03*
D12*
X67529006Y-98221011D03*
X64989006Y-100761011D03*
X64989006Y-98221011D03*
X62449006Y-100761011D03*
X62449006Y-98221011D03*
G04 #@! TD*
D13*
G04 #@! TO.C,D1*
X67450006Y-95100011D03*
X67450006Y-91900011D03*
X62550006Y-95100011D03*
X62550006Y-91900011D03*
G04 #@! TD*
G04 #@! TO.C,D2*
X67450006Y-90100011D03*
X67450006Y-86900011D03*
X62550006Y-90100011D03*
X62550006Y-86900011D03*
G04 #@! TD*
D11*
G04 #@! TO.C,J1*
X57529001Y-100761011D03*
D12*
X57529001Y-98221011D03*
X54989001Y-100761011D03*
X54989001Y-98221011D03*
X52449001Y-100761011D03*
X52449001Y-98221011D03*
G04 #@! TD*
D13*
G04 #@! TO.C,D1*
X57450001Y-95100011D03*
X57450001Y-91900011D03*
X52550001Y-95100011D03*
X52550001Y-91900011D03*
G04 #@! TD*
G04 #@! TO.C,D2*
X57450001Y-90100011D03*
X57450001Y-86900011D03*
X52550001Y-90100011D03*
X52550001Y-86900011D03*
G04 #@! TD*
D11*
G04 #@! TO.C,J1*
X107529026Y-83261006D03*
D12*
X107529026Y-80721006D03*
X104989026Y-83261006D03*
X104989026Y-80721006D03*
X102449026Y-83261006D03*
X102449026Y-80721006D03*
G04 #@! TD*
D13*
G04 #@! TO.C,D1*
X107450026Y-77600006D03*
X107450026Y-74400006D03*
X102550026Y-77600006D03*
X102550026Y-74400006D03*
G04 #@! TD*
G04 #@! TO.C,D2*
X107450026Y-72600006D03*
X107450026Y-69400006D03*
X102550026Y-72600006D03*
X102550026Y-69400006D03*
G04 #@! TD*
D11*
G04 #@! TO.C,J1*
X97529021Y-83261006D03*
D12*
X97529021Y-80721006D03*
X94989021Y-83261006D03*
X94989021Y-80721006D03*
X92449021Y-83261006D03*
X92449021Y-80721006D03*
G04 #@! TD*
D13*
G04 #@! TO.C,D1*
X97450021Y-77600006D03*
X97450021Y-74400006D03*
X92550021Y-77600006D03*
X92550021Y-74400006D03*
G04 #@! TD*
G04 #@! TO.C,D2*
X97450021Y-72600006D03*
X97450021Y-69400006D03*
X92550021Y-72600006D03*
X92550021Y-69400006D03*
G04 #@! TD*
D11*
G04 #@! TO.C,J1*
X87529016Y-83261006D03*
D12*
X87529016Y-80721006D03*
X84989016Y-83261006D03*
X84989016Y-80721006D03*
X82449016Y-83261006D03*
X82449016Y-80721006D03*
G04 #@! TD*
D13*
G04 #@! TO.C,D1*
X87450016Y-77600006D03*
X87450016Y-74400006D03*
X82550016Y-77600006D03*
X82550016Y-74400006D03*
G04 #@! TD*
G04 #@! TO.C,D2*
X87450016Y-72600006D03*
X87450016Y-69400006D03*
X82550016Y-72600006D03*
X82550016Y-69400006D03*
G04 #@! TD*
D11*
G04 #@! TO.C,J1*
X77529011Y-83261006D03*
D12*
X77529011Y-80721006D03*
X74989011Y-83261006D03*
X74989011Y-80721006D03*
X72449011Y-83261006D03*
X72449011Y-80721006D03*
G04 #@! TD*
D13*
G04 #@! TO.C,D1*
X77450011Y-77600006D03*
X77450011Y-74400006D03*
X72550011Y-77600006D03*
X72550011Y-74400006D03*
G04 #@! TD*
G04 #@! TO.C,D2*
X77450011Y-72600006D03*
X77450011Y-69400006D03*
X72550011Y-72600006D03*
X72550011Y-69400006D03*
G04 #@! TD*
D11*
G04 #@! TO.C,J1*
X67529006Y-83261006D03*
D12*
X67529006Y-80721006D03*
X64989006Y-83261006D03*
X64989006Y-80721006D03*
X62449006Y-83261006D03*
X62449006Y-80721006D03*
G04 #@! TD*
D13*
G04 #@! TO.C,D1*
X67450006Y-77600006D03*
X67450006Y-74400006D03*
X62550006Y-77600006D03*
X62550006Y-74400006D03*
G04 #@! TD*
G04 #@! TO.C,D2*
X67450006Y-72600006D03*
X67450006Y-69400006D03*
X62550006Y-72600006D03*
X62550006Y-69400006D03*
G04 #@! TD*
D11*
G04 #@! TO.C,J1*
X57529001Y-83261006D03*
D12*
X57529001Y-80721006D03*
X54989001Y-83261006D03*
X54989001Y-80721006D03*
X52449001Y-83261006D03*
X52449001Y-80721006D03*
G04 #@! TD*
D13*
G04 #@! TO.C,D1*
X57450001Y-77600006D03*
X57450001Y-74400006D03*
X52550001Y-77600006D03*
X52550001Y-74400006D03*
G04 #@! TD*
G04 #@! TO.C,D2*
X57450001Y-72600006D03*
X57450001Y-69400006D03*
X52550001Y-72600006D03*
X52550001Y-69400006D03*
G04 #@! TD*
D11*
G04 #@! TO.C,J1*
X107529026Y-65761001D03*
D12*
X107529026Y-63221001D03*
X104989026Y-65761001D03*
X104989026Y-63221001D03*
X102449026Y-65761001D03*
X102449026Y-63221001D03*
G04 #@! TD*
D13*
G04 #@! TO.C,D1*
X107450026Y-60100001D03*
X107450026Y-56900001D03*
X102550026Y-60100001D03*
X102550026Y-56900001D03*
G04 #@! TD*
G04 #@! TO.C,D2*
X107450026Y-55100001D03*
X107450026Y-51900001D03*
X102550026Y-55100001D03*
X102550026Y-51900001D03*
G04 #@! TD*
D11*
G04 #@! TO.C,J1*
X97529021Y-65761001D03*
D12*
X97529021Y-63221001D03*
X94989021Y-65761001D03*
X94989021Y-63221001D03*
X92449021Y-65761001D03*
X92449021Y-63221001D03*
G04 #@! TD*
D13*
G04 #@! TO.C,D1*
X97450021Y-60100001D03*
X97450021Y-56900001D03*
X92550021Y-60100001D03*
X92550021Y-56900001D03*
G04 #@! TD*
G04 #@! TO.C,D2*
X97450021Y-55100001D03*
X97450021Y-51900001D03*
X92550021Y-55100001D03*
X92550021Y-51900001D03*
G04 #@! TD*
D11*
G04 #@! TO.C,J1*
X87529016Y-65761001D03*
D12*
X87529016Y-63221001D03*
X84989016Y-65761001D03*
X84989016Y-63221001D03*
X82449016Y-65761001D03*
X82449016Y-63221001D03*
G04 #@! TD*
D13*
G04 #@! TO.C,D1*
X87450016Y-60100001D03*
X87450016Y-56900001D03*
X82550016Y-60100001D03*
X82550016Y-56900001D03*
G04 #@! TD*
G04 #@! TO.C,D2*
X87450016Y-55100001D03*
X87450016Y-51900001D03*
X82550016Y-55100001D03*
X82550016Y-51900001D03*
G04 #@! TD*
D11*
G04 #@! TO.C,J1*
X77529011Y-65761001D03*
D12*
X77529011Y-63221001D03*
X74989011Y-65761001D03*
X74989011Y-63221001D03*
X72449011Y-65761001D03*
X72449011Y-63221001D03*
G04 #@! TD*
D13*
G04 #@! TO.C,D1*
X77450011Y-60100001D03*
X77450011Y-56900001D03*
X72550011Y-60100001D03*
X72550011Y-56900001D03*
G04 #@! TD*
G04 #@! TO.C,D2*
X77450011Y-55100001D03*
X77450011Y-51900001D03*
X72550011Y-55100001D03*
X72550011Y-51900001D03*
G04 #@! TD*
D11*
G04 #@! TO.C,J1*
X67529006Y-65761001D03*
D12*
X67529006Y-63221001D03*
X64989006Y-65761001D03*
X64989006Y-63221001D03*
X62449006Y-65761001D03*
X62449006Y-63221001D03*
G04 #@! TD*
D13*
G04 #@! TO.C,D1*
X67450006Y-60100001D03*
X67450006Y-56900001D03*
X62550006Y-60100001D03*
X62550006Y-56900001D03*
G04 #@! TD*
G04 #@! TO.C,D2*
X67450006Y-55100001D03*
X67450006Y-51900001D03*
X62550006Y-55100001D03*
X62550006Y-51900001D03*
G04 #@! TD*
D11*
G04 #@! TO.C,J1*
X57529001Y-65761001D03*
D12*
X57529001Y-63221001D03*
X54989001Y-65761001D03*
X54989001Y-63221001D03*
X52449001Y-65761001D03*
X52449001Y-63221001D03*
G04 #@! TD*
D13*
G04 #@! TO.C,D1*
X57450001Y-60100001D03*
X57450001Y-56900001D03*
X52550001Y-60100001D03*
X52550001Y-56900001D03*
G04 #@! TD*
G04 #@! TO.C,D2*
X57450001Y-55100001D03*
X57450001Y-51900001D03*
X52550001Y-55100001D03*
X52550001Y-51900001D03*
G04 #@! TD*
M02*
