G04 #@! TF.GenerationSoftware,KiCad,Pcbnew,5.1.10-88a1d61d58~90~ubuntu21.04.1*
G04 #@! TF.CreationDate,2021-10-15T10:00:42+02:00*
G04 #@! TF.ProjectId,IndicatorLeds,496e6469-6361-4746-9f72-4c6564732e6b,rev?*
G04 #@! TF.SameCoordinates,Original*
G04 #@! TF.FileFunction,Legend,Bot*
G04 #@! TF.FilePolarity,Positive*
%FSLAX46Y46*%
G04 Gerber Fmt 4.6, Leading zero omitted, Abs format (unit mm)*
G04 Created by KiCad (PCBNEW 5.1.10-88a1d61d58~90~ubuntu21.04.1) date 2021-10-15 10:00:42*
%MOMM*%
%LPD*%
G01*
G04 APERTURE LIST*
G04 #@! TA.AperFunction,Profile*
%ADD10C,0.100000*%
G04 #@! TD*
%ADD11C,0.150000*%
%ADD12C,0.120000*%
G04 APERTURE END LIST*
D10*
X45000000Y-49999000D02*
X110000000Y-49999000D01*
X45000000Y-102501000D02*
X45000000Y-49999000D01*
X115001000Y-102501000D02*
X45000000Y-102501000D01*
X115001000Y-49999000D02*
X115001000Y-102501000D01*
X110000000Y-49999000D02*
X115001000Y-49999000D01*
D11*
X103592883Y-90488225D02*
X102392883Y-90488225D01*
X102392883Y-90773939D01*
X102450026Y-90945368D01*
X102564311Y-91059653D01*
X102678597Y-91116796D01*
X102907168Y-91173939D01*
X103078597Y-91173939D01*
X103307168Y-91116796D01*
X103421454Y-91059653D01*
X103535740Y-90945368D01*
X103592883Y-90773939D01*
X103592883Y-90488225D01*
X103592883Y-91859653D02*
X103535740Y-91745368D01*
X103478597Y-91688225D01*
X103364311Y-91631082D01*
X103021454Y-91631082D01*
X102907168Y-91688225D01*
X102850026Y-91745368D01*
X102792883Y-91859653D01*
X102792883Y-92031082D01*
X102850026Y-92145368D01*
X102907168Y-92202511D01*
X103021454Y-92259653D01*
X103364311Y-92259653D01*
X103478597Y-92202511D01*
X103535740Y-92145368D01*
X103592883Y-92031082D01*
X103592883Y-91859653D01*
X103992883Y-93059653D02*
X102278597Y-93059653D01*
X103592883Y-93916796D02*
X102392883Y-93916796D01*
X102392883Y-94202511D01*
X102450026Y-94373939D01*
X102564311Y-94488225D01*
X102678597Y-94545368D01*
X102907168Y-94602511D01*
X103078597Y-94602511D01*
X103307168Y-94545368D01*
X103421454Y-94488225D01*
X103535740Y-94373939D01*
X103592883Y-94202511D01*
X103592883Y-93916796D01*
X103592883Y-95116796D02*
X102792883Y-95116796D01*
X102392883Y-95116796D02*
X102450026Y-95059653D01*
X102507168Y-95116796D01*
X102450026Y-95173939D01*
X102392883Y-95116796D01*
X102507168Y-95116796D01*
X104400026Y-92659653D02*
X104342883Y-92545368D01*
X104342883Y-92373939D01*
X104400026Y-92202511D01*
X104514311Y-92088225D01*
X104628597Y-92031082D01*
X104857168Y-91973939D01*
X105028597Y-91973939D01*
X105257168Y-92031082D01*
X105371454Y-92088225D01*
X105485740Y-92202511D01*
X105542883Y-92373939D01*
X105542883Y-92488225D01*
X105485740Y-92659653D01*
X105428597Y-92716796D01*
X105028597Y-92716796D01*
X105028597Y-92488225D01*
X105542883Y-93231082D02*
X104342883Y-93231082D01*
X105542883Y-93916796D01*
X104342883Y-93916796D01*
X105542883Y-94488225D02*
X104342883Y-94488225D01*
X104342883Y-94773939D01*
X104400026Y-94945368D01*
X104514311Y-95059653D01*
X104628597Y-95116796D01*
X104857168Y-95173939D01*
X105028597Y-95173939D01*
X105257168Y-95116796D01*
X105371454Y-95059653D01*
X105485740Y-94945368D01*
X105542883Y-94773939D01*
X105542883Y-94488225D01*
X106292883Y-92088225D02*
X107492883Y-92488225D01*
X106292883Y-92888225D01*
X107378597Y-93973939D02*
X107435740Y-93916796D01*
X107492883Y-93745368D01*
X107492883Y-93631082D01*
X107435740Y-93459653D01*
X107321454Y-93345368D01*
X107207168Y-93288225D01*
X106978597Y-93231082D01*
X106807168Y-93231082D01*
X106578597Y-93288225D01*
X106464311Y-93345368D01*
X106350026Y-93459653D01*
X106292883Y-93631082D01*
X106292883Y-93745368D01*
X106350026Y-93916796D01*
X106407168Y-93973939D01*
X107378597Y-95173939D02*
X107435740Y-95116796D01*
X107492883Y-94945368D01*
X107492883Y-94831082D01*
X107435740Y-94659653D01*
X107321454Y-94545368D01*
X107207168Y-94488225D01*
X106978597Y-94431082D01*
X106807168Y-94431082D01*
X106578597Y-94488225D01*
X106464311Y-94545368D01*
X106350026Y-94659653D01*
X106292883Y-94831082D01*
X106292883Y-94945368D01*
X106350026Y-95116796D01*
X106407168Y-95173939D01*
X93592878Y-90488225D02*
X92392878Y-90488225D01*
X92392878Y-90773939D01*
X92450021Y-90945368D01*
X92564306Y-91059653D01*
X92678592Y-91116796D01*
X92907163Y-91173939D01*
X93078592Y-91173939D01*
X93307163Y-91116796D01*
X93421449Y-91059653D01*
X93535735Y-90945368D01*
X93592878Y-90773939D01*
X93592878Y-90488225D01*
X93592878Y-91859653D02*
X93535735Y-91745368D01*
X93478592Y-91688225D01*
X93364306Y-91631082D01*
X93021449Y-91631082D01*
X92907163Y-91688225D01*
X92850021Y-91745368D01*
X92792878Y-91859653D01*
X92792878Y-92031082D01*
X92850021Y-92145368D01*
X92907163Y-92202511D01*
X93021449Y-92259653D01*
X93364306Y-92259653D01*
X93478592Y-92202511D01*
X93535735Y-92145368D01*
X93592878Y-92031082D01*
X93592878Y-91859653D01*
X93992878Y-93059653D02*
X92278592Y-93059653D01*
X93592878Y-93916796D02*
X92392878Y-93916796D01*
X92392878Y-94202511D01*
X92450021Y-94373939D01*
X92564306Y-94488225D01*
X92678592Y-94545368D01*
X92907163Y-94602511D01*
X93078592Y-94602511D01*
X93307163Y-94545368D01*
X93421449Y-94488225D01*
X93535735Y-94373939D01*
X93592878Y-94202511D01*
X93592878Y-93916796D01*
X93592878Y-95116796D02*
X92792878Y-95116796D01*
X92392878Y-95116796D02*
X92450021Y-95059653D01*
X92507163Y-95116796D01*
X92450021Y-95173939D01*
X92392878Y-95116796D01*
X92507163Y-95116796D01*
X94400021Y-92659653D02*
X94342878Y-92545368D01*
X94342878Y-92373939D01*
X94400021Y-92202511D01*
X94514306Y-92088225D01*
X94628592Y-92031082D01*
X94857163Y-91973939D01*
X95028592Y-91973939D01*
X95257163Y-92031082D01*
X95371449Y-92088225D01*
X95485735Y-92202511D01*
X95542878Y-92373939D01*
X95542878Y-92488225D01*
X95485735Y-92659653D01*
X95428592Y-92716796D01*
X95028592Y-92716796D01*
X95028592Y-92488225D01*
X95542878Y-93231082D02*
X94342878Y-93231082D01*
X95542878Y-93916796D01*
X94342878Y-93916796D01*
X95542878Y-94488225D02*
X94342878Y-94488225D01*
X94342878Y-94773939D01*
X94400021Y-94945368D01*
X94514306Y-95059653D01*
X94628592Y-95116796D01*
X94857163Y-95173939D01*
X95028592Y-95173939D01*
X95257163Y-95116796D01*
X95371449Y-95059653D01*
X95485735Y-94945368D01*
X95542878Y-94773939D01*
X95542878Y-94488225D01*
X96292878Y-92088225D02*
X97492878Y-92488225D01*
X96292878Y-92888225D01*
X97378592Y-93973939D02*
X97435735Y-93916796D01*
X97492878Y-93745368D01*
X97492878Y-93631082D01*
X97435735Y-93459653D01*
X97321449Y-93345368D01*
X97207163Y-93288225D01*
X96978592Y-93231082D01*
X96807163Y-93231082D01*
X96578592Y-93288225D01*
X96464306Y-93345368D01*
X96350021Y-93459653D01*
X96292878Y-93631082D01*
X96292878Y-93745368D01*
X96350021Y-93916796D01*
X96407163Y-93973939D01*
X97378592Y-95173939D02*
X97435735Y-95116796D01*
X97492878Y-94945368D01*
X97492878Y-94831082D01*
X97435735Y-94659653D01*
X97321449Y-94545368D01*
X97207163Y-94488225D01*
X96978592Y-94431082D01*
X96807163Y-94431082D01*
X96578592Y-94488225D01*
X96464306Y-94545368D01*
X96350021Y-94659653D01*
X96292878Y-94831082D01*
X96292878Y-94945368D01*
X96350021Y-95116796D01*
X96407163Y-95173939D01*
X83592873Y-90488225D02*
X82392873Y-90488225D01*
X82392873Y-90773939D01*
X82450016Y-90945368D01*
X82564301Y-91059653D01*
X82678587Y-91116796D01*
X82907158Y-91173939D01*
X83078587Y-91173939D01*
X83307158Y-91116796D01*
X83421444Y-91059653D01*
X83535730Y-90945368D01*
X83592873Y-90773939D01*
X83592873Y-90488225D01*
X83592873Y-91859653D02*
X83535730Y-91745368D01*
X83478587Y-91688225D01*
X83364301Y-91631082D01*
X83021444Y-91631082D01*
X82907158Y-91688225D01*
X82850016Y-91745368D01*
X82792873Y-91859653D01*
X82792873Y-92031082D01*
X82850016Y-92145368D01*
X82907158Y-92202511D01*
X83021444Y-92259653D01*
X83364301Y-92259653D01*
X83478587Y-92202511D01*
X83535730Y-92145368D01*
X83592873Y-92031082D01*
X83592873Y-91859653D01*
X83992873Y-93059653D02*
X82278587Y-93059653D01*
X83592873Y-93916796D02*
X82392873Y-93916796D01*
X82392873Y-94202511D01*
X82450016Y-94373939D01*
X82564301Y-94488225D01*
X82678587Y-94545368D01*
X82907158Y-94602511D01*
X83078587Y-94602511D01*
X83307158Y-94545368D01*
X83421444Y-94488225D01*
X83535730Y-94373939D01*
X83592873Y-94202511D01*
X83592873Y-93916796D01*
X83592873Y-95116796D02*
X82792873Y-95116796D01*
X82392873Y-95116796D02*
X82450016Y-95059653D01*
X82507158Y-95116796D01*
X82450016Y-95173939D01*
X82392873Y-95116796D01*
X82507158Y-95116796D01*
X84400016Y-92659653D02*
X84342873Y-92545368D01*
X84342873Y-92373939D01*
X84400016Y-92202511D01*
X84514301Y-92088225D01*
X84628587Y-92031082D01*
X84857158Y-91973939D01*
X85028587Y-91973939D01*
X85257158Y-92031082D01*
X85371444Y-92088225D01*
X85485730Y-92202511D01*
X85542873Y-92373939D01*
X85542873Y-92488225D01*
X85485730Y-92659653D01*
X85428587Y-92716796D01*
X85028587Y-92716796D01*
X85028587Y-92488225D01*
X85542873Y-93231082D02*
X84342873Y-93231082D01*
X85542873Y-93916796D01*
X84342873Y-93916796D01*
X85542873Y-94488225D02*
X84342873Y-94488225D01*
X84342873Y-94773939D01*
X84400016Y-94945368D01*
X84514301Y-95059653D01*
X84628587Y-95116796D01*
X84857158Y-95173939D01*
X85028587Y-95173939D01*
X85257158Y-95116796D01*
X85371444Y-95059653D01*
X85485730Y-94945368D01*
X85542873Y-94773939D01*
X85542873Y-94488225D01*
X86292873Y-92088225D02*
X87492873Y-92488225D01*
X86292873Y-92888225D01*
X87378587Y-93973939D02*
X87435730Y-93916796D01*
X87492873Y-93745368D01*
X87492873Y-93631082D01*
X87435730Y-93459653D01*
X87321444Y-93345368D01*
X87207158Y-93288225D01*
X86978587Y-93231082D01*
X86807158Y-93231082D01*
X86578587Y-93288225D01*
X86464301Y-93345368D01*
X86350016Y-93459653D01*
X86292873Y-93631082D01*
X86292873Y-93745368D01*
X86350016Y-93916796D01*
X86407158Y-93973939D01*
X87378587Y-95173939D02*
X87435730Y-95116796D01*
X87492873Y-94945368D01*
X87492873Y-94831082D01*
X87435730Y-94659653D01*
X87321444Y-94545368D01*
X87207158Y-94488225D01*
X86978587Y-94431082D01*
X86807158Y-94431082D01*
X86578587Y-94488225D01*
X86464301Y-94545368D01*
X86350016Y-94659653D01*
X86292873Y-94831082D01*
X86292873Y-94945368D01*
X86350016Y-95116796D01*
X86407158Y-95173939D01*
X73592868Y-90488225D02*
X72392868Y-90488225D01*
X72392868Y-90773939D01*
X72450011Y-90945368D01*
X72564296Y-91059653D01*
X72678582Y-91116796D01*
X72907153Y-91173939D01*
X73078582Y-91173939D01*
X73307153Y-91116796D01*
X73421439Y-91059653D01*
X73535725Y-90945368D01*
X73592868Y-90773939D01*
X73592868Y-90488225D01*
X73592868Y-91859653D02*
X73535725Y-91745368D01*
X73478582Y-91688225D01*
X73364296Y-91631082D01*
X73021439Y-91631082D01*
X72907153Y-91688225D01*
X72850011Y-91745368D01*
X72792868Y-91859653D01*
X72792868Y-92031082D01*
X72850011Y-92145368D01*
X72907153Y-92202511D01*
X73021439Y-92259653D01*
X73364296Y-92259653D01*
X73478582Y-92202511D01*
X73535725Y-92145368D01*
X73592868Y-92031082D01*
X73592868Y-91859653D01*
X73992868Y-93059653D02*
X72278582Y-93059653D01*
X73592868Y-93916796D02*
X72392868Y-93916796D01*
X72392868Y-94202511D01*
X72450011Y-94373939D01*
X72564296Y-94488225D01*
X72678582Y-94545368D01*
X72907153Y-94602511D01*
X73078582Y-94602511D01*
X73307153Y-94545368D01*
X73421439Y-94488225D01*
X73535725Y-94373939D01*
X73592868Y-94202511D01*
X73592868Y-93916796D01*
X73592868Y-95116796D02*
X72792868Y-95116796D01*
X72392868Y-95116796D02*
X72450011Y-95059653D01*
X72507153Y-95116796D01*
X72450011Y-95173939D01*
X72392868Y-95116796D01*
X72507153Y-95116796D01*
X74400011Y-92659653D02*
X74342868Y-92545368D01*
X74342868Y-92373939D01*
X74400011Y-92202511D01*
X74514296Y-92088225D01*
X74628582Y-92031082D01*
X74857153Y-91973939D01*
X75028582Y-91973939D01*
X75257153Y-92031082D01*
X75371439Y-92088225D01*
X75485725Y-92202511D01*
X75542868Y-92373939D01*
X75542868Y-92488225D01*
X75485725Y-92659653D01*
X75428582Y-92716796D01*
X75028582Y-92716796D01*
X75028582Y-92488225D01*
X75542868Y-93231082D02*
X74342868Y-93231082D01*
X75542868Y-93916796D01*
X74342868Y-93916796D01*
X75542868Y-94488225D02*
X74342868Y-94488225D01*
X74342868Y-94773939D01*
X74400011Y-94945368D01*
X74514296Y-95059653D01*
X74628582Y-95116796D01*
X74857153Y-95173939D01*
X75028582Y-95173939D01*
X75257153Y-95116796D01*
X75371439Y-95059653D01*
X75485725Y-94945368D01*
X75542868Y-94773939D01*
X75542868Y-94488225D01*
X76292868Y-92088225D02*
X77492868Y-92488225D01*
X76292868Y-92888225D01*
X77378582Y-93973939D02*
X77435725Y-93916796D01*
X77492868Y-93745368D01*
X77492868Y-93631082D01*
X77435725Y-93459653D01*
X77321439Y-93345368D01*
X77207153Y-93288225D01*
X76978582Y-93231082D01*
X76807153Y-93231082D01*
X76578582Y-93288225D01*
X76464296Y-93345368D01*
X76350011Y-93459653D01*
X76292868Y-93631082D01*
X76292868Y-93745368D01*
X76350011Y-93916796D01*
X76407153Y-93973939D01*
X77378582Y-95173939D02*
X77435725Y-95116796D01*
X77492868Y-94945368D01*
X77492868Y-94831082D01*
X77435725Y-94659653D01*
X77321439Y-94545368D01*
X77207153Y-94488225D01*
X76978582Y-94431082D01*
X76807153Y-94431082D01*
X76578582Y-94488225D01*
X76464296Y-94545368D01*
X76350011Y-94659653D01*
X76292868Y-94831082D01*
X76292868Y-94945368D01*
X76350011Y-95116796D01*
X76407153Y-95173939D01*
X63592863Y-90488225D02*
X62392863Y-90488225D01*
X62392863Y-90773939D01*
X62450006Y-90945368D01*
X62564291Y-91059653D01*
X62678577Y-91116796D01*
X62907148Y-91173939D01*
X63078577Y-91173939D01*
X63307148Y-91116796D01*
X63421434Y-91059653D01*
X63535720Y-90945368D01*
X63592863Y-90773939D01*
X63592863Y-90488225D01*
X63592863Y-91859653D02*
X63535720Y-91745368D01*
X63478577Y-91688225D01*
X63364291Y-91631082D01*
X63021434Y-91631082D01*
X62907148Y-91688225D01*
X62850006Y-91745368D01*
X62792863Y-91859653D01*
X62792863Y-92031082D01*
X62850006Y-92145368D01*
X62907148Y-92202511D01*
X63021434Y-92259653D01*
X63364291Y-92259653D01*
X63478577Y-92202511D01*
X63535720Y-92145368D01*
X63592863Y-92031082D01*
X63592863Y-91859653D01*
X63992863Y-93059653D02*
X62278577Y-93059653D01*
X63592863Y-93916796D02*
X62392863Y-93916796D01*
X62392863Y-94202511D01*
X62450006Y-94373939D01*
X62564291Y-94488225D01*
X62678577Y-94545368D01*
X62907148Y-94602511D01*
X63078577Y-94602511D01*
X63307148Y-94545368D01*
X63421434Y-94488225D01*
X63535720Y-94373939D01*
X63592863Y-94202511D01*
X63592863Y-93916796D01*
X63592863Y-95116796D02*
X62792863Y-95116796D01*
X62392863Y-95116796D02*
X62450006Y-95059653D01*
X62507148Y-95116796D01*
X62450006Y-95173939D01*
X62392863Y-95116796D01*
X62507148Y-95116796D01*
X64400006Y-92659653D02*
X64342863Y-92545368D01*
X64342863Y-92373939D01*
X64400006Y-92202511D01*
X64514291Y-92088225D01*
X64628577Y-92031082D01*
X64857148Y-91973939D01*
X65028577Y-91973939D01*
X65257148Y-92031082D01*
X65371434Y-92088225D01*
X65485720Y-92202511D01*
X65542863Y-92373939D01*
X65542863Y-92488225D01*
X65485720Y-92659653D01*
X65428577Y-92716796D01*
X65028577Y-92716796D01*
X65028577Y-92488225D01*
X65542863Y-93231082D02*
X64342863Y-93231082D01*
X65542863Y-93916796D01*
X64342863Y-93916796D01*
X65542863Y-94488225D02*
X64342863Y-94488225D01*
X64342863Y-94773939D01*
X64400006Y-94945368D01*
X64514291Y-95059653D01*
X64628577Y-95116796D01*
X64857148Y-95173939D01*
X65028577Y-95173939D01*
X65257148Y-95116796D01*
X65371434Y-95059653D01*
X65485720Y-94945368D01*
X65542863Y-94773939D01*
X65542863Y-94488225D01*
X66292863Y-92088225D02*
X67492863Y-92488225D01*
X66292863Y-92888225D01*
X67378577Y-93973939D02*
X67435720Y-93916796D01*
X67492863Y-93745368D01*
X67492863Y-93631082D01*
X67435720Y-93459653D01*
X67321434Y-93345368D01*
X67207148Y-93288225D01*
X66978577Y-93231082D01*
X66807148Y-93231082D01*
X66578577Y-93288225D01*
X66464291Y-93345368D01*
X66350006Y-93459653D01*
X66292863Y-93631082D01*
X66292863Y-93745368D01*
X66350006Y-93916796D01*
X66407148Y-93973939D01*
X67378577Y-95173939D02*
X67435720Y-95116796D01*
X67492863Y-94945368D01*
X67492863Y-94831082D01*
X67435720Y-94659653D01*
X67321434Y-94545368D01*
X67207148Y-94488225D01*
X66978577Y-94431082D01*
X66807148Y-94431082D01*
X66578577Y-94488225D01*
X66464291Y-94545368D01*
X66350006Y-94659653D01*
X66292863Y-94831082D01*
X66292863Y-94945368D01*
X66350006Y-95116796D01*
X66407148Y-95173939D01*
X53592858Y-90488225D02*
X52392858Y-90488225D01*
X52392858Y-90773939D01*
X52450001Y-90945368D01*
X52564286Y-91059653D01*
X52678572Y-91116796D01*
X52907143Y-91173939D01*
X53078572Y-91173939D01*
X53307143Y-91116796D01*
X53421429Y-91059653D01*
X53535715Y-90945368D01*
X53592858Y-90773939D01*
X53592858Y-90488225D01*
X53592858Y-91859653D02*
X53535715Y-91745368D01*
X53478572Y-91688225D01*
X53364286Y-91631082D01*
X53021429Y-91631082D01*
X52907143Y-91688225D01*
X52850001Y-91745368D01*
X52792858Y-91859653D01*
X52792858Y-92031082D01*
X52850001Y-92145368D01*
X52907143Y-92202511D01*
X53021429Y-92259653D01*
X53364286Y-92259653D01*
X53478572Y-92202511D01*
X53535715Y-92145368D01*
X53592858Y-92031082D01*
X53592858Y-91859653D01*
X53992858Y-93059653D02*
X52278572Y-93059653D01*
X53592858Y-93916796D02*
X52392858Y-93916796D01*
X52392858Y-94202511D01*
X52450001Y-94373939D01*
X52564286Y-94488225D01*
X52678572Y-94545368D01*
X52907143Y-94602511D01*
X53078572Y-94602511D01*
X53307143Y-94545368D01*
X53421429Y-94488225D01*
X53535715Y-94373939D01*
X53592858Y-94202511D01*
X53592858Y-93916796D01*
X53592858Y-95116796D02*
X52792858Y-95116796D01*
X52392858Y-95116796D02*
X52450001Y-95059653D01*
X52507143Y-95116796D01*
X52450001Y-95173939D01*
X52392858Y-95116796D01*
X52507143Y-95116796D01*
X54400001Y-92659653D02*
X54342858Y-92545368D01*
X54342858Y-92373939D01*
X54400001Y-92202511D01*
X54514286Y-92088225D01*
X54628572Y-92031082D01*
X54857143Y-91973939D01*
X55028572Y-91973939D01*
X55257143Y-92031082D01*
X55371429Y-92088225D01*
X55485715Y-92202511D01*
X55542858Y-92373939D01*
X55542858Y-92488225D01*
X55485715Y-92659653D01*
X55428572Y-92716796D01*
X55028572Y-92716796D01*
X55028572Y-92488225D01*
X55542858Y-93231082D02*
X54342858Y-93231082D01*
X55542858Y-93916796D01*
X54342858Y-93916796D01*
X55542858Y-94488225D02*
X54342858Y-94488225D01*
X54342858Y-94773939D01*
X54400001Y-94945368D01*
X54514286Y-95059653D01*
X54628572Y-95116796D01*
X54857143Y-95173939D01*
X55028572Y-95173939D01*
X55257143Y-95116796D01*
X55371429Y-95059653D01*
X55485715Y-94945368D01*
X55542858Y-94773939D01*
X55542858Y-94488225D01*
X56292858Y-92088225D02*
X57492858Y-92488225D01*
X56292858Y-92888225D01*
X57378572Y-93973939D02*
X57435715Y-93916796D01*
X57492858Y-93745368D01*
X57492858Y-93631082D01*
X57435715Y-93459653D01*
X57321429Y-93345368D01*
X57207143Y-93288225D01*
X56978572Y-93231082D01*
X56807143Y-93231082D01*
X56578572Y-93288225D01*
X56464286Y-93345368D01*
X56350001Y-93459653D01*
X56292858Y-93631082D01*
X56292858Y-93745368D01*
X56350001Y-93916796D01*
X56407143Y-93973939D01*
X57378572Y-95173939D02*
X57435715Y-95116796D01*
X57492858Y-94945368D01*
X57492858Y-94831082D01*
X57435715Y-94659653D01*
X57321429Y-94545368D01*
X57207143Y-94488225D01*
X56978572Y-94431082D01*
X56807143Y-94431082D01*
X56578572Y-94488225D01*
X56464286Y-94545368D01*
X56350001Y-94659653D01*
X56292858Y-94831082D01*
X56292858Y-94945368D01*
X56350001Y-95116796D01*
X56407143Y-95173939D01*
X103592883Y-72988220D02*
X102392883Y-72988220D01*
X102392883Y-73273934D01*
X102450026Y-73445363D01*
X102564311Y-73559648D01*
X102678597Y-73616791D01*
X102907168Y-73673934D01*
X103078597Y-73673934D01*
X103307168Y-73616791D01*
X103421454Y-73559648D01*
X103535740Y-73445363D01*
X103592883Y-73273934D01*
X103592883Y-72988220D01*
X103592883Y-74359648D02*
X103535740Y-74245363D01*
X103478597Y-74188220D01*
X103364311Y-74131077D01*
X103021454Y-74131077D01*
X102907168Y-74188220D01*
X102850026Y-74245363D01*
X102792883Y-74359648D01*
X102792883Y-74531077D01*
X102850026Y-74645363D01*
X102907168Y-74702506D01*
X103021454Y-74759648D01*
X103364311Y-74759648D01*
X103478597Y-74702506D01*
X103535740Y-74645363D01*
X103592883Y-74531077D01*
X103592883Y-74359648D01*
X103992883Y-75559648D02*
X102278597Y-75559648D01*
X103592883Y-76416791D02*
X102392883Y-76416791D01*
X102392883Y-76702506D01*
X102450026Y-76873934D01*
X102564311Y-76988220D01*
X102678597Y-77045363D01*
X102907168Y-77102506D01*
X103078597Y-77102506D01*
X103307168Y-77045363D01*
X103421454Y-76988220D01*
X103535740Y-76873934D01*
X103592883Y-76702506D01*
X103592883Y-76416791D01*
X103592883Y-77616791D02*
X102792883Y-77616791D01*
X102392883Y-77616791D02*
X102450026Y-77559648D01*
X102507168Y-77616791D01*
X102450026Y-77673934D01*
X102392883Y-77616791D01*
X102507168Y-77616791D01*
X104400026Y-75159648D02*
X104342883Y-75045363D01*
X104342883Y-74873934D01*
X104400026Y-74702506D01*
X104514311Y-74588220D01*
X104628597Y-74531077D01*
X104857168Y-74473934D01*
X105028597Y-74473934D01*
X105257168Y-74531077D01*
X105371454Y-74588220D01*
X105485740Y-74702506D01*
X105542883Y-74873934D01*
X105542883Y-74988220D01*
X105485740Y-75159648D01*
X105428597Y-75216791D01*
X105028597Y-75216791D01*
X105028597Y-74988220D01*
X105542883Y-75731077D02*
X104342883Y-75731077D01*
X105542883Y-76416791D01*
X104342883Y-76416791D01*
X105542883Y-76988220D02*
X104342883Y-76988220D01*
X104342883Y-77273934D01*
X104400026Y-77445363D01*
X104514311Y-77559648D01*
X104628597Y-77616791D01*
X104857168Y-77673934D01*
X105028597Y-77673934D01*
X105257168Y-77616791D01*
X105371454Y-77559648D01*
X105485740Y-77445363D01*
X105542883Y-77273934D01*
X105542883Y-76988220D01*
X106292883Y-74588220D02*
X107492883Y-74988220D01*
X106292883Y-75388220D01*
X107378597Y-76473934D02*
X107435740Y-76416791D01*
X107492883Y-76245363D01*
X107492883Y-76131077D01*
X107435740Y-75959648D01*
X107321454Y-75845363D01*
X107207168Y-75788220D01*
X106978597Y-75731077D01*
X106807168Y-75731077D01*
X106578597Y-75788220D01*
X106464311Y-75845363D01*
X106350026Y-75959648D01*
X106292883Y-76131077D01*
X106292883Y-76245363D01*
X106350026Y-76416791D01*
X106407168Y-76473934D01*
X107378597Y-77673934D02*
X107435740Y-77616791D01*
X107492883Y-77445363D01*
X107492883Y-77331077D01*
X107435740Y-77159648D01*
X107321454Y-77045363D01*
X107207168Y-76988220D01*
X106978597Y-76931077D01*
X106807168Y-76931077D01*
X106578597Y-76988220D01*
X106464311Y-77045363D01*
X106350026Y-77159648D01*
X106292883Y-77331077D01*
X106292883Y-77445363D01*
X106350026Y-77616791D01*
X106407168Y-77673934D01*
X93592878Y-72988220D02*
X92392878Y-72988220D01*
X92392878Y-73273934D01*
X92450021Y-73445363D01*
X92564306Y-73559648D01*
X92678592Y-73616791D01*
X92907163Y-73673934D01*
X93078592Y-73673934D01*
X93307163Y-73616791D01*
X93421449Y-73559648D01*
X93535735Y-73445363D01*
X93592878Y-73273934D01*
X93592878Y-72988220D01*
X93592878Y-74359648D02*
X93535735Y-74245363D01*
X93478592Y-74188220D01*
X93364306Y-74131077D01*
X93021449Y-74131077D01*
X92907163Y-74188220D01*
X92850021Y-74245363D01*
X92792878Y-74359648D01*
X92792878Y-74531077D01*
X92850021Y-74645363D01*
X92907163Y-74702506D01*
X93021449Y-74759648D01*
X93364306Y-74759648D01*
X93478592Y-74702506D01*
X93535735Y-74645363D01*
X93592878Y-74531077D01*
X93592878Y-74359648D01*
X93992878Y-75559648D02*
X92278592Y-75559648D01*
X93592878Y-76416791D02*
X92392878Y-76416791D01*
X92392878Y-76702506D01*
X92450021Y-76873934D01*
X92564306Y-76988220D01*
X92678592Y-77045363D01*
X92907163Y-77102506D01*
X93078592Y-77102506D01*
X93307163Y-77045363D01*
X93421449Y-76988220D01*
X93535735Y-76873934D01*
X93592878Y-76702506D01*
X93592878Y-76416791D01*
X93592878Y-77616791D02*
X92792878Y-77616791D01*
X92392878Y-77616791D02*
X92450021Y-77559648D01*
X92507163Y-77616791D01*
X92450021Y-77673934D01*
X92392878Y-77616791D01*
X92507163Y-77616791D01*
X94400021Y-75159648D02*
X94342878Y-75045363D01*
X94342878Y-74873934D01*
X94400021Y-74702506D01*
X94514306Y-74588220D01*
X94628592Y-74531077D01*
X94857163Y-74473934D01*
X95028592Y-74473934D01*
X95257163Y-74531077D01*
X95371449Y-74588220D01*
X95485735Y-74702506D01*
X95542878Y-74873934D01*
X95542878Y-74988220D01*
X95485735Y-75159648D01*
X95428592Y-75216791D01*
X95028592Y-75216791D01*
X95028592Y-74988220D01*
X95542878Y-75731077D02*
X94342878Y-75731077D01*
X95542878Y-76416791D01*
X94342878Y-76416791D01*
X95542878Y-76988220D02*
X94342878Y-76988220D01*
X94342878Y-77273934D01*
X94400021Y-77445363D01*
X94514306Y-77559648D01*
X94628592Y-77616791D01*
X94857163Y-77673934D01*
X95028592Y-77673934D01*
X95257163Y-77616791D01*
X95371449Y-77559648D01*
X95485735Y-77445363D01*
X95542878Y-77273934D01*
X95542878Y-76988220D01*
X96292878Y-74588220D02*
X97492878Y-74988220D01*
X96292878Y-75388220D01*
X97378592Y-76473934D02*
X97435735Y-76416791D01*
X97492878Y-76245363D01*
X97492878Y-76131077D01*
X97435735Y-75959648D01*
X97321449Y-75845363D01*
X97207163Y-75788220D01*
X96978592Y-75731077D01*
X96807163Y-75731077D01*
X96578592Y-75788220D01*
X96464306Y-75845363D01*
X96350021Y-75959648D01*
X96292878Y-76131077D01*
X96292878Y-76245363D01*
X96350021Y-76416791D01*
X96407163Y-76473934D01*
X97378592Y-77673934D02*
X97435735Y-77616791D01*
X97492878Y-77445363D01*
X97492878Y-77331077D01*
X97435735Y-77159648D01*
X97321449Y-77045363D01*
X97207163Y-76988220D01*
X96978592Y-76931077D01*
X96807163Y-76931077D01*
X96578592Y-76988220D01*
X96464306Y-77045363D01*
X96350021Y-77159648D01*
X96292878Y-77331077D01*
X96292878Y-77445363D01*
X96350021Y-77616791D01*
X96407163Y-77673934D01*
X83592873Y-72988220D02*
X82392873Y-72988220D01*
X82392873Y-73273934D01*
X82450016Y-73445363D01*
X82564301Y-73559648D01*
X82678587Y-73616791D01*
X82907158Y-73673934D01*
X83078587Y-73673934D01*
X83307158Y-73616791D01*
X83421444Y-73559648D01*
X83535730Y-73445363D01*
X83592873Y-73273934D01*
X83592873Y-72988220D01*
X83592873Y-74359648D02*
X83535730Y-74245363D01*
X83478587Y-74188220D01*
X83364301Y-74131077D01*
X83021444Y-74131077D01*
X82907158Y-74188220D01*
X82850016Y-74245363D01*
X82792873Y-74359648D01*
X82792873Y-74531077D01*
X82850016Y-74645363D01*
X82907158Y-74702506D01*
X83021444Y-74759648D01*
X83364301Y-74759648D01*
X83478587Y-74702506D01*
X83535730Y-74645363D01*
X83592873Y-74531077D01*
X83592873Y-74359648D01*
X83992873Y-75559648D02*
X82278587Y-75559648D01*
X83592873Y-76416791D02*
X82392873Y-76416791D01*
X82392873Y-76702506D01*
X82450016Y-76873934D01*
X82564301Y-76988220D01*
X82678587Y-77045363D01*
X82907158Y-77102506D01*
X83078587Y-77102506D01*
X83307158Y-77045363D01*
X83421444Y-76988220D01*
X83535730Y-76873934D01*
X83592873Y-76702506D01*
X83592873Y-76416791D01*
X83592873Y-77616791D02*
X82792873Y-77616791D01*
X82392873Y-77616791D02*
X82450016Y-77559648D01*
X82507158Y-77616791D01*
X82450016Y-77673934D01*
X82392873Y-77616791D01*
X82507158Y-77616791D01*
X84400016Y-75159648D02*
X84342873Y-75045363D01*
X84342873Y-74873934D01*
X84400016Y-74702506D01*
X84514301Y-74588220D01*
X84628587Y-74531077D01*
X84857158Y-74473934D01*
X85028587Y-74473934D01*
X85257158Y-74531077D01*
X85371444Y-74588220D01*
X85485730Y-74702506D01*
X85542873Y-74873934D01*
X85542873Y-74988220D01*
X85485730Y-75159648D01*
X85428587Y-75216791D01*
X85028587Y-75216791D01*
X85028587Y-74988220D01*
X85542873Y-75731077D02*
X84342873Y-75731077D01*
X85542873Y-76416791D01*
X84342873Y-76416791D01*
X85542873Y-76988220D02*
X84342873Y-76988220D01*
X84342873Y-77273934D01*
X84400016Y-77445363D01*
X84514301Y-77559648D01*
X84628587Y-77616791D01*
X84857158Y-77673934D01*
X85028587Y-77673934D01*
X85257158Y-77616791D01*
X85371444Y-77559648D01*
X85485730Y-77445363D01*
X85542873Y-77273934D01*
X85542873Y-76988220D01*
X86292873Y-74588220D02*
X87492873Y-74988220D01*
X86292873Y-75388220D01*
X87378587Y-76473934D02*
X87435730Y-76416791D01*
X87492873Y-76245363D01*
X87492873Y-76131077D01*
X87435730Y-75959648D01*
X87321444Y-75845363D01*
X87207158Y-75788220D01*
X86978587Y-75731077D01*
X86807158Y-75731077D01*
X86578587Y-75788220D01*
X86464301Y-75845363D01*
X86350016Y-75959648D01*
X86292873Y-76131077D01*
X86292873Y-76245363D01*
X86350016Y-76416791D01*
X86407158Y-76473934D01*
X87378587Y-77673934D02*
X87435730Y-77616791D01*
X87492873Y-77445363D01*
X87492873Y-77331077D01*
X87435730Y-77159648D01*
X87321444Y-77045363D01*
X87207158Y-76988220D01*
X86978587Y-76931077D01*
X86807158Y-76931077D01*
X86578587Y-76988220D01*
X86464301Y-77045363D01*
X86350016Y-77159648D01*
X86292873Y-77331077D01*
X86292873Y-77445363D01*
X86350016Y-77616791D01*
X86407158Y-77673934D01*
X73592868Y-72988220D02*
X72392868Y-72988220D01*
X72392868Y-73273934D01*
X72450011Y-73445363D01*
X72564296Y-73559648D01*
X72678582Y-73616791D01*
X72907153Y-73673934D01*
X73078582Y-73673934D01*
X73307153Y-73616791D01*
X73421439Y-73559648D01*
X73535725Y-73445363D01*
X73592868Y-73273934D01*
X73592868Y-72988220D01*
X73592868Y-74359648D02*
X73535725Y-74245363D01*
X73478582Y-74188220D01*
X73364296Y-74131077D01*
X73021439Y-74131077D01*
X72907153Y-74188220D01*
X72850011Y-74245363D01*
X72792868Y-74359648D01*
X72792868Y-74531077D01*
X72850011Y-74645363D01*
X72907153Y-74702506D01*
X73021439Y-74759648D01*
X73364296Y-74759648D01*
X73478582Y-74702506D01*
X73535725Y-74645363D01*
X73592868Y-74531077D01*
X73592868Y-74359648D01*
X73992868Y-75559648D02*
X72278582Y-75559648D01*
X73592868Y-76416791D02*
X72392868Y-76416791D01*
X72392868Y-76702506D01*
X72450011Y-76873934D01*
X72564296Y-76988220D01*
X72678582Y-77045363D01*
X72907153Y-77102506D01*
X73078582Y-77102506D01*
X73307153Y-77045363D01*
X73421439Y-76988220D01*
X73535725Y-76873934D01*
X73592868Y-76702506D01*
X73592868Y-76416791D01*
X73592868Y-77616791D02*
X72792868Y-77616791D01*
X72392868Y-77616791D02*
X72450011Y-77559648D01*
X72507153Y-77616791D01*
X72450011Y-77673934D01*
X72392868Y-77616791D01*
X72507153Y-77616791D01*
X74400011Y-75159648D02*
X74342868Y-75045363D01*
X74342868Y-74873934D01*
X74400011Y-74702506D01*
X74514296Y-74588220D01*
X74628582Y-74531077D01*
X74857153Y-74473934D01*
X75028582Y-74473934D01*
X75257153Y-74531077D01*
X75371439Y-74588220D01*
X75485725Y-74702506D01*
X75542868Y-74873934D01*
X75542868Y-74988220D01*
X75485725Y-75159648D01*
X75428582Y-75216791D01*
X75028582Y-75216791D01*
X75028582Y-74988220D01*
X75542868Y-75731077D02*
X74342868Y-75731077D01*
X75542868Y-76416791D01*
X74342868Y-76416791D01*
X75542868Y-76988220D02*
X74342868Y-76988220D01*
X74342868Y-77273934D01*
X74400011Y-77445363D01*
X74514296Y-77559648D01*
X74628582Y-77616791D01*
X74857153Y-77673934D01*
X75028582Y-77673934D01*
X75257153Y-77616791D01*
X75371439Y-77559648D01*
X75485725Y-77445363D01*
X75542868Y-77273934D01*
X75542868Y-76988220D01*
X76292868Y-74588220D02*
X77492868Y-74988220D01*
X76292868Y-75388220D01*
X77378582Y-76473934D02*
X77435725Y-76416791D01*
X77492868Y-76245363D01*
X77492868Y-76131077D01*
X77435725Y-75959648D01*
X77321439Y-75845363D01*
X77207153Y-75788220D01*
X76978582Y-75731077D01*
X76807153Y-75731077D01*
X76578582Y-75788220D01*
X76464296Y-75845363D01*
X76350011Y-75959648D01*
X76292868Y-76131077D01*
X76292868Y-76245363D01*
X76350011Y-76416791D01*
X76407153Y-76473934D01*
X77378582Y-77673934D02*
X77435725Y-77616791D01*
X77492868Y-77445363D01*
X77492868Y-77331077D01*
X77435725Y-77159648D01*
X77321439Y-77045363D01*
X77207153Y-76988220D01*
X76978582Y-76931077D01*
X76807153Y-76931077D01*
X76578582Y-76988220D01*
X76464296Y-77045363D01*
X76350011Y-77159648D01*
X76292868Y-77331077D01*
X76292868Y-77445363D01*
X76350011Y-77616791D01*
X76407153Y-77673934D01*
X63592863Y-72988220D02*
X62392863Y-72988220D01*
X62392863Y-73273934D01*
X62450006Y-73445363D01*
X62564291Y-73559648D01*
X62678577Y-73616791D01*
X62907148Y-73673934D01*
X63078577Y-73673934D01*
X63307148Y-73616791D01*
X63421434Y-73559648D01*
X63535720Y-73445363D01*
X63592863Y-73273934D01*
X63592863Y-72988220D01*
X63592863Y-74359648D02*
X63535720Y-74245363D01*
X63478577Y-74188220D01*
X63364291Y-74131077D01*
X63021434Y-74131077D01*
X62907148Y-74188220D01*
X62850006Y-74245363D01*
X62792863Y-74359648D01*
X62792863Y-74531077D01*
X62850006Y-74645363D01*
X62907148Y-74702506D01*
X63021434Y-74759648D01*
X63364291Y-74759648D01*
X63478577Y-74702506D01*
X63535720Y-74645363D01*
X63592863Y-74531077D01*
X63592863Y-74359648D01*
X63992863Y-75559648D02*
X62278577Y-75559648D01*
X63592863Y-76416791D02*
X62392863Y-76416791D01*
X62392863Y-76702506D01*
X62450006Y-76873934D01*
X62564291Y-76988220D01*
X62678577Y-77045363D01*
X62907148Y-77102506D01*
X63078577Y-77102506D01*
X63307148Y-77045363D01*
X63421434Y-76988220D01*
X63535720Y-76873934D01*
X63592863Y-76702506D01*
X63592863Y-76416791D01*
X63592863Y-77616791D02*
X62792863Y-77616791D01*
X62392863Y-77616791D02*
X62450006Y-77559648D01*
X62507148Y-77616791D01*
X62450006Y-77673934D01*
X62392863Y-77616791D01*
X62507148Y-77616791D01*
X64400006Y-75159648D02*
X64342863Y-75045363D01*
X64342863Y-74873934D01*
X64400006Y-74702506D01*
X64514291Y-74588220D01*
X64628577Y-74531077D01*
X64857148Y-74473934D01*
X65028577Y-74473934D01*
X65257148Y-74531077D01*
X65371434Y-74588220D01*
X65485720Y-74702506D01*
X65542863Y-74873934D01*
X65542863Y-74988220D01*
X65485720Y-75159648D01*
X65428577Y-75216791D01*
X65028577Y-75216791D01*
X65028577Y-74988220D01*
X65542863Y-75731077D02*
X64342863Y-75731077D01*
X65542863Y-76416791D01*
X64342863Y-76416791D01*
X65542863Y-76988220D02*
X64342863Y-76988220D01*
X64342863Y-77273934D01*
X64400006Y-77445363D01*
X64514291Y-77559648D01*
X64628577Y-77616791D01*
X64857148Y-77673934D01*
X65028577Y-77673934D01*
X65257148Y-77616791D01*
X65371434Y-77559648D01*
X65485720Y-77445363D01*
X65542863Y-77273934D01*
X65542863Y-76988220D01*
X66292863Y-74588220D02*
X67492863Y-74988220D01*
X66292863Y-75388220D01*
X67378577Y-76473934D02*
X67435720Y-76416791D01*
X67492863Y-76245363D01*
X67492863Y-76131077D01*
X67435720Y-75959648D01*
X67321434Y-75845363D01*
X67207148Y-75788220D01*
X66978577Y-75731077D01*
X66807148Y-75731077D01*
X66578577Y-75788220D01*
X66464291Y-75845363D01*
X66350006Y-75959648D01*
X66292863Y-76131077D01*
X66292863Y-76245363D01*
X66350006Y-76416791D01*
X66407148Y-76473934D01*
X67378577Y-77673934D02*
X67435720Y-77616791D01*
X67492863Y-77445363D01*
X67492863Y-77331077D01*
X67435720Y-77159648D01*
X67321434Y-77045363D01*
X67207148Y-76988220D01*
X66978577Y-76931077D01*
X66807148Y-76931077D01*
X66578577Y-76988220D01*
X66464291Y-77045363D01*
X66350006Y-77159648D01*
X66292863Y-77331077D01*
X66292863Y-77445363D01*
X66350006Y-77616791D01*
X66407148Y-77673934D01*
X53592858Y-72988220D02*
X52392858Y-72988220D01*
X52392858Y-73273934D01*
X52450001Y-73445363D01*
X52564286Y-73559648D01*
X52678572Y-73616791D01*
X52907143Y-73673934D01*
X53078572Y-73673934D01*
X53307143Y-73616791D01*
X53421429Y-73559648D01*
X53535715Y-73445363D01*
X53592858Y-73273934D01*
X53592858Y-72988220D01*
X53592858Y-74359648D02*
X53535715Y-74245363D01*
X53478572Y-74188220D01*
X53364286Y-74131077D01*
X53021429Y-74131077D01*
X52907143Y-74188220D01*
X52850001Y-74245363D01*
X52792858Y-74359648D01*
X52792858Y-74531077D01*
X52850001Y-74645363D01*
X52907143Y-74702506D01*
X53021429Y-74759648D01*
X53364286Y-74759648D01*
X53478572Y-74702506D01*
X53535715Y-74645363D01*
X53592858Y-74531077D01*
X53592858Y-74359648D01*
X53992858Y-75559648D02*
X52278572Y-75559648D01*
X53592858Y-76416791D02*
X52392858Y-76416791D01*
X52392858Y-76702506D01*
X52450001Y-76873934D01*
X52564286Y-76988220D01*
X52678572Y-77045363D01*
X52907143Y-77102506D01*
X53078572Y-77102506D01*
X53307143Y-77045363D01*
X53421429Y-76988220D01*
X53535715Y-76873934D01*
X53592858Y-76702506D01*
X53592858Y-76416791D01*
X53592858Y-77616791D02*
X52792858Y-77616791D01*
X52392858Y-77616791D02*
X52450001Y-77559648D01*
X52507143Y-77616791D01*
X52450001Y-77673934D01*
X52392858Y-77616791D01*
X52507143Y-77616791D01*
X54400001Y-75159648D02*
X54342858Y-75045363D01*
X54342858Y-74873934D01*
X54400001Y-74702506D01*
X54514286Y-74588220D01*
X54628572Y-74531077D01*
X54857143Y-74473934D01*
X55028572Y-74473934D01*
X55257143Y-74531077D01*
X55371429Y-74588220D01*
X55485715Y-74702506D01*
X55542858Y-74873934D01*
X55542858Y-74988220D01*
X55485715Y-75159648D01*
X55428572Y-75216791D01*
X55028572Y-75216791D01*
X55028572Y-74988220D01*
X55542858Y-75731077D02*
X54342858Y-75731077D01*
X55542858Y-76416791D01*
X54342858Y-76416791D01*
X55542858Y-76988220D02*
X54342858Y-76988220D01*
X54342858Y-77273934D01*
X54400001Y-77445363D01*
X54514286Y-77559648D01*
X54628572Y-77616791D01*
X54857143Y-77673934D01*
X55028572Y-77673934D01*
X55257143Y-77616791D01*
X55371429Y-77559648D01*
X55485715Y-77445363D01*
X55542858Y-77273934D01*
X55542858Y-76988220D01*
X56292858Y-74588220D02*
X57492858Y-74988220D01*
X56292858Y-75388220D01*
X57378572Y-76473934D02*
X57435715Y-76416791D01*
X57492858Y-76245363D01*
X57492858Y-76131077D01*
X57435715Y-75959648D01*
X57321429Y-75845363D01*
X57207143Y-75788220D01*
X56978572Y-75731077D01*
X56807143Y-75731077D01*
X56578572Y-75788220D01*
X56464286Y-75845363D01*
X56350001Y-75959648D01*
X56292858Y-76131077D01*
X56292858Y-76245363D01*
X56350001Y-76416791D01*
X56407143Y-76473934D01*
X57378572Y-77673934D02*
X57435715Y-77616791D01*
X57492858Y-77445363D01*
X57492858Y-77331077D01*
X57435715Y-77159648D01*
X57321429Y-77045363D01*
X57207143Y-76988220D01*
X56978572Y-76931077D01*
X56807143Y-76931077D01*
X56578572Y-76988220D01*
X56464286Y-77045363D01*
X56350001Y-77159648D01*
X56292858Y-77331077D01*
X56292858Y-77445363D01*
X56350001Y-77616791D01*
X56407143Y-77673934D01*
X103592883Y-55488215D02*
X102392883Y-55488215D01*
X102392883Y-55773929D01*
X102450026Y-55945358D01*
X102564311Y-56059643D01*
X102678597Y-56116786D01*
X102907168Y-56173929D01*
X103078597Y-56173929D01*
X103307168Y-56116786D01*
X103421454Y-56059643D01*
X103535740Y-55945358D01*
X103592883Y-55773929D01*
X103592883Y-55488215D01*
X103592883Y-56859643D02*
X103535740Y-56745358D01*
X103478597Y-56688215D01*
X103364311Y-56631072D01*
X103021454Y-56631072D01*
X102907168Y-56688215D01*
X102850026Y-56745358D01*
X102792883Y-56859643D01*
X102792883Y-57031072D01*
X102850026Y-57145358D01*
X102907168Y-57202501D01*
X103021454Y-57259643D01*
X103364311Y-57259643D01*
X103478597Y-57202501D01*
X103535740Y-57145358D01*
X103592883Y-57031072D01*
X103592883Y-56859643D01*
X103992883Y-58059643D02*
X102278597Y-58059643D01*
X103592883Y-58916786D02*
X102392883Y-58916786D01*
X102392883Y-59202501D01*
X102450026Y-59373929D01*
X102564311Y-59488215D01*
X102678597Y-59545358D01*
X102907168Y-59602501D01*
X103078597Y-59602501D01*
X103307168Y-59545358D01*
X103421454Y-59488215D01*
X103535740Y-59373929D01*
X103592883Y-59202501D01*
X103592883Y-58916786D01*
X103592883Y-60116786D02*
X102792883Y-60116786D01*
X102392883Y-60116786D02*
X102450026Y-60059643D01*
X102507168Y-60116786D01*
X102450026Y-60173929D01*
X102392883Y-60116786D01*
X102507168Y-60116786D01*
X104400026Y-57659643D02*
X104342883Y-57545358D01*
X104342883Y-57373929D01*
X104400026Y-57202501D01*
X104514311Y-57088215D01*
X104628597Y-57031072D01*
X104857168Y-56973929D01*
X105028597Y-56973929D01*
X105257168Y-57031072D01*
X105371454Y-57088215D01*
X105485740Y-57202501D01*
X105542883Y-57373929D01*
X105542883Y-57488215D01*
X105485740Y-57659643D01*
X105428597Y-57716786D01*
X105028597Y-57716786D01*
X105028597Y-57488215D01*
X105542883Y-58231072D02*
X104342883Y-58231072D01*
X105542883Y-58916786D01*
X104342883Y-58916786D01*
X105542883Y-59488215D02*
X104342883Y-59488215D01*
X104342883Y-59773929D01*
X104400026Y-59945358D01*
X104514311Y-60059643D01*
X104628597Y-60116786D01*
X104857168Y-60173929D01*
X105028597Y-60173929D01*
X105257168Y-60116786D01*
X105371454Y-60059643D01*
X105485740Y-59945358D01*
X105542883Y-59773929D01*
X105542883Y-59488215D01*
X106292883Y-57088215D02*
X107492883Y-57488215D01*
X106292883Y-57888215D01*
X107378597Y-58973929D02*
X107435740Y-58916786D01*
X107492883Y-58745358D01*
X107492883Y-58631072D01*
X107435740Y-58459643D01*
X107321454Y-58345358D01*
X107207168Y-58288215D01*
X106978597Y-58231072D01*
X106807168Y-58231072D01*
X106578597Y-58288215D01*
X106464311Y-58345358D01*
X106350026Y-58459643D01*
X106292883Y-58631072D01*
X106292883Y-58745358D01*
X106350026Y-58916786D01*
X106407168Y-58973929D01*
X107378597Y-60173929D02*
X107435740Y-60116786D01*
X107492883Y-59945358D01*
X107492883Y-59831072D01*
X107435740Y-59659643D01*
X107321454Y-59545358D01*
X107207168Y-59488215D01*
X106978597Y-59431072D01*
X106807168Y-59431072D01*
X106578597Y-59488215D01*
X106464311Y-59545358D01*
X106350026Y-59659643D01*
X106292883Y-59831072D01*
X106292883Y-59945358D01*
X106350026Y-60116786D01*
X106407168Y-60173929D01*
X93592878Y-55488215D02*
X92392878Y-55488215D01*
X92392878Y-55773929D01*
X92450021Y-55945358D01*
X92564306Y-56059643D01*
X92678592Y-56116786D01*
X92907163Y-56173929D01*
X93078592Y-56173929D01*
X93307163Y-56116786D01*
X93421449Y-56059643D01*
X93535735Y-55945358D01*
X93592878Y-55773929D01*
X93592878Y-55488215D01*
X93592878Y-56859643D02*
X93535735Y-56745358D01*
X93478592Y-56688215D01*
X93364306Y-56631072D01*
X93021449Y-56631072D01*
X92907163Y-56688215D01*
X92850021Y-56745358D01*
X92792878Y-56859643D01*
X92792878Y-57031072D01*
X92850021Y-57145358D01*
X92907163Y-57202501D01*
X93021449Y-57259643D01*
X93364306Y-57259643D01*
X93478592Y-57202501D01*
X93535735Y-57145358D01*
X93592878Y-57031072D01*
X93592878Y-56859643D01*
X93992878Y-58059643D02*
X92278592Y-58059643D01*
X93592878Y-58916786D02*
X92392878Y-58916786D01*
X92392878Y-59202501D01*
X92450021Y-59373929D01*
X92564306Y-59488215D01*
X92678592Y-59545358D01*
X92907163Y-59602501D01*
X93078592Y-59602501D01*
X93307163Y-59545358D01*
X93421449Y-59488215D01*
X93535735Y-59373929D01*
X93592878Y-59202501D01*
X93592878Y-58916786D01*
X93592878Y-60116786D02*
X92792878Y-60116786D01*
X92392878Y-60116786D02*
X92450021Y-60059643D01*
X92507163Y-60116786D01*
X92450021Y-60173929D01*
X92392878Y-60116786D01*
X92507163Y-60116786D01*
X94400021Y-57659643D02*
X94342878Y-57545358D01*
X94342878Y-57373929D01*
X94400021Y-57202501D01*
X94514306Y-57088215D01*
X94628592Y-57031072D01*
X94857163Y-56973929D01*
X95028592Y-56973929D01*
X95257163Y-57031072D01*
X95371449Y-57088215D01*
X95485735Y-57202501D01*
X95542878Y-57373929D01*
X95542878Y-57488215D01*
X95485735Y-57659643D01*
X95428592Y-57716786D01*
X95028592Y-57716786D01*
X95028592Y-57488215D01*
X95542878Y-58231072D02*
X94342878Y-58231072D01*
X95542878Y-58916786D01*
X94342878Y-58916786D01*
X95542878Y-59488215D02*
X94342878Y-59488215D01*
X94342878Y-59773929D01*
X94400021Y-59945358D01*
X94514306Y-60059643D01*
X94628592Y-60116786D01*
X94857163Y-60173929D01*
X95028592Y-60173929D01*
X95257163Y-60116786D01*
X95371449Y-60059643D01*
X95485735Y-59945358D01*
X95542878Y-59773929D01*
X95542878Y-59488215D01*
X96292878Y-57088215D02*
X97492878Y-57488215D01*
X96292878Y-57888215D01*
X97378592Y-58973929D02*
X97435735Y-58916786D01*
X97492878Y-58745358D01*
X97492878Y-58631072D01*
X97435735Y-58459643D01*
X97321449Y-58345358D01*
X97207163Y-58288215D01*
X96978592Y-58231072D01*
X96807163Y-58231072D01*
X96578592Y-58288215D01*
X96464306Y-58345358D01*
X96350021Y-58459643D01*
X96292878Y-58631072D01*
X96292878Y-58745358D01*
X96350021Y-58916786D01*
X96407163Y-58973929D01*
X97378592Y-60173929D02*
X97435735Y-60116786D01*
X97492878Y-59945358D01*
X97492878Y-59831072D01*
X97435735Y-59659643D01*
X97321449Y-59545358D01*
X97207163Y-59488215D01*
X96978592Y-59431072D01*
X96807163Y-59431072D01*
X96578592Y-59488215D01*
X96464306Y-59545358D01*
X96350021Y-59659643D01*
X96292878Y-59831072D01*
X96292878Y-59945358D01*
X96350021Y-60116786D01*
X96407163Y-60173929D01*
X83592873Y-55488215D02*
X82392873Y-55488215D01*
X82392873Y-55773929D01*
X82450016Y-55945358D01*
X82564301Y-56059643D01*
X82678587Y-56116786D01*
X82907158Y-56173929D01*
X83078587Y-56173929D01*
X83307158Y-56116786D01*
X83421444Y-56059643D01*
X83535730Y-55945358D01*
X83592873Y-55773929D01*
X83592873Y-55488215D01*
X83592873Y-56859643D02*
X83535730Y-56745358D01*
X83478587Y-56688215D01*
X83364301Y-56631072D01*
X83021444Y-56631072D01*
X82907158Y-56688215D01*
X82850016Y-56745358D01*
X82792873Y-56859643D01*
X82792873Y-57031072D01*
X82850016Y-57145358D01*
X82907158Y-57202501D01*
X83021444Y-57259643D01*
X83364301Y-57259643D01*
X83478587Y-57202501D01*
X83535730Y-57145358D01*
X83592873Y-57031072D01*
X83592873Y-56859643D01*
X83992873Y-58059643D02*
X82278587Y-58059643D01*
X83592873Y-58916786D02*
X82392873Y-58916786D01*
X82392873Y-59202501D01*
X82450016Y-59373929D01*
X82564301Y-59488215D01*
X82678587Y-59545358D01*
X82907158Y-59602501D01*
X83078587Y-59602501D01*
X83307158Y-59545358D01*
X83421444Y-59488215D01*
X83535730Y-59373929D01*
X83592873Y-59202501D01*
X83592873Y-58916786D01*
X83592873Y-60116786D02*
X82792873Y-60116786D01*
X82392873Y-60116786D02*
X82450016Y-60059643D01*
X82507158Y-60116786D01*
X82450016Y-60173929D01*
X82392873Y-60116786D01*
X82507158Y-60116786D01*
X84400016Y-57659643D02*
X84342873Y-57545358D01*
X84342873Y-57373929D01*
X84400016Y-57202501D01*
X84514301Y-57088215D01*
X84628587Y-57031072D01*
X84857158Y-56973929D01*
X85028587Y-56973929D01*
X85257158Y-57031072D01*
X85371444Y-57088215D01*
X85485730Y-57202501D01*
X85542873Y-57373929D01*
X85542873Y-57488215D01*
X85485730Y-57659643D01*
X85428587Y-57716786D01*
X85028587Y-57716786D01*
X85028587Y-57488215D01*
X85542873Y-58231072D02*
X84342873Y-58231072D01*
X85542873Y-58916786D01*
X84342873Y-58916786D01*
X85542873Y-59488215D02*
X84342873Y-59488215D01*
X84342873Y-59773929D01*
X84400016Y-59945358D01*
X84514301Y-60059643D01*
X84628587Y-60116786D01*
X84857158Y-60173929D01*
X85028587Y-60173929D01*
X85257158Y-60116786D01*
X85371444Y-60059643D01*
X85485730Y-59945358D01*
X85542873Y-59773929D01*
X85542873Y-59488215D01*
X86292873Y-57088215D02*
X87492873Y-57488215D01*
X86292873Y-57888215D01*
X87378587Y-58973929D02*
X87435730Y-58916786D01*
X87492873Y-58745358D01*
X87492873Y-58631072D01*
X87435730Y-58459643D01*
X87321444Y-58345358D01*
X87207158Y-58288215D01*
X86978587Y-58231072D01*
X86807158Y-58231072D01*
X86578587Y-58288215D01*
X86464301Y-58345358D01*
X86350016Y-58459643D01*
X86292873Y-58631072D01*
X86292873Y-58745358D01*
X86350016Y-58916786D01*
X86407158Y-58973929D01*
X87378587Y-60173929D02*
X87435730Y-60116786D01*
X87492873Y-59945358D01*
X87492873Y-59831072D01*
X87435730Y-59659643D01*
X87321444Y-59545358D01*
X87207158Y-59488215D01*
X86978587Y-59431072D01*
X86807158Y-59431072D01*
X86578587Y-59488215D01*
X86464301Y-59545358D01*
X86350016Y-59659643D01*
X86292873Y-59831072D01*
X86292873Y-59945358D01*
X86350016Y-60116786D01*
X86407158Y-60173929D01*
X73592868Y-55488215D02*
X72392868Y-55488215D01*
X72392868Y-55773929D01*
X72450011Y-55945358D01*
X72564296Y-56059643D01*
X72678582Y-56116786D01*
X72907153Y-56173929D01*
X73078582Y-56173929D01*
X73307153Y-56116786D01*
X73421439Y-56059643D01*
X73535725Y-55945358D01*
X73592868Y-55773929D01*
X73592868Y-55488215D01*
X73592868Y-56859643D02*
X73535725Y-56745358D01*
X73478582Y-56688215D01*
X73364296Y-56631072D01*
X73021439Y-56631072D01*
X72907153Y-56688215D01*
X72850011Y-56745358D01*
X72792868Y-56859643D01*
X72792868Y-57031072D01*
X72850011Y-57145358D01*
X72907153Y-57202501D01*
X73021439Y-57259643D01*
X73364296Y-57259643D01*
X73478582Y-57202501D01*
X73535725Y-57145358D01*
X73592868Y-57031072D01*
X73592868Y-56859643D01*
X73992868Y-58059643D02*
X72278582Y-58059643D01*
X73592868Y-58916786D02*
X72392868Y-58916786D01*
X72392868Y-59202501D01*
X72450011Y-59373929D01*
X72564296Y-59488215D01*
X72678582Y-59545358D01*
X72907153Y-59602501D01*
X73078582Y-59602501D01*
X73307153Y-59545358D01*
X73421439Y-59488215D01*
X73535725Y-59373929D01*
X73592868Y-59202501D01*
X73592868Y-58916786D01*
X73592868Y-60116786D02*
X72792868Y-60116786D01*
X72392868Y-60116786D02*
X72450011Y-60059643D01*
X72507153Y-60116786D01*
X72450011Y-60173929D01*
X72392868Y-60116786D01*
X72507153Y-60116786D01*
X74400011Y-57659643D02*
X74342868Y-57545358D01*
X74342868Y-57373929D01*
X74400011Y-57202501D01*
X74514296Y-57088215D01*
X74628582Y-57031072D01*
X74857153Y-56973929D01*
X75028582Y-56973929D01*
X75257153Y-57031072D01*
X75371439Y-57088215D01*
X75485725Y-57202501D01*
X75542868Y-57373929D01*
X75542868Y-57488215D01*
X75485725Y-57659643D01*
X75428582Y-57716786D01*
X75028582Y-57716786D01*
X75028582Y-57488215D01*
X75542868Y-58231072D02*
X74342868Y-58231072D01*
X75542868Y-58916786D01*
X74342868Y-58916786D01*
X75542868Y-59488215D02*
X74342868Y-59488215D01*
X74342868Y-59773929D01*
X74400011Y-59945358D01*
X74514296Y-60059643D01*
X74628582Y-60116786D01*
X74857153Y-60173929D01*
X75028582Y-60173929D01*
X75257153Y-60116786D01*
X75371439Y-60059643D01*
X75485725Y-59945358D01*
X75542868Y-59773929D01*
X75542868Y-59488215D01*
X76292868Y-57088215D02*
X77492868Y-57488215D01*
X76292868Y-57888215D01*
X77378582Y-58973929D02*
X77435725Y-58916786D01*
X77492868Y-58745358D01*
X77492868Y-58631072D01*
X77435725Y-58459643D01*
X77321439Y-58345358D01*
X77207153Y-58288215D01*
X76978582Y-58231072D01*
X76807153Y-58231072D01*
X76578582Y-58288215D01*
X76464296Y-58345358D01*
X76350011Y-58459643D01*
X76292868Y-58631072D01*
X76292868Y-58745358D01*
X76350011Y-58916786D01*
X76407153Y-58973929D01*
X77378582Y-60173929D02*
X77435725Y-60116786D01*
X77492868Y-59945358D01*
X77492868Y-59831072D01*
X77435725Y-59659643D01*
X77321439Y-59545358D01*
X77207153Y-59488215D01*
X76978582Y-59431072D01*
X76807153Y-59431072D01*
X76578582Y-59488215D01*
X76464296Y-59545358D01*
X76350011Y-59659643D01*
X76292868Y-59831072D01*
X76292868Y-59945358D01*
X76350011Y-60116786D01*
X76407153Y-60173929D01*
X63592863Y-55488215D02*
X62392863Y-55488215D01*
X62392863Y-55773929D01*
X62450006Y-55945358D01*
X62564291Y-56059643D01*
X62678577Y-56116786D01*
X62907148Y-56173929D01*
X63078577Y-56173929D01*
X63307148Y-56116786D01*
X63421434Y-56059643D01*
X63535720Y-55945358D01*
X63592863Y-55773929D01*
X63592863Y-55488215D01*
X63592863Y-56859643D02*
X63535720Y-56745358D01*
X63478577Y-56688215D01*
X63364291Y-56631072D01*
X63021434Y-56631072D01*
X62907148Y-56688215D01*
X62850006Y-56745358D01*
X62792863Y-56859643D01*
X62792863Y-57031072D01*
X62850006Y-57145358D01*
X62907148Y-57202501D01*
X63021434Y-57259643D01*
X63364291Y-57259643D01*
X63478577Y-57202501D01*
X63535720Y-57145358D01*
X63592863Y-57031072D01*
X63592863Y-56859643D01*
X63992863Y-58059643D02*
X62278577Y-58059643D01*
X63592863Y-58916786D02*
X62392863Y-58916786D01*
X62392863Y-59202501D01*
X62450006Y-59373929D01*
X62564291Y-59488215D01*
X62678577Y-59545358D01*
X62907148Y-59602501D01*
X63078577Y-59602501D01*
X63307148Y-59545358D01*
X63421434Y-59488215D01*
X63535720Y-59373929D01*
X63592863Y-59202501D01*
X63592863Y-58916786D01*
X63592863Y-60116786D02*
X62792863Y-60116786D01*
X62392863Y-60116786D02*
X62450006Y-60059643D01*
X62507148Y-60116786D01*
X62450006Y-60173929D01*
X62392863Y-60116786D01*
X62507148Y-60116786D01*
X64400006Y-57659643D02*
X64342863Y-57545358D01*
X64342863Y-57373929D01*
X64400006Y-57202501D01*
X64514291Y-57088215D01*
X64628577Y-57031072D01*
X64857148Y-56973929D01*
X65028577Y-56973929D01*
X65257148Y-57031072D01*
X65371434Y-57088215D01*
X65485720Y-57202501D01*
X65542863Y-57373929D01*
X65542863Y-57488215D01*
X65485720Y-57659643D01*
X65428577Y-57716786D01*
X65028577Y-57716786D01*
X65028577Y-57488215D01*
X65542863Y-58231072D02*
X64342863Y-58231072D01*
X65542863Y-58916786D01*
X64342863Y-58916786D01*
X65542863Y-59488215D02*
X64342863Y-59488215D01*
X64342863Y-59773929D01*
X64400006Y-59945358D01*
X64514291Y-60059643D01*
X64628577Y-60116786D01*
X64857148Y-60173929D01*
X65028577Y-60173929D01*
X65257148Y-60116786D01*
X65371434Y-60059643D01*
X65485720Y-59945358D01*
X65542863Y-59773929D01*
X65542863Y-59488215D01*
X66292863Y-57088215D02*
X67492863Y-57488215D01*
X66292863Y-57888215D01*
X67378577Y-58973929D02*
X67435720Y-58916786D01*
X67492863Y-58745358D01*
X67492863Y-58631072D01*
X67435720Y-58459643D01*
X67321434Y-58345358D01*
X67207148Y-58288215D01*
X66978577Y-58231072D01*
X66807148Y-58231072D01*
X66578577Y-58288215D01*
X66464291Y-58345358D01*
X66350006Y-58459643D01*
X66292863Y-58631072D01*
X66292863Y-58745358D01*
X66350006Y-58916786D01*
X66407148Y-58973929D01*
X67378577Y-60173929D02*
X67435720Y-60116786D01*
X67492863Y-59945358D01*
X67492863Y-59831072D01*
X67435720Y-59659643D01*
X67321434Y-59545358D01*
X67207148Y-59488215D01*
X66978577Y-59431072D01*
X66807148Y-59431072D01*
X66578577Y-59488215D01*
X66464291Y-59545358D01*
X66350006Y-59659643D01*
X66292863Y-59831072D01*
X66292863Y-59945358D01*
X66350006Y-60116786D01*
X66407148Y-60173929D01*
X53592858Y-55488215D02*
X52392858Y-55488215D01*
X52392858Y-55773929D01*
X52450001Y-55945358D01*
X52564286Y-56059643D01*
X52678572Y-56116786D01*
X52907143Y-56173929D01*
X53078572Y-56173929D01*
X53307143Y-56116786D01*
X53421429Y-56059643D01*
X53535715Y-55945358D01*
X53592858Y-55773929D01*
X53592858Y-55488215D01*
X53592858Y-56859643D02*
X53535715Y-56745358D01*
X53478572Y-56688215D01*
X53364286Y-56631072D01*
X53021429Y-56631072D01*
X52907143Y-56688215D01*
X52850001Y-56745358D01*
X52792858Y-56859643D01*
X52792858Y-57031072D01*
X52850001Y-57145358D01*
X52907143Y-57202501D01*
X53021429Y-57259643D01*
X53364286Y-57259643D01*
X53478572Y-57202501D01*
X53535715Y-57145358D01*
X53592858Y-57031072D01*
X53592858Y-56859643D01*
X53992858Y-58059643D02*
X52278572Y-58059643D01*
X53592858Y-58916786D02*
X52392858Y-58916786D01*
X52392858Y-59202501D01*
X52450001Y-59373929D01*
X52564286Y-59488215D01*
X52678572Y-59545358D01*
X52907143Y-59602501D01*
X53078572Y-59602501D01*
X53307143Y-59545358D01*
X53421429Y-59488215D01*
X53535715Y-59373929D01*
X53592858Y-59202501D01*
X53592858Y-58916786D01*
X53592858Y-60116786D02*
X52792858Y-60116786D01*
X52392858Y-60116786D02*
X52450001Y-60059643D01*
X52507143Y-60116786D01*
X52450001Y-60173929D01*
X52392858Y-60116786D01*
X52507143Y-60116786D01*
X54400001Y-57659643D02*
X54342858Y-57545358D01*
X54342858Y-57373929D01*
X54400001Y-57202501D01*
X54514286Y-57088215D01*
X54628572Y-57031072D01*
X54857143Y-56973929D01*
X55028572Y-56973929D01*
X55257143Y-57031072D01*
X55371429Y-57088215D01*
X55485715Y-57202501D01*
X55542858Y-57373929D01*
X55542858Y-57488215D01*
X55485715Y-57659643D01*
X55428572Y-57716786D01*
X55028572Y-57716786D01*
X55028572Y-57488215D01*
X55542858Y-58231072D02*
X54342858Y-58231072D01*
X55542858Y-58916786D01*
X54342858Y-58916786D01*
X55542858Y-59488215D02*
X54342858Y-59488215D01*
X54342858Y-59773929D01*
X54400001Y-59945358D01*
X54514286Y-60059643D01*
X54628572Y-60116786D01*
X54857143Y-60173929D01*
X55028572Y-60173929D01*
X55257143Y-60116786D01*
X55371429Y-60059643D01*
X55485715Y-59945358D01*
X55542858Y-59773929D01*
X55542858Y-59488215D01*
X56292858Y-57088215D02*
X57492858Y-57488215D01*
X56292858Y-57888215D01*
X57378572Y-58973929D02*
X57435715Y-58916786D01*
X57492858Y-58745358D01*
X57492858Y-58631072D01*
X57435715Y-58459643D01*
X57321429Y-58345358D01*
X57207143Y-58288215D01*
X56978572Y-58231072D01*
X56807143Y-58231072D01*
X56578572Y-58288215D01*
X56464286Y-58345358D01*
X56350001Y-58459643D01*
X56292858Y-58631072D01*
X56292858Y-58745358D01*
X56350001Y-58916786D01*
X56407143Y-58973929D01*
X57378572Y-60173929D02*
X57435715Y-60116786D01*
X57492858Y-59945358D01*
X57492858Y-59831072D01*
X57435715Y-59659643D01*
X57321429Y-59545358D01*
X57207143Y-59488215D01*
X56978572Y-59431072D01*
X56807143Y-59431072D01*
X56578572Y-59488215D01*
X56464286Y-59545358D01*
X56350001Y-59659643D01*
X56292858Y-59831072D01*
X56292858Y-59945358D01*
X56350001Y-60116786D01*
X56407143Y-60173929D01*
D12*
G04 #@! TO.C,J1*
X101119026Y-102091011D02*
X101119026Y-96891011D01*
X106259026Y-102091011D02*
X101119026Y-102091011D01*
X108859026Y-96891011D02*
X101119026Y-96891011D01*
X106259026Y-102091011D02*
X106259026Y-99491011D01*
X106259026Y-99491011D02*
X108859026Y-99491011D01*
X108859026Y-99491011D02*
X108859026Y-96891011D01*
X107529026Y-102091011D02*
X108859026Y-102091011D01*
X108859026Y-102091011D02*
X108859026Y-100761011D01*
X91119021Y-102091011D02*
X91119021Y-96891011D01*
X96259021Y-102091011D02*
X91119021Y-102091011D01*
X98859021Y-96891011D02*
X91119021Y-96891011D01*
X96259021Y-102091011D02*
X96259021Y-99491011D01*
X96259021Y-99491011D02*
X98859021Y-99491011D01*
X98859021Y-99491011D02*
X98859021Y-96891011D01*
X97529021Y-102091011D02*
X98859021Y-102091011D01*
X98859021Y-102091011D02*
X98859021Y-100761011D01*
X81119016Y-102091011D02*
X81119016Y-96891011D01*
X86259016Y-102091011D02*
X81119016Y-102091011D01*
X88859016Y-96891011D02*
X81119016Y-96891011D01*
X86259016Y-102091011D02*
X86259016Y-99491011D01*
X86259016Y-99491011D02*
X88859016Y-99491011D01*
X88859016Y-99491011D02*
X88859016Y-96891011D01*
X87529016Y-102091011D02*
X88859016Y-102091011D01*
X88859016Y-102091011D02*
X88859016Y-100761011D01*
X71119011Y-102091011D02*
X71119011Y-96891011D01*
X76259011Y-102091011D02*
X71119011Y-102091011D01*
X78859011Y-96891011D02*
X71119011Y-96891011D01*
X76259011Y-102091011D02*
X76259011Y-99491011D01*
X76259011Y-99491011D02*
X78859011Y-99491011D01*
X78859011Y-99491011D02*
X78859011Y-96891011D01*
X77529011Y-102091011D02*
X78859011Y-102091011D01*
X78859011Y-102091011D02*
X78859011Y-100761011D01*
X61119006Y-102091011D02*
X61119006Y-96891011D01*
X66259006Y-102091011D02*
X61119006Y-102091011D01*
X68859006Y-96891011D02*
X61119006Y-96891011D01*
X66259006Y-102091011D02*
X66259006Y-99491011D01*
X66259006Y-99491011D02*
X68859006Y-99491011D01*
X68859006Y-99491011D02*
X68859006Y-96891011D01*
X67529006Y-102091011D02*
X68859006Y-102091011D01*
X68859006Y-102091011D02*
X68859006Y-100761011D01*
X51119001Y-102091011D02*
X51119001Y-96891011D01*
X56259001Y-102091011D02*
X51119001Y-102091011D01*
X58859001Y-96891011D02*
X51119001Y-96891011D01*
X56259001Y-102091011D02*
X56259001Y-99491011D01*
X56259001Y-99491011D02*
X58859001Y-99491011D01*
X58859001Y-99491011D02*
X58859001Y-96891011D01*
X57529001Y-102091011D02*
X58859001Y-102091011D01*
X58859001Y-102091011D02*
X58859001Y-100761011D01*
X101119026Y-84591006D02*
X101119026Y-79391006D01*
X106259026Y-84591006D02*
X101119026Y-84591006D01*
X108859026Y-79391006D02*
X101119026Y-79391006D01*
X106259026Y-84591006D02*
X106259026Y-81991006D01*
X106259026Y-81991006D02*
X108859026Y-81991006D01*
X108859026Y-81991006D02*
X108859026Y-79391006D01*
X107529026Y-84591006D02*
X108859026Y-84591006D01*
X108859026Y-84591006D02*
X108859026Y-83261006D01*
X91119021Y-84591006D02*
X91119021Y-79391006D01*
X96259021Y-84591006D02*
X91119021Y-84591006D01*
X98859021Y-79391006D02*
X91119021Y-79391006D01*
X96259021Y-84591006D02*
X96259021Y-81991006D01*
X96259021Y-81991006D02*
X98859021Y-81991006D01*
X98859021Y-81991006D02*
X98859021Y-79391006D01*
X97529021Y-84591006D02*
X98859021Y-84591006D01*
X98859021Y-84591006D02*
X98859021Y-83261006D01*
X81119016Y-84591006D02*
X81119016Y-79391006D01*
X86259016Y-84591006D02*
X81119016Y-84591006D01*
X88859016Y-79391006D02*
X81119016Y-79391006D01*
X86259016Y-84591006D02*
X86259016Y-81991006D01*
X86259016Y-81991006D02*
X88859016Y-81991006D01*
X88859016Y-81991006D02*
X88859016Y-79391006D01*
X87529016Y-84591006D02*
X88859016Y-84591006D01*
X88859016Y-84591006D02*
X88859016Y-83261006D01*
X71119011Y-84591006D02*
X71119011Y-79391006D01*
X76259011Y-84591006D02*
X71119011Y-84591006D01*
X78859011Y-79391006D02*
X71119011Y-79391006D01*
X76259011Y-84591006D02*
X76259011Y-81991006D01*
X76259011Y-81991006D02*
X78859011Y-81991006D01*
X78859011Y-81991006D02*
X78859011Y-79391006D01*
X77529011Y-84591006D02*
X78859011Y-84591006D01*
X78859011Y-84591006D02*
X78859011Y-83261006D01*
X61119006Y-84591006D02*
X61119006Y-79391006D01*
X66259006Y-84591006D02*
X61119006Y-84591006D01*
X68859006Y-79391006D02*
X61119006Y-79391006D01*
X66259006Y-84591006D02*
X66259006Y-81991006D01*
X66259006Y-81991006D02*
X68859006Y-81991006D01*
X68859006Y-81991006D02*
X68859006Y-79391006D01*
X67529006Y-84591006D02*
X68859006Y-84591006D01*
X68859006Y-84591006D02*
X68859006Y-83261006D01*
X51119001Y-84591006D02*
X51119001Y-79391006D01*
X56259001Y-84591006D02*
X51119001Y-84591006D01*
X58859001Y-79391006D02*
X51119001Y-79391006D01*
X56259001Y-84591006D02*
X56259001Y-81991006D01*
X56259001Y-81991006D02*
X58859001Y-81991006D01*
X58859001Y-81991006D02*
X58859001Y-79391006D01*
X57529001Y-84591006D02*
X58859001Y-84591006D01*
X58859001Y-84591006D02*
X58859001Y-83261006D01*
X101119026Y-67091001D02*
X101119026Y-61891001D01*
X106259026Y-67091001D02*
X101119026Y-67091001D01*
X108859026Y-61891001D02*
X101119026Y-61891001D01*
X106259026Y-67091001D02*
X106259026Y-64491001D01*
X106259026Y-64491001D02*
X108859026Y-64491001D01*
X108859026Y-64491001D02*
X108859026Y-61891001D01*
X107529026Y-67091001D02*
X108859026Y-67091001D01*
X108859026Y-67091001D02*
X108859026Y-65761001D01*
X91119021Y-67091001D02*
X91119021Y-61891001D01*
X96259021Y-67091001D02*
X91119021Y-67091001D01*
X98859021Y-61891001D02*
X91119021Y-61891001D01*
X96259021Y-67091001D02*
X96259021Y-64491001D01*
X96259021Y-64491001D02*
X98859021Y-64491001D01*
X98859021Y-64491001D02*
X98859021Y-61891001D01*
X97529021Y-67091001D02*
X98859021Y-67091001D01*
X98859021Y-67091001D02*
X98859021Y-65761001D01*
X81119016Y-67091001D02*
X81119016Y-61891001D01*
X86259016Y-67091001D02*
X81119016Y-67091001D01*
X88859016Y-61891001D02*
X81119016Y-61891001D01*
X86259016Y-67091001D02*
X86259016Y-64491001D01*
X86259016Y-64491001D02*
X88859016Y-64491001D01*
X88859016Y-64491001D02*
X88859016Y-61891001D01*
X87529016Y-67091001D02*
X88859016Y-67091001D01*
X88859016Y-67091001D02*
X88859016Y-65761001D01*
X71119011Y-67091001D02*
X71119011Y-61891001D01*
X76259011Y-67091001D02*
X71119011Y-67091001D01*
X78859011Y-61891001D02*
X71119011Y-61891001D01*
X76259011Y-67091001D02*
X76259011Y-64491001D01*
X76259011Y-64491001D02*
X78859011Y-64491001D01*
X78859011Y-64491001D02*
X78859011Y-61891001D01*
X77529011Y-67091001D02*
X78859011Y-67091001D01*
X78859011Y-67091001D02*
X78859011Y-65761001D01*
X61119006Y-67091001D02*
X61119006Y-61891001D01*
X66259006Y-67091001D02*
X61119006Y-67091001D01*
X68859006Y-61891001D02*
X61119006Y-61891001D01*
X66259006Y-67091001D02*
X66259006Y-64491001D01*
X66259006Y-64491001D02*
X68859006Y-64491001D01*
X68859006Y-64491001D02*
X68859006Y-61891001D01*
X67529006Y-67091001D02*
X68859006Y-67091001D01*
X68859006Y-67091001D02*
X68859006Y-65761001D01*
X51119001Y-67091001D02*
X51119001Y-61891001D01*
X56259001Y-67091001D02*
X51119001Y-67091001D01*
X58859001Y-61891001D02*
X51119001Y-61891001D01*
X56259001Y-67091001D02*
X56259001Y-64491001D01*
X56259001Y-64491001D02*
X58859001Y-64491001D01*
X58859001Y-64491001D02*
X58859001Y-61891001D01*
X57529001Y-67091001D02*
X58859001Y-67091001D01*
X58859001Y-67091001D02*
X58859001Y-65761001D01*
G04 #@! TD*
G04 #@! TO.C,J1*
D11*
X109083359Y-95202391D02*
X109083359Y-95916677D01*
X109130978Y-96059534D01*
X109226216Y-96154772D01*
X109369073Y-96202391D01*
X109464311Y-96202391D01*
X108083359Y-96202391D02*
X108654787Y-96202391D01*
X108369073Y-96202391D02*
X108369073Y-95202391D01*
X108464311Y-95345249D01*
X108559549Y-95440487D01*
X108654787Y-95488106D01*
X99083354Y-95202391D02*
X99083354Y-95916677D01*
X99130973Y-96059534D01*
X99226211Y-96154772D01*
X99369068Y-96202391D01*
X99464306Y-96202391D01*
X98083354Y-96202391D02*
X98654782Y-96202391D01*
X98369068Y-96202391D02*
X98369068Y-95202391D01*
X98464306Y-95345249D01*
X98559544Y-95440487D01*
X98654782Y-95488106D01*
X89083349Y-95202391D02*
X89083349Y-95916677D01*
X89130968Y-96059534D01*
X89226206Y-96154772D01*
X89369063Y-96202391D01*
X89464301Y-96202391D01*
X88083349Y-96202391D02*
X88654777Y-96202391D01*
X88369063Y-96202391D02*
X88369063Y-95202391D01*
X88464301Y-95345249D01*
X88559539Y-95440487D01*
X88654777Y-95488106D01*
X79083344Y-95202391D02*
X79083344Y-95916677D01*
X79130963Y-96059534D01*
X79226201Y-96154772D01*
X79369058Y-96202391D01*
X79464296Y-96202391D01*
X78083344Y-96202391D02*
X78654772Y-96202391D01*
X78369058Y-96202391D02*
X78369058Y-95202391D01*
X78464296Y-95345249D01*
X78559534Y-95440487D01*
X78654772Y-95488106D01*
X69083339Y-95202391D02*
X69083339Y-95916677D01*
X69130958Y-96059534D01*
X69226196Y-96154772D01*
X69369053Y-96202391D01*
X69464291Y-96202391D01*
X68083339Y-96202391D02*
X68654767Y-96202391D01*
X68369053Y-96202391D02*
X68369053Y-95202391D01*
X68464291Y-95345249D01*
X68559529Y-95440487D01*
X68654767Y-95488106D01*
X59083334Y-95202391D02*
X59083334Y-95916677D01*
X59130953Y-96059534D01*
X59226191Y-96154772D01*
X59369048Y-96202391D01*
X59464286Y-96202391D01*
X58083334Y-96202391D02*
X58654762Y-96202391D01*
X58369048Y-96202391D02*
X58369048Y-95202391D01*
X58464286Y-95345249D01*
X58559524Y-95440487D01*
X58654762Y-95488106D01*
X109083359Y-77702386D02*
X109083359Y-78416672D01*
X109130978Y-78559529D01*
X109226216Y-78654767D01*
X109369073Y-78702386D01*
X109464311Y-78702386D01*
X108083359Y-78702386D02*
X108654787Y-78702386D01*
X108369073Y-78702386D02*
X108369073Y-77702386D01*
X108464311Y-77845244D01*
X108559549Y-77940482D01*
X108654787Y-77988101D01*
X99083354Y-77702386D02*
X99083354Y-78416672D01*
X99130973Y-78559529D01*
X99226211Y-78654767D01*
X99369068Y-78702386D01*
X99464306Y-78702386D01*
X98083354Y-78702386D02*
X98654782Y-78702386D01*
X98369068Y-78702386D02*
X98369068Y-77702386D01*
X98464306Y-77845244D01*
X98559544Y-77940482D01*
X98654782Y-77988101D01*
X89083349Y-77702386D02*
X89083349Y-78416672D01*
X89130968Y-78559529D01*
X89226206Y-78654767D01*
X89369063Y-78702386D01*
X89464301Y-78702386D01*
X88083349Y-78702386D02*
X88654777Y-78702386D01*
X88369063Y-78702386D02*
X88369063Y-77702386D01*
X88464301Y-77845244D01*
X88559539Y-77940482D01*
X88654777Y-77988101D01*
X79083344Y-77702386D02*
X79083344Y-78416672D01*
X79130963Y-78559529D01*
X79226201Y-78654767D01*
X79369058Y-78702386D01*
X79464296Y-78702386D01*
X78083344Y-78702386D02*
X78654772Y-78702386D01*
X78369058Y-78702386D02*
X78369058Y-77702386D01*
X78464296Y-77845244D01*
X78559534Y-77940482D01*
X78654772Y-77988101D01*
X69083339Y-77702386D02*
X69083339Y-78416672D01*
X69130958Y-78559529D01*
X69226196Y-78654767D01*
X69369053Y-78702386D01*
X69464291Y-78702386D01*
X68083339Y-78702386D02*
X68654767Y-78702386D01*
X68369053Y-78702386D02*
X68369053Y-77702386D01*
X68464291Y-77845244D01*
X68559529Y-77940482D01*
X68654767Y-77988101D01*
X59083334Y-77702386D02*
X59083334Y-78416672D01*
X59130953Y-78559529D01*
X59226191Y-78654767D01*
X59369048Y-78702386D01*
X59464286Y-78702386D01*
X58083334Y-78702386D02*
X58654762Y-78702386D01*
X58369048Y-78702386D02*
X58369048Y-77702386D01*
X58464286Y-77845244D01*
X58559524Y-77940482D01*
X58654762Y-77988101D01*
X109083359Y-60202381D02*
X109083359Y-60916667D01*
X109130978Y-61059524D01*
X109226216Y-61154762D01*
X109369073Y-61202381D01*
X109464311Y-61202381D01*
X108083359Y-61202381D02*
X108654787Y-61202381D01*
X108369073Y-61202381D02*
X108369073Y-60202381D01*
X108464311Y-60345239D01*
X108559549Y-60440477D01*
X108654787Y-60488096D01*
X99083354Y-60202381D02*
X99083354Y-60916667D01*
X99130973Y-61059524D01*
X99226211Y-61154762D01*
X99369068Y-61202381D01*
X99464306Y-61202381D01*
X98083354Y-61202381D02*
X98654782Y-61202381D01*
X98369068Y-61202381D02*
X98369068Y-60202381D01*
X98464306Y-60345239D01*
X98559544Y-60440477D01*
X98654782Y-60488096D01*
X89083349Y-60202381D02*
X89083349Y-60916667D01*
X89130968Y-61059524D01*
X89226206Y-61154762D01*
X89369063Y-61202381D01*
X89464301Y-61202381D01*
X88083349Y-61202381D02*
X88654777Y-61202381D01*
X88369063Y-61202381D02*
X88369063Y-60202381D01*
X88464301Y-60345239D01*
X88559539Y-60440477D01*
X88654777Y-60488096D01*
X79083344Y-60202381D02*
X79083344Y-60916667D01*
X79130963Y-61059524D01*
X79226201Y-61154762D01*
X79369058Y-61202381D01*
X79464296Y-61202381D01*
X78083344Y-61202381D02*
X78654772Y-61202381D01*
X78369058Y-61202381D02*
X78369058Y-60202381D01*
X78464296Y-60345239D01*
X78559534Y-60440477D01*
X78654772Y-60488096D01*
X69083339Y-60202381D02*
X69083339Y-60916667D01*
X69130958Y-61059524D01*
X69226196Y-61154762D01*
X69369053Y-61202381D01*
X69464291Y-61202381D01*
X68083339Y-61202381D02*
X68654767Y-61202381D01*
X68369053Y-61202381D02*
X68369053Y-60202381D01*
X68464291Y-60345239D01*
X68559529Y-60440477D01*
X68654767Y-60488096D01*
X59083334Y-60202381D02*
X59083334Y-60916667D01*
X59130953Y-61059524D01*
X59226191Y-61154762D01*
X59369048Y-61202381D01*
X59464286Y-61202381D01*
X58083334Y-61202381D02*
X58654762Y-61202381D01*
X58369048Y-61202381D02*
X58369048Y-60202381D01*
X58464286Y-60345239D01*
X58559524Y-60440477D01*
X58654762Y-60488096D01*
G04 #@! TD*
M02*
