G04 #@! TF.GenerationSoftware,KiCad,Pcbnew,5.1.10-88a1d61d58~90~ubuntu21.04.1*
G04 #@! TF.CreationDate,2021-09-06T15:15:47+02:00*
G04 #@! TF.ProjectId,DccDecoder,44636344-6563-46f6-9465-722e6b696361,rev?*
G04 #@! TF.SameCoordinates,Original*
G04 #@! TF.FileFunction,Legend,Bot*
G04 #@! TF.FilePolarity,Positive*
%FSLAX46Y46*%
G04 Gerber Fmt 4.6, Leading zero omitted, Abs format (unit mm)*
G04 Created by KiCad (PCBNEW 5.1.10-88a1d61d58~90~ubuntu21.04.1) date 2021-09-06 15:15:47*
%MOMM*%
%LPD*%
G01*
G04 APERTURE LIST*
%ADD10C,0.150000*%
%ADD11C,0.120000*%
%ADD12C,0.200000*%
%ADD13O,1.700000X1.700000*%
%ADD14R,1.700000X1.700000*%
%ADD15C,4.700000*%
%ADD16C,2.000000*%
%ADD17R,2.400000X2.400000*%
%ADD18C,2.400000*%
%ADD19O,1.700000X1.950000*%
G04 APERTURE END LIST*
D10*
X62190476Y-60404761D02*
X62047619Y-60452380D01*
X61809523Y-60452380D01*
X61714285Y-60404761D01*
X61666666Y-60357142D01*
X61619047Y-60261904D01*
X61619047Y-60166666D01*
X61666666Y-60071428D01*
X61714285Y-60023809D01*
X61809523Y-59976190D01*
X62000000Y-59928571D01*
X62095238Y-59880952D01*
X62142857Y-59833333D01*
X62190476Y-59738095D01*
X62190476Y-59642857D01*
X62142857Y-59547619D01*
X62095238Y-59500000D01*
X62000000Y-59452380D01*
X61761904Y-59452380D01*
X61619047Y-59500000D01*
X60619047Y-60357142D02*
X60666666Y-60404761D01*
X60809523Y-60452380D01*
X60904761Y-60452380D01*
X61047619Y-60404761D01*
X61142857Y-60309523D01*
X61190476Y-60214285D01*
X61238095Y-60023809D01*
X61238095Y-59880952D01*
X61190476Y-59690476D01*
X61142857Y-59595238D01*
X61047619Y-59500000D01*
X60904761Y-59452380D01*
X60809523Y-59452380D01*
X60666666Y-59500000D01*
X60619047Y-59547619D01*
X59714285Y-60452380D02*
X60190476Y-60452380D01*
X60190476Y-59452380D01*
X62214285Y-55404761D02*
X62071428Y-55452380D01*
X61833333Y-55452380D01*
X61738095Y-55404761D01*
X61690476Y-55357142D01*
X61642857Y-55261904D01*
X61642857Y-55166666D01*
X61690476Y-55071428D01*
X61738095Y-55023809D01*
X61833333Y-54976190D01*
X62023809Y-54928571D01*
X62119047Y-54880952D01*
X62166666Y-54833333D01*
X62214285Y-54738095D01*
X62214285Y-54642857D01*
X62166666Y-54547619D01*
X62119047Y-54500000D01*
X62023809Y-54452380D01*
X61785714Y-54452380D01*
X61642857Y-54500000D01*
X61214285Y-55452380D02*
X61214285Y-54452380D01*
X60976190Y-54452380D01*
X60833333Y-54500000D01*
X60738095Y-54595238D01*
X60690476Y-54690476D01*
X60642857Y-54880952D01*
X60642857Y-55023809D01*
X60690476Y-55214285D01*
X60738095Y-55309523D01*
X60833333Y-55404761D01*
X60976190Y-55452380D01*
X61214285Y-55452380D01*
X60261904Y-55166666D02*
X59785714Y-55166666D01*
X60357142Y-55452380D02*
X60023809Y-54452380D01*
X59690476Y-55452380D01*
X114164404Y-61952380D02*
X114164404Y-60952380D01*
X113926309Y-60952380D01*
X113783452Y-61000000D01*
X113688214Y-61095238D01*
X113640595Y-61190476D01*
X113592976Y-61380952D01*
X113592976Y-61523809D01*
X113640595Y-61714285D01*
X113688214Y-61809523D01*
X113783452Y-61904761D01*
X113926309Y-61952380D01*
X114164404Y-61952380D01*
X112973928Y-60952380D02*
X112783452Y-60952380D01*
X112688214Y-61000000D01*
X112592976Y-61095238D01*
X112545357Y-61285714D01*
X112545357Y-61619047D01*
X112592976Y-61809523D01*
X112688214Y-61904761D01*
X112783452Y-61952380D01*
X112973928Y-61952380D01*
X113069166Y-61904761D01*
X113164404Y-61809523D01*
X113212023Y-61619047D01*
X113212023Y-61285714D01*
X113164404Y-61095238D01*
X113069166Y-61000000D01*
X112973928Y-60952380D01*
X114212023Y-51904761D02*
X114069166Y-51952380D01*
X113831071Y-51952380D01*
X113735833Y-51904761D01*
X113688214Y-51857142D01*
X113640595Y-51761904D01*
X113640595Y-51666666D01*
X113688214Y-51571428D01*
X113735833Y-51523809D01*
X113831071Y-51476190D01*
X114021547Y-51428571D01*
X114116785Y-51380952D01*
X114164404Y-51333333D01*
X114212023Y-51238095D01*
X114212023Y-51142857D01*
X114164404Y-51047619D01*
X114116785Y-51000000D01*
X114021547Y-50952380D01*
X113783452Y-50952380D01*
X113640595Y-51000000D01*
X113307261Y-50952380D02*
X113069166Y-51952380D01*
X112878690Y-51238095D01*
X112688214Y-51952380D01*
X112450119Y-50952380D01*
X111497738Y-51857142D02*
X111545357Y-51904761D01*
X111688214Y-51952380D01*
X111783452Y-51952380D01*
X111926309Y-51904761D01*
X112021547Y-51809523D01*
X112069166Y-51714285D01*
X112116785Y-51523809D01*
X112116785Y-51380952D01*
X112069166Y-51190476D01*
X112021547Y-51095238D01*
X111926309Y-51000000D01*
X111783452Y-50952380D01*
X111688214Y-50952380D01*
X111545357Y-51000000D01*
X111497738Y-51047619D01*
X110592976Y-51952380D02*
X111069166Y-51952380D01*
X111069166Y-50952380D01*
X110259642Y-51952380D02*
X110259642Y-50952380D01*
X109688214Y-51952380D02*
X110116785Y-51380952D01*
X109688214Y-50952380D02*
X110259642Y-51523809D01*
X114212023Y-56904761D02*
X114069166Y-56952380D01*
X113831071Y-56952380D01*
X113735833Y-56904761D01*
X113688214Y-56857142D01*
X113640595Y-56761904D01*
X113640595Y-56666666D01*
X113688214Y-56571428D01*
X113735833Y-56523809D01*
X113831071Y-56476190D01*
X114021547Y-56428571D01*
X114116785Y-56380952D01*
X114164404Y-56333333D01*
X114212023Y-56238095D01*
X114212023Y-56142857D01*
X114164404Y-56047619D01*
X114116785Y-56000000D01*
X114021547Y-55952380D01*
X113783452Y-55952380D01*
X113640595Y-56000000D01*
X113307261Y-55952380D02*
X113069166Y-56952380D01*
X112878690Y-56238095D01*
X112688214Y-56952380D01*
X112450119Y-55952380D01*
X112069166Y-56952380D02*
X112069166Y-55952380D01*
X111831071Y-55952380D01*
X111688214Y-56000000D01*
X111592976Y-56095238D01*
X111545357Y-56190476D01*
X111497738Y-56380952D01*
X111497738Y-56523809D01*
X111545357Y-56714285D01*
X111592976Y-56809523D01*
X111688214Y-56904761D01*
X111831071Y-56952380D01*
X112069166Y-56952380D01*
X111069166Y-56952380D02*
X111069166Y-55952380D01*
X110402500Y-55952380D02*
X110212023Y-55952380D01*
X110116785Y-56000000D01*
X110021547Y-56095238D01*
X109973928Y-56285714D01*
X109973928Y-56619047D01*
X110021547Y-56809523D01*
X110116785Y-56904761D01*
X110212023Y-56952380D01*
X110402500Y-56952380D01*
X110497738Y-56904761D01*
X110592976Y-56809523D01*
X110640595Y-56619047D01*
X110640595Y-56285714D01*
X110592976Y-56095238D01*
X110497738Y-56000000D01*
X110402500Y-55952380D01*
X113592976Y-59452380D02*
X113926309Y-58976190D01*
X114164404Y-59452380D02*
X114164404Y-58452380D01*
X113783452Y-58452380D01*
X113688214Y-58500000D01*
X113640595Y-58547619D01*
X113592976Y-58642857D01*
X113592976Y-58785714D01*
X113640595Y-58880952D01*
X113688214Y-58928571D01*
X113783452Y-58976190D01*
X114164404Y-58976190D01*
X113212023Y-59404761D02*
X113116785Y-59452380D01*
X112926309Y-59452380D01*
X112831071Y-59404761D01*
X112783452Y-59309523D01*
X112783452Y-59261904D01*
X112831071Y-59166666D01*
X112926309Y-59119047D01*
X113069166Y-59119047D01*
X113164404Y-59071428D01*
X113212023Y-58976190D01*
X113212023Y-58928571D01*
X113164404Y-58833333D01*
X113069166Y-58785714D01*
X112926309Y-58785714D01*
X112831071Y-58833333D01*
X112497738Y-58785714D02*
X112116785Y-58785714D01*
X112354880Y-58452380D02*
X112354880Y-59309523D01*
X112307261Y-59404761D01*
X112212023Y-59452380D01*
X112116785Y-59452380D01*
X113640595Y-53500000D02*
X113735833Y-53452380D01*
X113878690Y-53452380D01*
X114021547Y-53500000D01*
X114116785Y-53595238D01*
X114164404Y-53690476D01*
X114212023Y-53880952D01*
X114212023Y-54023809D01*
X114164404Y-54214285D01*
X114116785Y-54309523D01*
X114021547Y-54404761D01*
X113878690Y-54452380D01*
X113783452Y-54452380D01*
X113640595Y-54404761D01*
X113592976Y-54357142D01*
X113592976Y-54023809D01*
X113783452Y-54023809D01*
X113164404Y-53785714D02*
X113164404Y-54452380D01*
X113164404Y-53880952D02*
X113116785Y-53833333D01*
X113021547Y-53785714D01*
X112878690Y-53785714D01*
X112783452Y-53833333D01*
X112735833Y-53928571D01*
X112735833Y-54452380D01*
X111831071Y-54452380D02*
X111831071Y-53452380D01*
X111831071Y-54404761D02*
X111926309Y-54452380D01*
X112116785Y-54452380D01*
X112212023Y-54404761D01*
X112259642Y-54357142D01*
X112307261Y-54261904D01*
X112307261Y-53976190D01*
X112259642Y-53880952D01*
X112212023Y-53833333D01*
X112116785Y-53785714D01*
X111926309Y-53785714D01*
X111831071Y-53833333D01*
X114307261Y-48452380D02*
X113973928Y-49452380D01*
X113640595Y-48452380D01*
X112878690Y-49404761D02*
X112973928Y-49452380D01*
X113164404Y-49452380D01*
X113259642Y-49404761D01*
X113307261Y-49357142D01*
X113354880Y-49261904D01*
X113354880Y-48976190D01*
X113307261Y-48880952D01*
X113259642Y-48833333D01*
X113164404Y-48785714D01*
X112973928Y-48785714D01*
X112878690Y-48833333D01*
X112021547Y-49404761D02*
X112116785Y-49452380D01*
X112307261Y-49452380D01*
X112402500Y-49404761D01*
X112450119Y-49357142D01*
X112497738Y-49261904D01*
X112497738Y-48976190D01*
X112450119Y-48880952D01*
X112402500Y-48833333D01*
X112307261Y-48785714D01*
X112116785Y-48785714D01*
X112021547Y-48833333D01*
X76571428Y-46357142D02*
X76619047Y-46404761D01*
X76761904Y-46452380D01*
X76857142Y-46452380D01*
X77000000Y-46404761D01*
X77095238Y-46309523D01*
X77142857Y-46214285D01*
X77190476Y-46023809D01*
X77190476Y-45880952D01*
X77142857Y-45690476D01*
X77095238Y-45595238D01*
X77000000Y-45500000D01*
X76857142Y-45452380D01*
X76761904Y-45452380D01*
X76619047Y-45500000D01*
X76571428Y-45547619D01*
X75999999Y-46452380D02*
X76095238Y-46404761D01*
X76142857Y-46357142D01*
X76190476Y-46261904D01*
X76190476Y-45976190D01*
X76142857Y-45880952D01*
X76095238Y-45833333D01*
X75999999Y-45785714D01*
X75857142Y-45785714D01*
X75761904Y-45833333D01*
X75714285Y-45880952D01*
X75666666Y-45976190D01*
X75666666Y-46261904D01*
X75714285Y-46357142D01*
X75761904Y-46404761D01*
X75857142Y-46452380D01*
X75999999Y-46452380D01*
X75238095Y-45785714D02*
X75238095Y-46452380D01*
X75238095Y-45880952D02*
X75190476Y-45833333D01*
X75095238Y-45785714D01*
X74952380Y-45785714D01*
X74857142Y-45833333D01*
X74809523Y-45928571D01*
X74809523Y-46452380D01*
X74476190Y-45785714D02*
X74095238Y-45785714D01*
X74333333Y-46452380D02*
X74333333Y-45595238D01*
X74285714Y-45500000D01*
X74190476Y-45452380D01*
X74095238Y-45452380D01*
X73761904Y-46452380D02*
X73761904Y-45785714D01*
X73761904Y-45452380D02*
X73809523Y-45500000D01*
X73761904Y-45547619D01*
X73714285Y-45500000D01*
X73761904Y-45452380D01*
X73761904Y-45547619D01*
X72857142Y-45785714D02*
X72857142Y-46595238D01*
X72904761Y-46690476D01*
X72952380Y-46738095D01*
X73047619Y-46785714D01*
X73190476Y-46785714D01*
X73285714Y-46738095D01*
X72857142Y-46404761D02*
X72952380Y-46452380D01*
X73142857Y-46452380D01*
X73238095Y-46404761D01*
X73285714Y-46357142D01*
X73333333Y-46261904D01*
X73333333Y-45976190D01*
X73285714Y-45880952D01*
X73238095Y-45833333D01*
X73142857Y-45785714D01*
X72952380Y-45785714D01*
X72857142Y-45833333D01*
X82285714Y-48166666D02*
X81809523Y-48166666D01*
X82380952Y-48452380D02*
X82047619Y-47452380D01*
X81714285Y-48452380D01*
X80952380Y-48452380D02*
X80952380Y-47452380D01*
X80952380Y-48404761D02*
X81047619Y-48452380D01*
X81238095Y-48452380D01*
X81333333Y-48404761D01*
X81380952Y-48357142D01*
X81428571Y-48261904D01*
X81428571Y-47976190D01*
X81380952Y-47880952D01*
X81333333Y-47833333D01*
X81238095Y-47785714D01*
X81047619Y-47785714D01*
X80952380Y-47833333D01*
X80571428Y-47785714D02*
X80333333Y-48452380D01*
X80095238Y-47785714D01*
X79285714Y-48452380D02*
X79285714Y-47928571D01*
X79333333Y-47833333D01*
X79428571Y-47785714D01*
X79619047Y-47785714D01*
X79714285Y-47833333D01*
X79285714Y-48404761D02*
X79380952Y-48452380D01*
X79619047Y-48452380D01*
X79714285Y-48404761D01*
X79761904Y-48309523D01*
X79761904Y-48214285D01*
X79714285Y-48119047D01*
X79619047Y-48071428D01*
X79380952Y-48071428D01*
X79285714Y-48023809D01*
X78809523Y-47785714D02*
X78809523Y-48452380D01*
X78809523Y-47880952D02*
X78761904Y-47833333D01*
X78666666Y-47785714D01*
X78523809Y-47785714D01*
X78428571Y-47833333D01*
X78380952Y-47928571D01*
X78380952Y-48452380D01*
X77476190Y-48404761D02*
X77571428Y-48452380D01*
X77761904Y-48452380D01*
X77857142Y-48404761D01*
X77904761Y-48357142D01*
X77952380Y-48261904D01*
X77952380Y-47976190D01*
X77904761Y-47880952D01*
X77857142Y-47833333D01*
X77761904Y-47785714D01*
X77571428Y-47785714D01*
X77476190Y-47833333D01*
X76666666Y-48404761D02*
X76761904Y-48452380D01*
X76952380Y-48452380D01*
X77047619Y-48404761D01*
X77095238Y-48309523D01*
X77095238Y-47928571D01*
X77047619Y-47833333D01*
X76952380Y-47785714D01*
X76761904Y-47785714D01*
X76666666Y-47833333D01*
X76619047Y-47928571D01*
X76619047Y-48023809D01*
X77095238Y-48119047D01*
X75761904Y-48452380D02*
X75761904Y-47452380D01*
X75761904Y-48404761D02*
X75857142Y-48452380D01*
X76047619Y-48452380D01*
X76142857Y-48404761D01*
X76190476Y-48357142D01*
X76238095Y-48261904D01*
X76238095Y-47976190D01*
X76190476Y-47880952D01*
X76142857Y-47833333D01*
X76047619Y-47785714D01*
X75857142Y-47785714D01*
X75761904Y-47833333D01*
X72952380Y-47928571D02*
X72809523Y-47976190D01*
X72761904Y-48023809D01*
X72714285Y-48119047D01*
X72714285Y-48261904D01*
X72761904Y-48357142D01*
X72809523Y-48404761D01*
X72904761Y-48452380D01*
X73285714Y-48452380D01*
X73285714Y-47452380D01*
X72952380Y-47452380D01*
X72857142Y-47500000D01*
X72809523Y-47547619D01*
X72761904Y-47642857D01*
X72761904Y-47738095D01*
X72809523Y-47833333D01*
X72857142Y-47880952D01*
X72952380Y-47928571D01*
X73285714Y-47928571D01*
X71857142Y-48452380D02*
X71857142Y-47928571D01*
X71904761Y-47833333D01*
X72000000Y-47785714D01*
X72190476Y-47785714D01*
X72285714Y-47833333D01*
X71857142Y-48404761D02*
X71952380Y-48452380D01*
X72190476Y-48452380D01*
X72285714Y-48404761D01*
X72333333Y-48309523D01*
X72333333Y-48214285D01*
X72285714Y-48119047D01*
X72190476Y-48071428D01*
X71952380Y-48071428D01*
X71857142Y-48023809D01*
X71428571Y-48404761D02*
X71333333Y-48452380D01*
X71142857Y-48452380D01*
X71047619Y-48404761D01*
X71000000Y-48309523D01*
X71000000Y-48261904D01*
X71047619Y-48166666D01*
X71142857Y-48119047D01*
X71285714Y-48119047D01*
X71380952Y-48071428D01*
X71428571Y-47976190D01*
X71428571Y-47928571D01*
X71380952Y-47833333D01*
X71285714Y-47785714D01*
X71142857Y-47785714D01*
X71047619Y-47833333D01*
X70571428Y-48452380D02*
X70571428Y-47785714D01*
X70571428Y-47452380D02*
X70619047Y-47500000D01*
X70571428Y-47547619D01*
X70523809Y-47500000D01*
X70571428Y-47452380D01*
X70571428Y-47547619D01*
X69666666Y-48404761D02*
X69761904Y-48452380D01*
X69952380Y-48452380D01*
X70047619Y-48404761D01*
X70095238Y-48357142D01*
X70142857Y-48261904D01*
X70142857Y-47976190D01*
X70095238Y-47880952D01*
X70047619Y-47833333D01*
X69952380Y-47785714D01*
X69761904Y-47785714D01*
X69666666Y-47833333D01*
X75595238Y-53452380D02*
X75928571Y-52976190D01*
X76166666Y-53452380D02*
X76166666Y-52452380D01*
X75785714Y-52452380D01*
X75690476Y-52500000D01*
X75642857Y-52547619D01*
X75595238Y-52642857D01*
X75595238Y-52785714D01*
X75642857Y-52880952D01*
X75690476Y-52928571D01*
X75785714Y-52976190D01*
X76166666Y-52976190D01*
X74738095Y-52785714D02*
X74738095Y-53452380D01*
X75166666Y-52785714D02*
X75166666Y-53309523D01*
X75119047Y-53404761D01*
X75023809Y-53452380D01*
X74880952Y-53452380D01*
X74785714Y-53404761D01*
X74738095Y-53357142D01*
X74261904Y-52785714D02*
X74261904Y-53452380D01*
X74261904Y-52880952D02*
X74214285Y-52833333D01*
X74119047Y-52785714D01*
X73976190Y-52785714D01*
X73880952Y-52833333D01*
X73833333Y-52928571D01*
X73833333Y-53452380D01*
D11*
X73500000Y-49000000D02*
X71000000Y-49000000D01*
X78500000Y-49000000D02*
X76000000Y-49000000D01*
X76000000Y-52000000D02*
X73500000Y-52000000D01*
D10*
X33880952Y-61571428D02*
X33119047Y-61571428D01*
X33880952Y-51071428D02*
X33119047Y-51071428D01*
X33500000Y-51452380D02*
X33500000Y-50690476D01*
X33880952Y-54071428D02*
X33119047Y-54071428D01*
X37476190Y-51952380D02*
X36904761Y-51952380D01*
X37190476Y-52952380D02*
X37190476Y-51952380D01*
X36571428Y-52952380D02*
X36571428Y-51952380D01*
X36142857Y-52952380D02*
X36142857Y-52428571D01*
X36190476Y-52333333D01*
X36285714Y-52285714D01*
X36428571Y-52285714D01*
X36523809Y-52333333D01*
X36571428Y-52380952D01*
X35666666Y-52952380D02*
X35666666Y-52285714D01*
X35666666Y-52476190D02*
X35619047Y-52380952D01*
X35571428Y-52333333D01*
X35476190Y-52285714D01*
X35380952Y-52285714D01*
X34904761Y-52952380D02*
X35000000Y-52904761D01*
X35047619Y-52857142D01*
X35095238Y-52761904D01*
X35095238Y-52476190D01*
X35047619Y-52380952D01*
X35000000Y-52333333D01*
X34904761Y-52285714D01*
X34761904Y-52285714D01*
X34666666Y-52333333D01*
X34619047Y-52380952D01*
X34571428Y-52476190D01*
X34571428Y-52761904D01*
X34619047Y-52857142D01*
X34666666Y-52904761D01*
X34761904Y-52952380D01*
X34904761Y-52952380D01*
X34238095Y-52285714D02*
X34047619Y-52952380D01*
X33857142Y-52476190D01*
X33666666Y-52952380D01*
X33476190Y-52285714D01*
X33095238Y-52285714D02*
X33095238Y-52952380D01*
X33095238Y-52380952D02*
X33047619Y-52333333D01*
X32952380Y-52285714D01*
X32809523Y-52285714D01*
X32714285Y-52333333D01*
X32666666Y-52428571D01*
X32666666Y-52952380D01*
X37190476Y-60357142D02*
X37238095Y-60404761D01*
X37380952Y-60452380D01*
X37476190Y-60452380D01*
X37619047Y-60404761D01*
X37714285Y-60309523D01*
X37761904Y-60214285D01*
X37809523Y-60023809D01*
X37809523Y-59880952D01*
X37761904Y-59690476D01*
X37714285Y-59595238D01*
X37619047Y-59500000D01*
X37476190Y-59452380D01*
X37380952Y-59452380D01*
X37238095Y-59500000D01*
X37190476Y-59547619D01*
X36619047Y-60452380D02*
X36714285Y-60404761D01*
X36761904Y-60309523D01*
X36761904Y-59452380D01*
X36095238Y-60452380D02*
X36190476Y-60404761D01*
X36238095Y-60357142D01*
X36285714Y-60261904D01*
X36285714Y-59976190D01*
X36238095Y-59880952D01*
X36190476Y-59833333D01*
X36095238Y-59785714D01*
X35952380Y-59785714D01*
X35857142Y-59833333D01*
X35809523Y-59880952D01*
X35761904Y-59976190D01*
X35761904Y-60261904D01*
X35809523Y-60357142D01*
X35857142Y-60404761D01*
X35952380Y-60452380D01*
X36095238Y-60452380D01*
X35380952Y-60404761D02*
X35285714Y-60452380D01*
X35095238Y-60452380D01*
X35000000Y-60404761D01*
X34952380Y-60309523D01*
X34952380Y-60261904D01*
X35000000Y-60166666D01*
X35095238Y-60119047D01*
X35238095Y-60119047D01*
X35333333Y-60071428D01*
X35380952Y-59976190D01*
X35380952Y-59928571D01*
X35333333Y-59833333D01*
X35238095Y-59785714D01*
X35095238Y-59785714D01*
X35000000Y-59833333D01*
X34142857Y-60404761D02*
X34238095Y-60452380D01*
X34428571Y-60452380D01*
X34523809Y-60404761D01*
X34571428Y-60309523D01*
X34571428Y-59928571D01*
X34523809Y-59833333D01*
X34428571Y-59785714D01*
X34238095Y-59785714D01*
X34142857Y-59833333D01*
X34095238Y-59928571D01*
X34095238Y-60023809D01*
X34571428Y-60119047D01*
X33238095Y-60452380D02*
X33238095Y-59452380D01*
X33238095Y-60404761D02*
X33333333Y-60452380D01*
X33523809Y-60452380D01*
X33619047Y-60404761D01*
X33666666Y-60357142D01*
X33714285Y-60261904D01*
X33714285Y-59976190D01*
X33666666Y-59880952D01*
X33619047Y-59833333D01*
X33523809Y-59785714D01*
X33333333Y-59785714D01*
X33238095Y-59833333D01*
X33880952Y-58571428D02*
X33119047Y-58571428D01*
X33500000Y-58952380D02*
X33500000Y-58190476D01*
X45000000Y-63738095D02*
X44952380Y-63642857D01*
X44952380Y-63500000D01*
X45000000Y-63357142D01*
X45095238Y-63261904D01*
X45190476Y-63214285D01*
X45380952Y-63166666D01*
X45523809Y-63166666D01*
X45714285Y-63214285D01*
X45809523Y-63261904D01*
X45904761Y-63357142D01*
X45952380Y-63500000D01*
X45952380Y-63595238D01*
X45904761Y-63738095D01*
X45857142Y-63785714D01*
X45523809Y-63785714D01*
X45523809Y-63595238D01*
X45952380Y-64214285D02*
X44952380Y-64214285D01*
X45952380Y-64785714D01*
X44952380Y-64785714D01*
X45952380Y-65261904D02*
X44952380Y-65261904D01*
X44952380Y-65500000D01*
X45000000Y-65642857D01*
X45095238Y-65738095D01*
X45190476Y-65785714D01*
X45380952Y-65833333D01*
X45523809Y-65833333D01*
X45714285Y-65785714D01*
X45809523Y-65738095D01*
X45904761Y-65642857D01*
X45952380Y-65500000D01*
X45952380Y-65261904D01*
X42904761Y-64023809D02*
X42952380Y-64166666D01*
X42952380Y-64404761D01*
X42904761Y-64500000D01*
X42857142Y-64547619D01*
X42761904Y-64595238D01*
X42666666Y-64595238D01*
X42571428Y-64547619D01*
X42523809Y-64500000D01*
X42476190Y-64404761D01*
X42428571Y-64214285D01*
X42380952Y-64119047D01*
X42333333Y-64071428D01*
X42238095Y-64023809D01*
X42142857Y-64023809D01*
X42047619Y-64071428D01*
X42000000Y-64119047D01*
X41952380Y-64214285D01*
X41952380Y-64452380D01*
X42000000Y-64595238D01*
X42952380Y-65023809D02*
X42285714Y-65023809D01*
X41952380Y-65023809D02*
X42000000Y-64976190D01*
X42047619Y-65023809D01*
X42000000Y-65071428D01*
X41952380Y-65023809D01*
X42047619Y-65023809D01*
X42285714Y-65928571D02*
X43095238Y-65928571D01*
X43190476Y-65880952D01*
X43238095Y-65833333D01*
X43285714Y-65738095D01*
X43285714Y-65595238D01*
X43238095Y-65500000D01*
X42904761Y-65928571D02*
X42952380Y-65833333D01*
X42952380Y-65642857D01*
X42904761Y-65547619D01*
X42857142Y-65500000D01*
X42761904Y-65452380D01*
X42476190Y-65452380D01*
X42380952Y-65500000D01*
X42333333Y-65547619D01*
X42285714Y-65642857D01*
X42285714Y-65833333D01*
X42333333Y-65928571D01*
X53404761Y-63523809D02*
X53452380Y-63666666D01*
X53452380Y-63904761D01*
X53404761Y-64000000D01*
X53357142Y-64047619D01*
X53261904Y-64095238D01*
X53166666Y-64095238D01*
X53071428Y-64047619D01*
X53023809Y-64000000D01*
X52976190Y-63904761D01*
X52928571Y-63714285D01*
X52880952Y-63619047D01*
X52833333Y-63571428D01*
X52738095Y-63523809D01*
X52642857Y-63523809D01*
X52547619Y-63571428D01*
X52500000Y-63619047D01*
X52452380Y-63714285D01*
X52452380Y-63952380D01*
X52500000Y-64095238D01*
X53452380Y-64523809D02*
X52785714Y-64523809D01*
X52452380Y-64523809D02*
X52500000Y-64476190D01*
X52547619Y-64523809D01*
X52500000Y-64571428D01*
X52452380Y-64523809D01*
X52547619Y-64523809D01*
X52785714Y-65428571D02*
X53595238Y-65428571D01*
X53690476Y-65380952D01*
X53738095Y-65333333D01*
X53785714Y-65238095D01*
X53785714Y-65095238D01*
X53738095Y-65000000D01*
X53404761Y-65428571D02*
X53452380Y-65333333D01*
X53452380Y-65142857D01*
X53404761Y-65047619D01*
X53357142Y-65000000D01*
X53261904Y-64952380D01*
X52976190Y-64952380D01*
X52880952Y-65000000D01*
X52833333Y-65047619D01*
X52785714Y-65142857D01*
X52785714Y-65333333D01*
X52833333Y-65428571D01*
X54952380Y-64309523D02*
X54952380Y-63833333D01*
X55428571Y-63785714D01*
X55380952Y-63833333D01*
X55333333Y-63928571D01*
X55333333Y-64166666D01*
X55380952Y-64261904D01*
X55428571Y-64309523D01*
X55523809Y-64357142D01*
X55761904Y-64357142D01*
X55857142Y-64309523D01*
X55904761Y-64261904D01*
X55952380Y-64166666D01*
X55952380Y-63928571D01*
X55904761Y-63833333D01*
X55857142Y-63785714D01*
X54952380Y-64642857D02*
X55952380Y-64976190D01*
X54952380Y-65309523D01*
X57500000Y-63738095D02*
X57452380Y-63642857D01*
X57452380Y-63500000D01*
X57500000Y-63357142D01*
X57595238Y-63261904D01*
X57690476Y-63214285D01*
X57880952Y-63166666D01*
X58023809Y-63166666D01*
X58214285Y-63214285D01*
X58309523Y-63261904D01*
X58404761Y-63357142D01*
X58452380Y-63500000D01*
X58452380Y-63595238D01*
X58404761Y-63738095D01*
X58357142Y-63785714D01*
X58023809Y-63785714D01*
X58023809Y-63595238D01*
X58452380Y-64214285D02*
X57452380Y-64214285D01*
X58452380Y-64785714D01*
X57452380Y-64785714D01*
X58452380Y-65261904D02*
X57452380Y-65261904D01*
X57452380Y-65500000D01*
X57500000Y-65642857D01*
X57595238Y-65738095D01*
X57690476Y-65785714D01*
X57880952Y-65833333D01*
X58023809Y-65833333D01*
X58214285Y-65785714D01*
X58309523Y-65738095D01*
X58404761Y-65642857D01*
X58452380Y-65500000D01*
X58452380Y-65261904D01*
X54071428Y-55833333D02*
X54119047Y-55785714D01*
X54214285Y-55642857D01*
X54261904Y-55547619D01*
X54309523Y-55404761D01*
X54357142Y-55166666D01*
X54357142Y-54976190D01*
X54309523Y-54738095D01*
X54261904Y-54595238D01*
X54214285Y-54500000D01*
X54119047Y-54357142D01*
X54071428Y-54309523D01*
X53261904Y-55404761D02*
X53357142Y-55452380D01*
X53547619Y-55452380D01*
X53642857Y-55404761D01*
X53690476Y-55357142D01*
X53738095Y-55261904D01*
X53738095Y-54976190D01*
X53690476Y-54880952D01*
X53642857Y-54833333D01*
X53547619Y-54785714D01*
X53357142Y-54785714D01*
X53261904Y-54833333D01*
X52928571Y-55833333D02*
X52880952Y-55785714D01*
X52785714Y-55642857D01*
X52738095Y-55547619D01*
X52690476Y-55404761D01*
X52642857Y-55166666D01*
X52642857Y-54976190D01*
X52690476Y-54738095D01*
X52738095Y-54595238D01*
X52785714Y-54500000D01*
X52880952Y-54357142D01*
X52928571Y-54309523D01*
X52166666Y-55452380D02*
X52166666Y-54452380D01*
X51928571Y-54452380D01*
X51785714Y-54500000D01*
X51690476Y-54595238D01*
X51642857Y-54690476D01*
X51595238Y-54880952D01*
X51595238Y-55023809D01*
X51642857Y-55214285D01*
X51690476Y-55309523D01*
X51785714Y-55404761D01*
X51928571Y-55452380D01*
X52166666Y-55452380D01*
X50738095Y-55452380D02*
X50738095Y-54928571D01*
X50785714Y-54833333D01*
X50880952Y-54785714D01*
X51071428Y-54785714D01*
X51166666Y-54833333D01*
X50738095Y-55404761D02*
X50833333Y-55452380D01*
X51071428Y-55452380D01*
X51166666Y-55404761D01*
X51214285Y-55309523D01*
X51214285Y-55214285D01*
X51166666Y-55119047D01*
X51071428Y-55071428D01*
X50833333Y-55071428D01*
X50738095Y-55023809D01*
X50261904Y-54785714D02*
X50261904Y-55452380D01*
X50261904Y-54880952D02*
X50214285Y-54833333D01*
X50119047Y-54785714D01*
X49976190Y-54785714D01*
X49880952Y-54833333D01*
X49833333Y-54928571D01*
X49833333Y-55452380D01*
X49357142Y-55452380D02*
X49357142Y-54785714D01*
X49357142Y-54452380D02*
X49404761Y-54500000D01*
X49357142Y-54547619D01*
X49309523Y-54500000D01*
X49357142Y-54452380D01*
X49357142Y-54547619D01*
X48500000Y-55404761D02*
X48595238Y-55452380D01*
X48785714Y-55452380D01*
X48880952Y-55404761D01*
X48928571Y-55309523D01*
X48928571Y-54928571D01*
X48880952Y-54833333D01*
X48785714Y-54785714D01*
X48595238Y-54785714D01*
X48500000Y-54833333D01*
X48452380Y-54928571D01*
X48452380Y-55023809D01*
X48928571Y-55119047D01*
X47880952Y-55452380D02*
X47976190Y-55404761D01*
X48023809Y-55309523D01*
X48023809Y-54452380D01*
X46880952Y-54452380D02*
X46547619Y-55452380D01*
X46214285Y-54452380D01*
X45880952Y-55452380D02*
X45880952Y-54785714D01*
X45880952Y-54452380D02*
X45928571Y-54500000D01*
X45880952Y-54547619D01*
X45833333Y-54500000D01*
X45880952Y-54452380D01*
X45880952Y-54547619D01*
X45261904Y-55452380D02*
X45357142Y-55404761D01*
X45404761Y-55309523D01*
X45404761Y-54452380D01*
X44452380Y-55452380D02*
X44452380Y-54928571D01*
X44500000Y-54833333D01*
X44595238Y-54785714D01*
X44785714Y-54785714D01*
X44880952Y-54833333D01*
X44452380Y-55404761D02*
X44547619Y-55452380D01*
X44785714Y-55452380D01*
X44880952Y-55404761D01*
X44928571Y-55309523D01*
X44928571Y-55214285D01*
X44880952Y-55119047D01*
X44785714Y-55071428D01*
X44547619Y-55071428D01*
X44452380Y-55023809D01*
X44023809Y-55404761D02*
X43928571Y-55452380D01*
X43738095Y-55452380D01*
X43642857Y-55404761D01*
X43595238Y-55309523D01*
X43595238Y-55261904D01*
X43642857Y-55166666D01*
X43738095Y-55119047D01*
X43880952Y-55119047D01*
X43976190Y-55071428D01*
X44023809Y-54976190D01*
X44023809Y-54928571D01*
X43976190Y-54833333D01*
X43880952Y-54785714D01*
X43738095Y-54785714D01*
X43642857Y-54833333D01*
X76500000Y-63738095D02*
X76452380Y-63642857D01*
X76452380Y-63500000D01*
X76500000Y-63357142D01*
X76595238Y-63261904D01*
X76690476Y-63214285D01*
X76880952Y-63166666D01*
X77023809Y-63166666D01*
X77214285Y-63214285D01*
X77309523Y-63261904D01*
X77404761Y-63357142D01*
X77452380Y-63500000D01*
X77452380Y-63595238D01*
X77404761Y-63738095D01*
X77357142Y-63785714D01*
X77023809Y-63785714D01*
X77023809Y-63595238D01*
X77452380Y-64214285D02*
X76452380Y-64214285D01*
X77452380Y-64785714D01*
X76452380Y-64785714D01*
X77452380Y-65261904D02*
X76452380Y-65261904D01*
X76452380Y-65500000D01*
X76500000Y-65642857D01*
X76595238Y-65738095D01*
X76690476Y-65785714D01*
X76880952Y-65833333D01*
X77023809Y-65833333D01*
X77214285Y-65785714D01*
X77309523Y-65738095D01*
X77404761Y-65642857D01*
X77452380Y-65500000D01*
X77452380Y-65261904D01*
X70952380Y-63023809D02*
X70952380Y-63642857D01*
X71333333Y-63309523D01*
X71333333Y-63452380D01*
X71380952Y-63547619D01*
X71428571Y-63595238D01*
X71523809Y-63642857D01*
X71761904Y-63642857D01*
X71857142Y-63595238D01*
X71904761Y-63547619D01*
X71952380Y-63452380D01*
X71952380Y-63166666D01*
X71904761Y-63071428D01*
X71857142Y-63023809D01*
X71857142Y-64071428D02*
X71904761Y-64119047D01*
X71952380Y-64071428D01*
X71904761Y-64023809D01*
X71857142Y-64071428D01*
X71952380Y-64071428D01*
X70952380Y-64452380D02*
X70952380Y-65071428D01*
X71333333Y-64738095D01*
X71333333Y-64880952D01*
X71380952Y-64976190D01*
X71428571Y-65023809D01*
X71523809Y-65071428D01*
X71761904Y-65071428D01*
X71857142Y-65023809D01*
X71904761Y-64976190D01*
X71952380Y-64880952D01*
X71952380Y-64595238D01*
X71904761Y-64500000D01*
X71857142Y-64452380D01*
X70952380Y-65357142D02*
X71952380Y-65690476D01*
X70952380Y-66023809D01*
X66285714Y-63333333D02*
X66285714Y-63714285D01*
X66952380Y-63476190D02*
X66095238Y-63476190D01*
X66000000Y-63523809D01*
X65952380Y-63619047D01*
X65952380Y-63714285D01*
X66952380Y-64619047D02*
X66476190Y-64285714D01*
X66952380Y-64047619D02*
X65952380Y-64047619D01*
X65952380Y-64428571D01*
X66000000Y-64523809D01*
X66047619Y-64571428D01*
X66142857Y-64619047D01*
X66285714Y-64619047D01*
X66380952Y-64571428D01*
X66428571Y-64523809D01*
X66476190Y-64428571D01*
X66476190Y-64047619D01*
X65952380Y-64952380D02*
X66952380Y-65619047D01*
X65952380Y-65619047D02*
X66952380Y-64952380D01*
X68785714Y-63452380D02*
X68785714Y-63833333D01*
X69452380Y-63595238D02*
X68595238Y-63595238D01*
X68500000Y-63642857D01*
X68452380Y-63738095D01*
X68452380Y-63833333D01*
X68452380Y-64023809D02*
X68452380Y-64595238D01*
X69452380Y-64309523D02*
X68452380Y-64309523D01*
X68452380Y-64833333D02*
X69452380Y-65500000D01*
X68452380Y-65500000D02*
X69452380Y-64833333D01*
D12*
X100900000Y-43085714D02*
X100842857Y-42971428D01*
X100842857Y-42800000D01*
X100900000Y-42628571D01*
X101014285Y-42514285D01*
X101128571Y-42457142D01*
X101357142Y-42400000D01*
X101528571Y-42400000D01*
X101757142Y-42457142D01*
X101871428Y-42514285D01*
X101985714Y-42628571D01*
X102042857Y-42800000D01*
X102042857Y-42914285D01*
X101985714Y-43085714D01*
X101928571Y-43142857D01*
X101528571Y-43142857D01*
X101528571Y-42914285D01*
X102042857Y-43657142D02*
X100842857Y-43657142D01*
X102042857Y-44342857D01*
X100842857Y-44342857D01*
X102042857Y-44914285D02*
X100842857Y-44914285D01*
X100842857Y-45200000D01*
X100900000Y-45371428D01*
X101014285Y-45485714D01*
X101128571Y-45542857D01*
X101357142Y-45600000D01*
X101528571Y-45600000D01*
X101757142Y-45542857D01*
X101871428Y-45485714D01*
X101985714Y-45371428D01*
X102042857Y-45200000D01*
X102042857Y-44914285D01*
X104042857Y-42485714D02*
X102842857Y-42485714D01*
X102842857Y-42771428D01*
X102900000Y-42942857D01*
X103014285Y-43057142D01*
X103128571Y-43114285D01*
X103357142Y-43171428D01*
X103528571Y-43171428D01*
X103757142Y-43114285D01*
X103871428Y-43057142D01*
X103985714Y-42942857D01*
X104042857Y-42771428D01*
X104042857Y-42485714D01*
X103928571Y-44371428D02*
X103985714Y-44314285D01*
X104042857Y-44142857D01*
X104042857Y-44028571D01*
X103985714Y-43857142D01*
X103871428Y-43742857D01*
X103757142Y-43685714D01*
X103528571Y-43628571D01*
X103357142Y-43628571D01*
X103128571Y-43685714D01*
X103014285Y-43742857D01*
X102900000Y-43857142D01*
X102842857Y-44028571D01*
X102842857Y-44142857D01*
X102900000Y-44314285D01*
X102957142Y-44371428D01*
X103928571Y-45571428D02*
X103985714Y-45514285D01*
X104042857Y-45342857D01*
X104042857Y-45228571D01*
X103985714Y-45057142D01*
X103871428Y-44942857D01*
X103757142Y-44885714D01*
X103528571Y-44828571D01*
X103357142Y-44828571D01*
X103128571Y-44885714D01*
X103014285Y-44942857D01*
X102900000Y-45057142D01*
X102842857Y-45228571D01*
X102842857Y-45342857D01*
X102900000Y-45514285D01*
X102957142Y-45571428D01*
X105700000Y-42514285D02*
X105700000Y-43085714D01*
X106042857Y-42400000D02*
X104842857Y-42800000D01*
X106042857Y-43200000D01*
X105928571Y-44285714D02*
X105985714Y-44228571D01*
X106042857Y-44057142D01*
X106042857Y-43942857D01*
X105985714Y-43771428D01*
X105871428Y-43657142D01*
X105757142Y-43600000D01*
X105528571Y-43542857D01*
X105357142Y-43542857D01*
X105128571Y-43600000D01*
X105014285Y-43657142D01*
X104900000Y-43771428D01*
X104842857Y-43942857D01*
X104842857Y-44057142D01*
X104900000Y-44228571D01*
X104957142Y-44285714D01*
X106042857Y-44800000D02*
X104842857Y-44800000D01*
X106042857Y-45485714D02*
X105357142Y-44971428D01*
X104842857Y-45485714D02*
X105528571Y-44800000D01*
X107585714Y-42457142D02*
X107585714Y-43371428D01*
X108042857Y-42914285D02*
X107128571Y-42914285D01*
X106842857Y-44514285D02*
X106842857Y-43942857D01*
X107414285Y-43885714D01*
X107357142Y-43942857D01*
X107300000Y-44057142D01*
X107300000Y-44342857D01*
X107357142Y-44457142D01*
X107414285Y-44514285D01*
X107528571Y-44571428D01*
X107814285Y-44571428D01*
X107928571Y-44514285D01*
X107985714Y-44457142D01*
X108042857Y-44342857D01*
X108042857Y-44057142D01*
X107985714Y-43942857D01*
X107928571Y-43885714D01*
X106842857Y-44914285D02*
X108042857Y-45314285D01*
X106842857Y-45714285D01*
D10*
X66881666Y-42571428D02*
X66119761Y-42571428D01*
X66500714Y-42952380D02*
X66500714Y-42190476D01*
X64405476Y-41952380D02*
X64881666Y-41952380D01*
X64929285Y-42428571D01*
X64881666Y-42380952D01*
X64786428Y-42333333D01*
X64548333Y-42333333D01*
X64453095Y-42380952D01*
X64405476Y-42428571D01*
X64357857Y-42523809D01*
X64357857Y-42761904D01*
X64405476Y-42857142D01*
X64453095Y-42904761D01*
X64548333Y-42952380D01*
X64786428Y-42952380D01*
X64881666Y-42904761D01*
X64929285Y-42857142D01*
X64072142Y-41952380D02*
X63738809Y-42952380D01*
X63405476Y-41952380D01*
X62310238Y-42571428D02*
X61548333Y-42571428D01*
X98695238Y-53061904D02*
X98695238Y-53633333D01*
X98733333Y-53747619D01*
X98809523Y-53823809D01*
X98923809Y-53861904D01*
X99000000Y-53861904D01*
X97933333Y-53861904D02*
X98314285Y-53861904D01*
X98314285Y-53061904D01*
X97209523Y-53785714D02*
X97247619Y-53823809D01*
X97361904Y-53861904D01*
X97438095Y-53861904D01*
X97552380Y-53823809D01*
X97628571Y-53747619D01*
X97666666Y-53671428D01*
X97704761Y-53519047D01*
X97704761Y-53404761D01*
X97666666Y-53252380D01*
X97628571Y-53176190D01*
X97552380Y-53100000D01*
X97438095Y-53061904D01*
X97361904Y-53061904D01*
X97247619Y-53100000D01*
X97209523Y-53138095D01*
X96638095Y-53061904D02*
X96638095Y-53633333D01*
X96676190Y-53747619D01*
X96752380Y-53823809D01*
X96866666Y-53861904D01*
X96942857Y-53861904D01*
X95876190Y-53861904D02*
X96257142Y-53861904D01*
X96257142Y-53061904D01*
X95152380Y-53785714D02*
X95190476Y-53823809D01*
X95304761Y-53861904D01*
X95380952Y-53861904D01*
X95495238Y-53823809D01*
X95571428Y-53747619D01*
X95609523Y-53671428D01*
X95647619Y-53519047D01*
X95647619Y-53404761D01*
X95609523Y-53252380D01*
X95571428Y-53176190D01*
X95495238Y-53100000D01*
X95380952Y-53061904D01*
X95304761Y-53061904D01*
X95190476Y-53100000D01*
X95152380Y-53138095D01*
X94580952Y-53061904D02*
X94580952Y-53633333D01*
X94619047Y-53747619D01*
X94695238Y-53823809D01*
X94809523Y-53861904D01*
X94885714Y-53861904D01*
X93819047Y-53861904D02*
X94200000Y-53861904D01*
X94200000Y-53061904D01*
X93095238Y-53785714D02*
X93133333Y-53823809D01*
X93247619Y-53861904D01*
X93323809Y-53861904D01*
X93438095Y-53823809D01*
X93514285Y-53747619D01*
X93552380Y-53671428D01*
X93590476Y-53519047D01*
X93590476Y-53404761D01*
X93552380Y-53252380D01*
X93514285Y-53176190D01*
X93438095Y-53100000D01*
X93323809Y-53061904D01*
X93247619Y-53061904D01*
X93133333Y-53100000D01*
X93095238Y-53138095D01*
X92523809Y-53061904D02*
X92523809Y-53633333D01*
X92561904Y-53747619D01*
X92638095Y-53823809D01*
X92752380Y-53861904D01*
X92828571Y-53861904D01*
X91761904Y-53861904D02*
X92142857Y-53861904D01*
X92142857Y-53061904D01*
X91038095Y-53785714D02*
X91076190Y-53823809D01*
X91190476Y-53861904D01*
X91266666Y-53861904D01*
X91380952Y-53823809D01*
X91457142Y-53747619D01*
X91495238Y-53671428D01*
X91533333Y-53519047D01*
X91533333Y-53404761D01*
X91495238Y-53252380D01*
X91457142Y-53176190D01*
X91380952Y-53100000D01*
X91266666Y-53061904D01*
X91190476Y-53061904D01*
X91076190Y-53100000D01*
X91038095Y-53138095D01*
X90666666Y-42571428D02*
X89904761Y-42571428D01*
X90285714Y-42952380D02*
X90285714Y-42190476D01*
X88761904Y-41952380D02*
X88142857Y-41952380D01*
X88476190Y-42333333D01*
X88333333Y-42333333D01*
X88238095Y-42380952D01*
X88190476Y-42428571D01*
X88142857Y-42523809D01*
X88142857Y-42761904D01*
X88190476Y-42857142D01*
X88238095Y-42904761D01*
X88333333Y-42952380D01*
X88619047Y-42952380D01*
X88714285Y-42904761D01*
X88761904Y-42857142D01*
X87857142Y-41952380D02*
X87523809Y-42952380D01*
X87190476Y-41952380D01*
X86095238Y-42571428D02*
X85333333Y-42571428D01*
X48047619Y-42571428D02*
X47285714Y-42571428D01*
X47666666Y-42952380D02*
X47666666Y-42190476D01*
X46190476Y-41952380D02*
X45857142Y-42952380D01*
X45523809Y-41952380D01*
X45190476Y-42952380D02*
X45190476Y-41952380D01*
X44952380Y-41952380D01*
X44809523Y-42000000D01*
X44714285Y-42095238D01*
X44666666Y-42190476D01*
X44619047Y-42380952D01*
X44619047Y-42523809D01*
X44666666Y-42714285D01*
X44714285Y-42809523D01*
X44809523Y-42904761D01*
X44952380Y-42952380D01*
X45190476Y-42952380D01*
X44190476Y-42952380D02*
X44190476Y-42285714D01*
X44190476Y-42476190D02*
X44142857Y-42380952D01*
X44095238Y-42333333D01*
X44000000Y-42285714D01*
X43904761Y-42285714D01*
X43571428Y-42952380D02*
X43571428Y-42285714D01*
X43571428Y-41952380D02*
X43619047Y-42000000D01*
X43571428Y-42047619D01*
X43523809Y-42000000D01*
X43571428Y-41952380D01*
X43571428Y-42047619D01*
X43190476Y-42285714D02*
X42952380Y-42952380D01*
X42714285Y-42285714D01*
X41952380Y-42904761D02*
X42047619Y-42952380D01*
X42238095Y-42952380D01*
X42333333Y-42904761D01*
X42380952Y-42809523D01*
X42380952Y-42428571D01*
X42333333Y-42333333D01*
X42238095Y-42285714D01*
X42047619Y-42285714D01*
X41952380Y-42333333D01*
X41904761Y-42428571D01*
X41904761Y-42523809D01*
X42380952Y-42619047D01*
X40714285Y-42571428D02*
X39952380Y-42571428D01*
%LPC*%
D13*
X78620000Y-51000000D03*
X76080000Y-51000000D03*
X73540000Y-51000000D03*
D14*
X71000000Y-51000000D03*
D13*
X45540000Y-67500000D03*
D14*
X43000000Y-67500000D03*
D13*
X58000000Y-67500000D03*
X55460000Y-67500000D03*
D14*
X52920000Y-67500000D03*
D13*
X31000000Y-61040000D03*
D14*
X31000000Y-58500000D03*
D13*
X30995000Y-53755000D03*
D14*
X30995000Y-51215000D03*
D13*
X64000000Y-60080000D03*
X64000000Y-57540000D03*
D14*
X64000000Y-55000000D03*
D13*
X76700000Y-67500000D03*
X74160000Y-67500000D03*
X71620000Y-67500000D03*
X69080000Y-67500000D03*
X66540000Y-67500000D03*
D14*
X64000000Y-67500000D03*
X115874300Y-48671400D03*
D13*
X115874300Y-51211400D03*
X115874300Y-53751400D03*
X115874300Y-56291400D03*
X115874300Y-58831400D03*
X115874300Y-61371400D03*
D15*
X116000000Y-66000000D03*
X29000000Y-66000000D03*
X29000000Y-44000000D03*
X116000000Y-44000000D03*
D16*
X104000000Y-67500000D03*
X104000000Y-63000000D03*
X110500000Y-67500000D03*
X110500000Y-63000000D03*
D17*
X46000000Y-45000000D03*
D18*
X42500000Y-45000000D03*
D17*
X90000000Y-45000000D03*
D18*
X86500000Y-45000000D03*
D17*
X66000000Y-45000000D03*
D18*
X62500000Y-45000000D03*
D19*
X101000000Y-48000000D03*
X103500000Y-48000000D03*
X106000000Y-48000000D03*
G36*
G01*
X109350000Y-47275000D02*
X109350000Y-48725000D01*
G75*
G02*
X109100000Y-48975000I-250000J0D01*
G01*
X107900000Y-48975000D01*
G75*
G02*
X107650000Y-48725000I0J250000D01*
G01*
X107650000Y-47275000D01*
G75*
G02*
X107900000Y-47025000I250000J0D01*
G01*
X109100000Y-47025000D01*
G75*
G02*
X109350000Y-47275000I0J-250000D01*
G01*
G37*
M02*
