G04 #@! TF.GenerationSoftware,KiCad,Pcbnew,5.1.10-88a1d61d58~90~ubuntu21.04.1*
G04 #@! TF.CreationDate,2021-09-07T14:48:18+02:00*
G04 #@! TF.ProjectId,DccDecoder,44636344-6563-46f6-9465-722e6b696361,rev?*
G04 #@! TF.SameCoordinates,Original*
G04 #@! TF.FileFunction,Legend,Top*
G04 #@! TF.FilePolarity,Positive*
%FSLAX46Y46*%
G04 Gerber Fmt 4.6, Leading zero omitted, Abs format (unit mm)*
G04 Created by KiCad (PCBNEW 5.1.10-88a1d61d58~90~ubuntu21.04.1) date 2021-09-07 14:48:18*
%MOMM*%
%LPD*%
G01*
G04 APERTURE LIST*
%ADD10C,0.150000*%
%ADD11C,0.120000*%
%ADD12R,0.900000X0.800000*%
%ADD13C,0.100000*%
%ADD14O,1.700000X1.700000*%
%ADD15R,1.700000X1.700000*%
%ADD16R,0.800000X0.900000*%
%ADD17C,4.700000*%
%ADD18R,2.000000X2.400000*%
%ADD19C,2.000000*%
%ADD20R,0.740000X2.400000*%
%ADD21R,2.400000X2.400000*%
%ADD22C,2.400000*%
%ADD23O,1.700000X1.950000*%
G04 APERTURE END LIST*
D10*
X61357142Y-55592976D02*
X61404761Y-55640595D01*
X61452380Y-55783452D01*
X61452380Y-55878690D01*
X61404761Y-56021547D01*
X61309523Y-56116785D01*
X61214285Y-56164404D01*
X61023809Y-56212023D01*
X60880952Y-56212023D01*
X60690476Y-56164404D01*
X60595238Y-56116785D01*
X60500000Y-56021547D01*
X60452380Y-55878690D01*
X60452380Y-55783452D01*
X60500000Y-55640595D01*
X60547619Y-55592976D01*
X61452380Y-54688214D02*
X61452380Y-55164404D01*
X60452380Y-55164404D01*
X61452380Y-54354880D02*
X60452380Y-54354880D01*
X61452380Y-53783452D02*
X60880952Y-54212023D01*
X60452380Y-53783452D02*
X61023809Y-54354880D01*
X71754761Y-56414404D02*
X70754761Y-56414404D01*
X70754761Y-56176309D01*
X70802381Y-56033452D01*
X70897619Y-55938214D01*
X70992857Y-55890595D01*
X71183333Y-55842976D01*
X71326190Y-55842976D01*
X71516666Y-55890595D01*
X71611904Y-55938214D01*
X71707142Y-56033452D01*
X71754761Y-56176309D01*
X71754761Y-56414404D01*
X70754761Y-55223928D02*
X70754761Y-55033452D01*
X70802381Y-54938214D01*
X70897619Y-54842976D01*
X71088095Y-54795357D01*
X71421428Y-54795357D01*
X71611904Y-54842976D01*
X71707142Y-54938214D01*
X71754761Y-55033452D01*
X71754761Y-55223928D01*
X71707142Y-55319166D01*
X71611904Y-55414404D01*
X71421428Y-55462023D01*
X71088095Y-55462023D01*
X70897619Y-55414404D01*
X70802381Y-55319166D01*
X70754761Y-55223928D01*
X68921428Y-55842976D02*
X68445238Y-56176309D01*
X68921428Y-56414404D02*
X67921428Y-56414404D01*
X67921428Y-56033452D01*
X67969048Y-55938214D01*
X68016667Y-55890595D01*
X68111905Y-55842976D01*
X68254762Y-55842976D01*
X68350000Y-55890595D01*
X68397619Y-55938214D01*
X68445238Y-56033452D01*
X68445238Y-56414404D01*
X68873809Y-55462023D02*
X68921428Y-55366785D01*
X68921428Y-55176309D01*
X68873809Y-55081071D01*
X68778571Y-55033452D01*
X68730952Y-55033452D01*
X68635714Y-55081071D01*
X68588095Y-55176309D01*
X68588095Y-55319166D01*
X68540476Y-55414404D01*
X68445238Y-55462023D01*
X68397619Y-55462023D01*
X68302381Y-55414404D01*
X68254762Y-55319166D01*
X68254762Y-55176309D01*
X68302381Y-55081071D01*
X68254762Y-54747738D02*
X68254762Y-54366785D01*
X67921428Y-54604880D02*
X68778571Y-54604880D01*
X68873809Y-54557261D01*
X68921428Y-54462023D01*
X68921428Y-54366785D01*
X66702380Y-56164404D02*
X65702380Y-56164404D01*
X65702380Y-55926309D01*
X65750000Y-55783452D01*
X65845238Y-55688214D01*
X65940476Y-55640595D01*
X66130952Y-55592976D01*
X66273809Y-55592976D01*
X66464285Y-55640595D01*
X66559523Y-55688214D01*
X66654761Y-55783452D01*
X66702380Y-55926309D01*
X66702380Y-56164404D01*
X66702380Y-55164404D02*
X65702380Y-55164404D01*
X65702380Y-54497738D02*
X65702380Y-54307261D01*
X65750000Y-54212023D01*
X65845238Y-54116785D01*
X66035714Y-54069166D01*
X66369047Y-54069166D01*
X66559523Y-54116785D01*
X66654761Y-54212023D01*
X66702380Y-54307261D01*
X66702380Y-54497738D01*
X66654761Y-54592976D01*
X66559523Y-54688214D01*
X66369047Y-54735833D01*
X66035714Y-54735833D01*
X65845238Y-54688214D01*
X65750000Y-54592976D01*
X65702380Y-54497738D01*
X63250000Y-55640595D02*
X63202380Y-55735833D01*
X63202380Y-55878690D01*
X63250000Y-56021547D01*
X63345238Y-56116785D01*
X63440476Y-56164404D01*
X63630952Y-56212023D01*
X63773809Y-56212023D01*
X63964285Y-56164404D01*
X64059523Y-56116785D01*
X64154761Y-56021547D01*
X64202380Y-55878690D01*
X64202380Y-55783452D01*
X64154761Y-55640595D01*
X64107142Y-55592976D01*
X63773809Y-55592976D01*
X63773809Y-55783452D01*
X63535714Y-55164404D02*
X64202380Y-55164404D01*
X63630952Y-55164404D02*
X63583333Y-55116785D01*
X63535714Y-55021547D01*
X63535714Y-54878690D01*
X63583333Y-54783452D01*
X63678571Y-54735833D01*
X64202380Y-54735833D01*
X64202380Y-53831071D02*
X63202380Y-53831071D01*
X64154761Y-53831071D02*
X64202380Y-53926309D01*
X64202380Y-54116785D01*
X64154761Y-54212023D01*
X64107142Y-54259642D01*
X64011904Y-54307261D01*
X63726190Y-54307261D01*
X63630952Y-54259642D01*
X63583333Y-54212023D01*
X63535714Y-54116785D01*
X63535714Y-53926309D01*
X63583333Y-53831071D01*
X57952380Y-56307261D02*
X58952380Y-55973928D01*
X57952380Y-55640595D01*
X58904761Y-54878690D02*
X58952380Y-54973928D01*
X58952380Y-55164404D01*
X58904761Y-55259642D01*
X58857142Y-55307261D01*
X58761904Y-55354880D01*
X58476190Y-55354880D01*
X58380952Y-55307261D01*
X58333333Y-55259642D01*
X58285714Y-55164404D01*
X58285714Y-54973928D01*
X58333333Y-54878690D01*
X58904761Y-54021547D02*
X58952380Y-54116785D01*
X58952380Y-54307261D01*
X58904761Y-54402500D01*
X58857142Y-54450119D01*
X58761904Y-54497738D01*
X58476190Y-54497738D01*
X58380952Y-54450119D01*
X58333333Y-54402500D01*
X58285714Y-54307261D01*
X58285714Y-54116785D01*
X58333333Y-54021547D01*
X53404761Y-65476190D02*
X53452380Y-65333333D01*
X53452380Y-65095238D01*
X53404761Y-65000000D01*
X53357142Y-64952380D01*
X53261904Y-64904761D01*
X53166666Y-64904761D01*
X53071428Y-64952380D01*
X53023809Y-65000000D01*
X52976190Y-65095238D01*
X52928571Y-65285714D01*
X52880952Y-65380952D01*
X52833333Y-65428571D01*
X52738095Y-65476190D01*
X52642857Y-65476190D01*
X52547619Y-65428571D01*
X52500000Y-65380952D01*
X52452380Y-65285714D01*
X52452380Y-65047619D01*
X52500000Y-64904761D01*
X53452380Y-64476190D02*
X52785714Y-64476190D01*
X52452380Y-64476190D02*
X52500000Y-64523809D01*
X52547619Y-64476190D01*
X52500000Y-64428571D01*
X52452380Y-64476190D01*
X52547619Y-64476190D01*
X52785714Y-63571428D02*
X53595238Y-63571428D01*
X53690476Y-63619047D01*
X53738095Y-63666666D01*
X53785714Y-63761904D01*
X53785714Y-63904761D01*
X53738095Y-64000000D01*
X53404761Y-63571428D02*
X53452380Y-63666666D01*
X53452380Y-63857142D01*
X53404761Y-63952380D01*
X53357142Y-64000000D01*
X53261904Y-64047619D01*
X52976190Y-64047619D01*
X52880952Y-64000000D01*
X52833333Y-63952380D01*
X52785714Y-63857142D01*
X52785714Y-63666666D01*
X52833333Y-63571428D01*
X54952380Y-64690476D02*
X54952380Y-65166666D01*
X55428571Y-65214285D01*
X55380952Y-65166666D01*
X55333333Y-65071428D01*
X55333333Y-64833333D01*
X55380952Y-64738095D01*
X55428571Y-64690476D01*
X55523809Y-64642857D01*
X55761904Y-64642857D01*
X55857142Y-64690476D01*
X55904761Y-64738095D01*
X55952380Y-64833333D01*
X55952380Y-65071428D01*
X55904761Y-65166666D01*
X55857142Y-65214285D01*
X54952380Y-64357142D02*
X55952380Y-64023809D01*
X54952380Y-63690476D01*
X57500000Y-65261904D02*
X57452380Y-65357142D01*
X57452380Y-65500000D01*
X57500000Y-65642857D01*
X57595238Y-65738095D01*
X57690476Y-65785714D01*
X57880952Y-65833333D01*
X58023809Y-65833333D01*
X58214285Y-65785714D01*
X58309523Y-65738095D01*
X58404761Y-65642857D01*
X58452380Y-65500000D01*
X58452380Y-65404761D01*
X58404761Y-65261904D01*
X58357142Y-65214285D01*
X58023809Y-65214285D01*
X58023809Y-65404761D01*
X58452380Y-64785714D02*
X57452380Y-64785714D01*
X58452380Y-64214285D01*
X57452380Y-64214285D01*
X58452380Y-63738095D02*
X57452380Y-63738095D01*
X57452380Y-63500000D01*
X57500000Y-63357142D01*
X57595238Y-63261904D01*
X57690476Y-63214285D01*
X57880952Y-63166666D01*
X58023809Y-63166666D01*
X58214285Y-63214285D01*
X58309523Y-63261904D01*
X58404761Y-63357142D01*
X58452380Y-63500000D01*
X58452380Y-63738095D01*
X33119047Y-61571428D02*
X33880952Y-61571428D01*
X33119047Y-54071428D02*
X33880952Y-54071428D01*
X33119047Y-58571428D02*
X33880952Y-58571428D01*
X33500000Y-58952380D02*
X33500000Y-58190476D01*
X33119047Y-51071428D02*
X33880952Y-51071428D01*
X33500000Y-51452380D02*
X33500000Y-50690476D01*
X27047619Y-60357142D02*
X27000000Y-60404761D01*
X26857142Y-60452380D01*
X26761904Y-60452380D01*
X26619047Y-60404761D01*
X26523809Y-60309523D01*
X26476190Y-60214285D01*
X26428571Y-60023809D01*
X26428571Y-59880952D01*
X26476190Y-59690476D01*
X26523809Y-59595238D01*
X26619047Y-59500000D01*
X26761904Y-59452380D01*
X26857142Y-59452380D01*
X27000000Y-59500000D01*
X27047619Y-59547619D01*
X27619047Y-60452380D02*
X27523809Y-60404761D01*
X27476190Y-60309523D01*
X27476190Y-59452380D01*
X26261904Y-51952380D02*
X26833333Y-51952380D01*
X26547619Y-52952380D02*
X26547619Y-51952380D01*
X27166666Y-52952380D02*
X27166666Y-51952380D01*
X27595238Y-52952380D02*
X27595238Y-52428571D01*
X27547619Y-52333333D01*
X27452380Y-52285714D01*
X27309523Y-52285714D01*
X27214285Y-52333333D01*
X27166666Y-52380952D01*
X106004761Y-56690476D02*
X106052380Y-56547619D01*
X106052380Y-56309523D01*
X106004761Y-56214285D01*
X105957142Y-56166666D01*
X105861904Y-56119047D01*
X105766666Y-56119047D01*
X105671428Y-56166666D01*
X105623809Y-56214285D01*
X105576190Y-56309523D01*
X105528571Y-56500000D01*
X105480952Y-56595238D01*
X105433333Y-56642857D01*
X105338095Y-56690476D01*
X105242857Y-56690476D01*
X105147619Y-56642857D01*
X105100000Y-56595238D01*
X105052380Y-56500000D01*
X105052380Y-56261904D01*
X105100000Y-56119047D01*
X105957142Y-55119047D02*
X106004761Y-55166666D01*
X106052380Y-55309523D01*
X106052380Y-55404761D01*
X106004761Y-55547619D01*
X105909523Y-55642857D01*
X105814285Y-55690476D01*
X105623809Y-55738095D01*
X105480952Y-55738095D01*
X105290476Y-55690476D01*
X105195238Y-55642857D01*
X105100000Y-55547619D01*
X105052380Y-55404761D01*
X105052380Y-55309523D01*
X105100000Y-55166666D01*
X105147619Y-55119047D01*
X106052380Y-54214285D02*
X106052380Y-54690476D01*
X105052380Y-54690476D01*
X106750000Y-56261904D02*
X106702380Y-56357142D01*
X106702380Y-56500000D01*
X106750000Y-56642857D01*
X106845238Y-56738095D01*
X106940476Y-56785714D01*
X107130952Y-56833333D01*
X107273809Y-56833333D01*
X107464285Y-56785714D01*
X107559523Y-56738095D01*
X107654761Y-56642857D01*
X107702380Y-56500000D01*
X107702380Y-56404761D01*
X107654761Y-56261904D01*
X107607142Y-56214285D01*
X107273809Y-56214285D01*
X107273809Y-56404761D01*
X107702380Y-55785714D02*
X106702380Y-55785714D01*
X107702380Y-55214285D01*
X106702380Y-55214285D01*
X107702380Y-54738095D02*
X106702380Y-54738095D01*
X106702380Y-54500000D01*
X106750000Y-54357142D01*
X106845238Y-54261904D01*
X106940476Y-54214285D01*
X107130952Y-54166666D01*
X107273809Y-54166666D01*
X107464285Y-54214285D01*
X107559523Y-54261904D01*
X107654761Y-54357142D01*
X107702380Y-54500000D01*
X107702380Y-54738095D01*
X109304761Y-56714285D02*
X109352380Y-56571428D01*
X109352380Y-56333333D01*
X109304761Y-56238095D01*
X109257142Y-56190476D01*
X109161904Y-56142857D01*
X109066666Y-56142857D01*
X108971428Y-56190476D01*
X108923809Y-56238095D01*
X108876190Y-56333333D01*
X108828571Y-56523809D01*
X108780952Y-56619047D01*
X108733333Y-56666666D01*
X108638095Y-56714285D01*
X108542857Y-56714285D01*
X108447619Y-56666666D01*
X108400000Y-56619047D01*
X108352380Y-56523809D01*
X108352380Y-56285714D01*
X108400000Y-56142857D01*
X109352380Y-55714285D02*
X108352380Y-55714285D01*
X108352380Y-55476190D01*
X108400000Y-55333333D01*
X108495238Y-55238095D01*
X108590476Y-55190476D01*
X108780952Y-55142857D01*
X108923809Y-55142857D01*
X109114285Y-55190476D01*
X109209523Y-55238095D01*
X109304761Y-55333333D01*
X109352380Y-55476190D01*
X109352380Y-55714285D01*
X109066666Y-54761904D02*
X109066666Y-54285714D01*
X109352380Y-54857142D02*
X108352380Y-54523809D01*
X109352380Y-54190476D01*
X112833333Y-58785714D02*
X113214285Y-58785714D01*
X112976190Y-59452380D02*
X112976190Y-58595238D01*
X113023809Y-58500000D01*
X113119047Y-58452380D01*
X113214285Y-58452380D01*
X114119047Y-59452380D02*
X113785714Y-58976190D01*
X113547619Y-59452380D02*
X113547619Y-58452380D01*
X113928571Y-58452380D01*
X114023809Y-58500000D01*
X114071428Y-58547619D01*
X114119047Y-58642857D01*
X114119047Y-58785714D01*
X114071428Y-58880952D01*
X114023809Y-58928571D01*
X113928571Y-58976190D01*
X113547619Y-58976190D01*
X114452380Y-58452380D02*
X115119047Y-59452380D01*
X115119047Y-58452380D02*
X114452380Y-59452380D01*
X112952380Y-56285714D02*
X113333333Y-56285714D01*
X113095238Y-56952380D02*
X113095238Y-56095238D01*
X113142857Y-56000000D01*
X113238095Y-55952380D01*
X113333333Y-55952380D01*
X113523809Y-55952380D02*
X114095238Y-55952380D01*
X113809523Y-56952380D02*
X113809523Y-55952380D01*
X114333333Y-55952380D02*
X115000000Y-56952380D01*
X115000000Y-55952380D02*
X114333333Y-56952380D01*
X112523809Y-53452380D02*
X113142857Y-53452380D01*
X112809523Y-53833333D01*
X112952380Y-53833333D01*
X113047619Y-53880952D01*
X113095238Y-53928571D01*
X113142857Y-54023809D01*
X113142857Y-54261904D01*
X113095238Y-54357142D01*
X113047619Y-54404761D01*
X112952380Y-54452380D01*
X112666666Y-54452380D01*
X112571428Y-54404761D01*
X112523809Y-54357142D01*
X113571428Y-54357142D02*
X113619047Y-54404761D01*
X113571428Y-54452380D01*
X113523809Y-54404761D01*
X113571428Y-54357142D01*
X113571428Y-54452380D01*
X113952380Y-53452380D02*
X114571428Y-53452380D01*
X114238095Y-53833333D01*
X114380952Y-53833333D01*
X114476190Y-53880952D01*
X114523809Y-53928571D01*
X114571428Y-54023809D01*
X114571428Y-54261904D01*
X114523809Y-54357142D01*
X114476190Y-54404761D01*
X114380952Y-54452380D01*
X114095238Y-54452380D01*
X114000000Y-54404761D01*
X113952380Y-54357142D01*
X114857142Y-53452380D02*
X115190476Y-54452380D01*
X115523809Y-53452380D01*
X113238095Y-48500000D02*
X113142857Y-48452380D01*
X113000000Y-48452380D01*
X112857142Y-48500000D01*
X112761904Y-48595238D01*
X112714285Y-48690476D01*
X112666666Y-48880952D01*
X112666666Y-49023809D01*
X112714285Y-49214285D01*
X112761904Y-49309523D01*
X112857142Y-49404761D01*
X113000000Y-49452380D01*
X113095238Y-49452380D01*
X113238095Y-49404761D01*
X113285714Y-49357142D01*
X113285714Y-49023809D01*
X113095238Y-49023809D01*
X113714285Y-49452380D02*
X113714285Y-48452380D01*
X114285714Y-49452380D01*
X114285714Y-48452380D01*
X114761904Y-49452380D02*
X114761904Y-48452380D01*
X115000000Y-48452380D01*
X115142857Y-48500000D01*
X115238095Y-48595238D01*
X115285714Y-48690476D01*
X115333333Y-48880952D01*
X115333333Y-49023809D01*
X115285714Y-49214285D01*
X115238095Y-49309523D01*
X115142857Y-49404761D01*
X115000000Y-49452380D01*
X114761904Y-49452380D01*
X67666666Y-49071428D02*
X68428571Y-49071428D01*
X69571428Y-48452380D02*
X70190476Y-48452380D01*
X69857142Y-48833333D01*
X70000000Y-48833333D01*
X70095238Y-48880952D01*
X70142857Y-48928571D01*
X70190476Y-49023809D01*
X70190476Y-49261904D01*
X70142857Y-49357142D01*
X70095238Y-49404761D01*
X70000000Y-49452380D01*
X69714285Y-49452380D01*
X69619047Y-49404761D01*
X69571428Y-49357142D01*
X70619047Y-49357142D02*
X70666666Y-49404761D01*
X70619047Y-49452380D01*
X70571428Y-49404761D01*
X70619047Y-49357142D01*
X70619047Y-49452380D01*
X71000000Y-48452380D02*
X71619047Y-48452380D01*
X71285714Y-48833333D01*
X71428571Y-48833333D01*
X71523809Y-48880952D01*
X71571428Y-48928571D01*
X71619047Y-49023809D01*
X71619047Y-49261904D01*
X71571428Y-49357142D01*
X71523809Y-49404761D01*
X71428571Y-49452380D01*
X71142857Y-49452380D01*
X71047619Y-49404761D01*
X71000000Y-49357142D01*
X71952380Y-48785714D02*
X72190476Y-49452380D01*
X72428571Y-48785714D01*
X73571428Y-49071428D02*
X74333333Y-49071428D01*
X73952380Y-49452380D02*
X73952380Y-48690476D01*
X43928571Y-55833333D02*
X43880952Y-55785714D01*
X43785714Y-55642857D01*
X43738095Y-55547619D01*
X43690476Y-55404761D01*
X43642857Y-55166666D01*
X43642857Y-54976190D01*
X43690476Y-54738095D01*
X43738095Y-54595238D01*
X43785714Y-54500000D01*
X43880952Y-54357142D01*
X43928571Y-54309523D01*
X44738095Y-55404761D02*
X44642857Y-55452380D01*
X44452380Y-55452380D01*
X44357142Y-55404761D01*
X44309523Y-55357142D01*
X44261904Y-55261904D01*
X44261904Y-54976190D01*
X44309523Y-54880952D01*
X44357142Y-54833333D01*
X44452380Y-54785714D01*
X44642857Y-54785714D01*
X44738095Y-54833333D01*
X45071428Y-55833333D02*
X45119047Y-55785714D01*
X45214285Y-55642857D01*
X45261904Y-55547619D01*
X45309523Y-55404761D01*
X45357142Y-55166666D01*
X45357142Y-54976190D01*
X45309523Y-54738095D01*
X45261904Y-54595238D01*
X45214285Y-54500000D01*
X45119047Y-54357142D01*
X45071428Y-54309523D01*
X45833333Y-55452380D02*
X45833333Y-54452380D01*
X46071428Y-54452380D01*
X46214285Y-54500000D01*
X46309523Y-54595238D01*
X46357142Y-54690476D01*
X46404761Y-54880952D01*
X46404761Y-55023809D01*
X46357142Y-55214285D01*
X46309523Y-55309523D01*
X46214285Y-55404761D01*
X46071428Y-55452380D01*
X45833333Y-55452380D01*
X47261904Y-55452380D02*
X47261904Y-54928571D01*
X47214285Y-54833333D01*
X47119047Y-54785714D01*
X46928571Y-54785714D01*
X46833333Y-54833333D01*
X47261904Y-55404761D02*
X47166666Y-55452380D01*
X46928571Y-55452380D01*
X46833333Y-55404761D01*
X46785714Y-55309523D01*
X46785714Y-55214285D01*
X46833333Y-55119047D01*
X46928571Y-55071428D01*
X47166666Y-55071428D01*
X47261904Y-55023809D01*
X47738095Y-54785714D02*
X47738095Y-55452380D01*
X47738095Y-54880952D02*
X47785714Y-54833333D01*
X47880952Y-54785714D01*
X48023809Y-54785714D01*
X48119047Y-54833333D01*
X48166666Y-54928571D01*
X48166666Y-55452380D01*
X48642857Y-55452380D02*
X48642857Y-54785714D01*
X48642857Y-54452380D02*
X48595238Y-54500000D01*
X48642857Y-54547619D01*
X48690476Y-54500000D01*
X48642857Y-54452380D01*
X48642857Y-54547619D01*
X49500000Y-55404761D02*
X49404761Y-55452380D01*
X49214285Y-55452380D01*
X49119047Y-55404761D01*
X49071428Y-55309523D01*
X49071428Y-54928571D01*
X49119047Y-54833333D01*
X49214285Y-54785714D01*
X49404761Y-54785714D01*
X49500000Y-54833333D01*
X49547619Y-54928571D01*
X49547619Y-55023809D01*
X49071428Y-55119047D01*
X50119047Y-55452380D02*
X50023809Y-55404761D01*
X49976190Y-55309523D01*
X49976190Y-54452380D01*
X51119047Y-54452380D02*
X51452380Y-55452380D01*
X51785714Y-54452380D01*
X52119047Y-55452380D02*
X52119047Y-54785714D01*
X52119047Y-54452380D02*
X52071428Y-54500000D01*
X52119047Y-54547619D01*
X52166666Y-54500000D01*
X52119047Y-54452380D01*
X52119047Y-54547619D01*
X52738095Y-55452380D02*
X52642857Y-55404761D01*
X52595238Y-55309523D01*
X52595238Y-54452380D01*
X53547619Y-55452380D02*
X53547619Y-54928571D01*
X53500000Y-54833333D01*
X53404761Y-54785714D01*
X53214285Y-54785714D01*
X53119047Y-54833333D01*
X53547619Y-55404761D02*
X53452380Y-55452380D01*
X53214285Y-55452380D01*
X53119047Y-55404761D01*
X53071428Y-55309523D01*
X53071428Y-55214285D01*
X53119047Y-55119047D01*
X53214285Y-55071428D01*
X53452380Y-55071428D01*
X53547619Y-55023809D01*
X53976190Y-55404761D02*
X54071428Y-55452380D01*
X54261904Y-55452380D01*
X54357142Y-55404761D01*
X54404761Y-55309523D01*
X54404761Y-55261904D01*
X54357142Y-55166666D01*
X54261904Y-55119047D01*
X54119047Y-55119047D01*
X54023809Y-55071428D01*
X53976190Y-54976190D01*
X53976190Y-54928571D01*
X54023809Y-54833333D01*
X54119047Y-54785714D01*
X54261904Y-54785714D01*
X54357142Y-54833333D01*
X47380952Y-49071428D02*
X48142857Y-49071428D01*
X49857142Y-48452380D02*
X49380952Y-48452380D01*
X49333333Y-48928571D01*
X49380952Y-48880952D01*
X49476190Y-48833333D01*
X49714285Y-48833333D01*
X49809523Y-48880952D01*
X49857142Y-48928571D01*
X49904761Y-49023809D01*
X49904761Y-49261904D01*
X49857142Y-49357142D01*
X49809523Y-49404761D01*
X49714285Y-49452380D01*
X49476190Y-49452380D01*
X49380952Y-49404761D01*
X49333333Y-49357142D01*
X50238095Y-48785714D02*
X50476190Y-49452380D01*
X50714285Y-48785714D01*
X51857142Y-49071428D02*
X52619047Y-49071428D01*
X52238095Y-49452380D02*
X52238095Y-48690476D01*
X32952380Y-49071428D02*
X33714285Y-49071428D01*
X34809523Y-48452380D02*
X35142857Y-49452380D01*
X35476190Y-48452380D01*
X35809523Y-49452380D02*
X35809523Y-48452380D01*
X36047619Y-48452380D01*
X36190476Y-48500000D01*
X36285714Y-48595238D01*
X36333333Y-48690476D01*
X36380952Y-48880952D01*
X36380952Y-49023809D01*
X36333333Y-49214285D01*
X36285714Y-49309523D01*
X36190476Y-49404761D01*
X36047619Y-49452380D01*
X35809523Y-49452380D01*
X36809523Y-49452380D02*
X36809523Y-48785714D01*
X36809523Y-48976190D02*
X36857142Y-48880952D01*
X36904761Y-48833333D01*
X37000000Y-48785714D01*
X37095238Y-48785714D01*
X37428571Y-49452380D02*
X37428571Y-48785714D01*
X37428571Y-48452380D02*
X37380952Y-48500000D01*
X37428571Y-48547619D01*
X37476190Y-48500000D01*
X37428571Y-48452380D01*
X37428571Y-48547619D01*
X37809523Y-48785714D02*
X38047619Y-49452380D01*
X38285714Y-48785714D01*
X39047619Y-49404761D02*
X38952380Y-49452380D01*
X38761904Y-49452380D01*
X38666666Y-49404761D01*
X38619047Y-49309523D01*
X38619047Y-48928571D01*
X38666666Y-48833333D01*
X38761904Y-48785714D01*
X38952380Y-48785714D01*
X39047619Y-48833333D01*
X39095238Y-48928571D01*
X39095238Y-49023809D01*
X38619047Y-49119047D01*
X40285714Y-49071428D02*
X41047619Y-49071428D01*
X40666666Y-49452380D02*
X40666666Y-48690476D01*
D11*
X47727064Y-52265000D02*
X47272936Y-52265000D01*
X47727064Y-53735000D02*
X47272936Y-53735000D01*
X65960000Y-48185000D02*
X65960000Y-45500000D01*
X64040000Y-48185000D02*
X65960000Y-48185000D01*
X64040000Y-45500000D02*
X64040000Y-48185000D01*
X77265000Y-65272936D02*
X77265000Y-65727064D01*
X78735000Y-65272936D02*
X78735000Y-65727064D01*
X69735000Y-65727064D02*
X69735000Y-65272936D01*
X68265000Y-65727064D02*
X68265000Y-65272936D01*
X76765000Y-46185436D02*
X76765000Y-46639564D01*
X78235000Y-46185436D02*
X78235000Y-46639564D01*
X77860436Y-54235000D02*
X78314564Y-54235000D01*
X77860436Y-52765000D02*
X78314564Y-52765000D01*
X77860436Y-56235000D02*
X78314564Y-56235000D01*
X77860436Y-54765000D02*
X78314564Y-54765000D01*
X48314564Y-61765000D02*
X47860436Y-61765000D01*
X48314564Y-63235000D02*
X47860436Y-63235000D01*
X36639564Y-62265000D02*
X36185436Y-62265000D01*
X36639564Y-63735000D02*
X36185436Y-63735000D01*
X47814564Y-57765000D02*
X47360436Y-57765000D01*
X47814564Y-59235000D02*
X47360436Y-59235000D01*
X35860436Y-59235000D02*
X36314564Y-59235000D01*
X35860436Y-57765000D02*
X36314564Y-57765000D01*
X35860436Y-51735000D02*
X36314564Y-51735000D01*
X35860436Y-50265000D02*
X36314564Y-50265000D01*
X100772936Y-57735000D02*
X101227064Y-57735000D01*
X100772936Y-56265000D02*
X101227064Y-56265000D01*
X100772936Y-54265000D02*
X101227064Y-54265000D01*
X100772936Y-55735000D02*
X101227064Y-55735000D01*
X100265000Y-61272936D02*
X100265000Y-61727064D01*
X101735000Y-61272936D02*
X101735000Y-61727064D01*
X78314564Y-57265000D02*
X77860436Y-57265000D01*
X78314564Y-58735000D02*
X77860436Y-58735000D01*
X64265000Y-49685436D02*
X64265000Y-50139564D01*
X65735000Y-49685436D02*
X65735000Y-50139564D01*
X60265000Y-49685436D02*
X60265000Y-50139564D01*
X61735000Y-49685436D02*
X61735000Y-50139564D01*
X56265000Y-49772936D02*
X56265000Y-50227064D01*
X57735000Y-49772936D02*
X57735000Y-50227064D01*
X96600378Y-63060000D02*
X97399622Y-63060000D01*
X96600378Y-61940000D02*
X97399622Y-61940000D01*
X78460000Y-44622500D02*
X78460000Y-41937500D01*
X76540000Y-44622500D02*
X78460000Y-44622500D01*
X76540000Y-41937500D02*
X76540000Y-44622500D01*
X61960000Y-48185000D02*
X61960000Y-45500000D01*
X60040000Y-48185000D02*
X61960000Y-48185000D01*
X60040000Y-45500000D02*
X60040000Y-48185000D01*
X57960000Y-48185000D02*
X57960000Y-45500000D01*
X56040000Y-48185000D02*
X57960000Y-48185000D01*
X56040000Y-45500000D02*
X56040000Y-48185000D01*
X95265000Y-64938748D02*
X95265000Y-65461252D01*
X96735000Y-64938748D02*
X96735000Y-65461252D01*
X97265000Y-64938748D02*
X97265000Y-65461252D01*
X98735000Y-64938748D02*
X98735000Y-65461252D01*
X96735000Y-59761252D02*
X96735000Y-59238748D01*
X95265000Y-59761252D02*
X95265000Y-59238748D01*
X93127000Y-65917252D02*
X93127000Y-65394748D01*
X91657000Y-65917252D02*
X91657000Y-65394748D01*
X83856000Y-65917252D02*
X83856000Y-65394748D01*
X82386000Y-65917252D02*
X82386000Y-65394748D01*
X98735000Y-59761252D02*
X98735000Y-59238748D01*
X97265000Y-59761252D02*
X97265000Y-59238748D01*
X100265000Y-64938748D02*
X100265000Y-65461252D01*
X101735000Y-64938748D02*
X101735000Y-65461252D01*
X94704457Y-49327010D02*
X94334990Y-48957543D01*
X93665010Y-50366457D02*
X93295543Y-49996990D01*
X82295543Y-60334990D02*
X82665010Y-60704457D01*
X83334990Y-59295543D02*
X83704457Y-59665010D01*
X85145000Y-58606000D02*
X85145000Y-59921000D01*
X84845000Y-58606000D02*
X85145000Y-58606000D01*
X84845000Y-58306000D02*
X84845000Y-58606000D01*
X84845000Y-51386000D02*
X85145000Y-51386000D01*
X84845000Y-51686000D02*
X84845000Y-51386000D01*
X92065000Y-58606000D02*
X91765000Y-58606000D01*
X92065000Y-58306000D02*
X92065000Y-58606000D01*
X92065000Y-51386000D02*
X91765000Y-51386000D01*
X92065000Y-51686000D02*
X92065000Y-51386000D01*
X72740000Y-63920000D02*
X72740000Y-64850000D01*
X72740000Y-67080000D02*
X72740000Y-66150000D01*
X72740000Y-67080000D02*
X74900000Y-67080000D01*
X72740000Y-63920000D02*
X74200000Y-63920000D01*
X63740000Y-63420000D02*
X63740000Y-64350000D01*
X63740000Y-66580000D02*
X63740000Y-65650000D01*
X63740000Y-66580000D02*
X65900000Y-66580000D01*
X63740000Y-63420000D02*
X65200000Y-63420000D01*
X62400000Y-61700000D02*
X62400000Y-62300000D01*
X60300000Y-61000000D02*
X61700000Y-61000000D01*
X59600000Y-62300000D02*
X59600000Y-61700000D01*
X61700000Y-63000000D02*
X60300000Y-63000000D01*
X62400000Y-62300000D02*
G75*
G02*
X61700000Y-63000000I-700000J0D01*
G01*
X61700000Y-61000000D02*
G75*
G02*
X62400000Y-61700000I0J-700000D01*
G01*
X59600000Y-61700000D02*
G75*
G02*
X60300000Y-61000000I700000J0D01*
G01*
X60300000Y-63000000D02*
G75*
G02*
X59600000Y-62300000I0J700000D01*
G01*
X82830000Y-40550000D02*
X80170000Y-40550000D01*
X82830000Y-48230000D02*
X82830000Y-40550000D01*
X80170000Y-48230000D02*
X80170000Y-40550000D01*
X82830000Y-48230000D02*
X80170000Y-48230000D01*
X82830000Y-49500000D02*
X82830000Y-50830000D01*
X82830000Y-50830000D02*
X81500000Y-50830000D01*
X34920000Y-67260000D02*
X35850000Y-67260000D01*
X38080000Y-67260000D02*
X37150000Y-67260000D01*
X38080000Y-67260000D02*
X38080000Y-65100000D01*
X34920000Y-67260000D02*
X34920000Y-65800000D01*
X42740000Y-61920000D02*
X42740000Y-62850000D01*
X42740000Y-65080000D02*
X42740000Y-64150000D01*
X42740000Y-65080000D02*
X44900000Y-65080000D01*
X42740000Y-61920000D02*
X44200000Y-61920000D01*
X46870000Y-68830000D02*
X46870000Y-66170000D01*
X44270000Y-68830000D02*
X46870000Y-68830000D01*
X44270000Y-66170000D02*
X46870000Y-66170000D01*
X44270000Y-68830000D02*
X44270000Y-66170000D01*
X43000000Y-68830000D02*
X41670000Y-68830000D01*
X41670000Y-68830000D02*
X41670000Y-67500000D01*
X58870000Y-68830000D02*
X58870000Y-66170000D01*
X53730000Y-68830000D02*
X58870000Y-68830000D01*
X53730000Y-66170000D02*
X58870000Y-66170000D01*
X53730000Y-68830000D02*
X53730000Y-66170000D01*
X52460000Y-68830000D02*
X51130000Y-68830000D01*
X51130000Y-68830000D02*
X51130000Y-67500000D01*
X42240000Y-56920000D02*
X42240000Y-57850000D01*
X42240000Y-60080000D02*
X42240000Y-59150000D01*
X42240000Y-60080000D02*
X44400000Y-60080000D01*
X42240000Y-56920000D02*
X43700000Y-56920000D01*
X29670000Y-62370000D02*
X32330000Y-62370000D01*
X29670000Y-59770000D02*
X29670000Y-62370000D01*
X32330000Y-59770000D02*
X32330000Y-62370000D01*
X29670000Y-59770000D02*
X32330000Y-59770000D01*
X29670000Y-58500000D02*
X29670000Y-57170000D01*
X29670000Y-57170000D02*
X31000000Y-57170000D01*
X29665000Y-55085000D02*
X32325000Y-55085000D01*
X29665000Y-52485000D02*
X29665000Y-55085000D01*
X32325000Y-52485000D02*
X32325000Y-55085000D01*
X29665000Y-52485000D02*
X32325000Y-52485000D01*
X29665000Y-51215000D02*
X29665000Y-49885000D01*
X29665000Y-49885000D02*
X30995000Y-49885000D01*
X42240000Y-50420000D02*
X42240000Y-51350000D01*
X42240000Y-53580000D02*
X42240000Y-52650000D01*
X42240000Y-53580000D02*
X44400000Y-53580000D01*
X42240000Y-50420000D02*
X43700000Y-50420000D01*
X111330000Y-57170000D02*
X111330000Y-58500000D01*
X110000000Y-57170000D02*
X111330000Y-57170000D01*
X108730000Y-57170000D02*
X108730000Y-59830000D01*
X108730000Y-59830000D02*
X103590000Y-59830000D01*
X108730000Y-57170000D02*
X103590000Y-57170000D01*
X103590000Y-57170000D02*
X103590000Y-59830000D01*
X113700000Y-60100000D02*
X114300000Y-60100000D01*
X113000000Y-62200000D02*
X113000000Y-60800000D01*
X114300000Y-62900000D02*
X113700000Y-62900000D01*
X115000000Y-60800000D02*
X115000000Y-62200000D01*
X114300000Y-60100000D02*
G75*
G02*
X115000000Y-60800000I0J-700000D01*
G01*
X113000000Y-60800000D02*
G75*
G02*
X113700000Y-60100000I700000J0D01*
G01*
X113700000Y-62900000D02*
G75*
G02*
X113000000Y-62200000I0J700000D01*
G01*
X115000000Y-62200000D02*
G75*
G02*
X114300000Y-62900000I-700000J0D01*
G01*
X118830000Y-47470000D02*
X116170000Y-47470000D01*
X118830000Y-60230000D02*
X118830000Y-47470000D01*
X116170000Y-60230000D02*
X116170000Y-47470000D01*
X118830000Y-60230000D02*
X116170000Y-60230000D01*
X118830000Y-61500000D02*
X118830000Y-62830000D01*
X118830000Y-62830000D02*
X117500000Y-62830000D01*
X72530000Y-59830000D02*
X72530000Y-57170000D01*
X59770000Y-59830000D02*
X72530000Y-59830000D01*
X59770000Y-57170000D02*
X72530000Y-57170000D01*
X59770000Y-59830000D02*
X59770000Y-57170000D01*
X58500000Y-59830000D02*
X57170000Y-59830000D01*
X57170000Y-59830000D02*
X57170000Y-58500000D01*
X90393000Y-63856000D02*
X84643000Y-63856000D01*
X84643000Y-63856000D02*
X84643000Y-67456000D01*
X84643000Y-67456000D02*
X90393000Y-67456000D01*
X105000000Y-68500000D02*
X109500000Y-68500000D01*
X103750000Y-64500000D02*
X103750000Y-66000000D01*
X109500000Y-62000000D02*
X105000000Y-62000000D01*
X110750000Y-66000000D02*
X110750000Y-64500000D01*
X85330000Y-46265000D02*
X85265000Y-46265000D01*
X85330000Y-42735000D02*
X85265000Y-42735000D01*
X91735000Y-46265000D02*
X91670000Y-46265000D01*
X91735000Y-42735000D02*
X91670000Y-42735000D01*
X91670000Y-41410000D02*
X91670000Y-42735000D01*
X85265000Y-42735000D02*
X85265000Y-46265000D01*
X91735000Y-42735000D02*
X91735000Y-46265000D01*
X41050000Y-40200000D02*
X40650000Y-40200000D01*
X41050000Y-40840000D02*
X41050000Y-40200000D01*
X36645000Y-44059000D02*
X36774000Y-43931000D01*
X34430000Y-46275000D02*
X34524000Y-46181000D01*
X36475000Y-43819000D02*
X36569000Y-43726000D01*
X34225000Y-46069000D02*
X34354000Y-45941000D01*
X33690000Y-48160000D02*
X33690000Y-40440000D01*
X40810000Y-48160000D02*
X40810000Y-40440000D01*
X40810000Y-40440000D02*
X33690000Y-40440000D01*
X40810000Y-48160000D02*
X33690000Y-48160000D01*
X40810000Y-42000000D02*
X33690000Y-42000000D01*
X40810000Y-40900000D02*
X33690000Y-40900000D01*
X37180000Y-45000000D02*
G75*
G03*
X37180000Y-45000000I-1680000J0D01*
G01*
X38109736Y-43575279D02*
G75*
G02*
X39000000Y-43320000I890264J-1424721D01*
G01*
X37574495Y-45890193D02*
G75*
G02*
X37575000Y-44109000I1425505J890193D01*
G01*
X39889894Y-46425358D02*
G75*
G02*
X38134000Y-46440000I-889894J1425358D01*
G01*
X40425358Y-44110106D02*
G75*
G02*
X40440000Y-45866000I-1425358J-889894D01*
G01*
X38971326Y-43319901D02*
G75*
G02*
X39866000Y-43560000I28674J-1680099D01*
G01*
X75050000Y-40200000D02*
X74650000Y-40200000D01*
X75050000Y-40840000D02*
X75050000Y-40200000D01*
X70645000Y-44059000D02*
X70774000Y-43931000D01*
X68430000Y-46275000D02*
X68524000Y-46181000D01*
X70475000Y-43819000D02*
X70569000Y-43726000D01*
X68225000Y-46069000D02*
X68354000Y-45941000D01*
X67690000Y-48160000D02*
X67690000Y-40440000D01*
X74810000Y-48160000D02*
X74810000Y-40440000D01*
X74810000Y-40440000D02*
X67690000Y-40440000D01*
X74810000Y-48160000D02*
X67690000Y-48160000D01*
X74810000Y-42000000D02*
X67690000Y-42000000D01*
X74810000Y-40900000D02*
X67690000Y-40900000D01*
X71180000Y-45000000D02*
G75*
G03*
X71180000Y-45000000I-1680000J0D01*
G01*
X72109736Y-43575279D02*
G75*
G02*
X73000000Y-43320000I890264J-1424721D01*
G01*
X71574495Y-45890193D02*
G75*
G02*
X71575000Y-44109000I1425505J890193D01*
G01*
X73889894Y-46425358D02*
G75*
G02*
X72134000Y-46440000I-889894J1425358D01*
G01*
X74425358Y-44110106D02*
G75*
G02*
X74440000Y-45866000I-1425358J-889894D01*
G01*
X72971326Y-43319901D02*
G75*
G02*
X73866000Y-43560000I28674J-1680099D01*
G01*
X53550000Y-40200000D02*
X53150000Y-40200000D01*
X53550000Y-40840000D02*
X53550000Y-40200000D01*
X49145000Y-44059000D02*
X49274000Y-43931000D01*
X46930000Y-46275000D02*
X47024000Y-46181000D01*
X48975000Y-43819000D02*
X49069000Y-43726000D01*
X46725000Y-46069000D02*
X46854000Y-45941000D01*
X46190000Y-48160000D02*
X46190000Y-40440000D01*
X53310000Y-48160000D02*
X53310000Y-40440000D01*
X53310000Y-40440000D02*
X46190000Y-40440000D01*
X53310000Y-48160000D02*
X46190000Y-48160000D01*
X53310000Y-42000000D02*
X46190000Y-42000000D01*
X53310000Y-40900000D02*
X46190000Y-40900000D01*
X49680000Y-45000000D02*
G75*
G03*
X49680000Y-45000000I-1680000J0D01*
G01*
X50609736Y-43575279D02*
G75*
G02*
X51500000Y-43320000I890264J-1424721D01*
G01*
X50074495Y-45890193D02*
G75*
G02*
X50075000Y-44109000I1425505J890193D01*
G01*
X52389894Y-46425358D02*
G75*
G02*
X50634000Y-46440000I-889894J1425358D01*
G01*
X52925358Y-44110106D02*
G75*
G02*
X52940000Y-45866000I-1425358J-889894D01*
G01*
X51471326Y-43319901D02*
G75*
G02*
X52366000Y-43560000I28674J-1680099D01*
G01*
X108200000Y-50100000D02*
X108500000Y-49500000D01*
X108800000Y-50100000D02*
X108200000Y-50100000D01*
X108500000Y-49500000D02*
X108800000Y-50100000D01*
X100750000Y-44800000D02*
X101250000Y-44800000D01*
X100750000Y-39300000D02*
X100750000Y-44800000D01*
X101250000Y-39300000D02*
X100750000Y-39300000D01*
X101250000Y-44800000D02*
X101250000Y-39300000D01*
X103250000Y-44800000D02*
X103750000Y-44800000D01*
X103250000Y-39300000D02*
X103250000Y-44800000D01*
X103750000Y-39300000D02*
X103250000Y-39300000D01*
X103750000Y-44800000D02*
X103750000Y-39300000D01*
X105750000Y-44800000D02*
X106250000Y-44800000D01*
X105750000Y-39300000D02*
X105750000Y-44800000D01*
X106250000Y-39300000D02*
X105750000Y-39300000D01*
X106250000Y-44800000D02*
X106250000Y-39300000D01*
X108250000Y-44800000D02*
X108750000Y-44800000D01*
X108250000Y-39300000D02*
X108250000Y-44800000D01*
X108750000Y-39300000D02*
X108250000Y-39300000D01*
X108750000Y-44800000D02*
X108750000Y-39300000D01*
X99860000Y-45910000D02*
X104750000Y-45910000D01*
X99860000Y-50410000D02*
X99860000Y-45910000D01*
X98440000Y-50410000D02*
X99860000Y-50410000D01*
X98440000Y-38690000D02*
X98440000Y-50410000D01*
X104750000Y-38690000D02*
X98440000Y-38690000D01*
X109640000Y-45910000D02*
X104750000Y-45910000D01*
X109640000Y-50410000D02*
X109640000Y-45910000D01*
X111060000Y-50410000D02*
X109640000Y-50410000D01*
X111060000Y-38690000D02*
X111060000Y-50410000D01*
X104750000Y-38690000D02*
X111060000Y-38690000D01*
X61300000Y-44400000D02*
X60700000Y-44400000D01*
X62000000Y-42300000D02*
X62000000Y-43700000D01*
X60700000Y-41600000D02*
X61300000Y-41600000D01*
X60000000Y-43700000D02*
X60000000Y-42300000D01*
X60000000Y-42300000D02*
G75*
G02*
X60700000Y-41600000I700000J0D01*
G01*
X61300000Y-41600000D02*
G75*
G02*
X62000000Y-42300000I0J-700000D01*
G01*
X62000000Y-43700000D02*
G75*
G02*
X61300000Y-44400000I-700000J0D01*
G01*
X60700000Y-44400000D02*
G75*
G02*
X60000000Y-43700000I0J700000D01*
G01*
X57300000Y-44400000D02*
X56700000Y-44400000D01*
X58000000Y-42300000D02*
X58000000Y-43700000D01*
X56700000Y-41600000D02*
X57300000Y-41600000D01*
X56000000Y-43700000D02*
X56000000Y-42300000D01*
X56000000Y-42300000D02*
G75*
G02*
X56700000Y-41600000I700000J0D01*
G01*
X57300000Y-41600000D02*
G75*
G02*
X58000000Y-42300000I0J-700000D01*
G01*
X58000000Y-43700000D02*
G75*
G02*
X57300000Y-44400000I-700000J0D01*
G01*
X56700000Y-44400000D02*
G75*
G02*
X56000000Y-43700000I0J700000D01*
G01*
X65300000Y-44400000D02*
X64700000Y-44400000D01*
X66000000Y-42300000D02*
X66000000Y-43700000D01*
X64700000Y-41600000D02*
X65300000Y-41600000D01*
X64000000Y-43700000D02*
X64000000Y-42300000D01*
X64000000Y-42300000D02*
G75*
G02*
X64700000Y-41600000I700000J0D01*
G01*
X65300000Y-41600000D02*
G75*
G02*
X66000000Y-42300000I0J-700000D01*
G01*
X66000000Y-43700000D02*
G75*
G02*
X65300000Y-44400000I-700000J0D01*
G01*
X64700000Y-44400000D02*
G75*
G02*
X64000000Y-43700000I0J700000D01*
G01*
D10*
X49833333Y-53452380D02*
X49500000Y-52976190D01*
X49261904Y-53452380D02*
X49261904Y-52452380D01*
X49642857Y-52452380D01*
X49738095Y-52500000D01*
X49785714Y-52547619D01*
X49833333Y-52642857D01*
X49833333Y-52785714D01*
X49785714Y-52880952D01*
X49738095Y-52928571D01*
X49642857Y-52976190D01*
X49261904Y-52976190D01*
X50404761Y-52880952D02*
X50309523Y-52833333D01*
X50261904Y-52785714D01*
X50214285Y-52690476D01*
X50214285Y-52642857D01*
X50261904Y-52547619D01*
X50309523Y-52500000D01*
X50404761Y-52452380D01*
X50595238Y-52452380D01*
X50690476Y-52500000D01*
X50738095Y-52547619D01*
X50785714Y-52642857D01*
X50785714Y-52690476D01*
X50738095Y-52785714D01*
X50690476Y-52833333D01*
X50595238Y-52880952D01*
X50404761Y-52880952D01*
X50309523Y-52928571D01*
X50261904Y-52976190D01*
X50214285Y-53071428D01*
X50214285Y-53261904D01*
X50261904Y-53357142D01*
X50309523Y-53404761D01*
X50404761Y-53452380D01*
X50595238Y-53452380D01*
X50690476Y-53404761D01*
X50738095Y-53357142D01*
X50785714Y-53261904D01*
X50785714Y-53071428D01*
X50738095Y-52976190D01*
X50690476Y-52928571D01*
X50595238Y-52880952D01*
X63452380Y-47238095D02*
X62452380Y-47238095D01*
X62452380Y-47000000D01*
X62500000Y-46857142D01*
X62595238Y-46761904D01*
X62690476Y-46714285D01*
X62880952Y-46666666D01*
X63023809Y-46666666D01*
X63214285Y-46714285D01*
X63309523Y-46761904D01*
X63404761Y-46857142D01*
X63452380Y-47000000D01*
X63452380Y-47238095D01*
X62452380Y-46333333D02*
X62452380Y-45714285D01*
X62833333Y-46047619D01*
X62833333Y-45904761D01*
X62880952Y-45809523D01*
X62928571Y-45761904D01*
X63023809Y-45714285D01*
X63261904Y-45714285D01*
X63357142Y-45761904D01*
X63404761Y-45809523D01*
X63452380Y-45904761D01*
X63452380Y-46190476D01*
X63404761Y-46285714D01*
X63357142Y-46333333D01*
X80102380Y-66142857D02*
X79626190Y-66476190D01*
X80102380Y-66714285D02*
X79102380Y-66714285D01*
X79102380Y-66333333D01*
X79150000Y-66238095D01*
X79197619Y-66190476D01*
X79292857Y-66142857D01*
X79435714Y-66142857D01*
X79530952Y-66190476D01*
X79578571Y-66238095D01*
X79626190Y-66333333D01*
X79626190Y-66714285D01*
X80102380Y-65190476D02*
X80102380Y-65761904D01*
X80102380Y-65476190D02*
X79102380Y-65476190D01*
X79245238Y-65571428D01*
X79340476Y-65666666D01*
X79388095Y-65761904D01*
X79530952Y-64619047D02*
X79483333Y-64714285D01*
X79435714Y-64761904D01*
X79340476Y-64809523D01*
X79292857Y-64809523D01*
X79197619Y-64761904D01*
X79150000Y-64714285D01*
X79102380Y-64619047D01*
X79102380Y-64428571D01*
X79150000Y-64333333D01*
X79197619Y-64285714D01*
X79292857Y-64238095D01*
X79340476Y-64238095D01*
X79435714Y-64285714D01*
X79483333Y-64333333D01*
X79530952Y-64428571D01*
X79530952Y-64619047D01*
X79578571Y-64714285D01*
X79626190Y-64761904D01*
X79721428Y-64809523D01*
X79911904Y-64809523D01*
X80007142Y-64761904D01*
X80054761Y-64714285D01*
X80102380Y-64619047D01*
X80102380Y-64428571D01*
X80054761Y-64333333D01*
X80007142Y-64285714D01*
X79911904Y-64238095D01*
X79721428Y-64238095D01*
X79626190Y-64285714D01*
X79578571Y-64333333D01*
X79530952Y-64428571D01*
X68357142Y-63452380D02*
X68023809Y-62976190D01*
X67785714Y-63452380D02*
X67785714Y-62452380D01*
X68166666Y-62452380D01*
X68261904Y-62500000D01*
X68309523Y-62547619D01*
X68357142Y-62642857D01*
X68357142Y-62785714D01*
X68309523Y-62880952D01*
X68261904Y-62928571D01*
X68166666Y-62976190D01*
X67785714Y-62976190D01*
X69309523Y-63452380D02*
X68738095Y-63452380D01*
X69023809Y-63452380D02*
X69023809Y-62452380D01*
X68928571Y-62595238D01*
X68833333Y-62690476D01*
X68738095Y-62738095D01*
X69642857Y-62452380D02*
X70309523Y-62452380D01*
X69880952Y-63452380D01*
X79602380Y-47055357D02*
X79126190Y-47388690D01*
X79602380Y-47626785D02*
X78602380Y-47626785D01*
X78602380Y-47245833D01*
X78650000Y-47150595D01*
X78697619Y-47102976D01*
X78792857Y-47055357D01*
X78935714Y-47055357D01*
X79030952Y-47102976D01*
X79078571Y-47150595D01*
X79126190Y-47245833D01*
X79126190Y-47626785D01*
X79602380Y-46102976D02*
X79602380Y-46674404D01*
X79602380Y-46388690D02*
X78602380Y-46388690D01*
X78745238Y-46483928D01*
X78840476Y-46579166D01*
X78888095Y-46674404D01*
X78602380Y-45245833D02*
X78602380Y-45436309D01*
X78650000Y-45531547D01*
X78697619Y-45579166D01*
X78840476Y-45674404D01*
X79030952Y-45722023D01*
X79411904Y-45722023D01*
X79507142Y-45674404D01*
X79554761Y-45626785D01*
X79602380Y-45531547D01*
X79602380Y-45341071D01*
X79554761Y-45245833D01*
X79507142Y-45198214D01*
X79411904Y-45150595D01*
X79173809Y-45150595D01*
X79078571Y-45198214D01*
X79030952Y-45245833D01*
X78983333Y-45341071D01*
X78983333Y-45531547D01*
X79030952Y-45626785D01*
X79078571Y-45674404D01*
X79173809Y-45722023D01*
X74444642Y-53952380D02*
X74111309Y-53476190D01*
X73873214Y-53952380D02*
X73873214Y-52952380D01*
X74254166Y-52952380D01*
X74349404Y-53000000D01*
X74397023Y-53047619D01*
X74444642Y-53142857D01*
X74444642Y-53285714D01*
X74397023Y-53380952D01*
X74349404Y-53428571D01*
X74254166Y-53476190D01*
X73873214Y-53476190D01*
X75397023Y-53952380D02*
X74825595Y-53952380D01*
X75111309Y-53952380D02*
X75111309Y-52952380D01*
X75016071Y-53095238D01*
X74920833Y-53190476D01*
X74825595Y-53238095D01*
X76301785Y-52952380D02*
X75825595Y-52952380D01*
X75777976Y-53428571D01*
X75825595Y-53380952D01*
X75920833Y-53333333D01*
X76158928Y-53333333D01*
X76254166Y-53380952D01*
X76301785Y-53428571D01*
X76349404Y-53523809D01*
X76349404Y-53761904D01*
X76301785Y-53857142D01*
X76254166Y-53904761D01*
X76158928Y-53952380D01*
X75920833Y-53952380D01*
X75825595Y-53904761D01*
X75777976Y-53857142D01*
X74444642Y-55952380D02*
X74111309Y-55476190D01*
X73873214Y-55952380D02*
X73873214Y-54952380D01*
X74254166Y-54952380D01*
X74349404Y-55000000D01*
X74397023Y-55047619D01*
X74444642Y-55142857D01*
X74444642Y-55285714D01*
X74397023Y-55380952D01*
X74349404Y-55428571D01*
X74254166Y-55476190D01*
X73873214Y-55476190D01*
X75397023Y-55952380D02*
X74825595Y-55952380D01*
X75111309Y-55952380D02*
X75111309Y-54952380D01*
X75016071Y-55095238D01*
X74920833Y-55190476D01*
X74825595Y-55238095D01*
X76254166Y-55285714D02*
X76254166Y-55952380D01*
X76016071Y-54904761D02*
X75777976Y-55619047D01*
X76397023Y-55619047D01*
X47444642Y-64602380D02*
X47111309Y-64126190D01*
X46873214Y-64602380D02*
X46873214Y-63602380D01*
X47254166Y-63602380D01*
X47349404Y-63650000D01*
X47397023Y-63697619D01*
X47444642Y-63792857D01*
X47444642Y-63935714D01*
X47397023Y-64030952D01*
X47349404Y-64078571D01*
X47254166Y-64126190D01*
X46873214Y-64126190D01*
X48397023Y-64602380D02*
X47825595Y-64602380D01*
X48111309Y-64602380D02*
X48111309Y-63602380D01*
X48016071Y-63745238D01*
X47920833Y-63840476D01*
X47825595Y-63888095D01*
X48730357Y-63602380D02*
X49349404Y-63602380D01*
X49016071Y-63983333D01*
X49158928Y-63983333D01*
X49254166Y-64030952D01*
X49301785Y-64078571D01*
X49349404Y-64173809D01*
X49349404Y-64411904D01*
X49301785Y-64507142D01*
X49254166Y-64554761D01*
X49158928Y-64602380D01*
X48873214Y-64602380D01*
X48777976Y-64554761D01*
X48730357Y-64507142D01*
X35769642Y-61952380D02*
X35436309Y-61476190D01*
X35198214Y-61952380D02*
X35198214Y-60952380D01*
X35579166Y-60952380D01*
X35674404Y-61000000D01*
X35722023Y-61047619D01*
X35769642Y-61142857D01*
X35769642Y-61285714D01*
X35722023Y-61380952D01*
X35674404Y-61428571D01*
X35579166Y-61476190D01*
X35198214Y-61476190D01*
X36722023Y-61952380D02*
X36150595Y-61952380D01*
X36436309Y-61952380D02*
X36436309Y-60952380D01*
X36341071Y-61095238D01*
X36245833Y-61190476D01*
X36150595Y-61238095D01*
X37102976Y-61047619D02*
X37150595Y-61000000D01*
X37245833Y-60952380D01*
X37483928Y-60952380D01*
X37579166Y-61000000D01*
X37626785Y-61047619D01*
X37674404Y-61142857D01*
X37674404Y-61238095D01*
X37626785Y-61380952D01*
X37055357Y-61952380D01*
X37674404Y-61952380D01*
X50357142Y-58952380D02*
X50023809Y-58476190D01*
X49785714Y-58952380D02*
X49785714Y-57952380D01*
X50166666Y-57952380D01*
X50261904Y-58000000D01*
X50309523Y-58047619D01*
X50357142Y-58142857D01*
X50357142Y-58285714D01*
X50309523Y-58380952D01*
X50261904Y-58428571D01*
X50166666Y-58476190D01*
X49785714Y-58476190D01*
X51309523Y-58952380D02*
X50738095Y-58952380D01*
X51023809Y-58952380D02*
X51023809Y-57952380D01*
X50928571Y-58095238D01*
X50833333Y-58190476D01*
X50738095Y-58238095D01*
X52261904Y-58952380D02*
X51690476Y-58952380D01*
X51976190Y-58952380D02*
X51976190Y-57952380D01*
X51880952Y-58095238D01*
X51785714Y-58190476D01*
X51690476Y-58238095D01*
X35444642Y-57302380D02*
X35111309Y-56826190D01*
X34873214Y-57302380D02*
X34873214Y-56302380D01*
X35254166Y-56302380D01*
X35349404Y-56350000D01*
X35397023Y-56397619D01*
X35444642Y-56492857D01*
X35444642Y-56635714D01*
X35397023Y-56730952D01*
X35349404Y-56778571D01*
X35254166Y-56826190D01*
X34873214Y-56826190D01*
X36397023Y-57302380D02*
X35825595Y-57302380D01*
X36111309Y-57302380D02*
X36111309Y-56302380D01*
X36016071Y-56445238D01*
X35920833Y-56540476D01*
X35825595Y-56588095D01*
X37016071Y-56302380D02*
X37111309Y-56302380D01*
X37206547Y-56350000D01*
X37254166Y-56397619D01*
X37301785Y-56492857D01*
X37349404Y-56683333D01*
X37349404Y-56921428D01*
X37301785Y-57111904D01*
X37254166Y-57207142D01*
X37206547Y-57254761D01*
X37111309Y-57302380D01*
X37016071Y-57302380D01*
X36920833Y-57254761D01*
X36873214Y-57207142D01*
X36825595Y-57111904D01*
X36777976Y-56921428D01*
X36777976Y-56683333D01*
X36825595Y-56492857D01*
X36873214Y-56397619D01*
X36920833Y-56350000D01*
X37016071Y-56302380D01*
X35833333Y-53452380D02*
X35500000Y-52976190D01*
X35261904Y-53452380D02*
X35261904Y-52452380D01*
X35642857Y-52452380D01*
X35738095Y-52500000D01*
X35785714Y-52547619D01*
X35833333Y-52642857D01*
X35833333Y-52785714D01*
X35785714Y-52880952D01*
X35738095Y-52928571D01*
X35642857Y-52976190D01*
X35261904Y-52976190D01*
X36309523Y-53452380D02*
X36500000Y-53452380D01*
X36595238Y-53404761D01*
X36642857Y-53357142D01*
X36738095Y-53214285D01*
X36785714Y-53023809D01*
X36785714Y-52642857D01*
X36738095Y-52547619D01*
X36690476Y-52500000D01*
X36595238Y-52452380D01*
X36404761Y-52452380D01*
X36309523Y-52500000D01*
X36261904Y-52547619D01*
X36214285Y-52642857D01*
X36214285Y-52880952D01*
X36261904Y-52976190D01*
X36309523Y-53023809D01*
X36404761Y-53071428D01*
X36595238Y-53071428D01*
X36690476Y-53023809D01*
X36738095Y-52976190D01*
X36785714Y-52880952D01*
X103833333Y-56952380D02*
X103500000Y-56476190D01*
X103261904Y-56952380D02*
X103261904Y-55952380D01*
X103642857Y-55952380D01*
X103738095Y-56000000D01*
X103785714Y-56047619D01*
X103833333Y-56142857D01*
X103833333Y-56285714D01*
X103785714Y-56380952D01*
X103738095Y-56428571D01*
X103642857Y-56476190D01*
X103261904Y-56476190D01*
X104166666Y-55952380D02*
X104833333Y-55952380D01*
X104404761Y-56952380D01*
X100833333Y-53802380D02*
X100500000Y-53326190D01*
X100261904Y-53802380D02*
X100261904Y-52802380D01*
X100642857Y-52802380D01*
X100738095Y-52850000D01*
X100785714Y-52897619D01*
X100833333Y-52992857D01*
X100833333Y-53135714D01*
X100785714Y-53230952D01*
X100738095Y-53278571D01*
X100642857Y-53326190D01*
X100261904Y-53326190D01*
X101690476Y-52802380D02*
X101500000Y-52802380D01*
X101404761Y-52850000D01*
X101357142Y-52897619D01*
X101261904Y-53040476D01*
X101214285Y-53230952D01*
X101214285Y-53611904D01*
X101261904Y-53707142D01*
X101309523Y-53754761D01*
X101404761Y-53802380D01*
X101595238Y-53802380D01*
X101690476Y-53754761D01*
X101738095Y-53707142D01*
X101785714Y-53611904D01*
X101785714Y-53373809D01*
X101738095Y-53278571D01*
X101690476Y-53230952D01*
X101595238Y-53183333D01*
X101404761Y-53183333D01*
X101309523Y-53230952D01*
X101261904Y-53278571D01*
X101214285Y-53373809D01*
X101452380Y-59166666D02*
X100976190Y-59500000D01*
X101452380Y-59738095D02*
X100452380Y-59738095D01*
X100452380Y-59357142D01*
X100500000Y-59261904D01*
X100547619Y-59214285D01*
X100642857Y-59166666D01*
X100785714Y-59166666D01*
X100880952Y-59214285D01*
X100928571Y-59261904D01*
X100976190Y-59357142D01*
X100976190Y-59738095D01*
X100452380Y-58261904D02*
X100452380Y-58738095D01*
X100928571Y-58785714D01*
X100880952Y-58738095D01*
X100833333Y-58642857D01*
X100833333Y-58404761D01*
X100880952Y-58309523D01*
X100928571Y-58261904D01*
X101023809Y-58214285D01*
X101261904Y-58214285D01*
X101357142Y-58261904D01*
X101404761Y-58309523D01*
X101452380Y-58404761D01*
X101452380Y-58642857D01*
X101404761Y-58738095D01*
X101357142Y-58785714D01*
X75420833Y-58452380D02*
X75087500Y-57976190D01*
X74849404Y-58452380D02*
X74849404Y-57452380D01*
X75230357Y-57452380D01*
X75325595Y-57500000D01*
X75373214Y-57547619D01*
X75420833Y-57642857D01*
X75420833Y-57785714D01*
X75373214Y-57880952D01*
X75325595Y-57928571D01*
X75230357Y-57976190D01*
X74849404Y-57976190D01*
X76277976Y-57785714D02*
X76277976Y-58452380D01*
X76039880Y-57404761D02*
X75801785Y-58119047D01*
X76420833Y-58119047D01*
X63452380Y-50079166D02*
X62976190Y-50412500D01*
X63452380Y-50650595D02*
X62452380Y-50650595D01*
X62452380Y-50269642D01*
X62500000Y-50174404D01*
X62547619Y-50126785D01*
X62642857Y-50079166D01*
X62785714Y-50079166D01*
X62880952Y-50126785D01*
X62928571Y-50174404D01*
X62976190Y-50269642D01*
X62976190Y-50650595D01*
X62452380Y-49745833D02*
X62452380Y-49126785D01*
X62833333Y-49460119D01*
X62833333Y-49317261D01*
X62880952Y-49222023D01*
X62928571Y-49174404D01*
X63023809Y-49126785D01*
X63261904Y-49126785D01*
X63357142Y-49174404D01*
X63404761Y-49222023D01*
X63452380Y-49317261D01*
X63452380Y-49602976D01*
X63404761Y-49698214D01*
X63357142Y-49745833D01*
X59452380Y-50079166D02*
X58976190Y-50412500D01*
X59452380Y-50650595D02*
X58452380Y-50650595D01*
X58452380Y-50269642D01*
X58500000Y-50174404D01*
X58547619Y-50126785D01*
X58642857Y-50079166D01*
X58785714Y-50079166D01*
X58880952Y-50126785D01*
X58928571Y-50174404D01*
X58976190Y-50269642D01*
X58976190Y-50650595D01*
X58547619Y-49698214D02*
X58500000Y-49650595D01*
X58452380Y-49555357D01*
X58452380Y-49317261D01*
X58500000Y-49222023D01*
X58547619Y-49174404D01*
X58642857Y-49126785D01*
X58738095Y-49126785D01*
X58880952Y-49174404D01*
X59452380Y-49745833D01*
X59452380Y-49126785D01*
X55452380Y-50166666D02*
X54976190Y-50500000D01*
X55452380Y-50738095D02*
X54452380Y-50738095D01*
X54452380Y-50357142D01*
X54500000Y-50261904D01*
X54547619Y-50214285D01*
X54642857Y-50166666D01*
X54785714Y-50166666D01*
X54880952Y-50214285D01*
X54928571Y-50261904D01*
X54976190Y-50357142D01*
X54976190Y-50738095D01*
X55452380Y-49214285D02*
X55452380Y-49785714D01*
X55452380Y-49500000D02*
X54452380Y-49500000D01*
X54595238Y-49595238D01*
X54690476Y-49690476D01*
X54738095Y-49785714D01*
X94333333Y-62952380D02*
X93857142Y-62952380D01*
X93857142Y-61952380D01*
X95190476Y-62952380D02*
X94619047Y-62952380D01*
X94904761Y-62952380D02*
X94904761Y-61952380D01*
X94809523Y-62095238D01*
X94714285Y-62190476D01*
X94619047Y-62238095D01*
X76302380Y-43675595D02*
X75302380Y-43675595D01*
X75302380Y-43437500D01*
X75350000Y-43294642D01*
X75445238Y-43199404D01*
X75540476Y-43151785D01*
X75730952Y-43104166D01*
X75873809Y-43104166D01*
X76064285Y-43151785D01*
X76159523Y-43199404D01*
X76254761Y-43294642D01*
X76302380Y-43437500D01*
X76302380Y-43675595D01*
X75635714Y-42247023D02*
X76302380Y-42247023D01*
X75254761Y-42485119D02*
X75969047Y-42723214D01*
X75969047Y-42104166D01*
X59452380Y-47238095D02*
X58452380Y-47238095D01*
X58452380Y-47000000D01*
X58500000Y-46857142D01*
X58595238Y-46761904D01*
X58690476Y-46714285D01*
X58880952Y-46666666D01*
X59023809Y-46666666D01*
X59214285Y-46714285D01*
X59309523Y-46761904D01*
X59404761Y-46857142D01*
X59452380Y-47000000D01*
X59452380Y-47238095D01*
X58547619Y-46285714D02*
X58500000Y-46238095D01*
X58452380Y-46142857D01*
X58452380Y-45904761D01*
X58500000Y-45809523D01*
X58547619Y-45761904D01*
X58642857Y-45714285D01*
X58738095Y-45714285D01*
X58880952Y-45761904D01*
X59452380Y-46333333D01*
X59452380Y-45714285D01*
X55452380Y-47238095D02*
X54452380Y-47238095D01*
X54452380Y-47000000D01*
X54500000Y-46857142D01*
X54595238Y-46761904D01*
X54690476Y-46714285D01*
X54880952Y-46666666D01*
X55023809Y-46666666D01*
X55214285Y-46714285D01*
X55309523Y-46761904D01*
X55404761Y-46857142D01*
X55452380Y-47000000D01*
X55452380Y-47238095D01*
X55452380Y-45714285D02*
X55452380Y-46285714D01*
X55452380Y-46000000D02*
X54452380Y-46000000D01*
X54595238Y-46095238D01*
X54690476Y-46190476D01*
X54738095Y-46285714D01*
X96282142Y-68166666D02*
X96329761Y-68214285D01*
X96377380Y-68357142D01*
X96377380Y-68452380D01*
X96329761Y-68595238D01*
X96234523Y-68690476D01*
X96139285Y-68738095D01*
X95948809Y-68785714D01*
X95805952Y-68785714D01*
X95615476Y-68738095D01*
X95520238Y-68690476D01*
X95425000Y-68595238D01*
X95377380Y-68452380D01*
X95377380Y-68357142D01*
X95425000Y-68214285D01*
X95472619Y-68166666D01*
X96377380Y-67690476D02*
X96377380Y-67500000D01*
X96329761Y-67404761D01*
X96282142Y-67357142D01*
X96139285Y-67261904D01*
X95948809Y-67214285D01*
X95567857Y-67214285D01*
X95472619Y-67261904D01*
X95425000Y-67309523D01*
X95377380Y-67404761D01*
X95377380Y-67595238D01*
X95425000Y-67690476D01*
X95472619Y-67738095D01*
X95567857Y-67785714D01*
X95805952Y-67785714D01*
X95901190Y-67738095D01*
X95948809Y-67690476D01*
X95996428Y-67595238D01*
X95996428Y-67404761D01*
X95948809Y-67309523D01*
X95901190Y-67261904D01*
X95805952Y-67214285D01*
X98257142Y-68166666D02*
X98304761Y-68214285D01*
X98352380Y-68357142D01*
X98352380Y-68452380D01*
X98304761Y-68595238D01*
X98209523Y-68690476D01*
X98114285Y-68738095D01*
X97923809Y-68785714D01*
X97780952Y-68785714D01*
X97590476Y-68738095D01*
X97495238Y-68690476D01*
X97400000Y-68595238D01*
X97352380Y-68452380D01*
X97352380Y-68357142D01*
X97400000Y-68214285D01*
X97447619Y-68166666D01*
X97780952Y-67595238D02*
X97733333Y-67690476D01*
X97685714Y-67738095D01*
X97590476Y-67785714D01*
X97542857Y-67785714D01*
X97447619Y-67738095D01*
X97400000Y-67690476D01*
X97352380Y-67595238D01*
X97352380Y-67404761D01*
X97400000Y-67309523D01*
X97447619Y-67261904D01*
X97542857Y-67214285D01*
X97590476Y-67214285D01*
X97685714Y-67261904D01*
X97733333Y-67309523D01*
X97780952Y-67404761D01*
X97780952Y-67595238D01*
X97828571Y-67690476D01*
X97876190Y-67738095D01*
X97971428Y-67785714D01*
X98161904Y-67785714D01*
X98257142Y-67738095D01*
X98304761Y-67690476D01*
X98352380Y-67595238D01*
X98352380Y-67404761D01*
X98304761Y-67309523D01*
X98257142Y-67261904D01*
X98161904Y-67214285D01*
X97971428Y-67214285D01*
X97876190Y-67261904D01*
X97828571Y-67309523D01*
X97780952Y-67404761D01*
X96357142Y-56666666D02*
X96404761Y-56714285D01*
X96452380Y-56857142D01*
X96452380Y-56952380D01*
X96404761Y-57095238D01*
X96309523Y-57190476D01*
X96214285Y-57238095D01*
X96023809Y-57285714D01*
X95880952Y-57285714D01*
X95690476Y-57238095D01*
X95595238Y-57190476D01*
X95500000Y-57095238D01*
X95452380Y-56952380D01*
X95452380Y-56857142D01*
X95500000Y-56714285D01*
X95547619Y-56666666D01*
X95452380Y-56333333D02*
X95452380Y-55666666D01*
X96452380Y-56095238D01*
X92641142Y-68666666D02*
X92688761Y-68714285D01*
X92736380Y-68857142D01*
X92736380Y-68952380D01*
X92688761Y-69095238D01*
X92593523Y-69190476D01*
X92498285Y-69238095D01*
X92307809Y-69285714D01*
X92164952Y-69285714D01*
X91974476Y-69238095D01*
X91879238Y-69190476D01*
X91784000Y-69095238D01*
X91736380Y-68952380D01*
X91736380Y-68857142D01*
X91784000Y-68714285D01*
X91831619Y-68666666D01*
X91736380Y-67809523D02*
X91736380Y-68000000D01*
X91784000Y-68095238D01*
X91831619Y-68142857D01*
X91974476Y-68238095D01*
X92164952Y-68285714D01*
X92545904Y-68285714D01*
X92641142Y-68238095D01*
X92688761Y-68190476D01*
X92736380Y-68095238D01*
X92736380Y-67904761D01*
X92688761Y-67809523D01*
X92641142Y-67761904D01*
X92545904Y-67714285D01*
X92307809Y-67714285D01*
X92212571Y-67761904D01*
X92164952Y-67809523D01*
X92117333Y-67904761D01*
X92117333Y-68095238D01*
X92164952Y-68190476D01*
X92212571Y-68238095D01*
X92307809Y-68285714D01*
X83357142Y-68666666D02*
X83404761Y-68714285D01*
X83452380Y-68857142D01*
X83452380Y-68952380D01*
X83404761Y-69095238D01*
X83309523Y-69190476D01*
X83214285Y-69238095D01*
X83023809Y-69285714D01*
X82880952Y-69285714D01*
X82690476Y-69238095D01*
X82595238Y-69190476D01*
X82500000Y-69095238D01*
X82452380Y-68952380D01*
X82452380Y-68857142D01*
X82500000Y-68714285D01*
X82547619Y-68666666D01*
X82452380Y-67761904D02*
X82452380Y-68238095D01*
X82928571Y-68285714D01*
X82880952Y-68238095D01*
X82833333Y-68142857D01*
X82833333Y-67904761D01*
X82880952Y-67809523D01*
X82928571Y-67761904D01*
X83023809Y-67714285D01*
X83261904Y-67714285D01*
X83357142Y-67761904D01*
X83404761Y-67809523D01*
X83452380Y-67904761D01*
X83452380Y-68142857D01*
X83404761Y-68238095D01*
X83357142Y-68285714D01*
X98357142Y-56666666D02*
X98404761Y-56714285D01*
X98452380Y-56857142D01*
X98452380Y-56952380D01*
X98404761Y-57095238D01*
X98309523Y-57190476D01*
X98214285Y-57238095D01*
X98023809Y-57285714D01*
X97880952Y-57285714D01*
X97690476Y-57238095D01*
X97595238Y-57190476D01*
X97500000Y-57095238D01*
X97452380Y-56952380D01*
X97452380Y-56857142D01*
X97500000Y-56714285D01*
X97547619Y-56666666D01*
X97785714Y-55809523D02*
X98452380Y-55809523D01*
X97404761Y-56047619D02*
X98119047Y-56285714D01*
X98119047Y-55666666D01*
X101357142Y-68166666D02*
X101404761Y-68214285D01*
X101452380Y-68357142D01*
X101452380Y-68452380D01*
X101404761Y-68595238D01*
X101309523Y-68690476D01*
X101214285Y-68738095D01*
X101023809Y-68785714D01*
X100880952Y-68785714D01*
X100690476Y-68738095D01*
X100595238Y-68690476D01*
X100500000Y-68595238D01*
X100452380Y-68452380D01*
X100452380Y-68357142D01*
X100500000Y-68214285D01*
X100547619Y-68166666D01*
X100452380Y-67833333D02*
X100452380Y-67214285D01*
X100833333Y-67547619D01*
X100833333Y-67404761D01*
X100880952Y-67309523D01*
X100928571Y-67261904D01*
X101023809Y-67214285D01*
X101261904Y-67214285D01*
X101357142Y-67261904D01*
X101404761Y-67309523D01*
X101452380Y-67404761D01*
X101452380Y-67690476D01*
X101404761Y-67785714D01*
X101357142Y-67833333D01*
X95129610Y-48634687D02*
X95062267Y-48634687D01*
X94927580Y-48567343D01*
X94860236Y-48500000D01*
X94792893Y-48365312D01*
X94792893Y-48230625D01*
X94826564Y-48129610D01*
X94927580Y-47961251D01*
X95028595Y-47860236D01*
X95196954Y-47759221D01*
X95297969Y-47725549D01*
X95432656Y-47725549D01*
X95567343Y-47792893D01*
X95634687Y-47860236D01*
X95702030Y-47994923D01*
X95702030Y-48062267D01*
X95971404Y-48331641D02*
X96038748Y-48331641D01*
X96139763Y-48365312D01*
X96308122Y-48533671D01*
X96341793Y-48634687D01*
X96341793Y-48702030D01*
X96308122Y-48803045D01*
X96240778Y-48870389D01*
X96106091Y-48937732D01*
X95297969Y-48937732D01*
X95735702Y-49375465D01*
X81129610Y-61634687D02*
X81062267Y-61634687D01*
X80927580Y-61567343D01*
X80860236Y-61500000D01*
X80792893Y-61365312D01*
X80792893Y-61230625D01*
X80826564Y-61129610D01*
X80927580Y-60961251D01*
X81028595Y-60860236D01*
X81196954Y-60759221D01*
X81297969Y-60725549D01*
X81432656Y-60725549D01*
X81567343Y-60792893D01*
X81634687Y-60860236D01*
X81702030Y-60994923D01*
X81702030Y-61062267D01*
X81735702Y-62375465D02*
X81331641Y-61971404D01*
X81533671Y-62173435D02*
X82240778Y-61466328D01*
X82072419Y-61500000D01*
X81937732Y-61500000D01*
X81836717Y-61466328D01*
X82027380Y-55757904D02*
X82836904Y-55757904D01*
X82932142Y-55710285D01*
X82979761Y-55662666D01*
X83027380Y-55567428D01*
X83027380Y-55376952D01*
X82979761Y-55281714D01*
X82932142Y-55234095D01*
X82836904Y-55186476D01*
X82027380Y-55186476D01*
X83027380Y-54186476D02*
X83027380Y-54757904D01*
X83027380Y-54472190D02*
X82027380Y-54472190D01*
X82170238Y-54567428D01*
X82265476Y-54662666D01*
X82313095Y-54757904D01*
X73404761Y-68547619D02*
X73309523Y-68500000D01*
X73214285Y-68404761D01*
X73071428Y-68261904D01*
X72976190Y-68214285D01*
X72880952Y-68214285D01*
X72928571Y-68452380D02*
X72833333Y-68404761D01*
X72738095Y-68309523D01*
X72690476Y-68119047D01*
X72690476Y-67785714D01*
X72738095Y-67595238D01*
X72833333Y-67500000D01*
X72928571Y-67452380D01*
X73119047Y-67452380D01*
X73214285Y-67500000D01*
X73309523Y-67595238D01*
X73357142Y-67785714D01*
X73357142Y-68119047D01*
X73309523Y-68309523D01*
X73214285Y-68404761D01*
X73119047Y-68452380D01*
X72928571Y-68452380D01*
X74214285Y-67452380D02*
X74023809Y-67452380D01*
X73928571Y-67500000D01*
X73880952Y-67547619D01*
X73785714Y-67690476D01*
X73738095Y-67880952D01*
X73738095Y-68261904D01*
X73785714Y-68357142D01*
X73833333Y-68404761D01*
X73928571Y-68452380D01*
X74119047Y-68452380D01*
X74214285Y-68404761D01*
X74261904Y-68357142D01*
X74309523Y-68261904D01*
X74309523Y-68023809D01*
X74261904Y-67928571D01*
X74214285Y-67880952D01*
X74119047Y-67833333D01*
X73928571Y-67833333D01*
X73833333Y-67880952D01*
X73785714Y-67928571D01*
X73738095Y-68023809D01*
X64404761Y-68047619D02*
X64309523Y-68000000D01*
X64214285Y-67904761D01*
X64071428Y-67761904D01*
X63976190Y-67714285D01*
X63880952Y-67714285D01*
X63928571Y-67952380D02*
X63833333Y-67904761D01*
X63738095Y-67809523D01*
X63690476Y-67619047D01*
X63690476Y-67285714D01*
X63738095Y-67095238D01*
X63833333Y-67000000D01*
X63928571Y-66952380D01*
X64119047Y-66952380D01*
X64214285Y-67000000D01*
X64309523Y-67095238D01*
X64357142Y-67285714D01*
X64357142Y-67619047D01*
X64309523Y-67809523D01*
X64214285Y-67904761D01*
X64119047Y-67952380D01*
X63928571Y-67952380D01*
X65261904Y-66952380D02*
X64785714Y-66952380D01*
X64738095Y-67428571D01*
X64785714Y-67380952D01*
X64880952Y-67333333D01*
X65119047Y-67333333D01*
X65214285Y-67380952D01*
X65261904Y-67428571D01*
X65309523Y-67523809D01*
X65309523Y-67761904D01*
X65261904Y-67857142D01*
X65214285Y-67904761D01*
X65119047Y-67952380D01*
X64880952Y-67952380D01*
X64785714Y-67904761D01*
X64738095Y-67857142D01*
X60166666Y-63252380D02*
X60166666Y-63966666D01*
X60119047Y-64109523D01*
X60023809Y-64204761D01*
X59880952Y-64252380D01*
X59785714Y-64252380D01*
X60642857Y-64252380D02*
X60642857Y-63252380D01*
X61023809Y-63252380D01*
X61119047Y-63300000D01*
X61166666Y-63347619D01*
X61214285Y-63442857D01*
X61214285Y-63585714D01*
X61166666Y-63680952D01*
X61119047Y-63728571D01*
X61023809Y-63776190D01*
X60642857Y-63776190D01*
X62119047Y-63252380D02*
X61642857Y-63252380D01*
X61595238Y-63728571D01*
X61642857Y-63680952D01*
X61738095Y-63633333D01*
X61976190Y-63633333D01*
X62071428Y-63680952D01*
X62119047Y-63728571D01*
X62166666Y-63823809D01*
X62166666Y-64061904D01*
X62119047Y-64157142D01*
X62071428Y-64204761D01*
X61976190Y-64252380D01*
X61738095Y-64252380D01*
X61642857Y-64204761D01*
X61595238Y-64157142D01*
X80690476Y-51952380D02*
X80690476Y-52666666D01*
X80642857Y-52809523D01*
X80547619Y-52904761D01*
X80404761Y-52952380D01*
X80309523Y-52952380D01*
X81690476Y-52952380D02*
X81119047Y-52952380D01*
X81404761Y-52952380D02*
X81404761Y-51952380D01*
X81309523Y-52095238D01*
X81214285Y-52190476D01*
X81119047Y-52238095D01*
X82023809Y-51952380D02*
X82690476Y-51952380D01*
X82261904Y-52952380D01*
X34547619Y-66595238D02*
X34500000Y-66690476D01*
X34404761Y-66785714D01*
X34261904Y-66928571D01*
X34214285Y-67023809D01*
X34214285Y-67119047D01*
X34452380Y-67071428D02*
X34404761Y-67166666D01*
X34309523Y-67261904D01*
X34119047Y-67309523D01*
X33785714Y-67309523D01*
X33595238Y-67261904D01*
X33500000Y-67166666D01*
X33452380Y-67071428D01*
X33452380Y-66880952D01*
X33500000Y-66785714D01*
X33595238Y-66690476D01*
X33785714Y-66642857D01*
X34119047Y-66642857D01*
X34309523Y-66690476D01*
X34404761Y-66785714D01*
X34452380Y-66880952D01*
X34452380Y-67071428D01*
X33452380Y-66309523D02*
X33452380Y-65690476D01*
X33833333Y-66023809D01*
X33833333Y-65880952D01*
X33880952Y-65785714D01*
X33928571Y-65738095D01*
X34023809Y-65690476D01*
X34261904Y-65690476D01*
X34357142Y-65738095D01*
X34404761Y-65785714D01*
X34452380Y-65880952D01*
X34452380Y-66166666D01*
X34404761Y-66261904D01*
X34357142Y-66309523D01*
X41404761Y-62047619D02*
X41309523Y-62000000D01*
X41214285Y-61904761D01*
X41071428Y-61761904D01*
X40976190Y-61714285D01*
X40880952Y-61714285D01*
X40928571Y-61952380D02*
X40833333Y-61904761D01*
X40738095Y-61809523D01*
X40690476Y-61619047D01*
X40690476Y-61285714D01*
X40738095Y-61095238D01*
X40833333Y-61000000D01*
X40928571Y-60952380D01*
X41119047Y-60952380D01*
X41214285Y-61000000D01*
X41309523Y-61095238D01*
X41357142Y-61285714D01*
X41357142Y-61619047D01*
X41309523Y-61809523D01*
X41214285Y-61904761D01*
X41119047Y-61952380D01*
X40928571Y-61952380D01*
X42214285Y-61285714D02*
X42214285Y-61952380D01*
X41976190Y-60904761D02*
X41738095Y-61619047D01*
X42357142Y-61619047D01*
X40122380Y-68309523D02*
X40836666Y-68309523D01*
X40979523Y-68357142D01*
X41074761Y-68452380D01*
X41122380Y-68595238D01*
X41122380Y-68690476D01*
X41122380Y-67309523D02*
X41122380Y-67880952D01*
X41122380Y-67595238D02*
X40122380Y-67595238D01*
X40265238Y-67690476D01*
X40360476Y-67785714D01*
X40408095Y-67880952D01*
X40122380Y-66452380D02*
X40122380Y-66642857D01*
X40170000Y-66738095D01*
X40217619Y-66785714D01*
X40360476Y-66880952D01*
X40550952Y-66928571D01*
X40931904Y-66928571D01*
X41027142Y-66880952D01*
X41074761Y-66833333D01*
X41122380Y-66738095D01*
X41122380Y-66547619D01*
X41074761Y-66452380D01*
X41027142Y-66404761D01*
X40931904Y-66357142D01*
X40693809Y-66357142D01*
X40598571Y-66404761D01*
X40550952Y-66452380D01*
X40503333Y-66547619D01*
X40503333Y-66738095D01*
X40550952Y-66833333D01*
X40598571Y-66880952D01*
X40693809Y-66928571D01*
X49582380Y-68309523D02*
X50296666Y-68309523D01*
X50439523Y-68357142D01*
X50534761Y-68452380D01*
X50582380Y-68595238D01*
X50582380Y-68690476D01*
X50582380Y-67309523D02*
X50582380Y-67880952D01*
X50582380Y-67595238D02*
X49582380Y-67595238D01*
X49725238Y-67690476D01*
X49820476Y-67785714D01*
X49868095Y-67880952D01*
X49582380Y-66404761D02*
X49582380Y-66880952D01*
X50058571Y-66928571D01*
X50010952Y-66880952D01*
X49963333Y-66785714D01*
X49963333Y-66547619D01*
X50010952Y-66452380D01*
X50058571Y-66404761D01*
X50153809Y-66357142D01*
X50391904Y-66357142D01*
X50487142Y-66404761D01*
X50534761Y-66452380D01*
X50582380Y-66547619D01*
X50582380Y-66785714D01*
X50534761Y-66880952D01*
X50487142Y-66928571D01*
X40904761Y-57047619D02*
X40809523Y-57000000D01*
X40714285Y-56904761D01*
X40571428Y-56761904D01*
X40476190Y-56714285D01*
X40380952Y-56714285D01*
X40428571Y-56952380D02*
X40333333Y-56904761D01*
X40238095Y-56809523D01*
X40190476Y-56619047D01*
X40190476Y-56285714D01*
X40238095Y-56095238D01*
X40333333Y-56000000D01*
X40428571Y-55952380D01*
X40619047Y-55952380D01*
X40714285Y-56000000D01*
X40809523Y-56095238D01*
X40857142Y-56285714D01*
X40857142Y-56619047D01*
X40809523Y-56809523D01*
X40714285Y-56904761D01*
X40619047Y-56952380D01*
X40428571Y-56952380D01*
X41238095Y-56047619D02*
X41285714Y-56000000D01*
X41380952Y-55952380D01*
X41619047Y-55952380D01*
X41714285Y-56000000D01*
X41761904Y-56047619D01*
X41809523Y-56142857D01*
X41809523Y-56238095D01*
X41761904Y-56380952D01*
X41190476Y-56952380D01*
X41809523Y-56952380D01*
X30190476Y-55622380D02*
X30190476Y-56336666D01*
X30142857Y-56479523D01*
X30047619Y-56574761D01*
X29904761Y-56622380D01*
X29809523Y-56622380D01*
X31190476Y-56622380D02*
X30619047Y-56622380D01*
X30904761Y-56622380D02*
X30904761Y-55622380D01*
X30809523Y-55765238D01*
X30714285Y-55860476D01*
X30619047Y-55908095D01*
X32047619Y-55955714D02*
X32047619Y-56622380D01*
X31809523Y-55574761D02*
X31571428Y-56289047D01*
X32190476Y-56289047D01*
X30185476Y-48337380D02*
X30185476Y-49051666D01*
X30137857Y-49194523D01*
X30042619Y-49289761D01*
X29899761Y-49337380D01*
X29804523Y-49337380D01*
X31185476Y-49337380D02*
X30614047Y-49337380D01*
X30899761Y-49337380D02*
X30899761Y-48337380D01*
X30804523Y-48480238D01*
X30709285Y-48575476D01*
X30614047Y-48623095D01*
X32137857Y-49337380D02*
X31566428Y-49337380D01*
X31852142Y-49337380D02*
X31852142Y-48337380D01*
X31756904Y-48480238D01*
X31661666Y-48575476D01*
X31566428Y-48623095D01*
X40904761Y-51047619D02*
X40809523Y-51000000D01*
X40714285Y-50904761D01*
X40571428Y-50761904D01*
X40476190Y-50714285D01*
X40380952Y-50714285D01*
X40428571Y-50952380D02*
X40333333Y-50904761D01*
X40238095Y-50809523D01*
X40190476Y-50619047D01*
X40190476Y-50285714D01*
X40238095Y-50095238D01*
X40333333Y-50000000D01*
X40428571Y-49952380D01*
X40619047Y-49952380D01*
X40714285Y-50000000D01*
X40809523Y-50095238D01*
X40857142Y-50285714D01*
X40857142Y-50619047D01*
X40809523Y-50809523D01*
X40714285Y-50904761D01*
X40619047Y-50952380D01*
X40428571Y-50952380D01*
X41809523Y-50952380D02*
X41238095Y-50952380D01*
X41523809Y-50952380D02*
X41523809Y-49952380D01*
X41428571Y-50095238D01*
X41333333Y-50190476D01*
X41238095Y-50238095D01*
X110702380Y-56583333D02*
X111416666Y-56583333D01*
X111559523Y-56630952D01*
X111654761Y-56726190D01*
X111702380Y-56869047D01*
X111702380Y-56964285D01*
X111130952Y-55964285D02*
X111083333Y-56059523D01*
X111035714Y-56107142D01*
X110940476Y-56154761D01*
X110892857Y-56154761D01*
X110797619Y-56107142D01*
X110750000Y-56059523D01*
X110702380Y-55964285D01*
X110702380Y-55773809D01*
X110750000Y-55678571D01*
X110797619Y-55630952D01*
X110892857Y-55583333D01*
X110940476Y-55583333D01*
X111035714Y-55630952D01*
X111083333Y-55678571D01*
X111130952Y-55773809D01*
X111130952Y-55964285D01*
X111178571Y-56059523D01*
X111226190Y-56107142D01*
X111321428Y-56154761D01*
X111511904Y-56154761D01*
X111607142Y-56107142D01*
X111654761Y-56059523D01*
X111702380Y-55964285D01*
X111702380Y-55773809D01*
X111654761Y-55678571D01*
X111607142Y-55630952D01*
X111511904Y-55583333D01*
X111321428Y-55583333D01*
X111226190Y-55630952D01*
X111178571Y-55678571D01*
X111130952Y-55773809D01*
X111452380Y-62333333D02*
X112166666Y-62333333D01*
X112309523Y-62380952D01*
X112404761Y-62476190D01*
X112452380Y-62619047D01*
X112452380Y-62714285D01*
X112452380Y-61857142D02*
X111452380Y-61857142D01*
X111452380Y-61476190D01*
X111500000Y-61380952D01*
X111547619Y-61333333D01*
X111642857Y-61285714D01*
X111785714Y-61285714D01*
X111880952Y-61333333D01*
X111928571Y-61380952D01*
X111976190Y-61476190D01*
X111976190Y-61857142D01*
X111785714Y-60428571D02*
X112452380Y-60428571D01*
X111404761Y-60666666D02*
X112119047Y-60904761D01*
X112119047Y-60285714D01*
X117166666Y-63282380D02*
X117166666Y-63996666D01*
X117119047Y-64139523D01*
X117023809Y-64234761D01*
X116880952Y-64282380D01*
X116785714Y-64282380D01*
X117547619Y-63282380D02*
X118214285Y-63282380D01*
X117785714Y-64282380D01*
X57698380Y-61640033D02*
X58412666Y-61640033D01*
X58555523Y-61687652D01*
X58650761Y-61782890D01*
X58698380Y-61925747D01*
X58698380Y-62020985D01*
X57698380Y-60687652D02*
X57698380Y-61163842D01*
X58174571Y-61211461D01*
X58126952Y-61163842D01*
X58079333Y-61068604D01*
X58079333Y-60830509D01*
X58126952Y-60735271D01*
X58174571Y-60687652D01*
X58269809Y-60640033D01*
X58507904Y-60640033D01*
X58603142Y-60687652D01*
X58650761Y-60735271D01*
X58698380Y-60830509D01*
X58698380Y-61068604D01*
X58650761Y-61163842D01*
X58603142Y-61211461D01*
X87216809Y-62832190D02*
X87216809Y-63308380D01*
X86883476Y-62308380D02*
X87216809Y-62832190D01*
X87550142Y-62308380D01*
X88407285Y-63308380D02*
X87835857Y-63308380D01*
X88121571Y-63308380D02*
X88121571Y-62308380D01*
X88026333Y-62451238D01*
X87931095Y-62546476D01*
X87835857Y-62594095D01*
X105916666Y-65904761D02*
X106059523Y-65952380D01*
X106297619Y-65952380D01*
X106392857Y-65904761D01*
X106440476Y-65857142D01*
X106488095Y-65761904D01*
X106488095Y-65666666D01*
X106440476Y-65571428D01*
X106392857Y-65523809D01*
X106297619Y-65476190D01*
X106107142Y-65428571D01*
X106011904Y-65380952D01*
X105964285Y-65333333D01*
X105916666Y-65238095D01*
X105916666Y-65142857D01*
X105964285Y-65047619D01*
X106011904Y-65000000D01*
X106107142Y-64952380D01*
X106345238Y-64952380D01*
X106488095Y-65000000D01*
X106821428Y-64952380D02*
X107059523Y-65952380D01*
X107250000Y-65238095D01*
X107440476Y-65952380D01*
X107678571Y-64952380D01*
X108583333Y-65952380D02*
X108011904Y-65952380D01*
X108297619Y-65952380D02*
X108297619Y-64952380D01*
X108202380Y-65095238D01*
X108107142Y-65190476D01*
X108011904Y-65238095D01*
X92187380Y-44833333D02*
X92901666Y-44833333D01*
X93044523Y-44880952D01*
X93139761Y-44976190D01*
X93187380Y-45119047D01*
X93187380Y-45214285D01*
X92187380Y-43928571D02*
X92187380Y-44119047D01*
X92235000Y-44214285D01*
X92282619Y-44261904D01*
X92425476Y-44357142D01*
X92615952Y-44404761D01*
X92996904Y-44404761D01*
X93092142Y-44357142D01*
X93139761Y-44309523D01*
X93187380Y-44214285D01*
X93187380Y-44023809D01*
X93139761Y-43928571D01*
X93092142Y-43880952D01*
X92996904Y-43833333D01*
X92758809Y-43833333D01*
X92663571Y-43880952D01*
X92615952Y-43928571D01*
X92568333Y-44023809D01*
X92568333Y-44214285D01*
X92615952Y-44309523D01*
X92663571Y-44357142D01*
X92758809Y-44404761D01*
X39166666Y-46952380D02*
X39166666Y-47666666D01*
X39119047Y-47809523D01*
X39023809Y-47904761D01*
X38880952Y-47952380D01*
X38785714Y-47952380D01*
X40166666Y-47952380D02*
X39595238Y-47952380D01*
X39880952Y-47952380D02*
X39880952Y-46952380D01*
X39785714Y-47095238D01*
X39690476Y-47190476D01*
X39595238Y-47238095D01*
X73166666Y-46952380D02*
X73166666Y-47666666D01*
X73119047Y-47809523D01*
X73023809Y-47904761D01*
X72880952Y-47952380D01*
X72785714Y-47952380D01*
X73547619Y-46952380D02*
X74166666Y-46952380D01*
X73833333Y-47333333D01*
X73976190Y-47333333D01*
X74071428Y-47380952D01*
X74119047Y-47428571D01*
X74166666Y-47523809D01*
X74166666Y-47761904D01*
X74119047Y-47857142D01*
X74071428Y-47904761D01*
X73976190Y-47952380D01*
X73690476Y-47952380D01*
X73595238Y-47904761D01*
X73547619Y-47857142D01*
X51666666Y-46952380D02*
X51666666Y-47666666D01*
X51619047Y-47809523D01*
X51523809Y-47904761D01*
X51380952Y-47952380D01*
X51285714Y-47952380D01*
X52095238Y-47047619D02*
X52142857Y-47000000D01*
X52238095Y-46952380D01*
X52476190Y-46952380D01*
X52571428Y-47000000D01*
X52619047Y-47047619D01*
X52666666Y-47142857D01*
X52666666Y-47238095D01*
X52619047Y-47380952D01*
X52047619Y-47952380D01*
X52666666Y-47952380D01*
X96766380Y-48335833D02*
X97480666Y-48335833D01*
X97623523Y-48383452D01*
X97718761Y-48478690D01*
X97766380Y-48621547D01*
X97766380Y-48716785D01*
X97099714Y-47431071D02*
X97766380Y-47431071D01*
X96718761Y-47669166D02*
X97433047Y-47907261D01*
X97433047Y-47288214D01*
X58652380Y-43833333D02*
X59366666Y-43833333D01*
X59509523Y-43880952D01*
X59604761Y-43976190D01*
X59652380Y-44119047D01*
X59652380Y-44214285D01*
X59652380Y-43357142D02*
X58652380Y-43357142D01*
X58652380Y-42976190D01*
X58700000Y-42880952D01*
X58747619Y-42833333D01*
X58842857Y-42785714D01*
X58985714Y-42785714D01*
X59080952Y-42833333D01*
X59128571Y-42880952D01*
X59176190Y-42976190D01*
X59176190Y-43357142D01*
X58652380Y-42452380D02*
X58652380Y-41833333D01*
X59033333Y-42166666D01*
X59033333Y-42023809D01*
X59080952Y-41928571D01*
X59128571Y-41880952D01*
X59223809Y-41833333D01*
X59461904Y-41833333D01*
X59557142Y-41880952D01*
X59604761Y-41928571D01*
X59652380Y-42023809D01*
X59652380Y-42309523D01*
X59604761Y-42404761D01*
X59557142Y-42452380D01*
X54652380Y-43833333D02*
X55366666Y-43833333D01*
X55509523Y-43880952D01*
X55604761Y-43976190D01*
X55652380Y-44119047D01*
X55652380Y-44214285D01*
X55652380Y-43357142D02*
X54652380Y-43357142D01*
X54652380Y-42976190D01*
X54700000Y-42880952D01*
X54747619Y-42833333D01*
X54842857Y-42785714D01*
X54985714Y-42785714D01*
X55080952Y-42833333D01*
X55128571Y-42880952D01*
X55176190Y-42976190D01*
X55176190Y-43357142D01*
X54747619Y-42404761D02*
X54700000Y-42357142D01*
X54652380Y-42261904D01*
X54652380Y-42023809D01*
X54700000Y-41928571D01*
X54747619Y-41880952D01*
X54842857Y-41833333D01*
X54938095Y-41833333D01*
X55080952Y-41880952D01*
X55652380Y-42452380D01*
X55652380Y-41833333D01*
X62652380Y-43833333D02*
X63366666Y-43833333D01*
X63509523Y-43880952D01*
X63604761Y-43976190D01*
X63652380Y-44119047D01*
X63652380Y-44214285D01*
X63652380Y-43357142D02*
X62652380Y-43357142D01*
X62652380Y-42976190D01*
X62700000Y-42880952D01*
X62747619Y-42833333D01*
X62842857Y-42785714D01*
X62985714Y-42785714D01*
X63080952Y-42833333D01*
X63128571Y-42880952D01*
X63176190Y-42976190D01*
X63176190Y-43357142D01*
X63652380Y-41833333D02*
X63652380Y-42404761D01*
X63652380Y-42119047D02*
X62652380Y-42119047D01*
X62795238Y-42214285D01*
X62890476Y-42309523D01*
X62938095Y-42404761D01*
%LPC*%
G36*
G01*
X47100000Y-52549999D02*
X47100000Y-53450001D01*
G75*
G02*
X46850001Y-53700000I-249999J0D01*
G01*
X46324999Y-53700000D01*
G75*
G02*
X46075000Y-53450001I0J249999D01*
G01*
X46075000Y-52549999D01*
G75*
G02*
X46324999Y-52300000I249999J0D01*
G01*
X46850001Y-52300000D01*
G75*
G02*
X47100000Y-52549999I0J-249999D01*
G01*
G37*
G36*
G01*
X48925000Y-52549999D02*
X48925000Y-53450001D01*
G75*
G02*
X48675001Y-53700000I-249999J0D01*
G01*
X48149999Y-53700000D01*
G75*
G02*
X47900000Y-53450001I0J249999D01*
G01*
X47900000Y-52549999D01*
G75*
G02*
X48149999Y-52300000I249999J0D01*
G01*
X48675001Y-52300000D01*
G75*
G02*
X48925000Y-52549999I0J-249999D01*
G01*
G37*
G36*
G01*
X65456250Y-46050000D02*
X64543750Y-46050000D01*
G75*
G02*
X64300000Y-45806250I0J243750D01*
G01*
X64300000Y-45318750D01*
G75*
G02*
X64543750Y-45075000I243750J0D01*
G01*
X65456250Y-45075000D01*
G75*
G02*
X65700000Y-45318750I0J-243750D01*
G01*
X65700000Y-45806250D01*
G75*
G02*
X65456250Y-46050000I-243750J0D01*
G01*
G37*
G36*
G01*
X65456250Y-47925000D02*
X64543750Y-47925000D01*
G75*
G02*
X64300000Y-47681250I0J243750D01*
G01*
X64300000Y-47193750D01*
G75*
G02*
X64543750Y-46950000I243750J0D01*
G01*
X65456250Y-46950000D01*
G75*
G02*
X65700000Y-47193750I0J-243750D01*
G01*
X65700000Y-47681250D01*
G75*
G02*
X65456250Y-47925000I-243750J0D01*
G01*
G37*
G36*
G01*
X77549999Y-65900000D02*
X78450001Y-65900000D01*
G75*
G02*
X78700000Y-66149999I0J-249999D01*
G01*
X78700000Y-66675001D01*
G75*
G02*
X78450001Y-66925000I-249999J0D01*
G01*
X77549999Y-66925000D01*
G75*
G02*
X77300000Y-66675001I0J249999D01*
G01*
X77300000Y-66149999D01*
G75*
G02*
X77549999Y-65900000I249999J0D01*
G01*
G37*
G36*
G01*
X77549999Y-64075000D02*
X78450001Y-64075000D01*
G75*
G02*
X78700000Y-64324999I0J-249999D01*
G01*
X78700000Y-64850001D01*
G75*
G02*
X78450001Y-65100000I-249999J0D01*
G01*
X77549999Y-65100000D01*
G75*
G02*
X77300000Y-64850001I0J249999D01*
G01*
X77300000Y-64324999D01*
G75*
G02*
X77549999Y-64075000I249999J0D01*
G01*
G37*
G36*
G01*
X69450001Y-65100000D02*
X68549999Y-65100000D01*
G75*
G02*
X68300000Y-64850001I0J249999D01*
G01*
X68300000Y-64324999D01*
G75*
G02*
X68549999Y-64075000I249999J0D01*
G01*
X69450001Y-64075000D01*
G75*
G02*
X69700000Y-64324999I0J-249999D01*
G01*
X69700000Y-64850001D01*
G75*
G02*
X69450001Y-65100000I-249999J0D01*
G01*
G37*
G36*
G01*
X69450001Y-66925000D02*
X68549999Y-66925000D01*
G75*
G02*
X68300000Y-66675001I0J249999D01*
G01*
X68300000Y-66149999D01*
G75*
G02*
X68549999Y-65900000I249999J0D01*
G01*
X69450001Y-65900000D01*
G75*
G02*
X69700000Y-66149999I0J-249999D01*
G01*
X69700000Y-66675001D01*
G75*
G02*
X69450001Y-66925000I-249999J0D01*
G01*
G37*
G36*
G01*
X77049999Y-46812500D02*
X77950001Y-46812500D01*
G75*
G02*
X78200000Y-47062499I0J-249999D01*
G01*
X78200000Y-47587501D01*
G75*
G02*
X77950001Y-47837500I-249999J0D01*
G01*
X77049999Y-47837500D01*
G75*
G02*
X76800000Y-47587501I0J249999D01*
G01*
X76800000Y-47062499D01*
G75*
G02*
X77049999Y-46812500I249999J0D01*
G01*
G37*
G36*
G01*
X77049999Y-44987500D02*
X77950001Y-44987500D01*
G75*
G02*
X78200000Y-45237499I0J-249999D01*
G01*
X78200000Y-45762501D01*
G75*
G02*
X77950001Y-46012500I-249999J0D01*
G01*
X77049999Y-46012500D01*
G75*
G02*
X76800000Y-45762501I0J249999D01*
G01*
X76800000Y-45237499D01*
G75*
G02*
X77049999Y-44987500I249999J0D01*
G01*
G37*
G36*
G01*
X78487500Y-53950001D02*
X78487500Y-53049999D01*
G75*
G02*
X78737499Y-52800000I249999J0D01*
G01*
X79262501Y-52800000D01*
G75*
G02*
X79512500Y-53049999I0J-249999D01*
G01*
X79512500Y-53950001D01*
G75*
G02*
X79262501Y-54200000I-249999J0D01*
G01*
X78737499Y-54200000D01*
G75*
G02*
X78487500Y-53950001I0J249999D01*
G01*
G37*
G36*
G01*
X76662500Y-53950001D02*
X76662500Y-53049999D01*
G75*
G02*
X76912499Y-52800000I249999J0D01*
G01*
X77437501Y-52800000D01*
G75*
G02*
X77687500Y-53049999I0J-249999D01*
G01*
X77687500Y-53950001D01*
G75*
G02*
X77437501Y-54200000I-249999J0D01*
G01*
X76912499Y-54200000D01*
G75*
G02*
X76662500Y-53950001I0J249999D01*
G01*
G37*
G36*
G01*
X78487500Y-55950001D02*
X78487500Y-55049999D01*
G75*
G02*
X78737499Y-54800000I249999J0D01*
G01*
X79262501Y-54800000D01*
G75*
G02*
X79512500Y-55049999I0J-249999D01*
G01*
X79512500Y-55950001D01*
G75*
G02*
X79262501Y-56200000I-249999J0D01*
G01*
X78737499Y-56200000D01*
G75*
G02*
X78487500Y-55950001I0J249999D01*
G01*
G37*
G36*
G01*
X76662500Y-55950001D02*
X76662500Y-55049999D01*
G75*
G02*
X76912499Y-54800000I249999J0D01*
G01*
X77437501Y-54800000D01*
G75*
G02*
X77687500Y-55049999I0J-249999D01*
G01*
X77687500Y-55950001D01*
G75*
G02*
X77437501Y-56200000I-249999J0D01*
G01*
X76912499Y-56200000D01*
G75*
G02*
X76662500Y-55950001I0J249999D01*
G01*
G37*
G36*
G01*
X47687500Y-62049999D02*
X47687500Y-62950001D01*
G75*
G02*
X47437501Y-63200000I-249999J0D01*
G01*
X46912499Y-63200000D01*
G75*
G02*
X46662500Y-62950001I0J249999D01*
G01*
X46662500Y-62049999D01*
G75*
G02*
X46912499Y-61800000I249999J0D01*
G01*
X47437501Y-61800000D01*
G75*
G02*
X47687500Y-62049999I0J-249999D01*
G01*
G37*
G36*
G01*
X49512500Y-62049999D02*
X49512500Y-62950001D01*
G75*
G02*
X49262501Y-63200000I-249999J0D01*
G01*
X48737499Y-63200000D01*
G75*
G02*
X48487500Y-62950001I0J249999D01*
G01*
X48487500Y-62049999D01*
G75*
G02*
X48737499Y-61800000I249999J0D01*
G01*
X49262501Y-61800000D01*
G75*
G02*
X49512500Y-62049999I0J-249999D01*
G01*
G37*
G36*
G01*
X36012500Y-62549999D02*
X36012500Y-63450001D01*
G75*
G02*
X35762501Y-63700000I-249999J0D01*
G01*
X35237499Y-63700000D01*
G75*
G02*
X34987500Y-63450001I0J249999D01*
G01*
X34987500Y-62549999D01*
G75*
G02*
X35237499Y-62300000I249999J0D01*
G01*
X35762501Y-62300000D01*
G75*
G02*
X36012500Y-62549999I0J-249999D01*
G01*
G37*
G36*
G01*
X37837500Y-62549999D02*
X37837500Y-63450001D01*
G75*
G02*
X37587501Y-63700000I-249999J0D01*
G01*
X37062499Y-63700000D01*
G75*
G02*
X36812500Y-63450001I0J249999D01*
G01*
X36812500Y-62549999D01*
G75*
G02*
X37062499Y-62300000I249999J0D01*
G01*
X37587501Y-62300000D01*
G75*
G02*
X37837500Y-62549999I0J-249999D01*
G01*
G37*
G36*
G01*
X47187500Y-58049999D02*
X47187500Y-58950001D01*
G75*
G02*
X46937501Y-59200000I-249999J0D01*
G01*
X46412499Y-59200000D01*
G75*
G02*
X46162500Y-58950001I0J249999D01*
G01*
X46162500Y-58049999D01*
G75*
G02*
X46412499Y-57800000I249999J0D01*
G01*
X46937501Y-57800000D01*
G75*
G02*
X47187500Y-58049999I0J-249999D01*
G01*
G37*
G36*
G01*
X49012500Y-58049999D02*
X49012500Y-58950001D01*
G75*
G02*
X48762501Y-59200000I-249999J0D01*
G01*
X48237499Y-59200000D01*
G75*
G02*
X47987500Y-58950001I0J249999D01*
G01*
X47987500Y-58049999D01*
G75*
G02*
X48237499Y-57800000I249999J0D01*
G01*
X48762501Y-57800000D01*
G75*
G02*
X49012500Y-58049999I0J-249999D01*
G01*
G37*
G36*
G01*
X36487500Y-58950001D02*
X36487500Y-58049999D01*
G75*
G02*
X36737499Y-57800000I249999J0D01*
G01*
X37262501Y-57800000D01*
G75*
G02*
X37512500Y-58049999I0J-249999D01*
G01*
X37512500Y-58950001D01*
G75*
G02*
X37262501Y-59200000I-249999J0D01*
G01*
X36737499Y-59200000D01*
G75*
G02*
X36487500Y-58950001I0J249999D01*
G01*
G37*
G36*
G01*
X34662500Y-58950001D02*
X34662500Y-58049999D01*
G75*
G02*
X34912499Y-57800000I249999J0D01*
G01*
X35437501Y-57800000D01*
G75*
G02*
X35687500Y-58049999I0J-249999D01*
G01*
X35687500Y-58950001D01*
G75*
G02*
X35437501Y-59200000I-249999J0D01*
G01*
X34912499Y-59200000D01*
G75*
G02*
X34662500Y-58950001I0J249999D01*
G01*
G37*
G36*
G01*
X36487500Y-51450001D02*
X36487500Y-50549999D01*
G75*
G02*
X36737499Y-50300000I249999J0D01*
G01*
X37262501Y-50300000D01*
G75*
G02*
X37512500Y-50549999I0J-249999D01*
G01*
X37512500Y-51450001D01*
G75*
G02*
X37262501Y-51700000I-249999J0D01*
G01*
X36737499Y-51700000D01*
G75*
G02*
X36487500Y-51450001I0J249999D01*
G01*
G37*
G36*
G01*
X34662500Y-51450001D02*
X34662500Y-50549999D01*
G75*
G02*
X34912499Y-50300000I249999J0D01*
G01*
X35437501Y-50300000D01*
G75*
G02*
X35687500Y-50549999I0J-249999D01*
G01*
X35687500Y-51450001D01*
G75*
G02*
X35437501Y-51700000I-249999J0D01*
G01*
X34912499Y-51700000D01*
G75*
G02*
X34662500Y-51450001I0J249999D01*
G01*
G37*
G36*
G01*
X101400000Y-57450001D02*
X101400000Y-56549999D01*
G75*
G02*
X101649999Y-56300000I249999J0D01*
G01*
X102175001Y-56300000D01*
G75*
G02*
X102425000Y-56549999I0J-249999D01*
G01*
X102425000Y-57450001D01*
G75*
G02*
X102175001Y-57700000I-249999J0D01*
G01*
X101649999Y-57700000D01*
G75*
G02*
X101400000Y-57450001I0J249999D01*
G01*
G37*
G36*
G01*
X99575000Y-57450001D02*
X99575000Y-56549999D01*
G75*
G02*
X99824999Y-56300000I249999J0D01*
G01*
X100350001Y-56300000D01*
G75*
G02*
X100600000Y-56549999I0J-249999D01*
G01*
X100600000Y-57450001D01*
G75*
G02*
X100350001Y-57700000I-249999J0D01*
G01*
X99824999Y-57700000D01*
G75*
G02*
X99575000Y-57450001I0J249999D01*
G01*
G37*
G36*
G01*
X99575000Y-55450001D02*
X99575000Y-54549999D01*
G75*
G02*
X99824999Y-54300000I249999J0D01*
G01*
X100350001Y-54300000D01*
G75*
G02*
X100600000Y-54549999I0J-249999D01*
G01*
X100600000Y-55450001D01*
G75*
G02*
X100350001Y-55700000I-249999J0D01*
G01*
X99824999Y-55700000D01*
G75*
G02*
X99575000Y-55450001I0J249999D01*
G01*
G37*
G36*
G01*
X101400000Y-55450001D02*
X101400000Y-54549999D01*
G75*
G02*
X101649999Y-54300000I249999J0D01*
G01*
X102175001Y-54300000D01*
G75*
G02*
X102425000Y-54549999I0J-249999D01*
G01*
X102425000Y-55450001D01*
G75*
G02*
X102175001Y-55700000I-249999J0D01*
G01*
X101649999Y-55700000D01*
G75*
G02*
X101400000Y-55450001I0J249999D01*
G01*
G37*
G36*
G01*
X100549999Y-61900000D02*
X101450001Y-61900000D01*
G75*
G02*
X101700000Y-62149999I0J-249999D01*
G01*
X101700000Y-62675001D01*
G75*
G02*
X101450001Y-62925000I-249999J0D01*
G01*
X100549999Y-62925000D01*
G75*
G02*
X100300000Y-62675001I0J249999D01*
G01*
X100300000Y-62149999D01*
G75*
G02*
X100549999Y-61900000I249999J0D01*
G01*
G37*
G36*
G01*
X100549999Y-60075000D02*
X101450001Y-60075000D01*
G75*
G02*
X101700000Y-60324999I0J-249999D01*
G01*
X101700000Y-60850001D01*
G75*
G02*
X101450001Y-61100000I-249999J0D01*
G01*
X100549999Y-61100000D01*
G75*
G02*
X100300000Y-60850001I0J249999D01*
G01*
X100300000Y-60324999D01*
G75*
G02*
X100549999Y-60075000I249999J0D01*
G01*
G37*
G36*
G01*
X77687500Y-57549999D02*
X77687500Y-58450001D01*
G75*
G02*
X77437501Y-58700000I-249999J0D01*
G01*
X76912499Y-58700000D01*
G75*
G02*
X76662500Y-58450001I0J249999D01*
G01*
X76662500Y-57549999D01*
G75*
G02*
X76912499Y-57300000I249999J0D01*
G01*
X77437501Y-57300000D01*
G75*
G02*
X77687500Y-57549999I0J-249999D01*
G01*
G37*
G36*
G01*
X79512500Y-57549999D02*
X79512500Y-58450001D01*
G75*
G02*
X79262501Y-58700000I-249999J0D01*
G01*
X78737499Y-58700000D01*
G75*
G02*
X78487500Y-58450001I0J249999D01*
G01*
X78487500Y-57549999D01*
G75*
G02*
X78737499Y-57300000I249999J0D01*
G01*
X79262501Y-57300000D01*
G75*
G02*
X79512500Y-57549999I0J-249999D01*
G01*
G37*
G36*
G01*
X64549999Y-50312500D02*
X65450001Y-50312500D01*
G75*
G02*
X65700000Y-50562499I0J-249999D01*
G01*
X65700000Y-51087501D01*
G75*
G02*
X65450001Y-51337500I-249999J0D01*
G01*
X64549999Y-51337500D01*
G75*
G02*
X64300000Y-51087501I0J249999D01*
G01*
X64300000Y-50562499D01*
G75*
G02*
X64549999Y-50312500I249999J0D01*
G01*
G37*
G36*
G01*
X64549999Y-48487500D02*
X65450001Y-48487500D01*
G75*
G02*
X65700000Y-48737499I0J-249999D01*
G01*
X65700000Y-49262501D01*
G75*
G02*
X65450001Y-49512500I-249999J0D01*
G01*
X64549999Y-49512500D01*
G75*
G02*
X64300000Y-49262501I0J249999D01*
G01*
X64300000Y-48737499D01*
G75*
G02*
X64549999Y-48487500I249999J0D01*
G01*
G37*
G36*
G01*
X60549999Y-50312500D02*
X61450001Y-50312500D01*
G75*
G02*
X61700000Y-50562499I0J-249999D01*
G01*
X61700000Y-51087501D01*
G75*
G02*
X61450001Y-51337500I-249999J0D01*
G01*
X60549999Y-51337500D01*
G75*
G02*
X60300000Y-51087501I0J249999D01*
G01*
X60300000Y-50562499D01*
G75*
G02*
X60549999Y-50312500I249999J0D01*
G01*
G37*
G36*
G01*
X60549999Y-48487500D02*
X61450001Y-48487500D01*
G75*
G02*
X61700000Y-48737499I0J-249999D01*
G01*
X61700000Y-49262501D01*
G75*
G02*
X61450001Y-49512500I-249999J0D01*
G01*
X60549999Y-49512500D01*
G75*
G02*
X60300000Y-49262501I0J249999D01*
G01*
X60300000Y-48737499D01*
G75*
G02*
X60549999Y-48487500I249999J0D01*
G01*
G37*
G36*
G01*
X56549999Y-50400000D02*
X57450001Y-50400000D01*
G75*
G02*
X57700000Y-50649999I0J-249999D01*
G01*
X57700000Y-51175001D01*
G75*
G02*
X57450001Y-51425000I-249999J0D01*
G01*
X56549999Y-51425000D01*
G75*
G02*
X56300000Y-51175001I0J249999D01*
G01*
X56300000Y-50649999D01*
G75*
G02*
X56549999Y-50400000I249999J0D01*
G01*
G37*
G36*
G01*
X56549999Y-48575000D02*
X57450001Y-48575000D01*
G75*
G02*
X57700000Y-48824999I0J-249999D01*
G01*
X57700000Y-49350001D01*
G75*
G02*
X57450001Y-49600000I-249999J0D01*
G01*
X56549999Y-49600000D01*
G75*
G02*
X56300000Y-49350001I0J249999D01*
G01*
X56300000Y-48824999D01*
G75*
G02*
X56549999Y-48575000I249999J0D01*
G01*
G37*
G36*
G01*
X97625000Y-62881250D02*
X97625000Y-62118750D01*
G75*
G02*
X97843750Y-61900000I218750J0D01*
G01*
X98281250Y-61900000D01*
G75*
G02*
X98500000Y-62118750I0J-218750D01*
G01*
X98500000Y-62881250D01*
G75*
G02*
X98281250Y-63100000I-218750J0D01*
G01*
X97843750Y-63100000D01*
G75*
G02*
X97625000Y-62881250I0J218750D01*
G01*
G37*
G36*
G01*
X95500000Y-62881250D02*
X95500000Y-62118750D01*
G75*
G02*
X95718750Y-61900000I218750J0D01*
G01*
X96156250Y-61900000D01*
G75*
G02*
X96375000Y-62118750I0J-218750D01*
G01*
X96375000Y-62881250D01*
G75*
G02*
X96156250Y-63100000I-218750J0D01*
G01*
X95718750Y-63100000D01*
G75*
G02*
X95500000Y-62881250I0J218750D01*
G01*
G37*
G36*
G01*
X77956250Y-42487500D02*
X77043750Y-42487500D01*
G75*
G02*
X76800000Y-42243750I0J243750D01*
G01*
X76800000Y-41756250D01*
G75*
G02*
X77043750Y-41512500I243750J0D01*
G01*
X77956250Y-41512500D01*
G75*
G02*
X78200000Y-41756250I0J-243750D01*
G01*
X78200000Y-42243750D01*
G75*
G02*
X77956250Y-42487500I-243750J0D01*
G01*
G37*
G36*
G01*
X77956250Y-44362500D02*
X77043750Y-44362500D01*
G75*
G02*
X76800000Y-44118750I0J243750D01*
G01*
X76800000Y-43631250D01*
G75*
G02*
X77043750Y-43387500I243750J0D01*
G01*
X77956250Y-43387500D01*
G75*
G02*
X78200000Y-43631250I0J-243750D01*
G01*
X78200000Y-44118750D01*
G75*
G02*
X77956250Y-44362500I-243750J0D01*
G01*
G37*
G36*
G01*
X61456250Y-46050000D02*
X60543750Y-46050000D01*
G75*
G02*
X60300000Y-45806250I0J243750D01*
G01*
X60300000Y-45318750D01*
G75*
G02*
X60543750Y-45075000I243750J0D01*
G01*
X61456250Y-45075000D01*
G75*
G02*
X61700000Y-45318750I0J-243750D01*
G01*
X61700000Y-45806250D01*
G75*
G02*
X61456250Y-46050000I-243750J0D01*
G01*
G37*
G36*
G01*
X61456250Y-47925000D02*
X60543750Y-47925000D01*
G75*
G02*
X60300000Y-47681250I0J243750D01*
G01*
X60300000Y-47193750D01*
G75*
G02*
X60543750Y-46950000I243750J0D01*
G01*
X61456250Y-46950000D01*
G75*
G02*
X61700000Y-47193750I0J-243750D01*
G01*
X61700000Y-47681250D01*
G75*
G02*
X61456250Y-47925000I-243750J0D01*
G01*
G37*
G36*
G01*
X57456250Y-46050000D02*
X56543750Y-46050000D01*
G75*
G02*
X56300000Y-45806250I0J243750D01*
G01*
X56300000Y-45318750D01*
G75*
G02*
X56543750Y-45075000I243750J0D01*
G01*
X57456250Y-45075000D01*
G75*
G02*
X57700000Y-45318750I0J-243750D01*
G01*
X57700000Y-45806250D01*
G75*
G02*
X57456250Y-46050000I-243750J0D01*
G01*
G37*
G36*
G01*
X57456250Y-47925000D02*
X56543750Y-47925000D01*
G75*
G02*
X56300000Y-47681250I0J243750D01*
G01*
X56300000Y-47193750D01*
G75*
G02*
X56543750Y-46950000I243750J0D01*
G01*
X57456250Y-46950000D01*
G75*
G02*
X57700000Y-47193750I0J-243750D01*
G01*
X57700000Y-47681250D01*
G75*
G02*
X57456250Y-47925000I-243750J0D01*
G01*
G37*
G36*
G01*
X95525000Y-65650000D02*
X96475000Y-65650000D01*
G75*
G02*
X96725000Y-65900000I0J-250000D01*
G01*
X96725000Y-66400000D01*
G75*
G02*
X96475000Y-66650000I-250000J0D01*
G01*
X95525000Y-66650000D01*
G75*
G02*
X95275000Y-66400000I0J250000D01*
G01*
X95275000Y-65900000D01*
G75*
G02*
X95525000Y-65650000I250000J0D01*
G01*
G37*
G36*
G01*
X95525000Y-63750000D02*
X96475000Y-63750000D01*
G75*
G02*
X96725000Y-64000000I0J-250000D01*
G01*
X96725000Y-64500000D01*
G75*
G02*
X96475000Y-64750000I-250000J0D01*
G01*
X95525000Y-64750000D01*
G75*
G02*
X95275000Y-64500000I0J250000D01*
G01*
X95275000Y-64000000D01*
G75*
G02*
X95525000Y-63750000I250000J0D01*
G01*
G37*
G36*
G01*
X97525000Y-65650000D02*
X98475000Y-65650000D01*
G75*
G02*
X98725000Y-65900000I0J-250000D01*
G01*
X98725000Y-66400000D01*
G75*
G02*
X98475000Y-66650000I-250000J0D01*
G01*
X97525000Y-66650000D01*
G75*
G02*
X97275000Y-66400000I0J250000D01*
G01*
X97275000Y-65900000D01*
G75*
G02*
X97525000Y-65650000I250000J0D01*
G01*
G37*
G36*
G01*
X97525000Y-63750000D02*
X98475000Y-63750000D01*
G75*
G02*
X98725000Y-64000000I0J-250000D01*
G01*
X98725000Y-64500000D01*
G75*
G02*
X98475000Y-64750000I-250000J0D01*
G01*
X97525000Y-64750000D01*
G75*
G02*
X97275000Y-64500000I0J250000D01*
G01*
X97275000Y-64000000D01*
G75*
G02*
X97525000Y-63750000I250000J0D01*
G01*
G37*
G36*
G01*
X96475000Y-59050000D02*
X95525000Y-59050000D01*
G75*
G02*
X95275000Y-58800000I0J250000D01*
G01*
X95275000Y-58300000D01*
G75*
G02*
X95525000Y-58050000I250000J0D01*
G01*
X96475000Y-58050000D01*
G75*
G02*
X96725000Y-58300000I0J-250000D01*
G01*
X96725000Y-58800000D01*
G75*
G02*
X96475000Y-59050000I-250000J0D01*
G01*
G37*
G36*
G01*
X96475000Y-60950000D02*
X95525000Y-60950000D01*
G75*
G02*
X95275000Y-60700000I0J250000D01*
G01*
X95275000Y-60200000D01*
G75*
G02*
X95525000Y-59950000I250000J0D01*
G01*
X96475000Y-59950000D01*
G75*
G02*
X96725000Y-60200000I0J-250000D01*
G01*
X96725000Y-60700000D01*
G75*
G02*
X96475000Y-60950000I-250000J0D01*
G01*
G37*
G36*
G01*
X92867000Y-65206000D02*
X91917000Y-65206000D01*
G75*
G02*
X91667000Y-64956000I0J250000D01*
G01*
X91667000Y-64456000D01*
G75*
G02*
X91917000Y-64206000I250000J0D01*
G01*
X92867000Y-64206000D01*
G75*
G02*
X93117000Y-64456000I0J-250000D01*
G01*
X93117000Y-64956000D01*
G75*
G02*
X92867000Y-65206000I-250000J0D01*
G01*
G37*
G36*
G01*
X92867000Y-67106000D02*
X91917000Y-67106000D01*
G75*
G02*
X91667000Y-66856000I0J250000D01*
G01*
X91667000Y-66356000D01*
G75*
G02*
X91917000Y-66106000I250000J0D01*
G01*
X92867000Y-66106000D01*
G75*
G02*
X93117000Y-66356000I0J-250000D01*
G01*
X93117000Y-66856000D01*
G75*
G02*
X92867000Y-67106000I-250000J0D01*
G01*
G37*
G36*
G01*
X83596000Y-65206000D02*
X82646000Y-65206000D01*
G75*
G02*
X82396000Y-64956000I0J250000D01*
G01*
X82396000Y-64456000D01*
G75*
G02*
X82646000Y-64206000I250000J0D01*
G01*
X83596000Y-64206000D01*
G75*
G02*
X83846000Y-64456000I0J-250000D01*
G01*
X83846000Y-64956000D01*
G75*
G02*
X83596000Y-65206000I-250000J0D01*
G01*
G37*
G36*
G01*
X83596000Y-67106000D02*
X82646000Y-67106000D01*
G75*
G02*
X82396000Y-66856000I0J250000D01*
G01*
X82396000Y-66356000D01*
G75*
G02*
X82646000Y-66106000I250000J0D01*
G01*
X83596000Y-66106000D01*
G75*
G02*
X83846000Y-66356000I0J-250000D01*
G01*
X83846000Y-66856000D01*
G75*
G02*
X83596000Y-67106000I-250000J0D01*
G01*
G37*
G36*
G01*
X98475000Y-59050000D02*
X97525000Y-59050000D01*
G75*
G02*
X97275000Y-58800000I0J250000D01*
G01*
X97275000Y-58300000D01*
G75*
G02*
X97525000Y-58050000I250000J0D01*
G01*
X98475000Y-58050000D01*
G75*
G02*
X98725000Y-58300000I0J-250000D01*
G01*
X98725000Y-58800000D01*
G75*
G02*
X98475000Y-59050000I-250000J0D01*
G01*
G37*
G36*
G01*
X98475000Y-60950000D02*
X97525000Y-60950000D01*
G75*
G02*
X97275000Y-60700000I0J250000D01*
G01*
X97275000Y-60200000D01*
G75*
G02*
X97525000Y-59950000I250000J0D01*
G01*
X98475000Y-59950000D01*
G75*
G02*
X98725000Y-60200000I0J-250000D01*
G01*
X98725000Y-60700000D01*
G75*
G02*
X98475000Y-60950000I-250000J0D01*
G01*
G37*
G36*
G01*
X100525000Y-65650000D02*
X101475000Y-65650000D01*
G75*
G02*
X101725000Y-65900000I0J-250000D01*
G01*
X101725000Y-66400000D01*
G75*
G02*
X101475000Y-66650000I-250000J0D01*
G01*
X100525000Y-66650000D01*
G75*
G02*
X100275000Y-66400000I0J250000D01*
G01*
X100275000Y-65900000D01*
G75*
G02*
X100525000Y-65650000I250000J0D01*
G01*
G37*
G36*
G01*
X100525000Y-63750000D02*
X101475000Y-63750000D01*
G75*
G02*
X101725000Y-64000000I0J-250000D01*
G01*
X101725000Y-64500000D01*
G75*
G02*
X101475000Y-64750000I-250000J0D01*
G01*
X100525000Y-64750000D01*
G75*
G02*
X100275000Y-64500000I0J250000D01*
G01*
X100275000Y-64000000D01*
G75*
G02*
X100525000Y-63750000I250000J0D01*
G01*
G37*
G36*
G01*
X94017678Y-49007927D02*
X93345927Y-49679678D01*
G75*
G02*
X92992373Y-49679678I-176777J176777D01*
G01*
X92638820Y-49326125D01*
G75*
G02*
X92638820Y-48972571I176777J176777D01*
G01*
X93310571Y-48300820D01*
G75*
G02*
X93664125Y-48300820I176777J-176777D01*
G01*
X94017678Y-48654373D01*
G75*
G02*
X94017678Y-49007927I-176777J-176777D01*
G01*
G37*
G36*
G01*
X95361180Y-50351429D02*
X94689429Y-51023180D01*
G75*
G02*
X94335875Y-51023180I-176777J176777D01*
G01*
X93982322Y-50669627D01*
G75*
G02*
X93982322Y-50316073I176777J176777D01*
G01*
X94654073Y-49644322D01*
G75*
G02*
X95007627Y-49644322I176777J-176777D01*
G01*
X95361180Y-49997875D01*
G75*
G02*
X95361180Y-50351429I-176777J-176777D01*
G01*
G37*
G36*
G01*
X82982322Y-60654073D02*
X83654073Y-59982322D01*
G75*
G02*
X84007627Y-59982322I176777J-176777D01*
G01*
X84361180Y-60335875D01*
G75*
G02*
X84361180Y-60689429I-176777J-176777D01*
G01*
X83689429Y-61361180D01*
G75*
G02*
X83335875Y-61361180I-176777J176777D01*
G01*
X82982322Y-61007627D01*
G75*
G02*
X82982322Y-60654073I176777J176777D01*
G01*
G37*
G36*
G01*
X81638820Y-59310571D02*
X82310571Y-58638820D01*
G75*
G02*
X82664125Y-58638820I176777J-176777D01*
G01*
X83017678Y-58992373D01*
G75*
G02*
X83017678Y-59345927I-176777J-176777D01*
G01*
X82345927Y-60017678D01*
G75*
G02*
X81992373Y-60017678I-176777J176777D01*
G01*
X81638820Y-59664125D01*
G75*
G02*
X81638820Y-59310571I176777J176777D01*
G01*
G37*
G36*
G01*
X84905000Y-58046000D02*
X83655000Y-58046000D01*
G75*
G02*
X83530000Y-57921000I0J125000D01*
G01*
X83530000Y-57671000D01*
G75*
G02*
X83655000Y-57546000I125000J0D01*
G01*
X84905000Y-57546000D01*
G75*
G02*
X85030000Y-57671000I0J-125000D01*
G01*
X85030000Y-57921000D01*
G75*
G02*
X84905000Y-58046000I-125000J0D01*
G01*
G37*
G36*
G01*
X84905000Y-57246000D02*
X83655000Y-57246000D01*
G75*
G02*
X83530000Y-57121000I0J125000D01*
G01*
X83530000Y-56871000D01*
G75*
G02*
X83655000Y-56746000I125000J0D01*
G01*
X84905000Y-56746000D01*
G75*
G02*
X85030000Y-56871000I0J-125000D01*
G01*
X85030000Y-57121000D01*
G75*
G02*
X84905000Y-57246000I-125000J0D01*
G01*
G37*
G36*
G01*
X84905000Y-56446000D02*
X83655000Y-56446000D01*
G75*
G02*
X83530000Y-56321000I0J125000D01*
G01*
X83530000Y-56071000D01*
G75*
G02*
X83655000Y-55946000I125000J0D01*
G01*
X84905000Y-55946000D01*
G75*
G02*
X85030000Y-56071000I0J-125000D01*
G01*
X85030000Y-56321000D01*
G75*
G02*
X84905000Y-56446000I-125000J0D01*
G01*
G37*
G36*
G01*
X84905000Y-55646000D02*
X83655000Y-55646000D01*
G75*
G02*
X83530000Y-55521000I0J125000D01*
G01*
X83530000Y-55271000D01*
G75*
G02*
X83655000Y-55146000I125000J0D01*
G01*
X84905000Y-55146000D01*
G75*
G02*
X85030000Y-55271000I0J-125000D01*
G01*
X85030000Y-55521000D01*
G75*
G02*
X84905000Y-55646000I-125000J0D01*
G01*
G37*
G36*
G01*
X84905000Y-54846000D02*
X83655000Y-54846000D01*
G75*
G02*
X83530000Y-54721000I0J125000D01*
G01*
X83530000Y-54471000D01*
G75*
G02*
X83655000Y-54346000I125000J0D01*
G01*
X84905000Y-54346000D01*
G75*
G02*
X85030000Y-54471000I0J-125000D01*
G01*
X85030000Y-54721000D01*
G75*
G02*
X84905000Y-54846000I-125000J0D01*
G01*
G37*
G36*
G01*
X84905000Y-54046000D02*
X83655000Y-54046000D01*
G75*
G02*
X83530000Y-53921000I0J125000D01*
G01*
X83530000Y-53671000D01*
G75*
G02*
X83655000Y-53546000I125000J0D01*
G01*
X84905000Y-53546000D01*
G75*
G02*
X85030000Y-53671000I0J-125000D01*
G01*
X85030000Y-53921000D01*
G75*
G02*
X84905000Y-54046000I-125000J0D01*
G01*
G37*
G36*
G01*
X84905000Y-53246000D02*
X83655000Y-53246000D01*
G75*
G02*
X83530000Y-53121000I0J125000D01*
G01*
X83530000Y-52871000D01*
G75*
G02*
X83655000Y-52746000I125000J0D01*
G01*
X84905000Y-52746000D01*
G75*
G02*
X85030000Y-52871000I0J-125000D01*
G01*
X85030000Y-53121000D01*
G75*
G02*
X84905000Y-53246000I-125000J0D01*
G01*
G37*
G36*
G01*
X84905000Y-52446000D02*
X83655000Y-52446000D01*
G75*
G02*
X83530000Y-52321000I0J125000D01*
G01*
X83530000Y-52071000D01*
G75*
G02*
X83655000Y-51946000I125000J0D01*
G01*
X84905000Y-51946000D01*
G75*
G02*
X85030000Y-52071000I0J-125000D01*
G01*
X85030000Y-52321000D01*
G75*
G02*
X84905000Y-52446000I-125000J0D01*
G01*
G37*
G36*
G01*
X85780000Y-51571000D02*
X85530000Y-51571000D01*
G75*
G02*
X85405000Y-51446000I0J125000D01*
G01*
X85405000Y-50196000D01*
G75*
G02*
X85530000Y-50071000I125000J0D01*
G01*
X85780000Y-50071000D01*
G75*
G02*
X85905000Y-50196000I0J-125000D01*
G01*
X85905000Y-51446000D01*
G75*
G02*
X85780000Y-51571000I-125000J0D01*
G01*
G37*
G36*
G01*
X86580000Y-51571000D02*
X86330000Y-51571000D01*
G75*
G02*
X86205000Y-51446000I0J125000D01*
G01*
X86205000Y-50196000D01*
G75*
G02*
X86330000Y-50071000I125000J0D01*
G01*
X86580000Y-50071000D01*
G75*
G02*
X86705000Y-50196000I0J-125000D01*
G01*
X86705000Y-51446000D01*
G75*
G02*
X86580000Y-51571000I-125000J0D01*
G01*
G37*
G36*
G01*
X87380000Y-51571000D02*
X87130000Y-51571000D01*
G75*
G02*
X87005000Y-51446000I0J125000D01*
G01*
X87005000Y-50196000D01*
G75*
G02*
X87130000Y-50071000I125000J0D01*
G01*
X87380000Y-50071000D01*
G75*
G02*
X87505000Y-50196000I0J-125000D01*
G01*
X87505000Y-51446000D01*
G75*
G02*
X87380000Y-51571000I-125000J0D01*
G01*
G37*
G36*
G01*
X88180000Y-51571000D02*
X87930000Y-51571000D01*
G75*
G02*
X87805000Y-51446000I0J125000D01*
G01*
X87805000Y-50196000D01*
G75*
G02*
X87930000Y-50071000I125000J0D01*
G01*
X88180000Y-50071000D01*
G75*
G02*
X88305000Y-50196000I0J-125000D01*
G01*
X88305000Y-51446000D01*
G75*
G02*
X88180000Y-51571000I-125000J0D01*
G01*
G37*
G36*
G01*
X88980000Y-51571000D02*
X88730000Y-51571000D01*
G75*
G02*
X88605000Y-51446000I0J125000D01*
G01*
X88605000Y-50196000D01*
G75*
G02*
X88730000Y-50071000I125000J0D01*
G01*
X88980000Y-50071000D01*
G75*
G02*
X89105000Y-50196000I0J-125000D01*
G01*
X89105000Y-51446000D01*
G75*
G02*
X88980000Y-51571000I-125000J0D01*
G01*
G37*
G36*
G01*
X89780000Y-51571000D02*
X89530000Y-51571000D01*
G75*
G02*
X89405000Y-51446000I0J125000D01*
G01*
X89405000Y-50196000D01*
G75*
G02*
X89530000Y-50071000I125000J0D01*
G01*
X89780000Y-50071000D01*
G75*
G02*
X89905000Y-50196000I0J-125000D01*
G01*
X89905000Y-51446000D01*
G75*
G02*
X89780000Y-51571000I-125000J0D01*
G01*
G37*
G36*
G01*
X90580000Y-51571000D02*
X90330000Y-51571000D01*
G75*
G02*
X90205000Y-51446000I0J125000D01*
G01*
X90205000Y-50196000D01*
G75*
G02*
X90330000Y-50071000I125000J0D01*
G01*
X90580000Y-50071000D01*
G75*
G02*
X90705000Y-50196000I0J-125000D01*
G01*
X90705000Y-51446000D01*
G75*
G02*
X90580000Y-51571000I-125000J0D01*
G01*
G37*
G36*
G01*
X91380000Y-51571000D02*
X91130000Y-51571000D01*
G75*
G02*
X91005000Y-51446000I0J125000D01*
G01*
X91005000Y-50196000D01*
G75*
G02*
X91130000Y-50071000I125000J0D01*
G01*
X91380000Y-50071000D01*
G75*
G02*
X91505000Y-50196000I0J-125000D01*
G01*
X91505000Y-51446000D01*
G75*
G02*
X91380000Y-51571000I-125000J0D01*
G01*
G37*
G36*
G01*
X93255000Y-52446000D02*
X92005000Y-52446000D01*
G75*
G02*
X91880000Y-52321000I0J125000D01*
G01*
X91880000Y-52071000D01*
G75*
G02*
X92005000Y-51946000I125000J0D01*
G01*
X93255000Y-51946000D01*
G75*
G02*
X93380000Y-52071000I0J-125000D01*
G01*
X93380000Y-52321000D01*
G75*
G02*
X93255000Y-52446000I-125000J0D01*
G01*
G37*
G36*
G01*
X93255000Y-53246000D02*
X92005000Y-53246000D01*
G75*
G02*
X91880000Y-53121000I0J125000D01*
G01*
X91880000Y-52871000D01*
G75*
G02*
X92005000Y-52746000I125000J0D01*
G01*
X93255000Y-52746000D01*
G75*
G02*
X93380000Y-52871000I0J-125000D01*
G01*
X93380000Y-53121000D01*
G75*
G02*
X93255000Y-53246000I-125000J0D01*
G01*
G37*
G36*
G01*
X93255000Y-54046000D02*
X92005000Y-54046000D01*
G75*
G02*
X91880000Y-53921000I0J125000D01*
G01*
X91880000Y-53671000D01*
G75*
G02*
X92005000Y-53546000I125000J0D01*
G01*
X93255000Y-53546000D01*
G75*
G02*
X93380000Y-53671000I0J-125000D01*
G01*
X93380000Y-53921000D01*
G75*
G02*
X93255000Y-54046000I-125000J0D01*
G01*
G37*
G36*
G01*
X93255000Y-54846000D02*
X92005000Y-54846000D01*
G75*
G02*
X91880000Y-54721000I0J125000D01*
G01*
X91880000Y-54471000D01*
G75*
G02*
X92005000Y-54346000I125000J0D01*
G01*
X93255000Y-54346000D01*
G75*
G02*
X93380000Y-54471000I0J-125000D01*
G01*
X93380000Y-54721000D01*
G75*
G02*
X93255000Y-54846000I-125000J0D01*
G01*
G37*
G36*
G01*
X93255000Y-55646000D02*
X92005000Y-55646000D01*
G75*
G02*
X91880000Y-55521000I0J125000D01*
G01*
X91880000Y-55271000D01*
G75*
G02*
X92005000Y-55146000I125000J0D01*
G01*
X93255000Y-55146000D01*
G75*
G02*
X93380000Y-55271000I0J-125000D01*
G01*
X93380000Y-55521000D01*
G75*
G02*
X93255000Y-55646000I-125000J0D01*
G01*
G37*
G36*
G01*
X93255000Y-56446000D02*
X92005000Y-56446000D01*
G75*
G02*
X91880000Y-56321000I0J125000D01*
G01*
X91880000Y-56071000D01*
G75*
G02*
X92005000Y-55946000I125000J0D01*
G01*
X93255000Y-55946000D01*
G75*
G02*
X93380000Y-56071000I0J-125000D01*
G01*
X93380000Y-56321000D01*
G75*
G02*
X93255000Y-56446000I-125000J0D01*
G01*
G37*
G36*
G01*
X93255000Y-57246000D02*
X92005000Y-57246000D01*
G75*
G02*
X91880000Y-57121000I0J125000D01*
G01*
X91880000Y-56871000D01*
G75*
G02*
X92005000Y-56746000I125000J0D01*
G01*
X93255000Y-56746000D01*
G75*
G02*
X93380000Y-56871000I0J-125000D01*
G01*
X93380000Y-57121000D01*
G75*
G02*
X93255000Y-57246000I-125000J0D01*
G01*
G37*
G36*
G01*
X93255000Y-58046000D02*
X92005000Y-58046000D01*
G75*
G02*
X91880000Y-57921000I0J125000D01*
G01*
X91880000Y-57671000D01*
G75*
G02*
X92005000Y-57546000I125000J0D01*
G01*
X93255000Y-57546000D01*
G75*
G02*
X93380000Y-57671000I0J-125000D01*
G01*
X93380000Y-57921000D01*
G75*
G02*
X93255000Y-58046000I-125000J0D01*
G01*
G37*
G36*
G01*
X91380000Y-59921000D02*
X91130000Y-59921000D01*
G75*
G02*
X91005000Y-59796000I0J125000D01*
G01*
X91005000Y-58546000D01*
G75*
G02*
X91130000Y-58421000I125000J0D01*
G01*
X91380000Y-58421000D01*
G75*
G02*
X91505000Y-58546000I0J-125000D01*
G01*
X91505000Y-59796000D01*
G75*
G02*
X91380000Y-59921000I-125000J0D01*
G01*
G37*
G36*
G01*
X90580000Y-59921000D02*
X90330000Y-59921000D01*
G75*
G02*
X90205000Y-59796000I0J125000D01*
G01*
X90205000Y-58546000D01*
G75*
G02*
X90330000Y-58421000I125000J0D01*
G01*
X90580000Y-58421000D01*
G75*
G02*
X90705000Y-58546000I0J-125000D01*
G01*
X90705000Y-59796000D01*
G75*
G02*
X90580000Y-59921000I-125000J0D01*
G01*
G37*
G36*
G01*
X89780000Y-59921000D02*
X89530000Y-59921000D01*
G75*
G02*
X89405000Y-59796000I0J125000D01*
G01*
X89405000Y-58546000D01*
G75*
G02*
X89530000Y-58421000I125000J0D01*
G01*
X89780000Y-58421000D01*
G75*
G02*
X89905000Y-58546000I0J-125000D01*
G01*
X89905000Y-59796000D01*
G75*
G02*
X89780000Y-59921000I-125000J0D01*
G01*
G37*
G36*
G01*
X88980000Y-59921000D02*
X88730000Y-59921000D01*
G75*
G02*
X88605000Y-59796000I0J125000D01*
G01*
X88605000Y-58546000D01*
G75*
G02*
X88730000Y-58421000I125000J0D01*
G01*
X88980000Y-58421000D01*
G75*
G02*
X89105000Y-58546000I0J-125000D01*
G01*
X89105000Y-59796000D01*
G75*
G02*
X88980000Y-59921000I-125000J0D01*
G01*
G37*
G36*
G01*
X88180000Y-59921000D02*
X87930000Y-59921000D01*
G75*
G02*
X87805000Y-59796000I0J125000D01*
G01*
X87805000Y-58546000D01*
G75*
G02*
X87930000Y-58421000I125000J0D01*
G01*
X88180000Y-58421000D01*
G75*
G02*
X88305000Y-58546000I0J-125000D01*
G01*
X88305000Y-59796000D01*
G75*
G02*
X88180000Y-59921000I-125000J0D01*
G01*
G37*
G36*
G01*
X87380000Y-59921000D02*
X87130000Y-59921000D01*
G75*
G02*
X87005000Y-59796000I0J125000D01*
G01*
X87005000Y-58546000D01*
G75*
G02*
X87130000Y-58421000I125000J0D01*
G01*
X87380000Y-58421000D01*
G75*
G02*
X87505000Y-58546000I0J-125000D01*
G01*
X87505000Y-59796000D01*
G75*
G02*
X87380000Y-59921000I-125000J0D01*
G01*
G37*
G36*
G01*
X86580000Y-59921000D02*
X86330000Y-59921000D01*
G75*
G02*
X86205000Y-59796000I0J125000D01*
G01*
X86205000Y-58546000D01*
G75*
G02*
X86330000Y-58421000I125000J0D01*
G01*
X86580000Y-58421000D01*
G75*
G02*
X86705000Y-58546000I0J-125000D01*
G01*
X86705000Y-59796000D01*
G75*
G02*
X86580000Y-59921000I-125000J0D01*
G01*
G37*
G36*
G01*
X85780000Y-59921000D02*
X85530000Y-59921000D01*
G75*
G02*
X85405000Y-59796000I0J125000D01*
G01*
X85405000Y-58546000D01*
G75*
G02*
X85530000Y-58421000I125000J0D01*
G01*
X85780000Y-58421000D01*
G75*
G02*
X85905000Y-58546000I0J-125000D01*
G01*
X85905000Y-59796000D01*
G75*
G02*
X85780000Y-59921000I-125000J0D01*
G01*
G37*
D12*
X72500000Y-65500000D03*
X74500000Y-64550000D03*
X74500000Y-66450000D03*
X63500000Y-65000000D03*
X65500000Y-64050000D03*
X65500000Y-65950000D03*
D13*
G36*
X60350000Y-62749398D02*
G01*
X60325466Y-62749398D01*
X60276635Y-62744588D01*
X60228510Y-62735016D01*
X60181555Y-62720772D01*
X60136222Y-62701995D01*
X60092949Y-62678864D01*
X60052150Y-62651604D01*
X60014221Y-62620476D01*
X59979524Y-62585779D01*
X59948396Y-62547850D01*
X59921136Y-62507051D01*
X59898005Y-62463778D01*
X59879228Y-62418445D01*
X59864984Y-62371490D01*
X59855412Y-62323365D01*
X59850602Y-62274534D01*
X59850602Y-62250000D01*
X59850000Y-62250000D01*
X59850000Y-61750000D01*
X59850602Y-61750000D01*
X59850602Y-61725466D01*
X59855412Y-61676635D01*
X59864984Y-61628510D01*
X59879228Y-61581555D01*
X59898005Y-61536222D01*
X59921136Y-61492949D01*
X59948396Y-61452150D01*
X59979524Y-61414221D01*
X60014221Y-61379524D01*
X60052150Y-61348396D01*
X60092949Y-61321136D01*
X60136222Y-61298005D01*
X60181555Y-61279228D01*
X60228510Y-61264984D01*
X60276635Y-61255412D01*
X60325466Y-61250602D01*
X60350000Y-61250602D01*
X60350000Y-61250000D01*
X60850000Y-61250000D01*
X60850000Y-62750000D01*
X60350000Y-62750000D01*
X60350000Y-62749398D01*
G37*
G36*
X61150000Y-61250000D02*
G01*
X61650000Y-61250000D01*
X61650000Y-61250602D01*
X61674534Y-61250602D01*
X61723365Y-61255412D01*
X61771490Y-61264984D01*
X61818445Y-61279228D01*
X61863778Y-61298005D01*
X61907051Y-61321136D01*
X61947850Y-61348396D01*
X61985779Y-61379524D01*
X62020476Y-61414221D01*
X62051604Y-61452150D01*
X62078864Y-61492949D01*
X62101995Y-61536222D01*
X62120772Y-61581555D01*
X62135016Y-61628510D01*
X62144588Y-61676635D01*
X62149398Y-61725466D01*
X62149398Y-61750000D01*
X62150000Y-61750000D01*
X62150000Y-62250000D01*
X62149398Y-62250000D01*
X62149398Y-62274534D01*
X62144588Y-62323365D01*
X62135016Y-62371490D01*
X62120772Y-62418445D01*
X62101995Y-62463778D01*
X62078864Y-62507051D01*
X62051604Y-62547850D01*
X62020476Y-62585779D01*
X61985779Y-62620476D01*
X61947850Y-62651604D01*
X61907051Y-62678864D01*
X61863778Y-62701995D01*
X61818445Y-62720772D01*
X61771490Y-62735016D01*
X61723365Y-62744588D01*
X61674534Y-62749398D01*
X61650000Y-62749398D01*
X61650000Y-62750000D01*
X61150000Y-62750000D01*
X61150000Y-61250000D01*
G37*
D14*
X81500000Y-41880000D03*
X81500000Y-44420000D03*
X81500000Y-46960000D03*
D15*
X81500000Y-49500000D03*
D16*
X36500000Y-67500000D03*
X35550000Y-65500000D03*
X37450000Y-65500000D03*
D12*
X42500000Y-63500000D03*
X44500000Y-62550000D03*
X44500000Y-64450000D03*
D14*
X45540000Y-67500000D03*
D15*
X43000000Y-67500000D03*
D14*
X57540000Y-67500000D03*
X55000000Y-67500000D03*
D15*
X52460000Y-67500000D03*
D12*
X42000000Y-58500000D03*
X44000000Y-57550000D03*
X44000000Y-59450000D03*
D14*
X31000000Y-61040000D03*
D15*
X31000000Y-58500000D03*
G36*
G01*
X27750000Y-62000000D02*
X26250000Y-62000000D01*
G75*
G02*
X26000000Y-61750000I0J250000D01*
G01*
X26000000Y-61250000D01*
G75*
G02*
X26250000Y-61000000I250000J0D01*
G01*
X27750000Y-61000000D01*
G75*
G02*
X28000000Y-61250000I0J-250000D01*
G01*
X28000000Y-61750000D01*
G75*
G02*
X27750000Y-62000000I-250000J0D01*
G01*
G37*
G36*
G01*
X27750000Y-59000000D02*
X26250000Y-59000000D01*
G75*
G02*
X26000000Y-58750000I0J250000D01*
G01*
X26000000Y-58250000D01*
G75*
G02*
X26250000Y-58000000I250000J0D01*
G01*
X27750000Y-58000000D01*
G75*
G02*
X28000000Y-58250000I0J-250000D01*
G01*
X28000000Y-58750000D01*
G75*
G02*
X27750000Y-59000000I-250000J0D01*
G01*
G37*
D14*
X30995000Y-53755000D03*
D15*
X30995000Y-51215000D03*
G36*
G01*
X27750000Y-54500000D02*
X26250000Y-54500000D01*
G75*
G02*
X26000000Y-54250000I0J250000D01*
G01*
X26000000Y-53750000D01*
G75*
G02*
X26250000Y-53500000I250000J0D01*
G01*
X27750000Y-53500000D01*
G75*
G02*
X28000000Y-53750000I0J-250000D01*
G01*
X28000000Y-54250000D01*
G75*
G02*
X27750000Y-54500000I-250000J0D01*
G01*
G37*
G36*
G01*
X27750000Y-51500000D02*
X26250000Y-51500000D01*
G75*
G02*
X26000000Y-51250000I0J250000D01*
G01*
X26000000Y-50750000D01*
G75*
G02*
X26250000Y-50500000I250000J0D01*
G01*
X27750000Y-50500000D01*
G75*
G02*
X28000000Y-50750000I0J-250000D01*
G01*
X28000000Y-51250000D01*
G75*
G02*
X27750000Y-51500000I-250000J0D01*
G01*
G37*
D12*
X42000000Y-52000000D03*
X44000000Y-51050000D03*
X44000000Y-52950000D03*
D15*
X110000000Y-58500000D03*
D14*
X107460000Y-58500000D03*
X104920000Y-58500000D03*
D13*
G36*
X113250000Y-61350000D02*
G01*
X113250000Y-60850000D01*
X113250602Y-60850000D01*
X113250602Y-60825466D01*
X113255412Y-60776635D01*
X113264984Y-60728510D01*
X113279228Y-60681555D01*
X113298005Y-60636222D01*
X113321136Y-60592949D01*
X113348396Y-60552150D01*
X113379524Y-60514221D01*
X113414221Y-60479524D01*
X113452150Y-60448396D01*
X113492949Y-60421136D01*
X113536222Y-60398005D01*
X113581555Y-60379228D01*
X113628510Y-60364984D01*
X113676635Y-60355412D01*
X113725466Y-60350602D01*
X113750000Y-60350602D01*
X113750000Y-60350000D01*
X114250000Y-60350000D01*
X114250000Y-60350602D01*
X114274534Y-60350602D01*
X114323365Y-60355412D01*
X114371490Y-60364984D01*
X114418445Y-60379228D01*
X114463778Y-60398005D01*
X114507051Y-60421136D01*
X114547850Y-60448396D01*
X114585779Y-60479524D01*
X114620476Y-60514221D01*
X114651604Y-60552150D01*
X114678864Y-60592949D01*
X114701995Y-60636222D01*
X114720772Y-60681555D01*
X114735016Y-60728510D01*
X114744588Y-60776635D01*
X114749398Y-60825466D01*
X114749398Y-60850000D01*
X114750000Y-60850000D01*
X114750000Y-61350000D01*
X113250000Y-61350000D01*
G37*
G36*
X114749398Y-62150000D02*
G01*
X114749398Y-62174534D01*
X114744588Y-62223365D01*
X114735016Y-62271490D01*
X114720772Y-62318445D01*
X114701995Y-62363778D01*
X114678864Y-62407051D01*
X114651604Y-62447850D01*
X114620476Y-62485779D01*
X114585779Y-62520476D01*
X114547850Y-62551604D01*
X114507051Y-62578864D01*
X114463778Y-62601995D01*
X114418445Y-62620772D01*
X114371490Y-62635016D01*
X114323365Y-62644588D01*
X114274534Y-62649398D01*
X114250000Y-62649398D01*
X114250000Y-62650000D01*
X113750000Y-62650000D01*
X113750000Y-62649398D01*
X113725466Y-62649398D01*
X113676635Y-62644588D01*
X113628510Y-62635016D01*
X113581555Y-62620772D01*
X113536222Y-62601995D01*
X113492949Y-62578864D01*
X113452150Y-62551604D01*
X113414221Y-62520476D01*
X113379524Y-62485779D01*
X113348396Y-62447850D01*
X113321136Y-62407051D01*
X113298005Y-62363778D01*
X113279228Y-62318445D01*
X113264984Y-62271490D01*
X113255412Y-62223365D01*
X113250602Y-62174534D01*
X113250602Y-62150000D01*
X113250000Y-62150000D01*
X113250000Y-61650000D01*
X114750000Y-61650000D01*
X114750000Y-62150000D01*
X114749398Y-62150000D01*
G37*
D14*
X117500000Y-48800000D03*
X117500000Y-51340000D03*
X117500000Y-53880000D03*
X117500000Y-56420000D03*
X117500000Y-58960000D03*
D15*
X117500000Y-61500000D03*
X58500000Y-58500000D03*
D14*
X61040000Y-58500000D03*
X63580000Y-58500000D03*
X66120000Y-58500000D03*
X68660000Y-58500000D03*
X71200000Y-58500000D03*
D17*
X116000000Y-66000000D03*
X29000000Y-66000000D03*
X29000000Y-44000000D03*
X116000000Y-44000000D03*
D18*
X85843000Y-65656000D03*
X89543000Y-65656000D03*
D19*
X104000000Y-67500000D03*
X104000000Y-63000000D03*
X110500000Y-67500000D03*
X110500000Y-63000000D03*
D20*
X85960000Y-46450000D03*
X85960000Y-42550000D03*
X87230000Y-46450000D03*
X87230000Y-42550000D03*
X88500000Y-46450000D03*
X88500000Y-42550000D03*
X89770000Y-46450000D03*
X89770000Y-42550000D03*
X91040000Y-46450000D03*
X91040000Y-42550000D03*
D21*
X39000000Y-45000000D03*
D22*
X35500000Y-45000000D03*
D21*
X73000000Y-45000000D03*
D22*
X69500000Y-45000000D03*
D21*
X51500000Y-45000000D03*
D22*
X48000000Y-45000000D03*
D23*
X101000000Y-48000000D03*
X103500000Y-48000000D03*
X106000000Y-48000000D03*
G36*
G01*
X109350000Y-47275000D02*
X109350000Y-48725000D01*
G75*
G02*
X109100000Y-48975000I-250000J0D01*
G01*
X107900000Y-48975000D01*
G75*
G02*
X107650000Y-48725000I0J250000D01*
G01*
X107650000Y-47275000D01*
G75*
G02*
X107900000Y-47025000I250000J0D01*
G01*
X109100000Y-47025000D01*
G75*
G02*
X109350000Y-47275000I0J-250000D01*
G01*
G37*
D13*
G36*
X60250602Y-42350000D02*
G01*
X60250602Y-42325466D01*
X60255412Y-42276635D01*
X60264984Y-42228510D01*
X60279228Y-42181555D01*
X60298005Y-42136222D01*
X60321136Y-42092949D01*
X60348396Y-42052150D01*
X60379524Y-42014221D01*
X60414221Y-41979524D01*
X60452150Y-41948396D01*
X60492949Y-41921136D01*
X60536222Y-41898005D01*
X60581555Y-41879228D01*
X60628510Y-41864984D01*
X60676635Y-41855412D01*
X60725466Y-41850602D01*
X60750000Y-41850602D01*
X60750000Y-41850000D01*
X61250000Y-41850000D01*
X61250000Y-41850602D01*
X61274534Y-41850602D01*
X61323365Y-41855412D01*
X61371490Y-41864984D01*
X61418445Y-41879228D01*
X61463778Y-41898005D01*
X61507051Y-41921136D01*
X61547850Y-41948396D01*
X61585779Y-41979524D01*
X61620476Y-42014221D01*
X61651604Y-42052150D01*
X61678864Y-42092949D01*
X61701995Y-42136222D01*
X61720772Y-42181555D01*
X61735016Y-42228510D01*
X61744588Y-42276635D01*
X61749398Y-42325466D01*
X61749398Y-42350000D01*
X61750000Y-42350000D01*
X61750000Y-42850000D01*
X60250000Y-42850000D01*
X60250000Y-42350000D01*
X60250602Y-42350000D01*
G37*
G36*
X61750000Y-43150000D02*
G01*
X61750000Y-43650000D01*
X61749398Y-43650000D01*
X61749398Y-43674534D01*
X61744588Y-43723365D01*
X61735016Y-43771490D01*
X61720772Y-43818445D01*
X61701995Y-43863778D01*
X61678864Y-43907051D01*
X61651604Y-43947850D01*
X61620476Y-43985779D01*
X61585779Y-44020476D01*
X61547850Y-44051604D01*
X61507051Y-44078864D01*
X61463778Y-44101995D01*
X61418445Y-44120772D01*
X61371490Y-44135016D01*
X61323365Y-44144588D01*
X61274534Y-44149398D01*
X61250000Y-44149398D01*
X61250000Y-44150000D01*
X60750000Y-44150000D01*
X60750000Y-44149398D01*
X60725466Y-44149398D01*
X60676635Y-44144588D01*
X60628510Y-44135016D01*
X60581555Y-44120772D01*
X60536222Y-44101995D01*
X60492949Y-44078864D01*
X60452150Y-44051604D01*
X60414221Y-44020476D01*
X60379524Y-43985779D01*
X60348396Y-43947850D01*
X60321136Y-43907051D01*
X60298005Y-43863778D01*
X60279228Y-43818445D01*
X60264984Y-43771490D01*
X60255412Y-43723365D01*
X60250602Y-43674534D01*
X60250602Y-43650000D01*
X60250000Y-43650000D01*
X60250000Y-43150000D01*
X61750000Y-43150000D01*
G37*
G36*
X56250602Y-42350000D02*
G01*
X56250602Y-42325466D01*
X56255412Y-42276635D01*
X56264984Y-42228510D01*
X56279228Y-42181555D01*
X56298005Y-42136222D01*
X56321136Y-42092949D01*
X56348396Y-42052150D01*
X56379524Y-42014221D01*
X56414221Y-41979524D01*
X56452150Y-41948396D01*
X56492949Y-41921136D01*
X56536222Y-41898005D01*
X56581555Y-41879228D01*
X56628510Y-41864984D01*
X56676635Y-41855412D01*
X56725466Y-41850602D01*
X56750000Y-41850602D01*
X56750000Y-41850000D01*
X57250000Y-41850000D01*
X57250000Y-41850602D01*
X57274534Y-41850602D01*
X57323365Y-41855412D01*
X57371490Y-41864984D01*
X57418445Y-41879228D01*
X57463778Y-41898005D01*
X57507051Y-41921136D01*
X57547850Y-41948396D01*
X57585779Y-41979524D01*
X57620476Y-42014221D01*
X57651604Y-42052150D01*
X57678864Y-42092949D01*
X57701995Y-42136222D01*
X57720772Y-42181555D01*
X57735016Y-42228510D01*
X57744588Y-42276635D01*
X57749398Y-42325466D01*
X57749398Y-42350000D01*
X57750000Y-42350000D01*
X57750000Y-42850000D01*
X56250000Y-42850000D01*
X56250000Y-42350000D01*
X56250602Y-42350000D01*
G37*
G36*
X57750000Y-43150000D02*
G01*
X57750000Y-43650000D01*
X57749398Y-43650000D01*
X57749398Y-43674534D01*
X57744588Y-43723365D01*
X57735016Y-43771490D01*
X57720772Y-43818445D01*
X57701995Y-43863778D01*
X57678864Y-43907051D01*
X57651604Y-43947850D01*
X57620476Y-43985779D01*
X57585779Y-44020476D01*
X57547850Y-44051604D01*
X57507051Y-44078864D01*
X57463778Y-44101995D01*
X57418445Y-44120772D01*
X57371490Y-44135016D01*
X57323365Y-44144588D01*
X57274534Y-44149398D01*
X57250000Y-44149398D01*
X57250000Y-44150000D01*
X56750000Y-44150000D01*
X56750000Y-44149398D01*
X56725466Y-44149398D01*
X56676635Y-44144588D01*
X56628510Y-44135016D01*
X56581555Y-44120772D01*
X56536222Y-44101995D01*
X56492949Y-44078864D01*
X56452150Y-44051604D01*
X56414221Y-44020476D01*
X56379524Y-43985779D01*
X56348396Y-43947850D01*
X56321136Y-43907051D01*
X56298005Y-43863778D01*
X56279228Y-43818445D01*
X56264984Y-43771490D01*
X56255412Y-43723365D01*
X56250602Y-43674534D01*
X56250602Y-43650000D01*
X56250000Y-43650000D01*
X56250000Y-43150000D01*
X57750000Y-43150000D01*
G37*
G36*
X64250602Y-42350000D02*
G01*
X64250602Y-42325466D01*
X64255412Y-42276635D01*
X64264984Y-42228510D01*
X64279228Y-42181555D01*
X64298005Y-42136222D01*
X64321136Y-42092949D01*
X64348396Y-42052150D01*
X64379524Y-42014221D01*
X64414221Y-41979524D01*
X64452150Y-41948396D01*
X64492949Y-41921136D01*
X64536222Y-41898005D01*
X64581555Y-41879228D01*
X64628510Y-41864984D01*
X64676635Y-41855412D01*
X64725466Y-41850602D01*
X64750000Y-41850602D01*
X64750000Y-41850000D01*
X65250000Y-41850000D01*
X65250000Y-41850602D01*
X65274534Y-41850602D01*
X65323365Y-41855412D01*
X65371490Y-41864984D01*
X65418445Y-41879228D01*
X65463778Y-41898005D01*
X65507051Y-41921136D01*
X65547850Y-41948396D01*
X65585779Y-41979524D01*
X65620476Y-42014221D01*
X65651604Y-42052150D01*
X65678864Y-42092949D01*
X65701995Y-42136222D01*
X65720772Y-42181555D01*
X65735016Y-42228510D01*
X65744588Y-42276635D01*
X65749398Y-42325466D01*
X65749398Y-42350000D01*
X65750000Y-42350000D01*
X65750000Y-42850000D01*
X64250000Y-42850000D01*
X64250000Y-42350000D01*
X64250602Y-42350000D01*
G37*
G36*
X65750000Y-43150000D02*
G01*
X65750000Y-43650000D01*
X65749398Y-43650000D01*
X65749398Y-43674534D01*
X65744588Y-43723365D01*
X65735016Y-43771490D01*
X65720772Y-43818445D01*
X65701995Y-43863778D01*
X65678864Y-43907051D01*
X65651604Y-43947850D01*
X65620476Y-43985779D01*
X65585779Y-44020476D01*
X65547850Y-44051604D01*
X65507051Y-44078864D01*
X65463778Y-44101995D01*
X65418445Y-44120772D01*
X65371490Y-44135016D01*
X65323365Y-44144588D01*
X65274534Y-44149398D01*
X65250000Y-44149398D01*
X65250000Y-44150000D01*
X64750000Y-44150000D01*
X64750000Y-44149398D01*
X64725466Y-44149398D01*
X64676635Y-44144588D01*
X64628510Y-44135016D01*
X64581555Y-44120772D01*
X64536222Y-44101995D01*
X64492949Y-44078864D01*
X64452150Y-44051604D01*
X64414221Y-44020476D01*
X64379524Y-43985779D01*
X64348396Y-43947850D01*
X64321136Y-43907051D01*
X64298005Y-43863778D01*
X64279228Y-43818445D01*
X64264984Y-43771490D01*
X64255412Y-43723365D01*
X64250602Y-43674534D01*
X64250602Y-43650000D01*
X64250000Y-43650000D01*
X64250000Y-43150000D01*
X65750000Y-43150000D01*
G37*
M02*
