G04 #@! TF.GenerationSoftware,KiCad,Pcbnew,5.1.10-88a1d61d58~90~ubuntu21.04.1*
G04 #@! TF.CreationDate,2021-09-06T15:15:47+02:00*
G04 #@! TF.ProjectId,DccDecoder,44636344-6563-46f6-9465-722e6b696361,rev?*
G04 #@! TF.SameCoordinates,Original*
G04 #@! TF.FileFunction,Copper,L4,Bot*
G04 #@! TF.FilePolarity,Positive*
%FSLAX46Y46*%
G04 Gerber Fmt 4.6, Leading zero omitted, Abs format (unit mm)*
G04 Created by KiCad (PCBNEW 5.1.10-88a1d61d58~90~ubuntu21.04.1) date 2021-09-06 15:15:47*
%MOMM*%
%LPD*%
G01*
G04 APERTURE LIST*
G04 #@! TA.AperFunction,ComponentPad*
%ADD10O,1.700000X1.700000*%
G04 #@! TD*
G04 #@! TA.AperFunction,ComponentPad*
%ADD11R,1.700000X1.700000*%
G04 #@! TD*
G04 #@! TA.AperFunction,ComponentPad*
%ADD12C,4.700000*%
G04 #@! TD*
G04 #@! TA.AperFunction,ComponentPad*
%ADD13C,2.000000*%
G04 #@! TD*
G04 #@! TA.AperFunction,ComponentPad*
%ADD14R,2.400000X2.400000*%
G04 #@! TD*
G04 #@! TA.AperFunction,ComponentPad*
%ADD15C,2.400000*%
G04 #@! TD*
G04 #@! TA.AperFunction,ComponentPad*
%ADD16O,1.700000X1.950000*%
G04 #@! TD*
G04 #@! TA.AperFunction,ViaPad*
%ADD17C,0.800000*%
G04 #@! TD*
G04 #@! TA.AperFunction,Conductor*
%ADD18C,0.500000*%
G04 #@! TD*
G04 #@! TA.AperFunction,Conductor*
%ADD19C,0.250000*%
G04 #@! TD*
G04 #@! TA.AperFunction,Conductor*
%ADD20C,0.254000*%
G04 #@! TD*
G04 #@! TA.AperFunction,Conductor*
%ADD21C,0.100000*%
G04 #@! TD*
G04 APERTURE END LIST*
D10*
X78620000Y-51000000D03*
X76080000Y-51000000D03*
X73540000Y-51000000D03*
D11*
X71000000Y-51000000D03*
D10*
X45540000Y-67500000D03*
D11*
X43000000Y-67500000D03*
D10*
X58000000Y-67500000D03*
X55460000Y-67500000D03*
D11*
X52920000Y-67500000D03*
D10*
X31000000Y-61040000D03*
D11*
X31000000Y-58500000D03*
D10*
X30995000Y-53755000D03*
D11*
X30995000Y-51215000D03*
D10*
X64000000Y-60080000D03*
X64000000Y-57540000D03*
D11*
X64000000Y-55000000D03*
D10*
X76700000Y-67500000D03*
X74160000Y-67500000D03*
X71620000Y-67500000D03*
X69080000Y-67500000D03*
X66540000Y-67500000D03*
D11*
X64000000Y-67500000D03*
X115874300Y-48671400D03*
D10*
X115874300Y-51211400D03*
X115874300Y-53751400D03*
X115874300Y-56291400D03*
X115874300Y-58831400D03*
X115874300Y-61371400D03*
D12*
X116000000Y-66000000D03*
X29000000Y-66000000D03*
X29000000Y-44000000D03*
X116000000Y-44000000D03*
D13*
X104000000Y-67500000D03*
X104000000Y-63000000D03*
X110500000Y-67500000D03*
X110500000Y-63000000D03*
D14*
X46000000Y-45000000D03*
D15*
X42500000Y-45000000D03*
D14*
X90000000Y-45000000D03*
D15*
X86500000Y-45000000D03*
D14*
X66000000Y-45000000D03*
D15*
X62500000Y-45000000D03*
D16*
X101000000Y-48000000D03*
X103500000Y-48000000D03*
X106000000Y-48000000D03*
G04 #@! TA.AperFunction,ComponentPad*
G36*
G01*
X109350000Y-47275000D02*
X109350000Y-48725000D01*
G75*
G02*
X109100000Y-48975000I-250000J0D01*
G01*
X107900000Y-48975000D01*
G75*
G02*
X107650000Y-48725000I0J250000D01*
G01*
X107650000Y-47275000D01*
G75*
G02*
X107900000Y-47025000I250000J0D01*
G01*
X109100000Y-47025000D01*
G75*
G02*
X109350000Y-47275000I0J-250000D01*
G01*
G37*
G04 #@! TD.AperFunction*
D17*
X78000000Y-55000000D03*
X103500000Y-52000000D03*
X33500000Y-65000000D03*
X110934000Y-58933000D03*
X101000000Y-56600000D03*
X73500000Y-59500000D03*
X85000006Y-61500000D03*
X75500000Y-54000000D03*
X88709000Y-62997000D03*
X104711000Y-58806000D03*
X87566000Y-53562000D03*
X104711000Y-57536000D03*
X86423000Y-52964000D03*
X104672900Y-56266000D03*
X85655000Y-52208000D03*
X92500000Y-61475000D03*
X91500000Y-61475000D03*
X64000000Y-51000000D03*
X89000000Y-48274990D03*
X90000000Y-48500000D03*
X65012653Y-50012653D03*
X40000000Y-53500000D03*
X52000000Y-51500000D03*
X81000000Y-52000000D03*
X52000000Y-53000000D03*
X80000000Y-53225010D03*
X89580000Y-60750000D03*
X90500000Y-57500000D03*
X53500000Y-62500000D03*
D18*
X108500000Y-44000000D02*
X108500000Y-48000000D01*
X106000000Y-41500000D02*
X108500000Y-44000000D01*
X71500000Y-41500000D02*
X106000000Y-41500000D01*
X68000000Y-45000000D02*
X71500000Y-41500000D01*
X66000000Y-45000000D02*
X68000000Y-45000000D01*
D19*
X110500000Y-63000000D02*
X104000000Y-63000000D01*
X110500000Y-63000000D02*
X112963000Y-63000000D01*
X112963000Y-63000000D02*
X113474000Y-62489000D01*
X113474000Y-62489000D02*
X113474000Y-59441000D01*
X114083600Y-58831400D02*
X115874300Y-58831400D01*
X113474000Y-59441000D02*
X114083600Y-58831400D01*
X88709000Y-62997000D02*
X103997000Y-62997000D01*
X103997000Y-62997000D02*
X104000000Y-63000000D01*
X104711000Y-58806000D02*
X102615999Y-56710999D01*
X102615999Y-56710999D02*
X99377000Y-53472000D01*
X87656000Y-53472000D02*
X87566000Y-53562000D01*
X99377000Y-53472000D02*
X87656000Y-53472000D01*
X104711000Y-57536000D02*
X113728000Y-57536000D01*
X113728000Y-57536000D02*
X113982000Y-57282000D01*
X113982000Y-57282000D02*
X113982000Y-56520000D01*
X114210600Y-56291400D02*
X115874300Y-56291400D01*
X113982000Y-56520000D02*
X114210600Y-56291400D01*
X104711000Y-57536000D02*
X100012000Y-52837000D01*
X86550000Y-52837000D02*
X86423000Y-52964000D01*
X100012000Y-52837000D02*
X86550000Y-52837000D01*
X104672900Y-56266000D02*
X112826300Y-56266000D01*
X112826300Y-56266000D02*
X113321600Y-55770700D01*
X113321600Y-55770700D02*
X113321600Y-51782900D01*
X113893100Y-51211400D02*
X115874300Y-51211400D01*
X113321600Y-51782900D02*
X113893100Y-51211400D01*
X85661000Y-52202000D02*
X85655000Y-52208000D01*
X100608900Y-52202000D02*
X85661000Y-52202000D01*
X104672900Y-56266000D02*
X100608900Y-52202000D01*
X69080000Y-67600000D02*
X69080000Y-65420000D01*
X69080000Y-65420000D02*
X69500000Y-65000000D01*
X69500000Y-65000000D02*
X80000000Y-65000000D01*
X80000000Y-65000000D02*
X81500000Y-63500000D01*
X88360999Y-62271999D02*
X92271999Y-62271999D01*
X87132998Y-63500000D02*
X88360999Y-62271999D01*
X81500000Y-63500000D02*
X87132998Y-63500000D01*
X92500000Y-62043998D02*
X92500000Y-61475000D01*
X92271999Y-62271999D02*
X92500000Y-62043998D01*
X91500000Y-61475000D02*
X88521588Y-61475000D01*
X86946598Y-63049990D02*
X81313600Y-63049990D01*
X88521588Y-61475000D02*
X86946598Y-63049990D01*
X81313600Y-63049990D02*
X79863590Y-64500000D01*
X79863590Y-64500000D02*
X67000000Y-64500000D01*
X66540000Y-64960000D02*
X66540000Y-67600000D01*
X67000000Y-64500000D02*
X66540000Y-64960000D01*
X64000000Y-50000000D02*
X65500000Y-48500000D01*
X65500000Y-48500000D02*
X88774990Y-48500000D01*
X64000000Y-51000000D02*
X64000000Y-50000000D01*
X88774990Y-48500000D02*
X89000000Y-48274990D01*
X66025306Y-49000000D02*
X65012653Y-50012653D01*
X89500000Y-49000000D02*
X66025306Y-49000000D01*
X90000000Y-48500000D02*
X89500000Y-49000000D01*
X39745000Y-53755000D02*
X30995000Y-53755000D01*
X40000000Y-53500000D02*
X39745000Y-53755000D01*
X80500000Y-52500000D02*
X81000000Y-52000000D01*
X53000000Y-52500000D02*
X80500000Y-52500000D01*
X52000000Y-51500000D02*
X53000000Y-52500000D01*
X79774990Y-53000000D02*
X80000000Y-53225010D01*
X52000000Y-53000000D02*
X79774990Y-53000000D01*
X89580000Y-60750000D02*
X88250000Y-60750000D01*
X86400020Y-62599980D02*
X80900020Y-62599980D01*
X88250000Y-60750000D02*
X86400020Y-62599980D01*
X80900020Y-62599980D02*
X80000000Y-63500000D01*
X80000000Y-63500000D02*
X54000000Y-63500000D01*
X52920000Y-64580000D02*
X52920000Y-67500000D01*
X54000000Y-63500000D02*
X52920000Y-64580000D01*
X54000000Y-63000000D02*
X53500000Y-62500000D01*
X82188591Y-60674999D02*
X79863590Y-63000000D01*
X79863590Y-63000000D02*
X54000000Y-63000000D01*
X85175031Y-60674999D02*
X82188591Y-60674999D01*
X88350030Y-57500000D02*
X85175031Y-60674999D01*
X90500000Y-57500000D02*
X88350030Y-57500000D01*
D20*
X71159687Y-40678411D02*
X71005941Y-40760589D01*
X71005939Y-40760590D01*
X71005940Y-40760590D01*
X70904953Y-40843468D01*
X70904951Y-40843470D01*
X70871183Y-40871183D01*
X70843470Y-40904951D01*
X67838072Y-43910350D01*
X67838072Y-43800000D01*
X67825812Y-43675518D01*
X67789502Y-43555820D01*
X67730537Y-43445506D01*
X67651185Y-43348815D01*
X67554494Y-43269463D01*
X67444180Y-43210498D01*
X67324482Y-43174188D01*
X67200000Y-43161928D01*
X64800000Y-43161928D01*
X64675518Y-43174188D01*
X64555820Y-43210498D01*
X64445506Y-43269463D01*
X64348815Y-43348815D01*
X64269463Y-43445506D01*
X64210498Y-43555820D01*
X64174188Y-43675518D01*
X64161928Y-43800000D01*
X64161928Y-44206903D01*
X64062836Y-44021514D01*
X63777980Y-43901626D01*
X62679605Y-45000000D01*
X63777980Y-46098374D01*
X64062836Y-45978486D01*
X64161928Y-45779088D01*
X64161928Y-46200000D01*
X64174188Y-46324482D01*
X64210498Y-46444180D01*
X64269463Y-46554494D01*
X64348815Y-46651185D01*
X64445506Y-46730537D01*
X64555820Y-46789502D01*
X64675518Y-46825812D01*
X64800000Y-46838072D01*
X67200000Y-46838072D01*
X67324482Y-46825812D01*
X67444180Y-46789502D01*
X67554494Y-46730537D01*
X67651185Y-46651185D01*
X67730537Y-46554494D01*
X67789502Y-46444180D01*
X67825812Y-46324482D01*
X67830391Y-46277980D01*
X85401626Y-46277980D01*
X85521514Y-46562836D01*
X85845210Y-46723699D01*
X86194069Y-46818322D01*
X86554684Y-46843067D01*
X86913198Y-46796985D01*
X87255833Y-46681846D01*
X87478486Y-46562836D01*
X87598374Y-46277980D01*
X86500000Y-45179605D01*
X85401626Y-46277980D01*
X67830391Y-46277980D01*
X67838072Y-46200000D01*
X67838072Y-45885000D01*
X67956531Y-45885000D01*
X68000000Y-45889281D01*
X68043469Y-45885000D01*
X68043477Y-45885000D01*
X68173490Y-45872195D01*
X68340313Y-45821589D01*
X68494059Y-45739411D01*
X68628817Y-45628817D01*
X68656534Y-45595044D01*
X69196894Y-45054684D01*
X84656933Y-45054684D01*
X84703015Y-45413198D01*
X84818154Y-45755833D01*
X84937164Y-45978486D01*
X85222020Y-46098374D01*
X86320395Y-45000000D01*
X86679605Y-45000000D01*
X87777980Y-46098374D01*
X88062836Y-45978486D01*
X88161928Y-45779088D01*
X88161928Y-46200000D01*
X88174188Y-46324482D01*
X88210498Y-46444180D01*
X88269463Y-46554494D01*
X88348815Y-46651185D01*
X88445506Y-46730537D01*
X88555820Y-46789502D01*
X88675518Y-46825812D01*
X88800000Y-46838072D01*
X91200000Y-46838072D01*
X91324482Y-46825812D01*
X91444180Y-46789502D01*
X91554494Y-46730537D01*
X91651185Y-46651185D01*
X91730537Y-46554494D01*
X91789502Y-46444180D01*
X91825812Y-46324482D01*
X91838072Y-46200000D01*
X91838072Y-43800000D01*
X91825812Y-43675518D01*
X91789502Y-43555820D01*
X91730537Y-43445506D01*
X91651185Y-43348815D01*
X91554494Y-43269463D01*
X91444180Y-43210498D01*
X91324482Y-43174188D01*
X91200000Y-43161928D01*
X88800000Y-43161928D01*
X88675518Y-43174188D01*
X88555820Y-43210498D01*
X88445506Y-43269463D01*
X88348815Y-43348815D01*
X88269463Y-43445506D01*
X88210498Y-43555820D01*
X88174188Y-43675518D01*
X88161928Y-43800000D01*
X88161928Y-44206903D01*
X88062836Y-44021514D01*
X87777980Y-43901626D01*
X86679605Y-45000000D01*
X86320395Y-45000000D01*
X85222020Y-43901626D01*
X84937164Y-44021514D01*
X84776301Y-44345210D01*
X84681678Y-44694069D01*
X84656933Y-45054684D01*
X69196894Y-45054684D01*
X70529558Y-43722020D01*
X85401626Y-43722020D01*
X86500000Y-44820395D01*
X87598374Y-43722020D01*
X87478486Y-43437164D01*
X87154790Y-43276301D01*
X86805931Y-43181678D01*
X86445316Y-43156933D01*
X86086802Y-43203015D01*
X85744167Y-43318154D01*
X85521514Y-43437164D01*
X85401626Y-43722020D01*
X70529558Y-43722020D01*
X71866579Y-42385000D01*
X105633422Y-42385000D01*
X107615000Y-44366579D01*
X107615001Y-46437889D01*
X107560150Y-46454528D01*
X107406614Y-46536595D01*
X107272038Y-46647038D01*
X107161595Y-46781614D01*
X107107223Y-46883337D01*
X107055134Y-46819866D01*
X106829014Y-46634294D01*
X106571034Y-46496401D01*
X106291111Y-46411487D01*
X106000000Y-46382815D01*
X105708890Y-46411487D01*
X105428967Y-46496401D01*
X105170987Y-46634294D01*
X104944866Y-46819866D01*
X104759294Y-47045986D01*
X104750000Y-47063374D01*
X104740706Y-47045986D01*
X104555134Y-46819866D01*
X104329014Y-46634294D01*
X104071034Y-46496401D01*
X103791111Y-46411487D01*
X103500000Y-46382815D01*
X103208890Y-46411487D01*
X102928967Y-46496401D01*
X102670987Y-46634294D01*
X102444866Y-46819866D01*
X102259294Y-47045986D01*
X102245538Y-47071722D01*
X102089049Y-46865571D01*
X101871193Y-46672504D01*
X101619858Y-46525648D01*
X101356890Y-46433524D01*
X101127000Y-46554845D01*
X101127000Y-47873000D01*
X101147000Y-47873000D01*
X101147000Y-48127000D01*
X101127000Y-48127000D01*
X101127000Y-49445155D01*
X101356890Y-49566476D01*
X101619858Y-49474352D01*
X101871193Y-49327496D01*
X102089049Y-49134429D01*
X102245538Y-48928278D01*
X102259294Y-48954013D01*
X102444866Y-49180134D01*
X102670986Y-49365706D01*
X102928966Y-49503599D01*
X103208889Y-49588513D01*
X103500000Y-49617185D01*
X103791110Y-49588513D01*
X104071033Y-49503599D01*
X104329013Y-49365706D01*
X104555134Y-49180134D01*
X104740706Y-48954014D01*
X104750000Y-48936626D01*
X104759294Y-48954013D01*
X104944866Y-49180134D01*
X105170986Y-49365706D01*
X105428966Y-49503599D01*
X105708889Y-49588513D01*
X106000000Y-49617185D01*
X106291110Y-49588513D01*
X106571033Y-49503599D01*
X106829013Y-49365706D01*
X107055134Y-49180134D01*
X107107223Y-49116663D01*
X107161595Y-49218386D01*
X107272038Y-49352962D01*
X107406614Y-49463405D01*
X107560150Y-49545472D01*
X107726746Y-49596008D01*
X107900000Y-49613072D01*
X109100000Y-49613072D01*
X109273254Y-49596008D01*
X109439850Y-49545472D01*
X109593386Y-49463405D01*
X109727962Y-49352962D01*
X109838405Y-49218386D01*
X109920472Y-49064850D01*
X109971008Y-48898254D01*
X109988072Y-48725000D01*
X109988072Y-47275000D01*
X109971008Y-47101746D01*
X109920472Y-46935150D01*
X109838405Y-46781614D01*
X109727962Y-46647038D01*
X109593386Y-46536595D01*
X109439850Y-46454528D01*
X109385000Y-46437890D01*
X109385000Y-46096468D01*
X114083137Y-46096468D01*
X114341298Y-46499073D01*
X114860715Y-46774651D01*
X115423913Y-46943601D01*
X116009250Y-46999430D01*
X116594233Y-46939992D01*
X117156379Y-46767571D01*
X117658702Y-46499073D01*
X117916863Y-46096468D01*
X116000000Y-44179605D01*
X114083137Y-46096468D01*
X109385000Y-46096468D01*
X109385000Y-44043469D01*
X109388370Y-44009250D01*
X113000570Y-44009250D01*
X113060008Y-44594233D01*
X113232429Y-45156379D01*
X113500927Y-45658702D01*
X113903532Y-45916863D01*
X115820395Y-44000000D01*
X116179605Y-44000000D01*
X118096468Y-45916863D01*
X118499073Y-45658702D01*
X118774651Y-45139285D01*
X118943601Y-44576087D01*
X118999430Y-43990750D01*
X118939992Y-43405767D01*
X118767571Y-42843621D01*
X118499073Y-42341298D01*
X118096468Y-42083137D01*
X116179605Y-44000000D01*
X115820395Y-44000000D01*
X113903532Y-42083137D01*
X113500927Y-42341298D01*
X113225349Y-42860715D01*
X113056399Y-43423913D01*
X113000570Y-44009250D01*
X109388370Y-44009250D01*
X109389281Y-44000000D01*
X109385000Y-43956531D01*
X109385000Y-43956523D01*
X109372195Y-43826510D01*
X109321589Y-43659687D01*
X109239411Y-43505941D01*
X109128817Y-43371183D01*
X109095050Y-43343471D01*
X107655111Y-41903532D01*
X114083137Y-41903532D01*
X116000000Y-43820395D01*
X117916863Y-41903532D01*
X117658702Y-41500927D01*
X117139285Y-41225349D01*
X116576087Y-41056399D01*
X115990750Y-41000570D01*
X115405767Y-41060008D01*
X114843621Y-41232429D01*
X114341298Y-41500927D01*
X114083137Y-41903532D01*
X107655111Y-41903532D01*
X106656534Y-40904956D01*
X106628817Y-40871183D01*
X106494059Y-40760589D01*
X106340313Y-40678411D01*
X106279621Y-40660000D01*
X119340000Y-40660000D01*
X119340001Y-69340000D01*
X25660000Y-69340000D01*
X25660000Y-68096468D01*
X27083137Y-68096468D01*
X27341298Y-68499073D01*
X27860715Y-68774651D01*
X28423913Y-68943601D01*
X29009250Y-68999430D01*
X29594233Y-68939992D01*
X30156379Y-68767571D01*
X30658702Y-68499073D01*
X30916863Y-68096468D01*
X29000000Y-66179605D01*
X27083137Y-68096468D01*
X25660000Y-68096468D01*
X25660000Y-66009250D01*
X26000570Y-66009250D01*
X26060008Y-66594233D01*
X26232429Y-67156379D01*
X26500927Y-67658702D01*
X26903532Y-67916863D01*
X28820395Y-66000000D01*
X29179605Y-66000000D01*
X31096468Y-67916863D01*
X31499073Y-67658702D01*
X31774651Y-67139285D01*
X31921428Y-66650000D01*
X41511928Y-66650000D01*
X41511928Y-68350000D01*
X41524188Y-68474482D01*
X41560498Y-68594180D01*
X41619463Y-68704494D01*
X41698815Y-68801185D01*
X41795506Y-68880537D01*
X41905820Y-68939502D01*
X42025518Y-68975812D01*
X42150000Y-68988072D01*
X43850000Y-68988072D01*
X43974482Y-68975812D01*
X44094180Y-68939502D01*
X44204494Y-68880537D01*
X44301185Y-68801185D01*
X44380537Y-68704494D01*
X44439502Y-68594180D01*
X44463966Y-68513534D01*
X44539731Y-68597588D01*
X44773080Y-68771641D01*
X45035901Y-68896825D01*
X45183110Y-68941476D01*
X45413000Y-68820155D01*
X45413000Y-67627000D01*
X45667000Y-67627000D01*
X45667000Y-68820155D01*
X45896890Y-68941476D01*
X46044099Y-68896825D01*
X46306920Y-68771641D01*
X46540269Y-68597588D01*
X46735178Y-68381355D01*
X46884157Y-68131252D01*
X46981481Y-67856891D01*
X46860814Y-67627000D01*
X45667000Y-67627000D01*
X45413000Y-67627000D01*
X45393000Y-67627000D01*
X45393000Y-67373000D01*
X45413000Y-67373000D01*
X45413000Y-66179845D01*
X45667000Y-66179845D01*
X45667000Y-67373000D01*
X46860814Y-67373000D01*
X46981481Y-67143109D01*
X46884157Y-66868748D01*
X46753856Y-66650000D01*
X51431928Y-66650000D01*
X51431928Y-68350000D01*
X51444188Y-68474482D01*
X51480498Y-68594180D01*
X51539463Y-68704494D01*
X51618815Y-68801185D01*
X51715506Y-68880537D01*
X51825820Y-68939502D01*
X51945518Y-68975812D01*
X52070000Y-68988072D01*
X53770000Y-68988072D01*
X53894482Y-68975812D01*
X54014180Y-68939502D01*
X54124494Y-68880537D01*
X54221185Y-68801185D01*
X54300537Y-68704494D01*
X54359502Y-68594180D01*
X54381513Y-68521620D01*
X54513368Y-68653475D01*
X54756589Y-68815990D01*
X55026842Y-68927932D01*
X55313740Y-68985000D01*
X55606260Y-68985000D01*
X55893158Y-68927932D01*
X56163411Y-68815990D01*
X56406632Y-68653475D01*
X56613475Y-68446632D01*
X56735195Y-68264466D01*
X56804822Y-68381355D01*
X56999731Y-68597588D01*
X57233080Y-68771641D01*
X57495901Y-68896825D01*
X57643110Y-68941476D01*
X57873000Y-68820155D01*
X57873000Y-67627000D01*
X58127000Y-67627000D01*
X58127000Y-68820155D01*
X58356890Y-68941476D01*
X58504099Y-68896825D01*
X58766920Y-68771641D01*
X59000269Y-68597588D01*
X59195178Y-68381355D01*
X59344157Y-68131252D01*
X59441481Y-67856891D01*
X59320814Y-67627000D01*
X58127000Y-67627000D01*
X57873000Y-67627000D01*
X57853000Y-67627000D01*
X57853000Y-67373000D01*
X57873000Y-67373000D01*
X57873000Y-66179845D01*
X58127000Y-66179845D01*
X58127000Y-67373000D01*
X59320814Y-67373000D01*
X59441481Y-67143109D01*
X59344157Y-66868748D01*
X59195178Y-66618645D01*
X59000269Y-66402412D01*
X58766920Y-66228359D01*
X58504099Y-66103175D01*
X58356890Y-66058524D01*
X58127000Y-66179845D01*
X57873000Y-66179845D01*
X57643110Y-66058524D01*
X57495901Y-66103175D01*
X57233080Y-66228359D01*
X56999731Y-66402412D01*
X56804822Y-66618645D01*
X56735195Y-66735534D01*
X56613475Y-66553368D01*
X56406632Y-66346525D01*
X56163411Y-66184010D01*
X55893158Y-66072068D01*
X55606260Y-66015000D01*
X55313740Y-66015000D01*
X55026842Y-66072068D01*
X54756589Y-66184010D01*
X54513368Y-66346525D01*
X54381513Y-66478380D01*
X54359502Y-66405820D01*
X54300537Y-66295506D01*
X54221185Y-66198815D01*
X54124494Y-66119463D01*
X54014180Y-66060498D01*
X53894482Y-66024188D01*
X53770000Y-66011928D01*
X53680000Y-66011928D01*
X53680000Y-64894801D01*
X54314802Y-64260000D01*
X66165199Y-64260000D01*
X66029003Y-64396196D01*
X65999999Y-64419999D01*
X65944871Y-64487174D01*
X65905026Y-64535724D01*
X65881360Y-64580000D01*
X65834454Y-64667754D01*
X65790997Y-64811015D01*
X65780000Y-64922668D01*
X65780000Y-64922678D01*
X65776324Y-64960000D01*
X65780000Y-64997323D01*
X65780000Y-66221821D01*
X65593368Y-66346525D01*
X65461513Y-66478380D01*
X65439502Y-66405820D01*
X65380537Y-66295506D01*
X65301185Y-66198815D01*
X65204494Y-66119463D01*
X65094180Y-66060498D01*
X64974482Y-66024188D01*
X64850000Y-66011928D01*
X63150000Y-66011928D01*
X63025518Y-66024188D01*
X62905820Y-66060498D01*
X62795506Y-66119463D01*
X62698815Y-66198815D01*
X62619463Y-66295506D01*
X62560498Y-66405820D01*
X62524188Y-66525518D01*
X62511928Y-66650000D01*
X62511928Y-68350000D01*
X62524188Y-68474482D01*
X62560498Y-68594180D01*
X62619463Y-68704494D01*
X62698815Y-68801185D01*
X62795506Y-68880537D01*
X62905820Y-68939502D01*
X63025518Y-68975812D01*
X63150000Y-68988072D01*
X64850000Y-68988072D01*
X64974482Y-68975812D01*
X65094180Y-68939502D01*
X65204494Y-68880537D01*
X65301185Y-68801185D01*
X65380537Y-68704494D01*
X65439502Y-68594180D01*
X65461513Y-68521620D01*
X65593368Y-68653475D01*
X65836589Y-68815990D01*
X66106842Y-68927932D01*
X66393740Y-68985000D01*
X66686260Y-68985000D01*
X66973158Y-68927932D01*
X67243411Y-68815990D01*
X67486632Y-68653475D01*
X67693475Y-68446632D01*
X67810000Y-68272240D01*
X67926525Y-68446632D01*
X68133368Y-68653475D01*
X68376589Y-68815990D01*
X68646842Y-68927932D01*
X68933740Y-68985000D01*
X69226260Y-68985000D01*
X69513158Y-68927932D01*
X69783411Y-68815990D01*
X70026632Y-68653475D01*
X70233475Y-68446632D01*
X70350000Y-68272240D01*
X70466525Y-68446632D01*
X70673368Y-68653475D01*
X70916589Y-68815990D01*
X71186842Y-68927932D01*
X71473740Y-68985000D01*
X71766260Y-68985000D01*
X72053158Y-68927932D01*
X72323411Y-68815990D01*
X72566632Y-68653475D01*
X72773475Y-68446632D01*
X72890000Y-68272240D01*
X73006525Y-68446632D01*
X73213368Y-68653475D01*
X73456589Y-68815990D01*
X73726842Y-68927932D01*
X74013740Y-68985000D01*
X74306260Y-68985000D01*
X74593158Y-68927932D01*
X74863411Y-68815990D01*
X75106632Y-68653475D01*
X75313475Y-68446632D01*
X75435195Y-68264466D01*
X75504822Y-68381355D01*
X75699731Y-68597588D01*
X75933080Y-68771641D01*
X76195901Y-68896825D01*
X76343110Y-68941476D01*
X76573000Y-68820155D01*
X76573000Y-67627000D01*
X76827000Y-67627000D01*
X76827000Y-68820155D01*
X77056890Y-68941476D01*
X77204099Y-68896825D01*
X77466920Y-68771641D01*
X77649557Y-68635413D01*
X103044192Y-68635413D01*
X103139956Y-68899814D01*
X103429571Y-69040704D01*
X103741108Y-69122384D01*
X104062595Y-69141718D01*
X104381675Y-69097961D01*
X104686088Y-68992795D01*
X104860044Y-68899814D01*
X104955808Y-68635413D01*
X109544192Y-68635413D01*
X109639956Y-68899814D01*
X109929571Y-69040704D01*
X110241108Y-69122384D01*
X110562595Y-69141718D01*
X110881675Y-69097961D01*
X111186088Y-68992795D01*
X111360044Y-68899814D01*
X111455808Y-68635413D01*
X110500000Y-67679605D01*
X109544192Y-68635413D01*
X104955808Y-68635413D01*
X104000000Y-67679605D01*
X103044192Y-68635413D01*
X77649557Y-68635413D01*
X77700269Y-68597588D01*
X77895178Y-68381355D01*
X78044157Y-68131252D01*
X78141481Y-67856891D01*
X78020814Y-67627000D01*
X76827000Y-67627000D01*
X76573000Y-67627000D01*
X76553000Y-67627000D01*
X76553000Y-67562595D01*
X102358282Y-67562595D01*
X102402039Y-67881675D01*
X102507205Y-68186088D01*
X102600186Y-68360044D01*
X102864587Y-68455808D01*
X103820395Y-67500000D01*
X104179605Y-67500000D01*
X105135413Y-68455808D01*
X105399814Y-68360044D01*
X105540704Y-68070429D01*
X105622384Y-67758892D01*
X105634189Y-67562595D01*
X108858282Y-67562595D01*
X108902039Y-67881675D01*
X109007205Y-68186088D01*
X109100186Y-68360044D01*
X109364587Y-68455808D01*
X110320395Y-67500000D01*
X110679605Y-67500000D01*
X111635413Y-68455808D01*
X111899814Y-68360044D01*
X112028036Y-68096468D01*
X114083137Y-68096468D01*
X114341298Y-68499073D01*
X114860715Y-68774651D01*
X115423913Y-68943601D01*
X116009250Y-68999430D01*
X116594233Y-68939992D01*
X117156379Y-68767571D01*
X117658702Y-68499073D01*
X117916863Y-68096468D01*
X116000000Y-66179605D01*
X114083137Y-68096468D01*
X112028036Y-68096468D01*
X112040704Y-68070429D01*
X112122384Y-67758892D01*
X112141718Y-67437405D01*
X112097961Y-67118325D01*
X111992795Y-66813912D01*
X111899814Y-66639956D01*
X111635413Y-66544192D01*
X110679605Y-67500000D01*
X110320395Y-67500000D01*
X109364587Y-66544192D01*
X109100186Y-66639956D01*
X108959296Y-66929571D01*
X108877616Y-67241108D01*
X108858282Y-67562595D01*
X105634189Y-67562595D01*
X105641718Y-67437405D01*
X105597961Y-67118325D01*
X105492795Y-66813912D01*
X105399814Y-66639956D01*
X105135413Y-66544192D01*
X104179605Y-67500000D01*
X103820395Y-67500000D01*
X102864587Y-66544192D01*
X102600186Y-66639956D01*
X102459296Y-66929571D01*
X102377616Y-67241108D01*
X102358282Y-67562595D01*
X76553000Y-67562595D01*
X76553000Y-67373000D01*
X76573000Y-67373000D01*
X76573000Y-66179845D01*
X76827000Y-66179845D01*
X76827000Y-67373000D01*
X78020814Y-67373000D01*
X78141481Y-67143109D01*
X78044157Y-66868748D01*
X77895178Y-66618645D01*
X77700269Y-66402412D01*
X77649558Y-66364587D01*
X103044192Y-66364587D01*
X104000000Y-67320395D01*
X104955808Y-66364587D01*
X109544192Y-66364587D01*
X110500000Y-67320395D01*
X111455808Y-66364587D01*
X111360044Y-66100186D01*
X111173115Y-66009250D01*
X113000570Y-66009250D01*
X113060008Y-66594233D01*
X113232429Y-67156379D01*
X113500927Y-67658702D01*
X113903532Y-67916863D01*
X115820395Y-66000000D01*
X116179605Y-66000000D01*
X118096468Y-67916863D01*
X118499073Y-67658702D01*
X118774651Y-67139285D01*
X118943601Y-66576087D01*
X118999430Y-65990750D01*
X118939992Y-65405767D01*
X118767571Y-64843621D01*
X118499073Y-64341298D01*
X118096468Y-64083137D01*
X116179605Y-66000000D01*
X115820395Y-66000000D01*
X113903532Y-64083137D01*
X113500927Y-64341298D01*
X113225349Y-64860715D01*
X113056399Y-65423913D01*
X113000570Y-66009250D01*
X111173115Y-66009250D01*
X111070429Y-65959296D01*
X110758892Y-65877616D01*
X110437405Y-65858282D01*
X110118325Y-65902039D01*
X109813912Y-66007205D01*
X109639956Y-66100186D01*
X109544192Y-66364587D01*
X104955808Y-66364587D01*
X104860044Y-66100186D01*
X104570429Y-65959296D01*
X104258892Y-65877616D01*
X103937405Y-65858282D01*
X103618325Y-65902039D01*
X103313912Y-66007205D01*
X103139956Y-66100186D01*
X103044192Y-66364587D01*
X77649558Y-66364587D01*
X77466920Y-66228359D01*
X77204099Y-66103175D01*
X77056890Y-66058524D01*
X76827000Y-66179845D01*
X76573000Y-66179845D01*
X76343110Y-66058524D01*
X76195901Y-66103175D01*
X75933080Y-66228359D01*
X75699731Y-66402412D01*
X75504822Y-66618645D01*
X75435195Y-66735534D01*
X75313475Y-66553368D01*
X75106632Y-66346525D01*
X74863411Y-66184010D01*
X74593158Y-66072068D01*
X74306260Y-66015000D01*
X74013740Y-66015000D01*
X73726842Y-66072068D01*
X73456589Y-66184010D01*
X73213368Y-66346525D01*
X73006525Y-66553368D01*
X72890000Y-66727760D01*
X72773475Y-66553368D01*
X72566632Y-66346525D01*
X72323411Y-66184010D01*
X72053158Y-66072068D01*
X71766260Y-66015000D01*
X71473740Y-66015000D01*
X71186842Y-66072068D01*
X70916589Y-66184010D01*
X70673368Y-66346525D01*
X70466525Y-66553368D01*
X70350000Y-66727760D01*
X70233475Y-66553368D01*
X70026632Y-66346525D01*
X69840000Y-66221822D01*
X69840000Y-65760000D01*
X79962678Y-65760000D01*
X80000000Y-65763676D01*
X80037322Y-65760000D01*
X80037333Y-65760000D01*
X80148986Y-65749003D01*
X80292247Y-65705546D01*
X80424276Y-65634974D01*
X80540001Y-65540001D01*
X80563804Y-65510997D01*
X81814802Y-64260000D01*
X87095676Y-64260000D01*
X87132998Y-64263676D01*
X87170320Y-64260000D01*
X87170331Y-64260000D01*
X87281984Y-64249003D01*
X87425245Y-64205546D01*
X87557274Y-64134974D01*
X87672999Y-64040001D01*
X87696802Y-64010997D01*
X87978044Y-63729755D01*
X88049226Y-63800937D01*
X88218744Y-63914205D01*
X88407102Y-63992226D01*
X88607061Y-64032000D01*
X88810939Y-64032000D01*
X89010898Y-63992226D01*
X89199256Y-63914205D01*
X89368774Y-63800937D01*
X89412711Y-63757000D01*
X102543849Y-63757000D01*
X102551082Y-63774463D01*
X102730013Y-64042252D01*
X102957748Y-64269987D01*
X103225537Y-64448918D01*
X103523088Y-64572168D01*
X103838967Y-64635000D01*
X104161033Y-64635000D01*
X104476912Y-64572168D01*
X104774463Y-64448918D01*
X105042252Y-64269987D01*
X105269987Y-64042252D01*
X105448918Y-63774463D01*
X105454909Y-63760000D01*
X109045091Y-63760000D01*
X109051082Y-63774463D01*
X109230013Y-64042252D01*
X109457748Y-64269987D01*
X109725537Y-64448918D01*
X110023088Y-64572168D01*
X110338967Y-64635000D01*
X110661033Y-64635000D01*
X110976912Y-64572168D01*
X111274463Y-64448918D01*
X111542252Y-64269987D01*
X111769987Y-64042252D01*
X111862676Y-63903532D01*
X114083137Y-63903532D01*
X116000000Y-65820395D01*
X117916863Y-63903532D01*
X117658702Y-63500927D01*
X117139285Y-63225349D01*
X116576087Y-63056399D01*
X115990750Y-63000570D01*
X115405767Y-63060008D01*
X114843621Y-63232429D01*
X114341298Y-63500927D01*
X114083137Y-63903532D01*
X111862676Y-63903532D01*
X111948918Y-63774463D01*
X111954909Y-63760000D01*
X112925678Y-63760000D01*
X112963000Y-63763676D01*
X113000322Y-63760000D01*
X113000333Y-63760000D01*
X113111986Y-63749003D01*
X113255247Y-63705546D01*
X113387276Y-63634974D01*
X113503001Y-63540001D01*
X113526804Y-63510997D01*
X113984998Y-63052803D01*
X114014001Y-63029001D01*
X114099947Y-62924276D01*
X114108974Y-62913277D01*
X114179546Y-62781247D01*
X114201839Y-62707754D01*
X114223003Y-62637986D01*
X114234000Y-62526333D01*
X114234000Y-62526324D01*
X114237676Y-62489001D01*
X114234000Y-62451678D01*
X114234000Y-59755801D01*
X114398402Y-59591400D01*
X114596122Y-59591400D01*
X114720825Y-59778032D01*
X114927668Y-59984875D01*
X115102060Y-60101400D01*
X114927668Y-60217925D01*
X114720825Y-60424768D01*
X114558310Y-60667989D01*
X114446368Y-60938242D01*
X114389300Y-61225140D01*
X114389300Y-61517660D01*
X114446368Y-61804558D01*
X114558310Y-62074811D01*
X114720825Y-62318032D01*
X114927668Y-62524875D01*
X115170889Y-62687390D01*
X115441142Y-62799332D01*
X115728040Y-62856400D01*
X116020560Y-62856400D01*
X116307458Y-62799332D01*
X116577711Y-62687390D01*
X116820932Y-62524875D01*
X117027775Y-62318032D01*
X117190290Y-62074811D01*
X117302232Y-61804558D01*
X117359300Y-61517660D01*
X117359300Y-61225140D01*
X117302232Y-60938242D01*
X117190290Y-60667989D01*
X117027775Y-60424768D01*
X116820932Y-60217925D01*
X116646540Y-60101400D01*
X116820932Y-59984875D01*
X117027775Y-59778032D01*
X117190290Y-59534811D01*
X117302232Y-59264558D01*
X117359300Y-58977660D01*
X117359300Y-58685140D01*
X117302232Y-58398242D01*
X117190290Y-58127989D01*
X117027775Y-57884768D01*
X116820932Y-57677925D01*
X116646540Y-57561400D01*
X116820932Y-57444875D01*
X117027775Y-57238032D01*
X117190290Y-56994811D01*
X117302232Y-56724558D01*
X117359300Y-56437660D01*
X117359300Y-56145140D01*
X117302232Y-55858242D01*
X117190290Y-55587989D01*
X117027775Y-55344768D01*
X116820932Y-55137925D01*
X116638766Y-55016205D01*
X116755655Y-54946578D01*
X116971888Y-54751669D01*
X117145941Y-54518320D01*
X117271125Y-54255499D01*
X117315776Y-54108290D01*
X117194455Y-53878400D01*
X116001300Y-53878400D01*
X116001300Y-53898400D01*
X115747300Y-53898400D01*
X115747300Y-53878400D01*
X114554145Y-53878400D01*
X114432824Y-54108290D01*
X114477475Y-54255499D01*
X114602659Y-54518320D01*
X114776712Y-54751669D01*
X114992945Y-54946578D01*
X115109834Y-55016205D01*
X114927668Y-55137925D01*
X114720825Y-55344768D01*
X114596122Y-55531400D01*
X114247922Y-55531400D01*
X114210599Y-55527724D01*
X114173276Y-55531400D01*
X114173267Y-55531400D01*
X114081600Y-55540429D01*
X114081600Y-52097701D01*
X114207902Y-51971400D01*
X114596122Y-51971400D01*
X114720825Y-52158032D01*
X114927668Y-52364875D01*
X115109834Y-52486595D01*
X114992945Y-52556222D01*
X114776712Y-52751131D01*
X114602659Y-52984480D01*
X114477475Y-53247301D01*
X114432824Y-53394510D01*
X114554145Y-53624400D01*
X115747300Y-53624400D01*
X115747300Y-53604400D01*
X116001300Y-53604400D01*
X116001300Y-53624400D01*
X117194455Y-53624400D01*
X117315776Y-53394510D01*
X117271125Y-53247301D01*
X117145941Y-52984480D01*
X116971888Y-52751131D01*
X116755655Y-52556222D01*
X116638766Y-52486595D01*
X116820932Y-52364875D01*
X117027775Y-52158032D01*
X117190290Y-51914811D01*
X117302232Y-51644558D01*
X117359300Y-51357660D01*
X117359300Y-51065140D01*
X117302232Y-50778242D01*
X117190290Y-50507989D01*
X117027775Y-50264768D01*
X116895920Y-50132913D01*
X116968480Y-50110902D01*
X117078794Y-50051937D01*
X117175485Y-49972585D01*
X117254837Y-49875894D01*
X117313802Y-49765580D01*
X117350112Y-49645882D01*
X117362372Y-49521400D01*
X117362372Y-47821400D01*
X117350112Y-47696918D01*
X117313802Y-47577220D01*
X117254837Y-47466906D01*
X117175485Y-47370215D01*
X117078794Y-47290863D01*
X116968480Y-47231898D01*
X116848782Y-47195588D01*
X116724300Y-47183328D01*
X115024300Y-47183328D01*
X114899818Y-47195588D01*
X114780120Y-47231898D01*
X114669806Y-47290863D01*
X114573115Y-47370215D01*
X114493763Y-47466906D01*
X114434798Y-47577220D01*
X114398488Y-47696918D01*
X114386228Y-47821400D01*
X114386228Y-49521400D01*
X114398488Y-49645882D01*
X114434798Y-49765580D01*
X114493763Y-49875894D01*
X114573115Y-49972585D01*
X114669806Y-50051937D01*
X114780120Y-50110902D01*
X114852680Y-50132913D01*
X114720825Y-50264768D01*
X114596122Y-50451400D01*
X113930422Y-50451400D01*
X113893099Y-50447724D01*
X113855776Y-50451400D01*
X113855767Y-50451400D01*
X113744114Y-50462397D01*
X113610562Y-50502909D01*
X113600853Y-50505854D01*
X113468823Y-50576426D01*
X113397483Y-50634974D01*
X113353099Y-50671399D01*
X113329300Y-50700398D01*
X112810598Y-51219101D01*
X112781600Y-51242899D01*
X112757802Y-51271897D01*
X112757801Y-51271898D01*
X112686626Y-51358624D01*
X112616054Y-51490654D01*
X112590249Y-51575724D01*
X112572598Y-51633914D01*
X112562149Y-51740000D01*
X112557924Y-51782900D01*
X112561601Y-51820232D01*
X112561600Y-55455899D01*
X112511499Y-55506000D01*
X105376611Y-55506000D01*
X105332674Y-55462063D01*
X105163156Y-55348795D01*
X104974798Y-55270774D01*
X104774839Y-55231000D01*
X104712702Y-55231000D01*
X101172704Y-51691003D01*
X101148901Y-51661999D01*
X101033176Y-51567026D01*
X100901147Y-51496454D01*
X100757886Y-51452997D01*
X100646233Y-51442000D01*
X100646222Y-51442000D01*
X100608900Y-51438324D01*
X100571578Y-51442000D01*
X86352711Y-51442000D01*
X86314774Y-51404063D01*
X86145256Y-51290795D01*
X85956898Y-51212774D01*
X85756939Y-51173000D01*
X85553061Y-51173000D01*
X85353102Y-51212774D01*
X85164744Y-51290795D01*
X84995226Y-51404063D01*
X84851063Y-51548226D01*
X84737795Y-51717744D01*
X84659774Y-51906102D01*
X84620000Y-52106061D01*
X84620000Y-52309939D01*
X84659774Y-52509898D01*
X84737795Y-52698256D01*
X84851063Y-52867774D01*
X84995226Y-53011937D01*
X85164744Y-53125205D01*
X85353102Y-53203226D01*
X85417870Y-53216109D01*
X85427774Y-53265898D01*
X85505795Y-53454256D01*
X85619063Y-53623774D01*
X85763226Y-53767937D01*
X85932744Y-53881205D01*
X86121102Y-53959226D01*
X86321061Y-53999000D01*
X86524939Y-53999000D01*
X86618987Y-53980293D01*
X86648795Y-54052256D01*
X86762063Y-54221774D01*
X86906226Y-54365937D01*
X87075744Y-54479205D01*
X87264102Y-54557226D01*
X87464061Y-54597000D01*
X87667939Y-54597000D01*
X87867898Y-54557226D01*
X88056256Y-54479205D01*
X88225774Y-54365937D01*
X88359711Y-54232000D01*
X99062199Y-54232000D01*
X100512042Y-55681843D01*
X100509744Y-55682795D01*
X100340226Y-55796063D01*
X100196063Y-55940226D01*
X100082795Y-56109744D01*
X100004774Y-56298102D01*
X99965000Y-56498061D01*
X99965000Y-56701939D01*
X100004774Y-56901898D01*
X100082795Y-57090256D01*
X100196063Y-57259774D01*
X100340226Y-57403937D01*
X100509744Y-57517205D01*
X100698102Y-57595226D01*
X100898061Y-57635000D01*
X101101939Y-57635000D01*
X101301898Y-57595226D01*
X101490256Y-57517205D01*
X101659774Y-57403937D01*
X101803937Y-57259774D01*
X101917205Y-57090256D01*
X101918157Y-57087959D01*
X102104996Y-57274798D01*
X102105001Y-57274802D01*
X103676000Y-58845802D01*
X103676000Y-58907939D01*
X103715774Y-59107898D01*
X103793795Y-59296256D01*
X103907063Y-59465774D01*
X104051226Y-59609937D01*
X104220744Y-59723205D01*
X104409102Y-59801226D01*
X104609061Y-59841000D01*
X104812939Y-59841000D01*
X105012898Y-59801226D01*
X105201256Y-59723205D01*
X105370774Y-59609937D01*
X105514937Y-59465774D01*
X105628205Y-59296256D01*
X105706226Y-59107898D01*
X105746000Y-58907939D01*
X105746000Y-58704061D01*
X105706226Y-58504102D01*
X105628205Y-58315744D01*
X105615013Y-58296000D01*
X110114846Y-58296000D01*
X110016795Y-58442744D01*
X109938774Y-58631102D01*
X109899000Y-58831061D01*
X109899000Y-59034939D01*
X109938774Y-59234898D01*
X110016795Y-59423256D01*
X110130063Y-59592774D01*
X110274226Y-59736937D01*
X110443744Y-59850205D01*
X110632102Y-59928226D01*
X110832061Y-59968000D01*
X111035939Y-59968000D01*
X111235898Y-59928226D01*
X111424256Y-59850205D01*
X111593774Y-59736937D01*
X111737937Y-59592774D01*
X111851205Y-59423256D01*
X111929226Y-59234898D01*
X111969000Y-59034939D01*
X111969000Y-58831061D01*
X111929226Y-58631102D01*
X111851205Y-58442744D01*
X111753154Y-58296000D01*
X113539823Y-58296000D01*
X113519800Y-58320398D01*
X112962998Y-58877201D01*
X112934000Y-58900999D01*
X112910202Y-58929997D01*
X112910201Y-58929998D01*
X112839026Y-59016724D01*
X112768454Y-59148754D01*
X112724998Y-59292015D01*
X112710324Y-59441000D01*
X112714001Y-59478332D01*
X112714000Y-62174199D01*
X112648199Y-62240000D01*
X111954909Y-62240000D01*
X111948918Y-62225537D01*
X111769987Y-61957748D01*
X111542252Y-61730013D01*
X111274463Y-61551082D01*
X110976912Y-61427832D01*
X110661033Y-61365000D01*
X110338967Y-61365000D01*
X110023088Y-61427832D01*
X109725537Y-61551082D01*
X109457748Y-61730013D01*
X109230013Y-61957748D01*
X109051082Y-62225537D01*
X109045091Y-62240000D01*
X105454909Y-62240000D01*
X105448918Y-62225537D01*
X105269987Y-61957748D01*
X105042252Y-61730013D01*
X104774463Y-61551082D01*
X104476912Y-61427832D01*
X104161033Y-61365000D01*
X103838967Y-61365000D01*
X103523088Y-61427832D01*
X103225537Y-61551082D01*
X102957748Y-61730013D01*
X102730013Y-61957748D01*
X102551082Y-62225537D01*
X102546334Y-62237000D01*
X93235651Y-62237000D01*
X93249003Y-62192984D01*
X93249361Y-62189350D01*
X93303937Y-62134774D01*
X93417205Y-61965256D01*
X93495226Y-61776898D01*
X93535000Y-61576939D01*
X93535000Y-61373061D01*
X93495226Y-61173102D01*
X93417205Y-60984744D01*
X93303937Y-60815226D01*
X93159774Y-60671063D01*
X92990256Y-60557795D01*
X92801898Y-60479774D01*
X92601939Y-60440000D01*
X92398061Y-60440000D01*
X92198102Y-60479774D01*
X92009744Y-60557795D01*
X92000000Y-60564306D01*
X91990256Y-60557795D01*
X91801898Y-60479774D01*
X91601939Y-60440000D01*
X91398061Y-60440000D01*
X91198102Y-60479774D01*
X91009744Y-60557795D01*
X90840226Y-60671063D01*
X90796289Y-60715000D01*
X90615000Y-60715000D01*
X90615000Y-60648061D01*
X90575226Y-60448102D01*
X90497205Y-60259744D01*
X90383937Y-60090226D01*
X90239774Y-59946063D01*
X90070256Y-59832795D01*
X89881898Y-59754774D01*
X89681939Y-59715000D01*
X89478061Y-59715000D01*
X89278102Y-59754774D01*
X89089744Y-59832795D01*
X88920226Y-59946063D01*
X88876289Y-59990000D01*
X88287323Y-59990000D01*
X88250000Y-59986324D01*
X88212677Y-59990000D01*
X88212667Y-59990000D01*
X88101014Y-60000997D01*
X87957753Y-60044454D01*
X87825724Y-60115026D01*
X87709999Y-60209999D01*
X87686201Y-60238997D01*
X86085219Y-61839980D01*
X85979458Y-61839980D01*
X85995232Y-61801898D01*
X86035006Y-61601939D01*
X86035006Y-61398061D01*
X85995232Y-61198102D01*
X85917211Y-61009744D01*
X85916360Y-61008471D01*
X88664832Y-58260000D01*
X89796289Y-58260000D01*
X89840226Y-58303937D01*
X90009744Y-58417205D01*
X90198102Y-58495226D01*
X90398061Y-58535000D01*
X90601939Y-58535000D01*
X90801898Y-58495226D01*
X90990256Y-58417205D01*
X91159774Y-58303937D01*
X91303937Y-58159774D01*
X91417205Y-57990256D01*
X91495226Y-57801898D01*
X91535000Y-57601939D01*
X91535000Y-57398061D01*
X91495226Y-57198102D01*
X91417205Y-57009744D01*
X91303937Y-56840226D01*
X91159774Y-56696063D01*
X90990256Y-56582795D01*
X90801898Y-56504774D01*
X90601939Y-56465000D01*
X90398061Y-56465000D01*
X90198102Y-56504774D01*
X90009744Y-56582795D01*
X89840226Y-56696063D01*
X89796289Y-56740000D01*
X88387355Y-56740000D01*
X88350030Y-56736324D01*
X88312705Y-56740000D01*
X88312697Y-56740000D01*
X88201044Y-56750997D01*
X88057783Y-56794454D01*
X87925754Y-56865026D01*
X87810029Y-56959999D01*
X87786231Y-56988997D01*
X84860230Y-59914999D01*
X82225914Y-59914999D01*
X82188591Y-59911323D01*
X82151268Y-59914999D01*
X82151258Y-59914999D01*
X82039605Y-59925996D01*
X81901134Y-59968000D01*
X81896344Y-59969453D01*
X81764314Y-60040025D01*
X81745568Y-60055410D01*
X81648590Y-60134998D01*
X81624792Y-60163996D01*
X79548789Y-62240000D01*
X54503560Y-62240000D01*
X54495226Y-62198102D01*
X54417205Y-62009744D01*
X54303937Y-61840226D01*
X54159774Y-61696063D01*
X53990256Y-61582795D01*
X53801898Y-61504774D01*
X53601939Y-61465000D01*
X53398061Y-61465000D01*
X53198102Y-61504774D01*
X53009744Y-61582795D01*
X52840226Y-61696063D01*
X52696063Y-61840226D01*
X52582795Y-62009744D01*
X52504774Y-62198102D01*
X52465000Y-62398061D01*
X52465000Y-62601939D01*
X52504774Y-62801898D01*
X52582795Y-62990256D01*
X52696063Y-63159774D01*
X52840226Y-63303937D01*
X53008695Y-63416504D01*
X52409002Y-64016196D01*
X52379999Y-64039999D01*
X52350681Y-64075724D01*
X52285026Y-64155724D01*
X52255482Y-64210997D01*
X52214454Y-64287754D01*
X52170997Y-64431015D01*
X52160000Y-64542668D01*
X52160000Y-64542678D01*
X52156324Y-64580000D01*
X52160000Y-64617323D01*
X52160000Y-66011928D01*
X52070000Y-66011928D01*
X51945518Y-66024188D01*
X51825820Y-66060498D01*
X51715506Y-66119463D01*
X51618815Y-66198815D01*
X51539463Y-66295506D01*
X51480498Y-66405820D01*
X51444188Y-66525518D01*
X51431928Y-66650000D01*
X46753856Y-66650000D01*
X46735178Y-66618645D01*
X46540269Y-66402412D01*
X46306920Y-66228359D01*
X46044099Y-66103175D01*
X45896890Y-66058524D01*
X45667000Y-66179845D01*
X45413000Y-66179845D01*
X45183110Y-66058524D01*
X45035901Y-66103175D01*
X44773080Y-66228359D01*
X44539731Y-66402412D01*
X44463966Y-66486466D01*
X44439502Y-66405820D01*
X44380537Y-66295506D01*
X44301185Y-66198815D01*
X44204494Y-66119463D01*
X44094180Y-66060498D01*
X43974482Y-66024188D01*
X43850000Y-66011928D01*
X42150000Y-66011928D01*
X42025518Y-66024188D01*
X41905820Y-66060498D01*
X41795506Y-66119463D01*
X41698815Y-66198815D01*
X41619463Y-66295506D01*
X41560498Y-66405820D01*
X41524188Y-66525518D01*
X41511928Y-66650000D01*
X31921428Y-66650000D01*
X31943601Y-66576087D01*
X31999430Y-65990750D01*
X31939992Y-65405767D01*
X31784269Y-64898061D01*
X32465000Y-64898061D01*
X32465000Y-65101939D01*
X32504774Y-65301898D01*
X32582795Y-65490256D01*
X32696063Y-65659774D01*
X32840226Y-65803937D01*
X33009744Y-65917205D01*
X33198102Y-65995226D01*
X33398061Y-66035000D01*
X33601939Y-66035000D01*
X33801898Y-65995226D01*
X33990256Y-65917205D01*
X34159774Y-65803937D01*
X34303937Y-65659774D01*
X34417205Y-65490256D01*
X34495226Y-65301898D01*
X34535000Y-65101939D01*
X34535000Y-64898061D01*
X34495226Y-64698102D01*
X34417205Y-64509744D01*
X34303937Y-64340226D01*
X34159774Y-64196063D01*
X33990256Y-64082795D01*
X33801898Y-64004774D01*
X33601939Y-63965000D01*
X33398061Y-63965000D01*
X33198102Y-64004774D01*
X33009744Y-64082795D01*
X32840226Y-64196063D01*
X32696063Y-64340226D01*
X32582795Y-64509744D01*
X32504774Y-64698102D01*
X32465000Y-64898061D01*
X31784269Y-64898061D01*
X31767571Y-64843621D01*
X31499073Y-64341298D01*
X31096468Y-64083137D01*
X29179605Y-66000000D01*
X28820395Y-66000000D01*
X26903532Y-64083137D01*
X26500927Y-64341298D01*
X26225349Y-64860715D01*
X26056399Y-65423913D01*
X26000570Y-66009250D01*
X25660000Y-66009250D01*
X25660000Y-63903532D01*
X27083137Y-63903532D01*
X29000000Y-65820395D01*
X30916863Y-63903532D01*
X30658702Y-63500927D01*
X30139285Y-63225349D01*
X29576087Y-63056399D01*
X28990750Y-63000570D01*
X28405767Y-63060008D01*
X27843621Y-63232429D01*
X27341298Y-63500927D01*
X27083137Y-63903532D01*
X25660000Y-63903532D01*
X25660000Y-57650000D01*
X29511928Y-57650000D01*
X29511928Y-59350000D01*
X29524188Y-59474482D01*
X29560498Y-59594180D01*
X29619463Y-59704494D01*
X29698815Y-59801185D01*
X29795506Y-59880537D01*
X29905820Y-59939502D01*
X29978380Y-59961513D01*
X29846525Y-60093368D01*
X29684010Y-60336589D01*
X29572068Y-60606842D01*
X29515000Y-60893740D01*
X29515000Y-61186260D01*
X29572068Y-61473158D01*
X29684010Y-61743411D01*
X29846525Y-61986632D01*
X30053368Y-62193475D01*
X30296589Y-62355990D01*
X30566842Y-62467932D01*
X30853740Y-62525000D01*
X31146260Y-62525000D01*
X31433158Y-62467932D01*
X31703411Y-62355990D01*
X31946632Y-62193475D01*
X32153475Y-61986632D01*
X32315990Y-61743411D01*
X32427932Y-61473158D01*
X32485000Y-61186260D01*
X32485000Y-60893740D01*
X32427932Y-60606842D01*
X32315990Y-60336589D01*
X32153475Y-60093368D01*
X32021620Y-59961513D01*
X32094180Y-59939502D01*
X32104959Y-59933740D01*
X62515000Y-59933740D01*
X62515000Y-60226260D01*
X62572068Y-60513158D01*
X62684010Y-60783411D01*
X62846525Y-61026632D01*
X63053368Y-61233475D01*
X63296589Y-61395990D01*
X63566842Y-61507932D01*
X63853740Y-61565000D01*
X64146260Y-61565000D01*
X64433158Y-61507932D01*
X64703411Y-61395990D01*
X64946632Y-61233475D01*
X65153475Y-61026632D01*
X65315990Y-60783411D01*
X65427932Y-60513158D01*
X65485000Y-60226260D01*
X65485000Y-59933740D01*
X65427932Y-59646842D01*
X65324884Y-59398061D01*
X72465000Y-59398061D01*
X72465000Y-59601939D01*
X72504774Y-59801898D01*
X72582795Y-59990256D01*
X72696063Y-60159774D01*
X72840226Y-60303937D01*
X73009744Y-60417205D01*
X73198102Y-60495226D01*
X73398061Y-60535000D01*
X73601939Y-60535000D01*
X73801898Y-60495226D01*
X73990256Y-60417205D01*
X74159774Y-60303937D01*
X74303937Y-60159774D01*
X74417205Y-59990256D01*
X74495226Y-59801898D01*
X74535000Y-59601939D01*
X74535000Y-59398061D01*
X74495226Y-59198102D01*
X74417205Y-59009744D01*
X74303937Y-58840226D01*
X74159774Y-58696063D01*
X73990256Y-58582795D01*
X73801898Y-58504774D01*
X73601939Y-58465000D01*
X73398061Y-58465000D01*
X73198102Y-58504774D01*
X73009744Y-58582795D01*
X72840226Y-58696063D01*
X72696063Y-58840226D01*
X72582795Y-59009744D01*
X72504774Y-59198102D01*
X72465000Y-59398061D01*
X65324884Y-59398061D01*
X65315990Y-59376589D01*
X65153475Y-59133368D01*
X64946632Y-58926525D01*
X64764466Y-58804805D01*
X64881355Y-58735178D01*
X65097588Y-58540269D01*
X65271641Y-58306920D01*
X65396825Y-58044099D01*
X65441476Y-57896890D01*
X65320155Y-57667000D01*
X64127000Y-57667000D01*
X64127000Y-57687000D01*
X63873000Y-57687000D01*
X63873000Y-57667000D01*
X62679845Y-57667000D01*
X62558524Y-57896890D01*
X62603175Y-58044099D01*
X62728359Y-58306920D01*
X62902412Y-58540269D01*
X63118645Y-58735178D01*
X63235534Y-58804805D01*
X63053368Y-58926525D01*
X62846525Y-59133368D01*
X62684010Y-59376589D01*
X62572068Y-59646842D01*
X62515000Y-59933740D01*
X32104959Y-59933740D01*
X32204494Y-59880537D01*
X32301185Y-59801185D01*
X32380537Y-59704494D01*
X32439502Y-59594180D01*
X32475812Y-59474482D01*
X32488072Y-59350000D01*
X32488072Y-57650000D01*
X32475812Y-57525518D01*
X32439502Y-57405820D01*
X32380537Y-57295506D01*
X32301185Y-57198815D01*
X32204494Y-57119463D01*
X32094180Y-57060498D01*
X31974482Y-57024188D01*
X31850000Y-57011928D01*
X30150000Y-57011928D01*
X30025518Y-57024188D01*
X29905820Y-57060498D01*
X29795506Y-57119463D01*
X29698815Y-57198815D01*
X29619463Y-57295506D01*
X29560498Y-57405820D01*
X29524188Y-57525518D01*
X29511928Y-57650000D01*
X25660000Y-57650000D01*
X25660000Y-50365000D01*
X29506928Y-50365000D01*
X29506928Y-52065000D01*
X29519188Y-52189482D01*
X29555498Y-52309180D01*
X29614463Y-52419494D01*
X29693815Y-52516185D01*
X29790506Y-52595537D01*
X29900820Y-52654502D01*
X29973380Y-52676513D01*
X29841525Y-52808368D01*
X29679010Y-53051589D01*
X29567068Y-53321842D01*
X29510000Y-53608740D01*
X29510000Y-53901260D01*
X29567068Y-54188158D01*
X29679010Y-54458411D01*
X29841525Y-54701632D01*
X30048368Y-54908475D01*
X30291589Y-55070990D01*
X30561842Y-55182932D01*
X30848740Y-55240000D01*
X31141260Y-55240000D01*
X31428158Y-55182932D01*
X31698411Y-55070990D01*
X31941632Y-54908475D01*
X32148475Y-54701632D01*
X32273178Y-54515000D01*
X39707678Y-54515000D01*
X39745000Y-54518676D01*
X39782322Y-54515000D01*
X39782333Y-54515000D01*
X39792486Y-54514000D01*
X39898061Y-54535000D01*
X40101939Y-54535000D01*
X40301898Y-54495226D01*
X40490256Y-54417205D01*
X40659774Y-54303937D01*
X40803937Y-54159774D01*
X40917205Y-53990256D01*
X40995226Y-53801898D01*
X41035000Y-53601939D01*
X41035000Y-53398061D01*
X40995226Y-53198102D01*
X40917205Y-53009744D01*
X40803937Y-52840226D01*
X40659774Y-52696063D01*
X40490256Y-52582795D01*
X40301898Y-52504774D01*
X40101939Y-52465000D01*
X39898061Y-52465000D01*
X39698102Y-52504774D01*
X39509744Y-52582795D01*
X39340226Y-52696063D01*
X39196063Y-52840226D01*
X39092647Y-52995000D01*
X32273178Y-52995000D01*
X32148475Y-52808368D01*
X32016620Y-52676513D01*
X32089180Y-52654502D01*
X32199494Y-52595537D01*
X32296185Y-52516185D01*
X32375537Y-52419494D01*
X32434502Y-52309180D01*
X32470812Y-52189482D01*
X32483072Y-52065000D01*
X32483072Y-51398061D01*
X50965000Y-51398061D01*
X50965000Y-51601939D01*
X51004774Y-51801898D01*
X51082795Y-51990256D01*
X51196063Y-52159774D01*
X51286289Y-52250000D01*
X51196063Y-52340226D01*
X51082795Y-52509744D01*
X51004774Y-52698102D01*
X50965000Y-52898061D01*
X50965000Y-53101939D01*
X51004774Y-53301898D01*
X51082795Y-53490256D01*
X51196063Y-53659774D01*
X51340226Y-53803937D01*
X51509744Y-53917205D01*
X51698102Y-53995226D01*
X51898061Y-54035000D01*
X52101939Y-54035000D01*
X52301898Y-53995226D01*
X52490256Y-53917205D01*
X52659774Y-53803937D01*
X52703711Y-53760000D01*
X62648602Y-53760000D01*
X62619463Y-53795506D01*
X62560498Y-53905820D01*
X62524188Y-54025518D01*
X62511928Y-54150000D01*
X62511928Y-55850000D01*
X62524188Y-55974482D01*
X62560498Y-56094180D01*
X62619463Y-56204494D01*
X62698815Y-56301185D01*
X62795506Y-56380537D01*
X62905820Y-56439502D01*
X62986466Y-56463966D01*
X62902412Y-56539731D01*
X62728359Y-56773080D01*
X62603175Y-57035901D01*
X62558524Y-57183110D01*
X62679845Y-57413000D01*
X63873000Y-57413000D01*
X63873000Y-57393000D01*
X64127000Y-57393000D01*
X64127000Y-57413000D01*
X65320155Y-57413000D01*
X65441476Y-57183110D01*
X65396825Y-57035901D01*
X65271641Y-56773080D01*
X65097588Y-56539731D01*
X65013534Y-56463966D01*
X65094180Y-56439502D01*
X65204494Y-56380537D01*
X65301185Y-56301185D01*
X65380537Y-56204494D01*
X65439502Y-56094180D01*
X65475812Y-55974482D01*
X65488072Y-55850000D01*
X65488072Y-54150000D01*
X65475812Y-54025518D01*
X65439502Y-53905820D01*
X65380537Y-53795506D01*
X65351398Y-53760000D01*
X74492462Y-53760000D01*
X74465000Y-53898061D01*
X74465000Y-54101939D01*
X74504774Y-54301898D01*
X74582795Y-54490256D01*
X74696063Y-54659774D01*
X74840226Y-54803937D01*
X75009744Y-54917205D01*
X75198102Y-54995226D01*
X75398061Y-55035000D01*
X75601939Y-55035000D01*
X75801898Y-54995226D01*
X75990256Y-54917205D01*
X76159774Y-54803937D01*
X76303937Y-54659774D01*
X76417205Y-54490256D01*
X76495226Y-54301898D01*
X76535000Y-54101939D01*
X76535000Y-53898061D01*
X76507538Y-53760000D01*
X79112685Y-53760000D01*
X79196063Y-53884784D01*
X79340226Y-54028947D01*
X79509744Y-54142215D01*
X79698102Y-54220236D01*
X79898061Y-54260010D01*
X80101939Y-54260010D01*
X80301898Y-54220236D01*
X80490256Y-54142215D01*
X80659774Y-54028947D01*
X80803937Y-53884784D01*
X80917205Y-53715266D01*
X80995226Y-53526908D01*
X81035000Y-53326949D01*
X81035000Y-53123071D01*
X81021497Y-53055187D01*
X81040001Y-53040001D01*
X81044105Y-53035000D01*
X81101939Y-53035000D01*
X81301898Y-52995226D01*
X81490256Y-52917205D01*
X81659774Y-52803937D01*
X81803937Y-52659774D01*
X81917205Y-52490256D01*
X81995226Y-52301898D01*
X82035000Y-52101939D01*
X82035000Y-51898061D01*
X81995226Y-51698102D01*
X81917205Y-51509744D01*
X81803937Y-51340226D01*
X81659774Y-51196063D01*
X81490256Y-51082795D01*
X81301898Y-51004774D01*
X81101939Y-50965000D01*
X80898061Y-50965000D01*
X80698102Y-51004774D01*
X80509744Y-51082795D01*
X80340226Y-51196063D01*
X80196063Y-51340226D01*
X80082795Y-51509744D01*
X80004774Y-51698102D01*
X79996440Y-51740000D01*
X79911542Y-51740000D01*
X79935990Y-51703411D01*
X80047932Y-51433158D01*
X80105000Y-51146260D01*
X80105000Y-50853740D01*
X80047932Y-50566842D01*
X79935990Y-50296589D01*
X79773475Y-50053368D01*
X79566632Y-49846525D01*
X79437138Y-49760000D01*
X89462678Y-49760000D01*
X89500000Y-49763676D01*
X89537322Y-49760000D01*
X89537333Y-49760000D01*
X89648986Y-49749003D01*
X89792247Y-49705546D01*
X89924276Y-49634974D01*
X90040001Y-49540001D01*
X90044105Y-49535000D01*
X90101939Y-49535000D01*
X90301898Y-49495226D01*
X90490256Y-49417205D01*
X90659774Y-49303937D01*
X90803937Y-49159774D01*
X90917205Y-48990256D01*
X90995226Y-48801898D01*
X91035000Y-48601939D01*
X91035000Y-48398061D01*
X91027284Y-48359267D01*
X99533680Y-48359267D01*
X99607558Y-48640830D01*
X99734947Y-48902570D01*
X99910951Y-49134429D01*
X100128807Y-49327496D01*
X100380142Y-49474352D01*
X100643110Y-49566476D01*
X100873000Y-49445155D01*
X100873000Y-48127000D01*
X99673835Y-48127000D01*
X99533680Y-48359267D01*
X91027284Y-48359267D01*
X90995226Y-48198102D01*
X90917205Y-48009744D01*
X90803937Y-47840226D01*
X90659774Y-47696063D01*
X90576967Y-47640733D01*
X99533680Y-47640733D01*
X99673835Y-47873000D01*
X100873000Y-47873000D01*
X100873000Y-46554845D01*
X100643110Y-46433524D01*
X100380142Y-46525648D01*
X100128807Y-46672504D01*
X99910951Y-46865571D01*
X99734947Y-47097430D01*
X99607558Y-47359170D01*
X99533680Y-47640733D01*
X90576967Y-47640733D01*
X90490256Y-47582795D01*
X90301898Y-47504774D01*
X90101939Y-47465000D01*
X89898061Y-47465000D01*
X89698102Y-47504774D01*
X89694844Y-47506123D01*
X89659774Y-47471053D01*
X89490256Y-47357785D01*
X89301898Y-47279764D01*
X89101939Y-47239990D01*
X88898061Y-47239990D01*
X88698102Y-47279764D01*
X88509744Y-47357785D01*
X88340226Y-47471053D01*
X88196063Y-47615216D01*
X88112685Y-47740000D01*
X65537322Y-47740000D01*
X65499999Y-47736324D01*
X65462676Y-47740000D01*
X65462667Y-47740000D01*
X65351014Y-47750997D01*
X65207753Y-47794454D01*
X65075724Y-47865026D01*
X64959999Y-47959999D01*
X64936201Y-47988997D01*
X63488998Y-49436201D01*
X63460000Y-49459999D01*
X63436202Y-49488997D01*
X63436201Y-49488998D01*
X63365026Y-49575724D01*
X63294454Y-49707754D01*
X63250998Y-49851015D01*
X63236324Y-50000000D01*
X63240001Y-50037332D01*
X63240001Y-50296288D01*
X63196063Y-50340226D01*
X63082795Y-50509744D01*
X63004774Y-50698102D01*
X62965000Y-50898061D01*
X62965000Y-51101939D01*
X63004774Y-51301898D01*
X63082795Y-51490256D01*
X63196063Y-51659774D01*
X63276289Y-51740000D01*
X53314802Y-51740000D01*
X53035000Y-51460199D01*
X53035000Y-51398061D01*
X52995226Y-51198102D01*
X52917205Y-51009744D01*
X52803937Y-50840226D01*
X52659774Y-50696063D01*
X52490256Y-50582795D01*
X52301898Y-50504774D01*
X52101939Y-50465000D01*
X51898061Y-50465000D01*
X51698102Y-50504774D01*
X51509744Y-50582795D01*
X51340226Y-50696063D01*
X51196063Y-50840226D01*
X51082795Y-51009744D01*
X51004774Y-51198102D01*
X50965000Y-51398061D01*
X32483072Y-51398061D01*
X32483072Y-50365000D01*
X32470812Y-50240518D01*
X32434502Y-50120820D01*
X32375537Y-50010506D01*
X32296185Y-49913815D01*
X32199494Y-49834463D01*
X32089180Y-49775498D01*
X31969482Y-49739188D01*
X31845000Y-49726928D01*
X30145000Y-49726928D01*
X30020518Y-49739188D01*
X29900820Y-49775498D01*
X29790506Y-49834463D01*
X29693815Y-49913815D01*
X29614463Y-50010506D01*
X29555498Y-50120820D01*
X29519188Y-50240518D01*
X29506928Y-50365000D01*
X25660000Y-50365000D01*
X25660000Y-46096468D01*
X27083137Y-46096468D01*
X27341298Y-46499073D01*
X27860715Y-46774651D01*
X28423913Y-46943601D01*
X29009250Y-46999430D01*
X29594233Y-46939992D01*
X30156379Y-46767571D01*
X30658702Y-46499073D01*
X30800472Y-46277980D01*
X41401626Y-46277980D01*
X41521514Y-46562836D01*
X41845210Y-46723699D01*
X42194069Y-46818322D01*
X42554684Y-46843067D01*
X42913198Y-46796985D01*
X43255833Y-46681846D01*
X43478486Y-46562836D01*
X43598374Y-46277980D01*
X42500000Y-45179605D01*
X41401626Y-46277980D01*
X30800472Y-46277980D01*
X30916863Y-46096468D01*
X29000000Y-44179605D01*
X27083137Y-46096468D01*
X25660000Y-46096468D01*
X25660000Y-44009250D01*
X26000570Y-44009250D01*
X26060008Y-44594233D01*
X26232429Y-45156379D01*
X26500927Y-45658702D01*
X26903532Y-45916863D01*
X28820395Y-44000000D01*
X29179605Y-44000000D01*
X31096468Y-45916863D01*
X31499073Y-45658702D01*
X31774651Y-45139285D01*
X31800029Y-45054684D01*
X40656933Y-45054684D01*
X40703015Y-45413198D01*
X40818154Y-45755833D01*
X40937164Y-45978486D01*
X41222020Y-46098374D01*
X42320395Y-45000000D01*
X42679605Y-45000000D01*
X43777980Y-46098374D01*
X44062836Y-45978486D01*
X44161928Y-45779088D01*
X44161928Y-46200000D01*
X44174188Y-46324482D01*
X44210498Y-46444180D01*
X44269463Y-46554494D01*
X44348815Y-46651185D01*
X44445506Y-46730537D01*
X44555820Y-46789502D01*
X44675518Y-46825812D01*
X44800000Y-46838072D01*
X47200000Y-46838072D01*
X47324482Y-46825812D01*
X47444180Y-46789502D01*
X47554494Y-46730537D01*
X47651185Y-46651185D01*
X47730537Y-46554494D01*
X47789502Y-46444180D01*
X47825812Y-46324482D01*
X47830391Y-46277980D01*
X61401626Y-46277980D01*
X61521514Y-46562836D01*
X61845210Y-46723699D01*
X62194069Y-46818322D01*
X62554684Y-46843067D01*
X62913198Y-46796985D01*
X63255833Y-46681846D01*
X63478486Y-46562836D01*
X63598374Y-46277980D01*
X62500000Y-45179605D01*
X61401626Y-46277980D01*
X47830391Y-46277980D01*
X47838072Y-46200000D01*
X47838072Y-45054684D01*
X60656933Y-45054684D01*
X60703015Y-45413198D01*
X60818154Y-45755833D01*
X60937164Y-45978486D01*
X61222020Y-46098374D01*
X62320395Y-45000000D01*
X61222020Y-43901626D01*
X60937164Y-44021514D01*
X60776301Y-44345210D01*
X60681678Y-44694069D01*
X60656933Y-45054684D01*
X47838072Y-45054684D01*
X47838072Y-43800000D01*
X47830392Y-43722020D01*
X61401626Y-43722020D01*
X62500000Y-44820395D01*
X63598374Y-43722020D01*
X63478486Y-43437164D01*
X63154790Y-43276301D01*
X62805931Y-43181678D01*
X62445316Y-43156933D01*
X62086802Y-43203015D01*
X61744167Y-43318154D01*
X61521514Y-43437164D01*
X61401626Y-43722020D01*
X47830392Y-43722020D01*
X47825812Y-43675518D01*
X47789502Y-43555820D01*
X47730537Y-43445506D01*
X47651185Y-43348815D01*
X47554494Y-43269463D01*
X47444180Y-43210498D01*
X47324482Y-43174188D01*
X47200000Y-43161928D01*
X44800000Y-43161928D01*
X44675518Y-43174188D01*
X44555820Y-43210498D01*
X44445506Y-43269463D01*
X44348815Y-43348815D01*
X44269463Y-43445506D01*
X44210498Y-43555820D01*
X44174188Y-43675518D01*
X44161928Y-43800000D01*
X44161928Y-44206903D01*
X44062836Y-44021514D01*
X43777980Y-43901626D01*
X42679605Y-45000000D01*
X42320395Y-45000000D01*
X41222020Y-43901626D01*
X40937164Y-44021514D01*
X40776301Y-44345210D01*
X40681678Y-44694069D01*
X40656933Y-45054684D01*
X31800029Y-45054684D01*
X31943601Y-44576087D01*
X31999430Y-43990750D01*
X31972126Y-43722020D01*
X41401626Y-43722020D01*
X42500000Y-44820395D01*
X43598374Y-43722020D01*
X43478486Y-43437164D01*
X43154790Y-43276301D01*
X42805931Y-43181678D01*
X42445316Y-43156933D01*
X42086802Y-43203015D01*
X41744167Y-43318154D01*
X41521514Y-43437164D01*
X41401626Y-43722020D01*
X31972126Y-43722020D01*
X31939992Y-43405767D01*
X31767571Y-42843621D01*
X31499073Y-42341298D01*
X31096468Y-42083137D01*
X29179605Y-44000000D01*
X28820395Y-44000000D01*
X26903532Y-42083137D01*
X26500927Y-42341298D01*
X26225349Y-42860715D01*
X26056399Y-43423913D01*
X26000570Y-44009250D01*
X25660000Y-44009250D01*
X25660000Y-41903532D01*
X27083137Y-41903532D01*
X29000000Y-43820395D01*
X30916863Y-41903532D01*
X30658702Y-41500927D01*
X30139285Y-41225349D01*
X29576087Y-41056399D01*
X28990750Y-41000570D01*
X28405767Y-41060008D01*
X27843621Y-41232429D01*
X27341298Y-41500927D01*
X27083137Y-41903532D01*
X25660000Y-41903532D01*
X25660000Y-40660000D01*
X71220379Y-40660000D01*
X71159687Y-40678411D01*
G04 #@! TA.AperFunction,Conductor*
D21*
G36*
X71159687Y-40678411D02*
G01*
X71005941Y-40760589D01*
X71005939Y-40760590D01*
X71005940Y-40760590D01*
X70904953Y-40843468D01*
X70904951Y-40843470D01*
X70871183Y-40871183D01*
X70843470Y-40904951D01*
X67838072Y-43910350D01*
X67838072Y-43800000D01*
X67825812Y-43675518D01*
X67789502Y-43555820D01*
X67730537Y-43445506D01*
X67651185Y-43348815D01*
X67554494Y-43269463D01*
X67444180Y-43210498D01*
X67324482Y-43174188D01*
X67200000Y-43161928D01*
X64800000Y-43161928D01*
X64675518Y-43174188D01*
X64555820Y-43210498D01*
X64445506Y-43269463D01*
X64348815Y-43348815D01*
X64269463Y-43445506D01*
X64210498Y-43555820D01*
X64174188Y-43675518D01*
X64161928Y-43800000D01*
X64161928Y-44206903D01*
X64062836Y-44021514D01*
X63777980Y-43901626D01*
X62679605Y-45000000D01*
X63777980Y-46098374D01*
X64062836Y-45978486D01*
X64161928Y-45779088D01*
X64161928Y-46200000D01*
X64174188Y-46324482D01*
X64210498Y-46444180D01*
X64269463Y-46554494D01*
X64348815Y-46651185D01*
X64445506Y-46730537D01*
X64555820Y-46789502D01*
X64675518Y-46825812D01*
X64800000Y-46838072D01*
X67200000Y-46838072D01*
X67324482Y-46825812D01*
X67444180Y-46789502D01*
X67554494Y-46730537D01*
X67651185Y-46651185D01*
X67730537Y-46554494D01*
X67789502Y-46444180D01*
X67825812Y-46324482D01*
X67830391Y-46277980D01*
X85401626Y-46277980D01*
X85521514Y-46562836D01*
X85845210Y-46723699D01*
X86194069Y-46818322D01*
X86554684Y-46843067D01*
X86913198Y-46796985D01*
X87255833Y-46681846D01*
X87478486Y-46562836D01*
X87598374Y-46277980D01*
X86500000Y-45179605D01*
X85401626Y-46277980D01*
X67830391Y-46277980D01*
X67838072Y-46200000D01*
X67838072Y-45885000D01*
X67956531Y-45885000D01*
X68000000Y-45889281D01*
X68043469Y-45885000D01*
X68043477Y-45885000D01*
X68173490Y-45872195D01*
X68340313Y-45821589D01*
X68494059Y-45739411D01*
X68628817Y-45628817D01*
X68656534Y-45595044D01*
X69196894Y-45054684D01*
X84656933Y-45054684D01*
X84703015Y-45413198D01*
X84818154Y-45755833D01*
X84937164Y-45978486D01*
X85222020Y-46098374D01*
X86320395Y-45000000D01*
X86679605Y-45000000D01*
X87777980Y-46098374D01*
X88062836Y-45978486D01*
X88161928Y-45779088D01*
X88161928Y-46200000D01*
X88174188Y-46324482D01*
X88210498Y-46444180D01*
X88269463Y-46554494D01*
X88348815Y-46651185D01*
X88445506Y-46730537D01*
X88555820Y-46789502D01*
X88675518Y-46825812D01*
X88800000Y-46838072D01*
X91200000Y-46838072D01*
X91324482Y-46825812D01*
X91444180Y-46789502D01*
X91554494Y-46730537D01*
X91651185Y-46651185D01*
X91730537Y-46554494D01*
X91789502Y-46444180D01*
X91825812Y-46324482D01*
X91838072Y-46200000D01*
X91838072Y-43800000D01*
X91825812Y-43675518D01*
X91789502Y-43555820D01*
X91730537Y-43445506D01*
X91651185Y-43348815D01*
X91554494Y-43269463D01*
X91444180Y-43210498D01*
X91324482Y-43174188D01*
X91200000Y-43161928D01*
X88800000Y-43161928D01*
X88675518Y-43174188D01*
X88555820Y-43210498D01*
X88445506Y-43269463D01*
X88348815Y-43348815D01*
X88269463Y-43445506D01*
X88210498Y-43555820D01*
X88174188Y-43675518D01*
X88161928Y-43800000D01*
X88161928Y-44206903D01*
X88062836Y-44021514D01*
X87777980Y-43901626D01*
X86679605Y-45000000D01*
X86320395Y-45000000D01*
X85222020Y-43901626D01*
X84937164Y-44021514D01*
X84776301Y-44345210D01*
X84681678Y-44694069D01*
X84656933Y-45054684D01*
X69196894Y-45054684D01*
X70529558Y-43722020D01*
X85401626Y-43722020D01*
X86500000Y-44820395D01*
X87598374Y-43722020D01*
X87478486Y-43437164D01*
X87154790Y-43276301D01*
X86805931Y-43181678D01*
X86445316Y-43156933D01*
X86086802Y-43203015D01*
X85744167Y-43318154D01*
X85521514Y-43437164D01*
X85401626Y-43722020D01*
X70529558Y-43722020D01*
X71866579Y-42385000D01*
X105633422Y-42385000D01*
X107615000Y-44366579D01*
X107615001Y-46437889D01*
X107560150Y-46454528D01*
X107406614Y-46536595D01*
X107272038Y-46647038D01*
X107161595Y-46781614D01*
X107107223Y-46883337D01*
X107055134Y-46819866D01*
X106829014Y-46634294D01*
X106571034Y-46496401D01*
X106291111Y-46411487D01*
X106000000Y-46382815D01*
X105708890Y-46411487D01*
X105428967Y-46496401D01*
X105170987Y-46634294D01*
X104944866Y-46819866D01*
X104759294Y-47045986D01*
X104750000Y-47063374D01*
X104740706Y-47045986D01*
X104555134Y-46819866D01*
X104329014Y-46634294D01*
X104071034Y-46496401D01*
X103791111Y-46411487D01*
X103500000Y-46382815D01*
X103208890Y-46411487D01*
X102928967Y-46496401D01*
X102670987Y-46634294D01*
X102444866Y-46819866D01*
X102259294Y-47045986D01*
X102245538Y-47071722D01*
X102089049Y-46865571D01*
X101871193Y-46672504D01*
X101619858Y-46525648D01*
X101356890Y-46433524D01*
X101127000Y-46554845D01*
X101127000Y-47873000D01*
X101147000Y-47873000D01*
X101147000Y-48127000D01*
X101127000Y-48127000D01*
X101127000Y-49445155D01*
X101356890Y-49566476D01*
X101619858Y-49474352D01*
X101871193Y-49327496D01*
X102089049Y-49134429D01*
X102245538Y-48928278D01*
X102259294Y-48954013D01*
X102444866Y-49180134D01*
X102670986Y-49365706D01*
X102928966Y-49503599D01*
X103208889Y-49588513D01*
X103500000Y-49617185D01*
X103791110Y-49588513D01*
X104071033Y-49503599D01*
X104329013Y-49365706D01*
X104555134Y-49180134D01*
X104740706Y-48954014D01*
X104750000Y-48936626D01*
X104759294Y-48954013D01*
X104944866Y-49180134D01*
X105170986Y-49365706D01*
X105428966Y-49503599D01*
X105708889Y-49588513D01*
X106000000Y-49617185D01*
X106291110Y-49588513D01*
X106571033Y-49503599D01*
X106829013Y-49365706D01*
X107055134Y-49180134D01*
X107107223Y-49116663D01*
X107161595Y-49218386D01*
X107272038Y-49352962D01*
X107406614Y-49463405D01*
X107560150Y-49545472D01*
X107726746Y-49596008D01*
X107900000Y-49613072D01*
X109100000Y-49613072D01*
X109273254Y-49596008D01*
X109439850Y-49545472D01*
X109593386Y-49463405D01*
X109727962Y-49352962D01*
X109838405Y-49218386D01*
X109920472Y-49064850D01*
X109971008Y-48898254D01*
X109988072Y-48725000D01*
X109988072Y-47275000D01*
X109971008Y-47101746D01*
X109920472Y-46935150D01*
X109838405Y-46781614D01*
X109727962Y-46647038D01*
X109593386Y-46536595D01*
X109439850Y-46454528D01*
X109385000Y-46437890D01*
X109385000Y-46096468D01*
X114083137Y-46096468D01*
X114341298Y-46499073D01*
X114860715Y-46774651D01*
X115423913Y-46943601D01*
X116009250Y-46999430D01*
X116594233Y-46939992D01*
X117156379Y-46767571D01*
X117658702Y-46499073D01*
X117916863Y-46096468D01*
X116000000Y-44179605D01*
X114083137Y-46096468D01*
X109385000Y-46096468D01*
X109385000Y-44043469D01*
X109388370Y-44009250D01*
X113000570Y-44009250D01*
X113060008Y-44594233D01*
X113232429Y-45156379D01*
X113500927Y-45658702D01*
X113903532Y-45916863D01*
X115820395Y-44000000D01*
X116179605Y-44000000D01*
X118096468Y-45916863D01*
X118499073Y-45658702D01*
X118774651Y-45139285D01*
X118943601Y-44576087D01*
X118999430Y-43990750D01*
X118939992Y-43405767D01*
X118767571Y-42843621D01*
X118499073Y-42341298D01*
X118096468Y-42083137D01*
X116179605Y-44000000D01*
X115820395Y-44000000D01*
X113903532Y-42083137D01*
X113500927Y-42341298D01*
X113225349Y-42860715D01*
X113056399Y-43423913D01*
X113000570Y-44009250D01*
X109388370Y-44009250D01*
X109389281Y-44000000D01*
X109385000Y-43956531D01*
X109385000Y-43956523D01*
X109372195Y-43826510D01*
X109321589Y-43659687D01*
X109239411Y-43505941D01*
X109128817Y-43371183D01*
X109095050Y-43343471D01*
X107655111Y-41903532D01*
X114083137Y-41903532D01*
X116000000Y-43820395D01*
X117916863Y-41903532D01*
X117658702Y-41500927D01*
X117139285Y-41225349D01*
X116576087Y-41056399D01*
X115990750Y-41000570D01*
X115405767Y-41060008D01*
X114843621Y-41232429D01*
X114341298Y-41500927D01*
X114083137Y-41903532D01*
X107655111Y-41903532D01*
X106656534Y-40904956D01*
X106628817Y-40871183D01*
X106494059Y-40760589D01*
X106340313Y-40678411D01*
X106279621Y-40660000D01*
X119340000Y-40660000D01*
X119340001Y-69340000D01*
X25660000Y-69340000D01*
X25660000Y-68096468D01*
X27083137Y-68096468D01*
X27341298Y-68499073D01*
X27860715Y-68774651D01*
X28423913Y-68943601D01*
X29009250Y-68999430D01*
X29594233Y-68939992D01*
X30156379Y-68767571D01*
X30658702Y-68499073D01*
X30916863Y-68096468D01*
X29000000Y-66179605D01*
X27083137Y-68096468D01*
X25660000Y-68096468D01*
X25660000Y-66009250D01*
X26000570Y-66009250D01*
X26060008Y-66594233D01*
X26232429Y-67156379D01*
X26500927Y-67658702D01*
X26903532Y-67916863D01*
X28820395Y-66000000D01*
X29179605Y-66000000D01*
X31096468Y-67916863D01*
X31499073Y-67658702D01*
X31774651Y-67139285D01*
X31921428Y-66650000D01*
X41511928Y-66650000D01*
X41511928Y-68350000D01*
X41524188Y-68474482D01*
X41560498Y-68594180D01*
X41619463Y-68704494D01*
X41698815Y-68801185D01*
X41795506Y-68880537D01*
X41905820Y-68939502D01*
X42025518Y-68975812D01*
X42150000Y-68988072D01*
X43850000Y-68988072D01*
X43974482Y-68975812D01*
X44094180Y-68939502D01*
X44204494Y-68880537D01*
X44301185Y-68801185D01*
X44380537Y-68704494D01*
X44439502Y-68594180D01*
X44463966Y-68513534D01*
X44539731Y-68597588D01*
X44773080Y-68771641D01*
X45035901Y-68896825D01*
X45183110Y-68941476D01*
X45413000Y-68820155D01*
X45413000Y-67627000D01*
X45667000Y-67627000D01*
X45667000Y-68820155D01*
X45896890Y-68941476D01*
X46044099Y-68896825D01*
X46306920Y-68771641D01*
X46540269Y-68597588D01*
X46735178Y-68381355D01*
X46884157Y-68131252D01*
X46981481Y-67856891D01*
X46860814Y-67627000D01*
X45667000Y-67627000D01*
X45413000Y-67627000D01*
X45393000Y-67627000D01*
X45393000Y-67373000D01*
X45413000Y-67373000D01*
X45413000Y-66179845D01*
X45667000Y-66179845D01*
X45667000Y-67373000D01*
X46860814Y-67373000D01*
X46981481Y-67143109D01*
X46884157Y-66868748D01*
X46753856Y-66650000D01*
X51431928Y-66650000D01*
X51431928Y-68350000D01*
X51444188Y-68474482D01*
X51480498Y-68594180D01*
X51539463Y-68704494D01*
X51618815Y-68801185D01*
X51715506Y-68880537D01*
X51825820Y-68939502D01*
X51945518Y-68975812D01*
X52070000Y-68988072D01*
X53770000Y-68988072D01*
X53894482Y-68975812D01*
X54014180Y-68939502D01*
X54124494Y-68880537D01*
X54221185Y-68801185D01*
X54300537Y-68704494D01*
X54359502Y-68594180D01*
X54381513Y-68521620D01*
X54513368Y-68653475D01*
X54756589Y-68815990D01*
X55026842Y-68927932D01*
X55313740Y-68985000D01*
X55606260Y-68985000D01*
X55893158Y-68927932D01*
X56163411Y-68815990D01*
X56406632Y-68653475D01*
X56613475Y-68446632D01*
X56735195Y-68264466D01*
X56804822Y-68381355D01*
X56999731Y-68597588D01*
X57233080Y-68771641D01*
X57495901Y-68896825D01*
X57643110Y-68941476D01*
X57873000Y-68820155D01*
X57873000Y-67627000D01*
X58127000Y-67627000D01*
X58127000Y-68820155D01*
X58356890Y-68941476D01*
X58504099Y-68896825D01*
X58766920Y-68771641D01*
X59000269Y-68597588D01*
X59195178Y-68381355D01*
X59344157Y-68131252D01*
X59441481Y-67856891D01*
X59320814Y-67627000D01*
X58127000Y-67627000D01*
X57873000Y-67627000D01*
X57853000Y-67627000D01*
X57853000Y-67373000D01*
X57873000Y-67373000D01*
X57873000Y-66179845D01*
X58127000Y-66179845D01*
X58127000Y-67373000D01*
X59320814Y-67373000D01*
X59441481Y-67143109D01*
X59344157Y-66868748D01*
X59195178Y-66618645D01*
X59000269Y-66402412D01*
X58766920Y-66228359D01*
X58504099Y-66103175D01*
X58356890Y-66058524D01*
X58127000Y-66179845D01*
X57873000Y-66179845D01*
X57643110Y-66058524D01*
X57495901Y-66103175D01*
X57233080Y-66228359D01*
X56999731Y-66402412D01*
X56804822Y-66618645D01*
X56735195Y-66735534D01*
X56613475Y-66553368D01*
X56406632Y-66346525D01*
X56163411Y-66184010D01*
X55893158Y-66072068D01*
X55606260Y-66015000D01*
X55313740Y-66015000D01*
X55026842Y-66072068D01*
X54756589Y-66184010D01*
X54513368Y-66346525D01*
X54381513Y-66478380D01*
X54359502Y-66405820D01*
X54300537Y-66295506D01*
X54221185Y-66198815D01*
X54124494Y-66119463D01*
X54014180Y-66060498D01*
X53894482Y-66024188D01*
X53770000Y-66011928D01*
X53680000Y-66011928D01*
X53680000Y-64894801D01*
X54314802Y-64260000D01*
X66165199Y-64260000D01*
X66029003Y-64396196D01*
X65999999Y-64419999D01*
X65944871Y-64487174D01*
X65905026Y-64535724D01*
X65881360Y-64580000D01*
X65834454Y-64667754D01*
X65790997Y-64811015D01*
X65780000Y-64922668D01*
X65780000Y-64922678D01*
X65776324Y-64960000D01*
X65780000Y-64997323D01*
X65780000Y-66221821D01*
X65593368Y-66346525D01*
X65461513Y-66478380D01*
X65439502Y-66405820D01*
X65380537Y-66295506D01*
X65301185Y-66198815D01*
X65204494Y-66119463D01*
X65094180Y-66060498D01*
X64974482Y-66024188D01*
X64850000Y-66011928D01*
X63150000Y-66011928D01*
X63025518Y-66024188D01*
X62905820Y-66060498D01*
X62795506Y-66119463D01*
X62698815Y-66198815D01*
X62619463Y-66295506D01*
X62560498Y-66405820D01*
X62524188Y-66525518D01*
X62511928Y-66650000D01*
X62511928Y-68350000D01*
X62524188Y-68474482D01*
X62560498Y-68594180D01*
X62619463Y-68704494D01*
X62698815Y-68801185D01*
X62795506Y-68880537D01*
X62905820Y-68939502D01*
X63025518Y-68975812D01*
X63150000Y-68988072D01*
X64850000Y-68988072D01*
X64974482Y-68975812D01*
X65094180Y-68939502D01*
X65204494Y-68880537D01*
X65301185Y-68801185D01*
X65380537Y-68704494D01*
X65439502Y-68594180D01*
X65461513Y-68521620D01*
X65593368Y-68653475D01*
X65836589Y-68815990D01*
X66106842Y-68927932D01*
X66393740Y-68985000D01*
X66686260Y-68985000D01*
X66973158Y-68927932D01*
X67243411Y-68815990D01*
X67486632Y-68653475D01*
X67693475Y-68446632D01*
X67810000Y-68272240D01*
X67926525Y-68446632D01*
X68133368Y-68653475D01*
X68376589Y-68815990D01*
X68646842Y-68927932D01*
X68933740Y-68985000D01*
X69226260Y-68985000D01*
X69513158Y-68927932D01*
X69783411Y-68815990D01*
X70026632Y-68653475D01*
X70233475Y-68446632D01*
X70350000Y-68272240D01*
X70466525Y-68446632D01*
X70673368Y-68653475D01*
X70916589Y-68815990D01*
X71186842Y-68927932D01*
X71473740Y-68985000D01*
X71766260Y-68985000D01*
X72053158Y-68927932D01*
X72323411Y-68815990D01*
X72566632Y-68653475D01*
X72773475Y-68446632D01*
X72890000Y-68272240D01*
X73006525Y-68446632D01*
X73213368Y-68653475D01*
X73456589Y-68815990D01*
X73726842Y-68927932D01*
X74013740Y-68985000D01*
X74306260Y-68985000D01*
X74593158Y-68927932D01*
X74863411Y-68815990D01*
X75106632Y-68653475D01*
X75313475Y-68446632D01*
X75435195Y-68264466D01*
X75504822Y-68381355D01*
X75699731Y-68597588D01*
X75933080Y-68771641D01*
X76195901Y-68896825D01*
X76343110Y-68941476D01*
X76573000Y-68820155D01*
X76573000Y-67627000D01*
X76827000Y-67627000D01*
X76827000Y-68820155D01*
X77056890Y-68941476D01*
X77204099Y-68896825D01*
X77466920Y-68771641D01*
X77649557Y-68635413D01*
X103044192Y-68635413D01*
X103139956Y-68899814D01*
X103429571Y-69040704D01*
X103741108Y-69122384D01*
X104062595Y-69141718D01*
X104381675Y-69097961D01*
X104686088Y-68992795D01*
X104860044Y-68899814D01*
X104955808Y-68635413D01*
X109544192Y-68635413D01*
X109639956Y-68899814D01*
X109929571Y-69040704D01*
X110241108Y-69122384D01*
X110562595Y-69141718D01*
X110881675Y-69097961D01*
X111186088Y-68992795D01*
X111360044Y-68899814D01*
X111455808Y-68635413D01*
X110500000Y-67679605D01*
X109544192Y-68635413D01*
X104955808Y-68635413D01*
X104000000Y-67679605D01*
X103044192Y-68635413D01*
X77649557Y-68635413D01*
X77700269Y-68597588D01*
X77895178Y-68381355D01*
X78044157Y-68131252D01*
X78141481Y-67856891D01*
X78020814Y-67627000D01*
X76827000Y-67627000D01*
X76573000Y-67627000D01*
X76553000Y-67627000D01*
X76553000Y-67562595D01*
X102358282Y-67562595D01*
X102402039Y-67881675D01*
X102507205Y-68186088D01*
X102600186Y-68360044D01*
X102864587Y-68455808D01*
X103820395Y-67500000D01*
X104179605Y-67500000D01*
X105135413Y-68455808D01*
X105399814Y-68360044D01*
X105540704Y-68070429D01*
X105622384Y-67758892D01*
X105634189Y-67562595D01*
X108858282Y-67562595D01*
X108902039Y-67881675D01*
X109007205Y-68186088D01*
X109100186Y-68360044D01*
X109364587Y-68455808D01*
X110320395Y-67500000D01*
X110679605Y-67500000D01*
X111635413Y-68455808D01*
X111899814Y-68360044D01*
X112028036Y-68096468D01*
X114083137Y-68096468D01*
X114341298Y-68499073D01*
X114860715Y-68774651D01*
X115423913Y-68943601D01*
X116009250Y-68999430D01*
X116594233Y-68939992D01*
X117156379Y-68767571D01*
X117658702Y-68499073D01*
X117916863Y-68096468D01*
X116000000Y-66179605D01*
X114083137Y-68096468D01*
X112028036Y-68096468D01*
X112040704Y-68070429D01*
X112122384Y-67758892D01*
X112141718Y-67437405D01*
X112097961Y-67118325D01*
X111992795Y-66813912D01*
X111899814Y-66639956D01*
X111635413Y-66544192D01*
X110679605Y-67500000D01*
X110320395Y-67500000D01*
X109364587Y-66544192D01*
X109100186Y-66639956D01*
X108959296Y-66929571D01*
X108877616Y-67241108D01*
X108858282Y-67562595D01*
X105634189Y-67562595D01*
X105641718Y-67437405D01*
X105597961Y-67118325D01*
X105492795Y-66813912D01*
X105399814Y-66639956D01*
X105135413Y-66544192D01*
X104179605Y-67500000D01*
X103820395Y-67500000D01*
X102864587Y-66544192D01*
X102600186Y-66639956D01*
X102459296Y-66929571D01*
X102377616Y-67241108D01*
X102358282Y-67562595D01*
X76553000Y-67562595D01*
X76553000Y-67373000D01*
X76573000Y-67373000D01*
X76573000Y-66179845D01*
X76827000Y-66179845D01*
X76827000Y-67373000D01*
X78020814Y-67373000D01*
X78141481Y-67143109D01*
X78044157Y-66868748D01*
X77895178Y-66618645D01*
X77700269Y-66402412D01*
X77649558Y-66364587D01*
X103044192Y-66364587D01*
X104000000Y-67320395D01*
X104955808Y-66364587D01*
X109544192Y-66364587D01*
X110500000Y-67320395D01*
X111455808Y-66364587D01*
X111360044Y-66100186D01*
X111173115Y-66009250D01*
X113000570Y-66009250D01*
X113060008Y-66594233D01*
X113232429Y-67156379D01*
X113500927Y-67658702D01*
X113903532Y-67916863D01*
X115820395Y-66000000D01*
X116179605Y-66000000D01*
X118096468Y-67916863D01*
X118499073Y-67658702D01*
X118774651Y-67139285D01*
X118943601Y-66576087D01*
X118999430Y-65990750D01*
X118939992Y-65405767D01*
X118767571Y-64843621D01*
X118499073Y-64341298D01*
X118096468Y-64083137D01*
X116179605Y-66000000D01*
X115820395Y-66000000D01*
X113903532Y-64083137D01*
X113500927Y-64341298D01*
X113225349Y-64860715D01*
X113056399Y-65423913D01*
X113000570Y-66009250D01*
X111173115Y-66009250D01*
X111070429Y-65959296D01*
X110758892Y-65877616D01*
X110437405Y-65858282D01*
X110118325Y-65902039D01*
X109813912Y-66007205D01*
X109639956Y-66100186D01*
X109544192Y-66364587D01*
X104955808Y-66364587D01*
X104860044Y-66100186D01*
X104570429Y-65959296D01*
X104258892Y-65877616D01*
X103937405Y-65858282D01*
X103618325Y-65902039D01*
X103313912Y-66007205D01*
X103139956Y-66100186D01*
X103044192Y-66364587D01*
X77649558Y-66364587D01*
X77466920Y-66228359D01*
X77204099Y-66103175D01*
X77056890Y-66058524D01*
X76827000Y-66179845D01*
X76573000Y-66179845D01*
X76343110Y-66058524D01*
X76195901Y-66103175D01*
X75933080Y-66228359D01*
X75699731Y-66402412D01*
X75504822Y-66618645D01*
X75435195Y-66735534D01*
X75313475Y-66553368D01*
X75106632Y-66346525D01*
X74863411Y-66184010D01*
X74593158Y-66072068D01*
X74306260Y-66015000D01*
X74013740Y-66015000D01*
X73726842Y-66072068D01*
X73456589Y-66184010D01*
X73213368Y-66346525D01*
X73006525Y-66553368D01*
X72890000Y-66727760D01*
X72773475Y-66553368D01*
X72566632Y-66346525D01*
X72323411Y-66184010D01*
X72053158Y-66072068D01*
X71766260Y-66015000D01*
X71473740Y-66015000D01*
X71186842Y-66072068D01*
X70916589Y-66184010D01*
X70673368Y-66346525D01*
X70466525Y-66553368D01*
X70350000Y-66727760D01*
X70233475Y-66553368D01*
X70026632Y-66346525D01*
X69840000Y-66221822D01*
X69840000Y-65760000D01*
X79962678Y-65760000D01*
X80000000Y-65763676D01*
X80037322Y-65760000D01*
X80037333Y-65760000D01*
X80148986Y-65749003D01*
X80292247Y-65705546D01*
X80424276Y-65634974D01*
X80540001Y-65540001D01*
X80563804Y-65510997D01*
X81814802Y-64260000D01*
X87095676Y-64260000D01*
X87132998Y-64263676D01*
X87170320Y-64260000D01*
X87170331Y-64260000D01*
X87281984Y-64249003D01*
X87425245Y-64205546D01*
X87557274Y-64134974D01*
X87672999Y-64040001D01*
X87696802Y-64010997D01*
X87978044Y-63729755D01*
X88049226Y-63800937D01*
X88218744Y-63914205D01*
X88407102Y-63992226D01*
X88607061Y-64032000D01*
X88810939Y-64032000D01*
X89010898Y-63992226D01*
X89199256Y-63914205D01*
X89368774Y-63800937D01*
X89412711Y-63757000D01*
X102543849Y-63757000D01*
X102551082Y-63774463D01*
X102730013Y-64042252D01*
X102957748Y-64269987D01*
X103225537Y-64448918D01*
X103523088Y-64572168D01*
X103838967Y-64635000D01*
X104161033Y-64635000D01*
X104476912Y-64572168D01*
X104774463Y-64448918D01*
X105042252Y-64269987D01*
X105269987Y-64042252D01*
X105448918Y-63774463D01*
X105454909Y-63760000D01*
X109045091Y-63760000D01*
X109051082Y-63774463D01*
X109230013Y-64042252D01*
X109457748Y-64269987D01*
X109725537Y-64448918D01*
X110023088Y-64572168D01*
X110338967Y-64635000D01*
X110661033Y-64635000D01*
X110976912Y-64572168D01*
X111274463Y-64448918D01*
X111542252Y-64269987D01*
X111769987Y-64042252D01*
X111862676Y-63903532D01*
X114083137Y-63903532D01*
X116000000Y-65820395D01*
X117916863Y-63903532D01*
X117658702Y-63500927D01*
X117139285Y-63225349D01*
X116576087Y-63056399D01*
X115990750Y-63000570D01*
X115405767Y-63060008D01*
X114843621Y-63232429D01*
X114341298Y-63500927D01*
X114083137Y-63903532D01*
X111862676Y-63903532D01*
X111948918Y-63774463D01*
X111954909Y-63760000D01*
X112925678Y-63760000D01*
X112963000Y-63763676D01*
X113000322Y-63760000D01*
X113000333Y-63760000D01*
X113111986Y-63749003D01*
X113255247Y-63705546D01*
X113387276Y-63634974D01*
X113503001Y-63540001D01*
X113526804Y-63510997D01*
X113984998Y-63052803D01*
X114014001Y-63029001D01*
X114099947Y-62924276D01*
X114108974Y-62913277D01*
X114179546Y-62781247D01*
X114201839Y-62707754D01*
X114223003Y-62637986D01*
X114234000Y-62526333D01*
X114234000Y-62526324D01*
X114237676Y-62489001D01*
X114234000Y-62451678D01*
X114234000Y-59755801D01*
X114398402Y-59591400D01*
X114596122Y-59591400D01*
X114720825Y-59778032D01*
X114927668Y-59984875D01*
X115102060Y-60101400D01*
X114927668Y-60217925D01*
X114720825Y-60424768D01*
X114558310Y-60667989D01*
X114446368Y-60938242D01*
X114389300Y-61225140D01*
X114389300Y-61517660D01*
X114446368Y-61804558D01*
X114558310Y-62074811D01*
X114720825Y-62318032D01*
X114927668Y-62524875D01*
X115170889Y-62687390D01*
X115441142Y-62799332D01*
X115728040Y-62856400D01*
X116020560Y-62856400D01*
X116307458Y-62799332D01*
X116577711Y-62687390D01*
X116820932Y-62524875D01*
X117027775Y-62318032D01*
X117190290Y-62074811D01*
X117302232Y-61804558D01*
X117359300Y-61517660D01*
X117359300Y-61225140D01*
X117302232Y-60938242D01*
X117190290Y-60667989D01*
X117027775Y-60424768D01*
X116820932Y-60217925D01*
X116646540Y-60101400D01*
X116820932Y-59984875D01*
X117027775Y-59778032D01*
X117190290Y-59534811D01*
X117302232Y-59264558D01*
X117359300Y-58977660D01*
X117359300Y-58685140D01*
X117302232Y-58398242D01*
X117190290Y-58127989D01*
X117027775Y-57884768D01*
X116820932Y-57677925D01*
X116646540Y-57561400D01*
X116820932Y-57444875D01*
X117027775Y-57238032D01*
X117190290Y-56994811D01*
X117302232Y-56724558D01*
X117359300Y-56437660D01*
X117359300Y-56145140D01*
X117302232Y-55858242D01*
X117190290Y-55587989D01*
X117027775Y-55344768D01*
X116820932Y-55137925D01*
X116638766Y-55016205D01*
X116755655Y-54946578D01*
X116971888Y-54751669D01*
X117145941Y-54518320D01*
X117271125Y-54255499D01*
X117315776Y-54108290D01*
X117194455Y-53878400D01*
X116001300Y-53878400D01*
X116001300Y-53898400D01*
X115747300Y-53898400D01*
X115747300Y-53878400D01*
X114554145Y-53878400D01*
X114432824Y-54108290D01*
X114477475Y-54255499D01*
X114602659Y-54518320D01*
X114776712Y-54751669D01*
X114992945Y-54946578D01*
X115109834Y-55016205D01*
X114927668Y-55137925D01*
X114720825Y-55344768D01*
X114596122Y-55531400D01*
X114247922Y-55531400D01*
X114210599Y-55527724D01*
X114173276Y-55531400D01*
X114173267Y-55531400D01*
X114081600Y-55540429D01*
X114081600Y-52097701D01*
X114207902Y-51971400D01*
X114596122Y-51971400D01*
X114720825Y-52158032D01*
X114927668Y-52364875D01*
X115109834Y-52486595D01*
X114992945Y-52556222D01*
X114776712Y-52751131D01*
X114602659Y-52984480D01*
X114477475Y-53247301D01*
X114432824Y-53394510D01*
X114554145Y-53624400D01*
X115747300Y-53624400D01*
X115747300Y-53604400D01*
X116001300Y-53604400D01*
X116001300Y-53624400D01*
X117194455Y-53624400D01*
X117315776Y-53394510D01*
X117271125Y-53247301D01*
X117145941Y-52984480D01*
X116971888Y-52751131D01*
X116755655Y-52556222D01*
X116638766Y-52486595D01*
X116820932Y-52364875D01*
X117027775Y-52158032D01*
X117190290Y-51914811D01*
X117302232Y-51644558D01*
X117359300Y-51357660D01*
X117359300Y-51065140D01*
X117302232Y-50778242D01*
X117190290Y-50507989D01*
X117027775Y-50264768D01*
X116895920Y-50132913D01*
X116968480Y-50110902D01*
X117078794Y-50051937D01*
X117175485Y-49972585D01*
X117254837Y-49875894D01*
X117313802Y-49765580D01*
X117350112Y-49645882D01*
X117362372Y-49521400D01*
X117362372Y-47821400D01*
X117350112Y-47696918D01*
X117313802Y-47577220D01*
X117254837Y-47466906D01*
X117175485Y-47370215D01*
X117078794Y-47290863D01*
X116968480Y-47231898D01*
X116848782Y-47195588D01*
X116724300Y-47183328D01*
X115024300Y-47183328D01*
X114899818Y-47195588D01*
X114780120Y-47231898D01*
X114669806Y-47290863D01*
X114573115Y-47370215D01*
X114493763Y-47466906D01*
X114434798Y-47577220D01*
X114398488Y-47696918D01*
X114386228Y-47821400D01*
X114386228Y-49521400D01*
X114398488Y-49645882D01*
X114434798Y-49765580D01*
X114493763Y-49875894D01*
X114573115Y-49972585D01*
X114669806Y-50051937D01*
X114780120Y-50110902D01*
X114852680Y-50132913D01*
X114720825Y-50264768D01*
X114596122Y-50451400D01*
X113930422Y-50451400D01*
X113893099Y-50447724D01*
X113855776Y-50451400D01*
X113855767Y-50451400D01*
X113744114Y-50462397D01*
X113610562Y-50502909D01*
X113600853Y-50505854D01*
X113468823Y-50576426D01*
X113397483Y-50634974D01*
X113353099Y-50671399D01*
X113329300Y-50700398D01*
X112810598Y-51219101D01*
X112781600Y-51242899D01*
X112757802Y-51271897D01*
X112757801Y-51271898D01*
X112686626Y-51358624D01*
X112616054Y-51490654D01*
X112590249Y-51575724D01*
X112572598Y-51633914D01*
X112562149Y-51740000D01*
X112557924Y-51782900D01*
X112561601Y-51820232D01*
X112561600Y-55455899D01*
X112511499Y-55506000D01*
X105376611Y-55506000D01*
X105332674Y-55462063D01*
X105163156Y-55348795D01*
X104974798Y-55270774D01*
X104774839Y-55231000D01*
X104712702Y-55231000D01*
X101172704Y-51691003D01*
X101148901Y-51661999D01*
X101033176Y-51567026D01*
X100901147Y-51496454D01*
X100757886Y-51452997D01*
X100646233Y-51442000D01*
X100646222Y-51442000D01*
X100608900Y-51438324D01*
X100571578Y-51442000D01*
X86352711Y-51442000D01*
X86314774Y-51404063D01*
X86145256Y-51290795D01*
X85956898Y-51212774D01*
X85756939Y-51173000D01*
X85553061Y-51173000D01*
X85353102Y-51212774D01*
X85164744Y-51290795D01*
X84995226Y-51404063D01*
X84851063Y-51548226D01*
X84737795Y-51717744D01*
X84659774Y-51906102D01*
X84620000Y-52106061D01*
X84620000Y-52309939D01*
X84659774Y-52509898D01*
X84737795Y-52698256D01*
X84851063Y-52867774D01*
X84995226Y-53011937D01*
X85164744Y-53125205D01*
X85353102Y-53203226D01*
X85417870Y-53216109D01*
X85427774Y-53265898D01*
X85505795Y-53454256D01*
X85619063Y-53623774D01*
X85763226Y-53767937D01*
X85932744Y-53881205D01*
X86121102Y-53959226D01*
X86321061Y-53999000D01*
X86524939Y-53999000D01*
X86618987Y-53980293D01*
X86648795Y-54052256D01*
X86762063Y-54221774D01*
X86906226Y-54365937D01*
X87075744Y-54479205D01*
X87264102Y-54557226D01*
X87464061Y-54597000D01*
X87667939Y-54597000D01*
X87867898Y-54557226D01*
X88056256Y-54479205D01*
X88225774Y-54365937D01*
X88359711Y-54232000D01*
X99062199Y-54232000D01*
X100512042Y-55681843D01*
X100509744Y-55682795D01*
X100340226Y-55796063D01*
X100196063Y-55940226D01*
X100082795Y-56109744D01*
X100004774Y-56298102D01*
X99965000Y-56498061D01*
X99965000Y-56701939D01*
X100004774Y-56901898D01*
X100082795Y-57090256D01*
X100196063Y-57259774D01*
X100340226Y-57403937D01*
X100509744Y-57517205D01*
X100698102Y-57595226D01*
X100898061Y-57635000D01*
X101101939Y-57635000D01*
X101301898Y-57595226D01*
X101490256Y-57517205D01*
X101659774Y-57403937D01*
X101803937Y-57259774D01*
X101917205Y-57090256D01*
X101918157Y-57087959D01*
X102104996Y-57274798D01*
X102105001Y-57274802D01*
X103676000Y-58845802D01*
X103676000Y-58907939D01*
X103715774Y-59107898D01*
X103793795Y-59296256D01*
X103907063Y-59465774D01*
X104051226Y-59609937D01*
X104220744Y-59723205D01*
X104409102Y-59801226D01*
X104609061Y-59841000D01*
X104812939Y-59841000D01*
X105012898Y-59801226D01*
X105201256Y-59723205D01*
X105370774Y-59609937D01*
X105514937Y-59465774D01*
X105628205Y-59296256D01*
X105706226Y-59107898D01*
X105746000Y-58907939D01*
X105746000Y-58704061D01*
X105706226Y-58504102D01*
X105628205Y-58315744D01*
X105615013Y-58296000D01*
X110114846Y-58296000D01*
X110016795Y-58442744D01*
X109938774Y-58631102D01*
X109899000Y-58831061D01*
X109899000Y-59034939D01*
X109938774Y-59234898D01*
X110016795Y-59423256D01*
X110130063Y-59592774D01*
X110274226Y-59736937D01*
X110443744Y-59850205D01*
X110632102Y-59928226D01*
X110832061Y-59968000D01*
X111035939Y-59968000D01*
X111235898Y-59928226D01*
X111424256Y-59850205D01*
X111593774Y-59736937D01*
X111737937Y-59592774D01*
X111851205Y-59423256D01*
X111929226Y-59234898D01*
X111969000Y-59034939D01*
X111969000Y-58831061D01*
X111929226Y-58631102D01*
X111851205Y-58442744D01*
X111753154Y-58296000D01*
X113539823Y-58296000D01*
X113519800Y-58320398D01*
X112962998Y-58877201D01*
X112934000Y-58900999D01*
X112910202Y-58929997D01*
X112910201Y-58929998D01*
X112839026Y-59016724D01*
X112768454Y-59148754D01*
X112724998Y-59292015D01*
X112710324Y-59441000D01*
X112714001Y-59478332D01*
X112714000Y-62174199D01*
X112648199Y-62240000D01*
X111954909Y-62240000D01*
X111948918Y-62225537D01*
X111769987Y-61957748D01*
X111542252Y-61730013D01*
X111274463Y-61551082D01*
X110976912Y-61427832D01*
X110661033Y-61365000D01*
X110338967Y-61365000D01*
X110023088Y-61427832D01*
X109725537Y-61551082D01*
X109457748Y-61730013D01*
X109230013Y-61957748D01*
X109051082Y-62225537D01*
X109045091Y-62240000D01*
X105454909Y-62240000D01*
X105448918Y-62225537D01*
X105269987Y-61957748D01*
X105042252Y-61730013D01*
X104774463Y-61551082D01*
X104476912Y-61427832D01*
X104161033Y-61365000D01*
X103838967Y-61365000D01*
X103523088Y-61427832D01*
X103225537Y-61551082D01*
X102957748Y-61730013D01*
X102730013Y-61957748D01*
X102551082Y-62225537D01*
X102546334Y-62237000D01*
X93235651Y-62237000D01*
X93249003Y-62192984D01*
X93249361Y-62189350D01*
X93303937Y-62134774D01*
X93417205Y-61965256D01*
X93495226Y-61776898D01*
X93535000Y-61576939D01*
X93535000Y-61373061D01*
X93495226Y-61173102D01*
X93417205Y-60984744D01*
X93303937Y-60815226D01*
X93159774Y-60671063D01*
X92990256Y-60557795D01*
X92801898Y-60479774D01*
X92601939Y-60440000D01*
X92398061Y-60440000D01*
X92198102Y-60479774D01*
X92009744Y-60557795D01*
X92000000Y-60564306D01*
X91990256Y-60557795D01*
X91801898Y-60479774D01*
X91601939Y-60440000D01*
X91398061Y-60440000D01*
X91198102Y-60479774D01*
X91009744Y-60557795D01*
X90840226Y-60671063D01*
X90796289Y-60715000D01*
X90615000Y-60715000D01*
X90615000Y-60648061D01*
X90575226Y-60448102D01*
X90497205Y-60259744D01*
X90383937Y-60090226D01*
X90239774Y-59946063D01*
X90070256Y-59832795D01*
X89881898Y-59754774D01*
X89681939Y-59715000D01*
X89478061Y-59715000D01*
X89278102Y-59754774D01*
X89089744Y-59832795D01*
X88920226Y-59946063D01*
X88876289Y-59990000D01*
X88287323Y-59990000D01*
X88250000Y-59986324D01*
X88212677Y-59990000D01*
X88212667Y-59990000D01*
X88101014Y-60000997D01*
X87957753Y-60044454D01*
X87825724Y-60115026D01*
X87709999Y-60209999D01*
X87686201Y-60238997D01*
X86085219Y-61839980D01*
X85979458Y-61839980D01*
X85995232Y-61801898D01*
X86035006Y-61601939D01*
X86035006Y-61398061D01*
X85995232Y-61198102D01*
X85917211Y-61009744D01*
X85916360Y-61008471D01*
X88664832Y-58260000D01*
X89796289Y-58260000D01*
X89840226Y-58303937D01*
X90009744Y-58417205D01*
X90198102Y-58495226D01*
X90398061Y-58535000D01*
X90601939Y-58535000D01*
X90801898Y-58495226D01*
X90990256Y-58417205D01*
X91159774Y-58303937D01*
X91303937Y-58159774D01*
X91417205Y-57990256D01*
X91495226Y-57801898D01*
X91535000Y-57601939D01*
X91535000Y-57398061D01*
X91495226Y-57198102D01*
X91417205Y-57009744D01*
X91303937Y-56840226D01*
X91159774Y-56696063D01*
X90990256Y-56582795D01*
X90801898Y-56504774D01*
X90601939Y-56465000D01*
X90398061Y-56465000D01*
X90198102Y-56504774D01*
X90009744Y-56582795D01*
X89840226Y-56696063D01*
X89796289Y-56740000D01*
X88387355Y-56740000D01*
X88350030Y-56736324D01*
X88312705Y-56740000D01*
X88312697Y-56740000D01*
X88201044Y-56750997D01*
X88057783Y-56794454D01*
X87925754Y-56865026D01*
X87810029Y-56959999D01*
X87786231Y-56988997D01*
X84860230Y-59914999D01*
X82225914Y-59914999D01*
X82188591Y-59911323D01*
X82151268Y-59914999D01*
X82151258Y-59914999D01*
X82039605Y-59925996D01*
X81901134Y-59968000D01*
X81896344Y-59969453D01*
X81764314Y-60040025D01*
X81745568Y-60055410D01*
X81648590Y-60134998D01*
X81624792Y-60163996D01*
X79548789Y-62240000D01*
X54503560Y-62240000D01*
X54495226Y-62198102D01*
X54417205Y-62009744D01*
X54303937Y-61840226D01*
X54159774Y-61696063D01*
X53990256Y-61582795D01*
X53801898Y-61504774D01*
X53601939Y-61465000D01*
X53398061Y-61465000D01*
X53198102Y-61504774D01*
X53009744Y-61582795D01*
X52840226Y-61696063D01*
X52696063Y-61840226D01*
X52582795Y-62009744D01*
X52504774Y-62198102D01*
X52465000Y-62398061D01*
X52465000Y-62601939D01*
X52504774Y-62801898D01*
X52582795Y-62990256D01*
X52696063Y-63159774D01*
X52840226Y-63303937D01*
X53008695Y-63416504D01*
X52409002Y-64016196D01*
X52379999Y-64039999D01*
X52350681Y-64075724D01*
X52285026Y-64155724D01*
X52255482Y-64210997D01*
X52214454Y-64287754D01*
X52170997Y-64431015D01*
X52160000Y-64542668D01*
X52160000Y-64542678D01*
X52156324Y-64580000D01*
X52160000Y-64617323D01*
X52160000Y-66011928D01*
X52070000Y-66011928D01*
X51945518Y-66024188D01*
X51825820Y-66060498D01*
X51715506Y-66119463D01*
X51618815Y-66198815D01*
X51539463Y-66295506D01*
X51480498Y-66405820D01*
X51444188Y-66525518D01*
X51431928Y-66650000D01*
X46753856Y-66650000D01*
X46735178Y-66618645D01*
X46540269Y-66402412D01*
X46306920Y-66228359D01*
X46044099Y-66103175D01*
X45896890Y-66058524D01*
X45667000Y-66179845D01*
X45413000Y-66179845D01*
X45183110Y-66058524D01*
X45035901Y-66103175D01*
X44773080Y-66228359D01*
X44539731Y-66402412D01*
X44463966Y-66486466D01*
X44439502Y-66405820D01*
X44380537Y-66295506D01*
X44301185Y-66198815D01*
X44204494Y-66119463D01*
X44094180Y-66060498D01*
X43974482Y-66024188D01*
X43850000Y-66011928D01*
X42150000Y-66011928D01*
X42025518Y-66024188D01*
X41905820Y-66060498D01*
X41795506Y-66119463D01*
X41698815Y-66198815D01*
X41619463Y-66295506D01*
X41560498Y-66405820D01*
X41524188Y-66525518D01*
X41511928Y-66650000D01*
X31921428Y-66650000D01*
X31943601Y-66576087D01*
X31999430Y-65990750D01*
X31939992Y-65405767D01*
X31784269Y-64898061D01*
X32465000Y-64898061D01*
X32465000Y-65101939D01*
X32504774Y-65301898D01*
X32582795Y-65490256D01*
X32696063Y-65659774D01*
X32840226Y-65803937D01*
X33009744Y-65917205D01*
X33198102Y-65995226D01*
X33398061Y-66035000D01*
X33601939Y-66035000D01*
X33801898Y-65995226D01*
X33990256Y-65917205D01*
X34159774Y-65803937D01*
X34303937Y-65659774D01*
X34417205Y-65490256D01*
X34495226Y-65301898D01*
X34535000Y-65101939D01*
X34535000Y-64898061D01*
X34495226Y-64698102D01*
X34417205Y-64509744D01*
X34303937Y-64340226D01*
X34159774Y-64196063D01*
X33990256Y-64082795D01*
X33801898Y-64004774D01*
X33601939Y-63965000D01*
X33398061Y-63965000D01*
X33198102Y-64004774D01*
X33009744Y-64082795D01*
X32840226Y-64196063D01*
X32696063Y-64340226D01*
X32582795Y-64509744D01*
X32504774Y-64698102D01*
X32465000Y-64898061D01*
X31784269Y-64898061D01*
X31767571Y-64843621D01*
X31499073Y-64341298D01*
X31096468Y-64083137D01*
X29179605Y-66000000D01*
X28820395Y-66000000D01*
X26903532Y-64083137D01*
X26500927Y-64341298D01*
X26225349Y-64860715D01*
X26056399Y-65423913D01*
X26000570Y-66009250D01*
X25660000Y-66009250D01*
X25660000Y-63903532D01*
X27083137Y-63903532D01*
X29000000Y-65820395D01*
X30916863Y-63903532D01*
X30658702Y-63500927D01*
X30139285Y-63225349D01*
X29576087Y-63056399D01*
X28990750Y-63000570D01*
X28405767Y-63060008D01*
X27843621Y-63232429D01*
X27341298Y-63500927D01*
X27083137Y-63903532D01*
X25660000Y-63903532D01*
X25660000Y-57650000D01*
X29511928Y-57650000D01*
X29511928Y-59350000D01*
X29524188Y-59474482D01*
X29560498Y-59594180D01*
X29619463Y-59704494D01*
X29698815Y-59801185D01*
X29795506Y-59880537D01*
X29905820Y-59939502D01*
X29978380Y-59961513D01*
X29846525Y-60093368D01*
X29684010Y-60336589D01*
X29572068Y-60606842D01*
X29515000Y-60893740D01*
X29515000Y-61186260D01*
X29572068Y-61473158D01*
X29684010Y-61743411D01*
X29846525Y-61986632D01*
X30053368Y-62193475D01*
X30296589Y-62355990D01*
X30566842Y-62467932D01*
X30853740Y-62525000D01*
X31146260Y-62525000D01*
X31433158Y-62467932D01*
X31703411Y-62355990D01*
X31946632Y-62193475D01*
X32153475Y-61986632D01*
X32315990Y-61743411D01*
X32427932Y-61473158D01*
X32485000Y-61186260D01*
X32485000Y-60893740D01*
X32427932Y-60606842D01*
X32315990Y-60336589D01*
X32153475Y-60093368D01*
X32021620Y-59961513D01*
X32094180Y-59939502D01*
X32104959Y-59933740D01*
X62515000Y-59933740D01*
X62515000Y-60226260D01*
X62572068Y-60513158D01*
X62684010Y-60783411D01*
X62846525Y-61026632D01*
X63053368Y-61233475D01*
X63296589Y-61395990D01*
X63566842Y-61507932D01*
X63853740Y-61565000D01*
X64146260Y-61565000D01*
X64433158Y-61507932D01*
X64703411Y-61395990D01*
X64946632Y-61233475D01*
X65153475Y-61026632D01*
X65315990Y-60783411D01*
X65427932Y-60513158D01*
X65485000Y-60226260D01*
X65485000Y-59933740D01*
X65427932Y-59646842D01*
X65324884Y-59398061D01*
X72465000Y-59398061D01*
X72465000Y-59601939D01*
X72504774Y-59801898D01*
X72582795Y-59990256D01*
X72696063Y-60159774D01*
X72840226Y-60303937D01*
X73009744Y-60417205D01*
X73198102Y-60495226D01*
X73398061Y-60535000D01*
X73601939Y-60535000D01*
X73801898Y-60495226D01*
X73990256Y-60417205D01*
X74159774Y-60303937D01*
X74303937Y-60159774D01*
X74417205Y-59990256D01*
X74495226Y-59801898D01*
X74535000Y-59601939D01*
X74535000Y-59398061D01*
X74495226Y-59198102D01*
X74417205Y-59009744D01*
X74303937Y-58840226D01*
X74159774Y-58696063D01*
X73990256Y-58582795D01*
X73801898Y-58504774D01*
X73601939Y-58465000D01*
X73398061Y-58465000D01*
X73198102Y-58504774D01*
X73009744Y-58582795D01*
X72840226Y-58696063D01*
X72696063Y-58840226D01*
X72582795Y-59009744D01*
X72504774Y-59198102D01*
X72465000Y-59398061D01*
X65324884Y-59398061D01*
X65315990Y-59376589D01*
X65153475Y-59133368D01*
X64946632Y-58926525D01*
X64764466Y-58804805D01*
X64881355Y-58735178D01*
X65097588Y-58540269D01*
X65271641Y-58306920D01*
X65396825Y-58044099D01*
X65441476Y-57896890D01*
X65320155Y-57667000D01*
X64127000Y-57667000D01*
X64127000Y-57687000D01*
X63873000Y-57687000D01*
X63873000Y-57667000D01*
X62679845Y-57667000D01*
X62558524Y-57896890D01*
X62603175Y-58044099D01*
X62728359Y-58306920D01*
X62902412Y-58540269D01*
X63118645Y-58735178D01*
X63235534Y-58804805D01*
X63053368Y-58926525D01*
X62846525Y-59133368D01*
X62684010Y-59376589D01*
X62572068Y-59646842D01*
X62515000Y-59933740D01*
X32104959Y-59933740D01*
X32204494Y-59880537D01*
X32301185Y-59801185D01*
X32380537Y-59704494D01*
X32439502Y-59594180D01*
X32475812Y-59474482D01*
X32488072Y-59350000D01*
X32488072Y-57650000D01*
X32475812Y-57525518D01*
X32439502Y-57405820D01*
X32380537Y-57295506D01*
X32301185Y-57198815D01*
X32204494Y-57119463D01*
X32094180Y-57060498D01*
X31974482Y-57024188D01*
X31850000Y-57011928D01*
X30150000Y-57011928D01*
X30025518Y-57024188D01*
X29905820Y-57060498D01*
X29795506Y-57119463D01*
X29698815Y-57198815D01*
X29619463Y-57295506D01*
X29560498Y-57405820D01*
X29524188Y-57525518D01*
X29511928Y-57650000D01*
X25660000Y-57650000D01*
X25660000Y-50365000D01*
X29506928Y-50365000D01*
X29506928Y-52065000D01*
X29519188Y-52189482D01*
X29555498Y-52309180D01*
X29614463Y-52419494D01*
X29693815Y-52516185D01*
X29790506Y-52595537D01*
X29900820Y-52654502D01*
X29973380Y-52676513D01*
X29841525Y-52808368D01*
X29679010Y-53051589D01*
X29567068Y-53321842D01*
X29510000Y-53608740D01*
X29510000Y-53901260D01*
X29567068Y-54188158D01*
X29679010Y-54458411D01*
X29841525Y-54701632D01*
X30048368Y-54908475D01*
X30291589Y-55070990D01*
X30561842Y-55182932D01*
X30848740Y-55240000D01*
X31141260Y-55240000D01*
X31428158Y-55182932D01*
X31698411Y-55070990D01*
X31941632Y-54908475D01*
X32148475Y-54701632D01*
X32273178Y-54515000D01*
X39707678Y-54515000D01*
X39745000Y-54518676D01*
X39782322Y-54515000D01*
X39782333Y-54515000D01*
X39792486Y-54514000D01*
X39898061Y-54535000D01*
X40101939Y-54535000D01*
X40301898Y-54495226D01*
X40490256Y-54417205D01*
X40659774Y-54303937D01*
X40803937Y-54159774D01*
X40917205Y-53990256D01*
X40995226Y-53801898D01*
X41035000Y-53601939D01*
X41035000Y-53398061D01*
X40995226Y-53198102D01*
X40917205Y-53009744D01*
X40803937Y-52840226D01*
X40659774Y-52696063D01*
X40490256Y-52582795D01*
X40301898Y-52504774D01*
X40101939Y-52465000D01*
X39898061Y-52465000D01*
X39698102Y-52504774D01*
X39509744Y-52582795D01*
X39340226Y-52696063D01*
X39196063Y-52840226D01*
X39092647Y-52995000D01*
X32273178Y-52995000D01*
X32148475Y-52808368D01*
X32016620Y-52676513D01*
X32089180Y-52654502D01*
X32199494Y-52595537D01*
X32296185Y-52516185D01*
X32375537Y-52419494D01*
X32434502Y-52309180D01*
X32470812Y-52189482D01*
X32483072Y-52065000D01*
X32483072Y-51398061D01*
X50965000Y-51398061D01*
X50965000Y-51601939D01*
X51004774Y-51801898D01*
X51082795Y-51990256D01*
X51196063Y-52159774D01*
X51286289Y-52250000D01*
X51196063Y-52340226D01*
X51082795Y-52509744D01*
X51004774Y-52698102D01*
X50965000Y-52898061D01*
X50965000Y-53101939D01*
X51004774Y-53301898D01*
X51082795Y-53490256D01*
X51196063Y-53659774D01*
X51340226Y-53803937D01*
X51509744Y-53917205D01*
X51698102Y-53995226D01*
X51898061Y-54035000D01*
X52101939Y-54035000D01*
X52301898Y-53995226D01*
X52490256Y-53917205D01*
X52659774Y-53803937D01*
X52703711Y-53760000D01*
X62648602Y-53760000D01*
X62619463Y-53795506D01*
X62560498Y-53905820D01*
X62524188Y-54025518D01*
X62511928Y-54150000D01*
X62511928Y-55850000D01*
X62524188Y-55974482D01*
X62560498Y-56094180D01*
X62619463Y-56204494D01*
X62698815Y-56301185D01*
X62795506Y-56380537D01*
X62905820Y-56439502D01*
X62986466Y-56463966D01*
X62902412Y-56539731D01*
X62728359Y-56773080D01*
X62603175Y-57035901D01*
X62558524Y-57183110D01*
X62679845Y-57413000D01*
X63873000Y-57413000D01*
X63873000Y-57393000D01*
X64127000Y-57393000D01*
X64127000Y-57413000D01*
X65320155Y-57413000D01*
X65441476Y-57183110D01*
X65396825Y-57035901D01*
X65271641Y-56773080D01*
X65097588Y-56539731D01*
X65013534Y-56463966D01*
X65094180Y-56439502D01*
X65204494Y-56380537D01*
X65301185Y-56301185D01*
X65380537Y-56204494D01*
X65439502Y-56094180D01*
X65475812Y-55974482D01*
X65488072Y-55850000D01*
X65488072Y-54150000D01*
X65475812Y-54025518D01*
X65439502Y-53905820D01*
X65380537Y-53795506D01*
X65351398Y-53760000D01*
X74492462Y-53760000D01*
X74465000Y-53898061D01*
X74465000Y-54101939D01*
X74504774Y-54301898D01*
X74582795Y-54490256D01*
X74696063Y-54659774D01*
X74840226Y-54803937D01*
X75009744Y-54917205D01*
X75198102Y-54995226D01*
X75398061Y-55035000D01*
X75601939Y-55035000D01*
X75801898Y-54995226D01*
X75990256Y-54917205D01*
X76159774Y-54803937D01*
X76303937Y-54659774D01*
X76417205Y-54490256D01*
X76495226Y-54301898D01*
X76535000Y-54101939D01*
X76535000Y-53898061D01*
X76507538Y-53760000D01*
X79112685Y-53760000D01*
X79196063Y-53884784D01*
X79340226Y-54028947D01*
X79509744Y-54142215D01*
X79698102Y-54220236D01*
X79898061Y-54260010D01*
X80101939Y-54260010D01*
X80301898Y-54220236D01*
X80490256Y-54142215D01*
X80659774Y-54028947D01*
X80803937Y-53884784D01*
X80917205Y-53715266D01*
X80995226Y-53526908D01*
X81035000Y-53326949D01*
X81035000Y-53123071D01*
X81021497Y-53055187D01*
X81040001Y-53040001D01*
X81044105Y-53035000D01*
X81101939Y-53035000D01*
X81301898Y-52995226D01*
X81490256Y-52917205D01*
X81659774Y-52803937D01*
X81803937Y-52659774D01*
X81917205Y-52490256D01*
X81995226Y-52301898D01*
X82035000Y-52101939D01*
X82035000Y-51898061D01*
X81995226Y-51698102D01*
X81917205Y-51509744D01*
X81803937Y-51340226D01*
X81659774Y-51196063D01*
X81490256Y-51082795D01*
X81301898Y-51004774D01*
X81101939Y-50965000D01*
X80898061Y-50965000D01*
X80698102Y-51004774D01*
X80509744Y-51082795D01*
X80340226Y-51196063D01*
X80196063Y-51340226D01*
X80082795Y-51509744D01*
X80004774Y-51698102D01*
X79996440Y-51740000D01*
X79911542Y-51740000D01*
X79935990Y-51703411D01*
X80047932Y-51433158D01*
X80105000Y-51146260D01*
X80105000Y-50853740D01*
X80047932Y-50566842D01*
X79935990Y-50296589D01*
X79773475Y-50053368D01*
X79566632Y-49846525D01*
X79437138Y-49760000D01*
X89462678Y-49760000D01*
X89500000Y-49763676D01*
X89537322Y-49760000D01*
X89537333Y-49760000D01*
X89648986Y-49749003D01*
X89792247Y-49705546D01*
X89924276Y-49634974D01*
X90040001Y-49540001D01*
X90044105Y-49535000D01*
X90101939Y-49535000D01*
X90301898Y-49495226D01*
X90490256Y-49417205D01*
X90659774Y-49303937D01*
X90803937Y-49159774D01*
X90917205Y-48990256D01*
X90995226Y-48801898D01*
X91035000Y-48601939D01*
X91035000Y-48398061D01*
X91027284Y-48359267D01*
X99533680Y-48359267D01*
X99607558Y-48640830D01*
X99734947Y-48902570D01*
X99910951Y-49134429D01*
X100128807Y-49327496D01*
X100380142Y-49474352D01*
X100643110Y-49566476D01*
X100873000Y-49445155D01*
X100873000Y-48127000D01*
X99673835Y-48127000D01*
X99533680Y-48359267D01*
X91027284Y-48359267D01*
X90995226Y-48198102D01*
X90917205Y-48009744D01*
X90803937Y-47840226D01*
X90659774Y-47696063D01*
X90576967Y-47640733D01*
X99533680Y-47640733D01*
X99673835Y-47873000D01*
X100873000Y-47873000D01*
X100873000Y-46554845D01*
X100643110Y-46433524D01*
X100380142Y-46525648D01*
X100128807Y-46672504D01*
X99910951Y-46865571D01*
X99734947Y-47097430D01*
X99607558Y-47359170D01*
X99533680Y-47640733D01*
X90576967Y-47640733D01*
X90490256Y-47582795D01*
X90301898Y-47504774D01*
X90101939Y-47465000D01*
X89898061Y-47465000D01*
X89698102Y-47504774D01*
X89694844Y-47506123D01*
X89659774Y-47471053D01*
X89490256Y-47357785D01*
X89301898Y-47279764D01*
X89101939Y-47239990D01*
X88898061Y-47239990D01*
X88698102Y-47279764D01*
X88509744Y-47357785D01*
X88340226Y-47471053D01*
X88196063Y-47615216D01*
X88112685Y-47740000D01*
X65537322Y-47740000D01*
X65499999Y-47736324D01*
X65462676Y-47740000D01*
X65462667Y-47740000D01*
X65351014Y-47750997D01*
X65207753Y-47794454D01*
X65075724Y-47865026D01*
X64959999Y-47959999D01*
X64936201Y-47988997D01*
X63488998Y-49436201D01*
X63460000Y-49459999D01*
X63436202Y-49488997D01*
X63436201Y-49488998D01*
X63365026Y-49575724D01*
X63294454Y-49707754D01*
X63250998Y-49851015D01*
X63236324Y-50000000D01*
X63240001Y-50037332D01*
X63240001Y-50296288D01*
X63196063Y-50340226D01*
X63082795Y-50509744D01*
X63004774Y-50698102D01*
X62965000Y-50898061D01*
X62965000Y-51101939D01*
X63004774Y-51301898D01*
X63082795Y-51490256D01*
X63196063Y-51659774D01*
X63276289Y-51740000D01*
X53314802Y-51740000D01*
X53035000Y-51460199D01*
X53035000Y-51398061D01*
X52995226Y-51198102D01*
X52917205Y-51009744D01*
X52803937Y-50840226D01*
X52659774Y-50696063D01*
X52490256Y-50582795D01*
X52301898Y-50504774D01*
X52101939Y-50465000D01*
X51898061Y-50465000D01*
X51698102Y-50504774D01*
X51509744Y-50582795D01*
X51340226Y-50696063D01*
X51196063Y-50840226D01*
X51082795Y-51009744D01*
X51004774Y-51198102D01*
X50965000Y-51398061D01*
X32483072Y-51398061D01*
X32483072Y-50365000D01*
X32470812Y-50240518D01*
X32434502Y-50120820D01*
X32375537Y-50010506D01*
X32296185Y-49913815D01*
X32199494Y-49834463D01*
X32089180Y-49775498D01*
X31969482Y-49739188D01*
X31845000Y-49726928D01*
X30145000Y-49726928D01*
X30020518Y-49739188D01*
X29900820Y-49775498D01*
X29790506Y-49834463D01*
X29693815Y-49913815D01*
X29614463Y-50010506D01*
X29555498Y-50120820D01*
X29519188Y-50240518D01*
X29506928Y-50365000D01*
X25660000Y-50365000D01*
X25660000Y-46096468D01*
X27083137Y-46096468D01*
X27341298Y-46499073D01*
X27860715Y-46774651D01*
X28423913Y-46943601D01*
X29009250Y-46999430D01*
X29594233Y-46939992D01*
X30156379Y-46767571D01*
X30658702Y-46499073D01*
X30800472Y-46277980D01*
X41401626Y-46277980D01*
X41521514Y-46562836D01*
X41845210Y-46723699D01*
X42194069Y-46818322D01*
X42554684Y-46843067D01*
X42913198Y-46796985D01*
X43255833Y-46681846D01*
X43478486Y-46562836D01*
X43598374Y-46277980D01*
X42500000Y-45179605D01*
X41401626Y-46277980D01*
X30800472Y-46277980D01*
X30916863Y-46096468D01*
X29000000Y-44179605D01*
X27083137Y-46096468D01*
X25660000Y-46096468D01*
X25660000Y-44009250D01*
X26000570Y-44009250D01*
X26060008Y-44594233D01*
X26232429Y-45156379D01*
X26500927Y-45658702D01*
X26903532Y-45916863D01*
X28820395Y-44000000D01*
X29179605Y-44000000D01*
X31096468Y-45916863D01*
X31499073Y-45658702D01*
X31774651Y-45139285D01*
X31800029Y-45054684D01*
X40656933Y-45054684D01*
X40703015Y-45413198D01*
X40818154Y-45755833D01*
X40937164Y-45978486D01*
X41222020Y-46098374D01*
X42320395Y-45000000D01*
X42679605Y-45000000D01*
X43777980Y-46098374D01*
X44062836Y-45978486D01*
X44161928Y-45779088D01*
X44161928Y-46200000D01*
X44174188Y-46324482D01*
X44210498Y-46444180D01*
X44269463Y-46554494D01*
X44348815Y-46651185D01*
X44445506Y-46730537D01*
X44555820Y-46789502D01*
X44675518Y-46825812D01*
X44800000Y-46838072D01*
X47200000Y-46838072D01*
X47324482Y-46825812D01*
X47444180Y-46789502D01*
X47554494Y-46730537D01*
X47651185Y-46651185D01*
X47730537Y-46554494D01*
X47789502Y-46444180D01*
X47825812Y-46324482D01*
X47830391Y-46277980D01*
X61401626Y-46277980D01*
X61521514Y-46562836D01*
X61845210Y-46723699D01*
X62194069Y-46818322D01*
X62554684Y-46843067D01*
X62913198Y-46796985D01*
X63255833Y-46681846D01*
X63478486Y-46562836D01*
X63598374Y-46277980D01*
X62500000Y-45179605D01*
X61401626Y-46277980D01*
X47830391Y-46277980D01*
X47838072Y-46200000D01*
X47838072Y-45054684D01*
X60656933Y-45054684D01*
X60703015Y-45413198D01*
X60818154Y-45755833D01*
X60937164Y-45978486D01*
X61222020Y-46098374D01*
X62320395Y-45000000D01*
X61222020Y-43901626D01*
X60937164Y-44021514D01*
X60776301Y-44345210D01*
X60681678Y-44694069D01*
X60656933Y-45054684D01*
X47838072Y-45054684D01*
X47838072Y-43800000D01*
X47830392Y-43722020D01*
X61401626Y-43722020D01*
X62500000Y-44820395D01*
X63598374Y-43722020D01*
X63478486Y-43437164D01*
X63154790Y-43276301D01*
X62805931Y-43181678D01*
X62445316Y-43156933D01*
X62086802Y-43203015D01*
X61744167Y-43318154D01*
X61521514Y-43437164D01*
X61401626Y-43722020D01*
X47830392Y-43722020D01*
X47825812Y-43675518D01*
X47789502Y-43555820D01*
X47730537Y-43445506D01*
X47651185Y-43348815D01*
X47554494Y-43269463D01*
X47444180Y-43210498D01*
X47324482Y-43174188D01*
X47200000Y-43161928D01*
X44800000Y-43161928D01*
X44675518Y-43174188D01*
X44555820Y-43210498D01*
X44445506Y-43269463D01*
X44348815Y-43348815D01*
X44269463Y-43445506D01*
X44210498Y-43555820D01*
X44174188Y-43675518D01*
X44161928Y-43800000D01*
X44161928Y-44206903D01*
X44062836Y-44021514D01*
X43777980Y-43901626D01*
X42679605Y-45000000D01*
X42320395Y-45000000D01*
X41222020Y-43901626D01*
X40937164Y-44021514D01*
X40776301Y-44345210D01*
X40681678Y-44694069D01*
X40656933Y-45054684D01*
X31800029Y-45054684D01*
X31943601Y-44576087D01*
X31999430Y-43990750D01*
X31972126Y-43722020D01*
X41401626Y-43722020D01*
X42500000Y-44820395D01*
X43598374Y-43722020D01*
X43478486Y-43437164D01*
X43154790Y-43276301D01*
X42805931Y-43181678D01*
X42445316Y-43156933D01*
X42086802Y-43203015D01*
X41744167Y-43318154D01*
X41521514Y-43437164D01*
X41401626Y-43722020D01*
X31972126Y-43722020D01*
X31939992Y-43405767D01*
X31767571Y-42843621D01*
X31499073Y-42341298D01*
X31096468Y-42083137D01*
X29179605Y-44000000D01*
X28820395Y-44000000D01*
X26903532Y-42083137D01*
X26500927Y-42341298D01*
X26225349Y-42860715D01*
X26056399Y-43423913D01*
X26000570Y-44009250D01*
X25660000Y-44009250D01*
X25660000Y-41903532D01*
X27083137Y-41903532D01*
X29000000Y-43820395D01*
X30916863Y-41903532D01*
X30658702Y-41500927D01*
X30139285Y-41225349D01*
X29576087Y-41056399D01*
X28990750Y-41000570D01*
X28405767Y-41060008D01*
X27843621Y-41232429D01*
X27341298Y-41500927D01*
X27083137Y-41903532D01*
X25660000Y-41903532D01*
X25660000Y-40660000D01*
X71220379Y-40660000D01*
X71159687Y-40678411D01*
G37*
G04 #@! TD.AperFunction*
M02*
