G04 #@! TF.GenerationSoftware,KiCad,Pcbnew,5.1.10-88a1d61d58~90~ubuntu21.04.1*
G04 #@! TF.CreationDate,2021-10-01T11:59:43+02:00*
G04 #@! TF.ProjectId,IndicatorLeds,496e6469-6361-4746-9f72-4c6564732e6b,rev?*
G04 #@! TF.SameCoordinates,Original*
G04 #@! TF.FileFunction,Copper,L1,Top*
G04 #@! TF.FilePolarity,Positive*
%FSLAX46Y46*%
G04 Gerber Fmt 4.6, Leading zero omitted, Abs format (unit mm)*
G04 Created by KiCad (PCBNEW 5.1.10-88a1d61d58~90~ubuntu21.04.1) date 2021-10-01 11:59:43*
%MOMM*%
%LPD*%
G01*
G04 APERTURE LIST*
G04 #@! TA.AperFunction,SMDPad,CuDef*
%ADD10R,1.500000X1.000000*%
G04 #@! TD*
G04 #@! TA.AperFunction,ComponentPad*
%ADD11O,1.700000X1.700000*%
G04 #@! TD*
G04 #@! TA.AperFunction,ComponentPad*
%ADD12R,1.700000X1.700000*%
G04 #@! TD*
G04 #@! TA.AperFunction,ViaPad*
%ADD13C,0.800000*%
G04 #@! TD*
G04 #@! TA.AperFunction,Conductor*
%ADD14C,0.250000*%
G04 #@! TD*
G04 #@! TA.AperFunction,Conductor*
%ADD15C,0.254000*%
G04 #@! TD*
G04 #@! TA.AperFunction,Conductor*
%ADD16C,0.100000*%
G04 #@! TD*
G04 APERTURE END LIST*
D10*
X100050000Y-100900000D03*
X100050000Y-104100000D03*
X104950000Y-100900000D03*
X104950000Y-104100000D03*
X100050000Y-105900000D03*
X100050000Y-109100000D03*
X104950000Y-105900000D03*
X104950000Y-109100000D03*
X100050000Y-110900000D03*
X100050000Y-114100000D03*
X104950000Y-110900000D03*
X104950000Y-114100000D03*
D11*
X99949000Y-117221000D03*
X99949000Y-119761000D03*
X102489000Y-117221000D03*
X102489000Y-119761000D03*
X105029000Y-117221000D03*
D12*
X105029000Y-119761000D03*
D13*
X101473000Y-105918000D03*
X101346000Y-110871000D03*
X102000000Y-101500016D03*
X103500000Y-101000000D03*
D14*
X104950000Y-110900000D02*
X104169000Y-110900000D01*
X102369000Y-109100000D02*
X100050000Y-109100000D01*
X104169000Y-110900000D02*
X102369000Y-109100000D01*
X100050000Y-114100000D02*
X100600000Y-114100000D01*
X101124001Y-118585999D02*
X99949000Y-119761000D01*
X101124001Y-114624001D02*
X101124001Y-118585999D01*
X100600000Y-114100000D02*
X101124001Y-114624001D01*
X101455000Y-105900000D02*
X101473000Y-105918000D01*
X100050000Y-105900000D02*
X101455000Y-105900000D01*
X101317000Y-110900000D02*
X101346000Y-110871000D01*
X100050000Y-110900000D02*
X101317000Y-110900000D01*
X100050000Y-100900000D02*
X101399984Y-100900000D01*
X101399984Y-100900000D02*
X102000000Y-101500016D01*
X104950000Y-105900000D02*
X104376000Y-105900000D01*
X102576000Y-104100000D02*
X100050000Y-104100000D01*
X104376000Y-105900000D02*
X102576000Y-104100000D01*
X104850000Y-101000000D02*
X104950000Y-100900000D01*
X103500000Y-101000000D02*
X104850000Y-101000000D01*
D15*
X106840000Y-120840000D02*
X106473107Y-120840000D01*
X106504812Y-120735482D01*
X106517072Y-120611000D01*
X106514000Y-120046750D01*
X106355250Y-119888000D01*
X105156000Y-119888000D01*
X105156000Y-119908000D01*
X104902000Y-119908000D01*
X104902000Y-119888000D01*
X104882000Y-119888000D01*
X104882000Y-119634000D01*
X104902000Y-119634000D01*
X104902000Y-117348000D01*
X105156000Y-117348000D01*
X105156000Y-119634000D01*
X106355250Y-119634000D01*
X106514000Y-119475250D01*
X106517072Y-118911000D01*
X106504812Y-118786518D01*
X106468502Y-118666820D01*
X106409537Y-118556506D01*
X106330185Y-118459815D01*
X106233494Y-118380463D01*
X106123180Y-118321498D01*
X106047374Y-118298502D01*
X106224178Y-118102355D01*
X106373157Y-117852252D01*
X106470481Y-117577891D01*
X106349814Y-117348000D01*
X105156000Y-117348000D01*
X104902000Y-117348000D01*
X104882000Y-117348000D01*
X104882000Y-117094000D01*
X104902000Y-117094000D01*
X104902000Y-115900845D01*
X105156000Y-115900845D01*
X105156000Y-117094000D01*
X106349814Y-117094000D01*
X106470481Y-116864109D01*
X106373157Y-116589748D01*
X106224178Y-116339645D01*
X106029269Y-116123412D01*
X105795920Y-115949359D01*
X105533099Y-115824175D01*
X105385890Y-115779524D01*
X105156000Y-115900845D01*
X104902000Y-115900845D01*
X104672110Y-115779524D01*
X104524901Y-115824175D01*
X104262080Y-115949359D01*
X104028731Y-116123412D01*
X103833822Y-116339645D01*
X103764195Y-116456534D01*
X103642475Y-116274368D01*
X103435632Y-116067525D01*
X103192411Y-115905010D01*
X102922158Y-115793068D01*
X102635260Y-115736000D01*
X102342740Y-115736000D01*
X102055842Y-115793068D01*
X101884001Y-115864247D01*
X101884001Y-114661323D01*
X101887677Y-114624000D01*
X101885314Y-114600000D01*
X103561928Y-114600000D01*
X103574188Y-114724482D01*
X103610498Y-114844180D01*
X103669463Y-114954494D01*
X103748815Y-115051185D01*
X103845506Y-115130537D01*
X103955820Y-115189502D01*
X104075518Y-115225812D01*
X104200000Y-115238072D01*
X104664250Y-115235000D01*
X104823000Y-115076250D01*
X104823000Y-114227000D01*
X105077000Y-114227000D01*
X105077000Y-115076250D01*
X105235750Y-115235000D01*
X105700000Y-115238072D01*
X105824482Y-115225812D01*
X105944180Y-115189502D01*
X106054494Y-115130537D01*
X106151185Y-115051185D01*
X106230537Y-114954494D01*
X106289502Y-114844180D01*
X106325812Y-114724482D01*
X106338072Y-114600000D01*
X106335000Y-114385750D01*
X106176250Y-114227000D01*
X105077000Y-114227000D01*
X104823000Y-114227000D01*
X103723750Y-114227000D01*
X103565000Y-114385750D01*
X103561928Y-114600000D01*
X101885314Y-114600000D01*
X101884001Y-114586677D01*
X101884001Y-114586668D01*
X101873004Y-114475015D01*
X101829547Y-114331754D01*
X101758975Y-114199725D01*
X101664002Y-114084000D01*
X101635004Y-114060203D01*
X101438072Y-113863270D01*
X101438072Y-113600000D01*
X103561928Y-113600000D01*
X103565000Y-113814250D01*
X103723750Y-113973000D01*
X104823000Y-113973000D01*
X104823000Y-113123750D01*
X105077000Y-113123750D01*
X105077000Y-113973000D01*
X106176250Y-113973000D01*
X106335000Y-113814250D01*
X106338072Y-113600000D01*
X106325812Y-113475518D01*
X106289502Y-113355820D01*
X106230537Y-113245506D01*
X106151185Y-113148815D01*
X106054494Y-113069463D01*
X105944180Y-113010498D01*
X105824482Y-112974188D01*
X105700000Y-112961928D01*
X105235750Y-112965000D01*
X105077000Y-113123750D01*
X104823000Y-113123750D01*
X104664250Y-112965000D01*
X104200000Y-112961928D01*
X104075518Y-112974188D01*
X103955820Y-113010498D01*
X103845506Y-113069463D01*
X103748815Y-113148815D01*
X103669463Y-113245506D01*
X103610498Y-113355820D01*
X103574188Y-113475518D01*
X103561928Y-113600000D01*
X101438072Y-113600000D01*
X101425812Y-113475518D01*
X101389502Y-113355820D01*
X101330537Y-113245506D01*
X101251185Y-113148815D01*
X101154494Y-113069463D01*
X101044180Y-113010498D01*
X100924482Y-112974188D01*
X100800000Y-112961928D01*
X99300000Y-112961928D01*
X99175518Y-112974188D01*
X99055820Y-113010498D01*
X98945506Y-113069463D01*
X98848815Y-113148815D01*
X98769463Y-113245506D01*
X98710498Y-113355820D01*
X98674188Y-113475518D01*
X98661928Y-113600000D01*
X98661928Y-114600000D01*
X98674188Y-114724482D01*
X98710498Y-114844180D01*
X98769463Y-114954494D01*
X98848815Y-115051185D01*
X98945506Y-115130537D01*
X99055820Y-115189502D01*
X99175518Y-115225812D01*
X99300000Y-115238072D01*
X100364001Y-115238072D01*
X100364001Y-115789456D01*
X100095260Y-115736000D01*
X99802740Y-115736000D01*
X99515842Y-115793068D01*
X99245589Y-115905010D01*
X99002368Y-116067525D01*
X98795525Y-116274368D01*
X98633010Y-116517589D01*
X98521068Y-116787842D01*
X98464000Y-117074740D01*
X98464000Y-117367260D01*
X98521068Y-117654158D01*
X98633010Y-117924411D01*
X98795525Y-118167632D01*
X99002368Y-118374475D01*
X99176760Y-118491000D01*
X99002368Y-118607525D01*
X98795525Y-118814368D01*
X98633010Y-119057589D01*
X98521068Y-119327842D01*
X98464000Y-119614740D01*
X98464000Y-119907260D01*
X98521068Y-120194158D01*
X98633010Y-120464411D01*
X98795525Y-120707632D01*
X98927893Y-120840000D01*
X98160000Y-120840000D01*
X98160000Y-108600000D01*
X98661928Y-108600000D01*
X98661928Y-109600000D01*
X98674188Y-109724482D01*
X98710498Y-109844180D01*
X98769463Y-109954494D01*
X98806809Y-110000000D01*
X98769463Y-110045506D01*
X98710498Y-110155820D01*
X98674188Y-110275518D01*
X98661928Y-110400000D01*
X98661928Y-111400000D01*
X98674188Y-111524482D01*
X98710498Y-111644180D01*
X98769463Y-111754494D01*
X98848815Y-111851185D01*
X98945506Y-111930537D01*
X99055820Y-111989502D01*
X99175518Y-112025812D01*
X99300000Y-112038072D01*
X100800000Y-112038072D01*
X100924482Y-112025812D01*
X101044180Y-111989502D01*
X101154494Y-111930537D01*
X101196033Y-111896447D01*
X101244061Y-111906000D01*
X101447939Y-111906000D01*
X101647898Y-111866226D01*
X101836256Y-111788205D01*
X102005774Y-111674937D01*
X102149937Y-111530774D01*
X102263205Y-111361256D01*
X102341226Y-111172898D01*
X102381000Y-110972939D01*
X102381000Y-110769061D01*
X102341226Y-110569102D01*
X102263205Y-110380744D01*
X102149937Y-110211226D01*
X102005774Y-110067063D01*
X101836256Y-109953795D01*
X101647898Y-109875774D01*
X101568596Y-109860000D01*
X102054199Y-109860000D01*
X103561928Y-111367731D01*
X103561928Y-111400000D01*
X103574188Y-111524482D01*
X103610498Y-111644180D01*
X103669463Y-111754494D01*
X103748815Y-111851185D01*
X103845506Y-111930537D01*
X103955820Y-111989502D01*
X104075518Y-112025812D01*
X104200000Y-112038072D01*
X105700000Y-112038072D01*
X105824482Y-112025812D01*
X105944180Y-111989502D01*
X106054494Y-111930537D01*
X106151185Y-111851185D01*
X106230537Y-111754494D01*
X106289502Y-111644180D01*
X106325812Y-111524482D01*
X106338072Y-111400000D01*
X106338072Y-110400000D01*
X106325812Y-110275518D01*
X106289502Y-110155820D01*
X106230537Y-110045506D01*
X106193191Y-110000000D01*
X106230537Y-109954494D01*
X106289502Y-109844180D01*
X106325812Y-109724482D01*
X106338072Y-109600000D01*
X106335000Y-109385750D01*
X106176250Y-109227000D01*
X105077000Y-109227000D01*
X105077000Y-109247000D01*
X104823000Y-109247000D01*
X104823000Y-109227000D01*
X103723750Y-109227000D01*
X103647276Y-109303474D01*
X102943802Y-108600000D01*
X103561928Y-108600000D01*
X103565000Y-108814250D01*
X103723750Y-108973000D01*
X104823000Y-108973000D01*
X104823000Y-108123750D01*
X105077000Y-108123750D01*
X105077000Y-108973000D01*
X106176250Y-108973000D01*
X106335000Y-108814250D01*
X106338072Y-108600000D01*
X106325812Y-108475518D01*
X106289502Y-108355820D01*
X106230537Y-108245506D01*
X106151185Y-108148815D01*
X106054494Y-108069463D01*
X105944180Y-108010498D01*
X105824482Y-107974188D01*
X105700000Y-107961928D01*
X105235750Y-107965000D01*
X105077000Y-108123750D01*
X104823000Y-108123750D01*
X104664250Y-107965000D01*
X104200000Y-107961928D01*
X104075518Y-107974188D01*
X103955820Y-108010498D01*
X103845506Y-108069463D01*
X103748815Y-108148815D01*
X103669463Y-108245506D01*
X103610498Y-108355820D01*
X103574188Y-108475518D01*
X103561928Y-108600000D01*
X102943802Y-108600000D01*
X102932803Y-108589002D01*
X102909001Y-108559999D01*
X102793276Y-108465026D01*
X102661247Y-108394454D01*
X102517986Y-108350997D01*
X102406333Y-108340000D01*
X102406322Y-108340000D01*
X102369000Y-108336324D01*
X102331678Y-108340000D01*
X101381046Y-108340000D01*
X101330537Y-108245506D01*
X101251185Y-108148815D01*
X101154494Y-108069463D01*
X101044180Y-108010498D01*
X100924482Y-107974188D01*
X100800000Y-107961928D01*
X99300000Y-107961928D01*
X99175518Y-107974188D01*
X99055820Y-108010498D01*
X98945506Y-108069463D01*
X98848815Y-108148815D01*
X98769463Y-108245506D01*
X98710498Y-108355820D01*
X98674188Y-108475518D01*
X98661928Y-108600000D01*
X98160000Y-108600000D01*
X98160000Y-103600000D01*
X98661928Y-103600000D01*
X98661928Y-104600000D01*
X98674188Y-104724482D01*
X98710498Y-104844180D01*
X98769463Y-104954494D01*
X98806809Y-105000000D01*
X98769463Y-105045506D01*
X98710498Y-105155820D01*
X98674188Y-105275518D01*
X98661928Y-105400000D01*
X98661928Y-106400000D01*
X98674188Y-106524482D01*
X98710498Y-106644180D01*
X98769463Y-106754494D01*
X98848815Y-106851185D01*
X98945506Y-106930537D01*
X99055820Y-106989502D01*
X99175518Y-107025812D01*
X99300000Y-107038072D01*
X100800000Y-107038072D01*
X100924482Y-107025812D01*
X101044180Y-106989502D01*
X101154494Y-106930537D01*
X101174712Y-106913944D01*
X101371061Y-106953000D01*
X101574939Y-106953000D01*
X101774898Y-106913226D01*
X101963256Y-106835205D01*
X102132774Y-106721937D01*
X102276937Y-106577774D01*
X102390205Y-106408256D01*
X102468226Y-106219898D01*
X102508000Y-106019939D01*
X102508000Y-105816061D01*
X102468226Y-105616102D01*
X102390205Y-105427744D01*
X102276937Y-105258226D01*
X102132774Y-105114063D01*
X101963256Y-105000795D01*
X101774898Y-104922774D01*
X101574939Y-104883000D01*
X101371061Y-104883000D01*
X101368477Y-104883514D01*
X101381046Y-104860000D01*
X102261199Y-104860000D01*
X103561928Y-106160731D01*
X103561928Y-106400000D01*
X103574188Y-106524482D01*
X103610498Y-106644180D01*
X103669463Y-106754494D01*
X103748815Y-106851185D01*
X103845506Y-106930537D01*
X103955820Y-106989502D01*
X104075518Y-107025812D01*
X104200000Y-107038072D01*
X105700000Y-107038072D01*
X105824482Y-107025812D01*
X105944180Y-106989502D01*
X106054494Y-106930537D01*
X106151185Y-106851185D01*
X106230537Y-106754494D01*
X106289502Y-106644180D01*
X106325812Y-106524482D01*
X106338072Y-106400000D01*
X106338072Y-105400000D01*
X106325812Y-105275518D01*
X106289502Y-105155820D01*
X106230537Y-105045506D01*
X106193191Y-105000000D01*
X106230537Y-104954494D01*
X106289502Y-104844180D01*
X106325812Y-104724482D01*
X106338072Y-104600000D01*
X106335000Y-104385750D01*
X106176250Y-104227000D01*
X105077000Y-104227000D01*
X105077000Y-104247000D01*
X104823000Y-104247000D01*
X104823000Y-104227000D01*
X104803000Y-104227000D01*
X104803000Y-103973000D01*
X104823000Y-103973000D01*
X104823000Y-103123750D01*
X105077000Y-103123750D01*
X105077000Y-103973000D01*
X106176250Y-103973000D01*
X106335000Y-103814250D01*
X106338072Y-103600000D01*
X106325812Y-103475518D01*
X106289502Y-103355820D01*
X106230537Y-103245506D01*
X106151185Y-103148815D01*
X106054494Y-103069463D01*
X105944180Y-103010498D01*
X105824482Y-102974188D01*
X105700000Y-102961928D01*
X105235750Y-102965000D01*
X105077000Y-103123750D01*
X104823000Y-103123750D01*
X104664250Y-102965000D01*
X104200000Y-102961928D01*
X104075518Y-102974188D01*
X103955820Y-103010498D01*
X103845506Y-103069463D01*
X103748815Y-103148815D01*
X103669463Y-103245506D01*
X103610498Y-103355820D01*
X103574188Y-103475518D01*
X103561928Y-103600000D01*
X103565000Y-103814250D01*
X103723748Y-103972998D01*
X103565000Y-103972998D01*
X103565000Y-104014198D01*
X103139803Y-103589002D01*
X103116001Y-103559999D01*
X103000276Y-103465026D01*
X102868247Y-103394454D01*
X102724986Y-103350997D01*
X102613333Y-103340000D01*
X102613322Y-103340000D01*
X102576000Y-103336324D01*
X102538678Y-103340000D01*
X101381046Y-103340000D01*
X101330537Y-103245506D01*
X101251185Y-103148815D01*
X101154494Y-103069463D01*
X101044180Y-103010498D01*
X100924482Y-102974188D01*
X100800000Y-102961928D01*
X99300000Y-102961928D01*
X99175518Y-102974188D01*
X99055820Y-103010498D01*
X98945506Y-103069463D01*
X98848815Y-103148815D01*
X98769463Y-103245506D01*
X98710498Y-103355820D01*
X98674188Y-103475518D01*
X98661928Y-103600000D01*
X98160000Y-103600000D01*
X98160000Y-100400000D01*
X98661928Y-100400000D01*
X98661928Y-101400000D01*
X98674188Y-101524482D01*
X98710498Y-101644180D01*
X98769463Y-101754494D01*
X98848815Y-101851185D01*
X98945506Y-101930537D01*
X99055820Y-101989502D01*
X99175518Y-102025812D01*
X99300000Y-102038072D01*
X100800000Y-102038072D01*
X100924482Y-102025812D01*
X101044180Y-101989502D01*
X101075534Y-101972743D01*
X101082795Y-101990272D01*
X101196063Y-102159790D01*
X101340226Y-102303953D01*
X101509744Y-102417221D01*
X101698102Y-102495242D01*
X101898061Y-102535016D01*
X102101939Y-102535016D01*
X102301898Y-102495242D01*
X102490256Y-102417221D01*
X102659774Y-102303953D01*
X102803937Y-102159790D01*
X102917205Y-101990272D01*
X102960970Y-101884615D01*
X103009744Y-101917205D01*
X103198102Y-101995226D01*
X103398061Y-102035000D01*
X103601939Y-102035000D01*
X103801898Y-101995226D01*
X103894651Y-101956806D01*
X103955820Y-101989502D01*
X104075518Y-102025812D01*
X104200000Y-102038072D01*
X105700000Y-102038072D01*
X105824482Y-102025812D01*
X105944180Y-101989502D01*
X106054494Y-101930537D01*
X106151185Y-101851185D01*
X106230537Y-101754494D01*
X106289502Y-101644180D01*
X106325812Y-101524482D01*
X106338072Y-101400000D01*
X106338072Y-100400000D01*
X106325812Y-100275518D01*
X106289502Y-100155820D01*
X106230537Y-100045506D01*
X106151185Y-99948815D01*
X106054494Y-99869463D01*
X105944180Y-99810498D01*
X105824482Y-99774188D01*
X105700000Y-99761928D01*
X104200000Y-99761928D01*
X104075518Y-99774188D01*
X103955820Y-99810498D01*
X103845506Y-99869463D01*
X103748815Y-99948815D01*
X103716785Y-99987844D01*
X103601939Y-99965000D01*
X103398061Y-99965000D01*
X103198102Y-100004774D01*
X103009744Y-100082795D01*
X102840226Y-100196063D01*
X102696063Y-100340226D01*
X102582795Y-100509744D01*
X102539030Y-100615401D01*
X102490256Y-100582811D01*
X102301898Y-100504790D01*
X102101939Y-100465016D01*
X102039801Y-100465016D01*
X101963787Y-100389002D01*
X101939985Y-100359999D01*
X101824260Y-100265026D01*
X101692231Y-100194454D01*
X101548970Y-100150997D01*
X101437317Y-100140000D01*
X101437306Y-100140000D01*
X101399984Y-100136324D01*
X101380126Y-100138280D01*
X101330537Y-100045506D01*
X101251185Y-99948815D01*
X101154494Y-99869463D01*
X101044180Y-99810498D01*
X100924482Y-99774188D01*
X100800000Y-99761928D01*
X99300000Y-99761928D01*
X99175518Y-99774188D01*
X99055820Y-99810498D01*
X98945506Y-99869463D01*
X98848815Y-99948815D01*
X98769463Y-100045506D01*
X98710498Y-100155820D01*
X98674188Y-100275518D01*
X98661928Y-100400000D01*
X98160000Y-100400000D01*
X98160000Y-98160000D01*
X106840001Y-98160000D01*
X106840000Y-120840000D01*
G04 #@! TA.AperFunction,Conductor*
D16*
G36*
X106840000Y-120840000D02*
G01*
X106473107Y-120840000D01*
X106504812Y-120735482D01*
X106517072Y-120611000D01*
X106514000Y-120046750D01*
X106355250Y-119888000D01*
X105156000Y-119888000D01*
X105156000Y-119908000D01*
X104902000Y-119908000D01*
X104902000Y-119888000D01*
X104882000Y-119888000D01*
X104882000Y-119634000D01*
X104902000Y-119634000D01*
X104902000Y-117348000D01*
X105156000Y-117348000D01*
X105156000Y-119634000D01*
X106355250Y-119634000D01*
X106514000Y-119475250D01*
X106517072Y-118911000D01*
X106504812Y-118786518D01*
X106468502Y-118666820D01*
X106409537Y-118556506D01*
X106330185Y-118459815D01*
X106233494Y-118380463D01*
X106123180Y-118321498D01*
X106047374Y-118298502D01*
X106224178Y-118102355D01*
X106373157Y-117852252D01*
X106470481Y-117577891D01*
X106349814Y-117348000D01*
X105156000Y-117348000D01*
X104902000Y-117348000D01*
X104882000Y-117348000D01*
X104882000Y-117094000D01*
X104902000Y-117094000D01*
X104902000Y-115900845D01*
X105156000Y-115900845D01*
X105156000Y-117094000D01*
X106349814Y-117094000D01*
X106470481Y-116864109D01*
X106373157Y-116589748D01*
X106224178Y-116339645D01*
X106029269Y-116123412D01*
X105795920Y-115949359D01*
X105533099Y-115824175D01*
X105385890Y-115779524D01*
X105156000Y-115900845D01*
X104902000Y-115900845D01*
X104672110Y-115779524D01*
X104524901Y-115824175D01*
X104262080Y-115949359D01*
X104028731Y-116123412D01*
X103833822Y-116339645D01*
X103764195Y-116456534D01*
X103642475Y-116274368D01*
X103435632Y-116067525D01*
X103192411Y-115905010D01*
X102922158Y-115793068D01*
X102635260Y-115736000D01*
X102342740Y-115736000D01*
X102055842Y-115793068D01*
X101884001Y-115864247D01*
X101884001Y-114661323D01*
X101887677Y-114624000D01*
X101885314Y-114600000D01*
X103561928Y-114600000D01*
X103574188Y-114724482D01*
X103610498Y-114844180D01*
X103669463Y-114954494D01*
X103748815Y-115051185D01*
X103845506Y-115130537D01*
X103955820Y-115189502D01*
X104075518Y-115225812D01*
X104200000Y-115238072D01*
X104664250Y-115235000D01*
X104823000Y-115076250D01*
X104823000Y-114227000D01*
X105077000Y-114227000D01*
X105077000Y-115076250D01*
X105235750Y-115235000D01*
X105700000Y-115238072D01*
X105824482Y-115225812D01*
X105944180Y-115189502D01*
X106054494Y-115130537D01*
X106151185Y-115051185D01*
X106230537Y-114954494D01*
X106289502Y-114844180D01*
X106325812Y-114724482D01*
X106338072Y-114600000D01*
X106335000Y-114385750D01*
X106176250Y-114227000D01*
X105077000Y-114227000D01*
X104823000Y-114227000D01*
X103723750Y-114227000D01*
X103565000Y-114385750D01*
X103561928Y-114600000D01*
X101885314Y-114600000D01*
X101884001Y-114586677D01*
X101884001Y-114586668D01*
X101873004Y-114475015D01*
X101829547Y-114331754D01*
X101758975Y-114199725D01*
X101664002Y-114084000D01*
X101635004Y-114060203D01*
X101438072Y-113863270D01*
X101438072Y-113600000D01*
X103561928Y-113600000D01*
X103565000Y-113814250D01*
X103723750Y-113973000D01*
X104823000Y-113973000D01*
X104823000Y-113123750D01*
X105077000Y-113123750D01*
X105077000Y-113973000D01*
X106176250Y-113973000D01*
X106335000Y-113814250D01*
X106338072Y-113600000D01*
X106325812Y-113475518D01*
X106289502Y-113355820D01*
X106230537Y-113245506D01*
X106151185Y-113148815D01*
X106054494Y-113069463D01*
X105944180Y-113010498D01*
X105824482Y-112974188D01*
X105700000Y-112961928D01*
X105235750Y-112965000D01*
X105077000Y-113123750D01*
X104823000Y-113123750D01*
X104664250Y-112965000D01*
X104200000Y-112961928D01*
X104075518Y-112974188D01*
X103955820Y-113010498D01*
X103845506Y-113069463D01*
X103748815Y-113148815D01*
X103669463Y-113245506D01*
X103610498Y-113355820D01*
X103574188Y-113475518D01*
X103561928Y-113600000D01*
X101438072Y-113600000D01*
X101425812Y-113475518D01*
X101389502Y-113355820D01*
X101330537Y-113245506D01*
X101251185Y-113148815D01*
X101154494Y-113069463D01*
X101044180Y-113010498D01*
X100924482Y-112974188D01*
X100800000Y-112961928D01*
X99300000Y-112961928D01*
X99175518Y-112974188D01*
X99055820Y-113010498D01*
X98945506Y-113069463D01*
X98848815Y-113148815D01*
X98769463Y-113245506D01*
X98710498Y-113355820D01*
X98674188Y-113475518D01*
X98661928Y-113600000D01*
X98661928Y-114600000D01*
X98674188Y-114724482D01*
X98710498Y-114844180D01*
X98769463Y-114954494D01*
X98848815Y-115051185D01*
X98945506Y-115130537D01*
X99055820Y-115189502D01*
X99175518Y-115225812D01*
X99300000Y-115238072D01*
X100364001Y-115238072D01*
X100364001Y-115789456D01*
X100095260Y-115736000D01*
X99802740Y-115736000D01*
X99515842Y-115793068D01*
X99245589Y-115905010D01*
X99002368Y-116067525D01*
X98795525Y-116274368D01*
X98633010Y-116517589D01*
X98521068Y-116787842D01*
X98464000Y-117074740D01*
X98464000Y-117367260D01*
X98521068Y-117654158D01*
X98633010Y-117924411D01*
X98795525Y-118167632D01*
X99002368Y-118374475D01*
X99176760Y-118491000D01*
X99002368Y-118607525D01*
X98795525Y-118814368D01*
X98633010Y-119057589D01*
X98521068Y-119327842D01*
X98464000Y-119614740D01*
X98464000Y-119907260D01*
X98521068Y-120194158D01*
X98633010Y-120464411D01*
X98795525Y-120707632D01*
X98927893Y-120840000D01*
X98160000Y-120840000D01*
X98160000Y-108600000D01*
X98661928Y-108600000D01*
X98661928Y-109600000D01*
X98674188Y-109724482D01*
X98710498Y-109844180D01*
X98769463Y-109954494D01*
X98806809Y-110000000D01*
X98769463Y-110045506D01*
X98710498Y-110155820D01*
X98674188Y-110275518D01*
X98661928Y-110400000D01*
X98661928Y-111400000D01*
X98674188Y-111524482D01*
X98710498Y-111644180D01*
X98769463Y-111754494D01*
X98848815Y-111851185D01*
X98945506Y-111930537D01*
X99055820Y-111989502D01*
X99175518Y-112025812D01*
X99300000Y-112038072D01*
X100800000Y-112038072D01*
X100924482Y-112025812D01*
X101044180Y-111989502D01*
X101154494Y-111930537D01*
X101196033Y-111896447D01*
X101244061Y-111906000D01*
X101447939Y-111906000D01*
X101647898Y-111866226D01*
X101836256Y-111788205D01*
X102005774Y-111674937D01*
X102149937Y-111530774D01*
X102263205Y-111361256D01*
X102341226Y-111172898D01*
X102381000Y-110972939D01*
X102381000Y-110769061D01*
X102341226Y-110569102D01*
X102263205Y-110380744D01*
X102149937Y-110211226D01*
X102005774Y-110067063D01*
X101836256Y-109953795D01*
X101647898Y-109875774D01*
X101568596Y-109860000D01*
X102054199Y-109860000D01*
X103561928Y-111367731D01*
X103561928Y-111400000D01*
X103574188Y-111524482D01*
X103610498Y-111644180D01*
X103669463Y-111754494D01*
X103748815Y-111851185D01*
X103845506Y-111930537D01*
X103955820Y-111989502D01*
X104075518Y-112025812D01*
X104200000Y-112038072D01*
X105700000Y-112038072D01*
X105824482Y-112025812D01*
X105944180Y-111989502D01*
X106054494Y-111930537D01*
X106151185Y-111851185D01*
X106230537Y-111754494D01*
X106289502Y-111644180D01*
X106325812Y-111524482D01*
X106338072Y-111400000D01*
X106338072Y-110400000D01*
X106325812Y-110275518D01*
X106289502Y-110155820D01*
X106230537Y-110045506D01*
X106193191Y-110000000D01*
X106230537Y-109954494D01*
X106289502Y-109844180D01*
X106325812Y-109724482D01*
X106338072Y-109600000D01*
X106335000Y-109385750D01*
X106176250Y-109227000D01*
X105077000Y-109227000D01*
X105077000Y-109247000D01*
X104823000Y-109247000D01*
X104823000Y-109227000D01*
X103723750Y-109227000D01*
X103647276Y-109303474D01*
X102943802Y-108600000D01*
X103561928Y-108600000D01*
X103565000Y-108814250D01*
X103723750Y-108973000D01*
X104823000Y-108973000D01*
X104823000Y-108123750D01*
X105077000Y-108123750D01*
X105077000Y-108973000D01*
X106176250Y-108973000D01*
X106335000Y-108814250D01*
X106338072Y-108600000D01*
X106325812Y-108475518D01*
X106289502Y-108355820D01*
X106230537Y-108245506D01*
X106151185Y-108148815D01*
X106054494Y-108069463D01*
X105944180Y-108010498D01*
X105824482Y-107974188D01*
X105700000Y-107961928D01*
X105235750Y-107965000D01*
X105077000Y-108123750D01*
X104823000Y-108123750D01*
X104664250Y-107965000D01*
X104200000Y-107961928D01*
X104075518Y-107974188D01*
X103955820Y-108010498D01*
X103845506Y-108069463D01*
X103748815Y-108148815D01*
X103669463Y-108245506D01*
X103610498Y-108355820D01*
X103574188Y-108475518D01*
X103561928Y-108600000D01*
X102943802Y-108600000D01*
X102932803Y-108589002D01*
X102909001Y-108559999D01*
X102793276Y-108465026D01*
X102661247Y-108394454D01*
X102517986Y-108350997D01*
X102406333Y-108340000D01*
X102406322Y-108340000D01*
X102369000Y-108336324D01*
X102331678Y-108340000D01*
X101381046Y-108340000D01*
X101330537Y-108245506D01*
X101251185Y-108148815D01*
X101154494Y-108069463D01*
X101044180Y-108010498D01*
X100924482Y-107974188D01*
X100800000Y-107961928D01*
X99300000Y-107961928D01*
X99175518Y-107974188D01*
X99055820Y-108010498D01*
X98945506Y-108069463D01*
X98848815Y-108148815D01*
X98769463Y-108245506D01*
X98710498Y-108355820D01*
X98674188Y-108475518D01*
X98661928Y-108600000D01*
X98160000Y-108600000D01*
X98160000Y-103600000D01*
X98661928Y-103600000D01*
X98661928Y-104600000D01*
X98674188Y-104724482D01*
X98710498Y-104844180D01*
X98769463Y-104954494D01*
X98806809Y-105000000D01*
X98769463Y-105045506D01*
X98710498Y-105155820D01*
X98674188Y-105275518D01*
X98661928Y-105400000D01*
X98661928Y-106400000D01*
X98674188Y-106524482D01*
X98710498Y-106644180D01*
X98769463Y-106754494D01*
X98848815Y-106851185D01*
X98945506Y-106930537D01*
X99055820Y-106989502D01*
X99175518Y-107025812D01*
X99300000Y-107038072D01*
X100800000Y-107038072D01*
X100924482Y-107025812D01*
X101044180Y-106989502D01*
X101154494Y-106930537D01*
X101174712Y-106913944D01*
X101371061Y-106953000D01*
X101574939Y-106953000D01*
X101774898Y-106913226D01*
X101963256Y-106835205D01*
X102132774Y-106721937D01*
X102276937Y-106577774D01*
X102390205Y-106408256D01*
X102468226Y-106219898D01*
X102508000Y-106019939D01*
X102508000Y-105816061D01*
X102468226Y-105616102D01*
X102390205Y-105427744D01*
X102276937Y-105258226D01*
X102132774Y-105114063D01*
X101963256Y-105000795D01*
X101774898Y-104922774D01*
X101574939Y-104883000D01*
X101371061Y-104883000D01*
X101368477Y-104883514D01*
X101381046Y-104860000D01*
X102261199Y-104860000D01*
X103561928Y-106160731D01*
X103561928Y-106400000D01*
X103574188Y-106524482D01*
X103610498Y-106644180D01*
X103669463Y-106754494D01*
X103748815Y-106851185D01*
X103845506Y-106930537D01*
X103955820Y-106989502D01*
X104075518Y-107025812D01*
X104200000Y-107038072D01*
X105700000Y-107038072D01*
X105824482Y-107025812D01*
X105944180Y-106989502D01*
X106054494Y-106930537D01*
X106151185Y-106851185D01*
X106230537Y-106754494D01*
X106289502Y-106644180D01*
X106325812Y-106524482D01*
X106338072Y-106400000D01*
X106338072Y-105400000D01*
X106325812Y-105275518D01*
X106289502Y-105155820D01*
X106230537Y-105045506D01*
X106193191Y-105000000D01*
X106230537Y-104954494D01*
X106289502Y-104844180D01*
X106325812Y-104724482D01*
X106338072Y-104600000D01*
X106335000Y-104385750D01*
X106176250Y-104227000D01*
X105077000Y-104227000D01*
X105077000Y-104247000D01*
X104823000Y-104247000D01*
X104823000Y-104227000D01*
X104803000Y-104227000D01*
X104803000Y-103973000D01*
X104823000Y-103973000D01*
X104823000Y-103123750D01*
X105077000Y-103123750D01*
X105077000Y-103973000D01*
X106176250Y-103973000D01*
X106335000Y-103814250D01*
X106338072Y-103600000D01*
X106325812Y-103475518D01*
X106289502Y-103355820D01*
X106230537Y-103245506D01*
X106151185Y-103148815D01*
X106054494Y-103069463D01*
X105944180Y-103010498D01*
X105824482Y-102974188D01*
X105700000Y-102961928D01*
X105235750Y-102965000D01*
X105077000Y-103123750D01*
X104823000Y-103123750D01*
X104664250Y-102965000D01*
X104200000Y-102961928D01*
X104075518Y-102974188D01*
X103955820Y-103010498D01*
X103845506Y-103069463D01*
X103748815Y-103148815D01*
X103669463Y-103245506D01*
X103610498Y-103355820D01*
X103574188Y-103475518D01*
X103561928Y-103600000D01*
X103565000Y-103814250D01*
X103723748Y-103972998D01*
X103565000Y-103972998D01*
X103565000Y-104014198D01*
X103139803Y-103589002D01*
X103116001Y-103559999D01*
X103000276Y-103465026D01*
X102868247Y-103394454D01*
X102724986Y-103350997D01*
X102613333Y-103340000D01*
X102613322Y-103340000D01*
X102576000Y-103336324D01*
X102538678Y-103340000D01*
X101381046Y-103340000D01*
X101330537Y-103245506D01*
X101251185Y-103148815D01*
X101154494Y-103069463D01*
X101044180Y-103010498D01*
X100924482Y-102974188D01*
X100800000Y-102961928D01*
X99300000Y-102961928D01*
X99175518Y-102974188D01*
X99055820Y-103010498D01*
X98945506Y-103069463D01*
X98848815Y-103148815D01*
X98769463Y-103245506D01*
X98710498Y-103355820D01*
X98674188Y-103475518D01*
X98661928Y-103600000D01*
X98160000Y-103600000D01*
X98160000Y-100400000D01*
X98661928Y-100400000D01*
X98661928Y-101400000D01*
X98674188Y-101524482D01*
X98710498Y-101644180D01*
X98769463Y-101754494D01*
X98848815Y-101851185D01*
X98945506Y-101930537D01*
X99055820Y-101989502D01*
X99175518Y-102025812D01*
X99300000Y-102038072D01*
X100800000Y-102038072D01*
X100924482Y-102025812D01*
X101044180Y-101989502D01*
X101075534Y-101972743D01*
X101082795Y-101990272D01*
X101196063Y-102159790D01*
X101340226Y-102303953D01*
X101509744Y-102417221D01*
X101698102Y-102495242D01*
X101898061Y-102535016D01*
X102101939Y-102535016D01*
X102301898Y-102495242D01*
X102490256Y-102417221D01*
X102659774Y-102303953D01*
X102803937Y-102159790D01*
X102917205Y-101990272D01*
X102960970Y-101884615D01*
X103009744Y-101917205D01*
X103198102Y-101995226D01*
X103398061Y-102035000D01*
X103601939Y-102035000D01*
X103801898Y-101995226D01*
X103894651Y-101956806D01*
X103955820Y-101989502D01*
X104075518Y-102025812D01*
X104200000Y-102038072D01*
X105700000Y-102038072D01*
X105824482Y-102025812D01*
X105944180Y-101989502D01*
X106054494Y-101930537D01*
X106151185Y-101851185D01*
X106230537Y-101754494D01*
X106289502Y-101644180D01*
X106325812Y-101524482D01*
X106338072Y-101400000D01*
X106338072Y-100400000D01*
X106325812Y-100275518D01*
X106289502Y-100155820D01*
X106230537Y-100045506D01*
X106151185Y-99948815D01*
X106054494Y-99869463D01*
X105944180Y-99810498D01*
X105824482Y-99774188D01*
X105700000Y-99761928D01*
X104200000Y-99761928D01*
X104075518Y-99774188D01*
X103955820Y-99810498D01*
X103845506Y-99869463D01*
X103748815Y-99948815D01*
X103716785Y-99987844D01*
X103601939Y-99965000D01*
X103398061Y-99965000D01*
X103198102Y-100004774D01*
X103009744Y-100082795D01*
X102840226Y-100196063D01*
X102696063Y-100340226D01*
X102582795Y-100509744D01*
X102539030Y-100615401D01*
X102490256Y-100582811D01*
X102301898Y-100504790D01*
X102101939Y-100465016D01*
X102039801Y-100465016D01*
X101963787Y-100389002D01*
X101939985Y-100359999D01*
X101824260Y-100265026D01*
X101692231Y-100194454D01*
X101548970Y-100150997D01*
X101437317Y-100140000D01*
X101437306Y-100140000D01*
X101399984Y-100136324D01*
X101380126Y-100138280D01*
X101330537Y-100045506D01*
X101251185Y-99948815D01*
X101154494Y-99869463D01*
X101044180Y-99810498D01*
X100924482Y-99774188D01*
X100800000Y-99761928D01*
X99300000Y-99761928D01*
X99175518Y-99774188D01*
X99055820Y-99810498D01*
X98945506Y-99869463D01*
X98848815Y-99948815D01*
X98769463Y-100045506D01*
X98710498Y-100155820D01*
X98674188Y-100275518D01*
X98661928Y-100400000D01*
X98160000Y-100400000D01*
X98160000Y-98160000D01*
X106840001Y-98160000D01*
X106840000Y-120840000D01*
G37*
G04 #@! TD.AperFunction*
M02*
