G04 #@! TF.GenerationSoftware,KiCad,Pcbnew,5.1.5-52549c5~86~ubuntu19.10.1*
G04 #@! TF.CreationDate,2020-04-28T12:48:20+02:00*
G04 #@! TF.ProjectId,ArduinoDCC++,41726475-696e-46f4-9443-432b2b2e6b69,v.0.0.1c*
G04 #@! TF.SameCoordinates,Original*
G04 #@! TF.FileFunction,Soldermask,Top*
G04 #@! TF.FilePolarity,Negative*
%FSLAX46Y46*%
G04 Gerber Fmt 4.6, Leading zero omitted, Abs format (unit mm)*
G04 Created by KiCad (PCBNEW 5.1.5-52549c5~86~ubuntu19.10.1) date 2020-04-28 12:48:20*
%MOMM*%
%LPD*%
G04 APERTURE LIST*
%ADD10C,0.050000*%
%ADD11C,0.100000*%
G04 APERTURE END LIST*
D10*
X55000000Y-150000000D02*
X145000000Y-150000000D01*
X50000000Y-67000000D02*
X50000000Y-145000000D01*
X145000000Y-62000000D02*
X55000000Y-62000000D01*
X150000000Y-145000000D02*
X150000000Y-67000000D01*
X150000000Y-145000000D02*
G75*
G02X145000000Y-150000000I-5000000J0D01*
G01*
X145000000Y-62000000D02*
G75*
G02X150000000Y-67000000I0J-5000000D01*
G01*
X50000000Y-67000000D02*
G75*
G02X55000000Y-62000000I5000000J0D01*
G01*
X55000000Y-150000000D02*
G75*
G02X50000000Y-145000000I0J5000000D01*
G01*
D11*
G36*
X145314257Y-143634062D02*
G01*
X145408657Y-143652839D01*
X145514267Y-143696585D01*
X145663621Y-143758449D01*
X145702609Y-143784500D01*
X145893086Y-143911772D01*
X146088228Y-144106914D01*
X146190586Y-144260105D01*
X146241551Y-144336379D01*
X146271606Y-144408939D01*
X146344534Y-144585000D01*
X146347161Y-144591344D01*
X146401000Y-144862012D01*
X146401000Y-145137988D01*
X146347161Y-145408656D01*
X146241551Y-145663621D01*
X146241550Y-145663622D01*
X146088228Y-145893086D01*
X145893086Y-146088228D01*
X145739763Y-146190675D01*
X145663621Y-146241551D01*
X145514267Y-146303415D01*
X145408657Y-146347161D01*
X145318433Y-146365107D01*
X145137988Y-146401000D01*
X144862012Y-146401000D01*
X144681567Y-146365107D01*
X144591343Y-146347161D01*
X144485733Y-146303415D01*
X144336379Y-146241551D01*
X144260237Y-146190675D01*
X144106914Y-146088228D01*
X143911772Y-145893086D01*
X143758450Y-145663622D01*
X143758449Y-145663621D01*
X143652839Y-145408656D01*
X143599000Y-145137988D01*
X143599000Y-144862012D01*
X143652839Y-144591344D01*
X143655467Y-144585000D01*
X143728394Y-144408939D01*
X143758449Y-144336379D01*
X143809414Y-144260105D01*
X143911772Y-144106914D01*
X144106914Y-143911772D01*
X144297391Y-143784500D01*
X144336379Y-143758449D01*
X144485733Y-143696585D01*
X144591343Y-143652839D01*
X144685743Y-143634062D01*
X144862012Y-143599000D01*
X145137988Y-143599000D01*
X145314257Y-143634062D01*
G37*
G36*
X55314257Y-143634062D02*
G01*
X55408657Y-143652839D01*
X55514267Y-143696585D01*
X55663621Y-143758449D01*
X55702609Y-143784500D01*
X55893086Y-143911772D01*
X56088228Y-144106914D01*
X56190586Y-144260105D01*
X56241551Y-144336379D01*
X56271606Y-144408939D01*
X56344534Y-144585000D01*
X56347161Y-144591344D01*
X56401000Y-144862012D01*
X56401000Y-145137988D01*
X56347161Y-145408656D01*
X56241551Y-145663621D01*
X56241550Y-145663622D01*
X56088228Y-145893086D01*
X55893086Y-146088228D01*
X55739763Y-146190675D01*
X55663621Y-146241551D01*
X55514267Y-146303415D01*
X55408657Y-146347161D01*
X55318433Y-146365107D01*
X55137988Y-146401000D01*
X54862012Y-146401000D01*
X54681567Y-146365107D01*
X54591343Y-146347161D01*
X54485733Y-146303415D01*
X54336379Y-146241551D01*
X54260237Y-146190675D01*
X54106914Y-146088228D01*
X53911772Y-145893086D01*
X53758450Y-145663622D01*
X53758449Y-145663621D01*
X53652839Y-145408656D01*
X53599000Y-145137988D01*
X53599000Y-144862012D01*
X53652839Y-144591344D01*
X53655467Y-144585000D01*
X53728394Y-144408939D01*
X53758449Y-144336379D01*
X53809414Y-144260105D01*
X53911772Y-144106914D01*
X54106914Y-143911772D01*
X54297391Y-143784500D01*
X54336379Y-143758449D01*
X54485733Y-143696585D01*
X54591343Y-143652839D01*
X54685743Y-143634062D01*
X54862012Y-143599000D01*
X55137988Y-143599000D01*
X55314257Y-143634062D01*
G37*
G36*
X127199000Y-144585000D02*
G01*
X123597000Y-144585000D01*
X123597000Y-142683000D01*
X127199000Y-142683000D01*
X127199000Y-144585000D01*
G37*
G36*
X122199000Y-144585000D02*
G01*
X118597000Y-144585000D01*
X118597000Y-142683000D01*
X122199000Y-142683000D01*
X122199000Y-144585000D01*
G37*
G36*
X132319000Y-144553000D02*
G01*
X128717000Y-144553000D01*
X128717000Y-142651000D01*
X132319000Y-142651000D01*
X132319000Y-144553000D01*
G37*
G36*
X137319000Y-144553000D02*
G01*
X133717000Y-144553000D01*
X133717000Y-142651000D01*
X137319000Y-142651000D01*
X137319000Y-144553000D01*
G37*
G36*
X117124562Y-142680181D02*
G01*
X117159481Y-142690774D01*
X117191663Y-142707976D01*
X117219873Y-142731127D01*
X117243024Y-142759337D01*
X117260226Y-142791519D01*
X117270819Y-142826438D01*
X117275000Y-142868895D01*
X117275000Y-144335105D01*
X117270819Y-144377562D01*
X117260226Y-144412481D01*
X117243024Y-144444663D01*
X117219873Y-144472873D01*
X117191663Y-144496024D01*
X117159481Y-144513226D01*
X117124562Y-144523819D01*
X117082105Y-144528000D01*
X115940895Y-144528000D01*
X115898438Y-144523819D01*
X115863519Y-144513226D01*
X115831337Y-144496024D01*
X115803127Y-144472873D01*
X115779976Y-144444663D01*
X115762774Y-144412481D01*
X115752181Y-144377562D01*
X115748000Y-144335105D01*
X115748000Y-142868895D01*
X115752181Y-142826438D01*
X115762774Y-142791519D01*
X115779976Y-142759337D01*
X115803127Y-142731127D01*
X115831337Y-142707976D01*
X115863519Y-142690774D01*
X115898438Y-142680181D01*
X115940895Y-142676000D01*
X117082105Y-142676000D01*
X117124562Y-142680181D01*
G37*
G36*
X114149562Y-142680181D02*
G01*
X114184481Y-142690774D01*
X114216663Y-142707976D01*
X114244873Y-142731127D01*
X114268024Y-142759337D01*
X114285226Y-142791519D01*
X114295819Y-142826438D01*
X114300000Y-142868895D01*
X114300000Y-144335105D01*
X114295819Y-144377562D01*
X114285226Y-144412481D01*
X114268024Y-144444663D01*
X114244873Y-144472873D01*
X114216663Y-144496024D01*
X114184481Y-144513226D01*
X114149562Y-144523819D01*
X114107105Y-144528000D01*
X112965895Y-144528000D01*
X112923438Y-144523819D01*
X112888519Y-144513226D01*
X112856337Y-144496024D01*
X112828127Y-144472873D01*
X112804976Y-144444663D01*
X112787774Y-144412481D01*
X112777181Y-144377562D01*
X112773000Y-144335105D01*
X112773000Y-142868895D01*
X112777181Y-142826438D01*
X112787774Y-142791519D01*
X112804976Y-142759337D01*
X112828127Y-142731127D01*
X112856337Y-142707976D01*
X112888519Y-142690774D01*
X112923438Y-142680181D01*
X112965895Y-142676000D01*
X114107105Y-142676000D01*
X114149562Y-142680181D01*
G37*
G36*
X111790562Y-142680181D02*
G01*
X111825481Y-142690774D01*
X111857663Y-142707976D01*
X111885873Y-142731127D01*
X111909024Y-142759337D01*
X111926226Y-142791519D01*
X111936819Y-142826438D01*
X111941000Y-142868895D01*
X111941000Y-144335105D01*
X111936819Y-144377562D01*
X111926226Y-144412481D01*
X111909024Y-144444663D01*
X111885873Y-144472873D01*
X111857663Y-144496024D01*
X111825481Y-144513226D01*
X111790562Y-144523819D01*
X111748105Y-144528000D01*
X110606895Y-144528000D01*
X110564438Y-144523819D01*
X110529519Y-144513226D01*
X110497337Y-144496024D01*
X110469127Y-144472873D01*
X110445976Y-144444663D01*
X110428774Y-144412481D01*
X110418181Y-144377562D01*
X110414000Y-144335105D01*
X110414000Y-142868895D01*
X110418181Y-142826438D01*
X110428774Y-142791519D01*
X110445976Y-142759337D01*
X110469127Y-142731127D01*
X110497337Y-142707976D01*
X110529519Y-142690774D01*
X110564438Y-142680181D01*
X110606895Y-142676000D01*
X111748105Y-142676000D01*
X111790562Y-142680181D01*
G37*
G36*
X108815562Y-142680181D02*
G01*
X108850481Y-142690774D01*
X108882663Y-142707976D01*
X108910873Y-142731127D01*
X108934024Y-142759337D01*
X108951226Y-142791519D01*
X108961819Y-142826438D01*
X108966000Y-142868895D01*
X108966000Y-144335105D01*
X108961819Y-144377562D01*
X108951226Y-144412481D01*
X108934024Y-144444663D01*
X108910873Y-144472873D01*
X108882663Y-144496024D01*
X108850481Y-144513226D01*
X108815562Y-144523819D01*
X108773105Y-144528000D01*
X107631895Y-144528000D01*
X107589438Y-144523819D01*
X107554519Y-144513226D01*
X107522337Y-144496024D01*
X107494127Y-144472873D01*
X107470976Y-144444663D01*
X107453774Y-144412481D01*
X107443181Y-144377562D01*
X107439000Y-144335105D01*
X107439000Y-142868895D01*
X107443181Y-142826438D01*
X107453774Y-142791519D01*
X107470976Y-142759337D01*
X107494127Y-142731127D01*
X107522337Y-142707976D01*
X107554519Y-142690774D01*
X107589438Y-142680181D01*
X107631895Y-142676000D01*
X108773105Y-142676000D01*
X108815562Y-142680181D01*
G37*
G36*
X78969562Y-142261681D02*
G01*
X79004481Y-142272274D01*
X79036663Y-142289476D01*
X79064873Y-142312627D01*
X79088024Y-142340837D01*
X79105226Y-142373019D01*
X79115819Y-142407938D01*
X79120000Y-142450395D01*
X79120000Y-143591605D01*
X79115819Y-143634062D01*
X79105226Y-143668981D01*
X79088024Y-143701163D01*
X79064873Y-143729373D01*
X79036663Y-143752524D01*
X79004481Y-143769726D01*
X78969562Y-143780319D01*
X78927105Y-143784500D01*
X77460895Y-143784500D01*
X77418438Y-143780319D01*
X77383519Y-143769726D01*
X77351337Y-143752524D01*
X77323127Y-143729373D01*
X77299976Y-143701163D01*
X77282774Y-143668981D01*
X77272181Y-143634062D01*
X77268000Y-143591605D01*
X77268000Y-142450395D01*
X77272181Y-142407938D01*
X77282774Y-142373019D01*
X77299976Y-142340837D01*
X77323127Y-142312627D01*
X77351337Y-142289476D01*
X77383519Y-142272274D01*
X77418438Y-142261681D01*
X77460895Y-142257500D01*
X78927105Y-142257500D01*
X78969562Y-142261681D01*
G37*
G36*
X81255562Y-142261681D02*
G01*
X81290481Y-142272274D01*
X81322663Y-142289476D01*
X81350873Y-142312627D01*
X81374024Y-142340837D01*
X81391226Y-142373019D01*
X81401819Y-142407938D01*
X81406000Y-142450395D01*
X81406000Y-143591605D01*
X81401819Y-143634062D01*
X81391226Y-143668981D01*
X81374024Y-143701163D01*
X81350873Y-143729373D01*
X81322663Y-143752524D01*
X81290481Y-143769726D01*
X81255562Y-143780319D01*
X81213105Y-143784500D01*
X79746895Y-143784500D01*
X79704438Y-143780319D01*
X79669519Y-143769726D01*
X79637337Y-143752524D01*
X79609127Y-143729373D01*
X79585976Y-143701163D01*
X79568774Y-143668981D01*
X79558181Y-143634062D01*
X79554000Y-143591605D01*
X79554000Y-142450395D01*
X79558181Y-142407938D01*
X79568774Y-142373019D01*
X79585976Y-142340837D01*
X79609127Y-142312627D01*
X79637337Y-142289476D01*
X79669519Y-142272274D01*
X79704438Y-142261681D01*
X79746895Y-142257500D01*
X81213105Y-142257500D01*
X81255562Y-142261681D01*
G37*
G36*
X76683562Y-142261681D02*
G01*
X76718481Y-142272274D01*
X76750663Y-142289476D01*
X76778873Y-142312627D01*
X76802024Y-142340837D01*
X76819226Y-142373019D01*
X76829819Y-142407938D01*
X76834000Y-142450395D01*
X76834000Y-143591605D01*
X76829819Y-143634062D01*
X76819226Y-143668981D01*
X76802024Y-143701163D01*
X76778873Y-143729373D01*
X76750663Y-143752524D01*
X76718481Y-143769726D01*
X76683562Y-143780319D01*
X76641105Y-143784500D01*
X75174895Y-143784500D01*
X75132438Y-143780319D01*
X75097519Y-143769726D01*
X75065337Y-143752524D01*
X75037127Y-143729373D01*
X75013976Y-143701163D01*
X74996774Y-143668981D01*
X74986181Y-143634062D01*
X74982000Y-143591605D01*
X74982000Y-142450395D01*
X74986181Y-142407938D01*
X74996774Y-142373019D01*
X75013976Y-142340837D01*
X75037127Y-142312627D01*
X75065337Y-142289476D01*
X75097519Y-142272274D01*
X75132438Y-142261681D01*
X75174895Y-142257500D01*
X76641105Y-142257500D01*
X76683562Y-142261681D01*
G37*
G36*
X92994562Y-139886181D02*
G01*
X93029481Y-139896774D01*
X93061663Y-139913976D01*
X93089873Y-139937127D01*
X93113024Y-139965337D01*
X93130226Y-139997519D01*
X93140819Y-140032438D01*
X93145000Y-140074895D01*
X93145000Y-141541105D01*
X93140819Y-141583562D01*
X93130226Y-141618481D01*
X93113024Y-141650663D01*
X93089873Y-141678873D01*
X93061663Y-141702024D01*
X93029481Y-141719226D01*
X92994562Y-141729819D01*
X92952105Y-141734000D01*
X91810895Y-141734000D01*
X91768438Y-141729819D01*
X91733519Y-141719226D01*
X91701337Y-141702024D01*
X91673127Y-141678873D01*
X91649976Y-141650663D01*
X91632774Y-141618481D01*
X91622181Y-141583562D01*
X91618000Y-141541105D01*
X91618000Y-140074895D01*
X91622181Y-140032438D01*
X91632774Y-139997519D01*
X91649976Y-139965337D01*
X91673127Y-139937127D01*
X91701337Y-139913976D01*
X91733519Y-139896774D01*
X91768438Y-139886181D01*
X91810895Y-139882000D01*
X92952105Y-139882000D01*
X92994562Y-139886181D01*
G37*
G36*
X90019562Y-139886181D02*
G01*
X90054481Y-139896774D01*
X90086663Y-139913976D01*
X90114873Y-139937127D01*
X90138024Y-139965337D01*
X90155226Y-139997519D01*
X90165819Y-140032438D01*
X90170000Y-140074895D01*
X90170000Y-141541105D01*
X90165819Y-141583562D01*
X90155226Y-141618481D01*
X90138024Y-141650663D01*
X90114873Y-141678873D01*
X90086663Y-141702024D01*
X90054481Y-141719226D01*
X90019562Y-141729819D01*
X89977105Y-141734000D01*
X88835895Y-141734000D01*
X88793438Y-141729819D01*
X88758519Y-141719226D01*
X88726337Y-141702024D01*
X88698127Y-141678873D01*
X88674976Y-141650663D01*
X88657774Y-141618481D01*
X88647181Y-141583562D01*
X88643000Y-141541105D01*
X88643000Y-140074895D01*
X88647181Y-140032438D01*
X88657774Y-139997519D01*
X88674976Y-139965337D01*
X88698127Y-139937127D01*
X88726337Y-139913976D01*
X88758519Y-139896774D01*
X88793438Y-139886181D01*
X88835895Y-139882000D01*
X89977105Y-139882000D01*
X90019562Y-139886181D01*
G37*
G36*
X68555562Y-139721681D02*
G01*
X68590481Y-139732274D01*
X68622663Y-139749476D01*
X68650873Y-139772627D01*
X68674024Y-139800837D01*
X68691226Y-139833019D01*
X68701819Y-139867938D01*
X68706000Y-139910395D01*
X68706000Y-141051605D01*
X68701819Y-141094062D01*
X68691226Y-141128981D01*
X68674024Y-141161163D01*
X68650873Y-141189373D01*
X68622663Y-141212524D01*
X68590481Y-141229726D01*
X68555562Y-141240319D01*
X68513105Y-141244500D01*
X67046895Y-141244500D01*
X67004438Y-141240319D01*
X66969519Y-141229726D01*
X66937337Y-141212524D01*
X66909127Y-141189373D01*
X66885976Y-141161163D01*
X66868774Y-141128981D01*
X66858181Y-141094062D01*
X66854000Y-141051605D01*
X66854000Y-139910395D01*
X66858181Y-139867938D01*
X66868774Y-139833019D01*
X66885976Y-139800837D01*
X66909127Y-139772627D01*
X66937337Y-139749476D01*
X66969519Y-139732274D01*
X67004438Y-139721681D01*
X67046895Y-139717500D01*
X68513105Y-139717500D01*
X68555562Y-139721681D01*
G37*
G36*
X76683562Y-139286681D02*
G01*
X76718481Y-139297274D01*
X76750663Y-139314476D01*
X76778873Y-139337627D01*
X76802024Y-139365837D01*
X76819226Y-139398019D01*
X76829819Y-139432938D01*
X76834000Y-139475395D01*
X76834000Y-140616605D01*
X76829819Y-140659062D01*
X76819226Y-140693981D01*
X76802024Y-140726163D01*
X76778873Y-140754373D01*
X76750663Y-140777524D01*
X76718481Y-140794726D01*
X76683562Y-140805319D01*
X76641105Y-140809500D01*
X75174895Y-140809500D01*
X75132438Y-140805319D01*
X75097519Y-140794726D01*
X75065337Y-140777524D01*
X75037127Y-140754373D01*
X75013976Y-140726163D01*
X74996774Y-140693981D01*
X74986181Y-140659062D01*
X74982000Y-140616605D01*
X74982000Y-139475395D01*
X74986181Y-139432938D01*
X74996774Y-139398019D01*
X75013976Y-139365837D01*
X75037127Y-139337627D01*
X75065337Y-139314476D01*
X75097519Y-139297274D01*
X75132438Y-139286681D01*
X75174895Y-139282500D01*
X76641105Y-139282500D01*
X76683562Y-139286681D01*
G37*
G36*
X78969562Y-139286681D02*
G01*
X79004481Y-139297274D01*
X79036663Y-139314476D01*
X79064873Y-139337627D01*
X79088024Y-139365837D01*
X79105226Y-139398019D01*
X79115819Y-139432938D01*
X79120000Y-139475395D01*
X79120000Y-140616605D01*
X79115819Y-140659062D01*
X79105226Y-140693981D01*
X79088024Y-140726163D01*
X79064873Y-140754373D01*
X79036663Y-140777524D01*
X79004481Y-140794726D01*
X78969562Y-140805319D01*
X78927105Y-140809500D01*
X77460895Y-140809500D01*
X77418438Y-140805319D01*
X77383519Y-140794726D01*
X77351337Y-140777524D01*
X77323127Y-140754373D01*
X77299976Y-140726163D01*
X77282774Y-140693981D01*
X77272181Y-140659062D01*
X77268000Y-140616605D01*
X77268000Y-139475395D01*
X77272181Y-139432938D01*
X77282774Y-139398019D01*
X77299976Y-139365837D01*
X77323127Y-139337627D01*
X77351337Y-139314476D01*
X77383519Y-139297274D01*
X77418438Y-139286681D01*
X77460895Y-139282500D01*
X78927105Y-139282500D01*
X78969562Y-139286681D01*
G37*
G36*
X81255562Y-139286681D02*
G01*
X81290481Y-139297274D01*
X81322663Y-139314476D01*
X81350873Y-139337627D01*
X81374024Y-139365837D01*
X81391226Y-139398019D01*
X81401819Y-139432938D01*
X81406000Y-139475395D01*
X81406000Y-140616605D01*
X81401819Y-140659062D01*
X81391226Y-140693981D01*
X81374024Y-140726163D01*
X81350873Y-140754373D01*
X81322663Y-140777524D01*
X81290481Y-140794726D01*
X81255562Y-140805319D01*
X81213105Y-140809500D01*
X79746895Y-140809500D01*
X79704438Y-140805319D01*
X79669519Y-140794726D01*
X79637337Y-140777524D01*
X79609127Y-140754373D01*
X79585976Y-140726163D01*
X79568774Y-140693981D01*
X79558181Y-140659062D01*
X79554000Y-140616605D01*
X79554000Y-139475395D01*
X79558181Y-139432938D01*
X79568774Y-139398019D01*
X79585976Y-139365837D01*
X79609127Y-139337627D01*
X79637337Y-139314476D01*
X79669519Y-139297274D01*
X79704438Y-139286681D01*
X79746895Y-139282500D01*
X81213105Y-139282500D01*
X81255562Y-139286681D01*
G37*
G36*
X145806585Y-136558802D02*
G01*
X145956410Y-136588604D01*
X146238674Y-136705521D01*
X146492705Y-136875259D01*
X146708741Y-137091295D01*
X146878479Y-137345326D01*
X146995396Y-137627590D01*
X146995396Y-137627591D01*
X147055000Y-137927239D01*
X147055000Y-138232761D01*
X147051748Y-138249108D01*
X146995396Y-138532410D01*
X146878479Y-138814674D01*
X146708741Y-139068705D01*
X146492705Y-139284741D01*
X146238674Y-139454479D01*
X145956410Y-139571396D01*
X145806585Y-139601198D01*
X145656761Y-139631000D01*
X145351239Y-139631000D01*
X145201415Y-139601198D01*
X145051590Y-139571396D01*
X144769326Y-139454479D01*
X144515295Y-139284741D01*
X144299259Y-139068705D01*
X144129521Y-138814674D01*
X144012604Y-138532410D01*
X143956252Y-138249108D01*
X143953000Y-138232761D01*
X143953000Y-137927239D01*
X144012604Y-137627591D01*
X144012604Y-137627590D01*
X144129521Y-137345326D01*
X144299259Y-137091295D01*
X144515295Y-136875259D01*
X144769326Y-136705521D01*
X145051590Y-136588604D01*
X145201415Y-136558802D01*
X145351239Y-136529000D01*
X145656761Y-136529000D01*
X145806585Y-136558802D01*
G37*
G36*
X99671562Y-137600181D02*
G01*
X99706481Y-137610774D01*
X99738663Y-137627976D01*
X99766873Y-137651127D01*
X99790024Y-137679337D01*
X99807226Y-137711519D01*
X99817819Y-137746438D01*
X99822000Y-137788895D01*
X99822000Y-139255105D01*
X99817819Y-139297562D01*
X99807226Y-139332481D01*
X99790024Y-139364663D01*
X99766873Y-139392873D01*
X99738663Y-139416024D01*
X99706481Y-139433226D01*
X99671562Y-139443819D01*
X99629105Y-139448000D01*
X98487895Y-139448000D01*
X98445438Y-139443819D01*
X98410519Y-139433226D01*
X98378337Y-139416024D01*
X98350127Y-139392873D01*
X98326976Y-139364663D01*
X98309774Y-139332481D01*
X98299181Y-139297562D01*
X98295000Y-139255105D01*
X98295000Y-137788895D01*
X98299181Y-137746438D01*
X98309774Y-137711519D01*
X98326976Y-137679337D01*
X98350127Y-137651127D01*
X98378337Y-137627976D01*
X98410519Y-137610774D01*
X98445438Y-137600181D01*
X98487895Y-137596000D01*
X99629105Y-137596000D01*
X99671562Y-137600181D01*
G37*
G36*
X102646562Y-137600181D02*
G01*
X102681481Y-137610774D01*
X102713663Y-137627976D01*
X102741873Y-137651127D01*
X102765024Y-137679337D01*
X102782226Y-137711519D01*
X102792819Y-137746438D01*
X102797000Y-137788895D01*
X102797000Y-139255105D01*
X102792819Y-139297562D01*
X102782226Y-139332481D01*
X102765024Y-139364663D01*
X102741873Y-139392873D01*
X102713663Y-139416024D01*
X102681481Y-139433226D01*
X102646562Y-139443819D01*
X102604105Y-139448000D01*
X101462895Y-139448000D01*
X101420438Y-139443819D01*
X101385519Y-139433226D01*
X101353337Y-139416024D01*
X101325127Y-139392873D01*
X101301976Y-139364663D01*
X101284774Y-139332481D01*
X101274181Y-139297562D01*
X101270000Y-139255105D01*
X101270000Y-137788895D01*
X101274181Y-137746438D01*
X101284774Y-137711519D01*
X101301976Y-137679337D01*
X101325127Y-137651127D01*
X101353337Y-137627976D01*
X101385519Y-137610774D01*
X101420438Y-137600181D01*
X101462895Y-137596000D01*
X102604105Y-137596000D01*
X102646562Y-137600181D01*
G37*
G36*
X127199000Y-138997000D02*
G01*
X123597000Y-138997000D01*
X123597000Y-137095000D01*
X127199000Y-137095000D01*
X127199000Y-138997000D01*
G37*
G36*
X137319000Y-138997000D02*
G01*
X133717000Y-138997000D01*
X133717000Y-137095000D01*
X137319000Y-137095000D01*
X137319000Y-138997000D01*
G37*
G36*
X132319000Y-138997000D02*
G01*
X128717000Y-138997000D01*
X128717000Y-137095000D01*
X132319000Y-137095000D01*
X132319000Y-138997000D01*
G37*
G36*
X122199000Y-138997000D02*
G01*
X118597000Y-138997000D01*
X118597000Y-137095000D01*
X122199000Y-137095000D01*
X122199000Y-138997000D01*
G37*
G36*
X114186062Y-137092181D02*
G01*
X114220981Y-137102774D01*
X114253163Y-137119976D01*
X114281373Y-137143127D01*
X114304524Y-137171337D01*
X114321726Y-137203519D01*
X114332319Y-137238438D01*
X114336500Y-137280895D01*
X114336500Y-138747105D01*
X114332319Y-138789562D01*
X114321726Y-138824481D01*
X114304524Y-138856663D01*
X114281373Y-138884873D01*
X114253163Y-138908024D01*
X114220981Y-138925226D01*
X114186062Y-138935819D01*
X114143605Y-138940000D01*
X113002395Y-138940000D01*
X112959938Y-138935819D01*
X112925019Y-138925226D01*
X112892837Y-138908024D01*
X112864627Y-138884873D01*
X112841476Y-138856663D01*
X112824274Y-138824481D01*
X112813681Y-138789562D01*
X112809500Y-138747105D01*
X112809500Y-137280895D01*
X112813681Y-137238438D01*
X112824274Y-137203519D01*
X112841476Y-137171337D01*
X112864627Y-137143127D01*
X112892837Y-137119976D01*
X112925019Y-137102774D01*
X112959938Y-137092181D01*
X113002395Y-137088000D01*
X114143605Y-137088000D01*
X114186062Y-137092181D01*
G37*
G36*
X111790562Y-137092181D02*
G01*
X111825481Y-137102774D01*
X111857663Y-137119976D01*
X111885873Y-137143127D01*
X111909024Y-137171337D01*
X111926226Y-137203519D01*
X111936819Y-137238438D01*
X111941000Y-137280895D01*
X111941000Y-138747105D01*
X111936819Y-138789562D01*
X111926226Y-138824481D01*
X111909024Y-138856663D01*
X111885873Y-138884873D01*
X111857663Y-138908024D01*
X111825481Y-138925226D01*
X111790562Y-138935819D01*
X111748105Y-138940000D01*
X110606895Y-138940000D01*
X110564438Y-138935819D01*
X110529519Y-138925226D01*
X110497337Y-138908024D01*
X110469127Y-138884873D01*
X110445976Y-138856663D01*
X110428774Y-138824481D01*
X110418181Y-138789562D01*
X110414000Y-138747105D01*
X110414000Y-137280895D01*
X110418181Y-137238438D01*
X110428774Y-137203519D01*
X110445976Y-137171337D01*
X110469127Y-137143127D01*
X110497337Y-137119976D01*
X110529519Y-137102774D01*
X110564438Y-137092181D01*
X110606895Y-137088000D01*
X111748105Y-137088000D01*
X111790562Y-137092181D01*
G37*
G36*
X108815562Y-137092181D02*
G01*
X108850481Y-137102774D01*
X108882663Y-137119976D01*
X108910873Y-137143127D01*
X108934024Y-137171337D01*
X108951226Y-137203519D01*
X108961819Y-137238438D01*
X108966000Y-137280895D01*
X108966000Y-138747105D01*
X108961819Y-138789562D01*
X108951226Y-138824481D01*
X108934024Y-138856663D01*
X108910873Y-138884873D01*
X108882663Y-138908024D01*
X108850481Y-138925226D01*
X108815562Y-138935819D01*
X108773105Y-138940000D01*
X107631895Y-138940000D01*
X107589438Y-138935819D01*
X107554519Y-138925226D01*
X107522337Y-138908024D01*
X107494127Y-138884873D01*
X107470976Y-138856663D01*
X107453774Y-138824481D01*
X107443181Y-138789562D01*
X107439000Y-138747105D01*
X107439000Y-137280895D01*
X107443181Y-137238438D01*
X107453774Y-137203519D01*
X107470976Y-137171337D01*
X107494127Y-137143127D01*
X107522337Y-137119976D01*
X107554519Y-137102774D01*
X107589438Y-137092181D01*
X107631895Y-137088000D01*
X108773105Y-137088000D01*
X108815562Y-137092181D01*
G37*
G36*
X117161062Y-137092181D02*
G01*
X117195981Y-137102774D01*
X117228163Y-137119976D01*
X117256373Y-137143127D01*
X117279524Y-137171337D01*
X117296726Y-137203519D01*
X117307319Y-137238438D01*
X117311500Y-137280895D01*
X117311500Y-138747105D01*
X117307319Y-138789562D01*
X117296726Y-138824481D01*
X117279524Y-138856663D01*
X117256373Y-138884873D01*
X117228163Y-138908024D01*
X117195981Y-138925226D01*
X117161062Y-138935819D01*
X117118605Y-138940000D01*
X115977395Y-138940000D01*
X115934938Y-138935819D01*
X115900019Y-138925226D01*
X115867837Y-138908024D01*
X115839627Y-138884873D01*
X115816476Y-138856663D01*
X115799274Y-138824481D01*
X115788681Y-138789562D01*
X115784500Y-138747105D01*
X115784500Y-137280895D01*
X115788681Y-137238438D01*
X115799274Y-137203519D01*
X115816476Y-137171337D01*
X115839627Y-137143127D01*
X115867837Y-137119976D01*
X115900019Y-137102774D01*
X115934938Y-137092181D01*
X115977395Y-137088000D01*
X117118605Y-137088000D01*
X117161062Y-137092181D01*
G37*
G36*
X68555562Y-136746681D02*
G01*
X68590481Y-136757274D01*
X68622663Y-136774476D01*
X68650873Y-136797627D01*
X68674024Y-136825837D01*
X68691226Y-136858019D01*
X68701819Y-136892938D01*
X68706000Y-136935395D01*
X68706000Y-138076605D01*
X68701819Y-138119062D01*
X68691226Y-138153981D01*
X68674024Y-138186163D01*
X68650873Y-138214373D01*
X68622663Y-138237524D01*
X68590481Y-138254726D01*
X68555562Y-138265319D01*
X68513105Y-138269500D01*
X67046895Y-138269500D01*
X67004438Y-138265319D01*
X66969519Y-138254726D01*
X66937337Y-138237524D01*
X66909127Y-138214373D01*
X66885976Y-138186163D01*
X66868774Y-138153981D01*
X66858181Y-138119062D01*
X66854000Y-138076605D01*
X66854000Y-136935395D01*
X66858181Y-136892938D01*
X66868774Y-136858019D01*
X66885976Y-136825837D01*
X66909127Y-136797627D01*
X66937337Y-136774476D01*
X66969519Y-136757274D01*
X67004438Y-136746681D01*
X67046895Y-136742500D01*
X68513105Y-136742500D01*
X68555562Y-136746681D01*
G37*
G36*
X87306000Y-137751000D02*
G01*
X86504000Y-137751000D01*
X86504000Y-135949000D01*
X87306000Y-135949000D01*
X87306000Y-137751000D01*
G37*
G36*
X88576000Y-137751000D02*
G01*
X87774000Y-137751000D01*
X87774000Y-135949000D01*
X88576000Y-135949000D01*
X88576000Y-137751000D01*
G37*
G36*
X89846000Y-137751000D02*
G01*
X89044000Y-137751000D01*
X89044000Y-135949000D01*
X89846000Y-135949000D01*
X89846000Y-137751000D01*
G37*
G36*
X91116000Y-137751000D02*
G01*
X90314000Y-137751000D01*
X90314000Y-135949000D01*
X91116000Y-135949000D01*
X91116000Y-137751000D01*
G37*
G36*
X84766000Y-137751000D02*
G01*
X83964000Y-137751000D01*
X83964000Y-135949000D01*
X84766000Y-135949000D01*
X84766000Y-137751000D01*
G37*
G36*
X83496000Y-137751000D02*
G01*
X82694000Y-137751000D01*
X82694000Y-135949000D01*
X83496000Y-135949000D01*
X83496000Y-137751000D01*
G37*
G36*
X82226000Y-137751000D02*
G01*
X81424000Y-137751000D01*
X81424000Y-135949000D01*
X82226000Y-135949000D01*
X82226000Y-137751000D01*
G37*
G36*
X80956000Y-137751000D02*
G01*
X80154000Y-137751000D01*
X80154000Y-135949000D01*
X80956000Y-135949000D01*
X80956000Y-137751000D01*
G37*
G36*
X79686000Y-137751000D02*
G01*
X78884000Y-137751000D01*
X78884000Y-135949000D01*
X79686000Y-135949000D01*
X79686000Y-137751000D01*
G37*
G36*
X86036000Y-137751000D02*
G01*
X85234000Y-137751000D01*
X85234000Y-135949000D01*
X86036000Y-135949000D01*
X86036000Y-137751000D01*
G37*
G36*
X102646562Y-135314181D02*
G01*
X102681481Y-135324774D01*
X102713663Y-135341976D01*
X102741873Y-135365127D01*
X102765024Y-135393337D01*
X102782226Y-135425519D01*
X102792819Y-135460438D01*
X102797000Y-135502895D01*
X102797000Y-136969105D01*
X102792819Y-137011562D01*
X102782226Y-137046481D01*
X102765024Y-137078663D01*
X102741873Y-137106873D01*
X102713663Y-137130024D01*
X102681481Y-137147226D01*
X102646562Y-137157819D01*
X102604105Y-137162000D01*
X101462895Y-137162000D01*
X101420438Y-137157819D01*
X101385519Y-137147226D01*
X101353337Y-137130024D01*
X101325127Y-137106873D01*
X101301976Y-137078663D01*
X101284774Y-137046481D01*
X101274181Y-137011562D01*
X101270000Y-136969105D01*
X101270000Y-135502895D01*
X101274181Y-135460438D01*
X101284774Y-135425519D01*
X101301976Y-135393337D01*
X101325127Y-135365127D01*
X101353337Y-135341976D01*
X101385519Y-135324774D01*
X101420438Y-135314181D01*
X101462895Y-135310000D01*
X102604105Y-135310000D01*
X102646562Y-135314181D01*
G37*
G36*
X99671562Y-135314181D02*
G01*
X99706481Y-135324774D01*
X99738663Y-135341976D01*
X99766873Y-135365127D01*
X99790024Y-135393337D01*
X99807226Y-135425519D01*
X99817819Y-135460438D01*
X99822000Y-135502895D01*
X99822000Y-136969105D01*
X99817819Y-137011562D01*
X99807226Y-137046481D01*
X99790024Y-137078663D01*
X99766873Y-137106873D01*
X99738663Y-137130024D01*
X99706481Y-137147226D01*
X99671562Y-137157819D01*
X99629105Y-137162000D01*
X98487895Y-137162000D01*
X98445438Y-137157819D01*
X98410519Y-137147226D01*
X98378337Y-137130024D01*
X98350127Y-137106873D01*
X98326976Y-137078663D01*
X98309774Y-137046481D01*
X98299181Y-137011562D01*
X98295000Y-136969105D01*
X98295000Y-135502895D01*
X98299181Y-135460438D01*
X98309774Y-135425519D01*
X98326976Y-135393337D01*
X98350127Y-135365127D01*
X98378337Y-135341976D01*
X98410519Y-135324774D01*
X98445438Y-135314181D01*
X98487895Y-135310000D01*
X99629105Y-135310000D01*
X99671562Y-135314181D01*
G37*
G36*
X147055000Y-134551000D02*
G01*
X143953000Y-134551000D01*
X143953000Y-131449000D01*
X147055000Y-131449000D01*
X147055000Y-134551000D01*
G37*
G36*
X62959928Y-131591764D02*
G01*
X62981009Y-131598160D01*
X63000445Y-131608548D01*
X63017476Y-131622524D01*
X63031452Y-131639555D01*
X63041840Y-131658991D01*
X63048236Y-131680072D01*
X63051000Y-131708140D01*
X63051000Y-133521860D01*
X63048236Y-133549928D01*
X63041840Y-133571009D01*
X63031452Y-133590445D01*
X63017476Y-133607476D01*
X63000445Y-133621452D01*
X62981009Y-133631840D01*
X62959928Y-133638236D01*
X62931860Y-133641000D01*
X62468140Y-133641000D01*
X62440072Y-133638236D01*
X62418991Y-133631840D01*
X62399555Y-133621452D01*
X62382524Y-133607476D01*
X62368548Y-133590445D01*
X62358160Y-133571009D01*
X62351764Y-133549928D01*
X62349000Y-133521860D01*
X62349000Y-131708140D01*
X62351764Y-131680072D01*
X62358160Y-131658991D01*
X62368548Y-131639555D01*
X62382524Y-131622524D01*
X62399555Y-131608548D01*
X62418991Y-131598160D01*
X62440072Y-131591764D01*
X62468140Y-131589000D01*
X62931860Y-131589000D01*
X62959928Y-131591764D01*
G37*
G36*
X69309928Y-131591764D02*
G01*
X69331009Y-131598160D01*
X69350445Y-131608548D01*
X69367476Y-131622524D01*
X69381452Y-131639555D01*
X69391840Y-131658991D01*
X69398236Y-131680072D01*
X69401000Y-131708140D01*
X69401000Y-133521860D01*
X69398236Y-133549928D01*
X69391840Y-133571009D01*
X69381452Y-133590445D01*
X69367476Y-133607476D01*
X69350445Y-133621452D01*
X69331009Y-133631840D01*
X69309928Y-133638236D01*
X69281860Y-133641000D01*
X68818140Y-133641000D01*
X68790072Y-133638236D01*
X68768991Y-133631840D01*
X68749555Y-133621452D01*
X68732524Y-133607476D01*
X68718548Y-133590445D01*
X68708160Y-133571009D01*
X68701764Y-133549928D01*
X68699000Y-133521860D01*
X68699000Y-131708140D01*
X68701764Y-131680072D01*
X68708160Y-131658991D01*
X68718548Y-131639555D01*
X68732524Y-131622524D01*
X68749555Y-131608548D01*
X68768991Y-131598160D01*
X68790072Y-131591764D01*
X68818140Y-131589000D01*
X69281860Y-131589000D01*
X69309928Y-131591764D01*
G37*
G36*
X64229928Y-131591764D02*
G01*
X64251009Y-131598160D01*
X64270445Y-131608548D01*
X64287476Y-131622524D01*
X64301452Y-131639555D01*
X64311840Y-131658991D01*
X64318236Y-131680072D01*
X64321000Y-131708140D01*
X64321000Y-133521860D01*
X64318236Y-133549928D01*
X64311840Y-133571009D01*
X64301452Y-133590445D01*
X64287476Y-133607476D01*
X64270445Y-133621452D01*
X64251009Y-133631840D01*
X64229928Y-133638236D01*
X64201860Y-133641000D01*
X63738140Y-133641000D01*
X63710072Y-133638236D01*
X63688991Y-133631840D01*
X63669555Y-133621452D01*
X63652524Y-133607476D01*
X63638548Y-133590445D01*
X63628160Y-133571009D01*
X63621764Y-133549928D01*
X63619000Y-133521860D01*
X63619000Y-131708140D01*
X63621764Y-131680072D01*
X63628160Y-131658991D01*
X63638548Y-131639555D01*
X63652524Y-131622524D01*
X63669555Y-131608548D01*
X63688991Y-131598160D01*
X63710072Y-131591764D01*
X63738140Y-131589000D01*
X64201860Y-131589000D01*
X64229928Y-131591764D01*
G37*
G36*
X68039928Y-131591764D02*
G01*
X68061009Y-131598160D01*
X68080445Y-131608548D01*
X68097476Y-131622524D01*
X68111452Y-131639555D01*
X68121840Y-131658991D01*
X68128236Y-131680072D01*
X68131000Y-131708140D01*
X68131000Y-133521860D01*
X68128236Y-133549928D01*
X68121840Y-133571009D01*
X68111452Y-133590445D01*
X68097476Y-133607476D01*
X68080445Y-133621452D01*
X68061009Y-133631840D01*
X68039928Y-133638236D01*
X68011860Y-133641000D01*
X67548140Y-133641000D01*
X67520072Y-133638236D01*
X67498991Y-133631840D01*
X67479555Y-133621452D01*
X67462524Y-133607476D01*
X67448548Y-133590445D01*
X67438160Y-133571009D01*
X67431764Y-133549928D01*
X67429000Y-133521860D01*
X67429000Y-131708140D01*
X67431764Y-131680072D01*
X67438160Y-131658991D01*
X67448548Y-131639555D01*
X67462524Y-131622524D01*
X67479555Y-131608548D01*
X67498991Y-131598160D01*
X67520072Y-131591764D01*
X67548140Y-131589000D01*
X68011860Y-131589000D01*
X68039928Y-131591764D01*
G37*
G36*
X66769928Y-131591764D02*
G01*
X66791009Y-131598160D01*
X66810445Y-131608548D01*
X66827476Y-131622524D01*
X66841452Y-131639555D01*
X66851840Y-131658991D01*
X66858236Y-131680072D01*
X66861000Y-131708140D01*
X66861000Y-133521860D01*
X66858236Y-133549928D01*
X66851840Y-133571009D01*
X66841452Y-133590445D01*
X66827476Y-133607476D01*
X66810445Y-133621452D01*
X66791009Y-133631840D01*
X66769928Y-133638236D01*
X66741860Y-133641000D01*
X66278140Y-133641000D01*
X66250072Y-133638236D01*
X66228991Y-133631840D01*
X66209555Y-133621452D01*
X66192524Y-133607476D01*
X66178548Y-133590445D01*
X66168160Y-133571009D01*
X66161764Y-133549928D01*
X66159000Y-133521860D01*
X66159000Y-131708140D01*
X66161764Y-131680072D01*
X66168160Y-131658991D01*
X66178548Y-131639555D01*
X66192524Y-131622524D01*
X66209555Y-131608548D01*
X66228991Y-131598160D01*
X66250072Y-131591764D01*
X66278140Y-131589000D01*
X66741860Y-131589000D01*
X66769928Y-131591764D01*
G37*
G36*
X65499928Y-131591764D02*
G01*
X65521009Y-131598160D01*
X65540445Y-131608548D01*
X65557476Y-131622524D01*
X65571452Y-131639555D01*
X65581840Y-131658991D01*
X65588236Y-131680072D01*
X65591000Y-131708140D01*
X65591000Y-133521860D01*
X65588236Y-133549928D01*
X65581840Y-133571009D01*
X65571452Y-133590445D01*
X65557476Y-133607476D01*
X65540445Y-133621452D01*
X65521009Y-133631840D01*
X65499928Y-133638236D01*
X65471860Y-133641000D01*
X65008140Y-133641000D01*
X64980072Y-133638236D01*
X64958991Y-133631840D01*
X64939555Y-133621452D01*
X64922524Y-133607476D01*
X64908548Y-133590445D01*
X64898160Y-133571009D01*
X64891764Y-133549928D01*
X64889000Y-133521860D01*
X64889000Y-131708140D01*
X64891764Y-131680072D01*
X64898160Y-131658991D01*
X64908548Y-131639555D01*
X64922524Y-131622524D01*
X64939555Y-131608548D01*
X64958991Y-131598160D01*
X64980072Y-131591764D01*
X65008140Y-131589000D01*
X65471860Y-131589000D01*
X65499928Y-131591764D01*
G37*
G36*
X61689928Y-131591764D02*
G01*
X61711009Y-131598160D01*
X61730445Y-131608548D01*
X61747476Y-131622524D01*
X61761452Y-131639555D01*
X61771840Y-131658991D01*
X61778236Y-131680072D01*
X61781000Y-131708140D01*
X61781000Y-133521860D01*
X61778236Y-133549928D01*
X61771840Y-133571009D01*
X61761452Y-133590445D01*
X61747476Y-133607476D01*
X61730445Y-133621452D01*
X61711009Y-133631840D01*
X61689928Y-133638236D01*
X61661860Y-133641000D01*
X61198140Y-133641000D01*
X61170072Y-133638236D01*
X61148991Y-133631840D01*
X61129555Y-133621452D01*
X61112524Y-133607476D01*
X61098548Y-133590445D01*
X61088160Y-133571009D01*
X61081764Y-133549928D01*
X61079000Y-133521860D01*
X61079000Y-131708140D01*
X61081764Y-131680072D01*
X61088160Y-131658991D01*
X61098548Y-131639555D01*
X61112524Y-131622524D01*
X61129555Y-131608548D01*
X61148991Y-131598160D01*
X61170072Y-131591764D01*
X61198140Y-131589000D01*
X61661860Y-131589000D01*
X61689928Y-131591764D01*
G37*
G36*
X97630928Y-130575764D02*
G01*
X97652009Y-130582160D01*
X97671445Y-130592548D01*
X97688476Y-130606524D01*
X97702452Y-130623555D01*
X97712840Y-130642991D01*
X97719236Y-130664072D01*
X97722000Y-130692140D01*
X97722000Y-132505860D01*
X97719236Y-132533928D01*
X97712840Y-132555009D01*
X97702452Y-132574445D01*
X97688476Y-132591476D01*
X97671445Y-132605452D01*
X97652009Y-132615840D01*
X97630928Y-132622236D01*
X97602860Y-132625000D01*
X97139140Y-132625000D01*
X97111072Y-132622236D01*
X97089991Y-132615840D01*
X97070555Y-132605452D01*
X97053524Y-132591476D01*
X97039548Y-132574445D01*
X97029160Y-132555009D01*
X97022764Y-132533928D01*
X97020000Y-132505860D01*
X97020000Y-130692140D01*
X97022764Y-130664072D01*
X97029160Y-130642991D01*
X97039548Y-130623555D01*
X97053524Y-130606524D01*
X97070555Y-130592548D01*
X97089991Y-130582160D01*
X97111072Y-130575764D01*
X97139140Y-130573000D01*
X97602860Y-130573000D01*
X97630928Y-130575764D01*
G37*
G36*
X101440928Y-130575764D02*
G01*
X101462009Y-130582160D01*
X101481445Y-130592548D01*
X101498476Y-130606524D01*
X101512452Y-130623555D01*
X101522840Y-130642991D01*
X101529236Y-130664072D01*
X101532000Y-130692140D01*
X101532000Y-132505860D01*
X101529236Y-132533928D01*
X101522840Y-132555009D01*
X101512452Y-132574445D01*
X101498476Y-132591476D01*
X101481445Y-132605452D01*
X101462009Y-132615840D01*
X101440928Y-132622236D01*
X101412860Y-132625000D01*
X100949140Y-132625000D01*
X100921072Y-132622236D01*
X100899991Y-132615840D01*
X100880555Y-132605452D01*
X100863524Y-132591476D01*
X100849548Y-132574445D01*
X100839160Y-132555009D01*
X100832764Y-132533928D01*
X100830000Y-132505860D01*
X100830000Y-130692140D01*
X100832764Y-130664072D01*
X100839160Y-130642991D01*
X100849548Y-130623555D01*
X100863524Y-130606524D01*
X100880555Y-130592548D01*
X100899991Y-130582160D01*
X100921072Y-130575764D01*
X100949140Y-130573000D01*
X101412860Y-130573000D01*
X101440928Y-130575764D01*
G37*
G36*
X100170928Y-130575764D02*
G01*
X100192009Y-130582160D01*
X100211445Y-130592548D01*
X100228476Y-130606524D01*
X100242452Y-130623555D01*
X100252840Y-130642991D01*
X100259236Y-130664072D01*
X100262000Y-130692140D01*
X100262000Y-132505860D01*
X100259236Y-132533928D01*
X100252840Y-132555009D01*
X100242452Y-132574445D01*
X100228476Y-132591476D01*
X100211445Y-132605452D01*
X100192009Y-132615840D01*
X100170928Y-132622236D01*
X100142860Y-132625000D01*
X99679140Y-132625000D01*
X99651072Y-132622236D01*
X99629991Y-132615840D01*
X99610555Y-132605452D01*
X99593524Y-132591476D01*
X99579548Y-132574445D01*
X99569160Y-132555009D01*
X99562764Y-132533928D01*
X99560000Y-132505860D01*
X99560000Y-130692140D01*
X99562764Y-130664072D01*
X99569160Y-130642991D01*
X99579548Y-130623555D01*
X99593524Y-130606524D01*
X99610555Y-130592548D01*
X99629991Y-130582160D01*
X99651072Y-130575764D01*
X99679140Y-130573000D01*
X100142860Y-130573000D01*
X100170928Y-130575764D01*
G37*
G36*
X98900928Y-130575764D02*
G01*
X98922009Y-130582160D01*
X98941445Y-130592548D01*
X98958476Y-130606524D01*
X98972452Y-130623555D01*
X98982840Y-130642991D01*
X98989236Y-130664072D01*
X98992000Y-130692140D01*
X98992000Y-132505860D01*
X98989236Y-132533928D01*
X98982840Y-132555009D01*
X98972452Y-132574445D01*
X98958476Y-132591476D01*
X98941445Y-132605452D01*
X98922009Y-132615840D01*
X98900928Y-132622236D01*
X98872860Y-132625000D01*
X98409140Y-132625000D01*
X98381072Y-132622236D01*
X98359991Y-132615840D01*
X98340555Y-132605452D01*
X98323524Y-132591476D01*
X98309548Y-132574445D01*
X98299160Y-132555009D01*
X98292764Y-132533928D01*
X98290000Y-132505860D01*
X98290000Y-130692140D01*
X98292764Y-130664072D01*
X98299160Y-130642991D01*
X98309548Y-130623555D01*
X98323524Y-130606524D01*
X98340555Y-130592548D01*
X98359991Y-130582160D01*
X98381072Y-130575764D01*
X98409140Y-130573000D01*
X98872860Y-130573000D01*
X98900928Y-130575764D01*
G37*
G36*
X105131562Y-130868181D02*
G01*
X105166481Y-130878774D01*
X105198663Y-130895976D01*
X105226873Y-130919127D01*
X105250024Y-130947337D01*
X105267226Y-130979519D01*
X105277819Y-131014438D01*
X105282000Y-131056895D01*
X105282000Y-132198105D01*
X105277819Y-132240562D01*
X105267226Y-132275481D01*
X105250024Y-132307663D01*
X105226873Y-132335873D01*
X105198663Y-132359024D01*
X105166481Y-132376226D01*
X105131562Y-132386819D01*
X105089105Y-132391000D01*
X103622895Y-132391000D01*
X103580438Y-132386819D01*
X103545519Y-132376226D01*
X103513337Y-132359024D01*
X103485127Y-132335873D01*
X103461976Y-132307663D01*
X103444774Y-132275481D01*
X103434181Y-132240562D01*
X103430000Y-132198105D01*
X103430000Y-131056895D01*
X103434181Y-131014438D01*
X103444774Y-130979519D01*
X103461976Y-130947337D01*
X103485127Y-130919127D01*
X103513337Y-130895976D01*
X103545519Y-130878774D01*
X103580438Y-130868181D01*
X103622895Y-130864000D01*
X105089105Y-130864000D01*
X105131562Y-130868181D01*
G37*
G36*
X58649562Y-130614181D02*
G01*
X58684481Y-130624774D01*
X58716663Y-130641976D01*
X58744873Y-130665127D01*
X58768024Y-130693337D01*
X58785226Y-130725519D01*
X58795819Y-130760438D01*
X58800000Y-130802895D01*
X58800000Y-131944105D01*
X58795819Y-131986562D01*
X58785226Y-132021481D01*
X58768024Y-132053663D01*
X58744873Y-132081873D01*
X58716663Y-132105024D01*
X58684481Y-132122226D01*
X58649562Y-132132819D01*
X58607105Y-132137000D01*
X57140895Y-132137000D01*
X57098438Y-132132819D01*
X57063519Y-132122226D01*
X57031337Y-132105024D01*
X57003127Y-132081873D01*
X56979976Y-132053663D01*
X56962774Y-132021481D01*
X56952181Y-131986562D01*
X56948000Y-131944105D01*
X56948000Y-130802895D01*
X56952181Y-130760438D01*
X56962774Y-130725519D01*
X56979976Y-130693337D01*
X57003127Y-130665127D01*
X57031337Y-130641976D01*
X57063519Y-130624774D01*
X57098438Y-130614181D01*
X57140895Y-130610000D01*
X58607105Y-130610000D01*
X58649562Y-130614181D01*
G37*
G36*
X117124562Y-128710181D02*
G01*
X117159481Y-128720774D01*
X117191663Y-128737976D01*
X117219873Y-128761127D01*
X117243024Y-128789337D01*
X117260226Y-128821519D01*
X117270819Y-128856438D01*
X117275000Y-128898895D01*
X117275000Y-130365105D01*
X117270819Y-130407562D01*
X117260226Y-130442481D01*
X117243024Y-130474663D01*
X117219873Y-130502873D01*
X117191663Y-130526024D01*
X117159481Y-130543226D01*
X117124562Y-130553819D01*
X117082105Y-130558000D01*
X115940895Y-130558000D01*
X115898438Y-130553819D01*
X115863519Y-130543226D01*
X115831337Y-130526024D01*
X115803127Y-130502873D01*
X115779976Y-130474663D01*
X115762774Y-130442481D01*
X115752181Y-130407562D01*
X115748000Y-130365105D01*
X115748000Y-128898895D01*
X115752181Y-128856438D01*
X115762774Y-128821519D01*
X115779976Y-128789337D01*
X115803127Y-128761127D01*
X115831337Y-128737976D01*
X115863519Y-128720774D01*
X115898438Y-128710181D01*
X115940895Y-128706000D01*
X117082105Y-128706000D01*
X117124562Y-128710181D01*
G37*
G36*
X114149562Y-128710181D02*
G01*
X114184481Y-128720774D01*
X114216663Y-128737976D01*
X114244873Y-128761127D01*
X114268024Y-128789337D01*
X114285226Y-128821519D01*
X114295819Y-128856438D01*
X114300000Y-128898895D01*
X114300000Y-130365105D01*
X114295819Y-130407562D01*
X114285226Y-130442481D01*
X114268024Y-130474663D01*
X114244873Y-130502873D01*
X114216663Y-130526024D01*
X114184481Y-130543226D01*
X114149562Y-130553819D01*
X114107105Y-130558000D01*
X112965895Y-130558000D01*
X112923438Y-130553819D01*
X112888519Y-130543226D01*
X112856337Y-130526024D01*
X112828127Y-130502873D01*
X112804976Y-130474663D01*
X112787774Y-130442481D01*
X112777181Y-130407562D01*
X112773000Y-130365105D01*
X112773000Y-128898895D01*
X112777181Y-128856438D01*
X112787774Y-128821519D01*
X112804976Y-128789337D01*
X112828127Y-128761127D01*
X112856337Y-128737976D01*
X112888519Y-128720774D01*
X112923438Y-128710181D01*
X112965895Y-128706000D01*
X114107105Y-128706000D01*
X114149562Y-128710181D01*
G37*
G36*
X111790562Y-128710181D02*
G01*
X111825481Y-128720774D01*
X111857663Y-128737976D01*
X111885873Y-128761127D01*
X111909024Y-128789337D01*
X111926226Y-128821519D01*
X111936819Y-128856438D01*
X111941000Y-128898895D01*
X111941000Y-130365105D01*
X111936819Y-130407562D01*
X111926226Y-130442481D01*
X111909024Y-130474663D01*
X111885873Y-130502873D01*
X111857663Y-130526024D01*
X111825481Y-130543226D01*
X111790562Y-130553819D01*
X111748105Y-130558000D01*
X110606895Y-130558000D01*
X110564438Y-130553819D01*
X110529519Y-130543226D01*
X110497337Y-130526024D01*
X110469127Y-130502873D01*
X110445976Y-130474663D01*
X110428774Y-130442481D01*
X110418181Y-130407562D01*
X110414000Y-130365105D01*
X110414000Y-128898895D01*
X110418181Y-128856438D01*
X110428774Y-128821519D01*
X110445976Y-128789337D01*
X110469127Y-128761127D01*
X110497337Y-128737976D01*
X110529519Y-128720774D01*
X110564438Y-128710181D01*
X110606895Y-128706000D01*
X111748105Y-128706000D01*
X111790562Y-128710181D01*
G37*
G36*
X108815562Y-128710181D02*
G01*
X108850481Y-128720774D01*
X108882663Y-128737976D01*
X108910873Y-128761127D01*
X108934024Y-128789337D01*
X108951226Y-128821519D01*
X108961819Y-128856438D01*
X108966000Y-128898895D01*
X108966000Y-130365105D01*
X108961819Y-130407562D01*
X108951226Y-130442481D01*
X108934024Y-130474663D01*
X108910873Y-130502873D01*
X108882663Y-130526024D01*
X108850481Y-130543226D01*
X108815562Y-130553819D01*
X108773105Y-130558000D01*
X107631895Y-130558000D01*
X107589438Y-130553819D01*
X107554519Y-130543226D01*
X107522337Y-130526024D01*
X107494127Y-130502873D01*
X107470976Y-130474663D01*
X107453774Y-130442481D01*
X107443181Y-130407562D01*
X107439000Y-130365105D01*
X107439000Y-128898895D01*
X107443181Y-128856438D01*
X107453774Y-128821519D01*
X107470976Y-128789337D01*
X107494127Y-128761127D01*
X107522337Y-128737976D01*
X107554519Y-128720774D01*
X107589438Y-128710181D01*
X107631895Y-128706000D01*
X108773105Y-128706000D01*
X108815562Y-128710181D01*
G37*
G36*
X132359000Y-130329000D02*
G01*
X128757000Y-130329000D01*
X128757000Y-128427000D01*
X132359000Y-128427000D01*
X132359000Y-130329000D01*
G37*
G36*
X122453000Y-130329000D02*
G01*
X118851000Y-130329000D01*
X118851000Y-128427000D01*
X122453000Y-128427000D01*
X122453000Y-130329000D01*
G37*
G36*
X137359000Y-130329000D02*
G01*
X133757000Y-130329000D01*
X133757000Y-128427000D01*
X137359000Y-128427000D01*
X137359000Y-130329000D01*
G37*
G36*
X127453000Y-130329000D02*
G01*
X123851000Y-130329000D01*
X123851000Y-128427000D01*
X127453000Y-128427000D01*
X127453000Y-130329000D01*
G37*
G36*
X105131562Y-127893181D02*
G01*
X105166481Y-127903774D01*
X105198663Y-127920976D01*
X105226873Y-127944127D01*
X105250024Y-127972337D01*
X105267226Y-128004519D01*
X105277819Y-128039438D01*
X105282000Y-128081895D01*
X105282000Y-129223105D01*
X105277819Y-129265562D01*
X105267226Y-129300481D01*
X105250024Y-129332663D01*
X105226873Y-129360873D01*
X105198663Y-129384024D01*
X105166481Y-129401226D01*
X105131562Y-129411819D01*
X105089105Y-129416000D01*
X103622895Y-129416000D01*
X103580438Y-129411819D01*
X103545519Y-129401226D01*
X103513337Y-129384024D01*
X103485127Y-129360873D01*
X103461976Y-129332663D01*
X103444774Y-129300481D01*
X103434181Y-129265562D01*
X103430000Y-129223105D01*
X103430000Y-128081895D01*
X103434181Y-128039438D01*
X103444774Y-128004519D01*
X103461976Y-127972337D01*
X103485127Y-127944127D01*
X103513337Y-127920976D01*
X103545519Y-127903774D01*
X103580438Y-127893181D01*
X103622895Y-127889000D01*
X105089105Y-127889000D01*
X105131562Y-127893181D01*
G37*
G36*
X58649562Y-127639181D02*
G01*
X58684481Y-127649774D01*
X58716663Y-127666976D01*
X58744873Y-127690127D01*
X58768024Y-127718337D01*
X58785226Y-127750519D01*
X58795819Y-127785438D01*
X58800000Y-127827895D01*
X58800000Y-128969105D01*
X58795819Y-129011562D01*
X58785226Y-129046481D01*
X58768024Y-129078663D01*
X58744873Y-129106873D01*
X58716663Y-129130024D01*
X58684481Y-129147226D01*
X58649562Y-129157819D01*
X58607105Y-129162000D01*
X57140895Y-129162000D01*
X57098438Y-129157819D01*
X57063519Y-129147226D01*
X57031337Y-129130024D01*
X57003127Y-129106873D01*
X56979976Y-129078663D01*
X56962774Y-129046481D01*
X56952181Y-129011562D01*
X56948000Y-128969105D01*
X56948000Y-127827895D01*
X56952181Y-127785438D01*
X56962774Y-127750519D01*
X56979976Y-127718337D01*
X57003127Y-127690127D01*
X57031337Y-127666976D01*
X57063519Y-127649774D01*
X57098438Y-127639181D01*
X57140895Y-127635000D01*
X58607105Y-127635000D01*
X58649562Y-127639181D01*
G37*
G36*
X65499928Y-126641764D02*
G01*
X65521009Y-126648160D01*
X65540445Y-126658548D01*
X65557476Y-126672524D01*
X65571452Y-126689555D01*
X65581840Y-126708991D01*
X65588236Y-126730072D01*
X65591000Y-126758140D01*
X65591000Y-128571860D01*
X65588236Y-128599928D01*
X65581840Y-128621009D01*
X65571452Y-128640445D01*
X65557476Y-128657476D01*
X65540445Y-128671452D01*
X65521009Y-128681840D01*
X65499928Y-128688236D01*
X65471860Y-128691000D01*
X65008140Y-128691000D01*
X64980072Y-128688236D01*
X64958991Y-128681840D01*
X64939555Y-128671452D01*
X64922524Y-128657476D01*
X64908548Y-128640445D01*
X64898160Y-128621009D01*
X64891764Y-128599928D01*
X64889000Y-128571860D01*
X64889000Y-126758140D01*
X64891764Y-126730072D01*
X64898160Y-126708991D01*
X64908548Y-126689555D01*
X64922524Y-126672524D01*
X64939555Y-126658548D01*
X64958991Y-126648160D01*
X64980072Y-126641764D01*
X65008140Y-126639000D01*
X65471860Y-126639000D01*
X65499928Y-126641764D01*
G37*
G36*
X69309928Y-126641764D02*
G01*
X69331009Y-126648160D01*
X69350445Y-126658548D01*
X69367476Y-126672524D01*
X69381452Y-126689555D01*
X69391840Y-126708991D01*
X69398236Y-126730072D01*
X69401000Y-126758140D01*
X69401000Y-128571860D01*
X69398236Y-128599928D01*
X69391840Y-128621009D01*
X69381452Y-128640445D01*
X69367476Y-128657476D01*
X69350445Y-128671452D01*
X69331009Y-128681840D01*
X69309928Y-128688236D01*
X69281860Y-128691000D01*
X68818140Y-128691000D01*
X68790072Y-128688236D01*
X68768991Y-128681840D01*
X68749555Y-128671452D01*
X68732524Y-128657476D01*
X68718548Y-128640445D01*
X68708160Y-128621009D01*
X68701764Y-128599928D01*
X68699000Y-128571860D01*
X68699000Y-126758140D01*
X68701764Y-126730072D01*
X68708160Y-126708991D01*
X68718548Y-126689555D01*
X68732524Y-126672524D01*
X68749555Y-126658548D01*
X68768991Y-126648160D01*
X68790072Y-126641764D01*
X68818140Y-126639000D01*
X69281860Y-126639000D01*
X69309928Y-126641764D01*
G37*
G36*
X68039928Y-126641764D02*
G01*
X68061009Y-126648160D01*
X68080445Y-126658548D01*
X68097476Y-126672524D01*
X68111452Y-126689555D01*
X68121840Y-126708991D01*
X68128236Y-126730072D01*
X68131000Y-126758140D01*
X68131000Y-128571860D01*
X68128236Y-128599928D01*
X68121840Y-128621009D01*
X68111452Y-128640445D01*
X68097476Y-128657476D01*
X68080445Y-128671452D01*
X68061009Y-128681840D01*
X68039928Y-128688236D01*
X68011860Y-128691000D01*
X67548140Y-128691000D01*
X67520072Y-128688236D01*
X67498991Y-128681840D01*
X67479555Y-128671452D01*
X67462524Y-128657476D01*
X67448548Y-128640445D01*
X67438160Y-128621009D01*
X67431764Y-128599928D01*
X67429000Y-128571860D01*
X67429000Y-126758140D01*
X67431764Y-126730072D01*
X67438160Y-126708991D01*
X67448548Y-126689555D01*
X67462524Y-126672524D01*
X67479555Y-126658548D01*
X67498991Y-126648160D01*
X67520072Y-126641764D01*
X67548140Y-126639000D01*
X68011860Y-126639000D01*
X68039928Y-126641764D01*
G37*
G36*
X66769928Y-126641764D02*
G01*
X66791009Y-126648160D01*
X66810445Y-126658548D01*
X66827476Y-126672524D01*
X66841452Y-126689555D01*
X66851840Y-126708991D01*
X66858236Y-126730072D01*
X66861000Y-126758140D01*
X66861000Y-128571860D01*
X66858236Y-128599928D01*
X66851840Y-128621009D01*
X66841452Y-128640445D01*
X66827476Y-128657476D01*
X66810445Y-128671452D01*
X66791009Y-128681840D01*
X66769928Y-128688236D01*
X66741860Y-128691000D01*
X66278140Y-128691000D01*
X66250072Y-128688236D01*
X66228991Y-128681840D01*
X66209555Y-128671452D01*
X66192524Y-128657476D01*
X66178548Y-128640445D01*
X66168160Y-128621009D01*
X66161764Y-128599928D01*
X66159000Y-128571860D01*
X66159000Y-126758140D01*
X66161764Y-126730072D01*
X66168160Y-126708991D01*
X66178548Y-126689555D01*
X66192524Y-126672524D01*
X66209555Y-126658548D01*
X66228991Y-126648160D01*
X66250072Y-126641764D01*
X66278140Y-126639000D01*
X66741860Y-126639000D01*
X66769928Y-126641764D01*
G37*
G36*
X64229928Y-126641764D02*
G01*
X64251009Y-126648160D01*
X64270445Y-126658548D01*
X64287476Y-126672524D01*
X64301452Y-126689555D01*
X64311840Y-126708991D01*
X64318236Y-126730072D01*
X64321000Y-126758140D01*
X64321000Y-128571860D01*
X64318236Y-128599928D01*
X64311840Y-128621009D01*
X64301452Y-128640445D01*
X64287476Y-128657476D01*
X64270445Y-128671452D01*
X64251009Y-128681840D01*
X64229928Y-128688236D01*
X64201860Y-128691000D01*
X63738140Y-128691000D01*
X63710072Y-128688236D01*
X63688991Y-128681840D01*
X63669555Y-128671452D01*
X63652524Y-128657476D01*
X63638548Y-128640445D01*
X63628160Y-128621009D01*
X63621764Y-128599928D01*
X63619000Y-128571860D01*
X63619000Y-126758140D01*
X63621764Y-126730072D01*
X63628160Y-126708991D01*
X63638548Y-126689555D01*
X63652524Y-126672524D01*
X63669555Y-126658548D01*
X63688991Y-126648160D01*
X63710072Y-126641764D01*
X63738140Y-126639000D01*
X64201860Y-126639000D01*
X64229928Y-126641764D01*
G37*
G36*
X62959928Y-126641764D02*
G01*
X62981009Y-126648160D01*
X63000445Y-126658548D01*
X63017476Y-126672524D01*
X63031452Y-126689555D01*
X63041840Y-126708991D01*
X63048236Y-126730072D01*
X63051000Y-126758140D01*
X63051000Y-128571860D01*
X63048236Y-128599928D01*
X63041840Y-128621009D01*
X63031452Y-128640445D01*
X63017476Y-128657476D01*
X63000445Y-128671452D01*
X62981009Y-128681840D01*
X62959928Y-128688236D01*
X62931860Y-128691000D01*
X62468140Y-128691000D01*
X62440072Y-128688236D01*
X62418991Y-128681840D01*
X62399555Y-128671452D01*
X62382524Y-128657476D01*
X62368548Y-128640445D01*
X62358160Y-128621009D01*
X62351764Y-128599928D01*
X62349000Y-128571860D01*
X62349000Y-126758140D01*
X62351764Y-126730072D01*
X62358160Y-126708991D01*
X62368548Y-126689555D01*
X62382524Y-126672524D01*
X62399555Y-126658548D01*
X62418991Y-126648160D01*
X62440072Y-126641764D01*
X62468140Y-126639000D01*
X62931860Y-126639000D01*
X62959928Y-126641764D01*
G37*
G36*
X61689928Y-126641764D02*
G01*
X61711009Y-126648160D01*
X61730445Y-126658548D01*
X61747476Y-126672524D01*
X61761452Y-126689555D01*
X61771840Y-126708991D01*
X61778236Y-126730072D01*
X61781000Y-126758140D01*
X61781000Y-128571860D01*
X61778236Y-128599928D01*
X61771840Y-128621009D01*
X61761452Y-128640445D01*
X61747476Y-128657476D01*
X61730445Y-128671452D01*
X61711009Y-128681840D01*
X61689928Y-128688236D01*
X61661860Y-128691000D01*
X61198140Y-128691000D01*
X61170072Y-128688236D01*
X61148991Y-128681840D01*
X61129555Y-128671452D01*
X61112524Y-128657476D01*
X61098548Y-128640445D01*
X61088160Y-128621009D01*
X61081764Y-128599928D01*
X61079000Y-128571860D01*
X61079000Y-126758140D01*
X61081764Y-126730072D01*
X61088160Y-126708991D01*
X61098548Y-126689555D01*
X61112524Y-126672524D01*
X61129555Y-126658548D01*
X61148991Y-126648160D01*
X61170072Y-126641764D01*
X61198140Y-126639000D01*
X61661860Y-126639000D01*
X61689928Y-126641764D01*
G37*
G36*
X98900928Y-125625764D02*
G01*
X98922009Y-125632160D01*
X98941445Y-125642548D01*
X98958476Y-125656524D01*
X98972452Y-125673555D01*
X98982840Y-125692991D01*
X98989236Y-125714072D01*
X98992000Y-125742140D01*
X98992000Y-127555860D01*
X98989236Y-127583928D01*
X98982840Y-127605009D01*
X98972452Y-127624445D01*
X98958476Y-127641476D01*
X98941445Y-127655452D01*
X98922009Y-127665840D01*
X98900928Y-127672236D01*
X98872860Y-127675000D01*
X98409140Y-127675000D01*
X98381072Y-127672236D01*
X98359991Y-127665840D01*
X98340555Y-127655452D01*
X98323524Y-127641476D01*
X98309548Y-127624445D01*
X98299160Y-127605009D01*
X98292764Y-127583928D01*
X98290000Y-127555860D01*
X98290000Y-125742140D01*
X98292764Y-125714072D01*
X98299160Y-125692991D01*
X98309548Y-125673555D01*
X98323524Y-125656524D01*
X98340555Y-125642548D01*
X98359991Y-125632160D01*
X98381072Y-125625764D01*
X98409140Y-125623000D01*
X98872860Y-125623000D01*
X98900928Y-125625764D01*
G37*
G36*
X101440928Y-125625764D02*
G01*
X101462009Y-125632160D01*
X101481445Y-125642548D01*
X101498476Y-125656524D01*
X101512452Y-125673555D01*
X101522840Y-125692991D01*
X101529236Y-125714072D01*
X101532000Y-125742140D01*
X101532000Y-127555860D01*
X101529236Y-127583928D01*
X101522840Y-127605009D01*
X101512452Y-127624445D01*
X101498476Y-127641476D01*
X101481445Y-127655452D01*
X101462009Y-127665840D01*
X101440928Y-127672236D01*
X101412860Y-127675000D01*
X100949140Y-127675000D01*
X100921072Y-127672236D01*
X100899991Y-127665840D01*
X100880555Y-127655452D01*
X100863524Y-127641476D01*
X100849548Y-127624445D01*
X100839160Y-127605009D01*
X100832764Y-127583928D01*
X100830000Y-127555860D01*
X100830000Y-125742140D01*
X100832764Y-125714072D01*
X100839160Y-125692991D01*
X100849548Y-125673555D01*
X100863524Y-125656524D01*
X100880555Y-125642548D01*
X100899991Y-125632160D01*
X100921072Y-125625764D01*
X100949140Y-125623000D01*
X101412860Y-125623000D01*
X101440928Y-125625764D01*
G37*
G36*
X100170928Y-125625764D02*
G01*
X100192009Y-125632160D01*
X100211445Y-125642548D01*
X100228476Y-125656524D01*
X100242452Y-125673555D01*
X100252840Y-125692991D01*
X100259236Y-125714072D01*
X100262000Y-125742140D01*
X100262000Y-127555860D01*
X100259236Y-127583928D01*
X100252840Y-127605009D01*
X100242452Y-127624445D01*
X100228476Y-127641476D01*
X100211445Y-127655452D01*
X100192009Y-127665840D01*
X100170928Y-127672236D01*
X100142860Y-127675000D01*
X99679140Y-127675000D01*
X99651072Y-127672236D01*
X99629991Y-127665840D01*
X99610555Y-127655452D01*
X99593524Y-127641476D01*
X99579548Y-127624445D01*
X99569160Y-127605009D01*
X99562764Y-127583928D01*
X99560000Y-127555860D01*
X99560000Y-125742140D01*
X99562764Y-125714072D01*
X99569160Y-125692991D01*
X99579548Y-125673555D01*
X99593524Y-125656524D01*
X99610555Y-125642548D01*
X99629991Y-125632160D01*
X99651072Y-125625764D01*
X99679140Y-125623000D01*
X100142860Y-125623000D01*
X100170928Y-125625764D01*
G37*
G36*
X97630928Y-125625764D02*
G01*
X97652009Y-125632160D01*
X97671445Y-125642548D01*
X97688476Y-125656524D01*
X97702452Y-125673555D01*
X97712840Y-125692991D01*
X97719236Y-125714072D01*
X97722000Y-125742140D01*
X97722000Y-127555860D01*
X97719236Y-127583928D01*
X97712840Y-127605009D01*
X97702452Y-127624445D01*
X97688476Y-127641476D01*
X97671445Y-127655452D01*
X97652009Y-127665840D01*
X97630928Y-127672236D01*
X97602860Y-127675000D01*
X97139140Y-127675000D01*
X97111072Y-127672236D01*
X97089991Y-127665840D01*
X97070555Y-127655452D01*
X97053524Y-127641476D01*
X97039548Y-127624445D01*
X97029160Y-127605009D01*
X97022764Y-127583928D01*
X97020000Y-127555860D01*
X97020000Y-125742140D01*
X97022764Y-125714072D01*
X97029160Y-125692991D01*
X97039548Y-125673555D01*
X97053524Y-125656524D01*
X97070555Y-125642548D01*
X97089991Y-125632160D01*
X97111072Y-125625764D01*
X97139140Y-125623000D01*
X97602860Y-125623000D01*
X97630928Y-125625764D01*
G37*
G36*
X145890585Y-123558802D02*
G01*
X146040410Y-123588604D01*
X146322674Y-123705521D01*
X146576705Y-123875259D01*
X146792741Y-124091295D01*
X146962479Y-124345326D01*
X147079396Y-124627590D01*
X147139000Y-124927240D01*
X147139000Y-125232760D01*
X147079396Y-125532410D01*
X146962479Y-125814674D01*
X146792741Y-126068705D01*
X146576705Y-126284741D01*
X146322674Y-126454479D01*
X146040410Y-126571396D01*
X145890585Y-126601198D01*
X145740761Y-126631000D01*
X145435239Y-126631000D01*
X145285415Y-126601198D01*
X145135590Y-126571396D01*
X144853326Y-126454479D01*
X144599295Y-126284741D01*
X144383259Y-126068705D01*
X144213521Y-125814674D01*
X144096604Y-125532410D01*
X144037000Y-125232760D01*
X144037000Y-124927240D01*
X144096604Y-124627590D01*
X144213521Y-124345326D01*
X144383259Y-124091295D01*
X144599295Y-123875259D01*
X144853326Y-123705521D01*
X145135590Y-123588604D01*
X145285415Y-123558802D01*
X145435239Y-123529000D01*
X145740761Y-123529000D01*
X145890585Y-123558802D01*
G37*
G36*
X68555562Y-123248181D02*
G01*
X68590481Y-123258774D01*
X68622663Y-123275976D01*
X68650873Y-123299127D01*
X68674024Y-123327337D01*
X68691226Y-123359519D01*
X68701819Y-123394438D01*
X68706000Y-123436895D01*
X68706000Y-124578105D01*
X68701819Y-124620562D01*
X68691226Y-124655481D01*
X68674024Y-124687663D01*
X68650873Y-124715873D01*
X68622663Y-124739024D01*
X68590481Y-124756226D01*
X68555562Y-124766819D01*
X68513105Y-124771000D01*
X67046895Y-124771000D01*
X67004438Y-124766819D01*
X66969519Y-124756226D01*
X66937337Y-124739024D01*
X66909127Y-124715873D01*
X66885976Y-124687663D01*
X66868774Y-124655481D01*
X66858181Y-124620562D01*
X66854000Y-124578105D01*
X66854000Y-123436895D01*
X66858181Y-123394438D01*
X66868774Y-123359519D01*
X66885976Y-123327337D01*
X66909127Y-123299127D01*
X66937337Y-123275976D01*
X66969519Y-123258774D01*
X67004438Y-123248181D01*
X67046895Y-123244000D01*
X68513105Y-123244000D01*
X68555562Y-123248181D01*
G37*
G36*
X80956000Y-124051000D02*
G01*
X80154000Y-124051000D01*
X80154000Y-122249000D01*
X80956000Y-122249000D01*
X80956000Y-124051000D01*
G37*
G36*
X82226000Y-124051000D02*
G01*
X81424000Y-124051000D01*
X81424000Y-122249000D01*
X82226000Y-122249000D01*
X82226000Y-124051000D01*
G37*
G36*
X91116000Y-124051000D02*
G01*
X90314000Y-124051000D01*
X90314000Y-122249000D01*
X91116000Y-122249000D01*
X91116000Y-124051000D01*
G37*
G36*
X89846000Y-124051000D02*
G01*
X89044000Y-124051000D01*
X89044000Y-122249000D01*
X89846000Y-122249000D01*
X89846000Y-124051000D01*
G37*
G36*
X88576000Y-124051000D02*
G01*
X87774000Y-124051000D01*
X87774000Y-122249000D01*
X88576000Y-122249000D01*
X88576000Y-124051000D01*
G37*
G36*
X87306000Y-124051000D02*
G01*
X86504000Y-124051000D01*
X86504000Y-122249000D01*
X87306000Y-122249000D01*
X87306000Y-124051000D01*
G37*
G36*
X86036000Y-124051000D02*
G01*
X85234000Y-124051000D01*
X85234000Y-122249000D01*
X86036000Y-122249000D01*
X86036000Y-124051000D01*
G37*
G36*
X84766000Y-124051000D02*
G01*
X83964000Y-124051000D01*
X83964000Y-122249000D01*
X84766000Y-122249000D01*
X84766000Y-124051000D01*
G37*
G36*
X83496000Y-124051000D02*
G01*
X82694000Y-124051000D01*
X82694000Y-122249000D01*
X83496000Y-122249000D01*
X83496000Y-124051000D01*
G37*
G36*
X79686000Y-124051000D02*
G01*
X78884000Y-124051000D01*
X78884000Y-122249000D01*
X79686000Y-122249000D01*
X79686000Y-124051000D01*
G37*
G36*
X122453000Y-123471000D02*
G01*
X118851000Y-123471000D01*
X118851000Y-121569000D01*
X122453000Y-121569000D01*
X122453000Y-123471000D01*
G37*
G36*
X127453000Y-123471000D02*
G01*
X123851000Y-123471000D01*
X123851000Y-121569000D01*
X127453000Y-121569000D01*
X127453000Y-123471000D01*
G37*
G36*
X132105000Y-123471000D02*
G01*
X128503000Y-123471000D01*
X128503000Y-121569000D01*
X132105000Y-121569000D01*
X132105000Y-123471000D01*
G37*
G36*
X137105000Y-123471000D02*
G01*
X133503000Y-123471000D01*
X133503000Y-121569000D01*
X137105000Y-121569000D01*
X137105000Y-123471000D01*
G37*
G36*
X108815562Y-121598181D02*
G01*
X108850481Y-121608774D01*
X108882663Y-121625976D01*
X108910873Y-121649127D01*
X108934024Y-121677337D01*
X108951226Y-121709519D01*
X108961819Y-121744438D01*
X108966000Y-121786895D01*
X108966000Y-123253105D01*
X108961819Y-123295562D01*
X108951226Y-123330481D01*
X108934024Y-123362663D01*
X108910873Y-123390873D01*
X108882663Y-123414024D01*
X108850481Y-123431226D01*
X108815562Y-123441819D01*
X108773105Y-123446000D01*
X107631895Y-123446000D01*
X107589438Y-123441819D01*
X107554519Y-123431226D01*
X107522337Y-123414024D01*
X107494127Y-123390873D01*
X107470976Y-123362663D01*
X107453774Y-123330481D01*
X107443181Y-123295562D01*
X107439000Y-123253105D01*
X107439000Y-121786895D01*
X107443181Y-121744438D01*
X107453774Y-121709519D01*
X107470976Y-121677337D01*
X107494127Y-121649127D01*
X107522337Y-121625976D01*
X107554519Y-121608774D01*
X107589438Y-121598181D01*
X107631895Y-121594000D01*
X108773105Y-121594000D01*
X108815562Y-121598181D01*
G37*
G36*
X117378562Y-121598181D02*
G01*
X117413481Y-121608774D01*
X117445663Y-121625976D01*
X117473873Y-121649127D01*
X117497024Y-121677337D01*
X117514226Y-121709519D01*
X117524819Y-121744438D01*
X117529000Y-121786895D01*
X117529000Y-123253105D01*
X117524819Y-123295562D01*
X117514226Y-123330481D01*
X117497024Y-123362663D01*
X117473873Y-123390873D01*
X117445663Y-123414024D01*
X117413481Y-123431226D01*
X117378562Y-123441819D01*
X117336105Y-123446000D01*
X116194895Y-123446000D01*
X116152438Y-123441819D01*
X116117519Y-123431226D01*
X116085337Y-123414024D01*
X116057127Y-123390873D01*
X116033976Y-123362663D01*
X116016774Y-123330481D01*
X116006181Y-123295562D01*
X116002000Y-123253105D01*
X116002000Y-121786895D01*
X116006181Y-121744438D01*
X116016774Y-121709519D01*
X116033976Y-121677337D01*
X116057127Y-121649127D01*
X116085337Y-121625976D01*
X116117519Y-121608774D01*
X116152438Y-121598181D01*
X116194895Y-121594000D01*
X117336105Y-121594000D01*
X117378562Y-121598181D01*
G37*
G36*
X111790562Y-121598181D02*
G01*
X111825481Y-121608774D01*
X111857663Y-121625976D01*
X111885873Y-121649127D01*
X111909024Y-121677337D01*
X111926226Y-121709519D01*
X111936819Y-121744438D01*
X111941000Y-121786895D01*
X111941000Y-123253105D01*
X111936819Y-123295562D01*
X111926226Y-123330481D01*
X111909024Y-123362663D01*
X111885873Y-123390873D01*
X111857663Y-123414024D01*
X111825481Y-123431226D01*
X111790562Y-123441819D01*
X111748105Y-123446000D01*
X110606895Y-123446000D01*
X110564438Y-123441819D01*
X110529519Y-123431226D01*
X110497337Y-123414024D01*
X110469127Y-123390873D01*
X110445976Y-123362663D01*
X110428774Y-123330481D01*
X110418181Y-123295562D01*
X110414000Y-123253105D01*
X110414000Y-121786895D01*
X110418181Y-121744438D01*
X110428774Y-121709519D01*
X110445976Y-121677337D01*
X110469127Y-121649127D01*
X110497337Y-121625976D01*
X110529519Y-121608774D01*
X110564438Y-121598181D01*
X110606895Y-121594000D01*
X111748105Y-121594000D01*
X111790562Y-121598181D01*
G37*
G36*
X114403562Y-121598181D02*
G01*
X114438481Y-121608774D01*
X114470663Y-121625976D01*
X114498873Y-121649127D01*
X114522024Y-121677337D01*
X114539226Y-121709519D01*
X114549819Y-121744438D01*
X114554000Y-121786895D01*
X114554000Y-123253105D01*
X114549819Y-123295562D01*
X114539226Y-123330481D01*
X114522024Y-123362663D01*
X114498873Y-123390873D01*
X114470663Y-123414024D01*
X114438481Y-123431226D01*
X114403562Y-123441819D01*
X114361105Y-123446000D01*
X113219895Y-123446000D01*
X113177438Y-123441819D01*
X113142519Y-123431226D01*
X113110337Y-123414024D01*
X113082127Y-123390873D01*
X113058976Y-123362663D01*
X113041774Y-123330481D01*
X113031181Y-123295562D01*
X113027000Y-123253105D01*
X113027000Y-121786895D01*
X113031181Y-121744438D01*
X113041774Y-121709519D01*
X113058976Y-121677337D01*
X113082127Y-121649127D01*
X113110337Y-121625976D01*
X113142519Y-121608774D01*
X113177438Y-121598181D01*
X113219895Y-121594000D01*
X114361105Y-121594000D01*
X114403562Y-121598181D01*
G37*
G36*
X102646562Y-120836181D02*
G01*
X102681481Y-120846774D01*
X102713663Y-120863976D01*
X102741873Y-120887127D01*
X102765024Y-120915337D01*
X102782226Y-120947519D01*
X102792819Y-120982438D01*
X102797000Y-121024895D01*
X102797000Y-122491105D01*
X102792819Y-122533562D01*
X102782226Y-122568481D01*
X102765024Y-122600663D01*
X102741873Y-122628873D01*
X102713663Y-122652024D01*
X102681481Y-122669226D01*
X102646562Y-122679819D01*
X102604105Y-122684000D01*
X101462895Y-122684000D01*
X101420438Y-122679819D01*
X101385519Y-122669226D01*
X101353337Y-122652024D01*
X101325127Y-122628873D01*
X101301976Y-122600663D01*
X101284774Y-122568481D01*
X101274181Y-122533562D01*
X101270000Y-122491105D01*
X101270000Y-121024895D01*
X101274181Y-120982438D01*
X101284774Y-120947519D01*
X101301976Y-120915337D01*
X101325127Y-120887127D01*
X101353337Y-120863976D01*
X101385519Y-120846774D01*
X101420438Y-120836181D01*
X101462895Y-120832000D01*
X102604105Y-120832000D01*
X102646562Y-120836181D01*
G37*
G36*
X99671562Y-120836181D02*
G01*
X99706481Y-120846774D01*
X99738663Y-120863976D01*
X99766873Y-120887127D01*
X99790024Y-120915337D01*
X99807226Y-120947519D01*
X99817819Y-120982438D01*
X99822000Y-121024895D01*
X99822000Y-122491105D01*
X99817819Y-122533562D01*
X99807226Y-122568481D01*
X99790024Y-122600663D01*
X99766873Y-122628873D01*
X99738663Y-122652024D01*
X99706481Y-122669226D01*
X99671562Y-122679819D01*
X99629105Y-122684000D01*
X98487895Y-122684000D01*
X98445438Y-122679819D01*
X98410519Y-122669226D01*
X98378337Y-122652024D01*
X98350127Y-122628873D01*
X98326976Y-122600663D01*
X98309774Y-122568481D01*
X98299181Y-122533562D01*
X98295000Y-122491105D01*
X98295000Y-121024895D01*
X98299181Y-120982438D01*
X98309774Y-120947519D01*
X98326976Y-120915337D01*
X98350127Y-120887127D01*
X98378337Y-120863976D01*
X98410519Y-120846774D01*
X98445438Y-120836181D01*
X98487895Y-120832000D01*
X99629105Y-120832000D01*
X99671562Y-120836181D01*
G37*
G36*
X68555562Y-120273181D02*
G01*
X68590481Y-120283774D01*
X68622663Y-120300976D01*
X68650873Y-120324127D01*
X68674024Y-120352337D01*
X68691226Y-120384519D01*
X68701819Y-120419438D01*
X68706000Y-120461895D01*
X68706000Y-121603105D01*
X68701819Y-121645562D01*
X68691226Y-121680481D01*
X68674024Y-121712663D01*
X68650873Y-121740873D01*
X68622663Y-121764024D01*
X68590481Y-121781226D01*
X68555562Y-121791819D01*
X68513105Y-121796000D01*
X67046895Y-121796000D01*
X67004438Y-121791819D01*
X66969519Y-121781226D01*
X66937337Y-121764024D01*
X66909127Y-121740873D01*
X66885976Y-121712663D01*
X66868774Y-121680481D01*
X66858181Y-121645562D01*
X66854000Y-121603105D01*
X66854000Y-120461895D01*
X66858181Y-120419438D01*
X66868774Y-120384519D01*
X66885976Y-120352337D01*
X66909127Y-120324127D01*
X66937337Y-120300976D01*
X66969519Y-120283774D01*
X67004438Y-120273181D01*
X67046895Y-120269000D01*
X68513105Y-120269000D01*
X68555562Y-120273181D01*
G37*
G36*
X147139000Y-121551000D02*
G01*
X144037000Y-121551000D01*
X144037000Y-118449000D01*
X147139000Y-118449000D01*
X147139000Y-121551000D01*
G37*
G36*
X62126366Y-117915695D02*
G01*
X62283460Y-117963349D01*
X62428231Y-118040731D01*
X62555128Y-118144872D01*
X62659269Y-118271769D01*
X62736651Y-118416540D01*
X62784305Y-118573634D01*
X62801000Y-118743140D01*
X62801000Y-120656860D01*
X62784305Y-120826366D01*
X62736651Y-120983460D01*
X62659269Y-121128231D01*
X62555128Y-121255128D01*
X62428231Y-121359269D01*
X62283460Y-121436651D01*
X62126366Y-121484305D01*
X61956860Y-121501000D01*
X60043140Y-121501000D01*
X59873634Y-121484305D01*
X59716540Y-121436651D01*
X59571769Y-121359269D01*
X59444872Y-121255128D01*
X59340731Y-121128231D01*
X59263349Y-120983460D01*
X59215695Y-120826366D01*
X59199000Y-120656860D01*
X59199000Y-118743140D01*
X59215695Y-118573634D01*
X59263349Y-118416540D01*
X59340731Y-118271769D01*
X59444872Y-118144872D01*
X59571769Y-118040731D01*
X59716540Y-117963349D01*
X59873634Y-117915695D01*
X60043140Y-117899000D01*
X61956860Y-117899000D01*
X62126366Y-117915695D01*
G37*
G36*
X92994562Y-119058181D02*
G01*
X93029481Y-119068774D01*
X93061663Y-119085976D01*
X93089873Y-119109127D01*
X93113024Y-119137337D01*
X93130226Y-119169519D01*
X93140819Y-119204438D01*
X93145000Y-119246895D01*
X93145000Y-120713105D01*
X93140819Y-120755562D01*
X93130226Y-120790481D01*
X93113024Y-120822663D01*
X93089873Y-120850873D01*
X93061663Y-120874024D01*
X93029481Y-120891226D01*
X92994562Y-120901819D01*
X92952105Y-120906000D01*
X91810895Y-120906000D01*
X91768438Y-120901819D01*
X91733519Y-120891226D01*
X91701337Y-120874024D01*
X91673127Y-120850873D01*
X91649976Y-120822663D01*
X91632774Y-120790481D01*
X91622181Y-120755562D01*
X91618000Y-120713105D01*
X91618000Y-119246895D01*
X91622181Y-119204438D01*
X91632774Y-119169519D01*
X91649976Y-119137337D01*
X91673127Y-119109127D01*
X91701337Y-119085976D01*
X91733519Y-119068774D01*
X91768438Y-119058181D01*
X91810895Y-119054000D01*
X92952105Y-119054000D01*
X92994562Y-119058181D01*
G37*
G36*
X90019562Y-119058181D02*
G01*
X90054481Y-119068774D01*
X90086663Y-119085976D01*
X90114873Y-119109127D01*
X90138024Y-119137337D01*
X90155226Y-119169519D01*
X90165819Y-119204438D01*
X90170000Y-119246895D01*
X90170000Y-120713105D01*
X90165819Y-120755562D01*
X90155226Y-120790481D01*
X90138024Y-120822663D01*
X90114873Y-120850873D01*
X90086663Y-120874024D01*
X90054481Y-120891226D01*
X90019562Y-120901819D01*
X89977105Y-120906000D01*
X88835895Y-120906000D01*
X88793438Y-120901819D01*
X88758519Y-120891226D01*
X88726337Y-120874024D01*
X88698127Y-120850873D01*
X88674976Y-120822663D01*
X88657774Y-120790481D01*
X88647181Y-120755562D01*
X88643000Y-120713105D01*
X88643000Y-119246895D01*
X88647181Y-119204438D01*
X88657774Y-119169519D01*
X88674976Y-119137337D01*
X88698127Y-119109127D01*
X88726337Y-119085976D01*
X88758519Y-119068774D01*
X88793438Y-119058181D01*
X88835895Y-119054000D01*
X89977105Y-119054000D01*
X90019562Y-119058181D01*
G37*
G36*
X102646562Y-118550181D02*
G01*
X102681481Y-118560774D01*
X102713663Y-118577976D01*
X102741873Y-118601127D01*
X102765024Y-118629337D01*
X102782226Y-118661519D01*
X102792819Y-118696438D01*
X102797000Y-118738895D01*
X102797000Y-120205105D01*
X102792819Y-120247562D01*
X102782226Y-120282481D01*
X102765024Y-120314663D01*
X102741873Y-120342873D01*
X102713663Y-120366024D01*
X102681481Y-120383226D01*
X102646562Y-120393819D01*
X102604105Y-120398000D01*
X101462895Y-120398000D01*
X101420438Y-120393819D01*
X101385519Y-120383226D01*
X101353337Y-120366024D01*
X101325127Y-120342873D01*
X101301976Y-120314663D01*
X101284774Y-120282481D01*
X101274181Y-120247562D01*
X101270000Y-120205105D01*
X101270000Y-118738895D01*
X101274181Y-118696438D01*
X101284774Y-118661519D01*
X101301976Y-118629337D01*
X101325127Y-118601127D01*
X101353337Y-118577976D01*
X101385519Y-118560774D01*
X101420438Y-118550181D01*
X101462895Y-118546000D01*
X102604105Y-118546000D01*
X102646562Y-118550181D01*
G37*
G36*
X99671562Y-118550181D02*
G01*
X99706481Y-118560774D01*
X99738663Y-118577976D01*
X99766873Y-118601127D01*
X99790024Y-118629337D01*
X99807226Y-118661519D01*
X99817819Y-118696438D01*
X99822000Y-118738895D01*
X99822000Y-120205105D01*
X99817819Y-120247562D01*
X99807226Y-120282481D01*
X99790024Y-120314663D01*
X99766873Y-120342873D01*
X99738663Y-120366024D01*
X99706481Y-120383226D01*
X99671562Y-120393819D01*
X99629105Y-120398000D01*
X98487895Y-120398000D01*
X98445438Y-120393819D01*
X98410519Y-120383226D01*
X98378337Y-120366024D01*
X98350127Y-120342873D01*
X98326976Y-120314663D01*
X98309774Y-120282481D01*
X98299181Y-120247562D01*
X98295000Y-120205105D01*
X98295000Y-118738895D01*
X98299181Y-118696438D01*
X98309774Y-118661519D01*
X98326976Y-118629337D01*
X98350127Y-118601127D01*
X98378337Y-118577976D01*
X98410519Y-118560774D01*
X98445438Y-118550181D01*
X98487895Y-118546000D01*
X99629105Y-118546000D01*
X99671562Y-118550181D01*
G37*
G36*
X65801000Y-116801000D02*
G01*
X62199000Y-116801000D01*
X62199000Y-113199000D01*
X65801000Y-113199000D01*
X65801000Y-116801000D01*
G37*
G36*
X58976979Y-113213293D02*
G01*
X59110625Y-113253834D01*
X59233784Y-113319664D01*
X59341740Y-113408260D01*
X59430336Y-113516216D01*
X59496166Y-113639375D01*
X59536707Y-113773021D01*
X59551000Y-113918140D01*
X59551000Y-116081860D01*
X59536707Y-116226979D01*
X59496166Y-116360625D01*
X59430336Y-116483784D01*
X59341740Y-116591740D01*
X59233784Y-116680336D01*
X59110625Y-116746166D01*
X58976979Y-116786707D01*
X58831860Y-116801000D01*
X57168140Y-116801000D01*
X57023021Y-116786707D01*
X56889375Y-116746166D01*
X56766216Y-116680336D01*
X56658260Y-116591740D01*
X56569664Y-116483784D01*
X56503834Y-116360625D01*
X56463293Y-116226979D01*
X56449000Y-116081860D01*
X56449000Y-113918140D01*
X56463293Y-113773021D01*
X56503834Y-113639375D01*
X56569664Y-113516216D01*
X56658260Y-113408260D01*
X56766216Y-113319664D01*
X56889375Y-113253834D01*
X57023021Y-113213293D01*
X57168140Y-113199000D01*
X58831860Y-113199000D01*
X58976979Y-113213293D01*
G37*
G36*
X124176199Y-111715954D02*
G01*
X124188450Y-111716556D01*
X124206869Y-111716556D01*
X124229149Y-111718750D01*
X124313233Y-111735476D01*
X124334660Y-111741976D01*
X124413858Y-111774780D01*
X124419303Y-111777691D01*
X124419309Y-111777693D01*
X124428169Y-111782429D01*
X124428173Y-111782432D01*
X124433614Y-111785340D01*
X124504899Y-111832971D01*
X124522204Y-111847172D01*
X124582828Y-111907796D01*
X124597029Y-111925101D01*
X124644660Y-111996386D01*
X124647568Y-112001827D01*
X124647571Y-112001831D01*
X124652307Y-112010691D01*
X124652309Y-112010697D01*
X124655220Y-112016142D01*
X124688024Y-112095340D01*
X124694524Y-112116767D01*
X124711250Y-112200851D01*
X124713444Y-112223131D01*
X124713444Y-112241550D01*
X124714046Y-112253801D01*
X124715852Y-112272139D01*
X124715852Y-112759860D01*
X124714263Y-112775999D01*
X124711348Y-112785608D01*
X124706610Y-112794472D01*
X124700237Y-112802237D01*
X124687794Y-112812448D01*
X124677425Y-112819378D01*
X124660098Y-112836705D01*
X124646485Y-112857080D01*
X124637109Y-112879720D01*
X124632329Y-112903753D01*
X124632330Y-112928257D01*
X124637112Y-112952290D01*
X124646490Y-112974929D01*
X124660105Y-112995302D01*
X124677432Y-113012629D01*
X124687802Y-113019558D01*
X124700237Y-113029763D01*
X124706610Y-113037528D01*
X124711348Y-113046392D01*
X124714263Y-113056001D01*
X124715852Y-113072140D01*
X124715852Y-113559862D01*
X124714046Y-113578199D01*
X124713444Y-113590450D01*
X124713444Y-113608869D01*
X124711250Y-113631149D01*
X124694524Y-113715233D01*
X124688024Y-113736660D01*
X124655220Y-113815858D01*
X124652309Y-113821303D01*
X124652307Y-113821309D01*
X124647571Y-113830169D01*
X124647568Y-113830173D01*
X124644660Y-113835614D01*
X124597029Y-113906899D01*
X124582828Y-113924204D01*
X124522204Y-113984828D01*
X124504899Y-113999029D01*
X124433614Y-114046660D01*
X124428173Y-114049568D01*
X124428169Y-114049571D01*
X124419309Y-114054307D01*
X124419303Y-114054309D01*
X124413858Y-114057220D01*
X124334660Y-114090024D01*
X124313233Y-114096524D01*
X124229149Y-114113250D01*
X124206869Y-114115444D01*
X124188450Y-114115444D01*
X124176199Y-114116046D01*
X124157862Y-114117852D01*
X123670138Y-114117852D01*
X123651801Y-114116046D01*
X123639550Y-114115444D01*
X123621131Y-114115444D01*
X123598851Y-114113250D01*
X123514767Y-114096524D01*
X123493340Y-114090024D01*
X123414142Y-114057220D01*
X123408697Y-114054309D01*
X123408691Y-114054307D01*
X123399831Y-114049571D01*
X123399827Y-114049568D01*
X123394386Y-114046660D01*
X123323101Y-113999029D01*
X123305796Y-113984828D01*
X123245172Y-113924204D01*
X123230971Y-113906899D01*
X123183340Y-113835614D01*
X123180432Y-113830173D01*
X123180429Y-113830169D01*
X123175693Y-113821309D01*
X123175691Y-113821303D01*
X123172780Y-113815858D01*
X123139976Y-113736660D01*
X123133476Y-113715233D01*
X123116750Y-113631149D01*
X123114556Y-113608869D01*
X123114556Y-113590450D01*
X123113954Y-113578199D01*
X123112148Y-113559862D01*
X123112148Y-113072140D01*
X123113737Y-113056001D01*
X123116652Y-113046392D01*
X123121390Y-113037528D01*
X123127763Y-113029763D01*
X123140206Y-113019552D01*
X123150575Y-113012622D01*
X123167902Y-112995295D01*
X123181515Y-112974920D01*
X123190891Y-112952280D01*
X123195671Y-112928247D01*
X123195670Y-112903743D01*
X123190888Y-112879710D01*
X123181510Y-112857071D01*
X123167895Y-112836698D01*
X123150568Y-112819371D01*
X123140198Y-112812442D01*
X123127763Y-112802237D01*
X123121390Y-112794472D01*
X123116652Y-112785608D01*
X123113737Y-112775999D01*
X123112148Y-112759860D01*
X123112148Y-112272139D01*
X123113954Y-112253801D01*
X123114556Y-112241550D01*
X123114556Y-112223131D01*
X123116750Y-112200851D01*
X123133476Y-112116767D01*
X123139976Y-112095340D01*
X123172780Y-112016142D01*
X123175691Y-112010697D01*
X123175693Y-112010691D01*
X123180429Y-112001831D01*
X123180432Y-112001827D01*
X123183340Y-111996386D01*
X123230971Y-111925101D01*
X123245172Y-111907796D01*
X123305796Y-111847172D01*
X123323101Y-111832971D01*
X123394386Y-111785340D01*
X123399827Y-111782432D01*
X123399831Y-111782429D01*
X123408691Y-111777693D01*
X123408697Y-111777691D01*
X123414142Y-111774780D01*
X123493340Y-111741976D01*
X123514767Y-111735476D01*
X123598851Y-111718750D01*
X123621131Y-111716556D01*
X123639550Y-111716556D01*
X123651801Y-111715954D01*
X123670139Y-111714148D01*
X124157861Y-111714148D01*
X124176199Y-111715954D01*
G37*
G36*
X121128199Y-111715954D02*
G01*
X121140450Y-111716556D01*
X121158869Y-111716556D01*
X121181149Y-111718750D01*
X121265233Y-111735476D01*
X121286660Y-111741976D01*
X121365858Y-111774780D01*
X121371303Y-111777691D01*
X121371309Y-111777693D01*
X121380169Y-111782429D01*
X121380173Y-111782432D01*
X121385614Y-111785340D01*
X121456899Y-111832971D01*
X121474204Y-111847172D01*
X121534828Y-111907796D01*
X121549029Y-111925101D01*
X121596660Y-111996386D01*
X121599568Y-112001827D01*
X121599571Y-112001831D01*
X121604307Y-112010691D01*
X121604309Y-112010697D01*
X121607220Y-112016142D01*
X121640024Y-112095340D01*
X121646524Y-112116767D01*
X121663250Y-112200851D01*
X121665444Y-112223131D01*
X121665444Y-112241550D01*
X121666046Y-112253801D01*
X121667852Y-112272139D01*
X121667852Y-112759860D01*
X121666263Y-112775999D01*
X121663348Y-112785608D01*
X121658610Y-112794472D01*
X121652237Y-112802237D01*
X121639794Y-112812448D01*
X121629425Y-112819378D01*
X121612098Y-112836705D01*
X121598485Y-112857080D01*
X121589109Y-112879720D01*
X121584329Y-112903753D01*
X121584330Y-112928257D01*
X121589112Y-112952290D01*
X121598490Y-112974929D01*
X121612105Y-112995302D01*
X121629432Y-113012629D01*
X121639802Y-113019558D01*
X121652237Y-113029763D01*
X121658610Y-113037528D01*
X121663348Y-113046392D01*
X121666263Y-113056001D01*
X121667852Y-113072140D01*
X121667852Y-113559862D01*
X121666046Y-113578199D01*
X121665444Y-113590450D01*
X121665444Y-113608869D01*
X121663250Y-113631149D01*
X121646524Y-113715233D01*
X121640024Y-113736660D01*
X121607220Y-113815858D01*
X121604309Y-113821303D01*
X121604307Y-113821309D01*
X121599571Y-113830169D01*
X121599568Y-113830173D01*
X121596660Y-113835614D01*
X121549029Y-113906899D01*
X121534828Y-113924204D01*
X121474204Y-113984828D01*
X121456899Y-113999029D01*
X121385614Y-114046660D01*
X121380173Y-114049568D01*
X121380169Y-114049571D01*
X121371309Y-114054307D01*
X121371303Y-114054309D01*
X121365858Y-114057220D01*
X121286660Y-114090024D01*
X121265233Y-114096524D01*
X121181149Y-114113250D01*
X121158869Y-114115444D01*
X121140450Y-114115444D01*
X121128199Y-114116046D01*
X121109862Y-114117852D01*
X120622138Y-114117852D01*
X120603801Y-114116046D01*
X120591550Y-114115444D01*
X120573131Y-114115444D01*
X120550851Y-114113250D01*
X120466767Y-114096524D01*
X120445340Y-114090024D01*
X120366142Y-114057220D01*
X120360697Y-114054309D01*
X120360691Y-114054307D01*
X120351831Y-114049571D01*
X120351827Y-114049568D01*
X120346386Y-114046660D01*
X120275101Y-113999029D01*
X120257796Y-113984828D01*
X120197172Y-113924204D01*
X120182971Y-113906899D01*
X120135340Y-113835614D01*
X120132432Y-113830173D01*
X120132429Y-113830169D01*
X120127693Y-113821309D01*
X120127691Y-113821303D01*
X120124780Y-113815858D01*
X120091976Y-113736660D01*
X120085476Y-113715233D01*
X120068750Y-113631149D01*
X120066556Y-113608869D01*
X120066556Y-113590450D01*
X120065954Y-113578199D01*
X120064148Y-113559862D01*
X120064148Y-113072140D01*
X120065737Y-113056001D01*
X120068652Y-113046392D01*
X120073390Y-113037528D01*
X120079763Y-113029763D01*
X120092206Y-113019552D01*
X120102575Y-113012622D01*
X120119902Y-112995295D01*
X120133515Y-112974920D01*
X120142891Y-112952280D01*
X120147671Y-112928247D01*
X120147670Y-112903743D01*
X120142888Y-112879710D01*
X120133510Y-112857071D01*
X120119895Y-112836698D01*
X120102568Y-112819371D01*
X120092198Y-112812442D01*
X120079763Y-112802237D01*
X120073390Y-112794472D01*
X120068652Y-112785608D01*
X120065737Y-112775999D01*
X120064148Y-112759860D01*
X120064148Y-112272139D01*
X120065954Y-112253801D01*
X120066556Y-112241550D01*
X120066556Y-112223131D01*
X120068750Y-112200851D01*
X120085476Y-112116767D01*
X120091976Y-112095340D01*
X120124780Y-112016142D01*
X120127691Y-112010697D01*
X120127693Y-112010691D01*
X120132429Y-112001831D01*
X120132432Y-112001827D01*
X120135340Y-111996386D01*
X120182971Y-111925101D01*
X120197172Y-111907796D01*
X120257796Y-111847172D01*
X120275101Y-111832971D01*
X120346386Y-111785340D01*
X120351827Y-111782432D01*
X120351831Y-111782429D01*
X120360691Y-111777693D01*
X120360697Y-111777691D01*
X120366142Y-111774780D01*
X120445340Y-111741976D01*
X120466767Y-111735476D01*
X120550851Y-111718750D01*
X120573131Y-111716556D01*
X120591550Y-111716556D01*
X120603801Y-111715954D01*
X120622139Y-111714148D01*
X121109861Y-111714148D01*
X121128199Y-111715954D01*
G37*
G36*
X70333562Y-112580181D02*
G01*
X70368481Y-112590774D01*
X70400663Y-112607976D01*
X70428873Y-112631127D01*
X70452024Y-112659337D01*
X70469226Y-112691519D01*
X70479819Y-112726438D01*
X70484000Y-112768895D01*
X70484000Y-113910105D01*
X70479819Y-113952562D01*
X70469226Y-113987481D01*
X70452024Y-114019663D01*
X70428873Y-114047873D01*
X70400663Y-114071024D01*
X70368481Y-114088226D01*
X70333562Y-114098819D01*
X70291105Y-114103000D01*
X68824895Y-114103000D01*
X68782438Y-114098819D01*
X68747519Y-114088226D01*
X68715337Y-114071024D01*
X68687127Y-114047873D01*
X68663976Y-114019663D01*
X68646774Y-113987481D01*
X68636181Y-113952562D01*
X68632000Y-113910105D01*
X68632000Y-112768895D01*
X68636181Y-112726438D01*
X68646774Y-112691519D01*
X68663976Y-112659337D01*
X68687127Y-112631127D01*
X68715337Y-112607976D01*
X68747519Y-112590774D01*
X68782438Y-112580181D01*
X68824895Y-112576000D01*
X70291105Y-112576000D01*
X70333562Y-112580181D01*
G37*
G36*
X74905562Y-112580181D02*
G01*
X74940481Y-112590774D01*
X74972663Y-112607976D01*
X75000873Y-112631127D01*
X75024024Y-112659337D01*
X75041226Y-112691519D01*
X75051819Y-112726438D01*
X75056000Y-112768895D01*
X75056000Y-113910105D01*
X75051819Y-113952562D01*
X75041226Y-113987481D01*
X75024024Y-114019663D01*
X75000873Y-114047873D01*
X74972663Y-114071024D01*
X74940481Y-114088226D01*
X74905562Y-114098819D01*
X74863105Y-114103000D01*
X73396895Y-114103000D01*
X73354438Y-114098819D01*
X73319519Y-114088226D01*
X73287337Y-114071024D01*
X73259127Y-114047873D01*
X73235976Y-114019663D01*
X73218774Y-113987481D01*
X73208181Y-113952562D01*
X73204000Y-113910105D01*
X73204000Y-112768895D01*
X73208181Y-112726438D01*
X73218774Y-112691519D01*
X73235976Y-112659337D01*
X73259127Y-112631127D01*
X73287337Y-112607976D01*
X73319519Y-112590774D01*
X73354438Y-112580181D01*
X73396895Y-112576000D01*
X74863105Y-112576000D01*
X74905562Y-112580181D01*
G37*
G36*
X72619562Y-112580181D02*
G01*
X72654481Y-112590774D01*
X72686663Y-112607976D01*
X72714873Y-112631127D01*
X72738024Y-112659337D01*
X72755226Y-112691519D01*
X72765819Y-112726438D01*
X72770000Y-112768895D01*
X72770000Y-113910105D01*
X72765819Y-113952562D01*
X72755226Y-113987481D01*
X72738024Y-114019663D01*
X72714873Y-114047873D01*
X72686663Y-114071024D01*
X72654481Y-114088226D01*
X72619562Y-114098819D01*
X72577105Y-114103000D01*
X71110895Y-114103000D01*
X71068438Y-114098819D01*
X71033519Y-114088226D01*
X71001337Y-114071024D01*
X70973127Y-114047873D01*
X70949976Y-114019663D01*
X70932774Y-113987481D01*
X70922181Y-113952562D01*
X70918000Y-113910105D01*
X70918000Y-112768895D01*
X70922181Y-112726438D01*
X70932774Y-112691519D01*
X70949976Y-112659337D01*
X70973127Y-112631127D01*
X71001337Y-112607976D01*
X71033519Y-112590774D01*
X71068438Y-112580181D01*
X71110895Y-112576000D01*
X72577105Y-112576000D01*
X72619562Y-112580181D01*
G37*
G36*
X110144512Y-112019927D02*
G01*
X110293812Y-112049624D01*
X110457784Y-112117544D01*
X110605354Y-112216147D01*
X110730853Y-112341646D01*
X110829456Y-112489216D01*
X110897376Y-112653188D01*
X110914917Y-112741376D01*
X110932000Y-112827258D01*
X110932000Y-113004742D01*
X110930431Y-113012629D01*
X110897376Y-113178812D01*
X110829456Y-113342784D01*
X110730853Y-113490354D01*
X110605354Y-113615853D01*
X110457784Y-113714456D01*
X110293812Y-113782376D01*
X110144512Y-113812073D01*
X110119742Y-113817000D01*
X109942258Y-113817000D01*
X109917488Y-113812073D01*
X109768188Y-113782376D01*
X109604216Y-113714456D01*
X109456646Y-113615853D01*
X109331147Y-113490354D01*
X109232544Y-113342784D01*
X109164624Y-113178812D01*
X109131569Y-113012629D01*
X109130000Y-113004742D01*
X109130000Y-112827258D01*
X109147083Y-112741376D01*
X109164624Y-112653188D01*
X109232544Y-112489216D01*
X109331147Y-112341646D01*
X109456646Y-112216147D01*
X109604216Y-112117544D01*
X109768188Y-112049624D01*
X109917488Y-112019927D01*
X109942258Y-112015000D01*
X110119742Y-112015000D01*
X110144512Y-112019927D01*
G37*
G36*
X107644512Y-112019927D02*
G01*
X107793812Y-112049624D01*
X107957784Y-112117544D01*
X108105354Y-112216147D01*
X108230853Y-112341646D01*
X108329456Y-112489216D01*
X108397376Y-112653188D01*
X108414917Y-112741376D01*
X108432000Y-112827258D01*
X108432000Y-113004742D01*
X108430431Y-113012629D01*
X108397376Y-113178812D01*
X108329456Y-113342784D01*
X108230853Y-113490354D01*
X108105354Y-113615853D01*
X107957784Y-113714456D01*
X107793812Y-113782376D01*
X107644512Y-113812073D01*
X107619742Y-113817000D01*
X107442258Y-113817000D01*
X107417488Y-113812073D01*
X107268188Y-113782376D01*
X107104216Y-113714456D01*
X106956646Y-113615853D01*
X106831147Y-113490354D01*
X106732544Y-113342784D01*
X106664624Y-113178812D01*
X106631569Y-113012629D01*
X106630000Y-113004742D01*
X106630000Y-112827258D01*
X106647083Y-112741376D01*
X106664624Y-112653188D01*
X106732544Y-112489216D01*
X106831147Y-112341646D01*
X106956646Y-112216147D01*
X107104216Y-112117544D01*
X107268188Y-112049624D01*
X107417488Y-112019927D01*
X107442258Y-112015000D01*
X107619742Y-112015000D01*
X107644512Y-112019927D01*
G37*
G36*
X105144512Y-112019927D02*
G01*
X105293812Y-112049624D01*
X105457784Y-112117544D01*
X105605354Y-112216147D01*
X105730853Y-112341646D01*
X105829456Y-112489216D01*
X105897376Y-112653188D01*
X105914917Y-112741376D01*
X105932000Y-112827258D01*
X105932000Y-113004742D01*
X105930431Y-113012629D01*
X105897376Y-113178812D01*
X105829456Y-113342784D01*
X105730853Y-113490354D01*
X105605354Y-113615853D01*
X105457784Y-113714456D01*
X105293812Y-113782376D01*
X105144512Y-113812073D01*
X105119742Y-113817000D01*
X104942258Y-113817000D01*
X104917488Y-113812073D01*
X104768188Y-113782376D01*
X104604216Y-113714456D01*
X104456646Y-113615853D01*
X104331147Y-113490354D01*
X104232544Y-113342784D01*
X104164624Y-113178812D01*
X104131569Y-113012629D01*
X104130000Y-113004742D01*
X104130000Y-112827258D01*
X104147083Y-112741376D01*
X104164624Y-112653188D01*
X104232544Y-112489216D01*
X104331147Y-112341646D01*
X104456646Y-112216147D01*
X104604216Y-112117544D01*
X104768188Y-112049624D01*
X104917488Y-112019927D01*
X104942258Y-112015000D01*
X105119742Y-112015000D01*
X105144512Y-112019927D01*
G37*
G36*
X72619562Y-109605181D02*
G01*
X72654481Y-109615774D01*
X72686663Y-109632976D01*
X72714873Y-109656127D01*
X72738024Y-109684337D01*
X72755226Y-109716519D01*
X72765819Y-109751438D01*
X72770000Y-109793895D01*
X72770000Y-110935105D01*
X72765819Y-110977562D01*
X72755226Y-111012481D01*
X72738024Y-111044663D01*
X72714873Y-111072873D01*
X72686663Y-111096024D01*
X72654481Y-111113226D01*
X72619562Y-111123819D01*
X72577105Y-111128000D01*
X71110895Y-111128000D01*
X71068438Y-111123819D01*
X71033519Y-111113226D01*
X71001337Y-111096024D01*
X70973127Y-111072873D01*
X70949976Y-111044663D01*
X70932774Y-111012481D01*
X70922181Y-110977562D01*
X70918000Y-110935105D01*
X70918000Y-109793895D01*
X70922181Y-109751438D01*
X70932774Y-109716519D01*
X70949976Y-109684337D01*
X70973127Y-109656127D01*
X71001337Y-109632976D01*
X71033519Y-109615774D01*
X71068438Y-109605181D01*
X71110895Y-109601000D01*
X72577105Y-109601000D01*
X72619562Y-109605181D01*
G37*
G36*
X70333562Y-109605181D02*
G01*
X70368481Y-109615774D01*
X70400663Y-109632976D01*
X70428873Y-109656127D01*
X70452024Y-109684337D01*
X70469226Y-109716519D01*
X70479819Y-109751438D01*
X70484000Y-109793895D01*
X70484000Y-110935105D01*
X70479819Y-110977562D01*
X70469226Y-111012481D01*
X70452024Y-111044663D01*
X70428873Y-111072873D01*
X70400663Y-111096024D01*
X70368481Y-111113226D01*
X70333562Y-111123819D01*
X70291105Y-111128000D01*
X68824895Y-111128000D01*
X68782438Y-111123819D01*
X68747519Y-111113226D01*
X68715337Y-111096024D01*
X68687127Y-111072873D01*
X68663976Y-111044663D01*
X68646774Y-111012481D01*
X68636181Y-110977562D01*
X68632000Y-110935105D01*
X68632000Y-109793895D01*
X68636181Y-109751438D01*
X68646774Y-109716519D01*
X68663976Y-109684337D01*
X68687127Y-109656127D01*
X68715337Y-109632976D01*
X68747519Y-109615774D01*
X68782438Y-109605181D01*
X68824895Y-109601000D01*
X70291105Y-109601000D01*
X70333562Y-109605181D01*
G37*
G36*
X74905562Y-109605181D02*
G01*
X74940481Y-109615774D01*
X74972663Y-109632976D01*
X75000873Y-109656127D01*
X75024024Y-109684337D01*
X75041226Y-109716519D01*
X75051819Y-109751438D01*
X75056000Y-109793895D01*
X75056000Y-110935105D01*
X75051819Y-110977562D01*
X75041226Y-111012481D01*
X75024024Y-111044663D01*
X75000873Y-111072873D01*
X74972663Y-111096024D01*
X74940481Y-111113226D01*
X74905562Y-111123819D01*
X74863105Y-111128000D01*
X73396895Y-111128000D01*
X73354438Y-111123819D01*
X73319519Y-111113226D01*
X73287337Y-111096024D01*
X73259127Y-111072873D01*
X73235976Y-111044663D01*
X73218774Y-111012481D01*
X73208181Y-110977562D01*
X73204000Y-110935105D01*
X73204000Y-109793895D01*
X73208181Y-109751438D01*
X73218774Y-109716519D01*
X73235976Y-109684337D01*
X73259127Y-109656127D01*
X73287337Y-109632976D01*
X73319519Y-109615774D01*
X73354438Y-109605181D01*
X73396895Y-109601000D01*
X74863105Y-109601000D01*
X74905562Y-109605181D01*
G37*
G36*
X108891468Y-108533565D02*
G01*
X108930138Y-108545296D01*
X108965777Y-108564346D01*
X108997017Y-108589983D01*
X109022654Y-108621223D01*
X109041704Y-108656862D01*
X109053435Y-108695532D01*
X109058000Y-108741888D01*
X109058000Y-109818112D01*
X109053435Y-109864468D01*
X109041704Y-109903138D01*
X109022654Y-109938777D01*
X108997017Y-109970017D01*
X108965777Y-109995654D01*
X108930138Y-110014704D01*
X108891468Y-110026435D01*
X108845112Y-110031000D01*
X108193888Y-110031000D01*
X108147532Y-110026435D01*
X108108862Y-110014704D01*
X108073223Y-109995654D01*
X108041983Y-109970017D01*
X108016346Y-109938777D01*
X107997296Y-109903138D01*
X107985565Y-109864468D01*
X107981000Y-109818112D01*
X107981000Y-108741888D01*
X107985565Y-108695532D01*
X107997296Y-108656862D01*
X108016346Y-108621223D01*
X108041983Y-108589983D01*
X108073223Y-108564346D01*
X108108862Y-108545296D01*
X108147532Y-108533565D01*
X108193888Y-108529000D01*
X108845112Y-108529000D01*
X108891468Y-108533565D01*
G37*
G36*
X107016468Y-108533565D02*
G01*
X107055138Y-108545296D01*
X107090777Y-108564346D01*
X107122017Y-108589983D01*
X107147654Y-108621223D01*
X107166704Y-108656862D01*
X107178435Y-108695532D01*
X107183000Y-108741888D01*
X107183000Y-109818112D01*
X107178435Y-109864468D01*
X107166704Y-109903138D01*
X107147654Y-109938777D01*
X107122017Y-109970017D01*
X107090777Y-109995654D01*
X107055138Y-110014704D01*
X107016468Y-110026435D01*
X106970112Y-110031000D01*
X106318888Y-110031000D01*
X106272532Y-110026435D01*
X106233862Y-110014704D01*
X106198223Y-109995654D01*
X106166983Y-109970017D01*
X106141346Y-109938777D01*
X106122296Y-109903138D01*
X106110565Y-109864468D01*
X106106000Y-109818112D01*
X106106000Y-108741888D01*
X106110565Y-108695532D01*
X106122296Y-108656862D01*
X106141346Y-108621223D01*
X106166983Y-108589983D01*
X106198223Y-108564346D01*
X106233862Y-108545296D01*
X106272532Y-108533565D01*
X106318888Y-108529000D01*
X106970112Y-108529000D01*
X107016468Y-108533565D01*
G37*
G36*
X80085999Y-105765737D02*
G01*
X80095608Y-105768652D01*
X80104472Y-105773390D01*
X80112237Y-105779763D01*
X80122448Y-105792206D01*
X80129378Y-105802575D01*
X80146705Y-105819902D01*
X80167080Y-105833515D01*
X80189720Y-105842891D01*
X80213753Y-105847671D01*
X80238257Y-105847670D01*
X80262290Y-105842888D01*
X80284929Y-105833510D01*
X80305302Y-105819895D01*
X80322629Y-105802568D01*
X80329558Y-105792198D01*
X80339763Y-105779763D01*
X80347528Y-105773390D01*
X80356392Y-105768652D01*
X80366001Y-105765737D01*
X80382140Y-105764148D01*
X80869861Y-105764148D01*
X80888199Y-105765954D01*
X80900450Y-105766556D01*
X80918869Y-105766556D01*
X80941149Y-105768750D01*
X81025233Y-105785476D01*
X81046660Y-105791976D01*
X81125858Y-105824780D01*
X81131303Y-105827691D01*
X81131309Y-105827693D01*
X81140169Y-105832429D01*
X81140173Y-105832432D01*
X81145614Y-105835340D01*
X81216899Y-105882971D01*
X81234204Y-105897172D01*
X81294828Y-105957796D01*
X81309029Y-105975101D01*
X81356660Y-106046386D01*
X81359568Y-106051827D01*
X81359571Y-106051831D01*
X81364307Y-106060691D01*
X81364309Y-106060697D01*
X81367220Y-106066142D01*
X81400024Y-106145340D01*
X81406524Y-106166767D01*
X81423250Y-106250851D01*
X81425444Y-106273131D01*
X81425444Y-106291550D01*
X81426046Y-106303801D01*
X81427852Y-106322139D01*
X81427852Y-106809862D01*
X81426046Y-106828199D01*
X81425444Y-106840450D01*
X81425444Y-106858869D01*
X81423250Y-106881149D01*
X81406524Y-106965233D01*
X81400024Y-106986660D01*
X81367220Y-107065858D01*
X81364309Y-107071303D01*
X81364307Y-107071309D01*
X81359571Y-107080169D01*
X81359568Y-107080173D01*
X81356660Y-107085614D01*
X81309029Y-107156899D01*
X81294828Y-107174204D01*
X81234204Y-107234828D01*
X81216899Y-107249029D01*
X81145614Y-107296660D01*
X81140173Y-107299568D01*
X81140169Y-107299571D01*
X81131309Y-107304307D01*
X81131303Y-107304309D01*
X81125858Y-107307220D01*
X81046660Y-107340024D01*
X81025233Y-107346524D01*
X80941149Y-107363250D01*
X80918869Y-107365444D01*
X80900450Y-107365444D01*
X80888199Y-107366046D01*
X80869862Y-107367852D01*
X80382140Y-107367852D01*
X80366001Y-107366263D01*
X80356392Y-107363348D01*
X80347528Y-107358610D01*
X80339763Y-107352237D01*
X80329552Y-107339794D01*
X80322622Y-107329425D01*
X80305295Y-107312098D01*
X80284920Y-107298485D01*
X80262280Y-107289109D01*
X80238247Y-107284329D01*
X80213743Y-107284330D01*
X80189710Y-107289112D01*
X80167071Y-107298490D01*
X80146698Y-107312105D01*
X80129371Y-107329432D01*
X80122442Y-107339802D01*
X80112237Y-107352237D01*
X80104472Y-107358610D01*
X80095608Y-107363348D01*
X80085999Y-107366263D01*
X80069860Y-107367852D01*
X79582138Y-107367852D01*
X79563801Y-107366046D01*
X79551550Y-107365444D01*
X79533131Y-107365444D01*
X79510851Y-107363250D01*
X79426767Y-107346524D01*
X79405340Y-107340024D01*
X79326142Y-107307220D01*
X79320697Y-107304309D01*
X79320691Y-107304307D01*
X79311831Y-107299571D01*
X79311827Y-107299568D01*
X79306386Y-107296660D01*
X79235101Y-107249029D01*
X79217796Y-107234828D01*
X79157172Y-107174204D01*
X79142971Y-107156899D01*
X79095340Y-107085614D01*
X79092432Y-107080173D01*
X79092429Y-107080169D01*
X79087693Y-107071309D01*
X79087691Y-107071303D01*
X79084780Y-107065858D01*
X79051976Y-106986660D01*
X79045476Y-106965233D01*
X79028750Y-106881149D01*
X79026556Y-106858869D01*
X79026556Y-106840450D01*
X79025954Y-106828199D01*
X79024148Y-106809862D01*
X79024148Y-106322139D01*
X79025954Y-106303801D01*
X79026556Y-106291550D01*
X79026556Y-106273131D01*
X79028750Y-106250851D01*
X79045476Y-106166767D01*
X79051976Y-106145340D01*
X79084780Y-106066142D01*
X79087691Y-106060697D01*
X79087693Y-106060691D01*
X79092429Y-106051831D01*
X79092432Y-106051827D01*
X79095340Y-106046386D01*
X79142971Y-105975101D01*
X79157172Y-105957796D01*
X79217796Y-105897172D01*
X79235101Y-105882971D01*
X79306386Y-105835340D01*
X79311827Y-105832432D01*
X79311831Y-105832429D01*
X79320691Y-105827693D01*
X79320697Y-105827691D01*
X79326142Y-105824780D01*
X79405340Y-105791976D01*
X79426767Y-105785476D01*
X79510851Y-105768750D01*
X79533131Y-105766556D01*
X79551550Y-105766556D01*
X79563801Y-105765954D01*
X79582139Y-105764148D01*
X80069860Y-105764148D01*
X80085999Y-105765737D01*
G37*
G36*
X96914068Y-105621065D02*
G01*
X96952738Y-105632796D01*
X96988377Y-105651846D01*
X97019617Y-105677483D01*
X97045254Y-105708723D01*
X97064304Y-105744362D01*
X97076035Y-105783032D01*
X97080600Y-105829388D01*
X97080600Y-106480612D01*
X97076035Y-106526968D01*
X97064304Y-106565638D01*
X97045254Y-106601277D01*
X97019617Y-106632517D01*
X96988377Y-106658154D01*
X96952738Y-106677204D01*
X96914068Y-106688935D01*
X96867712Y-106693500D01*
X95791488Y-106693500D01*
X95745132Y-106688935D01*
X95706462Y-106677204D01*
X95670823Y-106658154D01*
X95639583Y-106632517D01*
X95613946Y-106601277D01*
X95594896Y-106565638D01*
X95583165Y-106526968D01*
X95578600Y-106480612D01*
X95578600Y-105829388D01*
X95583165Y-105783032D01*
X95594896Y-105744362D01*
X95613946Y-105708723D01*
X95639583Y-105677483D01*
X95670823Y-105651846D01*
X95706462Y-105632796D01*
X95745132Y-105621065D01*
X95791488Y-105616500D01*
X96867712Y-105616500D01*
X96914068Y-105621065D01*
G37*
G36*
X100851068Y-105595665D02*
G01*
X100889738Y-105607396D01*
X100925377Y-105626446D01*
X100956617Y-105652083D01*
X100982254Y-105683323D01*
X101001304Y-105718962D01*
X101013035Y-105757632D01*
X101017600Y-105803988D01*
X101017600Y-106455212D01*
X101013035Y-106501568D01*
X101001304Y-106540238D01*
X100982254Y-106575877D01*
X100956617Y-106607117D01*
X100925377Y-106632754D01*
X100889738Y-106651804D01*
X100851068Y-106663535D01*
X100804712Y-106668100D01*
X99728488Y-106668100D01*
X99682132Y-106663535D01*
X99643462Y-106651804D01*
X99607823Y-106632754D01*
X99576583Y-106607117D01*
X99550946Y-106575877D01*
X99531896Y-106540238D01*
X99520165Y-106501568D01*
X99515600Y-106455212D01*
X99515600Y-105803988D01*
X99520165Y-105757632D01*
X99531896Y-105718962D01*
X99550946Y-105683323D01*
X99576583Y-105652083D01*
X99607823Y-105626446D01*
X99643462Y-105607396D01*
X99682132Y-105595665D01*
X99728488Y-105591100D01*
X100804712Y-105591100D01*
X100851068Y-105595665D01*
G37*
G36*
X96914068Y-103746065D02*
G01*
X96952738Y-103757796D01*
X96988377Y-103776846D01*
X97019617Y-103802483D01*
X97045254Y-103833723D01*
X97064304Y-103869362D01*
X97076035Y-103908032D01*
X97080600Y-103954388D01*
X97080600Y-104605612D01*
X97076035Y-104651968D01*
X97064304Y-104690638D01*
X97045254Y-104726277D01*
X97019617Y-104757517D01*
X96988377Y-104783154D01*
X96952738Y-104802204D01*
X96914068Y-104813935D01*
X96867712Y-104818500D01*
X95791488Y-104818500D01*
X95745132Y-104813935D01*
X95706462Y-104802204D01*
X95670823Y-104783154D01*
X95639583Y-104757517D01*
X95613946Y-104726277D01*
X95594896Y-104690638D01*
X95583165Y-104651968D01*
X95578600Y-104605612D01*
X95578600Y-103954388D01*
X95583165Y-103908032D01*
X95594896Y-103869362D01*
X95613946Y-103833723D01*
X95639583Y-103802483D01*
X95670823Y-103776846D01*
X95706462Y-103757796D01*
X95745132Y-103746065D01*
X95791488Y-103741500D01*
X96867712Y-103741500D01*
X96914068Y-103746065D01*
G37*
G36*
X100851068Y-103720665D02*
G01*
X100889738Y-103732396D01*
X100925377Y-103751446D01*
X100956617Y-103777083D01*
X100982254Y-103808323D01*
X101001304Y-103843962D01*
X101013035Y-103882632D01*
X101017600Y-103928988D01*
X101017600Y-104580212D01*
X101013035Y-104626568D01*
X101001304Y-104665238D01*
X100982254Y-104700877D01*
X100956617Y-104732117D01*
X100925377Y-104757754D01*
X100889738Y-104776804D01*
X100851068Y-104788535D01*
X100804712Y-104793100D01*
X99728488Y-104793100D01*
X99682132Y-104788535D01*
X99643462Y-104776804D01*
X99607823Y-104757754D01*
X99576583Y-104732117D01*
X99550946Y-104700877D01*
X99531896Y-104665238D01*
X99520165Y-104626568D01*
X99515600Y-104580212D01*
X99515600Y-103928988D01*
X99520165Y-103882632D01*
X99531896Y-103843962D01*
X99550946Y-103808323D01*
X99576583Y-103777083D01*
X99607823Y-103751446D01*
X99643462Y-103732396D01*
X99682132Y-103720665D01*
X99728488Y-103716100D01*
X100804712Y-103716100D01*
X100851068Y-103720665D01*
G37*
G36*
X118301368Y-99580536D02*
G01*
X117840334Y-100041570D01*
X117735682Y-100146221D01*
X117274648Y-100607255D01*
X117169997Y-100711907D01*
X115011907Y-102869997D01*
X114907255Y-102974648D01*
X114446221Y-103435682D01*
X114341570Y-103540334D01*
X113880536Y-104001368D01*
X112677040Y-102797872D01*
X113138074Y-102336838D01*
X113138075Y-102336839D01*
X113154339Y-102320575D01*
X113154348Y-102320564D01*
X113242726Y-102232187D01*
X113242725Y-102232186D01*
X113703759Y-101771152D01*
X113703760Y-101771153D01*
X113792137Y-101682775D01*
X113792148Y-101682766D01*
X113808412Y-101666502D01*
X113808411Y-101666501D01*
X114269445Y-101205467D01*
X114269446Y-101205468D01*
X114357833Y-101117080D01*
X114374097Y-101100817D01*
X114374096Y-101100816D01*
X114835130Y-100639782D01*
X114835131Y-100639783D01*
X114939783Y-100535131D01*
X114939782Y-100535130D01*
X115400816Y-100074096D01*
X115400817Y-100074097D01*
X115489204Y-99985709D01*
X115505468Y-99969446D01*
X115505467Y-99969445D01*
X115966501Y-99508411D01*
X115966502Y-99508412D01*
X115982766Y-99492148D01*
X115982775Y-99492137D01*
X116071153Y-99403760D01*
X116071152Y-99403759D01*
X116532186Y-98942725D01*
X116532187Y-98942726D01*
X116620564Y-98854348D01*
X116620575Y-98854339D01*
X116636839Y-98838075D01*
X116636838Y-98838074D01*
X117097872Y-98377040D01*
X118301368Y-99580536D01*
G37*
G36*
X108331162Y-98838074D02*
G01*
X108331162Y-98838075D01*
X108347426Y-98854339D01*
X108347432Y-98854344D01*
X108435814Y-98942726D01*
X108435814Y-98942725D01*
X108896848Y-99403759D01*
X108896848Y-99403760D01*
X108985230Y-99492142D01*
X108985235Y-99492148D01*
X109001499Y-99508412D01*
X109001499Y-99508411D01*
X109462533Y-99969445D01*
X109462533Y-99969446D01*
X109567184Y-100074097D01*
X109567184Y-100074096D01*
X110028218Y-100535130D01*
X110028218Y-100535131D01*
X110132870Y-100639783D01*
X110132870Y-100639782D01*
X110593904Y-101100816D01*
X110593904Y-101100817D01*
X110698555Y-101205468D01*
X110698555Y-101205467D01*
X111159589Y-101666501D01*
X111159589Y-101666502D01*
X111175853Y-101682766D01*
X111175859Y-101682771D01*
X111264241Y-101771153D01*
X111264241Y-101771152D01*
X111725275Y-102232186D01*
X111725275Y-102232187D01*
X111813657Y-102320569D01*
X111813662Y-102320575D01*
X111829926Y-102336839D01*
X111829926Y-102336838D01*
X112290960Y-102797872D01*
X111087464Y-104001368D01*
X110626430Y-103540334D01*
X110626431Y-103540334D01*
X110538049Y-103451952D01*
X110538044Y-103451946D01*
X110521780Y-103435682D01*
X110521779Y-103435682D01*
X110060745Y-102974648D01*
X110060746Y-102974648D01*
X110044482Y-102958384D01*
X110044476Y-102958379D01*
X109956094Y-102869997D01*
X109956093Y-102869997D01*
X109495059Y-102408963D01*
X109495060Y-102408963D01*
X109390409Y-102304312D01*
X109390408Y-102304312D01*
X108929374Y-101843278D01*
X108929375Y-101843278D01*
X108824723Y-101738626D01*
X108824722Y-101738626D01*
X108363688Y-101277592D01*
X108363689Y-101277592D01*
X108259038Y-101172941D01*
X108259037Y-101172941D01*
X107798003Y-100711907D01*
X107798004Y-100711907D01*
X107709622Y-100623525D01*
X107709617Y-100623519D01*
X107693353Y-100607255D01*
X107693352Y-100607255D01*
X107232318Y-100146221D01*
X107232319Y-100146221D01*
X107216055Y-100129957D01*
X107216049Y-100129952D01*
X107127667Y-100041570D01*
X107127666Y-100041570D01*
X106666632Y-99580536D01*
X107870128Y-98377040D01*
X108331162Y-98838074D01*
G37*
G36*
X80085999Y-101955737D02*
G01*
X80095608Y-101958652D01*
X80104472Y-101963390D01*
X80112237Y-101969763D01*
X80122448Y-101982206D01*
X80129378Y-101992575D01*
X80146705Y-102009902D01*
X80167080Y-102023515D01*
X80189720Y-102032891D01*
X80213753Y-102037671D01*
X80238257Y-102037670D01*
X80262290Y-102032888D01*
X80284929Y-102023510D01*
X80305302Y-102009895D01*
X80322629Y-101992568D01*
X80329558Y-101982198D01*
X80339763Y-101969763D01*
X80347528Y-101963390D01*
X80356392Y-101958652D01*
X80366001Y-101955737D01*
X80382140Y-101954148D01*
X80869861Y-101954148D01*
X80888199Y-101955954D01*
X80900450Y-101956556D01*
X80918869Y-101956556D01*
X80941149Y-101958750D01*
X81025233Y-101975476D01*
X81046660Y-101981976D01*
X81125858Y-102014780D01*
X81131303Y-102017691D01*
X81131309Y-102017693D01*
X81140169Y-102022429D01*
X81140173Y-102022432D01*
X81145614Y-102025340D01*
X81216899Y-102072971D01*
X81234204Y-102087172D01*
X81294828Y-102147796D01*
X81309029Y-102165101D01*
X81356660Y-102236386D01*
X81359568Y-102241827D01*
X81359571Y-102241831D01*
X81364307Y-102250691D01*
X81364309Y-102250697D01*
X81367220Y-102256142D01*
X81400024Y-102335340D01*
X81406524Y-102356767D01*
X81423250Y-102440851D01*
X81425444Y-102463131D01*
X81425444Y-102481550D01*
X81426046Y-102493801D01*
X81427852Y-102512139D01*
X81427852Y-102999862D01*
X81426046Y-103018199D01*
X81425444Y-103030450D01*
X81425444Y-103048869D01*
X81423250Y-103071149D01*
X81406524Y-103155233D01*
X81400024Y-103176660D01*
X81367220Y-103255858D01*
X81364309Y-103261303D01*
X81364307Y-103261309D01*
X81359571Y-103270169D01*
X81359568Y-103270173D01*
X81356660Y-103275614D01*
X81309029Y-103346899D01*
X81294828Y-103364204D01*
X81234204Y-103424828D01*
X81216899Y-103439029D01*
X81145614Y-103486660D01*
X81140173Y-103489568D01*
X81140169Y-103489571D01*
X81131309Y-103494307D01*
X81131303Y-103494309D01*
X81125858Y-103497220D01*
X81046660Y-103530024D01*
X81025233Y-103536524D01*
X80941149Y-103553250D01*
X80918869Y-103555444D01*
X80900450Y-103555444D01*
X80888199Y-103556046D01*
X80869862Y-103557852D01*
X80382140Y-103557852D01*
X80366001Y-103556263D01*
X80356392Y-103553348D01*
X80347528Y-103548610D01*
X80339763Y-103542237D01*
X80329552Y-103529794D01*
X80322622Y-103519425D01*
X80305295Y-103502098D01*
X80284920Y-103488485D01*
X80262280Y-103479109D01*
X80238247Y-103474329D01*
X80213743Y-103474330D01*
X80189710Y-103479112D01*
X80167071Y-103488490D01*
X80146698Y-103502105D01*
X80129371Y-103519432D01*
X80122442Y-103529802D01*
X80112237Y-103542237D01*
X80104472Y-103548610D01*
X80095608Y-103553348D01*
X80085999Y-103556263D01*
X80069860Y-103557852D01*
X79582138Y-103557852D01*
X79563801Y-103556046D01*
X79551550Y-103555444D01*
X79533131Y-103555444D01*
X79510851Y-103553250D01*
X79426767Y-103536524D01*
X79405340Y-103530024D01*
X79326142Y-103497220D01*
X79320697Y-103494309D01*
X79320691Y-103494307D01*
X79311831Y-103489571D01*
X79311827Y-103489568D01*
X79306386Y-103486660D01*
X79235101Y-103439029D01*
X79217796Y-103424828D01*
X79157172Y-103364204D01*
X79142971Y-103346899D01*
X79095340Y-103275614D01*
X79092432Y-103270173D01*
X79092429Y-103270169D01*
X79087693Y-103261309D01*
X79087691Y-103261303D01*
X79084780Y-103255858D01*
X79051976Y-103176660D01*
X79045476Y-103155233D01*
X79028750Y-103071149D01*
X79026556Y-103048869D01*
X79026556Y-103030450D01*
X79025954Y-103018199D01*
X79024148Y-102999862D01*
X79024148Y-102512139D01*
X79025954Y-102493801D01*
X79026556Y-102481550D01*
X79026556Y-102463131D01*
X79028750Y-102440851D01*
X79045476Y-102356767D01*
X79051976Y-102335340D01*
X79084780Y-102256142D01*
X79087691Y-102250697D01*
X79087693Y-102250691D01*
X79092429Y-102241831D01*
X79092432Y-102241827D01*
X79095340Y-102236386D01*
X79142971Y-102165101D01*
X79157172Y-102147796D01*
X79217796Y-102087172D01*
X79235101Y-102072971D01*
X79306386Y-102025340D01*
X79311827Y-102022432D01*
X79311831Y-102022429D01*
X79320691Y-102017693D01*
X79320697Y-102017691D01*
X79326142Y-102014780D01*
X79405340Y-101981976D01*
X79426767Y-101975476D01*
X79510851Y-101958750D01*
X79533131Y-101956556D01*
X79551550Y-101956556D01*
X79563801Y-101955954D01*
X79582139Y-101954148D01*
X80069860Y-101954148D01*
X80085999Y-101955737D01*
G37*
G36*
X89692562Y-98786181D02*
G01*
X89727481Y-98796774D01*
X89759663Y-98813976D01*
X89787873Y-98837127D01*
X89811024Y-98865337D01*
X89828226Y-98897519D01*
X89838819Y-98932438D01*
X89843000Y-98974895D01*
X89843000Y-100441105D01*
X89838819Y-100483562D01*
X89828226Y-100518481D01*
X89811024Y-100550663D01*
X89787873Y-100578873D01*
X89759663Y-100602024D01*
X89727481Y-100619226D01*
X89692562Y-100629819D01*
X89650105Y-100634000D01*
X88508895Y-100634000D01*
X88466438Y-100629819D01*
X88431519Y-100619226D01*
X88399337Y-100602024D01*
X88371127Y-100578873D01*
X88347976Y-100550663D01*
X88330774Y-100518481D01*
X88320181Y-100483562D01*
X88316000Y-100441105D01*
X88316000Y-98974895D01*
X88320181Y-98932438D01*
X88330774Y-98897519D01*
X88347976Y-98865337D01*
X88371127Y-98837127D01*
X88399337Y-98813976D01*
X88431519Y-98796774D01*
X88466438Y-98786181D01*
X88508895Y-98782000D01*
X89650105Y-98782000D01*
X89692562Y-98786181D01*
G37*
G36*
X86717562Y-98786181D02*
G01*
X86752481Y-98796774D01*
X86784663Y-98813976D01*
X86812873Y-98837127D01*
X86836024Y-98865337D01*
X86853226Y-98897519D01*
X86863819Y-98932438D01*
X86868000Y-98974895D01*
X86868000Y-100441105D01*
X86863819Y-100483562D01*
X86853226Y-100518481D01*
X86836024Y-100550663D01*
X86812873Y-100578873D01*
X86784663Y-100602024D01*
X86752481Y-100619226D01*
X86717562Y-100629819D01*
X86675105Y-100634000D01*
X85533895Y-100634000D01*
X85491438Y-100629819D01*
X85456519Y-100619226D01*
X85424337Y-100602024D01*
X85396127Y-100578873D01*
X85372976Y-100550663D01*
X85355774Y-100518481D01*
X85345181Y-100483562D01*
X85341000Y-100441105D01*
X85341000Y-98974895D01*
X85345181Y-98932438D01*
X85355774Y-98897519D01*
X85372976Y-98865337D01*
X85396127Y-98837127D01*
X85424337Y-98813976D01*
X85456519Y-98796774D01*
X85491438Y-98786181D01*
X85533895Y-98782000D01*
X86675105Y-98782000D01*
X86717562Y-98786181D01*
G37*
G36*
X63900562Y-96252181D02*
G01*
X63935481Y-96262774D01*
X63967663Y-96279976D01*
X63995873Y-96303127D01*
X64019024Y-96331337D01*
X64036226Y-96363519D01*
X64046819Y-96398438D01*
X64051000Y-96440895D01*
X64051000Y-97907105D01*
X64046819Y-97949562D01*
X64036226Y-97984481D01*
X64019024Y-98016663D01*
X63995873Y-98044873D01*
X63967663Y-98068024D01*
X63935481Y-98085226D01*
X63900562Y-98095819D01*
X63858105Y-98100000D01*
X62716895Y-98100000D01*
X62674438Y-98095819D01*
X62639519Y-98085226D01*
X62607337Y-98068024D01*
X62579127Y-98044873D01*
X62555976Y-98016663D01*
X62538774Y-97984481D01*
X62528181Y-97949562D01*
X62524000Y-97907105D01*
X62524000Y-96440895D01*
X62528181Y-96398438D01*
X62538774Y-96363519D01*
X62555976Y-96331337D01*
X62579127Y-96303127D01*
X62607337Y-96279976D01*
X62639519Y-96262774D01*
X62674438Y-96252181D01*
X62716895Y-96248000D01*
X63858105Y-96248000D01*
X63900562Y-96252181D01*
G37*
G36*
X60925562Y-96252181D02*
G01*
X60960481Y-96262774D01*
X60992663Y-96279976D01*
X61020873Y-96303127D01*
X61044024Y-96331337D01*
X61061226Y-96363519D01*
X61071819Y-96398438D01*
X61076000Y-96440895D01*
X61076000Y-97907105D01*
X61071819Y-97949562D01*
X61061226Y-97984481D01*
X61044024Y-98016663D01*
X61020873Y-98044873D01*
X60992663Y-98068024D01*
X60960481Y-98085226D01*
X60925562Y-98095819D01*
X60883105Y-98100000D01*
X59741895Y-98100000D01*
X59699438Y-98095819D01*
X59664519Y-98085226D01*
X59632337Y-98068024D01*
X59604127Y-98044873D01*
X59580976Y-98016663D01*
X59563774Y-97984481D01*
X59553181Y-97949562D01*
X59549000Y-97907105D01*
X59549000Y-96440895D01*
X59553181Y-96398438D01*
X59563774Y-96363519D01*
X59580976Y-96331337D01*
X59604127Y-96303127D01*
X59632337Y-96279976D01*
X59664519Y-96262774D01*
X59699438Y-96252181D01*
X59741895Y-96248000D01*
X60883105Y-96248000D01*
X60925562Y-96252181D01*
G37*
G36*
X112290960Y-93570128D02*
G01*
X111813662Y-94047426D01*
X111725275Y-94135814D01*
X111264241Y-94596848D01*
X111175853Y-94685235D01*
X110698555Y-95162533D01*
X110610167Y-95250920D01*
X110593904Y-95267184D01*
X109567184Y-96293904D01*
X109478796Y-96382291D01*
X109462533Y-96398555D01*
X108985235Y-96875853D01*
X108896848Y-96964241D01*
X108435814Y-97425275D01*
X108347426Y-97513662D01*
X107870128Y-97990960D01*
X106666632Y-96787464D01*
X107127666Y-96326430D01*
X107127667Y-96326431D01*
X107216044Y-96238053D01*
X107216055Y-96238044D01*
X107232319Y-96221780D01*
X107232318Y-96221779D01*
X107693352Y-95760745D01*
X107693353Y-95760746D01*
X107709617Y-95744482D01*
X107709626Y-95744471D01*
X107798004Y-95656094D01*
X107798003Y-95656093D01*
X108259037Y-95195059D01*
X108259038Y-95195060D01*
X108363689Y-95090409D01*
X108363688Y-95090408D01*
X108824722Y-94629374D01*
X108824723Y-94629375D01*
X108929375Y-94524723D01*
X108929374Y-94524722D01*
X109390408Y-94063688D01*
X109390409Y-94063689D01*
X109495060Y-93959038D01*
X109495059Y-93959037D01*
X109956093Y-93498003D01*
X109956094Y-93498004D01*
X110044471Y-93409626D01*
X110044482Y-93409617D01*
X110060746Y-93393353D01*
X110060745Y-93393352D01*
X110521779Y-92932318D01*
X110521780Y-92932319D01*
X110538044Y-92916055D01*
X110538053Y-92916044D01*
X110626431Y-92827667D01*
X110626430Y-92827666D01*
X111087464Y-92366632D01*
X112290960Y-93570128D01*
G37*
G36*
X114341570Y-92827666D02*
G01*
X114341570Y-92827667D01*
X114429952Y-92916049D01*
X114429957Y-92916055D01*
X114446221Y-92932319D01*
X114446221Y-92932318D01*
X114907255Y-93393352D01*
X114907255Y-93393353D01*
X114923519Y-93409617D01*
X114923525Y-93409622D01*
X115011907Y-93498004D01*
X115011907Y-93498003D01*
X115472941Y-93959037D01*
X115472941Y-93959038D01*
X115577592Y-94063689D01*
X115577592Y-94063688D01*
X116038626Y-94524722D01*
X116038626Y-94524723D01*
X116143278Y-94629375D01*
X116143278Y-94629374D01*
X116604312Y-95090408D01*
X116604312Y-95090409D01*
X116708963Y-95195060D01*
X116708963Y-95195059D01*
X117169997Y-95656093D01*
X117169997Y-95656094D01*
X117258379Y-95744476D01*
X117258384Y-95744482D01*
X117274648Y-95760746D01*
X117274648Y-95760745D01*
X117735682Y-96221779D01*
X117735682Y-96221780D01*
X117751946Y-96238044D01*
X117751952Y-96238049D01*
X117840334Y-96326431D01*
X117840334Y-96326430D01*
X118301368Y-96787464D01*
X117097872Y-97990960D01*
X116636838Y-97529926D01*
X116636839Y-97529926D01*
X116620575Y-97513662D01*
X116620569Y-97513657D01*
X116532187Y-97425275D01*
X116532186Y-97425275D01*
X116071152Y-96964241D01*
X116071153Y-96964241D01*
X115982771Y-96875859D01*
X115982766Y-96875853D01*
X115966502Y-96859589D01*
X115966501Y-96859589D01*
X115505467Y-96398555D01*
X115505468Y-96398555D01*
X115400817Y-96293904D01*
X115400816Y-96293904D01*
X114939782Y-95832870D01*
X114939783Y-95832870D01*
X114835131Y-95728218D01*
X114835130Y-95728218D01*
X114374096Y-95267184D01*
X114374097Y-95267184D01*
X114269446Y-95162533D01*
X114269445Y-95162533D01*
X113808411Y-94701499D01*
X113808412Y-94701499D01*
X113792148Y-94685235D01*
X113792142Y-94685230D01*
X113703760Y-94596848D01*
X113703759Y-94596848D01*
X113242725Y-94135814D01*
X113242726Y-94135814D01*
X113154344Y-94047432D01*
X113154339Y-94047426D01*
X113138075Y-94031162D01*
X113138074Y-94031162D01*
X112677040Y-93570128D01*
X113880536Y-92366632D01*
X114341570Y-92827666D01*
G37*
G36*
X86717562Y-95738181D02*
G01*
X86752481Y-95748774D01*
X86784663Y-95765976D01*
X86812873Y-95789127D01*
X86836024Y-95817337D01*
X86853226Y-95849519D01*
X86863819Y-95884438D01*
X86868000Y-95926895D01*
X86868000Y-97393105D01*
X86863819Y-97435562D01*
X86853226Y-97470481D01*
X86836024Y-97502663D01*
X86812873Y-97530873D01*
X86784663Y-97554024D01*
X86752481Y-97571226D01*
X86717562Y-97581819D01*
X86675105Y-97586000D01*
X85533895Y-97586000D01*
X85491438Y-97581819D01*
X85456519Y-97571226D01*
X85424337Y-97554024D01*
X85396127Y-97530873D01*
X85372976Y-97502663D01*
X85355774Y-97470481D01*
X85345181Y-97435562D01*
X85341000Y-97393105D01*
X85341000Y-95926895D01*
X85345181Y-95884438D01*
X85355774Y-95849519D01*
X85372976Y-95817337D01*
X85396127Y-95789127D01*
X85424337Y-95765976D01*
X85456519Y-95748774D01*
X85491438Y-95738181D01*
X85533895Y-95734000D01*
X86675105Y-95734000D01*
X86717562Y-95738181D01*
G37*
G36*
X89692562Y-95738181D02*
G01*
X89727481Y-95748774D01*
X89759663Y-95765976D01*
X89787873Y-95789127D01*
X89811024Y-95817337D01*
X89828226Y-95849519D01*
X89838819Y-95884438D01*
X89843000Y-95926895D01*
X89843000Y-97393105D01*
X89838819Y-97435562D01*
X89828226Y-97470481D01*
X89811024Y-97502663D01*
X89787873Y-97530873D01*
X89759663Y-97554024D01*
X89727481Y-97571226D01*
X89692562Y-97581819D01*
X89650105Y-97586000D01*
X88508895Y-97586000D01*
X88466438Y-97581819D01*
X88431519Y-97571226D01*
X88399337Y-97554024D01*
X88371127Y-97530873D01*
X88347976Y-97502663D01*
X88330774Y-97470481D01*
X88320181Y-97435562D01*
X88316000Y-97393105D01*
X88316000Y-95926895D01*
X88320181Y-95884438D01*
X88330774Y-95849519D01*
X88347976Y-95817337D01*
X88371127Y-95789127D01*
X88399337Y-95765976D01*
X88431519Y-95748774D01*
X88466438Y-95738181D01*
X88508895Y-95734000D01*
X89650105Y-95734000D01*
X89692562Y-95738181D01*
G37*
G36*
X76656512Y-94874927D02*
G01*
X76805812Y-94904624D01*
X76969784Y-94972544D01*
X77117354Y-95071147D01*
X77242853Y-95196646D01*
X77341456Y-95344216D01*
X77409376Y-95508188D01*
X77444000Y-95682259D01*
X77444000Y-95859741D01*
X77409376Y-96033812D01*
X77341456Y-96197784D01*
X77242853Y-96345354D01*
X77117354Y-96470853D01*
X76969784Y-96569456D01*
X76805812Y-96637376D01*
X76656512Y-96667073D01*
X76631742Y-96672000D01*
X76454258Y-96672000D01*
X76429488Y-96667073D01*
X76280188Y-96637376D01*
X76116216Y-96569456D01*
X75968646Y-96470853D01*
X75843147Y-96345354D01*
X75744544Y-96197784D01*
X75676624Y-96033812D01*
X75642000Y-95859741D01*
X75642000Y-95682259D01*
X75676624Y-95508188D01*
X75744544Y-95344216D01*
X75843147Y-95196646D01*
X75968646Y-95071147D01*
X76116216Y-94972544D01*
X76280188Y-94904624D01*
X76429488Y-94874927D01*
X76454258Y-94870000D01*
X76631742Y-94870000D01*
X76656512Y-94874927D01*
G37*
G36*
X74116512Y-94874927D02*
G01*
X74265812Y-94904624D01*
X74429784Y-94972544D01*
X74577354Y-95071147D01*
X74702853Y-95196646D01*
X74801456Y-95344216D01*
X74869376Y-95508188D01*
X74904000Y-95682259D01*
X74904000Y-95859741D01*
X74869376Y-96033812D01*
X74801456Y-96197784D01*
X74702853Y-96345354D01*
X74577354Y-96470853D01*
X74429784Y-96569456D01*
X74265812Y-96637376D01*
X74116512Y-96667073D01*
X74091742Y-96672000D01*
X73914258Y-96672000D01*
X73889488Y-96667073D01*
X73740188Y-96637376D01*
X73576216Y-96569456D01*
X73428646Y-96470853D01*
X73303147Y-96345354D01*
X73204544Y-96197784D01*
X73136624Y-96033812D01*
X73102000Y-95859741D01*
X73102000Y-95682259D01*
X73136624Y-95508188D01*
X73204544Y-95344216D01*
X73303147Y-95196646D01*
X73428646Y-95071147D01*
X73576216Y-94972544D01*
X73740188Y-94904624D01*
X73889488Y-94874927D01*
X73914258Y-94870000D01*
X74091742Y-94870000D01*
X74116512Y-94874927D01*
G37*
G36*
X71576512Y-94874927D02*
G01*
X71725812Y-94904624D01*
X71889784Y-94972544D01*
X72037354Y-95071147D01*
X72162853Y-95196646D01*
X72261456Y-95344216D01*
X72329376Y-95508188D01*
X72364000Y-95682259D01*
X72364000Y-95859741D01*
X72329376Y-96033812D01*
X72261456Y-96197784D01*
X72162853Y-96345354D01*
X72037354Y-96470853D01*
X71889784Y-96569456D01*
X71725812Y-96637376D01*
X71576512Y-96667073D01*
X71551742Y-96672000D01*
X71374258Y-96672000D01*
X71349488Y-96667073D01*
X71200188Y-96637376D01*
X71036216Y-96569456D01*
X70888646Y-96470853D01*
X70763147Y-96345354D01*
X70664544Y-96197784D01*
X70596624Y-96033812D01*
X70562000Y-95859741D01*
X70562000Y-95682259D01*
X70596624Y-95508188D01*
X70664544Y-95344216D01*
X70763147Y-95196646D01*
X70888646Y-95071147D01*
X71036216Y-94972544D01*
X71200188Y-94904624D01*
X71349488Y-94874927D01*
X71374258Y-94870000D01*
X71551742Y-94870000D01*
X71576512Y-94874927D01*
G37*
G36*
X63900562Y-93712181D02*
G01*
X63935481Y-93722774D01*
X63967663Y-93739976D01*
X63995873Y-93763127D01*
X64019024Y-93791337D01*
X64036226Y-93823519D01*
X64046819Y-93858438D01*
X64051000Y-93900895D01*
X64051000Y-95367105D01*
X64046819Y-95409562D01*
X64036226Y-95444481D01*
X64019024Y-95476663D01*
X63995873Y-95504873D01*
X63967663Y-95528024D01*
X63935481Y-95545226D01*
X63900562Y-95555819D01*
X63858105Y-95560000D01*
X62716895Y-95560000D01*
X62674438Y-95555819D01*
X62639519Y-95545226D01*
X62607337Y-95528024D01*
X62579127Y-95504873D01*
X62555976Y-95476663D01*
X62538774Y-95444481D01*
X62528181Y-95409562D01*
X62524000Y-95367105D01*
X62524000Y-93900895D01*
X62528181Y-93858438D01*
X62538774Y-93823519D01*
X62555976Y-93791337D01*
X62579127Y-93763127D01*
X62607337Y-93739976D01*
X62639519Y-93722774D01*
X62674438Y-93712181D01*
X62716895Y-93708000D01*
X63858105Y-93708000D01*
X63900562Y-93712181D01*
G37*
G36*
X60925562Y-93712181D02*
G01*
X60960481Y-93722774D01*
X60992663Y-93739976D01*
X61020873Y-93763127D01*
X61044024Y-93791337D01*
X61061226Y-93823519D01*
X61071819Y-93858438D01*
X61076000Y-93900895D01*
X61076000Y-95367105D01*
X61071819Y-95409562D01*
X61061226Y-95444481D01*
X61044024Y-95476663D01*
X61020873Y-95504873D01*
X60992663Y-95528024D01*
X60960481Y-95545226D01*
X60925562Y-95555819D01*
X60883105Y-95560000D01*
X59741895Y-95560000D01*
X59699438Y-95555819D01*
X59664519Y-95545226D01*
X59632337Y-95528024D01*
X59604127Y-95504873D01*
X59580976Y-95476663D01*
X59563774Y-95444481D01*
X59553181Y-95409562D01*
X59549000Y-95367105D01*
X59549000Y-93900895D01*
X59553181Y-93858438D01*
X59563774Y-93823519D01*
X59580976Y-93791337D01*
X59604127Y-93763127D01*
X59632337Y-93739976D01*
X59664519Y-93722774D01*
X59699438Y-93712181D01*
X59741895Y-93708000D01*
X60883105Y-93708000D01*
X60925562Y-93712181D01*
G37*
G36*
X74116512Y-92334927D02*
G01*
X74265812Y-92364624D01*
X74429784Y-92432544D01*
X74577354Y-92531147D01*
X74702853Y-92656646D01*
X74801456Y-92804216D01*
X74869376Y-92968188D01*
X74904000Y-93142259D01*
X74904000Y-93319741D01*
X74869376Y-93493812D01*
X74801456Y-93657784D01*
X74702853Y-93805354D01*
X74577354Y-93930853D01*
X74429784Y-94029456D01*
X74265812Y-94097376D01*
X74116512Y-94127073D01*
X74091742Y-94132000D01*
X73914258Y-94132000D01*
X73889488Y-94127073D01*
X73740188Y-94097376D01*
X73576216Y-94029456D01*
X73428646Y-93930853D01*
X73303147Y-93805354D01*
X73204544Y-93657784D01*
X73136624Y-93493812D01*
X73102000Y-93319741D01*
X73102000Y-93142259D01*
X73136624Y-92968188D01*
X73204544Y-92804216D01*
X73303147Y-92656646D01*
X73428646Y-92531147D01*
X73576216Y-92432544D01*
X73740188Y-92364624D01*
X73889488Y-92334927D01*
X73914258Y-92330000D01*
X74091742Y-92330000D01*
X74116512Y-92334927D01*
G37*
G36*
X71576512Y-92334927D02*
G01*
X71725812Y-92364624D01*
X71889784Y-92432544D01*
X72037354Y-92531147D01*
X72162853Y-92656646D01*
X72261456Y-92804216D01*
X72329376Y-92968188D01*
X72364000Y-93142259D01*
X72364000Y-93319741D01*
X72329376Y-93493812D01*
X72261456Y-93657784D01*
X72162853Y-93805354D01*
X72037354Y-93930853D01*
X71889784Y-94029456D01*
X71725812Y-94097376D01*
X71576512Y-94127073D01*
X71551742Y-94132000D01*
X71374258Y-94132000D01*
X71349488Y-94127073D01*
X71200188Y-94097376D01*
X71036216Y-94029456D01*
X70888646Y-93930853D01*
X70763147Y-93805354D01*
X70664544Y-93657784D01*
X70596624Y-93493812D01*
X70562000Y-93319741D01*
X70562000Y-93142259D01*
X70596624Y-92968188D01*
X70664544Y-92804216D01*
X70763147Y-92656646D01*
X70888646Y-92531147D01*
X71036216Y-92432544D01*
X71200188Y-92364624D01*
X71349488Y-92334927D01*
X71374258Y-92330000D01*
X71551742Y-92330000D01*
X71576512Y-92334927D01*
G37*
G36*
X77444000Y-94132000D02*
G01*
X75642000Y-94132000D01*
X75642000Y-92330000D01*
X77444000Y-92330000D01*
X77444000Y-94132000D01*
G37*
G36*
X55758818Y-90080696D02*
G01*
X55811300Y-90096617D01*
X55835333Y-90101398D01*
X55847586Y-90102000D01*
X56242000Y-90102000D01*
X56242000Y-90637341D01*
X56242602Y-90649593D01*
X56244907Y-90673000D01*
X56242602Y-90696407D01*
X56242000Y-90708659D01*
X56242000Y-92204000D01*
X54646999Y-92204000D01*
X54622613Y-92206402D01*
X54599164Y-92213515D01*
X54593579Y-92216500D01*
X53720000Y-92216500D01*
X53720000Y-91853999D01*
X53717598Y-91829613D01*
X53710485Y-91806164D01*
X53698934Y-91784553D01*
X53683389Y-91765611D01*
X53664447Y-91750066D01*
X53642836Y-91738515D01*
X53619387Y-91731402D01*
X53595001Y-91729000D01*
X52266653Y-91729000D01*
X52264447Y-91727190D01*
X52242836Y-91715639D01*
X52219387Y-91708526D01*
X52207255Y-91706726D01*
X52123679Y-91698495D01*
X51986828Y-91656981D01*
X51986825Y-91656980D01*
X51860706Y-91589568D01*
X51750157Y-91498843D01*
X51659432Y-91388294D01*
X51592020Y-91262175D01*
X51561656Y-91162080D01*
X51550505Y-91125321D01*
X51536488Y-90983000D01*
X51550505Y-90840679D01*
X51592019Y-90703828D01*
X51592020Y-90703825D01*
X51659432Y-90577706D01*
X51750157Y-90467157D01*
X51860706Y-90376432D01*
X51986825Y-90309020D01*
X51986828Y-90309019D01*
X52123679Y-90267505D01*
X52194787Y-90260502D01*
X52230340Y-90257000D01*
X52651660Y-90257000D01*
X52758322Y-90267505D01*
X52771876Y-90271617D01*
X52795909Y-90276398D01*
X52808162Y-90277000D01*
X54515001Y-90277000D01*
X54539387Y-90274598D01*
X54562836Y-90267485D01*
X54584447Y-90255934D01*
X54603389Y-90240389D01*
X54618934Y-90221447D01*
X54630485Y-90199836D01*
X54637598Y-90176387D01*
X54640000Y-90152001D01*
X54640000Y-90102000D01*
X55034414Y-90102000D01*
X55058800Y-90099598D01*
X55070700Y-90096617D01*
X55123182Y-90080696D01*
X55211481Y-90072000D01*
X55670519Y-90072000D01*
X55758818Y-90080696D01*
G37*
G36*
X100050778Y-90192547D02*
G01*
X100217224Y-90261491D01*
X100367022Y-90361583D01*
X100494417Y-90488978D01*
X100594509Y-90638776D01*
X100663453Y-90805222D01*
X100698600Y-90981918D01*
X100698600Y-91162082D01*
X100663453Y-91338778D01*
X100594509Y-91505224D01*
X100494417Y-91655022D01*
X100367022Y-91782417D01*
X100217224Y-91882509D01*
X100050778Y-91951453D01*
X99874082Y-91986600D01*
X99693918Y-91986600D01*
X99517222Y-91951453D01*
X99350776Y-91882509D01*
X99200978Y-91782417D01*
X99073583Y-91655022D01*
X98973491Y-91505224D01*
X98904547Y-91338778D01*
X98869400Y-91162082D01*
X98869400Y-90981918D01*
X98904547Y-90805222D01*
X98973491Y-90638776D01*
X99073583Y-90488978D01*
X99200978Y-90361583D01*
X99350776Y-90261491D01*
X99517222Y-90192547D01*
X99693918Y-90157400D01*
X99874082Y-90157400D01*
X100050778Y-90192547D01*
G37*
G36*
X94970778Y-90192547D02*
G01*
X95137224Y-90261491D01*
X95287022Y-90361583D01*
X95414417Y-90488978D01*
X95514509Y-90638776D01*
X95583453Y-90805222D01*
X95618600Y-90981918D01*
X95618600Y-91162082D01*
X95583453Y-91338778D01*
X95514509Y-91505224D01*
X95414417Y-91655022D01*
X95287022Y-91782417D01*
X95137224Y-91882509D01*
X94970778Y-91951453D01*
X94794082Y-91986600D01*
X94613918Y-91986600D01*
X94437222Y-91951453D01*
X94270776Y-91882509D01*
X94120978Y-91782417D01*
X93993583Y-91655022D01*
X93893491Y-91505224D01*
X93824547Y-91338778D01*
X93789400Y-91162082D01*
X93789400Y-90981918D01*
X93824547Y-90805222D01*
X93893491Y-90638776D01*
X93993583Y-90488978D01*
X94120978Y-90361583D01*
X94270776Y-90261491D01*
X94437222Y-90192547D01*
X94613918Y-90157400D01*
X94794082Y-90157400D01*
X94970778Y-90192547D01*
G37*
G36*
X97510778Y-90192547D02*
G01*
X97677224Y-90261491D01*
X97827022Y-90361583D01*
X97954417Y-90488978D01*
X98054509Y-90638776D01*
X98123453Y-90805222D01*
X98158600Y-90981918D01*
X98158600Y-91162082D01*
X98123453Y-91338778D01*
X98054509Y-91505224D01*
X97954417Y-91655022D01*
X97827022Y-91782417D01*
X97677224Y-91882509D01*
X97510778Y-91951453D01*
X97334082Y-91986600D01*
X97153918Y-91986600D01*
X96977222Y-91951453D01*
X96810776Y-91882509D01*
X96660978Y-91782417D01*
X96533583Y-91655022D01*
X96433491Y-91505224D01*
X96364547Y-91338778D01*
X96329400Y-91162082D01*
X96329400Y-90981918D01*
X96364547Y-90805222D01*
X96433491Y-90638776D01*
X96533583Y-90488978D01*
X96660978Y-90361583D01*
X96810776Y-90261491D01*
X96977222Y-90192547D01*
X97153918Y-90157400D01*
X97334082Y-90157400D01*
X97510778Y-90192547D01*
G37*
G36*
X63900562Y-89902181D02*
G01*
X63935481Y-89912774D01*
X63967663Y-89929976D01*
X63995873Y-89953127D01*
X64019024Y-89981337D01*
X64036226Y-90013519D01*
X64046819Y-90048438D01*
X64051000Y-90090895D01*
X64051000Y-91557105D01*
X64046819Y-91599562D01*
X64036226Y-91634481D01*
X64019024Y-91666663D01*
X63995873Y-91694873D01*
X63967663Y-91718024D01*
X63935481Y-91735226D01*
X63900562Y-91745819D01*
X63858105Y-91750000D01*
X62716895Y-91750000D01*
X62674438Y-91745819D01*
X62639519Y-91735226D01*
X62607337Y-91718024D01*
X62579127Y-91694873D01*
X62555976Y-91666663D01*
X62538774Y-91634481D01*
X62528181Y-91599562D01*
X62524000Y-91557105D01*
X62524000Y-90090895D01*
X62528181Y-90048438D01*
X62538774Y-90013519D01*
X62555976Y-89981337D01*
X62579127Y-89953127D01*
X62607337Y-89929976D01*
X62639519Y-89912774D01*
X62674438Y-89902181D01*
X62716895Y-89898000D01*
X63858105Y-89898000D01*
X63900562Y-89902181D01*
G37*
G36*
X60925562Y-89902181D02*
G01*
X60960481Y-89912774D01*
X60992663Y-89929976D01*
X61020873Y-89953127D01*
X61044024Y-89981337D01*
X61061226Y-90013519D01*
X61071819Y-90048438D01*
X61076000Y-90090895D01*
X61076000Y-91557105D01*
X61071819Y-91599562D01*
X61061226Y-91634481D01*
X61044024Y-91666663D01*
X61020873Y-91694873D01*
X60992663Y-91718024D01*
X60960481Y-91735226D01*
X60925562Y-91745819D01*
X60883105Y-91750000D01*
X59741895Y-91750000D01*
X59699438Y-91745819D01*
X59664519Y-91735226D01*
X59632337Y-91718024D01*
X59604127Y-91694873D01*
X59580976Y-91666663D01*
X59563774Y-91634481D01*
X59553181Y-91599562D01*
X59549000Y-91557105D01*
X59549000Y-90090895D01*
X59553181Y-90048438D01*
X59563774Y-90013519D01*
X59580976Y-89981337D01*
X59604127Y-89953127D01*
X59632337Y-89929976D01*
X59664519Y-89912774D01*
X59699438Y-89902181D01*
X59741895Y-89898000D01*
X60883105Y-89898000D01*
X60925562Y-89902181D01*
G37*
G36*
X53472000Y-89979000D02*
G01*
X50870000Y-89979000D01*
X50870000Y-88447000D01*
X53472000Y-88447000D01*
X53472000Y-89979000D01*
G37*
G36*
X54599164Y-84342485D02*
G01*
X54622613Y-84349598D01*
X54646999Y-84352000D01*
X56222000Y-84352000D01*
X56222000Y-85659379D01*
X56224402Y-85683765D01*
X56227383Y-85695665D01*
X56233304Y-85715182D01*
X56244907Y-85833000D01*
X56233304Y-85950818D01*
X56227383Y-85970335D01*
X56222602Y-85994368D01*
X56222000Y-86006621D01*
X56222000Y-86504759D01*
X56218066Y-86509553D01*
X56206515Y-86531164D01*
X56199402Y-86554613D01*
X56197000Y-86578999D01*
X56197000Y-89804000D01*
X54445000Y-89804000D01*
X54445000Y-86702000D01*
X54495001Y-86702000D01*
X54519387Y-86699598D01*
X54542836Y-86692485D01*
X54564447Y-86680934D01*
X54583389Y-86665389D01*
X54598934Y-86646447D01*
X54610485Y-86624836D01*
X54617598Y-86601387D01*
X54620000Y-86577001D01*
X54620000Y-86391499D01*
X54617598Y-86367113D01*
X54610485Y-86343664D01*
X54598934Y-86322053D01*
X54583389Y-86303111D01*
X54564447Y-86287566D01*
X54542836Y-86276015D01*
X54519387Y-86268902D01*
X54495001Y-86266500D01*
X53657775Y-86266500D01*
X53642836Y-86258515D01*
X53619387Y-86251402D01*
X53595001Y-86249000D01*
X52220950Y-86249000D01*
X52219387Y-86248526D01*
X52207255Y-86246726D01*
X52123679Y-86238495D01*
X51986828Y-86196981D01*
X51986825Y-86196980D01*
X51860706Y-86129568D01*
X51750157Y-86038843D01*
X51659432Y-85928294D01*
X51592020Y-85802175D01*
X51565631Y-85715184D01*
X51550505Y-85665321D01*
X51536488Y-85523000D01*
X51550505Y-85380679D01*
X51592019Y-85243828D01*
X51592020Y-85243825D01*
X51659432Y-85117706D01*
X51750157Y-85007157D01*
X51860706Y-84916432D01*
X51986825Y-84849020D01*
X51986828Y-84849019D01*
X52123679Y-84807505D01*
X52207254Y-84799274D01*
X52218686Y-84797000D01*
X53595001Y-84797000D01*
X53619387Y-84794598D01*
X53642836Y-84787485D01*
X53664447Y-84775934D01*
X53683389Y-84760389D01*
X53698934Y-84741447D01*
X53710485Y-84719836D01*
X53717598Y-84696387D01*
X53720000Y-84672001D01*
X53720000Y-84339500D01*
X54593579Y-84339500D01*
X54599164Y-84342485D01*
G37*
G36*
X97510778Y-87652547D02*
G01*
X97677224Y-87721491D01*
X97827022Y-87821583D01*
X97954417Y-87948978D01*
X98054509Y-88098776D01*
X98123453Y-88265222D01*
X98158600Y-88441918D01*
X98158600Y-88622082D01*
X98123453Y-88798778D01*
X98054509Y-88965224D01*
X97954417Y-89115022D01*
X97827022Y-89242417D01*
X97677224Y-89342509D01*
X97510778Y-89411453D01*
X97334082Y-89446600D01*
X97153918Y-89446600D01*
X96977222Y-89411453D01*
X96810776Y-89342509D01*
X96660978Y-89242417D01*
X96533583Y-89115022D01*
X96433491Y-88965224D01*
X96364547Y-88798778D01*
X96329400Y-88622082D01*
X96329400Y-88441918D01*
X96364547Y-88265222D01*
X96433491Y-88098776D01*
X96533583Y-87948978D01*
X96660978Y-87821583D01*
X96810776Y-87721491D01*
X96977222Y-87652547D01*
X97153918Y-87617400D01*
X97334082Y-87617400D01*
X97510778Y-87652547D01*
G37*
G36*
X94970778Y-87652547D02*
G01*
X95137224Y-87721491D01*
X95287022Y-87821583D01*
X95414417Y-87948978D01*
X95514509Y-88098776D01*
X95583453Y-88265222D01*
X95618600Y-88441918D01*
X95618600Y-88622082D01*
X95583453Y-88798778D01*
X95514509Y-88965224D01*
X95414417Y-89115022D01*
X95287022Y-89242417D01*
X95137224Y-89342509D01*
X94970778Y-89411453D01*
X94794082Y-89446600D01*
X94613918Y-89446600D01*
X94437222Y-89411453D01*
X94270776Y-89342509D01*
X94120978Y-89242417D01*
X93993583Y-89115022D01*
X93893491Y-88965224D01*
X93824547Y-88798778D01*
X93789400Y-88622082D01*
X93789400Y-88441918D01*
X93824547Y-88265222D01*
X93893491Y-88098776D01*
X93993583Y-87948978D01*
X94120978Y-87821583D01*
X94270776Y-87721491D01*
X94437222Y-87652547D01*
X94613918Y-87617400D01*
X94794082Y-87617400D01*
X94970778Y-87652547D01*
G37*
G36*
X100698600Y-89446600D02*
G01*
X98869400Y-89446600D01*
X98869400Y-87617400D01*
X100698600Y-87617400D01*
X100698600Y-89446600D01*
G37*
G36*
X63900562Y-87362181D02*
G01*
X63935481Y-87372774D01*
X63967663Y-87389976D01*
X63995873Y-87413127D01*
X64019024Y-87441337D01*
X64036226Y-87473519D01*
X64046819Y-87508438D01*
X64051000Y-87550895D01*
X64051000Y-89017105D01*
X64046819Y-89059562D01*
X64036226Y-89094481D01*
X64019024Y-89126663D01*
X63995873Y-89154873D01*
X63967663Y-89178024D01*
X63935481Y-89195226D01*
X63900562Y-89205819D01*
X63858105Y-89210000D01*
X62716895Y-89210000D01*
X62674438Y-89205819D01*
X62639519Y-89195226D01*
X62607337Y-89178024D01*
X62579127Y-89154873D01*
X62555976Y-89126663D01*
X62538774Y-89094481D01*
X62528181Y-89059562D01*
X62524000Y-89017105D01*
X62524000Y-87550895D01*
X62528181Y-87508438D01*
X62538774Y-87473519D01*
X62555976Y-87441337D01*
X62579127Y-87413127D01*
X62607337Y-87389976D01*
X62639519Y-87372774D01*
X62674438Y-87362181D01*
X62716895Y-87358000D01*
X63858105Y-87358000D01*
X63900562Y-87362181D01*
G37*
G36*
X60925562Y-87362181D02*
G01*
X60960481Y-87372774D01*
X60992663Y-87389976D01*
X61020873Y-87413127D01*
X61044024Y-87441337D01*
X61061226Y-87473519D01*
X61071819Y-87508438D01*
X61076000Y-87550895D01*
X61076000Y-89017105D01*
X61071819Y-89059562D01*
X61061226Y-89094481D01*
X61044024Y-89126663D01*
X61020873Y-89154873D01*
X60992663Y-89178024D01*
X60960481Y-89195226D01*
X60925562Y-89205819D01*
X60883105Y-89210000D01*
X59741895Y-89210000D01*
X59699438Y-89205819D01*
X59664519Y-89195226D01*
X59632337Y-89178024D01*
X59604127Y-89154873D01*
X59580976Y-89126663D01*
X59563774Y-89094481D01*
X59553181Y-89059562D01*
X59549000Y-89017105D01*
X59549000Y-87550895D01*
X59553181Y-87508438D01*
X59563774Y-87473519D01*
X59580976Y-87441337D01*
X59604127Y-87413127D01*
X59632337Y-87389976D01*
X59664519Y-87372774D01*
X59699438Y-87362181D01*
X59741895Y-87358000D01*
X60883105Y-87358000D01*
X60925562Y-87362181D01*
G37*
G36*
X75759062Y-87356181D02*
G01*
X75793981Y-87366774D01*
X75826163Y-87383976D01*
X75854373Y-87407127D01*
X75877524Y-87435337D01*
X75894726Y-87467519D01*
X75905319Y-87502438D01*
X75909500Y-87544895D01*
X75909500Y-89011105D01*
X75905319Y-89053562D01*
X75894726Y-89088481D01*
X75877524Y-89120663D01*
X75854373Y-89148873D01*
X75826163Y-89172024D01*
X75793981Y-89189226D01*
X75759062Y-89199819D01*
X75716605Y-89204000D01*
X74575395Y-89204000D01*
X74532938Y-89199819D01*
X74498019Y-89189226D01*
X74465837Y-89172024D01*
X74437627Y-89148873D01*
X74414476Y-89120663D01*
X74397274Y-89088481D01*
X74386681Y-89053562D01*
X74382500Y-89011105D01*
X74382500Y-87544895D01*
X74386681Y-87502438D01*
X74397274Y-87467519D01*
X74414476Y-87435337D01*
X74437627Y-87407127D01*
X74465837Y-87383976D01*
X74498019Y-87366774D01*
X74532938Y-87356181D01*
X74575395Y-87352000D01*
X75716605Y-87352000D01*
X75759062Y-87356181D01*
G37*
G36*
X72784062Y-87356181D02*
G01*
X72818981Y-87366774D01*
X72851163Y-87383976D01*
X72879373Y-87407127D01*
X72902524Y-87435337D01*
X72919726Y-87467519D01*
X72930319Y-87502438D01*
X72934500Y-87544895D01*
X72934500Y-89011105D01*
X72930319Y-89053562D01*
X72919726Y-89088481D01*
X72902524Y-89120663D01*
X72879373Y-89148873D01*
X72851163Y-89172024D01*
X72818981Y-89189226D01*
X72784062Y-89199819D01*
X72741605Y-89204000D01*
X71600395Y-89204000D01*
X71557938Y-89199819D01*
X71523019Y-89189226D01*
X71490837Y-89172024D01*
X71462627Y-89148873D01*
X71439476Y-89120663D01*
X71422274Y-89088481D01*
X71411681Y-89053562D01*
X71407500Y-89011105D01*
X71407500Y-87544895D01*
X71411681Y-87502438D01*
X71422274Y-87467519D01*
X71439476Y-87435337D01*
X71462627Y-87407127D01*
X71490837Y-87383976D01*
X71523019Y-87366774D01*
X71557938Y-87356181D01*
X71600395Y-87352000D01*
X72741605Y-87352000D01*
X72784062Y-87356181D01*
G37*
G36*
X53472000Y-88059000D02*
G01*
X50870000Y-88059000D01*
X50870000Y-86527000D01*
X53472000Y-86527000D01*
X53472000Y-88059000D01*
G37*
G36*
X129901000Y-87901000D02*
G01*
X128099000Y-87901000D01*
X128099000Y-86099000D01*
X129901000Y-86099000D01*
X129901000Y-87901000D01*
G37*
G36*
X139273512Y-86103927D02*
G01*
X139422812Y-86133624D01*
X139586784Y-86201544D01*
X139734354Y-86300147D01*
X139859853Y-86425646D01*
X139958456Y-86573216D01*
X140026376Y-86737188D01*
X140061000Y-86911259D01*
X140061000Y-87088741D01*
X140026376Y-87262812D01*
X139958456Y-87426784D01*
X139859853Y-87574354D01*
X139734354Y-87699853D01*
X139586784Y-87798456D01*
X139422812Y-87866376D01*
X139273512Y-87896073D01*
X139248742Y-87901000D01*
X139071258Y-87901000D01*
X139046488Y-87896073D01*
X138897188Y-87866376D01*
X138733216Y-87798456D01*
X138585646Y-87699853D01*
X138460147Y-87574354D01*
X138361544Y-87426784D01*
X138293624Y-87262812D01*
X138259000Y-87088741D01*
X138259000Y-86911259D01*
X138293624Y-86737188D01*
X138361544Y-86573216D01*
X138460147Y-86425646D01*
X138585646Y-86300147D01*
X138733216Y-86201544D01*
X138897188Y-86133624D01*
X139046488Y-86103927D01*
X139071258Y-86099000D01*
X139248742Y-86099000D01*
X139273512Y-86103927D01*
G37*
G36*
X136733512Y-86103927D02*
G01*
X136882812Y-86133624D01*
X137046784Y-86201544D01*
X137194354Y-86300147D01*
X137319853Y-86425646D01*
X137418456Y-86573216D01*
X137486376Y-86737188D01*
X137521000Y-86911259D01*
X137521000Y-87088741D01*
X137486376Y-87262812D01*
X137418456Y-87426784D01*
X137319853Y-87574354D01*
X137194354Y-87699853D01*
X137046784Y-87798456D01*
X136882812Y-87866376D01*
X136733512Y-87896073D01*
X136708742Y-87901000D01*
X136531258Y-87901000D01*
X136506488Y-87896073D01*
X136357188Y-87866376D01*
X136193216Y-87798456D01*
X136045646Y-87699853D01*
X135920147Y-87574354D01*
X135821544Y-87426784D01*
X135753624Y-87262812D01*
X135719000Y-87088741D01*
X135719000Y-86911259D01*
X135753624Y-86737188D01*
X135821544Y-86573216D01*
X135920147Y-86425646D01*
X136045646Y-86300147D01*
X136193216Y-86201544D01*
X136357188Y-86133624D01*
X136506488Y-86103927D01*
X136531258Y-86099000D01*
X136708742Y-86099000D01*
X136733512Y-86103927D01*
G37*
G36*
X134193512Y-86103927D02*
G01*
X134342812Y-86133624D01*
X134506784Y-86201544D01*
X134654354Y-86300147D01*
X134779853Y-86425646D01*
X134878456Y-86573216D01*
X134946376Y-86737188D01*
X134981000Y-86911259D01*
X134981000Y-87088741D01*
X134946376Y-87262812D01*
X134878456Y-87426784D01*
X134779853Y-87574354D01*
X134654354Y-87699853D01*
X134506784Y-87798456D01*
X134342812Y-87866376D01*
X134193512Y-87896073D01*
X134168742Y-87901000D01*
X133991258Y-87901000D01*
X133966488Y-87896073D01*
X133817188Y-87866376D01*
X133653216Y-87798456D01*
X133505646Y-87699853D01*
X133380147Y-87574354D01*
X133281544Y-87426784D01*
X133213624Y-87262812D01*
X133179000Y-87088741D01*
X133179000Y-86911259D01*
X133213624Y-86737188D01*
X133281544Y-86573216D01*
X133380147Y-86425646D01*
X133505646Y-86300147D01*
X133653216Y-86201544D01*
X133817188Y-86133624D01*
X133966488Y-86103927D01*
X133991258Y-86099000D01*
X134168742Y-86099000D01*
X134193512Y-86103927D01*
G37*
G36*
X146893512Y-86103927D02*
G01*
X147042812Y-86133624D01*
X147206784Y-86201544D01*
X147354354Y-86300147D01*
X147479853Y-86425646D01*
X147578456Y-86573216D01*
X147646376Y-86737188D01*
X147681000Y-86911259D01*
X147681000Y-87088741D01*
X147646376Y-87262812D01*
X147578456Y-87426784D01*
X147479853Y-87574354D01*
X147354354Y-87699853D01*
X147206784Y-87798456D01*
X147042812Y-87866376D01*
X146893512Y-87896073D01*
X146868742Y-87901000D01*
X146691258Y-87901000D01*
X146666488Y-87896073D01*
X146517188Y-87866376D01*
X146353216Y-87798456D01*
X146205646Y-87699853D01*
X146080147Y-87574354D01*
X145981544Y-87426784D01*
X145913624Y-87262812D01*
X145879000Y-87088741D01*
X145879000Y-86911259D01*
X145913624Y-86737188D01*
X145981544Y-86573216D01*
X146080147Y-86425646D01*
X146205646Y-86300147D01*
X146353216Y-86201544D01*
X146517188Y-86133624D01*
X146666488Y-86103927D01*
X146691258Y-86099000D01*
X146868742Y-86099000D01*
X146893512Y-86103927D01*
G37*
G36*
X131653512Y-86103927D02*
G01*
X131802812Y-86133624D01*
X131966784Y-86201544D01*
X132114354Y-86300147D01*
X132239853Y-86425646D01*
X132338456Y-86573216D01*
X132406376Y-86737188D01*
X132441000Y-86911259D01*
X132441000Y-87088741D01*
X132406376Y-87262812D01*
X132338456Y-87426784D01*
X132239853Y-87574354D01*
X132114354Y-87699853D01*
X131966784Y-87798456D01*
X131802812Y-87866376D01*
X131653512Y-87896073D01*
X131628742Y-87901000D01*
X131451258Y-87901000D01*
X131426488Y-87896073D01*
X131277188Y-87866376D01*
X131113216Y-87798456D01*
X130965646Y-87699853D01*
X130840147Y-87574354D01*
X130741544Y-87426784D01*
X130673624Y-87262812D01*
X130639000Y-87088741D01*
X130639000Y-86911259D01*
X130673624Y-86737188D01*
X130741544Y-86573216D01*
X130840147Y-86425646D01*
X130965646Y-86300147D01*
X131113216Y-86201544D01*
X131277188Y-86133624D01*
X131426488Y-86103927D01*
X131451258Y-86099000D01*
X131628742Y-86099000D01*
X131653512Y-86103927D01*
G37*
G36*
X141813512Y-86103927D02*
G01*
X141962812Y-86133624D01*
X142126784Y-86201544D01*
X142274354Y-86300147D01*
X142399853Y-86425646D01*
X142498456Y-86573216D01*
X142566376Y-86737188D01*
X142601000Y-86911259D01*
X142601000Y-87088741D01*
X142566376Y-87262812D01*
X142498456Y-87426784D01*
X142399853Y-87574354D01*
X142274354Y-87699853D01*
X142126784Y-87798456D01*
X141962812Y-87866376D01*
X141813512Y-87896073D01*
X141788742Y-87901000D01*
X141611258Y-87901000D01*
X141586488Y-87896073D01*
X141437188Y-87866376D01*
X141273216Y-87798456D01*
X141125646Y-87699853D01*
X141000147Y-87574354D01*
X140901544Y-87426784D01*
X140833624Y-87262812D01*
X140799000Y-87088741D01*
X140799000Y-86911259D01*
X140833624Y-86737188D01*
X140901544Y-86573216D01*
X141000147Y-86425646D01*
X141125646Y-86300147D01*
X141273216Y-86201544D01*
X141437188Y-86133624D01*
X141586488Y-86103927D01*
X141611258Y-86099000D01*
X141788742Y-86099000D01*
X141813512Y-86103927D01*
G37*
G36*
X144353512Y-86103927D02*
G01*
X144502812Y-86133624D01*
X144666784Y-86201544D01*
X144814354Y-86300147D01*
X144939853Y-86425646D01*
X145038456Y-86573216D01*
X145106376Y-86737188D01*
X145141000Y-86911259D01*
X145141000Y-87088741D01*
X145106376Y-87262812D01*
X145038456Y-87426784D01*
X144939853Y-87574354D01*
X144814354Y-87699853D01*
X144666784Y-87798456D01*
X144502812Y-87866376D01*
X144353512Y-87896073D01*
X144328742Y-87901000D01*
X144151258Y-87901000D01*
X144126488Y-87896073D01*
X143977188Y-87866376D01*
X143813216Y-87798456D01*
X143665646Y-87699853D01*
X143540147Y-87574354D01*
X143441544Y-87426784D01*
X143373624Y-87262812D01*
X143339000Y-87088741D01*
X143339000Y-86911259D01*
X143373624Y-86737188D01*
X143441544Y-86573216D01*
X143540147Y-86425646D01*
X143665646Y-86300147D01*
X143813216Y-86201544D01*
X143977188Y-86133624D01*
X144126488Y-86103927D01*
X144151258Y-86099000D01*
X144328742Y-86099000D01*
X144353512Y-86103927D01*
G37*
G36*
X61133500Y-86000000D02*
G01*
X59351500Y-86000000D01*
X59351500Y-82948000D01*
X61133500Y-82948000D01*
X61133500Y-86000000D01*
G37*
G36*
X63813500Y-86000000D02*
G01*
X62031500Y-86000000D01*
X62031500Y-82948000D01*
X63813500Y-82948000D01*
X63813500Y-86000000D01*
G37*
G36*
X54575562Y-81012181D02*
G01*
X54610481Y-81022774D01*
X54642663Y-81039976D01*
X54670873Y-81063127D01*
X54694024Y-81091337D01*
X54711226Y-81123519D01*
X54721819Y-81158438D01*
X54726000Y-81200895D01*
X54726000Y-82667105D01*
X54721819Y-82709562D01*
X54711226Y-82744481D01*
X54694024Y-82776663D01*
X54670873Y-82804873D01*
X54642663Y-82828024D01*
X54610481Y-82845226D01*
X54575562Y-82855819D01*
X54533105Y-82860000D01*
X53391895Y-82860000D01*
X53349438Y-82855819D01*
X53314519Y-82845226D01*
X53282337Y-82828024D01*
X53254127Y-82804873D01*
X53230976Y-82776663D01*
X53213774Y-82744481D01*
X53203181Y-82709562D01*
X53199000Y-82667105D01*
X53199000Y-81200895D01*
X53203181Y-81158438D01*
X53213774Y-81123519D01*
X53230976Y-81091337D01*
X53254127Y-81063127D01*
X53282337Y-81039976D01*
X53314519Y-81022774D01*
X53349438Y-81012181D01*
X53391895Y-81008000D01*
X54533105Y-81008000D01*
X54575562Y-81012181D01*
G37*
G36*
X57550562Y-81012181D02*
G01*
X57585481Y-81022774D01*
X57617663Y-81039976D01*
X57645873Y-81063127D01*
X57669024Y-81091337D01*
X57686226Y-81123519D01*
X57696819Y-81158438D01*
X57701000Y-81200895D01*
X57701000Y-82667105D01*
X57696819Y-82709562D01*
X57686226Y-82744481D01*
X57669024Y-82776663D01*
X57645873Y-82804873D01*
X57617663Y-82828024D01*
X57585481Y-82845226D01*
X57550562Y-82855819D01*
X57508105Y-82860000D01*
X56366895Y-82860000D01*
X56324438Y-82855819D01*
X56289519Y-82845226D01*
X56257337Y-82828024D01*
X56229127Y-82804873D01*
X56205976Y-82776663D01*
X56188774Y-82744481D01*
X56178181Y-82709562D01*
X56174000Y-82667105D01*
X56174000Y-81200895D01*
X56178181Y-81158438D01*
X56188774Y-81123519D01*
X56205976Y-81091337D01*
X56229127Y-81063127D01*
X56257337Y-81039976D01*
X56289519Y-81022774D01*
X56324438Y-81012181D01*
X56366895Y-81008000D01*
X57508105Y-81008000D01*
X57550562Y-81012181D01*
G37*
G36*
X76084500Y-82391000D02*
G01*
X69867500Y-82391000D01*
X69867500Y-81089000D01*
X76084500Y-81089000D01*
X76084500Y-82391000D01*
G37*
G36*
X54575562Y-78472181D02*
G01*
X54610481Y-78482774D01*
X54642663Y-78499976D01*
X54670873Y-78523127D01*
X54694024Y-78551337D01*
X54711226Y-78583519D01*
X54721819Y-78618438D01*
X54726000Y-78660895D01*
X54726000Y-80127105D01*
X54721819Y-80169562D01*
X54711226Y-80204481D01*
X54694024Y-80236663D01*
X54670873Y-80264873D01*
X54642663Y-80288024D01*
X54610481Y-80305226D01*
X54575562Y-80315819D01*
X54533105Y-80320000D01*
X53391895Y-80320000D01*
X53349438Y-80315819D01*
X53314519Y-80305226D01*
X53282337Y-80288024D01*
X53254127Y-80264873D01*
X53230976Y-80236663D01*
X53213774Y-80204481D01*
X53203181Y-80169562D01*
X53199000Y-80127105D01*
X53199000Y-78660895D01*
X53203181Y-78618438D01*
X53213774Y-78583519D01*
X53230976Y-78551337D01*
X53254127Y-78523127D01*
X53282337Y-78499976D01*
X53314519Y-78482774D01*
X53349438Y-78472181D01*
X53391895Y-78468000D01*
X54533105Y-78468000D01*
X54575562Y-78472181D01*
G37*
G36*
X57550562Y-78472181D02*
G01*
X57585481Y-78482774D01*
X57617663Y-78499976D01*
X57645873Y-78523127D01*
X57669024Y-78551337D01*
X57686226Y-78583519D01*
X57696819Y-78618438D01*
X57701000Y-78660895D01*
X57701000Y-80127105D01*
X57696819Y-80169562D01*
X57686226Y-80204481D01*
X57669024Y-80236663D01*
X57645873Y-80264873D01*
X57617663Y-80288024D01*
X57585481Y-80305226D01*
X57550562Y-80315819D01*
X57508105Y-80320000D01*
X56366895Y-80320000D01*
X56324438Y-80315819D01*
X56289519Y-80305226D01*
X56257337Y-80288024D01*
X56229127Y-80264873D01*
X56205976Y-80236663D01*
X56188774Y-80204481D01*
X56178181Y-80169562D01*
X56174000Y-80127105D01*
X56174000Y-78660895D01*
X56178181Y-78618438D01*
X56188774Y-78583519D01*
X56205976Y-78551337D01*
X56229127Y-78523127D01*
X56257337Y-78499976D01*
X56289519Y-78482774D01*
X56324438Y-78472181D01*
X56366895Y-78468000D01*
X57508105Y-78468000D01*
X57550562Y-78472181D01*
G37*
G36*
X124901000Y-78901000D02*
G01*
X123099000Y-78901000D01*
X123099000Y-77099000D01*
X124901000Y-77099000D01*
X124901000Y-78901000D01*
G37*
G36*
X141893512Y-77103927D02*
G01*
X142042812Y-77133624D01*
X142206784Y-77201544D01*
X142354354Y-77300147D01*
X142479853Y-77425646D01*
X142578456Y-77573216D01*
X142646376Y-77737188D01*
X142681000Y-77911259D01*
X142681000Y-78088741D01*
X142646376Y-78262812D01*
X142578456Y-78426784D01*
X142479853Y-78574354D01*
X142354354Y-78699853D01*
X142206784Y-78798456D01*
X142042812Y-78866376D01*
X141893512Y-78896073D01*
X141868742Y-78901000D01*
X141691258Y-78901000D01*
X141666488Y-78896073D01*
X141517188Y-78866376D01*
X141353216Y-78798456D01*
X141205646Y-78699853D01*
X141080147Y-78574354D01*
X140981544Y-78426784D01*
X140913624Y-78262812D01*
X140879000Y-78088741D01*
X140879000Y-77911259D01*
X140913624Y-77737188D01*
X140981544Y-77573216D01*
X141080147Y-77425646D01*
X141205646Y-77300147D01*
X141353216Y-77201544D01*
X141517188Y-77133624D01*
X141666488Y-77103927D01*
X141691258Y-77099000D01*
X141868742Y-77099000D01*
X141893512Y-77103927D01*
G37*
G36*
X144433512Y-77103927D02*
G01*
X144582812Y-77133624D01*
X144746784Y-77201544D01*
X144894354Y-77300147D01*
X145019853Y-77425646D01*
X145118456Y-77573216D01*
X145186376Y-77737188D01*
X145221000Y-77911259D01*
X145221000Y-78088741D01*
X145186376Y-78262812D01*
X145118456Y-78426784D01*
X145019853Y-78574354D01*
X144894354Y-78699853D01*
X144746784Y-78798456D01*
X144582812Y-78866376D01*
X144433512Y-78896073D01*
X144408742Y-78901000D01*
X144231258Y-78901000D01*
X144206488Y-78896073D01*
X144057188Y-78866376D01*
X143893216Y-78798456D01*
X143745646Y-78699853D01*
X143620147Y-78574354D01*
X143521544Y-78426784D01*
X143453624Y-78262812D01*
X143419000Y-78088741D01*
X143419000Y-77911259D01*
X143453624Y-77737188D01*
X143521544Y-77573216D01*
X143620147Y-77425646D01*
X143745646Y-77300147D01*
X143893216Y-77201544D01*
X144057188Y-77133624D01*
X144206488Y-77103927D01*
X144231258Y-77099000D01*
X144408742Y-77099000D01*
X144433512Y-77103927D01*
G37*
G36*
X146973512Y-77103927D02*
G01*
X147122812Y-77133624D01*
X147286784Y-77201544D01*
X147434354Y-77300147D01*
X147559853Y-77425646D01*
X147658456Y-77573216D01*
X147726376Y-77737188D01*
X147761000Y-77911259D01*
X147761000Y-78088741D01*
X147726376Y-78262812D01*
X147658456Y-78426784D01*
X147559853Y-78574354D01*
X147434354Y-78699853D01*
X147286784Y-78798456D01*
X147122812Y-78866376D01*
X146973512Y-78896073D01*
X146948742Y-78901000D01*
X146771258Y-78901000D01*
X146746488Y-78896073D01*
X146597188Y-78866376D01*
X146433216Y-78798456D01*
X146285646Y-78699853D01*
X146160147Y-78574354D01*
X146061544Y-78426784D01*
X145993624Y-78262812D01*
X145959000Y-78088741D01*
X145959000Y-77911259D01*
X145993624Y-77737188D01*
X146061544Y-77573216D01*
X146160147Y-77425646D01*
X146285646Y-77300147D01*
X146433216Y-77201544D01*
X146597188Y-77133624D01*
X146746488Y-77103927D01*
X146771258Y-77099000D01*
X146948742Y-77099000D01*
X146973512Y-77103927D01*
G37*
G36*
X139353512Y-77103927D02*
G01*
X139502812Y-77133624D01*
X139666784Y-77201544D01*
X139814354Y-77300147D01*
X139939853Y-77425646D01*
X140038456Y-77573216D01*
X140106376Y-77737188D01*
X140141000Y-77911259D01*
X140141000Y-78088741D01*
X140106376Y-78262812D01*
X140038456Y-78426784D01*
X139939853Y-78574354D01*
X139814354Y-78699853D01*
X139666784Y-78798456D01*
X139502812Y-78866376D01*
X139353512Y-78896073D01*
X139328742Y-78901000D01*
X139151258Y-78901000D01*
X139126488Y-78896073D01*
X138977188Y-78866376D01*
X138813216Y-78798456D01*
X138665646Y-78699853D01*
X138540147Y-78574354D01*
X138441544Y-78426784D01*
X138373624Y-78262812D01*
X138339000Y-78088741D01*
X138339000Y-77911259D01*
X138373624Y-77737188D01*
X138441544Y-77573216D01*
X138540147Y-77425646D01*
X138665646Y-77300147D01*
X138813216Y-77201544D01*
X138977188Y-77133624D01*
X139126488Y-77103927D01*
X139151258Y-77099000D01*
X139328742Y-77099000D01*
X139353512Y-77103927D01*
G37*
G36*
X136813512Y-77103927D02*
G01*
X136962812Y-77133624D01*
X137126784Y-77201544D01*
X137274354Y-77300147D01*
X137399853Y-77425646D01*
X137498456Y-77573216D01*
X137566376Y-77737188D01*
X137601000Y-77911259D01*
X137601000Y-78088741D01*
X137566376Y-78262812D01*
X137498456Y-78426784D01*
X137399853Y-78574354D01*
X137274354Y-78699853D01*
X137126784Y-78798456D01*
X136962812Y-78866376D01*
X136813512Y-78896073D01*
X136788742Y-78901000D01*
X136611258Y-78901000D01*
X136586488Y-78896073D01*
X136437188Y-78866376D01*
X136273216Y-78798456D01*
X136125646Y-78699853D01*
X136000147Y-78574354D01*
X135901544Y-78426784D01*
X135833624Y-78262812D01*
X135799000Y-78088741D01*
X135799000Y-77911259D01*
X135833624Y-77737188D01*
X135901544Y-77573216D01*
X136000147Y-77425646D01*
X136125646Y-77300147D01*
X136273216Y-77201544D01*
X136437188Y-77133624D01*
X136586488Y-77103927D01*
X136611258Y-77099000D01*
X136788742Y-77099000D01*
X136813512Y-77103927D01*
G37*
G36*
X134273512Y-77103927D02*
G01*
X134422812Y-77133624D01*
X134586784Y-77201544D01*
X134734354Y-77300147D01*
X134859853Y-77425646D01*
X134958456Y-77573216D01*
X135026376Y-77737188D01*
X135061000Y-77911259D01*
X135061000Y-78088741D01*
X135026376Y-78262812D01*
X134958456Y-78426784D01*
X134859853Y-78574354D01*
X134734354Y-78699853D01*
X134586784Y-78798456D01*
X134422812Y-78866376D01*
X134273512Y-78896073D01*
X134248742Y-78901000D01*
X134071258Y-78901000D01*
X134046488Y-78896073D01*
X133897188Y-78866376D01*
X133733216Y-78798456D01*
X133585646Y-78699853D01*
X133460147Y-78574354D01*
X133361544Y-78426784D01*
X133293624Y-78262812D01*
X133259000Y-78088741D01*
X133259000Y-77911259D01*
X133293624Y-77737188D01*
X133361544Y-77573216D01*
X133460147Y-77425646D01*
X133585646Y-77300147D01*
X133733216Y-77201544D01*
X133897188Y-77133624D01*
X134046488Y-77103927D01*
X134071258Y-77099000D01*
X134248742Y-77099000D01*
X134273512Y-77103927D01*
G37*
G36*
X131733512Y-77103927D02*
G01*
X131882812Y-77133624D01*
X132046784Y-77201544D01*
X132194354Y-77300147D01*
X132319853Y-77425646D01*
X132418456Y-77573216D01*
X132486376Y-77737188D01*
X132521000Y-77911259D01*
X132521000Y-78088741D01*
X132486376Y-78262812D01*
X132418456Y-78426784D01*
X132319853Y-78574354D01*
X132194354Y-78699853D01*
X132046784Y-78798456D01*
X131882812Y-78866376D01*
X131733512Y-78896073D01*
X131708742Y-78901000D01*
X131531258Y-78901000D01*
X131506488Y-78896073D01*
X131357188Y-78866376D01*
X131193216Y-78798456D01*
X131045646Y-78699853D01*
X130920147Y-78574354D01*
X130821544Y-78426784D01*
X130753624Y-78262812D01*
X130719000Y-78088741D01*
X130719000Y-77911259D01*
X130753624Y-77737188D01*
X130821544Y-77573216D01*
X130920147Y-77425646D01*
X131045646Y-77300147D01*
X131193216Y-77201544D01*
X131357188Y-77133624D01*
X131506488Y-77103927D01*
X131531258Y-77099000D01*
X131708742Y-77099000D01*
X131733512Y-77103927D01*
G37*
G36*
X129193512Y-77103927D02*
G01*
X129342812Y-77133624D01*
X129506784Y-77201544D01*
X129654354Y-77300147D01*
X129779853Y-77425646D01*
X129878456Y-77573216D01*
X129946376Y-77737188D01*
X129981000Y-77911259D01*
X129981000Y-78088741D01*
X129946376Y-78262812D01*
X129878456Y-78426784D01*
X129779853Y-78574354D01*
X129654354Y-78699853D01*
X129506784Y-78798456D01*
X129342812Y-78866376D01*
X129193512Y-78896073D01*
X129168742Y-78901000D01*
X128991258Y-78901000D01*
X128966488Y-78896073D01*
X128817188Y-78866376D01*
X128653216Y-78798456D01*
X128505646Y-78699853D01*
X128380147Y-78574354D01*
X128281544Y-78426784D01*
X128213624Y-78262812D01*
X128179000Y-78088741D01*
X128179000Y-77911259D01*
X128213624Y-77737188D01*
X128281544Y-77573216D01*
X128380147Y-77425646D01*
X128505646Y-77300147D01*
X128653216Y-77201544D01*
X128817188Y-77133624D01*
X128966488Y-77103927D01*
X128991258Y-77099000D01*
X129168742Y-77099000D01*
X129193512Y-77103927D01*
G37*
G36*
X126653512Y-77103927D02*
G01*
X126802812Y-77133624D01*
X126966784Y-77201544D01*
X127114354Y-77300147D01*
X127239853Y-77425646D01*
X127338456Y-77573216D01*
X127406376Y-77737188D01*
X127441000Y-77911259D01*
X127441000Y-78088741D01*
X127406376Y-78262812D01*
X127338456Y-78426784D01*
X127239853Y-78574354D01*
X127114354Y-78699853D01*
X126966784Y-78798456D01*
X126802812Y-78866376D01*
X126653512Y-78896073D01*
X126628742Y-78901000D01*
X126451258Y-78901000D01*
X126426488Y-78896073D01*
X126277188Y-78866376D01*
X126113216Y-78798456D01*
X125965646Y-78699853D01*
X125840147Y-78574354D01*
X125741544Y-78426784D01*
X125673624Y-78262812D01*
X125639000Y-78088741D01*
X125639000Y-77911259D01*
X125673624Y-77737188D01*
X125741544Y-77573216D01*
X125840147Y-77425646D01*
X125965646Y-77300147D01*
X126113216Y-77201544D01*
X126277188Y-77133624D01*
X126426488Y-77103927D01*
X126451258Y-77099000D01*
X126628742Y-77099000D01*
X126653512Y-77103927D01*
G37*
G36*
X118113512Y-76803927D02*
G01*
X118262812Y-76833624D01*
X118426784Y-76901544D01*
X118574354Y-77000147D01*
X118699853Y-77125646D01*
X118798456Y-77273216D01*
X118866376Y-77437188D01*
X118901000Y-77611259D01*
X118901000Y-77788741D01*
X118866376Y-77962812D01*
X118798456Y-78126784D01*
X118699853Y-78274354D01*
X118574354Y-78399853D01*
X118426784Y-78498456D01*
X118262812Y-78566376D01*
X118113512Y-78596073D01*
X118088742Y-78601000D01*
X117911258Y-78601000D01*
X117886488Y-78596073D01*
X117737188Y-78566376D01*
X117573216Y-78498456D01*
X117425646Y-78399853D01*
X117300147Y-78274354D01*
X117201544Y-78126784D01*
X117133624Y-77962812D01*
X117099000Y-77788741D01*
X117099000Y-77611259D01*
X117133624Y-77437188D01*
X117201544Y-77273216D01*
X117300147Y-77125646D01*
X117425646Y-77000147D01*
X117573216Y-76901544D01*
X117737188Y-76833624D01*
X117886488Y-76803927D01*
X117911258Y-76799000D01*
X118088742Y-76799000D01*
X118113512Y-76803927D01*
G37*
G36*
X85955562Y-76180181D02*
G01*
X85990481Y-76190774D01*
X86022663Y-76207976D01*
X86050873Y-76231127D01*
X86074024Y-76259337D01*
X86091226Y-76291519D01*
X86101819Y-76326438D01*
X86106000Y-76368895D01*
X86106000Y-77835105D01*
X86101819Y-77877562D01*
X86091226Y-77912481D01*
X86074024Y-77944663D01*
X86050873Y-77972873D01*
X86022663Y-77996024D01*
X85990481Y-78013226D01*
X85955562Y-78023819D01*
X85913105Y-78028000D01*
X84771895Y-78028000D01*
X84729438Y-78023819D01*
X84694519Y-78013226D01*
X84662337Y-77996024D01*
X84634127Y-77972873D01*
X84610976Y-77944663D01*
X84593774Y-77912481D01*
X84583181Y-77877562D01*
X84579000Y-77835105D01*
X84579000Y-76368895D01*
X84583181Y-76326438D01*
X84593774Y-76291519D01*
X84610976Y-76259337D01*
X84634127Y-76231127D01*
X84662337Y-76207976D01*
X84694519Y-76190774D01*
X84729438Y-76180181D01*
X84771895Y-76176000D01*
X85913105Y-76176000D01*
X85955562Y-76180181D01*
G37*
G36*
X88930562Y-76180181D02*
G01*
X88965481Y-76190774D01*
X88997663Y-76207976D01*
X89025873Y-76231127D01*
X89049024Y-76259337D01*
X89066226Y-76291519D01*
X89076819Y-76326438D01*
X89081000Y-76368895D01*
X89081000Y-77835105D01*
X89076819Y-77877562D01*
X89066226Y-77912481D01*
X89049024Y-77944663D01*
X89025873Y-77972873D01*
X88997663Y-77996024D01*
X88965481Y-78013226D01*
X88930562Y-78023819D01*
X88888105Y-78028000D01*
X87746895Y-78028000D01*
X87704438Y-78023819D01*
X87669519Y-78013226D01*
X87637337Y-77996024D01*
X87609127Y-77972873D01*
X87585976Y-77944663D01*
X87568774Y-77912481D01*
X87558181Y-77877562D01*
X87554000Y-77835105D01*
X87554000Y-76368895D01*
X87558181Y-76326438D01*
X87568774Y-76291519D01*
X87585976Y-76259337D01*
X87609127Y-76231127D01*
X87637337Y-76207976D01*
X87669519Y-76190774D01*
X87704438Y-76180181D01*
X87746895Y-76176000D01*
X88888105Y-76176000D01*
X88930562Y-76180181D01*
G37*
G36*
X100114468Y-76695065D02*
G01*
X100153138Y-76706796D01*
X100188777Y-76725846D01*
X100220017Y-76751483D01*
X100245654Y-76782723D01*
X100264704Y-76818362D01*
X100276435Y-76857032D01*
X100281000Y-76903388D01*
X100281000Y-77554612D01*
X100276435Y-77600968D01*
X100264704Y-77639638D01*
X100245654Y-77675277D01*
X100220017Y-77706517D01*
X100188777Y-77732154D01*
X100153138Y-77751204D01*
X100114468Y-77762935D01*
X100068112Y-77767500D01*
X98991888Y-77767500D01*
X98945532Y-77762935D01*
X98906862Y-77751204D01*
X98871223Y-77732154D01*
X98839983Y-77706517D01*
X98814346Y-77675277D01*
X98795296Y-77639638D01*
X98783565Y-77600968D01*
X98779000Y-77554612D01*
X98779000Y-76903388D01*
X98783565Y-76857032D01*
X98795296Y-76818362D01*
X98814346Y-76782723D01*
X98839983Y-76751483D01*
X98871223Y-76725846D01*
X98906862Y-76706796D01*
X98945532Y-76695065D01*
X98991888Y-76690500D01*
X100068112Y-76690500D01*
X100114468Y-76695065D01*
G37*
G36*
X93862000Y-77487000D02*
G01*
X93260000Y-77487000D01*
X93260000Y-76885000D01*
X93862000Y-76885000D01*
X93862000Y-77487000D01*
G37*
G36*
X76084500Y-77191000D02*
G01*
X69867500Y-77191000D01*
X69867500Y-75889000D01*
X76084500Y-75889000D01*
X76084500Y-77191000D01*
G37*
G36*
X118113512Y-74263927D02*
G01*
X118262812Y-74293624D01*
X118426784Y-74361544D01*
X118574354Y-74460147D01*
X118699853Y-74585646D01*
X118798456Y-74733216D01*
X118866376Y-74897188D01*
X118901000Y-75071259D01*
X118901000Y-75248741D01*
X118866376Y-75422812D01*
X118798456Y-75586784D01*
X118699853Y-75734354D01*
X118574354Y-75859853D01*
X118426784Y-75958456D01*
X118262812Y-76026376D01*
X118113512Y-76056073D01*
X118088742Y-76061000D01*
X117911258Y-76061000D01*
X117886488Y-76056073D01*
X117737188Y-76026376D01*
X117573216Y-75958456D01*
X117425646Y-75859853D01*
X117300147Y-75734354D01*
X117201544Y-75586784D01*
X117133624Y-75422812D01*
X117099000Y-75248741D01*
X117099000Y-75071259D01*
X117133624Y-74897188D01*
X117201544Y-74733216D01*
X117300147Y-74585646D01*
X117425646Y-74460147D01*
X117573216Y-74361544D01*
X117737188Y-74293624D01*
X117886488Y-74263927D01*
X117911258Y-74259000D01*
X118088742Y-74259000D01*
X118113512Y-74263927D01*
G37*
G36*
X100114468Y-74820065D02*
G01*
X100153138Y-74831796D01*
X100188777Y-74850846D01*
X100220017Y-74876483D01*
X100245654Y-74907723D01*
X100264704Y-74943362D01*
X100276435Y-74982032D01*
X100281000Y-75028388D01*
X100281000Y-75679612D01*
X100276435Y-75725968D01*
X100264704Y-75764638D01*
X100245654Y-75800277D01*
X100220017Y-75831517D01*
X100188777Y-75857154D01*
X100153138Y-75876204D01*
X100114468Y-75887935D01*
X100068112Y-75892500D01*
X98991888Y-75892500D01*
X98945532Y-75887935D01*
X98906862Y-75876204D01*
X98871223Y-75857154D01*
X98839983Y-75831517D01*
X98814346Y-75800277D01*
X98795296Y-75764638D01*
X98783565Y-75725968D01*
X98779000Y-75679612D01*
X98779000Y-75028388D01*
X98783565Y-74982032D01*
X98795296Y-74943362D01*
X98814346Y-74907723D01*
X98839983Y-74876483D01*
X98871223Y-74850846D01*
X98906862Y-74831796D01*
X98945532Y-74820065D01*
X98991888Y-74815500D01*
X100068112Y-74815500D01*
X100114468Y-74820065D01*
G37*
G36*
X93862000Y-75287000D02*
G01*
X93260000Y-75287000D01*
X93260000Y-74685000D01*
X93862000Y-74685000D01*
X93862000Y-75287000D01*
G37*
G36*
X54855997Y-73467051D02*
G01*
X54889652Y-73477261D01*
X54920665Y-73493838D01*
X54947851Y-73516149D01*
X54970162Y-73543335D01*
X54986739Y-73574348D01*
X54996949Y-73608003D01*
X55001000Y-73649138D01*
X55001000Y-74978862D01*
X54996949Y-75019997D01*
X54986739Y-75053652D01*
X54970162Y-75084665D01*
X54947851Y-75111851D01*
X54920665Y-75134162D01*
X54889652Y-75150739D01*
X54855997Y-75160949D01*
X54814862Y-75165000D01*
X52485138Y-75165000D01*
X52444003Y-75160949D01*
X52410348Y-75150739D01*
X52379335Y-75134162D01*
X52352149Y-75111851D01*
X52329838Y-75084665D01*
X52313261Y-75053652D01*
X52303051Y-75019997D01*
X52299000Y-74978862D01*
X52299000Y-73649138D01*
X52303051Y-73608003D01*
X52313261Y-73574348D01*
X52329838Y-73543335D01*
X52352149Y-73516149D01*
X52379335Y-73493838D01*
X52410348Y-73477261D01*
X52444003Y-73467051D01*
X52485138Y-73463000D01*
X54814862Y-73463000D01*
X54855997Y-73467051D01*
G37*
G36*
X58455997Y-73467051D02*
G01*
X58489652Y-73477261D01*
X58520665Y-73493838D01*
X58547851Y-73516149D01*
X58570162Y-73543335D01*
X58586739Y-73574348D01*
X58596949Y-73608003D01*
X58601000Y-73649138D01*
X58601000Y-74978862D01*
X58596949Y-75019997D01*
X58586739Y-75053652D01*
X58570162Y-75084665D01*
X58547851Y-75111851D01*
X58520665Y-75134162D01*
X58489652Y-75150739D01*
X58455997Y-75160949D01*
X58414862Y-75165000D01*
X56085138Y-75165000D01*
X56044003Y-75160949D01*
X56010348Y-75150739D01*
X55979335Y-75134162D01*
X55952149Y-75111851D01*
X55929838Y-75084665D01*
X55913261Y-75053652D01*
X55903051Y-75019997D01*
X55899000Y-74978862D01*
X55899000Y-73649138D01*
X55903051Y-73608003D01*
X55913261Y-73574348D01*
X55929838Y-73543335D01*
X55952149Y-73516149D01*
X55979335Y-73493838D01*
X56010348Y-73477261D01*
X56044003Y-73467051D01*
X56085138Y-73463000D01*
X58414862Y-73463000D01*
X58455997Y-73467051D01*
G37*
G36*
X118105679Y-71722369D02*
G01*
X118262812Y-71753624D01*
X118426784Y-71821544D01*
X118574354Y-71920147D01*
X118699853Y-72045646D01*
X118798456Y-72193216D01*
X118866376Y-72357188D01*
X118901000Y-72531259D01*
X118901000Y-72708741D01*
X118866376Y-72882812D01*
X118798456Y-73046784D01*
X118699853Y-73194354D01*
X118574354Y-73319853D01*
X118426784Y-73418456D01*
X118262812Y-73486376D01*
X118113512Y-73516073D01*
X118088742Y-73521000D01*
X117911258Y-73521000D01*
X117886488Y-73516073D01*
X117737188Y-73486376D01*
X117573216Y-73418456D01*
X117425646Y-73319853D01*
X117300147Y-73194354D01*
X117201544Y-73046784D01*
X117133624Y-72882812D01*
X117099000Y-72708741D01*
X117099000Y-72531259D01*
X117133624Y-72357188D01*
X117201544Y-72193216D01*
X117300147Y-72045646D01*
X117425646Y-71920147D01*
X117573216Y-71821544D01*
X117737188Y-71753624D01*
X117894321Y-71722369D01*
X117911258Y-71719000D01*
X118088742Y-71719000D01*
X118105679Y-71722369D01*
G37*
G36*
X84264469Y-70476566D02*
G01*
X84303139Y-70488297D01*
X84338778Y-70507347D01*
X84370018Y-70532984D01*
X84395655Y-70564224D01*
X84414705Y-70599863D01*
X84426436Y-70638533D01*
X84431001Y-70684889D01*
X84431001Y-71761113D01*
X84426436Y-71807469D01*
X84414705Y-71846139D01*
X84395655Y-71881778D01*
X84370018Y-71913018D01*
X84338778Y-71938655D01*
X84303139Y-71957705D01*
X84264469Y-71969436D01*
X84218113Y-71974001D01*
X83566889Y-71974001D01*
X83520533Y-71969436D01*
X83481863Y-71957705D01*
X83446224Y-71938655D01*
X83414984Y-71913018D01*
X83389347Y-71881778D01*
X83370297Y-71846139D01*
X83358566Y-71807469D01*
X83354001Y-71761113D01*
X83354001Y-70684889D01*
X83358566Y-70638533D01*
X83370297Y-70599863D01*
X83389347Y-70564224D01*
X83414984Y-70532984D01*
X83446224Y-70507347D01*
X83481863Y-70488297D01*
X83520533Y-70476566D01*
X83566889Y-70472001D01*
X84218113Y-70472001D01*
X84264469Y-70476566D01*
G37*
G36*
X82389469Y-70476566D02*
G01*
X82428139Y-70488297D01*
X82463778Y-70507347D01*
X82495018Y-70532984D01*
X82520655Y-70564224D01*
X82539705Y-70599863D01*
X82551436Y-70638533D01*
X82556001Y-70684889D01*
X82556001Y-71761113D01*
X82551436Y-71807469D01*
X82539705Y-71846139D01*
X82520655Y-71881778D01*
X82495018Y-71913018D01*
X82463778Y-71938655D01*
X82428139Y-71957705D01*
X82389469Y-71969436D01*
X82343113Y-71974001D01*
X81691889Y-71974001D01*
X81645533Y-71969436D01*
X81606863Y-71957705D01*
X81571224Y-71938655D01*
X81539984Y-71913018D01*
X81514347Y-71881778D01*
X81495297Y-71846139D01*
X81483566Y-71807469D01*
X81479001Y-71761113D01*
X81479001Y-70684889D01*
X81483566Y-70638533D01*
X81495297Y-70599863D01*
X81514347Y-70564224D01*
X81539984Y-70532984D01*
X81571224Y-70507347D01*
X81606863Y-70488297D01*
X81645533Y-70476566D01*
X81691889Y-70472001D01*
X82343113Y-70472001D01*
X82389469Y-70476566D01*
G37*
G36*
X69561562Y-70090181D02*
G01*
X69596481Y-70100774D01*
X69628663Y-70117976D01*
X69656873Y-70141127D01*
X69680024Y-70169337D01*
X69697226Y-70201519D01*
X69707819Y-70236438D01*
X69712000Y-70278895D01*
X69712000Y-71745105D01*
X69707819Y-71787562D01*
X69697226Y-71822481D01*
X69680024Y-71854663D01*
X69656873Y-71882873D01*
X69628663Y-71906024D01*
X69596481Y-71923226D01*
X69561562Y-71933819D01*
X69519105Y-71938000D01*
X68377895Y-71938000D01*
X68335438Y-71933819D01*
X68300519Y-71923226D01*
X68268337Y-71906024D01*
X68240127Y-71882873D01*
X68216976Y-71854663D01*
X68199774Y-71822481D01*
X68189181Y-71787562D01*
X68185000Y-71745105D01*
X68185000Y-70278895D01*
X68189181Y-70236438D01*
X68199774Y-70201519D01*
X68216976Y-70169337D01*
X68240127Y-70141127D01*
X68268337Y-70117976D01*
X68300519Y-70100774D01*
X68335438Y-70090181D01*
X68377895Y-70086000D01*
X69519105Y-70086000D01*
X69561562Y-70090181D01*
G37*
G36*
X72536562Y-70090181D02*
G01*
X72571481Y-70100774D01*
X72603663Y-70117976D01*
X72631873Y-70141127D01*
X72655024Y-70169337D01*
X72672226Y-70201519D01*
X72682819Y-70236438D01*
X72687000Y-70278895D01*
X72687000Y-71745105D01*
X72682819Y-71787562D01*
X72672226Y-71822481D01*
X72655024Y-71854663D01*
X72631873Y-71882873D01*
X72603663Y-71906024D01*
X72571481Y-71923226D01*
X72536562Y-71933819D01*
X72494105Y-71938000D01*
X71352895Y-71938000D01*
X71310438Y-71933819D01*
X71275519Y-71923226D01*
X71243337Y-71906024D01*
X71215127Y-71882873D01*
X71191976Y-71854663D01*
X71174774Y-71822481D01*
X71164181Y-71787562D01*
X71160000Y-71745105D01*
X71160000Y-70278895D01*
X71164181Y-70236438D01*
X71174774Y-70201519D01*
X71191976Y-70169337D01*
X71215127Y-70141127D01*
X71243337Y-70117976D01*
X71275519Y-70100774D01*
X71310438Y-70090181D01*
X71352895Y-70086000D01*
X72494105Y-70086000D01*
X72536562Y-70090181D01*
G37*
G36*
X62957562Y-70090181D02*
G01*
X62992481Y-70100774D01*
X63024663Y-70117976D01*
X63052873Y-70141127D01*
X63076024Y-70169337D01*
X63093226Y-70201519D01*
X63103819Y-70236438D01*
X63108000Y-70278895D01*
X63108000Y-71745105D01*
X63103819Y-71787562D01*
X63093226Y-71822481D01*
X63076024Y-71854663D01*
X63052873Y-71882873D01*
X63024663Y-71906024D01*
X62992481Y-71923226D01*
X62957562Y-71933819D01*
X62915105Y-71938000D01*
X61773895Y-71938000D01*
X61731438Y-71933819D01*
X61696519Y-71923226D01*
X61664337Y-71906024D01*
X61636127Y-71882873D01*
X61612976Y-71854663D01*
X61595774Y-71822481D01*
X61585181Y-71787562D01*
X61581000Y-71745105D01*
X61581000Y-70278895D01*
X61585181Y-70236438D01*
X61595774Y-70201519D01*
X61612976Y-70169337D01*
X61636127Y-70141127D01*
X61664337Y-70117976D01*
X61696519Y-70100774D01*
X61731438Y-70090181D01*
X61773895Y-70086000D01*
X62915105Y-70086000D01*
X62957562Y-70090181D01*
G37*
G36*
X65932562Y-70090181D02*
G01*
X65967481Y-70100774D01*
X65999663Y-70117976D01*
X66027873Y-70141127D01*
X66051024Y-70169337D01*
X66068226Y-70201519D01*
X66078819Y-70236438D01*
X66083000Y-70278895D01*
X66083000Y-71745105D01*
X66078819Y-71787562D01*
X66068226Y-71822481D01*
X66051024Y-71854663D01*
X66027873Y-71882873D01*
X65999663Y-71906024D01*
X65967481Y-71923226D01*
X65932562Y-71933819D01*
X65890105Y-71938000D01*
X64748895Y-71938000D01*
X64706438Y-71933819D01*
X64671519Y-71923226D01*
X64639337Y-71906024D01*
X64611127Y-71882873D01*
X64587976Y-71854663D01*
X64570774Y-71822481D01*
X64560181Y-71787562D01*
X64556000Y-71745105D01*
X64556000Y-70278895D01*
X64560181Y-70236438D01*
X64570774Y-70201519D01*
X64587976Y-70169337D01*
X64611127Y-70141127D01*
X64639337Y-70117976D01*
X64671519Y-70100774D01*
X64706438Y-70090181D01*
X64748895Y-70086000D01*
X65890105Y-70086000D01*
X65932562Y-70090181D01*
G37*
G36*
X118113512Y-69183927D02*
G01*
X118262812Y-69213624D01*
X118426784Y-69281544D01*
X118574354Y-69380147D01*
X118699853Y-69505646D01*
X118798456Y-69653216D01*
X118866376Y-69817188D01*
X118896073Y-69966488D01*
X118901000Y-69991258D01*
X118901000Y-70168742D01*
X118896073Y-70193512D01*
X118866376Y-70342812D01*
X118798456Y-70506784D01*
X118699853Y-70654354D01*
X118574354Y-70779853D01*
X118426784Y-70878456D01*
X118262812Y-70946376D01*
X118113512Y-70976073D01*
X118088742Y-70981000D01*
X117911258Y-70981000D01*
X117886488Y-70976073D01*
X117737188Y-70946376D01*
X117573216Y-70878456D01*
X117425646Y-70779853D01*
X117300147Y-70654354D01*
X117201544Y-70506784D01*
X117133624Y-70342812D01*
X117103927Y-70193512D01*
X117099000Y-70168742D01*
X117099000Y-69991258D01*
X117103927Y-69966488D01*
X117133624Y-69817188D01*
X117201544Y-69653216D01*
X117300147Y-69505646D01*
X117425646Y-69380147D01*
X117573216Y-69281544D01*
X117737188Y-69213624D01*
X117886488Y-69183927D01*
X117911258Y-69179000D01*
X118088742Y-69179000D01*
X118113512Y-69183927D01*
G37*
G36*
X95306564Y-68173389D02*
G01*
X95497833Y-68252615D01*
X95497835Y-68252616D01*
X95669973Y-68367635D01*
X95816365Y-68514027D01*
X95872912Y-68598655D01*
X95931385Y-68686167D01*
X96010611Y-68877436D01*
X96051000Y-69080484D01*
X96051000Y-69287516D01*
X96010611Y-69490564D01*
X95931385Y-69681833D01*
X95931384Y-69681835D01*
X95816365Y-69853973D01*
X95669973Y-70000365D01*
X95497835Y-70115384D01*
X95497834Y-70115385D01*
X95497833Y-70115385D01*
X95306564Y-70194611D01*
X95103516Y-70235000D01*
X94896484Y-70235000D01*
X94693436Y-70194611D01*
X94502167Y-70115385D01*
X94502166Y-70115385D01*
X94502165Y-70115384D01*
X94330027Y-70000365D01*
X94183635Y-69853973D01*
X94068616Y-69681835D01*
X94068615Y-69681833D01*
X93989389Y-69490564D01*
X93949000Y-69287516D01*
X93949000Y-69080484D01*
X93989389Y-68877436D01*
X94068615Y-68686167D01*
X94127089Y-68598655D01*
X94183635Y-68514027D01*
X94330027Y-68367635D01*
X94502165Y-68252616D01*
X94502167Y-68252615D01*
X94693436Y-68173389D01*
X94896484Y-68133000D01*
X95103516Y-68133000D01*
X95306564Y-68173389D01*
G37*
G36*
X101806564Y-68173389D02*
G01*
X101997833Y-68252615D01*
X101997835Y-68252616D01*
X102169973Y-68367635D01*
X102316365Y-68514027D01*
X102372912Y-68598655D01*
X102431385Y-68686167D01*
X102510611Y-68877436D01*
X102551000Y-69080484D01*
X102551000Y-69287516D01*
X102510611Y-69490564D01*
X102431385Y-69681833D01*
X102431384Y-69681835D01*
X102316365Y-69853973D01*
X102169973Y-70000365D01*
X101997835Y-70115384D01*
X101997834Y-70115385D01*
X101997833Y-70115385D01*
X101806564Y-70194611D01*
X101603516Y-70235000D01*
X101396484Y-70235000D01*
X101193436Y-70194611D01*
X101002167Y-70115385D01*
X101002166Y-70115385D01*
X101002165Y-70115384D01*
X100830027Y-70000365D01*
X100683635Y-69853973D01*
X100568616Y-69681835D01*
X100568615Y-69681833D01*
X100489389Y-69490564D01*
X100449000Y-69287516D01*
X100449000Y-69080484D01*
X100489389Y-68877436D01*
X100568615Y-68686167D01*
X100627089Y-68598655D01*
X100683635Y-68514027D01*
X100830027Y-68367635D01*
X101002165Y-68252616D01*
X101002167Y-68252615D01*
X101193436Y-68173389D01*
X101396484Y-68133000D01*
X101603516Y-68133000D01*
X101806564Y-68173389D01*
G37*
G36*
X69561562Y-67042181D02*
G01*
X69596481Y-67052774D01*
X69628663Y-67069976D01*
X69656873Y-67093127D01*
X69680024Y-67121337D01*
X69697226Y-67153519D01*
X69707819Y-67188438D01*
X69712000Y-67230895D01*
X69712000Y-68697105D01*
X69707819Y-68739562D01*
X69697226Y-68774481D01*
X69680024Y-68806663D01*
X69656873Y-68834873D01*
X69628663Y-68858024D01*
X69596481Y-68875226D01*
X69561562Y-68885819D01*
X69519105Y-68890000D01*
X68377895Y-68890000D01*
X68335438Y-68885819D01*
X68300519Y-68875226D01*
X68268337Y-68858024D01*
X68240127Y-68834873D01*
X68216976Y-68806663D01*
X68199774Y-68774481D01*
X68189181Y-68739562D01*
X68185000Y-68697105D01*
X68185000Y-67230895D01*
X68189181Y-67188438D01*
X68199774Y-67153519D01*
X68216976Y-67121337D01*
X68240127Y-67093127D01*
X68268337Y-67069976D01*
X68300519Y-67052774D01*
X68335438Y-67042181D01*
X68377895Y-67038000D01*
X69519105Y-67038000D01*
X69561562Y-67042181D01*
G37*
G36*
X72536562Y-67042181D02*
G01*
X72571481Y-67052774D01*
X72603663Y-67069976D01*
X72631873Y-67093127D01*
X72655024Y-67121337D01*
X72672226Y-67153519D01*
X72682819Y-67188438D01*
X72687000Y-67230895D01*
X72687000Y-68697105D01*
X72682819Y-68739562D01*
X72672226Y-68774481D01*
X72655024Y-68806663D01*
X72631873Y-68834873D01*
X72603663Y-68858024D01*
X72571481Y-68875226D01*
X72536562Y-68885819D01*
X72494105Y-68890000D01*
X71352895Y-68890000D01*
X71310438Y-68885819D01*
X71275519Y-68875226D01*
X71243337Y-68858024D01*
X71215127Y-68834873D01*
X71191976Y-68806663D01*
X71174774Y-68774481D01*
X71164181Y-68739562D01*
X71160000Y-68697105D01*
X71160000Y-67230895D01*
X71164181Y-67188438D01*
X71174774Y-67153519D01*
X71191976Y-67121337D01*
X71215127Y-67093127D01*
X71243337Y-67069976D01*
X71275519Y-67052774D01*
X71310438Y-67042181D01*
X71352895Y-67038000D01*
X72494105Y-67038000D01*
X72536562Y-67042181D01*
G37*
G36*
X65932562Y-67042181D02*
G01*
X65967481Y-67052774D01*
X65999663Y-67069976D01*
X66027873Y-67093127D01*
X66051024Y-67121337D01*
X66068226Y-67153519D01*
X66078819Y-67188438D01*
X66083000Y-67230895D01*
X66083000Y-68697105D01*
X66078819Y-68739562D01*
X66068226Y-68774481D01*
X66051024Y-68806663D01*
X66027873Y-68834873D01*
X65999663Y-68858024D01*
X65967481Y-68875226D01*
X65932562Y-68885819D01*
X65890105Y-68890000D01*
X64748895Y-68890000D01*
X64706438Y-68885819D01*
X64671519Y-68875226D01*
X64639337Y-68858024D01*
X64611127Y-68834873D01*
X64587976Y-68806663D01*
X64570774Y-68774481D01*
X64560181Y-68739562D01*
X64556000Y-68697105D01*
X64556000Y-67230895D01*
X64560181Y-67188438D01*
X64570774Y-67153519D01*
X64587976Y-67121337D01*
X64611127Y-67093127D01*
X64639337Y-67069976D01*
X64671519Y-67052774D01*
X64706438Y-67042181D01*
X64748895Y-67038000D01*
X65890105Y-67038000D01*
X65932562Y-67042181D01*
G37*
G36*
X62957562Y-67042181D02*
G01*
X62992481Y-67052774D01*
X63024663Y-67069976D01*
X63052873Y-67093127D01*
X63076024Y-67121337D01*
X63093226Y-67153519D01*
X63103819Y-67188438D01*
X63108000Y-67230895D01*
X63108000Y-68697105D01*
X63103819Y-68739562D01*
X63093226Y-68774481D01*
X63076024Y-68806663D01*
X63052873Y-68834873D01*
X63024663Y-68858024D01*
X62992481Y-68875226D01*
X62957562Y-68885819D01*
X62915105Y-68890000D01*
X61773895Y-68890000D01*
X61731438Y-68885819D01*
X61696519Y-68875226D01*
X61664337Y-68858024D01*
X61636127Y-68834873D01*
X61612976Y-68806663D01*
X61595774Y-68774481D01*
X61585181Y-68739562D01*
X61581000Y-68697105D01*
X61581000Y-67230895D01*
X61585181Y-67188438D01*
X61595774Y-67153519D01*
X61612976Y-67121337D01*
X61636127Y-67093127D01*
X61664337Y-67069976D01*
X61696519Y-67052774D01*
X61731438Y-67042181D01*
X61773895Y-67038000D01*
X62915105Y-67038000D01*
X62957562Y-67042181D01*
G37*
G36*
X84309469Y-67136566D02*
G01*
X84348139Y-67148297D01*
X84383778Y-67167347D01*
X84415018Y-67192984D01*
X84440655Y-67224224D01*
X84459705Y-67259863D01*
X84471436Y-67298533D01*
X84476001Y-67344889D01*
X84476001Y-68421113D01*
X84471436Y-68467469D01*
X84459705Y-68506139D01*
X84440655Y-68541778D01*
X84415018Y-68573018D01*
X84383778Y-68598655D01*
X84348139Y-68617705D01*
X84309469Y-68629436D01*
X84263113Y-68634001D01*
X83611889Y-68634001D01*
X83565533Y-68629436D01*
X83526863Y-68617705D01*
X83491224Y-68598655D01*
X83459984Y-68573018D01*
X83434347Y-68541778D01*
X83415297Y-68506139D01*
X83403566Y-68467469D01*
X83399001Y-68421113D01*
X83399001Y-67344889D01*
X83403566Y-67298533D01*
X83415297Y-67259863D01*
X83434347Y-67224224D01*
X83459984Y-67192984D01*
X83491224Y-67167347D01*
X83526863Y-67148297D01*
X83565533Y-67136566D01*
X83611889Y-67132001D01*
X84263113Y-67132001D01*
X84309469Y-67136566D01*
G37*
G36*
X82434469Y-67136566D02*
G01*
X82473139Y-67148297D01*
X82508778Y-67167347D01*
X82540018Y-67192984D01*
X82565655Y-67224224D01*
X82584705Y-67259863D01*
X82596436Y-67298533D01*
X82601001Y-67344889D01*
X82601001Y-68421113D01*
X82596436Y-68467469D01*
X82584705Y-68506139D01*
X82565655Y-68541778D01*
X82540018Y-68573018D01*
X82508778Y-68598655D01*
X82473139Y-68617705D01*
X82434469Y-68629436D01*
X82388113Y-68634001D01*
X81736889Y-68634001D01*
X81690533Y-68629436D01*
X81651863Y-68617705D01*
X81616224Y-68598655D01*
X81584984Y-68573018D01*
X81559347Y-68541778D01*
X81540297Y-68506139D01*
X81528566Y-68467469D01*
X81524001Y-68421113D01*
X81524001Y-67344889D01*
X81528566Y-67298533D01*
X81540297Y-67259863D01*
X81559347Y-67224224D01*
X81584984Y-67192984D01*
X81616224Y-67167347D01*
X81651863Y-67148297D01*
X81690533Y-67136566D01*
X81736889Y-67132001D01*
X82388113Y-67132001D01*
X82434469Y-67136566D01*
G37*
G36*
X118113512Y-66643927D02*
G01*
X118262812Y-66673624D01*
X118426784Y-66741544D01*
X118574354Y-66840147D01*
X118699853Y-66965646D01*
X118798456Y-67113216D01*
X118866376Y-67277188D01*
X118901000Y-67451259D01*
X118901000Y-67628741D01*
X118866376Y-67802812D01*
X118798456Y-67966784D01*
X118699853Y-68114354D01*
X118574354Y-68239853D01*
X118426784Y-68338456D01*
X118262812Y-68406376D01*
X118113512Y-68436073D01*
X118088742Y-68441000D01*
X117911258Y-68441000D01*
X117886488Y-68436073D01*
X117737188Y-68406376D01*
X117573216Y-68338456D01*
X117425646Y-68239853D01*
X117300147Y-68114354D01*
X117201544Y-67966784D01*
X117133624Y-67802812D01*
X117099000Y-67628741D01*
X117099000Y-67451259D01*
X117133624Y-67277188D01*
X117201544Y-67113216D01*
X117300147Y-66965646D01*
X117425646Y-66840147D01*
X117573216Y-66741544D01*
X117737188Y-66673624D01*
X117886488Y-66643927D01*
X117911258Y-66639000D01*
X118088742Y-66639000D01*
X118113512Y-66643927D01*
G37*
G36*
X55318433Y-65318893D02*
G01*
X55408657Y-65336839D01*
X55514267Y-65380585D01*
X55663621Y-65442449D01*
X55663622Y-65442450D01*
X55893086Y-65595772D01*
X56088228Y-65790914D01*
X56190675Y-65944237D01*
X56241551Y-66020379D01*
X56347161Y-66275344D01*
X56401000Y-66546012D01*
X56401000Y-66821988D01*
X56365107Y-67002433D01*
X56347161Y-67092657D01*
X56321951Y-67153519D01*
X56241551Y-67347621D01*
X56190675Y-67423763D01*
X56088228Y-67577086D01*
X55893086Y-67772228D01*
X55739763Y-67874675D01*
X55663621Y-67925551D01*
X55514267Y-67987415D01*
X55408657Y-68031161D01*
X55318433Y-68049107D01*
X55137988Y-68085000D01*
X54862012Y-68085000D01*
X54681567Y-68049107D01*
X54591343Y-68031161D01*
X54485733Y-67987415D01*
X54336379Y-67925551D01*
X54260237Y-67874675D01*
X54106914Y-67772228D01*
X53911772Y-67577086D01*
X53809325Y-67423763D01*
X53758449Y-67347621D01*
X53678049Y-67153519D01*
X53652839Y-67092657D01*
X53634893Y-67002433D01*
X53599000Y-66821988D01*
X53599000Y-66546012D01*
X53652839Y-66275344D01*
X53758449Y-66020379D01*
X53809325Y-65944237D01*
X53911772Y-65790914D01*
X54106914Y-65595772D01*
X54336378Y-65442450D01*
X54336379Y-65442449D01*
X54485733Y-65380585D01*
X54591343Y-65336839D01*
X54681567Y-65318893D01*
X54862012Y-65283000D01*
X55137988Y-65283000D01*
X55318433Y-65318893D01*
G37*
G36*
X145318433Y-65318893D02*
G01*
X145408657Y-65336839D01*
X145514267Y-65380585D01*
X145663621Y-65442449D01*
X145663622Y-65442450D01*
X145893086Y-65595772D01*
X146088228Y-65790914D01*
X146190675Y-65944237D01*
X146241551Y-66020379D01*
X146347161Y-66275344D01*
X146401000Y-66546012D01*
X146401000Y-66821988D01*
X146365107Y-67002433D01*
X146347161Y-67092657D01*
X146321951Y-67153519D01*
X146241551Y-67347621D01*
X146190675Y-67423763D01*
X146088228Y-67577086D01*
X145893086Y-67772228D01*
X145739763Y-67874675D01*
X145663621Y-67925551D01*
X145514267Y-67987415D01*
X145408657Y-68031161D01*
X145318433Y-68049107D01*
X145137988Y-68085000D01*
X144862012Y-68085000D01*
X144681567Y-68049107D01*
X144591343Y-68031161D01*
X144485733Y-67987415D01*
X144336379Y-67925551D01*
X144260237Y-67874675D01*
X144106914Y-67772228D01*
X143911772Y-67577086D01*
X143809325Y-67423763D01*
X143758449Y-67347621D01*
X143678049Y-67153519D01*
X143652839Y-67092657D01*
X143634893Y-67002433D01*
X143599000Y-66821988D01*
X143599000Y-66546012D01*
X143652839Y-66275344D01*
X143758449Y-66020379D01*
X143809325Y-65944237D01*
X143911772Y-65790914D01*
X144106914Y-65595772D01*
X144336378Y-65442450D01*
X144336379Y-65442449D01*
X144485733Y-65380585D01*
X144591343Y-65336839D01*
X144681567Y-65318893D01*
X144862012Y-65283000D01*
X145137988Y-65283000D01*
X145318433Y-65318893D01*
G37*
G36*
X118901000Y-65901000D02*
G01*
X117099000Y-65901000D01*
X117099000Y-64099000D01*
X118901000Y-64099000D01*
X118901000Y-65901000D01*
G37*
G36*
X101806564Y-63673389D02*
G01*
X101997833Y-63752615D01*
X101997835Y-63752616D01*
X102169973Y-63867635D01*
X102316365Y-64014027D01*
X102431385Y-64186167D01*
X102510611Y-64377436D01*
X102551000Y-64580484D01*
X102551000Y-64787516D01*
X102510611Y-64990564D01*
X102431385Y-65181833D01*
X102431384Y-65181835D01*
X102316365Y-65353973D01*
X102169973Y-65500365D01*
X101997835Y-65615384D01*
X101997834Y-65615385D01*
X101997833Y-65615385D01*
X101806564Y-65694611D01*
X101603516Y-65735000D01*
X101396484Y-65735000D01*
X101193436Y-65694611D01*
X101002167Y-65615385D01*
X101002166Y-65615385D01*
X101002165Y-65615384D01*
X100830027Y-65500365D01*
X100683635Y-65353973D01*
X100568616Y-65181835D01*
X100568615Y-65181833D01*
X100489389Y-64990564D01*
X100449000Y-64787516D01*
X100449000Y-64580484D01*
X100489389Y-64377436D01*
X100568615Y-64186167D01*
X100683635Y-64014027D01*
X100830027Y-63867635D01*
X101002165Y-63752616D01*
X101002167Y-63752615D01*
X101193436Y-63673389D01*
X101396484Y-63633000D01*
X101603516Y-63633000D01*
X101806564Y-63673389D01*
G37*
G36*
X95306564Y-63673389D02*
G01*
X95497833Y-63752615D01*
X95497835Y-63752616D01*
X95669973Y-63867635D01*
X95816365Y-64014027D01*
X95931385Y-64186167D01*
X96010611Y-64377436D01*
X96051000Y-64580484D01*
X96051000Y-64787516D01*
X96010611Y-64990564D01*
X95931385Y-65181833D01*
X95931384Y-65181835D01*
X95816365Y-65353973D01*
X95669973Y-65500365D01*
X95497835Y-65615384D01*
X95497834Y-65615385D01*
X95497833Y-65615385D01*
X95306564Y-65694611D01*
X95103516Y-65735000D01*
X94896484Y-65735000D01*
X94693436Y-65694611D01*
X94502167Y-65615385D01*
X94502166Y-65615385D01*
X94502165Y-65615384D01*
X94330027Y-65500365D01*
X94183635Y-65353973D01*
X94068616Y-65181835D01*
X94068615Y-65181833D01*
X93989389Y-64990564D01*
X93949000Y-64787516D01*
X93949000Y-64580484D01*
X93989389Y-64377436D01*
X94068615Y-64186167D01*
X94183635Y-64014027D01*
X94330027Y-63867635D01*
X94502165Y-63752616D01*
X94502167Y-63752615D01*
X94693436Y-63673389D01*
X94896484Y-63633000D01*
X95103516Y-63633000D01*
X95306564Y-63673389D01*
G37*
M02*
