%TF.GenerationSoftware,KiCad,Pcbnew,5.1.10-88a1d61d58~90~ubuntu21.04.1*%
%TF.CreationDate,2021-07-30T13:58:04+02:00*%
%TF.ProjectId,Detector_SMD_Simple,44657465-6374-46f7-925f-534d445f5369,rev?*%
%TF.SameCoordinates,Original*%
%TF.FileFunction,Soldermask,Top*%
%TF.FilePolarity,Negative*%
%FSLAX46Y46*%
G04 Gerber Fmt 4.6, Leading zero omitted, Abs format (unit mm)*
G04 Created by KiCad (PCBNEW 5.1.10-88a1d61d58~90~ubuntu21.04.1) date 2021-07-30 13:58:04*
%MOMM*%
%LPD*%
G01*
G04 APERTURE LIST*
%ADD10O,1.700000X1.700000*%
%ADD11R,1.700000X1.700000*%
%ADD12C,2.000000*%
%ADD13C,3.200000*%
%ADD14R,0.900000X0.800000*%
%ADD15R,0.900000X1.200000*%
G04 APERTURE END LIST*
%TO.C,J1*%
G36*
G01*
X73600000Y-44450000D02*
X73600000Y-42950000D01*
G75*
G02*
X73850000Y-42700000I250000J0D01*
G01*
X74350000Y-42700000D01*
G75*
G02*
X74600000Y-42950000I0J-250000D01*
G01*
X74600000Y-44450000D01*
G75*
G02*
X74350000Y-44700000I-250000J0D01*
G01*
X73850000Y-44700000D01*
G75*
G02*
X73600000Y-44450000I0J250000D01*
G01*
G37*
%TD*%
%TO.C,J2*%
G36*
G01*
X61000000Y-44450000D02*
X61000000Y-42950000D01*
G75*
G02*
X61250000Y-42700000I250000J0D01*
G01*
X61750000Y-42700000D01*
G75*
G02*
X62000000Y-42950000I0J-250000D01*
G01*
X62000000Y-44450000D01*
G75*
G02*
X61750000Y-44700000I-250000J0D01*
G01*
X61250000Y-44700000D01*
G75*
G02*
X61000000Y-44450000I0J250000D01*
G01*
G37*
%TD*%
%TO.C,R4*%
G36*
G01*
X95149998Y-50400000D02*
X96050002Y-50400000D01*
G75*
G02*
X96300000Y-50649998I0J-249998D01*
G01*
X96300000Y-51175002D01*
G75*
G02*
X96050002Y-51425000I-249998J0D01*
G01*
X95149998Y-51425000D01*
G75*
G02*
X94900000Y-51175002I0J249998D01*
G01*
X94900000Y-50649998D01*
G75*
G02*
X95149998Y-50400000I249998J0D01*
G01*
G37*
G36*
G01*
X95149998Y-48575000D02*
X96050002Y-48575000D01*
G75*
G02*
X96300000Y-48824998I0J-249998D01*
G01*
X96300000Y-49350002D01*
G75*
G02*
X96050002Y-49600000I-249998J0D01*
G01*
X95149998Y-49600000D01*
G75*
G02*
X94900000Y-49350002I0J249998D01*
G01*
X94900000Y-48824998D01*
G75*
G02*
X95149998Y-48575000I249998J0D01*
G01*
G37*
%TD*%
D10*
%TO.C,J3*%
X102000000Y-52540000D03*
X102000000Y-50000000D03*
D11*
X102000000Y-47460000D03*
%TD*%
D12*
%TO.C,CT1*%
X74150000Y-50000000D03*
X61450000Y-50000000D03*
%TD*%
D13*
%TO.C,H3*%
X105000000Y-60000000D03*
%TD*%
%TO.C,H2*%
X105000000Y-40000000D03*
%TD*%
%TO.C,H1*%
X54000000Y-50000000D03*
%TD*%
%TO.C,R2*%
G36*
G01*
X86649998Y-50400000D02*
X87550002Y-50400000D01*
G75*
G02*
X87800000Y-50649998I0J-249998D01*
G01*
X87800000Y-51175002D01*
G75*
G02*
X87550002Y-51425000I-249998J0D01*
G01*
X86649998Y-51425000D01*
G75*
G02*
X86400000Y-51175002I0J249998D01*
G01*
X86400000Y-50649998D01*
G75*
G02*
X86649998Y-50400000I249998J0D01*
G01*
G37*
G36*
G01*
X86649998Y-48575000D02*
X87550002Y-48575000D01*
G75*
G02*
X87800000Y-48824998I0J-249998D01*
G01*
X87800000Y-49350002D01*
G75*
G02*
X87550002Y-49600000I-249998J0D01*
G01*
X86649998Y-49600000D01*
G75*
G02*
X86400000Y-49350002I0J249998D01*
G01*
X86400000Y-48824998D01*
G75*
G02*
X86649998Y-48575000I249998J0D01*
G01*
G37*
%TD*%
D14*
%TO.C,Q3*%
X92600000Y-50000000D03*
X90600000Y-50950000D03*
X90600000Y-49050000D03*
%TD*%
D15*
%TO.C,D1*%
X78950000Y-52000000D03*
X82250000Y-52000000D03*
%TD*%
%TO.C,C1*%
G36*
G01*
X80100000Y-47525000D02*
X80100000Y-48475000D01*
G75*
G02*
X79850000Y-48725000I-250000J0D01*
G01*
X79350000Y-48725000D01*
G75*
G02*
X79100000Y-48475000I0J250000D01*
G01*
X79100000Y-47525000D01*
G75*
G02*
X79350000Y-47275000I250000J0D01*
G01*
X79850000Y-47275000D01*
G75*
G02*
X80100000Y-47525000I0J-250000D01*
G01*
G37*
G36*
G01*
X82000000Y-47525000D02*
X82000000Y-48475000D01*
G75*
G02*
X81750000Y-48725000I-250000J0D01*
G01*
X81250000Y-48725000D01*
G75*
G02*
X81000000Y-48475000I0J250000D01*
G01*
X81000000Y-47525000D01*
G75*
G02*
X81250000Y-47275000I250000J0D01*
G01*
X81750000Y-47275000D01*
G75*
G02*
X82000000Y-47525000I0J-250000D01*
G01*
G37*
%TD*%
M02*
