%TF.GenerationSoftware,KiCad,Pcbnew,5.1.6-c6e7f7d~86~ubuntu20.04.1*%
%TF.CreationDate,2020-06-01T13:32:15+02:00*%
%TF.ProjectId,STM32103_Devel,53544d33-3231-4303-935f-446576656c2e,rev?*%
%TF.SameCoordinates,Original*%
%TF.FileFunction,Soldermask,Bot*%
%TF.FilePolarity,Negative*%
%FSLAX46Y46*%
G04 Gerber Fmt 4.6, Leading zero omitted, Abs format (unit mm)*
G04 Created by KiCad (PCBNEW 5.1.6-c6e7f7d~86~ubuntu20.04.1) date 2020-06-01 13:32:15*
%MOMM*%
%LPD*%
G01*
G04 APERTURE LIST*
%ADD10O,1.800000X1.800000*%
%ADD11R,1.800000X1.800000*%
%ADD12C,2.800000*%
%ADD13C,2.100000*%
%ADD14C,0.900000*%
%ADD15C,1.900000*%
G04 APERTURE END LIST*
D10*
%TO.C,J5*%
X151100000Y-116000000D03*
X148560000Y-116000000D03*
X146020000Y-116000000D03*
X143480000Y-116000000D03*
X140940000Y-116000000D03*
X138400000Y-116000000D03*
X135860000Y-116000000D03*
X133320000Y-116000000D03*
X130780000Y-116000000D03*
X128240000Y-116000000D03*
X125700000Y-116000000D03*
X123160000Y-116000000D03*
X120620000Y-116000000D03*
X118080000Y-116000000D03*
X115540000Y-116000000D03*
D11*
X113000000Y-116000000D03*
%TD*%
D10*
%TO.C,J3*%
X166002000Y-110180000D03*
X163462000Y-110180000D03*
X166002000Y-107640000D03*
X163462000Y-107640000D03*
X166002000Y-105100000D03*
X163462000Y-105100000D03*
X166002000Y-102560000D03*
X163462000Y-102560000D03*
X166002000Y-100020000D03*
X163462000Y-100020000D03*
X166002000Y-97480000D03*
X163462000Y-97480000D03*
X166002000Y-94940000D03*
X163462000Y-94940000D03*
X166002000Y-92400000D03*
X163462000Y-92400000D03*
X166002000Y-89860000D03*
X163462000Y-89860000D03*
X166002000Y-87320000D03*
D11*
X163462000Y-87320000D03*
%TD*%
D10*
%TO.C,J4*%
X104000000Y-112100000D03*
X104000000Y-109560000D03*
X104000000Y-107020000D03*
X104000000Y-104480000D03*
X104000000Y-101940000D03*
X104000000Y-99400000D03*
X104000000Y-96860000D03*
X104000000Y-94320000D03*
X104000000Y-91780000D03*
X104000000Y-89240000D03*
X104000000Y-86700000D03*
X104000000Y-84160000D03*
X104000000Y-81620000D03*
X104000000Y-79080000D03*
X104000000Y-76540000D03*
D11*
X104000000Y-74000000D03*
%TD*%
D12*
%TO.C,H4*%
X111000000Y-111000000D03*
%TD*%
%TO.C,H3*%
X110000000Y-74000000D03*
%TD*%
%TO.C,H2*%
X165000000Y-116000000D03*
%TD*%
%TO.C,H1*%
X149000000Y-74000000D03*
%TD*%
D13*
%TO.C,SW1*%
X155000000Y-109500000D03*
X159500000Y-109500000D03*
X155000000Y-116000000D03*
X159500000Y-116000000D03*
%TD*%
D14*
%TO.C,J2*%
X164376500Y-77009500D03*
X164376500Y-82009500D03*
D15*
X167126500Y-75634500D03*
X167126500Y-83384500D03*
D13*
X163326500Y-75784500D03*
X163326500Y-83234500D03*
%TD*%
D10*
%TO.C,J1*%
X116726000Y-75445500D03*
X119266000Y-75445500D03*
X116726000Y-77985500D03*
X119266000Y-77985500D03*
X116726000Y-80525500D03*
D11*
X119266000Y-80525500D03*
%TD*%
M02*
