%TF.GenerationSoftware,KiCad,Pcbnew,5.1.6-c6e7f7d~86~ubuntu20.04.1*%
%TF.CreationDate,2020-06-01T13:32:15+02:00*%
%TF.ProjectId,STM32103_Devel,53544d33-3231-4303-935f-446576656c2e,rev?*%
%TF.SameCoordinates,Original*%
%TF.FileFunction,Soldermask,Top*%
%TF.FilePolarity,Negative*%
%FSLAX46Y46*%
G04 Gerber Fmt 4.6, Leading zero omitted, Abs format (unit mm)*
G04 Created by KiCad (PCBNEW 5.1.6-c6e7f7d~86~ubuntu20.04.1) date 2020-06-01 13:32:15*
%MOMM*%
%LPD*%
G01*
G04 APERTURE LIST*
%ADD10O,1.800000X1.800000*%
%ADD11R,1.800000X1.800000*%
%ADD12C,2.800000*%
%ADD13R,1.900000X1.100000*%
%ADD14R,2.500000X2.100000*%
%ADD15R,1.600000X2.100000*%
%ADD16R,3.900000X2.100000*%
%ADD17C,2.100000*%
%ADD18C,0.900000*%
%ADD19C,1.900000*%
%ADD20R,1.400000X0.550000*%
%ADD21R,2.600000X1.900000*%
G04 APERTURE END LIST*
%TO.C,U1*%
G36*
G01*
X129050000Y-88525000D02*
X129050000Y-87150000D01*
G75*
G02*
X129150000Y-87050000I100000J0D01*
G01*
X129350000Y-87050000D01*
G75*
G02*
X129450000Y-87150000I0J-100000D01*
G01*
X129450000Y-88525000D01*
G75*
G02*
X129350000Y-88625000I-100000J0D01*
G01*
X129150000Y-88625000D01*
G75*
G02*
X129050000Y-88525000I0J100000D01*
G01*
G37*
G36*
G01*
X129550000Y-88525000D02*
X129550000Y-87150000D01*
G75*
G02*
X129650000Y-87050000I100000J0D01*
G01*
X129850000Y-87050000D01*
G75*
G02*
X129950000Y-87150000I0J-100000D01*
G01*
X129950000Y-88525000D01*
G75*
G02*
X129850000Y-88625000I-100000J0D01*
G01*
X129650000Y-88625000D01*
G75*
G02*
X129550000Y-88525000I0J100000D01*
G01*
G37*
G36*
G01*
X130050000Y-88525000D02*
X130050000Y-87150000D01*
G75*
G02*
X130150000Y-87050000I100000J0D01*
G01*
X130350000Y-87050000D01*
G75*
G02*
X130450000Y-87150000I0J-100000D01*
G01*
X130450000Y-88525000D01*
G75*
G02*
X130350000Y-88625000I-100000J0D01*
G01*
X130150000Y-88625000D01*
G75*
G02*
X130050000Y-88525000I0J100000D01*
G01*
G37*
G36*
G01*
X130550000Y-88525000D02*
X130550000Y-87150000D01*
G75*
G02*
X130650000Y-87050000I100000J0D01*
G01*
X130850000Y-87050000D01*
G75*
G02*
X130950000Y-87150000I0J-100000D01*
G01*
X130950000Y-88525000D01*
G75*
G02*
X130850000Y-88625000I-100000J0D01*
G01*
X130650000Y-88625000D01*
G75*
G02*
X130550000Y-88525000I0J100000D01*
G01*
G37*
G36*
G01*
X131050000Y-88525000D02*
X131050000Y-87150000D01*
G75*
G02*
X131150000Y-87050000I100000J0D01*
G01*
X131350000Y-87050000D01*
G75*
G02*
X131450000Y-87150000I0J-100000D01*
G01*
X131450000Y-88525000D01*
G75*
G02*
X131350000Y-88625000I-100000J0D01*
G01*
X131150000Y-88625000D01*
G75*
G02*
X131050000Y-88525000I0J100000D01*
G01*
G37*
G36*
G01*
X131550000Y-88525000D02*
X131550000Y-87150000D01*
G75*
G02*
X131650000Y-87050000I100000J0D01*
G01*
X131850000Y-87050000D01*
G75*
G02*
X131950000Y-87150000I0J-100000D01*
G01*
X131950000Y-88525000D01*
G75*
G02*
X131850000Y-88625000I-100000J0D01*
G01*
X131650000Y-88625000D01*
G75*
G02*
X131550000Y-88525000I0J100000D01*
G01*
G37*
G36*
G01*
X132050000Y-88525000D02*
X132050000Y-87150000D01*
G75*
G02*
X132150000Y-87050000I100000J0D01*
G01*
X132350000Y-87050000D01*
G75*
G02*
X132450000Y-87150000I0J-100000D01*
G01*
X132450000Y-88525000D01*
G75*
G02*
X132350000Y-88625000I-100000J0D01*
G01*
X132150000Y-88625000D01*
G75*
G02*
X132050000Y-88525000I0J100000D01*
G01*
G37*
G36*
G01*
X132550000Y-88525000D02*
X132550000Y-87150000D01*
G75*
G02*
X132650000Y-87050000I100000J0D01*
G01*
X132850000Y-87050000D01*
G75*
G02*
X132950000Y-87150000I0J-100000D01*
G01*
X132950000Y-88525000D01*
G75*
G02*
X132850000Y-88625000I-100000J0D01*
G01*
X132650000Y-88625000D01*
G75*
G02*
X132550000Y-88525000I0J100000D01*
G01*
G37*
G36*
G01*
X133050000Y-88525000D02*
X133050000Y-87150000D01*
G75*
G02*
X133150000Y-87050000I100000J0D01*
G01*
X133350000Y-87050000D01*
G75*
G02*
X133450000Y-87150000I0J-100000D01*
G01*
X133450000Y-88525000D01*
G75*
G02*
X133350000Y-88625000I-100000J0D01*
G01*
X133150000Y-88625000D01*
G75*
G02*
X133050000Y-88525000I0J100000D01*
G01*
G37*
G36*
G01*
X133550000Y-88525000D02*
X133550000Y-87150000D01*
G75*
G02*
X133650000Y-87050000I100000J0D01*
G01*
X133850000Y-87050000D01*
G75*
G02*
X133950000Y-87150000I0J-100000D01*
G01*
X133950000Y-88525000D01*
G75*
G02*
X133850000Y-88625000I-100000J0D01*
G01*
X133650000Y-88625000D01*
G75*
G02*
X133550000Y-88525000I0J100000D01*
G01*
G37*
G36*
G01*
X134050000Y-88525000D02*
X134050000Y-87150000D01*
G75*
G02*
X134150000Y-87050000I100000J0D01*
G01*
X134350000Y-87050000D01*
G75*
G02*
X134450000Y-87150000I0J-100000D01*
G01*
X134450000Y-88525000D01*
G75*
G02*
X134350000Y-88625000I-100000J0D01*
G01*
X134150000Y-88625000D01*
G75*
G02*
X134050000Y-88525000I0J100000D01*
G01*
G37*
G36*
G01*
X134550000Y-88525000D02*
X134550000Y-87150000D01*
G75*
G02*
X134650000Y-87050000I100000J0D01*
G01*
X134850000Y-87050000D01*
G75*
G02*
X134950000Y-87150000I0J-100000D01*
G01*
X134950000Y-88525000D01*
G75*
G02*
X134850000Y-88625000I-100000J0D01*
G01*
X134650000Y-88625000D01*
G75*
G02*
X134550000Y-88525000I0J100000D01*
G01*
G37*
G36*
G01*
X135375000Y-89350000D02*
X135375000Y-89150000D01*
G75*
G02*
X135475000Y-89050000I100000J0D01*
G01*
X136850000Y-89050000D01*
G75*
G02*
X136950000Y-89150000I0J-100000D01*
G01*
X136950000Y-89350000D01*
G75*
G02*
X136850000Y-89450000I-100000J0D01*
G01*
X135475000Y-89450000D01*
G75*
G02*
X135375000Y-89350000I0J100000D01*
G01*
G37*
G36*
G01*
X135375000Y-89850000D02*
X135375000Y-89650000D01*
G75*
G02*
X135475000Y-89550000I100000J0D01*
G01*
X136850000Y-89550000D01*
G75*
G02*
X136950000Y-89650000I0J-100000D01*
G01*
X136950000Y-89850000D01*
G75*
G02*
X136850000Y-89950000I-100000J0D01*
G01*
X135475000Y-89950000D01*
G75*
G02*
X135375000Y-89850000I0J100000D01*
G01*
G37*
G36*
G01*
X135375000Y-90350000D02*
X135375000Y-90150000D01*
G75*
G02*
X135475000Y-90050000I100000J0D01*
G01*
X136850000Y-90050000D01*
G75*
G02*
X136950000Y-90150000I0J-100000D01*
G01*
X136950000Y-90350000D01*
G75*
G02*
X136850000Y-90450000I-100000J0D01*
G01*
X135475000Y-90450000D01*
G75*
G02*
X135375000Y-90350000I0J100000D01*
G01*
G37*
G36*
G01*
X135375000Y-90850000D02*
X135375000Y-90650000D01*
G75*
G02*
X135475000Y-90550000I100000J0D01*
G01*
X136850000Y-90550000D01*
G75*
G02*
X136950000Y-90650000I0J-100000D01*
G01*
X136950000Y-90850000D01*
G75*
G02*
X136850000Y-90950000I-100000J0D01*
G01*
X135475000Y-90950000D01*
G75*
G02*
X135375000Y-90850000I0J100000D01*
G01*
G37*
G36*
G01*
X135375000Y-91350000D02*
X135375000Y-91150000D01*
G75*
G02*
X135475000Y-91050000I100000J0D01*
G01*
X136850000Y-91050000D01*
G75*
G02*
X136950000Y-91150000I0J-100000D01*
G01*
X136950000Y-91350000D01*
G75*
G02*
X136850000Y-91450000I-100000J0D01*
G01*
X135475000Y-91450000D01*
G75*
G02*
X135375000Y-91350000I0J100000D01*
G01*
G37*
G36*
G01*
X135375000Y-91850000D02*
X135375000Y-91650000D01*
G75*
G02*
X135475000Y-91550000I100000J0D01*
G01*
X136850000Y-91550000D01*
G75*
G02*
X136950000Y-91650000I0J-100000D01*
G01*
X136950000Y-91850000D01*
G75*
G02*
X136850000Y-91950000I-100000J0D01*
G01*
X135475000Y-91950000D01*
G75*
G02*
X135375000Y-91850000I0J100000D01*
G01*
G37*
G36*
G01*
X135375000Y-92350000D02*
X135375000Y-92150000D01*
G75*
G02*
X135475000Y-92050000I100000J0D01*
G01*
X136850000Y-92050000D01*
G75*
G02*
X136950000Y-92150000I0J-100000D01*
G01*
X136950000Y-92350000D01*
G75*
G02*
X136850000Y-92450000I-100000J0D01*
G01*
X135475000Y-92450000D01*
G75*
G02*
X135375000Y-92350000I0J100000D01*
G01*
G37*
G36*
G01*
X135375000Y-92850000D02*
X135375000Y-92650000D01*
G75*
G02*
X135475000Y-92550000I100000J0D01*
G01*
X136850000Y-92550000D01*
G75*
G02*
X136950000Y-92650000I0J-100000D01*
G01*
X136950000Y-92850000D01*
G75*
G02*
X136850000Y-92950000I-100000J0D01*
G01*
X135475000Y-92950000D01*
G75*
G02*
X135375000Y-92850000I0J100000D01*
G01*
G37*
G36*
G01*
X135375000Y-93350000D02*
X135375000Y-93150000D01*
G75*
G02*
X135475000Y-93050000I100000J0D01*
G01*
X136850000Y-93050000D01*
G75*
G02*
X136950000Y-93150000I0J-100000D01*
G01*
X136950000Y-93350000D01*
G75*
G02*
X136850000Y-93450000I-100000J0D01*
G01*
X135475000Y-93450000D01*
G75*
G02*
X135375000Y-93350000I0J100000D01*
G01*
G37*
G36*
G01*
X135375000Y-93850000D02*
X135375000Y-93650000D01*
G75*
G02*
X135475000Y-93550000I100000J0D01*
G01*
X136850000Y-93550000D01*
G75*
G02*
X136950000Y-93650000I0J-100000D01*
G01*
X136950000Y-93850000D01*
G75*
G02*
X136850000Y-93950000I-100000J0D01*
G01*
X135475000Y-93950000D01*
G75*
G02*
X135375000Y-93850000I0J100000D01*
G01*
G37*
G36*
G01*
X135375000Y-94350000D02*
X135375000Y-94150000D01*
G75*
G02*
X135475000Y-94050000I100000J0D01*
G01*
X136850000Y-94050000D01*
G75*
G02*
X136950000Y-94150000I0J-100000D01*
G01*
X136950000Y-94350000D01*
G75*
G02*
X136850000Y-94450000I-100000J0D01*
G01*
X135475000Y-94450000D01*
G75*
G02*
X135375000Y-94350000I0J100000D01*
G01*
G37*
G36*
G01*
X135375000Y-94850000D02*
X135375000Y-94650000D01*
G75*
G02*
X135475000Y-94550000I100000J0D01*
G01*
X136850000Y-94550000D01*
G75*
G02*
X136950000Y-94650000I0J-100000D01*
G01*
X136950000Y-94850000D01*
G75*
G02*
X136850000Y-94950000I-100000J0D01*
G01*
X135475000Y-94950000D01*
G75*
G02*
X135375000Y-94850000I0J100000D01*
G01*
G37*
G36*
G01*
X134550000Y-96850000D02*
X134550000Y-95475000D01*
G75*
G02*
X134650000Y-95375000I100000J0D01*
G01*
X134850000Y-95375000D01*
G75*
G02*
X134950000Y-95475000I0J-100000D01*
G01*
X134950000Y-96850000D01*
G75*
G02*
X134850000Y-96950000I-100000J0D01*
G01*
X134650000Y-96950000D01*
G75*
G02*
X134550000Y-96850000I0J100000D01*
G01*
G37*
G36*
G01*
X134050000Y-96850000D02*
X134050000Y-95475000D01*
G75*
G02*
X134150000Y-95375000I100000J0D01*
G01*
X134350000Y-95375000D01*
G75*
G02*
X134450000Y-95475000I0J-100000D01*
G01*
X134450000Y-96850000D01*
G75*
G02*
X134350000Y-96950000I-100000J0D01*
G01*
X134150000Y-96950000D01*
G75*
G02*
X134050000Y-96850000I0J100000D01*
G01*
G37*
G36*
G01*
X133550000Y-96850000D02*
X133550000Y-95475000D01*
G75*
G02*
X133650000Y-95375000I100000J0D01*
G01*
X133850000Y-95375000D01*
G75*
G02*
X133950000Y-95475000I0J-100000D01*
G01*
X133950000Y-96850000D01*
G75*
G02*
X133850000Y-96950000I-100000J0D01*
G01*
X133650000Y-96950000D01*
G75*
G02*
X133550000Y-96850000I0J100000D01*
G01*
G37*
G36*
G01*
X133050000Y-96850000D02*
X133050000Y-95475000D01*
G75*
G02*
X133150000Y-95375000I100000J0D01*
G01*
X133350000Y-95375000D01*
G75*
G02*
X133450000Y-95475000I0J-100000D01*
G01*
X133450000Y-96850000D01*
G75*
G02*
X133350000Y-96950000I-100000J0D01*
G01*
X133150000Y-96950000D01*
G75*
G02*
X133050000Y-96850000I0J100000D01*
G01*
G37*
G36*
G01*
X132550000Y-96850000D02*
X132550000Y-95475000D01*
G75*
G02*
X132650000Y-95375000I100000J0D01*
G01*
X132850000Y-95375000D01*
G75*
G02*
X132950000Y-95475000I0J-100000D01*
G01*
X132950000Y-96850000D01*
G75*
G02*
X132850000Y-96950000I-100000J0D01*
G01*
X132650000Y-96950000D01*
G75*
G02*
X132550000Y-96850000I0J100000D01*
G01*
G37*
G36*
G01*
X132050000Y-96850000D02*
X132050000Y-95475000D01*
G75*
G02*
X132150000Y-95375000I100000J0D01*
G01*
X132350000Y-95375000D01*
G75*
G02*
X132450000Y-95475000I0J-100000D01*
G01*
X132450000Y-96850000D01*
G75*
G02*
X132350000Y-96950000I-100000J0D01*
G01*
X132150000Y-96950000D01*
G75*
G02*
X132050000Y-96850000I0J100000D01*
G01*
G37*
G36*
G01*
X131550000Y-96850000D02*
X131550000Y-95475000D01*
G75*
G02*
X131650000Y-95375000I100000J0D01*
G01*
X131850000Y-95375000D01*
G75*
G02*
X131950000Y-95475000I0J-100000D01*
G01*
X131950000Y-96850000D01*
G75*
G02*
X131850000Y-96950000I-100000J0D01*
G01*
X131650000Y-96950000D01*
G75*
G02*
X131550000Y-96850000I0J100000D01*
G01*
G37*
G36*
G01*
X131050000Y-96850000D02*
X131050000Y-95475000D01*
G75*
G02*
X131150000Y-95375000I100000J0D01*
G01*
X131350000Y-95375000D01*
G75*
G02*
X131450000Y-95475000I0J-100000D01*
G01*
X131450000Y-96850000D01*
G75*
G02*
X131350000Y-96950000I-100000J0D01*
G01*
X131150000Y-96950000D01*
G75*
G02*
X131050000Y-96850000I0J100000D01*
G01*
G37*
G36*
G01*
X130550000Y-96850000D02*
X130550000Y-95475000D01*
G75*
G02*
X130650000Y-95375000I100000J0D01*
G01*
X130850000Y-95375000D01*
G75*
G02*
X130950000Y-95475000I0J-100000D01*
G01*
X130950000Y-96850000D01*
G75*
G02*
X130850000Y-96950000I-100000J0D01*
G01*
X130650000Y-96950000D01*
G75*
G02*
X130550000Y-96850000I0J100000D01*
G01*
G37*
G36*
G01*
X130050000Y-96850000D02*
X130050000Y-95475000D01*
G75*
G02*
X130150000Y-95375000I100000J0D01*
G01*
X130350000Y-95375000D01*
G75*
G02*
X130450000Y-95475000I0J-100000D01*
G01*
X130450000Y-96850000D01*
G75*
G02*
X130350000Y-96950000I-100000J0D01*
G01*
X130150000Y-96950000D01*
G75*
G02*
X130050000Y-96850000I0J100000D01*
G01*
G37*
G36*
G01*
X129550000Y-96850000D02*
X129550000Y-95475000D01*
G75*
G02*
X129650000Y-95375000I100000J0D01*
G01*
X129850000Y-95375000D01*
G75*
G02*
X129950000Y-95475000I0J-100000D01*
G01*
X129950000Y-96850000D01*
G75*
G02*
X129850000Y-96950000I-100000J0D01*
G01*
X129650000Y-96950000D01*
G75*
G02*
X129550000Y-96850000I0J100000D01*
G01*
G37*
G36*
G01*
X129050000Y-96850000D02*
X129050000Y-95475000D01*
G75*
G02*
X129150000Y-95375000I100000J0D01*
G01*
X129350000Y-95375000D01*
G75*
G02*
X129450000Y-95475000I0J-100000D01*
G01*
X129450000Y-96850000D01*
G75*
G02*
X129350000Y-96950000I-100000J0D01*
G01*
X129150000Y-96950000D01*
G75*
G02*
X129050000Y-96850000I0J100000D01*
G01*
G37*
G36*
G01*
X127050000Y-94850000D02*
X127050000Y-94650000D01*
G75*
G02*
X127150000Y-94550000I100000J0D01*
G01*
X128525000Y-94550000D01*
G75*
G02*
X128625000Y-94650000I0J-100000D01*
G01*
X128625000Y-94850000D01*
G75*
G02*
X128525000Y-94950000I-100000J0D01*
G01*
X127150000Y-94950000D01*
G75*
G02*
X127050000Y-94850000I0J100000D01*
G01*
G37*
G36*
G01*
X127050000Y-94350000D02*
X127050000Y-94150000D01*
G75*
G02*
X127150000Y-94050000I100000J0D01*
G01*
X128525000Y-94050000D01*
G75*
G02*
X128625000Y-94150000I0J-100000D01*
G01*
X128625000Y-94350000D01*
G75*
G02*
X128525000Y-94450000I-100000J0D01*
G01*
X127150000Y-94450000D01*
G75*
G02*
X127050000Y-94350000I0J100000D01*
G01*
G37*
G36*
G01*
X127050000Y-93850000D02*
X127050000Y-93650000D01*
G75*
G02*
X127150000Y-93550000I100000J0D01*
G01*
X128525000Y-93550000D01*
G75*
G02*
X128625000Y-93650000I0J-100000D01*
G01*
X128625000Y-93850000D01*
G75*
G02*
X128525000Y-93950000I-100000J0D01*
G01*
X127150000Y-93950000D01*
G75*
G02*
X127050000Y-93850000I0J100000D01*
G01*
G37*
G36*
G01*
X127050000Y-93350000D02*
X127050000Y-93150000D01*
G75*
G02*
X127150000Y-93050000I100000J0D01*
G01*
X128525000Y-93050000D01*
G75*
G02*
X128625000Y-93150000I0J-100000D01*
G01*
X128625000Y-93350000D01*
G75*
G02*
X128525000Y-93450000I-100000J0D01*
G01*
X127150000Y-93450000D01*
G75*
G02*
X127050000Y-93350000I0J100000D01*
G01*
G37*
G36*
G01*
X127050000Y-92850000D02*
X127050000Y-92650000D01*
G75*
G02*
X127150000Y-92550000I100000J0D01*
G01*
X128525000Y-92550000D01*
G75*
G02*
X128625000Y-92650000I0J-100000D01*
G01*
X128625000Y-92850000D01*
G75*
G02*
X128525000Y-92950000I-100000J0D01*
G01*
X127150000Y-92950000D01*
G75*
G02*
X127050000Y-92850000I0J100000D01*
G01*
G37*
G36*
G01*
X127050000Y-92350000D02*
X127050000Y-92150000D01*
G75*
G02*
X127150000Y-92050000I100000J0D01*
G01*
X128525000Y-92050000D01*
G75*
G02*
X128625000Y-92150000I0J-100000D01*
G01*
X128625000Y-92350000D01*
G75*
G02*
X128525000Y-92450000I-100000J0D01*
G01*
X127150000Y-92450000D01*
G75*
G02*
X127050000Y-92350000I0J100000D01*
G01*
G37*
G36*
G01*
X127050000Y-91850000D02*
X127050000Y-91650000D01*
G75*
G02*
X127150000Y-91550000I100000J0D01*
G01*
X128525000Y-91550000D01*
G75*
G02*
X128625000Y-91650000I0J-100000D01*
G01*
X128625000Y-91850000D01*
G75*
G02*
X128525000Y-91950000I-100000J0D01*
G01*
X127150000Y-91950000D01*
G75*
G02*
X127050000Y-91850000I0J100000D01*
G01*
G37*
G36*
G01*
X127050000Y-91350000D02*
X127050000Y-91150000D01*
G75*
G02*
X127150000Y-91050000I100000J0D01*
G01*
X128525000Y-91050000D01*
G75*
G02*
X128625000Y-91150000I0J-100000D01*
G01*
X128625000Y-91350000D01*
G75*
G02*
X128525000Y-91450000I-100000J0D01*
G01*
X127150000Y-91450000D01*
G75*
G02*
X127050000Y-91350000I0J100000D01*
G01*
G37*
G36*
G01*
X127050000Y-90850000D02*
X127050000Y-90650000D01*
G75*
G02*
X127150000Y-90550000I100000J0D01*
G01*
X128525000Y-90550000D01*
G75*
G02*
X128625000Y-90650000I0J-100000D01*
G01*
X128625000Y-90850000D01*
G75*
G02*
X128525000Y-90950000I-100000J0D01*
G01*
X127150000Y-90950000D01*
G75*
G02*
X127050000Y-90850000I0J100000D01*
G01*
G37*
G36*
G01*
X127050000Y-90350000D02*
X127050000Y-90150000D01*
G75*
G02*
X127150000Y-90050000I100000J0D01*
G01*
X128525000Y-90050000D01*
G75*
G02*
X128625000Y-90150000I0J-100000D01*
G01*
X128625000Y-90350000D01*
G75*
G02*
X128525000Y-90450000I-100000J0D01*
G01*
X127150000Y-90450000D01*
G75*
G02*
X127050000Y-90350000I0J100000D01*
G01*
G37*
G36*
G01*
X127050000Y-89850000D02*
X127050000Y-89650000D01*
G75*
G02*
X127150000Y-89550000I100000J0D01*
G01*
X128525000Y-89550000D01*
G75*
G02*
X128625000Y-89650000I0J-100000D01*
G01*
X128625000Y-89850000D01*
G75*
G02*
X128525000Y-89950000I-100000J0D01*
G01*
X127150000Y-89950000D01*
G75*
G02*
X127050000Y-89850000I0J100000D01*
G01*
G37*
G36*
G01*
X127050000Y-89350000D02*
X127050000Y-89150000D01*
G75*
G02*
X127150000Y-89050000I100000J0D01*
G01*
X128525000Y-89050000D01*
G75*
G02*
X128625000Y-89150000I0J-100000D01*
G01*
X128625000Y-89350000D01*
G75*
G02*
X128525000Y-89450000I-100000J0D01*
G01*
X127150000Y-89450000D01*
G75*
G02*
X127050000Y-89350000I0J100000D01*
G01*
G37*
%TD*%
%TO.C,C7*%
G36*
G01*
X127537500Y-81518750D02*
X127537500Y-82481250D01*
G75*
G02*
X127268750Y-82750000I-268750J0D01*
G01*
X126731250Y-82750000D01*
G75*
G02*
X126462500Y-82481250I0J268750D01*
G01*
X126462500Y-81518750D01*
G75*
G02*
X126731250Y-81250000I268750J0D01*
G01*
X127268750Y-81250000D01*
G75*
G02*
X127537500Y-81518750I0J-268750D01*
G01*
G37*
G36*
G01*
X129412500Y-81518750D02*
X129412500Y-82481250D01*
G75*
G02*
X129143750Y-82750000I-268750J0D01*
G01*
X128606250Y-82750000D01*
G75*
G02*
X128337500Y-82481250I0J268750D01*
G01*
X128337500Y-81518750D01*
G75*
G02*
X128606250Y-81250000I268750J0D01*
G01*
X129143750Y-81250000D01*
G75*
G02*
X129412500Y-81518750I0J-268750D01*
G01*
G37*
%TD*%
D10*
%TO.C,J5*%
X151100000Y-116000000D03*
X148560000Y-116000000D03*
X146020000Y-116000000D03*
X143480000Y-116000000D03*
X140940000Y-116000000D03*
X138400000Y-116000000D03*
X135860000Y-116000000D03*
X133320000Y-116000000D03*
X130780000Y-116000000D03*
X128240000Y-116000000D03*
X125700000Y-116000000D03*
X123160000Y-116000000D03*
X120620000Y-116000000D03*
X118080000Y-116000000D03*
X115540000Y-116000000D03*
D11*
X113000000Y-116000000D03*
%TD*%
D10*
%TO.C,J3*%
X166002000Y-110180000D03*
X163462000Y-110180000D03*
X166002000Y-107640000D03*
X163462000Y-107640000D03*
X166002000Y-105100000D03*
X163462000Y-105100000D03*
X166002000Y-102560000D03*
X163462000Y-102560000D03*
X166002000Y-100020000D03*
X163462000Y-100020000D03*
X166002000Y-97480000D03*
X163462000Y-97480000D03*
X166002000Y-94940000D03*
X163462000Y-94940000D03*
X166002000Y-92400000D03*
X163462000Y-92400000D03*
X166002000Y-89860000D03*
X163462000Y-89860000D03*
X166002000Y-87320000D03*
D11*
X163462000Y-87320000D03*
%TD*%
D10*
%TO.C,J4*%
X104000000Y-112100000D03*
X104000000Y-109560000D03*
X104000000Y-107020000D03*
X104000000Y-104480000D03*
X104000000Y-101940000D03*
X104000000Y-99400000D03*
X104000000Y-96860000D03*
X104000000Y-94320000D03*
X104000000Y-91780000D03*
X104000000Y-89240000D03*
X104000000Y-86700000D03*
X104000000Y-84160000D03*
X104000000Y-81620000D03*
X104000000Y-79080000D03*
X104000000Y-76540000D03*
D11*
X104000000Y-74000000D03*
%TD*%
D12*
%TO.C,H4*%
X111000000Y-111000000D03*
%TD*%
%TO.C,H3*%
X110000000Y-74000000D03*
%TD*%
%TO.C,H2*%
X165000000Y-116000000D03*
%TD*%
%TO.C,H1*%
X149000000Y-74000000D03*
%TD*%
D13*
%TO.C,Y2*%
X116000000Y-86750000D03*
X116000000Y-89250000D03*
%TD*%
D14*
%TO.C,Y1*%
X116000000Y-95850000D03*
X116000000Y-92150000D03*
%TD*%
D15*
%TO.C,U2*%
X154300000Y-95850000D03*
X149700000Y-95850000D03*
X152000000Y-95850000D03*
D16*
X152000000Y-102150000D03*
%TD*%
D17*
%TO.C,SW1*%
X155000000Y-109500000D03*
X159500000Y-109500000D03*
X155000000Y-116000000D03*
X159500000Y-116000000D03*
%TD*%
%TO.C,R10*%
G36*
G01*
X148854000Y-82534750D02*
X148854000Y-83497250D01*
G75*
G02*
X148585250Y-83766000I-268750J0D01*
G01*
X148047750Y-83766000D01*
G75*
G02*
X147779000Y-83497250I0J268750D01*
G01*
X147779000Y-82534750D01*
G75*
G02*
X148047750Y-82266000I268750J0D01*
G01*
X148585250Y-82266000D01*
G75*
G02*
X148854000Y-82534750I0J-268750D01*
G01*
G37*
G36*
G01*
X150729000Y-82534750D02*
X150729000Y-83497250D01*
G75*
G02*
X150460250Y-83766000I-268750J0D01*
G01*
X149922750Y-83766000D01*
G75*
G02*
X149654000Y-83497250I0J268750D01*
G01*
X149654000Y-82534750D01*
G75*
G02*
X149922750Y-82266000I268750J0D01*
G01*
X150460250Y-82266000D01*
G75*
G02*
X150729000Y-82534750I0J-268750D01*
G01*
G37*
%TD*%
%TO.C,R9*%
G36*
G01*
X149654000Y-81451250D02*
X149654000Y-80488750D01*
G75*
G02*
X149922750Y-80220000I268750J0D01*
G01*
X150460250Y-80220000D01*
G75*
G02*
X150729000Y-80488750I0J-268750D01*
G01*
X150729000Y-81451250D01*
G75*
G02*
X150460250Y-81720000I-268750J0D01*
G01*
X149922750Y-81720000D01*
G75*
G02*
X149654000Y-81451250I0J268750D01*
G01*
G37*
G36*
G01*
X147779000Y-81451250D02*
X147779000Y-80488750D01*
G75*
G02*
X148047750Y-80220000I268750J0D01*
G01*
X148585250Y-80220000D01*
G75*
G02*
X148854000Y-80488750I0J-268750D01*
G01*
X148854000Y-81451250D01*
G75*
G02*
X148585250Y-81720000I-268750J0D01*
G01*
X148047750Y-81720000D01*
G75*
G02*
X147779000Y-81451250I0J268750D01*
G01*
G37*
%TD*%
%TO.C,R8*%
G36*
G01*
X154481250Y-77537500D02*
X153518750Y-77537500D01*
G75*
G02*
X153250000Y-77268750I0J268750D01*
G01*
X153250000Y-76731250D01*
G75*
G02*
X153518750Y-76462500I268750J0D01*
G01*
X154481250Y-76462500D01*
G75*
G02*
X154750000Y-76731250I0J-268750D01*
G01*
X154750000Y-77268750D01*
G75*
G02*
X154481250Y-77537500I-268750J0D01*
G01*
G37*
G36*
G01*
X154481250Y-79412500D02*
X153518750Y-79412500D01*
G75*
G02*
X153250000Y-79143750I0J268750D01*
G01*
X153250000Y-78606250D01*
G75*
G02*
X153518750Y-78337500I268750J0D01*
G01*
X154481250Y-78337500D01*
G75*
G02*
X154750000Y-78606250I0J-268750D01*
G01*
X154750000Y-79143750D01*
G75*
G02*
X154481250Y-79412500I-268750J0D01*
G01*
G37*
%TD*%
%TO.C,R7*%
G36*
G01*
X159481250Y-75600000D02*
X158518750Y-75600000D01*
G75*
G02*
X158250000Y-75331250I0J268750D01*
G01*
X158250000Y-74793750D01*
G75*
G02*
X158518750Y-74525000I268750J0D01*
G01*
X159481250Y-74525000D01*
G75*
G02*
X159750000Y-74793750I0J-268750D01*
G01*
X159750000Y-75331250D01*
G75*
G02*
X159481250Y-75600000I-268750J0D01*
G01*
G37*
G36*
G01*
X159481250Y-77475000D02*
X158518750Y-77475000D01*
G75*
G02*
X158250000Y-77206250I0J268750D01*
G01*
X158250000Y-76668750D01*
G75*
G02*
X158518750Y-76400000I268750J0D01*
G01*
X159481250Y-76400000D01*
G75*
G02*
X159750000Y-76668750I0J-268750D01*
G01*
X159750000Y-77206250D01*
G75*
G02*
X159481250Y-77475000I-268750J0D01*
G01*
G37*
%TD*%
%TO.C,R6*%
G36*
G01*
X136172000Y-76740750D02*
X136172000Y-77703250D01*
G75*
G02*
X135903250Y-77972000I-268750J0D01*
G01*
X135365750Y-77972000D01*
G75*
G02*
X135097000Y-77703250I0J268750D01*
G01*
X135097000Y-76740750D01*
G75*
G02*
X135365750Y-76472000I268750J0D01*
G01*
X135903250Y-76472000D01*
G75*
G02*
X136172000Y-76740750I0J-268750D01*
G01*
G37*
G36*
G01*
X138047000Y-76740750D02*
X138047000Y-77703250D01*
G75*
G02*
X137778250Y-77972000I-268750J0D01*
G01*
X137240750Y-77972000D01*
G75*
G02*
X136972000Y-77703250I0J268750D01*
G01*
X136972000Y-76740750D01*
G75*
G02*
X137240750Y-76472000I268750J0D01*
G01*
X137778250Y-76472000D01*
G75*
G02*
X138047000Y-76740750I0J-268750D01*
G01*
G37*
%TD*%
%TO.C,R5*%
G36*
G01*
X112561750Y-79337500D02*
X113524250Y-79337500D01*
G75*
G02*
X113793000Y-79606250I0J-268750D01*
G01*
X113793000Y-80143750D01*
G75*
G02*
X113524250Y-80412500I-268750J0D01*
G01*
X112561750Y-80412500D01*
G75*
G02*
X112293000Y-80143750I0J268750D01*
G01*
X112293000Y-79606250D01*
G75*
G02*
X112561750Y-79337500I268750J0D01*
G01*
G37*
G36*
G01*
X112561750Y-77462500D02*
X113524250Y-77462500D01*
G75*
G02*
X113793000Y-77731250I0J-268750D01*
G01*
X113793000Y-78268750D01*
G75*
G02*
X113524250Y-78537500I-268750J0D01*
G01*
X112561750Y-78537500D01*
G75*
G02*
X112293000Y-78268750I0J268750D01*
G01*
X112293000Y-77731250D01*
G75*
G02*
X112561750Y-77462500I268750J0D01*
G01*
G37*
%TD*%
%TO.C,R4*%
G36*
G01*
X146481250Y-101537500D02*
X145518750Y-101537500D01*
G75*
G02*
X145250000Y-101268750I0J268750D01*
G01*
X145250000Y-100731250D01*
G75*
G02*
X145518750Y-100462500I268750J0D01*
G01*
X146481250Y-100462500D01*
G75*
G02*
X146750000Y-100731250I0J-268750D01*
G01*
X146750000Y-101268750D01*
G75*
G02*
X146481250Y-101537500I-268750J0D01*
G01*
G37*
G36*
G01*
X146481250Y-103412500D02*
X145518750Y-103412500D01*
G75*
G02*
X145250000Y-103143750I0J268750D01*
G01*
X145250000Y-102606250D01*
G75*
G02*
X145518750Y-102337500I268750J0D01*
G01*
X146481250Y-102337500D01*
G75*
G02*
X146750000Y-102606250I0J-268750D01*
G01*
X146750000Y-103143750D01*
G75*
G02*
X146481250Y-103412500I-268750J0D01*
G01*
G37*
%TD*%
%TO.C,R3*%
G36*
G01*
X147518750Y-109462500D02*
X148481250Y-109462500D01*
G75*
G02*
X148750000Y-109731250I0J-268750D01*
G01*
X148750000Y-110268750D01*
G75*
G02*
X148481250Y-110537500I-268750J0D01*
G01*
X147518750Y-110537500D01*
G75*
G02*
X147250000Y-110268750I0J268750D01*
G01*
X147250000Y-109731250D01*
G75*
G02*
X147518750Y-109462500I268750J0D01*
G01*
G37*
G36*
G01*
X147518750Y-107587500D02*
X148481250Y-107587500D01*
G75*
G02*
X148750000Y-107856250I0J-268750D01*
G01*
X148750000Y-108393750D01*
G75*
G02*
X148481250Y-108662500I-268750J0D01*
G01*
X147518750Y-108662500D01*
G75*
G02*
X147250000Y-108393750I0J268750D01*
G01*
X147250000Y-107856250D01*
G75*
G02*
X147518750Y-107587500I268750J0D01*
G01*
G37*
%TD*%
%TO.C,R2*%
G36*
G01*
X143504000Y-92680750D02*
X143504000Y-93643250D01*
G75*
G02*
X143235250Y-93912000I-268750J0D01*
G01*
X142697750Y-93912000D01*
G75*
G02*
X142429000Y-93643250I0J268750D01*
G01*
X142429000Y-92680750D01*
G75*
G02*
X142697750Y-92412000I268750J0D01*
G01*
X143235250Y-92412000D01*
G75*
G02*
X143504000Y-92680750I0J-268750D01*
G01*
G37*
G36*
G01*
X145379000Y-92680750D02*
X145379000Y-93643250D01*
G75*
G02*
X145110250Y-93912000I-268750J0D01*
G01*
X144572750Y-93912000D01*
G75*
G02*
X144304000Y-93643250I0J268750D01*
G01*
X144304000Y-92680750D01*
G75*
G02*
X144572750Y-92412000I268750J0D01*
G01*
X145110250Y-92412000D01*
G75*
G02*
X145379000Y-92680750I0J-268750D01*
G01*
G37*
%TD*%
%TO.C,R1*%
G36*
G01*
X122531250Y-79338000D02*
X123493750Y-79338000D01*
G75*
G02*
X123762500Y-79606750I0J-268750D01*
G01*
X123762500Y-80144250D01*
G75*
G02*
X123493750Y-80413000I-268750J0D01*
G01*
X122531250Y-80413000D01*
G75*
G02*
X122262500Y-80144250I0J268750D01*
G01*
X122262500Y-79606750D01*
G75*
G02*
X122531250Y-79338000I268750J0D01*
G01*
G37*
G36*
G01*
X122531250Y-77463000D02*
X123493750Y-77463000D01*
G75*
G02*
X123762500Y-77731750I0J-268750D01*
G01*
X123762500Y-78269250D01*
G75*
G02*
X123493750Y-78538000I-268750J0D01*
G01*
X122531250Y-78538000D01*
G75*
G02*
X122262500Y-78269250I0J268750D01*
G01*
X122262500Y-77731750D01*
G75*
G02*
X122531250Y-77463000I268750J0D01*
G01*
G37*
%TD*%
%TO.C,L2*%
G36*
G01*
X115564000Y-99792750D02*
X115564000Y-100755250D01*
G75*
G02*
X115295250Y-101024000I-268750J0D01*
G01*
X114757750Y-101024000D01*
G75*
G02*
X114489000Y-100755250I0J268750D01*
G01*
X114489000Y-99792750D01*
G75*
G02*
X114757750Y-99524000I268750J0D01*
G01*
X115295250Y-99524000D01*
G75*
G02*
X115564000Y-99792750I0J-268750D01*
G01*
G37*
G36*
G01*
X117439000Y-99792750D02*
X117439000Y-100755250D01*
G75*
G02*
X117170250Y-101024000I-268750J0D01*
G01*
X116632750Y-101024000D01*
G75*
G02*
X116364000Y-100755250I0J268750D01*
G01*
X116364000Y-99792750D01*
G75*
G02*
X116632750Y-99524000I268750J0D01*
G01*
X117170250Y-99524000D01*
G75*
G02*
X117439000Y-99792750I0J-268750D01*
G01*
G37*
%TD*%
%TO.C,L1*%
G36*
G01*
X115818000Y-103094750D02*
X115818000Y-104057250D01*
G75*
G02*
X115549250Y-104326000I-268750J0D01*
G01*
X115011750Y-104326000D01*
G75*
G02*
X114743000Y-104057250I0J268750D01*
G01*
X114743000Y-103094750D01*
G75*
G02*
X115011750Y-102826000I268750J0D01*
G01*
X115549250Y-102826000D01*
G75*
G02*
X115818000Y-103094750I0J-268750D01*
G01*
G37*
G36*
G01*
X117693000Y-103094750D02*
X117693000Y-104057250D01*
G75*
G02*
X117424250Y-104326000I-268750J0D01*
G01*
X116886750Y-104326000D01*
G75*
G02*
X116618000Y-104057250I0J268750D01*
G01*
X116618000Y-103094750D01*
G75*
G02*
X116886750Y-102826000I268750J0D01*
G01*
X117424250Y-102826000D01*
G75*
G02*
X117693000Y-103094750I0J-268750D01*
G01*
G37*
%TD*%
D18*
%TO.C,J2*%
X164376500Y-77009500D03*
X164376500Y-82009500D03*
D19*
X167126500Y-75634500D03*
X167126500Y-83384500D03*
D17*
X163326500Y-75784500D03*
X163326500Y-83234500D03*
D20*
X163276500Y-78209500D03*
X163276500Y-78859500D03*
X163276500Y-79509500D03*
X163276500Y-80159500D03*
X163276500Y-80809500D03*
%TD*%
D10*
%TO.C,J1*%
X116726000Y-75445500D03*
X119266000Y-75445500D03*
X116726000Y-77985500D03*
X119266000Y-77985500D03*
X116726000Y-80525500D03*
D11*
X119266000Y-80525500D03*
%TD*%
D21*
%TO.C,D4*%
X156000000Y-88000000D03*
X152000000Y-88000000D03*
%TD*%
%TO.C,D3*%
G36*
G01*
X136172000Y-79740750D02*
X136172000Y-80703250D01*
G75*
G02*
X135903250Y-80972000I-268750J0D01*
G01*
X135365750Y-80972000D01*
G75*
G02*
X135097000Y-80703250I0J268750D01*
G01*
X135097000Y-79740750D01*
G75*
G02*
X135365750Y-79472000I268750J0D01*
G01*
X135903250Y-79472000D01*
G75*
G02*
X136172000Y-79740750I0J-268750D01*
G01*
G37*
G36*
G01*
X138047000Y-79740750D02*
X138047000Y-80703250D01*
G75*
G02*
X137778250Y-80972000I-268750J0D01*
G01*
X137240750Y-80972000D01*
G75*
G02*
X136972000Y-80703250I0J268750D01*
G01*
X136972000Y-79740750D01*
G75*
G02*
X137240750Y-79472000I268750J0D01*
G01*
X137778250Y-79472000D01*
G75*
G02*
X138047000Y-79740750I0J-268750D01*
G01*
G37*
%TD*%
%TO.C,D2*%
G36*
G01*
X145518750Y-97462500D02*
X146481250Y-97462500D01*
G75*
G02*
X146750000Y-97731250I0J-268750D01*
G01*
X146750000Y-98268750D01*
G75*
G02*
X146481250Y-98537500I-268750J0D01*
G01*
X145518750Y-98537500D01*
G75*
G02*
X145250000Y-98268750I0J268750D01*
G01*
X145250000Y-97731250D01*
G75*
G02*
X145518750Y-97462500I268750J0D01*
G01*
G37*
G36*
G01*
X145518750Y-95587500D02*
X146481250Y-95587500D01*
G75*
G02*
X146750000Y-95856250I0J-268750D01*
G01*
X146750000Y-96393750D01*
G75*
G02*
X146481250Y-96662500I-268750J0D01*
G01*
X145518750Y-96662500D01*
G75*
G02*
X145250000Y-96393750I0J268750D01*
G01*
X145250000Y-95856250D01*
G75*
G02*
X145518750Y-95587500I268750J0D01*
G01*
G37*
%TD*%
%TO.C,D1*%
G36*
G01*
X143481250Y-96600000D02*
X142518750Y-96600000D01*
G75*
G02*
X142250000Y-96331250I0J268750D01*
G01*
X142250000Y-95793750D01*
G75*
G02*
X142518750Y-95525000I268750J0D01*
G01*
X143481250Y-95525000D01*
G75*
G02*
X143750000Y-95793750I0J-268750D01*
G01*
X143750000Y-96331250D01*
G75*
G02*
X143481250Y-96600000I-268750J0D01*
G01*
G37*
G36*
G01*
X143481250Y-98475000D02*
X142518750Y-98475000D01*
G75*
G02*
X142250000Y-98206250I0J268750D01*
G01*
X142250000Y-97668750D01*
G75*
G02*
X142518750Y-97400000I268750J0D01*
G01*
X143481250Y-97400000D01*
G75*
G02*
X143750000Y-97668750I0J-268750D01*
G01*
X143750000Y-98206250D01*
G75*
G02*
X143481250Y-98475000I-268750J0D01*
G01*
G37*
%TD*%
%TO.C,C15*%
G36*
G01*
X121779250Y-101906000D02*
X120816750Y-101906000D01*
G75*
G02*
X120548000Y-101637250I0J268750D01*
G01*
X120548000Y-101099750D01*
G75*
G02*
X120816750Y-100831000I268750J0D01*
G01*
X121779250Y-100831000D01*
G75*
G02*
X122048000Y-101099750I0J-268750D01*
G01*
X122048000Y-101637250D01*
G75*
G02*
X121779250Y-101906000I-268750J0D01*
G01*
G37*
G36*
G01*
X121779250Y-103781000D02*
X120816750Y-103781000D01*
G75*
G02*
X120548000Y-103512250I0J268750D01*
G01*
X120548000Y-102974750D01*
G75*
G02*
X120816750Y-102706000I268750J0D01*
G01*
X121779250Y-102706000D01*
G75*
G02*
X122048000Y-102974750I0J-268750D01*
G01*
X122048000Y-103512250D01*
G75*
G02*
X121779250Y-103781000I-268750J0D01*
G01*
G37*
%TD*%
%TO.C,C14*%
G36*
G01*
X153600000Y-105456482D02*
X153600000Y-104543518D01*
G75*
G02*
X153868518Y-104275000I268518J0D01*
G01*
X154831482Y-104275000D01*
G75*
G02*
X155100000Y-104543518I0J-268518D01*
G01*
X155100000Y-105456482D01*
G75*
G02*
X154831482Y-105725000I-268518J0D01*
G01*
X153868518Y-105725000D01*
G75*
G02*
X153600000Y-105456482I0J268518D01*
G01*
G37*
G36*
G01*
X150900000Y-105456482D02*
X150900000Y-104543518D01*
G75*
G02*
X151168518Y-104275000I268518J0D01*
G01*
X152131482Y-104275000D01*
G75*
G02*
X152400000Y-104543518I0J-268518D01*
G01*
X152400000Y-105456482D01*
G75*
G02*
X152131482Y-105725000I-268518J0D01*
G01*
X151168518Y-105725000D01*
G75*
G02*
X150900000Y-105456482I0J268518D01*
G01*
G37*
%TD*%
%TO.C,C13*%
G36*
G01*
X119655250Y-101900500D02*
X118692750Y-101900500D01*
G75*
G02*
X118424000Y-101631750I0J268750D01*
G01*
X118424000Y-101094250D01*
G75*
G02*
X118692750Y-100825500I268750J0D01*
G01*
X119655250Y-100825500D01*
G75*
G02*
X119924000Y-101094250I0J-268750D01*
G01*
X119924000Y-101631750D01*
G75*
G02*
X119655250Y-101900500I-268750J0D01*
G01*
G37*
G36*
G01*
X119655250Y-103775500D02*
X118692750Y-103775500D01*
G75*
G02*
X118424000Y-103506750I0J268750D01*
G01*
X118424000Y-102969250D01*
G75*
G02*
X118692750Y-102700500I268750J0D01*
G01*
X119655250Y-102700500D01*
G75*
G02*
X119924000Y-102969250I0J-268750D01*
G01*
X119924000Y-103506750D01*
G75*
G02*
X119655250Y-103775500I-268750J0D01*
G01*
G37*
%TD*%
%TO.C,C12*%
G36*
G01*
X113143250Y-101838000D02*
X112180750Y-101838000D01*
G75*
G02*
X111912000Y-101569250I0J268750D01*
G01*
X111912000Y-101031750D01*
G75*
G02*
X112180750Y-100763000I268750J0D01*
G01*
X113143250Y-100763000D01*
G75*
G02*
X113412000Y-101031750I0J-268750D01*
G01*
X113412000Y-101569250D01*
G75*
G02*
X113143250Y-101838000I-268750J0D01*
G01*
G37*
G36*
G01*
X113143250Y-103713000D02*
X112180750Y-103713000D01*
G75*
G02*
X111912000Y-103444250I0J268750D01*
G01*
X111912000Y-102906750D01*
G75*
G02*
X112180750Y-102638000I268750J0D01*
G01*
X113143250Y-102638000D01*
G75*
G02*
X113412000Y-102906750I0J-268750D01*
G01*
X113412000Y-103444250D01*
G75*
G02*
X113143250Y-103713000I-268750J0D01*
G01*
G37*
%TD*%
%TO.C,C11*%
G36*
G01*
X145481250Y-108600000D02*
X144518750Y-108600000D01*
G75*
G02*
X144250000Y-108331250I0J268750D01*
G01*
X144250000Y-107793750D01*
G75*
G02*
X144518750Y-107525000I268750J0D01*
G01*
X145481250Y-107525000D01*
G75*
G02*
X145750000Y-107793750I0J-268750D01*
G01*
X145750000Y-108331250D01*
G75*
G02*
X145481250Y-108600000I-268750J0D01*
G01*
G37*
G36*
G01*
X145481250Y-110475000D02*
X144518750Y-110475000D01*
G75*
G02*
X144250000Y-110206250I0J268750D01*
G01*
X144250000Y-109668750D01*
G75*
G02*
X144518750Y-109400000I268750J0D01*
G01*
X145481250Y-109400000D01*
G75*
G02*
X145750000Y-109668750I0J-268750D01*
G01*
X145750000Y-110206250D01*
G75*
G02*
X145481250Y-110475000I-268750J0D01*
G01*
G37*
%TD*%
%TO.C,C10*%
G36*
G01*
X151600000Y-93456482D02*
X151600000Y-92543518D01*
G75*
G02*
X151868518Y-92275000I268518J0D01*
G01*
X152831482Y-92275000D01*
G75*
G02*
X153100000Y-92543518I0J-268518D01*
G01*
X153100000Y-93456482D01*
G75*
G02*
X152831482Y-93725000I-268518J0D01*
G01*
X151868518Y-93725000D01*
G75*
G02*
X151600000Y-93456482I0J268518D01*
G01*
G37*
G36*
G01*
X148900000Y-93456482D02*
X148900000Y-92543518D01*
G75*
G02*
X149168518Y-92275000I268518J0D01*
G01*
X150131482Y-92275000D01*
G75*
G02*
X150400000Y-92543518I0J-268518D01*
G01*
X150400000Y-93456482D01*
G75*
G02*
X150131482Y-93725000I-268518J0D01*
G01*
X149168518Y-93725000D01*
G75*
G02*
X148900000Y-93456482I0J268518D01*
G01*
G37*
%TD*%
%TO.C,C9*%
G36*
G01*
X110857250Y-101838000D02*
X109894750Y-101838000D01*
G75*
G02*
X109626000Y-101569250I0J268750D01*
G01*
X109626000Y-101031750D01*
G75*
G02*
X109894750Y-100763000I268750J0D01*
G01*
X110857250Y-100763000D01*
G75*
G02*
X111126000Y-101031750I0J-268750D01*
G01*
X111126000Y-101569250D01*
G75*
G02*
X110857250Y-101838000I-268750J0D01*
G01*
G37*
G36*
G01*
X110857250Y-103713000D02*
X109894750Y-103713000D01*
G75*
G02*
X109626000Y-103444250I0J268750D01*
G01*
X109626000Y-102906750D01*
G75*
G02*
X109894750Y-102638000I268750J0D01*
G01*
X110857250Y-102638000D01*
G75*
G02*
X111126000Y-102906750I0J-268750D01*
G01*
X111126000Y-103444250D01*
G75*
G02*
X110857250Y-103713000I-268750J0D01*
G01*
G37*
%TD*%
%TO.C,C8*%
G36*
G01*
X136176000Y-102025250D02*
X136176000Y-101062750D01*
G75*
G02*
X136444750Y-100794000I268750J0D01*
G01*
X136982250Y-100794000D01*
G75*
G02*
X137251000Y-101062750I0J-268750D01*
G01*
X137251000Y-102025250D01*
G75*
G02*
X136982250Y-102294000I-268750J0D01*
G01*
X136444750Y-102294000D01*
G75*
G02*
X136176000Y-102025250I0J268750D01*
G01*
G37*
G36*
G01*
X134301000Y-102025250D02*
X134301000Y-101062750D01*
G75*
G02*
X134569750Y-100794000I268750J0D01*
G01*
X135107250Y-100794000D01*
G75*
G02*
X135376000Y-101062750I0J-268750D01*
G01*
X135376000Y-102025250D01*
G75*
G02*
X135107250Y-102294000I-268750J0D01*
G01*
X134569750Y-102294000D01*
G75*
G02*
X134301000Y-102025250I0J268750D01*
G01*
G37*
%TD*%
%TO.C,C6*%
G36*
G01*
X139358750Y-85942000D02*
X140321250Y-85942000D01*
G75*
G02*
X140590000Y-86210750I0J-268750D01*
G01*
X140590000Y-86748250D01*
G75*
G02*
X140321250Y-87017000I-268750J0D01*
G01*
X139358750Y-87017000D01*
G75*
G02*
X139090000Y-86748250I0J268750D01*
G01*
X139090000Y-86210750D01*
G75*
G02*
X139358750Y-85942000I268750J0D01*
G01*
G37*
G36*
G01*
X139358750Y-84067000D02*
X140321250Y-84067000D01*
G75*
G02*
X140590000Y-84335750I0J-268750D01*
G01*
X140590000Y-84873250D01*
G75*
G02*
X140321250Y-85142000I-268750J0D01*
G01*
X139358750Y-85142000D01*
G75*
G02*
X139090000Y-84873250I0J268750D01*
G01*
X139090000Y-84335750D01*
G75*
G02*
X139358750Y-84067000I268750J0D01*
G01*
G37*
%TD*%
%TO.C,C5*%
G36*
G01*
X110662500Y-85518750D02*
X110662500Y-86481250D01*
G75*
G02*
X110393750Y-86750000I-268750J0D01*
G01*
X109856250Y-86750000D01*
G75*
G02*
X109587500Y-86481250I0J268750D01*
G01*
X109587500Y-85518750D01*
G75*
G02*
X109856250Y-85250000I268750J0D01*
G01*
X110393750Y-85250000D01*
G75*
G02*
X110662500Y-85518750I0J-268750D01*
G01*
G37*
G36*
G01*
X112537500Y-85518750D02*
X112537500Y-86481250D01*
G75*
G02*
X112268750Y-86750000I-268750J0D01*
G01*
X111731250Y-86750000D01*
G75*
G02*
X111462500Y-86481250I0J268750D01*
G01*
X111462500Y-85518750D01*
G75*
G02*
X111731250Y-85250000I268750J0D01*
G01*
X112268750Y-85250000D01*
G75*
G02*
X112537500Y-85518750I0J-268750D01*
G01*
G37*
%TD*%
%TO.C,C4*%
G36*
G01*
X110662500Y-88518750D02*
X110662500Y-89481250D01*
G75*
G02*
X110393750Y-89750000I-268750J0D01*
G01*
X109856250Y-89750000D01*
G75*
G02*
X109587500Y-89481250I0J268750D01*
G01*
X109587500Y-88518750D01*
G75*
G02*
X109856250Y-88250000I268750J0D01*
G01*
X110393750Y-88250000D01*
G75*
G02*
X110662500Y-88518750I0J-268750D01*
G01*
G37*
G36*
G01*
X112537500Y-88518750D02*
X112537500Y-89481250D01*
G75*
G02*
X112268750Y-89750000I-268750J0D01*
G01*
X111731250Y-89750000D01*
G75*
G02*
X111462500Y-89481250I0J268750D01*
G01*
X111462500Y-88518750D01*
G75*
G02*
X111731250Y-88250000I268750J0D01*
G01*
X112268750Y-88250000D01*
G75*
G02*
X112537500Y-88518750I0J-268750D01*
G01*
G37*
%TD*%
%TO.C,C3*%
G36*
G01*
X110662500Y-95518750D02*
X110662500Y-96481250D01*
G75*
G02*
X110393750Y-96750000I-268750J0D01*
G01*
X109856250Y-96750000D01*
G75*
G02*
X109587500Y-96481250I0J268750D01*
G01*
X109587500Y-95518750D01*
G75*
G02*
X109856250Y-95250000I268750J0D01*
G01*
X110393750Y-95250000D01*
G75*
G02*
X110662500Y-95518750I0J-268750D01*
G01*
G37*
G36*
G01*
X112537500Y-95518750D02*
X112537500Y-96481250D01*
G75*
G02*
X112268750Y-96750000I-268750J0D01*
G01*
X111731250Y-96750000D01*
G75*
G02*
X111462500Y-96481250I0J268750D01*
G01*
X111462500Y-95518750D01*
G75*
G02*
X111731250Y-95250000I268750J0D01*
G01*
X112268750Y-95250000D01*
G75*
G02*
X112537500Y-95518750I0J-268750D01*
G01*
G37*
%TD*%
%TO.C,C2*%
G36*
G01*
X110600000Y-91518750D02*
X110600000Y-92481250D01*
G75*
G02*
X110331250Y-92750000I-268750J0D01*
G01*
X109793750Y-92750000D01*
G75*
G02*
X109525000Y-92481250I0J268750D01*
G01*
X109525000Y-91518750D01*
G75*
G02*
X109793750Y-91250000I268750J0D01*
G01*
X110331250Y-91250000D01*
G75*
G02*
X110600000Y-91518750I0J-268750D01*
G01*
G37*
G36*
G01*
X112475000Y-91518750D02*
X112475000Y-92481250D01*
G75*
G02*
X112206250Y-92750000I-268750J0D01*
G01*
X111668750Y-92750000D01*
G75*
G02*
X111400000Y-92481250I0J268750D01*
G01*
X111400000Y-91518750D01*
G75*
G02*
X111668750Y-91250000I268750J0D01*
G01*
X112206250Y-91250000D01*
G75*
G02*
X112475000Y-91518750I0J-268750D01*
G01*
G37*
%TD*%
%TO.C,C1*%
G36*
G01*
X121518750Y-88400000D02*
X122481250Y-88400000D01*
G75*
G02*
X122750000Y-88668750I0J-268750D01*
G01*
X122750000Y-89206250D01*
G75*
G02*
X122481250Y-89475000I-268750J0D01*
G01*
X121518750Y-89475000D01*
G75*
G02*
X121250000Y-89206250I0J268750D01*
G01*
X121250000Y-88668750D01*
G75*
G02*
X121518750Y-88400000I268750J0D01*
G01*
G37*
G36*
G01*
X121518750Y-86525000D02*
X122481250Y-86525000D01*
G75*
G02*
X122750000Y-86793750I0J-268750D01*
G01*
X122750000Y-87331250D01*
G75*
G02*
X122481250Y-87600000I-268750J0D01*
G01*
X121518750Y-87600000D01*
G75*
G02*
X121250000Y-87331250I0J268750D01*
G01*
X121250000Y-86793750D01*
G75*
G02*
X121518750Y-86525000I268750J0D01*
G01*
G37*
%TD*%
M02*
