G04 #@! TF.GenerationSoftware,KiCad,Pcbnew,8.0.3+1*
G04 #@! TF.CreationDate,2024-08-19T07:15:10+00:00*
G04 #@! TF.ProjectId,DriverDeskTft,44726976-6572-4446-9573-6b5466742e6b,0.0.1*
G04 #@! TF.SameCoordinates,Original*
G04 #@! TF.FileFunction,Copper,L2,Inr*
G04 #@! TF.FilePolarity,Positive*
%FSLAX46Y46*%
G04 Gerber Fmt 4.6, Leading zero omitted, Abs format (unit mm)*
G04 Created by KiCad (PCBNEW 8.0.3+1) date 2024-08-19 07:15:10*
%MOMM*%
%LPD*%
G01*
G04 APERTURE LIST*
G04 #@! TA.AperFunction,ComponentPad*
%ADD10C,4.700000*%
G04 #@! TD*
G04 #@! TA.AperFunction,ComponentPad*
%ADD11R,1.700000X1.700000*%
G04 #@! TD*
G04 #@! TA.AperFunction,ComponentPad*
%ADD12O,1.700000X1.700000*%
G04 #@! TD*
G04 #@! TA.AperFunction,ComponentPad*
%ADD13C,2.000000*%
G04 #@! TD*
G04 #@! TA.AperFunction,ComponentPad*
%ADD14C,1.650000*%
G04 #@! TD*
G04 #@! TA.AperFunction,ComponentPad*
%ADD15O,3.000000X6.000000*%
G04 #@! TD*
G04 #@! TA.AperFunction,ComponentPad*
%ADD16R,1.650000X1.650000*%
G04 #@! TD*
G04 #@! TA.AperFunction,ViaPad*
%ADD17C,0.600000*%
G04 #@! TD*
G04 APERTURE END LIST*
D10*
X137500000Y-140000000D03*
X63000000Y-58000000D03*
D11*
X91220000Y-121100000D03*
D12*
X93760000Y-121100000D03*
X96300000Y-121100000D03*
X98840000Y-121100000D03*
X101380000Y-121100000D03*
X103920000Y-121100000D03*
X106460000Y-121100000D03*
X109000000Y-121100000D03*
D10*
X63000000Y-140000000D03*
D11*
X81000000Y-131460000D03*
D12*
X81000000Y-134000000D03*
X81000000Y-136540000D03*
X81000000Y-139080000D03*
D10*
X137500000Y-58000000D03*
D11*
X127000000Y-60170000D03*
D12*
X129540000Y-60170000D03*
X127000000Y-62710000D03*
X129540000Y-62710000D03*
X127000000Y-65250000D03*
X129540000Y-65250000D03*
X127000000Y-67790000D03*
X129540000Y-67790000D03*
X127000000Y-70330000D03*
X129540000Y-70330000D03*
D11*
X81000000Y-74800000D03*
D12*
X83540000Y-74800000D03*
X86080000Y-74800000D03*
X88620000Y-74800000D03*
X91160000Y-74800000D03*
X93700000Y-74800000D03*
X96240000Y-74800000D03*
X98780000Y-74800000D03*
X101320000Y-74800000D03*
X103860000Y-74800000D03*
X106400000Y-74800000D03*
X108940000Y-74800000D03*
X111480000Y-74800000D03*
X114020000Y-74800000D03*
X116560000Y-74800000D03*
X119100000Y-74800000D03*
D11*
X108950000Y-125200000D03*
D12*
X106410000Y-125200000D03*
X103870000Y-125200000D03*
X101330000Y-125200000D03*
X98790000Y-125200000D03*
X96250000Y-125200000D03*
X93710000Y-125200000D03*
X91170000Y-125200000D03*
D13*
X94250000Y-61750000D03*
X87750000Y-61750000D03*
X94250000Y-66250000D03*
X87750000Y-66250000D03*
X135500000Y-124500000D03*
X129000000Y-124500000D03*
X135500000Y-129000000D03*
X129000000Y-129000000D03*
X94250000Y-133750000D03*
X87750000Y-133750000D03*
X94250000Y-138250000D03*
X87750000Y-138250000D03*
X135750000Y-81750000D03*
X129250000Y-81750000D03*
X135750000Y-86250000D03*
X129250000Y-86250000D03*
X70750000Y-94750000D03*
X64250000Y-94750000D03*
X70750000Y-99250000D03*
X64250000Y-99250000D03*
D14*
X70000000Y-134250000D03*
X65000000Y-134250000D03*
X67500000Y-134250000D03*
D15*
X73200000Y-126750000D03*
X61800000Y-126750000D03*
D16*
X70000000Y-119750000D03*
D14*
X65000000Y-119750000D03*
D13*
X112250000Y-133750000D03*
X105750000Y-133750000D03*
X112250000Y-138250000D03*
X105750000Y-138250000D03*
X135750000Y-94750000D03*
X129250000Y-94750000D03*
X135750000Y-99250000D03*
X129250000Y-99250000D03*
X70750000Y-81750000D03*
X64250000Y-81750000D03*
X70750000Y-86250000D03*
X64250000Y-86250000D03*
X70750000Y-107750000D03*
X64250000Y-107750000D03*
X70750000Y-112250000D03*
X64250000Y-112250000D03*
X135750000Y-107750000D03*
X129250000Y-107750000D03*
X135750000Y-112250000D03*
X129250000Y-112250000D03*
X112250000Y-61750000D03*
X105750000Y-61750000D03*
X112250000Y-66250000D03*
X105750000Y-66250000D03*
D17*
X100000000Y-136500000D03*
X100000000Y-64000000D03*
X132000000Y-91000000D03*
X68250000Y-90750000D03*
X131600000Y-120750000D03*
X132000000Y-104000000D03*
X73000000Y-140168750D03*
X68000000Y-103750000D03*
X75400000Y-121612500D03*
X68000000Y-77750000D03*
X132000000Y-78000000D03*
X133000000Y-65250000D03*
G04 #@! TA.AperFunction,Conductor*
G36*
X137502702Y-53500617D02*
G01*
X137886771Y-53517386D01*
X137897506Y-53518326D01*
X138275971Y-53568152D01*
X138286597Y-53570025D01*
X138659284Y-53652648D01*
X138669710Y-53655442D01*
X139033765Y-53770227D01*
X139043911Y-53773920D01*
X139396578Y-53920000D01*
X139406369Y-53924566D01*
X139744942Y-54100816D01*
X139754310Y-54106224D01*
X140076244Y-54311318D01*
X140085105Y-54317523D01*
X140387930Y-54549889D01*
X140396217Y-54556843D01*
X140677635Y-54814715D01*
X140685284Y-54822364D01*
X140943156Y-55103782D01*
X140950110Y-55112069D01*
X141182476Y-55414894D01*
X141188681Y-55423755D01*
X141393775Y-55745689D01*
X141399183Y-55755057D01*
X141575430Y-56093623D01*
X141580002Y-56103427D01*
X141726075Y-56456078D01*
X141729775Y-56466244D01*
X141844554Y-56830278D01*
X141847354Y-56840727D01*
X141929971Y-57213389D01*
X141931849Y-57224042D01*
X141981671Y-57602473D01*
X141982614Y-57613249D01*
X141999382Y-57997297D01*
X141999500Y-58002706D01*
X141999500Y-139997293D01*
X141999382Y-140002702D01*
X141982614Y-140386750D01*
X141981671Y-140397526D01*
X141931849Y-140775957D01*
X141929971Y-140786610D01*
X141847354Y-141159272D01*
X141844554Y-141169721D01*
X141729775Y-141533755D01*
X141726075Y-141543921D01*
X141580002Y-141896572D01*
X141575430Y-141906376D01*
X141399183Y-142244942D01*
X141393775Y-142254310D01*
X141188681Y-142576244D01*
X141182476Y-142585105D01*
X140950110Y-142887930D01*
X140943156Y-142896217D01*
X140685284Y-143177635D01*
X140677635Y-143185284D01*
X140396217Y-143443156D01*
X140387930Y-143450110D01*
X140085105Y-143682476D01*
X140076244Y-143688681D01*
X139754310Y-143893775D01*
X139744942Y-143899183D01*
X139406376Y-144075430D01*
X139396572Y-144080002D01*
X139043921Y-144226075D01*
X139033755Y-144229775D01*
X138669721Y-144344554D01*
X138659272Y-144347354D01*
X138286610Y-144429971D01*
X138275957Y-144431849D01*
X137897526Y-144481671D01*
X137886750Y-144482614D01*
X137502703Y-144499382D01*
X137497294Y-144499500D01*
X63002706Y-144499500D01*
X62997297Y-144499382D01*
X62613249Y-144482614D01*
X62602473Y-144481671D01*
X62224042Y-144431849D01*
X62213389Y-144429971D01*
X61840727Y-144347354D01*
X61830278Y-144344554D01*
X61466244Y-144229775D01*
X61456078Y-144226075D01*
X61103427Y-144080002D01*
X61093623Y-144075430D01*
X60755057Y-143899183D01*
X60745689Y-143893775D01*
X60423755Y-143688681D01*
X60414894Y-143682476D01*
X60112069Y-143450110D01*
X60103782Y-143443156D01*
X59822364Y-143185284D01*
X59814715Y-143177635D01*
X59556843Y-142896217D01*
X59549889Y-142887930D01*
X59317523Y-142585105D01*
X59311318Y-142576244D01*
X59106224Y-142254310D01*
X59100816Y-142244942D01*
X58924569Y-141906376D01*
X58919997Y-141896572D01*
X58894644Y-141835364D01*
X58773920Y-141543911D01*
X58770224Y-141533755D01*
X58655442Y-141169710D01*
X58652648Y-141159284D01*
X58570025Y-140786597D01*
X58568152Y-140775971D01*
X58518326Y-140397506D01*
X58517386Y-140386771D01*
X58500618Y-140002702D01*
X58500559Y-139999996D01*
X60144669Y-139999996D01*
X60144669Y-140000003D01*
X60163976Y-140331484D01*
X60163977Y-140331495D01*
X60221631Y-140658467D01*
X60221634Y-140658481D01*
X60221635Y-140658485D01*
X60242578Y-140728439D01*
X60316866Y-140976580D01*
X60448379Y-141281461D01*
X60448385Y-141281474D01*
X60614406Y-141569031D01*
X60812678Y-141835356D01*
X60812683Y-141835362D01*
X60812690Y-141835371D01*
X61040553Y-142076893D01*
X61224689Y-142231400D01*
X61294912Y-142290325D01*
X61294920Y-142290331D01*
X61572330Y-142472787D01*
X61572334Y-142472789D01*
X61869061Y-142621811D01*
X62181082Y-142735377D01*
X62181088Y-142735378D01*
X62181090Y-142735379D01*
X62504161Y-142811949D01*
X62504168Y-142811950D01*
X62504177Y-142811952D01*
X62833977Y-142850500D01*
X62833984Y-142850500D01*
X63166016Y-142850500D01*
X63166023Y-142850500D01*
X63495823Y-142811952D01*
X63495832Y-142811949D01*
X63495838Y-142811949D01*
X63756445Y-142750183D01*
X63818918Y-142735377D01*
X64130939Y-142621811D01*
X64427666Y-142472789D01*
X64705085Y-142290327D01*
X64959447Y-142076893D01*
X65187310Y-141835371D01*
X65385594Y-141569030D01*
X65551617Y-141281470D01*
X65683133Y-140976581D01*
X65778365Y-140658485D01*
X65836024Y-140331484D01*
X65855331Y-140000000D01*
X65855173Y-139997293D01*
X65841226Y-139757834D01*
X65836024Y-139668516D01*
X65778365Y-139341515D01*
X65683133Y-139023419D01*
X65551617Y-138718530D01*
X65424192Y-138497824D01*
X65385593Y-138430968D01*
X65187321Y-138164643D01*
X65187314Y-138164635D01*
X65187310Y-138164629D01*
X64959447Y-137923107D01*
X64797153Y-137786926D01*
X64705087Y-137709674D01*
X64705079Y-137709668D01*
X64427669Y-137527212D01*
X64130946Y-137378192D01*
X64130940Y-137378189D01*
X63818930Y-137264627D01*
X63818909Y-137264620D01*
X63495838Y-137188050D01*
X63495823Y-137188048D01*
X63166023Y-137149500D01*
X62833977Y-137149500D01*
X62545402Y-137183229D01*
X62504176Y-137188048D01*
X62504161Y-137188050D01*
X62181090Y-137264620D01*
X62181069Y-137264627D01*
X61869059Y-137378189D01*
X61869053Y-137378192D01*
X61572330Y-137527212D01*
X61294920Y-137709668D01*
X61294912Y-137709674D01*
X61119339Y-137856998D01*
X61040553Y-137923107D01*
X60812690Y-138164629D01*
X60812687Y-138164632D01*
X60812685Y-138164635D01*
X60812678Y-138164643D01*
X60614406Y-138430968D01*
X60448385Y-138718525D01*
X60448379Y-138718538D01*
X60316866Y-139023419D01*
X60221634Y-139341518D01*
X60221631Y-139341532D01*
X60163977Y-139668504D01*
X60163976Y-139668515D01*
X60144669Y-139999996D01*
X58500559Y-139999996D01*
X58500500Y-139997293D01*
X58500500Y-134249998D01*
X63669437Y-134249998D01*
X63669437Y-134250001D01*
X63689650Y-134481044D01*
X63689651Y-134481051D01*
X63749678Y-134705074D01*
X63749679Y-134705076D01*
X63749680Y-134705079D01*
X63847699Y-134915282D01*
X63980730Y-135105269D01*
X64144731Y-135269270D01*
X64334718Y-135402301D01*
X64544921Y-135500320D01*
X64768950Y-135560349D01*
X64933985Y-135574787D01*
X64999998Y-135580563D01*
X65000000Y-135580563D01*
X65000002Y-135580563D01*
X65057762Y-135575509D01*
X65231050Y-135560349D01*
X65455079Y-135500320D01*
X65665282Y-135402301D01*
X65855269Y-135269270D01*
X66019270Y-135105269D01*
X66148427Y-134920814D01*
X66203002Y-134877192D01*
X66272501Y-134869999D01*
X66334855Y-134901521D01*
X66351569Y-134920809D01*
X66480730Y-135105269D01*
X66644731Y-135269270D01*
X66834718Y-135402301D01*
X67044921Y-135500320D01*
X67268950Y-135560349D01*
X67433985Y-135574787D01*
X67499998Y-135580563D01*
X67500000Y-135580563D01*
X67500002Y-135580563D01*
X67557762Y-135575509D01*
X67731050Y-135560349D01*
X67955079Y-135500320D01*
X68165282Y-135402301D01*
X68355269Y-135269270D01*
X68519270Y-135105269D01*
X68648427Y-134920814D01*
X68703002Y-134877192D01*
X68772501Y-134869999D01*
X68834855Y-134901521D01*
X68851569Y-134920809D01*
X68980730Y-135105269D01*
X69144731Y-135269270D01*
X69334718Y-135402301D01*
X69544921Y-135500320D01*
X69768950Y-135560349D01*
X69933985Y-135574787D01*
X69999998Y-135580563D01*
X70000000Y-135580563D01*
X70000002Y-135580563D01*
X70057762Y-135575509D01*
X70231050Y-135560349D01*
X70455079Y-135500320D01*
X70665282Y-135402301D01*
X70855269Y-135269270D01*
X71019270Y-135105269D01*
X71152301Y-134915282D01*
X71250320Y-134705079D01*
X71310349Y-134481050D01*
X71330563Y-134250000D01*
X71329286Y-134235408D01*
X71310349Y-134018955D01*
X71310349Y-134018950D01*
X71305271Y-133999999D01*
X79644341Y-133999999D01*
X79644341Y-134000000D01*
X79664936Y-134235403D01*
X79664938Y-134235413D01*
X79726094Y-134463655D01*
X79726096Y-134463659D01*
X79726097Y-134463663D01*
X79824544Y-134674782D01*
X79825965Y-134677830D01*
X79825967Y-134677834D01*
X79845525Y-134705765D01*
X79960523Y-134869999D01*
X79961501Y-134871395D01*
X79961506Y-134871402D01*
X80128597Y-135038493D01*
X80128603Y-135038498D01*
X80314158Y-135168425D01*
X80357783Y-135223002D01*
X80364977Y-135292500D01*
X80333454Y-135354855D01*
X80314158Y-135371575D01*
X80128597Y-135501505D01*
X79961505Y-135668597D01*
X79825965Y-135862169D01*
X79825964Y-135862171D01*
X79726098Y-136076335D01*
X79726094Y-136076344D01*
X79664938Y-136304586D01*
X79664936Y-136304596D01*
X79644341Y-136539999D01*
X79644341Y-136540000D01*
X79664936Y-136775403D01*
X79664938Y-136775413D01*
X79726094Y-137003655D01*
X79726096Y-137003659D01*
X79726097Y-137003663D01*
X79790727Y-137142262D01*
X79825965Y-137217830D01*
X79825967Y-137217834D01*
X79961501Y-137411395D01*
X79961506Y-137411402D01*
X80128597Y-137578493D01*
X80128603Y-137578498D01*
X80314158Y-137708425D01*
X80357783Y-137763002D01*
X80364977Y-137832500D01*
X80333454Y-137894855D01*
X80314158Y-137911575D01*
X80128597Y-138041505D01*
X79961505Y-138208597D01*
X79825965Y-138402169D01*
X79825964Y-138402171D01*
X79726098Y-138616335D01*
X79726094Y-138616344D01*
X79664938Y-138844586D01*
X79664936Y-138844596D01*
X79644341Y-139079999D01*
X79644341Y-139080000D01*
X79664936Y-139315403D01*
X79664938Y-139315413D01*
X79726094Y-139543655D01*
X79726096Y-139543659D01*
X79726097Y-139543663D01*
X79822547Y-139750500D01*
X79825965Y-139757830D01*
X79825967Y-139757834D01*
X79934281Y-139912521D01*
X79961505Y-139951401D01*
X80128599Y-140118495D01*
X80225384Y-140186265D01*
X80322165Y-140254032D01*
X80322167Y-140254033D01*
X80322170Y-140254035D01*
X80536337Y-140353903D01*
X80764592Y-140415063D01*
X80952918Y-140431539D01*
X80999999Y-140435659D01*
X81000000Y-140435659D01*
X81000001Y-140435659D01*
X81039234Y-140432226D01*
X81235408Y-140415063D01*
X81463663Y-140353903D01*
X81677830Y-140254035D01*
X81871401Y-140118495D01*
X81989900Y-139999996D01*
X134644669Y-139999996D01*
X134644669Y-140000003D01*
X134663976Y-140331484D01*
X134663977Y-140331495D01*
X134721631Y-140658467D01*
X134721634Y-140658481D01*
X134721635Y-140658485D01*
X134742578Y-140728439D01*
X134816866Y-140976580D01*
X134948379Y-141281461D01*
X134948385Y-141281474D01*
X135114406Y-141569031D01*
X135312678Y-141835356D01*
X135312683Y-141835362D01*
X135312690Y-141835371D01*
X135540553Y-142076893D01*
X135724689Y-142231400D01*
X135794912Y-142290325D01*
X135794920Y-142290331D01*
X136072330Y-142472787D01*
X136072334Y-142472789D01*
X136369061Y-142621811D01*
X136681082Y-142735377D01*
X136681088Y-142735378D01*
X136681090Y-142735379D01*
X137004161Y-142811949D01*
X137004168Y-142811950D01*
X137004177Y-142811952D01*
X137333977Y-142850500D01*
X137333984Y-142850500D01*
X137666016Y-142850500D01*
X137666023Y-142850500D01*
X137995823Y-142811952D01*
X137995832Y-142811949D01*
X137995838Y-142811949D01*
X138256445Y-142750183D01*
X138318918Y-142735377D01*
X138630939Y-142621811D01*
X138927666Y-142472789D01*
X139205085Y-142290327D01*
X139459447Y-142076893D01*
X139687310Y-141835371D01*
X139885594Y-141569030D01*
X140051617Y-141281470D01*
X140183133Y-140976581D01*
X140278365Y-140658485D01*
X140336024Y-140331484D01*
X140355331Y-140000000D01*
X140355173Y-139997293D01*
X140341226Y-139757834D01*
X140336024Y-139668516D01*
X140278365Y-139341515D01*
X140183133Y-139023419D01*
X140051617Y-138718530D01*
X139924192Y-138497824D01*
X139885593Y-138430968D01*
X139687321Y-138164643D01*
X139687314Y-138164635D01*
X139687310Y-138164629D01*
X139459447Y-137923107D01*
X139297153Y-137786926D01*
X139205087Y-137709674D01*
X139205079Y-137709668D01*
X138927669Y-137527212D01*
X138630946Y-137378192D01*
X138630940Y-137378189D01*
X138318930Y-137264627D01*
X138318909Y-137264620D01*
X137995838Y-137188050D01*
X137995823Y-137188048D01*
X137666023Y-137149500D01*
X137333977Y-137149500D01*
X137045402Y-137183229D01*
X137004176Y-137188048D01*
X137004161Y-137188050D01*
X136681090Y-137264620D01*
X136681069Y-137264627D01*
X136369059Y-137378189D01*
X136369053Y-137378192D01*
X136072330Y-137527212D01*
X135794920Y-137709668D01*
X135794912Y-137709674D01*
X135619339Y-137856998D01*
X135540553Y-137923107D01*
X135312690Y-138164629D01*
X135312687Y-138164632D01*
X135312685Y-138164635D01*
X135312678Y-138164643D01*
X135114406Y-138430968D01*
X134948385Y-138718525D01*
X134948379Y-138718538D01*
X134816866Y-139023419D01*
X134721634Y-139341518D01*
X134721631Y-139341532D01*
X134663977Y-139668504D01*
X134663976Y-139668515D01*
X134644669Y-139999996D01*
X81989900Y-139999996D01*
X82038495Y-139951401D01*
X82174035Y-139757830D01*
X82273903Y-139543663D01*
X82335063Y-139315408D01*
X82355659Y-139080000D01*
X82335063Y-138844592D01*
X82273903Y-138616337D01*
X82174035Y-138402171D01*
X82067485Y-138250000D01*
X82067481Y-138249994D01*
X86244357Y-138249994D01*
X86244357Y-138250005D01*
X86264890Y-138497812D01*
X86264892Y-138497824D01*
X86325936Y-138738881D01*
X86425826Y-138966606D01*
X86561833Y-139174782D01*
X86561836Y-139174785D01*
X86730256Y-139357738D01*
X86926491Y-139510474D01*
X87145190Y-139628828D01*
X87380386Y-139709571D01*
X87625665Y-139750500D01*
X87874335Y-139750500D01*
X88119614Y-139709571D01*
X88354810Y-139628828D01*
X88573509Y-139510474D01*
X88769744Y-139357738D01*
X88938164Y-139174785D01*
X89074173Y-138966607D01*
X89174063Y-138738881D01*
X89235108Y-138497821D01*
X89235109Y-138497812D01*
X89255643Y-138250005D01*
X89255643Y-138249994D01*
X92744357Y-138249994D01*
X92744357Y-138250005D01*
X92764890Y-138497812D01*
X92764892Y-138497824D01*
X92825936Y-138738881D01*
X92925826Y-138966606D01*
X93061833Y-139174782D01*
X93061836Y-139174785D01*
X93230256Y-139357738D01*
X93426491Y-139510474D01*
X93645190Y-139628828D01*
X93880386Y-139709571D01*
X94125665Y-139750500D01*
X94374335Y-139750500D01*
X94619614Y-139709571D01*
X94854810Y-139628828D01*
X95073509Y-139510474D01*
X95269744Y-139357738D01*
X95438164Y-139174785D01*
X95574173Y-138966607D01*
X95674063Y-138738881D01*
X95735108Y-138497821D01*
X95735109Y-138497812D01*
X95755643Y-138250005D01*
X95755643Y-138249994D01*
X104244357Y-138249994D01*
X104244357Y-138250005D01*
X104264890Y-138497812D01*
X104264892Y-138497824D01*
X104325936Y-138738881D01*
X104425826Y-138966606D01*
X104561833Y-139174782D01*
X104561836Y-139174785D01*
X104730256Y-139357738D01*
X104926491Y-139510474D01*
X105145190Y-139628828D01*
X105380386Y-139709571D01*
X105625665Y-139750500D01*
X105874335Y-139750500D01*
X106119614Y-139709571D01*
X106354810Y-139628828D01*
X106573509Y-139510474D01*
X106769744Y-139357738D01*
X106938164Y-139174785D01*
X107074173Y-138966607D01*
X107174063Y-138738881D01*
X107235108Y-138497821D01*
X107235109Y-138497812D01*
X107255643Y-138250005D01*
X107255643Y-138249994D01*
X110744357Y-138249994D01*
X110744357Y-138250005D01*
X110764890Y-138497812D01*
X110764892Y-138497824D01*
X110825936Y-138738881D01*
X110925826Y-138966606D01*
X111061833Y-139174782D01*
X111061836Y-139174785D01*
X111230256Y-139357738D01*
X111426491Y-139510474D01*
X111645190Y-139628828D01*
X111880386Y-139709571D01*
X112125665Y-139750500D01*
X112374335Y-139750500D01*
X112619614Y-139709571D01*
X112854810Y-139628828D01*
X113073509Y-139510474D01*
X113269744Y-139357738D01*
X113438164Y-139174785D01*
X113574173Y-138966607D01*
X113674063Y-138738881D01*
X113735108Y-138497821D01*
X113735109Y-138497812D01*
X113755643Y-138250005D01*
X113755643Y-138249994D01*
X113735109Y-138002187D01*
X113735107Y-138002175D01*
X113674063Y-137761118D01*
X113574173Y-137533393D01*
X113438166Y-137325217D01*
X113382382Y-137264620D01*
X113269744Y-137142262D01*
X113073509Y-136989526D01*
X113073507Y-136989525D01*
X113073506Y-136989524D01*
X112854811Y-136871172D01*
X112854802Y-136871169D01*
X112619616Y-136790429D01*
X112374335Y-136749500D01*
X112125665Y-136749500D01*
X111880383Y-136790429D01*
X111645197Y-136871169D01*
X111645188Y-136871172D01*
X111426493Y-136989524D01*
X111230257Y-137142261D01*
X111061833Y-137325217D01*
X110925826Y-137533393D01*
X110825936Y-137761118D01*
X110764892Y-138002175D01*
X110764890Y-138002187D01*
X110744357Y-138249994D01*
X107255643Y-138249994D01*
X107235109Y-138002187D01*
X107235107Y-138002175D01*
X107174063Y-137761118D01*
X107074173Y-137533393D01*
X106938166Y-137325217D01*
X106882382Y-137264620D01*
X106769744Y-137142262D01*
X106573509Y-136989526D01*
X106573507Y-136989525D01*
X106573506Y-136989524D01*
X106354811Y-136871172D01*
X106354802Y-136871169D01*
X106119616Y-136790429D01*
X105874335Y-136749500D01*
X105625665Y-136749500D01*
X105380383Y-136790429D01*
X105145197Y-136871169D01*
X105145188Y-136871172D01*
X104926493Y-136989524D01*
X104730257Y-137142261D01*
X104561833Y-137325217D01*
X104425826Y-137533393D01*
X104325936Y-137761118D01*
X104264892Y-138002175D01*
X104264890Y-138002187D01*
X104244357Y-138249994D01*
X95755643Y-138249994D01*
X95735109Y-138002187D01*
X95735107Y-138002175D01*
X95674063Y-137761118D01*
X95574173Y-137533393D01*
X95438166Y-137325217D01*
X95382382Y-137264620D01*
X95269744Y-137142262D01*
X95073509Y-136989526D01*
X95073507Y-136989525D01*
X95073506Y-136989524D01*
X94854811Y-136871172D01*
X94854802Y-136871169D01*
X94619616Y-136790429D01*
X94374335Y-136749500D01*
X94125665Y-136749500D01*
X93880383Y-136790429D01*
X93645197Y-136871169D01*
X93645188Y-136871172D01*
X93426493Y-136989524D01*
X93230257Y-137142261D01*
X93061833Y-137325217D01*
X92925826Y-137533393D01*
X92825936Y-137761118D01*
X92764892Y-138002175D01*
X92764890Y-138002187D01*
X92744357Y-138249994D01*
X89255643Y-138249994D01*
X89235109Y-138002187D01*
X89235107Y-138002175D01*
X89174063Y-137761118D01*
X89074173Y-137533393D01*
X88938166Y-137325217D01*
X88882382Y-137264620D01*
X88769744Y-137142262D01*
X88573509Y-136989526D01*
X88573507Y-136989525D01*
X88573506Y-136989524D01*
X88354811Y-136871172D01*
X88354802Y-136871169D01*
X88119616Y-136790429D01*
X87874335Y-136749500D01*
X87625665Y-136749500D01*
X87380383Y-136790429D01*
X87145197Y-136871169D01*
X87145188Y-136871172D01*
X86926493Y-136989524D01*
X86730257Y-137142261D01*
X86561833Y-137325217D01*
X86425826Y-137533393D01*
X86325936Y-137761118D01*
X86264892Y-138002175D01*
X86264890Y-138002187D01*
X86244357Y-138249994D01*
X82067481Y-138249994D01*
X82038494Y-138208597D01*
X81871402Y-138041506D01*
X81871396Y-138041501D01*
X81685842Y-137911575D01*
X81642217Y-137856998D01*
X81635023Y-137787500D01*
X81666546Y-137725145D01*
X81685842Y-137708425D01*
X81708026Y-137692891D01*
X81871401Y-137578495D01*
X82038495Y-137411401D01*
X82174035Y-137217830D01*
X82273903Y-137003663D01*
X82335063Y-136775408D01*
X82355659Y-136540000D01*
X82335063Y-136304592D01*
X82273903Y-136076337D01*
X82174035Y-135862171D01*
X82038495Y-135668599D01*
X82038494Y-135668597D01*
X81871402Y-135501506D01*
X81871396Y-135501501D01*
X81685842Y-135371575D01*
X81642217Y-135316998D01*
X81635023Y-135247500D01*
X81666546Y-135185145D01*
X81685842Y-135168425D01*
X81776038Y-135105269D01*
X81871401Y-135038495D01*
X82038495Y-134871401D01*
X82174035Y-134677830D01*
X82273903Y-134463663D01*
X82335063Y-134235408D01*
X82355659Y-134000000D01*
X82335063Y-133764592D01*
X82331152Y-133749994D01*
X86244357Y-133749994D01*
X86244357Y-133750005D01*
X86264890Y-133997812D01*
X86264892Y-133997824D01*
X86325936Y-134238881D01*
X86425826Y-134466606D01*
X86561833Y-134674782D01*
X86561836Y-134674785D01*
X86730256Y-134857738D01*
X86926491Y-135010474D01*
X87145190Y-135128828D01*
X87380386Y-135209571D01*
X87625665Y-135250500D01*
X87874335Y-135250500D01*
X88119614Y-135209571D01*
X88354810Y-135128828D01*
X88573509Y-135010474D01*
X88769744Y-134857738D01*
X88938164Y-134674785D01*
X89074173Y-134466607D01*
X89174063Y-134238881D01*
X89235108Y-133997821D01*
X89254434Y-133764592D01*
X89255643Y-133750005D01*
X89255643Y-133749994D01*
X92744357Y-133749994D01*
X92744357Y-133750005D01*
X92764890Y-133997812D01*
X92764892Y-133997824D01*
X92825936Y-134238881D01*
X92925826Y-134466606D01*
X93061833Y-134674782D01*
X93061836Y-134674785D01*
X93230256Y-134857738D01*
X93426491Y-135010474D01*
X93645190Y-135128828D01*
X93880386Y-135209571D01*
X94125665Y-135250500D01*
X94374335Y-135250500D01*
X94619614Y-135209571D01*
X94854810Y-135128828D01*
X95073509Y-135010474D01*
X95269744Y-134857738D01*
X95438164Y-134674785D01*
X95574173Y-134466607D01*
X95674063Y-134238881D01*
X95735108Y-133997821D01*
X95754434Y-133764592D01*
X95755643Y-133750005D01*
X95755643Y-133749994D01*
X104244357Y-133749994D01*
X104244357Y-133750005D01*
X104264890Y-133997812D01*
X104264892Y-133997824D01*
X104325936Y-134238881D01*
X104425826Y-134466606D01*
X104561833Y-134674782D01*
X104561836Y-134674785D01*
X104730256Y-134857738D01*
X104926491Y-135010474D01*
X105145190Y-135128828D01*
X105380386Y-135209571D01*
X105625665Y-135250500D01*
X105874335Y-135250500D01*
X106119614Y-135209571D01*
X106354810Y-135128828D01*
X106573509Y-135010474D01*
X106769744Y-134857738D01*
X106938164Y-134674785D01*
X107074173Y-134466607D01*
X107174063Y-134238881D01*
X107235108Y-133997821D01*
X107254434Y-133764592D01*
X107255643Y-133750005D01*
X107255643Y-133749994D01*
X110744357Y-133749994D01*
X110744357Y-133750005D01*
X110764890Y-133997812D01*
X110764892Y-133997824D01*
X110825936Y-134238881D01*
X110925826Y-134466606D01*
X111061833Y-134674782D01*
X111061836Y-134674785D01*
X111230256Y-134857738D01*
X111426491Y-135010474D01*
X111645190Y-135128828D01*
X111880386Y-135209571D01*
X112125665Y-135250500D01*
X112374335Y-135250500D01*
X112619614Y-135209571D01*
X112854810Y-135128828D01*
X113073509Y-135010474D01*
X113269744Y-134857738D01*
X113438164Y-134674785D01*
X113574173Y-134466607D01*
X113674063Y-134238881D01*
X113735108Y-133997821D01*
X113754434Y-133764592D01*
X113755643Y-133750005D01*
X113755643Y-133749994D01*
X113735109Y-133502187D01*
X113735107Y-133502175D01*
X113674063Y-133261118D01*
X113574173Y-133033393D01*
X113438166Y-132825217D01*
X113293020Y-132667547D01*
X113269744Y-132642262D01*
X113073509Y-132489526D01*
X113073507Y-132489525D01*
X113073506Y-132489524D01*
X112854811Y-132371172D01*
X112854802Y-132371169D01*
X112619616Y-132290429D01*
X112374335Y-132249500D01*
X112125665Y-132249500D01*
X111880383Y-132290429D01*
X111645197Y-132371169D01*
X111645188Y-132371172D01*
X111426493Y-132489524D01*
X111230257Y-132642261D01*
X111061833Y-132825217D01*
X110925826Y-133033393D01*
X110825936Y-133261118D01*
X110764892Y-133502175D01*
X110764890Y-133502187D01*
X110744357Y-133749994D01*
X107255643Y-133749994D01*
X107235109Y-133502187D01*
X107235107Y-133502175D01*
X107174063Y-133261118D01*
X107074173Y-133033393D01*
X106938166Y-132825217D01*
X106793020Y-132667547D01*
X106769744Y-132642262D01*
X106573509Y-132489526D01*
X106573507Y-132489525D01*
X106573506Y-132489524D01*
X106354811Y-132371172D01*
X106354802Y-132371169D01*
X106119616Y-132290429D01*
X105874335Y-132249500D01*
X105625665Y-132249500D01*
X105380383Y-132290429D01*
X105145197Y-132371169D01*
X105145188Y-132371172D01*
X104926493Y-132489524D01*
X104730257Y-132642261D01*
X104561833Y-132825217D01*
X104425826Y-133033393D01*
X104325936Y-133261118D01*
X104264892Y-133502175D01*
X104264890Y-133502187D01*
X104244357Y-133749994D01*
X95755643Y-133749994D01*
X95735109Y-133502187D01*
X95735107Y-133502175D01*
X95674063Y-133261118D01*
X95574173Y-133033393D01*
X95438166Y-132825217D01*
X95293020Y-132667547D01*
X95269744Y-132642262D01*
X95073509Y-132489526D01*
X95073507Y-132489525D01*
X95073506Y-132489524D01*
X94854811Y-132371172D01*
X94854802Y-132371169D01*
X94619616Y-132290429D01*
X94374335Y-132249500D01*
X94125665Y-132249500D01*
X93880383Y-132290429D01*
X93645197Y-132371169D01*
X93645188Y-132371172D01*
X93426493Y-132489524D01*
X93230257Y-132642261D01*
X93061833Y-132825217D01*
X92925826Y-133033393D01*
X92825936Y-133261118D01*
X92764892Y-133502175D01*
X92764890Y-133502187D01*
X92744357Y-133749994D01*
X89255643Y-133749994D01*
X89235109Y-133502187D01*
X89235107Y-133502175D01*
X89174063Y-133261118D01*
X89074173Y-133033393D01*
X88938166Y-132825217D01*
X88793020Y-132667547D01*
X88769744Y-132642262D01*
X88573509Y-132489526D01*
X88573507Y-132489525D01*
X88573506Y-132489524D01*
X88354811Y-132371172D01*
X88354802Y-132371169D01*
X88119616Y-132290429D01*
X87874335Y-132249500D01*
X87625665Y-132249500D01*
X87380383Y-132290429D01*
X87145197Y-132371169D01*
X87145188Y-132371172D01*
X86926493Y-132489524D01*
X86730257Y-132642261D01*
X86561833Y-132825217D01*
X86425826Y-133033393D01*
X86325936Y-133261118D01*
X86264892Y-133502175D01*
X86264890Y-133502187D01*
X86244357Y-133749994D01*
X82331152Y-133749994D01*
X82286867Y-133584719D01*
X82273905Y-133536344D01*
X82273904Y-133536343D01*
X82273903Y-133536337D01*
X82174035Y-133322171D01*
X82131285Y-133261118D01*
X82038496Y-133128600D01*
X82007595Y-133097699D01*
X81916567Y-133006671D01*
X81883084Y-132945351D01*
X81888068Y-132875659D01*
X81929939Y-132819725D01*
X81960915Y-132802810D01*
X82092331Y-132753796D01*
X82207546Y-132667546D01*
X82293796Y-132552331D01*
X82344091Y-132417483D01*
X82350500Y-132357873D01*
X82350499Y-130562128D01*
X82344091Y-130502517D01*
X82328073Y-130459571D01*
X82293797Y-130367671D01*
X82293793Y-130367664D01*
X82207547Y-130252455D01*
X82207544Y-130252452D01*
X82092335Y-130166206D01*
X82092328Y-130166202D01*
X81957482Y-130115908D01*
X81957483Y-130115908D01*
X81897883Y-130109501D01*
X81897881Y-130109500D01*
X81897873Y-130109500D01*
X81897864Y-130109500D01*
X80102129Y-130109500D01*
X80102123Y-130109501D01*
X80042516Y-130115908D01*
X79907671Y-130166202D01*
X79907664Y-130166206D01*
X79792455Y-130252452D01*
X79792452Y-130252455D01*
X79706206Y-130367664D01*
X79706202Y-130367671D01*
X79655908Y-130502517D01*
X79649501Y-130562116D01*
X79649501Y-130562123D01*
X79649500Y-130562135D01*
X79649500Y-132357870D01*
X79649501Y-132357876D01*
X79655908Y-132417483D01*
X79706202Y-132552328D01*
X79706206Y-132552335D01*
X79792452Y-132667544D01*
X79792455Y-132667547D01*
X79907664Y-132753793D01*
X79907671Y-132753797D01*
X80039081Y-132802810D01*
X80095015Y-132844681D01*
X80119432Y-132910145D01*
X80104580Y-132978418D01*
X80083430Y-133006673D01*
X79961503Y-133128600D01*
X79825965Y-133322169D01*
X79825964Y-133322171D01*
X79726098Y-133536335D01*
X79726094Y-133536344D01*
X79664938Y-133764586D01*
X79664936Y-133764596D01*
X79644341Y-133999999D01*
X71305271Y-133999999D01*
X71250320Y-133794921D01*
X71152301Y-133584719D01*
X71152299Y-133584716D01*
X71152298Y-133584714D01*
X71019273Y-133394735D01*
X71019268Y-133394729D01*
X70855269Y-133230730D01*
X70855263Y-133230726D01*
X70665282Y-133097699D01*
X70455079Y-132999680D01*
X70455076Y-132999679D01*
X70455074Y-132999678D01*
X70231051Y-132939651D01*
X70231044Y-132939650D01*
X70000002Y-132919437D01*
X69999998Y-132919437D01*
X69768955Y-132939650D01*
X69768948Y-132939651D01*
X69544917Y-132999681D01*
X69334718Y-133097699D01*
X69334714Y-133097701D01*
X69144735Y-133230726D01*
X69144729Y-133230731D01*
X68980731Y-133394729D01*
X68980726Y-133394735D01*
X68851575Y-133579183D01*
X68796998Y-133622808D01*
X68727500Y-133630002D01*
X68665145Y-133598479D01*
X68648425Y-133579183D01*
X68519273Y-133394735D01*
X68519268Y-133394729D01*
X68355269Y-133230730D01*
X68355263Y-133230726D01*
X68165282Y-133097699D01*
X67955079Y-132999680D01*
X67955076Y-132999679D01*
X67955074Y-132999678D01*
X67731051Y-132939651D01*
X67731044Y-132939650D01*
X67500002Y-132919437D01*
X67499998Y-132919437D01*
X67268955Y-132939650D01*
X67268948Y-132939651D01*
X67044917Y-132999681D01*
X66834718Y-133097699D01*
X66834714Y-133097701D01*
X66644735Y-133230726D01*
X66644729Y-133230731D01*
X66480731Y-133394729D01*
X66480726Y-133394735D01*
X66351575Y-133579183D01*
X66296998Y-133622808D01*
X66227500Y-133630002D01*
X66165145Y-133598479D01*
X66148425Y-133579183D01*
X66019273Y-133394735D01*
X66019268Y-133394729D01*
X65855269Y-133230730D01*
X65855263Y-133230726D01*
X65665282Y-133097699D01*
X65455079Y-132999680D01*
X65455076Y-132999679D01*
X65455074Y-132999678D01*
X65231051Y-132939651D01*
X65231044Y-132939650D01*
X65000002Y-132919437D01*
X64999998Y-132919437D01*
X64768955Y-132939650D01*
X64768948Y-132939651D01*
X64544917Y-132999681D01*
X64334718Y-133097699D01*
X64334714Y-133097701D01*
X64144735Y-133230726D01*
X64144729Y-133230731D01*
X63980731Y-133394729D01*
X63980726Y-133394735D01*
X63847701Y-133584714D01*
X63847699Y-133584718D01*
X63749681Y-133794917D01*
X63689651Y-134018948D01*
X63689650Y-134018955D01*
X63669437Y-134249998D01*
X58500500Y-134249998D01*
X58500500Y-125118872D01*
X59799500Y-125118872D01*
X59799500Y-128381127D01*
X59816615Y-128511118D01*
X59833730Y-128641116D01*
X59901602Y-128894418D01*
X59901605Y-128894428D01*
X60001953Y-129136690D01*
X60001958Y-129136700D01*
X60133075Y-129363803D01*
X60292718Y-129571851D01*
X60292726Y-129571860D01*
X60478140Y-129757274D01*
X60478148Y-129757281D01*
X60686196Y-129916924D01*
X60913299Y-130048041D01*
X60913309Y-130048046D01*
X61155571Y-130148394D01*
X61155581Y-130148398D01*
X61408884Y-130216270D01*
X61668880Y-130250500D01*
X61668887Y-130250500D01*
X61931113Y-130250500D01*
X61931120Y-130250500D01*
X62191116Y-130216270D01*
X62444419Y-130148398D01*
X62686697Y-130048043D01*
X62913803Y-129916924D01*
X63121851Y-129757282D01*
X63121855Y-129757277D01*
X63121860Y-129757274D01*
X63307274Y-129571860D01*
X63307277Y-129571855D01*
X63307282Y-129571851D01*
X63466924Y-129363803D01*
X63598043Y-129136697D01*
X63698398Y-128894419D01*
X63766270Y-128641116D01*
X63800500Y-128381120D01*
X63800500Y-125118880D01*
X63800499Y-125118872D01*
X71199500Y-125118872D01*
X71199500Y-128381127D01*
X71216615Y-128511118D01*
X71233730Y-128641116D01*
X71301602Y-128894418D01*
X71301605Y-128894428D01*
X71401953Y-129136690D01*
X71401958Y-129136700D01*
X71533075Y-129363803D01*
X71692718Y-129571851D01*
X71692726Y-129571860D01*
X71878140Y-129757274D01*
X71878148Y-129757281D01*
X72086196Y-129916924D01*
X72313299Y-130048041D01*
X72313309Y-130048046D01*
X72555571Y-130148394D01*
X72555581Y-130148398D01*
X72808884Y-130216270D01*
X73068880Y-130250500D01*
X73068887Y-130250500D01*
X73331113Y-130250500D01*
X73331120Y-130250500D01*
X73591116Y-130216270D01*
X73844419Y-130148398D01*
X74086697Y-130048043D01*
X74313803Y-129916924D01*
X74521851Y-129757282D01*
X74521855Y-129757277D01*
X74521860Y-129757274D01*
X74707274Y-129571860D01*
X74707277Y-129571855D01*
X74707282Y-129571851D01*
X74866924Y-129363803D01*
X74998043Y-129136697D01*
X75054667Y-128999994D01*
X127494357Y-128999994D01*
X127494357Y-129000005D01*
X127514890Y-129247812D01*
X127514892Y-129247824D01*
X127575936Y-129488881D01*
X127675826Y-129716606D01*
X127811833Y-129924782D01*
X127811836Y-129924785D01*
X127980256Y-130107738D01*
X128176491Y-130260474D01*
X128395190Y-130378828D01*
X128630386Y-130459571D01*
X128875665Y-130500500D01*
X129124335Y-130500500D01*
X129369614Y-130459571D01*
X129604810Y-130378828D01*
X129823509Y-130260474D01*
X130019744Y-130107738D01*
X130188164Y-129924785D01*
X130324173Y-129716607D01*
X130424063Y-129488881D01*
X130485108Y-129247821D01*
X130505643Y-129000000D01*
X130505643Y-128999994D01*
X133994357Y-128999994D01*
X133994357Y-129000005D01*
X134014890Y-129247812D01*
X134014892Y-129247824D01*
X134075936Y-129488881D01*
X134175826Y-129716606D01*
X134311833Y-129924782D01*
X134311836Y-129924785D01*
X134480256Y-130107738D01*
X134676491Y-130260474D01*
X134895190Y-130378828D01*
X135130386Y-130459571D01*
X135375665Y-130500500D01*
X135624335Y-130500500D01*
X135869614Y-130459571D01*
X136104810Y-130378828D01*
X136323509Y-130260474D01*
X136519744Y-130107738D01*
X136688164Y-129924785D01*
X136824173Y-129716607D01*
X136924063Y-129488881D01*
X136985108Y-129247821D01*
X137005643Y-129000000D01*
X136996894Y-128894419D01*
X136985109Y-128752187D01*
X136985107Y-128752175D01*
X136924063Y-128511118D01*
X136824173Y-128283393D01*
X136688166Y-128075217D01*
X136666557Y-128051744D01*
X136519744Y-127892262D01*
X136323509Y-127739526D01*
X136323507Y-127739525D01*
X136323506Y-127739524D01*
X136104811Y-127621172D01*
X136104802Y-127621169D01*
X135869616Y-127540429D01*
X135624335Y-127499500D01*
X135375665Y-127499500D01*
X135130383Y-127540429D01*
X134895197Y-127621169D01*
X134895188Y-127621172D01*
X134676493Y-127739524D01*
X134480257Y-127892261D01*
X134311833Y-128075217D01*
X134175826Y-128283393D01*
X134075936Y-128511118D01*
X134014892Y-128752175D01*
X134014890Y-128752187D01*
X133994357Y-128999994D01*
X130505643Y-128999994D01*
X130496894Y-128894419D01*
X130485109Y-128752187D01*
X130485107Y-128752175D01*
X130424063Y-128511118D01*
X130324173Y-128283393D01*
X130188166Y-128075217D01*
X130166557Y-128051744D01*
X130019744Y-127892262D01*
X129823509Y-127739526D01*
X129823507Y-127739525D01*
X129823506Y-127739524D01*
X129604811Y-127621172D01*
X129604802Y-127621169D01*
X129369616Y-127540429D01*
X129124335Y-127499500D01*
X128875665Y-127499500D01*
X128630383Y-127540429D01*
X128395197Y-127621169D01*
X128395188Y-127621172D01*
X128176493Y-127739524D01*
X127980257Y-127892261D01*
X127811833Y-128075217D01*
X127675826Y-128283393D01*
X127575936Y-128511118D01*
X127514892Y-128752175D01*
X127514890Y-128752187D01*
X127494357Y-128999994D01*
X75054667Y-128999994D01*
X75098398Y-128894419D01*
X75166270Y-128641116D01*
X75200500Y-128381120D01*
X75200500Y-125118880D01*
X75166270Y-124858884D01*
X75098398Y-124605581D01*
X75098394Y-124605571D01*
X75007138Y-124385258D01*
X78249500Y-124385258D01*
X78249500Y-124614741D01*
X78267022Y-124747824D01*
X78279452Y-124842238D01*
X78323601Y-125007007D01*
X78338842Y-125063887D01*
X78426650Y-125275876D01*
X78426656Y-125275888D01*
X78512621Y-125424785D01*
X78541392Y-125474617D01*
X78681081Y-125656661D01*
X78681089Y-125656670D01*
X78843330Y-125818911D01*
X78843338Y-125818918D01*
X79025382Y-125958607D01*
X79025385Y-125958608D01*
X79025388Y-125958611D01*
X79224112Y-126073344D01*
X79224117Y-126073346D01*
X79224123Y-126073349D01*
X79283330Y-126097873D01*
X79436113Y-126161158D01*
X79657762Y-126220548D01*
X79885266Y-126250500D01*
X79885273Y-126250500D01*
X80114727Y-126250500D01*
X80114734Y-126250500D01*
X80342238Y-126220548D01*
X80563887Y-126161158D01*
X80775888Y-126073344D01*
X80974612Y-125958611D01*
X81156661Y-125818919D01*
X81156665Y-125818914D01*
X81156670Y-125818911D01*
X81318911Y-125656670D01*
X81318914Y-125656665D01*
X81318919Y-125656661D01*
X81458611Y-125474612D01*
X81573344Y-125275888D01*
X81604778Y-125199999D01*
X89814341Y-125199999D01*
X89814341Y-125200000D01*
X89834936Y-125435403D01*
X89834938Y-125435413D01*
X89896094Y-125663655D01*
X89896096Y-125663659D01*
X89896097Y-125663663D01*
X89975801Y-125834588D01*
X89995965Y-125877830D01*
X89995967Y-125877834D01*
X90104281Y-126032521D01*
X90131505Y-126071401D01*
X90298599Y-126238495D01*
X90395384Y-126306265D01*
X90492165Y-126374032D01*
X90492167Y-126374033D01*
X90492170Y-126374035D01*
X90706337Y-126473903D01*
X90934592Y-126535063D01*
X91111034Y-126550500D01*
X91169999Y-126555659D01*
X91170000Y-126555659D01*
X91170001Y-126555659D01*
X91228966Y-126550500D01*
X91405408Y-126535063D01*
X91633663Y-126473903D01*
X91847830Y-126374035D01*
X92041401Y-126238495D01*
X92208495Y-126071401D01*
X92338425Y-125885842D01*
X92393002Y-125842217D01*
X92462500Y-125835023D01*
X92524855Y-125866546D01*
X92541575Y-125885842D01*
X92671500Y-126071395D01*
X92671505Y-126071401D01*
X92838599Y-126238495D01*
X92935384Y-126306265D01*
X93032165Y-126374032D01*
X93032167Y-126374033D01*
X93032170Y-126374035D01*
X93246337Y-126473903D01*
X93474592Y-126535063D01*
X93651034Y-126550500D01*
X93709999Y-126555659D01*
X93710000Y-126555659D01*
X93710001Y-126555659D01*
X93768966Y-126550500D01*
X93945408Y-126535063D01*
X94173663Y-126473903D01*
X94387830Y-126374035D01*
X94581401Y-126238495D01*
X94748495Y-126071401D01*
X94878425Y-125885842D01*
X94933002Y-125842217D01*
X95002500Y-125835023D01*
X95064855Y-125866546D01*
X95081575Y-125885842D01*
X95211500Y-126071395D01*
X95211505Y-126071401D01*
X95378599Y-126238495D01*
X95475384Y-126306265D01*
X95572165Y-126374032D01*
X95572167Y-126374033D01*
X95572170Y-126374035D01*
X95786337Y-126473903D01*
X96014592Y-126535063D01*
X96191034Y-126550500D01*
X96249999Y-126555659D01*
X96250000Y-126555659D01*
X96250001Y-126555659D01*
X96308966Y-126550500D01*
X96485408Y-126535063D01*
X96713663Y-126473903D01*
X96927830Y-126374035D01*
X97121401Y-126238495D01*
X97288495Y-126071401D01*
X97418425Y-125885842D01*
X97473002Y-125842217D01*
X97542500Y-125835023D01*
X97604855Y-125866546D01*
X97621575Y-125885842D01*
X97751500Y-126071395D01*
X97751505Y-126071401D01*
X97918599Y-126238495D01*
X98015384Y-126306265D01*
X98112165Y-126374032D01*
X98112167Y-126374033D01*
X98112170Y-126374035D01*
X98326337Y-126473903D01*
X98554592Y-126535063D01*
X98731034Y-126550500D01*
X98789999Y-126555659D01*
X98790000Y-126555659D01*
X98790001Y-126555659D01*
X98848966Y-126550500D01*
X99025408Y-126535063D01*
X99253663Y-126473903D01*
X99467830Y-126374035D01*
X99661401Y-126238495D01*
X99828495Y-126071401D01*
X99958425Y-125885842D01*
X100013002Y-125842217D01*
X100082500Y-125835023D01*
X100144855Y-125866546D01*
X100161575Y-125885842D01*
X100291500Y-126071395D01*
X100291505Y-126071401D01*
X100458599Y-126238495D01*
X100555384Y-126306265D01*
X100652165Y-126374032D01*
X100652167Y-126374033D01*
X100652170Y-126374035D01*
X100866337Y-126473903D01*
X101094592Y-126535063D01*
X101271034Y-126550500D01*
X101329999Y-126555659D01*
X101330000Y-126555659D01*
X101330001Y-126555659D01*
X101388966Y-126550500D01*
X101565408Y-126535063D01*
X101793663Y-126473903D01*
X102007830Y-126374035D01*
X102201401Y-126238495D01*
X102368495Y-126071401D01*
X102498730Y-125885405D01*
X102553307Y-125841781D01*
X102622805Y-125834587D01*
X102685160Y-125866110D01*
X102701879Y-125885405D01*
X102831890Y-126071078D01*
X102998917Y-126238105D01*
X103192421Y-126373600D01*
X103406507Y-126473429D01*
X103406516Y-126473433D01*
X103620000Y-126530634D01*
X103620000Y-125633012D01*
X103677007Y-125665925D01*
X103804174Y-125700000D01*
X103935826Y-125700000D01*
X104062993Y-125665925D01*
X104120000Y-125633012D01*
X104120000Y-126530633D01*
X104333483Y-126473433D01*
X104333492Y-126473429D01*
X104547578Y-126373600D01*
X104741082Y-126238105D01*
X104908105Y-126071082D01*
X105038119Y-125885405D01*
X105092696Y-125841781D01*
X105162195Y-125834588D01*
X105224549Y-125866110D01*
X105241269Y-125885405D01*
X105371505Y-126071401D01*
X105538599Y-126238495D01*
X105635384Y-126306265D01*
X105732165Y-126374032D01*
X105732167Y-126374033D01*
X105732170Y-126374035D01*
X105946337Y-126473903D01*
X106174592Y-126535063D01*
X106351034Y-126550500D01*
X106409999Y-126555659D01*
X106410000Y-126555659D01*
X106410001Y-126555659D01*
X106468966Y-126550500D01*
X106645408Y-126535063D01*
X106873663Y-126473903D01*
X107087830Y-126374035D01*
X107281401Y-126238495D01*
X107403329Y-126116566D01*
X107464648Y-126083084D01*
X107534340Y-126088068D01*
X107590274Y-126129939D01*
X107607189Y-126160917D01*
X107656202Y-126292328D01*
X107656206Y-126292335D01*
X107742452Y-126407544D01*
X107742455Y-126407547D01*
X107857664Y-126493793D01*
X107857671Y-126493797D01*
X107992517Y-126544091D01*
X107992516Y-126544091D01*
X107999444Y-126544835D01*
X108052127Y-126550500D01*
X109847872Y-126550499D01*
X109907483Y-126544091D01*
X110042331Y-126493796D01*
X110157546Y-126407546D01*
X110243796Y-126292331D01*
X110294091Y-126157483D01*
X110300500Y-126097873D01*
X110300499Y-124385258D01*
X118249500Y-124385258D01*
X118249500Y-124614741D01*
X118267022Y-124747824D01*
X118279452Y-124842238D01*
X118323601Y-125007007D01*
X118338842Y-125063887D01*
X118426650Y-125275876D01*
X118426656Y-125275888D01*
X118512621Y-125424785D01*
X118541392Y-125474617D01*
X118681081Y-125656661D01*
X118681089Y-125656670D01*
X118843330Y-125818911D01*
X118843338Y-125818918D01*
X119025382Y-125958607D01*
X119025385Y-125958608D01*
X119025388Y-125958611D01*
X119224112Y-126073344D01*
X119224117Y-126073346D01*
X119224123Y-126073349D01*
X119283330Y-126097873D01*
X119436113Y-126161158D01*
X119657762Y-126220548D01*
X119885266Y-126250500D01*
X119885273Y-126250500D01*
X120114727Y-126250500D01*
X120114734Y-126250500D01*
X120342238Y-126220548D01*
X120563887Y-126161158D01*
X120775888Y-126073344D01*
X120974612Y-125958611D01*
X121156661Y-125818919D01*
X121156665Y-125818914D01*
X121156670Y-125818911D01*
X121318911Y-125656670D01*
X121318914Y-125656665D01*
X121318919Y-125656661D01*
X121458611Y-125474612D01*
X121573344Y-125275888D01*
X121661158Y-125063887D01*
X121720548Y-124842238D01*
X121750500Y-124614734D01*
X121750500Y-124499994D01*
X127494357Y-124499994D01*
X127494357Y-124500005D01*
X127514890Y-124747812D01*
X127514892Y-124747824D01*
X127575936Y-124988881D01*
X127675826Y-125216606D01*
X127811833Y-125424782D01*
X127821615Y-125435408D01*
X127980256Y-125607738D01*
X128176491Y-125760474D01*
X128395190Y-125878828D01*
X128630386Y-125959571D01*
X128875665Y-126000500D01*
X129124335Y-126000500D01*
X129369614Y-125959571D01*
X129604810Y-125878828D01*
X129823509Y-125760474D01*
X130019744Y-125607738D01*
X130188164Y-125424785D01*
X130324173Y-125216607D01*
X130424063Y-124988881D01*
X130485108Y-124747821D01*
X130489071Y-124700000D01*
X130505643Y-124500005D01*
X130505643Y-124499994D01*
X133994357Y-124499994D01*
X133994357Y-124500005D01*
X134014890Y-124747812D01*
X134014892Y-124747824D01*
X134075936Y-124988881D01*
X134175826Y-125216606D01*
X134311833Y-125424782D01*
X134321615Y-125435408D01*
X134480256Y-125607738D01*
X134676491Y-125760474D01*
X134895190Y-125878828D01*
X135130386Y-125959571D01*
X135375665Y-126000500D01*
X135624335Y-126000500D01*
X135869614Y-125959571D01*
X136104810Y-125878828D01*
X136323509Y-125760474D01*
X136519744Y-125607738D01*
X136688164Y-125424785D01*
X136824173Y-125216607D01*
X136924063Y-124988881D01*
X136985108Y-124747821D01*
X136989071Y-124700000D01*
X137005643Y-124500005D01*
X137005643Y-124499994D01*
X136985109Y-124252187D01*
X136985107Y-124252175D01*
X136924063Y-124011118D01*
X136824173Y-123783393D01*
X136688166Y-123575217D01*
X136642295Y-123525388D01*
X136519744Y-123392262D01*
X136323509Y-123239526D01*
X136323507Y-123239525D01*
X136323506Y-123239524D01*
X136104811Y-123121172D01*
X136104802Y-123121169D01*
X135869616Y-123040429D01*
X135624335Y-122999500D01*
X135375665Y-122999500D01*
X135130383Y-123040429D01*
X134895197Y-123121169D01*
X134895188Y-123121172D01*
X134676493Y-123239524D01*
X134480257Y-123392261D01*
X134311833Y-123575217D01*
X134175826Y-123783393D01*
X134075936Y-124011118D01*
X134014892Y-124252175D01*
X134014890Y-124252187D01*
X133994357Y-124499994D01*
X130505643Y-124499994D01*
X130485109Y-124252187D01*
X130485107Y-124252175D01*
X130424063Y-124011118D01*
X130324173Y-123783393D01*
X130188166Y-123575217D01*
X130142295Y-123525388D01*
X130019744Y-123392262D01*
X129823509Y-123239526D01*
X129823507Y-123239525D01*
X129823506Y-123239524D01*
X129604811Y-123121172D01*
X129604802Y-123121169D01*
X129369616Y-123040429D01*
X129124335Y-122999500D01*
X128875665Y-122999500D01*
X128630383Y-123040429D01*
X128395197Y-123121169D01*
X128395188Y-123121172D01*
X128176493Y-123239524D01*
X127980257Y-123392261D01*
X127811833Y-123575217D01*
X127675826Y-123783393D01*
X127575936Y-124011118D01*
X127514892Y-124252175D01*
X127514890Y-124252187D01*
X127494357Y-124499994D01*
X121750500Y-124499994D01*
X121750500Y-124385266D01*
X121720548Y-124157762D01*
X121661158Y-123936113D01*
X121597899Y-123783393D01*
X121573349Y-123724123D01*
X121573346Y-123724117D01*
X121573344Y-123724112D01*
X121458611Y-123525388D01*
X121458608Y-123525385D01*
X121458607Y-123525382D01*
X121318918Y-123343338D01*
X121318911Y-123343330D01*
X121156670Y-123181089D01*
X121156661Y-123181081D01*
X120974617Y-123041392D01*
X120775890Y-122926657D01*
X120775876Y-122926650D01*
X120563887Y-122838842D01*
X120342238Y-122779452D01*
X120304215Y-122774446D01*
X120114741Y-122749500D01*
X120114734Y-122749500D01*
X119885266Y-122749500D01*
X119885258Y-122749500D01*
X119668715Y-122778009D01*
X119657762Y-122779452D01*
X119564076Y-122804554D01*
X119436112Y-122838842D01*
X119224123Y-122926650D01*
X119224109Y-122926657D01*
X119025382Y-123041392D01*
X118843338Y-123181081D01*
X118681081Y-123343338D01*
X118541392Y-123525382D01*
X118426657Y-123724109D01*
X118426650Y-123724123D01*
X118338842Y-123936112D01*
X118279453Y-124157759D01*
X118279451Y-124157770D01*
X118249500Y-124385258D01*
X110300499Y-124385258D01*
X110300499Y-124302128D01*
X110295299Y-124253757D01*
X110294091Y-124242516D01*
X110243797Y-124107671D01*
X110243793Y-124107664D01*
X110157547Y-123992455D01*
X110157544Y-123992452D01*
X110042335Y-123906206D01*
X110042328Y-123906202D01*
X109907482Y-123855908D01*
X109907483Y-123855908D01*
X109847883Y-123849501D01*
X109847881Y-123849500D01*
X109847873Y-123849500D01*
X109847864Y-123849500D01*
X108052129Y-123849500D01*
X108052123Y-123849501D01*
X107992516Y-123855908D01*
X107857671Y-123906202D01*
X107857664Y-123906206D01*
X107742455Y-123992452D01*
X107742452Y-123992455D01*
X107656206Y-124107664D01*
X107656203Y-124107669D01*
X107607189Y-124239083D01*
X107565317Y-124295016D01*
X107499853Y-124319433D01*
X107431580Y-124304581D01*
X107403326Y-124283430D01*
X107281402Y-124161506D01*
X107281395Y-124161501D01*
X107087834Y-124025967D01*
X107087830Y-124025965D01*
X107055993Y-124011119D01*
X106873663Y-123926097D01*
X106873659Y-123926096D01*
X106873655Y-123926094D01*
X106645413Y-123864938D01*
X106645403Y-123864936D01*
X106410001Y-123844341D01*
X106409999Y-123844341D01*
X106174596Y-123864936D01*
X106174586Y-123864938D01*
X105946344Y-123926094D01*
X105946335Y-123926098D01*
X105732171Y-124025964D01*
X105732169Y-124025965D01*
X105538597Y-124161505D01*
X105371508Y-124328594D01*
X105241269Y-124514595D01*
X105186692Y-124558219D01*
X105117193Y-124565412D01*
X105054839Y-124533890D01*
X105038119Y-124514594D01*
X104908113Y-124328926D01*
X104908108Y-124328920D01*
X104741082Y-124161894D01*
X104547578Y-124026399D01*
X104333492Y-123926570D01*
X104333486Y-123926567D01*
X104120000Y-123869364D01*
X104120000Y-124766988D01*
X104062993Y-124734075D01*
X103935826Y-124700000D01*
X103804174Y-124700000D01*
X103677007Y-124734075D01*
X103620000Y-124766988D01*
X103620000Y-123869364D01*
X103619999Y-123869364D01*
X103406513Y-123926567D01*
X103406507Y-123926570D01*
X103192422Y-124026399D01*
X103192420Y-124026400D01*
X102998926Y-124161886D01*
X102998920Y-124161891D01*
X102831891Y-124328920D01*
X102831890Y-124328922D01*
X102701880Y-124514595D01*
X102647303Y-124558219D01*
X102577804Y-124565412D01*
X102515450Y-124533890D01*
X102498730Y-124514594D01*
X102368494Y-124328597D01*
X102201402Y-124161506D01*
X102201395Y-124161501D01*
X102007834Y-124025967D01*
X102007830Y-124025965D01*
X101975993Y-124011119D01*
X101793663Y-123926097D01*
X101793659Y-123926096D01*
X101793655Y-123926094D01*
X101565413Y-123864938D01*
X101565403Y-123864936D01*
X101330001Y-123844341D01*
X101329999Y-123844341D01*
X101094596Y-123864936D01*
X101094586Y-123864938D01*
X100866344Y-123926094D01*
X100866335Y-123926098D01*
X100652171Y-124025964D01*
X100652169Y-124025965D01*
X100458597Y-124161505D01*
X100291505Y-124328597D01*
X100161575Y-124514158D01*
X100106998Y-124557783D01*
X100037500Y-124564977D01*
X99975145Y-124533454D01*
X99958425Y-124514158D01*
X99828494Y-124328597D01*
X99661402Y-124161506D01*
X99661395Y-124161501D01*
X99467834Y-124025967D01*
X99467830Y-124025965D01*
X99435993Y-124011119D01*
X99253663Y-123926097D01*
X99253659Y-123926096D01*
X99253655Y-123926094D01*
X99025413Y-123864938D01*
X99025403Y-123864936D01*
X98790001Y-123844341D01*
X98789999Y-123844341D01*
X98554596Y-123864936D01*
X98554586Y-123864938D01*
X98326344Y-123926094D01*
X98326335Y-123926098D01*
X98112171Y-124025964D01*
X98112169Y-124025965D01*
X97918597Y-124161505D01*
X97751505Y-124328597D01*
X97621575Y-124514158D01*
X97566998Y-124557783D01*
X97497500Y-124564977D01*
X97435145Y-124533454D01*
X97418425Y-124514158D01*
X97288494Y-124328597D01*
X97121402Y-124161506D01*
X97121395Y-124161501D01*
X96927834Y-124025967D01*
X96927830Y-124025965D01*
X96895993Y-124011119D01*
X96713663Y-123926097D01*
X96713659Y-123926096D01*
X96713655Y-123926094D01*
X96485413Y-123864938D01*
X96485403Y-123864936D01*
X96250001Y-123844341D01*
X96249999Y-123844341D01*
X96014596Y-123864936D01*
X96014586Y-123864938D01*
X95786344Y-123926094D01*
X95786335Y-123926098D01*
X95572171Y-124025964D01*
X95572169Y-124025965D01*
X95378597Y-124161505D01*
X95211505Y-124328597D01*
X95081575Y-124514158D01*
X95026998Y-124557783D01*
X94957500Y-124564977D01*
X94895145Y-124533454D01*
X94878425Y-124514158D01*
X94748494Y-124328597D01*
X94581402Y-124161506D01*
X94581395Y-124161501D01*
X94387834Y-124025967D01*
X94387830Y-124025965D01*
X94355993Y-124011119D01*
X94173663Y-123926097D01*
X94173659Y-123926096D01*
X94173655Y-123926094D01*
X93945413Y-123864938D01*
X93945403Y-123864936D01*
X93710001Y-123844341D01*
X93709999Y-123844341D01*
X93474596Y-123864936D01*
X93474586Y-123864938D01*
X93246344Y-123926094D01*
X93246335Y-123926098D01*
X93032171Y-124025964D01*
X93032169Y-124025965D01*
X92838597Y-124161505D01*
X92671505Y-124328597D01*
X92541575Y-124514158D01*
X92486998Y-124557783D01*
X92417500Y-124564977D01*
X92355145Y-124533454D01*
X92338425Y-124514158D01*
X92208494Y-124328597D01*
X92041402Y-124161506D01*
X92041395Y-124161501D01*
X91847834Y-124025967D01*
X91847830Y-124025965D01*
X91815993Y-124011119D01*
X91633663Y-123926097D01*
X91633659Y-123926096D01*
X91633655Y-123926094D01*
X91405413Y-123864938D01*
X91405403Y-123864936D01*
X91170001Y-123844341D01*
X91169999Y-123844341D01*
X90934596Y-123864936D01*
X90934586Y-123864938D01*
X90706344Y-123926094D01*
X90706335Y-123926098D01*
X90492171Y-124025964D01*
X90492169Y-124025965D01*
X90298597Y-124161505D01*
X90131505Y-124328597D01*
X89995965Y-124522169D01*
X89995964Y-124522171D01*
X89896098Y-124736335D01*
X89896094Y-124736344D01*
X89834938Y-124964586D01*
X89834936Y-124964596D01*
X89814341Y-125199999D01*
X81604778Y-125199999D01*
X81661158Y-125063887D01*
X81720548Y-124842238D01*
X81750500Y-124614734D01*
X81750500Y-124385266D01*
X81720548Y-124157762D01*
X81661158Y-123936113D01*
X81597899Y-123783393D01*
X81573349Y-123724123D01*
X81573346Y-123724117D01*
X81573344Y-123724112D01*
X81458611Y-123525388D01*
X81458608Y-123525385D01*
X81458607Y-123525382D01*
X81318918Y-123343338D01*
X81318911Y-123343330D01*
X81156670Y-123181089D01*
X81156661Y-123181081D01*
X80974617Y-123041392D01*
X80775890Y-122926657D01*
X80775876Y-122926650D01*
X80563887Y-122838842D01*
X80342238Y-122779452D01*
X80304215Y-122774446D01*
X80114741Y-122749500D01*
X80114734Y-122749500D01*
X79885266Y-122749500D01*
X79885258Y-122749500D01*
X79668715Y-122778009D01*
X79657762Y-122779452D01*
X79564076Y-122804554D01*
X79436112Y-122838842D01*
X79224123Y-122926650D01*
X79224109Y-122926657D01*
X79025382Y-123041392D01*
X78843338Y-123181081D01*
X78681081Y-123343338D01*
X78541392Y-123525382D01*
X78426657Y-123724109D01*
X78426650Y-123724123D01*
X78338842Y-123936112D01*
X78279453Y-124157759D01*
X78279451Y-124157770D01*
X78249500Y-124385258D01*
X75007138Y-124385258D01*
X74998046Y-124363309D01*
X74998041Y-124363299D01*
X74866924Y-124136196D01*
X74707281Y-123928148D01*
X74707274Y-123928140D01*
X74521860Y-123742726D01*
X74521851Y-123742718D01*
X74313803Y-123583075D01*
X74086700Y-123451958D01*
X74086690Y-123451953D01*
X73844428Y-123351605D01*
X73844421Y-123351603D01*
X73844419Y-123351602D01*
X73591116Y-123283730D01*
X73533339Y-123276123D01*
X73331127Y-123249500D01*
X73331120Y-123249500D01*
X73068880Y-123249500D01*
X73068872Y-123249500D01*
X72837772Y-123279926D01*
X72808884Y-123283730D01*
X72586453Y-123343330D01*
X72555581Y-123351602D01*
X72555571Y-123351605D01*
X72313309Y-123451953D01*
X72313299Y-123451958D01*
X72086196Y-123583075D01*
X71878148Y-123742718D01*
X71692718Y-123928148D01*
X71533075Y-124136196D01*
X71401958Y-124363299D01*
X71401953Y-124363309D01*
X71301605Y-124605571D01*
X71301602Y-124605581D01*
X71238191Y-124842238D01*
X71233730Y-124858885D01*
X71199500Y-125118872D01*
X63800499Y-125118872D01*
X63766270Y-124858884D01*
X63698398Y-124605581D01*
X63698394Y-124605571D01*
X63598046Y-124363309D01*
X63598041Y-124363299D01*
X63466924Y-124136196D01*
X63307281Y-123928148D01*
X63307274Y-123928140D01*
X63121860Y-123742726D01*
X63121851Y-123742718D01*
X62913803Y-123583075D01*
X62686700Y-123451958D01*
X62686690Y-123451953D01*
X62444428Y-123351605D01*
X62444421Y-123351603D01*
X62444419Y-123351602D01*
X62191116Y-123283730D01*
X62133339Y-123276123D01*
X61931127Y-123249500D01*
X61931120Y-123249500D01*
X61668880Y-123249500D01*
X61668872Y-123249500D01*
X61437772Y-123279926D01*
X61408884Y-123283730D01*
X61186453Y-123343330D01*
X61155581Y-123351602D01*
X61155571Y-123351605D01*
X60913309Y-123451953D01*
X60913299Y-123451958D01*
X60686196Y-123583075D01*
X60478148Y-123742718D01*
X60292718Y-123928148D01*
X60133075Y-124136196D01*
X60001958Y-124363299D01*
X60001953Y-124363309D01*
X59901605Y-124605571D01*
X59901602Y-124605581D01*
X59838191Y-124842238D01*
X59833730Y-124858885D01*
X59799500Y-125118872D01*
X58500500Y-125118872D01*
X58500500Y-119749998D01*
X63669437Y-119749998D01*
X63669437Y-119750001D01*
X63689650Y-119981044D01*
X63689651Y-119981051D01*
X63749678Y-120205074D01*
X63749679Y-120205076D01*
X63749680Y-120205079D01*
X63847699Y-120415282D01*
X63980730Y-120605269D01*
X64144731Y-120769270D01*
X64334718Y-120902301D01*
X64544921Y-121000320D01*
X64768950Y-121060349D01*
X64933985Y-121074787D01*
X64999998Y-121080563D01*
X65000000Y-121080563D01*
X65000002Y-121080563D01*
X65057894Y-121075498D01*
X65231050Y-121060349D01*
X65455079Y-121000320D01*
X65665282Y-120902301D01*
X65855269Y-120769270D01*
X66019270Y-120605269D01*
X66152301Y-120415282D01*
X66250320Y-120205079D01*
X66310349Y-119981050D01*
X66330563Y-119750000D01*
X66330519Y-119749501D01*
X66310349Y-119518955D01*
X66310349Y-119518950D01*
X66250320Y-119294921D01*
X66152301Y-119084719D01*
X66152299Y-119084716D01*
X66152298Y-119084714D01*
X66019273Y-118894735D01*
X66019268Y-118894729D01*
X66001674Y-118877135D01*
X68674500Y-118877135D01*
X68674500Y-120622870D01*
X68674501Y-120622876D01*
X68680908Y-120682483D01*
X68731202Y-120817328D01*
X68731206Y-120817335D01*
X68817452Y-120932544D01*
X68817455Y-120932547D01*
X68932664Y-121018793D01*
X68932671Y-121018797D01*
X69067517Y-121069091D01*
X69067516Y-121069091D01*
X69074444Y-121069835D01*
X69127127Y-121075500D01*
X70872872Y-121075499D01*
X70932483Y-121069091D01*
X71067331Y-121018796D01*
X71182546Y-120932546D01*
X71268796Y-120817331D01*
X71319091Y-120682483D01*
X71325500Y-120622873D01*
X71325500Y-120202135D01*
X89869500Y-120202135D01*
X89869500Y-121997870D01*
X89869501Y-121997876D01*
X89875908Y-122057483D01*
X89926202Y-122192328D01*
X89926206Y-122192335D01*
X90012452Y-122307544D01*
X90012455Y-122307547D01*
X90127664Y-122393793D01*
X90127671Y-122393797D01*
X90262517Y-122444091D01*
X90262516Y-122444091D01*
X90269444Y-122444835D01*
X90322127Y-122450500D01*
X92117872Y-122450499D01*
X92177483Y-122444091D01*
X92312331Y-122393796D01*
X92427546Y-122307546D01*
X92513796Y-122192331D01*
X92562810Y-122060916D01*
X92604681Y-122004984D01*
X92670145Y-121980566D01*
X92738418Y-121995417D01*
X92766673Y-122016569D01*
X92888599Y-122138495D01*
X92985384Y-122206265D01*
X93082165Y-122274032D01*
X93082167Y-122274033D01*
X93082170Y-122274035D01*
X93296337Y-122373903D01*
X93524592Y-122435063D01*
X93701034Y-122450500D01*
X93759999Y-122455659D01*
X93760000Y-122455659D01*
X93760001Y-122455659D01*
X93818966Y-122450500D01*
X93995408Y-122435063D01*
X94223663Y-122373903D01*
X94437830Y-122274035D01*
X94631401Y-122138495D01*
X94798495Y-121971401D01*
X94928425Y-121785842D01*
X94983002Y-121742217D01*
X95052500Y-121735023D01*
X95114855Y-121766546D01*
X95131575Y-121785842D01*
X95261500Y-121971395D01*
X95261505Y-121971401D01*
X95428599Y-122138495D01*
X95525384Y-122206265D01*
X95622165Y-122274032D01*
X95622167Y-122274033D01*
X95622170Y-122274035D01*
X95836337Y-122373903D01*
X96064592Y-122435063D01*
X96241034Y-122450500D01*
X96299999Y-122455659D01*
X96300000Y-122455659D01*
X96300001Y-122455659D01*
X96358966Y-122450500D01*
X96535408Y-122435063D01*
X96763663Y-122373903D01*
X96977830Y-122274035D01*
X97171401Y-122138495D01*
X97338495Y-121971401D01*
X97468425Y-121785842D01*
X97523002Y-121742217D01*
X97592500Y-121735023D01*
X97654855Y-121766546D01*
X97671575Y-121785842D01*
X97801500Y-121971395D01*
X97801505Y-121971401D01*
X97968599Y-122138495D01*
X98065384Y-122206265D01*
X98162165Y-122274032D01*
X98162167Y-122274033D01*
X98162170Y-122274035D01*
X98376337Y-122373903D01*
X98604592Y-122435063D01*
X98781034Y-122450500D01*
X98839999Y-122455659D01*
X98840000Y-122455659D01*
X98840001Y-122455659D01*
X98898966Y-122450500D01*
X99075408Y-122435063D01*
X99303663Y-122373903D01*
X99517830Y-122274035D01*
X99711401Y-122138495D01*
X99878495Y-121971401D01*
X100008425Y-121785842D01*
X100063002Y-121742217D01*
X100132500Y-121735023D01*
X100194855Y-121766546D01*
X100211575Y-121785842D01*
X100341500Y-121971395D01*
X100341505Y-121971401D01*
X100508599Y-122138495D01*
X100605384Y-122206265D01*
X100702165Y-122274032D01*
X100702167Y-122274033D01*
X100702170Y-122274035D01*
X100916337Y-122373903D01*
X101144592Y-122435063D01*
X101321034Y-122450500D01*
X101379999Y-122455659D01*
X101380000Y-122455659D01*
X101380001Y-122455659D01*
X101438966Y-122450500D01*
X101615408Y-122435063D01*
X101843663Y-122373903D01*
X102057830Y-122274035D01*
X102251401Y-122138495D01*
X102418495Y-121971401D01*
X102548730Y-121785405D01*
X102603307Y-121741781D01*
X102672805Y-121734587D01*
X102735160Y-121766110D01*
X102751879Y-121785405D01*
X102881890Y-121971078D01*
X103048917Y-122138105D01*
X103242421Y-122273600D01*
X103456507Y-122373429D01*
X103456516Y-122373433D01*
X103670000Y-122430634D01*
X103670000Y-121533012D01*
X103727007Y-121565925D01*
X103854174Y-121600000D01*
X103985826Y-121600000D01*
X104112993Y-121565925D01*
X104170000Y-121533012D01*
X104170000Y-122430634D01*
X104383483Y-122373433D01*
X104383492Y-122373429D01*
X104597578Y-122273600D01*
X104791082Y-122138105D01*
X104958105Y-121971082D01*
X105088119Y-121785405D01*
X105142696Y-121741781D01*
X105212195Y-121734588D01*
X105274549Y-121766110D01*
X105291269Y-121785405D01*
X105421505Y-121971401D01*
X105588599Y-122138495D01*
X105685384Y-122206265D01*
X105782165Y-122274032D01*
X105782167Y-122274033D01*
X105782170Y-122274035D01*
X105996337Y-122373903D01*
X106224592Y-122435063D01*
X106401034Y-122450500D01*
X106459999Y-122455659D01*
X106460000Y-122455659D01*
X106460001Y-122455659D01*
X106518966Y-122450500D01*
X106695408Y-122435063D01*
X106923663Y-122373903D01*
X107137830Y-122274035D01*
X107331401Y-122138495D01*
X107498495Y-121971401D01*
X107628425Y-121785842D01*
X107683002Y-121742217D01*
X107752500Y-121735023D01*
X107814855Y-121766546D01*
X107831575Y-121785842D01*
X107961500Y-121971395D01*
X107961505Y-121971401D01*
X108128599Y-122138495D01*
X108225384Y-122206265D01*
X108322165Y-122274032D01*
X108322167Y-122274033D01*
X108322170Y-122274035D01*
X108536337Y-122373903D01*
X108764592Y-122435063D01*
X108941034Y-122450500D01*
X108999999Y-122455659D01*
X109000000Y-122455659D01*
X109000001Y-122455659D01*
X109058966Y-122450500D01*
X109235408Y-122435063D01*
X109463663Y-122373903D01*
X109677830Y-122274035D01*
X109871401Y-122138495D01*
X110038495Y-121971401D01*
X110174035Y-121777830D01*
X110273903Y-121563663D01*
X110335063Y-121335408D01*
X110355659Y-121100000D01*
X110353515Y-121075500D01*
X110335063Y-120864596D01*
X110335063Y-120864592D01*
X110273903Y-120636337D01*
X110174035Y-120422171D01*
X110169212Y-120415282D01*
X110038494Y-120228597D01*
X109871402Y-120061506D01*
X109871395Y-120061501D01*
X109677834Y-119925967D01*
X109677830Y-119925965D01*
X109677828Y-119925964D01*
X109463663Y-119826097D01*
X109463659Y-119826096D01*
X109463655Y-119826094D01*
X109235413Y-119764938D01*
X109235403Y-119764936D01*
X109000001Y-119744341D01*
X108999999Y-119744341D01*
X108764596Y-119764936D01*
X108764586Y-119764938D01*
X108536344Y-119826094D01*
X108536335Y-119826098D01*
X108322171Y-119925964D01*
X108322169Y-119925965D01*
X108128597Y-120061505D01*
X107961505Y-120228597D01*
X107831575Y-120414158D01*
X107776998Y-120457783D01*
X107707500Y-120464977D01*
X107645145Y-120433454D01*
X107628425Y-120414158D01*
X107498494Y-120228597D01*
X107331402Y-120061506D01*
X107331395Y-120061501D01*
X107137834Y-119925967D01*
X107137830Y-119925965D01*
X107137828Y-119925964D01*
X106923663Y-119826097D01*
X106923659Y-119826096D01*
X106923655Y-119826094D01*
X106695413Y-119764938D01*
X106695403Y-119764936D01*
X106460001Y-119744341D01*
X106459999Y-119744341D01*
X106224596Y-119764936D01*
X106224586Y-119764938D01*
X105996344Y-119826094D01*
X105996335Y-119826098D01*
X105782171Y-119925964D01*
X105782169Y-119925965D01*
X105588597Y-120061505D01*
X105421508Y-120228594D01*
X105291269Y-120414595D01*
X105236692Y-120458219D01*
X105167193Y-120465412D01*
X105104839Y-120433890D01*
X105088119Y-120414594D01*
X104958113Y-120228926D01*
X104958108Y-120228920D01*
X104791082Y-120061894D01*
X104597578Y-119926399D01*
X104383492Y-119826570D01*
X104383486Y-119826567D01*
X104170000Y-119769364D01*
X104170000Y-120666988D01*
X104112993Y-120634075D01*
X103985826Y-120600000D01*
X103854174Y-120600000D01*
X103727007Y-120634075D01*
X103670000Y-120666988D01*
X103670000Y-119769364D01*
X103669999Y-119769364D01*
X103456513Y-119826567D01*
X103456507Y-119826570D01*
X103242422Y-119926399D01*
X103242420Y-119926400D01*
X103048926Y-120061886D01*
X103048920Y-120061891D01*
X102881891Y-120228920D01*
X102881890Y-120228922D01*
X102751880Y-120414595D01*
X102697303Y-120458219D01*
X102627804Y-120465412D01*
X102565450Y-120433890D01*
X102548730Y-120414594D01*
X102418494Y-120228597D01*
X102251402Y-120061506D01*
X102251395Y-120061501D01*
X102057834Y-119925967D01*
X102057830Y-119925965D01*
X102057828Y-119925964D01*
X101843663Y-119826097D01*
X101843659Y-119826096D01*
X101843655Y-119826094D01*
X101615413Y-119764938D01*
X101615403Y-119764936D01*
X101380001Y-119744341D01*
X101379999Y-119744341D01*
X101144596Y-119764936D01*
X101144586Y-119764938D01*
X100916344Y-119826094D01*
X100916335Y-119826098D01*
X100702171Y-119925964D01*
X100702169Y-119925965D01*
X100508597Y-120061505D01*
X100341505Y-120228597D01*
X100211575Y-120414158D01*
X100156998Y-120457783D01*
X100087500Y-120464977D01*
X100025145Y-120433454D01*
X100008425Y-120414158D01*
X99878494Y-120228597D01*
X99711402Y-120061506D01*
X99711395Y-120061501D01*
X99517834Y-119925967D01*
X99517830Y-119925965D01*
X99517828Y-119925964D01*
X99303663Y-119826097D01*
X99303659Y-119826096D01*
X99303655Y-119826094D01*
X99075413Y-119764938D01*
X99075403Y-119764936D01*
X98840001Y-119744341D01*
X98839999Y-119744341D01*
X98604596Y-119764936D01*
X98604586Y-119764938D01*
X98376344Y-119826094D01*
X98376335Y-119826098D01*
X98162171Y-119925964D01*
X98162169Y-119925965D01*
X97968597Y-120061505D01*
X97801505Y-120228597D01*
X97671575Y-120414158D01*
X97616998Y-120457783D01*
X97547500Y-120464977D01*
X97485145Y-120433454D01*
X97468425Y-120414158D01*
X97338494Y-120228597D01*
X97171402Y-120061506D01*
X97171395Y-120061501D01*
X96977834Y-119925967D01*
X96977830Y-119925965D01*
X96977828Y-119925964D01*
X96763663Y-119826097D01*
X96763659Y-119826096D01*
X96763655Y-119826094D01*
X96535413Y-119764938D01*
X96535403Y-119764936D01*
X96300001Y-119744341D01*
X96299999Y-119744341D01*
X96064596Y-119764936D01*
X96064586Y-119764938D01*
X95836344Y-119826094D01*
X95836335Y-119826098D01*
X95622171Y-119925964D01*
X95622169Y-119925965D01*
X95428597Y-120061505D01*
X95261505Y-120228597D01*
X95131575Y-120414158D01*
X95076998Y-120457783D01*
X95007500Y-120464977D01*
X94945145Y-120433454D01*
X94928425Y-120414158D01*
X94798494Y-120228597D01*
X94631402Y-120061506D01*
X94631395Y-120061501D01*
X94437834Y-119925967D01*
X94437830Y-119925965D01*
X94437828Y-119925964D01*
X94223663Y-119826097D01*
X94223659Y-119826096D01*
X94223655Y-119826094D01*
X93995413Y-119764938D01*
X93995403Y-119764936D01*
X93760001Y-119744341D01*
X93759999Y-119744341D01*
X93524596Y-119764936D01*
X93524586Y-119764938D01*
X93296344Y-119826094D01*
X93296335Y-119826098D01*
X93082171Y-119925964D01*
X93082169Y-119925965D01*
X92888600Y-120061503D01*
X92766673Y-120183430D01*
X92705350Y-120216914D01*
X92635658Y-120211930D01*
X92579725Y-120170058D01*
X92562810Y-120139081D01*
X92513797Y-120007671D01*
X92513793Y-120007664D01*
X92427547Y-119892455D01*
X92427544Y-119892452D01*
X92312335Y-119806206D01*
X92312328Y-119806202D01*
X92177482Y-119755908D01*
X92177483Y-119755908D01*
X92117883Y-119749501D01*
X92117881Y-119749500D01*
X92117873Y-119749500D01*
X92117864Y-119749500D01*
X90322129Y-119749500D01*
X90322123Y-119749501D01*
X90262516Y-119755908D01*
X90127671Y-119806202D01*
X90127664Y-119806206D01*
X90012455Y-119892452D01*
X90012452Y-119892455D01*
X89926206Y-120007664D01*
X89926202Y-120007671D01*
X89875908Y-120142517D01*
X89869501Y-120202116D01*
X89869500Y-120202135D01*
X71325500Y-120202135D01*
X71325499Y-118877128D01*
X71319091Y-118817517D01*
X71268796Y-118682669D01*
X71268795Y-118682668D01*
X71268793Y-118682664D01*
X71182547Y-118567455D01*
X71182544Y-118567452D01*
X71067335Y-118481206D01*
X71067328Y-118481202D01*
X70932482Y-118430908D01*
X70932483Y-118430908D01*
X70872883Y-118424501D01*
X70872881Y-118424500D01*
X70872873Y-118424500D01*
X70872864Y-118424500D01*
X69127129Y-118424500D01*
X69127123Y-118424501D01*
X69067516Y-118430908D01*
X68932671Y-118481202D01*
X68932664Y-118481206D01*
X68817455Y-118567452D01*
X68817452Y-118567455D01*
X68731206Y-118682664D01*
X68731202Y-118682671D01*
X68680908Y-118817517D01*
X68674501Y-118877116D01*
X68674501Y-118877123D01*
X68674500Y-118877135D01*
X66001674Y-118877135D01*
X65855269Y-118730730D01*
X65786624Y-118682664D01*
X65665282Y-118597699D01*
X65455079Y-118499680D01*
X65455076Y-118499679D01*
X65455074Y-118499678D01*
X65231051Y-118439651D01*
X65231044Y-118439650D01*
X65000002Y-118419437D01*
X64999998Y-118419437D01*
X64768955Y-118439650D01*
X64768948Y-118439651D01*
X64544917Y-118499681D01*
X64334718Y-118597699D01*
X64334714Y-118597701D01*
X64144735Y-118730726D01*
X64144729Y-118730731D01*
X63980731Y-118894729D01*
X63980726Y-118894735D01*
X63847701Y-119084714D01*
X63847699Y-119084718D01*
X63749681Y-119294917D01*
X63689651Y-119518948D01*
X63689650Y-119518955D01*
X63669437Y-119749998D01*
X58500500Y-119749998D01*
X58500500Y-112249994D01*
X62744357Y-112249994D01*
X62744357Y-112250005D01*
X62764890Y-112497812D01*
X62764892Y-112497824D01*
X62825936Y-112738881D01*
X62925826Y-112966606D01*
X63061833Y-113174782D01*
X63061836Y-113174785D01*
X63230256Y-113357738D01*
X63426491Y-113510474D01*
X63645190Y-113628828D01*
X63880386Y-113709571D01*
X64125665Y-113750500D01*
X64374335Y-113750500D01*
X64619614Y-113709571D01*
X64854810Y-113628828D01*
X65073509Y-113510474D01*
X65269744Y-113357738D01*
X65438164Y-113174785D01*
X65574173Y-112966607D01*
X65674063Y-112738881D01*
X65735108Y-112497821D01*
X65755643Y-112250000D01*
X65755643Y-112249994D01*
X69244357Y-112249994D01*
X69244357Y-112250005D01*
X69264890Y-112497812D01*
X69264892Y-112497824D01*
X69325936Y-112738881D01*
X69425826Y-112966606D01*
X69561833Y-113174782D01*
X69561836Y-113174785D01*
X69730256Y-113357738D01*
X69926491Y-113510474D01*
X70145190Y-113628828D01*
X70380386Y-113709571D01*
X70625665Y-113750500D01*
X70874335Y-113750500D01*
X71119614Y-113709571D01*
X71354810Y-113628828D01*
X71573509Y-113510474D01*
X71769744Y-113357738D01*
X71938164Y-113174785D01*
X72074173Y-112966607D01*
X72174063Y-112738881D01*
X72235108Y-112497821D01*
X72255643Y-112250000D01*
X72255643Y-112249994D01*
X127744357Y-112249994D01*
X127744357Y-112250005D01*
X127764890Y-112497812D01*
X127764892Y-112497824D01*
X127825936Y-112738881D01*
X127925826Y-112966606D01*
X128061833Y-113174782D01*
X128061836Y-113174785D01*
X128230256Y-113357738D01*
X128426491Y-113510474D01*
X128645190Y-113628828D01*
X128880386Y-113709571D01*
X129125665Y-113750500D01*
X129374335Y-113750500D01*
X129619614Y-113709571D01*
X129854810Y-113628828D01*
X130073509Y-113510474D01*
X130269744Y-113357738D01*
X130438164Y-113174785D01*
X130574173Y-112966607D01*
X130674063Y-112738881D01*
X130735108Y-112497821D01*
X130755643Y-112250000D01*
X130755643Y-112249994D01*
X134244357Y-112249994D01*
X134244357Y-112250005D01*
X134264890Y-112497812D01*
X134264892Y-112497824D01*
X134325936Y-112738881D01*
X134425826Y-112966606D01*
X134561833Y-113174782D01*
X134561836Y-113174785D01*
X134730256Y-113357738D01*
X134926491Y-113510474D01*
X135145190Y-113628828D01*
X135380386Y-113709571D01*
X135625665Y-113750500D01*
X135874335Y-113750500D01*
X136119614Y-113709571D01*
X136354810Y-113628828D01*
X136573509Y-113510474D01*
X136769744Y-113357738D01*
X136938164Y-113174785D01*
X137074173Y-112966607D01*
X137174063Y-112738881D01*
X137235108Y-112497821D01*
X137255643Y-112250000D01*
X137235108Y-112002179D01*
X137174063Y-111761119D01*
X137074173Y-111533393D01*
X136938166Y-111325217D01*
X136916557Y-111301744D01*
X136769744Y-111142262D01*
X136573509Y-110989526D01*
X136573507Y-110989525D01*
X136573506Y-110989524D01*
X136354811Y-110871172D01*
X136354802Y-110871169D01*
X136119616Y-110790429D01*
X135874335Y-110749500D01*
X135625665Y-110749500D01*
X135380383Y-110790429D01*
X135145197Y-110871169D01*
X135145188Y-110871172D01*
X134926493Y-110989524D01*
X134730257Y-111142261D01*
X134561833Y-111325217D01*
X134425826Y-111533393D01*
X134325936Y-111761118D01*
X134264892Y-112002175D01*
X134264890Y-112002187D01*
X134244357Y-112249994D01*
X130755643Y-112249994D01*
X130735108Y-112002179D01*
X130674063Y-111761119D01*
X130574173Y-111533393D01*
X130438166Y-111325217D01*
X130416557Y-111301744D01*
X130269744Y-111142262D01*
X130073509Y-110989526D01*
X130073507Y-110989525D01*
X130073506Y-110989524D01*
X129854811Y-110871172D01*
X129854802Y-110871169D01*
X129619616Y-110790429D01*
X129374335Y-110749500D01*
X129125665Y-110749500D01*
X128880383Y-110790429D01*
X128645197Y-110871169D01*
X128645188Y-110871172D01*
X128426493Y-110989524D01*
X128230257Y-111142261D01*
X128061833Y-111325217D01*
X127925826Y-111533393D01*
X127825936Y-111761118D01*
X127764892Y-112002175D01*
X127764890Y-112002187D01*
X127744357Y-112249994D01*
X72255643Y-112249994D01*
X72235108Y-112002179D01*
X72174063Y-111761119D01*
X72074173Y-111533393D01*
X71938166Y-111325217D01*
X71916557Y-111301744D01*
X71769744Y-111142262D01*
X71573509Y-110989526D01*
X71573507Y-110989525D01*
X71573506Y-110989524D01*
X71354811Y-110871172D01*
X71354802Y-110871169D01*
X71119616Y-110790429D01*
X70874335Y-110749500D01*
X70625665Y-110749500D01*
X70380383Y-110790429D01*
X70145197Y-110871169D01*
X70145188Y-110871172D01*
X69926493Y-110989524D01*
X69730257Y-111142261D01*
X69561833Y-111325217D01*
X69425826Y-111533393D01*
X69325936Y-111761118D01*
X69264892Y-112002175D01*
X69264890Y-112002187D01*
X69244357Y-112249994D01*
X65755643Y-112249994D01*
X65735108Y-112002179D01*
X65674063Y-111761119D01*
X65574173Y-111533393D01*
X65438166Y-111325217D01*
X65416557Y-111301744D01*
X65269744Y-111142262D01*
X65073509Y-110989526D01*
X65073507Y-110989525D01*
X65073506Y-110989524D01*
X64854811Y-110871172D01*
X64854802Y-110871169D01*
X64619616Y-110790429D01*
X64374335Y-110749500D01*
X64125665Y-110749500D01*
X63880383Y-110790429D01*
X63645197Y-110871169D01*
X63645188Y-110871172D01*
X63426493Y-110989524D01*
X63230257Y-111142261D01*
X63061833Y-111325217D01*
X62925826Y-111533393D01*
X62825936Y-111761118D01*
X62764892Y-112002175D01*
X62764890Y-112002187D01*
X62744357Y-112249994D01*
X58500500Y-112249994D01*
X58500500Y-107749994D01*
X62744357Y-107749994D01*
X62744357Y-107750005D01*
X62764890Y-107997812D01*
X62764892Y-107997824D01*
X62825936Y-108238881D01*
X62925826Y-108466606D01*
X63061833Y-108674782D01*
X63061836Y-108674785D01*
X63230256Y-108857738D01*
X63426491Y-109010474D01*
X63645190Y-109128828D01*
X63880386Y-109209571D01*
X64125665Y-109250500D01*
X64374335Y-109250500D01*
X64619614Y-109209571D01*
X64854810Y-109128828D01*
X65073509Y-109010474D01*
X65269744Y-108857738D01*
X65438164Y-108674785D01*
X65574173Y-108466607D01*
X65674063Y-108238881D01*
X65735108Y-107997821D01*
X65755643Y-107750000D01*
X65755643Y-107749994D01*
X69244357Y-107749994D01*
X69244357Y-107750005D01*
X69264890Y-107997812D01*
X69264892Y-107997824D01*
X69325936Y-108238881D01*
X69425826Y-108466606D01*
X69561833Y-108674782D01*
X69561836Y-108674785D01*
X69730256Y-108857738D01*
X69926491Y-109010474D01*
X70145190Y-109128828D01*
X70380386Y-109209571D01*
X70625665Y-109250500D01*
X70874335Y-109250500D01*
X71119614Y-109209571D01*
X71354810Y-109128828D01*
X71573509Y-109010474D01*
X71769744Y-108857738D01*
X71938164Y-108674785D01*
X72074173Y-108466607D01*
X72174063Y-108238881D01*
X72235108Y-107997821D01*
X72255643Y-107750000D01*
X72255643Y-107749994D01*
X127744357Y-107749994D01*
X127744357Y-107750005D01*
X127764890Y-107997812D01*
X127764892Y-107997824D01*
X127825936Y-108238881D01*
X127925826Y-108466606D01*
X128061833Y-108674782D01*
X128061836Y-108674785D01*
X128230256Y-108857738D01*
X128426491Y-109010474D01*
X128645190Y-109128828D01*
X128880386Y-109209571D01*
X129125665Y-109250500D01*
X129374335Y-109250500D01*
X129619614Y-109209571D01*
X129854810Y-109128828D01*
X130073509Y-109010474D01*
X130269744Y-108857738D01*
X130438164Y-108674785D01*
X130574173Y-108466607D01*
X130674063Y-108238881D01*
X130735108Y-107997821D01*
X130755643Y-107750000D01*
X130755643Y-107749994D01*
X134244357Y-107749994D01*
X134244357Y-107750005D01*
X134264890Y-107997812D01*
X134264892Y-107997824D01*
X134325936Y-108238881D01*
X134425826Y-108466606D01*
X134561833Y-108674782D01*
X134561836Y-108674785D01*
X134730256Y-108857738D01*
X134926491Y-109010474D01*
X135145190Y-109128828D01*
X135380386Y-109209571D01*
X135625665Y-109250500D01*
X135874335Y-109250500D01*
X136119614Y-109209571D01*
X136354810Y-109128828D01*
X136573509Y-109010474D01*
X136769744Y-108857738D01*
X136938164Y-108674785D01*
X137074173Y-108466607D01*
X137174063Y-108238881D01*
X137235108Y-107997821D01*
X137255643Y-107750000D01*
X137235108Y-107502179D01*
X137174063Y-107261119D01*
X137074173Y-107033393D01*
X136938166Y-106825217D01*
X136916557Y-106801744D01*
X136769744Y-106642262D01*
X136573509Y-106489526D01*
X136573507Y-106489525D01*
X136573506Y-106489524D01*
X136354811Y-106371172D01*
X136354802Y-106371169D01*
X136119616Y-106290429D01*
X135874335Y-106249500D01*
X135625665Y-106249500D01*
X135380383Y-106290429D01*
X135145197Y-106371169D01*
X135145188Y-106371172D01*
X134926493Y-106489524D01*
X134730257Y-106642261D01*
X134561833Y-106825217D01*
X134425826Y-107033393D01*
X134325936Y-107261118D01*
X134264892Y-107502175D01*
X134264890Y-107502187D01*
X134244357Y-107749994D01*
X130755643Y-107749994D01*
X130735108Y-107502179D01*
X130674063Y-107261119D01*
X130574173Y-107033393D01*
X130438166Y-106825217D01*
X130416557Y-106801744D01*
X130269744Y-106642262D01*
X130073509Y-106489526D01*
X130073507Y-106489525D01*
X130073506Y-106489524D01*
X129854811Y-106371172D01*
X129854802Y-106371169D01*
X129619616Y-106290429D01*
X129374335Y-106249500D01*
X129125665Y-106249500D01*
X128880383Y-106290429D01*
X128645197Y-106371169D01*
X128645188Y-106371172D01*
X128426493Y-106489524D01*
X128230257Y-106642261D01*
X128061833Y-106825217D01*
X127925826Y-107033393D01*
X127825936Y-107261118D01*
X127764892Y-107502175D01*
X127764890Y-107502187D01*
X127744357Y-107749994D01*
X72255643Y-107749994D01*
X72235108Y-107502179D01*
X72174063Y-107261119D01*
X72074173Y-107033393D01*
X71938166Y-106825217D01*
X71916557Y-106801744D01*
X71769744Y-106642262D01*
X71573509Y-106489526D01*
X71573507Y-106489525D01*
X71573506Y-106489524D01*
X71354811Y-106371172D01*
X71354802Y-106371169D01*
X71119616Y-106290429D01*
X70874335Y-106249500D01*
X70625665Y-106249500D01*
X70380383Y-106290429D01*
X70145197Y-106371169D01*
X70145188Y-106371172D01*
X69926493Y-106489524D01*
X69730257Y-106642261D01*
X69561833Y-106825217D01*
X69425826Y-107033393D01*
X69325936Y-107261118D01*
X69264892Y-107502175D01*
X69264890Y-107502187D01*
X69244357Y-107749994D01*
X65755643Y-107749994D01*
X65735108Y-107502179D01*
X65674063Y-107261119D01*
X65574173Y-107033393D01*
X65438166Y-106825217D01*
X65416557Y-106801744D01*
X65269744Y-106642262D01*
X65073509Y-106489526D01*
X65073507Y-106489525D01*
X65073506Y-106489524D01*
X64854811Y-106371172D01*
X64854802Y-106371169D01*
X64619616Y-106290429D01*
X64374335Y-106249500D01*
X64125665Y-106249500D01*
X63880383Y-106290429D01*
X63645197Y-106371169D01*
X63645188Y-106371172D01*
X63426493Y-106489524D01*
X63230257Y-106642261D01*
X63061833Y-106825217D01*
X62925826Y-107033393D01*
X62825936Y-107261118D01*
X62764892Y-107502175D01*
X62764890Y-107502187D01*
X62744357Y-107749994D01*
X58500500Y-107749994D01*
X58500500Y-99249994D01*
X62744357Y-99249994D01*
X62744357Y-99250005D01*
X62764890Y-99497812D01*
X62764892Y-99497824D01*
X62825936Y-99738881D01*
X62925826Y-99966606D01*
X63061833Y-100174782D01*
X63061836Y-100174785D01*
X63230256Y-100357738D01*
X63426491Y-100510474D01*
X63645190Y-100628828D01*
X63880386Y-100709571D01*
X64125665Y-100750500D01*
X64374335Y-100750500D01*
X64619614Y-100709571D01*
X64854810Y-100628828D01*
X65073509Y-100510474D01*
X65269744Y-100357738D01*
X65438164Y-100174785D01*
X65574173Y-99966607D01*
X65674063Y-99738881D01*
X65735108Y-99497821D01*
X65755643Y-99250000D01*
X65755643Y-99249994D01*
X69244357Y-99249994D01*
X69244357Y-99250005D01*
X69264890Y-99497812D01*
X69264892Y-99497824D01*
X69325936Y-99738881D01*
X69425826Y-99966606D01*
X69561833Y-100174782D01*
X69561836Y-100174785D01*
X69730256Y-100357738D01*
X69926491Y-100510474D01*
X70145190Y-100628828D01*
X70380386Y-100709571D01*
X70625665Y-100750500D01*
X70874335Y-100750500D01*
X71119614Y-100709571D01*
X71354810Y-100628828D01*
X71573509Y-100510474D01*
X71769744Y-100357738D01*
X71938164Y-100174785D01*
X72074173Y-99966607D01*
X72174063Y-99738881D01*
X72235108Y-99497821D01*
X72255643Y-99250000D01*
X72255643Y-99249994D01*
X127744357Y-99249994D01*
X127744357Y-99250005D01*
X127764890Y-99497812D01*
X127764892Y-99497824D01*
X127825936Y-99738881D01*
X127925826Y-99966606D01*
X128061833Y-100174782D01*
X128061836Y-100174785D01*
X128230256Y-100357738D01*
X128426491Y-100510474D01*
X128645190Y-100628828D01*
X128880386Y-100709571D01*
X129125665Y-100750500D01*
X129374335Y-100750500D01*
X129619614Y-100709571D01*
X129854810Y-100628828D01*
X130073509Y-100510474D01*
X130269744Y-100357738D01*
X130438164Y-100174785D01*
X130574173Y-99966607D01*
X130674063Y-99738881D01*
X130735108Y-99497821D01*
X130755643Y-99250000D01*
X130755643Y-99249994D01*
X134244357Y-99249994D01*
X134244357Y-99250005D01*
X134264890Y-99497812D01*
X134264892Y-99497824D01*
X134325936Y-99738881D01*
X134425826Y-99966606D01*
X134561833Y-100174782D01*
X134561836Y-100174785D01*
X134730256Y-100357738D01*
X134926491Y-100510474D01*
X135145190Y-100628828D01*
X135380386Y-100709571D01*
X135625665Y-100750500D01*
X135874335Y-100750500D01*
X136119614Y-100709571D01*
X136354810Y-100628828D01*
X136573509Y-100510474D01*
X136769744Y-100357738D01*
X136938164Y-100174785D01*
X137074173Y-99966607D01*
X137174063Y-99738881D01*
X137235108Y-99497821D01*
X137255643Y-99250000D01*
X137235108Y-99002179D01*
X137174063Y-98761119D01*
X137074173Y-98533393D01*
X136938166Y-98325217D01*
X136916557Y-98301744D01*
X136769744Y-98142262D01*
X136573509Y-97989526D01*
X136573507Y-97989525D01*
X136573506Y-97989524D01*
X136354811Y-97871172D01*
X136354802Y-97871169D01*
X136119616Y-97790429D01*
X135874335Y-97749500D01*
X135625665Y-97749500D01*
X135380383Y-97790429D01*
X135145197Y-97871169D01*
X135145188Y-97871172D01*
X134926493Y-97989524D01*
X134730257Y-98142261D01*
X134561833Y-98325217D01*
X134425826Y-98533393D01*
X134325936Y-98761118D01*
X134264892Y-99002175D01*
X134264890Y-99002187D01*
X134244357Y-99249994D01*
X130755643Y-99249994D01*
X130735108Y-99002179D01*
X130674063Y-98761119D01*
X130574173Y-98533393D01*
X130438166Y-98325217D01*
X130416557Y-98301744D01*
X130269744Y-98142262D01*
X130073509Y-97989526D01*
X130073507Y-97989525D01*
X130073506Y-97989524D01*
X129854811Y-97871172D01*
X129854802Y-97871169D01*
X129619616Y-97790429D01*
X129374335Y-97749500D01*
X129125665Y-97749500D01*
X128880383Y-97790429D01*
X128645197Y-97871169D01*
X128645188Y-97871172D01*
X128426493Y-97989524D01*
X128230257Y-98142261D01*
X128061833Y-98325217D01*
X127925826Y-98533393D01*
X127825936Y-98761118D01*
X127764892Y-99002175D01*
X127764890Y-99002187D01*
X127744357Y-99249994D01*
X72255643Y-99249994D01*
X72235108Y-99002179D01*
X72174063Y-98761119D01*
X72074173Y-98533393D01*
X71938166Y-98325217D01*
X71916557Y-98301744D01*
X71769744Y-98142262D01*
X71573509Y-97989526D01*
X71573507Y-97989525D01*
X71573506Y-97989524D01*
X71354811Y-97871172D01*
X71354802Y-97871169D01*
X71119616Y-97790429D01*
X70874335Y-97749500D01*
X70625665Y-97749500D01*
X70380383Y-97790429D01*
X70145197Y-97871169D01*
X70145188Y-97871172D01*
X69926493Y-97989524D01*
X69730257Y-98142261D01*
X69561833Y-98325217D01*
X69425826Y-98533393D01*
X69325936Y-98761118D01*
X69264892Y-99002175D01*
X69264890Y-99002187D01*
X69244357Y-99249994D01*
X65755643Y-99249994D01*
X65735108Y-99002179D01*
X65674063Y-98761119D01*
X65574173Y-98533393D01*
X65438166Y-98325217D01*
X65416557Y-98301744D01*
X65269744Y-98142262D01*
X65073509Y-97989526D01*
X65073507Y-97989525D01*
X65073506Y-97989524D01*
X64854811Y-97871172D01*
X64854802Y-97871169D01*
X64619616Y-97790429D01*
X64374335Y-97749500D01*
X64125665Y-97749500D01*
X63880383Y-97790429D01*
X63645197Y-97871169D01*
X63645188Y-97871172D01*
X63426493Y-97989524D01*
X63230257Y-98142261D01*
X63061833Y-98325217D01*
X62925826Y-98533393D01*
X62825936Y-98761118D01*
X62764892Y-99002175D01*
X62764890Y-99002187D01*
X62744357Y-99249994D01*
X58500500Y-99249994D01*
X58500500Y-94749994D01*
X62744357Y-94749994D01*
X62744357Y-94750005D01*
X62764890Y-94997812D01*
X62764892Y-94997824D01*
X62825936Y-95238881D01*
X62925826Y-95466606D01*
X63061833Y-95674782D01*
X63061836Y-95674785D01*
X63230256Y-95857738D01*
X63426491Y-96010474D01*
X63645190Y-96128828D01*
X63880386Y-96209571D01*
X64125665Y-96250500D01*
X64374335Y-96250500D01*
X64619614Y-96209571D01*
X64854810Y-96128828D01*
X65073509Y-96010474D01*
X65269744Y-95857738D01*
X65438164Y-95674785D01*
X65574173Y-95466607D01*
X65674063Y-95238881D01*
X65735108Y-94997821D01*
X65755643Y-94750000D01*
X65755643Y-94749994D01*
X69244357Y-94749994D01*
X69244357Y-94750005D01*
X69264890Y-94997812D01*
X69264892Y-94997824D01*
X69325936Y-95238881D01*
X69425826Y-95466606D01*
X69561833Y-95674782D01*
X69561836Y-95674785D01*
X69730256Y-95857738D01*
X69926491Y-96010474D01*
X70145190Y-96128828D01*
X70380386Y-96209571D01*
X70625665Y-96250500D01*
X70874335Y-96250500D01*
X71119614Y-96209571D01*
X71354810Y-96128828D01*
X71573509Y-96010474D01*
X71769744Y-95857738D01*
X71938164Y-95674785D01*
X72074173Y-95466607D01*
X72174063Y-95238881D01*
X72235108Y-94997821D01*
X72255643Y-94750000D01*
X72255643Y-94749994D01*
X127744357Y-94749994D01*
X127744357Y-94750005D01*
X127764890Y-94997812D01*
X127764892Y-94997824D01*
X127825936Y-95238881D01*
X127925826Y-95466606D01*
X128061833Y-95674782D01*
X128061836Y-95674785D01*
X128230256Y-95857738D01*
X128426491Y-96010474D01*
X128645190Y-96128828D01*
X128880386Y-96209571D01*
X129125665Y-96250500D01*
X129374335Y-96250500D01*
X129619614Y-96209571D01*
X129854810Y-96128828D01*
X130073509Y-96010474D01*
X130269744Y-95857738D01*
X130438164Y-95674785D01*
X130574173Y-95466607D01*
X130674063Y-95238881D01*
X130735108Y-94997821D01*
X130755643Y-94750000D01*
X130755643Y-94749994D01*
X134244357Y-94749994D01*
X134244357Y-94750005D01*
X134264890Y-94997812D01*
X134264892Y-94997824D01*
X134325936Y-95238881D01*
X134425826Y-95466606D01*
X134561833Y-95674782D01*
X134561836Y-95674785D01*
X134730256Y-95857738D01*
X134926491Y-96010474D01*
X135145190Y-96128828D01*
X135380386Y-96209571D01*
X135625665Y-96250500D01*
X135874335Y-96250500D01*
X136119614Y-96209571D01*
X136354810Y-96128828D01*
X136573509Y-96010474D01*
X136769744Y-95857738D01*
X136938164Y-95674785D01*
X137074173Y-95466607D01*
X137174063Y-95238881D01*
X137235108Y-94997821D01*
X137255643Y-94750000D01*
X137235108Y-94502179D01*
X137174063Y-94261119D01*
X137074173Y-94033393D01*
X136938166Y-93825217D01*
X136916557Y-93801744D01*
X136769744Y-93642262D01*
X136573509Y-93489526D01*
X136573507Y-93489525D01*
X136573506Y-93489524D01*
X136354811Y-93371172D01*
X136354802Y-93371169D01*
X136119616Y-93290429D01*
X135874335Y-93249500D01*
X135625665Y-93249500D01*
X135380383Y-93290429D01*
X135145197Y-93371169D01*
X135145188Y-93371172D01*
X134926493Y-93489524D01*
X134730257Y-93642261D01*
X134561833Y-93825217D01*
X134425826Y-94033393D01*
X134325936Y-94261118D01*
X134264892Y-94502175D01*
X134264890Y-94502187D01*
X134244357Y-94749994D01*
X130755643Y-94749994D01*
X130735108Y-94502179D01*
X130674063Y-94261119D01*
X130574173Y-94033393D01*
X130438166Y-93825217D01*
X130416557Y-93801744D01*
X130269744Y-93642262D01*
X130073509Y-93489526D01*
X130073507Y-93489525D01*
X130073506Y-93489524D01*
X129854811Y-93371172D01*
X129854802Y-93371169D01*
X129619616Y-93290429D01*
X129374335Y-93249500D01*
X129125665Y-93249500D01*
X128880383Y-93290429D01*
X128645197Y-93371169D01*
X128645188Y-93371172D01*
X128426493Y-93489524D01*
X128230257Y-93642261D01*
X128061833Y-93825217D01*
X127925826Y-94033393D01*
X127825936Y-94261118D01*
X127764892Y-94502175D01*
X127764890Y-94502187D01*
X127744357Y-94749994D01*
X72255643Y-94749994D01*
X72235108Y-94502179D01*
X72174063Y-94261119D01*
X72074173Y-94033393D01*
X71938166Y-93825217D01*
X71916557Y-93801744D01*
X71769744Y-93642262D01*
X71573509Y-93489526D01*
X71573507Y-93489525D01*
X71573506Y-93489524D01*
X71354811Y-93371172D01*
X71354802Y-93371169D01*
X71119616Y-93290429D01*
X70874335Y-93249500D01*
X70625665Y-93249500D01*
X70380383Y-93290429D01*
X70145197Y-93371169D01*
X70145188Y-93371172D01*
X69926493Y-93489524D01*
X69730257Y-93642261D01*
X69561833Y-93825217D01*
X69425826Y-94033393D01*
X69325936Y-94261118D01*
X69264892Y-94502175D01*
X69264890Y-94502187D01*
X69244357Y-94749994D01*
X65755643Y-94749994D01*
X65735108Y-94502179D01*
X65674063Y-94261119D01*
X65574173Y-94033393D01*
X65438166Y-93825217D01*
X65416557Y-93801744D01*
X65269744Y-93642262D01*
X65073509Y-93489526D01*
X65073507Y-93489525D01*
X65073506Y-93489524D01*
X64854811Y-93371172D01*
X64854802Y-93371169D01*
X64619616Y-93290429D01*
X64374335Y-93249500D01*
X64125665Y-93249500D01*
X63880383Y-93290429D01*
X63645197Y-93371169D01*
X63645188Y-93371172D01*
X63426493Y-93489524D01*
X63230257Y-93642261D01*
X63061833Y-93825217D01*
X62925826Y-94033393D01*
X62825936Y-94261118D01*
X62764892Y-94502175D01*
X62764890Y-94502187D01*
X62744357Y-94749994D01*
X58500500Y-94749994D01*
X58500500Y-86249994D01*
X62744357Y-86249994D01*
X62744357Y-86250005D01*
X62764890Y-86497812D01*
X62764892Y-86497824D01*
X62825936Y-86738881D01*
X62925826Y-86966606D01*
X63061833Y-87174782D01*
X63061836Y-87174785D01*
X63230256Y-87357738D01*
X63426491Y-87510474D01*
X63645190Y-87628828D01*
X63880386Y-87709571D01*
X64125665Y-87750500D01*
X64374335Y-87750500D01*
X64619614Y-87709571D01*
X64854810Y-87628828D01*
X65073509Y-87510474D01*
X65269744Y-87357738D01*
X65438164Y-87174785D01*
X65574173Y-86966607D01*
X65674063Y-86738881D01*
X65735108Y-86497821D01*
X65755643Y-86250000D01*
X65755643Y-86249994D01*
X69244357Y-86249994D01*
X69244357Y-86250005D01*
X69264890Y-86497812D01*
X69264892Y-86497824D01*
X69325936Y-86738881D01*
X69425826Y-86966606D01*
X69561833Y-87174782D01*
X69561836Y-87174785D01*
X69730256Y-87357738D01*
X69926491Y-87510474D01*
X70145190Y-87628828D01*
X70380386Y-87709571D01*
X70625665Y-87750500D01*
X70874335Y-87750500D01*
X71119614Y-87709571D01*
X71354810Y-87628828D01*
X71573509Y-87510474D01*
X71769744Y-87357738D01*
X71938164Y-87174785D01*
X72074173Y-86966607D01*
X72174063Y-86738881D01*
X72235108Y-86497821D01*
X72255643Y-86250000D01*
X72255643Y-86249994D01*
X127744357Y-86249994D01*
X127744357Y-86250005D01*
X127764890Y-86497812D01*
X127764892Y-86497824D01*
X127825936Y-86738881D01*
X127925826Y-86966606D01*
X128061833Y-87174782D01*
X128061836Y-87174785D01*
X128230256Y-87357738D01*
X128426491Y-87510474D01*
X128645190Y-87628828D01*
X128880386Y-87709571D01*
X129125665Y-87750500D01*
X129374335Y-87750500D01*
X129619614Y-87709571D01*
X129854810Y-87628828D01*
X130073509Y-87510474D01*
X130269744Y-87357738D01*
X130438164Y-87174785D01*
X130574173Y-86966607D01*
X130674063Y-86738881D01*
X130735108Y-86497821D01*
X130755643Y-86250000D01*
X130755643Y-86249994D01*
X134244357Y-86249994D01*
X134244357Y-86250005D01*
X134264890Y-86497812D01*
X134264892Y-86497824D01*
X134325936Y-86738881D01*
X134425826Y-86966606D01*
X134561833Y-87174782D01*
X134561836Y-87174785D01*
X134730256Y-87357738D01*
X134926491Y-87510474D01*
X135145190Y-87628828D01*
X135380386Y-87709571D01*
X135625665Y-87750500D01*
X135874335Y-87750500D01*
X136119614Y-87709571D01*
X136354810Y-87628828D01*
X136573509Y-87510474D01*
X136769744Y-87357738D01*
X136938164Y-87174785D01*
X137074173Y-86966607D01*
X137174063Y-86738881D01*
X137235108Y-86497821D01*
X137255643Y-86250000D01*
X137235108Y-86002179D01*
X137174063Y-85761119D01*
X137074173Y-85533393D01*
X136938166Y-85325217D01*
X136916557Y-85301744D01*
X136769744Y-85142262D01*
X136573509Y-84989526D01*
X136573507Y-84989525D01*
X136573506Y-84989524D01*
X136354811Y-84871172D01*
X136354802Y-84871169D01*
X136119616Y-84790429D01*
X135874335Y-84749500D01*
X135625665Y-84749500D01*
X135380383Y-84790429D01*
X135145197Y-84871169D01*
X135145188Y-84871172D01*
X134926493Y-84989524D01*
X134730257Y-85142261D01*
X134561833Y-85325217D01*
X134425826Y-85533393D01*
X134325936Y-85761118D01*
X134264892Y-86002175D01*
X134264890Y-86002187D01*
X134244357Y-86249994D01*
X130755643Y-86249994D01*
X130735108Y-86002179D01*
X130674063Y-85761119D01*
X130574173Y-85533393D01*
X130438166Y-85325217D01*
X130416557Y-85301744D01*
X130269744Y-85142262D01*
X130073509Y-84989526D01*
X130073507Y-84989525D01*
X130073506Y-84989524D01*
X129854811Y-84871172D01*
X129854802Y-84871169D01*
X129619616Y-84790429D01*
X129374335Y-84749500D01*
X129125665Y-84749500D01*
X128880383Y-84790429D01*
X128645197Y-84871169D01*
X128645188Y-84871172D01*
X128426493Y-84989524D01*
X128230257Y-85142261D01*
X128061833Y-85325217D01*
X127925826Y-85533393D01*
X127825936Y-85761118D01*
X127764892Y-86002175D01*
X127764890Y-86002187D01*
X127744357Y-86249994D01*
X72255643Y-86249994D01*
X72235108Y-86002179D01*
X72174063Y-85761119D01*
X72074173Y-85533393D01*
X71938166Y-85325217D01*
X71916557Y-85301744D01*
X71769744Y-85142262D01*
X71573509Y-84989526D01*
X71573507Y-84989525D01*
X71573506Y-84989524D01*
X71354811Y-84871172D01*
X71354802Y-84871169D01*
X71119616Y-84790429D01*
X70874335Y-84749500D01*
X70625665Y-84749500D01*
X70380383Y-84790429D01*
X70145197Y-84871169D01*
X70145188Y-84871172D01*
X69926493Y-84989524D01*
X69730257Y-85142261D01*
X69561833Y-85325217D01*
X69425826Y-85533393D01*
X69325936Y-85761118D01*
X69264892Y-86002175D01*
X69264890Y-86002187D01*
X69244357Y-86249994D01*
X65755643Y-86249994D01*
X65735108Y-86002179D01*
X65674063Y-85761119D01*
X65574173Y-85533393D01*
X65438166Y-85325217D01*
X65416557Y-85301744D01*
X65269744Y-85142262D01*
X65073509Y-84989526D01*
X65073507Y-84989525D01*
X65073506Y-84989524D01*
X64854811Y-84871172D01*
X64854802Y-84871169D01*
X64619616Y-84790429D01*
X64374335Y-84749500D01*
X64125665Y-84749500D01*
X63880383Y-84790429D01*
X63645197Y-84871169D01*
X63645188Y-84871172D01*
X63426493Y-84989524D01*
X63230257Y-85142261D01*
X63061833Y-85325217D01*
X62925826Y-85533393D01*
X62825936Y-85761118D01*
X62764892Y-86002175D01*
X62764890Y-86002187D01*
X62744357Y-86249994D01*
X58500500Y-86249994D01*
X58500500Y-81749994D01*
X62744357Y-81749994D01*
X62744357Y-81750005D01*
X62764890Y-81997812D01*
X62764892Y-81997824D01*
X62825936Y-82238881D01*
X62925826Y-82466606D01*
X63061833Y-82674782D01*
X63061836Y-82674785D01*
X63230256Y-82857738D01*
X63426491Y-83010474D01*
X63645190Y-83128828D01*
X63880386Y-83209571D01*
X64125665Y-83250500D01*
X64374335Y-83250500D01*
X64619614Y-83209571D01*
X64854810Y-83128828D01*
X65073509Y-83010474D01*
X65269744Y-82857738D01*
X65438164Y-82674785D01*
X65574173Y-82466607D01*
X65674063Y-82238881D01*
X65735108Y-81997821D01*
X65755643Y-81750000D01*
X65755643Y-81749994D01*
X69244357Y-81749994D01*
X69244357Y-81750005D01*
X69264890Y-81997812D01*
X69264892Y-81997824D01*
X69325936Y-82238881D01*
X69425826Y-82466606D01*
X69561833Y-82674782D01*
X69561836Y-82674785D01*
X69730256Y-82857738D01*
X69926491Y-83010474D01*
X70145190Y-83128828D01*
X70380386Y-83209571D01*
X70625665Y-83250500D01*
X70874335Y-83250500D01*
X71119614Y-83209571D01*
X71354810Y-83128828D01*
X71573509Y-83010474D01*
X71769744Y-82857738D01*
X71938164Y-82674785D01*
X72074173Y-82466607D01*
X72174063Y-82238881D01*
X72235108Y-81997821D01*
X72255643Y-81750000D01*
X72255643Y-81749994D01*
X127744357Y-81749994D01*
X127744357Y-81750005D01*
X127764890Y-81997812D01*
X127764892Y-81997824D01*
X127825936Y-82238881D01*
X127925826Y-82466606D01*
X128061833Y-82674782D01*
X128061836Y-82674785D01*
X128230256Y-82857738D01*
X128426491Y-83010474D01*
X128645190Y-83128828D01*
X128880386Y-83209571D01*
X129125665Y-83250500D01*
X129374335Y-83250500D01*
X129619614Y-83209571D01*
X129854810Y-83128828D01*
X130073509Y-83010474D01*
X130269744Y-82857738D01*
X130438164Y-82674785D01*
X130574173Y-82466607D01*
X130674063Y-82238881D01*
X130735108Y-81997821D01*
X130755643Y-81750000D01*
X130755643Y-81749994D01*
X134244357Y-81749994D01*
X134244357Y-81750005D01*
X134264890Y-81997812D01*
X134264892Y-81997824D01*
X134325936Y-82238881D01*
X134425826Y-82466606D01*
X134561833Y-82674782D01*
X134561836Y-82674785D01*
X134730256Y-82857738D01*
X134926491Y-83010474D01*
X135145190Y-83128828D01*
X135380386Y-83209571D01*
X135625665Y-83250500D01*
X135874335Y-83250500D01*
X136119614Y-83209571D01*
X136354810Y-83128828D01*
X136573509Y-83010474D01*
X136769744Y-82857738D01*
X136938164Y-82674785D01*
X137074173Y-82466607D01*
X137174063Y-82238881D01*
X137235108Y-81997821D01*
X137255643Y-81750000D01*
X137235108Y-81502179D01*
X137174063Y-81261119D01*
X137074173Y-81033393D01*
X137025313Y-80958607D01*
X136938166Y-80825217D01*
X136783007Y-80656670D01*
X136769744Y-80642262D01*
X136573509Y-80489526D01*
X136573507Y-80489525D01*
X136573506Y-80489524D01*
X136354811Y-80371172D01*
X136354802Y-80371169D01*
X136119616Y-80290429D01*
X135874335Y-80249500D01*
X135625665Y-80249500D01*
X135380383Y-80290429D01*
X135145197Y-80371169D01*
X135145188Y-80371172D01*
X134926493Y-80489524D01*
X134730257Y-80642261D01*
X134561833Y-80825217D01*
X134425826Y-81033393D01*
X134325936Y-81261118D01*
X134264892Y-81502175D01*
X134264890Y-81502187D01*
X134244357Y-81749994D01*
X130755643Y-81749994D01*
X130735108Y-81502179D01*
X130674063Y-81261119D01*
X130574173Y-81033393D01*
X130525313Y-80958607D01*
X130438166Y-80825217D01*
X130283007Y-80656670D01*
X130269744Y-80642262D01*
X130073509Y-80489526D01*
X130073507Y-80489525D01*
X130073506Y-80489524D01*
X129854811Y-80371172D01*
X129854802Y-80371169D01*
X129619616Y-80290429D01*
X129374335Y-80249500D01*
X129125665Y-80249500D01*
X128880383Y-80290429D01*
X128645197Y-80371169D01*
X128645188Y-80371172D01*
X128426493Y-80489524D01*
X128230257Y-80642261D01*
X128061833Y-80825217D01*
X127925826Y-81033393D01*
X127825936Y-81261118D01*
X127764892Y-81502175D01*
X127764890Y-81502187D01*
X127744357Y-81749994D01*
X72255643Y-81749994D01*
X72235108Y-81502179D01*
X72174063Y-81261119D01*
X72074173Y-81033393D01*
X72025313Y-80958607D01*
X71938166Y-80825217D01*
X71783007Y-80656670D01*
X71769744Y-80642262D01*
X71573509Y-80489526D01*
X71573507Y-80489525D01*
X71573506Y-80489524D01*
X71354811Y-80371172D01*
X71354802Y-80371169D01*
X71119616Y-80290429D01*
X70874335Y-80249500D01*
X70625665Y-80249500D01*
X70380383Y-80290429D01*
X70145197Y-80371169D01*
X70145188Y-80371172D01*
X69926493Y-80489524D01*
X69730257Y-80642261D01*
X69561833Y-80825217D01*
X69425826Y-81033393D01*
X69325936Y-81261118D01*
X69264892Y-81502175D01*
X69264890Y-81502187D01*
X69244357Y-81749994D01*
X65755643Y-81749994D01*
X65735108Y-81502179D01*
X65674063Y-81261119D01*
X65574173Y-81033393D01*
X65525313Y-80958607D01*
X65438166Y-80825217D01*
X65283007Y-80656670D01*
X65269744Y-80642262D01*
X65073509Y-80489526D01*
X65073507Y-80489525D01*
X65073506Y-80489524D01*
X64854811Y-80371172D01*
X64854802Y-80371169D01*
X64619616Y-80290429D01*
X64374335Y-80249500D01*
X64125665Y-80249500D01*
X63880383Y-80290429D01*
X63645197Y-80371169D01*
X63645188Y-80371172D01*
X63426493Y-80489524D01*
X63230257Y-80642261D01*
X63061833Y-80825217D01*
X62925826Y-81033393D01*
X62825936Y-81261118D01*
X62764892Y-81502175D01*
X62764890Y-81502187D01*
X62744357Y-81749994D01*
X58500500Y-81749994D01*
X58500500Y-79385258D01*
X78249500Y-79385258D01*
X78249500Y-79614741D01*
X78274446Y-79804215D01*
X78279452Y-79842238D01*
X78279453Y-79842240D01*
X78338842Y-80063887D01*
X78426650Y-80275876D01*
X78426657Y-80275890D01*
X78541392Y-80474617D01*
X78681081Y-80656661D01*
X78681089Y-80656670D01*
X78843330Y-80818911D01*
X78843338Y-80818918D01*
X79025382Y-80958607D01*
X79025385Y-80958608D01*
X79025388Y-80958611D01*
X79224112Y-81073344D01*
X79224117Y-81073346D01*
X79224123Y-81073349D01*
X79315480Y-81111190D01*
X79436113Y-81161158D01*
X79657762Y-81220548D01*
X79885266Y-81250500D01*
X79885273Y-81250500D01*
X80114727Y-81250500D01*
X80114734Y-81250500D01*
X80342238Y-81220548D01*
X80563887Y-81161158D01*
X80775888Y-81073344D01*
X80974612Y-80958611D01*
X81156661Y-80818919D01*
X81156665Y-80818914D01*
X81156670Y-80818911D01*
X81318911Y-80656670D01*
X81318914Y-80656665D01*
X81318919Y-80656661D01*
X81458611Y-80474612D01*
X81573344Y-80275888D01*
X81661158Y-80063887D01*
X81720548Y-79842238D01*
X81750500Y-79614734D01*
X81750500Y-79385266D01*
X81750499Y-79385258D01*
X118249500Y-79385258D01*
X118249500Y-79614741D01*
X118274446Y-79804215D01*
X118279452Y-79842238D01*
X118279453Y-79842240D01*
X118338842Y-80063887D01*
X118426650Y-80275876D01*
X118426657Y-80275890D01*
X118541392Y-80474617D01*
X118681081Y-80656661D01*
X118681089Y-80656670D01*
X118843330Y-80818911D01*
X118843338Y-80818918D01*
X119025382Y-80958607D01*
X119025385Y-80958608D01*
X119025388Y-80958611D01*
X119224112Y-81073344D01*
X119224117Y-81073346D01*
X119224123Y-81073349D01*
X119315480Y-81111190D01*
X119436113Y-81161158D01*
X119657762Y-81220548D01*
X119885266Y-81250500D01*
X119885273Y-81250500D01*
X120114727Y-81250500D01*
X120114734Y-81250500D01*
X120342238Y-81220548D01*
X120563887Y-81161158D01*
X120775888Y-81073344D01*
X120974612Y-80958611D01*
X121156661Y-80818919D01*
X121156665Y-80818914D01*
X121156670Y-80818911D01*
X121318911Y-80656670D01*
X121318914Y-80656665D01*
X121318919Y-80656661D01*
X121458611Y-80474612D01*
X121573344Y-80275888D01*
X121661158Y-80063887D01*
X121720548Y-79842238D01*
X121750500Y-79614734D01*
X121750500Y-79385266D01*
X121720548Y-79157762D01*
X121661158Y-78936113D01*
X121573344Y-78724112D01*
X121458611Y-78525388D01*
X121458608Y-78525385D01*
X121458607Y-78525382D01*
X121318918Y-78343338D01*
X121318911Y-78343330D01*
X121156670Y-78181089D01*
X121156661Y-78181081D01*
X120974617Y-78041392D01*
X120775890Y-77926657D01*
X120775876Y-77926650D01*
X120563887Y-77838842D01*
X120342238Y-77779452D01*
X120304215Y-77774446D01*
X120114741Y-77749500D01*
X120114734Y-77749500D01*
X119885266Y-77749500D01*
X119885258Y-77749500D01*
X119668715Y-77778009D01*
X119657762Y-77779452D01*
X119564076Y-77804554D01*
X119436112Y-77838842D01*
X119224123Y-77926650D01*
X119224109Y-77926657D01*
X119025382Y-78041392D01*
X118843338Y-78181081D01*
X118681081Y-78343338D01*
X118541392Y-78525382D01*
X118426657Y-78724109D01*
X118426650Y-78724123D01*
X118338842Y-78936112D01*
X118279453Y-79157759D01*
X118279451Y-79157770D01*
X118249500Y-79385258D01*
X81750499Y-79385258D01*
X81720548Y-79157762D01*
X81661158Y-78936113D01*
X81573344Y-78724112D01*
X81458611Y-78525388D01*
X81458608Y-78525385D01*
X81458607Y-78525382D01*
X81318918Y-78343338D01*
X81318911Y-78343330D01*
X81156670Y-78181089D01*
X81156661Y-78181081D01*
X80974617Y-78041392D01*
X80775890Y-77926657D01*
X80775876Y-77926650D01*
X80563887Y-77838842D01*
X80342238Y-77779452D01*
X80304215Y-77774446D01*
X80114741Y-77749500D01*
X80114734Y-77749500D01*
X79885266Y-77749500D01*
X79885258Y-77749500D01*
X79668715Y-77778009D01*
X79657762Y-77779452D01*
X79564076Y-77804554D01*
X79436112Y-77838842D01*
X79224123Y-77926650D01*
X79224109Y-77926657D01*
X79025382Y-78041392D01*
X78843338Y-78181081D01*
X78681081Y-78343338D01*
X78541392Y-78525382D01*
X78426657Y-78724109D01*
X78426650Y-78724123D01*
X78338842Y-78936112D01*
X78279453Y-79157759D01*
X78279451Y-79157770D01*
X78249500Y-79385258D01*
X58500500Y-79385258D01*
X58500500Y-73902135D01*
X79649500Y-73902135D01*
X79649500Y-75697870D01*
X79649501Y-75697876D01*
X79655908Y-75757483D01*
X79706202Y-75892328D01*
X79706206Y-75892335D01*
X79792452Y-76007544D01*
X79792455Y-76007547D01*
X79907664Y-76093793D01*
X79907671Y-76093797D01*
X80042517Y-76144091D01*
X80042516Y-76144091D01*
X80049444Y-76144835D01*
X80102127Y-76150500D01*
X81897872Y-76150499D01*
X81957483Y-76144091D01*
X82092331Y-76093796D01*
X82207546Y-76007546D01*
X82293796Y-75892331D01*
X82343002Y-75760401D01*
X82384872Y-75704468D01*
X82450337Y-75680050D01*
X82518610Y-75694901D01*
X82546865Y-75716053D01*
X82668917Y-75838105D01*
X82862421Y-75973600D01*
X83076507Y-76073429D01*
X83076516Y-76073433D01*
X83290000Y-76130634D01*
X83290000Y-75233012D01*
X83347007Y-75265925D01*
X83474174Y-75300000D01*
X83605826Y-75300000D01*
X83732993Y-75265925D01*
X83790000Y-75233012D01*
X83790000Y-76130634D01*
X84003483Y-76073433D01*
X84003492Y-76073429D01*
X84217578Y-75973600D01*
X84411082Y-75838105D01*
X84578105Y-75671082D01*
X84708119Y-75485405D01*
X84762696Y-75441781D01*
X84832195Y-75434588D01*
X84894549Y-75466110D01*
X84911269Y-75485405D01*
X85041505Y-75671401D01*
X85208599Y-75838495D01*
X85305384Y-75906265D01*
X85402165Y-75974032D01*
X85402167Y-75974033D01*
X85402170Y-75974035D01*
X85616337Y-76073903D01*
X85844592Y-76135063D01*
X86021034Y-76150500D01*
X86079999Y-76155659D01*
X86080000Y-76155659D01*
X86080001Y-76155659D01*
X86138966Y-76150500D01*
X86315408Y-76135063D01*
X86543663Y-76073903D01*
X86757830Y-75974035D01*
X86951401Y-75838495D01*
X87118495Y-75671401D01*
X87248425Y-75485842D01*
X87303002Y-75442217D01*
X87372500Y-75435023D01*
X87434855Y-75466546D01*
X87451575Y-75485842D01*
X87581500Y-75671395D01*
X87581505Y-75671401D01*
X87748599Y-75838495D01*
X87845384Y-75906265D01*
X87942165Y-75974032D01*
X87942167Y-75974033D01*
X87942170Y-75974035D01*
X88156337Y-76073903D01*
X88384592Y-76135063D01*
X88561034Y-76150500D01*
X88619999Y-76155659D01*
X88620000Y-76155659D01*
X88620001Y-76155659D01*
X88678966Y-76150500D01*
X88855408Y-76135063D01*
X89083663Y-76073903D01*
X89297830Y-75974035D01*
X89491401Y-75838495D01*
X89658495Y-75671401D01*
X89788425Y-75485842D01*
X89843002Y-75442217D01*
X89912500Y-75435023D01*
X89974855Y-75466546D01*
X89991575Y-75485842D01*
X90121500Y-75671395D01*
X90121505Y-75671401D01*
X90288599Y-75838495D01*
X90385384Y-75906265D01*
X90482165Y-75974032D01*
X90482167Y-75974033D01*
X90482170Y-75974035D01*
X90696337Y-76073903D01*
X90924592Y-76135063D01*
X91101034Y-76150500D01*
X91159999Y-76155659D01*
X91160000Y-76155659D01*
X91160001Y-76155659D01*
X91218966Y-76150500D01*
X91395408Y-76135063D01*
X91623663Y-76073903D01*
X91837830Y-75974035D01*
X92031401Y-75838495D01*
X92198495Y-75671401D01*
X92328425Y-75485842D01*
X92383002Y-75442217D01*
X92452500Y-75435023D01*
X92514855Y-75466546D01*
X92531575Y-75485842D01*
X92661500Y-75671395D01*
X92661505Y-75671401D01*
X92828599Y-75838495D01*
X92925384Y-75906265D01*
X93022165Y-75974032D01*
X93022167Y-75974033D01*
X93022170Y-75974035D01*
X93236337Y-76073903D01*
X93464592Y-76135063D01*
X93641034Y-76150500D01*
X93699999Y-76155659D01*
X93700000Y-76155659D01*
X93700001Y-76155659D01*
X93758966Y-76150500D01*
X93935408Y-76135063D01*
X94163663Y-76073903D01*
X94377830Y-75974035D01*
X94571401Y-75838495D01*
X94738495Y-75671401D01*
X94868425Y-75485842D01*
X94923002Y-75442217D01*
X94992500Y-75435023D01*
X95054855Y-75466546D01*
X95071575Y-75485842D01*
X95201500Y-75671395D01*
X95201505Y-75671401D01*
X95368599Y-75838495D01*
X95465384Y-75906265D01*
X95562165Y-75974032D01*
X95562167Y-75974033D01*
X95562170Y-75974035D01*
X95776337Y-76073903D01*
X96004592Y-76135063D01*
X96181034Y-76150500D01*
X96239999Y-76155659D01*
X96240000Y-76155659D01*
X96240001Y-76155659D01*
X96298966Y-76150500D01*
X96475408Y-76135063D01*
X96703663Y-76073903D01*
X96917830Y-75974035D01*
X97111401Y-75838495D01*
X97278495Y-75671401D01*
X97408425Y-75485842D01*
X97463002Y-75442217D01*
X97532500Y-75435023D01*
X97594855Y-75466546D01*
X97611575Y-75485842D01*
X97741500Y-75671395D01*
X97741505Y-75671401D01*
X97908599Y-75838495D01*
X98005384Y-75906265D01*
X98102165Y-75974032D01*
X98102167Y-75974033D01*
X98102170Y-75974035D01*
X98316337Y-76073903D01*
X98544592Y-76135063D01*
X98721034Y-76150500D01*
X98779999Y-76155659D01*
X98780000Y-76155659D01*
X98780001Y-76155659D01*
X98838966Y-76150500D01*
X99015408Y-76135063D01*
X99243663Y-76073903D01*
X99457830Y-75974035D01*
X99651401Y-75838495D01*
X99818495Y-75671401D01*
X99948425Y-75485842D01*
X100003002Y-75442217D01*
X100072500Y-75435023D01*
X100134855Y-75466546D01*
X100151575Y-75485842D01*
X100281500Y-75671395D01*
X100281505Y-75671401D01*
X100448599Y-75838495D01*
X100545384Y-75906265D01*
X100642165Y-75974032D01*
X100642167Y-75974033D01*
X100642170Y-75974035D01*
X100856337Y-76073903D01*
X101084592Y-76135063D01*
X101261034Y-76150500D01*
X101319999Y-76155659D01*
X101320000Y-76155659D01*
X101320001Y-76155659D01*
X101378966Y-76150500D01*
X101555408Y-76135063D01*
X101783663Y-76073903D01*
X101997830Y-75974035D01*
X102191401Y-75838495D01*
X102358495Y-75671401D01*
X102488425Y-75485842D01*
X102543002Y-75442217D01*
X102612500Y-75435023D01*
X102674855Y-75466546D01*
X102691575Y-75485842D01*
X102821500Y-75671395D01*
X102821505Y-75671401D01*
X102988599Y-75838495D01*
X103085384Y-75906265D01*
X103182165Y-75974032D01*
X103182167Y-75974033D01*
X103182170Y-75974035D01*
X103396337Y-76073903D01*
X103624592Y-76135063D01*
X103801034Y-76150500D01*
X103859999Y-76155659D01*
X103860000Y-76155659D01*
X103860001Y-76155659D01*
X103918966Y-76150500D01*
X104095408Y-76135063D01*
X104323663Y-76073903D01*
X104537830Y-75974035D01*
X104731401Y-75838495D01*
X104898495Y-75671401D01*
X105028425Y-75485842D01*
X105083002Y-75442217D01*
X105152500Y-75435023D01*
X105214855Y-75466546D01*
X105231575Y-75485842D01*
X105361500Y-75671395D01*
X105361505Y-75671401D01*
X105528599Y-75838495D01*
X105625384Y-75906265D01*
X105722165Y-75974032D01*
X105722167Y-75974033D01*
X105722170Y-75974035D01*
X105936337Y-76073903D01*
X106164592Y-76135063D01*
X106341034Y-76150500D01*
X106399999Y-76155659D01*
X106400000Y-76155659D01*
X106400001Y-76155659D01*
X106458966Y-76150500D01*
X106635408Y-76135063D01*
X106863663Y-76073903D01*
X107077830Y-75974035D01*
X107271401Y-75838495D01*
X107438495Y-75671401D01*
X107568425Y-75485842D01*
X107623002Y-75442217D01*
X107692500Y-75435023D01*
X107754855Y-75466546D01*
X107771575Y-75485842D01*
X107901500Y-75671395D01*
X107901505Y-75671401D01*
X108068599Y-75838495D01*
X108165384Y-75906265D01*
X108262165Y-75974032D01*
X108262167Y-75974033D01*
X108262170Y-75974035D01*
X108476337Y-76073903D01*
X108704592Y-76135063D01*
X108881034Y-76150500D01*
X108939999Y-76155659D01*
X108940000Y-76155659D01*
X108940001Y-76155659D01*
X108998966Y-76150500D01*
X109175408Y-76135063D01*
X109403663Y-76073903D01*
X109617830Y-75974035D01*
X109811401Y-75838495D01*
X109978495Y-75671401D01*
X110108425Y-75485842D01*
X110163002Y-75442217D01*
X110232500Y-75435023D01*
X110294855Y-75466546D01*
X110311575Y-75485842D01*
X110441500Y-75671395D01*
X110441505Y-75671401D01*
X110608599Y-75838495D01*
X110705384Y-75906265D01*
X110802165Y-75974032D01*
X110802167Y-75974033D01*
X110802170Y-75974035D01*
X111016337Y-76073903D01*
X111244592Y-76135063D01*
X111421034Y-76150500D01*
X111479999Y-76155659D01*
X111480000Y-76155659D01*
X111480001Y-76155659D01*
X111538966Y-76150500D01*
X111715408Y-76135063D01*
X111943663Y-76073903D01*
X112157830Y-75974035D01*
X112351401Y-75838495D01*
X112518495Y-75671401D01*
X112648425Y-75485842D01*
X112703002Y-75442217D01*
X112772500Y-75435023D01*
X112834855Y-75466546D01*
X112851575Y-75485842D01*
X112981500Y-75671395D01*
X112981505Y-75671401D01*
X113148599Y-75838495D01*
X113245384Y-75906265D01*
X113342165Y-75974032D01*
X113342167Y-75974033D01*
X113342170Y-75974035D01*
X113556337Y-76073903D01*
X113784592Y-76135063D01*
X113961034Y-76150500D01*
X114019999Y-76155659D01*
X114020000Y-76155659D01*
X114020001Y-76155659D01*
X114078966Y-76150500D01*
X114255408Y-76135063D01*
X114483663Y-76073903D01*
X114697830Y-75974035D01*
X114891401Y-75838495D01*
X115058495Y-75671401D01*
X115188425Y-75485842D01*
X115243002Y-75442217D01*
X115312500Y-75435023D01*
X115374855Y-75466546D01*
X115391575Y-75485842D01*
X115521500Y-75671395D01*
X115521505Y-75671401D01*
X115688599Y-75838495D01*
X115785384Y-75906265D01*
X115882165Y-75974032D01*
X115882167Y-75974033D01*
X115882170Y-75974035D01*
X116096337Y-76073903D01*
X116324592Y-76135063D01*
X116501034Y-76150500D01*
X116559999Y-76155659D01*
X116560000Y-76155659D01*
X116560001Y-76155659D01*
X116618966Y-76150500D01*
X116795408Y-76135063D01*
X117023663Y-76073903D01*
X117237830Y-75974035D01*
X117431401Y-75838495D01*
X117598495Y-75671401D01*
X117728425Y-75485842D01*
X117783002Y-75442217D01*
X117852500Y-75435023D01*
X117914855Y-75466546D01*
X117931575Y-75485842D01*
X118061500Y-75671395D01*
X118061505Y-75671401D01*
X118228599Y-75838495D01*
X118325384Y-75906265D01*
X118422165Y-75974032D01*
X118422167Y-75974033D01*
X118422170Y-75974035D01*
X118636337Y-76073903D01*
X118864592Y-76135063D01*
X119041034Y-76150500D01*
X119099999Y-76155659D01*
X119100000Y-76155659D01*
X119100001Y-76155659D01*
X119158966Y-76150500D01*
X119335408Y-76135063D01*
X119563663Y-76073903D01*
X119777830Y-75974035D01*
X119971401Y-75838495D01*
X120138495Y-75671401D01*
X120274035Y-75477830D01*
X120373903Y-75263663D01*
X120435063Y-75035408D01*
X120455659Y-74800000D01*
X120435063Y-74564592D01*
X120373903Y-74336337D01*
X120274035Y-74122171D01*
X120268731Y-74114595D01*
X120138494Y-73928597D01*
X119971402Y-73761506D01*
X119971395Y-73761501D01*
X119777834Y-73625967D01*
X119777830Y-73625965D01*
X119777828Y-73625964D01*
X119563663Y-73526097D01*
X119563659Y-73526096D01*
X119563655Y-73526094D01*
X119335413Y-73464938D01*
X119335403Y-73464936D01*
X119100001Y-73444341D01*
X119099999Y-73444341D01*
X118864596Y-73464936D01*
X118864586Y-73464938D01*
X118636344Y-73526094D01*
X118636335Y-73526098D01*
X118422171Y-73625964D01*
X118422169Y-73625965D01*
X118228597Y-73761505D01*
X118061505Y-73928597D01*
X117931575Y-74114158D01*
X117876998Y-74157783D01*
X117807500Y-74164977D01*
X117745145Y-74133454D01*
X117728425Y-74114158D01*
X117598494Y-73928597D01*
X117431402Y-73761506D01*
X117431395Y-73761501D01*
X117237834Y-73625967D01*
X117237830Y-73625965D01*
X117237828Y-73625964D01*
X117023663Y-73526097D01*
X117023659Y-73526096D01*
X117023655Y-73526094D01*
X116795413Y-73464938D01*
X116795403Y-73464936D01*
X116560001Y-73444341D01*
X116559999Y-73444341D01*
X116324596Y-73464936D01*
X116324586Y-73464938D01*
X116096344Y-73526094D01*
X116096335Y-73526098D01*
X115882171Y-73625964D01*
X115882169Y-73625965D01*
X115688597Y-73761505D01*
X115521505Y-73928597D01*
X115391575Y-74114158D01*
X115336998Y-74157783D01*
X115267500Y-74164977D01*
X115205145Y-74133454D01*
X115188425Y-74114158D01*
X115058494Y-73928597D01*
X114891402Y-73761506D01*
X114891395Y-73761501D01*
X114697834Y-73625967D01*
X114697830Y-73625965D01*
X114697828Y-73625964D01*
X114483663Y-73526097D01*
X114483659Y-73526096D01*
X114483655Y-73526094D01*
X114255413Y-73464938D01*
X114255403Y-73464936D01*
X114020001Y-73444341D01*
X114019999Y-73444341D01*
X113784596Y-73464936D01*
X113784586Y-73464938D01*
X113556344Y-73526094D01*
X113556335Y-73526098D01*
X113342171Y-73625964D01*
X113342169Y-73625965D01*
X113148597Y-73761505D01*
X112981505Y-73928597D01*
X112851575Y-74114158D01*
X112796998Y-74157783D01*
X112727500Y-74164977D01*
X112665145Y-74133454D01*
X112648425Y-74114158D01*
X112518494Y-73928597D01*
X112351402Y-73761506D01*
X112351395Y-73761501D01*
X112157834Y-73625967D01*
X112157830Y-73625965D01*
X112157828Y-73625964D01*
X111943663Y-73526097D01*
X111943659Y-73526096D01*
X111943655Y-73526094D01*
X111715413Y-73464938D01*
X111715403Y-73464936D01*
X111480001Y-73444341D01*
X111479999Y-73444341D01*
X111244596Y-73464936D01*
X111244586Y-73464938D01*
X111016344Y-73526094D01*
X111016335Y-73526098D01*
X110802171Y-73625964D01*
X110802169Y-73625965D01*
X110608597Y-73761505D01*
X110441505Y-73928597D01*
X110311575Y-74114158D01*
X110256998Y-74157783D01*
X110187500Y-74164977D01*
X110125145Y-74133454D01*
X110108425Y-74114158D01*
X109978494Y-73928597D01*
X109811402Y-73761506D01*
X109811395Y-73761501D01*
X109617834Y-73625967D01*
X109617830Y-73625965D01*
X109617828Y-73625964D01*
X109403663Y-73526097D01*
X109403659Y-73526096D01*
X109403655Y-73526094D01*
X109175413Y-73464938D01*
X109175403Y-73464936D01*
X108940001Y-73444341D01*
X108939999Y-73444341D01*
X108704596Y-73464936D01*
X108704586Y-73464938D01*
X108476344Y-73526094D01*
X108476335Y-73526098D01*
X108262171Y-73625964D01*
X108262169Y-73625965D01*
X108068597Y-73761505D01*
X107901505Y-73928597D01*
X107771575Y-74114158D01*
X107716998Y-74157783D01*
X107647500Y-74164977D01*
X107585145Y-74133454D01*
X107568425Y-74114158D01*
X107438494Y-73928597D01*
X107271402Y-73761506D01*
X107271395Y-73761501D01*
X107077834Y-73625967D01*
X107077830Y-73625965D01*
X107077828Y-73625964D01*
X106863663Y-73526097D01*
X106863659Y-73526096D01*
X106863655Y-73526094D01*
X106635413Y-73464938D01*
X106635403Y-73464936D01*
X106400001Y-73444341D01*
X106399999Y-73444341D01*
X106164596Y-73464936D01*
X106164586Y-73464938D01*
X105936344Y-73526094D01*
X105936335Y-73526098D01*
X105722171Y-73625964D01*
X105722169Y-73625965D01*
X105528597Y-73761505D01*
X105361505Y-73928597D01*
X105231575Y-74114158D01*
X105176998Y-74157783D01*
X105107500Y-74164977D01*
X105045145Y-74133454D01*
X105028425Y-74114158D01*
X104898494Y-73928597D01*
X104731402Y-73761506D01*
X104731395Y-73761501D01*
X104537834Y-73625967D01*
X104537830Y-73625965D01*
X104537828Y-73625964D01*
X104323663Y-73526097D01*
X104323659Y-73526096D01*
X104323655Y-73526094D01*
X104095413Y-73464938D01*
X104095403Y-73464936D01*
X103860001Y-73444341D01*
X103859999Y-73444341D01*
X103624596Y-73464936D01*
X103624586Y-73464938D01*
X103396344Y-73526094D01*
X103396335Y-73526098D01*
X103182171Y-73625964D01*
X103182169Y-73625965D01*
X102988597Y-73761505D01*
X102821505Y-73928597D01*
X102691575Y-74114158D01*
X102636998Y-74157783D01*
X102567500Y-74164977D01*
X102505145Y-74133454D01*
X102488425Y-74114158D01*
X102358494Y-73928597D01*
X102191402Y-73761506D01*
X102191395Y-73761501D01*
X101997834Y-73625967D01*
X101997830Y-73625965D01*
X101997828Y-73625964D01*
X101783663Y-73526097D01*
X101783659Y-73526096D01*
X101783655Y-73526094D01*
X101555413Y-73464938D01*
X101555403Y-73464936D01*
X101320001Y-73444341D01*
X101319999Y-73444341D01*
X101084596Y-73464936D01*
X101084586Y-73464938D01*
X100856344Y-73526094D01*
X100856335Y-73526098D01*
X100642171Y-73625964D01*
X100642169Y-73625965D01*
X100448597Y-73761505D01*
X100281505Y-73928597D01*
X100151575Y-74114158D01*
X100096998Y-74157783D01*
X100027500Y-74164977D01*
X99965145Y-74133454D01*
X99948425Y-74114158D01*
X99818494Y-73928597D01*
X99651402Y-73761506D01*
X99651395Y-73761501D01*
X99457834Y-73625967D01*
X99457830Y-73625965D01*
X99457828Y-73625964D01*
X99243663Y-73526097D01*
X99243659Y-73526096D01*
X99243655Y-73526094D01*
X99015413Y-73464938D01*
X99015403Y-73464936D01*
X98780001Y-73444341D01*
X98779999Y-73444341D01*
X98544596Y-73464936D01*
X98544586Y-73464938D01*
X98316344Y-73526094D01*
X98316335Y-73526098D01*
X98102171Y-73625964D01*
X98102169Y-73625965D01*
X97908597Y-73761505D01*
X97741505Y-73928597D01*
X97611575Y-74114158D01*
X97556998Y-74157783D01*
X97487500Y-74164977D01*
X97425145Y-74133454D01*
X97408425Y-74114158D01*
X97278494Y-73928597D01*
X97111402Y-73761506D01*
X97111395Y-73761501D01*
X96917834Y-73625967D01*
X96917830Y-73625965D01*
X96917828Y-73625964D01*
X96703663Y-73526097D01*
X96703659Y-73526096D01*
X96703655Y-73526094D01*
X96475413Y-73464938D01*
X96475403Y-73464936D01*
X96240001Y-73444341D01*
X96239999Y-73444341D01*
X96004596Y-73464936D01*
X96004586Y-73464938D01*
X95776344Y-73526094D01*
X95776335Y-73526098D01*
X95562171Y-73625964D01*
X95562169Y-73625965D01*
X95368597Y-73761505D01*
X95201505Y-73928597D01*
X95071575Y-74114158D01*
X95016998Y-74157783D01*
X94947500Y-74164977D01*
X94885145Y-74133454D01*
X94868425Y-74114158D01*
X94738494Y-73928597D01*
X94571402Y-73761506D01*
X94571395Y-73761501D01*
X94377834Y-73625967D01*
X94377830Y-73625965D01*
X94377828Y-73625964D01*
X94163663Y-73526097D01*
X94163659Y-73526096D01*
X94163655Y-73526094D01*
X93935413Y-73464938D01*
X93935403Y-73464936D01*
X93700001Y-73444341D01*
X93699999Y-73444341D01*
X93464596Y-73464936D01*
X93464586Y-73464938D01*
X93236344Y-73526094D01*
X93236335Y-73526098D01*
X93022171Y-73625964D01*
X93022169Y-73625965D01*
X92828597Y-73761505D01*
X92661505Y-73928597D01*
X92531575Y-74114158D01*
X92476998Y-74157783D01*
X92407500Y-74164977D01*
X92345145Y-74133454D01*
X92328425Y-74114158D01*
X92198494Y-73928597D01*
X92031402Y-73761506D01*
X92031395Y-73761501D01*
X91837834Y-73625967D01*
X91837830Y-73625965D01*
X91837828Y-73625964D01*
X91623663Y-73526097D01*
X91623659Y-73526096D01*
X91623655Y-73526094D01*
X91395413Y-73464938D01*
X91395403Y-73464936D01*
X91160001Y-73444341D01*
X91159999Y-73444341D01*
X90924596Y-73464936D01*
X90924586Y-73464938D01*
X90696344Y-73526094D01*
X90696335Y-73526098D01*
X90482171Y-73625964D01*
X90482169Y-73625965D01*
X90288597Y-73761505D01*
X90121505Y-73928597D01*
X89991575Y-74114158D01*
X89936998Y-74157783D01*
X89867500Y-74164977D01*
X89805145Y-74133454D01*
X89788425Y-74114158D01*
X89658494Y-73928597D01*
X89491402Y-73761506D01*
X89491395Y-73761501D01*
X89297834Y-73625967D01*
X89297830Y-73625965D01*
X89297828Y-73625964D01*
X89083663Y-73526097D01*
X89083659Y-73526096D01*
X89083655Y-73526094D01*
X88855413Y-73464938D01*
X88855403Y-73464936D01*
X88620001Y-73444341D01*
X88619999Y-73444341D01*
X88384596Y-73464936D01*
X88384586Y-73464938D01*
X88156344Y-73526094D01*
X88156335Y-73526098D01*
X87942171Y-73625964D01*
X87942169Y-73625965D01*
X87748597Y-73761505D01*
X87581505Y-73928597D01*
X87451575Y-74114158D01*
X87396998Y-74157783D01*
X87327500Y-74164977D01*
X87265145Y-74133454D01*
X87248425Y-74114158D01*
X87118494Y-73928597D01*
X86951402Y-73761506D01*
X86951395Y-73761501D01*
X86757834Y-73625967D01*
X86757830Y-73625965D01*
X86757828Y-73625964D01*
X86543663Y-73526097D01*
X86543659Y-73526096D01*
X86543655Y-73526094D01*
X86315413Y-73464938D01*
X86315403Y-73464936D01*
X86080001Y-73444341D01*
X86079999Y-73444341D01*
X85844596Y-73464936D01*
X85844586Y-73464938D01*
X85616344Y-73526094D01*
X85616335Y-73526098D01*
X85402171Y-73625964D01*
X85402169Y-73625965D01*
X85208597Y-73761505D01*
X85041508Y-73928594D01*
X84911269Y-74114595D01*
X84856692Y-74158219D01*
X84787193Y-74165412D01*
X84724839Y-74133890D01*
X84708119Y-74114594D01*
X84578113Y-73928926D01*
X84578108Y-73928920D01*
X84411082Y-73761894D01*
X84217578Y-73626399D01*
X84003492Y-73526570D01*
X84003486Y-73526567D01*
X83790000Y-73469364D01*
X83790000Y-74366988D01*
X83732993Y-74334075D01*
X83605826Y-74300000D01*
X83474174Y-74300000D01*
X83347007Y-74334075D01*
X83290000Y-74366988D01*
X83290000Y-73469364D01*
X83289999Y-73469364D01*
X83076513Y-73526567D01*
X83076507Y-73526570D01*
X82862422Y-73626399D01*
X82862420Y-73626400D01*
X82668926Y-73761886D01*
X82546865Y-73883947D01*
X82485542Y-73917431D01*
X82415850Y-73912447D01*
X82359917Y-73870575D01*
X82343002Y-73839598D01*
X82293797Y-73707671D01*
X82293793Y-73707664D01*
X82207547Y-73592455D01*
X82207544Y-73592452D01*
X82092335Y-73506206D01*
X82092328Y-73506202D01*
X81957482Y-73455908D01*
X81957483Y-73455908D01*
X81897883Y-73449501D01*
X81897881Y-73449500D01*
X81897873Y-73449500D01*
X81897864Y-73449500D01*
X80102129Y-73449500D01*
X80102123Y-73449501D01*
X80042516Y-73455908D01*
X79907671Y-73506202D01*
X79907664Y-73506206D01*
X79792455Y-73592452D01*
X79792452Y-73592455D01*
X79706206Y-73707664D01*
X79706202Y-73707671D01*
X79655908Y-73842517D01*
X79649501Y-73902116D01*
X79649500Y-73902135D01*
X58500500Y-73902135D01*
X58500500Y-66249994D01*
X86244357Y-66249994D01*
X86244357Y-66250005D01*
X86264890Y-66497812D01*
X86264892Y-66497824D01*
X86325936Y-66738881D01*
X86425826Y-66966606D01*
X86561833Y-67174782D01*
X86561836Y-67174785D01*
X86730256Y-67357738D01*
X86926491Y-67510474D01*
X87145190Y-67628828D01*
X87380386Y-67709571D01*
X87625665Y-67750500D01*
X87874335Y-67750500D01*
X88119614Y-67709571D01*
X88354810Y-67628828D01*
X88573509Y-67510474D01*
X88769744Y-67357738D01*
X88938164Y-67174785D01*
X89074173Y-66966607D01*
X89174063Y-66738881D01*
X89235108Y-66497821D01*
X89237165Y-66473002D01*
X89255643Y-66250005D01*
X89255643Y-66249994D01*
X92744357Y-66249994D01*
X92744357Y-66250005D01*
X92764890Y-66497812D01*
X92764892Y-66497824D01*
X92825936Y-66738881D01*
X92925826Y-66966606D01*
X93061833Y-67174782D01*
X93061836Y-67174785D01*
X93230256Y-67357738D01*
X93426491Y-67510474D01*
X93645190Y-67628828D01*
X93880386Y-67709571D01*
X94125665Y-67750500D01*
X94374335Y-67750500D01*
X94619614Y-67709571D01*
X94854810Y-67628828D01*
X95073509Y-67510474D01*
X95269744Y-67357738D01*
X95438164Y-67174785D01*
X95574173Y-66966607D01*
X95674063Y-66738881D01*
X95735108Y-66497821D01*
X95737165Y-66473002D01*
X95755643Y-66250005D01*
X95755643Y-66249994D01*
X104244357Y-66249994D01*
X104244357Y-66250005D01*
X104264890Y-66497812D01*
X104264892Y-66497824D01*
X104325936Y-66738881D01*
X104425826Y-66966606D01*
X104561833Y-67174782D01*
X104561836Y-67174785D01*
X104730256Y-67357738D01*
X104926491Y-67510474D01*
X105145190Y-67628828D01*
X105380386Y-67709571D01*
X105625665Y-67750500D01*
X105874335Y-67750500D01*
X106119614Y-67709571D01*
X106354810Y-67628828D01*
X106573509Y-67510474D01*
X106769744Y-67357738D01*
X106938164Y-67174785D01*
X107074173Y-66966607D01*
X107174063Y-66738881D01*
X107235108Y-66497821D01*
X107237165Y-66473002D01*
X107255643Y-66250005D01*
X107255643Y-66249994D01*
X110744357Y-66249994D01*
X110744357Y-66250005D01*
X110764890Y-66497812D01*
X110764892Y-66497824D01*
X110825936Y-66738881D01*
X110925826Y-66966606D01*
X111061833Y-67174782D01*
X111061836Y-67174785D01*
X111230256Y-67357738D01*
X111426491Y-67510474D01*
X111645190Y-67628828D01*
X111880386Y-67709571D01*
X112125665Y-67750500D01*
X112374335Y-67750500D01*
X112619614Y-67709571D01*
X112854810Y-67628828D01*
X113073509Y-67510474D01*
X113269744Y-67357738D01*
X113438164Y-67174785D01*
X113574173Y-66966607D01*
X113674063Y-66738881D01*
X113735108Y-66497821D01*
X113737165Y-66473002D01*
X113755643Y-66250005D01*
X113755643Y-66249994D01*
X113735109Y-66002187D01*
X113735107Y-66002175D01*
X113674063Y-65761118D01*
X113574173Y-65533393D01*
X113438166Y-65325217D01*
X113416557Y-65301744D01*
X113269744Y-65142262D01*
X113073509Y-64989526D01*
X113073507Y-64989525D01*
X113073506Y-64989524D01*
X112854811Y-64871172D01*
X112854802Y-64871169D01*
X112619616Y-64790429D01*
X112374335Y-64749500D01*
X112125665Y-64749500D01*
X111880383Y-64790429D01*
X111645197Y-64871169D01*
X111645188Y-64871172D01*
X111426493Y-64989524D01*
X111230257Y-65142261D01*
X111061833Y-65325217D01*
X110925826Y-65533393D01*
X110825936Y-65761118D01*
X110764892Y-66002175D01*
X110764890Y-66002187D01*
X110744357Y-66249994D01*
X107255643Y-66249994D01*
X107235109Y-66002187D01*
X107235107Y-66002175D01*
X107174063Y-65761118D01*
X107074173Y-65533393D01*
X106938166Y-65325217D01*
X106916557Y-65301744D01*
X106769744Y-65142262D01*
X106573509Y-64989526D01*
X106573507Y-64989525D01*
X106573506Y-64989524D01*
X106354811Y-64871172D01*
X106354802Y-64871169D01*
X106119616Y-64790429D01*
X105874335Y-64749500D01*
X105625665Y-64749500D01*
X105380383Y-64790429D01*
X105145197Y-64871169D01*
X105145188Y-64871172D01*
X104926493Y-64989524D01*
X104730257Y-65142261D01*
X104561833Y-65325217D01*
X104425826Y-65533393D01*
X104325936Y-65761118D01*
X104264892Y-66002175D01*
X104264890Y-66002187D01*
X104244357Y-66249994D01*
X95755643Y-66249994D01*
X95735109Y-66002187D01*
X95735107Y-66002175D01*
X95674063Y-65761118D01*
X95574173Y-65533393D01*
X95438166Y-65325217D01*
X95416557Y-65301744D01*
X95269744Y-65142262D01*
X95073509Y-64989526D01*
X95073507Y-64989525D01*
X95073506Y-64989524D01*
X94854811Y-64871172D01*
X94854802Y-64871169D01*
X94619616Y-64790429D01*
X94374335Y-64749500D01*
X94125665Y-64749500D01*
X93880383Y-64790429D01*
X93645197Y-64871169D01*
X93645188Y-64871172D01*
X93426493Y-64989524D01*
X93230257Y-65142261D01*
X93061833Y-65325217D01*
X92925826Y-65533393D01*
X92825936Y-65761118D01*
X92764892Y-66002175D01*
X92764890Y-66002187D01*
X92744357Y-66249994D01*
X89255643Y-66249994D01*
X89235109Y-66002187D01*
X89235107Y-66002175D01*
X89174063Y-65761118D01*
X89074173Y-65533393D01*
X88938166Y-65325217D01*
X88916557Y-65301744D01*
X88769744Y-65142262D01*
X88573509Y-64989526D01*
X88573507Y-64989525D01*
X88573506Y-64989524D01*
X88354811Y-64871172D01*
X88354802Y-64871169D01*
X88119616Y-64790429D01*
X87874335Y-64749500D01*
X87625665Y-64749500D01*
X87380383Y-64790429D01*
X87145197Y-64871169D01*
X87145188Y-64871172D01*
X86926493Y-64989524D01*
X86730257Y-65142261D01*
X86561833Y-65325217D01*
X86425826Y-65533393D01*
X86325936Y-65761118D01*
X86264892Y-66002175D01*
X86264890Y-66002187D01*
X86244357Y-66249994D01*
X58500500Y-66249994D01*
X58500500Y-61749994D01*
X86244357Y-61749994D01*
X86244357Y-61750005D01*
X86264890Y-61997812D01*
X86264892Y-61997824D01*
X86325936Y-62238881D01*
X86425826Y-62466606D01*
X86561833Y-62674782D01*
X86561836Y-62674785D01*
X86730256Y-62857738D01*
X86926491Y-63010474D01*
X87145190Y-63128828D01*
X87380386Y-63209571D01*
X87625665Y-63250500D01*
X87874335Y-63250500D01*
X88119614Y-63209571D01*
X88354810Y-63128828D01*
X88573509Y-63010474D01*
X88769744Y-62857738D01*
X88938164Y-62674785D01*
X89074173Y-62466607D01*
X89174063Y-62238881D01*
X89235108Y-61997821D01*
X89235109Y-61997812D01*
X89255643Y-61750005D01*
X89255643Y-61749994D01*
X92744357Y-61749994D01*
X92744357Y-61750005D01*
X92764890Y-61997812D01*
X92764892Y-61997824D01*
X92825936Y-62238881D01*
X92925826Y-62466606D01*
X93061833Y-62674782D01*
X93061836Y-62674785D01*
X93230256Y-62857738D01*
X93426491Y-63010474D01*
X93645190Y-63128828D01*
X93880386Y-63209571D01*
X94125665Y-63250500D01*
X94374335Y-63250500D01*
X94619614Y-63209571D01*
X94854810Y-63128828D01*
X95073509Y-63010474D01*
X95269744Y-62857738D01*
X95438164Y-62674785D01*
X95574173Y-62466607D01*
X95674063Y-62238881D01*
X95735108Y-61997821D01*
X95735109Y-61997812D01*
X95755643Y-61750005D01*
X95755643Y-61749994D01*
X104244357Y-61749994D01*
X104244357Y-61750005D01*
X104264890Y-61997812D01*
X104264892Y-61997824D01*
X104325936Y-62238881D01*
X104425826Y-62466606D01*
X104561833Y-62674782D01*
X104561836Y-62674785D01*
X104730256Y-62857738D01*
X104926491Y-63010474D01*
X105145190Y-63128828D01*
X105380386Y-63209571D01*
X105625665Y-63250500D01*
X105874335Y-63250500D01*
X106119614Y-63209571D01*
X106354810Y-63128828D01*
X106573509Y-63010474D01*
X106769744Y-62857738D01*
X106938164Y-62674785D01*
X107074173Y-62466607D01*
X107174063Y-62238881D01*
X107235108Y-61997821D01*
X107235109Y-61997812D01*
X107255643Y-61750005D01*
X107255643Y-61749994D01*
X110744357Y-61749994D01*
X110744357Y-61750005D01*
X110764890Y-61997812D01*
X110764892Y-61997824D01*
X110825936Y-62238881D01*
X110925826Y-62466606D01*
X111061833Y-62674782D01*
X111061836Y-62674785D01*
X111230256Y-62857738D01*
X111426491Y-63010474D01*
X111645190Y-63128828D01*
X111880386Y-63209571D01*
X112125665Y-63250500D01*
X112374335Y-63250500D01*
X112619614Y-63209571D01*
X112854810Y-63128828D01*
X113073509Y-63010474D01*
X113269744Y-62857738D01*
X113405747Y-62709999D01*
X125644341Y-62709999D01*
X125644341Y-62710000D01*
X125664936Y-62945403D01*
X125664938Y-62945413D01*
X125726094Y-63173655D01*
X125726096Y-63173659D01*
X125726097Y-63173663D01*
X125761927Y-63250500D01*
X125825965Y-63387830D01*
X125825967Y-63387834D01*
X125934281Y-63542521D01*
X125961501Y-63581396D01*
X125961506Y-63581402D01*
X126128597Y-63748493D01*
X126128603Y-63748498D01*
X126314158Y-63878425D01*
X126357783Y-63933002D01*
X126364977Y-64002500D01*
X126333454Y-64064855D01*
X126314158Y-64081575D01*
X126128597Y-64211505D01*
X125961505Y-64378597D01*
X125825965Y-64572169D01*
X125825964Y-64572171D01*
X125726098Y-64786335D01*
X125726094Y-64786344D01*
X125664938Y-65014586D01*
X125664936Y-65014596D01*
X125644341Y-65249999D01*
X125644341Y-65250000D01*
X125664936Y-65485403D01*
X125664938Y-65485413D01*
X125726094Y-65713655D01*
X125726096Y-65713659D01*
X125726097Y-65713663D01*
X125803575Y-65879815D01*
X125825965Y-65927830D01*
X125825967Y-65927834D01*
X125915406Y-66055565D01*
X125961501Y-66121396D01*
X125961506Y-66121402D01*
X126128597Y-66288493D01*
X126128603Y-66288498D01*
X126314158Y-66418425D01*
X126357783Y-66473002D01*
X126364977Y-66542500D01*
X126333454Y-66604855D01*
X126314158Y-66621575D01*
X126128597Y-66751505D01*
X125961505Y-66918597D01*
X125825965Y-67112169D01*
X125825964Y-67112171D01*
X125726098Y-67326335D01*
X125726094Y-67326344D01*
X125664938Y-67554586D01*
X125664936Y-67554596D01*
X125644341Y-67789999D01*
X125644341Y-67790000D01*
X125664936Y-68025403D01*
X125664938Y-68025413D01*
X125726094Y-68253655D01*
X125726096Y-68253659D01*
X125726097Y-68253663D01*
X125730000Y-68262032D01*
X125825965Y-68467830D01*
X125825967Y-68467834D01*
X125934281Y-68622521D01*
X125961501Y-68661396D01*
X125961506Y-68661402D01*
X126128597Y-68828493D01*
X126128603Y-68828498D01*
X126314158Y-68958425D01*
X126357783Y-69013002D01*
X126364977Y-69082500D01*
X126333454Y-69144855D01*
X126314158Y-69161575D01*
X126128597Y-69291505D01*
X125961505Y-69458597D01*
X125825965Y-69652169D01*
X125825964Y-69652171D01*
X125726098Y-69866335D01*
X125726094Y-69866344D01*
X125664938Y-70094586D01*
X125664936Y-70094596D01*
X125644341Y-70329999D01*
X125644341Y-70330000D01*
X125664936Y-70565403D01*
X125664938Y-70565413D01*
X125726094Y-70793655D01*
X125726096Y-70793659D01*
X125726097Y-70793663D01*
X125730000Y-70802032D01*
X125825965Y-71007830D01*
X125825967Y-71007834D01*
X125934281Y-71162521D01*
X125961505Y-71201401D01*
X126128599Y-71368495D01*
X126225384Y-71436265D01*
X126322165Y-71504032D01*
X126322167Y-71504033D01*
X126322170Y-71504035D01*
X126536337Y-71603903D01*
X126764592Y-71665063D01*
X126952918Y-71681539D01*
X126999999Y-71685659D01*
X127000000Y-71685659D01*
X127000001Y-71685659D01*
X127039234Y-71682226D01*
X127235408Y-71665063D01*
X127463663Y-71603903D01*
X127677830Y-71504035D01*
X127871401Y-71368495D01*
X128038495Y-71201401D01*
X128168425Y-71015842D01*
X128223002Y-70972217D01*
X128292500Y-70965023D01*
X128354855Y-70996546D01*
X128371575Y-71015842D01*
X128501500Y-71201395D01*
X128501505Y-71201401D01*
X128668599Y-71368495D01*
X128765384Y-71436265D01*
X128862165Y-71504032D01*
X128862167Y-71504033D01*
X128862170Y-71504035D01*
X129076337Y-71603903D01*
X129304592Y-71665063D01*
X129492918Y-71681539D01*
X129539999Y-71685659D01*
X129540000Y-71685659D01*
X129540001Y-71685659D01*
X129579234Y-71682226D01*
X129775408Y-71665063D01*
X130003663Y-71603903D01*
X130217830Y-71504035D01*
X130411401Y-71368495D01*
X130578495Y-71201401D01*
X130714035Y-71007830D01*
X130813903Y-70793663D01*
X130875063Y-70565408D01*
X130895659Y-70330000D01*
X130875063Y-70094592D01*
X130813903Y-69866337D01*
X130714035Y-69652171D01*
X130708425Y-69644158D01*
X130578494Y-69458597D01*
X130411402Y-69291506D01*
X130411396Y-69291501D01*
X130225842Y-69161575D01*
X130182217Y-69106998D01*
X130175023Y-69037500D01*
X130206546Y-68975145D01*
X130225842Y-68958425D01*
X130248026Y-68942891D01*
X130411401Y-68828495D01*
X130578495Y-68661401D01*
X130714035Y-68467830D01*
X130813903Y-68253663D01*
X130875063Y-68025408D01*
X130895659Y-67790000D01*
X130875063Y-67554592D01*
X130813903Y-67326337D01*
X130714035Y-67112171D01*
X130708425Y-67104158D01*
X130578494Y-66918597D01*
X130411402Y-66751506D01*
X130411396Y-66751501D01*
X130225842Y-66621575D01*
X130182217Y-66566998D01*
X130175023Y-66497500D01*
X130206546Y-66435145D01*
X130225842Y-66418425D01*
X130248026Y-66402891D01*
X130411401Y-66288495D01*
X130578495Y-66121401D01*
X130714035Y-65927830D01*
X130813903Y-65713663D01*
X130875063Y-65485408D01*
X130895659Y-65250000D01*
X130895659Y-65249996D01*
X132194435Y-65249996D01*
X132194435Y-65250003D01*
X132214630Y-65429249D01*
X132214631Y-65429254D01*
X132274211Y-65599523D01*
X132345931Y-65713664D01*
X132370184Y-65752262D01*
X132497738Y-65879816D01*
X132650478Y-65975789D01*
X132820745Y-66035368D01*
X132820750Y-66035369D01*
X132999996Y-66055565D01*
X133000000Y-66055565D01*
X133000004Y-66055565D01*
X133179249Y-66035369D01*
X133179252Y-66035368D01*
X133179255Y-66035368D01*
X133349522Y-65975789D01*
X133502262Y-65879816D01*
X133629816Y-65752262D01*
X133725789Y-65599522D01*
X133785368Y-65429255D01*
X133797090Y-65325217D01*
X133805565Y-65250003D01*
X133805565Y-65249996D01*
X133785369Y-65070750D01*
X133785368Y-65070745D01*
X133756948Y-64989526D01*
X133725789Y-64900478D01*
X133629816Y-64747738D01*
X133502262Y-64620184D01*
X133425847Y-64572169D01*
X133349523Y-64524211D01*
X133179254Y-64464631D01*
X133179249Y-64464630D01*
X133000004Y-64444435D01*
X132999996Y-64444435D01*
X132820750Y-64464630D01*
X132820745Y-64464631D01*
X132650476Y-64524211D01*
X132497737Y-64620184D01*
X132370184Y-64747737D01*
X132274211Y-64900476D01*
X132214631Y-65070745D01*
X132214630Y-65070750D01*
X132194435Y-65249996D01*
X130895659Y-65249996D01*
X130875063Y-65014592D01*
X130828626Y-64841285D01*
X130813905Y-64786344D01*
X130813904Y-64786343D01*
X130813903Y-64786337D01*
X130714035Y-64572171D01*
X130708425Y-64564158D01*
X130578494Y-64378597D01*
X130411402Y-64211506D01*
X130411396Y-64211501D01*
X130225842Y-64081575D01*
X130182217Y-64026998D01*
X130175023Y-63957500D01*
X130206546Y-63895145D01*
X130225842Y-63878425D01*
X130248026Y-63862891D01*
X130411401Y-63748495D01*
X130578495Y-63581401D01*
X130714035Y-63387830D01*
X130813903Y-63173663D01*
X130875063Y-62945408D01*
X130895659Y-62710000D01*
X130875063Y-62474592D01*
X130813903Y-62246337D01*
X130714035Y-62032171D01*
X130708425Y-62024158D01*
X130578494Y-61838597D01*
X130411402Y-61671506D01*
X130411396Y-61671501D01*
X130225842Y-61541575D01*
X130182217Y-61486998D01*
X130175023Y-61417500D01*
X130206546Y-61355145D01*
X130225842Y-61338425D01*
X130248026Y-61322891D01*
X130411401Y-61208495D01*
X130578495Y-61041401D01*
X130714035Y-60847830D01*
X130813903Y-60633663D01*
X130875063Y-60405408D01*
X130895659Y-60170000D01*
X130875063Y-59934592D01*
X130813903Y-59706337D01*
X130714035Y-59492171D01*
X130578495Y-59298599D01*
X130578494Y-59298597D01*
X130411402Y-59131506D01*
X130411395Y-59131501D01*
X130217834Y-58995967D01*
X130217830Y-58995965D01*
X130176259Y-58976580D01*
X130003663Y-58896097D01*
X130003659Y-58896096D01*
X130003655Y-58896094D01*
X129775413Y-58834938D01*
X129775403Y-58834936D01*
X129540001Y-58814341D01*
X129539999Y-58814341D01*
X129304596Y-58834936D01*
X129304586Y-58834938D01*
X129076344Y-58896094D01*
X129076335Y-58896098D01*
X128862171Y-58995964D01*
X128862169Y-58995965D01*
X128668600Y-59131503D01*
X128546673Y-59253430D01*
X128485350Y-59286914D01*
X128415658Y-59281930D01*
X128359725Y-59240058D01*
X128342810Y-59209081D01*
X128293797Y-59077671D01*
X128293793Y-59077664D01*
X128207547Y-58962455D01*
X128207544Y-58962452D01*
X128092335Y-58876206D01*
X128092328Y-58876202D01*
X127957482Y-58825908D01*
X127957483Y-58825908D01*
X127897883Y-58819501D01*
X127897881Y-58819500D01*
X127897873Y-58819500D01*
X127897864Y-58819500D01*
X126102129Y-58819500D01*
X126102123Y-58819501D01*
X126042516Y-58825908D01*
X125907671Y-58876202D01*
X125907664Y-58876206D01*
X125792455Y-58962452D01*
X125792452Y-58962455D01*
X125706206Y-59077664D01*
X125706202Y-59077671D01*
X125655908Y-59212517D01*
X125649501Y-59272116D01*
X125649500Y-59272135D01*
X125649500Y-61067870D01*
X125649501Y-61067876D01*
X125655908Y-61127483D01*
X125706202Y-61262328D01*
X125706206Y-61262335D01*
X125792452Y-61377544D01*
X125792455Y-61377547D01*
X125907664Y-61463793D01*
X125907671Y-61463797D01*
X126039081Y-61512810D01*
X126095015Y-61554681D01*
X126119432Y-61620145D01*
X126104580Y-61688418D01*
X126083430Y-61716673D01*
X125961503Y-61838600D01*
X125825965Y-62032169D01*
X125825964Y-62032171D01*
X125726098Y-62246335D01*
X125726094Y-62246344D01*
X125664938Y-62474586D01*
X125664936Y-62474596D01*
X125644341Y-62709999D01*
X113405747Y-62709999D01*
X113438164Y-62674785D01*
X113574173Y-62466607D01*
X113674063Y-62238881D01*
X113735108Y-61997821D01*
X113735109Y-61997812D01*
X113755643Y-61750005D01*
X113755643Y-61749994D01*
X113735109Y-61502187D01*
X113735107Y-61502175D01*
X113674063Y-61261118D01*
X113574173Y-61033393D01*
X113438166Y-60825217D01*
X113355462Y-60735377D01*
X113269744Y-60642262D01*
X113073509Y-60489526D01*
X113073507Y-60489525D01*
X113073506Y-60489524D01*
X112854811Y-60371172D01*
X112854802Y-60371169D01*
X112619616Y-60290429D01*
X112374335Y-60249500D01*
X112125665Y-60249500D01*
X111880383Y-60290429D01*
X111645197Y-60371169D01*
X111645188Y-60371172D01*
X111426493Y-60489524D01*
X111230257Y-60642261D01*
X111061833Y-60825217D01*
X110925826Y-61033393D01*
X110825936Y-61261118D01*
X110764892Y-61502175D01*
X110764890Y-61502187D01*
X110744357Y-61749994D01*
X107255643Y-61749994D01*
X107235109Y-61502187D01*
X107235107Y-61502175D01*
X107174063Y-61261118D01*
X107074173Y-61033393D01*
X106938166Y-60825217D01*
X106855462Y-60735377D01*
X106769744Y-60642262D01*
X106573509Y-60489526D01*
X106573507Y-60489525D01*
X106573506Y-60489524D01*
X106354811Y-60371172D01*
X106354802Y-60371169D01*
X106119616Y-60290429D01*
X105874335Y-60249500D01*
X105625665Y-60249500D01*
X105380383Y-60290429D01*
X105145197Y-60371169D01*
X105145188Y-60371172D01*
X104926493Y-60489524D01*
X104730257Y-60642261D01*
X104561833Y-60825217D01*
X104425826Y-61033393D01*
X104325936Y-61261118D01*
X104264892Y-61502175D01*
X104264890Y-61502187D01*
X104244357Y-61749994D01*
X95755643Y-61749994D01*
X95735109Y-61502187D01*
X95735107Y-61502175D01*
X95674063Y-61261118D01*
X95574173Y-61033393D01*
X95438166Y-60825217D01*
X95355462Y-60735377D01*
X95269744Y-60642262D01*
X95073509Y-60489526D01*
X95073507Y-60489525D01*
X95073506Y-60489524D01*
X94854811Y-60371172D01*
X94854802Y-60371169D01*
X94619616Y-60290429D01*
X94374335Y-60249500D01*
X94125665Y-60249500D01*
X93880383Y-60290429D01*
X93645197Y-60371169D01*
X93645188Y-60371172D01*
X93426493Y-60489524D01*
X93230257Y-60642261D01*
X93061833Y-60825217D01*
X92925826Y-61033393D01*
X92825936Y-61261118D01*
X92764892Y-61502175D01*
X92764890Y-61502187D01*
X92744357Y-61749994D01*
X89255643Y-61749994D01*
X89235109Y-61502187D01*
X89235107Y-61502175D01*
X89174063Y-61261118D01*
X89074173Y-61033393D01*
X88938166Y-60825217D01*
X88855462Y-60735377D01*
X88769744Y-60642262D01*
X88573509Y-60489526D01*
X88573507Y-60489525D01*
X88573506Y-60489524D01*
X88354811Y-60371172D01*
X88354802Y-60371169D01*
X88119616Y-60290429D01*
X87874335Y-60249500D01*
X87625665Y-60249500D01*
X87380383Y-60290429D01*
X87145197Y-60371169D01*
X87145188Y-60371172D01*
X86926493Y-60489524D01*
X86730257Y-60642261D01*
X86561833Y-60825217D01*
X86425826Y-61033393D01*
X86325936Y-61261118D01*
X86264892Y-61502175D01*
X86264890Y-61502187D01*
X86244357Y-61749994D01*
X58500500Y-61749994D01*
X58500500Y-58002706D01*
X58500559Y-57999996D01*
X60144669Y-57999996D01*
X60144669Y-58000003D01*
X60163976Y-58331484D01*
X60163977Y-58331495D01*
X60221631Y-58658467D01*
X60221634Y-58658481D01*
X60316866Y-58976580D01*
X60448379Y-59281461D01*
X60448385Y-59281474D01*
X60614406Y-59569031D01*
X60812678Y-59835356D01*
X60812683Y-59835362D01*
X60812690Y-59835371D01*
X61040553Y-60076893D01*
X61224689Y-60231400D01*
X61294912Y-60290325D01*
X61294920Y-60290331D01*
X61572330Y-60472787D01*
X61572334Y-60472789D01*
X61869061Y-60621811D01*
X62181082Y-60735377D01*
X62181088Y-60735378D01*
X62181090Y-60735379D01*
X62504161Y-60811949D01*
X62504168Y-60811950D01*
X62504177Y-60811952D01*
X62833977Y-60850500D01*
X62833984Y-60850500D01*
X63166016Y-60850500D01*
X63166023Y-60850500D01*
X63495823Y-60811952D01*
X63495832Y-60811949D01*
X63495838Y-60811949D01*
X63756445Y-60750183D01*
X63818918Y-60735377D01*
X64130939Y-60621811D01*
X64427666Y-60472789D01*
X64705085Y-60290327D01*
X64959447Y-60076893D01*
X65187310Y-59835371D01*
X65385594Y-59569030D01*
X65551617Y-59281470D01*
X65683133Y-58976581D01*
X65778365Y-58658485D01*
X65836024Y-58331484D01*
X65852459Y-58049308D01*
X65855331Y-58000003D01*
X65855331Y-57999996D01*
X134644669Y-57999996D01*
X134644669Y-58000003D01*
X134663976Y-58331484D01*
X134663977Y-58331495D01*
X134721631Y-58658467D01*
X134721634Y-58658481D01*
X134816866Y-58976580D01*
X134948379Y-59281461D01*
X134948385Y-59281474D01*
X135114406Y-59569031D01*
X135312678Y-59835356D01*
X135312683Y-59835362D01*
X135312690Y-59835371D01*
X135540553Y-60076893D01*
X135724689Y-60231400D01*
X135794912Y-60290325D01*
X135794920Y-60290331D01*
X136072330Y-60472787D01*
X136072334Y-60472789D01*
X136369061Y-60621811D01*
X136681082Y-60735377D01*
X136681088Y-60735378D01*
X136681090Y-60735379D01*
X137004161Y-60811949D01*
X137004168Y-60811950D01*
X137004177Y-60811952D01*
X137333977Y-60850500D01*
X137333984Y-60850500D01*
X137666016Y-60850500D01*
X137666023Y-60850500D01*
X137995823Y-60811952D01*
X137995832Y-60811949D01*
X137995838Y-60811949D01*
X138256445Y-60750183D01*
X138318918Y-60735377D01*
X138630939Y-60621811D01*
X138927666Y-60472789D01*
X139205085Y-60290327D01*
X139459447Y-60076893D01*
X139687310Y-59835371D01*
X139885594Y-59569030D01*
X140051617Y-59281470D01*
X140183133Y-58976581D01*
X140278365Y-58658485D01*
X140336024Y-58331484D01*
X140352459Y-58049308D01*
X140355331Y-58000003D01*
X140355331Y-57999996D01*
X140342080Y-57772498D01*
X140336024Y-57668516D01*
X140278365Y-57341515D01*
X140183133Y-57023419D01*
X140051617Y-56718530D01*
X139981446Y-56596991D01*
X139885593Y-56430968D01*
X139687321Y-56164643D01*
X139687314Y-56164635D01*
X139687310Y-56164629D01*
X139459447Y-55923107D01*
X139253443Y-55750250D01*
X139205087Y-55709674D01*
X139205079Y-55709668D01*
X138927669Y-55527212D01*
X138630946Y-55378192D01*
X138630940Y-55378189D01*
X138318930Y-55264627D01*
X138318909Y-55264620D01*
X137995838Y-55188050D01*
X137995823Y-55188048D01*
X137666023Y-55149500D01*
X137333977Y-55149500D01*
X137045402Y-55183229D01*
X137004176Y-55188048D01*
X137004161Y-55188050D01*
X136681090Y-55264620D01*
X136681069Y-55264627D01*
X136369059Y-55378189D01*
X136369053Y-55378192D01*
X136072330Y-55527212D01*
X135794920Y-55709668D01*
X135794912Y-55709674D01*
X135588936Y-55882508D01*
X135540553Y-55923107D01*
X135312690Y-56164629D01*
X135312687Y-56164632D01*
X135312685Y-56164635D01*
X135312678Y-56164643D01*
X135114406Y-56430968D01*
X134948385Y-56718525D01*
X134948379Y-56718538D01*
X134816866Y-57023419D01*
X134721634Y-57341518D01*
X134721631Y-57341532D01*
X134663977Y-57668504D01*
X134663976Y-57668515D01*
X134644669Y-57999996D01*
X65855331Y-57999996D01*
X65842080Y-57772498D01*
X65836024Y-57668516D01*
X65778365Y-57341515D01*
X65683133Y-57023419D01*
X65551617Y-56718530D01*
X65481446Y-56596991D01*
X65385593Y-56430968D01*
X65187321Y-56164643D01*
X65187314Y-56164635D01*
X65187310Y-56164629D01*
X64959447Y-55923107D01*
X64753443Y-55750250D01*
X64705087Y-55709674D01*
X64705079Y-55709668D01*
X64427669Y-55527212D01*
X64130946Y-55378192D01*
X64130940Y-55378189D01*
X63818930Y-55264627D01*
X63818909Y-55264620D01*
X63495838Y-55188050D01*
X63495823Y-55188048D01*
X63166023Y-55149500D01*
X62833977Y-55149500D01*
X62545402Y-55183229D01*
X62504176Y-55188048D01*
X62504161Y-55188050D01*
X62181090Y-55264620D01*
X62181069Y-55264627D01*
X61869059Y-55378189D01*
X61869053Y-55378192D01*
X61572330Y-55527212D01*
X61294920Y-55709668D01*
X61294912Y-55709674D01*
X61088936Y-55882508D01*
X61040553Y-55923107D01*
X60812690Y-56164629D01*
X60812687Y-56164632D01*
X60812685Y-56164635D01*
X60812678Y-56164643D01*
X60614406Y-56430968D01*
X60448385Y-56718525D01*
X60448379Y-56718538D01*
X60316866Y-57023419D01*
X60221634Y-57341518D01*
X60221631Y-57341532D01*
X60163977Y-57668504D01*
X60163976Y-57668515D01*
X60144669Y-57999996D01*
X58500559Y-57999996D01*
X58500618Y-57997297D01*
X58503377Y-57934108D01*
X58517386Y-57613226D01*
X58518326Y-57602495D01*
X58568152Y-57224025D01*
X58570025Y-57213405D01*
X58652649Y-56840709D01*
X58655440Y-56830295D01*
X58770230Y-56466227D01*
X58773917Y-56456095D01*
X58920003Y-56103412D01*
X58924561Y-56093638D01*
X59100822Y-55755045D01*
X59106217Y-55745700D01*
X59311325Y-55423744D01*
X59317515Y-55414905D01*
X59549896Y-55112060D01*
X59556834Y-55103791D01*
X59814726Y-54822352D01*
X59822352Y-54814726D01*
X60103791Y-54556834D01*
X60112060Y-54549896D01*
X60414905Y-54317515D01*
X60423744Y-54311325D01*
X60745700Y-54106217D01*
X60755045Y-54100822D01*
X61093638Y-53924561D01*
X61103412Y-53920003D01*
X61456095Y-53773917D01*
X61466227Y-53770230D01*
X61830295Y-53655440D01*
X61840709Y-53652649D01*
X62213405Y-53570025D01*
X62224025Y-53568152D01*
X62602495Y-53518326D01*
X62613226Y-53517386D01*
X62997297Y-53500617D01*
X63002706Y-53500500D01*
X63065892Y-53500500D01*
X137434108Y-53500500D01*
X137497294Y-53500500D01*
X137502702Y-53500617D01*
G37*
G04 #@! TD.AperFunction*
M02*
