G04 #@! TF.GenerationSoftware,KiCad,Pcbnew,8.0.8+1*
G04 #@! TF.CreationDate,2025-02-10T19:06:49+00:00*
G04 #@! TF.ProjectId,DriverDeskTft,44726976-6572-4446-9573-6b5466742e6b,0.0.1*
G04 #@! TF.SameCoordinates,Original*
G04 #@! TF.FileFunction,Copper,L2,Inr*
G04 #@! TF.FilePolarity,Positive*
%FSLAX46Y46*%
G04 Gerber Fmt 4.6, Leading zero omitted, Abs format (unit mm)*
G04 Created by KiCad (PCBNEW 8.0.8+1) date 2025-02-10 19:06:49*
%MOMM*%
%LPD*%
G01*
G04 APERTURE LIST*
G04 #@! TA.AperFunction,ComponentPad*
%ADD10C,4.700000*%
G04 #@! TD*
G04 #@! TA.AperFunction,HeatsinkPad*
%ADD11O,1.600000X0.900000*%
G04 #@! TD*
G04 #@! TA.AperFunction,ComponentPad*
%ADD12R,1.700000X1.700000*%
G04 #@! TD*
G04 #@! TA.AperFunction,ComponentPad*
%ADD13O,1.700000X1.700000*%
G04 #@! TD*
G04 #@! TA.AperFunction,ComponentPad*
%ADD14C,2.000000*%
G04 #@! TD*
G04 #@! TA.AperFunction,ComponentPad*
%ADD15O,3.000000X6.000000*%
G04 #@! TD*
G04 #@! TA.AperFunction,ComponentPad*
%ADD16R,2.000000X2.000000*%
G04 #@! TD*
G04 #@! TA.AperFunction,ViaPad*
%ADD17C,0.600000*%
G04 #@! TD*
G04 #@! TA.AperFunction,Conductor*
%ADD18C,0.200000*%
G04 #@! TD*
G04 APERTURE END LIST*
D10*
X137500000Y-140000000D03*
D11*
X59575000Y-64700000D03*
X59575000Y-71300000D03*
D10*
X63000000Y-58000000D03*
D12*
X74500000Y-94500000D03*
D13*
X74500000Y-97040000D03*
X74500000Y-99580000D03*
X74500000Y-102120000D03*
X74500000Y-104660000D03*
X74500000Y-107200000D03*
D10*
X63000000Y-140000000D03*
X137500000Y-58000000D03*
D12*
X81000000Y-74800000D03*
D13*
X83540000Y-74800000D03*
X86080000Y-74800000D03*
X88620000Y-74800000D03*
X91160000Y-74800000D03*
X93700000Y-74800000D03*
X96240000Y-74800000D03*
X98780000Y-74800000D03*
X101320000Y-74800000D03*
X103860000Y-74800000D03*
X106400000Y-74800000D03*
X108940000Y-74800000D03*
X111480000Y-74800000D03*
X114020000Y-74800000D03*
X116560000Y-74800000D03*
X119100000Y-74800000D03*
D12*
X108950000Y-125200000D03*
D13*
X106410000Y-125200000D03*
X103870000Y-125200000D03*
X101330000Y-125200000D03*
X98790000Y-125200000D03*
X96250000Y-125200000D03*
X93710000Y-125200000D03*
X91170000Y-125200000D03*
D14*
X94250000Y-61750000D03*
X87750000Y-61750000D03*
X94250000Y-66250000D03*
X87750000Y-66250000D03*
X135500000Y-124500000D03*
X129000000Y-124500000D03*
X135500000Y-129000000D03*
X129000000Y-129000000D03*
X94250000Y-133750000D03*
X87750000Y-133750000D03*
X94250000Y-138250000D03*
X87750000Y-138250000D03*
X135750000Y-81750000D03*
X129250000Y-81750000D03*
X135750000Y-86250000D03*
X129250000Y-86250000D03*
X70750000Y-94750000D03*
X64250000Y-94750000D03*
X70750000Y-99250000D03*
X64250000Y-99250000D03*
X70000000Y-134250000D03*
X65000000Y-134250000D03*
X67500000Y-134250000D03*
D15*
X73200000Y-126750000D03*
X61800000Y-126750000D03*
D16*
X70000000Y-119750000D03*
D14*
X65000000Y-119750000D03*
X112250000Y-133750000D03*
X105750000Y-133750000D03*
X112250000Y-138250000D03*
X105750000Y-138250000D03*
X135750000Y-94750000D03*
X129250000Y-94750000D03*
X135750000Y-99250000D03*
X129250000Y-99250000D03*
X70750000Y-81750000D03*
X64250000Y-81750000D03*
X70750000Y-86250000D03*
X64250000Y-86250000D03*
X70750000Y-107750000D03*
X64250000Y-107750000D03*
X70750000Y-112250000D03*
X64250000Y-112250000D03*
X135750000Y-107750000D03*
X129250000Y-107750000D03*
X135750000Y-112250000D03*
X129250000Y-112250000D03*
X112250000Y-61750000D03*
X105750000Y-61750000D03*
X112250000Y-66250000D03*
X105750000Y-66250000D03*
D17*
X111500000Y-95000000D03*
X105000000Y-112000000D03*
X82500000Y-66500000D03*
X100000000Y-136500000D03*
X93500000Y-107000000D03*
X81500000Y-65500000D03*
X125500000Y-122000000D03*
X80500000Y-65500000D03*
X105900000Y-98500000D03*
X93500000Y-90500000D03*
X132000000Y-91000000D03*
X68250000Y-90750000D03*
X82500000Y-67500000D03*
X131600000Y-120750000D03*
X132000000Y-104000000D03*
X80500000Y-66500000D03*
X100000000Y-61000000D03*
X73000000Y-140168750D03*
X68000000Y-103750000D03*
X95000000Y-117500000D03*
X83500000Y-109000000D03*
X81500000Y-67500000D03*
X81500000Y-66500000D03*
X80500000Y-67500000D03*
X121000000Y-134000000D03*
X82500000Y-65500000D03*
X69000000Y-74000000D03*
X75500000Y-118000000D03*
X68000000Y-77750000D03*
X96000000Y-88500000D03*
X107500000Y-108500000D03*
X132000000Y-78000000D03*
X96000000Y-114000000D03*
X76500000Y-99000000D03*
X100000000Y-130000000D03*
X105000000Y-104500000D03*
X102000000Y-102500000D03*
X93000000Y-95500000D03*
X104000000Y-85500000D03*
X86500000Y-98000000D03*
X77600000Y-102000000D03*
X109000000Y-99500000D03*
X129500000Y-134500000D03*
X98650000Y-109000000D03*
X123500000Y-133500000D03*
X100000000Y-108500000D03*
X99850000Y-107500000D03*
X125500000Y-133500000D03*
X98000000Y-108500000D03*
X77600000Y-104500000D03*
X93500000Y-102000000D03*
X79000000Y-108500000D03*
X77500000Y-99500000D03*
X97000000Y-106000000D03*
X98650000Y-92000000D03*
X76000000Y-82000000D03*
X92000000Y-94000000D03*
X101698650Y-106710807D03*
X87500000Y-111600000D03*
X101150000Y-106128581D03*
X88500000Y-111100000D03*
X98500000Y-71500000D03*
X99850000Y-91500000D03*
X100350000Y-92500000D03*
X102000000Y-70500000D03*
X98000000Y-91500000D03*
X104000000Y-82000000D03*
X94500000Y-96000000D03*
X93500000Y-96500000D03*
X90500000Y-97000000D03*
X90000000Y-103000000D03*
X88500000Y-103000000D03*
X89500000Y-99000000D03*
X97500000Y-100100000D03*
X103400000Y-119000000D03*
X104000000Y-94500000D03*
X107500000Y-97500000D03*
X106500000Y-97000000D03*
X91000000Y-108500000D03*
X91500000Y-99500000D03*
X92000000Y-108500000D03*
X92500000Y-100000000D03*
D18*
X70000000Y-119750000D02*
X71200000Y-119750000D01*
X71200000Y-119750000D02*
X71950000Y-120500000D01*
X103000000Y-120500000D02*
X104000000Y-119500000D01*
X104000000Y-119500000D02*
X104000000Y-94500000D01*
X71950000Y-120500000D02*
X103000000Y-120500000D01*
X106900000Y-98100000D02*
X107500000Y-97500000D01*
X70000000Y-134250000D02*
X70000000Y-124500000D01*
X73200000Y-121300000D02*
X103765686Y-121300000D01*
X106900000Y-118165686D02*
X106900000Y-98100000D01*
X70000000Y-124500000D02*
X73200000Y-121300000D01*
X103765686Y-121300000D02*
X106900000Y-118165686D01*
X72100000Y-120900000D02*
X103600000Y-120900000D01*
X69500000Y-131500000D02*
X69500000Y-123500000D01*
X69000000Y-132000000D02*
X69500000Y-131500000D01*
X67250000Y-132000000D02*
X69000000Y-132000000D01*
X69500000Y-123500000D02*
X72100000Y-120900000D01*
X103600000Y-120900000D02*
X106500000Y-118000000D01*
X65000000Y-134250000D02*
X67250000Y-132000000D01*
X106500000Y-118000000D02*
X106500000Y-97000000D01*
G04 #@! TA.AperFunction,Conductor*
G36*
X105855743Y-104908940D02*
G01*
X105894115Y-104967330D01*
X105899500Y-105003476D01*
X105899500Y-117699903D01*
X105879815Y-117766942D01*
X105863181Y-117787584D01*
X104812181Y-118838584D01*
X104750858Y-118872069D01*
X104681166Y-118867085D01*
X104625233Y-118825213D01*
X104600816Y-118759749D01*
X104600500Y-118750903D01*
X104600500Y-105383062D01*
X104620185Y-105316023D01*
X104672989Y-105270268D01*
X104742147Y-105260324D01*
X104765448Y-105266018D01*
X104820745Y-105285368D01*
X104820748Y-105285368D01*
X104820750Y-105285369D01*
X104999996Y-105305565D01*
X105000000Y-105305565D01*
X105000004Y-105305565D01*
X105179249Y-105285369D01*
X105179252Y-105285368D01*
X105179255Y-105285368D01*
X105349522Y-105225789D01*
X105502262Y-105129816D01*
X105629816Y-105002262D01*
X105670506Y-104937503D01*
X105722841Y-104891213D01*
X105791894Y-104880565D01*
X105855743Y-104908940D01*
G37*
G04 #@! TD.AperFunction*
G04 #@! TA.AperFunction,Conductor*
G36*
X137502702Y-53500617D02*
G01*
X137886771Y-53517386D01*
X137897506Y-53518326D01*
X138275971Y-53568152D01*
X138286597Y-53570025D01*
X138659284Y-53652648D01*
X138669710Y-53655442D01*
X139033765Y-53770227D01*
X139043911Y-53773920D01*
X139396578Y-53920000D01*
X139406369Y-53924566D01*
X139744942Y-54100816D01*
X139754310Y-54106224D01*
X140076244Y-54311318D01*
X140085105Y-54317523D01*
X140387930Y-54549889D01*
X140396217Y-54556843D01*
X140677635Y-54814715D01*
X140685284Y-54822364D01*
X140943156Y-55103782D01*
X140950110Y-55112069D01*
X141182476Y-55414894D01*
X141188681Y-55423755D01*
X141393775Y-55745689D01*
X141399183Y-55755057D01*
X141575430Y-56093623D01*
X141580002Y-56103427D01*
X141726075Y-56456078D01*
X141729775Y-56466244D01*
X141844554Y-56830278D01*
X141847354Y-56840727D01*
X141929971Y-57213389D01*
X141931849Y-57224042D01*
X141981671Y-57602473D01*
X141982614Y-57613249D01*
X141999382Y-57997297D01*
X141999500Y-58002706D01*
X141999500Y-139997293D01*
X141999382Y-140002702D01*
X141982614Y-140386750D01*
X141981671Y-140397526D01*
X141931849Y-140775957D01*
X141929971Y-140786610D01*
X141847354Y-141159272D01*
X141844554Y-141169721D01*
X141729775Y-141533755D01*
X141726075Y-141543921D01*
X141580002Y-141896572D01*
X141575430Y-141906376D01*
X141399183Y-142244942D01*
X141393775Y-142254310D01*
X141188681Y-142576244D01*
X141182476Y-142585105D01*
X140950110Y-142887930D01*
X140943156Y-142896217D01*
X140685284Y-143177635D01*
X140677635Y-143185284D01*
X140396217Y-143443156D01*
X140387930Y-143450110D01*
X140085105Y-143682476D01*
X140076244Y-143688681D01*
X139754310Y-143893775D01*
X139744942Y-143899183D01*
X139406376Y-144075430D01*
X139396572Y-144080002D01*
X139043921Y-144226075D01*
X139033755Y-144229775D01*
X138669721Y-144344554D01*
X138659272Y-144347354D01*
X138286610Y-144429971D01*
X138275957Y-144431849D01*
X137897526Y-144481671D01*
X137886750Y-144482614D01*
X137502703Y-144499382D01*
X137497294Y-144499500D01*
X63002706Y-144499500D01*
X62997297Y-144499382D01*
X62613249Y-144482614D01*
X62602473Y-144481671D01*
X62224042Y-144431849D01*
X62213389Y-144429971D01*
X61840727Y-144347354D01*
X61830278Y-144344554D01*
X61466244Y-144229775D01*
X61456078Y-144226075D01*
X61103427Y-144080002D01*
X61093623Y-144075430D01*
X60755057Y-143899183D01*
X60745689Y-143893775D01*
X60423755Y-143688681D01*
X60414894Y-143682476D01*
X60112069Y-143450110D01*
X60103782Y-143443156D01*
X59822364Y-143185284D01*
X59814715Y-143177635D01*
X59556843Y-142896217D01*
X59549889Y-142887930D01*
X59317523Y-142585105D01*
X59311318Y-142576244D01*
X59106224Y-142254310D01*
X59100816Y-142244942D01*
X58924569Y-141906376D01*
X58919997Y-141896572D01*
X58894644Y-141835364D01*
X58773920Y-141543911D01*
X58770224Y-141533755D01*
X58655442Y-141169710D01*
X58652648Y-141159284D01*
X58570025Y-140786597D01*
X58568152Y-140775971D01*
X58518326Y-140397506D01*
X58517386Y-140386771D01*
X58500618Y-140002702D01*
X58500559Y-139999996D01*
X60144669Y-139999996D01*
X60144669Y-140000003D01*
X60163976Y-140331484D01*
X60163977Y-140331495D01*
X60221631Y-140658467D01*
X60221634Y-140658481D01*
X60221635Y-140658485D01*
X60242578Y-140728439D01*
X60316866Y-140976580D01*
X60448379Y-141281461D01*
X60448385Y-141281474D01*
X60614406Y-141569031D01*
X60812678Y-141835356D01*
X60812683Y-141835362D01*
X60812690Y-141835371D01*
X61040553Y-142076893D01*
X61224689Y-142231400D01*
X61294912Y-142290325D01*
X61294920Y-142290331D01*
X61572330Y-142472787D01*
X61572334Y-142472789D01*
X61869061Y-142621811D01*
X62181082Y-142735377D01*
X62181088Y-142735378D01*
X62181090Y-142735379D01*
X62504161Y-142811949D01*
X62504168Y-142811950D01*
X62504177Y-142811952D01*
X62833977Y-142850500D01*
X62833984Y-142850500D01*
X63166016Y-142850500D01*
X63166023Y-142850500D01*
X63495823Y-142811952D01*
X63495832Y-142811949D01*
X63495838Y-142811949D01*
X63756445Y-142750183D01*
X63818918Y-142735377D01*
X64130939Y-142621811D01*
X64427666Y-142472789D01*
X64705085Y-142290327D01*
X64959447Y-142076893D01*
X65187310Y-141835371D01*
X65385594Y-141569030D01*
X65551617Y-141281470D01*
X65683133Y-140976581D01*
X65778365Y-140658485D01*
X65836024Y-140331484D01*
X65855331Y-140000000D01*
X65855331Y-139999996D01*
X134644669Y-139999996D01*
X134644669Y-140000003D01*
X134663976Y-140331484D01*
X134663977Y-140331495D01*
X134721631Y-140658467D01*
X134721634Y-140658481D01*
X134721635Y-140658485D01*
X134742578Y-140728439D01*
X134816866Y-140976580D01*
X134948379Y-141281461D01*
X134948385Y-141281474D01*
X135114406Y-141569031D01*
X135312678Y-141835356D01*
X135312683Y-141835362D01*
X135312690Y-141835371D01*
X135540553Y-142076893D01*
X135724689Y-142231400D01*
X135794912Y-142290325D01*
X135794920Y-142290331D01*
X136072330Y-142472787D01*
X136072334Y-142472789D01*
X136369061Y-142621811D01*
X136681082Y-142735377D01*
X136681088Y-142735378D01*
X136681090Y-142735379D01*
X137004161Y-142811949D01*
X137004168Y-142811950D01*
X137004177Y-142811952D01*
X137333977Y-142850500D01*
X137333984Y-142850500D01*
X137666016Y-142850500D01*
X137666023Y-142850500D01*
X137995823Y-142811952D01*
X137995832Y-142811949D01*
X137995838Y-142811949D01*
X138256445Y-142750183D01*
X138318918Y-142735377D01*
X138630939Y-142621811D01*
X138927666Y-142472789D01*
X139205085Y-142290327D01*
X139459447Y-142076893D01*
X139687310Y-141835371D01*
X139885594Y-141569030D01*
X140051617Y-141281470D01*
X140183133Y-140976581D01*
X140278365Y-140658485D01*
X140336024Y-140331484D01*
X140355331Y-140000000D01*
X140355173Y-139997293D01*
X140351493Y-139934108D01*
X140336024Y-139668516D01*
X140278365Y-139341515D01*
X140183133Y-139023419D01*
X140051617Y-138718530D01*
X139924192Y-138497824D01*
X139885593Y-138430968D01*
X139687321Y-138164643D01*
X139687314Y-138164635D01*
X139687310Y-138164629D01*
X139459447Y-137923107D01*
X139297153Y-137786926D01*
X139205087Y-137709674D01*
X139205079Y-137709668D01*
X138927669Y-137527212D01*
X138630946Y-137378192D01*
X138630940Y-137378189D01*
X138318930Y-137264627D01*
X138318909Y-137264620D01*
X137995838Y-137188050D01*
X137995823Y-137188048D01*
X137666023Y-137149500D01*
X137333977Y-137149500D01*
X137045402Y-137183229D01*
X137004176Y-137188048D01*
X137004161Y-137188050D01*
X136681090Y-137264620D01*
X136681069Y-137264627D01*
X136369059Y-137378189D01*
X136369053Y-137378192D01*
X136072330Y-137527212D01*
X135794920Y-137709668D01*
X135794912Y-137709674D01*
X135588936Y-137882508D01*
X135540553Y-137923107D01*
X135312690Y-138164629D01*
X135312687Y-138164632D01*
X135312685Y-138164635D01*
X135312678Y-138164643D01*
X135114406Y-138430968D01*
X134948385Y-138718525D01*
X134948379Y-138718538D01*
X134816866Y-139023419D01*
X134721634Y-139341518D01*
X134721631Y-139341532D01*
X134663977Y-139668504D01*
X134663976Y-139668515D01*
X134644669Y-139999996D01*
X65855331Y-139999996D01*
X65855173Y-139997293D01*
X65851493Y-139934108D01*
X65836024Y-139668516D01*
X65778365Y-139341515D01*
X65683133Y-139023419D01*
X65551617Y-138718530D01*
X65424192Y-138497824D01*
X65385593Y-138430968D01*
X65250863Y-138249994D01*
X86244357Y-138249994D01*
X86244357Y-138250005D01*
X86264890Y-138497812D01*
X86264892Y-138497824D01*
X86325936Y-138738881D01*
X86425826Y-138966606D01*
X86561833Y-139174782D01*
X86561836Y-139174785D01*
X86730256Y-139357738D01*
X86926491Y-139510474D01*
X87145190Y-139628828D01*
X87380386Y-139709571D01*
X87625665Y-139750500D01*
X87874335Y-139750500D01*
X88119614Y-139709571D01*
X88354810Y-139628828D01*
X88573509Y-139510474D01*
X88769744Y-139357738D01*
X88938164Y-139174785D01*
X89074173Y-138966607D01*
X89174063Y-138738881D01*
X89235108Y-138497821D01*
X89235109Y-138497812D01*
X89255643Y-138250005D01*
X89255643Y-138249994D01*
X92744357Y-138249994D01*
X92744357Y-138250005D01*
X92764890Y-138497812D01*
X92764892Y-138497824D01*
X92825936Y-138738881D01*
X92925826Y-138966606D01*
X93061833Y-139174782D01*
X93061836Y-139174785D01*
X93230256Y-139357738D01*
X93426491Y-139510474D01*
X93645190Y-139628828D01*
X93880386Y-139709571D01*
X94125665Y-139750500D01*
X94374335Y-139750500D01*
X94619614Y-139709571D01*
X94854810Y-139628828D01*
X95073509Y-139510474D01*
X95269744Y-139357738D01*
X95438164Y-139174785D01*
X95574173Y-138966607D01*
X95674063Y-138738881D01*
X95735108Y-138497821D01*
X95735109Y-138497812D01*
X95755643Y-138250005D01*
X95755643Y-138249994D01*
X104244357Y-138249994D01*
X104244357Y-138250005D01*
X104264890Y-138497812D01*
X104264892Y-138497824D01*
X104325936Y-138738881D01*
X104425826Y-138966606D01*
X104561833Y-139174782D01*
X104561836Y-139174785D01*
X104730256Y-139357738D01*
X104926491Y-139510474D01*
X105145190Y-139628828D01*
X105380386Y-139709571D01*
X105625665Y-139750500D01*
X105874335Y-139750500D01*
X106119614Y-139709571D01*
X106354810Y-139628828D01*
X106573509Y-139510474D01*
X106769744Y-139357738D01*
X106938164Y-139174785D01*
X107074173Y-138966607D01*
X107174063Y-138738881D01*
X107235108Y-138497821D01*
X107235109Y-138497812D01*
X107255643Y-138250005D01*
X107255643Y-138249994D01*
X110744357Y-138249994D01*
X110744357Y-138250005D01*
X110764890Y-138497812D01*
X110764892Y-138497824D01*
X110825936Y-138738881D01*
X110925826Y-138966606D01*
X111061833Y-139174782D01*
X111061836Y-139174785D01*
X111230256Y-139357738D01*
X111426491Y-139510474D01*
X111645190Y-139628828D01*
X111880386Y-139709571D01*
X112125665Y-139750500D01*
X112374335Y-139750500D01*
X112619614Y-139709571D01*
X112854810Y-139628828D01*
X113073509Y-139510474D01*
X113269744Y-139357738D01*
X113438164Y-139174785D01*
X113574173Y-138966607D01*
X113674063Y-138738881D01*
X113735108Y-138497821D01*
X113735109Y-138497812D01*
X113755643Y-138250005D01*
X113755643Y-138249994D01*
X113735109Y-138002187D01*
X113735107Y-138002175D01*
X113674063Y-137761118D01*
X113574173Y-137533393D01*
X113438166Y-137325217D01*
X113382382Y-137264620D01*
X113269744Y-137142262D01*
X113073509Y-136989526D01*
X113073507Y-136989525D01*
X113073506Y-136989524D01*
X112854811Y-136871172D01*
X112854802Y-136871169D01*
X112619616Y-136790429D01*
X112374335Y-136749500D01*
X112125665Y-136749500D01*
X111880383Y-136790429D01*
X111645197Y-136871169D01*
X111645188Y-136871172D01*
X111426493Y-136989524D01*
X111230257Y-137142261D01*
X111061833Y-137325217D01*
X110925826Y-137533393D01*
X110825936Y-137761118D01*
X110764892Y-138002175D01*
X110764890Y-138002187D01*
X110744357Y-138249994D01*
X107255643Y-138249994D01*
X107235109Y-138002187D01*
X107235107Y-138002175D01*
X107174063Y-137761118D01*
X107074173Y-137533393D01*
X106938166Y-137325217D01*
X106882382Y-137264620D01*
X106769744Y-137142262D01*
X106573509Y-136989526D01*
X106573507Y-136989525D01*
X106573506Y-136989524D01*
X106354811Y-136871172D01*
X106354802Y-136871169D01*
X106119616Y-136790429D01*
X105874335Y-136749500D01*
X105625665Y-136749500D01*
X105380383Y-136790429D01*
X105145197Y-136871169D01*
X105145188Y-136871172D01*
X104926493Y-136989524D01*
X104730257Y-137142261D01*
X104561833Y-137325217D01*
X104425826Y-137533393D01*
X104325936Y-137761118D01*
X104264892Y-138002175D01*
X104264890Y-138002187D01*
X104244357Y-138249994D01*
X95755643Y-138249994D01*
X95735109Y-138002187D01*
X95735107Y-138002175D01*
X95674063Y-137761118D01*
X95574173Y-137533393D01*
X95438166Y-137325217D01*
X95382382Y-137264620D01*
X95269744Y-137142262D01*
X95073509Y-136989526D01*
X95073507Y-136989525D01*
X95073506Y-136989524D01*
X94854811Y-136871172D01*
X94854802Y-136871169D01*
X94619616Y-136790429D01*
X94374335Y-136749500D01*
X94125665Y-136749500D01*
X93880383Y-136790429D01*
X93645197Y-136871169D01*
X93645188Y-136871172D01*
X93426493Y-136989524D01*
X93230257Y-137142261D01*
X93061833Y-137325217D01*
X92925826Y-137533393D01*
X92825936Y-137761118D01*
X92764892Y-138002175D01*
X92764890Y-138002187D01*
X92744357Y-138249994D01*
X89255643Y-138249994D01*
X89235109Y-138002187D01*
X89235107Y-138002175D01*
X89174063Y-137761118D01*
X89074173Y-137533393D01*
X88938166Y-137325217D01*
X88882382Y-137264620D01*
X88769744Y-137142262D01*
X88573509Y-136989526D01*
X88573507Y-136989525D01*
X88573506Y-136989524D01*
X88354811Y-136871172D01*
X88354802Y-136871169D01*
X88119616Y-136790429D01*
X87874335Y-136749500D01*
X87625665Y-136749500D01*
X87380383Y-136790429D01*
X87145197Y-136871169D01*
X87145188Y-136871172D01*
X86926493Y-136989524D01*
X86730257Y-137142261D01*
X86561833Y-137325217D01*
X86425826Y-137533393D01*
X86325936Y-137761118D01*
X86264892Y-138002175D01*
X86264890Y-138002187D01*
X86244357Y-138249994D01*
X65250863Y-138249994D01*
X65187321Y-138164643D01*
X65187314Y-138164635D01*
X65187310Y-138164629D01*
X64959447Y-137923107D01*
X64797153Y-137786926D01*
X64705087Y-137709674D01*
X64705079Y-137709668D01*
X64427669Y-137527212D01*
X64130946Y-137378192D01*
X64130940Y-137378189D01*
X63818930Y-137264627D01*
X63818909Y-137264620D01*
X63495838Y-137188050D01*
X63495823Y-137188048D01*
X63166023Y-137149500D01*
X62833977Y-137149500D01*
X62545402Y-137183229D01*
X62504176Y-137188048D01*
X62504161Y-137188050D01*
X62181090Y-137264620D01*
X62181069Y-137264627D01*
X61869059Y-137378189D01*
X61869053Y-137378192D01*
X61572330Y-137527212D01*
X61294920Y-137709668D01*
X61294912Y-137709674D01*
X61088936Y-137882508D01*
X61040553Y-137923107D01*
X60812690Y-138164629D01*
X60812687Y-138164632D01*
X60812685Y-138164635D01*
X60812678Y-138164643D01*
X60614406Y-138430968D01*
X60448385Y-138718525D01*
X60448379Y-138718538D01*
X60316866Y-139023419D01*
X60221634Y-139341518D01*
X60221631Y-139341532D01*
X60163977Y-139668504D01*
X60163976Y-139668515D01*
X60144669Y-139999996D01*
X58500559Y-139999996D01*
X58500500Y-139997293D01*
X58500500Y-134249994D01*
X63494357Y-134249994D01*
X63494357Y-134250005D01*
X63514890Y-134497812D01*
X63514892Y-134497824D01*
X63575936Y-134738881D01*
X63675826Y-134966606D01*
X63811833Y-135174782D01*
X63811836Y-135174785D01*
X63980256Y-135357738D01*
X64176491Y-135510474D01*
X64395190Y-135628828D01*
X64630386Y-135709571D01*
X64875665Y-135750500D01*
X65124335Y-135750500D01*
X65369614Y-135709571D01*
X65604810Y-135628828D01*
X65823509Y-135510474D01*
X66019744Y-135357738D01*
X66158772Y-135206712D01*
X66218657Y-135170724D01*
X66288495Y-135172824D01*
X66341226Y-135206711D01*
X66480256Y-135357738D01*
X66676491Y-135510474D01*
X66895190Y-135628828D01*
X67130386Y-135709571D01*
X67375665Y-135750500D01*
X67624335Y-135750500D01*
X67869614Y-135709571D01*
X68104810Y-135628828D01*
X68323509Y-135510474D01*
X68519744Y-135357738D01*
X68658772Y-135206712D01*
X68718657Y-135170724D01*
X68788495Y-135172824D01*
X68841226Y-135206711D01*
X68980256Y-135357738D01*
X69176491Y-135510474D01*
X69395190Y-135628828D01*
X69630386Y-135709571D01*
X69875665Y-135750500D01*
X70124335Y-135750500D01*
X70369614Y-135709571D01*
X70604810Y-135628828D01*
X70823509Y-135510474D01*
X71019744Y-135357738D01*
X71188164Y-135174785D01*
X71324173Y-134966607D01*
X71424063Y-134738881D01*
X71485108Y-134497821D01*
X71485109Y-134497812D01*
X71505643Y-134250005D01*
X71505643Y-134249994D01*
X71485109Y-134002187D01*
X71485107Y-134002175D01*
X71424063Y-133761118D01*
X71419184Y-133749994D01*
X86244357Y-133749994D01*
X86244357Y-133750005D01*
X86264890Y-133997812D01*
X86264892Y-133997824D01*
X86325936Y-134238881D01*
X86425826Y-134466606D01*
X86561833Y-134674782D01*
X86561836Y-134674785D01*
X86730256Y-134857738D01*
X86926491Y-135010474D01*
X87145190Y-135128828D01*
X87380386Y-135209571D01*
X87625665Y-135250500D01*
X87874335Y-135250500D01*
X88119614Y-135209571D01*
X88354810Y-135128828D01*
X88573509Y-135010474D01*
X88769744Y-134857738D01*
X88938164Y-134674785D01*
X89074173Y-134466607D01*
X89174063Y-134238881D01*
X89235108Y-133997821D01*
X89235115Y-133997737D01*
X89255643Y-133750005D01*
X89255643Y-133749994D01*
X92744357Y-133749994D01*
X92744357Y-133750005D01*
X92764890Y-133997812D01*
X92764892Y-133997824D01*
X92825936Y-134238881D01*
X92925826Y-134466606D01*
X93061833Y-134674782D01*
X93061836Y-134674785D01*
X93230256Y-134857738D01*
X93426491Y-135010474D01*
X93645190Y-135128828D01*
X93880386Y-135209571D01*
X94125665Y-135250500D01*
X94374335Y-135250500D01*
X94619614Y-135209571D01*
X94854810Y-135128828D01*
X95073509Y-135010474D01*
X95269744Y-134857738D01*
X95438164Y-134674785D01*
X95574173Y-134466607D01*
X95674063Y-134238881D01*
X95735108Y-133997821D01*
X95735115Y-133997737D01*
X95755643Y-133750005D01*
X95755643Y-133749994D01*
X104244357Y-133749994D01*
X104244357Y-133750005D01*
X104264890Y-133997812D01*
X104264892Y-133997824D01*
X104325936Y-134238881D01*
X104425826Y-134466606D01*
X104561833Y-134674782D01*
X104561836Y-134674785D01*
X104730256Y-134857738D01*
X104926491Y-135010474D01*
X105145190Y-135128828D01*
X105380386Y-135209571D01*
X105625665Y-135250500D01*
X105874335Y-135250500D01*
X106119614Y-135209571D01*
X106354810Y-135128828D01*
X106573509Y-135010474D01*
X106769744Y-134857738D01*
X106938164Y-134674785D01*
X107074173Y-134466607D01*
X107174063Y-134238881D01*
X107235108Y-133997821D01*
X107235115Y-133997737D01*
X107255643Y-133750005D01*
X107255643Y-133749994D01*
X110744357Y-133749994D01*
X110744357Y-133750005D01*
X110764890Y-133997812D01*
X110764892Y-133997824D01*
X110825936Y-134238881D01*
X110925826Y-134466606D01*
X111061833Y-134674782D01*
X111061836Y-134674785D01*
X111230256Y-134857738D01*
X111426491Y-135010474D01*
X111645190Y-135128828D01*
X111880386Y-135209571D01*
X112125665Y-135250500D01*
X112374335Y-135250500D01*
X112619614Y-135209571D01*
X112854810Y-135128828D01*
X113073509Y-135010474D01*
X113269744Y-134857738D01*
X113438164Y-134674785D01*
X113552359Y-134499996D01*
X128694435Y-134499996D01*
X128694435Y-134500003D01*
X128714630Y-134679249D01*
X128714631Y-134679254D01*
X128774211Y-134849523D01*
X128779373Y-134857738D01*
X128870184Y-135002262D01*
X128997738Y-135129816D01*
X129062843Y-135170724D01*
X129124665Y-135209570D01*
X129150478Y-135225789D01*
X129221098Y-135250500D01*
X129320745Y-135285368D01*
X129320750Y-135285369D01*
X129499996Y-135305565D01*
X129500000Y-135305565D01*
X129500004Y-135305565D01*
X129679249Y-135285369D01*
X129679252Y-135285368D01*
X129679255Y-135285368D01*
X129849522Y-135225789D01*
X130002262Y-135129816D01*
X130129816Y-135002262D01*
X130225789Y-134849522D01*
X130285368Y-134679255D01*
X130305565Y-134500000D01*
X130305319Y-134497821D01*
X130285369Y-134320750D01*
X130285368Y-134320745D01*
X130260611Y-134249994D01*
X130225789Y-134150478D01*
X130129816Y-133997738D01*
X130002262Y-133870184D01*
X129969379Y-133849522D01*
X129849523Y-133774211D01*
X129679254Y-133714631D01*
X129679249Y-133714630D01*
X129500004Y-133694435D01*
X129499996Y-133694435D01*
X129320750Y-133714630D01*
X129320745Y-133714631D01*
X129150476Y-133774211D01*
X128997737Y-133870184D01*
X128870184Y-133997737D01*
X128774211Y-134150476D01*
X128714631Y-134320745D01*
X128714630Y-134320750D01*
X128694435Y-134499996D01*
X113552359Y-134499996D01*
X113574173Y-134466607D01*
X113674063Y-134238881D01*
X113735108Y-133997821D01*
X113735115Y-133997737D01*
X113755643Y-133750005D01*
X113755643Y-133749994D01*
X113735109Y-133502187D01*
X113735107Y-133502175D01*
X113734555Y-133499996D01*
X122694435Y-133499996D01*
X122694435Y-133500003D01*
X122714630Y-133679249D01*
X122714631Y-133679254D01*
X122774211Y-133849523D01*
X122867341Y-133997737D01*
X122870184Y-134002262D01*
X122997738Y-134129816D01*
X123150478Y-134225789D01*
X123320745Y-134285368D01*
X123320750Y-134285369D01*
X123499996Y-134305565D01*
X123500000Y-134305565D01*
X123500004Y-134305565D01*
X123679249Y-134285369D01*
X123679252Y-134285368D01*
X123679255Y-134285368D01*
X123849522Y-134225789D01*
X124002262Y-134129816D01*
X124129816Y-134002262D01*
X124225789Y-133849522D01*
X124285368Y-133679255D01*
X124305319Y-133502187D01*
X124305565Y-133500003D01*
X124305565Y-133499996D01*
X124694435Y-133499996D01*
X124694435Y-133500003D01*
X124714630Y-133679249D01*
X124714631Y-133679254D01*
X124774211Y-133849523D01*
X124867341Y-133997737D01*
X124870184Y-134002262D01*
X124997738Y-134129816D01*
X125150478Y-134225789D01*
X125320745Y-134285368D01*
X125320750Y-134285369D01*
X125499996Y-134305565D01*
X125500000Y-134305565D01*
X125500004Y-134305565D01*
X125679249Y-134285369D01*
X125679252Y-134285368D01*
X125679255Y-134285368D01*
X125849522Y-134225789D01*
X126002262Y-134129816D01*
X126129816Y-134002262D01*
X126225789Y-133849522D01*
X126285368Y-133679255D01*
X126305319Y-133502187D01*
X126305565Y-133500003D01*
X126305565Y-133499996D01*
X126285369Y-133320750D01*
X126285368Y-133320745D01*
X126225788Y-133150476D01*
X126186582Y-133088080D01*
X126129816Y-132997738D01*
X126002262Y-132870184D01*
X125930698Y-132825217D01*
X125849523Y-132774211D01*
X125679254Y-132714631D01*
X125679249Y-132714630D01*
X125500004Y-132694435D01*
X125499996Y-132694435D01*
X125320750Y-132714630D01*
X125320745Y-132714631D01*
X125150476Y-132774211D01*
X124997737Y-132870184D01*
X124870184Y-132997737D01*
X124774211Y-133150476D01*
X124714631Y-133320745D01*
X124714630Y-133320750D01*
X124694435Y-133499996D01*
X124305565Y-133499996D01*
X124285369Y-133320750D01*
X124285368Y-133320745D01*
X124225788Y-133150476D01*
X124186582Y-133088080D01*
X124129816Y-132997738D01*
X124002262Y-132870184D01*
X123930698Y-132825217D01*
X123849523Y-132774211D01*
X123679254Y-132714631D01*
X123679249Y-132714630D01*
X123500004Y-132694435D01*
X123499996Y-132694435D01*
X123320750Y-132714630D01*
X123320745Y-132714631D01*
X123150476Y-132774211D01*
X122997737Y-132870184D01*
X122870184Y-132997737D01*
X122774211Y-133150476D01*
X122714631Y-133320745D01*
X122714630Y-133320750D01*
X122694435Y-133499996D01*
X113734555Y-133499996D01*
X113674063Y-133261118D01*
X113574173Y-133033393D01*
X113438166Y-132825217D01*
X113406141Y-132790429D01*
X113269744Y-132642262D01*
X113073509Y-132489526D01*
X113073507Y-132489525D01*
X113073506Y-132489524D01*
X112854811Y-132371172D01*
X112854802Y-132371169D01*
X112619616Y-132290429D01*
X112374335Y-132249500D01*
X112125665Y-132249500D01*
X111880383Y-132290429D01*
X111645197Y-132371169D01*
X111645188Y-132371172D01*
X111426493Y-132489524D01*
X111230257Y-132642261D01*
X111061833Y-132825217D01*
X110925826Y-133033393D01*
X110825936Y-133261118D01*
X110764892Y-133502175D01*
X110764890Y-133502187D01*
X110744357Y-133749994D01*
X107255643Y-133749994D01*
X107235109Y-133502187D01*
X107235107Y-133502175D01*
X107174063Y-133261118D01*
X107074173Y-133033393D01*
X106938166Y-132825217D01*
X106906141Y-132790429D01*
X106769744Y-132642262D01*
X106573509Y-132489526D01*
X106573507Y-132489525D01*
X106573506Y-132489524D01*
X106354811Y-132371172D01*
X106354802Y-132371169D01*
X106119616Y-132290429D01*
X105874335Y-132249500D01*
X105625665Y-132249500D01*
X105380383Y-132290429D01*
X105145197Y-132371169D01*
X105145188Y-132371172D01*
X104926493Y-132489524D01*
X104730257Y-132642261D01*
X104561833Y-132825217D01*
X104425826Y-133033393D01*
X104325936Y-133261118D01*
X104264892Y-133502175D01*
X104264890Y-133502187D01*
X104244357Y-133749994D01*
X95755643Y-133749994D01*
X95735109Y-133502187D01*
X95735107Y-133502175D01*
X95674063Y-133261118D01*
X95574173Y-133033393D01*
X95438166Y-132825217D01*
X95406141Y-132790429D01*
X95269744Y-132642262D01*
X95073509Y-132489526D01*
X95073507Y-132489525D01*
X95073506Y-132489524D01*
X94854811Y-132371172D01*
X94854802Y-132371169D01*
X94619616Y-132290429D01*
X94374335Y-132249500D01*
X94125665Y-132249500D01*
X93880383Y-132290429D01*
X93645197Y-132371169D01*
X93645188Y-132371172D01*
X93426493Y-132489524D01*
X93230257Y-132642261D01*
X93061833Y-132825217D01*
X92925826Y-133033393D01*
X92825936Y-133261118D01*
X92764892Y-133502175D01*
X92764890Y-133502187D01*
X92744357Y-133749994D01*
X89255643Y-133749994D01*
X89235109Y-133502187D01*
X89235107Y-133502175D01*
X89174063Y-133261118D01*
X89074173Y-133033393D01*
X88938166Y-132825217D01*
X88906141Y-132790429D01*
X88769744Y-132642262D01*
X88573509Y-132489526D01*
X88573507Y-132489525D01*
X88573506Y-132489524D01*
X88354811Y-132371172D01*
X88354802Y-132371169D01*
X88119616Y-132290429D01*
X87874335Y-132249500D01*
X87625665Y-132249500D01*
X87380383Y-132290429D01*
X87145197Y-132371169D01*
X87145188Y-132371172D01*
X86926493Y-132489524D01*
X86730257Y-132642261D01*
X86561833Y-132825217D01*
X86425826Y-133033393D01*
X86325936Y-133261118D01*
X86264892Y-133502175D01*
X86264890Y-133502187D01*
X86244357Y-133749994D01*
X71419184Y-133749994D01*
X71324173Y-133533393D01*
X71188166Y-133325217D01*
X71158769Y-133293284D01*
X71019744Y-133142262D01*
X70823509Y-132989526D01*
X70823507Y-132989525D01*
X70823506Y-132989524D01*
X70665482Y-132904006D01*
X70615892Y-132854786D01*
X70600500Y-132794951D01*
X70600500Y-124800097D01*
X70620185Y-124733058D01*
X70636819Y-124712416D01*
X70963977Y-124385258D01*
X71304253Y-124044981D01*
X71365574Y-124011498D01*
X71435265Y-124016482D01*
X71491199Y-124058353D01*
X71515616Y-124123818D01*
X71500764Y-124192091D01*
X71499320Y-124194663D01*
X71401956Y-124363304D01*
X71401953Y-124363309D01*
X71301605Y-124605571D01*
X71301602Y-124605581D01*
X71238191Y-124842238D01*
X71233730Y-124858885D01*
X71199500Y-125118872D01*
X71199500Y-128381127D01*
X71216615Y-128511118D01*
X71233730Y-128641116D01*
X71301602Y-128894418D01*
X71301605Y-128894428D01*
X71401953Y-129136690D01*
X71401958Y-129136700D01*
X71533075Y-129363803D01*
X71692718Y-129571851D01*
X71692726Y-129571860D01*
X71878140Y-129757274D01*
X71878148Y-129757281D01*
X72086196Y-129916924D01*
X72313299Y-130048041D01*
X72313309Y-130048046D01*
X72457419Y-130107738D01*
X72555581Y-130148398D01*
X72808884Y-130216270D01*
X73068880Y-130250500D01*
X73068887Y-130250500D01*
X73331113Y-130250500D01*
X73331120Y-130250500D01*
X73591116Y-130216270D01*
X73844419Y-130148398D01*
X74086697Y-130048043D01*
X74169917Y-129999996D01*
X99194435Y-129999996D01*
X99194435Y-130000003D01*
X99214630Y-130179249D01*
X99214631Y-130179254D01*
X99274211Y-130349523D01*
X99292625Y-130378828D01*
X99370184Y-130502262D01*
X99497738Y-130629816D01*
X99650478Y-130725789D01*
X99820745Y-130785368D01*
X99820750Y-130785369D01*
X99999996Y-130805565D01*
X100000000Y-130805565D01*
X100000004Y-130805565D01*
X100179249Y-130785369D01*
X100179252Y-130785368D01*
X100179255Y-130785368D01*
X100349522Y-130725789D01*
X100502262Y-130629816D01*
X100629816Y-130502262D01*
X100725789Y-130349522D01*
X100785368Y-130179255D01*
X100805565Y-130000000D01*
X100797090Y-129924785D01*
X100785369Y-129820750D01*
X100785368Y-129820745D01*
X100763161Y-129757281D01*
X100725789Y-129650478D01*
X100629816Y-129497738D01*
X100502262Y-129370184D01*
X100492107Y-129363803D01*
X100349523Y-129274211D01*
X100179254Y-129214631D01*
X100179249Y-129214630D01*
X100000004Y-129194435D01*
X99999996Y-129194435D01*
X99820750Y-129214630D01*
X99820745Y-129214631D01*
X99650476Y-129274211D01*
X99497737Y-129370184D01*
X99370184Y-129497737D01*
X99274211Y-129650476D01*
X99214631Y-129820745D01*
X99214630Y-129820750D01*
X99194435Y-129999996D01*
X74169917Y-129999996D01*
X74313803Y-129916924D01*
X74521851Y-129757282D01*
X74521855Y-129757277D01*
X74521860Y-129757274D01*
X74707274Y-129571860D01*
X74707277Y-129571855D01*
X74707282Y-129571851D01*
X74866924Y-129363803D01*
X74998043Y-129136697D01*
X75054667Y-128999994D01*
X127494357Y-128999994D01*
X127494357Y-129000005D01*
X127514890Y-129247812D01*
X127514892Y-129247824D01*
X127575936Y-129488881D01*
X127675826Y-129716606D01*
X127811833Y-129924782D01*
X127811836Y-129924785D01*
X127980256Y-130107738D01*
X128176491Y-130260474D01*
X128395190Y-130378828D01*
X128630386Y-130459571D01*
X128875665Y-130500500D01*
X129124335Y-130500500D01*
X129369614Y-130459571D01*
X129604810Y-130378828D01*
X129823509Y-130260474D01*
X130019744Y-130107738D01*
X130188164Y-129924785D01*
X130324173Y-129716607D01*
X130424063Y-129488881D01*
X130485108Y-129247821D01*
X130487858Y-129214631D01*
X130505643Y-129000005D01*
X130505643Y-128999994D01*
X133994357Y-128999994D01*
X133994357Y-129000005D01*
X134014890Y-129247812D01*
X134014892Y-129247824D01*
X134075936Y-129488881D01*
X134175826Y-129716606D01*
X134311833Y-129924782D01*
X134311836Y-129924785D01*
X134480256Y-130107738D01*
X134676491Y-130260474D01*
X134895190Y-130378828D01*
X135130386Y-130459571D01*
X135375665Y-130500500D01*
X135624335Y-130500500D01*
X135869614Y-130459571D01*
X136104810Y-130378828D01*
X136323509Y-130260474D01*
X136519744Y-130107738D01*
X136688164Y-129924785D01*
X136824173Y-129716607D01*
X136924063Y-129488881D01*
X136985108Y-129247821D01*
X136987858Y-129214631D01*
X137005643Y-129000005D01*
X137005643Y-128999994D01*
X136985109Y-128752187D01*
X136985107Y-128752175D01*
X136924063Y-128511118D01*
X136824173Y-128283393D01*
X136688166Y-128075217D01*
X136666557Y-128051744D01*
X136519744Y-127892262D01*
X136323509Y-127739526D01*
X136323507Y-127739525D01*
X136323506Y-127739524D01*
X136104811Y-127621172D01*
X136104802Y-127621169D01*
X135869616Y-127540429D01*
X135624335Y-127499500D01*
X135375665Y-127499500D01*
X135130383Y-127540429D01*
X134895197Y-127621169D01*
X134895188Y-127621172D01*
X134676493Y-127739524D01*
X134480257Y-127892261D01*
X134311833Y-128075217D01*
X134175826Y-128283393D01*
X134075936Y-128511118D01*
X134014892Y-128752175D01*
X134014890Y-128752187D01*
X133994357Y-128999994D01*
X130505643Y-128999994D01*
X130485109Y-128752187D01*
X130485107Y-128752175D01*
X130424063Y-128511118D01*
X130324173Y-128283393D01*
X130188166Y-128075217D01*
X130166557Y-128051744D01*
X130019744Y-127892262D01*
X129823509Y-127739526D01*
X129823507Y-127739525D01*
X129823506Y-127739524D01*
X129604811Y-127621172D01*
X129604802Y-127621169D01*
X129369616Y-127540429D01*
X129124335Y-127499500D01*
X128875665Y-127499500D01*
X128630383Y-127540429D01*
X128395197Y-127621169D01*
X128395188Y-127621172D01*
X128176493Y-127739524D01*
X127980257Y-127892261D01*
X127811833Y-128075217D01*
X127675826Y-128283393D01*
X127575936Y-128511118D01*
X127514892Y-128752175D01*
X127514890Y-128752187D01*
X127494357Y-128999994D01*
X75054667Y-128999994D01*
X75098398Y-128894419D01*
X75166270Y-128641116D01*
X75200500Y-128381120D01*
X75200500Y-125118880D01*
X75166270Y-124858884D01*
X75098398Y-124605581D01*
X75098394Y-124605571D01*
X75007138Y-124385258D01*
X78249500Y-124385258D01*
X78249500Y-124614741D01*
X78267022Y-124747824D01*
X78279452Y-124842238D01*
X78323601Y-125007007D01*
X78338842Y-125063887D01*
X78426650Y-125275876D01*
X78426656Y-125275888D01*
X78512621Y-125424785D01*
X78541392Y-125474617D01*
X78681081Y-125656661D01*
X78681089Y-125656670D01*
X78843330Y-125818911D01*
X78843338Y-125818918D01*
X79025382Y-125958607D01*
X79025385Y-125958608D01*
X79025388Y-125958611D01*
X79224112Y-126073344D01*
X79224117Y-126073346D01*
X79224123Y-126073349D01*
X79283330Y-126097873D01*
X79436113Y-126161158D01*
X79657762Y-126220548D01*
X79885266Y-126250500D01*
X79885273Y-126250500D01*
X80114727Y-126250500D01*
X80114734Y-126250500D01*
X80342238Y-126220548D01*
X80563887Y-126161158D01*
X80775888Y-126073344D01*
X80974612Y-125958611D01*
X81156661Y-125818919D01*
X81156665Y-125818914D01*
X81156670Y-125818911D01*
X81318911Y-125656670D01*
X81318914Y-125656665D01*
X81318919Y-125656661D01*
X81458611Y-125474612D01*
X81573344Y-125275888D01*
X81604778Y-125199999D01*
X89814341Y-125199999D01*
X89814341Y-125200000D01*
X89834936Y-125435403D01*
X89834938Y-125435413D01*
X89896094Y-125663655D01*
X89896096Y-125663659D01*
X89896097Y-125663663D01*
X89975801Y-125834588D01*
X89995965Y-125877830D01*
X89995967Y-125877834D01*
X90104281Y-126032521D01*
X90131505Y-126071401D01*
X90298599Y-126238495D01*
X90395384Y-126306265D01*
X90492165Y-126374032D01*
X90492167Y-126374033D01*
X90492170Y-126374035D01*
X90706337Y-126473903D01*
X90934592Y-126535063D01*
X91111034Y-126550500D01*
X91169999Y-126555659D01*
X91170000Y-126555659D01*
X91170001Y-126555659D01*
X91228966Y-126550500D01*
X91405408Y-126535063D01*
X91633663Y-126473903D01*
X91847830Y-126374035D01*
X92041401Y-126238495D01*
X92208495Y-126071401D01*
X92338425Y-125885842D01*
X92393002Y-125842217D01*
X92462500Y-125835023D01*
X92524855Y-125866546D01*
X92541575Y-125885842D01*
X92671500Y-126071395D01*
X92671505Y-126071401D01*
X92838599Y-126238495D01*
X92935384Y-126306265D01*
X93032165Y-126374032D01*
X93032167Y-126374033D01*
X93032170Y-126374035D01*
X93246337Y-126473903D01*
X93474592Y-126535063D01*
X93651034Y-126550500D01*
X93709999Y-126555659D01*
X93710000Y-126555659D01*
X93710001Y-126555659D01*
X93768966Y-126550500D01*
X93945408Y-126535063D01*
X94173663Y-126473903D01*
X94387830Y-126374035D01*
X94581401Y-126238495D01*
X94748495Y-126071401D01*
X94878425Y-125885842D01*
X94933002Y-125842217D01*
X95002500Y-125835023D01*
X95064855Y-125866546D01*
X95081575Y-125885842D01*
X95211500Y-126071395D01*
X95211505Y-126071401D01*
X95378599Y-126238495D01*
X95475384Y-126306265D01*
X95572165Y-126374032D01*
X95572167Y-126374033D01*
X95572170Y-126374035D01*
X95786337Y-126473903D01*
X96014592Y-126535063D01*
X96191034Y-126550500D01*
X96249999Y-126555659D01*
X96250000Y-126555659D01*
X96250001Y-126555659D01*
X96308966Y-126550500D01*
X96485408Y-126535063D01*
X96713663Y-126473903D01*
X96927830Y-126374035D01*
X97121401Y-126238495D01*
X97288495Y-126071401D01*
X97418425Y-125885842D01*
X97473002Y-125842217D01*
X97542500Y-125835023D01*
X97604855Y-125866546D01*
X97621575Y-125885842D01*
X97751500Y-126071395D01*
X97751505Y-126071401D01*
X97918599Y-126238495D01*
X98015384Y-126306265D01*
X98112165Y-126374032D01*
X98112167Y-126374033D01*
X98112170Y-126374035D01*
X98326337Y-126473903D01*
X98554592Y-126535063D01*
X98731034Y-126550500D01*
X98789999Y-126555659D01*
X98790000Y-126555659D01*
X98790001Y-126555659D01*
X98848966Y-126550500D01*
X99025408Y-126535063D01*
X99253663Y-126473903D01*
X99467830Y-126374035D01*
X99661401Y-126238495D01*
X99828495Y-126071401D01*
X99958425Y-125885842D01*
X100013002Y-125842217D01*
X100082500Y-125835023D01*
X100144855Y-125866546D01*
X100161575Y-125885842D01*
X100291500Y-126071395D01*
X100291505Y-126071401D01*
X100458599Y-126238495D01*
X100555384Y-126306265D01*
X100652165Y-126374032D01*
X100652167Y-126374033D01*
X100652170Y-126374035D01*
X100866337Y-126473903D01*
X101094592Y-126535063D01*
X101271034Y-126550500D01*
X101329999Y-126555659D01*
X101330000Y-126555659D01*
X101330001Y-126555659D01*
X101388966Y-126550500D01*
X101565408Y-126535063D01*
X101793663Y-126473903D01*
X102007830Y-126374035D01*
X102201401Y-126238495D01*
X102368495Y-126071401D01*
X102498730Y-125885405D01*
X102553307Y-125841781D01*
X102622805Y-125834587D01*
X102685160Y-125866110D01*
X102701879Y-125885405D01*
X102831890Y-126071078D01*
X102998917Y-126238105D01*
X103192421Y-126373600D01*
X103406507Y-126473429D01*
X103406516Y-126473433D01*
X103620000Y-126530634D01*
X103620000Y-125633012D01*
X103677007Y-125665925D01*
X103804174Y-125700000D01*
X103935826Y-125700000D01*
X104062993Y-125665925D01*
X104120000Y-125633012D01*
X104120000Y-126530633D01*
X104333483Y-126473433D01*
X104333492Y-126473429D01*
X104547578Y-126373600D01*
X104741082Y-126238105D01*
X104908105Y-126071082D01*
X105038119Y-125885405D01*
X105092696Y-125841781D01*
X105162195Y-125834588D01*
X105224549Y-125866110D01*
X105241269Y-125885405D01*
X105371505Y-126071401D01*
X105538599Y-126238495D01*
X105635384Y-126306265D01*
X105732165Y-126374032D01*
X105732167Y-126374033D01*
X105732170Y-126374035D01*
X105946337Y-126473903D01*
X106174592Y-126535063D01*
X106351034Y-126550500D01*
X106409999Y-126555659D01*
X106410000Y-126555659D01*
X106410001Y-126555659D01*
X106468966Y-126550500D01*
X106645408Y-126535063D01*
X106873663Y-126473903D01*
X107087830Y-126374035D01*
X107281401Y-126238495D01*
X107403329Y-126116566D01*
X107464648Y-126083084D01*
X107534340Y-126088068D01*
X107590274Y-126129939D01*
X107607189Y-126160917D01*
X107656202Y-126292328D01*
X107656206Y-126292335D01*
X107742452Y-126407544D01*
X107742455Y-126407547D01*
X107857664Y-126493793D01*
X107857671Y-126493797D01*
X107992517Y-126544091D01*
X107992516Y-126544091D01*
X107999444Y-126544835D01*
X108052127Y-126550500D01*
X109847872Y-126550499D01*
X109907483Y-126544091D01*
X110042331Y-126493796D01*
X110157546Y-126407546D01*
X110243796Y-126292331D01*
X110294091Y-126157483D01*
X110300500Y-126097873D01*
X110300499Y-124385258D01*
X118249500Y-124385258D01*
X118249500Y-124614741D01*
X118267022Y-124747824D01*
X118279452Y-124842238D01*
X118323601Y-125007007D01*
X118338842Y-125063887D01*
X118426650Y-125275876D01*
X118426656Y-125275888D01*
X118512621Y-125424785D01*
X118541392Y-125474617D01*
X118681081Y-125656661D01*
X118681089Y-125656670D01*
X118843330Y-125818911D01*
X118843338Y-125818918D01*
X119025382Y-125958607D01*
X119025385Y-125958608D01*
X119025388Y-125958611D01*
X119224112Y-126073344D01*
X119224117Y-126073346D01*
X119224123Y-126073349D01*
X119283330Y-126097873D01*
X119436113Y-126161158D01*
X119657762Y-126220548D01*
X119885266Y-126250500D01*
X119885273Y-126250500D01*
X120114727Y-126250500D01*
X120114734Y-126250500D01*
X120342238Y-126220548D01*
X120563887Y-126161158D01*
X120775888Y-126073344D01*
X120974612Y-125958611D01*
X121156661Y-125818919D01*
X121156665Y-125818914D01*
X121156670Y-125818911D01*
X121318911Y-125656670D01*
X121318914Y-125656665D01*
X121318919Y-125656661D01*
X121458611Y-125474612D01*
X121573344Y-125275888D01*
X121661158Y-125063887D01*
X121720548Y-124842238D01*
X121750500Y-124614734D01*
X121750500Y-124499994D01*
X127494357Y-124499994D01*
X127494357Y-124500005D01*
X127514890Y-124747812D01*
X127514892Y-124747824D01*
X127575936Y-124988881D01*
X127675826Y-125216606D01*
X127811833Y-125424782D01*
X127821615Y-125435408D01*
X127980256Y-125607738D01*
X128176491Y-125760474D01*
X128395190Y-125878828D01*
X128630386Y-125959571D01*
X128875665Y-126000500D01*
X129124335Y-126000500D01*
X129369614Y-125959571D01*
X129604810Y-125878828D01*
X129823509Y-125760474D01*
X130019744Y-125607738D01*
X130188164Y-125424785D01*
X130324173Y-125216607D01*
X130424063Y-124988881D01*
X130485108Y-124747821D01*
X130486247Y-124734075D01*
X130505643Y-124500005D01*
X130505643Y-124499994D01*
X133994357Y-124499994D01*
X133994357Y-124500005D01*
X134014890Y-124747812D01*
X134014892Y-124747824D01*
X134075936Y-124988881D01*
X134175826Y-125216606D01*
X134311833Y-125424782D01*
X134321615Y-125435408D01*
X134480256Y-125607738D01*
X134676491Y-125760474D01*
X134895190Y-125878828D01*
X135130386Y-125959571D01*
X135375665Y-126000500D01*
X135624335Y-126000500D01*
X135869614Y-125959571D01*
X136104810Y-125878828D01*
X136323509Y-125760474D01*
X136519744Y-125607738D01*
X136688164Y-125424785D01*
X136824173Y-125216607D01*
X136924063Y-124988881D01*
X136985108Y-124747821D01*
X136986247Y-124734075D01*
X137005643Y-124500005D01*
X137005643Y-124499994D01*
X136985109Y-124252187D01*
X136985107Y-124252175D01*
X136924063Y-124011118D01*
X136824173Y-123783393D01*
X136688166Y-123575217D01*
X136642295Y-123525388D01*
X136519744Y-123392262D01*
X136323509Y-123239526D01*
X136323507Y-123239525D01*
X136323506Y-123239524D01*
X136104811Y-123121172D01*
X136104802Y-123121169D01*
X135869616Y-123040429D01*
X135624335Y-122999500D01*
X135375665Y-122999500D01*
X135130383Y-123040429D01*
X134895197Y-123121169D01*
X134895188Y-123121172D01*
X134676493Y-123239524D01*
X134480257Y-123392261D01*
X134311833Y-123575217D01*
X134175826Y-123783393D01*
X134075936Y-124011118D01*
X134014892Y-124252175D01*
X134014890Y-124252187D01*
X133994357Y-124499994D01*
X130505643Y-124499994D01*
X130485109Y-124252187D01*
X130485107Y-124252175D01*
X130424063Y-124011118D01*
X130324173Y-123783393D01*
X130188166Y-123575217D01*
X130142295Y-123525388D01*
X130019744Y-123392262D01*
X129823509Y-123239526D01*
X129823507Y-123239525D01*
X129823506Y-123239524D01*
X129604811Y-123121172D01*
X129604802Y-123121169D01*
X129369616Y-123040429D01*
X129124335Y-122999500D01*
X128875665Y-122999500D01*
X128630383Y-123040429D01*
X128395197Y-123121169D01*
X128395188Y-123121172D01*
X128176493Y-123239524D01*
X127980257Y-123392261D01*
X127811833Y-123575217D01*
X127675826Y-123783393D01*
X127575936Y-124011118D01*
X127514892Y-124252175D01*
X127514890Y-124252187D01*
X127494357Y-124499994D01*
X121750500Y-124499994D01*
X121750500Y-124385266D01*
X121720548Y-124157762D01*
X121661158Y-123936113D01*
X121597899Y-123783393D01*
X121573349Y-123724123D01*
X121573346Y-123724117D01*
X121573344Y-123724112D01*
X121458611Y-123525388D01*
X121458608Y-123525385D01*
X121458607Y-123525382D01*
X121318918Y-123343338D01*
X121318911Y-123343330D01*
X121156670Y-123181089D01*
X121156661Y-123181081D01*
X120974617Y-123041392D01*
X120775890Y-122926657D01*
X120775876Y-122926650D01*
X120563887Y-122838842D01*
X120342238Y-122779452D01*
X120304215Y-122774446D01*
X120114741Y-122749500D01*
X120114734Y-122749500D01*
X119885266Y-122749500D01*
X119885258Y-122749500D01*
X119668715Y-122778009D01*
X119657762Y-122779452D01*
X119564076Y-122804554D01*
X119436112Y-122838842D01*
X119224123Y-122926650D01*
X119224109Y-122926657D01*
X119025382Y-123041392D01*
X118843338Y-123181081D01*
X118681081Y-123343338D01*
X118541392Y-123525382D01*
X118426657Y-123724109D01*
X118426650Y-123724123D01*
X118338842Y-123936112D01*
X118279453Y-124157759D01*
X118279451Y-124157770D01*
X118249500Y-124385258D01*
X110300499Y-124385258D01*
X110300499Y-124302128D01*
X110295299Y-124253757D01*
X110294091Y-124242516D01*
X110243797Y-124107671D01*
X110243793Y-124107664D01*
X110157547Y-123992455D01*
X110157544Y-123992452D01*
X110042335Y-123906206D01*
X110042328Y-123906202D01*
X109907482Y-123855908D01*
X109907483Y-123855908D01*
X109847883Y-123849501D01*
X109847881Y-123849500D01*
X109847873Y-123849500D01*
X109847864Y-123849500D01*
X108052129Y-123849500D01*
X108052123Y-123849501D01*
X107992516Y-123855908D01*
X107857671Y-123906202D01*
X107857664Y-123906206D01*
X107742455Y-123992452D01*
X107742452Y-123992455D01*
X107656206Y-124107664D01*
X107656203Y-124107669D01*
X107607189Y-124239083D01*
X107565317Y-124295016D01*
X107499853Y-124319433D01*
X107431580Y-124304581D01*
X107403326Y-124283430D01*
X107281402Y-124161506D01*
X107281395Y-124161501D01*
X107087834Y-124025967D01*
X107087830Y-124025965D01*
X107067494Y-124016482D01*
X106873663Y-123926097D01*
X106873659Y-123926096D01*
X106873655Y-123926094D01*
X106645413Y-123864938D01*
X106645403Y-123864936D01*
X106410001Y-123844341D01*
X106409999Y-123844341D01*
X106174596Y-123864936D01*
X106174586Y-123864938D01*
X105946344Y-123926094D01*
X105946335Y-123926098D01*
X105732171Y-124025964D01*
X105732169Y-124025965D01*
X105538597Y-124161505D01*
X105371508Y-124328594D01*
X105241269Y-124514595D01*
X105186692Y-124558219D01*
X105117193Y-124565412D01*
X105054839Y-124533890D01*
X105038119Y-124514594D01*
X104908113Y-124328926D01*
X104908108Y-124328920D01*
X104741082Y-124161894D01*
X104547578Y-124026399D01*
X104333492Y-123926570D01*
X104333486Y-123926567D01*
X104120000Y-123869364D01*
X104120000Y-124766988D01*
X104062993Y-124734075D01*
X103935826Y-124700000D01*
X103804174Y-124700000D01*
X103677007Y-124734075D01*
X103620000Y-124766988D01*
X103620000Y-123869364D01*
X103619999Y-123869364D01*
X103406513Y-123926567D01*
X103406507Y-123926570D01*
X103192422Y-124026399D01*
X103192420Y-124026400D01*
X102998926Y-124161886D01*
X102998920Y-124161891D01*
X102831891Y-124328920D01*
X102831890Y-124328922D01*
X102701880Y-124514595D01*
X102647303Y-124558219D01*
X102577804Y-124565412D01*
X102515450Y-124533890D01*
X102498730Y-124514594D01*
X102368494Y-124328597D01*
X102201402Y-124161506D01*
X102201395Y-124161501D01*
X102007834Y-124025967D01*
X102007830Y-124025965D01*
X101987494Y-124016482D01*
X101793663Y-123926097D01*
X101793659Y-123926096D01*
X101793655Y-123926094D01*
X101565413Y-123864938D01*
X101565403Y-123864936D01*
X101330001Y-123844341D01*
X101329999Y-123844341D01*
X101094596Y-123864936D01*
X101094586Y-123864938D01*
X100866344Y-123926094D01*
X100866335Y-123926098D01*
X100652171Y-124025964D01*
X100652169Y-124025965D01*
X100458597Y-124161505D01*
X100291505Y-124328597D01*
X100161575Y-124514158D01*
X100106998Y-124557783D01*
X100037500Y-124564977D01*
X99975145Y-124533454D01*
X99958425Y-124514158D01*
X99828494Y-124328597D01*
X99661402Y-124161506D01*
X99661395Y-124161501D01*
X99467834Y-124025967D01*
X99467830Y-124025965D01*
X99447494Y-124016482D01*
X99253663Y-123926097D01*
X99253659Y-123926096D01*
X99253655Y-123926094D01*
X99025413Y-123864938D01*
X99025403Y-123864936D01*
X98790001Y-123844341D01*
X98789999Y-123844341D01*
X98554596Y-123864936D01*
X98554586Y-123864938D01*
X98326344Y-123926094D01*
X98326335Y-123926098D01*
X98112171Y-124025964D01*
X98112169Y-124025965D01*
X97918597Y-124161505D01*
X97751505Y-124328597D01*
X97621575Y-124514158D01*
X97566998Y-124557783D01*
X97497500Y-124564977D01*
X97435145Y-124533454D01*
X97418425Y-124514158D01*
X97288494Y-124328597D01*
X97121402Y-124161506D01*
X97121395Y-124161501D01*
X96927834Y-124025967D01*
X96927830Y-124025965D01*
X96907494Y-124016482D01*
X96713663Y-123926097D01*
X96713659Y-123926096D01*
X96713655Y-123926094D01*
X96485413Y-123864938D01*
X96485403Y-123864936D01*
X96250001Y-123844341D01*
X96249999Y-123844341D01*
X96014596Y-123864936D01*
X96014586Y-123864938D01*
X95786344Y-123926094D01*
X95786335Y-123926098D01*
X95572171Y-124025964D01*
X95572169Y-124025965D01*
X95378597Y-124161505D01*
X95211505Y-124328597D01*
X95081575Y-124514158D01*
X95026998Y-124557783D01*
X94957500Y-124564977D01*
X94895145Y-124533454D01*
X94878425Y-124514158D01*
X94748494Y-124328597D01*
X94581402Y-124161506D01*
X94581395Y-124161501D01*
X94387834Y-124025967D01*
X94387830Y-124025965D01*
X94367494Y-124016482D01*
X94173663Y-123926097D01*
X94173659Y-123926096D01*
X94173655Y-123926094D01*
X93945413Y-123864938D01*
X93945403Y-123864936D01*
X93710001Y-123844341D01*
X93709999Y-123844341D01*
X93474596Y-123864936D01*
X93474586Y-123864938D01*
X93246344Y-123926094D01*
X93246335Y-123926098D01*
X93032171Y-124025964D01*
X93032169Y-124025965D01*
X92838597Y-124161505D01*
X92671505Y-124328597D01*
X92541575Y-124514158D01*
X92486998Y-124557783D01*
X92417500Y-124564977D01*
X92355145Y-124533454D01*
X92338425Y-124514158D01*
X92208494Y-124328597D01*
X92041402Y-124161506D01*
X92041395Y-124161501D01*
X91847834Y-124025967D01*
X91847830Y-124025965D01*
X91827494Y-124016482D01*
X91633663Y-123926097D01*
X91633659Y-123926096D01*
X91633655Y-123926094D01*
X91405413Y-123864938D01*
X91405403Y-123864936D01*
X91170001Y-123844341D01*
X91169999Y-123844341D01*
X90934596Y-123864936D01*
X90934586Y-123864938D01*
X90706344Y-123926094D01*
X90706335Y-123926098D01*
X90492171Y-124025964D01*
X90492169Y-124025965D01*
X90298597Y-124161505D01*
X90131505Y-124328597D01*
X89995965Y-124522169D01*
X89995964Y-124522171D01*
X89896098Y-124736335D01*
X89896094Y-124736344D01*
X89834938Y-124964586D01*
X89834936Y-124964596D01*
X89814341Y-125199999D01*
X81604778Y-125199999D01*
X81661158Y-125063887D01*
X81720548Y-124842238D01*
X81750500Y-124614734D01*
X81750500Y-124385266D01*
X81720548Y-124157762D01*
X81661158Y-123936113D01*
X81597899Y-123783393D01*
X81573349Y-123724123D01*
X81573346Y-123724117D01*
X81573344Y-123724112D01*
X81458611Y-123525388D01*
X81458608Y-123525385D01*
X81458607Y-123525382D01*
X81318918Y-123343338D01*
X81318911Y-123343330D01*
X81156670Y-123181089D01*
X81156661Y-123181081D01*
X80974617Y-123041392D01*
X80775890Y-122926657D01*
X80775876Y-122926650D01*
X80563887Y-122838842D01*
X80342238Y-122779452D01*
X80304215Y-122774446D01*
X80114741Y-122749500D01*
X80114734Y-122749500D01*
X79885266Y-122749500D01*
X79885258Y-122749500D01*
X79668715Y-122778009D01*
X79657762Y-122779452D01*
X79564076Y-122804554D01*
X79436112Y-122838842D01*
X79224123Y-122926650D01*
X79224109Y-122926657D01*
X79025382Y-123041392D01*
X78843338Y-123181081D01*
X78681081Y-123343338D01*
X78541392Y-123525382D01*
X78426657Y-123724109D01*
X78426650Y-123724123D01*
X78338842Y-123936112D01*
X78279453Y-124157759D01*
X78279451Y-124157770D01*
X78249500Y-124385258D01*
X75007138Y-124385258D01*
X74998046Y-124363309D01*
X74998041Y-124363299D01*
X74866924Y-124136196D01*
X74707281Y-123928148D01*
X74707274Y-123928140D01*
X74521860Y-123742726D01*
X74521851Y-123742718D01*
X74313803Y-123583075D01*
X74086700Y-123451958D01*
X74086690Y-123451953D01*
X73844428Y-123351605D01*
X73844421Y-123351603D01*
X73844419Y-123351602D01*
X73591116Y-123283730D01*
X73533339Y-123276123D01*
X73331127Y-123249500D01*
X73331120Y-123249500D01*
X73068880Y-123249500D01*
X73068872Y-123249500D01*
X72837772Y-123279926D01*
X72808884Y-123283730D01*
X72586453Y-123343330D01*
X72555581Y-123351602D01*
X72555571Y-123351605D01*
X72313309Y-123451953D01*
X72313304Y-123451956D01*
X72144663Y-123549320D01*
X72076763Y-123565792D01*
X72010736Y-123542939D01*
X71967546Y-123488017D01*
X71960905Y-123418464D01*
X71992922Y-123356362D01*
X71994941Y-123354293D01*
X73412416Y-121936819D01*
X73473739Y-121903334D01*
X73500097Y-121900500D01*
X103679017Y-121900500D01*
X103679033Y-121900501D01*
X103686629Y-121900501D01*
X103844740Y-121900501D01*
X103844743Y-121900501D01*
X103997471Y-121859577D01*
X104047590Y-121830639D01*
X104134402Y-121780520D01*
X104246206Y-121668716D01*
X104246206Y-121668714D01*
X104256414Y-121658507D01*
X104256416Y-121658504D01*
X107258506Y-118656414D01*
X107258511Y-118656410D01*
X107268714Y-118646206D01*
X107268716Y-118646206D01*
X107380520Y-118534402D01*
X107459577Y-118397470D01*
X107499225Y-118249501D01*
X107499226Y-118249500D01*
X107500500Y-118244744D01*
X107500500Y-112249994D01*
X127744357Y-112249994D01*
X127744357Y-112250005D01*
X127764890Y-112497812D01*
X127764892Y-112497824D01*
X127825936Y-112738881D01*
X127925826Y-112966606D01*
X128061833Y-113174782D01*
X128061836Y-113174785D01*
X128230256Y-113357738D01*
X128426491Y-113510474D01*
X128645190Y-113628828D01*
X128880386Y-113709571D01*
X129125665Y-113750500D01*
X129374335Y-113750500D01*
X129619614Y-113709571D01*
X129854810Y-113628828D01*
X130073509Y-113510474D01*
X130269744Y-113357738D01*
X130438164Y-113174785D01*
X130574173Y-112966607D01*
X130674063Y-112738881D01*
X130735108Y-112497821D01*
X130755643Y-112250000D01*
X130755643Y-112249994D01*
X134244357Y-112249994D01*
X134244357Y-112250005D01*
X134264890Y-112497812D01*
X134264892Y-112497824D01*
X134325936Y-112738881D01*
X134425826Y-112966606D01*
X134561833Y-113174782D01*
X134561836Y-113174785D01*
X134730256Y-113357738D01*
X134926491Y-113510474D01*
X135145190Y-113628828D01*
X135380386Y-113709571D01*
X135625665Y-113750500D01*
X135874335Y-113750500D01*
X136119614Y-113709571D01*
X136354810Y-113628828D01*
X136573509Y-113510474D01*
X136769744Y-113357738D01*
X136938164Y-113174785D01*
X137074173Y-112966607D01*
X137174063Y-112738881D01*
X137235108Y-112497821D01*
X137255643Y-112250000D01*
X137253970Y-112229815D01*
X137235109Y-112002187D01*
X137235107Y-112002175D01*
X137174063Y-111761118D01*
X137074173Y-111533393D01*
X136938166Y-111325217D01*
X136895849Y-111279249D01*
X136769744Y-111142262D01*
X136573509Y-110989526D01*
X136573507Y-110989525D01*
X136573506Y-110989524D01*
X136354811Y-110871172D01*
X136354802Y-110871169D01*
X136119616Y-110790429D01*
X135874335Y-110749500D01*
X135625665Y-110749500D01*
X135380383Y-110790429D01*
X135145197Y-110871169D01*
X135145188Y-110871172D01*
X134926493Y-110989524D01*
X134730257Y-111142261D01*
X134561833Y-111325217D01*
X134425826Y-111533393D01*
X134325936Y-111761118D01*
X134264892Y-112002175D01*
X134264890Y-112002187D01*
X134244357Y-112249994D01*
X130755643Y-112249994D01*
X130753970Y-112229815D01*
X130735109Y-112002187D01*
X130735107Y-112002175D01*
X130674063Y-111761118D01*
X130574173Y-111533393D01*
X130438166Y-111325217D01*
X130395849Y-111279249D01*
X130269744Y-111142262D01*
X130073509Y-110989526D01*
X130073507Y-110989525D01*
X130073506Y-110989524D01*
X129854811Y-110871172D01*
X129854802Y-110871169D01*
X129619616Y-110790429D01*
X129374335Y-110749500D01*
X129125665Y-110749500D01*
X128880383Y-110790429D01*
X128645197Y-110871169D01*
X128645188Y-110871172D01*
X128426493Y-110989524D01*
X128230257Y-111142261D01*
X128061833Y-111325217D01*
X127925826Y-111533393D01*
X127825936Y-111761118D01*
X127764892Y-112002175D01*
X127764890Y-112002187D01*
X127744357Y-112249994D01*
X107500500Y-112249994D01*
X107500500Y-107749994D01*
X127744357Y-107749994D01*
X127744357Y-107750005D01*
X127764890Y-107997812D01*
X127764892Y-107997824D01*
X127825936Y-108238881D01*
X127925826Y-108466606D01*
X128061833Y-108674782D01*
X128061836Y-108674785D01*
X128230256Y-108857738D01*
X128426491Y-109010474D01*
X128645190Y-109128828D01*
X128880386Y-109209571D01*
X129125665Y-109250500D01*
X129374335Y-109250500D01*
X129619614Y-109209571D01*
X129854810Y-109128828D01*
X130073509Y-109010474D01*
X130269744Y-108857738D01*
X130438164Y-108674785D01*
X130574173Y-108466607D01*
X130674063Y-108238881D01*
X130735108Y-107997821D01*
X130742131Y-107913066D01*
X130755643Y-107750005D01*
X130755643Y-107749994D01*
X134244357Y-107749994D01*
X134244357Y-107750005D01*
X134264890Y-107997812D01*
X134264892Y-107997824D01*
X134325936Y-108238881D01*
X134425826Y-108466606D01*
X134561833Y-108674782D01*
X134561836Y-108674785D01*
X134730256Y-108857738D01*
X134926491Y-109010474D01*
X135145190Y-109128828D01*
X135380386Y-109209571D01*
X135625665Y-109250500D01*
X135874335Y-109250500D01*
X136119614Y-109209571D01*
X136354810Y-109128828D01*
X136573509Y-109010474D01*
X136769744Y-108857738D01*
X136938164Y-108674785D01*
X137074173Y-108466607D01*
X137174063Y-108238881D01*
X137235108Y-107997821D01*
X137242131Y-107913066D01*
X137255643Y-107750005D01*
X137255643Y-107749994D01*
X137235109Y-107502187D01*
X137235107Y-107502175D01*
X137174063Y-107261118D01*
X137074173Y-107033393D01*
X136938166Y-106825217D01*
X136901482Y-106785368D01*
X136769744Y-106642262D01*
X136573509Y-106489526D01*
X136573507Y-106489525D01*
X136573506Y-106489524D01*
X136354811Y-106371172D01*
X136354802Y-106371169D01*
X136119616Y-106290429D01*
X135874335Y-106249500D01*
X135625665Y-106249500D01*
X135380383Y-106290429D01*
X135145197Y-106371169D01*
X135145188Y-106371172D01*
X134926493Y-106489524D01*
X134730257Y-106642261D01*
X134561833Y-106825217D01*
X134425826Y-107033393D01*
X134325936Y-107261118D01*
X134264892Y-107502175D01*
X134264890Y-107502187D01*
X134244357Y-107749994D01*
X130755643Y-107749994D01*
X130735109Y-107502187D01*
X130735107Y-107502175D01*
X130674063Y-107261118D01*
X130574173Y-107033393D01*
X130438166Y-106825217D01*
X130401482Y-106785368D01*
X130269744Y-106642262D01*
X130073509Y-106489526D01*
X130073507Y-106489525D01*
X130073506Y-106489524D01*
X129854811Y-106371172D01*
X129854802Y-106371169D01*
X129619616Y-106290429D01*
X129374335Y-106249500D01*
X129125665Y-106249500D01*
X128880383Y-106290429D01*
X128645197Y-106371169D01*
X128645188Y-106371172D01*
X128426493Y-106489524D01*
X128230257Y-106642261D01*
X128061833Y-106825217D01*
X127925826Y-107033393D01*
X127825936Y-107261118D01*
X127764892Y-107502175D01*
X127764890Y-107502187D01*
X127744357Y-107749994D01*
X107500500Y-107749994D01*
X107500500Y-99499996D01*
X108194435Y-99499996D01*
X108194435Y-99500003D01*
X108214630Y-99679249D01*
X108214631Y-99679254D01*
X108274211Y-99849523D01*
X108347780Y-99966606D01*
X108370184Y-100002262D01*
X108497738Y-100129816D01*
X108650478Y-100225789D01*
X108803258Y-100279249D01*
X108820745Y-100285368D01*
X108820750Y-100285369D01*
X108999996Y-100305565D01*
X109000000Y-100305565D01*
X109000004Y-100305565D01*
X109179249Y-100285369D01*
X109179252Y-100285368D01*
X109179255Y-100285368D01*
X109349522Y-100225789D01*
X109502262Y-100129816D01*
X109629816Y-100002262D01*
X109725789Y-99849522D01*
X109785368Y-99679255D01*
X109788602Y-99650556D01*
X109805565Y-99500003D01*
X109805565Y-99499996D01*
X109785369Y-99320750D01*
X109785368Y-99320745D01*
X109760611Y-99249994D01*
X127744357Y-99249994D01*
X127744357Y-99250005D01*
X127764890Y-99497812D01*
X127764892Y-99497824D01*
X127825936Y-99738881D01*
X127925826Y-99966606D01*
X128061833Y-100174782D01*
X128061836Y-100174785D01*
X128230256Y-100357738D01*
X128426491Y-100510474D01*
X128426493Y-100510475D01*
X128626092Y-100618493D01*
X128645190Y-100628828D01*
X128880386Y-100709571D01*
X129125665Y-100750500D01*
X129374335Y-100750500D01*
X129619614Y-100709571D01*
X129854810Y-100628828D01*
X130073509Y-100510474D01*
X130269744Y-100357738D01*
X130438164Y-100174785D01*
X130574173Y-99966607D01*
X130674063Y-99738881D01*
X130735108Y-99497821D01*
X130737398Y-99470184D01*
X130755643Y-99250005D01*
X130755643Y-99249994D01*
X134244357Y-99249994D01*
X134244357Y-99250005D01*
X134264890Y-99497812D01*
X134264892Y-99497824D01*
X134325936Y-99738881D01*
X134425826Y-99966606D01*
X134561833Y-100174782D01*
X134561836Y-100174785D01*
X134730256Y-100357738D01*
X134926491Y-100510474D01*
X134926493Y-100510475D01*
X135126092Y-100618493D01*
X135145190Y-100628828D01*
X135380386Y-100709571D01*
X135625665Y-100750500D01*
X135874335Y-100750500D01*
X136119614Y-100709571D01*
X136354810Y-100628828D01*
X136573509Y-100510474D01*
X136769744Y-100357738D01*
X136938164Y-100174785D01*
X137074173Y-99966607D01*
X137174063Y-99738881D01*
X137235108Y-99497821D01*
X137237398Y-99470184D01*
X137255643Y-99250005D01*
X137255643Y-99249994D01*
X137235109Y-99002187D01*
X137235107Y-99002175D01*
X137174063Y-98761118D01*
X137074173Y-98533393D01*
X136938166Y-98325217D01*
X136901481Y-98285367D01*
X136769744Y-98142262D01*
X136573509Y-97989526D01*
X136573507Y-97989525D01*
X136573506Y-97989524D01*
X136354811Y-97871172D01*
X136354802Y-97871169D01*
X136119616Y-97790429D01*
X135874335Y-97749500D01*
X135625665Y-97749500D01*
X135380383Y-97790429D01*
X135145197Y-97871169D01*
X135145188Y-97871172D01*
X134926493Y-97989524D01*
X134730257Y-98142261D01*
X134561833Y-98325217D01*
X134425826Y-98533393D01*
X134325936Y-98761118D01*
X134264892Y-99002175D01*
X134264890Y-99002187D01*
X134244357Y-99249994D01*
X130755643Y-99249994D01*
X130735109Y-99002187D01*
X130735107Y-99002175D01*
X130674063Y-98761118D01*
X130574173Y-98533393D01*
X130438166Y-98325217D01*
X130401481Y-98285367D01*
X130269744Y-98142262D01*
X130073509Y-97989526D01*
X130073507Y-97989525D01*
X130073506Y-97989524D01*
X129854811Y-97871172D01*
X129854802Y-97871169D01*
X129619616Y-97790429D01*
X129374335Y-97749500D01*
X129125665Y-97749500D01*
X128880383Y-97790429D01*
X128645197Y-97871169D01*
X128645188Y-97871172D01*
X128426493Y-97989524D01*
X128230257Y-98142261D01*
X128061833Y-98325217D01*
X127925826Y-98533393D01*
X127825936Y-98761118D01*
X127764892Y-99002175D01*
X127764890Y-99002187D01*
X127744357Y-99249994D01*
X109760611Y-99249994D01*
X109725789Y-99150478D01*
X109629816Y-98997738D01*
X109502262Y-98870184D01*
X109349523Y-98774211D01*
X109179254Y-98714631D01*
X109179249Y-98714630D01*
X109000004Y-98694435D01*
X108999996Y-98694435D01*
X108820750Y-98714630D01*
X108820745Y-98714631D01*
X108650476Y-98774211D01*
X108497737Y-98870184D01*
X108370184Y-98997737D01*
X108274211Y-99150476D01*
X108214631Y-99320745D01*
X108214630Y-99320750D01*
X108194435Y-99499996D01*
X107500500Y-99499996D01*
X107500500Y-98416321D01*
X107520185Y-98349282D01*
X107572989Y-98303527D01*
X107610613Y-98293101D01*
X107679255Y-98285368D01*
X107849522Y-98225789D01*
X108002262Y-98129816D01*
X108129816Y-98002262D01*
X108225789Y-97849522D01*
X108285368Y-97679255D01*
X108285369Y-97679249D01*
X108305565Y-97500003D01*
X108305565Y-97499996D01*
X108285369Y-97320750D01*
X108285368Y-97320745D01*
X108241170Y-97194435D01*
X108225789Y-97150478D01*
X108129816Y-96997738D01*
X108002262Y-96870184D01*
X107963121Y-96845590D01*
X107849523Y-96774211D01*
X107679254Y-96714631D01*
X107679249Y-96714630D01*
X107500004Y-96694435D01*
X107499996Y-96694435D01*
X107347136Y-96711657D01*
X107278314Y-96699602D01*
X107228259Y-96654409D01*
X107212806Y-96629816D01*
X107129816Y-96497738D01*
X107002262Y-96370184D01*
X106969379Y-96349522D01*
X106849523Y-96274211D01*
X106679254Y-96214631D01*
X106679249Y-96214630D01*
X106500004Y-96194435D01*
X106499996Y-96194435D01*
X106320750Y-96214630D01*
X106320745Y-96214631D01*
X106150476Y-96274211D01*
X105997737Y-96370184D01*
X105870184Y-96497737D01*
X105774211Y-96650476D01*
X105714631Y-96820745D01*
X105714630Y-96820750D01*
X105694435Y-96999996D01*
X105694435Y-97000003D01*
X105714630Y-97179249D01*
X105714631Y-97179254D01*
X105774211Y-97349523D01*
X105834515Y-97445496D01*
X105868760Y-97499996D01*
X105870185Y-97502263D01*
X105872445Y-97505097D01*
X105873334Y-97507275D01*
X105873889Y-97508158D01*
X105873734Y-97508255D01*
X105898855Y-97569783D01*
X105899500Y-97582412D01*
X105899500Y-103996523D01*
X105879815Y-104063562D01*
X105827011Y-104109317D01*
X105757853Y-104119261D01*
X105694297Y-104090236D01*
X105670507Y-104062496D01*
X105629817Y-103997739D01*
X105502262Y-103870184D01*
X105349523Y-103774211D01*
X105179254Y-103714631D01*
X105179249Y-103714630D01*
X105000004Y-103694435D01*
X104999996Y-103694435D01*
X104820750Y-103714630D01*
X104820739Y-103714633D01*
X104765453Y-103733978D01*
X104695674Y-103737539D01*
X104635047Y-103702809D01*
X104602821Y-103640816D01*
X104600500Y-103616936D01*
X104600500Y-95082412D01*
X104620185Y-95015373D01*
X104627555Y-95005097D01*
X104629810Y-95002267D01*
X104629816Y-95002262D01*
X104725789Y-94849522D01*
X104760615Y-94749994D01*
X127744357Y-94749994D01*
X127744357Y-94750000D01*
X127764890Y-94997812D01*
X127764892Y-94997824D01*
X127825936Y-95238881D01*
X127925826Y-95466606D01*
X128061833Y-95674782D01*
X128061836Y-95674785D01*
X128230256Y-95857738D01*
X128426491Y-96010474D01*
X128645190Y-96128828D01*
X128880386Y-96209571D01*
X129125665Y-96250500D01*
X129374335Y-96250500D01*
X129619614Y-96209571D01*
X129854810Y-96128828D01*
X130073509Y-96010474D01*
X130269744Y-95857738D01*
X130438164Y-95674785D01*
X130574173Y-95466607D01*
X130674063Y-95238881D01*
X130735108Y-94997821D01*
X130743206Y-94900099D01*
X130755643Y-94750000D01*
X130755643Y-94749994D01*
X134244357Y-94749994D01*
X134244357Y-94750000D01*
X134264890Y-94997812D01*
X134264892Y-94997824D01*
X134325936Y-95238881D01*
X134425826Y-95466606D01*
X134561833Y-95674782D01*
X134561836Y-95674785D01*
X134730256Y-95857738D01*
X134926491Y-96010474D01*
X135145190Y-96128828D01*
X135380386Y-96209571D01*
X135625665Y-96250500D01*
X135874335Y-96250500D01*
X136119614Y-96209571D01*
X136354810Y-96128828D01*
X136573509Y-96010474D01*
X136769744Y-95857738D01*
X136938164Y-95674785D01*
X137074173Y-95466607D01*
X137174063Y-95238881D01*
X137235108Y-94997821D01*
X137243206Y-94900099D01*
X137255643Y-94750000D01*
X137255643Y-94749994D01*
X137235109Y-94502187D01*
X137235107Y-94502175D01*
X137174063Y-94261118D01*
X137074173Y-94033393D01*
X136938166Y-93825217D01*
X136916557Y-93801744D01*
X136769744Y-93642262D01*
X136573509Y-93489526D01*
X136573507Y-93489525D01*
X136573506Y-93489524D01*
X136354811Y-93371172D01*
X136354802Y-93371169D01*
X136119616Y-93290429D01*
X135874335Y-93249500D01*
X135625665Y-93249500D01*
X135380383Y-93290429D01*
X135145197Y-93371169D01*
X135145188Y-93371172D01*
X134926493Y-93489524D01*
X134730257Y-93642261D01*
X134730256Y-93642262D01*
X134722693Y-93650478D01*
X134561833Y-93825217D01*
X134425826Y-94033393D01*
X134325936Y-94261118D01*
X134264892Y-94502175D01*
X134264890Y-94502187D01*
X134244357Y-94749994D01*
X130755643Y-94749994D01*
X130735109Y-94502187D01*
X130735107Y-94502175D01*
X130674063Y-94261118D01*
X130574173Y-94033393D01*
X130438166Y-93825217D01*
X130416557Y-93801744D01*
X130269744Y-93642262D01*
X130073509Y-93489526D01*
X130073507Y-93489525D01*
X130073506Y-93489524D01*
X129854811Y-93371172D01*
X129854802Y-93371169D01*
X129619616Y-93290429D01*
X129374335Y-93249500D01*
X129125665Y-93249500D01*
X128880383Y-93290429D01*
X128645197Y-93371169D01*
X128645188Y-93371172D01*
X128426493Y-93489524D01*
X128230257Y-93642261D01*
X128230256Y-93642262D01*
X128222693Y-93650478D01*
X128061833Y-93825217D01*
X127925826Y-94033393D01*
X127825936Y-94261118D01*
X127764892Y-94502175D01*
X127764890Y-94502187D01*
X127744357Y-94749994D01*
X104760615Y-94749994D01*
X104785368Y-94679255D01*
X104785369Y-94679249D01*
X104805565Y-94500003D01*
X104805565Y-94499996D01*
X104785369Y-94320750D01*
X104785368Y-94320745D01*
X104760613Y-94250000D01*
X104725789Y-94150478D01*
X104629816Y-93997738D01*
X104502262Y-93870184D01*
X104430698Y-93825217D01*
X104349523Y-93774211D01*
X104179254Y-93714631D01*
X104179249Y-93714630D01*
X104000004Y-93694435D01*
X103999996Y-93694435D01*
X103820750Y-93714630D01*
X103820745Y-93714631D01*
X103650476Y-93774211D01*
X103497737Y-93870184D01*
X103370184Y-93997737D01*
X103274211Y-94150476D01*
X103214631Y-94320745D01*
X103214630Y-94320750D01*
X103194435Y-94499996D01*
X103194435Y-94500003D01*
X103214630Y-94679249D01*
X103214631Y-94679254D01*
X103274211Y-94849523D01*
X103334515Y-94945496D01*
X103367395Y-94997824D01*
X103370185Y-95002263D01*
X103372445Y-95005097D01*
X103373334Y-95007275D01*
X103373889Y-95008158D01*
X103373734Y-95008255D01*
X103398855Y-95069783D01*
X103399500Y-95082412D01*
X103399500Y-118083677D01*
X103379815Y-118150716D01*
X103327011Y-118196471D01*
X103289384Y-118206897D01*
X103220750Y-118214630D01*
X103050478Y-118274210D01*
X102897737Y-118370184D01*
X102770184Y-118497737D01*
X102674211Y-118650476D01*
X102614631Y-118820745D01*
X102614630Y-118820750D01*
X102594435Y-118999996D01*
X102594435Y-119000003D01*
X102614630Y-119179249D01*
X102614631Y-119179254D01*
X102674211Y-119349523D01*
X102770184Y-119502262D01*
X102871662Y-119603740D01*
X102905147Y-119665063D01*
X102900163Y-119734755D01*
X102871663Y-119779100D01*
X102787582Y-119863182D01*
X102726262Y-119896666D01*
X102699903Y-119899500D01*
X72250097Y-119899500D01*
X72183058Y-119879815D01*
X72162416Y-119863181D01*
X71687590Y-119388355D01*
X71687588Y-119388352D01*
X71568717Y-119269481D01*
X71568709Y-119269475D01*
X71562498Y-119265889D01*
X71514283Y-119215322D01*
X71500499Y-119158503D01*
X71500499Y-118702129D01*
X71500498Y-118702123D01*
X71500497Y-118702116D01*
X71494091Y-118642517D01*
X71443796Y-118507669D01*
X71443795Y-118507668D01*
X71443793Y-118507664D01*
X71357547Y-118392455D01*
X71357544Y-118392452D01*
X71242335Y-118306206D01*
X71242328Y-118306202D01*
X71107482Y-118255908D01*
X71107483Y-118255908D01*
X71047883Y-118249501D01*
X71047881Y-118249500D01*
X71047873Y-118249500D01*
X71047864Y-118249500D01*
X68952129Y-118249500D01*
X68952123Y-118249501D01*
X68892516Y-118255908D01*
X68757671Y-118306202D01*
X68757664Y-118306206D01*
X68642455Y-118392452D01*
X68642452Y-118392455D01*
X68556206Y-118507664D01*
X68556202Y-118507671D01*
X68505908Y-118642517D01*
X68504414Y-118656418D01*
X68499501Y-118702123D01*
X68499500Y-118702135D01*
X68499500Y-120797870D01*
X68499501Y-120797876D01*
X68505908Y-120857483D01*
X68556202Y-120992328D01*
X68556206Y-120992335D01*
X68642452Y-121107544D01*
X68642455Y-121107547D01*
X68757664Y-121193793D01*
X68757671Y-121193797D01*
X68892517Y-121244091D01*
X68892516Y-121244091D01*
X68899444Y-121244835D01*
X68952127Y-121250500D01*
X70600902Y-121250499D01*
X70667941Y-121270184D01*
X70713696Y-121322987D01*
X70723640Y-121392146D01*
X70694615Y-121455702D01*
X70688583Y-121462180D01*
X69131286Y-123019478D01*
X69019481Y-123131282D01*
X69019479Y-123131284D01*
X68999271Y-123166286D01*
X68990730Y-123181081D01*
X68940423Y-123268215D01*
X68899499Y-123420943D01*
X68899499Y-123420945D01*
X68899499Y-123589046D01*
X68899500Y-123589059D01*
X68899500Y-131199901D01*
X68879815Y-131266940D01*
X68863182Y-131287582D01*
X68787584Y-131363181D01*
X68726261Y-131396666D01*
X68699902Y-131399500D01*
X67336670Y-131399500D01*
X67336654Y-131399499D01*
X67329058Y-131399499D01*
X67170943Y-131399499D01*
X67094579Y-131419961D01*
X67018214Y-131440423D01*
X67018209Y-131440426D01*
X66881290Y-131519475D01*
X66881282Y-131519481D01*
X65603548Y-132797215D01*
X65542225Y-132830700D01*
X65475604Y-132826815D01*
X65369616Y-132790429D01*
X65124335Y-132749500D01*
X64875665Y-132749500D01*
X64630383Y-132790429D01*
X64395197Y-132871169D01*
X64395188Y-132871172D01*
X64176493Y-132989524D01*
X63980257Y-133142261D01*
X63980256Y-133142262D01*
X63972693Y-133150478D01*
X63811833Y-133325217D01*
X63675826Y-133533393D01*
X63575936Y-133761118D01*
X63514892Y-134002175D01*
X63514890Y-134002187D01*
X63494357Y-134249994D01*
X58500500Y-134249994D01*
X58500500Y-125118872D01*
X59799500Y-125118872D01*
X59799500Y-128381127D01*
X59816615Y-128511118D01*
X59833730Y-128641116D01*
X59901602Y-128894418D01*
X59901605Y-128894428D01*
X60001953Y-129136690D01*
X60001958Y-129136700D01*
X60133075Y-129363803D01*
X60292718Y-129571851D01*
X60292726Y-129571860D01*
X60478140Y-129757274D01*
X60478148Y-129757281D01*
X60686196Y-129916924D01*
X60913299Y-130048041D01*
X60913309Y-130048046D01*
X61057419Y-130107738D01*
X61155581Y-130148398D01*
X61408884Y-130216270D01*
X61668880Y-130250500D01*
X61668887Y-130250500D01*
X61931113Y-130250500D01*
X61931120Y-130250500D01*
X62191116Y-130216270D01*
X62444419Y-130148398D01*
X62686697Y-130048043D01*
X62913803Y-129916924D01*
X63121851Y-129757282D01*
X63121855Y-129757277D01*
X63121860Y-129757274D01*
X63307274Y-129571860D01*
X63307277Y-129571855D01*
X63307282Y-129571851D01*
X63466924Y-129363803D01*
X63598043Y-129136697D01*
X63698398Y-128894419D01*
X63766270Y-128641116D01*
X63800500Y-128381120D01*
X63800500Y-125118880D01*
X63766270Y-124858884D01*
X63698398Y-124605581D01*
X63698394Y-124605571D01*
X63598046Y-124363309D01*
X63598041Y-124363299D01*
X63466924Y-124136196D01*
X63307281Y-123928148D01*
X63307274Y-123928140D01*
X63121860Y-123742726D01*
X63121851Y-123742718D01*
X62913803Y-123583075D01*
X62686700Y-123451958D01*
X62686690Y-123451953D01*
X62444428Y-123351605D01*
X62444421Y-123351603D01*
X62444419Y-123351602D01*
X62191116Y-123283730D01*
X62133339Y-123276123D01*
X61931127Y-123249500D01*
X61931120Y-123249500D01*
X61668880Y-123249500D01*
X61668872Y-123249500D01*
X61437772Y-123279926D01*
X61408884Y-123283730D01*
X61186453Y-123343330D01*
X61155581Y-123351602D01*
X61155571Y-123351605D01*
X60913309Y-123451953D01*
X60913299Y-123451958D01*
X60686196Y-123583075D01*
X60478148Y-123742718D01*
X60292718Y-123928148D01*
X60133075Y-124136196D01*
X60001958Y-124363299D01*
X60001953Y-124363309D01*
X59901605Y-124605571D01*
X59901602Y-124605581D01*
X59838191Y-124842238D01*
X59833730Y-124858885D01*
X59799500Y-125118872D01*
X58500500Y-125118872D01*
X58500500Y-119749994D01*
X63494357Y-119749994D01*
X63494357Y-119750005D01*
X63514890Y-119997812D01*
X63514892Y-119997824D01*
X63575936Y-120238881D01*
X63675826Y-120466606D01*
X63811833Y-120674782D01*
X63811836Y-120674785D01*
X63980256Y-120857738D01*
X64176491Y-121010474D01*
X64395190Y-121128828D01*
X64630386Y-121209571D01*
X64875665Y-121250500D01*
X65124335Y-121250500D01*
X65369614Y-121209571D01*
X65604810Y-121128828D01*
X65823509Y-121010474D01*
X66019744Y-120857738D01*
X66188164Y-120674785D01*
X66324173Y-120466607D01*
X66424063Y-120238881D01*
X66485108Y-119997821D01*
X66493490Y-119896666D01*
X66505643Y-119750005D01*
X66505643Y-119749994D01*
X66485109Y-119502187D01*
X66485107Y-119502175D01*
X66424063Y-119261118D01*
X66324173Y-119033393D01*
X66188166Y-118825217D01*
X66119755Y-118750903D01*
X66019744Y-118642262D01*
X65823509Y-118489526D01*
X65823507Y-118489525D01*
X65823506Y-118489524D01*
X65604811Y-118371172D01*
X65604802Y-118371169D01*
X65369616Y-118290429D01*
X65124335Y-118249500D01*
X64875665Y-118249500D01*
X64630383Y-118290429D01*
X64395197Y-118371169D01*
X64395188Y-118371172D01*
X64176493Y-118489524D01*
X64153178Y-118507671D01*
X63980256Y-118642262D01*
X63972693Y-118650478D01*
X63811833Y-118825217D01*
X63675826Y-119033393D01*
X63575936Y-119261118D01*
X63514892Y-119502175D01*
X63514890Y-119502187D01*
X63494357Y-119749994D01*
X58500500Y-119749994D01*
X58500500Y-113999996D01*
X95194435Y-113999996D01*
X95194435Y-114000003D01*
X95214630Y-114179249D01*
X95214631Y-114179254D01*
X95274211Y-114349523D01*
X95370184Y-114502262D01*
X95497738Y-114629816D01*
X95650478Y-114725789D01*
X95820745Y-114785368D01*
X95820750Y-114785369D01*
X95999996Y-114805565D01*
X96000000Y-114805565D01*
X96000004Y-114805565D01*
X96179249Y-114785369D01*
X96179252Y-114785368D01*
X96179255Y-114785368D01*
X96349522Y-114725789D01*
X96502262Y-114629816D01*
X96629816Y-114502262D01*
X96725789Y-114349522D01*
X96785368Y-114179255D01*
X96805565Y-114000000D01*
X96785368Y-113820745D01*
X96725789Y-113650478D01*
X96712185Y-113628828D01*
X96637819Y-113510475D01*
X96629816Y-113497738D01*
X96502262Y-113370184D01*
X96482454Y-113357738D01*
X96349523Y-113274211D01*
X96179254Y-113214631D01*
X96179249Y-113214630D01*
X96000004Y-113194435D01*
X95999996Y-113194435D01*
X95820750Y-113214630D01*
X95820745Y-113214631D01*
X95650476Y-113274211D01*
X95497737Y-113370184D01*
X95370184Y-113497737D01*
X95274211Y-113650476D01*
X95214631Y-113820745D01*
X95214630Y-113820750D01*
X95194435Y-113999996D01*
X58500500Y-113999996D01*
X58500500Y-112249994D01*
X62744357Y-112249994D01*
X62744357Y-112250005D01*
X62764890Y-112497812D01*
X62764892Y-112497824D01*
X62825936Y-112738881D01*
X62925826Y-112966606D01*
X63061833Y-113174782D01*
X63061836Y-113174785D01*
X63230256Y-113357738D01*
X63426491Y-113510474D01*
X63645190Y-113628828D01*
X63880386Y-113709571D01*
X64125665Y-113750500D01*
X64374335Y-113750500D01*
X64619614Y-113709571D01*
X64854810Y-113628828D01*
X65073509Y-113510474D01*
X65269744Y-113357738D01*
X65438164Y-113174785D01*
X65574173Y-112966607D01*
X65674063Y-112738881D01*
X65735108Y-112497821D01*
X65755643Y-112250000D01*
X65755643Y-112249994D01*
X69244357Y-112249994D01*
X69244357Y-112250005D01*
X69264890Y-112497812D01*
X69264892Y-112497824D01*
X69325936Y-112738881D01*
X69425826Y-112966606D01*
X69561833Y-113174782D01*
X69561836Y-113174785D01*
X69730256Y-113357738D01*
X69926491Y-113510474D01*
X70145190Y-113628828D01*
X70380386Y-113709571D01*
X70625665Y-113750500D01*
X70874335Y-113750500D01*
X71119614Y-113709571D01*
X71354810Y-113628828D01*
X71573509Y-113510474D01*
X71769744Y-113357738D01*
X71938164Y-113174785D01*
X72074173Y-112966607D01*
X72174063Y-112738881D01*
X72235108Y-112497821D01*
X72255643Y-112250000D01*
X72253970Y-112229815D01*
X72235109Y-112002187D01*
X72235107Y-112002175D01*
X72174063Y-111761118D01*
X72103388Y-111599996D01*
X86694435Y-111599996D01*
X86694435Y-111600003D01*
X86714630Y-111779249D01*
X86714631Y-111779254D01*
X86774211Y-111949523D01*
X86870184Y-112102262D01*
X86997738Y-112229816D01*
X87150478Y-112325789D01*
X87320745Y-112385368D01*
X87320750Y-112385369D01*
X87499996Y-112405565D01*
X87500000Y-112405565D01*
X87500004Y-112405565D01*
X87679249Y-112385369D01*
X87679252Y-112385368D01*
X87679255Y-112385368D01*
X87849522Y-112325789D01*
X88002262Y-112229816D01*
X88129816Y-112102262D01*
X88225789Y-111949522D01*
X88225789Y-111949519D01*
X88228259Y-111945590D01*
X88280594Y-111899299D01*
X88347136Y-111888342D01*
X88499996Y-111905565D01*
X88500000Y-111905565D01*
X88500004Y-111905565D01*
X88679249Y-111885369D01*
X88679252Y-111885368D01*
X88679255Y-111885368D01*
X88849522Y-111825789D01*
X89002262Y-111729816D01*
X89129816Y-111602262D01*
X89225789Y-111449522D01*
X89285368Y-111279255D01*
X89285369Y-111279249D01*
X89305565Y-111100003D01*
X89305565Y-111099996D01*
X89285369Y-110920750D01*
X89285368Y-110920745D01*
X89268021Y-110871169D01*
X89225789Y-110750478D01*
X89225174Y-110749500D01*
X89186582Y-110688080D01*
X89129816Y-110597738D01*
X89002262Y-110470184D01*
X88849523Y-110374211D01*
X88679254Y-110314631D01*
X88679249Y-110314630D01*
X88500004Y-110294435D01*
X88499996Y-110294435D01*
X88320750Y-110314630D01*
X88320745Y-110314631D01*
X88150476Y-110374211D01*
X87997737Y-110470184D01*
X87870182Y-110597739D01*
X87771739Y-110754410D01*
X87719405Y-110800700D01*
X87652863Y-110811657D01*
X87500004Y-110794435D01*
X87499996Y-110794435D01*
X87320750Y-110814630D01*
X87320745Y-110814631D01*
X87150476Y-110874211D01*
X86997737Y-110970184D01*
X86870184Y-111097737D01*
X86774211Y-111250476D01*
X86714631Y-111420745D01*
X86714630Y-111420750D01*
X86694435Y-111599996D01*
X72103388Y-111599996D01*
X72074173Y-111533393D01*
X71938166Y-111325217D01*
X71895849Y-111279249D01*
X71769744Y-111142262D01*
X71573509Y-110989526D01*
X71573507Y-110989525D01*
X71573506Y-110989524D01*
X71354811Y-110871172D01*
X71354802Y-110871169D01*
X71119616Y-110790429D01*
X70874335Y-110749500D01*
X70625665Y-110749500D01*
X70380383Y-110790429D01*
X70145197Y-110871169D01*
X70145188Y-110871172D01*
X69926493Y-110989524D01*
X69730257Y-111142261D01*
X69561833Y-111325217D01*
X69425826Y-111533393D01*
X69325936Y-111761118D01*
X69264892Y-112002175D01*
X69264890Y-112002187D01*
X69244357Y-112249994D01*
X65755643Y-112249994D01*
X65753970Y-112229815D01*
X65735109Y-112002187D01*
X65735107Y-112002175D01*
X65674063Y-111761118D01*
X65574173Y-111533393D01*
X65438166Y-111325217D01*
X65395849Y-111279249D01*
X65269744Y-111142262D01*
X65073509Y-110989526D01*
X65073507Y-110989525D01*
X65073506Y-110989524D01*
X64854811Y-110871172D01*
X64854802Y-110871169D01*
X64619616Y-110790429D01*
X64374335Y-110749500D01*
X64125665Y-110749500D01*
X63880383Y-110790429D01*
X63645197Y-110871169D01*
X63645188Y-110871172D01*
X63426493Y-110989524D01*
X63230257Y-111142261D01*
X63061833Y-111325217D01*
X62925826Y-111533393D01*
X62825936Y-111761118D01*
X62764892Y-112002175D01*
X62764890Y-112002187D01*
X62744357Y-112249994D01*
X58500500Y-112249994D01*
X58500500Y-107749994D01*
X62744357Y-107749994D01*
X62744357Y-107750005D01*
X62764890Y-107997812D01*
X62764892Y-107997824D01*
X62825936Y-108238881D01*
X62925826Y-108466606D01*
X63061833Y-108674782D01*
X63061836Y-108674785D01*
X63230256Y-108857738D01*
X63426491Y-109010474D01*
X63645190Y-109128828D01*
X63880386Y-109209571D01*
X64125665Y-109250500D01*
X64374335Y-109250500D01*
X64619614Y-109209571D01*
X64854810Y-109128828D01*
X65073509Y-109010474D01*
X65269744Y-108857738D01*
X65438164Y-108674785D01*
X65574173Y-108466607D01*
X65674063Y-108238881D01*
X65735108Y-107997821D01*
X65742131Y-107913066D01*
X65755643Y-107750005D01*
X65755643Y-107749994D01*
X69244357Y-107749994D01*
X69244357Y-107750005D01*
X69264890Y-107997812D01*
X69264892Y-107997824D01*
X69325936Y-108238881D01*
X69425826Y-108466606D01*
X69561833Y-108674782D01*
X69561836Y-108674785D01*
X69730256Y-108857738D01*
X69926491Y-109010474D01*
X70145190Y-109128828D01*
X70380386Y-109209571D01*
X70625665Y-109250500D01*
X70874335Y-109250500D01*
X71119614Y-109209571D01*
X71354810Y-109128828D01*
X71573509Y-109010474D01*
X71769744Y-108857738D01*
X71938164Y-108674785D01*
X72074173Y-108466607D01*
X72174063Y-108238881D01*
X72235108Y-107997821D01*
X72242131Y-107913066D01*
X72255643Y-107750005D01*
X72255643Y-107749994D01*
X72235109Y-107502187D01*
X72235107Y-107502175D01*
X72174063Y-107261118D01*
X72074173Y-107033393D01*
X71938166Y-106825217D01*
X71901482Y-106785368D01*
X71769744Y-106642262D01*
X71573509Y-106489526D01*
X71573507Y-106489525D01*
X71573506Y-106489524D01*
X71354811Y-106371172D01*
X71354802Y-106371169D01*
X71119616Y-106290429D01*
X70874335Y-106249500D01*
X70625665Y-106249500D01*
X70380383Y-106290429D01*
X70145197Y-106371169D01*
X70145188Y-106371172D01*
X69926493Y-106489524D01*
X69730257Y-106642261D01*
X69561833Y-106825217D01*
X69425826Y-107033393D01*
X69325936Y-107261118D01*
X69264892Y-107502175D01*
X69264890Y-107502187D01*
X69244357Y-107749994D01*
X65755643Y-107749994D01*
X65735109Y-107502187D01*
X65735107Y-107502175D01*
X65674063Y-107261118D01*
X65574173Y-107033393D01*
X65438166Y-106825217D01*
X65401482Y-106785368D01*
X65269744Y-106642262D01*
X65073509Y-106489526D01*
X65073507Y-106489525D01*
X65073506Y-106489524D01*
X64854811Y-106371172D01*
X64854802Y-106371169D01*
X64619616Y-106290429D01*
X64374335Y-106249500D01*
X64125665Y-106249500D01*
X63880383Y-106290429D01*
X63645197Y-106371169D01*
X63645188Y-106371172D01*
X63426493Y-106489524D01*
X63230257Y-106642261D01*
X63061833Y-106825217D01*
X62925826Y-107033393D01*
X62825936Y-107261118D01*
X62764892Y-107502175D01*
X62764890Y-107502187D01*
X62744357Y-107749994D01*
X58500500Y-107749994D01*
X58500500Y-99249994D01*
X62744357Y-99249994D01*
X62744357Y-99250005D01*
X62764890Y-99497812D01*
X62764892Y-99497824D01*
X62825936Y-99738881D01*
X62925826Y-99966606D01*
X63061833Y-100174782D01*
X63061836Y-100174785D01*
X63230256Y-100357738D01*
X63426491Y-100510474D01*
X63426493Y-100510475D01*
X63626092Y-100618493D01*
X63645190Y-100628828D01*
X63880386Y-100709571D01*
X64125665Y-100750500D01*
X64374335Y-100750500D01*
X64619614Y-100709571D01*
X64854810Y-100628828D01*
X65073509Y-100510474D01*
X65269744Y-100357738D01*
X65438164Y-100174785D01*
X65574173Y-99966607D01*
X65674063Y-99738881D01*
X65735108Y-99497821D01*
X65737398Y-99470184D01*
X65755643Y-99250005D01*
X65755643Y-99249994D01*
X69244357Y-99249994D01*
X69244357Y-99250005D01*
X69264890Y-99497812D01*
X69264892Y-99497824D01*
X69325936Y-99738881D01*
X69425826Y-99966606D01*
X69561833Y-100174782D01*
X69561836Y-100174785D01*
X69730256Y-100357738D01*
X69926491Y-100510474D01*
X69926493Y-100510475D01*
X70126092Y-100618493D01*
X70145190Y-100628828D01*
X70380386Y-100709571D01*
X70625665Y-100750500D01*
X70874335Y-100750500D01*
X71119614Y-100709571D01*
X71354810Y-100628828D01*
X71573509Y-100510474D01*
X71769744Y-100357738D01*
X71938164Y-100174785D01*
X72074173Y-99966607D01*
X72174063Y-99738881D01*
X72235108Y-99497821D01*
X72237398Y-99470184D01*
X72255643Y-99250005D01*
X72255643Y-99249994D01*
X72235109Y-99002187D01*
X72235107Y-99002175D01*
X72174063Y-98761118D01*
X72074173Y-98533393D01*
X71938166Y-98325217D01*
X71901481Y-98285367D01*
X71769744Y-98142262D01*
X71573509Y-97989526D01*
X71573507Y-97989525D01*
X71573506Y-97989524D01*
X71354811Y-97871172D01*
X71354802Y-97871169D01*
X71119616Y-97790429D01*
X70874335Y-97749500D01*
X70625665Y-97749500D01*
X70380383Y-97790429D01*
X70145197Y-97871169D01*
X70145188Y-97871172D01*
X69926493Y-97989524D01*
X69730257Y-98142261D01*
X69561833Y-98325217D01*
X69425826Y-98533393D01*
X69325936Y-98761118D01*
X69264892Y-99002175D01*
X69264890Y-99002187D01*
X69244357Y-99249994D01*
X65755643Y-99249994D01*
X65735109Y-99002187D01*
X65735107Y-99002175D01*
X65674063Y-98761118D01*
X65574173Y-98533393D01*
X65438166Y-98325217D01*
X65401481Y-98285367D01*
X65269744Y-98142262D01*
X65073509Y-97989526D01*
X65073507Y-97989525D01*
X65073506Y-97989524D01*
X64854811Y-97871172D01*
X64854802Y-97871169D01*
X64619616Y-97790429D01*
X64374335Y-97749500D01*
X64125665Y-97749500D01*
X63880383Y-97790429D01*
X63645197Y-97871169D01*
X63645188Y-97871172D01*
X63426493Y-97989524D01*
X63230257Y-98142261D01*
X63061833Y-98325217D01*
X62925826Y-98533393D01*
X62825936Y-98761118D01*
X62764892Y-99002175D01*
X62764890Y-99002187D01*
X62744357Y-99249994D01*
X58500500Y-99249994D01*
X58500500Y-97039999D01*
X73144341Y-97039999D01*
X73144341Y-97040000D01*
X73164936Y-97275403D01*
X73164938Y-97275413D01*
X73226094Y-97503655D01*
X73226096Y-97503659D01*
X73226097Y-97503663D01*
X73284923Y-97629815D01*
X73325965Y-97717830D01*
X73325967Y-97717834D01*
X73461501Y-97911395D01*
X73461506Y-97911402D01*
X73628597Y-98078493D01*
X73628603Y-98078498D01*
X73814158Y-98208425D01*
X73857783Y-98263002D01*
X73864977Y-98332500D01*
X73833454Y-98394855D01*
X73814158Y-98411575D01*
X73628597Y-98541505D01*
X73461505Y-98708597D01*
X73325965Y-98902169D01*
X73325964Y-98902171D01*
X73226098Y-99116335D01*
X73226094Y-99116344D01*
X73164938Y-99344586D01*
X73164936Y-99344596D01*
X73144341Y-99579999D01*
X73144341Y-99580000D01*
X73164936Y-99815403D01*
X73164938Y-99815413D01*
X73226094Y-100043655D01*
X73226096Y-100043659D01*
X73226097Y-100043663D01*
X73289322Y-100179249D01*
X73325965Y-100257830D01*
X73325967Y-100257834D01*
X73359389Y-100305565D01*
X73460189Y-100449522D01*
X73461501Y-100451395D01*
X73461506Y-100451402D01*
X73628597Y-100618493D01*
X73628603Y-100618498D01*
X73814158Y-100748425D01*
X73857783Y-100803002D01*
X73864977Y-100872500D01*
X73833454Y-100934855D01*
X73814158Y-100951575D01*
X73628597Y-101081505D01*
X73461505Y-101248597D01*
X73325965Y-101442169D01*
X73325964Y-101442171D01*
X73226098Y-101656335D01*
X73226094Y-101656344D01*
X73164938Y-101884586D01*
X73164936Y-101884596D01*
X73144341Y-102119999D01*
X73144341Y-102120000D01*
X73164936Y-102355403D01*
X73164938Y-102355413D01*
X73226094Y-102583655D01*
X73226096Y-102583659D01*
X73226097Y-102583663D01*
X73289518Y-102719669D01*
X73325965Y-102797830D01*
X73325967Y-102797834D01*
X73461501Y-102991395D01*
X73461506Y-102991402D01*
X73628597Y-103158493D01*
X73628603Y-103158498D01*
X73814158Y-103288425D01*
X73857783Y-103343002D01*
X73864977Y-103412500D01*
X73833454Y-103474855D01*
X73814158Y-103491575D01*
X73628597Y-103621505D01*
X73461505Y-103788597D01*
X73325965Y-103982169D01*
X73325964Y-103982171D01*
X73226098Y-104196335D01*
X73226094Y-104196344D01*
X73164938Y-104424586D01*
X73164936Y-104424596D01*
X73144341Y-104659999D01*
X73144341Y-104660000D01*
X73164936Y-104895403D01*
X73164938Y-104895413D01*
X73226094Y-105123655D01*
X73226096Y-105123659D01*
X73226097Y-105123663D01*
X73301502Y-105285369D01*
X73325965Y-105337830D01*
X73325967Y-105337834D01*
X73461501Y-105531395D01*
X73461506Y-105531402D01*
X73628597Y-105698493D01*
X73628603Y-105698498D01*
X73814158Y-105828425D01*
X73857783Y-105883002D01*
X73864977Y-105952500D01*
X73833454Y-106014855D01*
X73814158Y-106031575D01*
X73628597Y-106161505D01*
X73461505Y-106328597D01*
X73325965Y-106522169D01*
X73325964Y-106522171D01*
X73226098Y-106736335D01*
X73226094Y-106736344D01*
X73164938Y-106964586D01*
X73164936Y-106964596D01*
X73144341Y-107199999D01*
X73144341Y-107200000D01*
X73164936Y-107435403D01*
X73164938Y-107435413D01*
X73226094Y-107663655D01*
X73226096Y-107663659D01*
X73226097Y-107663663D01*
X73312765Y-107849522D01*
X73325965Y-107877830D01*
X73325967Y-107877834D01*
X73409977Y-107997812D01*
X73461505Y-108071401D01*
X73628599Y-108238495D01*
X73679607Y-108274211D01*
X73822165Y-108374032D01*
X73822167Y-108374033D01*
X73822170Y-108374035D01*
X74036337Y-108473903D01*
X74264592Y-108535063D01*
X74452918Y-108551539D01*
X74499999Y-108555659D01*
X74500000Y-108555659D01*
X74500001Y-108555659D01*
X74539234Y-108552226D01*
X74735408Y-108535063D01*
X74866281Y-108499996D01*
X78194435Y-108499996D01*
X78194435Y-108500003D01*
X78214630Y-108679249D01*
X78214631Y-108679254D01*
X78274211Y-108849523D01*
X78279373Y-108857738D01*
X78370184Y-109002262D01*
X78497738Y-109129816D01*
X78563032Y-109170843D01*
X78624665Y-109209570D01*
X78650478Y-109225789D01*
X78820742Y-109285367D01*
X78820745Y-109285368D01*
X78820750Y-109285369D01*
X78999996Y-109305565D01*
X79000000Y-109305565D01*
X79000004Y-109305565D01*
X79179249Y-109285369D01*
X79179252Y-109285368D01*
X79179255Y-109285368D01*
X79349522Y-109225789D01*
X79502262Y-109129816D01*
X79629816Y-109002262D01*
X79725789Y-108849522D01*
X79785368Y-108679255D01*
X79799294Y-108555659D01*
X79805565Y-108500003D01*
X79805565Y-108499996D01*
X90194435Y-108499996D01*
X90194435Y-108500003D01*
X90214630Y-108679249D01*
X90214631Y-108679254D01*
X90274211Y-108849523D01*
X90279373Y-108857738D01*
X90370184Y-109002262D01*
X90497738Y-109129816D01*
X90563032Y-109170843D01*
X90624665Y-109209570D01*
X90650478Y-109225789D01*
X90820742Y-109285367D01*
X90820745Y-109285368D01*
X90820750Y-109285369D01*
X90999996Y-109305565D01*
X91000000Y-109305565D01*
X91000004Y-109305565D01*
X91179249Y-109285369D01*
X91179252Y-109285368D01*
X91179255Y-109285368D01*
X91349522Y-109225789D01*
X91375335Y-109209570D01*
X91434027Y-109172691D01*
X91501264Y-109153690D01*
X91565973Y-109172691D01*
X91650475Y-109225788D01*
X91820745Y-109285368D01*
X91820750Y-109285369D01*
X91999996Y-109305565D01*
X92000000Y-109305565D01*
X92000004Y-109305565D01*
X92179249Y-109285369D01*
X92179252Y-109285368D01*
X92179255Y-109285368D01*
X92349522Y-109225789D01*
X92502262Y-109129816D01*
X92629816Y-109002262D01*
X92725789Y-108849522D01*
X92785368Y-108679255D01*
X92799294Y-108555659D01*
X92805565Y-108500003D01*
X92805565Y-108499996D01*
X97194435Y-108499996D01*
X97194435Y-108500003D01*
X97214630Y-108679249D01*
X97214631Y-108679254D01*
X97274211Y-108849523D01*
X97279373Y-108857738D01*
X97370184Y-109002262D01*
X97497738Y-109129816D01*
X97563032Y-109170843D01*
X97624665Y-109209570D01*
X97650478Y-109225789D01*
X97820745Y-109285368D01*
X97829376Y-109286340D01*
X97893790Y-109313406D01*
X97918657Y-109344787D01*
X97920507Y-109343626D01*
X97924210Y-109349519D01*
X97924211Y-109349522D01*
X98020184Y-109502262D01*
X98147738Y-109629816D01*
X98300478Y-109725789D01*
X98470745Y-109785368D01*
X98470750Y-109785369D01*
X98649996Y-109805565D01*
X98650000Y-109805565D01*
X98650004Y-109805565D01*
X98829249Y-109785369D01*
X98829252Y-109785368D01*
X98829255Y-109785368D01*
X98999522Y-109725789D01*
X99152262Y-109629816D01*
X99279816Y-109502262D01*
X99375789Y-109349522D01*
X99409435Y-109253366D01*
X99450157Y-109196591D01*
X99515109Y-109170843D01*
X99583671Y-109184299D01*
X99592449Y-109189327D01*
X99624665Y-109209570D01*
X99650478Y-109225789D01*
X99820742Y-109285367D01*
X99820745Y-109285368D01*
X99820750Y-109285369D01*
X99999996Y-109305565D01*
X100000000Y-109305565D01*
X100000004Y-109305565D01*
X100179249Y-109285369D01*
X100179252Y-109285368D01*
X100179255Y-109285368D01*
X100349522Y-109225789D01*
X100502262Y-109129816D01*
X100629816Y-109002262D01*
X100725789Y-108849522D01*
X100785368Y-108679255D01*
X100799294Y-108555659D01*
X100805565Y-108500003D01*
X100805565Y-108499996D01*
X100785369Y-108320750D01*
X100785368Y-108320745D01*
X100759435Y-108246632D01*
X100725789Y-108150478D01*
X100629816Y-107997738D01*
X100606467Y-107974389D01*
X100572982Y-107913066D01*
X100577106Y-107845756D01*
X100622990Y-107714630D01*
X100635367Y-107679259D01*
X100635369Y-107679249D01*
X100655565Y-107500003D01*
X100655565Y-107499996D01*
X100635369Y-107320750D01*
X100635368Y-107320745D01*
X100614504Y-107261118D01*
X100575789Y-107150478D01*
X100479816Y-106997738D01*
X100352262Y-106870184D01*
X100280698Y-106825217D01*
X100199523Y-106774211D01*
X100029254Y-106714631D01*
X100029249Y-106714630D01*
X99850004Y-106694435D01*
X99849996Y-106694435D01*
X99670750Y-106714630D01*
X99670745Y-106714631D01*
X99500476Y-106774211D01*
X99347737Y-106870184D01*
X99220184Y-106997737D01*
X99124211Y-107150476D01*
X99064631Y-107320745D01*
X99064630Y-107320750D01*
X99044435Y-107499996D01*
X99044435Y-107500003D01*
X99064630Y-107679249D01*
X99064631Y-107679254D01*
X99124211Y-107849523D01*
X99220184Y-108002262D01*
X99243531Y-108025609D01*
X99277016Y-108086932D01*
X99272892Y-108154243D01*
X99240565Y-108246632D01*
X99199844Y-108303409D01*
X99134892Y-108329157D01*
X99066330Y-108315701D01*
X99057551Y-108310673D01*
X98999521Y-108274210D01*
X98888833Y-108235479D01*
X98829255Y-108214632D01*
X98820617Y-108213658D01*
X98756205Y-108186590D01*
X98731342Y-108155212D01*
X98729494Y-108156374D01*
X98676098Y-108071395D01*
X98629816Y-107997738D01*
X98502262Y-107870184D01*
X98434027Y-107827309D01*
X98349523Y-107774211D01*
X98179254Y-107714631D01*
X98179249Y-107714630D01*
X98000004Y-107694435D01*
X97999996Y-107694435D01*
X97820750Y-107714630D01*
X97820745Y-107714631D01*
X97650476Y-107774211D01*
X97497737Y-107870184D01*
X97370184Y-107997737D01*
X97274211Y-108150476D01*
X97214631Y-108320745D01*
X97214630Y-108320750D01*
X97194435Y-108499996D01*
X92805565Y-108499996D01*
X92785369Y-108320750D01*
X92785368Y-108320745D01*
X92759435Y-108246632D01*
X92725789Y-108150478D01*
X92629816Y-107997738D01*
X92502262Y-107870184D01*
X92434027Y-107827309D01*
X92349523Y-107774211D01*
X92179254Y-107714631D01*
X92179249Y-107714630D01*
X92000004Y-107694435D01*
X91999996Y-107694435D01*
X91820750Y-107714630D01*
X91820737Y-107714633D01*
X91650479Y-107774209D01*
X91565971Y-107827309D01*
X91498734Y-107846309D01*
X91434029Y-107827309D01*
X91349520Y-107774209D01*
X91179262Y-107714633D01*
X91179249Y-107714630D01*
X91000004Y-107694435D01*
X90999996Y-107694435D01*
X90820750Y-107714630D01*
X90820745Y-107714631D01*
X90650476Y-107774211D01*
X90497737Y-107870184D01*
X90370184Y-107997737D01*
X90274211Y-108150476D01*
X90214631Y-108320745D01*
X90214630Y-108320750D01*
X90194435Y-108499996D01*
X79805565Y-108499996D01*
X79785369Y-108320750D01*
X79785368Y-108320745D01*
X79759435Y-108246632D01*
X79725789Y-108150478D01*
X79629816Y-107997738D01*
X79502262Y-107870184D01*
X79434027Y-107827309D01*
X79349523Y-107774211D01*
X79179254Y-107714631D01*
X79179249Y-107714630D01*
X79000004Y-107694435D01*
X78999996Y-107694435D01*
X78820750Y-107714630D01*
X78820745Y-107714631D01*
X78650476Y-107774211D01*
X78497737Y-107870184D01*
X78370184Y-107997737D01*
X78274211Y-108150476D01*
X78214631Y-108320745D01*
X78214630Y-108320750D01*
X78194435Y-108499996D01*
X74866281Y-108499996D01*
X74963663Y-108473903D01*
X75177830Y-108374035D01*
X75371401Y-108238495D01*
X75538495Y-108071401D01*
X75674035Y-107877830D01*
X75773903Y-107663663D01*
X75835063Y-107435408D01*
X75855659Y-107200000D01*
X75835063Y-106964592D01*
X75773903Y-106736337D01*
X75674035Y-106522171D01*
X75651176Y-106489524D01*
X75538494Y-106328597D01*
X75371402Y-106161506D01*
X75371396Y-106161501D01*
X75185842Y-106031575D01*
X75160600Y-105999996D01*
X96194435Y-105999996D01*
X96194435Y-106000003D01*
X96214630Y-106179249D01*
X96214631Y-106179254D01*
X96274211Y-106349523D01*
X96362180Y-106489524D01*
X96370184Y-106502262D01*
X96497738Y-106629816D01*
X96517546Y-106642262D01*
X96632721Y-106714632D01*
X96650478Y-106725789D01*
X96788860Y-106774211D01*
X96820745Y-106785368D01*
X96820750Y-106785369D01*
X96999996Y-106805565D01*
X97000000Y-106805565D01*
X97000004Y-106805565D01*
X97179249Y-106785369D01*
X97179252Y-106785368D01*
X97179255Y-106785368D01*
X97349522Y-106725789D01*
X97502262Y-106629816D01*
X97629816Y-106502262D01*
X97725789Y-106349522D01*
X97785368Y-106179255D01*
X97787368Y-106161505D01*
X97791078Y-106128577D01*
X100344435Y-106128577D01*
X100344435Y-106128584D01*
X100364630Y-106307830D01*
X100364631Y-106307835D01*
X100424211Y-106478104D01*
X100457795Y-106531552D01*
X100520184Y-106630843D01*
X100647738Y-106758397D01*
X100672906Y-106774211D01*
X100800477Y-106854370D01*
X100827262Y-106863742D01*
X100858423Y-106874645D01*
X100915199Y-106915366D01*
X100934510Y-106950732D01*
X100972859Y-107060326D01*
X100972861Y-107060329D01*
X101068834Y-107213069D01*
X101196388Y-107340623D01*
X101349128Y-107436596D01*
X101519395Y-107496175D01*
X101519400Y-107496176D01*
X101698646Y-107516372D01*
X101698650Y-107516372D01*
X101698654Y-107516372D01*
X101877899Y-107496176D01*
X101877902Y-107496175D01*
X101877905Y-107496175D01*
X102048172Y-107436596D01*
X102200912Y-107340623D01*
X102328466Y-107213069D01*
X102424439Y-107060329D01*
X102484018Y-106890062D01*
X102486258Y-106870184D01*
X102504215Y-106710810D01*
X102504215Y-106710803D01*
X102484019Y-106531557D01*
X102484018Y-106531552D01*
X102465315Y-106478103D01*
X102424439Y-106361285D01*
X102417048Y-106349523D01*
X102328465Y-106208544D01*
X102200912Y-106080991D01*
X102048174Y-105985019D01*
X102048171Y-105985017D01*
X101990224Y-105964741D01*
X101933448Y-105924020D01*
X101914138Y-105888656D01*
X101875789Y-105779059D01*
X101779816Y-105626319D01*
X101652262Y-105498765D01*
X101650626Y-105497737D01*
X101499523Y-105402792D01*
X101329254Y-105343212D01*
X101329249Y-105343211D01*
X101150004Y-105323016D01*
X101149996Y-105323016D01*
X100970750Y-105343211D01*
X100970745Y-105343212D01*
X100800476Y-105402792D01*
X100647737Y-105498765D01*
X100520184Y-105626318D01*
X100424211Y-105779057D01*
X100364631Y-105949326D01*
X100364630Y-105949331D01*
X100344435Y-106128577D01*
X97791078Y-106128577D01*
X97805565Y-106000003D01*
X97805565Y-105999996D01*
X97785369Y-105820750D01*
X97785368Y-105820745D01*
X97725788Y-105650476D01*
X97686582Y-105588080D01*
X97629816Y-105497738D01*
X97502262Y-105370184D01*
X97459338Y-105343213D01*
X97349523Y-105274211D01*
X97179254Y-105214631D01*
X97179249Y-105214630D01*
X97000004Y-105194435D01*
X96999996Y-105194435D01*
X96820750Y-105214630D01*
X96820745Y-105214631D01*
X96650476Y-105274211D01*
X96497737Y-105370184D01*
X96370184Y-105497737D01*
X96274211Y-105650476D01*
X96214631Y-105820745D01*
X96214630Y-105820750D01*
X96194435Y-105999996D01*
X75160600Y-105999996D01*
X75142217Y-105976998D01*
X75135023Y-105907500D01*
X75166546Y-105845145D01*
X75185842Y-105828425D01*
X75256344Y-105779059D01*
X75371401Y-105698495D01*
X75538495Y-105531401D01*
X75674035Y-105337830D01*
X75773903Y-105123663D01*
X75835063Y-104895408D01*
X75855659Y-104660000D01*
X75841660Y-104499996D01*
X76794435Y-104499996D01*
X76794435Y-104500003D01*
X76814630Y-104679249D01*
X76814631Y-104679254D01*
X76874211Y-104849523D01*
X76929494Y-104937504D01*
X76970184Y-105002262D01*
X77097738Y-105129816D01*
X77188080Y-105186582D01*
X77232721Y-105214632D01*
X77250478Y-105225789D01*
X77377592Y-105270268D01*
X77420745Y-105285368D01*
X77420750Y-105285369D01*
X77599996Y-105305565D01*
X77600000Y-105305565D01*
X77600004Y-105305565D01*
X77779249Y-105285369D01*
X77779252Y-105285368D01*
X77779255Y-105285368D01*
X77949522Y-105225789D01*
X78102262Y-105129816D01*
X78229816Y-105002262D01*
X78325789Y-104849522D01*
X78385368Y-104679255D01*
X78385369Y-104679249D01*
X78405565Y-104500003D01*
X78405565Y-104499996D01*
X78385369Y-104320750D01*
X78385368Y-104320745D01*
X78325788Y-104150476D01*
X78270506Y-104062496D01*
X78229816Y-103997738D01*
X78102262Y-103870184D01*
X77999422Y-103805565D01*
X77949523Y-103774211D01*
X77779254Y-103714631D01*
X77779249Y-103714630D01*
X77600004Y-103694435D01*
X77599996Y-103694435D01*
X77420750Y-103714630D01*
X77420745Y-103714631D01*
X77250476Y-103774211D01*
X77097737Y-103870184D01*
X76970184Y-103997737D01*
X76874211Y-104150476D01*
X76814631Y-104320745D01*
X76814630Y-104320750D01*
X76794435Y-104499996D01*
X75841660Y-104499996D01*
X75835063Y-104424592D01*
X75773903Y-104196337D01*
X75674035Y-103982171D01*
X75595622Y-103870184D01*
X75538494Y-103788597D01*
X75371402Y-103621506D01*
X75371396Y-103621501D01*
X75185842Y-103491575D01*
X75142217Y-103436998D01*
X75135023Y-103367500D01*
X75166546Y-103305145D01*
X75185842Y-103288425D01*
X75275295Y-103225789D01*
X75371401Y-103158495D01*
X75529900Y-102999996D01*
X87694435Y-102999996D01*
X87694435Y-103000003D01*
X87714630Y-103179249D01*
X87714631Y-103179254D01*
X87774211Y-103349523D01*
X87852963Y-103474855D01*
X87870184Y-103502262D01*
X87997738Y-103629816D01*
X88088080Y-103686582D01*
X88132721Y-103714632D01*
X88150478Y-103725789D01*
X88184058Y-103737539D01*
X88320745Y-103785368D01*
X88320750Y-103785369D01*
X88499996Y-103805565D01*
X88500000Y-103805565D01*
X88500004Y-103805565D01*
X88679249Y-103785369D01*
X88679252Y-103785368D01*
X88679255Y-103785368D01*
X88849522Y-103725789D01*
X89002262Y-103629816D01*
X89129816Y-103502262D01*
X89145007Y-103478084D01*
X89197339Y-103431796D01*
X89266393Y-103421146D01*
X89330242Y-103449521D01*
X89354990Y-103478082D01*
X89370184Y-103502262D01*
X89497738Y-103629816D01*
X89588080Y-103686582D01*
X89632721Y-103714632D01*
X89650478Y-103725789D01*
X89684058Y-103737539D01*
X89820745Y-103785368D01*
X89820750Y-103785369D01*
X89999996Y-103805565D01*
X90000000Y-103805565D01*
X90000004Y-103805565D01*
X90179249Y-103785369D01*
X90179252Y-103785368D01*
X90179255Y-103785368D01*
X90349522Y-103725789D01*
X90502262Y-103629816D01*
X90629816Y-103502262D01*
X90725789Y-103349522D01*
X90785368Y-103179255D01*
X90787707Y-103158495D01*
X90805565Y-103000003D01*
X90805565Y-102999996D01*
X90785369Y-102820750D01*
X90785368Y-102820745D01*
X90750000Y-102719669D01*
X90725789Y-102650478D01*
X90629816Y-102497738D01*
X90502262Y-102370184D01*
X90469379Y-102349522D01*
X90349523Y-102274211D01*
X90179254Y-102214631D01*
X90179249Y-102214630D01*
X90000004Y-102194435D01*
X89999996Y-102194435D01*
X89820750Y-102214630D01*
X89820745Y-102214631D01*
X89650476Y-102274211D01*
X89497737Y-102370184D01*
X89370184Y-102497737D01*
X89354994Y-102521913D01*
X89302659Y-102568204D01*
X89233605Y-102578852D01*
X89169757Y-102550477D01*
X89145006Y-102521913D01*
X89129816Y-102497738D01*
X89002262Y-102370184D01*
X88969379Y-102349522D01*
X88849523Y-102274211D01*
X88679254Y-102214631D01*
X88679249Y-102214630D01*
X88500004Y-102194435D01*
X88499996Y-102194435D01*
X88320750Y-102214630D01*
X88320745Y-102214631D01*
X88150476Y-102274211D01*
X87997737Y-102370184D01*
X87870184Y-102497737D01*
X87774211Y-102650476D01*
X87714631Y-102820745D01*
X87714630Y-102820750D01*
X87694435Y-102999996D01*
X75529900Y-102999996D01*
X75538495Y-102991401D01*
X75674035Y-102797830D01*
X75773903Y-102583663D01*
X75835063Y-102355408D01*
X75855659Y-102120000D01*
X75845160Y-101999996D01*
X76794435Y-101999996D01*
X76794435Y-102000003D01*
X76814630Y-102179249D01*
X76814631Y-102179254D01*
X76874211Y-102349523D01*
X76967341Y-102497737D01*
X76970184Y-102502262D01*
X77097738Y-102629816D01*
X77250478Y-102725789D01*
X77420745Y-102785368D01*
X77420750Y-102785369D01*
X77599996Y-102805565D01*
X77600000Y-102805565D01*
X77600004Y-102805565D01*
X77779249Y-102785369D01*
X77779252Y-102785368D01*
X77779255Y-102785368D01*
X77949522Y-102725789D01*
X78102262Y-102629816D01*
X78229816Y-102502262D01*
X78325789Y-102349522D01*
X78385368Y-102179255D01*
X78385369Y-102179249D01*
X78405565Y-102000003D01*
X78405565Y-101999996D01*
X92694435Y-101999996D01*
X92694435Y-102000003D01*
X92714630Y-102179249D01*
X92714631Y-102179254D01*
X92774211Y-102349523D01*
X92867341Y-102497737D01*
X92870184Y-102502262D01*
X92997738Y-102629816D01*
X93150478Y-102725789D01*
X93320745Y-102785368D01*
X93320750Y-102785369D01*
X93499996Y-102805565D01*
X93500000Y-102805565D01*
X93500004Y-102805565D01*
X93679249Y-102785369D01*
X93679252Y-102785368D01*
X93679255Y-102785368D01*
X93849522Y-102725789D01*
X94002262Y-102629816D01*
X94129816Y-102502262D01*
X94131240Y-102499996D01*
X101194435Y-102499996D01*
X101194435Y-102500003D01*
X101214630Y-102679249D01*
X101214631Y-102679254D01*
X101274211Y-102849523D01*
X101363356Y-102991395D01*
X101370184Y-103002262D01*
X101497738Y-103129816D01*
X101650478Y-103225789D01*
X101806347Y-103280330D01*
X101820745Y-103285368D01*
X101820750Y-103285369D01*
X101999996Y-103305565D01*
X102000000Y-103305565D01*
X102000004Y-103305565D01*
X102179249Y-103285369D01*
X102179252Y-103285368D01*
X102179255Y-103285368D01*
X102349522Y-103225789D01*
X102502262Y-103129816D01*
X102629816Y-103002262D01*
X102725789Y-102849522D01*
X102785368Y-102679255D01*
X102785369Y-102679249D01*
X102805565Y-102500003D01*
X102805565Y-102499996D01*
X102785369Y-102320750D01*
X102785368Y-102320745D01*
X102741170Y-102194435D01*
X102725789Y-102150478D01*
X102706638Y-102120000D01*
X102631237Y-102000000D01*
X102629816Y-101997738D01*
X102502262Y-101870184D01*
X102349523Y-101774211D01*
X102179254Y-101714631D01*
X102179249Y-101714630D01*
X102000004Y-101694435D01*
X101999996Y-101694435D01*
X101820750Y-101714630D01*
X101820745Y-101714631D01*
X101650476Y-101774211D01*
X101497737Y-101870184D01*
X101370184Y-101997737D01*
X101274211Y-102150476D01*
X101214631Y-102320745D01*
X101214630Y-102320750D01*
X101194435Y-102499996D01*
X94131240Y-102499996D01*
X94225789Y-102349522D01*
X94285368Y-102179255D01*
X94285369Y-102179249D01*
X94305565Y-102000003D01*
X94305565Y-101999996D01*
X94285369Y-101820750D01*
X94285368Y-101820745D01*
X94241170Y-101694435D01*
X94225789Y-101650478D01*
X94129816Y-101497738D01*
X94002262Y-101370184D01*
X93849523Y-101274211D01*
X93679254Y-101214631D01*
X93679249Y-101214630D01*
X93500004Y-101194435D01*
X93499996Y-101194435D01*
X93320750Y-101214630D01*
X93320745Y-101214631D01*
X93150476Y-101274211D01*
X92997737Y-101370184D01*
X92870184Y-101497737D01*
X92774211Y-101650476D01*
X92714631Y-101820745D01*
X92714630Y-101820750D01*
X92694435Y-101999996D01*
X78405565Y-101999996D01*
X78385369Y-101820750D01*
X78385368Y-101820745D01*
X78341170Y-101694435D01*
X78325789Y-101650478D01*
X78229816Y-101497738D01*
X78102262Y-101370184D01*
X77949523Y-101274211D01*
X77779254Y-101214631D01*
X77779249Y-101214630D01*
X77600004Y-101194435D01*
X77599996Y-101194435D01*
X77420750Y-101214630D01*
X77420745Y-101214631D01*
X77250476Y-101274211D01*
X77097737Y-101370184D01*
X76970184Y-101497737D01*
X76874211Y-101650476D01*
X76814631Y-101820745D01*
X76814630Y-101820750D01*
X76794435Y-101999996D01*
X75845160Y-101999996D01*
X75835063Y-101884592D01*
X75773903Y-101656337D01*
X75674035Y-101442171D01*
X75623630Y-101370184D01*
X75538494Y-101248597D01*
X75371402Y-101081506D01*
X75371396Y-101081501D01*
X75185842Y-100951575D01*
X75142217Y-100896998D01*
X75135023Y-100827500D01*
X75166546Y-100765145D01*
X75185842Y-100748425D01*
X75241331Y-100709571D01*
X75371401Y-100618495D01*
X75538495Y-100451401D01*
X75674035Y-100257830D01*
X75773903Y-100043663D01*
X75835063Y-99815408D01*
X75841245Y-99744739D01*
X75866697Y-99679673D01*
X75923288Y-99638695D01*
X75993050Y-99634816D01*
X76030744Y-99650555D01*
X76062687Y-99670626D01*
X76150475Y-99725788D01*
X76320745Y-99785368D01*
X76320750Y-99785369D01*
X76499996Y-99805565D01*
X76500000Y-99805565D01*
X76500003Y-99805565D01*
X76652862Y-99788342D01*
X76721684Y-99800396D01*
X76771740Y-99845590D01*
X76847780Y-99966606D01*
X76870184Y-100002262D01*
X76997738Y-100129816D01*
X77150478Y-100225789D01*
X77303258Y-100279249D01*
X77320745Y-100285368D01*
X77320750Y-100285369D01*
X77499996Y-100305565D01*
X77500000Y-100305565D01*
X77500004Y-100305565D01*
X77679249Y-100285369D01*
X77679252Y-100285368D01*
X77679255Y-100285368D01*
X77849522Y-100225789D01*
X78002262Y-100129816D01*
X78129816Y-100002262D01*
X78225789Y-99849522D01*
X78285368Y-99679255D01*
X78288602Y-99650556D01*
X78305565Y-99500003D01*
X78305565Y-99499996D01*
X78285369Y-99320750D01*
X78285368Y-99320745D01*
X78260611Y-99249994D01*
X78225789Y-99150478D01*
X78131235Y-98999996D01*
X88694435Y-98999996D01*
X88694435Y-99000003D01*
X88714630Y-99179249D01*
X88714631Y-99179254D01*
X88774211Y-99349523D01*
X88789724Y-99374211D01*
X88870184Y-99502262D01*
X88997738Y-99629816D01*
X89150478Y-99725789D01*
X89320745Y-99785368D01*
X89320750Y-99785369D01*
X89499996Y-99805565D01*
X89500000Y-99805565D01*
X89500004Y-99805565D01*
X89679249Y-99785369D01*
X89679252Y-99785368D01*
X89679255Y-99785368D01*
X89849522Y-99725789D01*
X90002262Y-99629816D01*
X90129816Y-99502262D01*
X90131240Y-99499996D01*
X90694435Y-99499996D01*
X90694435Y-99500003D01*
X90714630Y-99679249D01*
X90714631Y-99679254D01*
X90774211Y-99849523D01*
X90847780Y-99966606D01*
X90870184Y-100002262D01*
X90997738Y-100129816D01*
X91150478Y-100225789D01*
X91303258Y-100279249D01*
X91320745Y-100285368D01*
X91320750Y-100285369D01*
X91499996Y-100305565D01*
X91500000Y-100305565D01*
X91500003Y-100305565D01*
X91652862Y-100288342D01*
X91721684Y-100300396D01*
X91771740Y-100345590D01*
X91870184Y-100502262D01*
X91997738Y-100629816D01*
X92088080Y-100686582D01*
X92124665Y-100709570D01*
X92150478Y-100725789D01*
X92262951Y-100765145D01*
X92320745Y-100785368D01*
X92320750Y-100785369D01*
X92499996Y-100805565D01*
X92500000Y-100805565D01*
X92500004Y-100805565D01*
X92679249Y-100785369D01*
X92679252Y-100785368D01*
X92679255Y-100785368D01*
X92849522Y-100725789D01*
X93002262Y-100629816D01*
X93129816Y-100502262D01*
X93225789Y-100349522D01*
X93285368Y-100179255D01*
X93285872Y-100174782D01*
X93294298Y-100099996D01*
X96694435Y-100099996D01*
X96694435Y-100100003D01*
X96714630Y-100279249D01*
X96714631Y-100279254D01*
X96774211Y-100449523D01*
X96812510Y-100510475D01*
X96870184Y-100602262D01*
X96997738Y-100729816D01*
X97150478Y-100825789D01*
X97320745Y-100885368D01*
X97320750Y-100885369D01*
X97499996Y-100905565D01*
X97500000Y-100905565D01*
X97500004Y-100905565D01*
X97679249Y-100885369D01*
X97679252Y-100885368D01*
X97679255Y-100885368D01*
X97849522Y-100825789D01*
X98002262Y-100729816D01*
X98129816Y-100602262D01*
X98225789Y-100449522D01*
X98285368Y-100279255D01*
X98291392Y-100225789D01*
X98305565Y-100100003D01*
X98305565Y-100099996D01*
X98285369Y-99920750D01*
X98285368Y-99920745D01*
X98237998Y-99785369D01*
X98225789Y-99750478D01*
X98129816Y-99597738D01*
X98002262Y-99470184D01*
X97990558Y-99462830D01*
X97849523Y-99374211D01*
X97679254Y-99314631D01*
X97679249Y-99314630D01*
X97500004Y-99294435D01*
X97499996Y-99294435D01*
X97320750Y-99314630D01*
X97320745Y-99314631D01*
X97150476Y-99374211D01*
X96997737Y-99470184D01*
X96870184Y-99597737D01*
X96774211Y-99750476D01*
X96714631Y-99920745D01*
X96714630Y-99920750D01*
X96694435Y-100099996D01*
X93294298Y-100099996D01*
X93305565Y-100000003D01*
X93305565Y-99999996D01*
X93285369Y-99820750D01*
X93285367Y-99820742D01*
X93265080Y-99762764D01*
X93225789Y-99650478D01*
X93129816Y-99497738D01*
X93002262Y-99370184D01*
X92961523Y-99344586D01*
X92849523Y-99274211D01*
X92679254Y-99214631D01*
X92679249Y-99214630D01*
X92500004Y-99194435D01*
X92499996Y-99194435D01*
X92347136Y-99211657D01*
X92278314Y-99199602D01*
X92228259Y-99154409D01*
X92204337Y-99116337D01*
X92129816Y-98997738D01*
X92002262Y-98870184D01*
X91849523Y-98774211D01*
X91679254Y-98714631D01*
X91679249Y-98714630D01*
X91500004Y-98694435D01*
X91499996Y-98694435D01*
X91320750Y-98714630D01*
X91320745Y-98714631D01*
X91150476Y-98774211D01*
X90997737Y-98870184D01*
X90870184Y-98997737D01*
X90774211Y-99150476D01*
X90714631Y-99320745D01*
X90714630Y-99320750D01*
X90694435Y-99499996D01*
X90131240Y-99499996D01*
X90225789Y-99349522D01*
X90285368Y-99179255D01*
X90285369Y-99179249D01*
X90305565Y-99000003D01*
X90305565Y-98999996D01*
X90285369Y-98820750D01*
X90285368Y-98820745D01*
X90262176Y-98754465D01*
X90225789Y-98650478D01*
X90129816Y-98497738D01*
X90002262Y-98370184D01*
X89968126Y-98348735D01*
X89849523Y-98274211D01*
X89679254Y-98214631D01*
X89679249Y-98214630D01*
X89500004Y-98194435D01*
X89499996Y-98194435D01*
X89320750Y-98214630D01*
X89320745Y-98214631D01*
X89150476Y-98274211D01*
X88997737Y-98370184D01*
X88870184Y-98497737D01*
X88774211Y-98650476D01*
X88714631Y-98820745D01*
X88714630Y-98820750D01*
X88694435Y-98999996D01*
X78131235Y-98999996D01*
X78129816Y-98997738D01*
X78002262Y-98870184D01*
X77849523Y-98774211D01*
X77679254Y-98714631D01*
X77679249Y-98714630D01*
X77500004Y-98694435D01*
X77499996Y-98694435D01*
X77347136Y-98711657D01*
X77278314Y-98699602D01*
X77228259Y-98654409D01*
X77212806Y-98629816D01*
X77129816Y-98497738D01*
X77002262Y-98370184D01*
X76968126Y-98348735D01*
X76849523Y-98274211D01*
X76679254Y-98214631D01*
X76679249Y-98214630D01*
X76500004Y-98194435D01*
X76499996Y-98194435D01*
X76320750Y-98214630D01*
X76320745Y-98214631D01*
X76150476Y-98274211D01*
X75997737Y-98370184D01*
X75870184Y-98497737D01*
X75774209Y-98650479D01*
X75761990Y-98685400D01*
X75721268Y-98742176D01*
X75656315Y-98767922D01*
X75587753Y-98754465D01*
X75543373Y-98715566D01*
X75538495Y-98708599D01*
X75538493Y-98708597D01*
X75538491Y-98708594D01*
X75371402Y-98541506D01*
X75371396Y-98541501D01*
X75185842Y-98411575D01*
X75142217Y-98356998D01*
X75135023Y-98287500D01*
X75166546Y-98225145D01*
X75185842Y-98208425D01*
X75227502Y-98179254D01*
X75371401Y-98078495D01*
X75449900Y-97999996D01*
X85694435Y-97999996D01*
X85694435Y-98000003D01*
X85714630Y-98179249D01*
X85714631Y-98179254D01*
X85774211Y-98349523D01*
X85867341Y-98497737D01*
X85870184Y-98502262D01*
X85997738Y-98629816D01*
X86086199Y-98685400D01*
X86134206Y-98715565D01*
X86150478Y-98725789D01*
X86270887Y-98767922D01*
X86320745Y-98785368D01*
X86320750Y-98785369D01*
X86499996Y-98805565D01*
X86500000Y-98805565D01*
X86500004Y-98805565D01*
X86679249Y-98785369D01*
X86679252Y-98785368D01*
X86679255Y-98785368D01*
X86849522Y-98725789D01*
X87002262Y-98629816D01*
X87129816Y-98502262D01*
X87225789Y-98349522D01*
X87285368Y-98179255D01*
X87289536Y-98142262D01*
X87305565Y-98000003D01*
X87305565Y-97999996D01*
X87285369Y-97820750D01*
X87285368Y-97820745D01*
X87249356Y-97717830D01*
X87225789Y-97650478D01*
X87129816Y-97497738D01*
X87002262Y-97370184D01*
X86969379Y-97349522D01*
X86849523Y-97274211D01*
X86679254Y-97214631D01*
X86679249Y-97214630D01*
X86500004Y-97194435D01*
X86499996Y-97194435D01*
X86320750Y-97214630D01*
X86320745Y-97214631D01*
X86150476Y-97274211D01*
X85997737Y-97370184D01*
X85870184Y-97497737D01*
X85774211Y-97650476D01*
X85714631Y-97820745D01*
X85714630Y-97820750D01*
X85694435Y-97999996D01*
X75449900Y-97999996D01*
X75538495Y-97911401D01*
X75674035Y-97717830D01*
X75773903Y-97503663D01*
X75835063Y-97275408D01*
X75855659Y-97040000D01*
X75852159Y-96999996D01*
X89694435Y-96999996D01*
X89694435Y-97000003D01*
X89714630Y-97179249D01*
X89714631Y-97179254D01*
X89774211Y-97349523D01*
X89867341Y-97497737D01*
X89870184Y-97502262D01*
X89997738Y-97629816D01*
X90076410Y-97679249D01*
X90137817Y-97717834D01*
X90150478Y-97725789D01*
X90320745Y-97785368D01*
X90320750Y-97785369D01*
X90499996Y-97805565D01*
X90500000Y-97805565D01*
X90500004Y-97805565D01*
X90679249Y-97785369D01*
X90679252Y-97785368D01*
X90679255Y-97785368D01*
X90849522Y-97725789D01*
X91002262Y-97629816D01*
X91129816Y-97502262D01*
X91225789Y-97349522D01*
X91285368Y-97179255D01*
X91285369Y-97179249D01*
X91305565Y-97000003D01*
X91305565Y-96999996D01*
X91285369Y-96820750D01*
X91285368Y-96820745D01*
X91269085Y-96774211D01*
X91225789Y-96650478D01*
X91129816Y-96497738D01*
X91002262Y-96370184D01*
X90969379Y-96349522D01*
X90849523Y-96274211D01*
X90679254Y-96214631D01*
X90679249Y-96214630D01*
X90500004Y-96194435D01*
X90499996Y-96194435D01*
X90320750Y-96214630D01*
X90320745Y-96214631D01*
X90150476Y-96274211D01*
X89997737Y-96370184D01*
X89870184Y-96497737D01*
X89774211Y-96650476D01*
X89714631Y-96820745D01*
X89714630Y-96820750D01*
X89694435Y-96999996D01*
X75852159Y-96999996D01*
X75835063Y-96804592D01*
X75773903Y-96576337D01*
X75674035Y-96362171D01*
X75665178Y-96349522D01*
X75538496Y-96168600D01*
X75498723Y-96128827D01*
X75416179Y-96046283D01*
X75382696Y-95984963D01*
X75387680Y-95915271D01*
X75429551Y-95859337D01*
X75460529Y-95842422D01*
X75592086Y-95793354D01*
X75592093Y-95793350D01*
X75707187Y-95707190D01*
X75707190Y-95707187D01*
X75793350Y-95592093D01*
X75793354Y-95592086D01*
X75843596Y-95457379D01*
X75843598Y-95457372D01*
X75849999Y-95397844D01*
X75850000Y-95397827D01*
X75850000Y-94750000D01*
X74933012Y-94750000D01*
X74965925Y-94692993D01*
X75000000Y-94565826D01*
X75000000Y-94434174D01*
X74965925Y-94307007D01*
X74933012Y-94250000D01*
X75850000Y-94250000D01*
X75850000Y-93999996D01*
X91194435Y-93999996D01*
X91194435Y-94000003D01*
X91214630Y-94179249D01*
X91214631Y-94179254D01*
X91274211Y-94349523D01*
X91327401Y-94434174D01*
X91370184Y-94502262D01*
X91497738Y-94629816D01*
X91544367Y-94659115D01*
X91643029Y-94721109D01*
X91650478Y-94725789D01*
X91788860Y-94774211D01*
X91820745Y-94785368D01*
X91820750Y-94785369D01*
X91999996Y-94805565D01*
X92000000Y-94805565D01*
X92000004Y-94805565D01*
X92179249Y-94785369D01*
X92179251Y-94785368D01*
X92179255Y-94785368D01*
X92179258Y-94785366D01*
X92179262Y-94785366D01*
X92286840Y-94747723D01*
X92356619Y-94744161D01*
X92417246Y-94778889D01*
X92449474Y-94840883D01*
X92443069Y-94910458D01*
X92415477Y-94952444D01*
X92370184Y-94997737D01*
X92274211Y-95150476D01*
X92214631Y-95320745D01*
X92214630Y-95320750D01*
X92194435Y-95499996D01*
X92194435Y-95500003D01*
X92214630Y-95679249D01*
X92214631Y-95679254D01*
X92274211Y-95849523D01*
X92296058Y-95884292D01*
X92370184Y-96002262D01*
X92497738Y-96129816D01*
X92624666Y-96209570D01*
X92654409Y-96228259D01*
X92700700Y-96280594D01*
X92711657Y-96347136D01*
X92694435Y-96499995D01*
X92694435Y-96500003D01*
X92714630Y-96679249D01*
X92714631Y-96679254D01*
X92774211Y-96849523D01*
X92867341Y-96997737D01*
X92870184Y-97002262D01*
X92997738Y-97129816D01*
X93076410Y-97179249D01*
X93132721Y-97214632D01*
X93150478Y-97225789D01*
X93288860Y-97274211D01*
X93320745Y-97285368D01*
X93320750Y-97285369D01*
X93499996Y-97305565D01*
X93500000Y-97305565D01*
X93500004Y-97305565D01*
X93679249Y-97285369D01*
X93679252Y-97285368D01*
X93679255Y-97285368D01*
X93849522Y-97225789D01*
X94002262Y-97129816D01*
X94129816Y-97002262D01*
X94225789Y-96849522D01*
X94225789Y-96849519D01*
X94228259Y-96845590D01*
X94280594Y-96799299D01*
X94347136Y-96788342D01*
X94499996Y-96805565D01*
X94500000Y-96805565D01*
X94500004Y-96805565D01*
X94679249Y-96785369D01*
X94679252Y-96785368D01*
X94679255Y-96785368D01*
X94849522Y-96725789D01*
X95002262Y-96629816D01*
X95129816Y-96502262D01*
X95225789Y-96349522D01*
X95285368Y-96179255D01*
X95286569Y-96168599D01*
X95305565Y-96000003D01*
X95305565Y-95999996D01*
X95285369Y-95820750D01*
X95285368Y-95820745D01*
X95237638Y-95684341D01*
X95225789Y-95650478D01*
X95129816Y-95497738D01*
X95002262Y-95370184D01*
X94989043Y-95361878D01*
X94849523Y-95274211D01*
X94679254Y-95214631D01*
X94679249Y-95214630D01*
X94500004Y-95194435D01*
X94499996Y-95194435D01*
X94320750Y-95214630D01*
X94320745Y-95214631D01*
X94150476Y-95274211D01*
X93997738Y-95370183D01*
X93992663Y-95375259D01*
X93931338Y-95408741D01*
X93861647Y-95403753D01*
X93805715Y-95361878D01*
X93789435Y-95326699D01*
X93787668Y-95327318D01*
X93769085Y-95274211D01*
X93725789Y-95150478D01*
X93629816Y-94997738D01*
X93502262Y-94870184D01*
X93455630Y-94840883D01*
X93349523Y-94774211D01*
X93179254Y-94714631D01*
X93179249Y-94714630D01*
X93000004Y-94694435D01*
X92999996Y-94694435D01*
X92820750Y-94714630D01*
X92820742Y-94714632D01*
X92713158Y-94752277D01*
X92643379Y-94755838D01*
X92582752Y-94721109D01*
X92550525Y-94659115D01*
X92556931Y-94589540D01*
X92584522Y-94547555D01*
X92629816Y-94502262D01*
X92725789Y-94349522D01*
X92785368Y-94179255D01*
X92785369Y-94179249D01*
X92805565Y-94000003D01*
X92805565Y-93999996D01*
X92785369Y-93820750D01*
X92785368Y-93820745D01*
X92725788Y-93650476D01*
X92686582Y-93588080D01*
X92629816Y-93497738D01*
X92502262Y-93370184D01*
X92399422Y-93305565D01*
X92349523Y-93274211D01*
X92179254Y-93214631D01*
X92179249Y-93214630D01*
X92000004Y-93194435D01*
X91999996Y-93194435D01*
X91820750Y-93214630D01*
X91820745Y-93214631D01*
X91650476Y-93274211D01*
X91497737Y-93370184D01*
X91370184Y-93497737D01*
X91274211Y-93650476D01*
X91214631Y-93820745D01*
X91214630Y-93820750D01*
X91194435Y-93999996D01*
X75850000Y-93999996D01*
X75850000Y-93602172D01*
X75849999Y-93602155D01*
X75843598Y-93542627D01*
X75843596Y-93542620D01*
X75793354Y-93407913D01*
X75793350Y-93407906D01*
X75707190Y-93292812D01*
X75707187Y-93292809D01*
X75592093Y-93206649D01*
X75592086Y-93206645D01*
X75457379Y-93156403D01*
X75457372Y-93156401D01*
X75397844Y-93150000D01*
X74750000Y-93150000D01*
X74750000Y-94066988D01*
X74692993Y-94034075D01*
X74565826Y-94000000D01*
X74434174Y-94000000D01*
X74307007Y-94034075D01*
X74250000Y-94066988D01*
X74250000Y-93150000D01*
X73602155Y-93150000D01*
X73542627Y-93156401D01*
X73542620Y-93156403D01*
X73407913Y-93206645D01*
X73407906Y-93206649D01*
X73292812Y-93292809D01*
X73292809Y-93292812D01*
X73206649Y-93407906D01*
X73206645Y-93407913D01*
X73156403Y-93542620D01*
X73156401Y-93542627D01*
X73150000Y-93602155D01*
X73150000Y-94250000D01*
X74066988Y-94250000D01*
X74034075Y-94307007D01*
X74000000Y-94434174D01*
X74000000Y-94565826D01*
X74034075Y-94692993D01*
X74066988Y-94750000D01*
X73150000Y-94750000D01*
X73150000Y-95397844D01*
X73156401Y-95457372D01*
X73156403Y-95457379D01*
X73206645Y-95592086D01*
X73206649Y-95592093D01*
X73292809Y-95707187D01*
X73292812Y-95707190D01*
X73407906Y-95793350D01*
X73407913Y-95793354D01*
X73539470Y-95842421D01*
X73595403Y-95884292D01*
X73619821Y-95949756D01*
X73604970Y-96018029D01*
X73583819Y-96046284D01*
X73461503Y-96168600D01*
X73325965Y-96362169D01*
X73325964Y-96362171D01*
X73226098Y-96576335D01*
X73226094Y-96576344D01*
X73164938Y-96804586D01*
X73164936Y-96804596D01*
X73144341Y-97039999D01*
X58500500Y-97039999D01*
X58500500Y-94749994D01*
X62744357Y-94749994D01*
X62744357Y-94750000D01*
X62764890Y-94997812D01*
X62764892Y-94997824D01*
X62825936Y-95238881D01*
X62925826Y-95466606D01*
X63061833Y-95674782D01*
X63061836Y-95674785D01*
X63230256Y-95857738D01*
X63426491Y-96010474D01*
X63645190Y-96128828D01*
X63880386Y-96209571D01*
X64125665Y-96250500D01*
X64374335Y-96250500D01*
X64619614Y-96209571D01*
X64854810Y-96128828D01*
X65073509Y-96010474D01*
X65269744Y-95857738D01*
X65438164Y-95674785D01*
X65574173Y-95466607D01*
X65674063Y-95238881D01*
X65735108Y-94997821D01*
X65743206Y-94900099D01*
X65755643Y-94750000D01*
X65755643Y-94749994D01*
X69244357Y-94749994D01*
X69244357Y-94750000D01*
X69264890Y-94997812D01*
X69264892Y-94997824D01*
X69325936Y-95238881D01*
X69425826Y-95466606D01*
X69561833Y-95674782D01*
X69561836Y-95674785D01*
X69730256Y-95857738D01*
X69926491Y-96010474D01*
X70145190Y-96128828D01*
X70380386Y-96209571D01*
X70625665Y-96250500D01*
X70874335Y-96250500D01*
X71119614Y-96209571D01*
X71354810Y-96128828D01*
X71573509Y-96010474D01*
X71769744Y-95857738D01*
X71938164Y-95674785D01*
X72074173Y-95466607D01*
X72174063Y-95238881D01*
X72235108Y-94997821D01*
X72243206Y-94900099D01*
X72255643Y-94750000D01*
X72255643Y-94749994D01*
X72235109Y-94502187D01*
X72235107Y-94502175D01*
X72174063Y-94261118D01*
X72074173Y-94033393D01*
X71938166Y-93825217D01*
X71916557Y-93801744D01*
X71769744Y-93642262D01*
X71573509Y-93489526D01*
X71573507Y-93489525D01*
X71573506Y-93489524D01*
X71354811Y-93371172D01*
X71354802Y-93371169D01*
X71119616Y-93290429D01*
X70874335Y-93249500D01*
X70625665Y-93249500D01*
X70380383Y-93290429D01*
X70145197Y-93371169D01*
X70145188Y-93371172D01*
X69926493Y-93489524D01*
X69730257Y-93642261D01*
X69730256Y-93642262D01*
X69722693Y-93650478D01*
X69561833Y-93825217D01*
X69425826Y-94033393D01*
X69325936Y-94261118D01*
X69264892Y-94502175D01*
X69264890Y-94502187D01*
X69244357Y-94749994D01*
X65755643Y-94749994D01*
X65735109Y-94502187D01*
X65735107Y-94502175D01*
X65674063Y-94261118D01*
X65574173Y-94033393D01*
X65438166Y-93825217D01*
X65416557Y-93801744D01*
X65269744Y-93642262D01*
X65073509Y-93489526D01*
X65073507Y-93489525D01*
X65073506Y-93489524D01*
X64854811Y-93371172D01*
X64854802Y-93371169D01*
X64619616Y-93290429D01*
X64374335Y-93249500D01*
X64125665Y-93249500D01*
X63880383Y-93290429D01*
X63645197Y-93371169D01*
X63645188Y-93371172D01*
X63426493Y-93489524D01*
X63230257Y-93642261D01*
X63230256Y-93642262D01*
X63222693Y-93650478D01*
X63061833Y-93825217D01*
X62925826Y-94033393D01*
X62825936Y-94261118D01*
X62764892Y-94502175D01*
X62764890Y-94502187D01*
X62744357Y-94749994D01*
X58500500Y-94749994D01*
X58500500Y-91499996D01*
X97194435Y-91499996D01*
X97194435Y-91500003D01*
X97214630Y-91679249D01*
X97214631Y-91679254D01*
X97274211Y-91849523D01*
X97367341Y-91997737D01*
X97370184Y-92002262D01*
X97497738Y-92129816D01*
X97650478Y-92225789D01*
X97820745Y-92285368D01*
X97829376Y-92286340D01*
X97893790Y-92313406D01*
X97918657Y-92344787D01*
X97920507Y-92343626D01*
X97924210Y-92349519D01*
X97924211Y-92349522D01*
X98020184Y-92502262D01*
X98147738Y-92629816D01*
X98300478Y-92725789D01*
X98470745Y-92785368D01*
X98470750Y-92785369D01*
X98649996Y-92805565D01*
X98650000Y-92805565D01*
X98650004Y-92805565D01*
X98829249Y-92785369D01*
X98829252Y-92785368D01*
X98829255Y-92785368D01*
X98999522Y-92725789D01*
X99152262Y-92629816D01*
X99279816Y-92502262D01*
X99315880Y-92444866D01*
X99368210Y-92398579D01*
X99437264Y-92387929D01*
X99501112Y-92416304D01*
X99539485Y-92474693D01*
X99544091Y-92496957D01*
X99564630Y-92679250D01*
X99564631Y-92679254D01*
X99624211Y-92849523D01*
X99720184Y-93002262D01*
X99847738Y-93129816D01*
X99879861Y-93150000D01*
X99982721Y-93214632D01*
X100000478Y-93225789D01*
X100138860Y-93274211D01*
X100170745Y-93285368D01*
X100170750Y-93285369D01*
X100349996Y-93305565D01*
X100350000Y-93305565D01*
X100350004Y-93305565D01*
X100529249Y-93285369D01*
X100529252Y-93285368D01*
X100529255Y-93285368D01*
X100699522Y-93225789D01*
X100852262Y-93129816D01*
X100979816Y-93002262D01*
X101075789Y-92849522D01*
X101135368Y-92679255D01*
X101135369Y-92679249D01*
X101155565Y-92500003D01*
X101155565Y-92499996D01*
X101135369Y-92320750D01*
X101135368Y-92320745D01*
X101075788Y-92150476D01*
X101036582Y-92088080D01*
X100979816Y-91997738D01*
X100852262Y-91870184D01*
X100819379Y-91849522D01*
X100695590Y-91771740D01*
X100649299Y-91719405D01*
X100638342Y-91652862D01*
X100655565Y-91500002D01*
X100655565Y-91499996D01*
X100635369Y-91320750D01*
X100635368Y-91320745D01*
X100588425Y-91186590D01*
X100575789Y-91150478D01*
X100479816Y-90997738D01*
X100352262Y-90870184D01*
X100199523Y-90774211D01*
X100029254Y-90714631D01*
X100029249Y-90714630D01*
X99850004Y-90694435D01*
X99849996Y-90694435D01*
X99670750Y-90714630D01*
X99670745Y-90714631D01*
X99500476Y-90774211D01*
X99347737Y-90870184D01*
X99220184Y-90997737D01*
X99124212Y-91150475D01*
X99112990Y-91182545D01*
X99072267Y-91239320D01*
X99007313Y-91265066D01*
X98954995Y-91258630D01*
X98894074Y-91237313D01*
X98829255Y-91214632D01*
X98820617Y-91213658D01*
X98756205Y-91186590D01*
X98731342Y-91155212D01*
X98729494Y-91156374D01*
X98629815Y-90997737D01*
X98502262Y-90870184D01*
X98349523Y-90774211D01*
X98179254Y-90714631D01*
X98179249Y-90714630D01*
X98000004Y-90694435D01*
X97999996Y-90694435D01*
X97820750Y-90714630D01*
X97820745Y-90714631D01*
X97650476Y-90774211D01*
X97497737Y-90870184D01*
X97370184Y-90997737D01*
X97274211Y-91150476D01*
X97214631Y-91320745D01*
X97214630Y-91320750D01*
X97194435Y-91499996D01*
X58500500Y-91499996D01*
X58500500Y-86249994D01*
X62744357Y-86249994D01*
X62744357Y-86250005D01*
X62764890Y-86497812D01*
X62764892Y-86497824D01*
X62825936Y-86738881D01*
X62925826Y-86966606D01*
X63061833Y-87174782D01*
X63061836Y-87174785D01*
X63230256Y-87357738D01*
X63426491Y-87510474D01*
X63645190Y-87628828D01*
X63880386Y-87709571D01*
X64125665Y-87750500D01*
X64374335Y-87750500D01*
X64619614Y-87709571D01*
X64854810Y-87628828D01*
X65073509Y-87510474D01*
X65269744Y-87357738D01*
X65438164Y-87174785D01*
X65574173Y-86966607D01*
X65674063Y-86738881D01*
X65735108Y-86497821D01*
X65751039Y-86305565D01*
X65755643Y-86250005D01*
X65755643Y-86249994D01*
X69244357Y-86249994D01*
X69244357Y-86250005D01*
X69264890Y-86497812D01*
X69264892Y-86497824D01*
X69325936Y-86738881D01*
X69425826Y-86966606D01*
X69561833Y-87174782D01*
X69561836Y-87174785D01*
X69730256Y-87357738D01*
X69926491Y-87510474D01*
X70145190Y-87628828D01*
X70380386Y-87709571D01*
X70625665Y-87750500D01*
X70874335Y-87750500D01*
X71119614Y-87709571D01*
X71354810Y-87628828D01*
X71573509Y-87510474D01*
X71769744Y-87357738D01*
X71938164Y-87174785D01*
X72074173Y-86966607D01*
X72174063Y-86738881D01*
X72235108Y-86497821D01*
X72251039Y-86305565D01*
X72255643Y-86250005D01*
X72255643Y-86249994D01*
X72235109Y-86002187D01*
X72235107Y-86002175D01*
X72174063Y-85761118D01*
X72074173Y-85533393D01*
X72052354Y-85499996D01*
X103194435Y-85499996D01*
X103194435Y-85500003D01*
X103214630Y-85679249D01*
X103214631Y-85679254D01*
X103274211Y-85849523D01*
X103370129Y-86002175D01*
X103370184Y-86002262D01*
X103497738Y-86129816D01*
X103650478Y-86225789D01*
X103820745Y-86285368D01*
X103820750Y-86285369D01*
X103999996Y-86305565D01*
X104000000Y-86305565D01*
X104000004Y-86305565D01*
X104179249Y-86285369D01*
X104179252Y-86285368D01*
X104179255Y-86285368D01*
X104280348Y-86249994D01*
X127744357Y-86249994D01*
X127744357Y-86250005D01*
X127764890Y-86497812D01*
X127764892Y-86497824D01*
X127825936Y-86738881D01*
X127925826Y-86966606D01*
X128061833Y-87174782D01*
X128061836Y-87174785D01*
X128230256Y-87357738D01*
X128426491Y-87510474D01*
X128645190Y-87628828D01*
X128880386Y-87709571D01*
X129125665Y-87750500D01*
X129374335Y-87750500D01*
X129619614Y-87709571D01*
X129854810Y-87628828D01*
X130073509Y-87510474D01*
X130269744Y-87357738D01*
X130438164Y-87174785D01*
X130574173Y-86966607D01*
X130674063Y-86738881D01*
X130735108Y-86497821D01*
X130751039Y-86305565D01*
X130755643Y-86250005D01*
X130755643Y-86249994D01*
X134244357Y-86249994D01*
X134244357Y-86250005D01*
X134264890Y-86497812D01*
X134264892Y-86497824D01*
X134325936Y-86738881D01*
X134425826Y-86966606D01*
X134561833Y-87174782D01*
X134561836Y-87174785D01*
X134730256Y-87357738D01*
X134926491Y-87510474D01*
X135145190Y-87628828D01*
X135380386Y-87709571D01*
X135625665Y-87750500D01*
X135874335Y-87750500D01*
X136119614Y-87709571D01*
X136354810Y-87628828D01*
X136573509Y-87510474D01*
X136769744Y-87357738D01*
X136938164Y-87174785D01*
X137074173Y-86966607D01*
X137174063Y-86738881D01*
X137235108Y-86497821D01*
X137251039Y-86305565D01*
X137255643Y-86250005D01*
X137255643Y-86249994D01*
X137235109Y-86002187D01*
X137235107Y-86002175D01*
X137174063Y-85761118D01*
X137074173Y-85533393D01*
X136938166Y-85325217D01*
X136916557Y-85301744D01*
X136769744Y-85142262D01*
X136573509Y-84989526D01*
X136573507Y-84989525D01*
X136573506Y-84989524D01*
X136354811Y-84871172D01*
X136354802Y-84871169D01*
X136119616Y-84790429D01*
X135874335Y-84749500D01*
X135625665Y-84749500D01*
X135380383Y-84790429D01*
X135145197Y-84871169D01*
X135145188Y-84871172D01*
X134926493Y-84989524D01*
X134915940Y-84997738D01*
X134730256Y-85142262D01*
X134722693Y-85150478D01*
X134561833Y-85325217D01*
X134425826Y-85533393D01*
X134325936Y-85761118D01*
X134264892Y-86002175D01*
X134264890Y-86002187D01*
X134244357Y-86249994D01*
X130755643Y-86249994D01*
X130735109Y-86002187D01*
X130735107Y-86002175D01*
X130674063Y-85761118D01*
X130574173Y-85533393D01*
X130438166Y-85325217D01*
X130416557Y-85301744D01*
X130269744Y-85142262D01*
X130073509Y-84989526D01*
X130073507Y-84989525D01*
X130073506Y-84989524D01*
X129854811Y-84871172D01*
X129854802Y-84871169D01*
X129619616Y-84790429D01*
X129374335Y-84749500D01*
X129125665Y-84749500D01*
X128880383Y-84790429D01*
X128645197Y-84871169D01*
X128645188Y-84871172D01*
X128426493Y-84989524D01*
X128415940Y-84997738D01*
X128230256Y-85142262D01*
X128222693Y-85150478D01*
X128061833Y-85325217D01*
X127925826Y-85533393D01*
X127825936Y-85761118D01*
X127764892Y-86002175D01*
X127764890Y-86002187D01*
X127744357Y-86249994D01*
X104280348Y-86249994D01*
X104349522Y-86225789D01*
X104502262Y-86129816D01*
X104629816Y-86002262D01*
X104725789Y-85849522D01*
X104785368Y-85679255D01*
X104805565Y-85500000D01*
X104785368Y-85320745D01*
X104725789Y-85150478D01*
X104629816Y-84997738D01*
X104502262Y-84870184D01*
X104349523Y-84774211D01*
X104179254Y-84714631D01*
X104179249Y-84714630D01*
X104000004Y-84694435D01*
X103999996Y-84694435D01*
X103820750Y-84714630D01*
X103820745Y-84714631D01*
X103650476Y-84774211D01*
X103497737Y-84870184D01*
X103370184Y-84997737D01*
X103274211Y-85150476D01*
X103214631Y-85320745D01*
X103214630Y-85320750D01*
X103194435Y-85499996D01*
X72052354Y-85499996D01*
X71938166Y-85325217D01*
X71916557Y-85301744D01*
X71769744Y-85142262D01*
X71573509Y-84989526D01*
X71573507Y-84989525D01*
X71573506Y-84989524D01*
X71354811Y-84871172D01*
X71354802Y-84871169D01*
X71119616Y-84790429D01*
X70874335Y-84749500D01*
X70625665Y-84749500D01*
X70380383Y-84790429D01*
X70145197Y-84871169D01*
X70145188Y-84871172D01*
X69926493Y-84989524D01*
X69915940Y-84997738D01*
X69730256Y-85142262D01*
X69722693Y-85150478D01*
X69561833Y-85325217D01*
X69425826Y-85533393D01*
X69325936Y-85761118D01*
X69264892Y-86002175D01*
X69264890Y-86002187D01*
X69244357Y-86249994D01*
X65755643Y-86249994D01*
X65735109Y-86002187D01*
X65735107Y-86002175D01*
X65674063Y-85761118D01*
X65574173Y-85533393D01*
X65438166Y-85325217D01*
X65416557Y-85301744D01*
X65269744Y-85142262D01*
X65073509Y-84989526D01*
X65073507Y-84989525D01*
X65073506Y-84989524D01*
X64854811Y-84871172D01*
X64854802Y-84871169D01*
X64619616Y-84790429D01*
X64374335Y-84749500D01*
X64125665Y-84749500D01*
X63880383Y-84790429D01*
X63645197Y-84871169D01*
X63645188Y-84871172D01*
X63426493Y-84989524D01*
X63415940Y-84997738D01*
X63230256Y-85142262D01*
X63222693Y-85150478D01*
X63061833Y-85325217D01*
X62925826Y-85533393D01*
X62825936Y-85761118D01*
X62764892Y-86002175D01*
X62764890Y-86002187D01*
X62744357Y-86249994D01*
X58500500Y-86249994D01*
X58500500Y-81749994D01*
X62744357Y-81749994D01*
X62744357Y-81750005D01*
X62764890Y-81997812D01*
X62764892Y-81997824D01*
X62825936Y-82238881D01*
X62925826Y-82466606D01*
X63061833Y-82674782D01*
X63061836Y-82674785D01*
X63230256Y-82857738D01*
X63426491Y-83010474D01*
X63645190Y-83128828D01*
X63880386Y-83209571D01*
X64125665Y-83250500D01*
X64374335Y-83250500D01*
X64619614Y-83209571D01*
X64854810Y-83128828D01*
X65073509Y-83010474D01*
X65269744Y-82857738D01*
X65438164Y-82674785D01*
X65574173Y-82466607D01*
X65674063Y-82238881D01*
X65735108Y-81997821D01*
X65735109Y-81997812D01*
X65755643Y-81750005D01*
X65755643Y-81749994D01*
X69244357Y-81749994D01*
X69244357Y-81750005D01*
X69264890Y-81997812D01*
X69264892Y-81997824D01*
X69325936Y-82238881D01*
X69425826Y-82466606D01*
X69561833Y-82674782D01*
X69561836Y-82674785D01*
X69730256Y-82857738D01*
X69926491Y-83010474D01*
X70145190Y-83128828D01*
X70380386Y-83209571D01*
X70625665Y-83250500D01*
X70874335Y-83250500D01*
X71119614Y-83209571D01*
X71354810Y-83128828D01*
X71573509Y-83010474D01*
X71769744Y-82857738D01*
X71938164Y-82674785D01*
X72074173Y-82466607D01*
X72174063Y-82238881D01*
X72234557Y-81999996D01*
X75194435Y-81999996D01*
X75194435Y-82000003D01*
X75214630Y-82179249D01*
X75214631Y-82179254D01*
X75274211Y-82349523D01*
X75347780Y-82466606D01*
X75370184Y-82502262D01*
X75497738Y-82629816D01*
X75650478Y-82725789D01*
X75820745Y-82785368D01*
X75820750Y-82785369D01*
X75999996Y-82805565D01*
X76000000Y-82805565D01*
X76000004Y-82805565D01*
X76179249Y-82785369D01*
X76179252Y-82785368D01*
X76179255Y-82785368D01*
X76349522Y-82725789D01*
X76502262Y-82629816D01*
X76629816Y-82502262D01*
X76725789Y-82349522D01*
X76785368Y-82179255D01*
X76805565Y-82000000D01*
X76805565Y-81999996D01*
X103194435Y-81999996D01*
X103194435Y-82000003D01*
X103214630Y-82179249D01*
X103214631Y-82179254D01*
X103274211Y-82349523D01*
X103347780Y-82466606D01*
X103370184Y-82502262D01*
X103497738Y-82629816D01*
X103650478Y-82725789D01*
X103820745Y-82785368D01*
X103820750Y-82785369D01*
X103999996Y-82805565D01*
X104000000Y-82805565D01*
X104000004Y-82805565D01*
X104179249Y-82785369D01*
X104179252Y-82785368D01*
X104179255Y-82785368D01*
X104349522Y-82725789D01*
X104502262Y-82629816D01*
X104629816Y-82502262D01*
X104725789Y-82349522D01*
X104785368Y-82179255D01*
X104805565Y-82000000D01*
X104805319Y-81997821D01*
X104785369Y-81820750D01*
X104785368Y-81820745D01*
X104760611Y-81749994D01*
X127744357Y-81749994D01*
X127744357Y-81750005D01*
X127764890Y-81997812D01*
X127764892Y-81997824D01*
X127825936Y-82238881D01*
X127925826Y-82466606D01*
X128061833Y-82674782D01*
X128061836Y-82674785D01*
X128230256Y-82857738D01*
X128426491Y-83010474D01*
X128645190Y-83128828D01*
X128880386Y-83209571D01*
X129125665Y-83250500D01*
X129374335Y-83250500D01*
X129619614Y-83209571D01*
X129854810Y-83128828D01*
X130073509Y-83010474D01*
X130269744Y-82857738D01*
X130438164Y-82674785D01*
X130574173Y-82466607D01*
X130674063Y-82238881D01*
X130735108Y-81997821D01*
X130735109Y-81997812D01*
X130755643Y-81750005D01*
X130755643Y-81749994D01*
X134244357Y-81749994D01*
X134244357Y-81750005D01*
X134264890Y-81997812D01*
X134264892Y-81997824D01*
X134325936Y-82238881D01*
X134425826Y-82466606D01*
X134561833Y-82674782D01*
X134561836Y-82674785D01*
X134730256Y-82857738D01*
X134926491Y-83010474D01*
X135145190Y-83128828D01*
X135380386Y-83209571D01*
X135625665Y-83250500D01*
X135874335Y-83250500D01*
X136119614Y-83209571D01*
X136354810Y-83128828D01*
X136573509Y-83010474D01*
X136769744Y-82857738D01*
X136938164Y-82674785D01*
X137074173Y-82466607D01*
X137174063Y-82238881D01*
X137235108Y-81997821D01*
X137235109Y-81997812D01*
X137255643Y-81750005D01*
X137255643Y-81749994D01*
X137235109Y-81502187D01*
X137235107Y-81502175D01*
X137174063Y-81261118D01*
X137074173Y-81033393D01*
X136938166Y-80825217D01*
X136783007Y-80656670D01*
X136769744Y-80642262D01*
X136573509Y-80489526D01*
X136573507Y-80489525D01*
X136573506Y-80489524D01*
X136354811Y-80371172D01*
X136354802Y-80371169D01*
X136119616Y-80290429D01*
X135874335Y-80249500D01*
X135625665Y-80249500D01*
X135380383Y-80290429D01*
X135145197Y-80371169D01*
X135145188Y-80371172D01*
X134926493Y-80489524D01*
X134730257Y-80642261D01*
X134561833Y-80825217D01*
X134425826Y-81033393D01*
X134325936Y-81261118D01*
X134264892Y-81502175D01*
X134264890Y-81502187D01*
X134244357Y-81749994D01*
X130755643Y-81749994D01*
X130735109Y-81502187D01*
X130735107Y-81502175D01*
X130674063Y-81261118D01*
X130574173Y-81033393D01*
X130438166Y-80825217D01*
X130283007Y-80656670D01*
X130269744Y-80642262D01*
X130073509Y-80489526D01*
X130073507Y-80489525D01*
X130073506Y-80489524D01*
X129854811Y-80371172D01*
X129854802Y-80371169D01*
X129619616Y-80290429D01*
X129374335Y-80249500D01*
X129125665Y-80249500D01*
X128880383Y-80290429D01*
X128645197Y-80371169D01*
X128645188Y-80371172D01*
X128426493Y-80489524D01*
X128230257Y-80642261D01*
X128061833Y-80825217D01*
X127925826Y-81033393D01*
X127825936Y-81261118D01*
X127764892Y-81502175D01*
X127764890Y-81502187D01*
X127744357Y-81749994D01*
X104760611Y-81749994D01*
X104725788Y-81650476D01*
X104629815Y-81497737D01*
X104502262Y-81370184D01*
X104349523Y-81274211D01*
X104179254Y-81214631D01*
X104179249Y-81214630D01*
X104000004Y-81194435D01*
X103999996Y-81194435D01*
X103820750Y-81214630D01*
X103820745Y-81214631D01*
X103650476Y-81274211D01*
X103497737Y-81370184D01*
X103370184Y-81497737D01*
X103274211Y-81650476D01*
X103214631Y-81820745D01*
X103214630Y-81820750D01*
X103194435Y-81999996D01*
X76805565Y-81999996D01*
X76805319Y-81997821D01*
X76785369Y-81820750D01*
X76785368Y-81820745D01*
X76725788Y-81650476D01*
X76629815Y-81497737D01*
X76502262Y-81370184D01*
X76349523Y-81274211D01*
X76179254Y-81214631D01*
X76179249Y-81214630D01*
X76000004Y-81194435D01*
X75999996Y-81194435D01*
X75820750Y-81214630D01*
X75820745Y-81214631D01*
X75650476Y-81274211D01*
X75497737Y-81370184D01*
X75370184Y-81497737D01*
X75274211Y-81650476D01*
X75214631Y-81820745D01*
X75214630Y-81820750D01*
X75194435Y-81999996D01*
X72234557Y-81999996D01*
X72235108Y-81997821D01*
X72235109Y-81997812D01*
X72255643Y-81750005D01*
X72255643Y-81749994D01*
X72235109Y-81502187D01*
X72235107Y-81502175D01*
X72174063Y-81261118D01*
X72074173Y-81033393D01*
X71938166Y-80825217D01*
X71783007Y-80656670D01*
X71769744Y-80642262D01*
X71573509Y-80489526D01*
X71573507Y-80489525D01*
X71573506Y-80489524D01*
X71354811Y-80371172D01*
X71354802Y-80371169D01*
X71119616Y-80290429D01*
X70874335Y-80249500D01*
X70625665Y-80249500D01*
X70380383Y-80290429D01*
X70145197Y-80371169D01*
X70145188Y-80371172D01*
X69926493Y-80489524D01*
X69730257Y-80642261D01*
X69561833Y-80825217D01*
X69425826Y-81033393D01*
X69325936Y-81261118D01*
X69264892Y-81502175D01*
X69264890Y-81502187D01*
X69244357Y-81749994D01*
X65755643Y-81749994D01*
X65735109Y-81502187D01*
X65735107Y-81502175D01*
X65674063Y-81261118D01*
X65574173Y-81033393D01*
X65438166Y-80825217D01*
X65283007Y-80656670D01*
X65269744Y-80642262D01*
X65073509Y-80489526D01*
X65073507Y-80489525D01*
X65073506Y-80489524D01*
X64854811Y-80371172D01*
X64854802Y-80371169D01*
X64619616Y-80290429D01*
X64374335Y-80249500D01*
X64125665Y-80249500D01*
X63880383Y-80290429D01*
X63645197Y-80371169D01*
X63645188Y-80371172D01*
X63426493Y-80489524D01*
X63230257Y-80642261D01*
X63061833Y-80825217D01*
X62925826Y-81033393D01*
X62825936Y-81261118D01*
X62764892Y-81502175D01*
X62764890Y-81502187D01*
X62744357Y-81749994D01*
X58500500Y-81749994D01*
X58500500Y-79385258D01*
X78249500Y-79385258D01*
X78249500Y-79614741D01*
X78274446Y-79804215D01*
X78279452Y-79842238D01*
X78279453Y-79842240D01*
X78338842Y-80063887D01*
X78426650Y-80275876D01*
X78426657Y-80275890D01*
X78541392Y-80474617D01*
X78681081Y-80656661D01*
X78681089Y-80656670D01*
X78843330Y-80818911D01*
X78843338Y-80818918D01*
X79025382Y-80958607D01*
X79025385Y-80958608D01*
X79025388Y-80958611D01*
X79224112Y-81073344D01*
X79224117Y-81073346D01*
X79224123Y-81073349D01*
X79315480Y-81111190D01*
X79436113Y-81161158D01*
X79657762Y-81220548D01*
X79885266Y-81250500D01*
X79885273Y-81250500D01*
X80114727Y-81250500D01*
X80114734Y-81250500D01*
X80342238Y-81220548D01*
X80563887Y-81161158D01*
X80775888Y-81073344D01*
X80974612Y-80958611D01*
X81156661Y-80818919D01*
X81156665Y-80818914D01*
X81156670Y-80818911D01*
X81318911Y-80656670D01*
X81318914Y-80656665D01*
X81318919Y-80656661D01*
X81458611Y-80474612D01*
X81573344Y-80275888D01*
X81661158Y-80063887D01*
X81720548Y-79842238D01*
X81750500Y-79614734D01*
X81750500Y-79385266D01*
X81750499Y-79385258D01*
X118249500Y-79385258D01*
X118249500Y-79614741D01*
X118274446Y-79804215D01*
X118279452Y-79842238D01*
X118279453Y-79842240D01*
X118338842Y-80063887D01*
X118426650Y-80275876D01*
X118426657Y-80275890D01*
X118541392Y-80474617D01*
X118681081Y-80656661D01*
X118681089Y-80656670D01*
X118843330Y-80818911D01*
X118843338Y-80818918D01*
X119025382Y-80958607D01*
X119025385Y-80958608D01*
X119025388Y-80958611D01*
X119224112Y-81073344D01*
X119224117Y-81073346D01*
X119224123Y-81073349D01*
X119315480Y-81111190D01*
X119436113Y-81161158D01*
X119657762Y-81220548D01*
X119885266Y-81250500D01*
X119885273Y-81250500D01*
X120114727Y-81250500D01*
X120114734Y-81250500D01*
X120342238Y-81220548D01*
X120563887Y-81161158D01*
X120775888Y-81073344D01*
X120974612Y-80958611D01*
X121156661Y-80818919D01*
X121156665Y-80818914D01*
X121156670Y-80818911D01*
X121318911Y-80656670D01*
X121318914Y-80656665D01*
X121318919Y-80656661D01*
X121458611Y-80474612D01*
X121573344Y-80275888D01*
X121661158Y-80063887D01*
X121720548Y-79842238D01*
X121750500Y-79614734D01*
X121750500Y-79385266D01*
X121720548Y-79157762D01*
X121661158Y-78936113D01*
X121573344Y-78724112D01*
X121458611Y-78525388D01*
X121458608Y-78525385D01*
X121458607Y-78525382D01*
X121318918Y-78343338D01*
X121318911Y-78343330D01*
X121156670Y-78181089D01*
X121156661Y-78181081D01*
X120974617Y-78041392D01*
X120775890Y-77926657D01*
X120775876Y-77926650D01*
X120563887Y-77838842D01*
X120342238Y-77779452D01*
X120304215Y-77774446D01*
X120114741Y-77749500D01*
X120114734Y-77749500D01*
X119885266Y-77749500D01*
X119885258Y-77749500D01*
X119668715Y-77778009D01*
X119657762Y-77779452D01*
X119564076Y-77804554D01*
X119436112Y-77838842D01*
X119224123Y-77926650D01*
X119224109Y-77926657D01*
X119025382Y-78041392D01*
X118843338Y-78181081D01*
X118681081Y-78343338D01*
X118541392Y-78525382D01*
X118426657Y-78724109D01*
X118426650Y-78724123D01*
X118338842Y-78936112D01*
X118279453Y-79157759D01*
X118279451Y-79157770D01*
X118249500Y-79385258D01*
X81750499Y-79385258D01*
X81720548Y-79157762D01*
X81661158Y-78936113D01*
X81573344Y-78724112D01*
X81458611Y-78525388D01*
X81458608Y-78525385D01*
X81458607Y-78525382D01*
X81318918Y-78343338D01*
X81318911Y-78343330D01*
X81156670Y-78181089D01*
X81156661Y-78181081D01*
X80974617Y-78041392D01*
X80775890Y-77926657D01*
X80775876Y-77926650D01*
X80563887Y-77838842D01*
X80342238Y-77779452D01*
X80304215Y-77774446D01*
X80114741Y-77749500D01*
X80114734Y-77749500D01*
X79885266Y-77749500D01*
X79885258Y-77749500D01*
X79668715Y-77778009D01*
X79657762Y-77779452D01*
X79564076Y-77804554D01*
X79436112Y-77838842D01*
X79224123Y-77926650D01*
X79224109Y-77926657D01*
X79025382Y-78041392D01*
X78843338Y-78181081D01*
X78681081Y-78343338D01*
X78541392Y-78525382D01*
X78426657Y-78724109D01*
X78426650Y-78724123D01*
X78338842Y-78936112D01*
X78279453Y-79157759D01*
X78279451Y-79157770D01*
X78249500Y-79385258D01*
X58500500Y-79385258D01*
X58500500Y-73902135D01*
X79649500Y-73902135D01*
X79649500Y-75697870D01*
X79649501Y-75697876D01*
X79655908Y-75757483D01*
X79706202Y-75892328D01*
X79706206Y-75892335D01*
X79792452Y-76007544D01*
X79792455Y-76007547D01*
X79907664Y-76093793D01*
X79907671Y-76093797D01*
X80042517Y-76144091D01*
X80042516Y-76144091D01*
X80049444Y-76144835D01*
X80102127Y-76150500D01*
X81897872Y-76150499D01*
X81957483Y-76144091D01*
X82092331Y-76093796D01*
X82207546Y-76007546D01*
X82293796Y-75892331D01*
X82343002Y-75760401D01*
X82384872Y-75704468D01*
X82450337Y-75680050D01*
X82518610Y-75694901D01*
X82546865Y-75716053D01*
X82668917Y-75838105D01*
X82862421Y-75973600D01*
X83076507Y-76073429D01*
X83076516Y-76073433D01*
X83290000Y-76130634D01*
X83290000Y-75233012D01*
X83347007Y-75265925D01*
X83474174Y-75300000D01*
X83605826Y-75300000D01*
X83732993Y-75265925D01*
X83790000Y-75233012D01*
X83790000Y-76130633D01*
X84003483Y-76073433D01*
X84003492Y-76073429D01*
X84217578Y-75973600D01*
X84411082Y-75838105D01*
X84578105Y-75671082D01*
X84708119Y-75485405D01*
X84762696Y-75441781D01*
X84832195Y-75434588D01*
X84894549Y-75466110D01*
X84911269Y-75485405D01*
X85041505Y-75671401D01*
X85208599Y-75838495D01*
X85305384Y-75906265D01*
X85402165Y-75974032D01*
X85402167Y-75974033D01*
X85402170Y-75974035D01*
X85616337Y-76073903D01*
X85844592Y-76135063D01*
X86021034Y-76150500D01*
X86079999Y-76155659D01*
X86080000Y-76155659D01*
X86080001Y-76155659D01*
X86138966Y-76150500D01*
X86315408Y-76135063D01*
X86543663Y-76073903D01*
X86757830Y-75974035D01*
X86951401Y-75838495D01*
X87118495Y-75671401D01*
X87248425Y-75485842D01*
X87303002Y-75442217D01*
X87372500Y-75435023D01*
X87434855Y-75466546D01*
X87451575Y-75485842D01*
X87581500Y-75671395D01*
X87581505Y-75671401D01*
X87748599Y-75838495D01*
X87845384Y-75906265D01*
X87942165Y-75974032D01*
X87942167Y-75974033D01*
X87942170Y-75974035D01*
X88156337Y-76073903D01*
X88384592Y-76135063D01*
X88561034Y-76150500D01*
X88619999Y-76155659D01*
X88620000Y-76155659D01*
X88620001Y-76155659D01*
X88678966Y-76150500D01*
X88855408Y-76135063D01*
X89083663Y-76073903D01*
X89297830Y-75974035D01*
X89491401Y-75838495D01*
X89658495Y-75671401D01*
X89788425Y-75485842D01*
X89843002Y-75442217D01*
X89912500Y-75435023D01*
X89974855Y-75466546D01*
X89991575Y-75485842D01*
X90121500Y-75671395D01*
X90121505Y-75671401D01*
X90288599Y-75838495D01*
X90385384Y-75906265D01*
X90482165Y-75974032D01*
X90482167Y-75974033D01*
X90482170Y-75974035D01*
X90696337Y-76073903D01*
X90924592Y-76135063D01*
X91101034Y-76150500D01*
X91159999Y-76155659D01*
X91160000Y-76155659D01*
X91160001Y-76155659D01*
X91218966Y-76150500D01*
X91395408Y-76135063D01*
X91623663Y-76073903D01*
X91837830Y-75974035D01*
X92031401Y-75838495D01*
X92198495Y-75671401D01*
X92328425Y-75485842D01*
X92383002Y-75442217D01*
X92452500Y-75435023D01*
X92514855Y-75466546D01*
X92531575Y-75485842D01*
X92661500Y-75671395D01*
X92661505Y-75671401D01*
X92828599Y-75838495D01*
X92925384Y-75906265D01*
X93022165Y-75974032D01*
X93022167Y-75974033D01*
X93022170Y-75974035D01*
X93236337Y-76073903D01*
X93464592Y-76135063D01*
X93641034Y-76150500D01*
X93699999Y-76155659D01*
X93700000Y-76155659D01*
X93700001Y-76155659D01*
X93758966Y-76150500D01*
X93935408Y-76135063D01*
X94163663Y-76073903D01*
X94377830Y-75974035D01*
X94571401Y-75838495D01*
X94738495Y-75671401D01*
X94868425Y-75485842D01*
X94923002Y-75442217D01*
X94992500Y-75435023D01*
X95054855Y-75466546D01*
X95071575Y-75485842D01*
X95201500Y-75671395D01*
X95201505Y-75671401D01*
X95368599Y-75838495D01*
X95465384Y-75906265D01*
X95562165Y-75974032D01*
X95562167Y-75974033D01*
X95562170Y-75974035D01*
X95776337Y-76073903D01*
X96004592Y-76135063D01*
X96181034Y-76150500D01*
X96239999Y-76155659D01*
X96240000Y-76155659D01*
X96240001Y-76155659D01*
X96298966Y-76150500D01*
X96475408Y-76135063D01*
X96703663Y-76073903D01*
X96917830Y-75974035D01*
X97111401Y-75838495D01*
X97278495Y-75671401D01*
X97408425Y-75485842D01*
X97463002Y-75442217D01*
X97532500Y-75435023D01*
X97594855Y-75466546D01*
X97611575Y-75485842D01*
X97741500Y-75671395D01*
X97741505Y-75671401D01*
X97908599Y-75838495D01*
X98005384Y-75906265D01*
X98102165Y-75974032D01*
X98102167Y-75974033D01*
X98102170Y-75974035D01*
X98316337Y-76073903D01*
X98544592Y-76135063D01*
X98721034Y-76150500D01*
X98779999Y-76155659D01*
X98780000Y-76155659D01*
X98780001Y-76155659D01*
X98838966Y-76150500D01*
X99015408Y-76135063D01*
X99243663Y-76073903D01*
X99457830Y-75974035D01*
X99651401Y-75838495D01*
X99818495Y-75671401D01*
X99948425Y-75485842D01*
X100003002Y-75442217D01*
X100072500Y-75435023D01*
X100134855Y-75466546D01*
X100151575Y-75485842D01*
X100281500Y-75671395D01*
X100281505Y-75671401D01*
X100448599Y-75838495D01*
X100545384Y-75906265D01*
X100642165Y-75974032D01*
X100642167Y-75974033D01*
X100642170Y-75974035D01*
X100856337Y-76073903D01*
X101084592Y-76135063D01*
X101261034Y-76150500D01*
X101319999Y-76155659D01*
X101320000Y-76155659D01*
X101320001Y-76155659D01*
X101378966Y-76150500D01*
X101555408Y-76135063D01*
X101783663Y-76073903D01*
X101997830Y-75974035D01*
X102191401Y-75838495D01*
X102358495Y-75671401D01*
X102488425Y-75485842D01*
X102543002Y-75442217D01*
X102612500Y-75435023D01*
X102674855Y-75466546D01*
X102691575Y-75485842D01*
X102821500Y-75671395D01*
X102821505Y-75671401D01*
X102988599Y-75838495D01*
X103085384Y-75906265D01*
X103182165Y-75974032D01*
X103182167Y-75974033D01*
X103182170Y-75974035D01*
X103396337Y-76073903D01*
X103624592Y-76135063D01*
X103801034Y-76150500D01*
X103859999Y-76155659D01*
X103860000Y-76155659D01*
X103860001Y-76155659D01*
X103918966Y-76150500D01*
X104095408Y-76135063D01*
X104323663Y-76073903D01*
X104537830Y-75974035D01*
X104731401Y-75838495D01*
X104898495Y-75671401D01*
X105028425Y-75485842D01*
X105083002Y-75442217D01*
X105152500Y-75435023D01*
X105214855Y-75466546D01*
X105231575Y-75485842D01*
X105361500Y-75671395D01*
X105361505Y-75671401D01*
X105528599Y-75838495D01*
X105625384Y-75906265D01*
X105722165Y-75974032D01*
X105722167Y-75974033D01*
X105722170Y-75974035D01*
X105936337Y-76073903D01*
X106164592Y-76135063D01*
X106341034Y-76150500D01*
X106399999Y-76155659D01*
X106400000Y-76155659D01*
X106400001Y-76155659D01*
X106458966Y-76150500D01*
X106635408Y-76135063D01*
X106863663Y-76073903D01*
X107077830Y-75974035D01*
X107271401Y-75838495D01*
X107438495Y-75671401D01*
X107568425Y-75485842D01*
X107623002Y-75442217D01*
X107692500Y-75435023D01*
X107754855Y-75466546D01*
X107771575Y-75485842D01*
X107901500Y-75671395D01*
X107901505Y-75671401D01*
X108068599Y-75838495D01*
X108165384Y-75906265D01*
X108262165Y-75974032D01*
X108262167Y-75974033D01*
X108262170Y-75974035D01*
X108476337Y-76073903D01*
X108704592Y-76135063D01*
X108881034Y-76150500D01*
X108939999Y-76155659D01*
X108940000Y-76155659D01*
X108940001Y-76155659D01*
X108998966Y-76150500D01*
X109175408Y-76135063D01*
X109403663Y-76073903D01*
X109617830Y-75974035D01*
X109811401Y-75838495D01*
X109978495Y-75671401D01*
X110108425Y-75485842D01*
X110163002Y-75442217D01*
X110232500Y-75435023D01*
X110294855Y-75466546D01*
X110311575Y-75485842D01*
X110441500Y-75671395D01*
X110441505Y-75671401D01*
X110608599Y-75838495D01*
X110705384Y-75906265D01*
X110802165Y-75974032D01*
X110802167Y-75974033D01*
X110802170Y-75974035D01*
X111016337Y-76073903D01*
X111244592Y-76135063D01*
X111421034Y-76150500D01*
X111479999Y-76155659D01*
X111480000Y-76155659D01*
X111480001Y-76155659D01*
X111538966Y-76150500D01*
X111715408Y-76135063D01*
X111943663Y-76073903D01*
X112157830Y-75974035D01*
X112351401Y-75838495D01*
X112518495Y-75671401D01*
X112648425Y-75485842D01*
X112703002Y-75442217D01*
X112772500Y-75435023D01*
X112834855Y-75466546D01*
X112851575Y-75485842D01*
X112981500Y-75671395D01*
X112981505Y-75671401D01*
X113148599Y-75838495D01*
X113245384Y-75906265D01*
X113342165Y-75974032D01*
X113342167Y-75974033D01*
X113342170Y-75974035D01*
X113556337Y-76073903D01*
X113784592Y-76135063D01*
X113961034Y-76150500D01*
X114019999Y-76155659D01*
X114020000Y-76155659D01*
X114020001Y-76155659D01*
X114078966Y-76150500D01*
X114255408Y-76135063D01*
X114483663Y-76073903D01*
X114697830Y-75974035D01*
X114891401Y-75838495D01*
X115058495Y-75671401D01*
X115188425Y-75485842D01*
X115243002Y-75442217D01*
X115312500Y-75435023D01*
X115374855Y-75466546D01*
X115391575Y-75485842D01*
X115521500Y-75671395D01*
X115521505Y-75671401D01*
X115688599Y-75838495D01*
X115785384Y-75906265D01*
X115882165Y-75974032D01*
X115882167Y-75974033D01*
X115882170Y-75974035D01*
X116096337Y-76073903D01*
X116324592Y-76135063D01*
X116501034Y-76150500D01*
X116559999Y-76155659D01*
X116560000Y-76155659D01*
X116560001Y-76155659D01*
X116618966Y-76150500D01*
X116795408Y-76135063D01*
X117023663Y-76073903D01*
X117237830Y-75974035D01*
X117431401Y-75838495D01*
X117598495Y-75671401D01*
X117728425Y-75485842D01*
X117783002Y-75442217D01*
X117852500Y-75435023D01*
X117914855Y-75466546D01*
X117931575Y-75485842D01*
X118061500Y-75671395D01*
X118061505Y-75671401D01*
X118228599Y-75838495D01*
X118325384Y-75906265D01*
X118422165Y-75974032D01*
X118422167Y-75974033D01*
X118422170Y-75974035D01*
X118636337Y-76073903D01*
X118864592Y-76135063D01*
X119041034Y-76150500D01*
X119099999Y-76155659D01*
X119100000Y-76155659D01*
X119100001Y-76155659D01*
X119158966Y-76150500D01*
X119335408Y-76135063D01*
X119563663Y-76073903D01*
X119777830Y-75974035D01*
X119971401Y-75838495D01*
X120138495Y-75671401D01*
X120274035Y-75477830D01*
X120373903Y-75263663D01*
X120435063Y-75035408D01*
X120455659Y-74800000D01*
X120435063Y-74564592D01*
X120373903Y-74336337D01*
X120274035Y-74122171D01*
X120268731Y-74114595D01*
X120138494Y-73928597D01*
X119971402Y-73761506D01*
X119971395Y-73761501D01*
X119777834Y-73625967D01*
X119777830Y-73625965D01*
X119777828Y-73625964D01*
X119563663Y-73526097D01*
X119563659Y-73526096D01*
X119563655Y-73526094D01*
X119335413Y-73464938D01*
X119335403Y-73464936D01*
X119100001Y-73444341D01*
X119099999Y-73444341D01*
X118864596Y-73464936D01*
X118864586Y-73464938D01*
X118636344Y-73526094D01*
X118636335Y-73526098D01*
X118422171Y-73625964D01*
X118422169Y-73625965D01*
X118228597Y-73761505D01*
X118061505Y-73928597D01*
X117931575Y-74114158D01*
X117876998Y-74157783D01*
X117807500Y-74164977D01*
X117745145Y-74133454D01*
X117728425Y-74114158D01*
X117598494Y-73928597D01*
X117431402Y-73761506D01*
X117431395Y-73761501D01*
X117237834Y-73625967D01*
X117237830Y-73625965D01*
X117237828Y-73625964D01*
X117023663Y-73526097D01*
X117023659Y-73526096D01*
X117023655Y-73526094D01*
X116795413Y-73464938D01*
X116795403Y-73464936D01*
X116560001Y-73444341D01*
X116559999Y-73444341D01*
X116324596Y-73464936D01*
X116324586Y-73464938D01*
X116096344Y-73526094D01*
X116096335Y-73526098D01*
X115882171Y-73625964D01*
X115882169Y-73625965D01*
X115688597Y-73761505D01*
X115521505Y-73928597D01*
X115391575Y-74114158D01*
X115336998Y-74157783D01*
X115267500Y-74164977D01*
X115205145Y-74133454D01*
X115188425Y-74114158D01*
X115058494Y-73928597D01*
X114891402Y-73761506D01*
X114891395Y-73761501D01*
X114697834Y-73625967D01*
X114697830Y-73625965D01*
X114697828Y-73625964D01*
X114483663Y-73526097D01*
X114483659Y-73526096D01*
X114483655Y-73526094D01*
X114255413Y-73464938D01*
X114255403Y-73464936D01*
X114020001Y-73444341D01*
X114019999Y-73444341D01*
X113784596Y-73464936D01*
X113784586Y-73464938D01*
X113556344Y-73526094D01*
X113556335Y-73526098D01*
X113342171Y-73625964D01*
X113342169Y-73625965D01*
X113148597Y-73761505D01*
X112981505Y-73928597D01*
X112851575Y-74114158D01*
X112796998Y-74157783D01*
X112727500Y-74164977D01*
X112665145Y-74133454D01*
X112648425Y-74114158D01*
X112518494Y-73928597D01*
X112351402Y-73761506D01*
X112351395Y-73761501D01*
X112157834Y-73625967D01*
X112157830Y-73625965D01*
X112157828Y-73625964D01*
X111943663Y-73526097D01*
X111943659Y-73526096D01*
X111943655Y-73526094D01*
X111715413Y-73464938D01*
X111715403Y-73464936D01*
X111480001Y-73444341D01*
X111479999Y-73444341D01*
X111244596Y-73464936D01*
X111244586Y-73464938D01*
X111016344Y-73526094D01*
X111016335Y-73526098D01*
X110802171Y-73625964D01*
X110802169Y-73625965D01*
X110608597Y-73761505D01*
X110441505Y-73928597D01*
X110311575Y-74114158D01*
X110256998Y-74157783D01*
X110187500Y-74164977D01*
X110125145Y-74133454D01*
X110108425Y-74114158D01*
X109978494Y-73928597D01*
X109811402Y-73761506D01*
X109811395Y-73761501D01*
X109617834Y-73625967D01*
X109617830Y-73625965D01*
X109617828Y-73625964D01*
X109403663Y-73526097D01*
X109403659Y-73526096D01*
X109403655Y-73526094D01*
X109175413Y-73464938D01*
X109175403Y-73464936D01*
X108940001Y-73444341D01*
X108939999Y-73444341D01*
X108704596Y-73464936D01*
X108704586Y-73464938D01*
X108476344Y-73526094D01*
X108476335Y-73526098D01*
X108262171Y-73625964D01*
X108262169Y-73625965D01*
X108068597Y-73761505D01*
X107901505Y-73928597D01*
X107771575Y-74114158D01*
X107716998Y-74157783D01*
X107647500Y-74164977D01*
X107585145Y-74133454D01*
X107568425Y-74114158D01*
X107438494Y-73928597D01*
X107271402Y-73761506D01*
X107271395Y-73761501D01*
X107077834Y-73625967D01*
X107077830Y-73625965D01*
X107077828Y-73625964D01*
X106863663Y-73526097D01*
X106863659Y-73526096D01*
X106863655Y-73526094D01*
X106635413Y-73464938D01*
X106635403Y-73464936D01*
X106400001Y-73444341D01*
X106399999Y-73444341D01*
X106164596Y-73464936D01*
X106164586Y-73464938D01*
X105936344Y-73526094D01*
X105936335Y-73526098D01*
X105722171Y-73625964D01*
X105722169Y-73625965D01*
X105528597Y-73761505D01*
X105361505Y-73928597D01*
X105231575Y-74114158D01*
X105176998Y-74157783D01*
X105107500Y-74164977D01*
X105045145Y-74133454D01*
X105028425Y-74114158D01*
X104898494Y-73928597D01*
X104731402Y-73761506D01*
X104731395Y-73761501D01*
X104537834Y-73625967D01*
X104537830Y-73625965D01*
X104537828Y-73625964D01*
X104323663Y-73526097D01*
X104323659Y-73526096D01*
X104323655Y-73526094D01*
X104095413Y-73464938D01*
X104095403Y-73464936D01*
X103860001Y-73444341D01*
X103859999Y-73444341D01*
X103624596Y-73464936D01*
X103624586Y-73464938D01*
X103396344Y-73526094D01*
X103396335Y-73526098D01*
X103182171Y-73625964D01*
X103182169Y-73625965D01*
X102988597Y-73761505D01*
X102821505Y-73928597D01*
X102691575Y-74114158D01*
X102636998Y-74157783D01*
X102567500Y-74164977D01*
X102505145Y-74133454D01*
X102488425Y-74114158D01*
X102358494Y-73928597D01*
X102191402Y-73761506D01*
X102191395Y-73761501D01*
X101997834Y-73625967D01*
X101997830Y-73625965D01*
X101997828Y-73625964D01*
X101783663Y-73526097D01*
X101783659Y-73526096D01*
X101783655Y-73526094D01*
X101555413Y-73464938D01*
X101555403Y-73464936D01*
X101320001Y-73444341D01*
X101319999Y-73444341D01*
X101084596Y-73464936D01*
X101084586Y-73464938D01*
X100856344Y-73526094D01*
X100856335Y-73526098D01*
X100642171Y-73625964D01*
X100642169Y-73625965D01*
X100448597Y-73761505D01*
X100281505Y-73928597D01*
X100151575Y-74114158D01*
X100096998Y-74157783D01*
X100027500Y-74164977D01*
X99965145Y-74133454D01*
X99948425Y-74114158D01*
X99818494Y-73928597D01*
X99651402Y-73761506D01*
X99651395Y-73761501D01*
X99457834Y-73625967D01*
X99457830Y-73625965D01*
X99457828Y-73625964D01*
X99243663Y-73526097D01*
X99243659Y-73526096D01*
X99243655Y-73526094D01*
X99015413Y-73464938D01*
X99015403Y-73464936D01*
X98780001Y-73444341D01*
X98779999Y-73444341D01*
X98544596Y-73464936D01*
X98544586Y-73464938D01*
X98316344Y-73526094D01*
X98316335Y-73526098D01*
X98102171Y-73625964D01*
X98102169Y-73625965D01*
X97908597Y-73761505D01*
X97741505Y-73928597D01*
X97611575Y-74114158D01*
X97556998Y-74157783D01*
X97487500Y-74164977D01*
X97425145Y-74133454D01*
X97408425Y-74114158D01*
X97278494Y-73928597D01*
X97111402Y-73761506D01*
X97111395Y-73761501D01*
X96917834Y-73625967D01*
X96917830Y-73625965D01*
X96917828Y-73625964D01*
X96703663Y-73526097D01*
X96703659Y-73526096D01*
X96703655Y-73526094D01*
X96475413Y-73464938D01*
X96475403Y-73464936D01*
X96240001Y-73444341D01*
X96239999Y-73444341D01*
X96004596Y-73464936D01*
X96004586Y-73464938D01*
X95776344Y-73526094D01*
X95776335Y-73526098D01*
X95562171Y-73625964D01*
X95562169Y-73625965D01*
X95368597Y-73761505D01*
X95201505Y-73928597D01*
X95071575Y-74114158D01*
X95016998Y-74157783D01*
X94947500Y-74164977D01*
X94885145Y-74133454D01*
X94868425Y-74114158D01*
X94738494Y-73928597D01*
X94571402Y-73761506D01*
X94571395Y-73761501D01*
X94377834Y-73625967D01*
X94377830Y-73625965D01*
X94377828Y-73625964D01*
X94163663Y-73526097D01*
X94163659Y-73526096D01*
X94163655Y-73526094D01*
X93935413Y-73464938D01*
X93935403Y-73464936D01*
X93700001Y-73444341D01*
X93699999Y-73444341D01*
X93464596Y-73464936D01*
X93464586Y-73464938D01*
X93236344Y-73526094D01*
X93236335Y-73526098D01*
X93022171Y-73625964D01*
X93022169Y-73625965D01*
X92828597Y-73761505D01*
X92661505Y-73928597D01*
X92531575Y-74114158D01*
X92476998Y-74157783D01*
X92407500Y-74164977D01*
X92345145Y-74133454D01*
X92328425Y-74114158D01*
X92198494Y-73928597D01*
X92031402Y-73761506D01*
X92031395Y-73761501D01*
X91837834Y-73625967D01*
X91837830Y-73625965D01*
X91837828Y-73625964D01*
X91623663Y-73526097D01*
X91623659Y-73526096D01*
X91623655Y-73526094D01*
X91395413Y-73464938D01*
X91395403Y-73464936D01*
X91160001Y-73444341D01*
X91159999Y-73444341D01*
X90924596Y-73464936D01*
X90924586Y-73464938D01*
X90696344Y-73526094D01*
X90696335Y-73526098D01*
X90482171Y-73625964D01*
X90482169Y-73625965D01*
X90288597Y-73761505D01*
X90121505Y-73928597D01*
X89991575Y-74114158D01*
X89936998Y-74157783D01*
X89867500Y-74164977D01*
X89805145Y-74133454D01*
X89788425Y-74114158D01*
X89658494Y-73928597D01*
X89491402Y-73761506D01*
X89491395Y-73761501D01*
X89297834Y-73625967D01*
X89297830Y-73625965D01*
X89297828Y-73625964D01*
X89083663Y-73526097D01*
X89083659Y-73526096D01*
X89083655Y-73526094D01*
X88855413Y-73464938D01*
X88855403Y-73464936D01*
X88620001Y-73444341D01*
X88619999Y-73444341D01*
X88384596Y-73464936D01*
X88384586Y-73464938D01*
X88156344Y-73526094D01*
X88156335Y-73526098D01*
X87942171Y-73625964D01*
X87942169Y-73625965D01*
X87748597Y-73761505D01*
X87581505Y-73928597D01*
X87451575Y-74114158D01*
X87396998Y-74157783D01*
X87327500Y-74164977D01*
X87265145Y-74133454D01*
X87248425Y-74114158D01*
X87118494Y-73928597D01*
X86951402Y-73761506D01*
X86951395Y-73761501D01*
X86757834Y-73625967D01*
X86757830Y-73625965D01*
X86757828Y-73625964D01*
X86543663Y-73526097D01*
X86543659Y-73526096D01*
X86543655Y-73526094D01*
X86315413Y-73464938D01*
X86315403Y-73464936D01*
X86080001Y-73444341D01*
X86079999Y-73444341D01*
X85844596Y-73464936D01*
X85844586Y-73464938D01*
X85616344Y-73526094D01*
X85616335Y-73526098D01*
X85402171Y-73625964D01*
X85402169Y-73625965D01*
X85208597Y-73761505D01*
X85041508Y-73928594D01*
X84911269Y-74114595D01*
X84856692Y-74158219D01*
X84787193Y-74165412D01*
X84724839Y-74133890D01*
X84708119Y-74114594D01*
X84578113Y-73928926D01*
X84578108Y-73928920D01*
X84411082Y-73761894D01*
X84217578Y-73626399D01*
X84003492Y-73526570D01*
X84003486Y-73526567D01*
X83790000Y-73469364D01*
X83790000Y-74366988D01*
X83732993Y-74334075D01*
X83605826Y-74300000D01*
X83474174Y-74300000D01*
X83347007Y-74334075D01*
X83290000Y-74366988D01*
X83290000Y-73469364D01*
X83289999Y-73469364D01*
X83076513Y-73526567D01*
X83076507Y-73526570D01*
X82862422Y-73626399D01*
X82862420Y-73626400D01*
X82668926Y-73761886D01*
X82546865Y-73883947D01*
X82485542Y-73917431D01*
X82415850Y-73912447D01*
X82359917Y-73870575D01*
X82343002Y-73839598D01*
X82293797Y-73707671D01*
X82293793Y-73707664D01*
X82207547Y-73592455D01*
X82207544Y-73592452D01*
X82092335Y-73506206D01*
X82092328Y-73506202D01*
X81957482Y-73455908D01*
X81957483Y-73455908D01*
X81897883Y-73449501D01*
X81897881Y-73449500D01*
X81897873Y-73449500D01*
X81897864Y-73449500D01*
X80102129Y-73449500D01*
X80102123Y-73449501D01*
X80042516Y-73455908D01*
X79907671Y-73506202D01*
X79907664Y-73506206D01*
X79792455Y-73592452D01*
X79792452Y-73592455D01*
X79706206Y-73707664D01*
X79706202Y-73707671D01*
X79655908Y-73842517D01*
X79649501Y-73902116D01*
X79649500Y-73902135D01*
X58500500Y-73902135D01*
X58500500Y-72191049D01*
X58520185Y-72124010D01*
X58572989Y-72078255D01*
X58642147Y-72068311D01*
X58693391Y-72087947D01*
X58774769Y-72142322D01*
X58947749Y-72213973D01*
X59131379Y-72250499D01*
X59131383Y-72250500D01*
X59131384Y-72250500D01*
X60018617Y-72250500D01*
X60018618Y-72250499D01*
X60202251Y-72213973D01*
X60375231Y-72142322D01*
X60530908Y-72038302D01*
X60663302Y-71905908D01*
X60767322Y-71750231D01*
X60838973Y-71577251D01*
X60854340Y-71499996D01*
X97694435Y-71499996D01*
X97694435Y-71500003D01*
X97714630Y-71679249D01*
X97714631Y-71679254D01*
X97774211Y-71849523D01*
X97818313Y-71919710D01*
X97870184Y-72002262D01*
X97997738Y-72129816D01*
X98017643Y-72142323D01*
X98131674Y-72213974D01*
X98150478Y-72225789D01*
X98221098Y-72250500D01*
X98320745Y-72285368D01*
X98320750Y-72285369D01*
X98499996Y-72305565D01*
X98500000Y-72305565D01*
X98500004Y-72305565D01*
X98679249Y-72285369D01*
X98679252Y-72285368D01*
X98679255Y-72285368D01*
X98849522Y-72225789D01*
X99002262Y-72129816D01*
X99129816Y-72002262D01*
X99225789Y-71849522D01*
X99285368Y-71679255D01*
X99305565Y-71500000D01*
X99285368Y-71320745D01*
X99225789Y-71150478D01*
X99129816Y-70997738D01*
X99002262Y-70870184D01*
X98969379Y-70849522D01*
X98849523Y-70774211D01*
X98679254Y-70714631D01*
X98679249Y-70714630D01*
X98500004Y-70694435D01*
X98499996Y-70694435D01*
X98320750Y-70714630D01*
X98320745Y-70714631D01*
X98150476Y-70774211D01*
X97997737Y-70870184D01*
X97870184Y-70997737D01*
X97774211Y-71150476D01*
X97714631Y-71320745D01*
X97714630Y-71320750D01*
X97694435Y-71499996D01*
X60854340Y-71499996D01*
X60875500Y-71393616D01*
X60875500Y-71206384D01*
X60838973Y-71022749D01*
X60767322Y-70849769D01*
X60767321Y-70849768D01*
X60767318Y-70849762D01*
X60663302Y-70694092D01*
X60663299Y-70694088D01*
X60530911Y-70561700D01*
X60530907Y-70561697D01*
X60438565Y-70499996D01*
X101194435Y-70499996D01*
X101194435Y-70500003D01*
X101214630Y-70679249D01*
X101214631Y-70679254D01*
X101274211Y-70849523D01*
X101367341Y-70997737D01*
X101370184Y-71002262D01*
X101497738Y-71129816D01*
X101588080Y-71186582D01*
X101619593Y-71206383D01*
X101650478Y-71225789D01*
X101820745Y-71285368D01*
X101820750Y-71285369D01*
X101999996Y-71305565D01*
X102000000Y-71305565D01*
X102000004Y-71305565D01*
X102179249Y-71285369D01*
X102179252Y-71285368D01*
X102179255Y-71285368D01*
X102349522Y-71225789D01*
X102502262Y-71129816D01*
X102629816Y-71002262D01*
X102725789Y-70849522D01*
X102785368Y-70679255D01*
X102798613Y-70561700D01*
X102805565Y-70500003D01*
X102805565Y-70499996D01*
X102785369Y-70320750D01*
X102785368Y-70320745D01*
X102725788Y-70150476D01*
X102629815Y-69997737D01*
X102502262Y-69870184D01*
X102349523Y-69774211D01*
X102179254Y-69714631D01*
X102179249Y-69714630D01*
X102000004Y-69694435D01*
X101999996Y-69694435D01*
X101820750Y-69714630D01*
X101820745Y-69714631D01*
X101650476Y-69774211D01*
X101497737Y-69870184D01*
X101370184Y-69997737D01*
X101274211Y-70150476D01*
X101214631Y-70320745D01*
X101214630Y-70320750D01*
X101194435Y-70499996D01*
X60438565Y-70499996D01*
X60375237Y-70457681D01*
X60375228Y-70457676D01*
X60202251Y-70386027D01*
X60202243Y-70386025D01*
X60018620Y-70349500D01*
X60018616Y-70349500D01*
X59131384Y-70349500D01*
X59131379Y-70349500D01*
X58947756Y-70386025D01*
X58947748Y-70386027D01*
X58774771Y-70457676D01*
X58774757Y-70457684D01*
X58693390Y-70512052D01*
X58626713Y-70532930D01*
X58559333Y-70514445D01*
X58512643Y-70462466D01*
X58500500Y-70408950D01*
X58500500Y-66249994D01*
X86244357Y-66249994D01*
X86244357Y-66250005D01*
X86264890Y-66497812D01*
X86264892Y-66497824D01*
X86325936Y-66738881D01*
X86425826Y-66966606D01*
X86561833Y-67174782D01*
X86561836Y-67174785D01*
X86730256Y-67357738D01*
X86926491Y-67510474D01*
X87145190Y-67628828D01*
X87380386Y-67709571D01*
X87625665Y-67750500D01*
X87874335Y-67750500D01*
X88119614Y-67709571D01*
X88354810Y-67628828D01*
X88573509Y-67510474D01*
X88769744Y-67357738D01*
X88938164Y-67174785D01*
X89074173Y-66966607D01*
X89174063Y-66738881D01*
X89235108Y-66497821D01*
X89255643Y-66250000D01*
X89255643Y-66249994D01*
X92744357Y-66249994D01*
X92744357Y-66250005D01*
X92764890Y-66497812D01*
X92764892Y-66497824D01*
X92825936Y-66738881D01*
X92925826Y-66966606D01*
X93061833Y-67174782D01*
X93061836Y-67174785D01*
X93230256Y-67357738D01*
X93426491Y-67510474D01*
X93645190Y-67628828D01*
X93880386Y-67709571D01*
X94125665Y-67750500D01*
X94374335Y-67750500D01*
X94619614Y-67709571D01*
X94854810Y-67628828D01*
X95073509Y-67510474D01*
X95269744Y-67357738D01*
X95438164Y-67174785D01*
X95574173Y-66966607D01*
X95674063Y-66738881D01*
X95735108Y-66497821D01*
X95755643Y-66250000D01*
X95755643Y-66249994D01*
X104244357Y-66249994D01*
X104244357Y-66250005D01*
X104264890Y-66497812D01*
X104264892Y-66497824D01*
X104325936Y-66738881D01*
X104425826Y-66966606D01*
X104561833Y-67174782D01*
X104561836Y-67174785D01*
X104730256Y-67357738D01*
X104926491Y-67510474D01*
X105145190Y-67628828D01*
X105380386Y-67709571D01*
X105625665Y-67750500D01*
X105874335Y-67750500D01*
X106119614Y-67709571D01*
X106354810Y-67628828D01*
X106573509Y-67510474D01*
X106769744Y-67357738D01*
X106938164Y-67174785D01*
X107074173Y-66966607D01*
X107174063Y-66738881D01*
X107235108Y-66497821D01*
X107255643Y-66250000D01*
X107255643Y-66249994D01*
X110744357Y-66249994D01*
X110744357Y-66250005D01*
X110764890Y-66497812D01*
X110764892Y-66497824D01*
X110825936Y-66738881D01*
X110925826Y-66966606D01*
X111061833Y-67174782D01*
X111061836Y-67174785D01*
X111230256Y-67357738D01*
X111426491Y-67510474D01*
X111645190Y-67628828D01*
X111880386Y-67709571D01*
X112125665Y-67750500D01*
X112374335Y-67750500D01*
X112619614Y-67709571D01*
X112854810Y-67628828D01*
X113073509Y-67510474D01*
X113269744Y-67357738D01*
X113438164Y-67174785D01*
X113574173Y-66966607D01*
X113674063Y-66738881D01*
X113735108Y-66497821D01*
X113755643Y-66250000D01*
X113735108Y-66002179D01*
X113674063Y-65761119D01*
X113574173Y-65533393D01*
X113512047Y-65438302D01*
X113438166Y-65325217D01*
X113416557Y-65301744D01*
X113269744Y-65142262D01*
X113073509Y-64989526D01*
X113073507Y-64989525D01*
X113073506Y-64989524D01*
X112854811Y-64871172D01*
X112854802Y-64871169D01*
X112619616Y-64790429D01*
X112374335Y-64749500D01*
X112125665Y-64749500D01*
X111880383Y-64790429D01*
X111645197Y-64871169D01*
X111645188Y-64871172D01*
X111426493Y-64989524D01*
X111230257Y-65142261D01*
X111230256Y-65142262D01*
X111219452Y-65153997D01*
X111061833Y-65325217D01*
X110925826Y-65533393D01*
X110825936Y-65761118D01*
X110764892Y-66002175D01*
X110764890Y-66002187D01*
X110744357Y-66249994D01*
X107255643Y-66249994D01*
X107235108Y-66002179D01*
X107174063Y-65761119D01*
X107074173Y-65533393D01*
X107012047Y-65438302D01*
X106938166Y-65325217D01*
X106916557Y-65301744D01*
X106769744Y-65142262D01*
X106573509Y-64989526D01*
X106573507Y-64989525D01*
X106573506Y-64989524D01*
X106354811Y-64871172D01*
X106354802Y-64871169D01*
X106119616Y-64790429D01*
X105874335Y-64749500D01*
X105625665Y-64749500D01*
X105380383Y-64790429D01*
X105145197Y-64871169D01*
X105145188Y-64871172D01*
X104926493Y-64989524D01*
X104730257Y-65142261D01*
X104730256Y-65142262D01*
X104719452Y-65153997D01*
X104561833Y-65325217D01*
X104425826Y-65533393D01*
X104325936Y-65761118D01*
X104264892Y-66002175D01*
X104264890Y-66002187D01*
X104244357Y-66249994D01*
X95755643Y-66249994D01*
X95735108Y-66002179D01*
X95674063Y-65761119D01*
X95574173Y-65533393D01*
X95512047Y-65438302D01*
X95438166Y-65325217D01*
X95416557Y-65301744D01*
X95269744Y-65142262D01*
X95073509Y-64989526D01*
X95073507Y-64989525D01*
X95073506Y-64989524D01*
X94854811Y-64871172D01*
X94854802Y-64871169D01*
X94619616Y-64790429D01*
X94374335Y-64749500D01*
X94125665Y-64749500D01*
X93880383Y-64790429D01*
X93645197Y-64871169D01*
X93645188Y-64871172D01*
X93426493Y-64989524D01*
X93230257Y-65142261D01*
X93230256Y-65142262D01*
X93219452Y-65153997D01*
X93061833Y-65325217D01*
X92925826Y-65533393D01*
X92825936Y-65761118D01*
X92764892Y-66002175D01*
X92764890Y-66002187D01*
X92744357Y-66249994D01*
X89255643Y-66249994D01*
X89235108Y-66002179D01*
X89174063Y-65761119D01*
X89074173Y-65533393D01*
X89012047Y-65438302D01*
X88938166Y-65325217D01*
X88916557Y-65301744D01*
X88769744Y-65142262D01*
X88573509Y-64989526D01*
X88573507Y-64989525D01*
X88573506Y-64989524D01*
X88354811Y-64871172D01*
X88354802Y-64871169D01*
X88119616Y-64790429D01*
X87874335Y-64749500D01*
X87625665Y-64749500D01*
X87380383Y-64790429D01*
X87145197Y-64871169D01*
X87145188Y-64871172D01*
X86926493Y-64989524D01*
X86730257Y-65142261D01*
X86730256Y-65142262D01*
X86719452Y-65153997D01*
X86561833Y-65325217D01*
X86425826Y-65533393D01*
X86325936Y-65761118D01*
X86264892Y-66002175D01*
X86264890Y-66002187D01*
X86244357Y-66249994D01*
X58500500Y-66249994D01*
X58500500Y-65591049D01*
X58520185Y-65524010D01*
X58572989Y-65478255D01*
X58642147Y-65468311D01*
X58693391Y-65487947D01*
X58774769Y-65542322D01*
X58947749Y-65613973D01*
X59131379Y-65650499D01*
X59131383Y-65650500D01*
X59131384Y-65650500D01*
X60018617Y-65650500D01*
X60018618Y-65650499D01*
X60202251Y-65613973D01*
X60375231Y-65542322D01*
X60530908Y-65438302D01*
X60663302Y-65305908D01*
X60767322Y-65150231D01*
X60838973Y-64977251D01*
X60875500Y-64793616D01*
X60875500Y-64606384D01*
X60838973Y-64422749D01*
X60767322Y-64249769D01*
X60767321Y-64249768D01*
X60767318Y-64249762D01*
X60663302Y-64094092D01*
X60663299Y-64094088D01*
X60530911Y-63961700D01*
X60530907Y-63961697D01*
X60375237Y-63857681D01*
X60375228Y-63857676D01*
X60202251Y-63786027D01*
X60202243Y-63786025D01*
X60018620Y-63749500D01*
X60018616Y-63749500D01*
X59131384Y-63749500D01*
X59131379Y-63749500D01*
X58947756Y-63786025D01*
X58947748Y-63786027D01*
X58774771Y-63857676D01*
X58774757Y-63857684D01*
X58693390Y-63912052D01*
X58626713Y-63932930D01*
X58559333Y-63914445D01*
X58512643Y-63862466D01*
X58500500Y-63808950D01*
X58500500Y-61749994D01*
X86244357Y-61749994D01*
X86244357Y-61750005D01*
X86264890Y-61997812D01*
X86264892Y-61997824D01*
X86325936Y-62238881D01*
X86425826Y-62466606D01*
X86561833Y-62674782D01*
X86561836Y-62674785D01*
X86730256Y-62857738D01*
X86926491Y-63010474D01*
X87145190Y-63128828D01*
X87380386Y-63209571D01*
X87625665Y-63250500D01*
X87874335Y-63250500D01*
X88119614Y-63209571D01*
X88354810Y-63128828D01*
X88573509Y-63010474D01*
X88769744Y-62857738D01*
X88938164Y-62674785D01*
X89074173Y-62466607D01*
X89174063Y-62238881D01*
X89235108Y-61997821D01*
X89255643Y-61750000D01*
X89255643Y-61749994D01*
X92744357Y-61749994D01*
X92744357Y-61750005D01*
X92764890Y-61997812D01*
X92764892Y-61997824D01*
X92825936Y-62238881D01*
X92925826Y-62466606D01*
X93061833Y-62674782D01*
X93061836Y-62674785D01*
X93230256Y-62857738D01*
X93426491Y-63010474D01*
X93645190Y-63128828D01*
X93880386Y-63209571D01*
X94125665Y-63250500D01*
X94374335Y-63250500D01*
X94619614Y-63209571D01*
X94854810Y-63128828D01*
X95073509Y-63010474D01*
X95269744Y-62857738D01*
X95438164Y-62674785D01*
X95574173Y-62466607D01*
X95674063Y-62238881D01*
X95735108Y-61997821D01*
X95755643Y-61750000D01*
X95755643Y-61749994D01*
X104244357Y-61749994D01*
X104244357Y-61750005D01*
X104264890Y-61997812D01*
X104264892Y-61997824D01*
X104325936Y-62238881D01*
X104425826Y-62466606D01*
X104561833Y-62674782D01*
X104561836Y-62674785D01*
X104730256Y-62857738D01*
X104926491Y-63010474D01*
X105145190Y-63128828D01*
X105380386Y-63209571D01*
X105625665Y-63250500D01*
X105874335Y-63250500D01*
X106119614Y-63209571D01*
X106354810Y-63128828D01*
X106573509Y-63010474D01*
X106769744Y-62857738D01*
X106938164Y-62674785D01*
X107074173Y-62466607D01*
X107174063Y-62238881D01*
X107235108Y-61997821D01*
X107255643Y-61750000D01*
X107255643Y-61749994D01*
X110744357Y-61749994D01*
X110744357Y-61750005D01*
X110764890Y-61997812D01*
X110764892Y-61997824D01*
X110825936Y-62238881D01*
X110925826Y-62466606D01*
X111061833Y-62674782D01*
X111061836Y-62674785D01*
X111230256Y-62857738D01*
X111426491Y-63010474D01*
X111645190Y-63128828D01*
X111880386Y-63209571D01*
X112125665Y-63250500D01*
X112374335Y-63250500D01*
X112619614Y-63209571D01*
X112854810Y-63128828D01*
X113073509Y-63010474D01*
X113269744Y-62857738D01*
X113438164Y-62674785D01*
X113574173Y-62466607D01*
X113674063Y-62238881D01*
X113735108Y-61997821D01*
X113755643Y-61750000D01*
X113735108Y-61502179D01*
X113674063Y-61261119D01*
X113574173Y-61033393D01*
X113438166Y-60825217D01*
X113355462Y-60735377D01*
X113269744Y-60642262D01*
X113073509Y-60489526D01*
X113073507Y-60489525D01*
X113073506Y-60489524D01*
X112854811Y-60371172D01*
X112854802Y-60371169D01*
X112619616Y-60290429D01*
X112374335Y-60249500D01*
X112125665Y-60249500D01*
X111880383Y-60290429D01*
X111645197Y-60371169D01*
X111645188Y-60371172D01*
X111426493Y-60489524D01*
X111230257Y-60642261D01*
X111061833Y-60825217D01*
X110925826Y-61033393D01*
X110825936Y-61261118D01*
X110764892Y-61502175D01*
X110764890Y-61502187D01*
X110744357Y-61749994D01*
X107255643Y-61749994D01*
X107235108Y-61502179D01*
X107174063Y-61261119D01*
X107074173Y-61033393D01*
X106938166Y-60825217D01*
X106855462Y-60735377D01*
X106769744Y-60642262D01*
X106573509Y-60489526D01*
X106573507Y-60489525D01*
X106573506Y-60489524D01*
X106354811Y-60371172D01*
X106354802Y-60371169D01*
X106119616Y-60290429D01*
X105874335Y-60249500D01*
X105625665Y-60249500D01*
X105380383Y-60290429D01*
X105145197Y-60371169D01*
X105145188Y-60371172D01*
X104926493Y-60489524D01*
X104730257Y-60642261D01*
X104561833Y-60825217D01*
X104425826Y-61033393D01*
X104325936Y-61261118D01*
X104264892Y-61502175D01*
X104264890Y-61502187D01*
X104244357Y-61749994D01*
X95755643Y-61749994D01*
X95735108Y-61502179D01*
X95674063Y-61261119D01*
X95574173Y-61033393D01*
X95438166Y-60825217D01*
X95355462Y-60735377D01*
X95269744Y-60642262D01*
X95073509Y-60489526D01*
X95073507Y-60489525D01*
X95073506Y-60489524D01*
X94854811Y-60371172D01*
X94854802Y-60371169D01*
X94619616Y-60290429D01*
X94374335Y-60249500D01*
X94125665Y-60249500D01*
X93880383Y-60290429D01*
X93645197Y-60371169D01*
X93645188Y-60371172D01*
X93426493Y-60489524D01*
X93230257Y-60642261D01*
X93061833Y-60825217D01*
X92925826Y-61033393D01*
X92825936Y-61261118D01*
X92764892Y-61502175D01*
X92764890Y-61502187D01*
X92744357Y-61749994D01*
X89255643Y-61749994D01*
X89235108Y-61502179D01*
X89174063Y-61261119D01*
X89074173Y-61033393D01*
X88938166Y-60825217D01*
X88855462Y-60735377D01*
X88769744Y-60642262D01*
X88573509Y-60489526D01*
X88573507Y-60489525D01*
X88573506Y-60489524D01*
X88354811Y-60371172D01*
X88354802Y-60371169D01*
X88119616Y-60290429D01*
X87874335Y-60249500D01*
X87625665Y-60249500D01*
X87380383Y-60290429D01*
X87145197Y-60371169D01*
X87145188Y-60371172D01*
X86926493Y-60489524D01*
X86730257Y-60642261D01*
X86561833Y-60825217D01*
X86425826Y-61033393D01*
X86325936Y-61261118D01*
X86264892Y-61502175D01*
X86264890Y-61502187D01*
X86244357Y-61749994D01*
X58500500Y-61749994D01*
X58500500Y-58002706D01*
X58500559Y-57999996D01*
X60144669Y-57999996D01*
X60144669Y-58000003D01*
X60163976Y-58331484D01*
X60163977Y-58331495D01*
X60221631Y-58658467D01*
X60221634Y-58658481D01*
X60316866Y-58976580D01*
X60448379Y-59281461D01*
X60448385Y-59281474D01*
X60614406Y-59569031D01*
X60812678Y-59835356D01*
X60812683Y-59835362D01*
X60812690Y-59835371D01*
X61040553Y-60076893D01*
X61224689Y-60231400D01*
X61294912Y-60290325D01*
X61294920Y-60290331D01*
X61572330Y-60472787D01*
X61572334Y-60472789D01*
X61869061Y-60621811D01*
X62181082Y-60735377D01*
X62181088Y-60735378D01*
X62181090Y-60735379D01*
X62504161Y-60811949D01*
X62504168Y-60811950D01*
X62504177Y-60811952D01*
X62833977Y-60850500D01*
X62833984Y-60850500D01*
X63166016Y-60850500D01*
X63166023Y-60850500D01*
X63495823Y-60811952D01*
X63495832Y-60811949D01*
X63495838Y-60811949D01*
X63756445Y-60750183D01*
X63818918Y-60735377D01*
X64130939Y-60621811D01*
X64427666Y-60472789D01*
X64705085Y-60290327D01*
X64959447Y-60076893D01*
X65187310Y-59835371D01*
X65385594Y-59569030D01*
X65551617Y-59281470D01*
X65683133Y-58976581D01*
X65778365Y-58658485D01*
X65836024Y-58331484D01*
X65852459Y-58049308D01*
X65855331Y-58000003D01*
X65855331Y-57999996D01*
X134644669Y-57999996D01*
X134644669Y-58000003D01*
X134663976Y-58331484D01*
X134663977Y-58331495D01*
X134721631Y-58658467D01*
X134721634Y-58658481D01*
X134816866Y-58976580D01*
X134948379Y-59281461D01*
X134948385Y-59281474D01*
X135114406Y-59569031D01*
X135312678Y-59835356D01*
X135312683Y-59835362D01*
X135312690Y-59835371D01*
X135540553Y-60076893D01*
X135724689Y-60231400D01*
X135794912Y-60290325D01*
X135794920Y-60290331D01*
X136072330Y-60472787D01*
X136072334Y-60472789D01*
X136369061Y-60621811D01*
X136681082Y-60735377D01*
X136681088Y-60735378D01*
X136681090Y-60735379D01*
X137004161Y-60811949D01*
X137004168Y-60811950D01*
X137004177Y-60811952D01*
X137333977Y-60850500D01*
X137333984Y-60850500D01*
X137666016Y-60850500D01*
X137666023Y-60850500D01*
X137995823Y-60811952D01*
X137995832Y-60811949D01*
X137995838Y-60811949D01*
X138256445Y-60750183D01*
X138318918Y-60735377D01*
X138630939Y-60621811D01*
X138927666Y-60472789D01*
X139205085Y-60290327D01*
X139459447Y-60076893D01*
X139687310Y-59835371D01*
X139885594Y-59569030D01*
X140051617Y-59281470D01*
X140183133Y-58976581D01*
X140278365Y-58658485D01*
X140336024Y-58331484D01*
X140352459Y-58049308D01*
X140355331Y-58000003D01*
X140355331Y-57999996D01*
X140342080Y-57772498D01*
X140336024Y-57668516D01*
X140278365Y-57341515D01*
X140183133Y-57023419D01*
X140051617Y-56718530D01*
X139981446Y-56596991D01*
X139885593Y-56430968D01*
X139687321Y-56164643D01*
X139687314Y-56164635D01*
X139687310Y-56164629D01*
X139459447Y-55923107D01*
X139253443Y-55750250D01*
X139205087Y-55709674D01*
X139205079Y-55709668D01*
X138927669Y-55527212D01*
X138630946Y-55378192D01*
X138630940Y-55378189D01*
X138318930Y-55264627D01*
X138318909Y-55264620D01*
X137995838Y-55188050D01*
X137995823Y-55188048D01*
X137666023Y-55149500D01*
X137333977Y-55149500D01*
X137045402Y-55183229D01*
X137004176Y-55188048D01*
X137004161Y-55188050D01*
X136681090Y-55264620D01*
X136681069Y-55264627D01*
X136369059Y-55378189D01*
X136369053Y-55378192D01*
X136072330Y-55527212D01*
X135794920Y-55709668D01*
X135794912Y-55709674D01*
X135588936Y-55882508D01*
X135540553Y-55923107D01*
X135312690Y-56164629D01*
X135312687Y-56164632D01*
X135312685Y-56164635D01*
X135312678Y-56164643D01*
X135114406Y-56430968D01*
X134948385Y-56718525D01*
X134948379Y-56718538D01*
X134816866Y-57023419D01*
X134721634Y-57341518D01*
X134721631Y-57341532D01*
X134663977Y-57668504D01*
X134663976Y-57668515D01*
X134644669Y-57999996D01*
X65855331Y-57999996D01*
X65842080Y-57772498D01*
X65836024Y-57668516D01*
X65778365Y-57341515D01*
X65683133Y-57023419D01*
X65551617Y-56718530D01*
X65481446Y-56596991D01*
X65385593Y-56430968D01*
X65187321Y-56164643D01*
X65187314Y-56164635D01*
X65187310Y-56164629D01*
X64959447Y-55923107D01*
X64753443Y-55750250D01*
X64705087Y-55709674D01*
X64705079Y-55709668D01*
X64427669Y-55527212D01*
X64130946Y-55378192D01*
X64130940Y-55378189D01*
X63818930Y-55264627D01*
X63818909Y-55264620D01*
X63495838Y-55188050D01*
X63495823Y-55188048D01*
X63166023Y-55149500D01*
X62833977Y-55149500D01*
X62545402Y-55183229D01*
X62504176Y-55188048D01*
X62504161Y-55188050D01*
X62181090Y-55264620D01*
X62181069Y-55264627D01*
X61869059Y-55378189D01*
X61869053Y-55378192D01*
X61572330Y-55527212D01*
X61294920Y-55709668D01*
X61294912Y-55709674D01*
X61088936Y-55882508D01*
X61040553Y-55923107D01*
X60812690Y-56164629D01*
X60812687Y-56164632D01*
X60812685Y-56164635D01*
X60812678Y-56164643D01*
X60614406Y-56430968D01*
X60448385Y-56718525D01*
X60448379Y-56718538D01*
X60316866Y-57023419D01*
X60221634Y-57341518D01*
X60221631Y-57341532D01*
X60163977Y-57668504D01*
X60163976Y-57668515D01*
X60144669Y-57999996D01*
X58500559Y-57999996D01*
X58500618Y-57997297D01*
X58503377Y-57934108D01*
X58517386Y-57613226D01*
X58518326Y-57602495D01*
X58568152Y-57224025D01*
X58570025Y-57213405D01*
X58652649Y-56840709D01*
X58655440Y-56830295D01*
X58770230Y-56466227D01*
X58773917Y-56456095D01*
X58920003Y-56103412D01*
X58924561Y-56093638D01*
X59100822Y-55755045D01*
X59106217Y-55745700D01*
X59311325Y-55423744D01*
X59317515Y-55414905D01*
X59549896Y-55112060D01*
X59556834Y-55103791D01*
X59814726Y-54822352D01*
X59822352Y-54814726D01*
X60103791Y-54556834D01*
X60112060Y-54549896D01*
X60414905Y-54317515D01*
X60423744Y-54311325D01*
X60745700Y-54106217D01*
X60755045Y-54100822D01*
X61093638Y-53924561D01*
X61103412Y-53920003D01*
X61456095Y-53773917D01*
X61466227Y-53770230D01*
X61830295Y-53655440D01*
X61840709Y-53652649D01*
X62213405Y-53570025D01*
X62224025Y-53568152D01*
X62602495Y-53518326D01*
X62613226Y-53517386D01*
X62997297Y-53500617D01*
X63002706Y-53500500D01*
X63065892Y-53500500D01*
X137434108Y-53500500D01*
X137497294Y-53500500D01*
X137502702Y-53500617D01*
G37*
G04 #@! TD.AperFunction*
M02*
