M48
; DRILL file {KiCad 8.0.8+1} date 2025-02-10T19:06:49+0000
; FORMAT={-:-/ absolute / inch / decimal}
; #@! TF.CreationDate,2025-02-10T19:06:49+00:00
; #@! TF.GenerationSoftware,Kicad,Pcbnew,8.0.8+1
; #@! TF.FileFunction,Plated,1,4,PTH
FMAT,2
INCH
; #@! TA.AperFunction,Plated,PTH,ViaDrill
T1C0.0118
; #@! TA.AperFunction,Plated,PTH,ComponentDrill
T2C0.0197
; #@! TA.AperFunction,Plated,PTH,ComponentDrill
T3C0.0394
; #@! TA.AperFunction,Plated,PTH,ComponentDrill
T4C0.0433
; #@! TA.AperFunction,Plated,PTH,ComponentDrill
T5C0.0787
; #@! TA.AperFunction,Plated,PTH,ComponentDrill
T6C0.1063
%
G90
G05
T1
X2.6772Y-3.061
X2.6772Y-4.0846
X2.687Y-3.5728
X2.7165Y-2.9134
X2.874Y-5.5185
X2.9724Y-4.6457
X2.9921Y-3.2283
X3.0118Y-3.8976
X3.0512Y-3.9173
X3.0551Y-4.0157
X3.0551Y-4.1142
X3.1102Y-4.2717
X3.1693Y-2.5787
X3.1693Y-2.6181
X3.1693Y-2.6575
X3.2087Y-2.5787
X3.2087Y-2.6181
X3.2087Y-2.6575
X3.248Y-2.5787
X3.248Y-2.6181
X3.248Y-2.6575
X3.2874Y-4.2913
X3.4055Y-3.8583
X3.4449Y-4.3937
X3.4843Y-4.0551
X3.4843Y-4.374
X3.5236Y-3.8976
X3.5433Y-4.0551
X3.563Y-3.8189
X3.5827Y-4.2717
X3.6024Y-3.9173
X3.622Y-3.7008
X3.622Y-4.2717
X3.6417Y-3.937
X3.6614Y-3.7598
X3.6811Y-3.563
X3.6811Y-3.7992
X3.6811Y-4.0157
X3.6811Y-4.2126
X3.7205Y-3.7795
X3.7402Y-4.626
X3.7795Y-3.4843
X3.7795Y-4.4882
X3.8189Y-4.1732
X3.8386Y-3.9409
X3.8583Y-3.6024
X3.8583Y-4.2717
X3.878Y-2.815
X3.8839Y-3.622
X3.8839Y-4.2913
X3.9311Y-3.6024
X3.9311Y-4.2323
X3.937Y-2.4016
X3.937Y-4.2717
X3.937Y-5.1181
X3.937Y-5.374
X3.9508Y-3.6417
X3.9823Y-4.1783
X4.0039Y-4.2012
X4.0157Y-2.7756
X4.0157Y-4.0354
X4.0709Y-4.685
X4.0945Y-3.2283
X4.0945Y-3.3661
X4.0945Y-3.7205
X4.1339Y-4.1142
X4.1339Y-4.4094
X4.1693Y-3.878
X4.1929Y-3.8189
X4.2323Y-3.8386
X4.2323Y-4.2717
X4.2913Y-3.9173
X4.3898Y-3.7402
X4.7638Y-5.2756
X4.8622Y-5.2559
X4.9409Y-4.8031
X4.9409Y-5.2559
X5.0984Y-5.2953
X5.1811Y-4.7539
X5.1969Y-3.0709
X5.1969Y-3.5827
X5.1969Y-4.0945
T3
X2.9331Y-3.7205
X2.9331Y-3.8205
X2.9331Y-3.9205
X2.9331Y-4.0205
X2.9331Y-4.1205
X2.9331Y-4.2205
X3.189Y-2.9449
X3.289Y-2.9449
X3.389Y-2.9449
X3.489Y-2.9449
X3.589Y-2.9449
X3.5894Y-4.9291
X3.689Y-2.9449
X3.6894Y-4.9291
X3.789Y-2.9449
X3.7894Y-4.9291
X3.889Y-2.9449
X3.8894Y-4.9291
X3.989Y-2.9449
X3.9894Y-4.9291
X4.089Y-2.9449
X4.0894Y-4.9291
X4.189Y-2.9449
X4.1894Y-4.9291
X4.289Y-2.9449
X4.2894Y-4.9291
X4.389Y-2.9449
X4.489Y-2.9449
X4.589Y-2.9449
X4.689Y-2.9449
T4
X2.5295Y-3.2185
X2.5295Y-3.3957
X2.5295Y-3.7303
X2.5295Y-3.9075
X2.5295Y-4.2421
X2.5295Y-4.4193
X2.5591Y-4.7146
X2.5591Y-5.2854
X2.6575Y-5.2854
X2.7559Y-4.7146
X2.7559Y-5.2854
X2.7854Y-3.2185
X2.7854Y-3.3957
X2.7854Y-3.7303
X2.7854Y-3.9075
X2.7854Y-4.2421
X2.7854Y-4.4193
X3.4547Y-2.4311
X3.4547Y-2.6083
X3.4547Y-5.2657
X3.4547Y-5.4429
X3.7106Y-2.4311
X3.7106Y-2.6083
X3.7106Y-5.2657
X3.7106Y-5.4429
X4.1634Y-2.4311
X4.1634Y-2.6083
X4.1634Y-5.2657
X4.1634Y-5.4429
X4.4193Y-2.4311
X4.4193Y-2.6083
X4.4193Y-5.2657
X4.4193Y-5.4429
X5.0787Y-4.9016
X5.0787Y-5.0787
X5.0886Y-3.2185
X5.0886Y-3.3957
X5.0886Y-3.7303
X5.0886Y-3.9075
X5.0886Y-4.2421
X5.0886Y-4.4193
X5.3346Y-4.9016
X5.3346Y-5.0787
X5.3445Y-3.2185
X5.3445Y-3.3957
X5.3445Y-3.7303
X5.3445Y-3.9075
X5.3445Y-4.2421
X5.3445Y-4.4193
T6
X2.4803Y-2.2835
X2.4803Y-5.5118
X5.4134Y-2.2835
X5.4134Y-5.5118
T2
G00X2.3317Y-2.5472
M15
G01X2.3593Y-2.5472
M16
G05
G00X2.3317Y-2.8071
M15
G01X2.3593Y-2.8071
M16
G05
T5
G00X2.4331Y-5.0059
M15
G01X2.4331Y-4.9744
M16
G05
G00X2.8819Y-5.0059
M15
G01X2.8819Y-4.9744
M16
G05
M30
