G04 #@! TF.GenerationSoftware,KiCad,Pcbnew,8.0.8+1*
G04 #@! TF.CreationDate,2025-02-10T19:06:49+00:00*
G04 #@! TF.ProjectId,DriverDeskTft,44726976-6572-4446-9573-6b5466742e6b,0.0.1*
G04 #@! TF.SameCoordinates,Original*
G04 #@! TF.FileFunction,Legend,Top*
G04 #@! TF.FilePolarity,Positive*
%FSLAX46Y46*%
G04 Gerber Fmt 4.6, Leading zero omitted, Abs format (unit mm)*
G04 Created by KiCad (PCBNEW 8.0.8+1) date 2025-02-10 19:06:49*
%MOMM*%
%LPD*%
G01*
G04 APERTURE LIST*
%ADD10C,0.100000*%
%ADD11C,0.150000*%
%ADD12C,0.120000*%
%ADD13C,0.127000*%
%ADD14C,0.200000*%
%ADD15R,2.400000X0.740000*%
%ADD16C,4.700000*%
%ADD17O,1.600000X0.900000*%
%ADD18R,1.700000X1.700000*%
%ADD19O,1.700000X1.700000*%
%ADD20R,2.400000X2.000000*%
%ADD21R,1.800000X1.000000*%
%ADD22C,2.000000*%
%ADD23C,2.204000*%
%ADD24O,3.204000X6.204000*%
G04 APERTURE END LIST*
D10*
X73161027Y-108822699D02*
X73494360Y-109822699D01*
X73494360Y-109822699D02*
X73827693Y-108822699D01*
X74732455Y-109727460D02*
X74684836Y-109775080D01*
X74684836Y-109775080D02*
X74541979Y-109822699D01*
X74541979Y-109822699D02*
X74446741Y-109822699D01*
X74446741Y-109822699D02*
X74303884Y-109775080D01*
X74303884Y-109775080D02*
X74208646Y-109679841D01*
X74208646Y-109679841D02*
X74161027Y-109584603D01*
X74161027Y-109584603D02*
X74113408Y-109394127D01*
X74113408Y-109394127D02*
X74113408Y-109251270D01*
X74113408Y-109251270D02*
X74161027Y-109060794D01*
X74161027Y-109060794D02*
X74208646Y-108965556D01*
X74208646Y-108965556D02*
X74303884Y-108870318D01*
X74303884Y-108870318D02*
X74446741Y-108822699D01*
X74446741Y-108822699D02*
X74541979Y-108822699D01*
X74541979Y-108822699D02*
X74684836Y-108870318D01*
X74684836Y-108870318D02*
X74732455Y-108917937D01*
X75732455Y-109727460D02*
X75684836Y-109775080D01*
X75684836Y-109775080D02*
X75541979Y-109822699D01*
X75541979Y-109822699D02*
X75446741Y-109822699D01*
X75446741Y-109822699D02*
X75303884Y-109775080D01*
X75303884Y-109775080D02*
X75208646Y-109679841D01*
X75208646Y-109679841D02*
X75161027Y-109584603D01*
X75161027Y-109584603D02*
X75113408Y-109394127D01*
X75113408Y-109394127D02*
X75113408Y-109251270D01*
X75113408Y-109251270D02*
X75161027Y-109060794D01*
X75161027Y-109060794D02*
X75208646Y-108965556D01*
X75208646Y-108965556D02*
X75303884Y-108870318D01*
X75303884Y-108870318D02*
X75446741Y-108822699D01*
X75446741Y-108822699D02*
X75541979Y-108822699D01*
X75541979Y-108822699D02*
X75684836Y-108870318D01*
X75684836Y-108870318D02*
X75732455Y-108917937D01*
X73875312Y-111337404D02*
X73827693Y-111385024D01*
X73827693Y-111385024D02*
X73684836Y-111432643D01*
X73684836Y-111432643D02*
X73589598Y-111432643D01*
X73589598Y-111432643D02*
X73446741Y-111385024D01*
X73446741Y-111385024D02*
X73351503Y-111289785D01*
X73351503Y-111289785D02*
X73303884Y-111194547D01*
X73303884Y-111194547D02*
X73256265Y-111004071D01*
X73256265Y-111004071D02*
X73256265Y-110861214D01*
X73256265Y-110861214D02*
X73303884Y-110670738D01*
X73303884Y-110670738D02*
X73351503Y-110575500D01*
X73351503Y-110575500D02*
X73446741Y-110480262D01*
X73446741Y-110480262D02*
X73589598Y-110432643D01*
X73589598Y-110432643D02*
X73684836Y-110432643D01*
X73684836Y-110432643D02*
X73827693Y-110480262D01*
X73827693Y-110480262D02*
X73875312Y-110527881D01*
X74780074Y-111432643D02*
X74303884Y-111432643D01*
X74303884Y-111432643D02*
X74303884Y-110432643D01*
X75113408Y-111432643D02*
X75113408Y-110432643D01*
X75684836Y-111432643D02*
X75256265Y-110861214D01*
X75684836Y-110432643D02*
X75113408Y-111004071D01*
X73827693Y-112090206D02*
X73732455Y-112042587D01*
X73732455Y-112042587D02*
X73589598Y-112042587D01*
X73589598Y-112042587D02*
X73446741Y-112090206D01*
X73446741Y-112090206D02*
X73351503Y-112185444D01*
X73351503Y-112185444D02*
X73303884Y-112280682D01*
X73303884Y-112280682D02*
X73256265Y-112471158D01*
X73256265Y-112471158D02*
X73256265Y-112614015D01*
X73256265Y-112614015D02*
X73303884Y-112804491D01*
X73303884Y-112804491D02*
X73351503Y-112899729D01*
X73351503Y-112899729D02*
X73446741Y-112994968D01*
X73446741Y-112994968D02*
X73589598Y-113042587D01*
X73589598Y-113042587D02*
X73684836Y-113042587D01*
X73684836Y-113042587D02*
X73827693Y-112994968D01*
X73827693Y-112994968D02*
X73875312Y-112947348D01*
X73875312Y-112947348D02*
X73875312Y-112614015D01*
X73875312Y-112614015D02*
X73684836Y-112614015D01*
X74303884Y-113042587D02*
X74303884Y-112042587D01*
X74303884Y-112042587D02*
X74875312Y-113042587D01*
X74875312Y-113042587D02*
X74875312Y-112042587D01*
X75351503Y-113042587D02*
X75351503Y-112042587D01*
X75351503Y-112042587D02*
X75589598Y-112042587D01*
X75589598Y-112042587D02*
X75732455Y-112090206D01*
X75732455Y-112090206D02*
X75827693Y-112185444D01*
X75827693Y-112185444D02*
X75875312Y-112280682D01*
X75875312Y-112280682D02*
X75922931Y-112471158D01*
X75922931Y-112471158D02*
X75922931Y-112614015D01*
X75922931Y-112614015D02*
X75875312Y-112804491D01*
X75875312Y-112804491D02*
X75827693Y-112899729D01*
X75827693Y-112899729D02*
X75732455Y-112994968D01*
X75732455Y-112994968D02*
X75589598Y-113042587D01*
X75589598Y-113042587D02*
X75351503Y-113042587D01*
X73303884Y-114652531D02*
X73303884Y-113652531D01*
X73303884Y-113652531D02*
X73541979Y-113652531D01*
X73541979Y-113652531D02*
X73684836Y-113700150D01*
X73684836Y-113700150D02*
X73780074Y-113795388D01*
X73780074Y-113795388D02*
X73827693Y-113890626D01*
X73827693Y-113890626D02*
X73875312Y-114081102D01*
X73875312Y-114081102D02*
X73875312Y-114223959D01*
X73875312Y-114223959D02*
X73827693Y-114414435D01*
X73827693Y-114414435D02*
X73780074Y-114509673D01*
X73780074Y-114509673D02*
X73684836Y-114604912D01*
X73684836Y-114604912D02*
X73541979Y-114652531D01*
X73541979Y-114652531D02*
X73303884Y-114652531D01*
X74303884Y-114652531D02*
X74303884Y-113652531D01*
X74970550Y-113652531D02*
X75161026Y-113652531D01*
X75161026Y-113652531D02*
X75256264Y-113700150D01*
X75256264Y-113700150D02*
X75351502Y-113795388D01*
X75351502Y-113795388D02*
X75399121Y-113985864D01*
X75399121Y-113985864D02*
X75399121Y-114319197D01*
X75399121Y-114319197D02*
X75351502Y-114509673D01*
X75351502Y-114509673D02*
X75256264Y-114604912D01*
X75256264Y-114604912D02*
X75161026Y-114652531D01*
X75161026Y-114652531D02*
X74970550Y-114652531D01*
X74970550Y-114652531D02*
X74875312Y-114604912D01*
X74875312Y-114604912D02*
X74780074Y-114509673D01*
X74780074Y-114509673D02*
X74732455Y-114319197D01*
X74732455Y-114319197D02*
X74732455Y-113985864D01*
X74732455Y-113985864D02*
X74780074Y-113795388D01*
X74780074Y-113795388D02*
X74875312Y-113700150D01*
X74875312Y-113700150D02*
X74970550Y-113652531D01*
X73875312Y-116262475D02*
X73541979Y-115786284D01*
X73303884Y-116262475D02*
X73303884Y-115262475D01*
X73303884Y-115262475D02*
X73684836Y-115262475D01*
X73684836Y-115262475D02*
X73780074Y-115310094D01*
X73780074Y-115310094D02*
X73827693Y-115357713D01*
X73827693Y-115357713D02*
X73875312Y-115452951D01*
X73875312Y-115452951D02*
X73875312Y-115595808D01*
X73875312Y-115595808D02*
X73827693Y-115691046D01*
X73827693Y-115691046D02*
X73780074Y-115738665D01*
X73780074Y-115738665D02*
X73684836Y-115786284D01*
X73684836Y-115786284D02*
X73303884Y-115786284D01*
X74256265Y-116214856D02*
X74399122Y-116262475D01*
X74399122Y-116262475D02*
X74637217Y-116262475D01*
X74637217Y-116262475D02*
X74732455Y-116214856D01*
X74732455Y-116214856D02*
X74780074Y-116167236D01*
X74780074Y-116167236D02*
X74827693Y-116071998D01*
X74827693Y-116071998D02*
X74827693Y-115976760D01*
X74827693Y-115976760D02*
X74780074Y-115881522D01*
X74780074Y-115881522D02*
X74732455Y-115833903D01*
X74732455Y-115833903D02*
X74637217Y-115786284D01*
X74637217Y-115786284D02*
X74446741Y-115738665D01*
X74446741Y-115738665D02*
X74351503Y-115691046D01*
X74351503Y-115691046D02*
X74303884Y-115643427D01*
X74303884Y-115643427D02*
X74256265Y-115548189D01*
X74256265Y-115548189D02*
X74256265Y-115452951D01*
X74256265Y-115452951D02*
X74303884Y-115357713D01*
X74303884Y-115357713D02*
X74351503Y-115310094D01*
X74351503Y-115310094D02*
X74446741Y-115262475D01*
X74446741Y-115262475D02*
X74684836Y-115262475D01*
X74684836Y-115262475D02*
X74827693Y-115310094D01*
X75113408Y-115262475D02*
X75684836Y-115262475D01*
X75399122Y-116262475D02*
X75399122Y-115262475D01*
X73256265Y-117824800D02*
X73399122Y-117872419D01*
X73399122Y-117872419D02*
X73637217Y-117872419D01*
X73637217Y-117872419D02*
X73732455Y-117824800D01*
X73732455Y-117824800D02*
X73780074Y-117777180D01*
X73780074Y-117777180D02*
X73827693Y-117681942D01*
X73827693Y-117681942D02*
X73827693Y-117586704D01*
X73827693Y-117586704D02*
X73780074Y-117491466D01*
X73780074Y-117491466D02*
X73732455Y-117443847D01*
X73732455Y-117443847D02*
X73637217Y-117396228D01*
X73637217Y-117396228D02*
X73446741Y-117348609D01*
X73446741Y-117348609D02*
X73351503Y-117300990D01*
X73351503Y-117300990D02*
X73303884Y-117253371D01*
X73303884Y-117253371D02*
X73256265Y-117158133D01*
X73256265Y-117158133D02*
X73256265Y-117062895D01*
X73256265Y-117062895D02*
X73303884Y-116967657D01*
X73303884Y-116967657D02*
X73351503Y-116920038D01*
X73351503Y-116920038D02*
X73446741Y-116872419D01*
X73446741Y-116872419D02*
X73684836Y-116872419D01*
X73684836Y-116872419D02*
X73827693Y-116920038D01*
X74161027Y-116872419D02*
X74399122Y-117872419D01*
X74399122Y-117872419D02*
X74589598Y-117158133D01*
X74589598Y-117158133D02*
X74780074Y-117872419D01*
X74780074Y-117872419D02*
X75018170Y-116872419D01*
X75589598Y-116872419D02*
X75780074Y-116872419D01*
X75780074Y-116872419D02*
X75875312Y-116920038D01*
X75875312Y-116920038D02*
X75970550Y-117015276D01*
X75970550Y-117015276D02*
X76018169Y-117205752D01*
X76018169Y-117205752D02*
X76018169Y-117539085D01*
X76018169Y-117539085D02*
X75970550Y-117729561D01*
X75970550Y-117729561D02*
X75875312Y-117824800D01*
X75875312Y-117824800D02*
X75780074Y-117872419D01*
X75780074Y-117872419D02*
X75589598Y-117872419D01*
X75589598Y-117872419D02*
X75494360Y-117824800D01*
X75494360Y-117824800D02*
X75399122Y-117729561D01*
X75399122Y-117729561D02*
X75351503Y-117539085D01*
X75351503Y-117539085D02*
X75351503Y-117205752D01*
X75351503Y-117205752D02*
X75399122Y-117015276D01*
X75399122Y-117015276D02*
X75494360Y-116920038D01*
X75494360Y-116920038D02*
X75589598Y-116872419D01*
D11*
X63880952Y-93354819D02*
X63547619Y-92878628D01*
X63309524Y-93354819D02*
X63309524Y-92354819D01*
X63309524Y-92354819D02*
X63690476Y-92354819D01*
X63690476Y-92354819D02*
X63785714Y-92402438D01*
X63785714Y-92402438D02*
X63833333Y-92450057D01*
X63833333Y-92450057D02*
X63880952Y-92545295D01*
X63880952Y-92545295D02*
X63880952Y-92688152D01*
X63880952Y-92688152D02*
X63833333Y-92783390D01*
X63833333Y-92783390D02*
X63785714Y-92831009D01*
X63785714Y-92831009D02*
X63690476Y-92878628D01*
X63690476Y-92878628D02*
X63309524Y-92878628D01*
X64261905Y-92450057D02*
X64309524Y-92402438D01*
X64309524Y-92402438D02*
X64404762Y-92354819D01*
X64404762Y-92354819D02*
X64642857Y-92354819D01*
X64642857Y-92354819D02*
X64738095Y-92402438D01*
X64738095Y-92402438D02*
X64785714Y-92450057D01*
X64785714Y-92450057D02*
X64833333Y-92545295D01*
X64833333Y-92545295D02*
X64833333Y-92640533D01*
X64833333Y-92640533D02*
X64785714Y-92783390D01*
X64785714Y-92783390D02*
X64214286Y-93354819D01*
X64214286Y-93354819D02*
X64833333Y-93354819D01*
X65452381Y-92354819D02*
X65547619Y-92354819D01*
X65547619Y-92354819D02*
X65642857Y-92402438D01*
X65642857Y-92402438D02*
X65690476Y-92450057D01*
X65690476Y-92450057D02*
X65738095Y-92545295D01*
X65738095Y-92545295D02*
X65785714Y-92735771D01*
X65785714Y-92735771D02*
X65785714Y-92973866D01*
X65785714Y-92973866D02*
X65738095Y-93164342D01*
X65738095Y-93164342D02*
X65690476Y-93259580D01*
X65690476Y-93259580D02*
X65642857Y-93307200D01*
X65642857Y-93307200D02*
X65547619Y-93354819D01*
X65547619Y-93354819D02*
X65452381Y-93354819D01*
X65452381Y-93354819D02*
X65357143Y-93307200D01*
X65357143Y-93307200D02*
X65309524Y-93259580D01*
X65309524Y-93259580D02*
X65261905Y-93164342D01*
X65261905Y-93164342D02*
X65214286Y-92973866D01*
X65214286Y-92973866D02*
X65214286Y-92735771D01*
X65214286Y-92735771D02*
X65261905Y-92545295D01*
X65261905Y-92545295D02*
X65309524Y-92450057D01*
X65309524Y-92450057D02*
X65357143Y-92402438D01*
X65357143Y-92402438D02*
X65452381Y-92354819D01*
X66166667Y-92450057D02*
X66214286Y-92402438D01*
X66214286Y-92402438D02*
X66309524Y-92354819D01*
X66309524Y-92354819D02*
X66547619Y-92354819D01*
X66547619Y-92354819D02*
X66642857Y-92402438D01*
X66642857Y-92402438D02*
X66690476Y-92450057D01*
X66690476Y-92450057D02*
X66738095Y-92545295D01*
X66738095Y-92545295D02*
X66738095Y-92640533D01*
X66738095Y-92640533D02*
X66690476Y-92783390D01*
X66690476Y-92783390D02*
X66119048Y-93354819D01*
X66119048Y-93354819D02*
X66738095Y-93354819D01*
X96380952Y-116304819D02*
X96047619Y-115828628D01*
X95809524Y-116304819D02*
X95809524Y-115304819D01*
X95809524Y-115304819D02*
X96190476Y-115304819D01*
X96190476Y-115304819D02*
X96285714Y-115352438D01*
X96285714Y-115352438D02*
X96333333Y-115400057D01*
X96333333Y-115400057D02*
X96380952Y-115495295D01*
X96380952Y-115495295D02*
X96380952Y-115638152D01*
X96380952Y-115638152D02*
X96333333Y-115733390D01*
X96333333Y-115733390D02*
X96285714Y-115781009D01*
X96285714Y-115781009D02*
X96190476Y-115828628D01*
X96190476Y-115828628D02*
X95809524Y-115828628D01*
X97333333Y-116304819D02*
X96761905Y-116304819D01*
X97047619Y-116304819D02*
X97047619Y-115304819D01*
X97047619Y-115304819D02*
X96952381Y-115447676D01*
X96952381Y-115447676D02*
X96857143Y-115542914D01*
X96857143Y-115542914D02*
X96761905Y-115590533D01*
X97952381Y-115304819D02*
X98047619Y-115304819D01*
X98047619Y-115304819D02*
X98142857Y-115352438D01*
X98142857Y-115352438D02*
X98190476Y-115400057D01*
X98190476Y-115400057D02*
X98238095Y-115495295D01*
X98238095Y-115495295D02*
X98285714Y-115685771D01*
X98285714Y-115685771D02*
X98285714Y-115923866D01*
X98285714Y-115923866D02*
X98238095Y-116114342D01*
X98238095Y-116114342D02*
X98190476Y-116209580D01*
X98190476Y-116209580D02*
X98142857Y-116257200D01*
X98142857Y-116257200D02*
X98047619Y-116304819D01*
X98047619Y-116304819D02*
X97952381Y-116304819D01*
X97952381Y-116304819D02*
X97857143Y-116257200D01*
X97857143Y-116257200D02*
X97809524Y-116209580D01*
X97809524Y-116209580D02*
X97761905Y-116114342D01*
X97761905Y-116114342D02*
X97714286Y-115923866D01*
X97714286Y-115923866D02*
X97714286Y-115685771D01*
X97714286Y-115685771D02*
X97761905Y-115495295D01*
X97761905Y-115495295D02*
X97809524Y-115400057D01*
X97809524Y-115400057D02*
X97857143Y-115352438D01*
X97857143Y-115352438D02*
X97952381Y-115304819D01*
X99238095Y-116304819D02*
X98666667Y-116304819D01*
X98952381Y-116304819D02*
X98952381Y-115304819D01*
X98952381Y-115304819D02*
X98857143Y-115447676D01*
X98857143Y-115447676D02*
X98761905Y-115542914D01*
X98761905Y-115542914D02*
X98666667Y-115590533D01*
X63880952Y-106354819D02*
X63547619Y-105878628D01*
X63309524Y-106354819D02*
X63309524Y-105354819D01*
X63309524Y-105354819D02*
X63690476Y-105354819D01*
X63690476Y-105354819D02*
X63785714Y-105402438D01*
X63785714Y-105402438D02*
X63833333Y-105450057D01*
X63833333Y-105450057D02*
X63880952Y-105545295D01*
X63880952Y-105545295D02*
X63880952Y-105688152D01*
X63880952Y-105688152D02*
X63833333Y-105783390D01*
X63833333Y-105783390D02*
X63785714Y-105831009D01*
X63785714Y-105831009D02*
X63690476Y-105878628D01*
X63690476Y-105878628D02*
X63309524Y-105878628D01*
X64261905Y-105450057D02*
X64309524Y-105402438D01*
X64309524Y-105402438D02*
X64404762Y-105354819D01*
X64404762Y-105354819D02*
X64642857Y-105354819D01*
X64642857Y-105354819D02*
X64738095Y-105402438D01*
X64738095Y-105402438D02*
X64785714Y-105450057D01*
X64785714Y-105450057D02*
X64833333Y-105545295D01*
X64833333Y-105545295D02*
X64833333Y-105640533D01*
X64833333Y-105640533D02*
X64785714Y-105783390D01*
X64785714Y-105783390D02*
X64214286Y-106354819D01*
X64214286Y-106354819D02*
X64833333Y-106354819D01*
X65452381Y-105354819D02*
X65547619Y-105354819D01*
X65547619Y-105354819D02*
X65642857Y-105402438D01*
X65642857Y-105402438D02*
X65690476Y-105450057D01*
X65690476Y-105450057D02*
X65738095Y-105545295D01*
X65738095Y-105545295D02*
X65785714Y-105735771D01*
X65785714Y-105735771D02*
X65785714Y-105973866D01*
X65785714Y-105973866D02*
X65738095Y-106164342D01*
X65738095Y-106164342D02*
X65690476Y-106259580D01*
X65690476Y-106259580D02*
X65642857Y-106307200D01*
X65642857Y-106307200D02*
X65547619Y-106354819D01*
X65547619Y-106354819D02*
X65452381Y-106354819D01*
X65452381Y-106354819D02*
X65357143Y-106307200D01*
X65357143Y-106307200D02*
X65309524Y-106259580D01*
X65309524Y-106259580D02*
X65261905Y-106164342D01*
X65261905Y-106164342D02*
X65214286Y-105973866D01*
X65214286Y-105973866D02*
X65214286Y-105735771D01*
X65214286Y-105735771D02*
X65261905Y-105545295D01*
X65261905Y-105545295D02*
X65309524Y-105450057D01*
X65309524Y-105450057D02*
X65357143Y-105402438D01*
X65357143Y-105402438D02*
X65452381Y-105354819D01*
X66119048Y-105354819D02*
X66738095Y-105354819D01*
X66738095Y-105354819D02*
X66404762Y-105735771D01*
X66404762Y-105735771D02*
X66547619Y-105735771D01*
X66547619Y-105735771D02*
X66642857Y-105783390D01*
X66642857Y-105783390D02*
X66690476Y-105831009D01*
X66690476Y-105831009D02*
X66738095Y-105926247D01*
X66738095Y-105926247D02*
X66738095Y-106164342D01*
X66738095Y-106164342D02*
X66690476Y-106259580D01*
X66690476Y-106259580D02*
X66642857Y-106307200D01*
X66642857Y-106307200D02*
X66547619Y-106354819D01*
X66547619Y-106354819D02*
X66261905Y-106354819D01*
X66261905Y-106354819D02*
X66166667Y-106307200D01*
X66166667Y-106307200D02*
X66119048Y-106259580D01*
X80164285Y-108309819D02*
X80164285Y-109024104D01*
X80164285Y-109024104D02*
X80116666Y-109166961D01*
X80116666Y-109166961D02*
X80021428Y-109262200D01*
X80021428Y-109262200D02*
X79878571Y-109309819D01*
X79878571Y-109309819D02*
X79783333Y-109309819D01*
X81069047Y-108643152D02*
X81069047Y-109309819D01*
X80830952Y-108262200D02*
X80592857Y-108976485D01*
X80592857Y-108976485D02*
X81211904Y-108976485D01*
X81783333Y-108309819D02*
X81878571Y-108309819D01*
X81878571Y-108309819D02*
X81973809Y-108357438D01*
X81973809Y-108357438D02*
X82021428Y-108405057D01*
X82021428Y-108405057D02*
X82069047Y-108500295D01*
X82069047Y-108500295D02*
X82116666Y-108690771D01*
X82116666Y-108690771D02*
X82116666Y-108928866D01*
X82116666Y-108928866D02*
X82069047Y-109119342D01*
X82069047Y-109119342D02*
X82021428Y-109214580D01*
X82021428Y-109214580D02*
X81973809Y-109262200D01*
X81973809Y-109262200D02*
X81878571Y-109309819D01*
X81878571Y-109309819D02*
X81783333Y-109309819D01*
X81783333Y-109309819D02*
X81688095Y-109262200D01*
X81688095Y-109262200D02*
X81640476Y-109214580D01*
X81640476Y-109214580D02*
X81592857Y-109119342D01*
X81592857Y-109119342D02*
X81545238Y-108928866D01*
X81545238Y-108928866D02*
X81545238Y-108690771D01*
X81545238Y-108690771D02*
X81592857Y-108500295D01*
X81592857Y-108500295D02*
X81640476Y-108405057D01*
X81640476Y-108405057D02*
X81688095Y-108357438D01*
X81688095Y-108357438D02*
X81783333Y-108309819D01*
X82497619Y-108405057D02*
X82545238Y-108357438D01*
X82545238Y-108357438D02*
X82640476Y-108309819D01*
X82640476Y-108309819D02*
X82878571Y-108309819D01*
X82878571Y-108309819D02*
X82973809Y-108357438D01*
X82973809Y-108357438D02*
X83021428Y-108405057D01*
X83021428Y-108405057D02*
X83069047Y-108500295D01*
X83069047Y-108500295D02*
X83069047Y-108595533D01*
X83069047Y-108595533D02*
X83021428Y-108738390D01*
X83021428Y-108738390D02*
X82450000Y-109309819D01*
X82450000Y-109309819D02*
X83069047Y-109309819D01*
X75880952Y-69609580D02*
X75833333Y-69657200D01*
X75833333Y-69657200D02*
X75690476Y-69704819D01*
X75690476Y-69704819D02*
X75595238Y-69704819D01*
X75595238Y-69704819D02*
X75452381Y-69657200D01*
X75452381Y-69657200D02*
X75357143Y-69561961D01*
X75357143Y-69561961D02*
X75309524Y-69466723D01*
X75309524Y-69466723D02*
X75261905Y-69276247D01*
X75261905Y-69276247D02*
X75261905Y-69133390D01*
X75261905Y-69133390D02*
X75309524Y-68942914D01*
X75309524Y-68942914D02*
X75357143Y-68847676D01*
X75357143Y-68847676D02*
X75452381Y-68752438D01*
X75452381Y-68752438D02*
X75595238Y-68704819D01*
X75595238Y-68704819D02*
X75690476Y-68704819D01*
X75690476Y-68704819D02*
X75833333Y-68752438D01*
X75833333Y-68752438D02*
X75880952Y-68800057D01*
X76214286Y-68704819D02*
X76833333Y-68704819D01*
X76833333Y-68704819D02*
X76500000Y-69085771D01*
X76500000Y-69085771D02*
X76642857Y-69085771D01*
X76642857Y-69085771D02*
X76738095Y-69133390D01*
X76738095Y-69133390D02*
X76785714Y-69181009D01*
X76785714Y-69181009D02*
X76833333Y-69276247D01*
X76833333Y-69276247D02*
X76833333Y-69514342D01*
X76833333Y-69514342D02*
X76785714Y-69609580D01*
X76785714Y-69609580D02*
X76738095Y-69657200D01*
X76738095Y-69657200D02*
X76642857Y-69704819D01*
X76642857Y-69704819D02*
X76357143Y-69704819D01*
X76357143Y-69704819D02*
X76261905Y-69657200D01*
X76261905Y-69657200D02*
X76214286Y-69609580D01*
X77452381Y-68704819D02*
X77547619Y-68704819D01*
X77547619Y-68704819D02*
X77642857Y-68752438D01*
X77642857Y-68752438D02*
X77690476Y-68800057D01*
X77690476Y-68800057D02*
X77738095Y-68895295D01*
X77738095Y-68895295D02*
X77785714Y-69085771D01*
X77785714Y-69085771D02*
X77785714Y-69323866D01*
X77785714Y-69323866D02*
X77738095Y-69514342D01*
X77738095Y-69514342D02*
X77690476Y-69609580D01*
X77690476Y-69609580D02*
X77642857Y-69657200D01*
X77642857Y-69657200D02*
X77547619Y-69704819D01*
X77547619Y-69704819D02*
X77452381Y-69704819D01*
X77452381Y-69704819D02*
X77357143Y-69657200D01*
X77357143Y-69657200D02*
X77309524Y-69609580D01*
X77309524Y-69609580D02*
X77261905Y-69514342D01*
X77261905Y-69514342D02*
X77214286Y-69323866D01*
X77214286Y-69323866D02*
X77214286Y-69085771D01*
X77214286Y-69085771D02*
X77261905Y-68895295D01*
X77261905Y-68895295D02*
X77309524Y-68800057D01*
X77309524Y-68800057D02*
X77357143Y-68752438D01*
X77357143Y-68752438D02*
X77452381Y-68704819D01*
X78166667Y-68800057D02*
X78214286Y-68752438D01*
X78214286Y-68752438D02*
X78309524Y-68704819D01*
X78309524Y-68704819D02*
X78547619Y-68704819D01*
X78547619Y-68704819D02*
X78642857Y-68752438D01*
X78642857Y-68752438D02*
X78690476Y-68800057D01*
X78690476Y-68800057D02*
X78738095Y-68895295D01*
X78738095Y-68895295D02*
X78738095Y-68990533D01*
X78738095Y-68990533D02*
X78690476Y-69133390D01*
X78690476Y-69133390D02*
X78119048Y-69704819D01*
X78119048Y-69704819D02*
X78738095Y-69704819D01*
X63529819Y-69285714D02*
X64244104Y-69285714D01*
X64244104Y-69285714D02*
X64386961Y-69333333D01*
X64386961Y-69333333D02*
X64482200Y-69428571D01*
X64482200Y-69428571D02*
X64529819Y-69571428D01*
X64529819Y-69571428D02*
X64529819Y-69666666D01*
X63529819Y-68904761D02*
X63529819Y-68285714D01*
X63529819Y-68285714D02*
X63910771Y-68619047D01*
X63910771Y-68619047D02*
X63910771Y-68476190D01*
X63910771Y-68476190D02*
X63958390Y-68380952D01*
X63958390Y-68380952D02*
X64006009Y-68333333D01*
X64006009Y-68333333D02*
X64101247Y-68285714D01*
X64101247Y-68285714D02*
X64339342Y-68285714D01*
X64339342Y-68285714D02*
X64434580Y-68333333D01*
X64434580Y-68333333D02*
X64482200Y-68380952D01*
X64482200Y-68380952D02*
X64529819Y-68476190D01*
X64529819Y-68476190D02*
X64529819Y-68761904D01*
X64529819Y-68761904D02*
X64482200Y-68857142D01*
X64482200Y-68857142D02*
X64434580Y-68904761D01*
X63529819Y-67666666D02*
X63529819Y-67571428D01*
X63529819Y-67571428D02*
X63577438Y-67476190D01*
X63577438Y-67476190D02*
X63625057Y-67428571D01*
X63625057Y-67428571D02*
X63720295Y-67380952D01*
X63720295Y-67380952D02*
X63910771Y-67333333D01*
X63910771Y-67333333D02*
X64148866Y-67333333D01*
X64148866Y-67333333D02*
X64339342Y-67380952D01*
X64339342Y-67380952D02*
X64434580Y-67428571D01*
X64434580Y-67428571D02*
X64482200Y-67476190D01*
X64482200Y-67476190D02*
X64529819Y-67571428D01*
X64529819Y-67571428D02*
X64529819Y-67666666D01*
X64529819Y-67666666D02*
X64482200Y-67761904D01*
X64482200Y-67761904D02*
X64434580Y-67809523D01*
X64434580Y-67809523D02*
X64339342Y-67857142D01*
X64339342Y-67857142D02*
X64148866Y-67904761D01*
X64148866Y-67904761D02*
X63910771Y-67904761D01*
X63910771Y-67904761D02*
X63720295Y-67857142D01*
X63720295Y-67857142D02*
X63625057Y-67809523D01*
X63625057Y-67809523D02*
X63577438Y-67761904D01*
X63577438Y-67761904D02*
X63529819Y-67666666D01*
X64529819Y-66380952D02*
X64529819Y-66952380D01*
X64529819Y-66666666D02*
X63529819Y-66666666D01*
X63529819Y-66666666D02*
X63672676Y-66761904D01*
X63672676Y-66761904D02*
X63767914Y-66857142D01*
X63767914Y-66857142D02*
X63815533Y-66952380D01*
X70004819Y-139487797D02*
X69528628Y-139821130D01*
X70004819Y-140059225D02*
X69004819Y-140059225D01*
X69004819Y-140059225D02*
X69004819Y-139678273D01*
X69004819Y-139678273D02*
X69052438Y-139583035D01*
X69052438Y-139583035D02*
X69100057Y-139535416D01*
X69100057Y-139535416D02*
X69195295Y-139487797D01*
X69195295Y-139487797D02*
X69338152Y-139487797D01*
X69338152Y-139487797D02*
X69433390Y-139535416D01*
X69433390Y-139535416D02*
X69481009Y-139583035D01*
X69481009Y-139583035D02*
X69528628Y-139678273D01*
X69528628Y-139678273D02*
X69528628Y-140059225D01*
X69100057Y-139106844D02*
X69052438Y-139059225D01*
X69052438Y-139059225D02*
X69004819Y-138963987D01*
X69004819Y-138963987D02*
X69004819Y-138725892D01*
X69004819Y-138725892D02*
X69052438Y-138630654D01*
X69052438Y-138630654D02*
X69100057Y-138583035D01*
X69100057Y-138583035D02*
X69195295Y-138535416D01*
X69195295Y-138535416D02*
X69290533Y-138535416D01*
X69290533Y-138535416D02*
X69433390Y-138583035D01*
X69433390Y-138583035D02*
X70004819Y-139154463D01*
X70004819Y-139154463D02*
X70004819Y-138535416D01*
X70004819Y-137583035D02*
X70004819Y-138154463D01*
X70004819Y-137868749D02*
X69004819Y-137868749D01*
X69004819Y-137868749D02*
X69147676Y-137963987D01*
X69147676Y-137963987D02*
X69242914Y-138059225D01*
X69242914Y-138059225D02*
X69290533Y-138154463D01*
X69338152Y-136725892D02*
X70004819Y-136725892D01*
X68957200Y-136963987D02*
X69671485Y-137202082D01*
X69671485Y-137202082D02*
X69671485Y-136583035D01*
X80476286Y-96717200D02*
X80619143Y-96764819D01*
X80619143Y-96764819D02*
X80857238Y-96764819D01*
X80857238Y-96764819D02*
X80952476Y-96717200D01*
X80952476Y-96717200D02*
X81000095Y-96669580D01*
X81000095Y-96669580D02*
X81047714Y-96574342D01*
X81047714Y-96574342D02*
X81047714Y-96479104D01*
X81047714Y-96479104D02*
X81000095Y-96383866D01*
X81000095Y-96383866D02*
X80952476Y-96336247D01*
X80952476Y-96336247D02*
X80857238Y-96288628D01*
X80857238Y-96288628D02*
X80666762Y-96241009D01*
X80666762Y-96241009D02*
X80571524Y-96193390D01*
X80571524Y-96193390D02*
X80523905Y-96145771D01*
X80523905Y-96145771D02*
X80476286Y-96050533D01*
X80476286Y-96050533D02*
X80476286Y-95955295D01*
X80476286Y-95955295D02*
X80523905Y-95860057D01*
X80523905Y-95860057D02*
X80571524Y-95812438D01*
X80571524Y-95812438D02*
X80666762Y-95764819D01*
X80666762Y-95764819D02*
X80904857Y-95764819D01*
X80904857Y-95764819D02*
X81047714Y-95812438D01*
X81381048Y-95764819D02*
X81619143Y-96764819D01*
X81619143Y-96764819D02*
X81809619Y-96050533D01*
X81809619Y-96050533D02*
X82000095Y-96764819D01*
X82000095Y-96764819D02*
X82238191Y-95764819D01*
X83047714Y-96098152D02*
X83047714Y-96764819D01*
X82809619Y-95717200D02*
X82571524Y-96431485D01*
X82571524Y-96431485D02*
X83190571Y-96431485D01*
X83762000Y-95764819D02*
X83857238Y-95764819D01*
X83857238Y-95764819D02*
X83952476Y-95812438D01*
X83952476Y-95812438D02*
X84000095Y-95860057D01*
X84000095Y-95860057D02*
X84047714Y-95955295D01*
X84047714Y-95955295D02*
X84095333Y-96145771D01*
X84095333Y-96145771D02*
X84095333Y-96383866D01*
X84095333Y-96383866D02*
X84047714Y-96574342D01*
X84047714Y-96574342D02*
X84000095Y-96669580D01*
X84000095Y-96669580D02*
X83952476Y-96717200D01*
X83952476Y-96717200D02*
X83857238Y-96764819D01*
X83857238Y-96764819D02*
X83762000Y-96764819D01*
X83762000Y-96764819D02*
X83666762Y-96717200D01*
X83666762Y-96717200D02*
X83619143Y-96669580D01*
X83619143Y-96669580D02*
X83571524Y-96574342D01*
X83571524Y-96574342D02*
X83523905Y-96383866D01*
X83523905Y-96383866D02*
X83523905Y-96145771D01*
X83523905Y-96145771D02*
X83571524Y-95955295D01*
X83571524Y-95955295D02*
X83619143Y-95860057D01*
X83619143Y-95860057D02*
X83666762Y-95812438D01*
X83666762Y-95812438D02*
X83762000Y-95764819D01*
X85047714Y-96764819D02*
X84476286Y-96764819D01*
X84762000Y-96764819D02*
X84762000Y-95764819D01*
X84762000Y-95764819D02*
X84666762Y-95907676D01*
X84666762Y-95907676D02*
X84571524Y-96002914D01*
X84571524Y-96002914D02*
X84476286Y-96050533D01*
X133880952Y-77304819D02*
X133547619Y-76828628D01*
X133309524Y-77304819D02*
X133309524Y-76304819D01*
X133309524Y-76304819D02*
X133690476Y-76304819D01*
X133690476Y-76304819D02*
X133785714Y-76352438D01*
X133785714Y-76352438D02*
X133833333Y-76400057D01*
X133833333Y-76400057D02*
X133880952Y-76495295D01*
X133880952Y-76495295D02*
X133880952Y-76638152D01*
X133880952Y-76638152D02*
X133833333Y-76733390D01*
X133833333Y-76733390D02*
X133785714Y-76781009D01*
X133785714Y-76781009D02*
X133690476Y-76828628D01*
X133690476Y-76828628D02*
X133309524Y-76828628D01*
X134261905Y-76400057D02*
X134309524Y-76352438D01*
X134309524Y-76352438D02*
X134404762Y-76304819D01*
X134404762Y-76304819D02*
X134642857Y-76304819D01*
X134642857Y-76304819D02*
X134738095Y-76352438D01*
X134738095Y-76352438D02*
X134785714Y-76400057D01*
X134785714Y-76400057D02*
X134833333Y-76495295D01*
X134833333Y-76495295D02*
X134833333Y-76590533D01*
X134833333Y-76590533D02*
X134785714Y-76733390D01*
X134785714Y-76733390D02*
X134214286Y-77304819D01*
X134214286Y-77304819D02*
X134833333Y-77304819D01*
X135452381Y-76304819D02*
X135547619Y-76304819D01*
X135547619Y-76304819D02*
X135642857Y-76352438D01*
X135642857Y-76352438D02*
X135690476Y-76400057D01*
X135690476Y-76400057D02*
X135738095Y-76495295D01*
X135738095Y-76495295D02*
X135785714Y-76685771D01*
X135785714Y-76685771D02*
X135785714Y-76923866D01*
X135785714Y-76923866D02*
X135738095Y-77114342D01*
X135738095Y-77114342D02*
X135690476Y-77209580D01*
X135690476Y-77209580D02*
X135642857Y-77257200D01*
X135642857Y-77257200D02*
X135547619Y-77304819D01*
X135547619Y-77304819D02*
X135452381Y-77304819D01*
X135452381Y-77304819D02*
X135357143Y-77257200D01*
X135357143Y-77257200D02*
X135309524Y-77209580D01*
X135309524Y-77209580D02*
X135261905Y-77114342D01*
X135261905Y-77114342D02*
X135214286Y-76923866D01*
X135214286Y-76923866D02*
X135214286Y-76685771D01*
X135214286Y-76685771D02*
X135261905Y-76495295D01*
X135261905Y-76495295D02*
X135309524Y-76400057D01*
X135309524Y-76400057D02*
X135357143Y-76352438D01*
X135357143Y-76352438D02*
X135452381Y-76304819D01*
X136642857Y-76304819D02*
X136452381Y-76304819D01*
X136452381Y-76304819D02*
X136357143Y-76352438D01*
X136357143Y-76352438D02*
X136309524Y-76400057D01*
X136309524Y-76400057D02*
X136214286Y-76542914D01*
X136214286Y-76542914D02*
X136166667Y-76733390D01*
X136166667Y-76733390D02*
X136166667Y-77114342D01*
X136166667Y-77114342D02*
X136214286Y-77209580D01*
X136214286Y-77209580D02*
X136261905Y-77257200D01*
X136261905Y-77257200D02*
X136357143Y-77304819D01*
X136357143Y-77304819D02*
X136547619Y-77304819D01*
X136547619Y-77304819D02*
X136642857Y-77257200D01*
X136642857Y-77257200D02*
X136690476Y-77209580D01*
X136690476Y-77209580D02*
X136738095Y-77114342D01*
X136738095Y-77114342D02*
X136738095Y-76876247D01*
X136738095Y-76876247D02*
X136690476Y-76781009D01*
X136690476Y-76781009D02*
X136642857Y-76733390D01*
X136642857Y-76733390D02*
X136547619Y-76685771D01*
X136547619Y-76685771D02*
X136357143Y-76685771D01*
X136357143Y-76685771D02*
X136261905Y-76733390D01*
X136261905Y-76733390D02*
X136214286Y-76781009D01*
X136214286Y-76781009D02*
X136166667Y-76876247D01*
X78104819Y-76119047D02*
X77628628Y-76452380D01*
X78104819Y-76690475D02*
X77104819Y-76690475D01*
X77104819Y-76690475D02*
X77104819Y-76309523D01*
X77104819Y-76309523D02*
X77152438Y-76214285D01*
X77152438Y-76214285D02*
X77200057Y-76166666D01*
X77200057Y-76166666D02*
X77295295Y-76119047D01*
X77295295Y-76119047D02*
X77438152Y-76119047D01*
X77438152Y-76119047D02*
X77533390Y-76166666D01*
X77533390Y-76166666D02*
X77581009Y-76214285D01*
X77581009Y-76214285D02*
X77628628Y-76309523D01*
X77628628Y-76309523D02*
X77628628Y-76690475D01*
X77104819Y-75785713D02*
X77104819Y-75166666D01*
X77104819Y-75166666D02*
X77485771Y-75499999D01*
X77485771Y-75499999D02*
X77485771Y-75357142D01*
X77485771Y-75357142D02*
X77533390Y-75261904D01*
X77533390Y-75261904D02*
X77581009Y-75214285D01*
X77581009Y-75214285D02*
X77676247Y-75166666D01*
X77676247Y-75166666D02*
X77914342Y-75166666D01*
X77914342Y-75166666D02*
X78009580Y-75214285D01*
X78009580Y-75214285D02*
X78057200Y-75261904D01*
X78057200Y-75261904D02*
X78104819Y-75357142D01*
X78104819Y-75357142D02*
X78104819Y-75642856D01*
X78104819Y-75642856D02*
X78057200Y-75738094D01*
X78057200Y-75738094D02*
X78009580Y-75785713D01*
X77104819Y-74547618D02*
X77104819Y-74452380D01*
X77104819Y-74452380D02*
X77152438Y-74357142D01*
X77152438Y-74357142D02*
X77200057Y-74309523D01*
X77200057Y-74309523D02*
X77295295Y-74261904D01*
X77295295Y-74261904D02*
X77485771Y-74214285D01*
X77485771Y-74214285D02*
X77723866Y-74214285D01*
X77723866Y-74214285D02*
X77914342Y-74261904D01*
X77914342Y-74261904D02*
X78009580Y-74309523D01*
X78009580Y-74309523D02*
X78057200Y-74357142D01*
X78057200Y-74357142D02*
X78104819Y-74452380D01*
X78104819Y-74452380D02*
X78104819Y-74547618D01*
X78104819Y-74547618D02*
X78057200Y-74642856D01*
X78057200Y-74642856D02*
X78009580Y-74690475D01*
X78009580Y-74690475D02*
X77914342Y-74738094D01*
X77914342Y-74738094D02*
X77723866Y-74785713D01*
X77723866Y-74785713D02*
X77485771Y-74785713D01*
X77485771Y-74785713D02*
X77295295Y-74738094D01*
X77295295Y-74738094D02*
X77200057Y-74690475D01*
X77200057Y-74690475D02*
X77152438Y-74642856D01*
X77152438Y-74642856D02*
X77104819Y-74547618D01*
X77438152Y-73357142D02*
X78104819Y-73357142D01*
X77057200Y-73595237D02*
X77771485Y-73833332D01*
X77771485Y-73833332D02*
X77771485Y-73214285D01*
X73380952Y-121604819D02*
X73047619Y-121128628D01*
X72809524Y-121604819D02*
X72809524Y-120604819D01*
X72809524Y-120604819D02*
X73190476Y-120604819D01*
X73190476Y-120604819D02*
X73285714Y-120652438D01*
X73285714Y-120652438D02*
X73333333Y-120700057D01*
X73333333Y-120700057D02*
X73380952Y-120795295D01*
X73380952Y-120795295D02*
X73380952Y-120938152D01*
X73380952Y-120938152D02*
X73333333Y-121033390D01*
X73333333Y-121033390D02*
X73285714Y-121081009D01*
X73285714Y-121081009D02*
X73190476Y-121128628D01*
X73190476Y-121128628D02*
X72809524Y-121128628D01*
X73761905Y-120700057D02*
X73809524Y-120652438D01*
X73809524Y-120652438D02*
X73904762Y-120604819D01*
X73904762Y-120604819D02*
X74142857Y-120604819D01*
X74142857Y-120604819D02*
X74238095Y-120652438D01*
X74238095Y-120652438D02*
X74285714Y-120700057D01*
X74285714Y-120700057D02*
X74333333Y-120795295D01*
X74333333Y-120795295D02*
X74333333Y-120890533D01*
X74333333Y-120890533D02*
X74285714Y-121033390D01*
X74285714Y-121033390D02*
X73714286Y-121604819D01*
X73714286Y-121604819D02*
X74333333Y-121604819D01*
X75285714Y-121604819D02*
X74714286Y-121604819D01*
X75000000Y-121604819D02*
X75000000Y-120604819D01*
X75000000Y-120604819D02*
X74904762Y-120747676D01*
X74904762Y-120747676D02*
X74809524Y-120842914D01*
X74809524Y-120842914D02*
X74714286Y-120890533D01*
X75666667Y-120700057D02*
X75714286Y-120652438D01*
X75714286Y-120652438D02*
X75809524Y-120604819D01*
X75809524Y-120604819D02*
X76047619Y-120604819D01*
X76047619Y-120604819D02*
X76142857Y-120652438D01*
X76142857Y-120652438D02*
X76190476Y-120700057D01*
X76190476Y-120700057D02*
X76238095Y-120795295D01*
X76238095Y-120795295D02*
X76238095Y-120890533D01*
X76238095Y-120890533D02*
X76190476Y-121033390D01*
X76190476Y-121033390D02*
X75619048Y-121604819D01*
X75619048Y-121604819D02*
X76238095Y-121604819D01*
X133380952Y-120054819D02*
X133047619Y-119578628D01*
X132809524Y-120054819D02*
X132809524Y-119054819D01*
X132809524Y-119054819D02*
X133190476Y-119054819D01*
X133190476Y-119054819D02*
X133285714Y-119102438D01*
X133285714Y-119102438D02*
X133333333Y-119150057D01*
X133333333Y-119150057D02*
X133380952Y-119245295D01*
X133380952Y-119245295D02*
X133380952Y-119388152D01*
X133380952Y-119388152D02*
X133333333Y-119483390D01*
X133333333Y-119483390D02*
X133285714Y-119531009D01*
X133285714Y-119531009D02*
X133190476Y-119578628D01*
X133190476Y-119578628D02*
X132809524Y-119578628D01*
X133761905Y-119150057D02*
X133809524Y-119102438D01*
X133809524Y-119102438D02*
X133904762Y-119054819D01*
X133904762Y-119054819D02*
X134142857Y-119054819D01*
X134142857Y-119054819D02*
X134238095Y-119102438D01*
X134238095Y-119102438D02*
X134285714Y-119150057D01*
X134285714Y-119150057D02*
X134333333Y-119245295D01*
X134333333Y-119245295D02*
X134333333Y-119340533D01*
X134333333Y-119340533D02*
X134285714Y-119483390D01*
X134285714Y-119483390D02*
X133714286Y-120054819D01*
X133714286Y-120054819D02*
X134333333Y-120054819D01*
X135285714Y-120054819D02*
X134714286Y-120054819D01*
X135000000Y-120054819D02*
X135000000Y-119054819D01*
X135000000Y-119054819D02*
X134904762Y-119197676D01*
X134904762Y-119197676D02*
X134809524Y-119292914D01*
X134809524Y-119292914D02*
X134714286Y-119340533D01*
X136238095Y-120054819D02*
X135666667Y-120054819D01*
X135952381Y-120054819D02*
X135952381Y-119054819D01*
X135952381Y-119054819D02*
X135857143Y-119197676D01*
X135857143Y-119197676D02*
X135761905Y-119292914D01*
X135761905Y-119292914D02*
X135666667Y-119340533D01*
X96954819Y-114690475D02*
X95954819Y-114690475D01*
X95954819Y-114690475D02*
X95954819Y-114452380D01*
X95954819Y-114452380D02*
X96002438Y-114309523D01*
X96002438Y-114309523D02*
X96097676Y-114214285D01*
X96097676Y-114214285D02*
X96192914Y-114166666D01*
X96192914Y-114166666D02*
X96383390Y-114119047D01*
X96383390Y-114119047D02*
X96526247Y-114119047D01*
X96526247Y-114119047D02*
X96716723Y-114166666D01*
X96716723Y-114166666D02*
X96811961Y-114214285D01*
X96811961Y-114214285D02*
X96907200Y-114309523D01*
X96907200Y-114309523D02*
X96954819Y-114452380D01*
X96954819Y-114452380D02*
X96954819Y-114690475D01*
X96954819Y-113166666D02*
X96954819Y-113738094D01*
X96954819Y-113452380D02*
X95954819Y-113452380D01*
X95954819Y-113452380D02*
X96097676Y-113547618D01*
X96097676Y-113547618D02*
X96192914Y-113642856D01*
X96192914Y-113642856D02*
X96240533Y-113738094D01*
X95954819Y-112547618D02*
X95954819Y-112452380D01*
X95954819Y-112452380D02*
X96002438Y-112357142D01*
X96002438Y-112357142D02*
X96050057Y-112309523D01*
X96050057Y-112309523D02*
X96145295Y-112261904D01*
X96145295Y-112261904D02*
X96335771Y-112214285D01*
X96335771Y-112214285D02*
X96573866Y-112214285D01*
X96573866Y-112214285D02*
X96764342Y-112261904D01*
X96764342Y-112261904D02*
X96859580Y-112309523D01*
X96859580Y-112309523D02*
X96907200Y-112357142D01*
X96907200Y-112357142D02*
X96954819Y-112452380D01*
X96954819Y-112452380D02*
X96954819Y-112547618D01*
X96954819Y-112547618D02*
X96907200Y-112642856D01*
X96907200Y-112642856D02*
X96859580Y-112690475D01*
X96859580Y-112690475D02*
X96764342Y-112738094D01*
X96764342Y-112738094D02*
X96573866Y-112785713D01*
X96573866Y-112785713D02*
X96335771Y-112785713D01*
X96335771Y-112785713D02*
X96145295Y-112738094D01*
X96145295Y-112738094D02*
X96050057Y-112690475D01*
X96050057Y-112690475D02*
X96002438Y-112642856D01*
X96002438Y-112642856D02*
X95954819Y-112547618D01*
X96954819Y-111261904D02*
X96954819Y-111833332D01*
X96954819Y-111547618D02*
X95954819Y-111547618D01*
X95954819Y-111547618D02*
X96097676Y-111642856D01*
X96097676Y-111642856D02*
X96192914Y-111738094D01*
X96192914Y-111738094D02*
X96240533Y-111833332D01*
X74609580Y-63619047D02*
X74657200Y-63666666D01*
X74657200Y-63666666D02*
X74704819Y-63809523D01*
X74704819Y-63809523D02*
X74704819Y-63904761D01*
X74704819Y-63904761D02*
X74657200Y-64047618D01*
X74657200Y-64047618D02*
X74561961Y-64142856D01*
X74561961Y-64142856D02*
X74466723Y-64190475D01*
X74466723Y-64190475D02*
X74276247Y-64238094D01*
X74276247Y-64238094D02*
X74133390Y-64238094D01*
X74133390Y-64238094D02*
X73942914Y-64190475D01*
X73942914Y-64190475D02*
X73847676Y-64142856D01*
X73847676Y-64142856D02*
X73752438Y-64047618D01*
X73752438Y-64047618D02*
X73704819Y-63904761D01*
X73704819Y-63904761D02*
X73704819Y-63809523D01*
X73704819Y-63809523D02*
X73752438Y-63666666D01*
X73752438Y-63666666D02*
X73800057Y-63619047D01*
X73704819Y-63285713D02*
X73704819Y-62666666D01*
X73704819Y-62666666D02*
X74085771Y-62999999D01*
X74085771Y-62999999D02*
X74085771Y-62857142D01*
X74085771Y-62857142D02*
X74133390Y-62761904D01*
X74133390Y-62761904D02*
X74181009Y-62714285D01*
X74181009Y-62714285D02*
X74276247Y-62666666D01*
X74276247Y-62666666D02*
X74514342Y-62666666D01*
X74514342Y-62666666D02*
X74609580Y-62714285D01*
X74609580Y-62714285D02*
X74657200Y-62761904D01*
X74657200Y-62761904D02*
X74704819Y-62857142D01*
X74704819Y-62857142D02*
X74704819Y-63142856D01*
X74704819Y-63142856D02*
X74657200Y-63238094D01*
X74657200Y-63238094D02*
X74609580Y-63285713D01*
X73704819Y-62047618D02*
X73704819Y-61952380D01*
X73704819Y-61952380D02*
X73752438Y-61857142D01*
X73752438Y-61857142D02*
X73800057Y-61809523D01*
X73800057Y-61809523D02*
X73895295Y-61761904D01*
X73895295Y-61761904D02*
X74085771Y-61714285D01*
X74085771Y-61714285D02*
X74323866Y-61714285D01*
X74323866Y-61714285D02*
X74514342Y-61761904D01*
X74514342Y-61761904D02*
X74609580Y-61809523D01*
X74609580Y-61809523D02*
X74657200Y-61857142D01*
X74657200Y-61857142D02*
X74704819Y-61952380D01*
X74704819Y-61952380D02*
X74704819Y-62047618D01*
X74704819Y-62047618D02*
X74657200Y-62142856D01*
X74657200Y-62142856D02*
X74609580Y-62190475D01*
X74609580Y-62190475D02*
X74514342Y-62238094D01*
X74514342Y-62238094D02*
X74323866Y-62285713D01*
X74323866Y-62285713D02*
X74085771Y-62285713D01*
X74085771Y-62285713D02*
X73895295Y-62238094D01*
X73895295Y-62238094D02*
X73800057Y-62190475D01*
X73800057Y-62190475D02*
X73752438Y-62142856D01*
X73752438Y-62142856D02*
X73704819Y-62047618D01*
X74704819Y-60761904D02*
X74704819Y-61333332D01*
X74704819Y-61047618D02*
X73704819Y-61047618D01*
X73704819Y-61047618D02*
X73847676Y-61142856D01*
X73847676Y-61142856D02*
X73942914Y-61238094D01*
X73942914Y-61238094D02*
X73990533Y-61333332D01*
X73214285Y-91624819D02*
X73214285Y-92339104D01*
X73214285Y-92339104D02*
X73166666Y-92481961D01*
X73166666Y-92481961D02*
X73071428Y-92577200D01*
X73071428Y-92577200D02*
X72928571Y-92624819D01*
X72928571Y-92624819D02*
X72833333Y-92624819D01*
X74119047Y-91958152D02*
X74119047Y-92624819D01*
X73880952Y-91577200D02*
X73642857Y-92291485D01*
X73642857Y-92291485D02*
X74261904Y-92291485D01*
X74833333Y-91624819D02*
X74928571Y-91624819D01*
X74928571Y-91624819D02*
X75023809Y-91672438D01*
X75023809Y-91672438D02*
X75071428Y-91720057D01*
X75071428Y-91720057D02*
X75119047Y-91815295D01*
X75119047Y-91815295D02*
X75166666Y-92005771D01*
X75166666Y-92005771D02*
X75166666Y-92243866D01*
X75166666Y-92243866D02*
X75119047Y-92434342D01*
X75119047Y-92434342D02*
X75071428Y-92529580D01*
X75071428Y-92529580D02*
X75023809Y-92577200D01*
X75023809Y-92577200D02*
X74928571Y-92624819D01*
X74928571Y-92624819D02*
X74833333Y-92624819D01*
X74833333Y-92624819D02*
X74738095Y-92577200D01*
X74738095Y-92577200D02*
X74690476Y-92529580D01*
X74690476Y-92529580D02*
X74642857Y-92434342D01*
X74642857Y-92434342D02*
X74595238Y-92243866D01*
X74595238Y-92243866D02*
X74595238Y-92005771D01*
X74595238Y-92005771D02*
X74642857Y-91815295D01*
X74642857Y-91815295D02*
X74690476Y-91720057D01*
X74690476Y-91720057D02*
X74738095Y-91672438D01*
X74738095Y-91672438D02*
X74833333Y-91624819D01*
X76119047Y-92624819D02*
X75547619Y-92624819D01*
X75833333Y-92624819D02*
X75833333Y-91624819D01*
X75833333Y-91624819D02*
X75738095Y-91767676D01*
X75738095Y-91767676D02*
X75642857Y-91862914D01*
X75642857Y-91862914D02*
X75547619Y-91910533D01*
X63880952Y-80354819D02*
X63547619Y-79878628D01*
X63309524Y-80354819D02*
X63309524Y-79354819D01*
X63309524Y-79354819D02*
X63690476Y-79354819D01*
X63690476Y-79354819D02*
X63785714Y-79402438D01*
X63785714Y-79402438D02*
X63833333Y-79450057D01*
X63833333Y-79450057D02*
X63880952Y-79545295D01*
X63880952Y-79545295D02*
X63880952Y-79688152D01*
X63880952Y-79688152D02*
X63833333Y-79783390D01*
X63833333Y-79783390D02*
X63785714Y-79831009D01*
X63785714Y-79831009D02*
X63690476Y-79878628D01*
X63690476Y-79878628D02*
X63309524Y-79878628D01*
X64261905Y-79450057D02*
X64309524Y-79402438D01*
X64309524Y-79402438D02*
X64404762Y-79354819D01*
X64404762Y-79354819D02*
X64642857Y-79354819D01*
X64642857Y-79354819D02*
X64738095Y-79402438D01*
X64738095Y-79402438D02*
X64785714Y-79450057D01*
X64785714Y-79450057D02*
X64833333Y-79545295D01*
X64833333Y-79545295D02*
X64833333Y-79640533D01*
X64833333Y-79640533D02*
X64785714Y-79783390D01*
X64785714Y-79783390D02*
X64214286Y-80354819D01*
X64214286Y-80354819D02*
X64833333Y-80354819D01*
X65452381Y-79354819D02*
X65547619Y-79354819D01*
X65547619Y-79354819D02*
X65642857Y-79402438D01*
X65642857Y-79402438D02*
X65690476Y-79450057D01*
X65690476Y-79450057D02*
X65738095Y-79545295D01*
X65738095Y-79545295D02*
X65785714Y-79735771D01*
X65785714Y-79735771D02*
X65785714Y-79973866D01*
X65785714Y-79973866D02*
X65738095Y-80164342D01*
X65738095Y-80164342D02*
X65690476Y-80259580D01*
X65690476Y-80259580D02*
X65642857Y-80307200D01*
X65642857Y-80307200D02*
X65547619Y-80354819D01*
X65547619Y-80354819D02*
X65452381Y-80354819D01*
X65452381Y-80354819D02*
X65357143Y-80307200D01*
X65357143Y-80307200D02*
X65309524Y-80259580D01*
X65309524Y-80259580D02*
X65261905Y-80164342D01*
X65261905Y-80164342D02*
X65214286Y-79973866D01*
X65214286Y-79973866D02*
X65214286Y-79735771D01*
X65214286Y-79735771D02*
X65261905Y-79545295D01*
X65261905Y-79545295D02*
X65309524Y-79450057D01*
X65309524Y-79450057D02*
X65357143Y-79402438D01*
X65357143Y-79402438D02*
X65452381Y-79354819D01*
X66738095Y-80354819D02*
X66166667Y-80354819D01*
X66452381Y-80354819D02*
X66452381Y-79354819D01*
X66452381Y-79354819D02*
X66357143Y-79497676D01*
X66357143Y-79497676D02*
X66261905Y-79592914D01*
X66261905Y-79592914D02*
X66166667Y-79640533D01*
X133880952Y-103304819D02*
X133547619Y-102828628D01*
X133309524Y-103304819D02*
X133309524Y-102304819D01*
X133309524Y-102304819D02*
X133690476Y-102304819D01*
X133690476Y-102304819D02*
X133785714Y-102352438D01*
X133785714Y-102352438D02*
X133833333Y-102400057D01*
X133833333Y-102400057D02*
X133880952Y-102495295D01*
X133880952Y-102495295D02*
X133880952Y-102638152D01*
X133880952Y-102638152D02*
X133833333Y-102733390D01*
X133833333Y-102733390D02*
X133785714Y-102781009D01*
X133785714Y-102781009D02*
X133690476Y-102828628D01*
X133690476Y-102828628D02*
X133309524Y-102828628D01*
X134261905Y-102400057D02*
X134309524Y-102352438D01*
X134309524Y-102352438D02*
X134404762Y-102304819D01*
X134404762Y-102304819D02*
X134642857Y-102304819D01*
X134642857Y-102304819D02*
X134738095Y-102352438D01*
X134738095Y-102352438D02*
X134785714Y-102400057D01*
X134785714Y-102400057D02*
X134833333Y-102495295D01*
X134833333Y-102495295D02*
X134833333Y-102590533D01*
X134833333Y-102590533D02*
X134785714Y-102733390D01*
X134785714Y-102733390D02*
X134214286Y-103304819D01*
X134214286Y-103304819D02*
X134833333Y-103304819D01*
X135452381Y-102304819D02*
X135547619Y-102304819D01*
X135547619Y-102304819D02*
X135642857Y-102352438D01*
X135642857Y-102352438D02*
X135690476Y-102400057D01*
X135690476Y-102400057D02*
X135738095Y-102495295D01*
X135738095Y-102495295D02*
X135785714Y-102685771D01*
X135785714Y-102685771D02*
X135785714Y-102923866D01*
X135785714Y-102923866D02*
X135738095Y-103114342D01*
X135738095Y-103114342D02*
X135690476Y-103209580D01*
X135690476Y-103209580D02*
X135642857Y-103257200D01*
X135642857Y-103257200D02*
X135547619Y-103304819D01*
X135547619Y-103304819D02*
X135452381Y-103304819D01*
X135452381Y-103304819D02*
X135357143Y-103257200D01*
X135357143Y-103257200D02*
X135309524Y-103209580D01*
X135309524Y-103209580D02*
X135261905Y-103114342D01*
X135261905Y-103114342D02*
X135214286Y-102923866D01*
X135214286Y-102923866D02*
X135214286Y-102685771D01*
X135214286Y-102685771D02*
X135261905Y-102495295D01*
X135261905Y-102495295D02*
X135309524Y-102400057D01*
X135309524Y-102400057D02*
X135357143Y-102352438D01*
X135357143Y-102352438D02*
X135452381Y-102304819D01*
X136357143Y-102733390D02*
X136261905Y-102685771D01*
X136261905Y-102685771D02*
X136214286Y-102638152D01*
X136214286Y-102638152D02*
X136166667Y-102542914D01*
X136166667Y-102542914D02*
X136166667Y-102495295D01*
X136166667Y-102495295D02*
X136214286Y-102400057D01*
X136214286Y-102400057D02*
X136261905Y-102352438D01*
X136261905Y-102352438D02*
X136357143Y-102304819D01*
X136357143Y-102304819D02*
X136547619Y-102304819D01*
X136547619Y-102304819D02*
X136642857Y-102352438D01*
X136642857Y-102352438D02*
X136690476Y-102400057D01*
X136690476Y-102400057D02*
X136738095Y-102495295D01*
X136738095Y-102495295D02*
X136738095Y-102542914D01*
X136738095Y-102542914D02*
X136690476Y-102638152D01*
X136690476Y-102638152D02*
X136642857Y-102685771D01*
X136642857Y-102685771D02*
X136547619Y-102733390D01*
X136547619Y-102733390D02*
X136357143Y-102733390D01*
X136357143Y-102733390D02*
X136261905Y-102781009D01*
X136261905Y-102781009D02*
X136214286Y-102828628D01*
X136214286Y-102828628D02*
X136166667Y-102923866D01*
X136166667Y-102923866D02*
X136166667Y-103114342D01*
X136166667Y-103114342D02*
X136214286Y-103209580D01*
X136214286Y-103209580D02*
X136261905Y-103257200D01*
X136261905Y-103257200D02*
X136357143Y-103304819D01*
X136357143Y-103304819D02*
X136547619Y-103304819D01*
X136547619Y-103304819D02*
X136642857Y-103257200D01*
X136642857Y-103257200D02*
X136690476Y-103209580D01*
X136690476Y-103209580D02*
X136738095Y-103114342D01*
X136738095Y-103114342D02*
X136738095Y-102923866D01*
X136738095Y-102923866D02*
X136690476Y-102828628D01*
X136690476Y-102828628D02*
X136642857Y-102781009D01*
X136642857Y-102781009D02*
X136547619Y-102733390D01*
X124214285Y-133154819D02*
X124214285Y-133869104D01*
X124214285Y-133869104D02*
X124166666Y-134011961D01*
X124166666Y-134011961D02*
X124071428Y-134107200D01*
X124071428Y-134107200D02*
X123928571Y-134154819D01*
X123928571Y-134154819D02*
X123833333Y-134154819D01*
X125214285Y-134154819D02*
X124642857Y-134154819D01*
X124928571Y-134154819D02*
X124928571Y-133154819D01*
X124928571Y-133154819D02*
X124833333Y-133297676D01*
X124833333Y-133297676D02*
X124738095Y-133392914D01*
X124738095Y-133392914D02*
X124642857Y-133440533D01*
X125833333Y-133154819D02*
X125928571Y-133154819D01*
X125928571Y-133154819D02*
X126023809Y-133202438D01*
X126023809Y-133202438D02*
X126071428Y-133250057D01*
X126071428Y-133250057D02*
X126119047Y-133345295D01*
X126119047Y-133345295D02*
X126166666Y-133535771D01*
X126166666Y-133535771D02*
X126166666Y-133773866D01*
X126166666Y-133773866D02*
X126119047Y-133964342D01*
X126119047Y-133964342D02*
X126071428Y-134059580D01*
X126071428Y-134059580D02*
X126023809Y-134107200D01*
X126023809Y-134107200D02*
X125928571Y-134154819D01*
X125928571Y-134154819D02*
X125833333Y-134154819D01*
X125833333Y-134154819D02*
X125738095Y-134107200D01*
X125738095Y-134107200D02*
X125690476Y-134059580D01*
X125690476Y-134059580D02*
X125642857Y-133964342D01*
X125642857Y-133964342D02*
X125595238Y-133773866D01*
X125595238Y-133773866D02*
X125595238Y-133535771D01*
X125595238Y-133535771D02*
X125642857Y-133345295D01*
X125642857Y-133345295D02*
X125690476Y-133250057D01*
X125690476Y-133250057D02*
X125738095Y-133202438D01*
X125738095Y-133202438D02*
X125833333Y-133154819D01*
X127119047Y-134154819D02*
X126547619Y-134154819D01*
X126833333Y-134154819D02*
X126833333Y-133154819D01*
X126833333Y-133154819D02*
X126738095Y-133297676D01*
X126738095Y-133297676D02*
X126642857Y-133392914D01*
X126642857Y-133392914D02*
X126547619Y-133440533D01*
X113604819Y-98531547D02*
X113128628Y-98864880D01*
X113604819Y-99102975D02*
X112604819Y-99102975D01*
X112604819Y-99102975D02*
X112604819Y-98722023D01*
X112604819Y-98722023D02*
X112652438Y-98626785D01*
X112652438Y-98626785D02*
X112700057Y-98579166D01*
X112700057Y-98579166D02*
X112795295Y-98531547D01*
X112795295Y-98531547D02*
X112938152Y-98531547D01*
X112938152Y-98531547D02*
X113033390Y-98579166D01*
X113033390Y-98579166D02*
X113081009Y-98626785D01*
X113081009Y-98626785D02*
X113128628Y-98722023D01*
X113128628Y-98722023D02*
X113128628Y-99102975D01*
X112938152Y-97674404D02*
X113604819Y-97674404D01*
X112557200Y-97912499D02*
X113271485Y-98150594D01*
X113271485Y-98150594D02*
X113271485Y-97531547D01*
X112604819Y-96960118D02*
X112604819Y-96864880D01*
X112604819Y-96864880D02*
X112652438Y-96769642D01*
X112652438Y-96769642D02*
X112700057Y-96722023D01*
X112700057Y-96722023D02*
X112795295Y-96674404D01*
X112795295Y-96674404D02*
X112985771Y-96626785D01*
X112985771Y-96626785D02*
X113223866Y-96626785D01*
X113223866Y-96626785D02*
X113414342Y-96674404D01*
X113414342Y-96674404D02*
X113509580Y-96722023D01*
X113509580Y-96722023D02*
X113557200Y-96769642D01*
X113557200Y-96769642D02*
X113604819Y-96864880D01*
X113604819Y-96864880D02*
X113604819Y-96960118D01*
X113604819Y-96960118D02*
X113557200Y-97055356D01*
X113557200Y-97055356D02*
X113509580Y-97102975D01*
X113509580Y-97102975D02*
X113414342Y-97150594D01*
X113414342Y-97150594D02*
X113223866Y-97198213D01*
X113223866Y-97198213D02*
X112985771Y-97198213D01*
X112985771Y-97198213D02*
X112795295Y-97150594D01*
X112795295Y-97150594D02*
X112700057Y-97102975D01*
X112700057Y-97102975D02*
X112652438Y-97055356D01*
X112652438Y-97055356D02*
X112604819Y-96960118D01*
X112604819Y-96293451D02*
X112604819Y-95674404D01*
X112604819Y-95674404D02*
X112985771Y-96007737D01*
X112985771Y-96007737D02*
X112985771Y-95864880D01*
X112985771Y-95864880D02*
X113033390Y-95769642D01*
X113033390Y-95769642D02*
X113081009Y-95722023D01*
X113081009Y-95722023D02*
X113176247Y-95674404D01*
X113176247Y-95674404D02*
X113414342Y-95674404D01*
X113414342Y-95674404D02*
X113509580Y-95722023D01*
X113509580Y-95722023D02*
X113557200Y-95769642D01*
X113557200Y-95769642D02*
X113604819Y-95864880D01*
X113604819Y-95864880D02*
X113604819Y-96150594D01*
X113604819Y-96150594D02*
X113557200Y-96245832D01*
X113557200Y-96245832D02*
X113509580Y-96293451D01*
X96804819Y-136119047D02*
X96328628Y-136452380D01*
X96804819Y-136690475D02*
X95804819Y-136690475D01*
X95804819Y-136690475D02*
X95804819Y-136309523D01*
X95804819Y-136309523D02*
X95852438Y-136214285D01*
X95852438Y-136214285D02*
X95900057Y-136166666D01*
X95900057Y-136166666D02*
X95995295Y-136119047D01*
X95995295Y-136119047D02*
X96138152Y-136119047D01*
X96138152Y-136119047D02*
X96233390Y-136166666D01*
X96233390Y-136166666D02*
X96281009Y-136214285D01*
X96281009Y-136214285D02*
X96328628Y-136309523D01*
X96328628Y-136309523D02*
X96328628Y-136690475D01*
X95900057Y-135738094D02*
X95852438Y-135690475D01*
X95852438Y-135690475D02*
X95804819Y-135595237D01*
X95804819Y-135595237D02*
X95804819Y-135357142D01*
X95804819Y-135357142D02*
X95852438Y-135261904D01*
X95852438Y-135261904D02*
X95900057Y-135214285D01*
X95900057Y-135214285D02*
X95995295Y-135166666D01*
X95995295Y-135166666D02*
X96090533Y-135166666D01*
X96090533Y-135166666D02*
X96233390Y-135214285D01*
X96233390Y-135214285D02*
X96804819Y-135785713D01*
X96804819Y-135785713D02*
X96804819Y-135166666D01*
X96804819Y-134214285D02*
X96804819Y-134785713D01*
X96804819Y-134499999D02*
X95804819Y-134499999D01*
X95804819Y-134499999D02*
X95947676Y-134595237D01*
X95947676Y-134595237D02*
X96042914Y-134690475D01*
X96042914Y-134690475D02*
X96090533Y-134785713D01*
X95804819Y-133595237D02*
X95804819Y-133499999D01*
X95804819Y-133499999D02*
X95852438Y-133404761D01*
X95852438Y-133404761D02*
X95900057Y-133357142D01*
X95900057Y-133357142D02*
X95995295Y-133309523D01*
X95995295Y-133309523D02*
X96185771Y-133261904D01*
X96185771Y-133261904D02*
X96423866Y-133261904D01*
X96423866Y-133261904D02*
X96614342Y-133309523D01*
X96614342Y-133309523D02*
X96709580Y-133357142D01*
X96709580Y-133357142D02*
X96757200Y-133404761D01*
X96757200Y-133404761D02*
X96804819Y-133499999D01*
X96804819Y-133499999D02*
X96804819Y-133595237D01*
X96804819Y-133595237D02*
X96757200Y-133690475D01*
X96757200Y-133690475D02*
X96709580Y-133738094D01*
X96709580Y-133738094D02*
X96614342Y-133785713D01*
X96614342Y-133785713D02*
X96423866Y-133833332D01*
X96423866Y-133833332D02*
X96185771Y-133833332D01*
X96185771Y-133833332D02*
X95995295Y-133785713D01*
X95995295Y-133785713D02*
X95900057Y-133738094D01*
X95900057Y-133738094D02*
X95852438Y-133690475D01*
X95852438Y-133690475D02*
X95804819Y-133595237D01*
X73604819Y-139487797D02*
X73128628Y-139821130D01*
X73604819Y-140059225D02*
X72604819Y-140059225D01*
X72604819Y-140059225D02*
X72604819Y-139678273D01*
X72604819Y-139678273D02*
X72652438Y-139583035D01*
X72652438Y-139583035D02*
X72700057Y-139535416D01*
X72700057Y-139535416D02*
X72795295Y-139487797D01*
X72795295Y-139487797D02*
X72938152Y-139487797D01*
X72938152Y-139487797D02*
X73033390Y-139535416D01*
X73033390Y-139535416D02*
X73081009Y-139583035D01*
X73081009Y-139583035D02*
X73128628Y-139678273D01*
X73128628Y-139678273D02*
X73128628Y-140059225D01*
X72700057Y-139106844D02*
X72652438Y-139059225D01*
X72652438Y-139059225D02*
X72604819Y-138963987D01*
X72604819Y-138963987D02*
X72604819Y-138725892D01*
X72604819Y-138725892D02*
X72652438Y-138630654D01*
X72652438Y-138630654D02*
X72700057Y-138583035D01*
X72700057Y-138583035D02*
X72795295Y-138535416D01*
X72795295Y-138535416D02*
X72890533Y-138535416D01*
X72890533Y-138535416D02*
X73033390Y-138583035D01*
X73033390Y-138583035D02*
X73604819Y-139154463D01*
X73604819Y-139154463D02*
X73604819Y-138535416D01*
X73604819Y-137583035D02*
X73604819Y-138154463D01*
X73604819Y-137868749D02*
X72604819Y-137868749D01*
X72604819Y-137868749D02*
X72747676Y-137963987D01*
X72747676Y-137963987D02*
X72842914Y-138059225D01*
X72842914Y-138059225D02*
X72890533Y-138154463D01*
X72604819Y-137249701D02*
X72604819Y-136630654D01*
X72604819Y-136630654D02*
X72985771Y-136963987D01*
X72985771Y-136963987D02*
X72985771Y-136821130D01*
X72985771Y-136821130D02*
X73033390Y-136725892D01*
X73033390Y-136725892D02*
X73081009Y-136678273D01*
X73081009Y-136678273D02*
X73176247Y-136630654D01*
X73176247Y-136630654D02*
X73414342Y-136630654D01*
X73414342Y-136630654D02*
X73509580Y-136678273D01*
X73509580Y-136678273D02*
X73557200Y-136725892D01*
X73557200Y-136725892D02*
X73604819Y-136821130D01*
X73604819Y-136821130D02*
X73604819Y-137106844D01*
X73604819Y-137106844D02*
X73557200Y-137202082D01*
X73557200Y-137202082D02*
X73509580Y-137249701D01*
X133880952Y-90304819D02*
X133547619Y-89828628D01*
X133309524Y-90304819D02*
X133309524Y-89304819D01*
X133309524Y-89304819D02*
X133690476Y-89304819D01*
X133690476Y-89304819D02*
X133785714Y-89352438D01*
X133785714Y-89352438D02*
X133833333Y-89400057D01*
X133833333Y-89400057D02*
X133880952Y-89495295D01*
X133880952Y-89495295D02*
X133880952Y-89638152D01*
X133880952Y-89638152D02*
X133833333Y-89733390D01*
X133833333Y-89733390D02*
X133785714Y-89781009D01*
X133785714Y-89781009D02*
X133690476Y-89828628D01*
X133690476Y-89828628D02*
X133309524Y-89828628D01*
X134261905Y-89400057D02*
X134309524Y-89352438D01*
X134309524Y-89352438D02*
X134404762Y-89304819D01*
X134404762Y-89304819D02*
X134642857Y-89304819D01*
X134642857Y-89304819D02*
X134738095Y-89352438D01*
X134738095Y-89352438D02*
X134785714Y-89400057D01*
X134785714Y-89400057D02*
X134833333Y-89495295D01*
X134833333Y-89495295D02*
X134833333Y-89590533D01*
X134833333Y-89590533D02*
X134785714Y-89733390D01*
X134785714Y-89733390D02*
X134214286Y-90304819D01*
X134214286Y-90304819D02*
X134833333Y-90304819D01*
X135452381Y-89304819D02*
X135547619Y-89304819D01*
X135547619Y-89304819D02*
X135642857Y-89352438D01*
X135642857Y-89352438D02*
X135690476Y-89400057D01*
X135690476Y-89400057D02*
X135738095Y-89495295D01*
X135738095Y-89495295D02*
X135785714Y-89685771D01*
X135785714Y-89685771D02*
X135785714Y-89923866D01*
X135785714Y-89923866D02*
X135738095Y-90114342D01*
X135738095Y-90114342D02*
X135690476Y-90209580D01*
X135690476Y-90209580D02*
X135642857Y-90257200D01*
X135642857Y-90257200D02*
X135547619Y-90304819D01*
X135547619Y-90304819D02*
X135452381Y-90304819D01*
X135452381Y-90304819D02*
X135357143Y-90257200D01*
X135357143Y-90257200D02*
X135309524Y-90209580D01*
X135309524Y-90209580D02*
X135261905Y-90114342D01*
X135261905Y-90114342D02*
X135214286Y-89923866D01*
X135214286Y-89923866D02*
X135214286Y-89685771D01*
X135214286Y-89685771D02*
X135261905Y-89495295D01*
X135261905Y-89495295D02*
X135309524Y-89400057D01*
X135309524Y-89400057D02*
X135357143Y-89352438D01*
X135357143Y-89352438D02*
X135452381Y-89304819D01*
X136119048Y-89304819D02*
X136785714Y-89304819D01*
X136785714Y-89304819D02*
X136357143Y-90304819D01*
X100880952Y-86454819D02*
X100547619Y-85978628D01*
X100309524Y-86454819D02*
X100309524Y-85454819D01*
X100309524Y-85454819D02*
X100690476Y-85454819D01*
X100690476Y-85454819D02*
X100785714Y-85502438D01*
X100785714Y-85502438D02*
X100833333Y-85550057D01*
X100833333Y-85550057D02*
X100880952Y-85645295D01*
X100880952Y-85645295D02*
X100880952Y-85788152D01*
X100880952Y-85788152D02*
X100833333Y-85883390D01*
X100833333Y-85883390D02*
X100785714Y-85931009D01*
X100785714Y-85931009D02*
X100690476Y-85978628D01*
X100690476Y-85978628D02*
X100309524Y-85978628D01*
X101738095Y-85788152D02*
X101738095Y-86454819D01*
X101500000Y-85407200D02*
X101261905Y-86121485D01*
X101261905Y-86121485D02*
X101880952Y-86121485D01*
X102452381Y-85454819D02*
X102547619Y-85454819D01*
X102547619Y-85454819D02*
X102642857Y-85502438D01*
X102642857Y-85502438D02*
X102690476Y-85550057D01*
X102690476Y-85550057D02*
X102738095Y-85645295D01*
X102738095Y-85645295D02*
X102785714Y-85835771D01*
X102785714Y-85835771D02*
X102785714Y-86073866D01*
X102785714Y-86073866D02*
X102738095Y-86264342D01*
X102738095Y-86264342D02*
X102690476Y-86359580D01*
X102690476Y-86359580D02*
X102642857Y-86407200D01*
X102642857Y-86407200D02*
X102547619Y-86454819D01*
X102547619Y-86454819D02*
X102452381Y-86454819D01*
X102452381Y-86454819D02*
X102357143Y-86407200D01*
X102357143Y-86407200D02*
X102309524Y-86359580D01*
X102309524Y-86359580D02*
X102261905Y-86264342D01*
X102261905Y-86264342D02*
X102214286Y-86073866D01*
X102214286Y-86073866D02*
X102214286Y-85835771D01*
X102214286Y-85835771D02*
X102261905Y-85645295D01*
X102261905Y-85645295D02*
X102309524Y-85550057D01*
X102309524Y-85550057D02*
X102357143Y-85502438D01*
X102357143Y-85502438D02*
X102452381Y-85454819D01*
X103166667Y-85550057D02*
X103214286Y-85502438D01*
X103214286Y-85502438D02*
X103309524Y-85454819D01*
X103309524Y-85454819D02*
X103547619Y-85454819D01*
X103547619Y-85454819D02*
X103642857Y-85502438D01*
X103642857Y-85502438D02*
X103690476Y-85550057D01*
X103690476Y-85550057D02*
X103738095Y-85645295D01*
X103738095Y-85645295D02*
X103738095Y-85740533D01*
X103738095Y-85740533D02*
X103690476Y-85883390D01*
X103690476Y-85883390D02*
X103119048Y-86454819D01*
X103119048Y-86454819D02*
X103738095Y-86454819D01*
X104380952Y-114954819D02*
X104047619Y-114478628D01*
X103809524Y-114954819D02*
X103809524Y-113954819D01*
X103809524Y-113954819D02*
X104190476Y-113954819D01*
X104190476Y-113954819D02*
X104285714Y-114002438D01*
X104285714Y-114002438D02*
X104333333Y-114050057D01*
X104333333Y-114050057D02*
X104380952Y-114145295D01*
X104380952Y-114145295D02*
X104380952Y-114288152D01*
X104380952Y-114288152D02*
X104333333Y-114383390D01*
X104333333Y-114383390D02*
X104285714Y-114431009D01*
X104285714Y-114431009D02*
X104190476Y-114478628D01*
X104190476Y-114478628D02*
X103809524Y-114478628D01*
X105238095Y-114288152D02*
X105238095Y-114954819D01*
X105000000Y-113907200D02*
X104761905Y-114621485D01*
X104761905Y-114621485D02*
X105380952Y-114621485D01*
X105952381Y-113954819D02*
X106047619Y-113954819D01*
X106047619Y-113954819D02*
X106142857Y-114002438D01*
X106142857Y-114002438D02*
X106190476Y-114050057D01*
X106190476Y-114050057D02*
X106238095Y-114145295D01*
X106238095Y-114145295D02*
X106285714Y-114335771D01*
X106285714Y-114335771D02*
X106285714Y-114573866D01*
X106285714Y-114573866D02*
X106238095Y-114764342D01*
X106238095Y-114764342D02*
X106190476Y-114859580D01*
X106190476Y-114859580D02*
X106142857Y-114907200D01*
X106142857Y-114907200D02*
X106047619Y-114954819D01*
X106047619Y-114954819D02*
X105952381Y-114954819D01*
X105952381Y-114954819D02*
X105857143Y-114907200D01*
X105857143Y-114907200D02*
X105809524Y-114859580D01*
X105809524Y-114859580D02*
X105761905Y-114764342D01*
X105761905Y-114764342D02*
X105714286Y-114573866D01*
X105714286Y-114573866D02*
X105714286Y-114335771D01*
X105714286Y-114335771D02*
X105761905Y-114145295D01*
X105761905Y-114145295D02*
X105809524Y-114050057D01*
X105809524Y-114050057D02*
X105857143Y-114002438D01*
X105857143Y-114002438D02*
X105952381Y-113954819D01*
X107238095Y-114954819D02*
X106666667Y-114954819D01*
X106952381Y-114954819D02*
X106952381Y-113954819D01*
X106952381Y-113954819D02*
X106857143Y-114097676D01*
X106857143Y-114097676D02*
X106761905Y-114192914D01*
X106761905Y-114192914D02*
X106666667Y-114240533D01*
X125214285Y-130954819D02*
X125214285Y-131669104D01*
X125214285Y-131669104D02*
X125166666Y-131811961D01*
X125166666Y-131811961D02*
X125071428Y-131907200D01*
X125071428Y-131907200D02*
X124928571Y-131954819D01*
X124928571Y-131954819D02*
X124833333Y-131954819D01*
X125690476Y-131954819D02*
X125690476Y-130954819D01*
X125690476Y-130954819D02*
X126071428Y-130954819D01*
X126071428Y-130954819D02*
X126166666Y-131002438D01*
X126166666Y-131002438D02*
X126214285Y-131050057D01*
X126214285Y-131050057D02*
X126261904Y-131145295D01*
X126261904Y-131145295D02*
X126261904Y-131288152D01*
X126261904Y-131288152D02*
X126214285Y-131383390D01*
X126214285Y-131383390D02*
X126166666Y-131431009D01*
X126166666Y-131431009D02*
X126071428Y-131478628D01*
X126071428Y-131478628D02*
X125690476Y-131478628D01*
X127214285Y-131954819D02*
X126642857Y-131954819D01*
X126928571Y-131954819D02*
X126928571Y-130954819D01*
X126928571Y-130954819D02*
X126833333Y-131097676D01*
X126833333Y-131097676D02*
X126738095Y-131192914D01*
X126738095Y-131192914D02*
X126642857Y-131240533D01*
X127833333Y-130954819D02*
X127928571Y-130954819D01*
X127928571Y-130954819D02*
X128023809Y-131002438D01*
X128023809Y-131002438D02*
X128071428Y-131050057D01*
X128071428Y-131050057D02*
X128119047Y-131145295D01*
X128119047Y-131145295D02*
X128166666Y-131335771D01*
X128166666Y-131335771D02*
X128166666Y-131573866D01*
X128166666Y-131573866D02*
X128119047Y-131764342D01*
X128119047Y-131764342D02*
X128071428Y-131859580D01*
X128071428Y-131859580D02*
X128023809Y-131907200D01*
X128023809Y-131907200D02*
X127928571Y-131954819D01*
X127928571Y-131954819D02*
X127833333Y-131954819D01*
X127833333Y-131954819D02*
X127738095Y-131907200D01*
X127738095Y-131907200D02*
X127690476Y-131859580D01*
X127690476Y-131859580D02*
X127642857Y-131764342D01*
X127642857Y-131764342D02*
X127595238Y-131573866D01*
X127595238Y-131573866D02*
X127595238Y-131335771D01*
X127595238Y-131335771D02*
X127642857Y-131145295D01*
X127642857Y-131145295D02*
X127690476Y-131050057D01*
X127690476Y-131050057D02*
X127738095Y-131002438D01*
X127738095Y-131002438D02*
X127833333Y-130954819D01*
X129119047Y-131954819D02*
X128547619Y-131954819D01*
X128833333Y-131954819D02*
X128833333Y-130954819D01*
X128833333Y-130954819D02*
X128738095Y-131097676D01*
X128738095Y-131097676D02*
X128642857Y-131192914D01*
X128642857Y-131192914D02*
X128547619Y-131240533D01*
X91380952Y-104179580D02*
X91333333Y-104227200D01*
X91333333Y-104227200D02*
X91190476Y-104274819D01*
X91190476Y-104274819D02*
X91095238Y-104274819D01*
X91095238Y-104274819D02*
X90952381Y-104227200D01*
X90952381Y-104227200D02*
X90857143Y-104131961D01*
X90857143Y-104131961D02*
X90809524Y-104036723D01*
X90809524Y-104036723D02*
X90761905Y-103846247D01*
X90761905Y-103846247D02*
X90761905Y-103703390D01*
X90761905Y-103703390D02*
X90809524Y-103512914D01*
X90809524Y-103512914D02*
X90857143Y-103417676D01*
X90857143Y-103417676D02*
X90952381Y-103322438D01*
X90952381Y-103322438D02*
X91095238Y-103274819D01*
X91095238Y-103274819D02*
X91190476Y-103274819D01*
X91190476Y-103274819D02*
X91333333Y-103322438D01*
X91333333Y-103322438D02*
X91380952Y-103370057D01*
X92238095Y-103608152D02*
X92238095Y-104274819D01*
X92000000Y-103227200D02*
X91761905Y-103941485D01*
X91761905Y-103941485D02*
X92380952Y-103941485D01*
X92952381Y-103274819D02*
X93047619Y-103274819D01*
X93047619Y-103274819D02*
X93142857Y-103322438D01*
X93142857Y-103322438D02*
X93190476Y-103370057D01*
X93190476Y-103370057D02*
X93238095Y-103465295D01*
X93238095Y-103465295D02*
X93285714Y-103655771D01*
X93285714Y-103655771D02*
X93285714Y-103893866D01*
X93285714Y-103893866D02*
X93238095Y-104084342D01*
X93238095Y-104084342D02*
X93190476Y-104179580D01*
X93190476Y-104179580D02*
X93142857Y-104227200D01*
X93142857Y-104227200D02*
X93047619Y-104274819D01*
X93047619Y-104274819D02*
X92952381Y-104274819D01*
X92952381Y-104274819D02*
X92857143Y-104227200D01*
X92857143Y-104227200D02*
X92809524Y-104179580D01*
X92809524Y-104179580D02*
X92761905Y-104084342D01*
X92761905Y-104084342D02*
X92714286Y-103893866D01*
X92714286Y-103893866D02*
X92714286Y-103655771D01*
X92714286Y-103655771D02*
X92761905Y-103465295D01*
X92761905Y-103465295D02*
X92809524Y-103370057D01*
X92809524Y-103370057D02*
X92857143Y-103322438D01*
X92857143Y-103322438D02*
X92952381Y-103274819D01*
X94238095Y-104274819D02*
X93666667Y-104274819D01*
X93952381Y-104274819D02*
X93952381Y-103274819D01*
X93952381Y-103274819D02*
X93857143Y-103417676D01*
X93857143Y-103417676D02*
X93761905Y-103512914D01*
X93761905Y-103512914D02*
X93666667Y-103560533D01*
X100714285Y-87954819D02*
X100714285Y-88669104D01*
X100714285Y-88669104D02*
X100666666Y-88811961D01*
X100666666Y-88811961D02*
X100571428Y-88907200D01*
X100571428Y-88907200D02*
X100428571Y-88954819D01*
X100428571Y-88954819D02*
X100333333Y-88954819D01*
X101190476Y-88954819D02*
X101190476Y-87954819D01*
X101190476Y-87954819D02*
X101571428Y-87954819D01*
X101571428Y-87954819D02*
X101666666Y-88002438D01*
X101666666Y-88002438D02*
X101714285Y-88050057D01*
X101714285Y-88050057D02*
X101761904Y-88145295D01*
X101761904Y-88145295D02*
X101761904Y-88288152D01*
X101761904Y-88288152D02*
X101714285Y-88383390D01*
X101714285Y-88383390D02*
X101666666Y-88431009D01*
X101666666Y-88431009D02*
X101571428Y-88478628D01*
X101571428Y-88478628D02*
X101190476Y-88478628D01*
X102619047Y-88288152D02*
X102619047Y-88954819D01*
X102380952Y-87907200D02*
X102142857Y-88621485D01*
X102142857Y-88621485D02*
X102761904Y-88621485D01*
X103333333Y-87954819D02*
X103428571Y-87954819D01*
X103428571Y-87954819D02*
X103523809Y-88002438D01*
X103523809Y-88002438D02*
X103571428Y-88050057D01*
X103571428Y-88050057D02*
X103619047Y-88145295D01*
X103619047Y-88145295D02*
X103666666Y-88335771D01*
X103666666Y-88335771D02*
X103666666Y-88573866D01*
X103666666Y-88573866D02*
X103619047Y-88764342D01*
X103619047Y-88764342D02*
X103571428Y-88859580D01*
X103571428Y-88859580D02*
X103523809Y-88907200D01*
X103523809Y-88907200D02*
X103428571Y-88954819D01*
X103428571Y-88954819D02*
X103333333Y-88954819D01*
X103333333Y-88954819D02*
X103238095Y-88907200D01*
X103238095Y-88907200D02*
X103190476Y-88859580D01*
X103190476Y-88859580D02*
X103142857Y-88764342D01*
X103142857Y-88764342D02*
X103095238Y-88573866D01*
X103095238Y-88573866D02*
X103095238Y-88335771D01*
X103095238Y-88335771D02*
X103142857Y-88145295D01*
X103142857Y-88145295D02*
X103190476Y-88050057D01*
X103190476Y-88050057D02*
X103238095Y-88002438D01*
X103238095Y-88002438D02*
X103333333Y-87954819D01*
X104047619Y-88050057D02*
X104095238Y-88002438D01*
X104095238Y-88002438D02*
X104190476Y-87954819D01*
X104190476Y-87954819D02*
X104428571Y-87954819D01*
X104428571Y-87954819D02*
X104523809Y-88002438D01*
X104523809Y-88002438D02*
X104571428Y-88050057D01*
X104571428Y-88050057D02*
X104619047Y-88145295D01*
X104619047Y-88145295D02*
X104619047Y-88240533D01*
X104619047Y-88240533D02*
X104571428Y-88383390D01*
X104571428Y-88383390D02*
X104000000Y-88954819D01*
X104000000Y-88954819D02*
X104619047Y-88954819D01*
X65954819Y-72619047D02*
X65478628Y-72952380D01*
X65954819Y-73190475D02*
X64954819Y-73190475D01*
X64954819Y-73190475D02*
X64954819Y-72809523D01*
X64954819Y-72809523D02*
X65002438Y-72714285D01*
X65002438Y-72714285D02*
X65050057Y-72666666D01*
X65050057Y-72666666D02*
X65145295Y-72619047D01*
X65145295Y-72619047D02*
X65288152Y-72619047D01*
X65288152Y-72619047D02*
X65383390Y-72666666D01*
X65383390Y-72666666D02*
X65431009Y-72714285D01*
X65431009Y-72714285D02*
X65478628Y-72809523D01*
X65478628Y-72809523D02*
X65478628Y-73190475D01*
X64954819Y-72285713D02*
X64954819Y-71666666D01*
X64954819Y-71666666D02*
X65335771Y-71999999D01*
X65335771Y-71999999D02*
X65335771Y-71857142D01*
X65335771Y-71857142D02*
X65383390Y-71761904D01*
X65383390Y-71761904D02*
X65431009Y-71714285D01*
X65431009Y-71714285D02*
X65526247Y-71666666D01*
X65526247Y-71666666D02*
X65764342Y-71666666D01*
X65764342Y-71666666D02*
X65859580Y-71714285D01*
X65859580Y-71714285D02*
X65907200Y-71761904D01*
X65907200Y-71761904D02*
X65954819Y-71857142D01*
X65954819Y-71857142D02*
X65954819Y-72142856D01*
X65954819Y-72142856D02*
X65907200Y-72238094D01*
X65907200Y-72238094D02*
X65859580Y-72285713D01*
X64954819Y-71047618D02*
X64954819Y-70952380D01*
X64954819Y-70952380D02*
X65002438Y-70857142D01*
X65002438Y-70857142D02*
X65050057Y-70809523D01*
X65050057Y-70809523D02*
X65145295Y-70761904D01*
X65145295Y-70761904D02*
X65335771Y-70714285D01*
X65335771Y-70714285D02*
X65573866Y-70714285D01*
X65573866Y-70714285D02*
X65764342Y-70761904D01*
X65764342Y-70761904D02*
X65859580Y-70809523D01*
X65859580Y-70809523D02*
X65907200Y-70857142D01*
X65907200Y-70857142D02*
X65954819Y-70952380D01*
X65954819Y-70952380D02*
X65954819Y-71047618D01*
X65954819Y-71047618D02*
X65907200Y-71142856D01*
X65907200Y-71142856D02*
X65859580Y-71190475D01*
X65859580Y-71190475D02*
X65764342Y-71238094D01*
X65764342Y-71238094D02*
X65573866Y-71285713D01*
X65573866Y-71285713D02*
X65335771Y-71285713D01*
X65335771Y-71285713D02*
X65145295Y-71238094D01*
X65145295Y-71238094D02*
X65050057Y-71190475D01*
X65050057Y-71190475D02*
X65002438Y-71142856D01*
X65002438Y-71142856D02*
X64954819Y-71047618D01*
X65954819Y-69761904D02*
X65954819Y-70333332D01*
X65954819Y-70047618D02*
X64954819Y-70047618D01*
X64954819Y-70047618D02*
X65097676Y-70142856D01*
X65097676Y-70142856D02*
X65192914Y-70238094D01*
X65192914Y-70238094D02*
X65240533Y-70333332D01*
X104104819Y-63619047D02*
X103628628Y-63952380D01*
X104104819Y-64190475D02*
X103104819Y-64190475D01*
X103104819Y-64190475D02*
X103104819Y-63809523D01*
X103104819Y-63809523D02*
X103152438Y-63714285D01*
X103152438Y-63714285D02*
X103200057Y-63666666D01*
X103200057Y-63666666D02*
X103295295Y-63619047D01*
X103295295Y-63619047D02*
X103438152Y-63619047D01*
X103438152Y-63619047D02*
X103533390Y-63666666D01*
X103533390Y-63666666D02*
X103581009Y-63714285D01*
X103581009Y-63714285D02*
X103628628Y-63809523D01*
X103628628Y-63809523D02*
X103628628Y-64190475D01*
X103200057Y-63238094D02*
X103152438Y-63190475D01*
X103152438Y-63190475D02*
X103104819Y-63095237D01*
X103104819Y-63095237D02*
X103104819Y-62857142D01*
X103104819Y-62857142D02*
X103152438Y-62761904D01*
X103152438Y-62761904D02*
X103200057Y-62714285D01*
X103200057Y-62714285D02*
X103295295Y-62666666D01*
X103295295Y-62666666D02*
X103390533Y-62666666D01*
X103390533Y-62666666D02*
X103533390Y-62714285D01*
X103533390Y-62714285D02*
X104104819Y-63285713D01*
X104104819Y-63285713D02*
X104104819Y-62666666D01*
X103104819Y-62047618D02*
X103104819Y-61952380D01*
X103104819Y-61952380D02*
X103152438Y-61857142D01*
X103152438Y-61857142D02*
X103200057Y-61809523D01*
X103200057Y-61809523D02*
X103295295Y-61761904D01*
X103295295Y-61761904D02*
X103485771Y-61714285D01*
X103485771Y-61714285D02*
X103723866Y-61714285D01*
X103723866Y-61714285D02*
X103914342Y-61761904D01*
X103914342Y-61761904D02*
X104009580Y-61809523D01*
X104009580Y-61809523D02*
X104057200Y-61857142D01*
X104057200Y-61857142D02*
X104104819Y-61952380D01*
X104104819Y-61952380D02*
X104104819Y-62047618D01*
X104104819Y-62047618D02*
X104057200Y-62142856D01*
X104057200Y-62142856D02*
X104009580Y-62190475D01*
X104009580Y-62190475D02*
X103914342Y-62238094D01*
X103914342Y-62238094D02*
X103723866Y-62285713D01*
X103723866Y-62285713D02*
X103485771Y-62285713D01*
X103485771Y-62285713D02*
X103295295Y-62238094D01*
X103295295Y-62238094D02*
X103200057Y-62190475D01*
X103200057Y-62190475D02*
X103152438Y-62142856D01*
X103152438Y-62142856D02*
X103104819Y-62047618D01*
X103104819Y-60809523D02*
X103104819Y-61285713D01*
X103104819Y-61285713D02*
X103581009Y-61333332D01*
X103581009Y-61333332D02*
X103533390Y-61285713D01*
X103533390Y-61285713D02*
X103485771Y-61190475D01*
X103485771Y-61190475D02*
X103485771Y-60952380D01*
X103485771Y-60952380D02*
X103533390Y-60857142D01*
X103533390Y-60857142D02*
X103581009Y-60809523D01*
X103581009Y-60809523D02*
X103676247Y-60761904D01*
X103676247Y-60761904D02*
X103914342Y-60761904D01*
X103914342Y-60761904D02*
X104009580Y-60809523D01*
X104009580Y-60809523D02*
X104057200Y-60857142D01*
X104057200Y-60857142D02*
X104104819Y-60952380D01*
X104104819Y-60952380D02*
X104104819Y-61190475D01*
X104104819Y-61190475D02*
X104057200Y-61285713D01*
X104057200Y-61285713D02*
X104009580Y-61333332D01*
X72804819Y-76119047D02*
X72328628Y-76452380D01*
X72804819Y-76690475D02*
X71804819Y-76690475D01*
X71804819Y-76690475D02*
X71804819Y-76309523D01*
X71804819Y-76309523D02*
X71852438Y-76214285D01*
X71852438Y-76214285D02*
X71900057Y-76166666D01*
X71900057Y-76166666D02*
X71995295Y-76119047D01*
X71995295Y-76119047D02*
X72138152Y-76119047D01*
X72138152Y-76119047D02*
X72233390Y-76166666D01*
X72233390Y-76166666D02*
X72281009Y-76214285D01*
X72281009Y-76214285D02*
X72328628Y-76309523D01*
X72328628Y-76309523D02*
X72328628Y-76690475D01*
X71804819Y-75785713D02*
X71804819Y-75166666D01*
X71804819Y-75166666D02*
X72185771Y-75499999D01*
X72185771Y-75499999D02*
X72185771Y-75357142D01*
X72185771Y-75357142D02*
X72233390Y-75261904D01*
X72233390Y-75261904D02*
X72281009Y-75214285D01*
X72281009Y-75214285D02*
X72376247Y-75166666D01*
X72376247Y-75166666D02*
X72614342Y-75166666D01*
X72614342Y-75166666D02*
X72709580Y-75214285D01*
X72709580Y-75214285D02*
X72757200Y-75261904D01*
X72757200Y-75261904D02*
X72804819Y-75357142D01*
X72804819Y-75357142D02*
X72804819Y-75642856D01*
X72804819Y-75642856D02*
X72757200Y-75738094D01*
X72757200Y-75738094D02*
X72709580Y-75785713D01*
X71804819Y-74547618D02*
X71804819Y-74452380D01*
X71804819Y-74452380D02*
X71852438Y-74357142D01*
X71852438Y-74357142D02*
X71900057Y-74309523D01*
X71900057Y-74309523D02*
X71995295Y-74261904D01*
X71995295Y-74261904D02*
X72185771Y-74214285D01*
X72185771Y-74214285D02*
X72423866Y-74214285D01*
X72423866Y-74214285D02*
X72614342Y-74261904D01*
X72614342Y-74261904D02*
X72709580Y-74309523D01*
X72709580Y-74309523D02*
X72757200Y-74357142D01*
X72757200Y-74357142D02*
X72804819Y-74452380D01*
X72804819Y-74452380D02*
X72804819Y-74547618D01*
X72804819Y-74547618D02*
X72757200Y-74642856D01*
X72757200Y-74642856D02*
X72709580Y-74690475D01*
X72709580Y-74690475D02*
X72614342Y-74738094D01*
X72614342Y-74738094D02*
X72423866Y-74785713D01*
X72423866Y-74785713D02*
X72185771Y-74785713D01*
X72185771Y-74785713D02*
X71995295Y-74738094D01*
X71995295Y-74738094D02*
X71900057Y-74690475D01*
X71900057Y-74690475D02*
X71852438Y-74642856D01*
X71852438Y-74642856D02*
X71804819Y-74547618D01*
X71804819Y-73880951D02*
X71804819Y-73261904D01*
X71804819Y-73261904D02*
X72185771Y-73595237D01*
X72185771Y-73595237D02*
X72185771Y-73452380D01*
X72185771Y-73452380D02*
X72233390Y-73357142D01*
X72233390Y-73357142D02*
X72281009Y-73309523D01*
X72281009Y-73309523D02*
X72376247Y-73261904D01*
X72376247Y-73261904D02*
X72614342Y-73261904D01*
X72614342Y-73261904D02*
X72709580Y-73309523D01*
X72709580Y-73309523D02*
X72757200Y-73357142D01*
X72757200Y-73357142D02*
X72804819Y-73452380D01*
X72804819Y-73452380D02*
X72804819Y-73738094D01*
X72804819Y-73738094D02*
X72757200Y-73833332D01*
X72757200Y-73833332D02*
X72709580Y-73880951D01*
X98285714Y-105304819D02*
X98285714Y-106114342D01*
X98285714Y-106114342D02*
X98333333Y-106209580D01*
X98333333Y-106209580D02*
X98380952Y-106257200D01*
X98380952Y-106257200D02*
X98476190Y-106304819D01*
X98476190Y-106304819D02*
X98666666Y-106304819D01*
X98666666Y-106304819D02*
X98761904Y-106257200D01*
X98761904Y-106257200D02*
X98809523Y-106209580D01*
X98809523Y-106209580D02*
X98857142Y-106114342D01*
X98857142Y-106114342D02*
X98857142Y-105304819D01*
X99761904Y-105638152D02*
X99761904Y-106304819D01*
X99523809Y-105257200D02*
X99285714Y-105971485D01*
X99285714Y-105971485D02*
X99904761Y-105971485D01*
X100476190Y-105304819D02*
X100571428Y-105304819D01*
X100571428Y-105304819D02*
X100666666Y-105352438D01*
X100666666Y-105352438D02*
X100714285Y-105400057D01*
X100714285Y-105400057D02*
X100761904Y-105495295D01*
X100761904Y-105495295D02*
X100809523Y-105685771D01*
X100809523Y-105685771D02*
X100809523Y-105923866D01*
X100809523Y-105923866D02*
X100761904Y-106114342D01*
X100761904Y-106114342D02*
X100714285Y-106209580D01*
X100714285Y-106209580D02*
X100666666Y-106257200D01*
X100666666Y-106257200D02*
X100571428Y-106304819D01*
X100571428Y-106304819D02*
X100476190Y-106304819D01*
X100476190Y-106304819D02*
X100380952Y-106257200D01*
X100380952Y-106257200D02*
X100333333Y-106209580D01*
X100333333Y-106209580D02*
X100285714Y-106114342D01*
X100285714Y-106114342D02*
X100238095Y-105923866D01*
X100238095Y-105923866D02*
X100238095Y-105685771D01*
X100238095Y-105685771D02*
X100285714Y-105495295D01*
X100285714Y-105495295D02*
X100333333Y-105400057D01*
X100333333Y-105400057D02*
X100380952Y-105352438D01*
X100380952Y-105352438D02*
X100476190Y-105304819D01*
X101761904Y-106304819D02*
X101190476Y-106304819D01*
X101476190Y-106304819D02*
X101476190Y-105304819D01*
X101476190Y-105304819D02*
X101380952Y-105447676D01*
X101380952Y-105447676D02*
X101285714Y-105542914D01*
X101285714Y-105542914D02*
X101190476Y-105590533D01*
X122880952Y-104859580D02*
X122833333Y-104907200D01*
X122833333Y-104907200D02*
X122690476Y-104954819D01*
X122690476Y-104954819D02*
X122595238Y-104954819D01*
X122595238Y-104954819D02*
X122452381Y-104907200D01*
X122452381Y-104907200D02*
X122357143Y-104811961D01*
X122357143Y-104811961D02*
X122309524Y-104716723D01*
X122309524Y-104716723D02*
X122261905Y-104526247D01*
X122261905Y-104526247D02*
X122261905Y-104383390D01*
X122261905Y-104383390D02*
X122309524Y-104192914D01*
X122309524Y-104192914D02*
X122357143Y-104097676D01*
X122357143Y-104097676D02*
X122452381Y-104002438D01*
X122452381Y-104002438D02*
X122595238Y-103954819D01*
X122595238Y-103954819D02*
X122690476Y-103954819D01*
X122690476Y-103954819D02*
X122833333Y-104002438D01*
X122833333Y-104002438D02*
X122880952Y-104050057D01*
X123738095Y-104288152D02*
X123738095Y-104954819D01*
X123500000Y-103907200D02*
X123261905Y-104621485D01*
X123261905Y-104621485D02*
X123880952Y-104621485D01*
X124785714Y-104954819D02*
X124214286Y-104954819D01*
X124500000Y-104954819D02*
X124500000Y-103954819D01*
X124500000Y-103954819D02*
X124404762Y-104097676D01*
X124404762Y-104097676D02*
X124309524Y-104192914D01*
X124309524Y-104192914D02*
X124214286Y-104240533D01*
X125404762Y-103954819D02*
X125500000Y-103954819D01*
X125500000Y-103954819D02*
X125595238Y-104002438D01*
X125595238Y-104002438D02*
X125642857Y-104050057D01*
X125642857Y-104050057D02*
X125690476Y-104145295D01*
X125690476Y-104145295D02*
X125738095Y-104335771D01*
X125738095Y-104335771D02*
X125738095Y-104573866D01*
X125738095Y-104573866D02*
X125690476Y-104764342D01*
X125690476Y-104764342D02*
X125642857Y-104859580D01*
X125642857Y-104859580D02*
X125595238Y-104907200D01*
X125595238Y-104907200D02*
X125500000Y-104954819D01*
X125500000Y-104954819D02*
X125404762Y-104954819D01*
X125404762Y-104954819D02*
X125309524Y-104907200D01*
X125309524Y-104907200D02*
X125261905Y-104859580D01*
X125261905Y-104859580D02*
X125214286Y-104764342D01*
X125214286Y-104764342D02*
X125166667Y-104573866D01*
X125166667Y-104573866D02*
X125166667Y-104335771D01*
X125166667Y-104335771D02*
X125214286Y-104145295D01*
X125214286Y-104145295D02*
X125261905Y-104050057D01*
X125261905Y-104050057D02*
X125309524Y-104002438D01*
X125309524Y-104002438D02*
X125404762Y-103954819D01*
X125954819Y-122119047D02*
X125478628Y-122452380D01*
X125954819Y-122690475D02*
X124954819Y-122690475D01*
X124954819Y-122690475D02*
X124954819Y-122309523D01*
X124954819Y-122309523D02*
X125002438Y-122214285D01*
X125002438Y-122214285D02*
X125050057Y-122166666D01*
X125050057Y-122166666D02*
X125145295Y-122119047D01*
X125145295Y-122119047D02*
X125288152Y-122119047D01*
X125288152Y-122119047D02*
X125383390Y-122166666D01*
X125383390Y-122166666D02*
X125431009Y-122214285D01*
X125431009Y-122214285D02*
X125478628Y-122309523D01*
X125478628Y-122309523D02*
X125478628Y-122690475D01*
X125954819Y-121166666D02*
X125954819Y-121738094D01*
X125954819Y-121452380D02*
X124954819Y-121452380D01*
X124954819Y-121452380D02*
X125097676Y-121547618D01*
X125097676Y-121547618D02*
X125192914Y-121642856D01*
X125192914Y-121642856D02*
X125240533Y-121738094D01*
X124954819Y-120547618D02*
X124954819Y-120452380D01*
X124954819Y-120452380D02*
X125002438Y-120357142D01*
X125002438Y-120357142D02*
X125050057Y-120309523D01*
X125050057Y-120309523D02*
X125145295Y-120261904D01*
X125145295Y-120261904D02*
X125335771Y-120214285D01*
X125335771Y-120214285D02*
X125573866Y-120214285D01*
X125573866Y-120214285D02*
X125764342Y-120261904D01*
X125764342Y-120261904D02*
X125859580Y-120309523D01*
X125859580Y-120309523D02*
X125907200Y-120357142D01*
X125907200Y-120357142D02*
X125954819Y-120452380D01*
X125954819Y-120452380D02*
X125954819Y-120547618D01*
X125954819Y-120547618D02*
X125907200Y-120642856D01*
X125907200Y-120642856D02*
X125859580Y-120690475D01*
X125859580Y-120690475D02*
X125764342Y-120738094D01*
X125764342Y-120738094D02*
X125573866Y-120785713D01*
X125573866Y-120785713D02*
X125335771Y-120785713D01*
X125335771Y-120785713D02*
X125145295Y-120738094D01*
X125145295Y-120738094D02*
X125050057Y-120690475D01*
X125050057Y-120690475D02*
X125002438Y-120642856D01*
X125002438Y-120642856D02*
X124954819Y-120547618D01*
X124954819Y-119880951D02*
X124954819Y-119261904D01*
X124954819Y-119261904D02*
X125335771Y-119595237D01*
X125335771Y-119595237D02*
X125335771Y-119452380D01*
X125335771Y-119452380D02*
X125383390Y-119357142D01*
X125383390Y-119357142D02*
X125431009Y-119309523D01*
X125431009Y-119309523D02*
X125526247Y-119261904D01*
X125526247Y-119261904D02*
X125764342Y-119261904D01*
X125764342Y-119261904D02*
X125859580Y-119309523D01*
X125859580Y-119309523D02*
X125907200Y-119357142D01*
X125907200Y-119357142D02*
X125954819Y-119452380D01*
X125954819Y-119452380D02*
X125954819Y-119738094D01*
X125954819Y-119738094D02*
X125907200Y-119833332D01*
X125907200Y-119833332D02*
X125859580Y-119880951D01*
X71104819Y-72619047D02*
X70628628Y-72952380D01*
X71104819Y-73190475D02*
X70104819Y-73190475D01*
X70104819Y-73190475D02*
X70104819Y-72809523D01*
X70104819Y-72809523D02*
X70152438Y-72714285D01*
X70152438Y-72714285D02*
X70200057Y-72666666D01*
X70200057Y-72666666D02*
X70295295Y-72619047D01*
X70295295Y-72619047D02*
X70438152Y-72619047D01*
X70438152Y-72619047D02*
X70533390Y-72666666D01*
X70533390Y-72666666D02*
X70581009Y-72714285D01*
X70581009Y-72714285D02*
X70628628Y-72809523D01*
X70628628Y-72809523D02*
X70628628Y-73190475D01*
X70104819Y-72285713D02*
X70104819Y-71666666D01*
X70104819Y-71666666D02*
X70485771Y-71999999D01*
X70485771Y-71999999D02*
X70485771Y-71857142D01*
X70485771Y-71857142D02*
X70533390Y-71761904D01*
X70533390Y-71761904D02*
X70581009Y-71714285D01*
X70581009Y-71714285D02*
X70676247Y-71666666D01*
X70676247Y-71666666D02*
X70914342Y-71666666D01*
X70914342Y-71666666D02*
X71009580Y-71714285D01*
X71009580Y-71714285D02*
X71057200Y-71761904D01*
X71057200Y-71761904D02*
X71104819Y-71857142D01*
X71104819Y-71857142D02*
X71104819Y-72142856D01*
X71104819Y-72142856D02*
X71057200Y-72238094D01*
X71057200Y-72238094D02*
X71009580Y-72285713D01*
X70104819Y-71047618D02*
X70104819Y-70952380D01*
X70104819Y-70952380D02*
X70152438Y-70857142D01*
X70152438Y-70857142D02*
X70200057Y-70809523D01*
X70200057Y-70809523D02*
X70295295Y-70761904D01*
X70295295Y-70761904D02*
X70485771Y-70714285D01*
X70485771Y-70714285D02*
X70723866Y-70714285D01*
X70723866Y-70714285D02*
X70914342Y-70761904D01*
X70914342Y-70761904D02*
X71009580Y-70809523D01*
X71009580Y-70809523D02*
X71057200Y-70857142D01*
X71057200Y-70857142D02*
X71104819Y-70952380D01*
X71104819Y-70952380D02*
X71104819Y-71047618D01*
X71104819Y-71047618D02*
X71057200Y-71142856D01*
X71057200Y-71142856D02*
X71009580Y-71190475D01*
X71009580Y-71190475D02*
X70914342Y-71238094D01*
X70914342Y-71238094D02*
X70723866Y-71285713D01*
X70723866Y-71285713D02*
X70485771Y-71285713D01*
X70485771Y-71285713D02*
X70295295Y-71238094D01*
X70295295Y-71238094D02*
X70200057Y-71190475D01*
X70200057Y-71190475D02*
X70152438Y-71142856D01*
X70152438Y-71142856D02*
X70104819Y-71047618D01*
X70200057Y-70333332D02*
X70152438Y-70285713D01*
X70152438Y-70285713D02*
X70104819Y-70190475D01*
X70104819Y-70190475D02*
X70104819Y-69952380D01*
X70104819Y-69952380D02*
X70152438Y-69857142D01*
X70152438Y-69857142D02*
X70200057Y-69809523D01*
X70200057Y-69809523D02*
X70295295Y-69761904D01*
X70295295Y-69761904D02*
X70390533Y-69761904D01*
X70390533Y-69761904D02*
X70533390Y-69809523D01*
X70533390Y-69809523D02*
X71104819Y-70380951D01*
X71104819Y-70380951D02*
X71104819Y-69761904D01*
X108179580Y-98531547D02*
X108227200Y-98579166D01*
X108227200Y-98579166D02*
X108274819Y-98722023D01*
X108274819Y-98722023D02*
X108274819Y-98817261D01*
X108274819Y-98817261D02*
X108227200Y-98960118D01*
X108227200Y-98960118D02*
X108131961Y-99055356D01*
X108131961Y-99055356D02*
X108036723Y-99102975D01*
X108036723Y-99102975D02*
X107846247Y-99150594D01*
X107846247Y-99150594D02*
X107703390Y-99150594D01*
X107703390Y-99150594D02*
X107512914Y-99102975D01*
X107512914Y-99102975D02*
X107417676Y-99055356D01*
X107417676Y-99055356D02*
X107322438Y-98960118D01*
X107322438Y-98960118D02*
X107274819Y-98817261D01*
X107274819Y-98817261D02*
X107274819Y-98722023D01*
X107274819Y-98722023D02*
X107322438Y-98579166D01*
X107322438Y-98579166D02*
X107370057Y-98531547D01*
X107608152Y-97674404D02*
X108274819Y-97674404D01*
X107227200Y-97912499D02*
X107941485Y-98150594D01*
X107941485Y-98150594D02*
X107941485Y-97531547D01*
X107274819Y-96960118D02*
X107274819Y-96864880D01*
X107274819Y-96864880D02*
X107322438Y-96769642D01*
X107322438Y-96769642D02*
X107370057Y-96722023D01*
X107370057Y-96722023D02*
X107465295Y-96674404D01*
X107465295Y-96674404D02*
X107655771Y-96626785D01*
X107655771Y-96626785D02*
X107893866Y-96626785D01*
X107893866Y-96626785D02*
X108084342Y-96674404D01*
X108084342Y-96674404D02*
X108179580Y-96722023D01*
X108179580Y-96722023D02*
X108227200Y-96769642D01*
X108227200Y-96769642D02*
X108274819Y-96864880D01*
X108274819Y-96864880D02*
X108274819Y-96960118D01*
X108274819Y-96960118D02*
X108227200Y-97055356D01*
X108227200Y-97055356D02*
X108179580Y-97102975D01*
X108179580Y-97102975D02*
X108084342Y-97150594D01*
X108084342Y-97150594D02*
X107893866Y-97198213D01*
X107893866Y-97198213D02*
X107655771Y-97198213D01*
X107655771Y-97198213D02*
X107465295Y-97150594D01*
X107465295Y-97150594D02*
X107370057Y-97102975D01*
X107370057Y-97102975D02*
X107322438Y-97055356D01*
X107322438Y-97055356D02*
X107274819Y-96960118D01*
X107274819Y-95722023D02*
X107274819Y-96198213D01*
X107274819Y-96198213D02*
X107751009Y-96245832D01*
X107751009Y-96245832D02*
X107703390Y-96198213D01*
X107703390Y-96198213D02*
X107655771Y-96102975D01*
X107655771Y-96102975D02*
X107655771Y-95864880D01*
X107655771Y-95864880D02*
X107703390Y-95769642D01*
X107703390Y-95769642D02*
X107751009Y-95722023D01*
X107751009Y-95722023D02*
X107846247Y-95674404D01*
X107846247Y-95674404D02*
X108084342Y-95674404D01*
X108084342Y-95674404D02*
X108179580Y-95722023D01*
X108179580Y-95722023D02*
X108227200Y-95769642D01*
X108227200Y-95769642D02*
X108274819Y-95864880D01*
X108274819Y-95864880D02*
X108274819Y-96102975D01*
X108274819Y-96102975D02*
X108227200Y-96198213D01*
X108227200Y-96198213D02*
X108179580Y-96245832D01*
X122880952Y-102359580D02*
X122833333Y-102407200D01*
X122833333Y-102407200D02*
X122690476Y-102454819D01*
X122690476Y-102454819D02*
X122595238Y-102454819D01*
X122595238Y-102454819D02*
X122452381Y-102407200D01*
X122452381Y-102407200D02*
X122357143Y-102311961D01*
X122357143Y-102311961D02*
X122309524Y-102216723D01*
X122309524Y-102216723D02*
X122261905Y-102026247D01*
X122261905Y-102026247D02*
X122261905Y-101883390D01*
X122261905Y-101883390D02*
X122309524Y-101692914D01*
X122309524Y-101692914D02*
X122357143Y-101597676D01*
X122357143Y-101597676D02*
X122452381Y-101502438D01*
X122452381Y-101502438D02*
X122595238Y-101454819D01*
X122595238Y-101454819D02*
X122690476Y-101454819D01*
X122690476Y-101454819D02*
X122833333Y-101502438D01*
X122833333Y-101502438D02*
X122880952Y-101550057D01*
X123738095Y-101788152D02*
X123738095Y-102454819D01*
X123500000Y-101407200D02*
X123261905Y-102121485D01*
X123261905Y-102121485D02*
X123880952Y-102121485D01*
X124452381Y-101454819D02*
X124547619Y-101454819D01*
X124547619Y-101454819D02*
X124642857Y-101502438D01*
X124642857Y-101502438D02*
X124690476Y-101550057D01*
X124690476Y-101550057D02*
X124738095Y-101645295D01*
X124738095Y-101645295D02*
X124785714Y-101835771D01*
X124785714Y-101835771D02*
X124785714Y-102073866D01*
X124785714Y-102073866D02*
X124738095Y-102264342D01*
X124738095Y-102264342D02*
X124690476Y-102359580D01*
X124690476Y-102359580D02*
X124642857Y-102407200D01*
X124642857Y-102407200D02*
X124547619Y-102454819D01*
X124547619Y-102454819D02*
X124452381Y-102454819D01*
X124452381Y-102454819D02*
X124357143Y-102407200D01*
X124357143Y-102407200D02*
X124309524Y-102359580D01*
X124309524Y-102359580D02*
X124261905Y-102264342D01*
X124261905Y-102264342D02*
X124214286Y-102073866D01*
X124214286Y-102073866D02*
X124214286Y-101835771D01*
X124214286Y-101835771D02*
X124261905Y-101645295D01*
X124261905Y-101645295D02*
X124309524Y-101550057D01*
X124309524Y-101550057D02*
X124357143Y-101502438D01*
X124357143Y-101502438D02*
X124452381Y-101454819D01*
X125261905Y-102454819D02*
X125452381Y-102454819D01*
X125452381Y-102454819D02*
X125547619Y-102407200D01*
X125547619Y-102407200D02*
X125595238Y-102359580D01*
X125595238Y-102359580D02*
X125690476Y-102216723D01*
X125690476Y-102216723D02*
X125738095Y-102026247D01*
X125738095Y-102026247D02*
X125738095Y-101645295D01*
X125738095Y-101645295D02*
X125690476Y-101550057D01*
X125690476Y-101550057D02*
X125642857Y-101502438D01*
X125642857Y-101502438D02*
X125547619Y-101454819D01*
X125547619Y-101454819D02*
X125357143Y-101454819D01*
X125357143Y-101454819D02*
X125261905Y-101502438D01*
X125261905Y-101502438D02*
X125214286Y-101550057D01*
X125214286Y-101550057D02*
X125166667Y-101645295D01*
X125166667Y-101645295D02*
X125166667Y-101883390D01*
X125166667Y-101883390D02*
X125214286Y-101978628D01*
X125214286Y-101978628D02*
X125261905Y-102026247D01*
X125261905Y-102026247D02*
X125357143Y-102073866D01*
X125357143Y-102073866D02*
X125547619Y-102073866D01*
X125547619Y-102073866D02*
X125642857Y-102026247D01*
X125642857Y-102026247D02*
X125690476Y-101978628D01*
X125690476Y-101978628D02*
X125738095Y-101883390D01*
X119714285Y-130954819D02*
X119714285Y-131669104D01*
X119714285Y-131669104D02*
X119666666Y-131811961D01*
X119666666Y-131811961D02*
X119571428Y-131907200D01*
X119571428Y-131907200D02*
X119428571Y-131954819D01*
X119428571Y-131954819D02*
X119333333Y-131954819D01*
X120190476Y-131954819D02*
X120190476Y-130954819D01*
X120190476Y-130954819D02*
X120571428Y-130954819D01*
X120571428Y-130954819D02*
X120666666Y-131002438D01*
X120666666Y-131002438D02*
X120714285Y-131050057D01*
X120714285Y-131050057D02*
X120761904Y-131145295D01*
X120761904Y-131145295D02*
X120761904Y-131288152D01*
X120761904Y-131288152D02*
X120714285Y-131383390D01*
X120714285Y-131383390D02*
X120666666Y-131431009D01*
X120666666Y-131431009D02*
X120571428Y-131478628D01*
X120571428Y-131478628D02*
X120190476Y-131478628D01*
X121714285Y-131954819D02*
X121142857Y-131954819D01*
X121428571Y-131954819D02*
X121428571Y-130954819D01*
X121428571Y-130954819D02*
X121333333Y-131097676D01*
X121333333Y-131097676D02*
X121238095Y-131192914D01*
X121238095Y-131192914D02*
X121142857Y-131240533D01*
X122333333Y-130954819D02*
X122428571Y-130954819D01*
X122428571Y-130954819D02*
X122523809Y-131002438D01*
X122523809Y-131002438D02*
X122571428Y-131050057D01*
X122571428Y-131050057D02*
X122619047Y-131145295D01*
X122619047Y-131145295D02*
X122666666Y-131335771D01*
X122666666Y-131335771D02*
X122666666Y-131573866D01*
X122666666Y-131573866D02*
X122619047Y-131764342D01*
X122619047Y-131764342D02*
X122571428Y-131859580D01*
X122571428Y-131859580D02*
X122523809Y-131907200D01*
X122523809Y-131907200D02*
X122428571Y-131954819D01*
X122428571Y-131954819D02*
X122333333Y-131954819D01*
X122333333Y-131954819D02*
X122238095Y-131907200D01*
X122238095Y-131907200D02*
X122190476Y-131859580D01*
X122190476Y-131859580D02*
X122142857Y-131764342D01*
X122142857Y-131764342D02*
X122095238Y-131573866D01*
X122095238Y-131573866D02*
X122095238Y-131335771D01*
X122095238Y-131335771D02*
X122142857Y-131145295D01*
X122142857Y-131145295D02*
X122190476Y-131050057D01*
X122190476Y-131050057D02*
X122238095Y-131002438D01*
X122238095Y-131002438D02*
X122333333Y-130954819D01*
X123047619Y-131050057D02*
X123095238Y-131002438D01*
X123095238Y-131002438D02*
X123190476Y-130954819D01*
X123190476Y-130954819D02*
X123428571Y-130954819D01*
X123428571Y-130954819D02*
X123523809Y-131002438D01*
X123523809Y-131002438D02*
X123571428Y-131050057D01*
X123571428Y-131050057D02*
X123619047Y-131145295D01*
X123619047Y-131145295D02*
X123619047Y-131240533D01*
X123619047Y-131240533D02*
X123571428Y-131383390D01*
X123571428Y-131383390D02*
X123000000Y-131954819D01*
X123000000Y-131954819D02*
X123619047Y-131954819D01*
X123954819Y-122119047D02*
X123478628Y-122452380D01*
X123954819Y-122690475D02*
X122954819Y-122690475D01*
X122954819Y-122690475D02*
X122954819Y-122309523D01*
X122954819Y-122309523D02*
X123002438Y-122214285D01*
X123002438Y-122214285D02*
X123050057Y-122166666D01*
X123050057Y-122166666D02*
X123145295Y-122119047D01*
X123145295Y-122119047D02*
X123288152Y-122119047D01*
X123288152Y-122119047D02*
X123383390Y-122166666D01*
X123383390Y-122166666D02*
X123431009Y-122214285D01*
X123431009Y-122214285D02*
X123478628Y-122309523D01*
X123478628Y-122309523D02*
X123478628Y-122690475D01*
X123954819Y-121166666D02*
X123954819Y-121738094D01*
X123954819Y-121452380D02*
X122954819Y-121452380D01*
X122954819Y-121452380D02*
X123097676Y-121547618D01*
X123097676Y-121547618D02*
X123192914Y-121642856D01*
X123192914Y-121642856D02*
X123240533Y-121738094D01*
X122954819Y-120547618D02*
X122954819Y-120452380D01*
X122954819Y-120452380D02*
X123002438Y-120357142D01*
X123002438Y-120357142D02*
X123050057Y-120309523D01*
X123050057Y-120309523D02*
X123145295Y-120261904D01*
X123145295Y-120261904D02*
X123335771Y-120214285D01*
X123335771Y-120214285D02*
X123573866Y-120214285D01*
X123573866Y-120214285D02*
X123764342Y-120261904D01*
X123764342Y-120261904D02*
X123859580Y-120309523D01*
X123859580Y-120309523D02*
X123907200Y-120357142D01*
X123907200Y-120357142D02*
X123954819Y-120452380D01*
X123954819Y-120452380D02*
X123954819Y-120547618D01*
X123954819Y-120547618D02*
X123907200Y-120642856D01*
X123907200Y-120642856D02*
X123859580Y-120690475D01*
X123859580Y-120690475D02*
X123764342Y-120738094D01*
X123764342Y-120738094D02*
X123573866Y-120785713D01*
X123573866Y-120785713D02*
X123335771Y-120785713D01*
X123335771Y-120785713D02*
X123145295Y-120738094D01*
X123145295Y-120738094D02*
X123050057Y-120690475D01*
X123050057Y-120690475D02*
X123002438Y-120642856D01*
X123002438Y-120642856D02*
X122954819Y-120547618D01*
X123050057Y-119833332D02*
X123002438Y-119785713D01*
X123002438Y-119785713D02*
X122954819Y-119690475D01*
X122954819Y-119690475D02*
X122954819Y-119452380D01*
X122954819Y-119452380D02*
X123002438Y-119357142D01*
X123002438Y-119357142D02*
X123050057Y-119309523D01*
X123050057Y-119309523D02*
X123145295Y-119261904D01*
X123145295Y-119261904D02*
X123240533Y-119261904D01*
X123240533Y-119261904D02*
X123383390Y-119309523D01*
X123383390Y-119309523D02*
X123954819Y-119880951D01*
X123954819Y-119880951D02*
X123954819Y-119261904D01*
X110880952Y-107359580D02*
X110833333Y-107407200D01*
X110833333Y-107407200D02*
X110690476Y-107454819D01*
X110690476Y-107454819D02*
X110595238Y-107454819D01*
X110595238Y-107454819D02*
X110452381Y-107407200D01*
X110452381Y-107407200D02*
X110357143Y-107311961D01*
X110357143Y-107311961D02*
X110309524Y-107216723D01*
X110309524Y-107216723D02*
X110261905Y-107026247D01*
X110261905Y-107026247D02*
X110261905Y-106883390D01*
X110261905Y-106883390D02*
X110309524Y-106692914D01*
X110309524Y-106692914D02*
X110357143Y-106597676D01*
X110357143Y-106597676D02*
X110452381Y-106502438D01*
X110452381Y-106502438D02*
X110595238Y-106454819D01*
X110595238Y-106454819D02*
X110690476Y-106454819D01*
X110690476Y-106454819D02*
X110833333Y-106502438D01*
X110833333Y-106502438D02*
X110880952Y-106550057D01*
X111738095Y-106788152D02*
X111738095Y-107454819D01*
X111500000Y-106407200D02*
X111261905Y-107121485D01*
X111261905Y-107121485D02*
X111880952Y-107121485D01*
X112452381Y-106454819D02*
X112547619Y-106454819D01*
X112547619Y-106454819D02*
X112642857Y-106502438D01*
X112642857Y-106502438D02*
X112690476Y-106550057D01*
X112690476Y-106550057D02*
X112738095Y-106645295D01*
X112738095Y-106645295D02*
X112785714Y-106835771D01*
X112785714Y-106835771D02*
X112785714Y-107073866D01*
X112785714Y-107073866D02*
X112738095Y-107264342D01*
X112738095Y-107264342D02*
X112690476Y-107359580D01*
X112690476Y-107359580D02*
X112642857Y-107407200D01*
X112642857Y-107407200D02*
X112547619Y-107454819D01*
X112547619Y-107454819D02*
X112452381Y-107454819D01*
X112452381Y-107454819D02*
X112357143Y-107407200D01*
X112357143Y-107407200D02*
X112309524Y-107359580D01*
X112309524Y-107359580D02*
X112261905Y-107264342D01*
X112261905Y-107264342D02*
X112214286Y-107073866D01*
X112214286Y-107073866D02*
X112214286Y-106835771D01*
X112214286Y-106835771D02*
X112261905Y-106645295D01*
X112261905Y-106645295D02*
X112309524Y-106550057D01*
X112309524Y-106550057D02*
X112357143Y-106502438D01*
X112357143Y-106502438D02*
X112452381Y-106454819D01*
X113166667Y-106550057D02*
X113214286Y-106502438D01*
X113214286Y-106502438D02*
X113309524Y-106454819D01*
X113309524Y-106454819D02*
X113547619Y-106454819D01*
X113547619Y-106454819D02*
X113642857Y-106502438D01*
X113642857Y-106502438D02*
X113690476Y-106550057D01*
X113690476Y-106550057D02*
X113738095Y-106645295D01*
X113738095Y-106645295D02*
X113738095Y-106740533D01*
X113738095Y-106740533D02*
X113690476Y-106883390D01*
X113690476Y-106883390D02*
X113119048Y-107454819D01*
X113119048Y-107454819D02*
X113738095Y-107454819D01*
X100804819Y-136119047D02*
X100328628Y-136452380D01*
X100804819Y-136690475D02*
X99804819Y-136690475D01*
X99804819Y-136690475D02*
X99804819Y-136309523D01*
X99804819Y-136309523D02*
X99852438Y-136214285D01*
X99852438Y-136214285D02*
X99900057Y-136166666D01*
X99900057Y-136166666D02*
X99995295Y-136119047D01*
X99995295Y-136119047D02*
X100138152Y-136119047D01*
X100138152Y-136119047D02*
X100233390Y-136166666D01*
X100233390Y-136166666D02*
X100281009Y-136214285D01*
X100281009Y-136214285D02*
X100328628Y-136309523D01*
X100328628Y-136309523D02*
X100328628Y-136690475D01*
X99900057Y-135738094D02*
X99852438Y-135690475D01*
X99852438Y-135690475D02*
X99804819Y-135595237D01*
X99804819Y-135595237D02*
X99804819Y-135357142D01*
X99804819Y-135357142D02*
X99852438Y-135261904D01*
X99852438Y-135261904D02*
X99900057Y-135214285D01*
X99900057Y-135214285D02*
X99995295Y-135166666D01*
X99995295Y-135166666D02*
X100090533Y-135166666D01*
X100090533Y-135166666D02*
X100233390Y-135214285D01*
X100233390Y-135214285D02*
X100804819Y-135785713D01*
X100804819Y-135785713D02*
X100804819Y-135166666D01*
X99804819Y-134547618D02*
X99804819Y-134452380D01*
X99804819Y-134452380D02*
X99852438Y-134357142D01*
X99852438Y-134357142D02*
X99900057Y-134309523D01*
X99900057Y-134309523D02*
X99995295Y-134261904D01*
X99995295Y-134261904D02*
X100185771Y-134214285D01*
X100185771Y-134214285D02*
X100423866Y-134214285D01*
X100423866Y-134214285D02*
X100614342Y-134261904D01*
X100614342Y-134261904D02*
X100709580Y-134309523D01*
X100709580Y-134309523D02*
X100757200Y-134357142D01*
X100757200Y-134357142D02*
X100804819Y-134452380D01*
X100804819Y-134452380D02*
X100804819Y-134547618D01*
X100804819Y-134547618D02*
X100757200Y-134642856D01*
X100757200Y-134642856D02*
X100709580Y-134690475D01*
X100709580Y-134690475D02*
X100614342Y-134738094D01*
X100614342Y-134738094D02*
X100423866Y-134785713D01*
X100423866Y-134785713D02*
X100185771Y-134785713D01*
X100185771Y-134785713D02*
X99995295Y-134738094D01*
X99995295Y-134738094D02*
X99900057Y-134690475D01*
X99900057Y-134690475D02*
X99852438Y-134642856D01*
X99852438Y-134642856D02*
X99804819Y-134547618D01*
X100804819Y-133738094D02*
X100804819Y-133547618D01*
X100804819Y-133547618D02*
X100757200Y-133452380D01*
X100757200Y-133452380D02*
X100709580Y-133404761D01*
X100709580Y-133404761D02*
X100566723Y-133309523D01*
X100566723Y-133309523D02*
X100376247Y-133261904D01*
X100376247Y-133261904D02*
X99995295Y-133261904D01*
X99995295Y-133261904D02*
X99900057Y-133309523D01*
X99900057Y-133309523D02*
X99852438Y-133357142D01*
X99852438Y-133357142D02*
X99804819Y-133452380D01*
X99804819Y-133452380D02*
X99804819Y-133642856D01*
X99804819Y-133642856D02*
X99852438Y-133738094D01*
X99852438Y-133738094D02*
X99900057Y-133785713D01*
X99900057Y-133785713D02*
X99995295Y-133833332D01*
X99995295Y-133833332D02*
X100233390Y-133833332D01*
X100233390Y-133833332D02*
X100328628Y-133785713D01*
X100328628Y-133785713D02*
X100376247Y-133738094D01*
X100376247Y-133738094D02*
X100423866Y-133642856D01*
X100423866Y-133642856D02*
X100423866Y-133452380D01*
X100423866Y-133452380D02*
X100376247Y-133357142D01*
X100376247Y-133357142D02*
X100328628Y-133309523D01*
X100328628Y-133309523D02*
X100233390Y-133261904D01*
X69380952Y-89767080D02*
X69333333Y-89814700D01*
X69333333Y-89814700D02*
X69190476Y-89862319D01*
X69190476Y-89862319D02*
X69095238Y-89862319D01*
X69095238Y-89862319D02*
X68952381Y-89814700D01*
X68952381Y-89814700D02*
X68857143Y-89719461D01*
X68857143Y-89719461D02*
X68809524Y-89624223D01*
X68809524Y-89624223D02*
X68761905Y-89433747D01*
X68761905Y-89433747D02*
X68761905Y-89290890D01*
X68761905Y-89290890D02*
X68809524Y-89100414D01*
X68809524Y-89100414D02*
X68857143Y-89005176D01*
X68857143Y-89005176D02*
X68952381Y-88909938D01*
X68952381Y-88909938D02*
X69095238Y-88862319D01*
X69095238Y-88862319D02*
X69190476Y-88862319D01*
X69190476Y-88862319D02*
X69333333Y-88909938D01*
X69333333Y-88909938D02*
X69380952Y-88957557D01*
X70238095Y-89195652D02*
X70238095Y-89862319D01*
X70000000Y-88814700D02*
X69761905Y-89528985D01*
X69761905Y-89528985D02*
X70380952Y-89528985D01*
X70952381Y-88862319D02*
X71047619Y-88862319D01*
X71047619Y-88862319D02*
X71142857Y-88909938D01*
X71142857Y-88909938D02*
X71190476Y-88957557D01*
X71190476Y-88957557D02*
X71238095Y-89052795D01*
X71238095Y-89052795D02*
X71285714Y-89243271D01*
X71285714Y-89243271D02*
X71285714Y-89481366D01*
X71285714Y-89481366D02*
X71238095Y-89671842D01*
X71238095Y-89671842D02*
X71190476Y-89767080D01*
X71190476Y-89767080D02*
X71142857Y-89814700D01*
X71142857Y-89814700D02*
X71047619Y-89862319D01*
X71047619Y-89862319D02*
X70952381Y-89862319D01*
X70952381Y-89862319D02*
X70857143Y-89814700D01*
X70857143Y-89814700D02*
X70809524Y-89767080D01*
X70809524Y-89767080D02*
X70761905Y-89671842D01*
X70761905Y-89671842D02*
X70714286Y-89481366D01*
X70714286Y-89481366D02*
X70714286Y-89243271D01*
X70714286Y-89243271D02*
X70761905Y-89052795D01*
X70761905Y-89052795D02*
X70809524Y-88957557D01*
X70809524Y-88957557D02*
X70857143Y-88909938D01*
X70857143Y-88909938D02*
X70952381Y-88862319D01*
X71619048Y-88862319D02*
X72238095Y-88862319D01*
X72238095Y-88862319D02*
X71904762Y-89243271D01*
X71904762Y-89243271D02*
X72047619Y-89243271D01*
X72047619Y-89243271D02*
X72142857Y-89290890D01*
X72142857Y-89290890D02*
X72190476Y-89338509D01*
X72190476Y-89338509D02*
X72238095Y-89433747D01*
X72238095Y-89433747D02*
X72238095Y-89671842D01*
X72238095Y-89671842D02*
X72190476Y-89767080D01*
X72190476Y-89767080D02*
X72142857Y-89814700D01*
X72142857Y-89814700D02*
X72047619Y-89862319D01*
X72047619Y-89862319D02*
X71761905Y-89862319D01*
X71761905Y-89862319D02*
X71666667Y-89814700D01*
X71666667Y-89814700D02*
X71619048Y-89767080D01*
X66809524Y-57454819D02*
X66809524Y-56454819D01*
X66809524Y-56454819D02*
X67047619Y-56454819D01*
X67047619Y-56454819D02*
X67190476Y-56502438D01*
X67190476Y-56502438D02*
X67285714Y-56597676D01*
X67285714Y-56597676D02*
X67333333Y-56692914D01*
X67333333Y-56692914D02*
X67380952Y-56883390D01*
X67380952Y-56883390D02*
X67380952Y-57026247D01*
X67380952Y-57026247D02*
X67333333Y-57216723D01*
X67333333Y-57216723D02*
X67285714Y-57311961D01*
X67285714Y-57311961D02*
X67190476Y-57407200D01*
X67190476Y-57407200D02*
X67047619Y-57454819D01*
X67047619Y-57454819D02*
X66809524Y-57454819D01*
X67714286Y-56454819D02*
X68333333Y-56454819D01*
X68333333Y-56454819D02*
X68000000Y-56835771D01*
X68000000Y-56835771D02*
X68142857Y-56835771D01*
X68142857Y-56835771D02*
X68238095Y-56883390D01*
X68238095Y-56883390D02*
X68285714Y-56931009D01*
X68285714Y-56931009D02*
X68333333Y-57026247D01*
X68333333Y-57026247D02*
X68333333Y-57264342D01*
X68333333Y-57264342D02*
X68285714Y-57359580D01*
X68285714Y-57359580D02*
X68238095Y-57407200D01*
X68238095Y-57407200D02*
X68142857Y-57454819D01*
X68142857Y-57454819D02*
X67857143Y-57454819D01*
X67857143Y-57454819D02*
X67761905Y-57407200D01*
X67761905Y-57407200D02*
X67714286Y-57359580D01*
X68952381Y-56454819D02*
X69047619Y-56454819D01*
X69047619Y-56454819D02*
X69142857Y-56502438D01*
X69142857Y-56502438D02*
X69190476Y-56550057D01*
X69190476Y-56550057D02*
X69238095Y-56645295D01*
X69238095Y-56645295D02*
X69285714Y-56835771D01*
X69285714Y-56835771D02*
X69285714Y-57073866D01*
X69285714Y-57073866D02*
X69238095Y-57264342D01*
X69238095Y-57264342D02*
X69190476Y-57359580D01*
X69190476Y-57359580D02*
X69142857Y-57407200D01*
X69142857Y-57407200D02*
X69047619Y-57454819D01*
X69047619Y-57454819D02*
X68952381Y-57454819D01*
X68952381Y-57454819D02*
X68857143Y-57407200D01*
X68857143Y-57407200D02*
X68809524Y-57359580D01*
X68809524Y-57359580D02*
X68761905Y-57264342D01*
X68761905Y-57264342D02*
X68714286Y-57073866D01*
X68714286Y-57073866D02*
X68714286Y-56835771D01*
X68714286Y-56835771D02*
X68761905Y-56645295D01*
X68761905Y-56645295D02*
X68809524Y-56550057D01*
X68809524Y-56550057D02*
X68857143Y-56502438D01*
X68857143Y-56502438D02*
X68952381Y-56454819D01*
X70238095Y-57454819D02*
X69666667Y-57454819D01*
X69952381Y-57454819D02*
X69952381Y-56454819D01*
X69952381Y-56454819D02*
X69857143Y-56597676D01*
X69857143Y-56597676D02*
X69761905Y-56692914D01*
X69761905Y-56692914D02*
X69666667Y-56740533D01*
X115571428Y-93478628D02*
X115571428Y-93954819D01*
X115238095Y-92954819D02*
X115571428Y-93478628D01*
X115571428Y-93478628D02*
X115904761Y-92954819D01*
X116666666Y-93288152D02*
X116666666Y-93954819D01*
X116428571Y-92907200D02*
X116190476Y-93621485D01*
X116190476Y-93621485D02*
X116809523Y-93621485D01*
X117380952Y-92954819D02*
X117476190Y-92954819D01*
X117476190Y-92954819D02*
X117571428Y-93002438D01*
X117571428Y-93002438D02*
X117619047Y-93050057D01*
X117619047Y-93050057D02*
X117666666Y-93145295D01*
X117666666Y-93145295D02*
X117714285Y-93335771D01*
X117714285Y-93335771D02*
X117714285Y-93573866D01*
X117714285Y-93573866D02*
X117666666Y-93764342D01*
X117666666Y-93764342D02*
X117619047Y-93859580D01*
X117619047Y-93859580D02*
X117571428Y-93907200D01*
X117571428Y-93907200D02*
X117476190Y-93954819D01*
X117476190Y-93954819D02*
X117380952Y-93954819D01*
X117380952Y-93954819D02*
X117285714Y-93907200D01*
X117285714Y-93907200D02*
X117238095Y-93859580D01*
X117238095Y-93859580D02*
X117190476Y-93764342D01*
X117190476Y-93764342D02*
X117142857Y-93573866D01*
X117142857Y-93573866D02*
X117142857Y-93335771D01*
X117142857Y-93335771D02*
X117190476Y-93145295D01*
X117190476Y-93145295D02*
X117238095Y-93050057D01*
X117238095Y-93050057D02*
X117285714Y-93002438D01*
X117285714Y-93002438D02*
X117380952Y-92954819D01*
X118666666Y-93954819D02*
X118095238Y-93954819D01*
X118380952Y-93954819D02*
X118380952Y-92954819D01*
X118380952Y-92954819D02*
X118285714Y-93097676D01*
X118285714Y-93097676D02*
X118190476Y-93192914D01*
X118190476Y-93192914D02*
X118095238Y-93240533D01*
X123380952Y-99859580D02*
X123333333Y-99907200D01*
X123333333Y-99907200D02*
X123190476Y-99954819D01*
X123190476Y-99954819D02*
X123095238Y-99954819D01*
X123095238Y-99954819D02*
X122952381Y-99907200D01*
X122952381Y-99907200D02*
X122857143Y-99811961D01*
X122857143Y-99811961D02*
X122809524Y-99716723D01*
X122809524Y-99716723D02*
X122761905Y-99526247D01*
X122761905Y-99526247D02*
X122761905Y-99383390D01*
X122761905Y-99383390D02*
X122809524Y-99192914D01*
X122809524Y-99192914D02*
X122857143Y-99097676D01*
X122857143Y-99097676D02*
X122952381Y-99002438D01*
X122952381Y-99002438D02*
X123095238Y-98954819D01*
X123095238Y-98954819D02*
X123190476Y-98954819D01*
X123190476Y-98954819D02*
X123333333Y-99002438D01*
X123333333Y-99002438D02*
X123380952Y-99050057D01*
X124238095Y-99288152D02*
X124238095Y-99954819D01*
X124000000Y-98907200D02*
X123761905Y-99621485D01*
X123761905Y-99621485D02*
X124380952Y-99621485D01*
X124952381Y-98954819D02*
X125047619Y-98954819D01*
X125047619Y-98954819D02*
X125142857Y-99002438D01*
X125142857Y-99002438D02*
X125190476Y-99050057D01*
X125190476Y-99050057D02*
X125238095Y-99145295D01*
X125238095Y-99145295D02*
X125285714Y-99335771D01*
X125285714Y-99335771D02*
X125285714Y-99573866D01*
X125285714Y-99573866D02*
X125238095Y-99764342D01*
X125238095Y-99764342D02*
X125190476Y-99859580D01*
X125190476Y-99859580D02*
X125142857Y-99907200D01*
X125142857Y-99907200D02*
X125047619Y-99954819D01*
X125047619Y-99954819D02*
X124952381Y-99954819D01*
X124952381Y-99954819D02*
X124857143Y-99907200D01*
X124857143Y-99907200D02*
X124809524Y-99859580D01*
X124809524Y-99859580D02*
X124761905Y-99764342D01*
X124761905Y-99764342D02*
X124714286Y-99573866D01*
X124714286Y-99573866D02*
X124714286Y-99335771D01*
X124714286Y-99335771D02*
X124761905Y-99145295D01*
X124761905Y-99145295D02*
X124809524Y-99050057D01*
X124809524Y-99050057D02*
X124857143Y-99002438D01*
X124857143Y-99002438D02*
X124952381Y-98954819D01*
X125619048Y-98954819D02*
X126285714Y-98954819D01*
X126285714Y-98954819D02*
X125857143Y-99954819D01*
X84204819Y-62114285D02*
X85014342Y-62114285D01*
X85014342Y-62114285D02*
X85109580Y-62066666D01*
X85109580Y-62066666D02*
X85157200Y-62019047D01*
X85157200Y-62019047D02*
X85204819Y-61923809D01*
X85204819Y-61923809D02*
X85204819Y-61733333D01*
X85204819Y-61733333D02*
X85157200Y-61638095D01*
X85157200Y-61638095D02*
X85109580Y-61590476D01*
X85109580Y-61590476D02*
X85014342Y-61542857D01*
X85014342Y-61542857D02*
X84204819Y-61542857D01*
X84204819Y-61161904D02*
X84204819Y-60542857D01*
X84204819Y-60542857D02*
X84585771Y-60876190D01*
X84585771Y-60876190D02*
X84585771Y-60733333D01*
X84585771Y-60733333D02*
X84633390Y-60638095D01*
X84633390Y-60638095D02*
X84681009Y-60590476D01*
X84681009Y-60590476D02*
X84776247Y-60542857D01*
X84776247Y-60542857D02*
X85014342Y-60542857D01*
X85014342Y-60542857D02*
X85109580Y-60590476D01*
X85109580Y-60590476D02*
X85157200Y-60638095D01*
X85157200Y-60638095D02*
X85204819Y-60733333D01*
X85204819Y-60733333D02*
X85204819Y-61019047D01*
X85204819Y-61019047D02*
X85157200Y-61114285D01*
X85157200Y-61114285D02*
X85109580Y-61161904D01*
X84204819Y-59923809D02*
X84204819Y-59828571D01*
X84204819Y-59828571D02*
X84252438Y-59733333D01*
X84252438Y-59733333D02*
X84300057Y-59685714D01*
X84300057Y-59685714D02*
X84395295Y-59638095D01*
X84395295Y-59638095D02*
X84585771Y-59590476D01*
X84585771Y-59590476D02*
X84823866Y-59590476D01*
X84823866Y-59590476D02*
X85014342Y-59638095D01*
X85014342Y-59638095D02*
X85109580Y-59685714D01*
X85109580Y-59685714D02*
X85157200Y-59733333D01*
X85157200Y-59733333D02*
X85204819Y-59828571D01*
X85204819Y-59828571D02*
X85204819Y-59923809D01*
X85204819Y-59923809D02*
X85157200Y-60019047D01*
X85157200Y-60019047D02*
X85109580Y-60066666D01*
X85109580Y-60066666D02*
X85014342Y-60114285D01*
X85014342Y-60114285D02*
X84823866Y-60161904D01*
X84823866Y-60161904D02*
X84585771Y-60161904D01*
X84585771Y-60161904D02*
X84395295Y-60114285D01*
X84395295Y-60114285D02*
X84300057Y-60066666D01*
X84300057Y-60066666D02*
X84252438Y-60019047D01*
X84252438Y-60019047D02*
X84204819Y-59923809D01*
X85204819Y-58638095D02*
X85204819Y-59209523D01*
X85204819Y-58923809D02*
X84204819Y-58923809D01*
X84204819Y-58923809D02*
X84347676Y-59019047D01*
X84347676Y-59019047D02*
X84442914Y-59114285D01*
X84442914Y-59114285D02*
X84490533Y-59209523D01*
X123380952Y-95859580D02*
X123333333Y-95907200D01*
X123333333Y-95907200D02*
X123190476Y-95954819D01*
X123190476Y-95954819D02*
X123095238Y-95954819D01*
X123095238Y-95954819D02*
X122952381Y-95907200D01*
X122952381Y-95907200D02*
X122857143Y-95811961D01*
X122857143Y-95811961D02*
X122809524Y-95716723D01*
X122809524Y-95716723D02*
X122761905Y-95526247D01*
X122761905Y-95526247D02*
X122761905Y-95383390D01*
X122761905Y-95383390D02*
X122809524Y-95192914D01*
X122809524Y-95192914D02*
X122857143Y-95097676D01*
X122857143Y-95097676D02*
X122952381Y-95002438D01*
X122952381Y-95002438D02*
X123095238Y-94954819D01*
X123095238Y-94954819D02*
X123190476Y-94954819D01*
X123190476Y-94954819D02*
X123333333Y-95002438D01*
X123333333Y-95002438D02*
X123380952Y-95050057D01*
X124238095Y-95288152D02*
X124238095Y-95954819D01*
X124000000Y-94907200D02*
X123761905Y-95621485D01*
X123761905Y-95621485D02*
X124380952Y-95621485D01*
X124952381Y-94954819D02*
X125047619Y-94954819D01*
X125047619Y-94954819D02*
X125142857Y-95002438D01*
X125142857Y-95002438D02*
X125190476Y-95050057D01*
X125190476Y-95050057D02*
X125238095Y-95145295D01*
X125238095Y-95145295D02*
X125285714Y-95335771D01*
X125285714Y-95335771D02*
X125285714Y-95573866D01*
X125285714Y-95573866D02*
X125238095Y-95764342D01*
X125238095Y-95764342D02*
X125190476Y-95859580D01*
X125190476Y-95859580D02*
X125142857Y-95907200D01*
X125142857Y-95907200D02*
X125047619Y-95954819D01*
X125047619Y-95954819D02*
X124952381Y-95954819D01*
X124952381Y-95954819D02*
X124857143Y-95907200D01*
X124857143Y-95907200D02*
X124809524Y-95859580D01*
X124809524Y-95859580D02*
X124761905Y-95764342D01*
X124761905Y-95764342D02*
X124714286Y-95573866D01*
X124714286Y-95573866D02*
X124714286Y-95335771D01*
X124714286Y-95335771D02*
X124761905Y-95145295D01*
X124761905Y-95145295D02*
X124809524Y-95050057D01*
X124809524Y-95050057D02*
X124857143Y-95002438D01*
X124857143Y-95002438D02*
X124952381Y-94954819D01*
X125857143Y-95383390D02*
X125761905Y-95335771D01*
X125761905Y-95335771D02*
X125714286Y-95288152D01*
X125714286Y-95288152D02*
X125666667Y-95192914D01*
X125666667Y-95192914D02*
X125666667Y-95145295D01*
X125666667Y-95145295D02*
X125714286Y-95050057D01*
X125714286Y-95050057D02*
X125761905Y-95002438D01*
X125761905Y-95002438D02*
X125857143Y-94954819D01*
X125857143Y-94954819D02*
X126047619Y-94954819D01*
X126047619Y-94954819D02*
X126142857Y-95002438D01*
X126142857Y-95002438D02*
X126190476Y-95050057D01*
X126190476Y-95050057D02*
X126238095Y-95145295D01*
X126238095Y-95145295D02*
X126238095Y-95192914D01*
X126238095Y-95192914D02*
X126190476Y-95288152D01*
X126190476Y-95288152D02*
X126142857Y-95335771D01*
X126142857Y-95335771D02*
X126047619Y-95383390D01*
X126047619Y-95383390D02*
X125857143Y-95383390D01*
X125857143Y-95383390D02*
X125761905Y-95431009D01*
X125761905Y-95431009D02*
X125714286Y-95478628D01*
X125714286Y-95478628D02*
X125666667Y-95573866D01*
X125666667Y-95573866D02*
X125666667Y-95764342D01*
X125666667Y-95764342D02*
X125714286Y-95859580D01*
X125714286Y-95859580D02*
X125761905Y-95907200D01*
X125761905Y-95907200D02*
X125857143Y-95954819D01*
X125857143Y-95954819D02*
X126047619Y-95954819D01*
X126047619Y-95954819D02*
X126142857Y-95907200D01*
X126142857Y-95907200D02*
X126190476Y-95859580D01*
X126190476Y-95859580D02*
X126238095Y-95764342D01*
X126238095Y-95764342D02*
X126238095Y-95573866D01*
X126238095Y-95573866D02*
X126190476Y-95478628D01*
X126190476Y-95478628D02*
X126142857Y-95431009D01*
X126142857Y-95431009D02*
X126047619Y-95383390D01*
X100104819Y-63619047D02*
X99628628Y-63952380D01*
X100104819Y-64190475D02*
X99104819Y-64190475D01*
X99104819Y-64190475D02*
X99104819Y-63809523D01*
X99104819Y-63809523D02*
X99152438Y-63714285D01*
X99152438Y-63714285D02*
X99200057Y-63666666D01*
X99200057Y-63666666D02*
X99295295Y-63619047D01*
X99295295Y-63619047D02*
X99438152Y-63619047D01*
X99438152Y-63619047D02*
X99533390Y-63666666D01*
X99533390Y-63666666D02*
X99581009Y-63714285D01*
X99581009Y-63714285D02*
X99628628Y-63809523D01*
X99628628Y-63809523D02*
X99628628Y-64190475D01*
X99200057Y-63238094D02*
X99152438Y-63190475D01*
X99152438Y-63190475D02*
X99104819Y-63095237D01*
X99104819Y-63095237D02*
X99104819Y-62857142D01*
X99104819Y-62857142D02*
X99152438Y-62761904D01*
X99152438Y-62761904D02*
X99200057Y-62714285D01*
X99200057Y-62714285D02*
X99295295Y-62666666D01*
X99295295Y-62666666D02*
X99390533Y-62666666D01*
X99390533Y-62666666D02*
X99533390Y-62714285D01*
X99533390Y-62714285D02*
X100104819Y-63285713D01*
X100104819Y-63285713D02*
X100104819Y-62666666D01*
X99104819Y-62047618D02*
X99104819Y-61952380D01*
X99104819Y-61952380D02*
X99152438Y-61857142D01*
X99152438Y-61857142D02*
X99200057Y-61809523D01*
X99200057Y-61809523D02*
X99295295Y-61761904D01*
X99295295Y-61761904D02*
X99485771Y-61714285D01*
X99485771Y-61714285D02*
X99723866Y-61714285D01*
X99723866Y-61714285D02*
X99914342Y-61761904D01*
X99914342Y-61761904D02*
X100009580Y-61809523D01*
X100009580Y-61809523D02*
X100057200Y-61857142D01*
X100057200Y-61857142D02*
X100104819Y-61952380D01*
X100104819Y-61952380D02*
X100104819Y-62047618D01*
X100104819Y-62047618D02*
X100057200Y-62142856D01*
X100057200Y-62142856D02*
X100009580Y-62190475D01*
X100009580Y-62190475D02*
X99914342Y-62238094D01*
X99914342Y-62238094D02*
X99723866Y-62285713D01*
X99723866Y-62285713D02*
X99485771Y-62285713D01*
X99485771Y-62285713D02*
X99295295Y-62238094D01*
X99295295Y-62238094D02*
X99200057Y-62190475D01*
X99200057Y-62190475D02*
X99152438Y-62142856D01*
X99152438Y-62142856D02*
X99104819Y-62047618D01*
X99438152Y-60857142D02*
X100104819Y-60857142D01*
X99057200Y-61095237D02*
X99771485Y-61333332D01*
X99771485Y-61333332D02*
X99771485Y-60714285D01*
X110880952Y-104859580D02*
X110833333Y-104907200D01*
X110833333Y-104907200D02*
X110690476Y-104954819D01*
X110690476Y-104954819D02*
X110595238Y-104954819D01*
X110595238Y-104954819D02*
X110452381Y-104907200D01*
X110452381Y-104907200D02*
X110357143Y-104811961D01*
X110357143Y-104811961D02*
X110309524Y-104716723D01*
X110309524Y-104716723D02*
X110261905Y-104526247D01*
X110261905Y-104526247D02*
X110261905Y-104383390D01*
X110261905Y-104383390D02*
X110309524Y-104192914D01*
X110309524Y-104192914D02*
X110357143Y-104097676D01*
X110357143Y-104097676D02*
X110452381Y-104002438D01*
X110452381Y-104002438D02*
X110595238Y-103954819D01*
X110595238Y-103954819D02*
X110690476Y-103954819D01*
X110690476Y-103954819D02*
X110833333Y-104002438D01*
X110833333Y-104002438D02*
X110880952Y-104050057D01*
X111738095Y-104288152D02*
X111738095Y-104954819D01*
X111500000Y-103907200D02*
X111261905Y-104621485D01*
X111261905Y-104621485D02*
X111880952Y-104621485D01*
X112452381Y-103954819D02*
X112547619Y-103954819D01*
X112547619Y-103954819D02*
X112642857Y-104002438D01*
X112642857Y-104002438D02*
X112690476Y-104050057D01*
X112690476Y-104050057D02*
X112738095Y-104145295D01*
X112738095Y-104145295D02*
X112785714Y-104335771D01*
X112785714Y-104335771D02*
X112785714Y-104573866D01*
X112785714Y-104573866D02*
X112738095Y-104764342D01*
X112738095Y-104764342D02*
X112690476Y-104859580D01*
X112690476Y-104859580D02*
X112642857Y-104907200D01*
X112642857Y-104907200D02*
X112547619Y-104954819D01*
X112547619Y-104954819D02*
X112452381Y-104954819D01*
X112452381Y-104954819D02*
X112357143Y-104907200D01*
X112357143Y-104907200D02*
X112309524Y-104859580D01*
X112309524Y-104859580D02*
X112261905Y-104764342D01*
X112261905Y-104764342D02*
X112214286Y-104573866D01*
X112214286Y-104573866D02*
X112214286Y-104335771D01*
X112214286Y-104335771D02*
X112261905Y-104145295D01*
X112261905Y-104145295D02*
X112309524Y-104050057D01*
X112309524Y-104050057D02*
X112357143Y-104002438D01*
X112357143Y-104002438D02*
X112452381Y-103954819D01*
X113642857Y-104288152D02*
X113642857Y-104954819D01*
X113404762Y-103907200D02*
X113166667Y-104621485D01*
X113166667Y-104621485D02*
X113785714Y-104621485D01*
X115071428Y-105978628D02*
X115071428Y-106454819D01*
X114738095Y-105454819D02*
X115071428Y-105978628D01*
X115071428Y-105978628D02*
X115404761Y-105454819D01*
X116166666Y-105788152D02*
X116166666Y-106454819D01*
X115928571Y-105407200D02*
X115690476Y-106121485D01*
X115690476Y-106121485D02*
X116309523Y-106121485D01*
X116880952Y-105454819D02*
X116976190Y-105454819D01*
X116976190Y-105454819D02*
X117071428Y-105502438D01*
X117071428Y-105502438D02*
X117119047Y-105550057D01*
X117119047Y-105550057D02*
X117166666Y-105645295D01*
X117166666Y-105645295D02*
X117214285Y-105835771D01*
X117214285Y-105835771D02*
X117214285Y-106073866D01*
X117214285Y-106073866D02*
X117166666Y-106264342D01*
X117166666Y-106264342D02*
X117119047Y-106359580D01*
X117119047Y-106359580D02*
X117071428Y-106407200D01*
X117071428Y-106407200D02*
X116976190Y-106454819D01*
X116976190Y-106454819D02*
X116880952Y-106454819D01*
X116880952Y-106454819D02*
X116785714Y-106407200D01*
X116785714Y-106407200D02*
X116738095Y-106359580D01*
X116738095Y-106359580D02*
X116690476Y-106264342D01*
X116690476Y-106264342D02*
X116642857Y-106073866D01*
X116642857Y-106073866D02*
X116642857Y-105835771D01*
X116642857Y-105835771D02*
X116690476Y-105645295D01*
X116690476Y-105645295D02*
X116738095Y-105550057D01*
X116738095Y-105550057D02*
X116785714Y-105502438D01*
X116785714Y-105502438D02*
X116880952Y-105454819D01*
X117595238Y-105550057D02*
X117642857Y-105502438D01*
X117642857Y-105502438D02*
X117738095Y-105454819D01*
X117738095Y-105454819D02*
X117976190Y-105454819D01*
X117976190Y-105454819D02*
X118071428Y-105502438D01*
X118071428Y-105502438D02*
X118119047Y-105550057D01*
X118119047Y-105550057D02*
X118166666Y-105645295D01*
X118166666Y-105645295D02*
X118166666Y-105740533D01*
X118166666Y-105740533D02*
X118119047Y-105883390D01*
X118119047Y-105883390D02*
X117547619Y-106454819D01*
X117547619Y-106454819D02*
X118166666Y-106454819D01*
X104214285Y-111454819D02*
X104214285Y-112169104D01*
X104214285Y-112169104D02*
X104166666Y-112311961D01*
X104166666Y-112311961D02*
X104071428Y-112407200D01*
X104071428Y-112407200D02*
X103928571Y-112454819D01*
X103928571Y-112454819D02*
X103833333Y-112454819D01*
X104690476Y-112454819D02*
X104690476Y-111454819D01*
X104690476Y-111454819D02*
X105071428Y-111454819D01*
X105071428Y-111454819D02*
X105166666Y-111502438D01*
X105166666Y-111502438D02*
X105214285Y-111550057D01*
X105214285Y-111550057D02*
X105261904Y-111645295D01*
X105261904Y-111645295D02*
X105261904Y-111788152D01*
X105261904Y-111788152D02*
X105214285Y-111883390D01*
X105214285Y-111883390D02*
X105166666Y-111931009D01*
X105166666Y-111931009D02*
X105071428Y-111978628D01*
X105071428Y-111978628D02*
X104690476Y-111978628D01*
X106119047Y-111788152D02*
X106119047Y-112454819D01*
X105880952Y-111407200D02*
X105642857Y-112121485D01*
X105642857Y-112121485D02*
X106261904Y-112121485D01*
X106833333Y-111454819D02*
X106928571Y-111454819D01*
X106928571Y-111454819D02*
X107023809Y-111502438D01*
X107023809Y-111502438D02*
X107071428Y-111550057D01*
X107071428Y-111550057D02*
X107119047Y-111645295D01*
X107119047Y-111645295D02*
X107166666Y-111835771D01*
X107166666Y-111835771D02*
X107166666Y-112073866D01*
X107166666Y-112073866D02*
X107119047Y-112264342D01*
X107119047Y-112264342D02*
X107071428Y-112359580D01*
X107071428Y-112359580D02*
X107023809Y-112407200D01*
X107023809Y-112407200D02*
X106928571Y-112454819D01*
X106928571Y-112454819D02*
X106833333Y-112454819D01*
X106833333Y-112454819D02*
X106738095Y-112407200D01*
X106738095Y-112407200D02*
X106690476Y-112359580D01*
X106690476Y-112359580D02*
X106642857Y-112264342D01*
X106642857Y-112264342D02*
X106595238Y-112073866D01*
X106595238Y-112073866D02*
X106595238Y-111835771D01*
X106595238Y-111835771D02*
X106642857Y-111645295D01*
X106642857Y-111645295D02*
X106690476Y-111550057D01*
X106690476Y-111550057D02*
X106738095Y-111502438D01*
X106738095Y-111502438D02*
X106833333Y-111454819D01*
X108119047Y-112454819D02*
X107547619Y-112454819D01*
X107833333Y-112454819D02*
X107833333Y-111454819D01*
X107833333Y-111454819D02*
X107738095Y-111597676D01*
X107738095Y-111597676D02*
X107642857Y-111692914D01*
X107642857Y-111692914D02*
X107547619Y-111740533D01*
D12*
X65227064Y-90515000D02*
X64772936Y-90515000D01*
X65227064Y-91985000D02*
X64772936Y-91985000D01*
X97272936Y-116765000D02*
X97727064Y-116765000D01*
X97272936Y-118235000D02*
X97727064Y-118235000D01*
X65227064Y-103515000D02*
X64772936Y-103515000D01*
X65227064Y-104985000D02*
X64772936Y-104985000D01*
X79685000Y-101450000D02*
X79685000Y-101385000D01*
X79685000Y-107855000D02*
X79685000Y-107790000D01*
X83215000Y-101385000D02*
X79685000Y-101385000D01*
X83215000Y-101450000D02*
X83215000Y-101385000D01*
X83215000Y-107855000D02*
X79685000Y-107855000D01*
X83215000Y-107855000D02*
X83215000Y-107790000D01*
X84540000Y-107790000D02*
X83215000Y-107790000D01*
X75400000Y-68435000D02*
X79310000Y-68435000D01*
X79310000Y-66565000D02*
X75400000Y-66565000D01*
X79310000Y-68435000D02*
X79310000Y-66565000D01*
X62985000Y-63740000D02*
X58625000Y-63740000D01*
X62985000Y-63740000D02*
X62985000Y-66240000D01*
X62985000Y-66240000D02*
X63185000Y-66240000D01*
X62985000Y-69760000D02*
X62985000Y-72260000D01*
X62985000Y-72260000D02*
X58625000Y-72260000D01*
X63185000Y-66900000D02*
X63185000Y-66240000D01*
X70465000Y-138595814D02*
X70465000Y-138141686D01*
X71935000Y-138595814D02*
X71935000Y-138141686D01*
D13*
X79600000Y-93500000D02*
X79600000Y-91500000D01*
X80500000Y-90100000D02*
X79900000Y-90700000D01*
X80500000Y-94900000D02*
X79900000Y-94300000D01*
X80500000Y-94900000D02*
X83500000Y-94900000D01*
X83500000Y-90100000D02*
X80500000Y-90100000D01*
X83500000Y-94900000D02*
X84100000Y-94300000D01*
X84100000Y-90700000D02*
X83500000Y-90100000D01*
X84400000Y-93500000D02*
X84400000Y-91500000D01*
D14*
X86500000Y-94400000D02*
G75*
G02*
X86300000Y-94400000I-100000J0D01*
G01*
X86300000Y-94400000D02*
G75*
G02*
X86500000Y-94400000I100000J0D01*
G01*
D12*
X134772936Y-77765000D02*
X135227064Y-77765000D01*
X134772936Y-79235000D02*
X135227064Y-79235000D01*
X75265000Y-74772936D02*
X75265000Y-75227064D01*
X76735000Y-74772936D02*
X76735000Y-75227064D01*
X74727064Y-118765000D02*
X74272936Y-118765000D01*
X74727064Y-120235000D02*
X74272936Y-120235000D01*
X134272936Y-120515000D02*
X134727064Y-120515000D01*
X134272936Y-121985000D02*
X134727064Y-121985000D01*
X97540000Y-111815000D02*
X97540000Y-114500000D01*
X99460000Y-111815000D02*
X97540000Y-111815000D01*
X99460000Y-114500000D02*
X99460000Y-111815000D01*
X71565000Y-60190000D02*
X71565000Y-64100000D01*
X73435000Y-60190000D02*
X71565000Y-60190000D01*
X73435000Y-64100000D02*
X73435000Y-60190000D01*
X73170000Y-93170000D02*
X74500000Y-93170000D01*
X73170000Y-94500000D02*
X73170000Y-93170000D01*
X73170000Y-95770000D02*
X73170000Y-108530000D01*
X73170000Y-95770000D02*
X75830000Y-95770000D01*
X73170000Y-108530000D02*
X75830000Y-108530000D01*
X75830000Y-95770000D02*
X75830000Y-108530000D01*
X65227064Y-77515000D02*
X64772936Y-77515000D01*
X65227064Y-78985000D02*
X64772936Y-78985000D01*
X134772936Y-103765000D02*
X135227064Y-103765000D01*
X134772936Y-105235000D02*
X135227064Y-105235000D01*
X118440000Y-136190000D02*
X119460000Y-136190000D01*
X118440000Y-140440000D02*
X118440000Y-136190000D01*
X119460000Y-136190000D02*
X119460000Y-137790000D01*
X119460000Y-137790000D02*
X120740000Y-137790000D01*
X120160000Y-144010000D02*
X130840000Y-144010000D01*
X120740000Y-137790000D02*
X120740000Y-134900000D01*
X131540000Y-136190000D02*
X131540000Y-137790000D01*
X131540000Y-137790000D02*
X130260000Y-137790000D01*
X132560000Y-136190000D02*
X131540000Y-136190000D01*
X132560000Y-140440000D02*
X132560000Y-136190000D01*
X110765000Y-97185436D02*
X110765000Y-97639564D01*
X112235000Y-97185436D02*
X112235000Y-97639564D01*
X97265000Y-135227064D02*
X97265000Y-134772936D01*
X98735000Y-135227064D02*
X98735000Y-134772936D01*
X74065000Y-138595814D02*
X74065000Y-138141686D01*
X75535000Y-138595814D02*
X75535000Y-138141686D01*
X134772936Y-90765000D02*
X135227064Y-90765000D01*
X134772936Y-92235000D02*
X135227064Y-92235000D01*
X98727064Y-85265000D02*
X98272936Y-85265000D01*
X98727064Y-86735000D02*
X98272936Y-86735000D01*
X101772936Y-113765000D02*
X102227064Y-113765000D01*
X101772936Y-115235000D02*
X102227064Y-115235000D01*
X124500000Y-129850000D02*
X124500000Y-128450000D01*
X125200000Y-127750000D02*
X125800000Y-127750000D01*
X125800000Y-130550000D02*
X125200000Y-130550000D01*
X126500000Y-128450000D02*
X126500000Y-129850000D01*
X124500000Y-128450000D02*
G75*
G02*
X125200000Y-127750000I700000J0D01*
G01*
X125200000Y-130550000D02*
G75*
G02*
X124500000Y-129850000I-1J699999D01*
G01*
X125800000Y-127750000D02*
G75*
G02*
X126500000Y-128450000I0J-700000D01*
G01*
X126500000Y-129850000D02*
G75*
G02*
X125800000Y-130550000I-699999J-1D01*
G01*
X92238748Y-104765000D02*
X92761252Y-104765000D01*
X92238748Y-106235000D02*
X92761252Y-106235000D01*
X97250000Y-88800000D02*
X97250000Y-88200000D01*
X97950000Y-87500000D02*
X99350000Y-87500000D01*
X99350000Y-89500000D02*
X97950000Y-89500000D01*
X100050000Y-88200000D02*
X100050000Y-88800000D01*
X97250000Y-88200000D02*
G75*
G02*
X97950000Y-87500000I700000J0D01*
G01*
X97950000Y-89500000D02*
G75*
G02*
X97250000Y-88800000I0J700000D01*
G01*
X99350000Y-87500000D02*
G75*
G02*
X100050000Y-88200000I1J-699999D01*
G01*
X100050000Y-88800000D02*
G75*
G02*
X99350000Y-89500000I-699999J-1D01*
G01*
X66265000Y-71272936D02*
X66265000Y-71727064D01*
X67735000Y-71272936D02*
X67735000Y-71727064D01*
X101265000Y-62272936D02*
X101265000Y-62727064D01*
X102735000Y-62272936D02*
X102735000Y-62727064D01*
X73265000Y-75227064D02*
X73265000Y-74772936D01*
X74735000Y-75227064D02*
X74735000Y-74772936D01*
X96390000Y-96390000D02*
X96390000Y-96840000D01*
X96390000Y-103610000D02*
X96390000Y-103160000D01*
X96840000Y-96390000D02*
X96390000Y-96390000D01*
X96840000Y-103610000D02*
X96390000Y-103610000D01*
X103160000Y-96390000D02*
X103610000Y-96390000D01*
X103160000Y-103610000D02*
X103610000Y-103610000D01*
X103610000Y-96390000D02*
X103610000Y-96840000D01*
X103610000Y-103610000D02*
X103610000Y-103160000D01*
X104540000Y-103630000D02*
X103860000Y-103630000D01*
X104200000Y-103160000D01*
X104540000Y-103630000D01*
G36*
X104540000Y-103630000D02*
G01*
X103860000Y-103630000D01*
X104200000Y-103160000D01*
X104540000Y-103630000D01*
G37*
X120288748Y-103765000D02*
X120811252Y-103765000D01*
X120288748Y-105235000D02*
X120811252Y-105235000D01*
X124765000Y-124272936D02*
X124765000Y-124727064D01*
X126235000Y-124272936D02*
X126235000Y-124727064D01*
X68265000Y-71272936D02*
X68265000Y-71727064D01*
X69735000Y-71272936D02*
X69735000Y-71727064D01*
X108765000Y-97673752D02*
X108765000Y-97151248D01*
X110235000Y-97673752D02*
X110235000Y-97151248D01*
X120288748Y-101265000D02*
X120811252Y-101265000D01*
X120288748Y-102735000D02*
X120811252Y-102735000D01*
X122000000Y-129850000D02*
X122000000Y-128450000D01*
X122700000Y-127750000D02*
X123300000Y-127750000D01*
X123300000Y-130550000D02*
X122700000Y-130550000D01*
X124000000Y-128450000D02*
X124000000Y-129850000D01*
X122000000Y-128450000D02*
G75*
G02*
X122700000Y-127750000I700000J0D01*
G01*
X122700000Y-130550000D02*
G75*
G02*
X122000000Y-129850000I-1J699999D01*
G01*
X123300000Y-127750000D02*
G75*
G02*
X124000000Y-128450000I0J-700000D01*
G01*
X124000000Y-129850000D02*
G75*
G02*
X123300000Y-130550000I-699999J-1D01*
G01*
X122765000Y-124272936D02*
X122765000Y-124727064D01*
X124235000Y-124272936D02*
X124235000Y-124727064D01*
X108761252Y-106215000D02*
X108238748Y-106215000D01*
X108761252Y-107685000D02*
X108238748Y-107685000D01*
X101265000Y-135227064D02*
X101265000Y-134772936D01*
X102735000Y-135227064D02*
X102735000Y-134772936D01*
X92238748Y-91265000D02*
X92761252Y-91265000D01*
X92238748Y-92735000D02*
X92761252Y-92735000D01*
X66850000Y-57990000D02*
X66850000Y-63500000D01*
X70150000Y-57990000D02*
X66850000Y-57990000D01*
X70150000Y-57990000D02*
X70150000Y-63500000D01*
X115250000Y-94800000D02*
X115250000Y-100550000D01*
X115250000Y-100550000D02*
X118850000Y-100550000D01*
X118850000Y-100550000D02*
X118850000Y-94800000D01*
X120788748Y-98765000D02*
X121311252Y-98765000D01*
X120788748Y-100235000D02*
X121311252Y-100235000D01*
X76840000Y-58550000D02*
X76840000Y-62310000D01*
X76840000Y-62310000D02*
X78100000Y-62310000D01*
X83660000Y-58550000D02*
X83660000Y-62310000D01*
X83660000Y-62310000D02*
X82400000Y-62310000D01*
X83890000Y-57510000D02*
X83560000Y-57270000D01*
X83890000Y-57030000D01*
X83890000Y-57510000D01*
G36*
X83890000Y-57510000D02*
G01*
X83560000Y-57270000D01*
X83890000Y-57030000D01*
X83890000Y-57510000D01*
G37*
X120788748Y-94765000D02*
X121311252Y-94765000D01*
X120788748Y-96235000D02*
X121311252Y-96235000D01*
X97265000Y-62272936D02*
X97265000Y-62727064D01*
X98735000Y-62272936D02*
X98735000Y-62727064D01*
X108761252Y-103765000D02*
X108238748Y-103765000D01*
X108761252Y-105235000D02*
X108238748Y-105235000D01*
X116175000Y-103675000D02*
X116175000Y-102325000D01*
X117925000Y-103675000D02*
X117925000Y-102325000D01*
X100600000Y-112300000D02*
X100600000Y-111700000D01*
X101300000Y-111000000D02*
X102700000Y-111000000D01*
X102700000Y-113000000D02*
X101300000Y-113000000D01*
X103400000Y-111700000D02*
X103400000Y-112300000D01*
X100600000Y-111700000D02*
G75*
G02*
X101300000Y-111000000I699999J1D01*
G01*
X101300000Y-113000000D02*
G75*
G02*
X100600000Y-112300000I-1J699999D01*
G01*
X102700000Y-111000000D02*
G75*
G02*
X103400000Y-111700000I0J-700000D01*
G01*
X103400000Y-112300000D02*
G75*
G02*
X102700000Y-113000000I-700000J0D01*
G01*
%LPC*%
G36*
G01*
X66425000Y-90800000D02*
X66425000Y-91700000D01*
G75*
G02*
X66175000Y-91950000I-250000J0D01*
G01*
X65650000Y-91950000D01*
G75*
G02*
X65400000Y-91700000I0J250000D01*
G01*
X65400000Y-90800000D01*
G75*
G02*
X65650000Y-90550000I250000J0D01*
G01*
X66175000Y-90550000D01*
G75*
G02*
X66425000Y-90800000I0J-250000D01*
G01*
G37*
G36*
G01*
X64600000Y-90800000D02*
X64600000Y-91700000D01*
G75*
G02*
X64350000Y-91950000I-250000J0D01*
G01*
X63825000Y-91950000D01*
G75*
G02*
X63575000Y-91700000I0J250000D01*
G01*
X63575000Y-90800000D01*
G75*
G02*
X63825000Y-90550000I250000J0D01*
G01*
X64350000Y-90550000D01*
G75*
G02*
X64600000Y-90800000I0J-250000D01*
G01*
G37*
G36*
G01*
X96075000Y-117950000D02*
X96075000Y-117050000D01*
G75*
G02*
X96325000Y-116800000I250000J0D01*
G01*
X96850000Y-116800000D01*
G75*
G02*
X97100000Y-117050000I0J-250000D01*
G01*
X97100000Y-117950000D01*
G75*
G02*
X96850000Y-118200000I-250000J0D01*
G01*
X96325000Y-118200000D01*
G75*
G02*
X96075000Y-117950000I0J250000D01*
G01*
G37*
G36*
G01*
X97900000Y-117950000D02*
X97900000Y-117050000D01*
G75*
G02*
X98150000Y-116800000I250000J0D01*
G01*
X98675000Y-116800000D01*
G75*
G02*
X98925000Y-117050000I0J-250000D01*
G01*
X98925000Y-117950000D01*
G75*
G02*
X98675000Y-118200000I-250000J0D01*
G01*
X98150000Y-118200000D01*
G75*
G02*
X97900000Y-117950000I0J250000D01*
G01*
G37*
G36*
G01*
X66425000Y-103800000D02*
X66425000Y-104700000D01*
G75*
G02*
X66175000Y-104950000I-250000J0D01*
G01*
X65650000Y-104950000D01*
G75*
G02*
X65400000Y-104700000I0J250000D01*
G01*
X65400000Y-103800000D01*
G75*
G02*
X65650000Y-103550000I250000J0D01*
G01*
X66175000Y-103550000D01*
G75*
G02*
X66425000Y-103800000I0J-250000D01*
G01*
G37*
G36*
G01*
X64600000Y-103800000D02*
X64600000Y-104700000D01*
G75*
G02*
X64350000Y-104950000I-250000J0D01*
G01*
X63825000Y-104950000D01*
G75*
G02*
X63575000Y-104700000I0J250000D01*
G01*
X63575000Y-103800000D01*
G75*
G02*
X63825000Y-103550000I250000J0D01*
G01*
X64350000Y-103550000D01*
G75*
G02*
X64600000Y-103800000I0J-250000D01*
G01*
G37*
D15*
X83400000Y-107160000D03*
X79500000Y-107160000D03*
X83400000Y-105890000D03*
X79500000Y-105890000D03*
X83400000Y-104620000D03*
X79500000Y-104620000D03*
X83400000Y-103350000D03*
X79500000Y-103350000D03*
X83400000Y-102080000D03*
X79500000Y-102080000D03*
G36*
G01*
X79050000Y-67075000D02*
X79050000Y-67925000D01*
G75*
G02*
X78800000Y-68175000I-250000J0D01*
G01*
X77900000Y-68175000D01*
G75*
G02*
X77650000Y-67925000I0J250000D01*
G01*
X77650000Y-67075000D01*
G75*
G02*
X77900000Y-66825000I250000J0D01*
G01*
X78800000Y-66825000D01*
G75*
G02*
X79050000Y-67075000I0J-250000D01*
G01*
G37*
G36*
G01*
X76350000Y-67075000D02*
X76350000Y-67925000D01*
G75*
G02*
X76100000Y-68175000I-250000J0D01*
G01*
X75200000Y-68175000D01*
G75*
G02*
X74950000Y-67925000I0J250000D01*
G01*
X74950000Y-67075000D01*
G75*
G02*
X75200000Y-66825000I250000J0D01*
G01*
X76100000Y-66825000D01*
G75*
G02*
X76350000Y-67075000I0J-250000D01*
G01*
G37*
D16*
X137500000Y-140000000D03*
G36*
G01*
X61675000Y-66500000D02*
X62825000Y-66500000D01*
G75*
G02*
X62925000Y-66600000I0J-100000D01*
G01*
X62925000Y-66800000D01*
G75*
G02*
X62825000Y-66900000I-100000J0D01*
G01*
X61675000Y-66900000D01*
G75*
G02*
X61575000Y-66800000I0J100000D01*
G01*
X61575000Y-66600000D01*
G75*
G02*
X61675000Y-66500000I100000J0D01*
G01*
G37*
G36*
G01*
X61675000Y-67150000D02*
X62825000Y-67150000D01*
G75*
G02*
X62925000Y-67250000I0J-100000D01*
G01*
X62925000Y-67450000D01*
G75*
G02*
X62825000Y-67550000I-100000J0D01*
G01*
X61675000Y-67550000D01*
G75*
G02*
X61575000Y-67450000I0J100000D01*
G01*
X61575000Y-67250000D01*
G75*
G02*
X61675000Y-67150000I100000J0D01*
G01*
G37*
G36*
G01*
X61675000Y-67800000D02*
X62825000Y-67800000D01*
G75*
G02*
X62925000Y-67900000I0J-100000D01*
G01*
X62925000Y-68100000D01*
G75*
G02*
X62825000Y-68200000I-100000J0D01*
G01*
X61675000Y-68200000D01*
G75*
G02*
X61575000Y-68100000I0J100000D01*
G01*
X61575000Y-67900000D01*
G75*
G02*
X61675000Y-67800000I100000J0D01*
G01*
G37*
G36*
G01*
X61675000Y-68450000D02*
X62825000Y-68450000D01*
G75*
G02*
X62925000Y-68550000I0J-100000D01*
G01*
X62925000Y-68750000D01*
G75*
G02*
X62825000Y-68850000I-100000J0D01*
G01*
X61675000Y-68850000D01*
G75*
G02*
X61575000Y-68750000I0J100000D01*
G01*
X61575000Y-68550000D01*
G75*
G02*
X61675000Y-68450000I100000J0D01*
G01*
G37*
G36*
G01*
X61675000Y-69100000D02*
X62825000Y-69100000D01*
G75*
G02*
X62925000Y-69200000I0J-100000D01*
G01*
X62925000Y-69400000D01*
G75*
G02*
X62825000Y-69500000I-100000J0D01*
G01*
X61675000Y-69500000D01*
G75*
G02*
X61575000Y-69400000I0J100000D01*
G01*
X61575000Y-69200000D01*
G75*
G02*
X61675000Y-69100000I100000J0D01*
G01*
G37*
D17*
X59575000Y-64700000D03*
G36*
G01*
X61575000Y-64000000D02*
X62475000Y-64000000D01*
G75*
G02*
X62725000Y-64250000I0J-250000D01*
G01*
X62725000Y-65350000D01*
G75*
G02*
X62475000Y-65600000I-250000J0D01*
G01*
X61575000Y-65600000D01*
G75*
G02*
X61325000Y-65350000I0J250000D01*
G01*
X61325000Y-64250000D01*
G75*
G02*
X61575000Y-64000000I250000J0D01*
G01*
G37*
G36*
G01*
X58875000Y-65850000D02*
X60275000Y-65850000D01*
G75*
G02*
X60525000Y-66100000I0J-250000D01*
G01*
X60525000Y-67500000D01*
G75*
G02*
X60275000Y-67750000I-250000J0D01*
G01*
X58875000Y-67750000D01*
G75*
G02*
X58625000Y-67500000I0J250000D01*
G01*
X58625000Y-66100000D01*
G75*
G02*
X58875000Y-65850000I250000J0D01*
G01*
G37*
G36*
G01*
X58875000Y-68250000D02*
X60275000Y-68250000D01*
G75*
G02*
X60525000Y-68500000I0J-250000D01*
G01*
X60525000Y-69900000D01*
G75*
G02*
X60275000Y-70150000I-250000J0D01*
G01*
X58875000Y-70150000D01*
G75*
G02*
X58625000Y-69900000I0J250000D01*
G01*
X58625000Y-68500000D01*
G75*
G02*
X58875000Y-68250000I250000J0D01*
G01*
G37*
G36*
G01*
X61575000Y-70400000D02*
X62475000Y-70400000D01*
G75*
G02*
X62725000Y-70650000I0J-250000D01*
G01*
X62725000Y-71750000D01*
G75*
G02*
X62475000Y-72000000I-250000J0D01*
G01*
X61575000Y-72000000D01*
G75*
G02*
X61325000Y-71750000I0J250000D01*
G01*
X61325000Y-70650000D01*
G75*
G02*
X61575000Y-70400000I250000J0D01*
G01*
G37*
X59575000Y-71300000D03*
G36*
G01*
X71650000Y-139793750D02*
X70750000Y-139793750D01*
G75*
G02*
X70500000Y-139543750I0J250000D01*
G01*
X70500000Y-139018750D01*
G75*
G02*
X70750000Y-138768750I250000J0D01*
G01*
X71650000Y-138768750D01*
G75*
G02*
X71900000Y-139018750I0J-250000D01*
G01*
X71900000Y-139543750D01*
G75*
G02*
X71650000Y-139793750I-250000J0D01*
G01*
G37*
G36*
G01*
X71650000Y-137968750D02*
X70750000Y-137968750D01*
G75*
G02*
X70500000Y-137718750I0J250000D01*
G01*
X70500000Y-137193750D01*
G75*
G02*
X70750000Y-136943750I250000J0D01*
G01*
X71650000Y-136943750D01*
G75*
G02*
X71900000Y-137193750I0J-250000D01*
G01*
X71900000Y-137718750D01*
G75*
G02*
X71650000Y-137968750I-250000J0D01*
G01*
G37*
G36*
G01*
X85602000Y-94000000D02*
X85602000Y-94700000D01*
G75*
G02*
X85500000Y-94802000I-102000J0D01*
G01*
X84500000Y-94802000D01*
G75*
G02*
X84398000Y-94700000I0J102000D01*
G01*
X84398000Y-94000000D01*
G75*
G02*
X84500000Y-93898000I102000J0D01*
G01*
X85500000Y-93898000D01*
G75*
G02*
X85602000Y-94000000I0J-102000D01*
G01*
G37*
G36*
G01*
X79602000Y-94000000D02*
X79602000Y-94700000D01*
G75*
G02*
X79500000Y-94802000I-102000J0D01*
G01*
X78500000Y-94802000D01*
G75*
G02*
X78398000Y-94700000I0J102000D01*
G01*
X78398000Y-94000000D01*
G75*
G02*
X78500000Y-93898000I102000J0D01*
G01*
X79500000Y-93898000D01*
G75*
G02*
X79602000Y-94000000I0J-102000D01*
G01*
G37*
G36*
G01*
X85602000Y-90300000D02*
X85602000Y-91000000D01*
G75*
G02*
X85500000Y-91102000I-102000J0D01*
G01*
X84500000Y-91102000D01*
G75*
G02*
X84398000Y-91000000I0J102000D01*
G01*
X84398000Y-90300000D01*
G75*
G02*
X84500000Y-90198000I102000J0D01*
G01*
X85500000Y-90198000D01*
G75*
G02*
X85602000Y-90300000I0J-102000D01*
G01*
G37*
G36*
G01*
X79602000Y-90300000D02*
X79602000Y-91000000D01*
G75*
G02*
X79500000Y-91102000I-102000J0D01*
G01*
X78500000Y-91102000D01*
G75*
G02*
X78398000Y-91000000I0J102000D01*
G01*
X78398000Y-90300000D01*
G75*
G02*
X78500000Y-90198000I102000J0D01*
G01*
X79500000Y-90198000D01*
G75*
G02*
X79602000Y-90300000I0J-102000D01*
G01*
G37*
G36*
G01*
X133575000Y-78950000D02*
X133575000Y-78050000D01*
G75*
G02*
X133825000Y-77800000I250000J0D01*
G01*
X134350000Y-77800000D01*
G75*
G02*
X134600000Y-78050000I0J-250000D01*
G01*
X134600000Y-78950000D01*
G75*
G02*
X134350000Y-79200000I-250000J0D01*
G01*
X133825000Y-79200000D01*
G75*
G02*
X133575000Y-78950000I0J250000D01*
G01*
G37*
G36*
G01*
X135400000Y-78950000D02*
X135400000Y-78050000D01*
G75*
G02*
X135650000Y-77800000I250000J0D01*
G01*
X136175000Y-77800000D01*
G75*
G02*
X136425000Y-78050000I0J-250000D01*
G01*
X136425000Y-78950000D01*
G75*
G02*
X136175000Y-79200000I-250000J0D01*
G01*
X135650000Y-79200000D01*
G75*
G02*
X135400000Y-78950000I0J250000D01*
G01*
G37*
G36*
G01*
X75550000Y-73575000D02*
X76450000Y-73575000D01*
G75*
G02*
X76700000Y-73825000I0J-250000D01*
G01*
X76700000Y-74350000D01*
G75*
G02*
X76450000Y-74600000I-250000J0D01*
G01*
X75550000Y-74600000D01*
G75*
G02*
X75300000Y-74350000I0J250000D01*
G01*
X75300000Y-73825000D01*
G75*
G02*
X75550000Y-73575000I250000J0D01*
G01*
G37*
G36*
G01*
X75550000Y-75400000D02*
X76450000Y-75400000D01*
G75*
G02*
X76700000Y-75650000I0J-250000D01*
G01*
X76700000Y-76175000D01*
G75*
G02*
X76450000Y-76425000I-250000J0D01*
G01*
X75550000Y-76425000D01*
G75*
G02*
X75300000Y-76175000I0J250000D01*
G01*
X75300000Y-75650000D01*
G75*
G02*
X75550000Y-75400000I250000J0D01*
G01*
G37*
G36*
G01*
X75925000Y-119050000D02*
X75925000Y-119950000D01*
G75*
G02*
X75675000Y-120200000I-250000J0D01*
G01*
X75150000Y-120200000D01*
G75*
G02*
X74900000Y-119950000I0J250000D01*
G01*
X74900000Y-119050000D01*
G75*
G02*
X75150000Y-118800000I250000J0D01*
G01*
X75675000Y-118800000D01*
G75*
G02*
X75925000Y-119050000I0J-250000D01*
G01*
G37*
G36*
G01*
X74100000Y-119050000D02*
X74100000Y-119950000D01*
G75*
G02*
X73850000Y-120200000I-250000J0D01*
G01*
X73325000Y-120200000D01*
G75*
G02*
X73075000Y-119950000I0J250000D01*
G01*
X73075000Y-119050000D01*
G75*
G02*
X73325000Y-118800000I250000J0D01*
G01*
X73850000Y-118800000D01*
G75*
G02*
X74100000Y-119050000I0J-250000D01*
G01*
G37*
G36*
G01*
X133075000Y-121700000D02*
X133075000Y-120800000D01*
G75*
G02*
X133325000Y-120550000I250000J0D01*
G01*
X133850000Y-120550000D01*
G75*
G02*
X134100000Y-120800000I0J-250000D01*
G01*
X134100000Y-121700000D01*
G75*
G02*
X133850000Y-121950000I-250000J0D01*
G01*
X133325000Y-121950000D01*
G75*
G02*
X133075000Y-121700000I0J250000D01*
G01*
G37*
G36*
G01*
X134900000Y-121700000D02*
X134900000Y-120800000D01*
G75*
G02*
X135150000Y-120550000I250000J0D01*
G01*
X135675000Y-120550000D01*
G75*
G02*
X135925000Y-120800000I0J-250000D01*
G01*
X135925000Y-121700000D01*
G75*
G02*
X135675000Y-121950000I-250000J0D01*
G01*
X135150000Y-121950000D01*
G75*
G02*
X134900000Y-121700000I0J250000D01*
G01*
G37*
G36*
G01*
X98043750Y-112075000D02*
X98956250Y-112075000D01*
G75*
G02*
X99200000Y-112318750I0J-243750D01*
G01*
X99200000Y-112806250D01*
G75*
G02*
X98956250Y-113050000I-243750J0D01*
G01*
X98043750Y-113050000D01*
G75*
G02*
X97800000Y-112806250I0J243750D01*
G01*
X97800000Y-112318750D01*
G75*
G02*
X98043750Y-112075000I243750J0D01*
G01*
G37*
G36*
G01*
X98043750Y-113950000D02*
X98956250Y-113950000D01*
G75*
G02*
X99200000Y-114193750I0J-243750D01*
G01*
X99200000Y-114681250D01*
G75*
G02*
X98956250Y-114925000I-243750J0D01*
G01*
X98043750Y-114925000D01*
G75*
G02*
X97800000Y-114681250I0J243750D01*
G01*
X97800000Y-114193750D01*
G75*
G02*
X98043750Y-113950000I243750J0D01*
G01*
G37*
G36*
G01*
X72075000Y-60450000D02*
X72925000Y-60450000D01*
G75*
G02*
X73175000Y-60700000I0J-250000D01*
G01*
X73175000Y-61600000D01*
G75*
G02*
X72925000Y-61850000I-250000J0D01*
G01*
X72075000Y-61850000D01*
G75*
G02*
X71825000Y-61600000I0J250000D01*
G01*
X71825000Y-60700000D01*
G75*
G02*
X72075000Y-60450000I250000J0D01*
G01*
G37*
G36*
G01*
X72075000Y-63150000D02*
X72925000Y-63150000D01*
G75*
G02*
X73175000Y-63400000I0J-250000D01*
G01*
X73175000Y-64300000D01*
G75*
G02*
X72925000Y-64550000I-250000J0D01*
G01*
X72075000Y-64550000D01*
G75*
G02*
X71825000Y-64300000I0J250000D01*
G01*
X71825000Y-63400000D01*
G75*
G02*
X72075000Y-63150000I250000J0D01*
G01*
G37*
D16*
X63000000Y-58000000D03*
D18*
X74500000Y-94500000D03*
D19*
X74500000Y-97040000D03*
X74500000Y-99580000D03*
X74500000Y-102120000D03*
X74500000Y-104660000D03*
X74500000Y-107200000D03*
G36*
G01*
X66425000Y-77800000D02*
X66425000Y-78700000D01*
G75*
G02*
X66175000Y-78950000I-250000J0D01*
G01*
X65650000Y-78950000D01*
G75*
G02*
X65400000Y-78700000I0J250000D01*
G01*
X65400000Y-77800000D01*
G75*
G02*
X65650000Y-77550000I250000J0D01*
G01*
X66175000Y-77550000D01*
G75*
G02*
X66425000Y-77800000I0J-250000D01*
G01*
G37*
G36*
G01*
X64600000Y-77800000D02*
X64600000Y-78700000D01*
G75*
G02*
X64350000Y-78950000I-250000J0D01*
G01*
X63825000Y-78950000D01*
G75*
G02*
X63575000Y-78700000I0J250000D01*
G01*
X63575000Y-77800000D01*
G75*
G02*
X63825000Y-77550000I250000J0D01*
G01*
X64350000Y-77550000D01*
G75*
G02*
X64600000Y-77800000I0J-250000D01*
G01*
G37*
G36*
G01*
X133575000Y-104950000D02*
X133575000Y-104050000D01*
G75*
G02*
X133825000Y-103800000I250000J0D01*
G01*
X134350000Y-103800000D01*
G75*
G02*
X134600000Y-104050000I0J-250000D01*
G01*
X134600000Y-104950000D01*
G75*
G02*
X134350000Y-105200000I-250000J0D01*
G01*
X133825000Y-105200000D01*
G75*
G02*
X133575000Y-104950000I0J250000D01*
G01*
G37*
G36*
G01*
X135400000Y-104950000D02*
X135400000Y-104050000D01*
G75*
G02*
X135650000Y-103800000I250000J0D01*
G01*
X136175000Y-103800000D01*
G75*
G02*
X136425000Y-104050000I0J-250000D01*
G01*
X136425000Y-104950000D01*
G75*
G02*
X136175000Y-105200000I-250000J0D01*
G01*
X135650000Y-105200000D01*
G75*
G02*
X135400000Y-104950000I0J250000D01*
G01*
G37*
G36*
G01*
X121000000Y-138150000D02*
X121000000Y-135150000D01*
G75*
G02*
X121250000Y-134900000I250000J0D01*
G01*
X121750000Y-134900000D01*
G75*
G02*
X122000000Y-135150000I0J-250000D01*
G01*
X122000000Y-138150000D01*
G75*
G02*
X121750000Y-138400000I-250000J0D01*
G01*
X121250000Y-138400000D01*
G75*
G02*
X121000000Y-138150000I0J250000D01*
G01*
G37*
G36*
G01*
X123000000Y-138150000D02*
X123000000Y-135150000D01*
G75*
G02*
X123250000Y-134900000I250000J0D01*
G01*
X123750000Y-134900000D01*
G75*
G02*
X124000000Y-135150000I0J-250000D01*
G01*
X124000000Y-138150000D01*
G75*
G02*
X123750000Y-138400000I-250000J0D01*
G01*
X123250000Y-138400000D01*
G75*
G02*
X123000000Y-138150000I0J250000D01*
G01*
G37*
G36*
G01*
X125000000Y-138150000D02*
X125000000Y-135150000D01*
G75*
G02*
X125250000Y-134900000I250000J0D01*
G01*
X125750000Y-134900000D01*
G75*
G02*
X126000000Y-135150000I0J-250000D01*
G01*
X126000000Y-138150000D01*
G75*
G02*
X125750000Y-138400000I-250000J0D01*
G01*
X125250000Y-138400000D01*
G75*
G02*
X125000000Y-138150000I0J250000D01*
G01*
G37*
G36*
G01*
X127000000Y-138150000D02*
X127000000Y-135150000D01*
G75*
G02*
X127250000Y-134900000I250000J0D01*
G01*
X127750000Y-134900000D01*
G75*
G02*
X128000000Y-135150000I0J-250000D01*
G01*
X128000000Y-138150000D01*
G75*
G02*
X127750000Y-138400000I-250000J0D01*
G01*
X127250000Y-138400000D01*
G75*
G02*
X127000000Y-138150000I0J250000D01*
G01*
G37*
G36*
G01*
X129000000Y-138150000D02*
X129000000Y-135150000D01*
G75*
G02*
X129250000Y-134900000I250000J0D01*
G01*
X129750000Y-134900000D01*
G75*
G02*
X130000000Y-135150000I0J-250000D01*
G01*
X130000000Y-138150000D01*
G75*
G02*
X129750000Y-138400000I-250000J0D01*
G01*
X129250000Y-138400000D01*
G75*
G02*
X129000000Y-138150000I0J250000D01*
G01*
G37*
G36*
G01*
X118400000Y-143849999D02*
X118400000Y-140950001D01*
G75*
G02*
X118650001Y-140700000I250001J0D01*
G01*
X119649999Y-140700000D01*
G75*
G02*
X119900000Y-140950001I0J-250001D01*
G01*
X119900000Y-143849999D01*
G75*
G02*
X119649999Y-144100000I-250001J0D01*
G01*
X118650001Y-144100000D01*
G75*
G02*
X118400000Y-143849999I0J250001D01*
G01*
G37*
G36*
G01*
X131100000Y-143849999D02*
X131100000Y-140950001D01*
G75*
G02*
X131350001Y-140700000I250001J0D01*
G01*
X132349999Y-140700000D01*
G75*
G02*
X132600000Y-140950001I0J-250001D01*
G01*
X132600000Y-143849999D01*
G75*
G02*
X132349999Y-144100000I-250001J0D01*
G01*
X131350001Y-144100000D01*
G75*
G02*
X131100000Y-143849999I0J250001D01*
G01*
G37*
G36*
G01*
X111050000Y-95987500D02*
X111950000Y-95987500D01*
G75*
G02*
X112200000Y-96237500I0J-250000D01*
G01*
X112200000Y-96762500D01*
G75*
G02*
X111950000Y-97012500I-250000J0D01*
G01*
X111050000Y-97012500D01*
G75*
G02*
X110800000Y-96762500I0J250000D01*
G01*
X110800000Y-96237500D01*
G75*
G02*
X111050000Y-95987500I250000J0D01*
G01*
G37*
G36*
G01*
X111050000Y-97812500D02*
X111950000Y-97812500D01*
G75*
G02*
X112200000Y-98062500I0J-250000D01*
G01*
X112200000Y-98587500D01*
G75*
G02*
X111950000Y-98837500I-250000J0D01*
G01*
X111050000Y-98837500D01*
G75*
G02*
X110800000Y-98587500I0J250000D01*
G01*
X110800000Y-98062500D01*
G75*
G02*
X111050000Y-97812500I250000J0D01*
G01*
G37*
G36*
G01*
X98450000Y-136425000D02*
X97550000Y-136425000D01*
G75*
G02*
X97300000Y-136175000I0J250000D01*
G01*
X97300000Y-135650000D01*
G75*
G02*
X97550000Y-135400000I250000J0D01*
G01*
X98450000Y-135400000D01*
G75*
G02*
X98700000Y-135650000I0J-250000D01*
G01*
X98700000Y-136175000D01*
G75*
G02*
X98450000Y-136425000I-250000J0D01*
G01*
G37*
G36*
G01*
X98450000Y-134600000D02*
X97550000Y-134600000D01*
G75*
G02*
X97300000Y-134350000I0J250000D01*
G01*
X97300000Y-133825000D01*
G75*
G02*
X97550000Y-133575000I250000J0D01*
G01*
X98450000Y-133575000D01*
G75*
G02*
X98700000Y-133825000I0J-250000D01*
G01*
X98700000Y-134350000D01*
G75*
G02*
X98450000Y-134600000I-250000J0D01*
G01*
G37*
G36*
G01*
X75250000Y-139793750D02*
X74350000Y-139793750D01*
G75*
G02*
X74100000Y-139543750I0J250000D01*
G01*
X74100000Y-139018750D01*
G75*
G02*
X74350000Y-138768750I250000J0D01*
G01*
X75250000Y-138768750D01*
G75*
G02*
X75500000Y-139018750I0J-250000D01*
G01*
X75500000Y-139543750D01*
G75*
G02*
X75250000Y-139793750I-250000J0D01*
G01*
G37*
G36*
G01*
X75250000Y-137968750D02*
X74350000Y-137968750D01*
G75*
G02*
X74100000Y-137718750I0J250000D01*
G01*
X74100000Y-137193750D01*
G75*
G02*
X74350000Y-136943750I250000J0D01*
G01*
X75250000Y-136943750D01*
G75*
G02*
X75500000Y-137193750I0J-250000D01*
G01*
X75500000Y-137718750D01*
G75*
G02*
X75250000Y-137968750I-250000J0D01*
G01*
G37*
G36*
G01*
X133575000Y-91950000D02*
X133575000Y-91050000D01*
G75*
G02*
X133825000Y-90800000I250000J0D01*
G01*
X134350000Y-90800000D01*
G75*
G02*
X134600000Y-91050000I0J-250000D01*
G01*
X134600000Y-91950000D01*
G75*
G02*
X134350000Y-92200000I-250000J0D01*
G01*
X133825000Y-92200000D01*
G75*
G02*
X133575000Y-91950000I0J250000D01*
G01*
G37*
G36*
G01*
X135400000Y-91950000D02*
X135400000Y-91050000D01*
G75*
G02*
X135650000Y-90800000I250000J0D01*
G01*
X136175000Y-90800000D01*
G75*
G02*
X136425000Y-91050000I0J-250000D01*
G01*
X136425000Y-91950000D01*
G75*
G02*
X136175000Y-92200000I-250000J0D01*
G01*
X135650000Y-92200000D01*
G75*
G02*
X135400000Y-91950000I0J250000D01*
G01*
G37*
G36*
G01*
X99925000Y-85550000D02*
X99925000Y-86450000D01*
G75*
G02*
X99675000Y-86700000I-250000J0D01*
G01*
X99150000Y-86700000D01*
G75*
G02*
X98900000Y-86450000I0J250000D01*
G01*
X98900000Y-85550000D01*
G75*
G02*
X99150000Y-85300000I250000J0D01*
G01*
X99675000Y-85300000D01*
G75*
G02*
X99925000Y-85550000I0J-250000D01*
G01*
G37*
G36*
G01*
X98100000Y-85550000D02*
X98100000Y-86450000D01*
G75*
G02*
X97850000Y-86700000I-250000J0D01*
G01*
X97325000Y-86700000D01*
G75*
G02*
X97075000Y-86450000I0J250000D01*
G01*
X97075000Y-85550000D01*
G75*
G02*
X97325000Y-85300000I250000J0D01*
G01*
X97850000Y-85300000D01*
G75*
G02*
X98100000Y-85550000I0J-250000D01*
G01*
G37*
G36*
G01*
X100575000Y-114950000D02*
X100575000Y-114050000D01*
G75*
G02*
X100825000Y-113800000I250000J0D01*
G01*
X101350000Y-113800000D01*
G75*
G02*
X101600000Y-114050000I0J-250000D01*
G01*
X101600000Y-114950000D01*
G75*
G02*
X101350000Y-115200000I-250000J0D01*
G01*
X100825000Y-115200000D01*
G75*
G02*
X100575000Y-114950000I0J250000D01*
G01*
G37*
G36*
G01*
X102400000Y-114950000D02*
X102400000Y-114050000D01*
G75*
G02*
X102650000Y-113800000I250000J0D01*
G01*
X103175000Y-113800000D01*
G75*
G02*
X103425000Y-114050000I0J-250000D01*
G01*
X103425000Y-114950000D01*
G75*
G02*
X103175000Y-115200000I-250000J0D01*
G01*
X102650000Y-115200000D01*
G75*
G02*
X102400000Y-114950000I0J250000D01*
G01*
G37*
G36*
X126250000Y-129300000D02*
G01*
X126250000Y-129800000D01*
X126244911Y-129800000D01*
X126244911Y-129871157D01*
X126204816Y-130007708D01*
X126127875Y-130127430D01*
X126020320Y-130220627D01*
X125890866Y-130279746D01*
X125750000Y-130300000D01*
X125250000Y-130300000D01*
X125109134Y-130279746D01*
X124979680Y-130220627D01*
X124872125Y-130127430D01*
X124795184Y-130007708D01*
X124755089Y-129871157D01*
X124755089Y-129800000D01*
X124750000Y-129800000D01*
X124750000Y-129300000D01*
X126250000Y-129300000D01*
G37*
G36*
X124755089Y-128500000D02*
G01*
X124755089Y-128428843D01*
X124795184Y-128292292D01*
X124872125Y-128172570D01*
X124979680Y-128079373D01*
X125109134Y-128020254D01*
X125250000Y-128000000D01*
X125750000Y-128000000D01*
X125890866Y-128020254D01*
X126020320Y-128079373D01*
X126127875Y-128172570D01*
X126204816Y-128292292D01*
X126244911Y-128428843D01*
X126244911Y-128500000D01*
X126250000Y-128500000D01*
X126250000Y-129000000D01*
X124750000Y-129000000D01*
X124750000Y-128500000D01*
X124755089Y-128500000D01*
G37*
G36*
G01*
X91050000Y-105975000D02*
X91050000Y-105025000D01*
G75*
G02*
X91300000Y-104775000I250000J0D01*
G01*
X91800000Y-104775000D01*
G75*
G02*
X92050000Y-105025000I0J-250000D01*
G01*
X92050000Y-105975000D01*
G75*
G02*
X91800000Y-106225000I-250000J0D01*
G01*
X91300000Y-106225000D01*
G75*
G02*
X91050000Y-105975000I0J250000D01*
G01*
G37*
G36*
G01*
X92950000Y-105975000D02*
X92950000Y-105025000D01*
G75*
G02*
X93200000Y-104775000I250000J0D01*
G01*
X93700000Y-104775000D01*
G75*
G02*
X93950000Y-105025000I0J-250000D01*
G01*
X93950000Y-105975000D01*
G75*
G02*
X93700000Y-106225000I-250000J0D01*
G01*
X93200000Y-106225000D01*
G75*
G02*
X92950000Y-105975000I0J250000D01*
G01*
G37*
G36*
X98800000Y-87750000D02*
G01*
X99300000Y-87750000D01*
X99300000Y-87755089D01*
X99371157Y-87755089D01*
X99507708Y-87795184D01*
X99627430Y-87872125D01*
X99720627Y-87979680D01*
X99779746Y-88109134D01*
X99800000Y-88250000D01*
X99800000Y-88750000D01*
X99779746Y-88890866D01*
X99720627Y-89020320D01*
X99627430Y-89127875D01*
X99507708Y-89204816D01*
X99371157Y-89244911D01*
X99300000Y-89244911D01*
X99300000Y-89250000D01*
X98800000Y-89250000D01*
X98800000Y-87750000D01*
G37*
G36*
X98000000Y-89244911D02*
G01*
X97928843Y-89244911D01*
X97792292Y-89204816D01*
X97672570Y-89127875D01*
X97579373Y-89020320D01*
X97520254Y-88890866D01*
X97500000Y-88750000D01*
X97500000Y-88250000D01*
X97520254Y-88109134D01*
X97579373Y-87979680D01*
X97672570Y-87872125D01*
X97792292Y-87795184D01*
X97928843Y-87755089D01*
X98000000Y-87755089D01*
X98000000Y-87750000D01*
X98500000Y-87750000D01*
X98500000Y-89250000D01*
X98000000Y-89250000D01*
X98000000Y-89244911D01*
G37*
G36*
G01*
X66550000Y-70075000D02*
X67450000Y-70075000D01*
G75*
G02*
X67700000Y-70325000I0J-250000D01*
G01*
X67700000Y-70850000D01*
G75*
G02*
X67450000Y-71100000I-250000J0D01*
G01*
X66550000Y-71100000D01*
G75*
G02*
X66300000Y-70850000I0J250000D01*
G01*
X66300000Y-70325000D01*
G75*
G02*
X66550000Y-70075000I250000J0D01*
G01*
G37*
G36*
G01*
X66550000Y-71900000D02*
X67450000Y-71900000D01*
G75*
G02*
X67700000Y-72150000I0J-250000D01*
G01*
X67700000Y-72675000D01*
G75*
G02*
X67450000Y-72925000I-250000J0D01*
G01*
X66550000Y-72925000D01*
G75*
G02*
X66300000Y-72675000I0J250000D01*
G01*
X66300000Y-72150000D01*
G75*
G02*
X66550000Y-71900000I250000J0D01*
G01*
G37*
D16*
X63000000Y-140000000D03*
G36*
G01*
X101550000Y-61075000D02*
X102450000Y-61075000D01*
G75*
G02*
X102700000Y-61325000I0J-250000D01*
G01*
X102700000Y-61850000D01*
G75*
G02*
X102450000Y-62100000I-250000J0D01*
G01*
X101550000Y-62100000D01*
G75*
G02*
X101300000Y-61850000I0J250000D01*
G01*
X101300000Y-61325000D01*
G75*
G02*
X101550000Y-61075000I250000J0D01*
G01*
G37*
G36*
G01*
X101550000Y-62900000D02*
X102450000Y-62900000D01*
G75*
G02*
X102700000Y-63150000I0J-250000D01*
G01*
X102700000Y-63675000D01*
G75*
G02*
X102450000Y-63925000I-250000J0D01*
G01*
X101550000Y-63925000D01*
G75*
G02*
X101300000Y-63675000I0J250000D01*
G01*
X101300000Y-63150000D01*
G75*
G02*
X101550000Y-62900000I250000J0D01*
G01*
G37*
G36*
G01*
X74450000Y-76425000D02*
X73550000Y-76425000D01*
G75*
G02*
X73300000Y-76175000I0J250000D01*
G01*
X73300000Y-75650000D01*
G75*
G02*
X73550000Y-75400000I250000J0D01*
G01*
X74450000Y-75400000D01*
G75*
G02*
X74700000Y-75650000I0J-250000D01*
G01*
X74700000Y-76175000D01*
G75*
G02*
X74450000Y-76425000I-250000J0D01*
G01*
G37*
G36*
G01*
X74450000Y-74600000D02*
X73550000Y-74600000D01*
G75*
G02*
X73300000Y-74350000I0J250000D01*
G01*
X73300000Y-73825000D01*
G75*
G02*
X73550000Y-73575000I250000J0D01*
G01*
X74450000Y-73575000D01*
G75*
G02*
X74700000Y-73825000I0J-250000D01*
G01*
X74700000Y-74350000D01*
G75*
G02*
X74450000Y-74600000I-250000J0D01*
G01*
G37*
G36*
G01*
X104900000Y-102675000D02*
X104900000Y-102825000D01*
G75*
G02*
X104825000Y-102900000I-75000J0D01*
G01*
X103500000Y-102900000D01*
G75*
G02*
X103425000Y-102825000I0J75000D01*
G01*
X103425000Y-102675000D01*
G75*
G02*
X103500000Y-102600000I75000J0D01*
G01*
X104825000Y-102600000D01*
G75*
G02*
X104900000Y-102675000I0J-75000D01*
G01*
G37*
G36*
G01*
X104900000Y-102175000D02*
X104900000Y-102325000D01*
G75*
G02*
X104825000Y-102400000I-75000J0D01*
G01*
X103500000Y-102400000D01*
G75*
G02*
X103425000Y-102325000I0J75000D01*
G01*
X103425000Y-102175000D01*
G75*
G02*
X103500000Y-102100000I75000J0D01*
G01*
X104825000Y-102100000D01*
G75*
G02*
X104900000Y-102175000I0J-75000D01*
G01*
G37*
G36*
G01*
X104900000Y-101675000D02*
X104900000Y-101825000D01*
G75*
G02*
X104825000Y-101900000I-75000J0D01*
G01*
X103500000Y-101900000D01*
G75*
G02*
X103425000Y-101825000I0J75000D01*
G01*
X103425000Y-101675000D01*
G75*
G02*
X103500000Y-101600000I75000J0D01*
G01*
X104825000Y-101600000D01*
G75*
G02*
X104900000Y-101675000I0J-75000D01*
G01*
G37*
G36*
G01*
X104900000Y-101175000D02*
X104900000Y-101325000D01*
G75*
G02*
X104825000Y-101400000I-75000J0D01*
G01*
X103500000Y-101400000D01*
G75*
G02*
X103425000Y-101325000I0J75000D01*
G01*
X103425000Y-101175000D01*
G75*
G02*
X103500000Y-101100000I75000J0D01*
G01*
X104825000Y-101100000D01*
G75*
G02*
X104900000Y-101175000I0J-75000D01*
G01*
G37*
G36*
G01*
X104900000Y-100675000D02*
X104900000Y-100825000D01*
G75*
G02*
X104825000Y-100900000I-75000J0D01*
G01*
X103500000Y-100900000D01*
G75*
G02*
X103425000Y-100825000I0J75000D01*
G01*
X103425000Y-100675000D01*
G75*
G02*
X103500000Y-100600000I75000J0D01*
G01*
X104825000Y-100600000D01*
G75*
G02*
X104900000Y-100675000I0J-75000D01*
G01*
G37*
G36*
G01*
X104900000Y-100175000D02*
X104900000Y-100325000D01*
G75*
G02*
X104825000Y-100400000I-75000J0D01*
G01*
X103500000Y-100400000D01*
G75*
G02*
X103425000Y-100325000I0J75000D01*
G01*
X103425000Y-100175000D01*
G75*
G02*
X103500000Y-100100000I75000J0D01*
G01*
X104825000Y-100100000D01*
G75*
G02*
X104900000Y-100175000I0J-75000D01*
G01*
G37*
G36*
G01*
X104900000Y-99675000D02*
X104900000Y-99825000D01*
G75*
G02*
X104825000Y-99900000I-75000J0D01*
G01*
X103500000Y-99900000D01*
G75*
G02*
X103425000Y-99825000I0J75000D01*
G01*
X103425000Y-99675000D01*
G75*
G02*
X103500000Y-99600000I75000J0D01*
G01*
X104825000Y-99600000D01*
G75*
G02*
X104900000Y-99675000I0J-75000D01*
G01*
G37*
G36*
G01*
X104900000Y-99175000D02*
X104900000Y-99325000D01*
G75*
G02*
X104825000Y-99400000I-75000J0D01*
G01*
X103500000Y-99400000D01*
G75*
G02*
X103425000Y-99325000I0J75000D01*
G01*
X103425000Y-99175000D01*
G75*
G02*
X103500000Y-99100000I75000J0D01*
G01*
X104825000Y-99100000D01*
G75*
G02*
X104900000Y-99175000I0J-75000D01*
G01*
G37*
G36*
G01*
X104900000Y-98675000D02*
X104900000Y-98825000D01*
G75*
G02*
X104825000Y-98900000I-75000J0D01*
G01*
X103500000Y-98900000D01*
G75*
G02*
X103425000Y-98825000I0J75000D01*
G01*
X103425000Y-98675000D01*
G75*
G02*
X103500000Y-98600000I75000J0D01*
G01*
X104825000Y-98600000D01*
G75*
G02*
X104900000Y-98675000I0J-75000D01*
G01*
G37*
G36*
G01*
X104900000Y-98175000D02*
X104900000Y-98325000D01*
G75*
G02*
X104825000Y-98400000I-75000J0D01*
G01*
X103500000Y-98400000D01*
G75*
G02*
X103425000Y-98325000I0J75000D01*
G01*
X103425000Y-98175000D01*
G75*
G02*
X103500000Y-98100000I75000J0D01*
G01*
X104825000Y-98100000D01*
G75*
G02*
X104900000Y-98175000I0J-75000D01*
G01*
G37*
G36*
G01*
X104900000Y-97675000D02*
X104900000Y-97825000D01*
G75*
G02*
X104825000Y-97900000I-75000J0D01*
G01*
X103500000Y-97900000D01*
G75*
G02*
X103425000Y-97825000I0J75000D01*
G01*
X103425000Y-97675000D01*
G75*
G02*
X103500000Y-97600000I75000J0D01*
G01*
X104825000Y-97600000D01*
G75*
G02*
X104900000Y-97675000I0J-75000D01*
G01*
G37*
G36*
G01*
X104900000Y-97175000D02*
X104900000Y-97325000D01*
G75*
G02*
X104825000Y-97400000I-75000J0D01*
G01*
X103500000Y-97400000D01*
G75*
G02*
X103425000Y-97325000I0J75000D01*
G01*
X103425000Y-97175000D01*
G75*
G02*
X103500000Y-97100000I75000J0D01*
G01*
X104825000Y-97100000D01*
G75*
G02*
X104900000Y-97175000I0J-75000D01*
G01*
G37*
G36*
G01*
X102900000Y-95175000D02*
X102900000Y-96500000D01*
G75*
G02*
X102825000Y-96575000I-75000J0D01*
G01*
X102675000Y-96575000D01*
G75*
G02*
X102600000Y-96500000I0J75000D01*
G01*
X102600000Y-95175000D01*
G75*
G02*
X102675000Y-95100000I75000J0D01*
G01*
X102825000Y-95100000D01*
G75*
G02*
X102900000Y-95175000I0J-75000D01*
G01*
G37*
G36*
G01*
X102400000Y-95175000D02*
X102400000Y-96500000D01*
G75*
G02*
X102325000Y-96575000I-75000J0D01*
G01*
X102175000Y-96575000D01*
G75*
G02*
X102100000Y-96500000I0J75000D01*
G01*
X102100000Y-95175000D01*
G75*
G02*
X102175000Y-95100000I75000J0D01*
G01*
X102325000Y-95100000D01*
G75*
G02*
X102400000Y-95175000I0J-75000D01*
G01*
G37*
G36*
G01*
X101900000Y-95175000D02*
X101900000Y-96500000D01*
G75*
G02*
X101825000Y-96575000I-75000J0D01*
G01*
X101675000Y-96575000D01*
G75*
G02*
X101600000Y-96500000I0J75000D01*
G01*
X101600000Y-95175000D01*
G75*
G02*
X101675000Y-95100000I75000J0D01*
G01*
X101825000Y-95100000D01*
G75*
G02*
X101900000Y-95175000I0J-75000D01*
G01*
G37*
G36*
G01*
X101400000Y-95175000D02*
X101400000Y-96500000D01*
G75*
G02*
X101325000Y-96575000I-75000J0D01*
G01*
X101175000Y-96575000D01*
G75*
G02*
X101100000Y-96500000I0J75000D01*
G01*
X101100000Y-95175000D01*
G75*
G02*
X101175000Y-95100000I75000J0D01*
G01*
X101325000Y-95100000D01*
G75*
G02*
X101400000Y-95175000I0J-75000D01*
G01*
G37*
G36*
G01*
X100900000Y-95175000D02*
X100900000Y-96500000D01*
G75*
G02*
X100825000Y-96575000I-75000J0D01*
G01*
X100675000Y-96575000D01*
G75*
G02*
X100600000Y-96500000I0J75000D01*
G01*
X100600000Y-95175000D01*
G75*
G02*
X100675000Y-95100000I75000J0D01*
G01*
X100825000Y-95100000D01*
G75*
G02*
X100900000Y-95175000I0J-75000D01*
G01*
G37*
G36*
G01*
X100400000Y-95175000D02*
X100400000Y-96500000D01*
G75*
G02*
X100325000Y-96575000I-75000J0D01*
G01*
X100175000Y-96575000D01*
G75*
G02*
X100100000Y-96500000I0J75000D01*
G01*
X100100000Y-95175000D01*
G75*
G02*
X100175000Y-95100000I75000J0D01*
G01*
X100325000Y-95100000D01*
G75*
G02*
X100400000Y-95175000I0J-75000D01*
G01*
G37*
G36*
G01*
X99900000Y-95175000D02*
X99900000Y-96500000D01*
G75*
G02*
X99825000Y-96575000I-75000J0D01*
G01*
X99675000Y-96575000D01*
G75*
G02*
X99600000Y-96500000I0J75000D01*
G01*
X99600000Y-95175000D01*
G75*
G02*
X99675000Y-95100000I75000J0D01*
G01*
X99825000Y-95100000D01*
G75*
G02*
X99900000Y-95175000I0J-75000D01*
G01*
G37*
G36*
G01*
X99400000Y-95175000D02*
X99400000Y-96500000D01*
G75*
G02*
X99325000Y-96575000I-75000J0D01*
G01*
X99175000Y-96575000D01*
G75*
G02*
X99100000Y-96500000I0J75000D01*
G01*
X99100000Y-95175000D01*
G75*
G02*
X99175000Y-95100000I75000J0D01*
G01*
X99325000Y-95100000D01*
G75*
G02*
X99400000Y-95175000I0J-75000D01*
G01*
G37*
G36*
G01*
X98900000Y-95175000D02*
X98900000Y-96500000D01*
G75*
G02*
X98825000Y-96575000I-75000J0D01*
G01*
X98675000Y-96575000D01*
G75*
G02*
X98600000Y-96500000I0J75000D01*
G01*
X98600000Y-95175000D01*
G75*
G02*
X98675000Y-95100000I75000J0D01*
G01*
X98825000Y-95100000D01*
G75*
G02*
X98900000Y-95175000I0J-75000D01*
G01*
G37*
G36*
G01*
X98400000Y-95175000D02*
X98400000Y-96500000D01*
G75*
G02*
X98325000Y-96575000I-75000J0D01*
G01*
X98175000Y-96575000D01*
G75*
G02*
X98100000Y-96500000I0J75000D01*
G01*
X98100000Y-95175000D01*
G75*
G02*
X98175000Y-95100000I75000J0D01*
G01*
X98325000Y-95100000D01*
G75*
G02*
X98400000Y-95175000I0J-75000D01*
G01*
G37*
G36*
G01*
X97900000Y-95175000D02*
X97900000Y-96500000D01*
G75*
G02*
X97825000Y-96575000I-75000J0D01*
G01*
X97675000Y-96575000D01*
G75*
G02*
X97600000Y-96500000I0J75000D01*
G01*
X97600000Y-95175000D01*
G75*
G02*
X97675000Y-95100000I75000J0D01*
G01*
X97825000Y-95100000D01*
G75*
G02*
X97900000Y-95175000I0J-75000D01*
G01*
G37*
G36*
G01*
X97400000Y-95175000D02*
X97400000Y-96500000D01*
G75*
G02*
X97325000Y-96575000I-75000J0D01*
G01*
X97175000Y-96575000D01*
G75*
G02*
X97100000Y-96500000I0J75000D01*
G01*
X97100000Y-95175000D01*
G75*
G02*
X97175000Y-95100000I75000J0D01*
G01*
X97325000Y-95100000D01*
G75*
G02*
X97400000Y-95175000I0J-75000D01*
G01*
G37*
G36*
G01*
X96575000Y-97175000D02*
X96575000Y-97325000D01*
G75*
G02*
X96500000Y-97400000I-75000J0D01*
G01*
X95175000Y-97400000D01*
G75*
G02*
X95100000Y-97325000I0J75000D01*
G01*
X95100000Y-97175000D01*
G75*
G02*
X95175000Y-97100000I75000J0D01*
G01*
X96500000Y-97100000D01*
G75*
G02*
X96575000Y-97175000I0J-75000D01*
G01*
G37*
G36*
G01*
X96575000Y-97675000D02*
X96575000Y-97825000D01*
G75*
G02*
X96500000Y-97900000I-75000J0D01*
G01*
X95175000Y-97900000D01*
G75*
G02*
X95100000Y-97825000I0J75000D01*
G01*
X95100000Y-97675000D01*
G75*
G02*
X95175000Y-97600000I75000J0D01*
G01*
X96500000Y-97600000D01*
G75*
G02*
X96575000Y-97675000I0J-75000D01*
G01*
G37*
G36*
G01*
X96575000Y-98175000D02*
X96575000Y-98325000D01*
G75*
G02*
X96500000Y-98400000I-75000J0D01*
G01*
X95175000Y-98400000D01*
G75*
G02*
X95100000Y-98325000I0J75000D01*
G01*
X95100000Y-98175000D01*
G75*
G02*
X95175000Y-98100000I75000J0D01*
G01*
X96500000Y-98100000D01*
G75*
G02*
X96575000Y-98175000I0J-75000D01*
G01*
G37*
G36*
G01*
X96575000Y-98675000D02*
X96575000Y-98825000D01*
G75*
G02*
X96500000Y-98900000I-75000J0D01*
G01*
X95175000Y-98900000D01*
G75*
G02*
X95100000Y-98825000I0J75000D01*
G01*
X95100000Y-98675000D01*
G75*
G02*
X95175000Y-98600000I75000J0D01*
G01*
X96500000Y-98600000D01*
G75*
G02*
X96575000Y-98675000I0J-75000D01*
G01*
G37*
G36*
G01*
X96575000Y-99175000D02*
X96575000Y-99325000D01*
G75*
G02*
X96500000Y-99400000I-75000J0D01*
G01*
X95175000Y-99400000D01*
G75*
G02*
X95100000Y-99325000I0J75000D01*
G01*
X95100000Y-99175000D01*
G75*
G02*
X95175000Y-99100000I75000J0D01*
G01*
X96500000Y-99100000D01*
G75*
G02*
X96575000Y-99175000I0J-75000D01*
G01*
G37*
G36*
G01*
X96575000Y-99675000D02*
X96575000Y-99825000D01*
G75*
G02*
X96500000Y-99900000I-75000J0D01*
G01*
X95175000Y-99900000D01*
G75*
G02*
X95100000Y-99825000I0J75000D01*
G01*
X95100000Y-99675000D01*
G75*
G02*
X95175000Y-99600000I75000J0D01*
G01*
X96500000Y-99600000D01*
G75*
G02*
X96575000Y-99675000I0J-75000D01*
G01*
G37*
G36*
G01*
X96575000Y-100175000D02*
X96575000Y-100325000D01*
G75*
G02*
X96500000Y-100400000I-75000J0D01*
G01*
X95175000Y-100400000D01*
G75*
G02*
X95100000Y-100325000I0J75000D01*
G01*
X95100000Y-100175000D01*
G75*
G02*
X95175000Y-100100000I75000J0D01*
G01*
X96500000Y-100100000D01*
G75*
G02*
X96575000Y-100175000I0J-75000D01*
G01*
G37*
G36*
G01*
X96575000Y-100675000D02*
X96575000Y-100825000D01*
G75*
G02*
X96500000Y-100900000I-75000J0D01*
G01*
X95175000Y-100900000D01*
G75*
G02*
X95100000Y-100825000I0J75000D01*
G01*
X95100000Y-100675000D01*
G75*
G02*
X95175000Y-100600000I75000J0D01*
G01*
X96500000Y-100600000D01*
G75*
G02*
X96575000Y-100675000I0J-75000D01*
G01*
G37*
G36*
G01*
X96575000Y-101175000D02*
X96575000Y-101325000D01*
G75*
G02*
X96500000Y-101400000I-75000J0D01*
G01*
X95175000Y-101400000D01*
G75*
G02*
X95100000Y-101325000I0J75000D01*
G01*
X95100000Y-101175000D01*
G75*
G02*
X95175000Y-101100000I75000J0D01*
G01*
X96500000Y-101100000D01*
G75*
G02*
X96575000Y-101175000I0J-75000D01*
G01*
G37*
G36*
G01*
X96575000Y-101675000D02*
X96575000Y-101825000D01*
G75*
G02*
X96500000Y-101900000I-75000J0D01*
G01*
X95175000Y-101900000D01*
G75*
G02*
X95100000Y-101825000I0J75000D01*
G01*
X95100000Y-101675000D01*
G75*
G02*
X95175000Y-101600000I75000J0D01*
G01*
X96500000Y-101600000D01*
G75*
G02*
X96575000Y-101675000I0J-75000D01*
G01*
G37*
G36*
G01*
X96575000Y-102175000D02*
X96575000Y-102325000D01*
G75*
G02*
X96500000Y-102400000I-75000J0D01*
G01*
X95175000Y-102400000D01*
G75*
G02*
X95100000Y-102325000I0J75000D01*
G01*
X95100000Y-102175000D01*
G75*
G02*
X95175000Y-102100000I75000J0D01*
G01*
X96500000Y-102100000D01*
G75*
G02*
X96575000Y-102175000I0J-75000D01*
G01*
G37*
G36*
G01*
X96575000Y-102675000D02*
X96575000Y-102825000D01*
G75*
G02*
X96500000Y-102900000I-75000J0D01*
G01*
X95175000Y-102900000D01*
G75*
G02*
X95100000Y-102825000I0J75000D01*
G01*
X95100000Y-102675000D01*
G75*
G02*
X95175000Y-102600000I75000J0D01*
G01*
X96500000Y-102600000D01*
G75*
G02*
X96575000Y-102675000I0J-75000D01*
G01*
G37*
G36*
G01*
X97400000Y-103500000D02*
X97400000Y-104825000D01*
G75*
G02*
X97325000Y-104900000I-75000J0D01*
G01*
X97175000Y-104900000D01*
G75*
G02*
X97100000Y-104825000I0J75000D01*
G01*
X97100000Y-103500000D01*
G75*
G02*
X97175000Y-103425000I75000J0D01*
G01*
X97325000Y-103425000D01*
G75*
G02*
X97400000Y-103500000I0J-75000D01*
G01*
G37*
G36*
G01*
X97900000Y-103500000D02*
X97900000Y-104825000D01*
G75*
G02*
X97825000Y-104900000I-75000J0D01*
G01*
X97675000Y-104900000D01*
G75*
G02*
X97600000Y-104825000I0J75000D01*
G01*
X97600000Y-103500000D01*
G75*
G02*
X97675000Y-103425000I75000J0D01*
G01*
X97825000Y-103425000D01*
G75*
G02*
X97900000Y-103500000I0J-75000D01*
G01*
G37*
G36*
G01*
X98400000Y-103500000D02*
X98400000Y-104825000D01*
G75*
G02*
X98325000Y-104900000I-75000J0D01*
G01*
X98175000Y-104900000D01*
G75*
G02*
X98100000Y-104825000I0J75000D01*
G01*
X98100000Y-103500000D01*
G75*
G02*
X98175000Y-103425000I75000J0D01*
G01*
X98325000Y-103425000D01*
G75*
G02*
X98400000Y-103500000I0J-75000D01*
G01*
G37*
G36*
G01*
X98900000Y-103500000D02*
X98900000Y-104825000D01*
G75*
G02*
X98825000Y-104900000I-75000J0D01*
G01*
X98675000Y-104900000D01*
G75*
G02*
X98600000Y-104825000I0J75000D01*
G01*
X98600000Y-103500000D01*
G75*
G02*
X98675000Y-103425000I75000J0D01*
G01*
X98825000Y-103425000D01*
G75*
G02*
X98900000Y-103500000I0J-75000D01*
G01*
G37*
G36*
G01*
X99400000Y-103500000D02*
X99400000Y-104825000D01*
G75*
G02*
X99325000Y-104900000I-75000J0D01*
G01*
X99175000Y-104900000D01*
G75*
G02*
X99100000Y-104825000I0J75000D01*
G01*
X99100000Y-103500000D01*
G75*
G02*
X99175000Y-103425000I75000J0D01*
G01*
X99325000Y-103425000D01*
G75*
G02*
X99400000Y-103500000I0J-75000D01*
G01*
G37*
G36*
G01*
X99900000Y-103500000D02*
X99900000Y-104825000D01*
G75*
G02*
X99825000Y-104900000I-75000J0D01*
G01*
X99675000Y-104900000D01*
G75*
G02*
X99600000Y-104825000I0J75000D01*
G01*
X99600000Y-103500000D01*
G75*
G02*
X99675000Y-103425000I75000J0D01*
G01*
X99825000Y-103425000D01*
G75*
G02*
X99900000Y-103500000I0J-75000D01*
G01*
G37*
G36*
G01*
X100400000Y-103500000D02*
X100400000Y-104825000D01*
G75*
G02*
X100325000Y-104900000I-75000J0D01*
G01*
X100175000Y-104900000D01*
G75*
G02*
X100100000Y-104825000I0J75000D01*
G01*
X100100000Y-103500000D01*
G75*
G02*
X100175000Y-103425000I75000J0D01*
G01*
X100325000Y-103425000D01*
G75*
G02*
X100400000Y-103500000I0J-75000D01*
G01*
G37*
G36*
G01*
X100900000Y-103500000D02*
X100900000Y-104825000D01*
G75*
G02*
X100825000Y-104900000I-75000J0D01*
G01*
X100675000Y-104900000D01*
G75*
G02*
X100600000Y-104825000I0J75000D01*
G01*
X100600000Y-103500000D01*
G75*
G02*
X100675000Y-103425000I75000J0D01*
G01*
X100825000Y-103425000D01*
G75*
G02*
X100900000Y-103500000I0J-75000D01*
G01*
G37*
G36*
G01*
X101400000Y-103500000D02*
X101400000Y-104825000D01*
G75*
G02*
X101325000Y-104900000I-75000J0D01*
G01*
X101175000Y-104900000D01*
G75*
G02*
X101100000Y-104825000I0J75000D01*
G01*
X101100000Y-103500000D01*
G75*
G02*
X101175000Y-103425000I75000J0D01*
G01*
X101325000Y-103425000D01*
G75*
G02*
X101400000Y-103500000I0J-75000D01*
G01*
G37*
G36*
G01*
X101900000Y-103500000D02*
X101900000Y-104825000D01*
G75*
G02*
X101825000Y-104900000I-75000J0D01*
G01*
X101675000Y-104900000D01*
G75*
G02*
X101600000Y-104825000I0J75000D01*
G01*
X101600000Y-103500000D01*
G75*
G02*
X101675000Y-103425000I75000J0D01*
G01*
X101825000Y-103425000D01*
G75*
G02*
X101900000Y-103500000I0J-75000D01*
G01*
G37*
G36*
G01*
X102400000Y-103500000D02*
X102400000Y-104825000D01*
G75*
G02*
X102325000Y-104900000I-75000J0D01*
G01*
X102175000Y-104900000D01*
G75*
G02*
X102100000Y-104825000I0J75000D01*
G01*
X102100000Y-103500000D01*
G75*
G02*
X102175000Y-103425000I75000J0D01*
G01*
X102325000Y-103425000D01*
G75*
G02*
X102400000Y-103500000I0J-75000D01*
G01*
G37*
G36*
G01*
X102900000Y-103500000D02*
X102900000Y-104825000D01*
G75*
G02*
X102825000Y-104900000I-75000J0D01*
G01*
X102675000Y-104900000D01*
G75*
G02*
X102600000Y-104825000I0J75000D01*
G01*
X102600000Y-103500000D01*
G75*
G02*
X102675000Y-103425000I75000J0D01*
G01*
X102825000Y-103425000D01*
G75*
G02*
X102900000Y-103500000I0J-75000D01*
G01*
G37*
G36*
G01*
X119100000Y-104975000D02*
X119100000Y-104025000D01*
G75*
G02*
X119350000Y-103775000I250000J0D01*
G01*
X119850000Y-103775000D01*
G75*
G02*
X120100000Y-104025000I0J-250000D01*
G01*
X120100000Y-104975000D01*
G75*
G02*
X119850000Y-105225000I-250000J0D01*
G01*
X119350000Y-105225000D01*
G75*
G02*
X119100000Y-104975000I0J250000D01*
G01*
G37*
G36*
G01*
X121000000Y-104975000D02*
X121000000Y-104025000D01*
G75*
G02*
X121250000Y-103775000I250000J0D01*
G01*
X121750000Y-103775000D01*
G75*
G02*
X122000000Y-104025000I0J-250000D01*
G01*
X122000000Y-104975000D01*
G75*
G02*
X121750000Y-105225000I-250000J0D01*
G01*
X121250000Y-105225000D01*
G75*
G02*
X121000000Y-104975000I0J250000D01*
G01*
G37*
G36*
G01*
X125050000Y-123075000D02*
X125950000Y-123075000D01*
G75*
G02*
X126200000Y-123325000I0J-250000D01*
G01*
X126200000Y-123850000D01*
G75*
G02*
X125950000Y-124100000I-250000J0D01*
G01*
X125050000Y-124100000D01*
G75*
G02*
X124800000Y-123850000I0J250000D01*
G01*
X124800000Y-123325000D01*
G75*
G02*
X125050000Y-123075000I250000J0D01*
G01*
G37*
G36*
G01*
X125050000Y-124900000D02*
X125950000Y-124900000D01*
G75*
G02*
X126200000Y-125150000I0J-250000D01*
G01*
X126200000Y-125675000D01*
G75*
G02*
X125950000Y-125925000I-250000J0D01*
G01*
X125050000Y-125925000D01*
G75*
G02*
X124800000Y-125675000I0J250000D01*
G01*
X124800000Y-125150000D01*
G75*
G02*
X125050000Y-124900000I250000J0D01*
G01*
G37*
G36*
G01*
X68550000Y-70075000D02*
X69450000Y-70075000D01*
G75*
G02*
X69700000Y-70325000I0J-250000D01*
G01*
X69700000Y-70850000D01*
G75*
G02*
X69450000Y-71100000I-250000J0D01*
G01*
X68550000Y-71100000D01*
G75*
G02*
X68300000Y-70850000I0J250000D01*
G01*
X68300000Y-70325000D01*
G75*
G02*
X68550000Y-70075000I250000J0D01*
G01*
G37*
G36*
G01*
X68550000Y-71900000D02*
X69450000Y-71900000D01*
G75*
G02*
X69700000Y-72150000I0J-250000D01*
G01*
X69700000Y-72675000D01*
G75*
G02*
X69450000Y-72925000I-250000J0D01*
G01*
X68550000Y-72925000D01*
G75*
G02*
X68300000Y-72675000I0J250000D01*
G01*
X68300000Y-72150000D01*
G75*
G02*
X68550000Y-71900000I250000J0D01*
G01*
G37*
G36*
G01*
X109975000Y-98862500D02*
X109025000Y-98862500D01*
G75*
G02*
X108775000Y-98612500I0J250000D01*
G01*
X108775000Y-98112500D01*
G75*
G02*
X109025000Y-97862500I250000J0D01*
G01*
X109975000Y-97862500D01*
G75*
G02*
X110225000Y-98112500I0J-250000D01*
G01*
X110225000Y-98612500D01*
G75*
G02*
X109975000Y-98862500I-250000J0D01*
G01*
G37*
G36*
G01*
X109975000Y-96962500D02*
X109025000Y-96962500D01*
G75*
G02*
X108775000Y-96712500I0J250000D01*
G01*
X108775000Y-96212500D01*
G75*
G02*
X109025000Y-95962500I250000J0D01*
G01*
X109975000Y-95962500D01*
G75*
G02*
X110225000Y-96212500I0J-250000D01*
G01*
X110225000Y-96712500D01*
G75*
G02*
X109975000Y-96962500I-250000J0D01*
G01*
G37*
G36*
G01*
X119100000Y-102475000D02*
X119100000Y-101525000D01*
G75*
G02*
X119350000Y-101275000I250000J0D01*
G01*
X119850000Y-101275000D01*
G75*
G02*
X120100000Y-101525000I0J-250000D01*
G01*
X120100000Y-102475000D01*
G75*
G02*
X119850000Y-102725000I-250000J0D01*
G01*
X119350000Y-102725000D01*
G75*
G02*
X119100000Y-102475000I0J250000D01*
G01*
G37*
G36*
G01*
X121000000Y-102475000D02*
X121000000Y-101525000D01*
G75*
G02*
X121250000Y-101275000I250000J0D01*
G01*
X121750000Y-101275000D01*
G75*
G02*
X122000000Y-101525000I0J-250000D01*
G01*
X122000000Y-102475000D01*
G75*
G02*
X121750000Y-102725000I-250000J0D01*
G01*
X121250000Y-102725000D01*
G75*
G02*
X121000000Y-102475000I0J250000D01*
G01*
G37*
G36*
X123750000Y-129300000D02*
G01*
X123750000Y-129800000D01*
X123744911Y-129800000D01*
X123744911Y-129871157D01*
X123704816Y-130007708D01*
X123627875Y-130127430D01*
X123520320Y-130220627D01*
X123390866Y-130279746D01*
X123250000Y-130300000D01*
X122750000Y-130300000D01*
X122609134Y-130279746D01*
X122479680Y-130220627D01*
X122372125Y-130127430D01*
X122295184Y-130007708D01*
X122255089Y-129871157D01*
X122255089Y-129800000D01*
X122250000Y-129800000D01*
X122250000Y-129300000D01*
X123750000Y-129300000D01*
G37*
G36*
X122255089Y-128500000D02*
G01*
X122255089Y-128428843D01*
X122295184Y-128292292D01*
X122372125Y-128172570D01*
X122479680Y-128079373D01*
X122609134Y-128020254D01*
X122750000Y-128000000D01*
X123250000Y-128000000D01*
X123390866Y-128020254D01*
X123520320Y-128079373D01*
X123627875Y-128172570D01*
X123704816Y-128292292D01*
X123744911Y-128428843D01*
X123744911Y-128500000D01*
X123750000Y-128500000D01*
X123750000Y-129000000D01*
X122250000Y-129000000D01*
X122250000Y-128500000D01*
X122255089Y-128500000D01*
G37*
G36*
G01*
X123050000Y-123075000D02*
X123950000Y-123075000D01*
G75*
G02*
X124200000Y-123325000I0J-250000D01*
G01*
X124200000Y-123850000D01*
G75*
G02*
X123950000Y-124100000I-250000J0D01*
G01*
X123050000Y-124100000D01*
G75*
G02*
X122800000Y-123850000I0J250000D01*
G01*
X122800000Y-123325000D01*
G75*
G02*
X123050000Y-123075000I250000J0D01*
G01*
G37*
G36*
G01*
X123050000Y-124900000D02*
X123950000Y-124900000D01*
G75*
G02*
X124200000Y-125150000I0J-250000D01*
G01*
X124200000Y-125675000D01*
G75*
G02*
X123950000Y-125925000I-250000J0D01*
G01*
X123050000Y-125925000D01*
G75*
G02*
X122800000Y-125675000I0J250000D01*
G01*
X122800000Y-125150000D01*
G75*
G02*
X123050000Y-124900000I250000J0D01*
G01*
G37*
G36*
G01*
X109950000Y-106475000D02*
X109950000Y-107425000D01*
G75*
G02*
X109700000Y-107675000I-250000J0D01*
G01*
X109200000Y-107675000D01*
G75*
G02*
X108950000Y-107425000I0J250000D01*
G01*
X108950000Y-106475000D01*
G75*
G02*
X109200000Y-106225000I250000J0D01*
G01*
X109700000Y-106225000D01*
G75*
G02*
X109950000Y-106475000I0J-250000D01*
G01*
G37*
G36*
G01*
X108050000Y-106475000D02*
X108050000Y-107425000D01*
G75*
G02*
X107800000Y-107675000I-250000J0D01*
G01*
X107300000Y-107675000D01*
G75*
G02*
X107050000Y-107425000I0J250000D01*
G01*
X107050000Y-106475000D01*
G75*
G02*
X107300000Y-106225000I250000J0D01*
G01*
X107800000Y-106225000D01*
G75*
G02*
X108050000Y-106475000I0J-250000D01*
G01*
G37*
G36*
G01*
X102450000Y-136425000D02*
X101550000Y-136425000D01*
G75*
G02*
X101300000Y-136175000I0J250000D01*
G01*
X101300000Y-135650000D01*
G75*
G02*
X101550000Y-135400000I250000J0D01*
G01*
X102450000Y-135400000D01*
G75*
G02*
X102700000Y-135650000I0J-250000D01*
G01*
X102700000Y-136175000D01*
G75*
G02*
X102450000Y-136425000I-250000J0D01*
G01*
G37*
G36*
G01*
X102450000Y-134600000D02*
X101550000Y-134600000D01*
G75*
G02*
X101300000Y-134350000I0J250000D01*
G01*
X101300000Y-133825000D01*
G75*
G02*
X101550000Y-133575000I250000J0D01*
G01*
X102450000Y-133575000D01*
G75*
G02*
X102700000Y-133825000I0J-250000D01*
G01*
X102700000Y-134350000D01*
G75*
G02*
X102450000Y-134600000I-250000J0D01*
G01*
G37*
G36*
G01*
X91050000Y-92475000D02*
X91050000Y-91525000D01*
G75*
G02*
X91300000Y-91275000I250000J0D01*
G01*
X91800000Y-91275000D01*
G75*
G02*
X92050000Y-91525000I0J-250000D01*
G01*
X92050000Y-92475000D01*
G75*
G02*
X91800000Y-92725000I-250000J0D01*
G01*
X91300000Y-92725000D01*
G75*
G02*
X91050000Y-92475000I0J250000D01*
G01*
G37*
G36*
G01*
X92950000Y-92475000D02*
X92950000Y-91525000D01*
G75*
G02*
X93200000Y-91275000I250000J0D01*
G01*
X93700000Y-91275000D01*
G75*
G02*
X93950000Y-91525000I0J-250000D01*
G01*
X93950000Y-92475000D01*
G75*
G02*
X93700000Y-92725000I-250000J0D01*
G01*
X93200000Y-92725000D01*
G75*
G02*
X92950000Y-92475000I0J250000D01*
G01*
G37*
X137500000Y-58000000D03*
G36*
G01*
X67850000Y-58250000D02*
X69150000Y-58250000D01*
G75*
G02*
X69400000Y-58500000I0J-250000D01*
G01*
X69400000Y-60500000D01*
G75*
G02*
X69150000Y-60750000I-250000J0D01*
G01*
X67850000Y-60750000D01*
G75*
G02*
X67600000Y-60500000I0J250000D01*
G01*
X67600000Y-58500000D01*
G75*
G02*
X67850000Y-58250000I250000J0D01*
G01*
G37*
G36*
G01*
X67850000Y-62250000D02*
X69150000Y-62250000D01*
G75*
G02*
X69400000Y-62500000I0J-250000D01*
G01*
X69400000Y-64500000D01*
G75*
G02*
X69150000Y-64750000I-250000J0D01*
G01*
X67850000Y-64750000D01*
G75*
G02*
X67600000Y-64500000I0J250000D01*
G01*
X67600000Y-62500000D01*
G75*
G02*
X67850000Y-62250000I250000J0D01*
G01*
G37*
D20*
X117050000Y-99350000D03*
X117050000Y-95650000D03*
G36*
G01*
X119600000Y-99975000D02*
X119600000Y-99025000D01*
G75*
G02*
X119850000Y-98775000I250000J0D01*
G01*
X120350000Y-98775000D01*
G75*
G02*
X120600000Y-99025000I0J-250000D01*
G01*
X120600000Y-99975000D01*
G75*
G02*
X120350000Y-100225000I-250000J0D01*
G01*
X119850000Y-100225000D01*
G75*
G02*
X119600000Y-99975000I0J250000D01*
G01*
G37*
G36*
G01*
X121500000Y-99975000D02*
X121500000Y-99025000D01*
G75*
G02*
X121750000Y-98775000I250000J0D01*
G01*
X122250000Y-98775000D01*
G75*
G02*
X122500000Y-99025000I0J-250000D01*
G01*
X122500000Y-99975000D01*
G75*
G02*
X122250000Y-100225000I-250000J0D01*
G01*
X121750000Y-100225000D01*
G75*
G02*
X121500000Y-99975000I0J250000D01*
G01*
G37*
G36*
G01*
X82175000Y-56250000D02*
X82925000Y-56250000D01*
G75*
G02*
X83300000Y-56625000I0J-375000D01*
G01*
X83300000Y-57875000D01*
G75*
G02*
X82925000Y-58250000I-375000J0D01*
G01*
X82175000Y-58250000D01*
G75*
G02*
X81800000Y-57875000I0J375000D01*
G01*
X81800000Y-56625000D01*
G75*
G02*
X82175000Y-56250000I375000J0D01*
G01*
G37*
G36*
G01*
X79875000Y-56250000D02*
X80625000Y-56250000D01*
G75*
G02*
X81000000Y-56625000I0J-375000D01*
G01*
X81000000Y-57875000D01*
G75*
G02*
X80625000Y-58250000I-375000J0D01*
G01*
X79875000Y-58250000D01*
G75*
G02*
X79500000Y-57875000I0J375000D01*
G01*
X79500000Y-56625000D01*
G75*
G02*
X79875000Y-56250000I375000J0D01*
G01*
G37*
G36*
G01*
X78850000Y-62550000D02*
X81650000Y-62550000D01*
G75*
G02*
X82150000Y-63050000I0J-500000D01*
G01*
X82150000Y-64050000D01*
G75*
G02*
X81650000Y-64550000I-500000J0D01*
G01*
X78850000Y-64550000D01*
G75*
G02*
X78350000Y-64050000I0J500000D01*
G01*
X78350000Y-63050000D01*
G75*
G02*
X78850000Y-62550000I500000J0D01*
G01*
G37*
G36*
G01*
X77575000Y-56250000D02*
X78325000Y-56250000D01*
G75*
G02*
X78700000Y-56625000I0J-375000D01*
G01*
X78700000Y-57875000D01*
G75*
G02*
X78325000Y-58250000I-375000J0D01*
G01*
X77575000Y-58250000D01*
G75*
G02*
X77200000Y-57875000I0J375000D01*
G01*
X77200000Y-56625000D01*
G75*
G02*
X77575000Y-56250000I375000J0D01*
G01*
G37*
G36*
G01*
X119600000Y-95975000D02*
X119600000Y-95025000D01*
G75*
G02*
X119850000Y-94775000I250000J0D01*
G01*
X120350000Y-94775000D01*
G75*
G02*
X120600000Y-95025000I0J-250000D01*
G01*
X120600000Y-95975000D01*
G75*
G02*
X120350000Y-96225000I-250000J0D01*
G01*
X119850000Y-96225000D01*
G75*
G02*
X119600000Y-95975000I0J250000D01*
G01*
G37*
G36*
G01*
X121500000Y-95975000D02*
X121500000Y-95025000D01*
G75*
G02*
X121750000Y-94775000I250000J0D01*
G01*
X122250000Y-94775000D01*
G75*
G02*
X122500000Y-95025000I0J-250000D01*
G01*
X122500000Y-95975000D01*
G75*
G02*
X122250000Y-96225000I-250000J0D01*
G01*
X121750000Y-96225000D01*
G75*
G02*
X121500000Y-95975000I0J250000D01*
G01*
G37*
G36*
G01*
X97550000Y-61075000D02*
X98450000Y-61075000D01*
G75*
G02*
X98700000Y-61325000I0J-250000D01*
G01*
X98700000Y-61850000D01*
G75*
G02*
X98450000Y-62100000I-250000J0D01*
G01*
X97550000Y-62100000D01*
G75*
G02*
X97300000Y-61850000I0J250000D01*
G01*
X97300000Y-61325000D01*
G75*
G02*
X97550000Y-61075000I250000J0D01*
G01*
G37*
G36*
G01*
X97550000Y-62900000D02*
X98450000Y-62900000D01*
G75*
G02*
X98700000Y-63150000I0J-250000D01*
G01*
X98700000Y-63675000D01*
G75*
G02*
X98450000Y-63925000I-250000J0D01*
G01*
X97550000Y-63925000D01*
G75*
G02*
X97300000Y-63675000I0J250000D01*
G01*
X97300000Y-63150000D01*
G75*
G02*
X97550000Y-62900000I250000J0D01*
G01*
G37*
G36*
G01*
X109950000Y-104025000D02*
X109950000Y-104975000D01*
G75*
G02*
X109700000Y-105225000I-250000J0D01*
G01*
X109200000Y-105225000D01*
G75*
G02*
X108950000Y-104975000I0J250000D01*
G01*
X108950000Y-104025000D01*
G75*
G02*
X109200000Y-103775000I250000J0D01*
G01*
X109700000Y-103775000D01*
G75*
G02*
X109950000Y-104025000I0J-250000D01*
G01*
G37*
G36*
G01*
X108050000Y-104025000D02*
X108050000Y-104975000D01*
G75*
G02*
X107800000Y-105225000I-250000J0D01*
G01*
X107300000Y-105225000D01*
G75*
G02*
X107050000Y-104975000I0J250000D01*
G01*
X107050000Y-104025000D01*
G75*
G02*
X107300000Y-103775000I250000J0D01*
G01*
X107800000Y-103775000D01*
G75*
G02*
X108050000Y-104025000I0J-250000D01*
G01*
G37*
D21*
X117050000Y-101750000D03*
X117050000Y-104250000D03*
G36*
X101850000Y-112750000D02*
G01*
X101350000Y-112750000D01*
X101350000Y-112744911D01*
X101278843Y-112744911D01*
X101142292Y-112704816D01*
X101022570Y-112627875D01*
X100929373Y-112520320D01*
X100870254Y-112390866D01*
X100850000Y-112250000D01*
X100850000Y-111750000D01*
X100870254Y-111609134D01*
X100929373Y-111479680D01*
X101022570Y-111372125D01*
X101142292Y-111295184D01*
X101278843Y-111255089D01*
X101350000Y-111255089D01*
X101350000Y-111250000D01*
X101850000Y-111250000D01*
X101850000Y-112750000D01*
G37*
G36*
X102650000Y-111255089D02*
G01*
X102721157Y-111255089D01*
X102857708Y-111295184D01*
X102977430Y-111372125D01*
X103070627Y-111479680D01*
X103129746Y-111609134D01*
X103150000Y-111750000D01*
X103150000Y-112250000D01*
X103129746Y-112390866D01*
X103070627Y-112520320D01*
X102977430Y-112627875D01*
X102857708Y-112704816D01*
X102721157Y-112744911D01*
X102650000Y-112744911D01*
X102650000Y-112750000D01*
X102150000Y-112750000D01*
X102150000Y-111250000D01*
X102650000Y-111250000D01*
X102650000Y-111255089D01*
G37*
D18*
X81000000Y-74800000D03*
D19*
X83540000Y-74800000D03*
X86080000Y-74800000D03*
X88620000Y-74800000D03*
X91160000Y-74800000D03*
X93700000Y-74800000D03*
X96240000Y-74800000D03*
X98780000Y-74800000D03*
X101320000Y-74800000D03*
X103860000Y-74800000D03*
X106400000Y-74800000D03*
X108940000Y-74800000D03*
X111480000Y-74800000D03*
X114020000Y-74800000D03*
X116560000Y-74800000D03*
X119100000Y-74800000D03*
D18*
X108950000Y-125200000D03*
D19*
X106410000Y-125200000D03*
X103870000Y-125200000D03*
X101330000Y-125200000D03*
X98790000Y-125200000D03*
X96250000Y-125200000D03*
X93710000Y-125200000D03*
X91170000Y-125200000D03*
D22*
X94250000Y-61750000D03*
X87750000Y-61750000D03*
X94250000Y-66250000D03*
X87750000Y-66250000D03*
X135500000Y-124500000D03*
X129000000Y-124500000D03*
X135500000Y-129000000D03*
X129000000Y-129000000D03*
X94250000Y-133750000D03*
X87750000Y-133750000D03*
X94250000Y-138250000D03*
X87750000Y-138250000D03*
X135750000Y-81750000D03*
X129250000Y-81750000D03*
X135750000Y-86250000D03*
X129250000Y-86250000D03*
X70750000Y-94750000D03*
X64250000Y-94750000D03*
X70750000Y-99250000D03*
X64250000Y-99250000D03*
D23*
X70000000Y-134250000D03*
X65000000Y-134250000D03*
X67500000Y-134250000D03*
D24*
X73200000Y-126750000D03*
X61800000Y-126750000D03*
G36*
G01*
X71102000Y-118750000D02*
X71102000Y-120750000D01*
G75*
G02*
X71000000Y-120852000I-102000J0D01*
G01*
X69000000Y-120852000D01*
G75*
G02*
X68898000Y-120750000I0J102000D01*
G01*
X68898000Y-118750000D01*
G75*
G02*
X69000000Y-118648000I102000J0D01*
G01*
X71000000Y-118648000D01*
G75*
G02*
X71102000Y-118750000I0J-102000D01*
G01*
G37*
D23*
X65000000Y-119750000D03*
D22*
X112250000Y-133750000D03*
X105750000Y-133750000D03*
X112250000Y-138250000D03*
X105750000Y-138250000D03*
X135750000Y-94750000D03*
X129250000Y-94750000D03*
X135750000Y-99250000D03*
X129250000Y-99250000D03*
X70750000Y-81750000D03*
X64250000Y-81750000D03*
X70750000Y-86250000D03*
X64250000Y-86250000D03*
X70750000Y-107750000D03*
X64250000Y-107750000D03*
X70750000Y-112250000D03*
X64250000Y-112250000D03*
X135750000Y-107750000D03*
X129250000Y-107750000D03*
X135750000Y-112250000D03*
X129250000Y-112250000D03*
X112250000Y-61750000D03*
X105750000Y-61750000D03*
X112250000Y-66250000D03*
X105750000Y-66250000D03*
%LPD*%
M02*
