G04 #@! TF.GenerationSoftware,KiCad,Pcbnew,5.1.10-88a1d61d58~90~ubuntu21.04.1*
G04 #@! TF.CreationDate,2021-08-24T09:46:03+02:00*
G04 #@! TF.ProjectId,Detector_SMD_AD,44657465-6374-46f7-925f-534d445f4144,rev?*
G04 #@! TF.SameCoordinates,Original*
G04 #@! TF.FileFunction,Soldermask,Top*
G04 #@! TF.FilePolarity,Negative*
%FSLAX46Y46*%
G04 Gerber Fmt 4.6, Leading zero omitted, Abs format (unit mm)*
G04 Created by KiCad (PCBNEW 5.1.10-88a1d61d58~90~ubuntu21.04.1) date 2021-08-24 09:46:03*
%MOMM*%
%LPD*%
G01*
G04 APERTURE LIST*
%ADD10O,1.700000X1.700000*%
%ADD11R,1.700000X1.700000*%
%ADD12C,3.200000*%
%ADD13R,0.900000X0.800000*%
%ADD14R,0.800000X0.900000*%
%ADD15C,3.000000*%
%ADD16R,3.000000X3.000000*%
%ADD17R,0.900000X1.200000*%
%ADD18R,3.048000X2.540000*%
%ADD19R,1.524000X1.270000*%
G04 APERTURE END LIST*
D10*
X107000000Y-53830000D03*
X107000000Y-51290000D03*
X107000000Y-48750000D03*
D11*
X107000000Y-46210000D03*
G36*
G01*
X86874999Y-48400000D02*
X88125001Y-48400000D01*
G75*
G02*
X88375000Y-48649999I0J-249999D01*
G01*
X88375000Y-49275001D01*
G75*
G02*
X88125001Y-49525000I-249999J0D01*
G01*
X86874999Y-49525000D01*
G75*
G02*
X86625000Y-49275001I0J249999D01*
G01*
X86625000Y-48649999D01*
G75*
G02*
X86874999Y-48400000I249999J0D01*
G01*
G37*
G36*
G01*
X86874999Y-45475000D02*
X88125001Y-45475000D01*
G75*
G02*
X88375000Y-45724999I0J-249999D01*
G01*
X88375000Y-46350001D01*
G75*
G02*
X88125001Y-46600000I-249999J0D01*
G01*
X86874999Y-46600000D01*
G75*
G02*
X86625000Y-46350001I0J249999D01*
G01*
X86625000Y-45724999D01*
G75*
G02*
X86874999Y-45475000I249999J0D01*
G01*
G37*
G36*
G01*
X95374999Y-52987500D02*
X96625001Y-52987500D01*
G75*
G02*
X96875000Y-53237499I0J-249999D01*
G01*
X96875000Y-53862501D01*
G75*
G02*
X96625001Y-54112500I-249999J0D01*
G01*
X95374999Y-54112500D01*
G75*
G02*
X95125000Y-53862501I0J249999D01*
G01*
X95125000Y-53237499D01*
G75*
G02*
X95374999Y-52987500I249999J0D01*
G01*
G37*
G36*
G01*
X95374999Y-50062500D02*
X96625001Y-50062500D01*
G75*
G02*
X96875000Y-50312499I0J-249999D01*
G01*
X96875000Y-50937501D01*
G75*
G02*
X96625001Y-51187500I-249999J0D01*
G01*
X95374999Y-51187500D01*
G75*
G02*
X95125000Y-50937501I0J249999D01*
G01*
X95125000Y-50312499D01*
G75*
G02*
X95374999Y-50062500I249999J0D01*
G01*
G37*
G36*
G01*
X76874999Y-53400000D02*
X78125001Y-53400000D01*
G75*
G02*
X78375000Y-53649999I0J-249999D01*
G01*
X78375000Y-54275001D01*
G75*
G02*
X78125001Y-54525000I-249999J0D01*
G01*
X76874999Y-54525000D01*
G75*
G02*
X76625000Y-54275001I0J249999D01*
G01*
X76625000Y-53649999D01*
G75*
G02*
X76874999Y-53400000I249999J0D01*
G01*
G37*
G36*
G01*
X76874999Y-50475000D02*
X78125001Y-50475000D01*
G75*
G02*
X78375000Y-50724999I0J-249999D01*
G01*
X78375000Y-51350001D01*
G75*
G02*
X78125001Y-51600000I-249999J0D01*
G01*
X76874999Y-51600000D01*
G75*
G02*
X76625000Y-51350001I0J249999D01*
G01*
X76625000Y-50724999D01*
G75*
G02*
X76874999Y-50475000I249999J0D01*
G01*
G37*
G36*
G01*
X87512500Y-51874999D02*
X87512500Y-53125001D01*
G75*
G02*
X87262501Y-53375000I-249999J0D01*
G01*
X86637499Y-53375000D01*
G75*
G02*
X86387500Y-53125001I0J249999D01*
G01*
X86387500Y-51874999D01*
G75*
G02*
X86637499Y-51625000I249999J0D01*
G01*
X87262501Y-51625000D01*
G75*
G02*
X87512500Y-51874999I0J-249999D01*
G01*
G37*
G36*
G01*
X90437500Y-51874999D02*
X90437500Y-53125001D01*
G75*
G02*
X90187501Y-53375000I-249999J0D01*
G01*
X89562499Y-53375000D01*
G75*
G02*
X89312500Y-53125001I0J249999D01*
G01*
X89312500Y-51874999D01*
G75*
G02*
X89562499Y-51625000I249999J0D01*
G01*
X90187501Y-51625000D01*
G75*
G02*
X90437500Y-51874999I0J-249999D01*
G01*
G37*
G36*
G01*
X81600000Y-51849999D02*
X81600000Y-53150001D01*
G75*
G02*
X81350001Y-53400000I-249999J0D01*
G01*
X80699999Y-53400000D01*
G75*
G02*
X80450000Y-53150001I0J249999D01*
G01*
X80450000Y-51849999D01*
G75*
G02*
X80699999Y-51600000I249999J0D01*
G01*
X81350001Y-51600000D01*
G75*
G02*
X81600000Y-51849999I0J-249999D01*
G01*
G37*
G36*
G01*
X84550000Y-51849999D02*
X84550000Y-53150001D01*
G75*
G02*
X84300001Y-53400000I-249999J0D01*
G01*
X83649999Y-53400000D01*
G75*
G02*
X83400000Y-53150001I0J249999D01*
G01*
X83400000Y-51849999D01*
G75*
G02*
X83649999Y-51600000I249999J0D01*
G01*
X84300001Y-51600000D01*
G75*
G02*
X84550000Y-51849999I0J-249999D01*
G01*
G37*
G36*
G01*
X70050000Y-46349999D02*
X70050000Y-47650001D01*
G75*
G02*
X69800001Y-47900000I-249999J0D01*
G01*
X69149999Y-47900000D01*
G75*
G02*
X68900000Y-47650001I0J249999D01*
G01*
X68900000Y-46349999D01*
G75*
G02*
X69149999Y-46100000I249999J0D01*
G01*
X69800001Y-46100000D01*
G75*
G02*
X70050000Y-46349999I0J-249999D01*
G01*
G37*
G36*
G01*
X73000000Y-46349999D02*
X73000000Y-47650001D01*
G75*
G02*
X72750001Y-47900000I-249999J0D01*
G01*
X72099999Y-47900000D01*
G75*
G02*
X71850000Y-47650001I0J249999D01*
G01*
X71850000Y-46349999D01*
G75*
G02*
X72099999Y-46100000I249999J0D01*
G01*
X72750001Y-46100000D01*
G75*
G02*
X73000000Y-46349999I0J-249999D01*
G01*
G37*
D12*
X105000000Y-60000000D03*
X105000000Y-40000000D03*
X45000000Y-50000000D03*
D13*
X83500000Y-47500000D03*
X81500000Y-48450000D03*
X81500000Y-46550000D03*
D14*
X77500000Y-46500000D03*
X78450000Y-48500000D03*
X76550000Y-48500000D03*
D13*
X91500000Y-47500000D03*
X93500000Y-46550000D03*
X93500000Y-48450000D03*
D15*
X57580000Y-40000000D03*
D16*
X52500000Y-40000000D03*
D15*
X52420000Y-60000000D03*
D16*
X57500000Y-60000000D03*
D17*
X69350000Y-52500000D03*
X72650000Y-52500000D03*
D18*
X61511199Y-52616200D03*
X61511199Y-47383800D03*
D19*
X57955199Y-51854200D03*
X57955199Y-50000000D03*
X57955199Y-48145800D03*
X65067199Y-48145800D03*
X65067199Y-50000000D03*
X65067199Y-51854200D03*
M02*
