G04 #@! TF.GenerationSoftware,KiCad,Pcbnew,5.1.10-88a1d61d58~90~ubuntu21.04.1*
G04 #@! TF.CreationDate,2021-08-24T09:46:03+02:00*
G04 #@! TF.ProjectId,Detector_SMD_AD,44657465-6374-46f7-925f-534d445f4144,rev?*
G04 #@! TF.SameCoordinates,Original*
G04 #@! TF.FileFunction,Copper,L2,Bot*
G04 #@! TF.FilePolarity,Positive*
%FSLAX46Y46*%
G04 Gerber Fmt 4.6, Leading zero omitted, Abs format (unit mm)*
G04 Created by KiCad (PCBNEW 5.1.10-88a1d61d58~90~ubuntu21.04.1) date 2021-08-24 09:46:03*
%MOMM*%
%LPD*%
G01*
G04 APERTURE LIST*
G04 #@! TA.AperFunction,ComponentPad*
%ADD10O,1.700000X1.700000*%
G04 #@! TD*
G04 #@! TA.AperFunction,ComponentPad*
%ADD11R,1.700000X1.700000*%
G04 #@! TD*
G04 #@! TA.AperFunction,ComponentPad*
%ADD12C,3.000000*%
G04 #@! TD*
G04 #@! TA.AperFunction,ComponentPad*
%ADD13R,3.000000X3.000000*%
G04 #@! TD*
G04 #@! TA.AperFunction,ViaPad*
%ADD14C,0.800000*%
G04 #@! TD*
G04 #@! TA.AperFunction,Conductor*
%ADD15C,0.254000*%
G04 #@! TD*
G04 #@! TA.AperFunction,Conductor*
%ADD16C,0.100000*%
G04 #@! TD*
G04 APERTURE END LIST*
D10*
X107000000Y-53830000D03*
X107000000Y-51290000D03*
X107000000Y-48750000D03*
D11*
X107000000Y-46210000D03*
D12*
X57580000Y-40000000D03*
D13*
X52500000Y-40000000D03*
D12*
X52420000Y-60000000D03*
D13*
X57500000Y-60000000D03*
D14*
X94000000Y-53000000D03*
X90000000Y-50000000D03*
X97790000Y-47625000D03*
D15*
X109340000Y-57373000D02*
X99250603Y-57373000D01*
X99201437Y-57339334D01*
X99193331Y-57334952D01*
X98762527Y-57105890D01*
X98707233Y-57083099D01*
X98652240Y-57059529D01*
X98643437Y-57056804D01*
X98176347Y-56915781D01*
X98117653Y-56904159D01*
X98059156Y-56891725D01*
X98049991Y-56890762D01*
X97564405Y-56843150D01*
X97564402Y-56843150D01*
X97532419Y-56840000D01*
X65127000Y-56840000D01*
X65127000Y-54186890D01*
X105558524Y-54186890D01*
X105603175Y-54334099D01*
X105728359Y-54596920D01*
X105902412Y-54830269D01*
X106118645Y-55025178D01*
X106368748Y-55174157D01*
X106643109Y-55271481D01*
X106873000Y-55150814D01*
X106873000Y-53957000D01*
X107127000Y-53957000D01*
X107127000Y-55150814D01*
X107356891Y-55271481D01*
X107631252Y-55174157D01*
X107881355Y-55025178D01*
X108097588Y-54830269D01*
X108271641Y-54596920D01*
X108396825Y-54334099D01*
X108441476Y-54186890D01*
X108320155Y-53957000D01*
X107127000Y-53957000D01*
X106873000Y-53957000D01*
X105679845Y-53957000D01*
X105558524Y-54186890D01*
X65127000Y-54186890D01*
X65127000Y-45360000D01*
X105511928Y-45360000D01*
X105511928Y-47060000D01*
X105524188Y-47184482D01*
X105560498Y-47304180D01*
X105619463Y-47414494D01*
X105698815Y-47511185D01*
X105795506Y-47590537D01*
X105905820Y-47649502D01*
X105978380Y-47671513D01*
X105846525Y-47803368D01*
X105684010Y-48046589D01*
X105572068Y-48316842D01*
X105515000Y-48603740D01*
X105515000Y-48896260D01*
X105572068Y-49183158D01*
X105684010Y-49453411D01*
X105846525Y-49696632D01*
X106053368Y-49903475D01*
X106227760Y-50020000D01*
X106053368Y-50136525D01*
X105846525Y-50343368D01*
X105684010Y-50586589D01*
X105572068Y-50856842D01*
X105515000Y-51143740D01*
X105515000Y-51436260D01*
X105572068Y-51723158D01*
X105684010Y-51993411D01*
X105846525Y-52236632D01*
X106053368Y-52443475D01*
X106235534Y-52565195D01*
X106118645Y-52634822D01*
X105902412Y-52829731D01*
X105728359Y-53063080D01*
X105603175Y-53325901D01*
X105558524Y-53473110D01*
X105679845Y-53703000D01*
X106873000Y-53703000D01*
X106873000Y-53683000D01*
X107127000Y-53683000D01*
X107127000Y-53703000D01*
X108320155Y-53703000D01*
X108441476Y-53473110D01*
X108396825Y-53325901D01*
X108271641Y-53063080D01*
X108097588Y-52829731D01*
X107881355Y-52634822D01*
X107764466Y-52565195D01*
X107946632Y-52443475D01*
X108153475Y-52236632D01*
X108315990Y-51993411D01*
X108427932Y-51723158D01*
X108485000Y-51436260D01*
X108485000Y-51143740D01*
X108427932Y-50856842D01*
X108315990Y-50586589D01*
X108153475Y-50343368D01*
X107946632Y-50136525D01*
X107772240Y-50020000D01*
X107946632Y-49903475D01*
X108153475Y-49696632D01*
X108315990Y-49453411D01*
X108427932Y-49183158D01*
X108485000Y-48896260D01*
X108485000Y-48603740D01*
X108427932Y-48316842D01*
X108315990Y-48046589D01*
X108153475Y-47803368D01*
X108021620Y-47671513D01*
X108094180Y-47649502D01*
X108204494Y-47590537D01*
X108301185Y-47511185D01*
X108380537Y-47414494D01*
X108439502Y-47304180D01*
X108475812Y-47184482D01*
X108488072Y-47060000D01*
X108488072Y-45360000D01*
X108475812Y-45235518D01*
X108439502Y-45115820D01*
X108380537Y-45005506D01*
X108301185Y-44908815D01*
X108204494Y-44829463D01*
X108094180Y-44770498D01*
X107974482Y-44734188D01*
X107850000Y-44721928D01*
X106150000Y-44721928D01*
X106025518Y-44734188D01*
X105905820Y-44770498D01*
X105795506Y-44829463D01*
X105698815Y-44908815D01*
X105619463Y-45005506D01*
X105560498Y-45115820D01*
X105524188Y-45235518D01*
X105511928Y-45360000D01*
X65127000Y-45360000D01*
X65127000Y-43160000D01*
X97532419Y-43160000D01*
X97561718Y-43157114D01*
X97577271Y-43157223D01*
X97586442Y-43156323D01*
X98071684Y-43105322D01*
X98130247Y-43093301D01*
X98189040Y-43082086D01*
X98197862Y-43079422D01*
X98663956Y-42935142D01*
X98719086Y-42911967D01*
X98774565Y-42889553D01*
X98782701Y-42885226D01*
X99211894Y-42653162D01*
X99250681Y-42627000D01*
X109340001Y-42627000D01*
X109340000Y-57373000D01*
G04 #@! TA.AperFunction,Conductor*
D16*
G36*
X109340000Y-57373000D02*
G01*
X99250603Y-57373000D01*
X99201437Y-57339334D01*
X99193331Y-57334952D01*
X98762527Y-57105890D01*
X98707233Y-57083099D01*
X98652240Y-57059529D01*
X98643437Y-57056804D01*
X98176347Y-56915781D01*
X98117653Y-56904159D01*
X98059156Y-56891725D01*
X98049991Y-56890762D01*
X97564405Y-56843150D01*
X97564402Y-56843150D01*
X97532419Y-56840000D01*
X65127000Y-56840000D01*
X65127000Y-54186890D01*
X105558524Y-54186890D01*
X105603175Y-54334099D01*
X105728359Y-54596920D01*
X105902412Y-54830269D01*
X106118645Y-55025178D01*
X106368748Y-55174157D01*
X106643109Y-55271481D01*
X106873000Y-55150814D01*
X106873000Y-53957000D01*
X107127000Y-53957000D01*
X107127000Y-55150814D01*
X107356891Y-55271481D01*
X107631252Y-55174157D01*
X107881355Y-55025178D01*
X108097588Y-54830269D01*
X108271641Y-54596920D01*
X108396825Y-54334099D01*
X108441476Y-54186890D01*
X108320155Y-53957000D01*
X107127000Y-53957000D01*
X106873000Y-53957000D01*
X105679845Y-53957000D01*
X105558524Y-54186890D01*
X65127000Y-54186890D01*
X65127000Y-45360000D01*
X105511928Y-45360000D01*
X105511928Y-47060000D01*
X105524188Y-47184482D01*
X105560498Y-47304180D01*
X105619463Y-47414494D01*
X105698815Y-47511185D01*
X105795506Y-47590537D01*
X105905820Y-47649502D01*
X105978380Y-47671513D01*
X105846525Y-47803368D01*
X105684010Y-48046589D01*
X105572068Y-48316842D01*
X105515000Y-48603740D01*
X105515000Y-48896260D01*
X105572068Y-49183158D01*
X105684010Y-49453411D01*
X105846525Y-49696632D01*
X106053368Y-49903475D01*
X106227760Y-50020000D01*
X106053368Y-50136525D01*
X105846525Y-50343368D01*
X105684010Y-50586589D01*
X105572068Y-50856842D01*
X105515000Y-51143740D01*
X105515000Y-51436260D01*
X105572068Y-51723158D01*
X105684010Y-51993411D01*
X105846525Y-52236632D01*
X106053368Y-52443475D01*
X106235534Y-52565195D01*
X106118645Y-52634822D01*
X105902412Y-52829731D01*
X105728359Y-53063080D01*
X105603175Y-53325901D01*
X105558524Y-53473110D01*
X105679845Y-53703000D01*
X106873000Y-53703000D01*
X106873000Y-53683000D01*
X107127000Y-53683000D01*
X107127000Y-53703000D01*
X108320155Y-53703000D01*
X108441476Y-53473110D01*
X108396825Y-53325901D01*
X108271641Y-53063080D01*
X108097588Y-52829731D01*
X107881355Y-52634822D01*
X107764466Y-52565195D01*
X107946632Y-52443475D01*
X108153475Y-52236632D01*
X108315990Y-51993411D01*
X108427932Y-51723158D01*
X108485000Y-51436260D01*
X108485000Y-51143740D01*
X108427932Y-50856842D01*
X108315990Y-50586589D01*
X108153475Y-50343368D01*
X107946632Y-50136525D01*
X107772240Y-50020000D01*
X107946632Y-49903475D01*
X108153475Y-49696632D01*
X108315990Y-49453411D01*
X108427932Y-49183158D01*
X108485000Y-48896260D01*
X108485000Y-48603740D01*
X108427932Y-48316842D01*
X108315990Y-48046589D01*
X108153475Y-47803368D01*
X108021620Y-47671513D01*
X108094180Y-47649502D01*
X108204494Y-47590537D01*
X108301185Y-47511185D01*
X108380537Y-47414494D01*
X108439502Y-47304180D01*
X108475812Y-47184482D01*
X108488072Y-47060000D01*
X108488072Y-45360000D01*
X108475812Y-45235518D01*
X108439502Y-45115820D01*
X108380537Y-45005506D01*
X108301185Y-44908815D01*
X108204494Y-44829463D01*
X108094180Y-44770498D01*
X107974482Y-44734188D01*
X107850000Y-44721928D01*
X106150000Y-44721928D01*
X106025518Y-44734188D01*
X105905820Y-44770498D01*
X105795506Y-44829463D01*
X105698815Y-44908815D01*
X105619463Y-45005506D01*
X105560498Y-45115820D01*
X105524188Y-45235518D01*
X105511928Y-45360000D01*
X65127000Y-45360000D01*
X65127000Y-43160000D01*
X97532419Y-43160000D01*
X97561718Y-43157114D01*
X97577271Y-43157223D01*
X97586442Y-43156323D01*
X98071684Y-43105322D01*
X98130247Y-43093301D01*
X98189040Y-43082086D01*
X98197862Y-43079422D01*
X98663956Y-42935142D01*
X98719086Y-42911967D01*
X98774565Y-42889553D01*
X98782701Y-42885226D01*
X99211894Y-42653162D01*
X99250681Y-42627000D01*
X109340001Y-42627000D01*
X109340000Y-57373000D01*
G37*
G04 #@! TD.AperFunction*
M02*
