G04 #@! TF.GenerationSoftware,KiCad,Pcbnew,5.1.10-88a1d61d58~90~ubuntu21.04.1*
G04 #@! TF.CreationDate,2021-08-24T09:46:03+02:00*
G04 #@! TF.ProjectId,Detector_SMD_AD,44657465-6374-46f7-925f-534d445f4144,rev?*
G04 #@! TF.SameCoordinates,Original*
G04 #@! TF.FileFunction,Copper,L1,Top*
G04 #@! TF.FilePolarity,Positive*
%FSLAX46Y46*%
G04 Gerber Fmt 4.6, Leading zero omitted, Abs format (unit mm)*
G04 Created by KiCad (PCBNEW 5.1.10-88a1d61d58~90~ubuntu21.04.1) date 2021-08-24 09:46:03*
%MOMM*%
%LPD*%
G01*
G04 APERTURE LIST*
G04 #@! TA.AperFunction,ComponentPad*
%ADD10O,1.700000X1.700000*%
G04 #@! TD*
G04 #@! TA.AperFunction,ComponentPad*
%ADD11R,1.700000X1.700000*%
G04 #@! TD*
G04 #@! TA.AperFunction,SMDPad,CuDef*
%ADD12R,0.900000X0.800000*%
G04 #@! TD*
G04 #@! TA.AperFunction,SMDPad,CuDef*
%ADD13R,0.800000X0.900000*%
G04 #@! TD*
G04 #@! TA.AperFunction,ComponentPad*
%ADD14C,3.000000*%
G04 #@! TD*
G04 #@! TA.AperFunction,ComponentPad*
%ADD15R,3.000000X3.000000*%
G04 #@! TD*
G04 #@! TA.AperFunction,SMDPad,CuDef*
%ADD16R,0.900000X1.200000*%
G04 #@! TD*
G04 #@! TA.AperFunction,SMDPad,CuDef*
%ADD17R,3.048000X2.540000*%
G04 #@! TD*
G04 #@! TA.AperFunction,SMDPad,CuDef*
%ADD18R,1.524000X1.270000*%
G04 #@! TD*
G04 #@! TA.AperFunction,ViaPad*
%ADD19C,0.800000*%
G04 #@! TD*
G04 #@! TA.AperFunction,Conductor*
%ADD20C,0.250000*%
G04 #@! TD*
G04 #@! TA.AperFunction,Conductor*
%ADD21C,3.000000*%
G04 #@! TD*
G04 #@! TA.AperFunction,Conductor*
%ADD22C,0.254000*%
G04 #@! TD*
G04 #@! TA.AperFunction,Conductor*
%ADD23C,0.100000*%
G04 #@! TD*
G04 APERTURE END LIST*
D10*
X107000000Y-53830000D03*
X107000000Y-51290000D03*
X107000000Y-48750000D03*
D11*
X107000000Y-46210000D03*
G04 #@! TA.AperFunction,SMDPad,CuDef*
G36*
G01*
X86874999Y-48400000D02*
X88125001Y-48400000D01*
G75*
G02*
X88375000Y-48649999I0J-249999D01*
G01*
X88375000Y-49275001D01*
G75*
G02*
X88125001Y-49525000I-249999J0D01*
G01*
X86874999Y-49525000D01*
G75*
G02*
X86625000Y-49275001I0J249999D01*
G01*
X86625000Y-48649999D01*
G75*
G02*
X86874999Y-48400000I249999J0D01*
G01*
G37*
G04 #@! TD.AperFunction*
G04 #@! TA.AperFunction,SMDPad,CuDef*
G36*
G01*
X86874999Y-45475000D02*
X88125001Y-45475000D01*
G75*
G02*
X88375000Y-45724999I0J-249999D01*
G01*
X88375000Y-46350001D01*
G75*
G02*
X88125001Y-46600000I-249999J0D01*
G01*
X86874999Y-46600000D01*
G75*
G02*
X86625000Y-46350001I0J249999D01*
G01*
X86625000Y-45724999D01*
G75*
G02*
X86874999Y-45475000I249999J0D01*
G01*
G37*
G04 #@! TD.AperFunction*
G04 #@! TA.AperFunction,SMDPad,CuDef*
G36*
G01*
X95374999Y-52987500D02*
X96625001Y-52987500D01*
G75*
G02*
X96875000Y-53237499I0J-249999D01*
G01*
X96875000Y-53862501D01*
G75*
G02*
X96625001Y-54112500I-249999J0D01*
G01*
X95374999Y-54112500D01*
G75*
G02*
X95125000Y-53862501I0J249999D01*
G01*
X95125000Y-53237499D01*
G75*
G02*
X95374999Y-52987500I249999J0D01*
G01*
G37*
G04 #@! TD.AperFunction*
G04 #@! TA.AperFunction,SMDPad,CuDef*
G36*
G01*
X95374999Y-50062500D02*
X96625001Y-50062500D01*
G75*
G02*
X96875000Y-50312499I0J-249999D01*
G01*
X96875000Y-50937501D01*
G75*
G02*
X96625001Y-51187500I-249999J0D01*
G01*
X95374999Y-51187500D01*
G75*
G02*
X95125000Y-50937501I0J249999D01*
G01*
X95125000Y-50312499D01*
G75*
G02*
X95374999Y-50062500I249999J0D01*
G01*
G37*
G04 #@! TD.AperFunction*
G04 #@! TA.AperFunction,SMDPad,CuDef*
G36*
G01*
X76874999Y-53400000D02*
X78125001Y-53400000D01*
G75*
G02*
X78375000Y-53649999I0J-249999D01*
G01*
X78375000Y-54275001D01*
G75*
G02*
X78125001Y-54525000I-249999J0D01*
G01*
X76874999Y-54525000D01*
G75*
G02*
X76625000Y-54275001I0J249999D01*
G01*
X76625000Y-53649999D01*
G75*
G02*
X76874999Y-53400000I249999J0D01*
G01*
G37*
G04 #@! TD.AperFunction*
G04 #@! TA.AperFunction,SMDPad,CuDef*
G36*
G01*
X76874999Y-50475000D02*
X78125001Y-50475000D01*
G75*
G02*
X78375000Y-50724999I0J-249999D01*
G01*
X78375000Y-51350001D01*
G75*
G02*
X78125001Y-51600000I-249999J0D01*
G01*
X76874999Y-51600000D01*
G75*
G02*
X76625000Y-51350001I0J249999D01*
G01*
X76625000Y-50724999D01*
G75*
G02*
X76874999Y-50475000I249999J0D01*
G01*
G37*
G04 #@! TD.AperFunction*
G04 #@! TA.AperFunction,SMDPad,CuDef*
G36*
G01*
X87512500Y-51874999D02*
X87512500Y-53125001D01*
G75*
G02*
X87262501Y-53375000I-249999J0D01*
G01*
X86637499Y-53375000D01*
G75*
G02*
X86387500Y-53125001I0J249999D01*
G01*
X86387500Y-51874999D01*
G75*
G02*
X86637499Y-51625000I249999J0D01*
G01*
X87262501Y-51625000D01*
G75*
G02*
X87512500Y-51874999I0J-249999D01*
G01*
G37*
G04 #@! TD.AperFunction*
G04 #@! TA.AperFunction,SMDPad,CuDef*
G36*
G01*
X90437500Y-51874999D02*
X90437500Y-53125001D01*
G75*
G02*
X90187501Y-53375000I-249999J0D01*
G01*
X89562499Y-53375000D01*
G75*
G02*
X89312500Y-53125001I0J249999D01*
G01*
X89312500Y-51874999D01*
G75*
G02*
X89562499Y-51625000I249999J0D01*
G01*
X90187501Y-51625000D01*
G75*
G02*
X90437500Y-51874999I0J-249999D01*
G01*
G37*
G04 #@! TD.AperFunction*
G04 #@! TA.AperFunction,SMDPad,CuDef*
G36*
G01*
X81600000Y-51849999D02*
X81600000Y-53150001D01*
G75*
G02*
X81350001Y-53400000I-249999J0D01*
G01*
X80699999Y-53400000D01*
G75*
G02*
X80450000Y-53150001I0J249999D01*
G01*
X80450000Y-51849999D01*
G75*
G02*
X80699999Y-51600000I249999J0D01*
G01*
X81350001Y-51600000D01*
G75*
G02*
X81600000Y-51849999I0J-249999D01*
G01*
G37*
G04 #@! TD.AperFunction*
G04 #@! TA.AperFunction,SMDPad,CuDef*
G36*
G01*
X84550000Y-51849999D02*
X84550000Y-53150001D01*
G75*
G02*
X84300001Y-53400000I-249999J0D01*
G01*
X83649999Y-53400000D01*
G75*
G02*
X83400000Y-53150001I0J249999D01*
G01*
X83400000Y-51849999D01*
G75*
G02*
X83649999Y-51600000I249999J0D01*
G01*
X84300001Y-51600000D01*
G75*
G02*
X84550000Y-51849999I0J-249999D01*
G01*
G37*
G04 #@! TD.AperFunction*
G04 #@! TA.AperFunction,SMDPad,CuDef*
G36*
G01*
X70050000Y-46349999D02*
X70050000Y-47650001D01*
G75*
G02*
X69800001Y-47900000I-249999J0D01*
G01*
X69149999Y-47900000D01*
G75*
G02*
X68900000Y-47650001I0J249999D01*
G01*
X68900000Y-46349999D01*
G75*
G02*
X69149999Y-46100000I249999J0D01*
G01*
X69800001Y-46100000D01*
G75*
G02*
X70050000Y-46349999I0J-249999D01*
G01*
G37*
G04 #@! TD.AperFunction*
G04 #@! TA.AperFunction,SMDPad,CuDef*
G36*
G01*
X73000000Y-46349999D02*
X73000000Y-47650001D01*
G75*
G02*
X72750001Y-47900000I-249999J0D01*
G01*
X72099999Y-47900000D01*
G75*
G02*
X71850000Y-47650001I0J249999D01*
G01*
X71850000Y-46349999D01*
G75*
G02*
X72099999Y-46100000I249999J0D01*
G01*
X72750001Y-46100000D01*
G75*
G02*
X73000000Y-46349999I0J-249999D01*
G01*
G37*
G04 #@! TD.AperFunction*
D12*
X83500000Y-47500000D03*
X81500000Y-48450000D03*
X81500000Y-46550000D03*
D13*
X77500000Y-46500000D03*
X78450000Y-48500000D03*
X76550000Y-48500000D03*
D12*
X91500000Y-47500000D03*
X93500000Y-46550000D03*
X93500000Y-48450000D03*
D14*
X57580000Y-40000000D03*
D15*
X52500000Y-40000000D03*
D14*
X52420000Y-60000000D03*
D15*
X57500000Y-60000000D03*
D16*
X69350000Y-52500000D03*
X72650000Y-52500000D03*
D17*
X61511199Y-52616200D03*
X61511199Y-47383800D03*
D18*
X57955199Y-51854200D03*
X57955199Y-50000000D03*
X57955199Y-48145800D03*
X65067199Y-48145800D03*
X65067199Y-50000000D03*
X65067199Y-51854200D03*
D19*
X94000000Y-53000000D03*
X90000000Y-50000000D03*
X97790000Y-47625000D03*
D20*
X72425000Y-47000000D02*
X72425000Y-49425000D01*
X72650000Y-49650000D02*
X72650000Y-52500000D01*
X72425000Y-49425000D02*
X72650000Y-49650000D01*
X72650000Y-52500000D02*
X73750000Y-52500000D01*
X75212500Y-53962500D02*
X77500000Y-53962500D01*
X73750000Y-52500000D02*
X75212500Y-53962500D01*
X65067199Y-51854200D02*
X66854200Y-51854200D01*
X67500000Y-52500000D02*
X69350000Y-52500000D01*
X66854200Y-51854200D02*
X67500000Y-52500000D01*
X83975000Y-52500000D02*
X86950000Y-52500000D01*
X87500000Y-48962500D02*
X87500000Y-50000000D01*
X86950000Y-50550000D02*
X86950000Y-52500000D01*
X87500000Y-50000000D02*
X86950000Y-50550000D01*
X83962500Y-48962500D02*
X87500000Y-48962500D01*
X83500000Y-48500000D02*
X83962500Y-48962500D01*
X83500000Y-47500000D02*
X83500000Y-48500000D01*
X100000000Y-51290000D02*
X98250000Y-53040000D01*
X98250000Y-53040000D02*
X98250000Y-54750000D01*
X98250000Y-54750000D02*
X97500000Y-55500000D01*
X97500000Y-55500000D02*
X87750000Y-55500000D01*
X86950000Y-54700000D02*
X86950000Y-52500000D01*
X87750000Y-55500000D02*
X86950000Y-54700000D01*
X107000000Y-51290000D02*
X100000000Y-51290000D01*
X91500000Y-47500000D02*
X95250000Y-47500000D01*
X95250000Y-47500000D02*
X96000000Y-48250000D01*
X96000000Y-49250000D02*
X96000000Y-51175000D01*
X96000000Y-48250000D02*
X96000000Y-49250000D01*
X96500000Y-48750000D02*
X96000000Y-49250000D01*
X99915000Y-48750000D02*
X96500000Y-48750000D01*
X99915000Y-48750000D02*
X107000000Y-48750000D01*
X87500000Y-46037500D02*
X91287500Y-46037500D01*
X91800000Y-46550000D02*
X93500000Y-46550000D01*
X91287500Y-46037500D02*
X91800000Y-46550000D01*
X96700000Y-46550000D02*
X93500000Y-46550000D01*
X97040000Y-46210000D02*
X96700000Y-46550000D01*
X107000000Y-46210000D02*
X97040000Y-46210000D01*
X93500000Y-51000000D02*
X93500000Y-48450000D01*
X92000000Y-52500000D02*
X93500000Y-51000000D01*
X89875000Y-52500000D02*
X92000000Y-52500000D01*
X77500000Y-50900000D02*
X77500000Y-51587500D01*
X81450000Y-46500000D02*
X81500000Y-46550000D01*
X77500000Y-46500000D02*
X81450000Y-46500000D01*
X77500000Y-51037500D02*
X76500000Y-50037500D01*
X76500000Y-48550000D02*
X76550000Y-48500000D01*
X76500000Y-50037500D02*
X76500000Y-48550000D01*
X76550000Y-46950000D02*
X76550000Y-48500000D01*
X77000000Y-46500000D02*
X76550000Y-46950000D01*
X77500000Y-46500000D02*
X77000000Y-46500000D01*
D21*
X61511199Y-52616200D02*
X61511199Y-58488801D01*
X60000000Y-60000000D02*
X57500000Y-60000000D01*
X61511199Y-58488801D02*
X60000000Y-60000000D01*
X61511199Y-47383800D02*
X61511199Y-41511199D01*
X60000000Y-40000000D02*
X57580000Y-40000000D01*
X61511199Y-41511199D02*
X60000000Y-40000000D01*
X52420000Y-40080000D02*
X52500000Y-40000000D01*
X52420000Y-60000000D02*
X52420000Y-40080000D01*
D22*
X109340000Y-57373000D02*
X99250603Y-57373000D01*
X99201437Y-57339334D01*
X99193331Y-57334952D01*
X98762527Y-57105890D01*
X98707233Y-57083099D01*
X98652240Y-57059529D01*
X98643437Y-57056804D01*
X98176347Y-56915781D01*
X98117653Y-56904159D01*
X98059156Y-56891725D01*
X98049991Y-56890762D01*
X97564405Y-56843150D01*
X97564402Y-56843150D01*
X97532419Y-56840000D01*
X65032419Y-56840000D01*
X65000000Y-56836807D01*
X64967581Y-56840000D01*
X64915578Y-56845122D01*
X64138199Y-54512986D01*
X64138199Y-54132491D01*
X64145892Y-54107131D01*
X64167652Y-53886200D01*
X64167652Y-53111049D01*
X64180717Y-53115012D01*
X64305199Y-53127272D01*
X65829199Y-53127272D01*
X65953681Y-53115012D01*
X66073379Y-53078702D01*
X66183693Y-53019737D01*
X66280384Y-52940385D01*
X66359736Y-52843694D01*
X66418701Y-52733380D01*
X66454854Y-52614200D01*
X66539399Y-52614200D01*
X66936200Y-53011002D01*
X66959999Y-53040001D01*
X66988997Y-53063799D01*
X67075723Y-53134974D01*
X67176770Y-53188985D01*
X67207753Y-53205546D01*
X67351014Y-53249003D01*
X67462667Y-53260000D01*
X67462676Y-53260000D01*
X67499999Y-53263676D01*
X67537322Y-53260000D01*
X68284962Y-53260000D01*
X68310498Y-53344180D01*
X68369463Y-53454494D01*
X68448815Y-53551185D01*
X68545506Y-53630537D01*
X68655820Y-53689502D01*
X68775518Y-53725812D01*
X68900000Y-53738072D01*
X69800000Y-53738072D01*
X69924482Y-53725812D01*
X70044180Y-53689502D01*
X70154494Y-53630537D01*
X70251185Y-53551185D01*
X70330537Y-53454494D01*
X70389502Y-53344180D01*
X70425812Y-53224482D01*
X70438072Y-53100000D01*
X70438072Y-51900000D01*
X70425812Y-51775518D01*
X70389502Y-51655820D01*
X70330537Y-51545506D01*
X70251185Y-51448815D01*
X70154494Y-51369463D01*
X70044180Y-51310498D01*
X69924482Y-51274188D01*
X69800000Y-51261928D01*
X68900000Y-51261928D01*
X68775518Y-51274188D01*
X68655820Y-51310498D01*
X68545506Y-51369463D01*
X68448815Y-51448815D01*
X68369463Y-51545506D01*
X68310498Y-51655820D01*
X68284962Y-51740000D01*
X67814802Y-51740000D01*
X67418003Y-51343202D01*
X67394201Y-51314199D01*
X67278476Y-51219226D01*
X67146447Y-51148654D01*
X67003186Y-51105197D01*
X66891533Y-51094200D01*
X66891522Y-51094200D01*
X66854200Y-51090524D01*
X66816878Y-51094200D01*
X66454854Y-51094200D01*
X66418701Y-50975020D01*
X66393087Y-50927100D01*
X66418701Y-50879180D01*
X66455011Y-50759482D01*
X66467271Y-50635000D01*
X66467271Y-49365000D01*
X66455011Y-49240518D01*
X66418701Y-49120820D01*
X66393087Y-49072900D01*
X66418701Y-49024980D01*
X66455011Y-48905282D01*
X66467271Y-48780800D01*
X66464199Y-48431550D01*
X66305449Y-48272800D01*
X65194199Y-48272800D01*
X65194199Y-48292800D01*
X64940199Y-48292800D01*
X64940199Y-48272800D01*
X64920199Y-48272800D01*
X64920199Y-48018800D01*
X64940199Y-48018800D01*
X64940199Y-47034550D01*
X65194199Y-47034550D01*
X65194199Y-48018800D01*
X66305449Y-48018800D01*
X66424249Y-47900000D01*
X68261928Y-47900000D01*
X68274188Y-48024482D01*
X68310498Y-48144180D01*
X68369463Y-48254494D01*
X68448815Y-48351185D01*
X68545506Y-48430537D01*
X68655820Y-48489502D01*
X68775518Y-48525812D01*
X68900000Y-48538072D01*
X69189250Y-48535000D01*
X69348000Y-48376250D01*
X69348000Y-47127000D01*
X69602000Y-47127000D01*
X69602000Y-48376250D01*
X69760750Y-48535000D01*
X70050000Y-48538072D01*
X70174482Y-48525812D01*
X70294180Y-48489502D01*
X70404494Y-48430537D01*
X70501185Y-48351185D01*
X70580537Y-48254494D01*
X70639502Y-48144180D01*
X70675812Y-48024482D01*
X70688072Y-47900000D01*
X70685000Y-47285750D01*
X70526250Y-47127000D01*
X69602000Y-47127000D01*
X69348000Y-47127000D01*
X68423750Y-47127000D01*
X68265000Y-47285750D01*
X68261928Y-47900000D01*
X66424249Y-47900000D01*
X66464199Y-47860050D01*
X66467271Y-47510800D01*
X66455011Y-47386318D01*
X66418701Y-47266620D01*
X66359736Y-47156306D01*
X66280384Y-47059615D01*
X66183693Y-46980263D01*
X66073379Y-46921298D01*
X65953681Y-46884988D01*
X65829199Y-46872728D01*
X65352949Y-46875800D01*
X65194199Y-47034550D01*
X64940199Y-47034550D01*
X64781449Y-46875800D01*
X64305199Y-46872728D01*
X64180717Y-46884988D01*
X64167652Y-46888951D01*
X64167652Y-46113800D01*
X64166293Y-46100000D01*
X68261928Y-46100000D01*
X68265000Y-46714250D01*
X68423750Y-46873000D01*
X69348000Y-46873000D01*
X69348000Y-45623750D01*
X69602000Y-45623750D01*
X69602000Y-46873000D01*
X70526250Y-46873000D01*
X70685000Y-46714250D01*
X70686821Y-46349999D01*
X71211928Y-46349999D01*
X71211928Y-47650001D01*
X71228992Y-47823255D01*
X71279528Y-47989851D01*
X71361595Y-48143387D01*
X71472038Y-48277962D01*
X71606613Y-48388405D01*
X71665001Y-48419614D01*
X71665001Y-49387668D01*
X71661324Y-49425000D01*
X71665001Y-49462333D01*
X71675998Y-49573986D01*
X71679339Y-49585000D01*
X71719454Y-49717246D01*
X71790026Y-49849276D01*
X71861201Y-49936002D01*
X71885000Y-49965001D01*
X71890000Y-49969104D01*
X71890001Y-51345680D01*
X71845506Y-51369463D01*
X71748815Y-51448815D01*
X71669463Y-51545506D01*
X71610498Y-51655820D01*
X71574188Y-51775518D01*
X71561928Y-51900000D01*
X71561928Y-53100000D01*
X71574188Y-53224482D01*
X71610498Y-53344180D01*
X71669463Y-53454494D01*
X71748815Y-53551185D01*
X71845506Y-53630537D01*
X71955820Y-53689502D01*
X72075518Y-53725812D01*
X72200000Y-53738072D01*
X73100000Y-53738072D01*
X73224482Y-53725812D01*
X73344180Y-53689502D01*
X73454494Y-53630537D01*
X73551185Y-53551185D01*
X73630156Y-53454958D01*
X74648701Y-54473503D01*
X74672499Y-54502501D01*
X74788224Y-54597474D01*
X74920253Y-54668046D01*
X75063514Y-54711503D01*
X75175167Y-54722500D01*
X75175176Y-54722500D01*
X75212499Y-54726176D01*
X75249822Y-54722500D01*
X76112068Y-54722500D01*
X76136595Y-54768387D01*
X76247038Y-54902962D01*
X76381613Y-55013405D01*
X76535149Y-55095472D01*
X76701745Y-55146008D01*
X76874999Y-55163072D01*
X78125001Y-55163072D01*
X78298255Y-55146008D01*
X78464851Y-55095472D01*
X78618387Y-55013405D01*
X78752962Y-54902962D01*
X78863405Y-54768387D01*
X78945472Y-54614851D01*
X78996008Y-54448255D01*
X79013072Y-54275001D01*
X79013072Y-53649999D01*
X78996008Y-53476745D01*
X78972728Y-53400000D01*
X79811928Y-53400000D01*
X79824188Y-53524482D01*
X79860498Y-53644180D01*
X79919463Y-53754494D01*
X79998815Y-53851185D01*
X80095506Y-53930537D01*
X80205820Y-53989502D01*
X80325518Y-54025812D01*
X80450000Y-54038072D01*
X80739250Y-54035000D01*
X80898000Y-53876250D01*
X80898000Y-52627000D01*
X81152000Y-52627000D01*
X81152000Y-53876250D01*
X81310750Y-54035000D01*
X81600000Y-54038072D01*
X81724482Y-54025812D01*
X81844180Y-53989502D01*
X81954494Y-53930537D01*
X82051185Y-53851185D01*
X82130537Y-53754494D01*
X82189502Y-53644180D01*
X82225812Y-53524482D01*
X82238072Y-53400000D01*
X82235000Y-52785750D01*
X82076250Y-52627000D01*
X81152000Y-52627000D01*
X80898000Y-52627000D01*
X79973750Y-52627000D01*
X79815000Y-52785750D01*
X79811928Y-53400000D01*
X78972728Y-53400000D01*
X78945472Y-53310149D01*
X78863405Y-53156613D01*
X78752962Y-53022038D01*
X78618387Y-52911595D01*
X78464851Y-52829528D01*
X78298255Y-52778992D01*
X78125001Y-52761928D01*
X76874999Y-52761928D01*
X76701745Y-52778992D01*
X76535149Y-52829528D01*
X76381613Y-52911595D01*
X76247038Y-53022038D01*
X76136595Y-53156613D01*
X76112068Y-53202500D01*
X75527302Y-53202500D01*
X74313804Y-51989003D01*
X74290001Y-51959999D01*
X74174276Y-51865026D01*
X74042247Y-51794454D01*
X73898986Y-51750997D01*
X73787333Y-51740000D01*
X73787322Y-51740000D01*
X73750000Y-51736324D01*
X73714969Y-51739774D01*
X73689502Y-51655820D01*
X73630537Y-51545506D01*
X73551185Y-51448815D01*
X73454494Y-51369463D01*
X73410000Y-51345680D01*
X73410000Y-49687322D01*
X73413676Y-49649999D01*
X73410000Y-49612676D01*
X73410000Y-49612667D01*
X73399003Y-49501014D01*
X73355546Y-49357753D01*
X73284974Y-49225724D01*
X73190001Y-49109999D01*
X73185000Y-49105895D01*
X73185000Y-48419614D01*
X73243387Y-48388405D01*
X73377962Y-48277962D01*
X73488405Y-48143387D01*
X73538321Y-48050000D01*
X75511928Y-48050000D01*
X75511928Y-48950000D01*
X75524188Y-49074482D01*
X75560498Y-49194180D01*
X75619463Y-49304494D01*
X75698815Y-49401185D01*
X75740000Y-49434985D01*
X75740000Y-50000177D01*
X75736324Y-50037500D01*
X75740000Y-50074822D01*
X75740000Y-50074832D01*
X75750997Y-50186485D01*
X75772616Y-50257753D01*
X75794454Y-50329746D01*
X75865026Y-50461776D01*
X75876474Y-50475725D01*
X75959999Y-50577501D01*
X75989002Y-50601304D01*
X75998205Y-50610506D01*
X75986928Y-50724999D01*
X75986928Y-51350001D01*
X76003992Y-51523255D01*
X76054528Y-51689851D01*
X76136595Y-51843387D01*
X76247038Y-51977962D01*
X76381613Y-52088405D01*
X76535149Y-52170472D01*
X76701745Y-52221008D01*
X76874999Y-52238072D01*
X77104906Y-52238072D01*
X77207754Y-52293046D01*
X77351015Y-52336503D01*
X77500000Y-52351177D01*
X77648986Y-52336503D01*
X77792247Y-52293046D01*
X77895095Y-52238072D01*
X78125001Y-52238072D01*
X78298255Y-52221008D01*
X78464851Y-52170472D01*
X78618387Y-52088405D01*
X78752962Y-51977962D01*
X78863405Y-51843387D01*
X78945472Y-51689851D01*
X78972727Y-51600000D01*
X79811928Y-51600000D01*
X79815000Y-52214250D01*
X79973750Y-52373000D01*
X80898000Y-52373000D01*
X80898000Y-51123750D01*
X81152000Y-51123750D01*
X81152000Y-52373000D01*
X82076250Y-52373000D01*
X82235000Y-52214250D01*
X82238072Y-51600000D01*
X82225812Y-51475518D01*
X82189502Y-51355820D01*
X82130537Y-51245506D01*
X82051185Y-51148815D01*
X81954494Y-51069463D01*
X81844180Y-51010498D01*
X81724482Y-50974188D01*
X81600000Y-50961928D01*
X81310750Y-50965000D01*
X81152000Y-51123750D01*
X80898000Y-51123750D01*
X80739250Y-50965000D01*
X80450000Y-50961928D01*
X80325518Y-50974188D01*
X80205820Y-51010498D01*
X80095506Y-51069463D01*
X79998815Y-51148815D01*
X79919463Y-51245506D01*
X79860498Y-51355820D01*
X79824188Y-51475518D01*
X79811928Y-51600000D01*
X78972727Y-51600000D01*
X78996008Y-51523255D01*
X79013072Y-51350001D01*
X79013072Y-50724999D01*
X78996008Y-50551745D01*
X78945472Y-50385149D01*
X78863405Y-50231613D01*
X78752962Y-50097038D01*
X78618387Y-49986595D01*
X78464851Y-49904528D01*
X78298255Y-49853992D01*
X78125001Y-49836928D01*
X77374229Y-49836928D01*
X77260000Y-49722699D01*
X77260000Y-49504320D01*
X77304494Y-49480537D01*
X77401185Y-49401185D01*
X77480537Y-49304494D01*
X77500000Y-49268082D01*
X77519463Y-49304494D01*
X77598815Y-49401185D01*
X77695506Y-49480537D01*
X77805820Y-49539502D01*
X77925518Y-49575812D01*
X78050000Y-49588072D01*
X78164250Y-49585000D01*
X78323000Y-49426250D01*
X78323000Y-48627000D01*
X78577000Y-48627000D01*
X78577000Y-49426250D01*
X78735750Y-49585000D01*
X78850000Y-49588072D01*
X78974482Y-49575812D01*
X79094180Y-49539502D01*
X79204494Y-49480537D01*
X79301185Y-49401185D01*
X79380537Y-49304494D01*
X79439502Y-49194180D01*
X79475812Y-49074482D01*
X79488072Y-48950000D01*
X79486202Y-48850000D01*
X80411928Y-48850000D01*
X80424188Y-48974482D01*
X80460498Y-49094180D01*
X80519463Y-49204494D01*
X80598815Y-49301185D01*
X80695506Y-49380537D01*
X80805820Y-49439502D01*
X80925518Y-49475812D01*
X81050000Y-49488072D01*
X81214250Y-49485000D01*
X81373000Y-49326250D01*
X81373000Y-48577000D01*
X81627000Y-48577000D01*
X81627000Y-49326250D01*
X81785750Y-49485000D01*
X81950000Y-49488072D01*
X82074482Y-49475812D01*
X82194180Y-49439502D01*
X82304494Y-49380537D01*
X82401185Y-49301185D01*
X82480537Y-49204494D01*
X82539502Y-49094180D01*
X82575812Y-48974482D01*
X82588072Y-48850000D01*
X82585000Y-48735750D01*
X82426250Y-48577000D01*
X81627000Y-48577000D01*
X81373000Y-48577000D01*
X80573750Y-48577000D01*
X80415000Y-48735750D01*
X80411928Y-48850000D01*
X79486202Y-48850000D01*
X79485000Y-48785750D01*
X79326250Y-48627000D01*
X78577000Y-48627000D01*
X78323000Y-48627000D01*
X78303000Y-48627000D01*
X78303000Y-48373000D01*
X78323000Y-48373000D01*
X78323000Y-47573750D01*
X78577000Y-47573750D01*
X78577000Y-48373000D01*
X79326250Y-48373000D01*
X79485000Y-48214250D01*
X79488072Y-48050000D01*
X79475812Y-47925518D01*
X79439502Y-47805820D01*
X79380537Y-47695506D01*
X79301185Y-47598815D01*
X79204494Y-47519463D01*
X79094180Y-47460498D01*
X78974482Y-47424188D01*
X78850000Y-47411928D01*
X78735750Y-47415000D01*
X78577000Y-47573750D01*
X78323000Y-47573750D01*
X78238393Y-47489143D01*
X78254494Y-47480537D01*
X78351185Y-47401185D01*
X78430537Y-47304494D01*
X78454320Y-47260000D01*
X80495680Y-47260000D01*
X80519463Y-47304494D01*
X80598815Y-47401185D01*
X80695506Y-47480537D01*
X80731918Y-47500000D01*
X80695506Y-47519463D01*
X80598815Y-47598815D01*
X80519463Y-47695506D01*
X80460498Y-47805820D01*
X80424188Y-47925518D01*
X80411928Y-48050000D01*
X80415000Y-48164250D01*
X80573750Y-48323000D01*
X81373000Y-48323000D01*
X81373000Y-48303000D01*
X81627000Y-48303000D01*
X81627000Y-48323000D01*
X82426250Y-48323000D01*
X82510857Y-48238393D01*
X82519463Y-48254494D01*
X82598815Y-48351185D01*
X82695506Y-48430537D01*
X82740001Y-48454320D01*
X82740001Y-48462668D01*
X82736324Y-48500000D01*
X82740001Y-48537333D01*
X82750998Y-48648986D01*
X82758669Y-48674275D01*
X82794454Y-48792246D01*
X82865026Y-48924276D01*
X82926353Y-48999002D01*
X82960000Y-49040001D01*
X82988998Y-49063799D01*
X83398696Y-49473497D01*
X83422499Y-49502501D01*
X83538224Y-49597474D01*
X83670253Y-49668046D01*
X83813514Y-49711503D01*
X83925167Y-49722500D01*
X83925175Y-49722500D01*
X83962500Y-49726176D01*
X83999825Y-49722500D01*
X86112068Y-49722500D01*
X86136595Y-49768387D01*
X86247038Y-49902962D01*
X86381613Y-50013405D01*
X86399401Y-50022913D01*
X86368986Y-50059974D01*
X86315026Y-50125724D01*
X86267949Y-50213799D01*
X86244454Y-50257754D01*
X86200997Y-50401015D01*
X86190000Y-50512668D01*
X86190000Y-50512678D01*
X86186324Y-50550000D01*
X86190000Y-50587323D01*
X86190000Y-51112068D01*
X86144113Y-51136595D01*
X86009538Y-51247038D01*
X85899095Y-51381613D01*
X85817028Y-51535149D01*
X85766492Y-51701745D01*
X85762724Y-51740000D01*
X85177238Y-51740000D01*
X85171008Y-51676745D01*
X85120472Y-51510149D01*
X85038405Y-51356613D01*
X84927962Y-51222038D01*
X84793387Y-51111595D01*
X84639851Y-51029528D01*
X84473255Y-50978992D01*
X84300001Y-50961928D01*
X83649999Y-50961928D01*
X83476745Y-50978992D01*
X83310149Y-51029528D01*
X83156613Y-51111595D01*
X83022038Y-51222038D01*
X82911595Y-51356613D01*
X82829528Y-51510149D01*
X82778992Y-51676745D01*
X82761928Y-51849999D01*
X82761928Y-53150001D01*
X82778992Y-53323255D01*
X82829528Y-53489851D01*
X82911595Y-53643387D01*
X83022038Y-53777962D01*
X83156613Y-53888405D01*
X83310149Y-53970472D01*
X83476745Y-54021008D01*
X83649999Y-54038072D01*
X84300001Y-54038072D01*
X84473255Y-54021008D01*
X84639851Y-53970472D01*
X84793387Y-53888405D01*
X84927962Y-53777962D01*
X85038405Y-53643387D01*
X85120472Y-53489851D01*
X85171008Y-53323255D01*
X85177238Y-53260000D01*
X85762724Y-53260000D01*
X85766492Y-53298255D01*
X85817028Y-53464851D01*
X85899095Y-53618387D01*
X86009538Y-53752962D01*
X86144113Y-53863405D01*
X86190000Y-53887932D01*
X86190000Y-54662677D01*
X86186324Y-54700000D01*
X86190000Y-54737322D01*
X86190000Y-54737332D01*
X86200997Y-54848985D01*
X86234672Y-54959999D01*
X86244454Y-54992246D01*
X86315026Y-55124276D01*
X86354871Y-55172826D01*
X86409999Y-55240001D01*
X86439002Y-55263803D01*
X87186201Y-56011002D01*
X87209999Y-56040001D01*
X87325724Y-56134974D01*
X87457753Y-56205546D01*
X87601014Y-56249003D01*
X87712667Y-56260000D01*
X87712677Y-56260000D01*
X87750000Y-56263676D01*
X87787323Y-56260000D01*
X97462678Y-56260000D01*
X97500000Y-56263676D01*
X97537322Y-56260000D01*
X97537333Y-56260000D01*
X97648986Y-56249003D01*
X97792247Y-56205546D01*
X97924276Y-56134974D01*
X98040001Y-56040001D01*
X98063803Y-56010998D01*
X98761002Y-55313799D01*
X98790001Y-55290001D01*
X98884974Y-55174276D01*
X98955546Y-55042247D01*
X98999003Y-54898986D01*
X99010000Y-54787333D01*
X99010000Y-54787324D01*
X99013676Y-54750001D01*
X99010000Y-54712678D01*
X99010000Y-54186890D01*
X105558524Y-54186890D01*
X105603175Y-54334099D01*
X105728359Y-54596920D01*
X105902412Y-54830269D01*
X106118645Y-55025178D01*
X106368748Y-55174157D01*
X106643109Y-55271481D01*
X106873000Y-55150814D01*
X106873000Y-53957000D01*
X107127000Y-53957000D01*
X107127000Y-55150814D01*
X107356891Y-55271481D01*
X107631252Y-55174157D01*
X107881355Y-55025178D01*
X108097588Y-54830269D01*
X108271641Y-54596920D01*
X108396825Y-54334099D01*
X108441476Y-54186890D01*
X108320155Y-53957000D01*
X107127000Y-53957000D01*
X106873000Y-53957000D01*
X105679845Y-53957000D01*
X105558524Y-54186890D01*
X99010000Y-54186890D01*
X99010000Y-53354801D01*
X100314802Y-52050000D01*
X105721822Y-52050000D01*
X105846525Y-52236632D01*
X106053368Y-52443475D01*
X106235534Y-52565195D01*
X106118645Y-52634822D01*
X105902412Y-52829731D01*
X105728359Y-53063080D01*
X105603175Y-53325901D01*
X105558524Y-53473110D01*
X105679845Y-53703000D01*
X106873000Y-53703000D01*
X106873000Y-53683000D01*
X107127000Y-53683000D01*
X107127000Y-53703000D01*
X108320155Y-53703000D01*
X108441476Y-53473110D01*
X108396825Y-53325901D01*
X108271641Y-53063080D01*
X108097588Y-52829731D01*
X107881355Y-52634822D01*
X107764466Y-52565195D01*
X107946632Y-52443475D01*
X108153475Y-52236632D01*
X108315990Y-51993411D01*
X108427932Y-51723158D01*
X108485000Y-51436260D01*
X108485000Y-51143740D01*
X108427932Y-50856842D01*
X108315990Y-50586589D01*
X108153475Y-50343368D01*
X107946632Y-50136525D01*
X107772240Y-50020000D01*
X107946632Y-49903475D01*
X108153475Y-49696632D01*
X108315990Y-49453411D01*
X108427932Y-49183158D01*
X108485000Y-48896260D01*
X108485000Y-48603740D01*
X108427932Y-48316842D01*
X108315990Y-48046589D01*
X108153475Y-47803368D01*
X108021620Y-47671513D01*
X108094180Y-47649502D01*
X108204494Y-47590537D01*
X108301185Y-47511185D01*
X108380537Y-47414494D01*
X108439502Y-47304180D01*
X108475812Y-47184482D01*
X108488072Y-47060000D01*
X108488072Y-45360000D01*
X108475812Y-45235518D01*
X108439502Y-45115820D01*
X108380537Y-45005506D01*
X108301185Y-44908815D01*
X108204494Y-44829463D01*
X108094180Y-44770498D01*
X107974482Y-44734188D01*
X107850000Y-44721928D01*
X106150000Y-44721928D01*
X106025518Y-44734188D01*
X105905820Y-44770498D01*
X105795506Y-44829463D01*
X105698815Y-44908815D01*
X105619463Y-45005506D01*
X105560498Y-45115820D01*
X105524188Y-45235518D01*
X105511928Y-45360000D01*
X105511928Y-45450000D01*
X97077333Y-45450000D01*
X97040000Y-45446323D01*
X97002667Y-45450000D01*
X96891014Y-45460997D01*
X96747753Y-45504454D01*
X96615724Y-45575026D01*
X96499999Y-45669999D01*
X96476196Y-45699003D01*
X96385199Y-45790000D01*
X94476018Y-45790000D01*
X94401185Y-45698815D01*
X94304494Y-45619463D01*
X94194180Y-45560498D01*
X94074482Y-45524188D01*
X93950000Y-45511928D01*
X93050000Y-45511928D01*
X92925518Y-45524188D01*
X92805820Y-45560498D01*
X92695506Y-45619463D01*
X92598815Y-45698815D01*
X92523982Y-45790000D01*
X92114802Y-45790000D01*
X91851303Y-45526502D01*
X91827501Y-45497499D01*
X91711776Y-45402526D01*
X91579747Y-45331954D01*
X91436486Y-45288497D01*
X91324833Y-45277500D01*
X91324822Y-45277500D01*
X91287500Y-45273824D01*
X91250178Y-45277500D01*
X88887932Y-45277500D01*
X88863405Y-45231613D01*
X88752962Y-45097038D01*
X88618387Y-44986595D01*
X88464851Y-44904528D01*
X88298255Y-44853992D01*
X88125001Y-44836928D01*
X86874999Y-44836928D01*
X86701745Y-44853992D01*
X86535149Y-44904528D01*
X86381613Y-44986595D01*
X86247038Y-45097038D01*
X86136595Y-45231613D01*
X86054528Y-45385149D01*
X86003992Y-45551745D01*
X85986928Y-45724999D01*
X85986928Y-46350001D01*
X86003992Y-46523255D01*
X86054528Y-46689851D01*
X86136595Y-46843387D01*
X86247038Y-46977962D01*
X86381613Y-47088405D01*
X86535149Y-47170472D01*
X86701745Y-47221008D01*
X86874999Y-47238072D01*
X88125001Y-47238072D01*
X88298255Y-47221008D01*
X88464851Y-47170472D01*
X88618387Y-47088405D01*
X88752962Y-46977962D01*
X88863405Y-46843387D01*
X88887932Y-46797500D01*
X90491671Y-46797500D01*
X90460498Y-46855820D01*
X90424188Y-46975518D01*
X90411928Y-47100000D01*
X90411928Y-47900000D01*
X90424188Y-48024482D01*
X90460498Y-48144180D01*
X90519463Y-48254494D01*
X90598815Y-48351185D01*
X90695506Y-48430537D01*
X90805820Y-48489502D01*
X90925518Y-48525812D01*
X91050000Y-48538072D01*
X91950000Y-48538072D01*
X92074482Y-48525812D01*
X92194180Y-48489502D01*
X92304494Y-48430537D01*
X92401185Y-48351185D01*
X92411928Y-48338095D01*
X92411928Y-48850000D01*
X92424188Y-48974482D01*
X92460498Y-49094180D01*
X92519463Y-49204494D01*
X92598815Y-49301185D01*
X92695506Y-49380537D01*
X92740001Y-49404320D01*
X92740000Y-50685198D01*
X91685199Y-51740000D01*
X91062276Y-51740000D01*
X91058508Y-51701745D01*
X91007972Y-51535149D01*
X90925905Y-51381613D01*
X90815462Y-51247038D01*
X90680887Y-51136595D01*
X90527351Y-51054528D01*
X90360755Y-51003992D01*
X90187501Y-50986928D01*
X89562499Y-50986928D01*
X89389245Y-51003992D01*
X89222649Y-51054528D01*
X89069113Y-51136595D01*
X88934538Y-51247038D01*
X88824095Y-51381613D01*
X88742028Y-51535149D01*
X88691492Y-51701745D01*
X88674428Y-51874999D01*
X88674428Y-53125001D01*
X88691492Y-53298255D01*
X88742028Y-53464851D01*
X88824095Y-53618387D01*
X88934538Y-53752962D01*
X89069113Y-53863405D01*
X89222649Y-53945472D01*
X89389245Y-53996008D01*
X89562499Y-54013072D01*
X90187501Y-54013072D01*
X90360755Y-53996008D01*
X90527351Y-53945472D01*
X90680887Y-53863405D01*
X90815462Y-53752962D01*
X90925905Y-53618387D01*
X91007972Y-53464851D01*
X91058508Y-53298255D01*
X91062276Y-53260000D01*
X91962678Y-53260000D01*
X92000000Y-53263676D01*
X92037322Y-53260000D01*
X92037333Y-53260000D01*
X92148986Y-53249003D01*
X92292247Y-53205546D01*
X92424276Y-53134974D01*
X92540001Y-53040001D01*
X92563804Y-53010997D01*
X92587301Y-52987500D01*
X94486928Y-52987500D01*
X94490000Y-53264250D01*
X94648750Y-53423000D01*
X95873000Y-53423000D01*
X95873000Y-52511250D01*
X95714250Y-52352500D01*
X95125000Y-52349428D01*
X95000518Y-52361688D01*
X94880820Y-52397998D01*
X94770506Y-52456963D01*
X94673815Y-52536315D01*
X94594463Y-52633006D01*
X94535498Y-52743320D01*
X94499188Y-52863018D01*
X94486928Y-52987500D01*
X92587301Y-52987500D01*
X94011004Y-51563798D01*
X94040001Y-51540001D01*
X94134974Y-51424276D01*
X94205546Y-51292247D01*
X94249003Y-51148986D01*
X94260000Y-51037333D01*
X94260000Y-51037324D01*
X94263676Y-51000001D01*
X94260000Y-50962678D01*
X94260000Y-49404320D01*
X94304494Y-49380537D01*
X94401185Y-49301185D01*
X94480537Y-49204494D01*
X94539502Y-49094180D01*
X94575812Y-48974482D01*
X94588072Y-48850000D01*
X94588072Y-48260000D01*
X94935199Y-48260000D01*
X95240000Y-48564802D01*
X95240001Y-49212659D01*
X95240000Y-49212668D01*
X95240000Y-49212678D01*
X95236324Y-49250000D01*
X95240000Y-49287323D01*
X95240000Y-49437724D01*
X95201745Y-49441492D01*
X95035149Y-49492028D01*
X94881613Y-49574095D01*
X94747038Y-49684538D01*
X94636595Y-49819113D01*
X94554528Y-49972649D01*
X94503992Y-50139245D01*
X94486928Y-50312499D01*
X94486928Y-50937501D01*
X94503992Y-51110755D01*
X94554528Y-51277351D01*
X94636595Y-51430887D01*
X94747038Y-51565462D01*
X94881613Y-51675905D01*
X95035149Y-51757972D01*
X95201745Y-51808508D01*
X95374999Y-51825572D01*
X95604906Y-51825572D01*
X95707754Y-51880546D01*
X95851015Y-51924003D01*
X96000000Y-51938677D01*
X96148986Y-51924003D01*
X96292247Y-51880546D01*
X96395095Y-51825572D01*
X96625001Y-51825572D01*
X96798255Y-51808508D01*
X96964851Y-51757972D01*
X97118387Y-51675905D01*
X97252962Y-51565462D01*
X97363405Y-51430887D01*
X97445472Y-51277351D01*
X97496008Y-51110755D01*
X97513072Y-50937501D01*
X97513072Y-50312499D01*
X97496008Y-50139245D01*
X97445472Y-49972649D01*
X97363405Y-49819113D01*
X97252962Y-49684538D01*
X97118387Y-49574095D01*
X96998474Y-49510000D01*
X105721822Y-49510000D01*
X105846525Y-49696632D01*
X106053368Y-49903475D01*
X106227760Y-50020000D01*
X106053368Y-50136525D01*
X105846525Y-50343368D01*
X105721822Y-50530000D01*
X100037325Y-50530000D01*
X100000000Y-50526324D01*
X99962675Y-50530000D01*
X99962667Y-50530000D01*
X99851014Y-50540997D01*
X99707753Y-50584454D01*
X99575724Y-50655026D01*
X99459999Y-50749999D01*
X99436201Y-50778997D01*
X97739003Y-52476196D01*
X97709999Y-52499999D01*
X97660966Y-52559746D01*
X97615026Y-52615724D01*
X97608999Y-52627000D01*
X97544454Y-52747754D01*
X97502939Y-52884613D01*
X97500812Y-52863018D01*
X97464502Y-52743320D01*
X97405537Y-52633006D01*
X97326185Y-52536315D01*
X97229494Y-52456963D01*
X97119180Y-52397998D01*
X96999482Y-52361688D01*
X96875000Y-52349428D01*
X96285750Y-52352500D01*
X96127000Y-52511250D01*
X96127000Y-53423000D01*
X96147000Y-53423000D01*
X96147000Y-53677000D01*
X96127000Y-53677000D01*
X96127000Y-53697000D01*
X95873000Y-53697000D01*
X95873000Y-53677000D01*
X94648750Y-53677000D01*
X94490000Y-53835750D01*
X94486928Y-54112500D01*
X94499188Y-54236982D01*
X94535498Y-54356680D01*
X94594463Y-54466994D01*
X94673815Y-54563685D01*
X94770506Y-54643037D01*
X94880820Y-54702002D01*
X95000518Y-54738312D01*
X95017657Y-54740000D01*
X88064802Y-54740000D01*
X87710000Y-54385199D01*
X87710000Y-53887932D01*
X87755887Y-53863405D01*
X87890462Y-53752962D01*
X88000905Y-53618387D01*
X88082972Y-53464851D01*
X88133508Y-53298255D01*
X88150572Y-53125001D01*
X88150572Y-51874999D01*
X88133508Y-51701745D01*
X88082972Y-51535149D01*
X88000905Y-51381613D01*
X87890462Y-51247038D01*
X87755887Y-51136595D01*
X87710000Y-51112068D01*
X87710000Y-50864802D01*
X88011007Y-50563795D01*
X88040001Y-50540001D01*
X88063795Y-50511008D01*
X88063799Y-50511004D01*
X88134973Y-50424277D01*
X88136532Y-50421361D01*
X88205546Y-50292247D01*
X88248417Y-50150917D01*
X88298255Y-50146008D01*
X88464851Y-50095472D01*
X88618387Y-50013405D01*
X88752962Y-49902962D01*
X88863405Y-49768387D01*
X88945472Y-49614851D01*
X88996008Y-49448255D01*
X89013072Y-49275001D01*
X89013072Y-48649999D01*
X88996008Y-48476745D01*
X88945472Y-48310149D01*
X88863405Y-48156613D01*
X88752962Y-48022038D01*
X88618387Y-47911595D01*
X88464851Y-47829528D01*
X88298255Y-47778992D01*
X88125001Y-47761928D01*
X86874999Y-47761928D01*
X86701745Y-47778992D01*
X86535149Y-47829528D01*
X86381613Y-47911595D01*
X86247038Y-48022038D01*
X86136595Y-48156613D01*
X86112068Y-48202500D01*
X84508329Y-48202500D01*
X84539502Y-48144180D01*
X84575812Y-48024482D01*
X84588072Y-47900000D01*
X84588072Y-47100000D01*
X84575812Y-46975518D01*
X84539502Y-46855820D01*
X84480537Y-46745506D01*
X84401185Y-46648815D01*
X84304494Y-46569463D01*
X84194180Y-46510498D01*
X84074482Y-46474188D01*
X83950000Y-46461928D01*
X83050000Y-46461928D01*
X82925518Y-46474188D01*
X82805820Y-46510498D01*
X82695506Y-46569463D01*
X82598815Y-46648815D01*
X82588072Y-46661905D01*
X82588072Y-46150000D01*
X82575812Y-46025518D01*
X82539502Y-45905820D01*
X82480537Y-45795506D01*
X82401185Y-45698815D01*
X82304494Y-45619463D01*
X82194180Y-45560498D01*
X82074482Y-45524188D01*
X81950000Y-45511928D01*
X81050000Y-45511928D01*
X80925518Y-45524188D01*
X80805820Y-45560498D01*
X80695506Y-45619463D01*
X80598815Y-45698815D01*
X80565015Y-45740000D01*
X78454320Y-45740000D01*
X78430537Y-45695506D01*
X78351185Y-45598815D01*
X78254494Y-45519463D01*
X78144180Y-45460498D01*
X78024482Y-45424188D01*
X77900000Y-45411928D01*
X77100000Y-45411928D01*
X76975518Y-45424188D01*
X76855820Y-45460498D01*
X76745506Y-45519463D01*
X76648815Y-45598815D01*
X76569463Y-45695506D01*
X76510498Y-45805820D01*
X76474188Y-45925518D01*
X76471741Y-45950363D01*
X76459999Y-45959999D01*
X76436196Y-45989003D01*
X76039003Y-46386196D01*
X76009999Y-46409999D01*
X75957321Y-46474188D01*
X75915026Y-46525724D01*
X75857004Y-46634275D01*
X75844454Y-46657754D01*
X75800997Y-46801015D01*
X75790000Y-46912668D01*
X75790000Y-46912678D01*
X75786324Y-46950000D01*
X75790000Y-46987323D01*
X75790000Y-47523981D01*
X75698815Y-47598815D01*
X75619463Y-47695506D01*
X75560498Y-47805820D01*
X75524188Y-47925518D01*
X75511928Y-48050000D01*
X73538321Y-48050000D01*
X73570472Y-47989851D01*
X73621008Y-47823255D01*
X73638072Y-47650001D01*
X73638072Y-46349999D01*
X73621008Y-46176745D01*
X73570472Y-46010149D01*
X73488405Y-45856613D01*
X73377962Y-45722038D01*
X73243387Y-45611595D01*
X73089851Y-45529528D01*
X72923255Y-45478992D01*
X72750001Y-45461928D01*
X72099999Y-45461928D01*
X71926745Y-45478992D01*
X71760149Y-45529528D01*
X71606613Y-45611595D01*
X71472038Y-45722038D01*
X71361595Y-45856613D01*
X71279528Y-46010149D01*
X71228992Y-46176745D01*
X71211928Y-46349999D01*
X70686821Y-46349999D01*
X70688072Y-46100000D01*
X70675812Y-45975518D01*
X70639502Y-45855820D01*
X70580537Y-45745506D01*
X70501185Y-45648815D01*
X70404494Y-45569463D01*
X70294180Y-45510498D01*
X70174482Y-45474188D01*
X70050000Y-45461928D01*
X69760750Y-45465000D01*
X69602000Y-45623750D01*
X69348000Y-45623750D01*
X69189250Y-45465000D01*
X68900000Y-45461928D01*
X68775518Y-45474188D01*
X68655820Y-45510498D01*
X68545506Y-45569463D01*
X68448815Y-45648815D01*
X68369463Y-45745506D01*
X68310498Y-45855820D01*
X68274188Y-45975518D01*
X68261928Y-46100000D01*
X64166293Y-46100000D01*
X64145892Y-45892869D01*
X64138199Y-45867509D01*
X64138199Y-45487014D01*
X64915578Y-43154878D01*
X65000000Y-43163193D01*
X65032419Y-43160000D01*
X97532419Y-43160000D01*
X97561718Y-43157114D01*
X97577271Y-43157223D01*
X97586442Y-43156323D01*
X98071684Y-43105322D01*
X98130247Y-43093301D01*
X98189040Y-43082086D01*
X98197862Y-43079422D01*
X98663956Y-42935142D01*
X98719086Y-42911967D01*
X98774565Y-42889553D01*
X98782701Y-42885226D01*
X99211894Y-42653162D01*
X99250681Y-42627000D01*
X109340001Y-42627000D01*
X109340000Y-57373000D01*
G04 #@! TA.AperFunction,Conductor*
D23*
G36*
X109340000Y-57373000D02*
G01*
X99250603Y-57373000D01*
X99201437Y-57339334D01*
X99193331Y-57334952D01*
X98762527Y-57105890D01*
X98707233Y-57083099D01*
X98652240Y-57059529D01*
X98643437Y-57056804D01*
X98176347Y-56915781D01*
X98117653Y-56904159D01*
X98059156Y-56891725D01*
X98049991Y-56890762D01*
X97564405Y-56843150D01*
X97564402Y-56843150D01*
X97532419Y-56840000D01*
X65032419Y-56840000D01*
X65000000Y-56836807D01*
X64967581Y-56840000D01*
X64915578Y-56845122D01*
X64138199Y-54512986D01*
X64138199Y-54132491D01*
X64145892Y-54107131D01*
X64167652Y-53886200D01*
X64167652Y-53111049D01*
X64180717Y-53115012D01*
X64305199Y-53127272D01*
X65829199Y-53127272D01*
X65953681Y-53115012D01*
X66073379Y-53078702D01*
X66183693Y-53019737D01*
X66280384Y-52940385D01*
X66359736Y-52843694D01*
X66418701Y-52733380D01*
X66454854Y-52614200D01*
X66539399Y-52614200D01*
X66936200Y-53011002D01*
X66959999Y-53040001D01*
X66988997Y-53063799D01*
X67075723Y-53134974D01*
X67176770Y-53188985D01*
X67207753Y-53205546D01*
X67351014Y-53249003D01*
X67462667Y-53260000D01*
X67462676Y-53260000D01*
X67499999Y-53263676D01*
X67537322Y-53260000D01*
X68284962Y-53260000D01*
X68310498Y-53344180D01*
X68369463Y-53454494D01*
X68448815Y-53551185D01*
X68545506Y-53630537D01*
X68655820Y-53689502D01*
X68775518Y-53725812D01*
X68900000Y-53738072D01*
X69800000Y-53738072D01*
X69924482Y-53725812D01*
X70044180Y-53689502D01*
X70154494Y-53630537D01*
X70251185Y-53551185D01*
X70330537Y-53454494D01*
X70389502Y-53344180D01*
X70425812Y-53224482D01*
X70438072Y-53100000D01*
X70438072Y-51900000D01*
X70425812Y-51775518D01*
X70389502Y-51655820D01*
X70330537Y-51545506D01*
X70251185Y-51448815D01*
X70154494Y-51369463D01*
X70044180Y-51310498D01*
X69924482Y-51274188D01*
X69800000Y-51261928D01*
X68900000Y-51261928D01*
X68775518Y-51274188D01*
X68655820Y-51310498D01*
X68545506Y-51369463D01*
X68448815Y-51448815D01*
X68369463Y-51545506D01*
X68310498Y-51655820D01*
X68284962Y-51740000D01*
X67814802Y-51740000D01*
X67418003Y-51343202D01*
X67394201Y-51314199D01*
X67278476Y-51219226D01*
X67146447Y-51148654D01*
X67003186Y-51105197D01*
X66891533Y-51094200D01*
X66891522Y-51094200D01*
X66854200Y-51090524D01*
X66816878Y-51094200D01*
X66454854Y-51094200D01*
X66418701Y-50975020D01*
X66393087Y-50927100D01*
X66418701Y-50879180D01*
X66455011Y-50759482D01*
X66467271Y-50635000D01*
X66467271Y-49365000D01*
X66455011Y-49240518D01*
X66418701Y-49120820D01*
X66393087Y-49072900D01*
X66418701Y-49024980D01*
X66455011Y-48905282D01*
X66467271Y-48780800D01*
X66464199Y-48431550D01*
X66305449Y-48272800D01*
X65194199Y-48272800D01*
X65194199Y-48292800D01*
X64940199Y-48292800D01*
X64940199Y-48272800D01*
X64920199Y-48272800D01*
X64920199Y-48018800D01*
X64940199Y-48018800D01*
X64940199Y-47034550D01*
X65194199Y-47034550D01*
X65194199Y-48018800D01*
X66305449Y-48018800D01*
X66424249Y-47900000D01*
X68261928Y-47900000D01*
X68274188Y-48024482D01*
X68310498Y-48144180D01*
X68369463Y-48254494D01*
X68448815Y-48351185D01*
X68545506Y-48430537D01*
X68655820Y-48489502D01*
X68775518Y-48525812D01*
X68900000Y-48538072D01*
X69189250Y-48535000D01*
X69348000Y-48376250D01*
X69348000Y-47127000D01*
X69602000Y-47127000D01*
X69602000Y-48376250D01*
X69760750Y-48535000D01*
X70050000Y-48538072D01*
X70174482Y-48525812D01*
X70294180Y-48489502D01*
X70404494Y-48430537D01*
X70501185Y-48351185D01*
X70580537Y-48254494D01*
X70639502Y-48144180D01*
X70675812Y-48024482D01*
X70688072Y-47900000D01*
X70685000Y-47285750D01*
X70526250Y-47127000D01*
X69602000Y-47127000D01*
X69348000Y-47127000D01*
X68423750Y-47127000D01*
X68265000Y-47285750D01*
X68261928Y-47900000D01*
X66424249Y-47900000D01*
X66464199Y-47860050D01*
X66467271Y-47510800D01*
X66455011Y-47386318D01*
X66418701Y-47266620D01*
X66359736Y-47156306D01*
X66280384Y-47059615D01*
X66183693Y-46980263D01*
X66073379Y-46921298D01*
X65953681Y-46884988D01*
X65829199Y-46872728D01*
X65352949Y-46875800D01*
X65194199Y-47034550D01*
X64940199Y-47034550D01*
X64781449Y-46875800D01*
X64305199Y-46872728D01*
X64180717Y-46884988D01*
X64167652Y-46888951D01*
X64167652Y-46113800D01*
X64166293Y-46100000D01*
X68261928Y-46100000D01*
X68265000Y-46714250D01*
X68423750Y-46873000D01*
X69348000Y-46873000D01*
X69348000Y-45623750D01*
X69602000Y-45623750D01*
X69602000Y-46873000D01*
X70526250Y-46873000D01*
X70685000Y-46714250D01*
X70686821Y-46349999D01*
X71211928Y-46349999D01*
X71211928Y-47650001D01*
X71228992Y-47823255D01*
X71279528Y-47989851D01*
X71361595Y-48143387D01*
X71472038Y-48277962D01*
X71606613Y-48388405D01*
X71665001Y-48419614D01*
X71665001Y-49387668D01*
X71661324Y-49425000D01*
X71665001Y-49462333D01*
X71675998Y-49573986D01*
X71679339Y-49585000D01*
X71719454Y-49717246D01*
X71790026Y-49849276D01*
X71861201Y-49936002D01*
X71885000Y-49965001D01*
X71890000Y-49969104D01*
X71890001Y-51345680D01*
X71845506Y-51369463D01*
X71748815Y-51448815D01*
X71669463Y-51545506D01*
X71610498Y-51655820D01*
X71574188Y-51775518D01*
X71561928Y-51900000D01*
X71561928Y-53100000D01*
X71574188Y-53224482D01*
X71610498Y-53344180D01*
X71669463Y-53454494D01*
X71748815Y-53551185D01*
X71845506Y-53630537D01*
X71955820Y-53689502D01*
X72075518Y-53725812D01*
X72200000Y-53738072D01*
X73100000Y-53738072D01*
X73224482Y-53725812D01*
X73344180Y-53689502D01*
X73454494Y-53630537D01*
X73551185Y-53551185D01*
X73630156Y-53454958D01*
X74648701Y-54473503D01*
X74672499Y-54502501D01*
X74788224Y-54597474D01*
X74920253Y-54668046D01*
X75063514Y-54711503D01*
X75175167Y-54722500D01*
X75175176Y-54722500D01*
X75212499Y-54726176D01*
X75249822Y-54722500D01*
X76112068Y-54722500D01*
X76136595Y-54768387D01*
X76247038Y-54902962D01*
X76381613Y-55013405D01*
X76535149Y-55095472D01*
X76701745Y-55146008D01*
X76874999Y-55163072D01*
X78125001Y-55163072D01*
X78298255Y-55146008D01*
X78464851Y-55095472D01*
X78618387Y-55013405D01*
X78752962Y-54902962D01*
X78863405Y-54768387D01*
X78945472Y-54614851D01*
X78996008Y-54448255D01*
X79013072Y-54275001D01*
X79013072Y-53649999D01*
X78996008Y-53476745D01*
X78972728Y-53400000D01*
X79811928Y-53400000D01*
X79824188Y-53524482D01*
X79860498Y-53644180D01*
X79919463Y-53754494D01*
X79998815Y-53851185D01*
X80095506Y-53930537D01*
X80205820Y-53989502D01*
X80325518Y-54025812D01*
X80450000Y-54038072D01*
X80739250Y-54035000D01*
X80898000Y-53876250D01*
X80898000Y-52627000D01*
X81152000Y-52627000D01*
X81152000Y-53876250D01*
X81310750Y-54035000D01*
X81600000Y-54038072D01*
X81724482Y-54025812D01*
X81844180Y-53989502D01*
X81954494Y-53930537D01*
X82051185Y-53851185D01*
X82130537Y-53754494D01*
X82189502Y-53644180D01*
X82225812Y-53524482D01*
X82238072Y-53400000D01*
X82235000Y-52785750D01*
X82076250Y-52627000D01*
X81152000Y-52627000D01*
X80898000Y-52627000D01*
X79973750Y-52627000D01*
X79815000Y-52785750D01*
X79811928Y-53400000D01*
X78972728Y-53400000D01*
X78945472Y-53310149D01*
X78863405Y-53156613D01*
X78752962Y-53022038D01*
X78618387Y-52911595D01*
X78464851Y-52829528D01*
X78298255Y-52778992D01*
X78125001Y-52761928D01*
X76874999Y-52761928D01*
X76701745Y-52778992D01*
X76535149Y-52829528D01*
X76381613Y-52911595D01*
X76247038Y-53022038D01*
X76136595Y-53156613D01*
X76112068Y-53202500D01*
X75527302Y-53202500D01*
X74313804Y-51989003D01*
X74290001Y-51959999D01*
X74174276Y-51865026D01*
X74042247Y-51794454D01*
X73898986Y-51750997D01*
X73787333Y-51740000D01*
X73787322Y-51740000D01*
X73750000Y-51736324D01*
X73714969Y-51739774D01*
X73689502Y-51655820D01*
X73630537Y-51545506D01*
X73551185Y-51448815D01*
X73454494Y-51369463D01*
X73410000Y-51345680D01*
X73410000Y-49687322D01*
X73413676Y-49649999D01*
X73410000Y-49612676D01*
X73410000Y-49612667D01*
X73399003Y-49501014D01*
X73355546Y-49357753D01*
X73284974Y-49225724D01*
X73190001Y-49109999D01*
X73185000Y-49105895D01*
X73185000Y-48419614D01*
X73243387Y-48388405D01*
X73377962Y-48277962D01*
X73488405Y-48143387D01*
X73538321Y-48050000D01*
X75511928Y-48050000D01*
X75511928Y-48950000D01*
X75524188Y-49074482D01*
X75560498Y-49194180D01*
X75619463Y-49304494D01*
X75698815Y-49401185D01*
X75740000Y-49434985D01*
X75740000Y-50000177D01*
X75736324Y-50037500D01*
X75740000Y-50074822D01*
X75740000Y-50074832D01*
X75750997Y-50186485D01*
X75772616Y-50257753D01*
X75794454Y-50329746D01*
X75865026Y-50461776D01*
X75876474Y-50475725D01*
X75959999Y-50577501D01*
X75989002Y-50601304D01*
X75998205Y-50610506D01*
X75986928Y-50724999D01*
X75986928Y-51350001D01*
X76003992Y-51523255D01*
X76054528Y-51689851D01*
X76136595Y-51843387D01*
X76247038Y-51977962D01*
X76381613Y-52088405D01*
X76535149Y-52170472D01*
X76701745Y-52221008D01*
X76874999Y-52238072D01*
X77104906Y-52238072D01*
X77207754Y-52293046D01*
X77351015Y-52336503D01*
X77500000Y-52351177D01*
X77648986Y-52336503D01*
X77792247Y-52293046D01*
X77895095Y-52238072D01*
X78125001Y-52238072D01*
X78298255Y-52221008D01*
X78464851Y-52170472D01*
X78618387Y-52088405D01*
X78752962Y-51977962D01*
X78863405Y-51843387D01*
X78945472Y-51689851D01*
X78972727Y-51600000D01*
X79811928Y-51600000D01*
X79815000Y-52214250D01*
X79973750Y-52373000D01*
X80898000Y-52373000D01*
X80898000Y-51123750D01*
X81152000Y-51123750D01*
X81152000Y-52373000D01*
X82076250Y-52373000D01*
X82235000Y-52214250D01*
X82238072Y-51600000D01*
X82225812Y-51475518D01*
X82189502Y-51355820D01*
X82130537Y-51245506D01*
X82051185Y-51148815D01*
X81954494Y-51069463D01*
X81844180Y-51010498D01*
X81724482Y-50974188D01*
X81600000Y-50961928D01*
X81310750Y-50965000D01*
X81152000Y-51123750D01*
X80898000Y-51123750D01*
X80739250Y-50965000D01*
X80450000Y-50961928D01*
X80325518Y-50974188D01*
X80205820Y-51010498D01*
X80095506Y-51069463D01*
X79998815Y-51148815D01*
X79919463Y-51245506D01*
X79860498Y-51355820D01*
X79824188Y-51475518D01*
X79811928Y-51600000D01*
X78972727Y-51600000D01*
X78996008Y-51523255D01*
X79013072Y-51350001D01*
X79013072Y-50724999D01*
X78996008Y-50551745D01*
X78945472Y-50385149D01*
X78863405Y-50231613D01*
X78752962Y-50097038D01*
X78618387Y-49986595D01*
X78464851Y-49904528D01*
X78298255Y-49853992D01*
X78125001Y-49836928D01*
X77374229Y-49836928D01*
X77260000Y-49722699D01*
X77260000Y-49504320D01*
X77304494Y-49480537D01*
X77401185Y-49401185D01*
X77480537Y-49304494D01*
X77500000Y-49268082D01*
X77519463Y-49304494D01*
X77598815Y-49401185D01*
X77695506Y-49480537D01*
X77805820Y-49539502D01*
X77925518Y-49575812D01*
X78050000Y-49588072D01*
X78164250Y-49585000D01*
X78323000Y-49426250D01*
X78323000Y-48627000D01*
X78577000Y-48627000D01*
X78577000Y-49426250D01*
X78735750Y-49585000D01*
X78850000Y-49588072D01*
X78974482Y-49575812D01*
X79094180Y-49539502D01*
X79204494Y-49480537D01*
X79301185Y-49401185D01*
X79380537Y-49304494D01*
X79439502Y-49194180D01*
X79475812Y-49074482D01*
X79488072Y-48950000D01*
X79486202Y-48850000D01*
X80411928Y-48850000D01*
X80424188Y-48974482D01*
X80460498Y-49094180D01*
X80519463Y-49204494D01*
X80598815Y-49301185D01*
X80695506Y-49380537D01*
X80805820Y-49439502D01*
X80925518Y-49475812D01*
X81050000Y-49488072D01*
X81214250Y-49485000D01*
X81373000Y-49326250D01*
X81373000Y-48577000D01*
X81627000Y-48577000D01*
X81627000Y-49326250D01*
X81785750Y-49485000D01*
X81950000Y-49488072D01*
X82074482Y-49475812D01*
X82194180Y-49439502D01*
X82304494Y-49380537D01*
X82401185Y-49301185D01*
X82480537Y-49204494D01*
X82539502Y-49094180D01*
X82575812Y-48974482D01*
X82588072Y-48850000D01*
X82585000Y-48735750D01*
X82426250Y-48577000D01*
X81627000Y-48577000D01*
X81373000Y-48577000D01*
X80573750Y-48577000D01*
X80415000Y-48735750D01*
X80411928Y-48850000D01*
X79486202Y-48850000D01*
X79485000Y-48785750D01*
X79326250Y-48627000D01*
X78577000Y-48627000D01*
X78323000Y-48627000D01*
X78303000Y-48627000D01*
X78303000Y-48373000D01*
X78323000Y-48373000D01*
X78323000Y-47573750D01*
X78577000Y-47573750D01*
X78577000Y-48373000D01*
X79326250Y-48373000D01*
X79485000Y-48214250D01*
X79488072Y-48050000D01*
X79475812Y-47925518D01*
X79439502Y-47805820D01*
X79380537Y-47695506D01*
X79301185Y-47598815D01*
X79204494Y-47519463D01*
X79094180Y-47460498D01*
X78974482Y-47424188D01*
X78850000Y-47411928D01*
X78735750Y-47415000D01*
X78577000Y-47573750D01*
X78323000Y-47573750D01*
X78238393Y-47489143D01*
X78254494Y-47480537D01*
X78351185Y-47401185D01*
X78430537Y-47304494D01*
X78454320Y-47260000D01*
X80495680Y-47260000D01*
X80519463Y-47304494D01*
X80598815Y-47401185D01*
X80695506Y-47480537D01*
X80731918Y-47500000D01*
X80695506Y-47519463D01*
X80598815Y-47598815D01*
X80519463Y-47695506D01*
X80460498Y-47805820D01*
X80424188Y-47925518D01*
X80411928Y-48050000D01*
X80415000Y-48164250D01*
X80573750Y-48323000D01*
X81373000Y-48323000D01*
X81373000Y-48303000D01*
X81627000Y-48303000D01*
X81627000Y-48323000D01*
X82426250Y-48323000D01*
X82510857Y-48238393D01*
X82519463Y-48254494D01*
X82598815Y-48351185D01*
X82695506Y-48430537D01*
X82740001Y-48454320D01*
X82740001Y-48462668D01*
X82736324Y-48500000D01*
X82740001Y-48537333D01*
X82750998Y-48648986D01*
X82758669Y-48674275D01*
X82794454Y-48792246D01*
X82865026Y-48924276D01*
X82926353Y-48999002D01*
X82960000Y-49040001D01*
X82988998Y-49063799D01*
X83398696Y-49473497D01*
X83422499Y-49502501D01*
X83538224Y-49597474D01*
X83670253Y-49668046D01*
X83813514Y-49711503D01*
X83925167Y-49722500D01*
X83925175Y-49722500D01*
X83962500Y-49726176D01*
X83999825Y-49722500D01*
X86112068Y-49722500D01*
X86136595Y-49768387D01*
X86247038Y-49902962D01*
X86381613Y-50013405D01*
X86399401Y-50022913D01*
X86368986Y-50059974D01*
X86315026Y-50125724D01*
X86267949Y-50213799D01*
X86244454Y-50257754D01*
X86200997Y-50401015D01*
X86190000Y-50512668D01*
X86190000Y-50512678D01*
X86186324Y-50550000D01*
X86190000Y-50587323D01*
X86190000Y-51112068D01*
X86144113Y-51136595D01*
X86009538Y-51247038D01*
X85899095Y-51381613D01*
X85817028Y-51535149D01*
X85766492Y-51701745D01*
X85762724Y-51740000D01*
X85177238Y-51740000D01*
X85171008Y-51676745D01*
X85120472Y-51510149D01*
X85038405Y-51356613D01*
X84927962Y-51222038D01*
X84793387Y-51111595D01*
X84639851Y-51029528D01*
X84473255Y-50978992D01*
X84300001Y-50961928D01*
X83649999Y-50961928D01*
X83476745Y-50978992D01*
X83310149Y-51029528D01*
X83156613Y-51111595D01*
X83022038Y-51222038D01*
X82911595Y-51356613D01*
X82829528Y-51510149D01*
X82778992Y-51676745D01*
X82761928Y-51849999D01*
X82761928Y-53150001D01*
X82778992Y-53323255D01*
X82829528Y-53489851D01*
X82911595Y-53643387D01*
X83022038Y-53777962D01*
X83156613Y-53888405D01*
X83310149Y-53970472D01*
X83476745Y-54021008D01*
X83649999Y-54038072D01*
X84300001Y-54038072D01*
X84473255Y-54021008D01*
X84639851Y-53970472D01*
X84793387Y-53888405D01*
X84927962Y-53777962D01*
X85038405Y-53643387D01*
X85120472Y-53489851D01*
X85171008Y-53323255D01*
X85177238Y-53260000D01*
X85762724Y-53260000D01*
X85766492Y-53298255D01*
X85817028Y-53464851D01*
X85899095Y-53618387D01*
X86009538Y-53752962D01*
X86144113Y-53863405D01*
X86190000Y-53887932D01*
X86190000Y-54662677D01*
X86186324Y-54700000D01*
X86190000Y-54737322D01*
X86190000Y-54737332D01*
X86200997Y-54848985D01*
X86234672Y-54959999D01*
X86244454Y-54992246D01*
X86315026Y-55124276D01*
X86354871Y-55172826D01*
X86409999Y-55240001D01*
X86439002Y-55263803D01*
X87186201Y-56011002D01*
X87209999Y-56040001D01*
X87325724Y-56134974D01*
X87457753Y-56205546D01*
X87601014Y-56249003D01*
X87712667Y-56260000D01*
X87712677Y-56260000D01*
X87750000Y-56263676D01*
X87787323Y-56260000D01*
X97462678Y-56260000D01*
X97500000Y-56263676D01*
X97537322Y-56260000D01*
X97537333Y-56260000D01*
X97648986Y-56249003D01*
X97792247Y-56205546D01*
X97924276Y-56134974D01*
X98040001Y-56040001D01*
X98063803Y-56010998D01*
X98761002Y-55313799D01*
X98790001Y-55290001D01*
X98884974Y-55174276D01*
X98955546Y-55042247D01*
X98999003Y-54898986D01*
X99010000Y-54787333D01*
X99010000Y-54787324D01*
X99013676Y-54750001D01*
X99010000Y-54712678D01*
X99010000Y-54186890D01*
X105558524Y-54186890D01*
X105603175Y-54334099D01*
X105728359Y-54596920D01*
X105902412Y-54830269D01*
X106118645Y-55025178D01*
X106368748Y-55174157D01*
X106643109Y-55271481D01*
X106873000Y-55150814D01*
X106873000Y-53957000D01*
X107127000Y-53957000D01*
X107127000Y-55150814D01*
X107356891Y-55271481D01*
X107631252Y-55174157D01*
X107881355Y-55025178D01*
X108097588Y-54830269D01*
X108271641Y-54596920D01*
X108396825Y-54334099D01*
X108441476Y-54186890D01*
X108320155Y-53957000D01*
X107127000Y-53957000D01*
X106873000Y-53957000D01*
X105679845Y-53957000D01*
X105558524Y-54186890D01*
X99010000Y-54186890D01*
X99010000Y-53354801D01*
X100314802Y-52050000D01*
X105721822Y-52050000D01*
X105846525Y-52236632D01*
X106053368Y-52443475D01*
X106235534Y-52565195D01*
X106118645Y-52634822D01*
X105902412Y-52829731D01*
X105728359Y-53063080D01*
X105603175Y-53325901D01*
X105558524Y-53473110D01*
X105679845Y-53703000D01*
X106873000Y-53703000D01*
X106873000Y-53683000D01*
X107127000Y-53683000D01*
X107127000Y-53703000D01*
X108320155Y-53703000D01*
X108441476Y-53473110D01*
X108396825Y-53325901D01*
X108271641Y-53063080D01*
X108097588Y-52829731D01*
X107881355Y-52634822D01*
X107764466Y-52565195D01*
X107946632Y-52443475D01*
X108153475Y-52236632D01*
X108315990Y-51993411D01*
X108427932Y-51723158D01*
X108485000Y-51436260D01*
X108485000Y-51143740D01*
X108427932Y-50856842D01*
X108315990Y-50586589D01*
X108153475Y-50343368D01*
X107946632Y-50136525D01*
X107772240Y-50020000D01*
X107946632Y-49903475D01*
X108153475Y-49696632D01*
X108315990Y-49453411D01*
X108427932Y-49183158D01*
X108485000Y-48896260D01*
X108485000Y-48603740D01*
X108427932Y-48316842D01*
X108315990Y-48046589D01*
X108153475Y-47803368D01*
X108021620Y-47671513D01*
X108094180Y-47649502D01*
X108204494Y-47590537D01*
X108301185Y-47511185D01*
X108380537Y-47414494D01*
X108439502Y-47304180D01*
X108475812Y-47184482D01*
X108488072Y-47060000D01*
X108488072Y-45360000D01*
X108475812Y-45235518D01*
X108439502Y-45115820D01*
X108380537Y-45005506D01*
X108301185Y-44908815D01*
X108204494Y-44829463D01*
X108094180Y-44770498D01*
X107974482Y-44734188D01*
X107850000Y-44721928D01*
X106150000Y-44721928D01*
X106025518Y-44734188D01*
X105905820Y-44770498D01*
X105795506Y-44829463D01*
X105698815Y-44908815D01*
X105619463Y-45005506D01*
X105560498Y-45115820D01*
X105524188Y-45235518D01*
X105511928Y-45360000D01*
X105511928Y-45450000D01*
X97077333Y-45450000D01*
X97040000Y-45446323D01*
X97002667Y-45450000D01*
X96891014Y-45460997D01*
X96747753Y-45504454D01*
X96615724Y-45575026D01*
X96499999Y-45669999D01*
X96476196Y-45699003D01*
X96385199Y-45790000D01*
X94476018Y-45790000D01*
X94401185Y-45698815D01*
X94304494Y-45619463D01*
X94194180Y-45560498D01*
X94074482Y-45524188D01*
X93950000Y-45511928D01*
X93050000Y-45511928D01*
X92925518Y-45524188D01*
X92805820Y-45560498D01*
X92695506Y-45619463D01*
X92598815Y-45698815D01*
X92523982Y-45790000D01*
X92114802Y-45790000D01*
X91851303Y-45526502D01*
X91827501Y-45497499D01*
X91711776Y-45402526D01*
X91579747Y-45331954D01*
X91436486Y-45288497D01*
X91324833Y-45277500D01*
X91324822Y-45277500D01*
X91287500Y-45273824D01*
X91250178Y-45277500D01*
X88887932Y-45277500D01*
X88863405Y-45231613D01*
X88752962Y-45097038D01*
X88618387Y-44986595D01*
X88464851Y-44904528D01*
X88298255Y-44853992D01*
X88125001Y-44836928D01*
X86874999Y-44836928D01*
X86701745Y-44853992D01*
X86535149Y-44904528D01*
X86381613Y-44986595D01*
X86247038Y-45097038D01*
X86136595Y-45231613D01*
X86054528Y-45385149D01*
X86003992Y-45551745D01*
X85986928Y-45724999D01*
X85986928Y-46350001D01*
X86003992Y-46523255D01*
X86054528Y-46689851D01*
X86136595Y-46843387D01*
X86247038Y-46977962D01*
X86381613Y-47088405D01*
X86535149Y-47170472D01*
X86701745Y-47221008D01*
X86874999Y-47238072D01*
X88125001Y-47238072D01*
X88298255Y-47221008D01*
X88464851Y-47170472D01*
X88618387Y-47088405D01*
X88752962Y-46977962D01*
X88863405Y-46843387D01*
X88887932Y-46797500D01*
X90491671Y-46797500D01*
X90460498Y-46855820D01*
X90424188Y-46975518D01*
X90411928Y-47100000D01*
X90411928Y-47900000D01*
X90424188Y-48024482D01*
X90460498Y-48144180D01*
X90519463Y-48254494D01*
X90598815Y-48351185D01*
X90695506Y-48430537D01*
X90805820Y-48489502D01*
X90925518Y-48525812D01*
X91050000Y-48538072D01*
X91950000Y-48538072D01*
X92074482Y-48525812D01*
X92194180Y-48489502D01*
X92304494Y-48430537D01*
X92401185Y-48351185D01*
X92411928Y-48338095D01*
X92411928Y-48850000D01*
X92424188Y-48974482D01*
X92460498Y-49094180D01*
X92519463Y-49204494D01*
X92598815Y-49301185D01*
X92695506Y-49380537D01*
X92740001Y-49404320D01*
X92740000Y-50685198D01*
X91685199Y-51740000D01*
X91062276Y-51740000D01*
X91058508Y-51701745D01*
X91007972Y-51535149D01*
X90925905Y-51381613D01*
X90815462Y-51247038D01*
X90680887Y-51136595D01*
X90527351Y-51054528D01*
X90360755Y-51003992D01*
X90187501Y-50986928D01*
X89562499Y-50986928D01*
X89389245Y-51003992D01*
X89222649Y-51054528D01*
X89069113Y-51136595D01*
X88934538Y-51247038D01*
X88824095Y-51381613D01*
X88742028Y-51535149D01*
X88691492Y-51701745D01*
X88674428Y-51874999D01*
X88674428Y-53125001D01*
X88691492Y-53298255D01*
X88742028Y-53464851D01*
X88824095Y-53618387D01*
X88934538Y-53752962D01*
X89069113Y-53863405D01*
X89222649Y-53945472D01*
X89389245Y-53996008D01*
X89562499Y-54013072D01*
X90187501Y-54013072D01*
X90360755Y-53996008D01*
X90527351Y-53945472D01*
X90680887Y-53863405D01*
X90815462Y-53752962D01*
X90925905Y-53618387D01*
X91007972Y-53464851D01*
X91058508Y-53298255D01*
X91062276Y-53260000D01*
X91962678Y-53260000D01*
X92000000Y-53263676D01*
X92037322Y-53260000D01*
X92037333Y-53260000D01*
X92148986Y-53249003D01*
X92292247Y-53205546D01*
X92424276Y-53134974D01*
X92540001Y-53040001D01*
X92563804Y-53010997D01*
X92587301Y-52987500D01*
X94486928Y-52987500D01*
X94490000Y-53264250D01*
X94648750Y-53423000D01*
X95873000Y-53423000D01*
X95873000Y-52511250D01*
X95714250Y-52352500D01*
X95125000Y-52349428D01*
X95000518Y-52361688D01*
X94880820Y-52397998D01*
X94770506Y-52456963D01*
X94673815Y-52536315D01*
X94594463Y-52633006D01*
X94535498Y-52743320D01*
X94499188Y-52863018D01*
X94486928Y-52987500D01*
X92587301Y-52987500D01*
X94011004Y-51563798D01*
X94040001Y-51540001D01*
X94134974Y-51424276D01*
X94205546Y-51292247D01*
X94249003Y-51148986D01*
X94260000Y-51037333D01*
X94260000Y-51037324D01*
X94263676Y-51000001D01*
X94260000Y-50962678D01*
X94260000Y-49404320D01*
X94304494Y-49380537D01*
X94401185Y-49301185D01*
X94480537Y-49204494D01*
X94539502Y-49094180D01*
X94575812Y-48974482D01*
X94588072Y-48850000D01*
X94588072Y-48260000D01*
X94935199Y-48260000D01*
X95240000Y-48564802D01*
X95240001Y-49212659D01*
X95240000Y-49212668D01*
X95240000Y-49212678D01*
X95236324Y-49250000D01*
X95240000Y-49287323D01*
X95240000Y-49437724D01*
X95201745Y-49441492D01*
X95035149Y-49492028D01*
X94881613Y-49574095D01*
X94747038Y-49684538D01*
X94636595Y-49819113D01*
X94554528Y-49972649D01*
X94503992Y-50139245D01*
X94486928Y-50312499D01*
X94486928Y-50937501D01*
X94503992Y-51110755D01*
X94554528Y-51277351D01*
X94636595Y-51430887D01*
X94747038Y-51565462D01*
X94881613Y-51675905D01*
X95035149Y-51757972D01*
X95201745Y-51808508D01*
X95374999Y-51825572D01*
X95604906Y-51825572D01*
X95707754Y-51880546D01*
X95851015Y-51924003D01*
X96000000Y-51938677D01*
X96148986Y-51924003D01*
X96292247Y-51880546D01*
X96395095Y-51825572D01*
X96625001Y-51825572D01*
X96798255Y-51808508D01*
X96964851Y-51757972D01*
X97118387Y-51675905D01*
X97252962Y-51565462D01*
X97363405Y-51430887D01*
X97445472Y-51277351D01*
X97496008Y-51110755D01*
X97513072Y-50937501D01*
X97513072Y-50312499D01*
X97496008Y-50139245D01*
X97445472Y-49972649D01*
X97363405Y-49819113D01*
X97252962Y-49684538D01*
X97118387Y-49574095D01*
X96998474Y-49510000D01*
X105721822Y-49510000D01*
X105846525Y-49696632D01*
X106053368Y-49903475D01*
X106227760Y-50020000D01*
X106053368Y-50136525D01*
X105846525Y-50343368D01*
X105721822Y-50530000D01*
X100037325Y-50530000D01*
X100000000Y-50526324D01*
X99962675Y-50530000D01*
X99962667Y-50530000D01*
X99851014Y-50540997D01*
X99707753Y-50584454D01*
X99575724Y-50655026D01*
X99459999Y-50749999D01*
X99436201Y-50778997D01*
X97739003Y-52476196D01*
X97709999Y-52499999D01*
X97660966Y-52559746D01*
X97615026Y-52615724D01*
X97608999Y-52627000D01*
X97544454Y-52747754D01*
X97502939Y-52884613D01*
X97500812Y-52863018D01*
X97464502Y-52743320D01*
X97405537Y-52633006D01*
X97326185Y-52536315D01*
X97229494Y-52456963D01*
X97119180Y-52397998D01*
X96999482Y-52361688D01*
X96875000Y-52349428D01*
X96285750Y-52352500D01*
X96127000Y-52511250D01*
X96127000Y-53423000D01*
X96147000Y-53423000D01*
X96147000Y-53677000D01*
X96127000Y-53677000D01*
X96127000Y-53697000D01*
X95873000Y-53697000D01*
X95873000Y-53677000D01*
X94648750Y-53677000D01*
X94490000Y-53835750D01*
X94486928Y-54112500D01*
X94499188Y-54236982D01*
X94535498Y-54356680D01*
X94594463Y-54466994D01*
X94673815Y-54563685D01*
X94770506Y-54643037D01*
X94880820Y-54702002D01*
X95000518Y-54738312D01*
X95017657Y-54740000D01*
X88064802Y-54740000D01*
X87710000Y-54385199D01*
X87710000Y-53887932D01*
X87755887Y-53863405D01*
X87890462Y-53752962D01*
X88000905Y-53618387D01*
X88082972Y-53464851D01*
X88133508Y-53298255D01*
X88150572Y-53125001D01*
X88150572Y-51874999D01*
X88133508Y-51701745D01*
X88082972Y-51535149D01*
X88000905Y-51381613D01*
X87890462Y-51247038D01*
X87755887Y-51136595D01*
X87710000Y-51112068D01*
X87710000Y-50864802D01*
X88011007Y-50563795D01*
X88040001Y-50540001D01*
X88063795Y-50511008D01*
X88063799Y-50511004D01*
X88134973Y-50424277D01*
X88136532Y-50421361D01*
X88205546Y-50292247D01*
X88248417Y-50150917D01*
X88298255Y-50146008D01*
X88464851Y-50095472D01*
X88618387Y-50013405D01*
X88752962Y-49902962D01*
X88863405Y-49768387D01*
X88945472Y-49614851D01*
X88996008Y-49448255D01*
X89013072Y-49275001D01*
X89013072Y-48649999D01*
X88996008Y-48476745D01*
X88945472Y-48310149D01*
X88863405Y-48156613D01*
X88752962Y-48022038D01*
X88618387Y-47911595D01*
X88464851Y-47829528D01*
X88298255Y-47778992D01*
X88125001Y-47761928D01*
X86874999Y-47761928D01*
X86701745Y-47778992D01*
X86535149Y-47829528D01*
X86381613Y-47911595D01*
X86247038Y-48022038D01*
X86136595Y-48156613D01*
X86112068Y-48202500D01*
X84508329Y-48202500D01*
X84539502Y-48144180D01*
X84575812Y-48024482D01*
X84588072Y-47900000D01*
X84588072Y-47100000D01*
X84575812Y-46975518D01*
X84539502Y-46855820D01*
X84480537Y-46745506D01*
X84401185Y-46648815D01*
X84304494Y-46569463D01*
X84194180Y-46510498D01*
X84074482Y-46474188D01*
X83950000Y-46461928D01*
X83050000Y-46461928D01*
X82925518Y-46474188D01*
X82805820Y-46510498D01*
X82695506Y-46569463D01*
X82598815Y-46648815D01*
X82588072Y-46661905D01*
X82588072Y-46150000D01*
X82575812Y-46025518D01*
X82539502Y-45905820D01*
X82480537Y-45795506D01*
X82401185Y-45698815D01*
X82304494Y-45619463D01*
X82194180Y-45560498D01*
X82074482Y-45524188D01*
X81950000Y-45511928D01*
X81050000Y-45511928D01*
X80925518Y-45524188D01*
X80805820Y-45560498D01*
X80695506Y-45619463D01*
X80598815Y-45698815D01*
X80565015Y-45740000D01*
X78454320Y-45740000D01*
X78430537Y-45695506D01*
X78351185Y-45598815D01*
X78254494Y-45519463D01*
X78144180Y-45460498D01*
X78024482Y-45424188D01*
X77900000Y-45411928D01*
X77100000Y-45411928D01*
X76975518Y-45424188D01*
X76855820Y-45460498D01*
X76745506Y-45519463D01*
X76648815Y-45598815D01*
X76569463Y-45695506D01*
X76510498Y-45805820D01*
X76474188Y-45925518D01*
X76471741Y-45950363D01*
X76459999Y-45959999D01*
X76436196Y-45989003D01*
X76039003Y-46386196D01*
X76009999Y-46409999D01*
X75957321Y-46474188D01*
X75915026Y-46525724D01*
X75857004Y-46634275D01*
X75844454Y-46657754D01*
X75800997Y-46801015D01*
X75790000Y-46912668D01*
X75790000Y-46912678D01*
X75786324Y-46950000D01*
X75790000Y-46987323D01*
X75790000Y-47523981D01*
X75698815Y-47598815D01*
X75619463Y-47695506D01*
X75560498Y-47805820D01*
X75524188Y-47925518D01*
X75511928Y-48050000D01*
X73538321Y-48050000D01*
X73570472Y-47989851D01*
X73621008Y-47823255D01*
X73638072Y-47650001D01*
X73638072Y-46349999D01*
X73621008Y-46176745D01*
X73570472Y-46010149D01*
X73488405Y-45856613D01*
X73377962Y-45722038D01*
X73243387Y-45611595D01*
X73089851Y-45529528D01*
X72923255Y-45478992D01*
X72750001Y-45461928D01*
X72099999Y-45461928D01*
X71926745Y-45478992D01*
X71760149Y-45529528D01*
X71606613Y-45611595D01*
X71472038Y-45722038D01*
X71361595Y-45856613D01*
X71279528Y-46010149D01*
X71228992Y-46176745D01*
X71211928Y-46349999D01*
X70686821Y-46349999D01*
X70688072Y-46100000D01*
X70675812Y-45975518D01*
X70639502Y-45855820D01*
X70580537Y-45745506D01*
X70501185Y-45648815D01*
X70404494Y-45569463D01*
X70294180Y-45510498D01*
X70174482Y-45474188D01*
X70050000Y-45461928D01*
X69760750Y-45465000D01*
X69602000Y-45623750D01*
X69348000Y-45623750D01*
X69189250Y-45465000D01*
X68900000Y-45461928D01*
X68775518Y-45474188D01*
X68655820Y-45510498D01*
X68545506Y-45569463D01*
X68448815Y-45648815D01*
X68369463Y-45745506D01*
X68310498Y-45855820D01*
X68274188Y-45975518D01*
X68261928Y-46100000D01*
X64166293Y-46100000D01*
X64145892Y-45892869D01*
X64138199Y-45867509D01*
X64138199Y-45487014D01*
X64915578Y-43154878D01*
X65000000Y-43163193D01*
X65032419Y-43160000D01*
X97532419Y-43160000D01*
X97561718Y-43157114D01*
X97577271Y-43157223D01*
X97586442Y-43156323D01*
X98071684Y-43105322D01*
X98130247Y-43093301D01*
X98189040Y-43082086D01*
X98197862Y-43079422D01*
X98663956Y-42935142D01*
X98719086Y-42911967D01*
X98774565Y-42889553D01*
X98782701Y-42885226D01*
X99211894Y-42653162D01*
X99250681Y-42627000D01*
X109340001Y-42627000D01*
X109340000Y-57373000D01*
G37*
G04 #@! TD.AperFunction*
D22*
X105511928Y-47060000D02*
X105524188Y-47184482D01*
X105560498Y-47304180D01*
X105619463Y-47414494D01*
X105698815Y-47511185D01*
X105795506Y-47590537D01*
X105905820Y-47649502D01*
X105978380Y-47671513D01*
X105846525Y-47803368D01*
X105721822Y-47990000D01*
X96715328Y-47990000D01*
X96705546Y-47957753D01*
X96634974Y-47825724D01*
X96540001Y-47709999D01*
X96511004Y-47686202D01*
X96134801Y-47310000D01*
X96662678Y-47310000D01*
X96700000Y-47313676D01*
X96737322Y-47310000D01*
X96737333Y-47310000D01*
X96848986Y-47299003D01*
X96992247Y-47255546D01*
X97124276Y-47184974D01*
X97240001Y-47090001D01*
X97263804Y-47060997D01*
X97354801Y-46970000D01*
X105511928Y-46970000D01*
X105511928Y-47060000D01*
G04 #@! TA.AperFunction,Conductor*
D23*
G36*
X105511928Y-47060000D02*
G01*
X105524188Y-47184482D01*
X105560498Y-47304180D01*
X105619463Y-47414494D01*
X105698815Y-47511185D01*
X105795506Y-47590537D01*
X105905820Y-47649502D01*
X105978380Y-47671513D01*
X105846525Y-47803368D01*
X105721822Y-47990000D01*
X96715328Y-47990000D01*
X96705546Y-47957753D01*
X96634974Y-47825724D01*
X96540001Y-47709999D01*
X96511004Y-47686202D01*
X96134801Y-47310000D01*
X96662678Y-47310000D01*
X96700000Y-47313676D01*
X96737322Y-47310000D01*
X96737333Y-47310000D01*
X96848986Y-47299003D01*
X96992247Y-47255546D01*
X97124276Y-47184974D01*
X97240001Y-47090001D01*
X97263804Y-47060997D01*
X97354801Y-46970000D01*
X105511928Y-46970000D01*
X105511928Y-47060000D01*
G37*
G04 #@! TD.AperFunction*
M02*
