M48
; DRILL file {KiCad 7.0.1.1-36-gbcf78dbe24-dirty-deb11} date Sun Apr 30 11:41:34 2023
; FORMAT={-:-/ absolute / inch / decimal}
; #@! TF.CreationDate,2023-04-30T11:41:34+00:00
; #@! TF.GenerationSoftware,Kicad,Pcbnew,7.0.1.1-36-gbcf78dbe24-dirty-deb11
; #@! TF.FileFunction,Plated,1,4,PTH
FMAT,2
INCH
; #@! TA.AperFunction,Plated,PTH,ViaDrill
T1C0.0157
; #@! TA.AperFunction,Plated,PTH,ComponentDrill
T2C0.0374
; #@! TA.AperFunction,Plated,PTH,ComponentDrill
T3C0.0394
; #@! TA.AperFunction,Plated,PTH,ComponentDrill
T4C0.0472
; #@! TA.AperFunction,Plated,PTH,ComponentDrill
T5C0.1063
%
G90
G05
T1
X1.01Y-1.73
X1.05Y-1.73
X1.41Y-1.73
X1.41Y-1.91
X1.5Y-1.83
X1.55Y-1.18
X1.58Y-2.01
X1.65Y-1.61
X1.79Y-1.73
X1.8031Y-1.2362
X1.82Y-1.96
X1.86Y-1.85
X1.9134Y-0.8425
X1.9528Y-0.8425
X1.9921Y-0.8425
X2.3228Y-1.4173
X2.3228Y-2.0472
X2.3228Y-2.0866
X2.3327Y-1.2303
X2.3622Y-2.0472
X2.3622Y-2.0866
X2.372Y-1.2303
X2.4016Y-2.0472
X2.4016Y-2.0866
X2.4114Y-1.2303
X2.4508Y-1.2303
X2.6772Y-2.0866
X2.7165Y-0.9055
X2.7165Y-2.0866
X2.8937Y-2.05
X2.92Y-1.65
X2.99Y-2.17
X3.1299Y-1.8307
X3.1299Y-1.9488
X3.13Y-1.61
X3.22Y-1.55
X3.3209Y-1.1673
X3.3868Y-1.1801
X3.8Y-2.025
X4.0157Y-1.9094
X4.12Y-1.61
X4.21Y-2.04
X4.32Y-2.01
T2
X4.2126Y-1.5551
X4.2126Y-1.6535
X4.2126Y-1.752
X4.2126Y-1.8504
T3
X0.92Y-1.63
X0.92Y-1.73
X0.92Y-1.83
X1.05Y-2.06
X1.05Y-2.1584
T4
X1.3122Y-1.0
X1.45Y-1.0
X1.5Y-2.4
X1.6378Y-2.4
X2.65Y-2.4
X2.7878Y-2.4
X3.525Y-2.4
X3.6628Y-2.4
T5
X0.9449Y-0.9449
X0.9449Y-2.4409
X4.3701Y-0.9449
X4.3701Y-2.4409
T3
G00X0.9Y-1.2106
M15
G01X0.9Y-1.2894
M16
G05
G00X0.9787Y-1.435
M15
G01X1.0575Y-1.435
M16
G05
G00X1.1362Y-1.2106
M15
G01X1.1362Y-1.2894
M16
G05
T0
M30
