G04 #@! TF.GenerationSoftware,KiCad,Pcbnew,6.0.5+dfsg-1~bpo11+1*
G04 #@! TF.CreationDate,2022-06-16T13:06:08+00:00*
G04 #@! TF.ProjectId,PowerDistribution,506f7765-7244-4697-9374-726962757469,v1.0.0-RC2*
G04 #@! TF.SameCoordinates,Original*
G04 #@! TF.FileFunction,Legend,Bot*
G04 #@! TF.FilePolarity,Positive*
%FSLAX46Y46*%
G04 Gerber Fmt 4.6, Leading zero omitted, Abs format (unit mm)*
G04 Created by KiCad (PCBNEW 6.0.5+dfsg-1~bpo11+1) date 2022-06-16 13:06:08*
%MOMM*%
%LPD*%
G01*
G04 APERTURE LIST*
%ADD10C,0.150000*%
%ADD11C,0.200000*%
%ADD12C,2.400000*%
%ADD13R,2.400000X2.400000*%
%ADD14C,4.700000*%
%ADD15O,1.950000X1.700000*%
%ADD16R,3.500000X3.500000*%
%ADD17O,1.700000X1.700000*%
%ADD18R,1.700000X1.700000*%
%ADD19O,2.000000X1.700000*%
G04 APERTURE END LIST*
D10*
X39448809Y-28011428D02*
X38686904Y-28011428D01*
X39067857Y-28392380D02*
X39067857Y-27630476D01*
X36925000Y-28392380D02*
X37496428Y-28392380D01*
X37210714Y-28392380D02*
X37210714Y-27392380D01*
X37305952Y-27535238D01*
X37401190Y-27630476D01*
X37496428Y-27678095D01*
X36544047Y-27487619D02*
X36496428Y-27440000D01*
X36401190Y-27392380D01*
X36163095Y-27392380D01*
X36067857Y-27440000D01*
X36020238Y-27487619D01*
X35972619Y-27582857D01*
X35972619Y-27678095D01*
X36020238Y-27820952D01*
X36591666Y-28392380D01*
X35972619Y-28392380D01*
X35686904Y-27392380D02*
X35353571Y-28392380D01*
X35020238Y-27392380D01*
X33925000Y-28392380D02*
X33925000Y-27392380D01*
X33686904Y-27392380D01*
X33544047Y-27440000D01*
X33448809Y-27535238D01*
X33401190Y-27630476D01*
X33353571Y-27820952D01*
X33353571Y-27963809D01*
X33401190Y-28154285D01*
X33448809Y-28249523D01*
X33544047Y-28344761D01*
X33686904Y-28392380D01*
X33925000Y-28392380D01*
X32353571Y-28297142D02*
X32401190Y-28344761D01*
X32544047Y-28392380D01*
X32639285Y-28392380D01*
X32782142Y-28344761D01*
X32877380Y-28249523D01*
X32925000Y-28154285D01*
X32972619Y-27963809D01*
X32972619Y-27820952D01*
X32925000Y-27630476D01*
X32877380Y-27535238D01*
X32782142Y-27440000D01*
X32639285Y-27392380D01*
X32544047Y-27392380D01*
X32401190Y-27440000D01*
X32353571Y-27487619D01*
X31163095Y-28011428D02*
X30401190Y-28011428D01*
X104280690Y-25485380D02*
X104280690Y-26199666D01*
X104328309Y-26342523D01*
X104423547Y-26437761D01*
X104566404Y-26485380D01*
X104661642Y-26485380D01*
X103804500Y-26485380D02*
X103804500Y-25485380D01*
X103423547Y-25485380D01*
X103328309Y-25533000D01*
X103280690Y-25580619D01*
X103233071Y-25675857D01*
X103233071Y-25818714D01*
X103280690Y-25913952D01*
X103328309Y-25961571D01*
X103423547Y-26009190D01*
X103804500Y-26009190D01*
X102280690Y-26485380D02*
X102852119Y-26485380D01*
X102566404Y-26485380D02*
X102566404Y-25485380D01*
X102661642Y-25628238D01*
X102756880Y-25723476D01*
X102852119Y-25771095D01*
X100280690Y-26485380D02*
X100328309Y-26485380D01*
X100423547Y-26437761D01*
X100566404Y-26294904D01*
X100804500Y-26009190D01*
X100899738Y-25866333D01*
X100947357Y-25723476D01*
X100947357Y-25628238D01*
X100899738Y-25533000D01*
X100804500Y-25485380D01*
X100756880Y-25485380D01*
X100661642Y-25533000D01*
X100614023Y-25628238D01*
X100614023Y-25675857D01*
X100661642Y-25771095D01*
X100709261Y-25818714D01*
X100994976Y-26009190D01*
X101042595Y-26056809D01*
X101090214Y-26152047D01*
X101090214Y-26294904D01*
X101042595Y-26390142D01*
X100994976Y-26437761D01*
X100899738Y-26485380D01*
X100756880Y-26485380D01*
X100661642Y-26437761D01*
X100614023Y-26390142D01*
X100471166Y-26199666D01*
X100423547Y-26056809D01*
X100423547Y-25961571D01*
X98804500Y-25485380D02*
X98804500Y-26199666D01*
X98852119Y-26342523D01*
X98947357Y-26437761D01*
X99090214Y-26485380D01*
X99185452Y-26485380D01*
X98328309Y-26485380D02*
X98328309Y-25485380D01*
X97947357Y-25485380D01*
X97852119Y-25533000D01*
X97804500Y-25580619D01*
X97756880Y-25675857D01*
X97756880Y-25818714D01*
X97804500Y-25913952D01*
X97852119Y-25961571D01*
X97947357Y-26009190D01*
X98328309Y-26009190D01*
X97375928Y-25580619D02*
X97328309Y-25533000D01*
X97233071Y-25485380D01*
X96994976Y-25485380D01*
X96899738Y-25533000D01*
X96852119Y-25580619D01*
X96804500Y-25675857D01*
X96804500Y-25771095D01*
X96852119Y-25913952D01*
X97423547Y-26485380D01*
X96804500Y-26485380D01*
X95185452Y-26437761D02*
X95280690Y-26485380D01*
X95471166Y-26485380D01*
X95566404Y-26437761D01*
X95614023Y-26390142D01*
X95661642Y-26294904D01*
X95661642Y-26009190D01*
X95614023Y-25913952D01*
X95566404Y-25866333D01*
X95471166Y-25818714D01*
X95280690Y-25818714D01*
X95185452Y-25866333D01*
X94328309Y-25818714D02*
X94328309Y-26485380D01*
X94756880Y-25818714D02*
X94756880Y-26342523D01*
X94709261Y-26437761D01*
X94614023Y-26485380D01*
X94471166Y-26485380D01*
X94375928Y-26437761D01*
X94328309Y-26390142D01*
X93994976Y-25818714D02*
X93614023Y-25818714D01*
X93852119Y-25485380D02*
X93852119Y-26342523D01*
X93804500Y-26437761D01*
X93709261Y-26485380D01*
X93614023Y-26485380D01*
X92661642Y-25818714D02*
X92280690Y-25818714D01*
X92518785Y-25485380D02*
X92518785Y-26342523D01*
X92471166Y-26437761D01*
X92375928Y-26485380D01*
X92280690Y-26485380D01*
X91804500Y-26485380D02*
X91899738Y-26437761D01*
X91947357Y-26390142D01*
X91994976Y-26294904D01*
X91994976Y-26009190D01*
X91947357Y-25913952D01*
X91899738Y-25866333D01*
X91804500Y-25818714D01*
X91661642Y-25818714D01*
X91566404Y-25866333D01*
X91518785Y-25913952D01*
X91471166Y-26009190D01*
X91471166Y-26294904D01*
X91518785Y-26390142D01*
X91566404Y-26437761D01*
X91661642Y-26485380D01*
X91804500Y-26485380D01*
X90280690Y-26485380D02*
X90280690Y-25818714D01*
X90280690Y-26009190D02*
X90233071Y-25913952D01*
X90185452Y-25866333D01*
X90090214Y-25818714D01*
X89994976Y-25818714D01*
X89280690Y-26437761D02*
X89375928Y-26485380D01*
X89566404Y-26485380D01*
X89661642Y-26437761D01*
X89709261Y-26342523D01*
X89709261Y-25961571D01*
X89661642Y-25866333D01*
X89566404Y-25818714D01*
X89375928Y-25818714D01*
X89280690Y-25866333D01*
X89233071Y-25961571D01*
X89233071Y-26056809D01*
X89709261Y-26152047D01*
X88804500Y-26485380D02*
X88804500Y-25818714D01*
X88804500Y-25913952D02*
X88756880Y-25866333D01*
X88661642Y-25818714D01*
X88518785Y-25818714D01*
X88423547Y-25866333D01*
X88375928Y-25961571D01*
X88375928Y-26485380D01*
X88375928Y-25961571D02*
X88328309Y-25866333D01*
X88233071Y-25818714D01*
X88090214Y-25818714D01*
X87994976Y-25866333D01*
X87947357Y-25961571D01*
X87947357Y-26485380D01*
X87328309Y-26485380D02*
X87423547Y-26437761D01*
X87471166Y-26390142D01*
X87518785Y-26294904D01*
X87518785Y-26009190D01*
X87471166Y-25913952D01*
X87423547Y-25866333D01*
X87328309Y-25818714D01*
X87185452Y-25818714D01*
X87090214Y-25866333D01*
X87042595Y-25913952D01*
X86994976Y-26009190D01*
X86994976Y-26294904D01*
X87042595Y-26390142D01*
X87090214Y-26437761D01*
X87185452Y-26485380D01*
X87328309Y-26485380D01*
X86661642Y-25818714D02*
X86423547Y-26485380D01*
X86185452Y-25818714D01*
X85423547Y-26437761D02*
X85518785Y-26485380D01*
X85709261Y-26485380D01*
X85804500Y-26437761D01*
X85852119Y-26342523D01*
X85852119Y-25961571D01*
X85804500Y-25866333D01*
X85709261Y-25818714D01*
X85518785Y-25818714D01*
X85423547Y-25866333D01*
X85375928Y-25961571D01*
X85375928Y-26056809D01*
X85852119Y-26152047D01*
X84185452Y-26485380D02*
X84185452Y-25485380D01*
X83947357Y-25485380D01*
X83804500Y-25533000D01*
X83709261Y-25628238D01*
X83661642Y-25723476D01*
X83614023Y-25913952D01*
X83614023Y-26056809D01*
X83661642Y-26247285D01*
X83709261Y-26342523D01*
X83804500Y-26437761D01*
X83947357Y-26485380D01*
X84185452Y-26485380D01*
X82614023Y-26390142D02*
X82661642Y-26437761D01*
X82804500Y-26485380D01*
X82899738Y-26485380D01*
X83042595Y-26437761D01*
X83137833Y-26342523D01*
X83185452Y-26247285D01*
X83233071Y-26056809D01*
X83233071Y-25913952D01*
X83185452Y-25723476D01*
X83137833Y-25628238D01*
X83042595Y-25533000D01*
X82899738Y-25485380D01*
X82804500Y-25485380D01*
X82661642Y-25533000D01*
X82614023Y-25580619D01*
X81614023Y-26390142D02*
X81661642Y-26437761D01*
X81804500Y-26485380D01*
X81899738Y-26485380D01*
X82042595Y-26437761D01*
X82137833Y-26342523D01*
X82185452Y-26247285D01*
X82233071Y-26056809D01*
X82233071Y-25913952D01*
X82185452Y-25723476D01*
X82137833Y-25628238D01*
X82042595Y-25533000D01*
X81899738Y-25485380D01*
X81804500Y-25485380D01*
X81661642Y-25533000D01*
X81614023Y-25580619D01*
X80423547Y-26485380D02*
X80423547Y-25485380D01*
X80042595Y-25485380D01*
X79947357Y-25533000D01*
X79899738Y-25580619D01*
X79852119Y-25675857D01*
X79852119Y-25818714D01*
X79899738Y-25913952D01*
X79947357Y-25961571D01*
X80042595Y-26009190D01*
X80423547Y-26009190D01*
X79280690Y-26485380D02*
X79375928Y-26437761D01*
X79423547Y-26390142D01*
X79471166Y-26294904D01*
X79471166Y-26009190D01*
X79423547Y-25913952D01*
X79375928Y-25866333D01*
X79280690Y-25818714D01*
X79137833Y-25818714D01*
X79042595Y-25866333D01*
X78994976Y-25913952D01*
X78947357Y-26009190D01*
X78947357Y-26294904D01*
X78994976Y-26390142D01*
X79042595Y-26437761D01*
X79137833Y-26485380D01*
X79280690Y-26485380D01*
X78614023Y-25818714D02*
X78423547Y-26485380D01*
X78233071Y-26009190D01*
X78042595Y-26485380D01*
X77852119Y-25818714D01*
X77090214Y-26437761D02*
X77185452Y-26485380D01*
X77375928Y-26485380D01*
X77471166Y-26437761D01*
X77518785Y-26342523D01*
X77518785Y-25961571D01*
X77471166Y-25866333D01*
X77375928Y-25818714D01*
X77185452Y-25818714D01*
X77090214Y-25866333D01*
X77042595Y-25961571D01*
X77042595Y-26056809D01*
X77518785Y-26152047D01*
X76614023Y-26485380D02*
X76614023Y-25818714D01*
X76614023Y-26009190D02*
X76566404Y-25913952D01*
X76518785Y-25866333D01*
X76423547Y-25818714D01*
X76328309Y-25818714D01*
X74804500Y-26485380D02*
X74804500Y-25961571D01*
X74852119Y-25866333D01*
X74947357Y-25818714D01*
X75137833Y-25818714D01*
X75233071Y-25866333D01*
X74804500Y-26437761D02*
X74899738Y-26485380D01*
X75137833Y-26485380D01*
X75233071Y-26437761D01*
X75280690Y-26342523D01*
X75280690Y-26247285D01*
X75233071Y-26152047D01*
X75137833Y-26104428D01*
X74899738Y-26104428D01*
X74804500Y-26056809D01*
X74328309Y-25818714D02*
X74328309Y-26485380D01*
X74328309Y-25913952D02*
X74280690Y-25866333D01*
X74185452Y-25818714D01*
X74042595Y-25818714D01*
X73947357Y-25866333D01*
X73899738Y-25961571D01*
X73899738Y-26485380D01*
X72994976Y-26485380D02*
X72994976Y-25485380D01*
X72994976Y-26437761D02*
X73090214Y-26485380D01*
X73280690Y-26485380D01*
X73375928Y-26437761D01*
X73423547Y-26390142D01*
X73471166Y-26294904D01*
X73471166Y-26009190D01*
X73423547Y-25913952D01*
X73375928Y-25866333D01*
X73280690Y-25818714D01*
X73090214Y-25818714D01*
X72994976Y-25866333D01*
X71804500Y-26199666D02*
X71328309Y-26199666D01*
X71899738Y-26485380D02*
X71566404Y-25485380D01*
X71233071Y-26485380D01*
X70328309Y-26390142D02*
X70375928Y-26437761D01*
X70518785Y-26485380D01*
X70614023Y-26485380D01*
X70756880Y-26437761D01*
X70852119Y-26342523D01*
X70899738Y-26247285D01*
X70947357Y-26056809D01*
X70947357Y-25913952D01*
X70899738Y-25723476D01*
X70852119Y-25628238D01*
X70756880Y-25533000D01*
X70614023Y-25485380D01*
X70518785Y-25485380D01*
X70375928Y-25533000D01*
X70328309Y-25580619D01*
X69899738Y-26485380D02*
X69899738Y-25485380D01*
X69328309Y-26485380D02*
X69756880Y-25913952D01*
X69328309Y-25485380D02*
X69899738Y-26056809D01*
X104280690Y-27095380D02*
X104280690Y-27809666D01*
X104328309Y-27952523D01*
X104423547Y-28047761D01*
X104566404Y-28095380D01*
X104661642Y-28095380D01*
X103804500Y-28095380D02*
X103804500Y-27095380D01*
X103423547Y-27095380D01*
X103328309Y-27143000D01*
X103280690Y-27190619D01*
X103233071Y-27285857D01*
X103233071Y-27428714D01*
X103280690Y-27523952D01*
X103328309Y-27571571D01*
X103423547Y-27619190D01*
X103804500Y-27619190D01*
X102899738Y-27095380D02*
X102280690Y-27095380D01*
X102614023Y-27476333D01*
X102471166Y-27476333D01*
X102375928Y-27523952D01*
X102328309Y-27571571D01*
X102280690Y-27666809D01*
X102280690Y-27904904D01*
X102328309Y-28000142D01*
X102375928Y-28047761D01*
X102471166Y-28095380D01*
X102756880Y-28095380D01*
X102852119Y-28047761D01*
X102899738Y-28000142D01*
X100280690Y-28095380D02*
X100328309Y-28095380D01*
X100423547Y-28047761D01*
X100566404Y-27904904D01*
X100804500Y-27619190D01*
X100899738Y-27476333D01*
X100947357Y-27333476D01*
X100947357Y-27238238D01*
X100899738Y-27143000D01*
X100804500Y-27095380D01*
X100756880Y-27095380D01*
X100661642Y-27143000D01*
X100614023Y-27238238D01*
X100614023Y-27285857D01*
X100661642Y-27381095D01*
X100709261Y-27428714D01*
X100994976Y-27619190D01*
X101042595Y-27666809D01*
X101090214Y-27762047D01*
X101090214Y-27904904D01*
X101042595Y-28000142D01*
X100994976Y-28047761D01*
X100899738Y-28095380D01*
X100756880Y-28095380D01*
X100661642Y-28047761D01*
X100614023Y-28000142D01*
X100471166Y-27809666D01*
X100423547Y-27666809D01*
X100423547Y-27571571D01*
X98804500Y-27095380D02*
X98804500Y-27809666D01*
X98852119Y-27952523D01*
X98947357Y-28047761D01*
X99090214Y-28095380D01*
X99185452Y-28095380D01*
X98328309Y-28095380D02*
X98328309Y-27095380D01*
X97947357Y-27095380D01*
X97852119Y-27143000D01*
X97804500Y-27190619D01*
X97756880Y-27285857D01*
X97756880Y-27428714D01*
X97804500Y-27523952D01*
X97852119Y-27571571D01*
X97947357Y-27619190D01*
X98328309Y-27619190D01*
X96899738Y-27428714D02*
X96899738Y-28095380D01*
X97137833Y-27047761D02*
X97375928Y-27762047D01*
X96756880Y-27762047D01*
X95185452Y-28047761D02*
X95280690Y-28095380D01*
X95471166Y-28095380D01*
X95566404Y-28047761D01*
X95614023Y-28000142D01*
X95661642Y-27904904D01*
X95661642Y-27619190D01*
X95614023Y-27523952D01*
X95566404Y-27476333D01*
X95471166Y-27428714D01*
X95280690Y-27428714D01*
X95185452Y-27476333D01*
X94328309Y-27428714D02*
X94328309Y-28095380D01*
X94756880Y-27428714D02*
X94756880Y-27952523D01*
X94709261Y-28047761D01*
X94614023Y-28095380D01*
X94471166Y-28095380D01*
X94375928Y-28047761D01*
X94328309Y-28000142D01*
X93994976Y-27428714D02*
X93614023Y-27428714D01*
X93852119Y-27095380D02*
X93852119Y-27952523D01*
X93804500Y-28047761D01*
X93709261Y-28095380D01*
X93614023Y-28095380D01*
X92661642Y-27428714D02*
X92280690Y-27428714D01*
X92518785Y-27095380D02*
X92518785Y-27952523D01*
X92471166Y-28047761D01*
X92375928Y-28095380D01*
X92280690Y-28095380D01*
X91804500Y-28095380D02*
X91899738Y-28047761D01*
X91947357Y-28000142D01*
X91994976Y-27904904D01*
X91994976Y-27619190D01*
X91947357Y-27523952D01*
X91899738Y-27476333D01*
X91804500Y-27428714D01*
X91661642Y-27428714D01*
X91566404Y-27476333D01*
X91518785Y-27523952D01*
X91471166Y-27619190D01*
X91471166Y-27904904D01*
X91518785Y-28000142D01*
X91566404Y-28047761D01*
X91661642Y-28095380D01*
X91804500Y-28095380D01*
X90280690Y-28095380D02*
X90280690Y-27428714D01*
X90280690Y-27619190D02*
X90233071Y-27523952D01*
X90185452Y-27476333D01*
X90090214Y-27428714D01*
X89994976Y-27428714D01*
X89280690Y-28047761D02*
X89375928Y-28095380D01*
X89566404Y-28095380D01*
X89661642Y-28047761D01*
X89709261Y-27952523D01*
X89709261Y-27571571D01*
X89661642Y-27476333D01*
X89566404Y-27428714D01*
X89375928Y-27428714D01*
X89280690Y-27476333D01*
X89233071Y-27571571D01*
X89233071Y-27666809D01*
X89709261Y-27762047D01*
X88804500Y-28095380D02*
X88804500Y-27428714D01*
X88804500Y-27523952D02*
X88756880Y-27476333D01*
X88661642Y-27428714D01*
X88518785Y-27428714D01*
X88423547Y-27476333D01*
X88375928Y-27571571D01*
X88375928Y-28095380D01*
X88375928Y-27571571D02*
X88328309Y-27476333D01*
X88233071Y-27428714D01*
X88090214Y-27428714D01*
X87994976Y-27476333D01*
X87947357Y-27571571D01*
X87947357Y-28095380D01*
X87328309Y-28095380D02*
X87423547Y-28047761D01*
X87471166Y-28000142D01*
X87518785Y-27904904D01*
X87518785Y-27619190D01*
X87471166Y-27523952D01*
X87423547Y-27476333D01*
X87328309Y-27428714D01*
X87185452Y-27428714D01*
X87090214Y-27476333D01*
X87042595Y-27523952D01*
X86994976Y-27619190D01*
X86994976Y-27904904D01*
X87042595Y-28000142D01*
X87090214Y-28047761D01*
X87185452Y-28095380D01*
X87328309Y-28095380D01*
X86661642Y-27428714D02*
X86423547Y-28095380D01*
X86185452Y-27428714D01*
X85423547Y-28047761D02*
X85518785Y-28095380D01*
X85709261Y-28095380D01*
X85804500Y-28047761D01*
X85852119Y-27952523D01*
X85852119Y-27571571D01*
X85804500Y-27476333D01*
X85709261Y-27428714D01*
X85518785Y-27428714D01*
X85423547Y-27476333D01*
X85375928Y-27571571D01*
X85375928Y-27666809D01*
X85852119Y-27762047D01*
X84185452Y-28095380D02*
X84185452Y-27095380D01*
X83947357Y-27095380D01*
X83804500Y-27143000D01*
X83709261Y-27238238D01*
X83661642Y-27333476D01*
X83614023Y-27523952D01*
X83614023Y-27666809D01*
X83661642Y-27857285D01*
X83709261Y-27952523D01*
X83804500Y-28047761D01*
X83947357Y-28095380D01*
X84185452Y-28095380D01*
X82614023Y-28000142D02*
X82661642Y-28047761D01*
X82804500Y-28095380D01*
X82899738Y-28095380D01*
X83042595Y-28047761D01*
X83137833Y-27952523D01*
X83185452Y-27857285D01*
X83233071Y-27666809D01*
X83233071Y-27523952D01*
X83185452Y-27333476D01*
X83137833Y-27238238D01*
X83042595Y-27143000D01*
X82899738Y-27095380D01*
X82804500Y-27095380D01*
X82661642Y-27143000D01*
X82614023Y-27190619D01*
X81614023Y-28000142D02*
X81661642Y-28047761D01*
X81804500Y-28095380D01*
X81899738Y-28095380D01*
X82042595Y-28047761D01*
X82137833Y-27952523D01*
X82185452Y-27857285D01*
X82233071Y-27666809D01*
X82233071Y-27523952D01*
X82185452Y-27333476D01*
X82137833Y-27238238D01*
X82042595Y-27143000D01*
X81899738Y-27095380D01*
X81804500Y-27095380D01*
X81661642Y-27143000D01*
X81614023Y-27190619D01*
X80423547Y-28095380D02*
X80423547Y-27095380D01*
X80042595Y-27095380D01*
X79947357Y-27143000D01*
X79899738Y-27190619D01*
X79852119Y-27285857D01*
X79852119Y-27428714D01*
X79899738Y-27523952D01*
X79947357Y-27571571D01*
X80042595Y-27619190D01*
X80423547Y-27619190D01*
X79280690Y-28095380D02*
X79375928Y-28047761D01*
X79423547Y-28000142D01*
X79471166Y-27904904D01*
X79471166Y-27619190D01*
X79423547Y-27523952D01*
X79375928Y-27476333D01*
X79280690Y-27428714D01*
X79137833Y-27428714D01*
X79042595Y-27476333D01*
X78994976Y-27523952D01*
X78947357Y-27619190D01*
X78947357Y-27904904D01*
X78994976Y-28000142D01*
X79042595Y-28047761D01*
X79137833Y-28095380D01*
X79280690Y-28095380D01*
X78614023Y-27428714D02*
X78423547Y-28095380D01*
X78233071Y-27619190D01*
X78042595Y-28095380D01*
X77852119Y-27428714D01*
X77090214Y-28047761D02*
X77185452Y-28095380D01*
X77375928Y-28095380D01*
X77471166Y-28047761D01*
X77518785Y-27952523D01*
X77518785Y-27571571D01*
X77471166Y-27476333D01*
X77375928Y-27428714D01*
X77185452Y-27428714D01*
X77090214Y-27476333D01*
X77042595Y-27571571D01*
X77042595Y-27666809D01*
X77518785Y-27762047D01*
X76614023Y-28095380D02*
X76614023Y-27428714D01*
X76614023Y-27619190D02*
X76566404Y-27523952D01*
X76518785Y-27476333D01*
X76423547Y-27428714D01*
X76328309Y-27428714D01*
X104280690Y-28705380D02*
X104280690Y-29419666D01*
X104328309Y-29562523D01*
X104423547Y-29657761D01*
X104566404Y-29705380D01*
X104661642Y-29705380D01*
X103804500Y-29705380D02*
X103804500Y-28705380D01*
X103423547Y-28705380D01*
X103328309Y-28753000D01*
X103280690Y-28800619D01*
X103233071Y-28895857D01*
X103233071Y-29038714D01*
X103280690Y-29133952D01*
X103328309Y-29181571D01*
X103423547Y-29229190D01*
X103804500Y-29229190D01*
X102328309Y-28705380D02*
X102804500Y-28705380D01*
X102852119Y-29181571D01*
X102804500Y-29133952D01*
X102709261Y-29086333D01*
X102471166Y-29086333D01*
X102375928Y-29133952D01*
X102328309Y-29181571D01*
X102280690Y-29276809D01*
X102280690Y-29514904D01*
X102328309Y-29610142D01*
X102375928Y-29657761D01*
X102471166Y-29705380D01*
X102709261Y-29705380D01*
X102804500Y-29657761D01*
X102852119Y-29610142D01*
X101804500Y-29657761D02*
X101804500Y-29705380D01*
X101852119Y-29800619D01*
X101899738Y-29848238D01*
X100328309Y-28705380D02*
X100328309Y-29419666D01*
X100375928Y-29562523D01*
X100471166Y-29657761D01*
X100614023Y-29705380D01*
X100709261Y-29705380D01*
X99852119Y-29705380D02*
X99852119Y-28705380D01*
X99471166Y-28705380D01*
X99375928Y-28753000D01*
X99328309Y-28800619D01*
X99280690Y-28895857D01*
X99280690Y-29038714D01*
X99328309Y-29133952D01*
X99375928Y-29181571D01*
X99471166Y-29229190D01*
X99852119Y-29229190D01*
X98423547Y-28705380D02*
X98614023Y-28705380D01*
X98709261Y-28753000D01*
X98756880Y-28800619D01*
X98852119Y-28943476D01*
X98899738Y-29133952D01*
X98899738Y-29514904D01*
X98852119Y-29610142D01*
X98804500Y-29657761D01*
X98709261Y-29705380D01*
X98518785Y-29705380D01*
X98423547Y-29657761D01*
X98375928Y-29610142D01*
X98328309Y-29514904D01*
X98328309Y-29276809D01*
X98375928Y-29181571D01*
X98423547Y-29133952D01*
X98518785Y-29086333D01*
X98709261Y-29086333D01*
X98804500Y-29133952D01*
X98852119Y-29181571D01*
X98899738Y-29276809D01*
X96328309Y-29705380D02*
X96375928Y-29705380D01*
X96471166Y-29657761D01*
X96614023Y-29514904D01*
X96852119Y-29229190D01*
X96947357Y-29086333D01*
X96994976Y-28943476D01*
X96994976Y-28848238D01*
X96947357Y-28753000D01*
X96852119Y-28705380D01*
X96804500Y-28705380D01*
X96709261Y-28753000D01*
X96661642Y-28848238D01*
X96661642Y-28895857D01*
X96709261Y-28991095D01*
X96756880Y-29038714D01*
X97042595Y-29229190D01*
X97090214Y-29276809D01*
X97137833Y-29372047D01*
X97137833Y-29514904D01*
X97090214Y-29610142D01*
X97042595Y-29657761D01*
X96947357Y-29705380D01*
X96804500Y-29705380D01*
X96709261Y-29657761D01*
X96661642Y-29610142D01*
X96518785Y-29419666D01*
X96471166Y-29276809D01*
X96471166Y-29181571D01*
X94852119Y-28705380D02*
X94852119Y-29419666D01*
X94899738Y-29562523D01*
X94994976Y-29657761D01*
X95137833Y-29705380D01*
X95233071Y-29705380D01*
X94375928Y-29705380D02*
X94375928Y-28705380D01*
X93994976Y-28705380D01*
X93899738Y-28753000D01*
X93852119Y-28800619D01*
X93804500Y-28895857D01*
X93804500Y-29038714D01*
X93852119Y-29133952D01*
X93899738Y-29181571D01*
X93994976Y-29229190D01*
X94375928Y-29229190D01*
X93471166Y-28705380D02*
X92804500Y-28705380D01*
X93233071Y-29705380D01*
X91233071Y-29657761D02*
X91328309Y-29705380D01*
X91518785Y-29705380D01*
X91614023Y-29657761D01*
X91661642Y-29610142D01*
X91709261Y-29514904D01*
X91709261Y-29229190D01*
X91661642Y-29133952D01*
X91614023Y-29086333D01*
X91518785Y-29038714D01*
X91328309Y-29038714D01*
X91233071Y-29086333D01*
X90375928Y-29038714D02*
X90375928Y-29705380D01*
X90804500Y-29038714D02*
X90804500Y-29562523D01*
X90756880Y-29657761D01*
X90661642Y-29705380D01*
X90518785Y-29705380D01*
X90423547Y-29657761D01*
X90375928Y-29610142D01*
X90042595Y-29038714D02*
X89661642Y-29038714D01*
X89899738Y-28705380D02*
X89899738Y-29562523D01*
X89852119Y-29657761D01*
X89756880Y-29705380D01*
X89661642Y-29705380D01*
X88709261Y-29038714D02*
X88328309Y-29038714D01*
X88566404Y-28705380D02*
X88566404Y-29562523D01*
X88518785Y-29657761D01*
X88423547Y-29705380D01*
X88328309Y-29705380D01*
X87852119Y-29705380D02*
X87947357Y-29657761D01*
X87994976Y-29610142D01*
X88042595Y-29514904D01*
X88042595Y-29229190D01*
X87994976Y-29133952D01*
X87947357Y-29086333D01*
X87852119Y-29038714D01*
X87709261Y-29038714D01*
X87614023Y-29086333D01*
X87566404Y-29133952D01*
X87518785Y-29229190D01*
X87518785Y-29514904D01*
X87566404Y-29610142D01*
X87614023Y-29657761D01*
X87709261Y-29705380D01*
X87852119Y-29705380D01*
X85899738Y-29705380D02*
X85899738Y-28705380D01*
X85899738Y-29657761D02*
X85994976Y-29705380D01*
X86185452Y-29705380D01*
X86280690Y-29657761D01*
X86328309Y-29610142D01*
X86375928Y-29514904D01*
X86375928Y-29229190D01*
X86328309Y-29133952D01*
X86280690Y-29086333D01*
X86185452Y-29038714D01*
X85994976Y-29038714D01*
X85899738Y-29086333D01*
X85423547Y-29705380D02*
X85423547Y-29038714D01*
X85423547Y-28705380D02*
X85471166Y-28753000D01*
X85423547Y-28800619D01*
X85375928Y-28753000D01*
X85423547Y-28705380D01*
X85423547Y-28800619D01*
X84994976Y-29657761D02*
X84899738Y-29705380D01*
X84709261Y-29705380D01*
X84614023Y-29657761D01*
X84566404Y-29562523D01*
X84566404Y-29514904D01*
X84614023Y-29419666D01*
X84709261Y-29372047D01*
X84852119Y-29372047D01*
X84947357Y-29324428D01*
X84994976Y-29229190D01*
X84994976Y-29181571D01*
X84947357Y-29086333D01*
X84852119Y-29038714D01*
X84709261Y-29038714D01*
X84614023Y-29086333D01*
X83709261Y-29705380D02*
X83709261Y-29181571D01*
X83756880Y-29086333D01*
X83852119Y-29038714D01*
X84042595Y-29038714D01*
X84137833Y-29086333D01*
X83709261Y-29657761D02*
X83804500Y-29705380D01*
X84042595Y-29705380D01*
X84137833Y-29657761D01*
X84185452Y-29562523D01*
X84185452Y-29467285D01*
X84137833Y-29372047D01*
X84042595Y-29324428D01*
X83804500Y-29324428D01*
X83709261Y-29276809D01*
X83233071Y-29705380D02*
X83233071Y-28705380D01*
X83233071Y-29086333D02*
X83137833Y-29038714D01*
X82947357Y-29038714D01*
X82852119Y-29086333D01*
X82804500Y-29133952D01*
X82756880Y-29229190D01*
X82756880Y-29514904D01*
X82804500Y-29610142D01*
X82852119Y-29657761D01*
X82947357Y-29705380D01*
X83137833Y-29705380D01*
X83233071Y-29657761D01*
X82185452Y-29705380D02*
X82280690Y-29657761D01*
X82328309Y-29562523D01*
X82328309Y-28705380D01*
X81423547Y-29657761D02*
X81518785Y-29705380D01*
X81709261Y-29705380D01*
X81804500Y-29657761D01*
X81852119Y-29562523D01*
X81852119Y-29181571D01*
X81804500Y-29086333D01*
X81709261Y-29038714D01*
X81518785Y-29038714D01*
X81423547Y-29086333D01*
X81375928Y-29181571D01*
X81375928Y-29276809D01*
X81852119Y-29372047D01*
X80042595Y-29705380D02*
X80137833Y-29657761D01*
X80185452Y-29562523D01*
X80185452Y-28705380D01*
X79280690Y-29657761D02*
X79375928Y-29705380D01*
X79566404Y-29705380D01*
X79661642Y-29657761D01*
X79709261Y-29562523D01*
X79709261Y-29181571D01*
X79661642Y-29086333D01*
X79566404Y-29038714D01*
X79375928Y-29038714D01*
X79280690Y-29086333D01*
X79233071Y-29181571D01*
X79233071Y-29276809D01*
X79709261Y-29372047D01*
X78375928Y-29705380D02*
X78375928Y-28705380D01*
X78375928Y-29657761D02*
X78471166Y-29705380D01*
X78661642Y-29705380D01*
X78756880Y-29657761D01*
X78804500Y-29610142D01*
X78852119Y-29514904D01*
X78852119Y-29229190D01*
X78804500Y-29133952D01*
X78756880Y-29086333D01*
X78661642Y-29038714D01*
X78471166Y-29038714D01*
X78375928Y-29086333D01*
X76852119Y-30086333D02*
X76899738Y-30038714D01*
X76994976Y-29895857D01*
X77042595Y-29800619D01*
X77090214Y-29657761D01*
X77137833Y-29419666D01*
X77137833Y-29229190D01*
X77090214Y-28991095D01*
X77042595Y-28848238D01*
X76994976Y-28753000D01*
X76899738Y-28610142D01*
X76852119Y-28562523D01*
X76566404Y-28705380D02*
X75947357Y-28705380D01*
X76280690Y-29086333D01*
X76137833Y-29086333D01*
X76042595Y-29133952D01*
X75994976Y-29181571D01*
X75947357Y-29276809D01*
X75947357Y-29514904D01*
X75994976Y-29610142D01*
X76042595Y-29657761D01*
X76137833Y-29705380D01*
X76423547Y-29705380D01*
X76518785Y-29657761D01*
X76566404Y-29610142D01*
X75661642Y-28705380D02*
X75328309Y-29705380D01*
X74994976Y-28705380D01*
X74614023Y-29657761D02*
X74614023Y-29705380D01*
X74661642Y-29800619D01*
X74709261Y-29848238D01*
X72947357Y-28705380D02*
X73423547Y-28705380D01*
X73471166Y-29181571D01*
X73423547Y-29133952D01*
X73328309Y-29086333D01*
X73090214Y-29086333D01*
X72994976Y-29133952D01*
X72947357Y-29181571D01*
X72899738Y-29276809D01*
X72899738Y-29514904D01*
X72947357Y-29610142D01*
X72994976Y-29657761D01*
X73090214Y-29705380D01*
X73328309Y-29705380D01*
X73423547Y-29657761D01*
X73471166Y-29610142D01*
X72614023Y-28705380D02*
X72280690Y-29705380D01*
X71947357Y-28705380D01*
X71566404Y-29657761D02*
X71566404Y-29705380D01*
X71614023Y-29800619D01*
X71661642Y-29848238D01*
X70518785Y-28705380D02*
X70185452Y-29705380D01*
X69852119Y-28705380D01*
X69518785Y-29705380D02*
X69518785Y-28705380D01*
X69280690Y-28705380D01*
X69137833Y-28753000D01*
X69042595Y-28848238D01*
X68994976Y-28943476D01*
X68947357Y-29133952D01*
X68947357Y-29276809D01*
X68994976Y-29467285D01*
X69042595Y-29562523D01*
X69137833Y-29657761D01*
X69280690Y-29705380D01*
X69518785Y-29705380D01*
X68518785Y-29705380D02*
X68518785Y-29038714D01*
X68518785Y-29229190D02*
X68471166Y-29133952D01*
X68423547Y-29086333D01*
X68328309Y-29038714D01*
X68233071Y-29038714D01*
X67899738Y-29705380D02*
X67899738Y-29038714D01*
X67899738Y-28705380D02*
X67947357Y-28753000D01*
X67899738Y-28800619D01*
X67852119Y-28753000D01*
X67899738Y-28705380D01*
X67899738Y-28800619D01*
X67518785Y-29038714D02*
X67280690Y-29705380D01*
X67042595Y-29038714D01*
X66280690Y-29657761D02*
X66375928Y-29705380D01*
X66566404Y-29705380D01*
X66661642Y-29657761D01*
X66709261Y-29562523D01*
X66709261Y-29181571D01*
X66661642Y-29086333D01*
X66566404Y-29038714D01*
X66375928Y-29038714D01*
X66280690Y-29086333D01*
X66233071Y-29181571D01*
X66233071Y-29276809D01*
X66709261Y-29372047D01*
X65899738Y-30086333D02*
X65852119Y-30038714D01*
X65756880Y-29895857D01*
X65709261Y-29800619D01*
X65661642Y-29657761D01*
X65614023Y-29419666D01*
X65614023Y-29229190D01*
X65661642Y-28991095D01*
X65709261Y-28848238D01*
X65756880Y-28753000D01*
X65852119Y-28610142D01*
X65899738Y-28562523D01*
X104280690Y-30315380D02*
X104280690Y-31029666D01*
X104328309Y-31172523D01*
X104423547Y-31267761D01*
X104566404Y-31315380D01*
X104661642Y-31315380D01*
X103804500Y-31315380D02*
X103804500Y-30315380D01*
X103423547Y-30315380D01*
X103328309Y-30363000D01*
X103280690Y-30410619D01*
X103233071Y-30505857D01*
X103233071Y-30648714D01*
X103280690Y-30743952D01*
X103328309Y-30791571D01*
X103423547Y-30839190D01*
X103804500Y-30839190D01*
X102661642Y-30743952D02*
X102756880Y-30696333D01*
X102804500Y-30648714D01*
X102852119Y-30553476D01*
X102852119Y-30505857D01*
X102804500Y-30410619D01*
X102756880Y-30363000D01*
X102661642Y-30315380D01*
X102471166Y-30315380D01*
X102375928Y-30363000D01*
X102328309Y-30410619D01*
X102280690Y-30505857D01*
X102280690Y-30553476D01*
X102328309Y-30648714D01*
X102375928Y-30696333D01*
X102471166Y-30743952D01*
X102661642Y-30743952D01*
X102756880Y-30791571D01*
X102804500Y-30839190D01*
X102852119Y-30934428D01*
X102852119Y-31124904D01*
X102804500Y-31220142D01*
X102756880Y-31267761D01*
X102661642Y-31315380D01*
X102471166Y-31315380D01*
X102375928Y-31267761D01*
X102328309Y-31220142D01*
X102280690Y-31124904D01*
X102280690Y-30934428D01*
X102328309Y-30839190D01*
X102375928Y-30791571D01*
X102471166Y-30743952D01*
X101137833Y-31267761D02*
X101042595Y-31315380D01*
X100852119Y-31315380D01*
X100756880Y-31267761D01*
X100709261Y-31172523D01*
X100709261Y-31124904D01*
X100756880Y-31029666D01*
X100852119Y-30982047D01*
X100994976Y-30982047D01*
X101090214Y-30934428D01*
X101137833Y-30839190D01*
X101137833Y-30791571D01*
X101090214Y-30696333D01*
X100994976Y-30648714D01*
X100852119Y-30648714D01*
X100756880Y-30696333D01*
X100137833Y-31315380D02*
X100233071Y-31267761D01*
X100280690Y-31220142D01*
X100328309Y-31124904D01*
X100328309Y-30839190D01*
X100280690Y-30743952D01*
X100233071Y-30696333D01*
X100137833Y-30648714D01*
X99994976Y-30648714D01*
X99899738Y-30696333D01*
X99852119Y-30743952D01*
X99804500Y-30839190D01*
X99804500Y-31124904D01*
X99852119Y-31220142D01*
X99899738Y-31267761D01*
X99994976Y-31315380D01*
X100137833Y-31315380D01*
X99233071Y-31315380D02*
X99328309Y-31267761D01*
X99375928Y-31172523D01*
X99375928Y-30315380D01*
X98423547Y-31315380D02*
X98423547Y-30315380D01*
X98423547Y-31267761D02*
X98518785Y-31315380D01*
X98709261Y-31315380D01*
X98804500Y-31267761D01*
X98852119Y-31220142D01*
X98899738Y-31124904D01*
X98899738Y-30839190D01*
X98852119Y-30743952D01*
X98804500Y-30696333D01*
X98709261Y-30648714D01*
X98518785Y-30648714D01*
X98423547Y-30696333D01*
X97566404Y-31267761D02*
X97661642Y-31315380D01*
X97852119Y-31315380D01*
X97947357Y-31267761D01*
X97994976Y-31172523D01*
X97994976Y-30791571D01*
X97947357Y-30696333D01*
X97852119Y-30648714D01*
X97661642Y-30648714D01*
X97566404Y-30696333D01*
X97518785Y-30791571D01*
X97518785Y-30886809D01*
X97994976Y-30982047D01*
X97090214Y-31315380D02*
X97090214Y-30648714D01*
X97090214Y-30839190D02*
X97042595Y-30743952D01*
X96994976Y-30696333D01*
X96899738Y-30648714D01*
X96804500Y-30648714D01*
X95852119Y-30648714D02*
X95471166Y-30648714D01*
X95709261Y-30315380D02*
X95709261Y-31172523D01*
X95661642Y-31267761D01*
X95566404Y-31315380D01*
X95471166Y-31315380D01*
X94994976Y-31315380D02*
X95090214Y-31267761D01*
X95137833Y-31220142D01*
X95185452Y-31124904D01*
X95185452Y-30839190D01*
X95137833Y-30743952D01*
X95090214Y-30696333D01*
X94994976Y-30648714D01*
X94852119Y-30648714D01*
X94756880Y-30696333D01*
X94709261Y-30743952D01*
X94661642Y-30839190D01*
X94661642Y-31124904D01*
X94709261Y-31220142D01*
X94756880Y-31267761D01*
X94852119Y-31315380D01*
X94994976Y-31315380D01*
X93471166Y-30648714D02*
X93471166Y-31648714D01*
X93471166Y-30696333D02*
X93375928Y-30648714D01*
X93185452Y-30648714D01*
X93090214Y-30696333D01*
X93042595Y-30743952D01*
X92994976Y-30839190D01*
X92994976Y-31124904D01*
X93042595Y-31220142D01*
X93090214Y-31267761D01*
X93185452Y-31315380D01*
X93375928Y-31315380D01*
X93471166Y-31267761D01*
X92423547Y-31315380D02*
X92518785Y-31267761D01*
X92566404Y-31220142D01*
X92614023Y-31124904D01*
X92614023Y-30839190D01*
X92566404Y-30743952D01*
X92518785Y-30696333D01*
X92423547Y-30648714D01*
X92280690Y-30648714D01*
X92185452Y-30696333D01*
X92137833Y-30743952D01*
X92090214Y-30839190D01*
X92090214Y-31124904D01*
X92137833Y-31220142D01*
X92185452Y-31267761D01*
X92280690Y-31315380D01*
X92423547Y-31315380D01*
X91756880Y-30648714D02*
X91566404Y-31315380D01*
X91375928Y-30839190D01*
X91185452Y-31315380D01*
X90994976Y-30648714D01*
X90233071Y-31267761D02*
X90328309Y-31315380D01*
X90518785Y-31315380D01*
X90614023Y-31267761D01*
X90661642Y-31172523D01*
X90661642Y-30791571D01*
X90614023Y-30696333D01*
X90518785Y-30648714D01*
X90328309Y-30648714D01*
X90233071Y-30696333D01*
X90185452Y-30791571D01*
X90185452Y-30886809D01*
X90661642Y-30982047D01*
X89756880Y-31315380D02*
X89756880Y-30648714D01*
X89756880Y-30839190D02*
X89709261Y-30743952D01*
X89661642Y-30696333D01*
X89566404Y-30648714D01*
X89471166Y-30648714D01*
X88375928Y-31315380D02*
X88375928Y-30315380D01*
X88042595Y-30648714D02*
X87661642Y-30648714D01*
X87899738Y-31315380D02*
X87899738Y-30458238D01*
X87852119Y-30363000D01*
X87756880Y-30315380D01*
X87661642Y-30315380D01*
X86899738Y-31315380D02*
X86899738Y-30791571D01*
X86947357Y-30696333D01*
X87042595Y-30648714D01*
X87233071Y-30648714D01*
X87328309Y-30696333D01*
X86899738Y-31267761D02*
X86994976Y-31315380D01*
X87233071Y-31315380D01*
X87328309Y-31267761D01*
X87375928Y-31172523D01*
X87375928Y-31077285D01*
X87328309Y-30982047D01*
X87233071Y-30934428D01*
X86994976Y-30934428D01*
X86899738Y-30886809D01*
X85994976Y-31267761D02*
X86090214Y-31315380D01*
X86280690Y-31315380D01*
X86375928Y-31267761D01*
X86423547Y-31220142D01*
X86471166Y-31124904D01*
X86471166Y-30839190D01*
X86423547Y-30743952D01*
X86375928Y-30696333D01*
X86280690Y-30648714D01*
X86090214Y-30648714D01*
X85994976Y-30696333D01*
X85185452Y-31267761D02*
X85280690Y-31315380D01*
X85471166Y-31315380D01*
X85566404Y-31267761D01*
X85614023Y-31172523D01*
X85614023Y-30791571D01*
X85566404Y-30696333D01*
X85471166Y-30648714D01*
X85280690Y-30648714D01*
X85185452Y-30696333D01*
X85137833Y-30791571D01*
X85137833Y-30886809D01*
X85614023Y-30982047D01*
X84090214Y-30648714D02*
X83709261Y-30648714D01*
X83947357Y-31315380D02*
X83947357Y-30458238D01*
X83899738Y-30363000D01*
X83804500Y-30315380D01*
X83709261Y-30315380D01*
X83375928Y-31315380D02*
X83375928Y-30648714D01*
X83375928Y-30839190D02*
X83328309Y-30743952D01*
X83280690Y-30696333D01*
X83185452Y-30648714D01*
X83090214Y-30648714D01*
X82614023Y-31315380D02*
X82709261Y-31267761D01*
X82756880Y-31220142D01*
X82804500Y-31124904D01*
X82804500Y-30839190D01*
X82756880Y-30743952D01*
X82709261Y-30696333D01*
X82614023Y-30648714D01*
X82471166Y-30648714D01*
X82375928Y-30696333D01*
X82328309Y-30743952D01*
X82280690Y-30839190D01*
X82280690Y-31124904D01*
X82328309Y-31220142D01*
X82375928Y-31267761D01*
X82471166Y-31315380D01*
X82614023Y-31315380D01*
X81852119Y-31315380D02*
X81852119Y-30648714D01*
X81852119Y-30743952D02*
X81804500Y-30696333D01*
X81709261Y-30648714D01*
X81566404Y-30648714D01*
X81471166Y-30696333D01*
X81423547Y-30791571D01*
X81423547Y-31315380D01*
X81423547Y-30791571D02*
X81375928Y-30696333D01*
X81280690Y-30648714D01*
X81137833Y-30648714D01*
X81042595Y-30696333D01*
X80994976Y-30791571D01*
X80994976Y-31315380D01*
X79280690Y-30315380D02*
X79756880Y-30315380D01*
X79804500Y-30791571D01*
X79756880Y-30743952D01*
X79661642Y-30696333D01*
X79423547Y-30696333D01*
X79328309Y-30743952D01*
X79280690Y-30791571D01*
X79233071Y-30886809D01*
X79233071Y-31124904D01*
X79280690Y-31220142D01*
X79328309Y-31267761D01*
X79423547Y-31315380D01*
X79661642Y-31315380D01*
X79756880Y-31267761D01*
X79804500Y-31220142D01*
X78947357Y-30315380D02*
X78614023Y-31315380D01*
X78280690Y-30315380D01*
X24121904Y-53241380D02*
X24121904Y-52241380D01*
X23883809Y-52241380D01*
X23740952Y-52289000D01*
X23645714Y-52384238D01*
X23598095Y-52479476D01*
X23550476Y-52669952D01*
X23550476Y-52812809D01*
X23598095Y-53003285D01*
X23645714Y-53098523D01*
X23740952Y-53193761D01*
X23883809Y-53241380D01*
X24121904Y-53241380D01*
X22550476Y-53146142D02*
X22598095Y-53193761D01*
X22740952Y-53241380D01*
X22836190Y-53241380D01*
X22979047Y-53193761D01*
X23074285Y-53098523D01*
X23121904Y-53003285D01*
X23169523Y-52812809D01*
X23169523Y-52669952D01*
X23121904Y-52479476D01*
X23074285Y-52384238D01*
X22979047Y-52289000D01*
X22836190Y-52241380D01*
X22740952Y-52241380D01*
X22598095Y-52289000D01*
X22550476Y-52336619D01*
X21550476Y-53146142D02*
X21598095Y-53193761D01*
X21740952Y-53241380D01*
X21836190Y-53241380D01*
X21979047Y-53193761D01*
X22074285Y-53098523D01*
X22121904Y-53003285D01*
X22169523Y-52812809D01*
X22169523Y-52669952D01*
X22121904Y-52479476D01*
X22074285Y-52384238D01*
X21979047Y-52289000D01*
X21836190Y-52241380D01*
X21740952Y-52241380D01*
X21598095Y-52289000D01*
X21550476Y-52336619D01*
X25002857Y-54803761D02*
X24860000Y-54851380D01*
X24621904Y-54851380D01*
X24526666Y-54803761D01*
X24479047Y-54756142D01*
X24431428Y-54660904D01*
X24431428Y-54565666D01*
X24479047Y-54470428D01*
X24526666Y-54422809D01*
X24621904Y-54375190D01*
X24812380Y-54327571D01*
X24907619Y-54279952D01*
X24955238Y-54232333D01*
X25002857Y-54137095D01*
X25002857Y-54041857D01*
X24955238Y-53946619D01*
X24907619Y-53899000D01*
X24812380Y-53851380D01*
X24574285Y-53851380D01*
X24431428Y-53899000D01*
X24002857Y-54851380D02*
X24002857Y-54184714D01*
X24002857Y-53851380D02*
X24050476Y-53899000D01*
X24002857Y-53946619D01*
X23955238Y-53899000D01*
X24002857Y-53851380D01*
X24002857Y-53946619D01*
X23098095Y-54184714D02*
X23098095Y-54994238D01*
X23145714Y-55089476D01*
X23193333Y-55137095D01*
X23288571Y-55184714D01*
X23431428Y-55184714D01*
X23526666Y-55137095D01*
X23098095Y-54803761D02*
X23193333Y-54851380D01*
X23383809Y-54851380D01*
X23479047Y-54803761D01*
X23526666Y-54756142D01*
X23574285Y-54660904D01*
X23574285Y-54375190D01*
X23526666Y-54279952D01*
X23479047Y-54232333D01*
X23383809Y-54184714D01*
X23193333Y-54184714D01*
X23098095Y-54232333D01*
X22621904Y-54184714D02*
X22621904Y-54851380D01*
X22621904Y-54279952D02*
X22574285Y-54232333D01*
X22479047Y-54184714D01*
X22336190Y-54184714D01*
X22240952Y-54232333D01*
X22193333Y-54327571D01*
X22193333Y-54851380D01*
X21288571Y-54851380D02*
X21288571Y-54327571D01*
X21336190Y-54232333D01*
X21431428Y-54184714D01*
X21621904Y-54184714D01*
X21717142Y-54232333D01*
X21288571Y-54803761D02*
X21383809Y-54851380D01*
X21621904Y-54851380D01*
X21717142Y-54803761D01*
X21764761Y-54708523D01*
X21764761Y-54613285D01*
X21717142Y-54518047D01*
X21621904Y-54470428D01*
X21383809Y-54470428D01*
X21288571Y-54422809D01*
X20669523Y-54851380D02*
X20764761Y-54803761D01*
X20812380Y-54708523D01*
X20812380Y-53851380D01*
X26130000Y-29027380D02*
X26701428Y-29027380D01*
X26415714Y-29027380D02*
X26415714Y-28027380D01*
X26510952Y-28170238D01*
X26606190Y-28265476D01*
X26701428Y-28313095D01*
X25749047Y-28122619D02*
X25701428Y-28075000D01*
X25606190Y-28027380D01*
X25368095Y-28027380D01*
X25272857Y-28075000D01*
X25225238Y-28122619D01*
X25177619Y-28217857D01*
X25177619Y-28313095D01*
X25225238Y-28455952D01*
X25796666Y-29027380D01*
X25177619Y-29027380D01*
X24891904Y-28027380D02*
X24558571Y-29027380D01*
X24225238Y-28027380D01*
X23130000Y-29027380D02*
X23130000Y-28027380D01*
X22891904Y-28027380D01*
X22749047Y-28075000D01*
X22653809Y-28170238D01*
X22606190Y-28265476D01*
X22558571Y-28455952D01*
X22558571Y-28598809D01*
X22606190Y-28789285D01*
X22653809Y-28884523D01*
X22749047Y-28979761D01*
X22891904Y-29027380D01*
X23130000Y-29027380D01*
X21558571Y-28932142D02*
X21606190Y-28979761D01*
X21749047Y-29027380D01*
X21844285Y-29027380D01*
X21987142Y-28979761D01*
X22082380Y-28884523D01*
X22130000Y-28789285D01*
X22177619Y-28598809D01*
X22177619Y-28455952D01*
X22130000Y-28265476D01*
X22082380Y-28170238D01*
X21987142Y-28075000D01*
X21844285Y-28027380D01*
X21749047Y-28027380D01*
X21606190Y-28075000D01*
X21558571Y-28122619D01*
D11*
X103022285Y-39682000D02*
X103136571Y-39624857D01*
X103308000Y-39624857D01*
X103479428Y-39682000D01*
X103593714Y-39796285D01*
X103650857Y-39910571D01*
X103708000Y-40139142D01*
X103708000Y-40310571D01*
X103650857Y-40539142D01*
X103593714Y-40653428D01*
X103479428Y-40767714D01*
X103308000Y-40824857D01*
X103193714Y-40824857D01*
X103022285Y-40767714D01*
X102965142Y-40710571D01*
X102965142Y-40310571D01*
X103193714Y-40310571D01*
X102450857Y-40824857D02*
X102450857Y-39624857D01*
X101765142Y-40824857D01*
X101765142Y-39624857D01*
X101193714Y-40824857D02*
X101193714Y-39624857D01*
X100908000Y-39624857D01*
X100736571Y-39682000D01*
X100622285Y-39796285D01*
X100565142Y-39910571D01*
X100508000Y-40139142D01*
X100508000Y-40310571D01*
X100565142Y-40539142D01*
X100622285Y-40653428D01*
X100736571Y-40767714D01*
X100908000Y-40824857D01*
X101193714Y-40824857D01*
X103622285Y-42756857D02*
X103622285Y-41556857D01*
X103336571Y-41556857D01*
X103165142Y-41614000D01*
X103050857Y-41728285D01*
X102993714Y-41842571D01*
X102936571Y-42071142D01*
X102936571Y-42242571D01*
X102993714Y-42471142D01*
X103050857Y-42585428D01*
X103165142Y-42699714D01*
X103336571Y-42756857D01*
X103622285Y-42756857D01*
X101736571Y-42642571D02*
X101793714Y-42699714D01*
X101965142Y-42756857D01*
X102079428Y-42756857D01*
X102250857Y-42699714D01*
X102365142Y-42585428D01*
X102422285Y-42471142D01*
X102479428Y-42242571D01*
X102479428Y-42071142D01*
X102422285Y-41842571D01*
X102365142Y-41728285D01*
X102250857Y-41614000D01*
X102079428Y-41556857D01*
X101965142Y-41556857D01*
X101793714Y-41614000D01*
X101736571Y-41671142D01*
X100536571Y-42642571D02*
X100593714Y-42699714D01*
X100765142Y-42756857D01*
X100879428Y-42756857D01*
X101050857Y-42699714D01*
X101165142Y-42585428D01*
X101222285Y-42471142D01*
X101279428Y-42242571D01*
X101279428Y-42071142D01*
X101222285Y-41842571D01*
X101165142Y-41728285D01*
X101050857Y-41614000D01*
X100879428Y-41556857D01*
X100765142Y-41556857D01*
X100593714Y-41614000D01*
X100536571Y-41671142D01*
X103593714Y-44346000D02*
X103022285Y-44346000D01*
X103708000Y-44688857D02*
X103308000Y-43488857D01*
X102908000Y-44688857D01*
X101822285Y-44574571D02*
X101879428Y-44631714D01*
X102050857Y-44688857D01*
X102165142Y-44688857D01*
X102336571Y-44631714D01*
X102450857Y-44517428D01*
X102508000Y-44403142D01*
X102565142Y-44174571D01*
X102565142Y-44003142D01*
X102508000Y-43774571D01*
X102450857Y-43660285D01*
X102336571Y-43546000D01*
X102165142Y-43488857D01*
X102050857Y-43488857D01*
X101879428Y-43546000D01*
X101822285Y-43603142D01*
X101308000Y-44688857D02*
X101308000Y-43488857D01*
X100622285Y-44688857D02*
X101136571Y-44003142D01*
X100622285Y-43488857D02*
X101308000Y-44174571D01*
X103650857Y-46163714D02*
X102736571Y-46163714D01*
X103193714Y-46620857D02*
X103193714Y-45706571D01*
X101593714Y-45420857D02*
X102165142Y-45420857D01*
X102222285Y-45992285D01*
X102165142Y-45935142D01*
X102050857Y-45878000D01*
X101765142Y-45878000D01*
X101650857Y-45935142D01*
X101593714Y-45992285D01*
X101536571Y-46106571D01*
X101536571Y-46392285D01*
X101593714Y-46506571D01*
X101650857Y-46563714D01*
X101765142Y-46620857D01*
X102050857Y-46620857D01*
X102165142Y-46563714D01*
X102222285Y-46506571D01*
X101193714Y-45420857D02*
X100793714Y-46620857D01*
X100393714Y-45420857D01*
D10*
X71881666Y-58491428D02*
X71119761Y-58491428D01*
X71500714Y-58872380D02*
X71500714Y-58110476D01*
X69405476Y-57872380D02*
X69881666Y-57872380D01*
X69929285Y-58348571D01*
X69881666Y-58300952D01*
X69786428Y-58253333D01*
X69548333Y-58253333D01*
X69453095Y-58300952D01*
X69405476Y-58348571D01*
X69357857Y-58443809D01*
X69357857Y-58681904D01*
X69405476Y-58777142D01*
X69453095Y-58824761D01*
X69548333Y-58872380D01*
X69786428Y-58872380D01*
X69881666Y-58824761D01*
X69929285Y-58777142D01*
X69072142Y-57872380D02*
X68738809Y-58872380D01*
X68405476Y-57872380D01*
X67310238Y-58491428D02*
X66548333Y-58491428D01*
X70445238Y-35561904D02*
X70445238Y-36133333D01*
X70483333Y-36247619D01*
X70559523Y-36323809D01*
X70673809Y-36361904D01*
X70750000Y-36361904D01*
X69683333Y-36361904D02*
X70064285Y-36361904D01*
X70064285Y-35561904D01*
X68959523Y-36285714D02*
X68997619Y-36323809D01*
X69111904Y-36361904D01*
X69188095Y-36361904D01*
X69302380Y-36323809D01*
X69378571Y-36247619D01*
X69416666Y-36171428D01*
X69454761Y-36019047D01*
X69454761Y-35904761D01*
X69416666Y-35752380D01*
X69378571Y-35676190D01*
X69302380Y-35600000D01*
X69188095Y-35561904D01*
X69111904Y-35561904D01*
X68997619Y-35600000D01*
X68959523Y-35638095D01*
X68388095Y-35561904D02*
X68388095Y-36133333D01*
X68426190Y-36247619D01*
X68502380Y-36323809D01*
X68616666Y-36361904D01*
X68692857Y-36361904D01*
X67626190Y-36361904D02*
X68007142Y-36361904D01*
X68007142Y-35561904D01*
X66902380Y-36285714D02*
X66940476Y-36323809D01*
X67054761Y-36361904D01*
X67130952Y-36361904D01*
X67245238Y-36323809D01*
X67321428Y-36247619D01*
X67359523Y-36171428D01*
X67397619Y-36019047D01*
X67397619Y-35904761D01*
X67359523Y-35752380D01*
X67321428Y-35676190D01*
X67245238Y-35600000D01*
X67130952Y-35561904D01*
X67054761Y-35561904D01*
X66940476Y-35600000D01*
X66902380Y-35638095D01*
X66330952Y-35561904D02*
X66330952Y-36133333D01*
X66369047Y-36247619D01*
X66445238Y-36323809D01*
X66559523Y-36361904D01*
X66635714Y-36361904D01*
X65569047Y-36361904D02*
X65950000Y-36361904D01*
X65950000Y-35561904D01*
X64845238Y-36285714D02*
X64883333Y-36323809D01*
X64997619Y-36361904D01*
X65073809Y-36361904D01*
X65188095Y-36323809D01*
X65264285Y-36247619D01*
X65302380Y-36171428D01*
X65340476Y-36019047D01*
X65340476Y-35904761D01*
X65302380Y-35752380D01*
X65264285Y-35676190D01*
X65188095Y-35600000D01*
X65073809Y-35561904D01*
X64997619Y-35561904D01*
X64883333Y-35600000D01*
X64845238Y-35638095D01*
X64273809Y-35561904D02*
X64273809Y-36133333D01*
X64311904Y-36247619D01*
X64388095Y-36323809D01*
X64502380Y-36361904D01*
X64578571Y-36361904D01*
X63511904Y-36361904D02*
X63892857Y-36361904D01*
X63892857Y-35561904D01*
X62788095Y-36285714D02*
X62826190Y-36323809D01*
X62940476Y-36361904D01*
X63016666Y-36361904D01*
X63130952Y-36323809D01*
X63207142Y-36247619D01*
X63245238Y-36171428D01*
X63283333Y-36019047D01*
X63283333Y-35904761D01*
X63245238Y-35752380D01*
X63207142Y-35676190D01*
X63130952Y-35600000D01*
X63016666Y-35561904D01*
X62940476Y-35561904D01*
X62826190Y-35600000D01*
X62788095Y-35638095D01*
X28201809Y-41276380D02*
X27868476Y-42276380D01*
X27535142Y-41276380D01*
X27201809Y-42276380D02*
X27201809Y-41609714D01*
X27201809Y-41276380D02*
X27249428Y-41324000D01*
X27201809Y-41371619D01*
X27154190Y-41324000D01*
X27201809Y-41276380D01*
X27201809Y-41371619D01*
X26725619Y-41609714D02*
X26725619Y-42276380D01*
X26725619Y-41704952D02*
X26678000Y-41657333D01*
X26582761Y-41609714D01*
X26439904Y-41609714D01*
X26344666Y-41657333D01*
X26297047Y-41752571D01*
X26297047Y-42276380D01*
X29368476Y-42886380D02*
X29035142Y-43886380D01*
X28701809Y-42886380D01*
X28368476Y-43886380D02*
X28368476Y-42886380D01*
X28130380Y-42886380D01*
X27987523Y-42934000D01*
X27892285Y-43029238D01*
X27844666Y-43124476D01*
X27797047Y-43314952D01*
X27797047Y-43457809D01*
X27844666Y-43648285D01*
X27892285Y-43743523D01*
X27987523Y-43838761D01*
X28130380Y-43886380D01*
X28368476Y-43886380D01*
X27368476Y-43886380D02*
X27368476Y-43219714D01*
X27368476Y-43410190D02*
X27320857Y-43314952D01*
X27273238Y-43267333D01*
X27178000Y-43219714D01*
X27082761Y-43219714D01*
X26749428Y-43886380D02*
X26749428Y-43219714D01*
X26749428Y-42886380D02*
X26797047Y-42934000D01*
X26749428Y-42981619D01*
X26701809Y-42934000D01*
X26749428Y-42886380D01*
X26749428Y-42981619D01*
X26368476Y-43219714D02*
X26130380Y-43886380D01*
X25892285Y-43219714D01*
X25130380Y-43838761D02*
X25225619Y-43886380D01*
X25416095Y-43886380D01*
X25511333Y-43838761D01*
X25558952Y-43743523D01*
X25558952Y-43362571D01*
X25511333Y-43267333D01*
X25416095Y-43219714D01*
X25225619Y-43219714D01*
X25130380Y-43267333D01*
X25082761Y-43362571D01*
X25082761Y-43457809D01*
X25558952Y-43553047D01*
X28297047Y-45496380D02*
X28297047Y-44496380D01*
X28058952Y-44496380D01*
X27916095Y-44544000D01*
X27820857Y-44639238D01*
X27773238Y-44734476D01*
X27725619Y-44924952D01*
X27725619Y-45067809D01*
X27773238Y-45258285D01*
X27820857Y-45353523D01*
X27916095Y-45448761D01*
X28058952Y-45496380D01*
X28297047Y-45496380D01*
X26868476Y-45448761D02*
X26963714Y-45496380D01*
X27154190Y-45496380D01*
X27249428Y-45448761D01*
X27297047Y-45401142D01*
X27344666Y-45305904D01*
X27344666Y-45020190D01*
X27297047Y-44924952D01*
X27249428Y-44877333D01*
X27154190Y-44829714D01*
X26963714Y-44829714D01*
X26868476Y-44877333D01*
X26011333Y-45448761D02*
X26106571Y-45496380D01*
X26297047Y-45496380D01*
X26392285Y-45448761D01*
X26439904Y-45401142D01*
X26487523Y-45305904D01*
X26487523Y-45020190D01*
X26439904Y-44924952D01*
X26392285Y-44877333D01*
X26297047Y-44829714D01*
X26106571Y-44829714D01*
X26011333Y-44877333D01*
X94106666Y-58491428D02*
X93344761Y-58491428D01*
X93725714Y-58872380D02*
X93725714Y-58110476D01*
X92201904Y-57872380D02*
X91582857Y-57872380D01*
X91916190Y-58253333D01*
X91773333Y-58253333D01*
X91678095Y-58300952D01*
X91630476Y-58348571D01*
X91582857Y-58443809D01*
X91582857Y-58681904D01*
X91630476Y-58777142D01*
X91678095Y-58824761D01*
X91773333Y-58872380D01*
X92059047Y-58872380D01*
X92154285Y-58824761D01*
X92201904Y-58777142D01*
X91297142Y-57872380D02*
X90963809Y-58872380D01*
X90630476Y-57872380D01*
X89535238Y-58491428D02*
X88773333Y-58491428D01*
X43417619Y-58491428D02*
X42655714Y-58491428D01*
X43036666Y-58872380D02*
X43036666Y-58110476D01*
X41560476Y-57872380D02*
X41227142Y-58872380D01*
X40893809Y-57872380D01*
X40560476Y-58872380D02*
X40560476Y-57872380D01*
X40322380Y-57872380D01*
X40179523Y-57920000D01*
X40084285Y-58015238D01*
X40036666Y-58110476D01*
X39989047Y-58300952D01*
X39989047Y-58443809D01*
X40036666Y-58634285D01*
X40084285Y-58729523D01*
X40179523Y-58824761D01*
X40322380Y-58872380D01*
X40560476Y-58872380D01*
X39560476Y-58872380D02*
X39560476Y-58205714D01*
X39560476Y-58396190D02*
X39512857Y-58300952D01*
X39465238Y-58253333D01*
X39370000Y-58205714D01*
X39274761Y-58205714D01*
X38941428Y-58872380D02*
X38941428Y-58205714D01*
X38941428Y-57872380D02*
X38989047Y-57920000D01*
X38941428Y-57967619D01*
X38893809Y-57920000D01*
X38941428Y-57872380D01*
X38941428Y-57967619D01*
X38560476Y-58205714D02*
X38322380Y-58872380D01*
X38084285Y-58205714D01*
X37322380Y-58824761D02*
X37417619Y-58872380D01*
X37608095Y-58872380D01*
X37703333Y-58824761D01*
X37750952Y-58729523D01*
X37750952Y-58348571D01*
X37703333Y-58253333D01*
X37608095Y-58205714D01*
X37417619Y-58205714D01*
X37322380Y-58253333D01*
X37274761Y-58348571D01*
X37274761Y-58443809D01*
X37750952Y-58539047D01*
X36084285Y-58491428D02*
X35322380Y-58491428D01*
X61154761Y-39397380D02*
X61154761Y-38397380D01*
X60916666Y-38397380D01*
X60773809Y-38445000D01*
X60678571Y-38540238D01*
X60630952Y-38635476D01*
X60583333Y-38825952D01*
X60583333Y-38968809D01*
X60630952Y-39159285D01*
X60678571Y-39254523D01*
X60773809Y-39349761D01*
X60916666Y-39397380D01*
X61154761Y-39397380D01*
X59726190Y-39349761D02*
X59821428Y-39397380D01*
X60011904Y-39397380D01*
X60107142Y-39349761D01*
X60154761Y-39302142D01*
X60202380Y-39206904D01*
X60202380Y-38921190D01*
X60154761Y-38825952D01*
X60107142Y-38778333D01*
X60011904Y-38730714D01*
X59821428Y-38730714D01*
X59726190Y-38778333D01*
X58869047Y-39349761D02*
X58964285Y-39397380D01*
X59154761Y-39397380D01*
X59250000Y-39349761D01*
X59297619Y-39302142D01*
X59345238Y-39206904D01*
X59345238Y-38921190D01*
X59297619Y-38825952D01*
X59250000Y-38778333D01*
X59154761Y-38730714D01*
X58964285Y-38730714D01*
X58869047Y-38778333D01*
X57678571Y-39397380D02*
X57678571Y-38397380D01*
X57297619Y-38397380D01*
X57202380Y-38445000D01*
X57154761Y-38492619D01*
X57107142Y-38587857D01*
X57107142Y-38730714D01*
X57154761Y-38825952D01*
X57202380Y-38873571D01*
X57297619Y-38921190D01*
X57678571Y-38921190D01*
X56535714Y-39397380D02*
X56630952Y-39349761D01*
X56678571Y-39302142D01*
X56726190Y-39206904D01*
X56726190Y-38921190D01*
X56678571Y-38825952D01*
X56630952Y-38778333D01*
X56535714Y-38730714D01*
X56392857Y-38730714D01*
X56297619Y-38778333D01*
X56250000Y-38825952D01*
X56202380Y-38921190D01*
X56202380Y-39206904D01*
X56250000Y-39302142D01*
X56297619Y-39349761D01*
X56392857Y-39397380D01*
X56535714Y-39397380D01*
X55869047Y-38730714D02*
X55678571Y-39397380D01*
X55488095Y-38921190D01*
X55297619Y-39397380D01*
X55107142Y-38730714D01*
X54345238Y-39349761D02*
X54440476Y-39397380D01*
X54630952Y-39397380D01*
X54726190Y-39349761D01*
X54773809Y-39254523D01*
X54773809Y-38873571D01*
X54726190Y-38778333D01*
X54630952Y-38730714D01*
X54440476Y-38730714D01*
X54345238Y-38778333D01*
X54297619Y-38873571D01*
X54297619Y-38968809D01*
X54773809Y-39064047D01*
X53869047Y-39397380D02*
X53869047Y-38730714D01*
X53869047Y-38921190D02*
X53821428Y-38825952D01*
X53773809Y-38778333D01*
X53678571Y-38730714D01*
X53583333Y-38730714D01*
X52488095Y-39397380D02*
X52488095Y-38397380D01*
X52250000Y-38397380D01*
X52107142Y-38445000D01*
X52011904Y-38540238D01*
X51964285Y-38635476D01*
X51916666Y-38825952D01*
X51916666Y-38968809D01*
X51964285Y-39159285D01*
X52011904Y-39254523D01*
X52107142Y-39349761D01*
X52250000Y-39397380D01*
X52488095Y-39397380D01*
X51488095Y-39397380D02*
X51488095Y-38730714D01*
X51488095Y-38397380D02*
X51535714Y-38445000D01*
X51488095Y-38492619D01*
X51440476Y-38445000D01*
X51488095Y-38397380D01*
X51488095Y-38492619D01*
X51059523Y-39349761D02*
X50964285Y-39397380D01*
X50773809Y-39397380D01*
X50678571Y-39349761D01*
X50630952Y-39254523D01*
X50630952Y-39206904D01*
X50678571Y-39111666D01*
X50773809Y-39064047D01*
X50916666Y-39064047D01*
X51011904Y-39016428D01*
X51059523Y-38921190D01*
X51059523Y-38873571D01*
X51011904Y-38778333D01*
X50916666Y-38730714D01*
X50773809Y-38730714D01*
X50678571Y-38778333D01*
X50345238Y-38730714D02*
X49964285Y-38730714D01*
X50202380Y-38397380D02*
X50202380Y-39254523D01*
X50154761Y-39349761D01*
X50059523Y-39397380D01*
X49964285Y-39397380D01*
X49630952Y-39397380D02*
X49630952Y-38730714D01*
X49630952Y-38921190D02*
X49583333Y-38825952D01*
X49535714Y-38778333D01*
X49440476Y-38730714D01*
X49345238Y-38730714D01*
X49011904Y-39397380D02*
X49011904Y-38730714D01*
X49011904Y-38397380D02*
X49059523Y-38445000D01*
X49011904Y-38492619D01*
X48964285Y-38445000D01*
X49011904Y-38397380D01*
X49011904Y-38492619D01*
X48535714Y-39397380D02*
X48535714Y-38397380D01*
X48535714Y-38778333D02*
X48440476Y-38730714D01*
X48250000Y-38730714D01*
X48154761Y-38778333D01*
X48107142Y-38825952D01*
X48059523Y-38921190D01*
X48059523Y-39206904D01*
X48107142Y-39302142D01*
X48154761Y-39349761D01*
X48250000Y-39397380D01*
X48440476Y-39397380D01*
X48535714Y-39349761D01*
X47202380Y-38730714D02*
X47202380Y-39397380D01*
X47630952Y-38730714D02*
X47630952Y-39254523D01*
X47583333Y-39349761D01*
X47488095Y-39397380D01*
X47345238Y-39397380D01*
X47250000Y-39349761D01*
X47202380Y-39302142D01*
X46869047Y-38730714D02*
X46488095Y-38730714D01*
X46726190Y-38397380D02*
X46726190Y-39254523D01*
X46678571Y-39349761D01*
X46583333Y-39397380D01*
X46488095Y-39397380D01*
X46154761Y-39397380D02*
X46154761Y-38730714D01*
X46154761Y-38397380D02*
X46202380Y-38445000D01*
X46154761Y-38492619D01*
X46107142Y-38445000D01*
X46154761Y-38397380D01*
X46154761Y-38492619D01*
X45535714Y-39397380D02*
X45630952Y-39349761D01*
X45678571Y-39302142D01*
X45726190Y-39206904D01*
X45726190Y-38921190D01*
X45678571Y-38825952D01*
X45630952Y-38778333D01*
X45535714Y-38730714D01*
X45392857Y-38730714D01*
X45297619Y-38778333D01*
X45250000Y-38825952D01*
X45202380Y-38921190D01*
X45202380Y-39206904D01*
X45250000Y-39302142D01*
X45297619Y-39349761D01*
X45392857Y-39397380D01*
X45535714Y-39397380D01*
X44773809Y-38730714D02*
X44773809Y-39397380D01*
X44773809Y-38825952D02*
X44726190Y-38778333D01*
X44630952Y-38730714D01*
X44488095Y-38730714D01*
X44392857Y-38778333D01*
X44345238Y-38873571D01*
X44345238Y-39397380D01*
X59107142Y-40483571D02*
X58964285Y-40531190D01*
X58916666Y-40578809D01*
X58869047Y-40674047D01*
X58869047Y-40816904D01*
X58916666Y-40912142D01*
X58964285Y-40959761D01*
X59059523Y-41007380D01*
X59440476Y-41007380D01*
X59440476Y-40007380D01*
X59107142Y-40007380D01*
X59011904Y-40055000D01*
X58964285Y-40102619D01*
X58916666Y-40197857D01*
X58916666Y-40293095D01*
X58964285Y-40388333D01*
X59011904Y-40435952D01*
X59107142Y-40483571D01*
X59440476Y-40483571D01*
X58297619Y-41007380D02*
X58392857Y-40959761D01*
X58440476Y-40912142D01*
X58488095Y-40816904D01*
X58488095Y-40531190D01*
X58440476Y-40435952D01*
X58392857Y-40388333D01*
X58297619Y-40340714D01*
X58154761Y-40340714D01*
X58059523Y-40388333D01*
X58011904Y-40435952D01*
X57964285Y-40531190D01*
X57964285Y-40816904D01*
X58011904Y-40912142D01*
X58059523Y-40959761D01*
X58154761Y-41007380D01*
X58297619Y-41007380D01*
X57107142Y-41007380D02*
X57107142Y-40483571D01*
X57154761Y-40388333D01*
X57250000Y-40340714D01*
X57440476Y-40340714D01*
X57535714Y-40388333D01*
X57107142Y-40959761D02*
X57202380Y-41007380D01*
X57440476Y-41007380D01*
X57535714Y-40959761D01*
X57583333Y-40864523D01*
X57583333Y-40769285D01*
X57535714Y-40674047D01*
X57440476Y-40626428D01*
X57202380Y-40626428D01*
X57107142Y-40578809D01*
X56630952Y-41007380D02*
X56630952Y-40340714D01*
X56630952Y-40531190D02*
X56583333Y-40435952D01*
X56535714Y-40388333D01*
X56440476Y-40340714D01*
X56345238Y-40340714D01*
X55583333Y-41007380D02*
X55583333Y-40007380D01*
X55583333Y-40959761D02*
X55678571Y-41007380D01*
X55869047Y-41007380D01*
X55964285Y-40959761D01*
X56011904Y-40912142D01*
X56059523Y-40816904D01*
X56059523Y-40531190D01*
X56011904Y-40435952D01*
X55964285Y-40388333D01*
X55869047Y-40340714D01*
X55678571Y-40340714D01*
X55583333Y-40388333D01*
X54440476Y-40340714D02*
X54202380Y-41007380D01*
X53964285Y-40340714D01*
X53059523Y-41007380D02*
X53630952Y-41007380D01*
X53345238Y-41007380D02*
X53345238Y-40007380D01*
X53440476Y-40150238D01*
X53535714Y-40245476D01*
X53630952Y-40293095D01*
X52630952Y-40912142D02*
X52583333Y-40959761D01*
X52630952Y-41007380D01*
X52678571Y-40959761D01*
X52630952Y-40912142D01*
X52630952Y-41007380D01*
X51964285Y-40007380D02*
X51869047Y-40007380D01*
X51773809Y-40055000D01*
X51726190Y-40102619D01*
X51678571Y-40197857D01*
X51630952Y-40388333D01*
X51630952Y-40626428D01*
X51678571Y-40816904D01*
X51726190Y-40912142D01*
X51773809Y-40959761D01*
X51869047Y-41007380D01*
X51964285Y-41007380D01*
X52059523Y-40959761D01*
X52107142Y-40912142D01*
X52154761Y-40816904D01*
X52202380Y-40626428D01*
X52202380Y-40388333D01*
X52154761Y-40197857D01*
X52107142Y-40102619D01*
X52059523Y-40055000D01*
X51964285Y-40007380D01*
X51202380Y-40912142D02*
X51154761Y-40959761D01*
X51202380Y-41007380D01*
X51250000Y-40959761D01*
X51202380Y-40912142D01*
X51202380Y-41007380D01*
X50535714Y-40007380D02*
X50440476Y-40007380D01*
X50345238Y-40055000D01*
X50297619Y-40102619D01*
X50250000Y-40197857D01*
X50202380Y-40388333D01*
X50202380Y-40626428D01*
X50250000Y-40816904D01*
X50297619Y-40912142D01*
X50345238Y-40959761D01*
X50440476Y-41007380D01*
X50535714Y-41007380D01*
X50630952Y-40959761D01*
X50678571Y-40912142D01*
X50726190Y-40816904D01*
X50773809Y-40626428D01*
X50773809Y-40388333D01*
X50726190Y-40197857D01*
X50678571Y-40102619D01*
X50630952Y-40055000D01*
X50535714Y-40007380D01*
X49773809Y-40626428D02*
X49011904Y-40626428D01*
X47964285Y-41007380D02*
X48297619Y-40531190D01*
X48535714Y-41007380D02*
X48535714Y-40007380D01*
X48154761Y-40007380D01*
X48059523Y-40055000D01*
X48011904Y-40102619D01*
X47964285Y-40197857D01*
X47964285Y-40340714D01*
X48011904Y-40435952D01*
X48059523Y-40483571D01*
X48154761Y-40531190D01*
X48535714Y-40531190D01*
X46964285Y-40912142D02*
X47011904Y-40959761D01*
X47154761Y-41007380D01*
X47250000Y-41007380D01*
X47392857Y-40959761D01*
X47488095Y-40864523D01*
X47535714Y-40769285D01*
X47583333Y-40578809D01*
X47583333Y-40435952D01*
X47535714Y-40245476D01*
X47488095Y-40150238D01*
X47392857Y-40055000D01*
X47250000Y-40007380D01*
X47154761Y-40007380D01*
X47011904Y-40055000D01*
X46964285Y-40102619D01*
X46583333Y-40102619D02*
X46535714Y-40055000D01*
X46440476Y-40007380D01*
X46202380Y-40007380D01*
X46107142Y-40055000D01*
X46059523Y-40102619D01*
X46011904Y-40197857D01*
X46011904Y-40293095D01*
X46059523Y-40435952D01*
X46630952Y-41007380D01*
X46011904Y-41007380D01*
%LPC*%
D12*
X33330000Y-25400000D03*
D13*
X36830000Y-25400000D03*
D12*
X41600000Y-60960000D03*
D13*
X38100000Y-60960000D03*
D12*
X93035000Y-60960000D03*
D13*
X89535000Y-60960000D03*
D12*
X70810000Y-60960000D03*
D13*
X67310000Y-60960000D03*
D14*
X24000000Y-24000000D03*
D15*
X107000000Y-39500000D03*
X107000000Y-42000000D03*
X107000000Y-44500000D03*
G36*
G01*
X107725000Y-47850000D02*
X106275000Y-47850000D01*
G75*
G02*
X106025000Y-47600000I0J250000D01*
G01*
X106025000Y-46400000D01*
G75*
G02*
X106275000Y-46150000I250000J0D01*
G01*
X107725000Y-46150000D01*
G75*
G02*
X107975000Y-46400000I0J-250000D01*
G01*
X107975000Y-47600000D01*
G75*
G02*
X107725000Y-47850000I-250000J0D01*
G01*
G37*
D14*
X111000000Y-24000000D03*
X111000000Y-62000000D03*
X24000000Y-62000000D03*
G36*
G01*
X24110000Y-37325000D02*
X24110000Y-35575000D01*
G75*
G02*
X24985000Y-34700000I875000J0D01*
G01*
X26735000Y-34700000D01*
G75*
G02*
X27610000Y-35575000I0J-875000D01*
G01*
X27610000Y-37325000D01*
G75*
G02*
X26735000Y-38200000I-875000J0D01*
G01*
X24985000Y-38200000D01*
G75*
G02*
X24110000Y-37325000I0J875000D01*
G01*
G37*
G36*
G01*
X21360000Y-32750000D02*
X21360000Y-30750000D01*
G75*
G02*
X22110000Y-30000000I750000J0D01*
G01*
X23610000Y-30000000D01*
G75*
G02*
X24360000Y-30750000I0J-750000D01*
G01*
X24360000Y-32750000D01*
G75*
G02*
X23610000Y-33500000I-750000J0D01*
G01*
X22110000Y-33500000D01*
G75*
G02*
X21360000Y-32750000I0J750000D01*
G01*
G37*
D16*
X28860000Y-31750000D03*
D17*
X23368000Y-46482000D03*
X23368000Y-43942000D03*
D18*
X23368000Y-41402000D03*
D19*
X26670000Y-54824000D03*
G36*
G01*
X25920000Y-51474000D02*
X27420000Y-51474000D01*
G75*
G02*
X27670000Y-51724000I0J-250000D01*
G01*
X27670000Y-52924000D01*
G75*
G02*
X27420000Y-53174000I-250000J0D01*
G01*
X25920000Y-53174000D01*
G75*
G02*
X25670000Y-52924000I0J250000D01*
G01*
X25670000Y-51724000D01*
G75*
G02*
X25920000Y-51474000I250000J0D01*
G01*
G37*
M02*
