G04 #@! TF.GenerationSoftware,KiCad,Pcbnew,6.0.5+dfsg-1~bpo11+1*
G04 #@! TF.CreationDate,2022-06-16T13:06:08+00:00*
G04 #@! TF.ProjectId,PowerDistribution,506f7765-7244-4697-9374-726962757469,v1.0.0-RC2*
G04 #@! TF.SameCoordinates,Original*
G04 #@! TF.FileFunction,Soldermask,Bot*
G04 #@! TF.FilePolarity,Negative*
%FSLAX46Y46*%
G04 Gerber Fmt 4.6, Leading zero omitted, Abs format (unit mm)*
G04 Created by KiCad (PCBNEW 6.0.5+dfsg-1~bpo11+1) date 2022-06-16 13:06:08*
%MOMM*%
%LPD*%
G01*
G04 APERTURE LIST*
%ADD10C,2.400000*%
%ADD11R,2.400000X2.400000*%
%ADD12C,4.700000*%
%ADD13O,1.950000X1.700000*%
%ADD14R,3.500000X3.500000*%
%ADD15O,1.700000X1.700000*%
%ADD16R,1.700000X1.700000*%
%ADD17O,2.000000X1.700000*%
G04 APERTURE END LIST*
D10*
X33330000Y-25400000D03*
D11*
X36830000Y-25400000D03*
D10*
X41600000Y-60960000D03*
D11*
X38100000Y-60960000D03*
D10*
X93035000Y-60960000D03*
D11*
X89535000Y-60960000D03*
D10*
X70810000Y-60960000D03*
D11*
X67310000Y-60960000D03*
D12*
X24000000Y-24000000D03*
D13*
X107000000Y-39500000D03*
X107000000Y-42000000D03*
X107000000Y-44500000D03*
G36*
G01*
X107725000Y-47850000D02*
X106275000Y-47850000D01*
G75*
G02*
X106025000Y-47600000I0J250000D01*
G01*
X106025000Y-46400000D01*
G75*
G02*
X106275000Y-46150000I250000J0D01*
G01*
X107725000Y-46150000D01*
G75*
G02*
X107975000Y-46400000I0J-250000D01*
G01*
X107975000Y-47600000D01*
G75*
G02*
X107725000Y-47850000I-250000J0D01*
G01*
G37*
D12*
X111000000Y-24000000D03*
X111000000Y-62000000D03*
X24000000Y-62000000D03*
G36*
G01*
X24110000Y-37325000D02*
X24110000Y-35575000D01*
G75*
G02*
X24985000Y-34700000I875000J0D01*
G01*
X26735000Y-34700000D01*
G75*
G02*
X27610000Y-35575000I0J-875000D01*
G01*
X27610000Y-37325000D01*
G75*
G02*
X26735000Y-38200000I-875000J0D01*
G01*
X24985000Y-38200000D01*
G75*
G02*
X24110000Y-37325000I0J875000D01*
G01*
G37*
G36*
G01*
X21360000Y-32750000D02*
X21360000Y-30750000D01*
G75*
G02*
X22110000Y-30000000I750000J0D01*
G01*
X23610000Y-30000000D01*
G75*
G02*
X24360000Y-30750000I0J-750000D01*
G01*
X24360000Y-32750000D01*
G75*
G02*
X23610000Y-33500000I-750000J0D01*
G01*
X22110000Y-33500000D01*
G75*
G02*
X21360000Y-32750000I0J750000D01*
G01*
G37*
D14*
X28860000Y-31750000D03*
D15*
X23368000Y-46482000D03*
X23368000Y-43942000D03*
D16*
X23368000Y-41402000D03*
D17*
X26670000Y-54824000D03*
G36*
G01*
X25920000Y-51474000D02*
X27420000Y-51474000D01*
G75*
G02*
X27670000Y-51724000I0J-250000D01*
G01*
X27670000Y-52924000D01*
G75*
G02*
X27420000Y-53174000I-250000J0D01*
G01*
X25920000Y-53174000D01*
G75*
G02*
X25670000Y-52924000I0J250000D01*
G01*
X25670000Y-51724000D01*
G75*
G02*
X25920000Y-51474000I250000J0D01*
G01*
G37*
M02*
