G04 #@! TF.GenerationSoftware,KiCad,Pcbnew,7.0.2.1-36-g582732918d-dirty-deb11*
G04 #@! TF.CreationDate,2023-05-29T13:22:34+00:00*
G04 #@! TF.ProjectId,PowerDistribution,506f7765-7244-4697-9374-726962757469,v1.0.0-RC2*
G04 #@! TF.SameCoordinates,Original*
G04 #@! TF.FileFunction,Copper,L2,Inr*
G04 #@! TF.FilePolarity,Positive*
%FSLAX46Y46*%
G04 Gerber Fmt 4.6, Leading zero omitted, Abs format (unit mm)*
G04 Created by KiCad (PCBNEW 7.0.2.1-36-g582732918d-dirty-deb11) date 2023-05-29 13:22:34*
%MOMM*%
%LPD*%
G01*
G04 APERTURE LIST*
G04 #@! TA.AperFunction,ComponentPad*
%ADD10O,2.000000X1.700000*%
G04 #@! TD*
G04 #@! TA.AperFunction,ComponentPad*
%ADD11R,1.700000X1.700000*%
G04 #@! TD*
G04 #@! TA.AperFunction,ComponentPad*
%ADD12O,1.700000X1.700000*%
G04 #@! TD*
G04 #@! TA.AperFunction,ComponentPad*
%ADD13R,2.400000X2.400000*%
G04 #@! TD*
G04 #@! TA.AperFunction,ComponentPad*
%ADD14C,2.400000*%
G04 #@! TD*
G04 #@! TA.AperFunction,ComponentPad*
%ADD15O,1.950000X1.700000*%
G04 #@! TD*
G04 #@! TA.AperFunction,ComponentPad*
%ADD16R,3.500000X3.500000*%
G04 #@! TD*
G04 #@! TA.AperFunction,ComponentPad*
%ADD17C,4.700000*%
G04 #@! TD*
G04 #@! TA.AperFunction,ViaPad*
%ADD18C,0.800000*%
G04 #@! TD*
G04 APERTURE END LIST*
G04 #@! TA.AperFunction,ComponentPad*
G36*
G01*
X25920000Y-51474000D02*
X27420000Y-51474000D01*
G75*
G02*
X27670000Y-51724000I0J-250000D01*
G01*
X27670000Y-52924000D01*
G75*
G02*
X27420000Y-53174000I-250000J0D01*
G01*
X25920000Y-53174000D01*
G75*
G02*
X25670000Y-52924000I0J250000D01*
G01*
X25670000Y-51724000D01*
G75*
G02*
X25920000Y-51474000I250000J0D01*
G01*
G37*
G04 #@! TD.AperFunction*
D10*
X26670000Y-54824000D03*
D11*
X23368000Y-41402000D03*
D12*
X23368000Y-43942000D03*
X23368000Y-46482000D03*
D13*
X38100000Y-60960000D03*
D14*
X41600000Y-60960000D03*
G04 #@! TA.AperFunction,ComponentPad*
G36*
G01*
X107725000Y-47850000D02*
X106275000Y-47850000D01*
G75*
G02*
X106025000Y-47600000I0J250000D01*
G01*
X106025000Y-46400000D01*
G75*
G02*
X106275000Y-46150000I250000J0D01*
G01*
X107725000Y-46150000D01*
G75*
G02*
X107975000Y-46400000I0J-250000D01*
G01*
X107975000Y-47600000D01*
G75*
G02*
X107725000Y-47850000I-250000J0D01*
G01*
G37*
G04 #@! TD.AperFunction*
D15*
X107000000Y-44500000D03*
X107000000Y-42000000D03*
X107000000Y-39500000D03*
D16*
X28860000Y-31750000D03*
G04 #@! TA.AperFunction,ComponentPad*
G36*
G01*
X21360000Y-32750000D02*
X21360000Y-30750000D01*
G75*
G02*
X22110000Y-30000000I750000J0D01*
G01*
X23610000Y-30000000D01*
G75*
G02*
X24360000Y-30750000I0J-750000D01*
G01*
X24360000Y-32750000D01*
G75*
G02*
X23610000Y-33500000I-750000J0D01*
G01*
X22110000Y-33500000D01*
G75*
G02*
X21360000Y-32750000I0J750000D01*
G01*
G37*
G04 #@! TD.AperFunction*
G04 #@! TA.AperFunction,ComponentPad*
G36*
G01*
X24110000Y-37325000D02*
X24110000Y-35575000D01*
G75*
G02*
X24985000Y-34700000I875000J0D01*
G01*
X26735000Y-34700000D01*
G75*
G02*
X27610000Y-35575000I0J-875000D01*
G01*
X27610000Y-37325000D01*
G75*
G02*
X26735000Y-38200000I-875000J0D01*
G01*
X24985000Y-38200000D01*
G75*
G02*
X24110000Y-37325000I0J875000D01*
G01*
G37*
G04 #@! TD.AperFunction*
D13*
X89535000Y-60960000D03*
D14*
X93035000Y-60960000D03*
D13*
X67310000Y-60960000D03*
D14*
X70810000Y-60960000D03*
D17*
X24000000Y-62000000D03*
X111000000Y-62000000D03*
X111000000Y-24000000D03*
X24000000Y-24000000D03*
D13*
X36830000Y-25400000D03*
D14*
X33330000Y-25400000D03*
D18*
X35814000Y-43942000D03*
X35814000Y-48514000D03*
X59250000Y-31250000D03*
X39370000Y-29972000D03*
X96520000Y-51435000D03*
X79500000Y-49500000D03*
X104648000Y-40894000D03*
X62250000Y-31250000D03*
X109728000Y-51054000D03*
X45800000Y-31400000D03*
X61250000Y-31250000D03*
X60250000Y-31250000D03*
X45466000Y-43942000D03*
X79500000Y-46500000D03*
X102000000Y-48500000D03*
X59000000Y-36000000D03*
X50600000Y-21400000D03*
X26670000Y-43942000D03*
X48600000Y-21400000D03*
X49600000Y-21400000D03*
X25653994Y-43942000D03*
X60000000Y-52000000D03*
X68000000Y-53000000D03*
X59000000Y-53000000D03*
X60000000Y-53000000D03*
X59000000Y-52000000D03*
X61000000Y-53000000D03*
X61000000Y-52000000D03*
X74168000Y-41910000D03*
X69000000Y-53000000D03*
X69000000Y-23000000D03*
X75946000Y-55118000D03*
X73500000Y-52070000D03*
X106934000Y-51816000D03*
X79502000Y-40894000D03*
X46228000Y-49784000D03*
X38100000Y-46482000D03*
X81788000Y-39370000D03*
X40132000Y-51054000D03*
X41910000Y-40894000D03*
X86025000Y-29975000D03*
X84350000Y-29650000D03*
X47244000Y-46990000D03*
G04 #@! TA.AperFunction,Conductor*
G36*
X111002898Y-20025634D02*
G01*
X111360905Y-20042186D01*
X111372491Y-20043259D01*
X111724556Y-20092370D01*
X111735975Y-20094504D01*
X112082006Y-20175891D01*
X112093194Y-20179074D01*
X112430241Y-20292041D01*
X112441073Y-20296237D01*
X112766275Y-20439827D01*
X112776666Y-20445002D01*
X113081427Y-20614753D01*
X113087210Y-20617974D01*
X113097103Y-20624099D01*
X113390376Y-20824996D01*
X113399642Y-20831994D01*
X113481224Y-20899738D01*
X113673128Y-21059093D01*
X113681728Y-21066934D01*
X113933065Y-21318271D01*
X113940906Y-21326871D01*
X114168003Y-21600354D01*
X114175005Y-21609627D01*
X114285930Y-21771556D01*
X114375899Y-21902894D01*
X114382025Y-21912789D01*
X114452370Y-22039081D01*
X114546948Y-22208882D01*
X114554990Y-22223319D01*
X114560175Y-22233732D01*
X114575657Y-22268794D01*
X114703758Y-22558916D01*
X114707962Y-22569768D01*
X114820924Y-22906802D01*
X114824109Y-22917996D01*
X114905492Y-23264013D01*
X114907631Y-23275454D01*
X114956739Y-23627507D01*
X114957813Y-23639094D01*
X114974366Y-23997099D01*
X114974500Y-24002919D01*
X114974500Y-61997079D01*
X114974366Y-62002899D01*
X114957813Y-62360905D01*
X114956739Y-62372492D01*
X114907631Y-62724545D01*
X114905492Y-62735986D01*
X114824109Y-63082003D01*
X114820924Y-63093197D01*
X114707962Y-63430231D01*
X114703758Y-63441083D01*
X114560178Y-63766262D01*
X114554990Y-63776680D01*
X114382025Y-64087210D01*
X114375899Y-64097105D01*
X114175011Y-64390365D01*
X114167997Y-64399653D01*
X113940906Y-64673128D01*
X113933065Y-64681728D01*
X113681728Y-64933065D01*
X113673128Y-64940906D01*
X113399653Y-65167997D01*
X113390365Y-65175011D01*
X113097105Y-65375899D01*
X113087210Y-65382025D01*
X112776680Y-65554990D01*
X112766262Y-65560178D01*
X112441083Y-65703758D01*
X112430231Y-65707962D01*
X112093197Y-65820924D01*
X112082003Y-65824109D01*
X111735986Y-65905492D01*
X111724545Y-65907631D01*
X111372492Y-65956739D01*
X111360905Y-65957813D01*
X111015425Y-65973786D01*
X111002897Y-65974366D01*
X110997079Y-65974500D01*
X24002921Y-65974500D01*
X23997102Y-65974366D01*
X23983918Y-65973756D01*
X23639094Y-65957813D01*
X23627507Y-65956739D01*
X23275454Y-65907631D01*
X23264013Y-65905492D01*
X22917996Y-65824109D01*
X22906802Y-65820924D01*
X22569768Y-65707962D01*
X22558916Y-65703758D01*
X22519685Y-65686436D01*
X22233732Y-65560175D01*
X22223324Y-65554992D01*
X22068053Y-65468507D01*
X21912789Y-65382025D01*
X21902894Y-65375899D01*
X21810220Y-65312416D01*
X21609627Y-65175005D01*
X21600354Y-65168003D01*
X21326871Y-64940906D01*
X21318271Y-64933065D01*
X21066934Y-64681728D01*
X21059093Y-64673128D01*
X20977131Y-64574425D01*
X20831994Y-64399642D01*
X20824996Y-64390376D01*
X20624099Y-64097103D01*
X20617974Y-64087210D01*
X20547630Y-63960919D01*
X20445002Y-63776666D01*
X20439827Y-63766275D01*
X20296237Y-63441073D01*
X20292041Y-63430241D01*
X20179074Y-63093194D01*
X20175890Y-63082003D01*
X20094504Y-62735975D01*
X20092370Y-62724556D01*
X20043259Y-62372491D01*
X20042186Y-62360904D01*
X20025634Y-62002898D01*
X20025500Y-61997079D01*
X20025500Y-60960000D01*
X39886709Y-60960000D01*
X39905845Y-61215354D01*
X39962826Y-61465002D01*
X40056378Y-61703369D01*
X40184413Y-61925131D01*
X40344065Y-62125330D01*
X40531784Y-62299508D01*
X40638833Y-62372492D01*
X40743355Y-62443754D01*
X40862959Y-62501352D01*
X40974064Y-62554858D01*
X41028635Y-62571690D01*
X41218757Y-62630335D01*
X41471966Y-62668500D01*
X41471968Y-62668500D01*
X41728032Y-62668500D01*
X41728034Y-62668500D01*
X41981243Y-62630335D01*
X42225935Y-62554858D01*
X42456646Y-62443754D01*
X42668219Y-62299505D01*
X42855931Y-62125334D01*
X43015587Y-61925131D01*
X43143622Y-61703369D01*
X43237174Y-61465001D01*
X43294155Y-61215353D01*
X43313291Y-60960000D01*
X43313291Y-60959999D01*
X69096709Y-60959999D01*
X69115845Y-61215354D01*
X69172826Y-61465002D01*
X69266378Y-61703369D01*
X69394413Y-61925131D01*
X69554065Y-62125330D01*
X69741784Y-62299508D01*
X69848833Y-62372492D01*
X69953355Y-62443754D01*
X70072960Y-62501352D01*
X70184064Y-62554858D01*
X70238635Y-62571690D01*
X70428757Y-62630335D01*
X70681966Y-62668500D01*
X70681968Y-62668500D01*
X70938032Y-62668500D01*
X70938034Y-62668500D01*
X71191243Y-62630335D01*
X71435935Y-62554858D01*
X71666646Y-62443754D01*
X71878219Y-62299505D01*
X72065931Y-62125334D01*
X72225587Y-61925131D01*
X72353622Y-61703369D01*
X72447174Y-61465001D01*
X72504155Y-61215353D01*
X72523291Y-60960000D01*
X91321709Y-60960000D01*
X91340845Y-61215354D01*
X91397826Y-61465002D01*
X91491378Y-61703369D01*
X91619413Y-61925131D01*
X91779065Y-62125330D01*
X91966784Y-62299508D01*
X92073833Y-62372492D01*
X92178355Y-62443754D01*
X92297960Y-62501352D01*
X92409064Y-62554858D01*
X92463635Y-62571690D01*
X92653757Y-62630335D01*
X92906966Y-62668500D01*
X92906968Y-62668500D01*
X93163032Y-62668500D01*
X93163034Y-62668500D01*
X93416243Y-62630335D01*
X93660935Y-62554858D01*
X93891646Y-62443754D01*
X94103219Y-62299505D01*
X94290931Y-62125334D01*
X94450587Y-61925131D01*
X94578622Y-61703369D01*
X94672174Y-61465001D01*
X94729155Y-61215353D01*
X94748291Y-60960000D01*
X94729155Y-60704647D01*
X94672174Y-60454999D01*
X94578622Y-60216631D01*
X94450587Y-59994869D01*
X94410673Y-59944818D01*
X94290934Y-59794669D01*
X94290931Y-59794666D01*
X94103219Y-59620495D01*
X93891646Y-59476246D01*
X93891645Y-59476245D01*
X93891643Y-59476244D01*
X93660935Y-59365141D01*
X93484018Y-59310570D01*
X93416243Y-59289665D01*
X93163034Y-59251500D01*
X92906966Y-59251500D01*
X92653757Y-59289665D01*
X92653753Y-59289666D01*
X92653754Y-59289666D01*
X92409064Y-59365141D01*
X92178354Y-59476246D01*
X91966784Y-59620491D01*
X91779065Y-59794669D01*
X91619413Y-59994868D01*
X91491378Y-60216630D01*
X91397826Y-60454997D01*
X91340845Y-60704645D01*
X91321709Y-60960000D01*
X72523291Y-60960000D01*
X72504155Y-60704647D01*
X72447174Y-60454999D01*
X72353622Y-60216631D01*
X72225587Y-59994869D01*
X72185672Y-59944818D01*
X72065934Y-59794669D01*
X72065931Y-59794666D01*
X71878219Y-59620495D01*
X71666646Y-59476246D01*
X71666645Y-59476245D01*
X71666643Y-59476244D01*
X71435935Y-59365141D01*
X71259018Y-59310570D01*
X71191243Y-59289665D01*
X70938034Y-59251500D01*
X70681966Y-59251500D01*
X70428757Y-59289665D01*
X70428753Y-59289666D01*
X70428754Y-59289666D01*
X70184064Y-59365141D01*
X69953354Y-59476246D01*
X69741784Y-59620491D01*
X69554065Y-59794669D01*
X69394413Y-59994868D01*
X69266378Y-60216630D01*
X69172826Y-60454997D01*
X69115845Y-60704645D01*
X69096709Y-60959999D01*
X43313291Y-60959999D01*
X43294155Y-60704647D01*
X43237174Y-60454999D01*
X43143622Y-60216631D01*
X43015587Y-59994869D01*
X42975673Y-59944818D01*
X42855934Y-59794669D01*
X42855931Y-59794666D01*
X42668219Y-59620495D01*
X42456646Y-59476246D01*
X42456645Y-59476245D01*
X42456643Y-59476244D01*
X42225935Y-59365141D01*
X42049018Y-59310570D01*
X41981243Y-59289665D01*
X41728034Y-59251500D01*
X41471966Y-59251500D01*
X41218757Y-59289665D01*
X41218753Y-59289666D01*
X41218754Y-59289666D01*
X40974064Y-59365141D01*
X40743354Y-59476246D01*
X40531784Y-59620491D01*
X40344065Y-59794669D01*
X40184413Y-59994868D01*
X40056378Y-60216630D01*
X39962826Y-60454997D01*
X39905845Y-60704645D01*
X39886709Y-60960000D01*
X20025500Y-60960000D01*
X20025500Y-54766135D01*
X25157815Y-54766135D01*
X25167630Y-54997175D01*
X25216350Y-55223237D01*
X25260198Y-55332357D01*
X25302574Y-55437813D01*
X25423821Y-55634730D01*
X25576602Y-55808324D01*
X25756524Y-55953600D01*
X25958409Y-56066380D01*
X26176450Y-56143419D01*
X26404375Y-56182500D01*
X26404377Y-56182500D01*
X26875047Y-56182500D01*
X26877713Y-56182500D01*
X27050418Y-56167801D01*
X27274207Y-56109530D01*
X27484929Y-56014278D01*
X27676523Y-55884783D01*
X27843476Y-55724772D01*
X27980985Y-55538847D01*
X28085095Y-55332357D01*
X28150742Y-55118000D01*
X75032496Y-55118000D01*
X75052458Y-55307929D01*
X75111472Y-55489556D01*
X75206958Y-55654942D01*
X75206960Y-55654944D01*
X75334747Y-55796866D01*
X75489248Y-55909118D01*
X75663712Y-55986794D01*
X75850513Y-56026500D01*
X75850515Y-56026500D01*
X76041485Y-56026500D01*
X76041487Y-56026500D01*
X76228288Y-55986794D01*
X76402752Y-55909118D01*
X76557253Y-55796866D01*
X76685040Y-55654944D01*
X76780527Y-55489556D01*
X76839542Y-55307928D01*
X76859504Y-55118000D01*
X76839542Y-54928072D01*
X76780527Y-54746444D01*
X76780527Y-54746443D01*
X76685041Y-54581057D01*
X76557252Y-54439133D01*
X76402753Y-54326883D01*
X76402752Y-54326882D01*
X76228288Y-54249206D01*
X76041487Y-54209500D01*
X75850513Y-54209500D01*
X75725978Y-54235970D01*
X75663711Y-54249206D01*
X75489246Y-54326883D01*
X75334747Y-54439133D01*
X75206958Y-54581057D01*
X75111472Y-54746443D01*
X75052458Y-54928070D01*
X75032496Y-55118000D01*
X28150742Y-55118000D01*
X28152811Y-55111243D01*
X28182184Y-54881865D01*
X28172369Y-54650822D01*
X28123649Y-54424762D01*
X28037426Y-54210187D01*
X27916179Y-54013270D01*
X27763398Y-53839676D01*
X27735975Y-53817533D01*
X27695542Y-53759177D01*
X27693076Y-53688224D01*
X27729362Y-53627201D01*
X27748979Y-53612265D01*
X27893652Y-53523030D01*
X28019030Y-53397652D01*
X28112115Y-53246738D01*
X28167887Y-53078426D01*
X28175899Y-53000000D01*
X58086496Y-53000000D01*
X58106458Y-53189929D01*
X58165472Y-53371556D01*
X58260958Y-53536942D01*
X58260960Y-53536944D01*
X58388747Y-53678866D01*
X58543248Y-53791118D01*
X58717712Y-53868794D01*
X58904513Y-53908500D01*
X58904515Y-53908500D01*
X59095485Y-53908500D01*
X59095487Y-53908500D01*
X59282288Y-53868794D01*
X59448755Y-53794678D01*
X59519118Y-53785245D01*
X59551240Y-53794676D01*
X59717712Y-53868794D01*
X59904513Y-53908500D01*
X59904515Y-53908500D01*
X60095485Y-53908500D01*
X60095487Y-53908500D01*
X60282288Y-53868794D01*
X60448752Y-53794679D01*
X60519117Y-53785245D01*
X60551242Y-53794677D01*
X60717712Y-53868794D01*
X60904513Y-53908500D01*
X60904515Y-53908500D01*
X61095485Y-53908500D01*
X61095487Y-53908500D01*
X61282288Y-53868794D01*
X61456752Y-53791118D01*
X61611253Y-53678866D01*
X61739040Y-53536944D01*
X61834527Y-53371556D01*
X61893542Y-53189928D01*
X61913504Y-53000000D01*
X67086496Y-53000000D01*
X67106458Y-53189929D01*
X67165472Y-53371556D01*
X67260958Y-53536942D01*
X67260960Y-53536944D01*
X67388747Y-53678866D01*
X67543248Y-53791118D01*
X67717712Y-53868794D01*
X67904513Y-53908500D01*
X67904515Y-53908500D01*
X68095485Y-53908500D01*
X68095487Y-53908500D01*
X68282288Y-53868794D01*
X68448755Y-53794678D01*
X68519118Y-53785245D01*
X68551240Y-53794676D01*
X68717712Y-53868794D01*
X68904513Y-53908500D01*
X68904515Y-53908500D01*
X69095485Y-53908500D01*
X69095487Y-53908500D01*
X69282288Y-53868794D01*
X69456752Y-53791118D01*
X69611253Y-53678866D01*
X69739040Y-53536944D01*
X69834527Y-53371556D01*
X69893542Y-53189928D01*
X69913504Y-53000000D01*
X69893542Y-52810072D01*
X69834528Y-52628446D01*
X69834527Y-52628443D01*
X69739041Y-52463057D01*
X69656651Y-52371554D01*
X69611253Y-52321134D01*
X69456752Y-52208882D01*
X69282288Y-52131206D01*
X69095487Y-52091500D01*
X68904513Y-52091500D01*
X68717712Y-52131206D01*
X68717710Y-52131206D01*
X68717709Y-52131207D01*
X68551248Y-52205319D01*
X68480881Y-52214753D01*
X68448752Y-52205319D01*
X68282290Y-52131207D01*
X68282288Y-52131206D01*
X68095487Y-52091500D01*
X67904513Y-52091500D01*
X67779979Y-52117970D01*
X67717711Y-52131206D01*
X67543246Y-52208883D01*
X67388747Y-52321133D01*
X67260958Y-52463057D01*
X67165472Y-52628443D01*
X67106458Y-52810070D01*
X67086496Y-53000000D01*
X61913504Y-53000000D01*
X61893542Y-52810072D01*
X61864034Y-52719257D01*
X61834528Y-52628446D01*
X61822114Y-52606944D01*
X61796741Y-52562997D01*
X61780004Y-52494005D01*
X61796741Y-52437001D01*
X61834527Y-52371556D01*
X61893542Y-52189928D01*
X61906147Y-52070000D01*
X72586496Y-52070000D01*
X72606458Y-52259929D01*
X72665472Y-52441556D01*
X72760958Y-52606942D01*
X72780320Y-52628446D01*
X72888747Y-52748866D01*
X73043248Y-52861118D01*
X73217712Y-52938794D01*
X73404513Y-52978500D01*
X73404515Y-52978500D01*
X73595485Y-52978500D01*
X73595487Y-52978500D01*
X73782288Y-52938794D01*
X73956752Y-52861118D01*
X74111253Y-52748866D01*
X74239040Y-52606944D01*
X74334527Y-52441556D01*
X74393542Y-52259928D01*
X74413504Y-52070000D01*
X74393542Y-51880072D01*
X74372724Y-51816000D01*
X106020496Y-51816000D01*
X106040458Y-52005929D01*
X106099472Y-52187556D01*
X106194958Y-52352942D01*
X106294105Y-52463056D01*
X106322747Y-52494866D01*
X106477248Y-52607118D01*
X106651712Y-52684794D01*
X106838513Y-52724500D01*
X106838515Y-52724500D01*
X107029485Y-52724500D01*
X107029487Y-52724500D01*
X107216288Y-52684794D01*
X107390752Y-52607118D01*
X107545253Y-52494866D01*
X107673040Y-52352944D01*
X107768527Y-52187556D01*
X107827542Y-52005928D01*
X107847504Y-51816000D01*
X107827542Y-51626072D01*
X107774575Y-51463057D01*
X107768527Y-51444443D01*
X107673041Y-51279057D01*
X107545252Y-51137133D01*
X107400392Y-51031886D01*
X107390752Y-51024882D01*
X107216288Y-50947206D01*
X107029487Y-50907500D01*
X106838513Y-50907500D01*
X106713978Y-50933970D01*
X106651711Y-50947206D01*
X106477246Y-51024883D01*
X106322747Y-51137133D01*
X106194958Y-51279057D01*
X106099472Y-51444443D01*
X106040458Y-51626070D01*
X106020496Y-51816000D01*
X74372724Y-51816000D01*
X74362931Y-51785862D01*
X74334527Y-51698443D01*
X74239041Y-51533057D01*
X74111252Y-51391133D01*
X74014905Y-51321133D01*
X73956752Y-51278882D01*
X73782288Y-51201206D01*
X73595487Y-51161500D01*
X73404513Y-51161500D01*
X73279978Y-51187970D01*
X73217711Y-51201206D01*
X73043246Y-51278883D01*
X72888747Y-51391133D01*
X72760958Y-51533057D01*
X72665472Y-51698443D01*
X72606458Y-51880070D01*
X72586496Y-52070000D01*
X61906147Y-52070000D01*
X61913504Y-52000000D01*
X61893542Y-51810072D01*
X61850194Y-51676661D01*
X61834527Y-51628443D01*
X61739041Y-51463057D01*
X61611252Y-51321133D01*
X61499999Y-51240303D01*
X61456752Y-51208882D01*
X61282288Y-51131206D01*
X61095487Y-51091500D01*
X60904513Y-51091500D01*
X60717712Y-51131206D01*
X60717710Y-51131206D01*
X60717709Y-51131207D01*
X60551248Y-51205319D01*
X60480881Y-51214753D01*
X60448752Y-51205319D01*
X60282290Y-51131207D01*
X60282288Y-51131206D01*
X60095487Y-51091500D01*
X59904513Y-51091500D01*
X59717712Y-51131206D01*
X59717710Y-51131206D01*
X59717709Y-51131207D01*
X59551248Y-51205319D01*
X59480881Y-51214753D01*
X59448752Y-51205319D01*
X59282290Y-51131207D01*
X59282288Y-51131206D01*
X59095487Y-51091500D01*
X58904513Y-51091500D01*
X58779979Y-51117970D01*
X58717711Y-51131206D01*
X58543246Y-51208883D01*
X58388747Y-51321133D01*
X58260958Y-51463057D01*
X58165472Y-51628443D01*
X58106458Y-51810070D01*
X58086496Y-52000000D01*
X58106458Y-52189929D01*
X58165472Y-52371554D01*
X58203257Y-52437001D01*
X58219994Y-52505996D01*
X58203257Y-52562999D01*
X58165472Y-52628445D01*
X58106458Y-52810070D01*
X58086496Y-53000000D01*
X28175899Y-53000000D01*
X28178500Y-52974545D01*
X28178499Y-51673456D01*
X28167887Y-51569574D01*
X28112115Y-51401262D01*
X28019030Y-51250348D01*
X28019028Y-51250346D01*
X28019027Y-51250344D01*
X27893655Y-51124972D01*
X27893652Y-51124970D01*
X27778590Y-51053999D01*
X39218496Y-51053999D01*
X39238458Y-51243929D01*
X39297472Y-51425556D01*
X39392958Y-51590942D01*
X39424589Y-51626072D01*
X39520747Y-51732866D01*
X39675248Y-51845118D01*
X39849712Y-51922794D01*
X40036513Y-51962500D01*
X40036515Y-51962500D01*
X40227485Y-51962500D01*
X40227487Y-51962500D01*
X40414288Y-51922794D01*
X40588752Y-51845118D01*
X40743253Y-51732866D01*
X40871040Y-51590944D01*
X40966527Y-51425556D01*
X41025542Y-51243928D01*
X41045504Y-51054000D01*
X41025542Y-50864072D01*
X40994931Y-50769862D01*
X40966527Y-50682443D01*
X40871041Y-50517057D01*
X40743252Y-50375133D01*
X40588753Y-50262883D01*
X40588752Y-50262882D01*
X40414288Y-50185206D01*
X40227487Y-50145500D01*
X40036513Y-50145500D01*
X39911978Y-50171970D01*
X39849711Y-50185206D01*
X39675246Y-50262883D01*
X39520747Y-50375133D01*
X39392958Y-50517057D01*
X39297472Y-50682443D01*
X39238458Y-50864070D01*
X39218496Y-51053999D01*
X27778590Y-51053999D01*
X27742738Y-51031885D01*
X27574426Y-50976113D01*
X27574423Y-50976112D01*
X27574421Y-50976112D01*
X27473746Y-50965826D01*
X27473725Y-50965824D01*
X27470545Y-50965500D01*
X27467339Y-50965500D01*
X25872661Y-50965500D01*
X25872641Y-50965500D01*
X25869456Y-50965501D01*
X25866279Y-50965825D01*
X25866270Y-50965826D01*
X25765573Y-50976113D01*
X25597262Y-51031885D01*
X25446344Y-51124972D01*
X25320972Y-51250344D01*
X25303262Y-51279057D01*
X25227885Y-51401262D01*
X25172113Y-51569574D01*
X25172112Y-51569578D01*
X25161826Y-51670253D01*
X25161825Y-51670270D01*
X25161500Y-51673455D01*
X25161500Y-51676659D01*
X25161500Y-51676660D01*
X25161500Y-52971338D01*
X25161500Y-52971357D01*
X25161501Y-52974544D01*
X25172113Y-53078426D01*
X25227885Y-53246738D01*
X25304874Y-53371556D01*
X25320972Y-53397655D01*
X25446344Y-53523027D01*
X25446346Y-53523028D01*
X25446348Y-53523030D01*
X25592308Y-53613059D01*
X25639784Y-53665843D01*
X25651187Y-53735918D01*
X25622895Y-53801033D01*
X25613344Y-53811264D01*
X25496525Y-53923226D01*
X25359015Y-54109153D01*
X25254904Y-54315644D01*
X25187188Y-54536759D01*
X25157815Y-54766135D01*
X20025500Y-54766135D01*
X20025500Y-49783999D01*
X45314496Y-49783999D01*
X45334458Y-49973929D01*
X45393472Y-50155556D01*
X45488958Y-50320942D01*
X45488960Y-50320944D01*
X45616747Y-50462866D01*
X45771248Y-50575118D01*
X45945712Y-50652794D01*
X46132513Y-50692500D01*
X46132515Y-50692500D01*
X46323485Y-50692500D01*
X46323487Y-50692500D01*
X46510288Y-50652794D01*
X46684752Y-50575118D01*
X46839253Y-50462866D01*
X46967040Y-50320944D01*
X47062527Y-50155556D01*
X47121542Y-49973928D01*
X47141504Y-49784000D01*
X47121542Y-49594072D01*
X47090931Y-49499862D01*
X47062527Y-49412443D01*
X46967041Y-49247057D01*
X46839252Y-49105133D01*
X46684753Y-48992883D01*
X46684752Y-48992882D01*
X46510288Y-48915206D01*
X46323487Y-48875500D01*
X46132513Y-48875500D01*
X46007978Y-48901970D01*
X45945711Y-48915206D01*
X45771246Y-48992883D01*
X45616747Y-49105133D01*
X45488958Y-49247057D01*
X45393472Y-49412443D01*
X45334458Y-49594070D01*
X45314496Y-49783999D01*
X20025500Y-49783999D01*
X20025500Y-48513999D01*
X34900496Y-48513999D01*
X34920458Y-48703929D01*
X34979472Y-48885556D01*
X35074958Y-49050942D01*
X35074960Y-49050944D01*
X35202747Y-49192866D01*
X35357248Y-49305118D01*
X35531712Y-49382794D01*
X35718513Y-49422500D01*
X35718515Y-49422500D01*
X35909485Y-49422500D01*
X35909487Y-49422500D01*
X36096288Y-49382794D01*
X36270752Y-49305118D01*
X36425253Y-49192866D01*
X36553040Y-49050944D01*
X36648527Y-48885556D01*
X36707542Y-48703928D01*
X36727504Y-48514000D01*
X36707542Y-48324072D01*
X36648527Y-48142444D01*
X36648527Y-48142443D01*
X36553041Y-47977057D01*
X36482308Y-47898500D01*
X36425253Y-47835134D01*
X36270752Y-47722882D01*
X36096288Y-47645206D01*
X35909487Y-47605500D01*
X35718513Y-47605500D01*
X35593979Y-47631970D01*
X35531711Y-47645206D01*
X35357246Y-47722883D01*
X35202747Y-47835133D01*
X35074958Y-47977057D01*
X34979472Y-48142443D01*
X34920458Y-48324070D01*
X34900496Y-48513999D01*
X20025500Y-48513999D01*
X20025500Y-46482000D01*
X22004844Y-46482000D01*
X22023436Y-46706368D01*
X22023436Y-46706371D01*
X22023437Y-46706372D01*
X22078702Y-46924611D01*
X22169139Y-47130790D01*
X22292278Y-47319268D01*
X22444762Y-47484908D01*
X22599697Y-47605500D01*
X22622424Y-47623189D01*
X22820426Y-47730342D01*
X23033365Y-47803444D01*
X23255431Y-47840500D01*
X23255434Y-47840500D01*
X23480566Y-47840500D01*
X23480569Y-47840500D01*
X23702635Y-47803444D01*
X23915574Y-47730342D01*
X24113576Y-47623189D01*
X24291240Y-47484906D01*
X24443722Y-47319268D01*
X24566860Y-47130791D01*
X24657296Y-46924616D01*
X24712564Y-46706368D01*
X24731156Y-46482000D01*
X24731156Y-46481999D01*
X37186496Y-46481999D01*
X37206458Y-46671929D01*
X37265472Y-46853556D01*
X37360958Y-47018942D01*
X37360960Y-47018944D01*
X37488747Y-47160866D01*
X37643248Y-47273118D01*
X37817712Y-47350794D01*
X38004513Y-47390500D01*
X38004515Y-47390500D01*
X38195485Y-47390500D01*
X38195487Y-47390500D01*
X38382288Y-47350794D01*
X38556752Y-47273118D01*
X38711253Y-47160866D01*
X38839040Y-47018944D01*
X38855751Y-46989999D01*
X46330496Y-46989999D01*
X46350458Y-47179929D01*
X46409472Y-47361556D01*
X46504958Y-47526942D01*
X46504960Y-47526944D01*
X46632747Y-47668866D01*
X46787248Y-47781118D01*
X46961712Y-47858794D01*
X47148513Y-47898500D01*
X47148515Y-47898500D01*
X47339485Y-47898500D01*
X47339487Y-47898500D01*
X47526288Y-47858794D01*
X47700752Y-47781118D01*
X47855253Y-47668866D01*
X47983040Y-47526944D01*
X48078527Y-47361556D01*
X48137542Y-47179928D01*
X48157504Y-46990000D01*
X48137542Y-46800072D01*
X48106931Y-46705862D01*
X48078527Y-46618443D01*
X47983041Y-46453057D01*
X47855252Y-46311133D01*
X47700753Y-46198883D01*
X47700752Y-46198882D01*
X47526288Y-46121206D01*
X47339487Y-46081500D01*
X47148513Y-46081500D01*
X47023979Y-46107970D01*
X46961711Y-46121206D01*
X46787246Y-46198883D01*
X46632747Y-46311133D01*
X46504958Y-46453057D01*
X46409472Y-46618443D01*
X46350458Y-46800070D01*
X46330496Y-46989999D01*
X38855751Y-46989999D01*
X38934527Y-46853556D01*
X38993542Y-46671928D01*
X39013504Y-46482000D01*
X38993542Y-46292072D01*
X38934527Y-46110444D01*
X38934527Y-46110443D01*
X38839041Y-45945057D01*
X38711252Y-45803133D01*
X38634002Y-45747008D01*
X38556752Y-45690882D01*
X38382288Y-45613206D01*
X38195487Y-45573500D01*
X38004513Y-45573500D01*
X37879978Y-45599970D01*
X37817711Y-45613206D01*
X37643246Y-45690883D01*
X37488747Y-45803133D01*
X37360958Y-45945057D01*
X37265472Y-46110443D01*
X37206458Y-46292070D01*
X37186496Y-46481999D01*
X24731156Y-46481999D01*
X24712564Y-46257632D01*
X24657296Y-46039384D01*
X24566860Y-45833209D01*
X24443722Y-45644732D01*
X24291240Y-45479094D01*
X24291239Y-45479093D01*
X24291237Y-45479091D01*
X24113579Y-45340813D01*
X24113577Y-45340812D01*
X24113576Y-45340811D01*
X24080317Y-45322812D01*
X24029929Y-45272801D01*
X24014576Y-45203484D01*
X24039136Y-45136871D01*
X24080316Y-45101187D01*
X24113576Y-45083189D01*
X24291240Y-44944906D01*
X24443722Y-44779268D01*
X24566860Y-44590791D01*
X24645009Y-44412627D01*
X24690688Y-44358281D01*
X24758500Y-44337256D01*
X24826914Y-44356231D01*
X24869514Y-44400241D01*
X24914953Y-44478944D01*
X25015660Y-44590790D01*
X25042741Y-44620866D01*
X25197242Y-44733118D01*
X25371706Y-44810794D01*
X25558507Y-44850500D01*
X25558509Y-44850500D01*
X25749479Y-44850500D01*
X25749481Y-44850500D01*
X25936282Y-44810794D01*
X26110746Y-44733118D01*
X26110748Y-44733115D01*
X26181115Y-44723682D01*
X26213244Y-44733115D01*
X26213248Y-44733118D01*
X26387712Y-44810794D01*
X26574513Y-44850500D01*
X26574515Y-44850500D01*
X26765485Y-44850500D01*
X26765487Y-44850500D01*
X26952288Y-44810794D01*
X27126752Y-44733118D01*
X27281253Y-44620866D01*
X27409040Y-44478944D01*
X27504527Y-44313556D01*
X27563542Y-44131928D01*
X27583504Y-43942000D01*
X34900496Y-43942000D01*
X34920458Y-44131929D01*
X34979472Y-44313556D01*
X35074958Y-44478942D01*
X35074960Y-44478944D01*
X35202747Y-44620866D01*
X35357248Y-44733118D01*
X35531712Y-44810794D01*
X35718513Y-44850500D01*
X35718515Y-44850500D01*
X35909485Y-44850500D01*
X35909487Y-44850500D01*
X36096288Y-44810794D01*
X36270752Y-44733118D01*
X36425253Y-44620866D01*
X36553040Y-44478944D01*
X36574292Y-44442135D01*
X105512815Y-44442135D01*
X105522630Y-44673175D01*
X105571350Y-44899237D01*
X105615198Y-45008357D01*
X105657574Y-45113813D01*
X105778821Y-45310730D01*
X105931602Y-45484324D01*
X105959023Y-45506465D01*
X105999458Y-45564820D01*
X106001925Y-45635773D01*
X105965639Y-45696797D01*
X105946015Y-45711738D01*
X105801344Y-45800972D01*
X105675972Y-45926344D01*
X105664430Y-45945057D01*
X105582885Y-46077262D01*
X105527113Y-46245574D01*
X105527112Y-46245578D01*
X105516826Y-46346253D01*
X105516825Y-46346270D01*
X105516500Y-46349455D01*
X105516500Y-46352659D01*
X105516500Y-46352660D01*
X105516500Y-47647338D01*
X105516500Y-47647357D01*
X105516501Y-47650544D01*
X105516825Y-47653721D01*
X105516826Y-47653729D01*
X105523891Y-47722882D01*
X105527113Y-47754426D01*
X105582885Y-47922738D01*
X105675970Y-48073652D01*
X105675972Y-48073655D01*
X105801344Y-48199027D01*
X105801346Y-48199028D01*
X105801348Y-48199030D01*
X105952262Y-48292115D01*
X106120574Y-48347887D01*
X106196637Y-48355658D01*
X106221253Y-48358173D01*
X106221255Y-48358173D01*
X106224455Y-48358500D01*
X107775544Y-48358499D01*
X107879426Y-48347887D01*
X108047738Y-48292115D01*
X108198652Y-48199030D01*
X108324030Y-48073652D01*
X108417115Y-47922738D01*
X108472887Y-47754426D01*
X108483500Y-47650545D01*
X108483499Y-46349456D01*
X108472887Y-46245574D01*
X108417115Y-46077262D01*
X108324030Y-45926348D01*
X108324028Y-45926346D01*
X108324027Y-45926344D01*
X108198655Y-45800972D01*
X108198652Y-45800970D01*
X108052691Y-45710940D01*
X108005215Y-45658156D01*
X107993812Y-45588081D01*
X108022104Y-45522966D01*
X108031651Y-45512739D01*
X108148476Y-45400772D01*
X108285985Y-45214847D01*
X108390095Y-45008357D01*
X108457811Y-44787243D01*
X108487184Y-44557865D01*
X108477369Y-44326822D01*
X108428649Y-44100762D01*
X108342426Y-43886187D01*
X108221179Y-43689270D01*
X108068398Y-43515676D01*
X107888476Y-43370400D01*
X107888475Y-43370399D01*
X107888471Y-43370396D01*
X107867270Y-43358553D01*
X107817554Y-43307870D01*
X107803132Y-43238353D01*
X107828582Y-43172075D01*
X107858161Y-43144161D01*
X107981523Y-43060783D01*
X108148476Y-42900772D01*
X108285985Y-42714847D01*
X108390095Y-42508357D01*
X108457811Y-42287243D01*
X108487184Y-42057865D01*
X108477369Y-41826822D01*
X108428649Y-41600762D01*
X108342426Y-41386187D01*
X108221179Y-41189270D01*
X108068398Y-41015676D01*
X107888476Y-40870400D01*
X107888475Y-40870399D01*
X107888471Y-40870396D01*
X107867270Y-40858553D01*
X107817554Y-40807870D01*
X107803132Y-40738353D01*
X107828582Y-40672075D01*
X107858161Y-40644161D01*
X107981523Y-40560783D01*
X108148476Y-40400772D01*
X108285985Y-40214847D01*
X108390095Y-40008357D01*
X108457811Y-39787243D01*
X108487184Y-39557865D01*
X108477369Y-39326822D01*
X108428649Y-39100762D01*
X108342426Y-38886187D01*
X108221179Y-38689270D01*
X108068398Y-38515676D01*
X107888476Y-38370400D01*
X107888475Y-38370399D01*
X107686591Y-38257620D01*
X107468550Y-38180581D01*
X107240625Y-38141500D01*
X106817287Y-38141500D01*
X106814634Y-38141725D01*
X106814629Y-38141726D01*
X106644581Y-38156198D01*
X106420793Y-38214469D01*
X106210070Y-38309721D01*
X106018478Y-38439216D01*
X105851524Y-38599227D01*
X105714015Y-38785153D01*
X105609904Y-38991644D01*
X105542188Y-39212759D01*
X105512815Y-39442135D01*
X105522630Y-39673175D01*
X105571350Y-39899237D01*
X105615198Y-40008357D01*
X105657574Y-40113813D01*
X105778821Y-40310730D01*
X105931602Y-40484324D01*
X106111524Y-40629600D01*
X106131636Y-40640835D01*
X106132731Y-40641447D01*
X106182446Y-40692132D01*
X106196867Y-40761648D01*
X106171416Y-40827926D01*
X106141838Y-40855839D01*
X106018478Y-40939216D01*
X105851524Y-41099227D01*
X105714015Y-41285153D01*
X105609904Y-41491644D01*
X105542188Y-41712759D01*
X105512815Y-41942135D01*
X105522630Y-42173175D01*
X105571350Y-42399237D01*
X105615198Y-42508357D01*
X105657574Y-42613813D01*
X105778821Y-42810730D01*
X105931602Y-42984324D01*
X106111524Y-43129600D01*
X106131636Y-43140835D01*
X106132731Y-43141447D01*
X106182446Y-43192132D01*
X106196867Y-43261648D01*
X106171416Y-43327926D01*
X106141838Y-43355839D01*
X106018478Y-43439216D01*
X105851524Y-43599227D01*
X105714015Y-43785153D01*
X105609904Y-43991644D01*
X105542188Y-44212759D01*
X105512815Y-44442135D01*
X36574292Y-44442135D01*
X36648527Y-44313556D01*
X36707542Y-44131928D01*
X36727504Y-43942000D01*
X36707542Y-43752072D01*
X36648527Y-43570444D01*
X36648527Y-43570443D01*
X36553041Y-43405057D01*
X36425252Y-43263133D01*
X36348002Y-43207008D01*
X36270752Y-43150882D01*
X36096288Y-43073206D01*
X35909487Y-43033500D01*
X35718513Y-43033500D01*
X35593978Y-43059970D01*
X35531711Y-43073206D01*
X35460912Y-43104728D01*
X35378440Y-43141447D01*
X35357246Y-43150883D01*
X35202747Y-43263133D01*
X35074958Y-43405057D01*
X34979472Y-43570443D01*
X34920458Y-43752070D01*
X34900496Y-43942000D01*
X27583504Y-43942000D01*
X27563542Y-43752072D01*
X27504527Y-43570444D01*
X27504527Y-43570443D01*
X27409041Y-43405057D01*
X27281252Y-43263133D01*
X27204002Y-43207008D01*
X27126752Y-43150882D01*
X26952288Y-43073206D01*
X26765487Y-43033500D01*
X26574513Y-43033500D01*
X26387712Y-43073206D01*
X26387710Y-43073206D01*
X26387709Y-43073207D01*
X26213244Y-43150883D01*
X26142877Y-43160317D01*
X26110747Y-43150883D01*
X26110746Y-43150882D01*
X25936282Y-43073206D01*
X25749481Y-43033500D01*
X25558507Y-43033500D01*
X25433973Y-43059970D01*
X25371705Y-43073206D01*
X25300906Y-43104728D01*
X25218434Y-43141447D01*
X25197240Y-43150883D01*
X25042741Y-43263133D01*
X24914953Y-43405056D01*
X24869514Y-43483758D01*
X24818130Y-43532751D01*
X24748417Y-43546186D01*
X24682506Y-43519799D01*
X24645009Y-43471373D01*
X24566860Y-43293209D01*
X24443722Y-43104732D01*
X24300524Y-42949179D01*
X24269103Y-42885514D01*
X24277090Y-42814968D01*
X24321949Y-42759939D01*
X24349183Y-42745789D01*
X24464204Y-42702889D01*
X24581261Y-42615261D01*
X24668889Y-42498204D01*
X24719989Y-42361201D01*
X24726500Y-42300638D01*
X24726500Y-41910000D01*
X73254496Y-41910000D01*
X73274458Y-42099929D01*
X73333472Y-42281556D01*
X73428958Y-42446942D01*
X73484255Y-42508355D01*
X73556747Y-42588866D01*
X73711248Y-42701118D01*
X73885712Y-42778794D01*
X74072513Y-42818500D01*
X74072515Y-42818500D01*
X74263485Y-42818500D01*
X74263487Y-42818500D01*
X74450288Y-42778794D01*
X74624752Y-42701118D01*
X74779253Y-42588866D01*
X74907040Y-42446944D01*
X75002527Y-42281556D01*
X75061542Y-42099928D01*
X75081504Y-41910000D01*
X75061542Y-41720072D01*
X75022776Y-41600762D01*
X75002527Y-41538443D01*
X74907041Y-41373057D01*
X74779252Y-41231133D01*
X74624753Y-41118883D01*
X74624752Y-41118882D01*
X74450288Y-41041206D01*
X74263487Y-41001500D01*
X74072513Y-41001500D01*
X73947979Y-41027970D01*
X73885711Y-41041206D01*
X73711246Y-41118883D01*
X73556747Y-41231133D01*
X73428958Y-41373057D01*
X73333472Y-41538443D01*
X73274458Y-41720070D01*
X73254496Y-41910000D01*
X24726500Y-41910000D01*
X24726500Y-40893999D01*
X40996496Y-40893999D01*
X41016458Y-41083929D01*
X41075472Y-41265556D01*
X41170958Y-41430942D01*
X41225614Y-41491644D01*
X41298747Y-41572866D01*
X41453248Y-41685118D01*
X41627712Y-41762794D01*
X41814513Y-41802500D01*
X41814515Y-41802500D01*
X42005485Y-41802500D01*
X42005487Y-41802500D01*
X42192288Y-41762794D01*
X42366752Y-41685118D01*
X42521253Y-41572866D01*
X42649040Y-41430944D01*
X42744527Y-41265556D01*
X42803542Y-41083928D01*
X42823504Y-40894000D01*
X78588496Y-40894000D01*
X78608458Y-41083929D01*
X78667472Y-41265556D01*
X78762958Y-41430942D01*
X78817614Y-41491644D01*
X78890747Y-41572866D01*
X79045248Y-41685118D01*
X79219712Y-41762794D01*
X79406513Y-41802500D01*
X79406515Y-41802500D01*
X79597485Y-41802500D01*
X79597487Y-41802500D01*
X79784288Y-41762794D01*
X79958752Y-41685118D01*
X80113253Y-41572866D01*
X80241040Y-41430944D01*
X80336527Y-41265556D01*
X80395542Y-41083928D01*
X80415504Y-40894000D01*
X80395542Y-40704072D01*
X80336527Y-40522444D01*
X80336527Y-40522443D01*
X80241041Y-40357057D01*
X80170308Y-40278500D01*
X80113253Y-40215134D01*
X79958752Y-40102882D01*
X79784288Y-40025206D01*
X79597487Y-39985500D01*
X79406513Y-39985500D01*
X79298980Y-40008357D01*
X79219711Y-40025206D01*
X79045246Y-40102883D01*
X78890747Y-40215133D01*
X78762958Y-40357057D01*
X78667472Y-40522443D01*
X78608458Y-40704070D01*
X78588496Y-40894000D01*
X42823504Y-40894000D01*
X42803542Y-40704072D01*
X42744527Y-40522444D01*
X42744527Y-40522443D01*
X42649041Y-40357057D01*
X42578308Y-40278500D01*
X42521253Y-40215134D01*
X42366752Y-40102882D01*
X42192288Y-40025206D01*
X42005487Y-39985500D01*
X41814513Y-39985500D01*
X41706980Y-40008357D01*
X41627711Y-40025206D01*
X41453246Y-40102883D01*
X41298747Y-40215133D01*
X41170958Y-40357057D01*
X41075472Y-40522443D01*
X41016458Y-40704070D01*
X40996496Y-40893999D01*
X24726500Y-40893999D01*
X24726500Y-40503362D01*
X24719989Y-40442799D01*
X24668889Y-40305796D01*
X24668888Y-40305794D01*
X24581261Y-40188738D01*
X24464205Y-40101111D01*
X24395702Y-40075561D01*
X24327201Y-40050011D01*
X24266638Y-40043500D01*
X22469362Y-40043500D01*
X22466013Y-40043859D01*
X22466013Y-40043860D01*
X22408799Y-40050011D01*
X22271794Y-40101111D01*
X22154738Y-40188738D01*
X22067111Y-40305794D01*
X22047991Y-40357057D01*
X22016011Y-40442799D01*
X22009500Y-40503362D01*
X22009500Y-42300638D01*
X22009860Y-42303986D01*
X22016011Y-42361200D01*
X22067111Y-42498205D01*
X22154738Y-42615261D01*
X22271794Y-42702888D01*
X22271795Y-42702888D01*
X22271796Y-42702889D01*
X22386808Y-42745786D01*
X22443642Y-42788331D01*
X22468453Y-42854852D01*
X22453362Y-42924226D01*
X22435475Y-42949178D01*
X22292281Y-43104728D01*
X22169139Y-43293209D01*
X22078702Y-43499388D01*
X22030618Y-43689270D01*
X22023436Y-43717632D01*
X22004844Y-43942000D01*
X22023436Y-44166368D01*
X22023436Y-44166371D01*
X22023437Y-44166372D01*
X22078702Y-44384611D01*
X22169139Y-44590790D01*
X22292278Y-44779268D01*
X22444762Y-44944908D01*
X22622418Y-45083185D01*
X22622420Y-45083186D01*
X22622424Y-45083189D01*
X22655682Y-45101187D01*
X22706071Y-45151200D01*
X22721423Y-45220517D01*
X22696862Y-45287130D01*
X22655683Y-45322812D01*
X22630794Y-45336281D01*
X22622418Y-45340814D01*
X22444762Y-45479091D01*
X22292278Y-45644731D01*
X22169139Y-45833209D01*
X22078702Y-46039388D01*
X22026488Y-46245578D01*
X22023436Y-46257632D01*
X22004844Y-46482000D01*
X20025500Y-46482000D01*
X20025500Y-39370000D01*
X80874496Y-39370000D01*
X80894458Y-39559929D01*
X80953472Y-39741556D01*
X81048958Y-39906942D01*
X81048960Y-39906944D01*
X81176747Y-40048866D01*
X81331248Y-40161118D01*
X81505712Y-40238794D01*
X81692513Y-40278500D01*
X81692515Y-40278500D01*
X81883485Y-40278500D01*
X81883487Y-40278500D01*
X82070288Y-40238794D01*
X82244752Y-40161118D01*
X82399253Y-40048866D01*
X82527040Y-39906944D01*
X82622527Y-39741556D01*
X82681542Y-39559928D01*
X82701504Y-39370000D01*
X82681542Y-39180072D01*
X82622527Y-38998444D01*
X82622527Y-38998443D01*
X82527041Y-38833057D01*
X82399252Y-38691133D01*
X82244753Y-38578883D01*
X82244752Y-38578882D01*
X82070288Y-38501206D01*
X81883487Y-38461500D01*
X81692513Y-38461500D01*
X81567978Y-38487970D01*
X81505711Y-38501206D01*
X81331246Y-38578883D01*
X81176747Y-38691133D01*
X81048958Y-38833057D01*
X80953472Y-38998443D01*
X80894458Y-39180070D01*
X80874496Y-39370000D01*
X20025500Y-39370000D01*
X20025500Y-33548638D01*
X26601500Y-33548638D01*
X26601860Y-33551986D01*
X26608011Y-33609200D01*
X26659111Y-33746205D01*
X26746738Y-33863261D01*
X26863794Y-33950888D01*
X26863795Y-33950888D01*
X26863796Y-33950889D01*
X27000799Y-34001989D01*
X27061362Y-34008500D01*
X27064731Y-34008500D01*
X30655269Y-34008500D01*
X30658638Y-34008500D01*
X30719201Y-34001989D01*
X30856204Y-33950889D01*
X30973261Y-33863261D01*
X31060889Y-33746204D01*
X31111989Y-33609201D01*
X31118500Y-33548638D01*
X31118500Y-29951362D01*
X31111989Y-29890799D01*
X31060889Y-29753796D01*
X31060888Y-29753794D01*
X30983188Y-29649999D01*
X83436496Y-29649999D01*
X83456458Y-29839929D01*
X83515472Y-30021556D01*
X83610958Y-30186942D01*
X83610960Y-30186944D01*
X83738747Y-30328866D01*
X83893248Y-30441118D01*
X84067712Y-30518794D01*
X84254513Y-30558500D01*
X84254515Y-30558500D01*
X84445485Y-30558500D01*
X84445487Y-30558500D01*
X84632288Y-30518794D01*
X84806752Y-30441118D01*
X84961253Y-30328866D01*
X84979437Y-30308670D01*
X85039882Y-30271431D01*
X85110866Y-30272782D01*
X85169850Y-30312296D01*
X85182778Y-30335706D01*
X85183851Y-30335087D01*
X85285958Y-30511942D01*
X85285960Y-30511944D01*
X85413747Y-30653866D01*
X85568248Y-30766118D01*
X85742712Y-30843794D01*
X85929513Y-30883500D01*
X85929515Y-30883500D01*
X86120485Y-30883500D01*
X86120487Y-30883500D01*
X86307288Y-30843794D01*
X86481752Y-30766118D01*
X86636253Y-30653866D01*
X86764040Y-30511944D01*
X86859527Y-30346556D01*
X86918542Y-30164928D01*
X86938504Y-29975000D01*
X86918542Y-29785072D01*
X86859527Y-29603444D01*
X86859527Y-29603443D01*
X86764041Y-29438057D01*
X86687968Y-29353569D01*
X86636253Y-29296134D01*
X86626837Y-29289293D01*
X86481753Y-29183883D01*
X86481752Y-29183882D01*
X86307288Y-29106206D01*
X86120487Y-29066500D01*
X85929513Y-29066500D01*
X85804978Y-29092970D01*
X85742711Y-29106206D01*
X85568246Y-29183883D01*
X85413745Y-29296134D01*
X85395560Y-29316331D01*
X85335113Y-29353569D01*
X85264129Y-29352215D01*
X85205146Y-29312700D01*
X85192222Y-29289293D01*
X85191149Y-29289913D01*
X85089041Y-29113057D01*
X84961252Y-28971133D01*
X84806753Y-28858883D01*
X84806752Y-28858882D01*
X84632288Y-28781206D01*
X84445487Y-28741500D01*
X84254513Y-28741500D01*
X84129979Y-28767970D01*
X84067711Y-28781206D01*
X83893246Y-28858883D01*
X83738747Y-28971133D01*
X83610958Y-29113057D01*
X83515472Y-29278443D01*
X83456458Y-29460070D01*
X83436496Y-29649999D01*
X30983188Y-29649999D01*
X30973261Y-29636738D01*
X30856205Y-29549111D01*
X30787702Y-29523560D01*
X30719201Y-29498011D01*
X30658638Y-29491500D01*
X27061362Y-29491500D01*
X27058013Y-29491859D01*
X27058013Y-29491860D01*
X27000799Y-29498011D01*
X26863794Y-29549111D01*
X26746738Y-29636738D01*
X26659111Y-29753794D01*
X26608011Y-29890799D01*
X26601500Y-29951362D01*
X26601500Y-33548638D01*
X20025500Y-33548638D01*
X20025500Y-26648638D01*
X35121500Y-26648638D01*
X35121860Y-26651986D01*
X35128011Y-26709200D01*
X35179111Y-26846205D01*
X35266738Y-26963261D01*
X35383794Y-27050888D01*
X35383795Y-27050888D01*
X35383796Y-27050889D01*
X35520799Y-27101989D01*
X35581362Y-27108500D01*
X35584731Y-27108500D01*
X38075269Y-27108500D01*
X38078638Y-27108500D01*
X38139201Y-27101989D01*
X38276204Y-27050889D01*
X38393261Y-26963261D01*
X38480889Y-26846204D01*
X38531989Y-26709201D01*
X38538500Y-26648638D01*
X38538500Y-24151362D01*
X38531989Y-24090799D01*
X38480889Y-23953796D01*
X38446981Y-23908500D01*
X38393261Y-23836738D01*
X38276205Y-23749111D01*
X38207702Y-23723560D01*
X38139201Y-23698011D01*
X38078638Y-23691500D01*
X35581362Y-23691500D01*
X35578013Y-23691859D01*
X35578013Y-23691860D01*
X35520799Y-23698011D01*
X35383794Y-23749111D01*
X35266738Y-23836738D01*
X35179111Y-23953794D01*
X35128010Y-24090798D01*
X35128011Y-24090799D01*
X35121500Y-24151362D01*
X35121500Y-26648638D01*
X20025500Y-26648638D01*
X20025500Y-24002919D01*
X20025634Y-23997100D01*
X20035157Y-23791118D01*
X20042186Y-23639092D01*
X20043260Y-23627507D01*
X20078963Y-23371556D01*
X20092370Y-23275439D01*
X20094504Y-23264028D01*
X20156603Y-22999999D01*
X68086496Y-22999999D01*
X68106458Y-23189929D01*
X68165472Y-23371556D01*
X68260958Y-23536942D01*
X68260960Y-23536944D01*
X68388747Y-23678866D01*
X68543248Y-23791118D01*
X68717712Y-23868794D01*
X68904513Y-23908500D01*
X68904515Y-23908500D01*
X69095485Y-23908500D01*
X69095487Y-23908500D01*
X69282288Y-23868794D01*
X69456752Y-23791118D01*
X69611253Y-23678866D01*
X69739040Y-23536944D01*
X69834527Y-23371556D01*
X69893542Y-23189928D01*
X69913504Y-23000000D01*
X69893542Y-22810072D01*
X69834527Y-22628444D01*
X69834527Y-22628443D01*
X69739041Y-22463057D01*
X69611252Y-22321133D01*
X69483634Y-22228413D01*
X69456752Y-22208882D01*
X69282288Y-22131206D01*
X69095487Y-22091500D01*
X68904513Y-22091500D01*
X68779979Y-22117970D01*
X68717711Y-22131206D01*
X68543246Y-22208883D01*
X68388747Y-22321133D01*
X68260958Y-22463057D01*
X68165472Y-22628443D01*
X68106458Y-22810070D01*
X68086496Y-22999999D01*
X20156603Y-22999999D01*
X20175892Y-22917987D01*
X20179075Y-22906802D01*
X20211496Y-22810072D01*
X20292043Y-22569751D01*
X20296234Y-22558934D01*
X20439831Y-22233715D01*
X20444997Y-22223341D01*
X20617980Y-21912778D01*
X20624092Y-21902905D01*
X20825003Y-21609612D01*
X20831985Y-21600367D01*
X20998368Y-21399999D01*
X47686496Y-21399999D01*
X47706458Y-21589929D01*
X47765472Y-21771556D01*
X47860958Y-21936942D01*
X47860960Y-21936944D01*
X47988747Y-22078866D01*
X48143248Y-22191118D01*
X48317712Y-22268794D01*
X48504513Y-22308500D01*
X48504515Y-22308500D01*
X48695485Y-22308500D01*
X48695487Y-22308500D01*
X48882288Y-22268794D01*
X49048755Y-22194678D01*
X49119118Y-22185245D01*
X49151240Y-22194676D01*
X49317712Y-22268794D01*
X49504513Y-22308500D01*
X49504515Y-22308500D01*
X49695485Y-22308500D01*
X49695487Y-22308500D01*
X49882288Y-22268794D01*
X50048755Y-22194678D01*
X50119118Y-22185245D01*
X50151240Y-22194676D01*
X50317712Y-22268794D01*
X50504513Y-22308500D01*
X50504515Y-22308500D01*
X50695485Y-22308500D01*
X50695487Y-22308500D01*
X50882288Y-22268794D01*
X51056752Y-22191118D01*
X51211253Y-22078866D01*
X51339040Y-21936944D01*
X51434527Y-21771556D01*
X51493542Y-21589928D01*
X51513504Y-21400000D01*
X51493542Y-21210072D01*
X51434527Y-21028444D01*
X51434527Y-21028443D01*
X51339041Y-20863057D01*
X51211252Y-20721133D01*
X51099999Y-20640303D01*
X51056752Y-20608882D01*
X50882288Y-20531206D01*
X50695487Y-20491500D01*
X50504513Y-20491500D01*
X50317712Y-20531206D01*
X50317710Y-20531206D01*
X50317709Y-20531207D01*
X50151248Y-20605319D01*
X50080881Y-20614753D01*
X50048752Y-20605319D01*
X49882290Y-20531207D01*
X49882288Y-20531206D01*
X49695487Y-20491500D01*
X49504513Y-20491500D01*
X49317712Y-20531206D01*
X49317710Y-20531206D01*
X49317709Y-20531207D01*
X49151248Y-20605319D01*
X49080881Y-20614753D01*
X49048752Y-20605319D01*
X48882290Y-20531207D01*
X48882288Y-20531206D01*
X48695487Y-20491500D01*
X48504513Y-20491500D01*
X48379978Y-20517970D01*
X48317711Y-20531206D01*
X48143246Y-20608883D01*
X47988747Y-20721133D01*
X47860958Y-20863057D01*
X47765472Y-21028443D01*
X47706458Y-21210070D01*
X47686496Y-21399999D01*
X20998368Y-21399999D01*
X21059102Y-21326860D01*
X21066923Y-21318282D01*
X21318282Y-21066923D01*
X21326860Y-21059102D01*
X21600367Y-20831985D01*
X21609612Y-20825003D01*
X21902905Y-20624092D01*
X21912778Y-20617980D01*
X22223341Y-20444997D01*
X22233715Y-20439831D01*
X22558934Y-20296234D01*
X22569751Y-20292043D01*
X22906811Y-20179072D01*
X22917987Y-20175892D01*
X23264028Y-20094504D01*
X23275439Y-20092370D01*
X23627510Y-20043259D01*
X23639092Y-20042186D01*
X23997101Y-20025634D01*
X24002921Y-20025500D01*
X24008285Y-20025500D01*
X110991715Y-20025500D01*
X110997079Y-20025500D01*
X111002898Y-20025634D01*
G37*
G04 #@! TD.AperFunction*
M02*
