G04 #@! TF.GenerationSoftware,KiCad,Pcbnew,7.0.1.1-36-gbcf78dbe24-dirty-deb11*
G04 #@! TF.CreationDate,2023-04-30T11:41:34+00:00*
G04 #@! TF.ProjectId,PowerDistribution,506f7765-7244-4697-9374-726962757469,v1.0.0-RC2*
G04 #@! TF.SameCoordinates,Original*
G04 #@! TF.FileFunction,Copper,L4,Bot*
G04 #@! TF.FilePolarity,Positive*
%FSLAX46Y46*%
G04 Gerber Fmt 4.6, Leading zero omitted, Abs format (unit mm)*
G04 Created by KiCad (PCBNEW 7.0.1.1-36-gbcf78dbe24-dirty-deb11) date 2023-04-30 11:41:34*
%MOMM*%
%LPD*%
G01*
G04 APERTURE LIST*
G04 #@! TA.AperFunction,ComponentPad*
%ADD10O,2.000000X1.700000*%
G04 #@! TD*
G04 #@! TA.AperFunction,ComponentPad*
%ADD11R,1.700000X1.700000*%
G04 #@! TD*
G04 #@! TA.AperFunction,ComponentPad*
%ADD12O,1.700000X1.700000*%
G04 #@! TD*
G04 #@! TA.AperFunction,ComponentPad*
%ADD13R,2.400000X2.400000*%
G04 #@! TD*
G04 #@! TA.AperFunction,ComponentPad*
%ADD14C,2.400000*%
G04 #@! TD*
G04 #@! TA.AperFunction,ComponentPad*
%ADD15O,1.950000X1.700000*%
G04 #@! TD*
G04 #@! TA.AperFunction,ComponentPad*
%ADD16R,3.500000X3.500000*%
G04 #@! TD*
G04 #@! TA.AperFunction,ComponentPad*
%ADD17C,4.700000*%
G04 #@! TD*
G04 #@! TA.AperFunction,ViaPad*
%ADD18C,0.800000*%
G04 #@! TD*
G04 #@! TA.AperFunction,Conductor*
%ADD19C,0.500000*%
G04 #@! TD*
G04 #@! TA.AperFunction,Conductor*
%ADD20C,0.250000*%
G04 #@! TD*
G04 APERTURE END LIST*
G04 #@! TA.AperFunction,EtchedComponent*
G36*
X34032000Y-55050000D02*
G01*
X33532000Y-55050000D01*
X33532000Y-54450000D01*
X34032000Y-54450000D01*
X34032000Y-55050000D01*
G37*
G04 #@! TD.AperFunction*
G04 #@! TA.AperFunction,EtchedComponent*
G36*
X34032000Y-52550000D02*
G01*
X33532000Y-52550000D01*
X33532000Y-51950000D01*
X34032000Y-51950000D01*
X34032000Y-52550000D01*
G37*
G04 #@! TD.AperFunction*
G04 #@! TA.AperFunction,EtchedComponent*
G36*
X42922000Y-44242000D02*
G01*
X42422000Y-44242000D01*
X42422000Y-43642000D01*
X42922000Y-43642000D01*
X42922000Y-44242000D01*
G37*
G04 #@! TD.AperFunction*
G04 #@! TA.AperFunction,EtchedComponent*
G36*
X42922000Y-46782000D02*
G01*
X42422000Y-46782000D01*
X42422000Y-46182000D01*
X42922000Y-46182000D01*
X42922000Y-46782000D01*
G37*
G04 #@! TD.AperFunction*
G04 #@! TA.AperFunction,ComponentPad*
G36*
G01*
X25920000Y-51474000D02*
X27420000Y-51474000D01*
G75*
G02*
X27670000Y-51724000I0J-250000D01*
G01*
X27670000Y-52924000D01*
G75*
G02*
X27420000Y-53174000I-250000J0D01*
G01*
X25920000Y-53174000D01*
G75*
G02*
X25670000Y-52924000I0J250000D01*
G01*
X25670000Y-51724000D01*
G75*
G02*
X25920000Y-51474000I250000J0D01*
G01*
G37*
G04 #@! TD.AperFunction*
D10*
X26670000Y-54824000D03*
D11*
X23368000Y-41402000D03*
D12*
X23368000Y-43942000D03*
X23368000Y-46482000D03*
D13*
X38100000Y-60960000D03*
D14*
X41600000Y-60960000D03*
G04 #@! TA.AperFunction,ComponentPad*
G36*
G01*
X107725000Y-47850000D02*
X106275000Y-47850000D01*
G75*
G02*
X106025000Y-47600000I0J250000D01*
G01*
X106025000Y-46400000D01*
G75*
G02*
X106275000Y-46150000I250000J0D01*
G01*
X107725000Y-46150000D01*
G75*
G02*
X107975000Y-46400000I0J-250000D01*
G01*
X107975000Y-47600000D01*
G75*
G02*
X107725000Y-47850000I-250000J0D01*
G01*
G37*
G04 #@! TD.AperFunction*
D15*
X107000000Y-44500000D03*
X107000000Y-42000000D03*
X107000000Y-39500000D03*
D16*
X28860000Y-31750000D03*
G04 #@! TA.AperFunction,ComponentPad*
G36*
G01*
X21360000Y-32750000D02*
X21360000Y-30750000D01*
G75*
G02*
X22110000Y-30000000I750000J0D01*
G01*
X23610000Y-30000000D01*
G75*
G02*
X24360000Y-30750000I0J-750000D01*
G01*
X24360000Y-32750000D01*
G75*
G02*
X23610000Y-33500000I-750000J0D01*
G01*
X22110000Y-33500000D01*
G75*
G02*
X21360000Y-32750000I0J750000D01*
G01*
G37*
G04 #@! TD.AperFunction*
G04 #@! TA.AperFunction,ComponentPad*
G36*
G01*
X24110000Y-37325000D02*
X24110000Y-35575000D01*
G75*
G02*
X24985000Y-34700000I875000J0D01*
G01*
X26735000Y-34700000D01*
G75*
G02*
X27610000Y-35575000I0J-875000D01*
G01*
X27610000Y-37325000D01*
G75*
G02*
X26735000Y-38200000I-875000J0D01*
G01*
X24985000Y-38200000D01*
G75*
G02*
X24110000Y-37325000I0J875000D01*
G01*
G37*
G04 #@! TD.AperFunction*
D13*
X89535000Y-60960000D03*
D14*
X93035000Y-60960000D03*
D13*
X67310000Y-60960000D03*
D14*
X70810000Y-60960000D03*
D17*
X24000000Y-62000000D03*
X111000000Y-62000000D03*
X111000000Y-24000000D03*
X24000000Y-24000000D03*
D13*
X36830000Y-25400000D03*
D14*
X33330000Y-25400000D03*
G04 #@! TA.AperFunction,SMDPad,CuDef*
G36*
X33932000Y-54000000D02*
G01*
X34432000Y-54000000D01*
X34432000Y-54005089D01*
X34503157Y-54005089D01*
X34639708Y-54045184D01*
X34759430Y-54122125D01*
X34852627Y-54229680D01*
X34911746Y-54359134D01*
X34932000Y-54500000D01*
X34932000Y-55000000D01*
X34911746Y-55140866D01*
X34852627Y-55270320D01*
X34759430Y-55377875D01*
X34639708Y-55454816D01*
X34503157Y-55494911D01*
X34432000Y-55494911D01*
X34432000Y-55500000D01*
X33932000Y-55500000D01*
X33932000Y-54000000D01*
G37*
G04 #@! TD.AperFunction*
G04 #@! TA.AperFunction,SMDPad,CuDef*
G36*
X33132000Y-55494911D02*
G01*
X33060843Y-55494911D01*
X32924292Y-55454816D01*
X32804570Y-55377875D01*
X32711373Y-55270320D01*
X32652254Y-55140866D01*
X32632000Y-55000000D01*
X32632000Y-54500000D01*
X32652254Y-54359134D01*
X32711373Y-54229680D01*
X32804570Y-54122125D01*
X32924292Y-54045184D01*
X33060843Y-54005089D01*
X33132000Y-54005089D01*
X33132000Y-54000000D01*
X33632000Y-54000000D01*
X33632000Y-55500000D01*
X33132000Y-55500000D01*
X33132000Y-55494911D01*
G37*
G04 #@! TD.AperFunction*
G04 #@! TA.AperFunction,SMDPad,CuDef*
G36*
X33932000Y-51500000D02*
G01*
X34432000Y-51500000D01*
X34432000Y-51505089D01*
X34503157Y-51505089D01*
X34639708Y-51545184D01*
X34759430Y-51622125D01*
X34852627Y-51729680D01*
X34911746Y-51859134D01*
X34932000Y-52000000D01*
X34932000Y-52500000D01*
X34911746Y-52640866D01*
X34852627Y-52770320D01*
X34759430Y-52877875D01*
X34639708Y-52954816D01*
X34503157Y-52994911D01*
X34432000Y-52994911D01*
X34432000Y-53000000D01*
X33932000Y-53000000D01*
X33932000Y-51500000D01*
G37*
G04 #@! TD.AperFunction*
G04 #@! TA.AperFunction,SMDPad,CuDef*
G36*
X33132000Y-52994911D02*
G01*
X33060843Y-52994911D01*
X32924292Y-52954816D01*
X32804570Y-52877875D01*
X32711373Y-52770320D01*
X32652254Y-52640866D01*
X32632000Y-52500000D01*
X32632000Y-52000000D01*
X32652254Y-51859134D01*
X32711373Y-51729680D01*
X32804570Y-51622125D01*
X32924292Y-51545184D01*
X33060843Y-51505089D01*
X33132000Y-51505089D01*
X33132000Y-51500000D01*
X33632000Y-51500000D01*
X33632000Y-53000000D01*
X33132000Y-53000000D01*
X33132000Y-52994911D01*
G37*
G04 #@! TD.AperFunction*
G04 #@! TA.AperFunction,SMDPad,CuDef*
G36*
X42522000Y-44692000D02*
G01*
X42022000Y-44692000D01*
X42022000Y-44686911D01*
X41950843Y-44686911D01*
X41814292Y-44646816D01*
X41694570Y-44569875D01*
X41601373Y-44462320D01*
X41542254Y-44332866D01*
X41522000Y-44192000D01*
X41522000Y-43692000D01*
X41542254Y-43551134D01*
X41601373Y-43421680D01*
X41694570Y-43314125D01*
X41814292Y-43237184D01*
X41950843Y-43197089D01*
X42022000Y-43197089D01*
X42022000Y-43192000D01*
X42522000Y-43192000D01*
X42522000Y-44692000D01*
G37*
G04 #@! TD.AperFunction*
G04 #@! TA.AperFunction,SMDPad,CuDef*
G36*
X43322000Y-43197089D02*
G01*
X43393157Y-43197089D01*
X43529708Y-43237184D01*
X43649430Y-43314125D01*
X43742627Y-43421680D01*
X43801746Y-43551134D01*
X43822000Y-43692000D01*
X43822000Y-44192000D01*
X43801746Y-44332866D01*
X43742627Y-44462320D01*
X43649430Y-44569875D01*
X43529708Y-44646816D01*
X43393157Y-44686911D01*
X43322000Y-44686911D01*
X43322000Y-44692000D01*
X42822000Y-44692000D01*
X42822000Y-43192000D01*
X43322000Y-43192000D01*
X43322000Y-43197089D01*
G37*
G04 #@! TD.AperFunction*
G04 #@! TA.AperFunction,SMDPad,CuDef*
G36*
X42522000Y-47232000D02*
G01*
X42022000Y-47232000D01*
X42022000Y-47226911D01*
X41950843Y-47226911D01*
X41814292Y-47186816D01*
X41694570Y-47109875D01*
X41601373Y-47002320D01*
X41542254Y-46872866D01*
X41522000Y-46732000D01*
X41522000Y-46232000D01*
X41542254Y-46091134D01*
X41601373Y-45961680D01*
X41694570Y-45854125D01*
X41814292Y-45777184D01*
X41950843Y-45737089D01*
X42022000Y-45737089D01*
X42022000Y-45732000D01*
X42522000Y-45732000D01*
X42522000Y-47232000D01*
G37*
G04 #@! TD.AperFunction*
G04 #@! TA.AperFunction,SMDPad,CuDef*
G36*
X43322000Y-45737089D02*
G01*
X43393157Y-45737089D01*
X43529708Y-45777184D01*
X43649430Y-45854125D01*
X43742627Y-45961680D01*
X43801746Y-46091134D01*
X43822000Y-46232000D01*
X43822000Y-46732000D01*
X43801746Y-46872866D01*
X43742627Y-47002320D01*
X43649430Y-47109875D01*
X43529708Y-47186816D01*
X43393157Y-47226911D01*
X43322000Y-47226911D01*
X43322000Y-47232000D01*
X42822000Y-47232000D01*
X42822000Y-45732000D01*
X43322000Y-45732000D01*
X43322000Y-45737089D01*
G37*
G04 #@! TD.AperFunction*
G04 #@! TA.AperFunction,SMDPad,CuDef*
G36*
X97244000Y-45200000D02*
G01*
X96744000Y-45200000D01*
X96744000Y-45194911D01*
X96672843Y-45194911D01*
X96536292Y-45154816D01*
X96416570Y-45077875D01*
X96323373Y-44970320D01*
X96264254Y-44840866D01*
X96244000Y-44700000D01*
X96244000Y-44200000D01*
X96264254Y-44059134D01*
X96323373Y-43929680D01*
X96416570Y-43822125D01*
X96536292Y-43745184D01*
X96672843Y-43705089D01*
X96744000Y-43705089D01*
X96744000Y-43700000D01*
X97244000Y-43700000D01*
X97244000Y-45200000D01*
G37*
G04 #@! TD.AperFunction*
G04 #@! TA.AperFunction,SMDPad,CuDef*
G36*
X98044000Y-43705089D02*
G01*
X98115157Y-43705089D01*
X98251708Y-43745184D01*
X98371430Y-43822125D01*
X98464627Y-43929680D01*
X98523746Y-44059134D01*
X98544000Y-44200000D01*
X98544000Y-44700000D01*
X98523746Y-44840866D01*
X98464627Y-44970320D01*
X98371430Y-45077875D01*
X98251708Y-45154816D01*
X98115157Y-45194911D01*
X98044000Y-45194911D01*
X98044000Y-45200000D01*
X97544000Y-45200000D01*
X97544000Y-43700000D01*
X98044000Y-43700000D01*
X98044000Y-43705089D01*
G37*
G04 #@! TD.AperFunction*
G04 #@! TA.AperFunction,SMDPad,CuDef*
G36*
X97244000Y-42660000D02*
G01*
X96744000Y-42660000D01*
X96744000Y-42654911D01*
X96672843Y-42654911D01*
X96536292Y-42614816D01*
X96416570Y-42537875D01*
X96323373Y-42430320D01*
X96264254Y-42300866D01*
X96244000Y-42160000D01*
X96244000Y-41660000D01*
X96264254Y-41519134D01*
X96323373Y-41389680D01*
X96416570Y-41282125D01*
X96536292Y-41205184D01*
X96672843Y-41165089D01*
X96744000Y-41165089D01*
X96744000Y-41160000D01*
X97244000Y-41160000D01*
X97244000Y-42660000D01*
G37*
G04 #@! TD.AperFunction*
G04 #@! TA.AperFunction,SMDPad,CuDef*
G36*
X98044000Y-41165089D02*
G01*
X98115157Y-41165089D01*
X98251708Y-41205184D01*
X98371430Y-41282125D01*
X98464627Y-41389680D01*
X98523746Y-41519134D01*
X98544000Y-41660000D01*
X98544000Y-42160000D01*
X98523746Y-42300866D01*
X98464627Y-42430320D01*
X98371430Y-42537875D01*
X98251708Y-42614816D01*
X98115157Y-42654911D01*
X98044000Y-42654911D01*
X98044000Y-42660000D01*
X97544000Y-42660000D01*
X97544000Y-41160000D01*
X98044000Y-41160000D01*
X98044000Y-41165089D01*
G37*
G04 #@! TD.AperFunction*
D18*
X35814000Y-43942000D03*
X35814000Y-48514000D03*
X59250000Y-31250000D03*
X39370000Y-29972000D03*
X96520000Y-51435000D03*
X79500000Y-49500000D03*
X104648000Y-40894000D03*
X62250000Y-31250000D03*
X109728000Y-51054000D03*
X45800000Y-31400000D03*
X61250000Y-31250000D03*
X60250000Y-31250000D03*
X45466000Y-43942000D03*
X79500000Y-46500000D03*
X102000000Y-48500000D03*
X59000000Y-36000000D03*
X50600000Y-21400000D03*
X26670000Y-43942000D03*
X48600000Y-21400000D03*
X49600000Y-21400000D03*
X25653994Y-43942000D03*
X60000000Y-52000000D03*
X68000000Y-53000000D03*
X59000000Y-53000000D03*
X60000000Y-53000000D03*
X59000000Y-52000000D03*
X61000000Y-53000000D03*
X61000000Y-52000000D03*
X74168000Y-41910000D03*
X69000000Y-53000000D03*
X69000000Y-23000000D03*
X75946000Y-55118000D03*
X73500000Y-52070000D03*
X106934000Y-51816000D03*
X79502000Y-40894000D03*
X46228000Y-49784000D03*
X38100000Y-46482000D03*
X81788000Y-39370000D03*
X40132000Y-51054000D03*
X41910000Y-40894000D03*
X86025000Y-29975000D03*
X84350000Y-29650000D03*
X47244000Y-46990000D03*
D19*
X34432000Y-54750000D02*
X35928000Y-54750000D01*
X37084000Y-53594000D02*
X37084000Y-45212000D01*
X37084000Y-45212000D02*
X35814000Y-43942000D01*
X35928000Y-54750000D02*
X37084000Y-53594000D01*
X35126000Y-52250000D02*
X35814000Y-51562000D01*
X35814000Y-51562000D02*
X35814000Y-48514000D01*
X34432000Y-52250000D02*
X35126000Y-52250000D01*
X94234000Y-44450000D02*
X96744000Y-44450000D01*
X92964000Y-43180000D02*
X94234000Y-44450000D01*
X74168000Y-39116000D02*
X75692000Y-37592000D01*
X92964000Y-38100000D02*
X92964000Y-43180000D01*
X75692000Y-37592000D02*
X92456000Y-37592000D01*
X74168000Y-41910000D02*
X74168000Y-39116000D01*
X92456000Y-37592000D02*
X92964000Y-38100000D01*
X25400000Y-58166000D02*
X25438000Y-58204000D01*
X24638000Y-57404000D02*
X25400000Y-58166000D01*
X72860000Y-58204000D02*
X75946000Y-55118000D01*
X26670000Y-52324000D02*
X25908000Y-52324000D01*
X25438000Y-58204000D02*
X72860000Y-58204000D01*
X25908000Y-52324000D02*
X24638000Y-53594000D01*
X24638000Y-53594000D02*
X24638000Y-57404000D01*
X33132000Y-52250000D02*
X26744000Y-52250000D01*
X26670000Y-54824000D02*
X26670000Y-56642000D01*
X33276000Y-54824000D02*
X26670000Y-54824000D01*
X72390000Y-57404000D02*
X73500000Y-56294000D01*
X26670000Y-56642000D02*
X27432000Y-57404000D01*
X73500000Y-56294000D02*
X73500000Y-52070000D01*
X27432000Y-57404000D02*
X72390000Y-57404000D01*
D20*
X98044000Y-45466000D02*
X99568000Y-46990000D01*
X98044000Y-44450000D02*
X98044000Y-45466000D01*
X106934000Y-47066000D02*
X107000000Y-47000000D01*
X101356000Y-47000000D02*
X107000000Y-47000000D01*
X99568000Y-46990000D02*
X101346000Y-46990000D01*
X106934000Y-51816000D02*
X106934000Y-47066000D01*
X101346000Y-46990000D02*
X101356000Y-47000000D01*
D19*
X47244000Y-48768000D02*
X76200000Y-48768000D01*
X42022000Y-46482000D02*
X38100000Y-46482000D01*
X38100000Y-46482000D02*
X40386000Y-48768000D01*
X46228000Y-49784000D02*
X47244000Y-48768000D01*
X77978000Y-42418000D02*
X79502000Y-40894000D01*
X77978000Y-46990000D02*
X77978000Y-42418000D01*
X40386000Y-48768000D02*
X47244000Y-48768000D01*
X76200000Y-48768000D02*
X77978000Y-46990000D01*
X40236000Y-50950000D02*
X76706497Y-50950000D01*
X40132000Y-51054000D02*
X40236000Y-50950000D01*
X42022000Y-41006000D02*
X42022000Y-43942000D01*
X41910000Y-40894000D02*
X42022000Y-41006000D01*
X81788000Y-45868497D02*
X81788000Y-39370000D01*
X76706497Y-50950000D02*
X81788000Y-45868497D01*
X45720000Y-38608000D02*
X47244000Y-40132000D01*
X23368000Y-46482000D02*
X32004000Y-46482000D01*
X47244000Y-45212000D02*
X45974000Y-46482000D01*
X45974000Y-46482000D02*
X43322000Y-46482000D01*
X47244000Y-40132000D02*
X47244000Y-45212000D01*
X33528000Y-40132000D02*
X35052000Y-38608000D01*
X35052000Y-38608000D02*
X45720000Y-38608000D01*
X33528000Y-44958000D02*
X33528000Y-40132000D01*
X47244000Y-46990000D02*
X47244000Y-45212000D01*
X32004000Y-46482000D02*
X33528000Y-44958000D01*
X98044000Y-40640000D02*
X98044000Y-41910000D01*
X99184000Y-39500000D02*
X98044000Y-40640000D01*
X107000000Y-39500000D02*
X99184000Y-39500000D01*
G04 #@! TA.AperFunction,Conductor*
G36*
X105737718Y-40274497D02*
G01*
X105769333Y-40304793D01*
X105771736Y-40302679D01*
X105778819Y-40310727D01*
X105778821Y-40310730D01*
X105931602Y-40484324D01*
X106111524Y-40629600D01*
X106131636Y-40640835D01*
X106132731Y-40641447D01*
X106178574Y-40685385D01*
X106197167Y-40746100D01*
X106183790Y-40808173D01*
X106141838Y-40855839D01*
X106018478Y-40939216D01*
X105851524Y-41099227D01*
X105714015Y-41285153D01*
X105609904Y-41491644D01*
X105542188Y-41712759D01*
X105512815Y-41942135D01*
X105522630Y-42173175D01*
X105571350Y-42399237D01*
X105615198Y-42508357D01*
X105657574Y-42613813D01*
X105778821Y-42810730D01*
X105931602Y-42984324D01*
X106111524Y-43129600D01*
X106131636Y-43140835D01*
X106132731Y-43141447D01*
X106178574Y-43185385D01*
X106197167Y-43246100D01*
X106183790Y-43308173D01*
X106141838Y-43355839D01*
X106018478Y-43439216D01*
X105851524Y-43599227D01*
X105714015Y-43785153D01*
X105609904Y-43991644D01*
X105542188Y-44212759D01*
X105512815Y-44442135D01*
X105522630Y-44673175D01*
X105571350Y-44899237D01*
X105630066Y-45045356D01*
X105657574Y-45113813D01*
X105778821Y-45310730D01*
X105805297Y-45340813D01*
X105912923Y-45463101D01*
X105931602Y-45484324D01*
X105959023Y-45506465D01*
X105995217Y-45553795D01*
X106005616Y-45612465D01*
X105987894Y-45669353D01*
X105946015Y-45711738D01*
X105801344Y-45800972D01*
X105675972Y-45926344D01*
X105657771Y-45955853D01*
X105582885Y-46077262D01*
X105527113Y-46245574D01*
X105526323Y-46253305D01*
X105505572Y-46310754D01*
X105460238Y-46351694D01*
X105400976Y-46366500D01*
X101480893Y-46366500D01*
X101449559Y-46362541D01*
X101426030Y-46356500D01*
X101426029Y-46356500D01*
X101405776Y-46356500D01*
X101386066Y-46354949D01*
X101366057Y-46351779D01*
X101322039Y-46355941D01*
X101310181Y-46356500D01*
X99882595Y-46356500D01*
X99834377Y-46346909D01*
X99793500Y-46319595D01*
X98900136Y-45426231D01*
X98870161Y-45378346D01*
X98864122Y-45322176D01*
X98883232Y-45269018D01*
X98936256Y-45186512D01*
X98995984Y-45055727D01*
X99021599Y-44987050D01*
X99037180Y-44915427D01*
X99057642Y-44773112D01*
X99062871Y-44700000D01*
X99060952Y-44673175D01*
X99058050Y-44632592D01*
X99057729Y-44623603D01*
X99057729Y-44276397D01*
X99058050Y-44267408D01*
X99062871Y-44200000D01*
X99060466Y-44166372D01*
X99057642Y-44126888D01*
X99037180Y-43984573D01*
X99021599Y-43912950D01*
X98995984Y-43844273D01*
X98936256Y-43713488D01*
X98857205Y-43590482D01*
X98763051Y-43481821D01*
X98711220Y-43429989D01*
X98652540Y-43386062D01*
X98652535Y-43386058D01*
X98531587Y-43308330D01*
X98517026Y-43301680D01*
X98501549Y-43294612D01*
X98456351Y-43259760D01*
X98431167Y-43208539D01*
X98431167Y-43151461D01*
X98456351Y-43100240D01*
X98501549Y-43065387D01*
X98531586Y-43051670D01*
X98652540Y-42973938D01*
X98711220Y-42930011D01*
X98763051Y-42878179D01*
X98857205Y-42769518D01*
X98936256Y-42646512D01*
X98995984Y-42515727D01*
X99021599Y-42447050D01*
X99021623Y-42446942D01*
X99037180Y-42375425D01*
X99039226Y-42361200D01*
X99057642Y-42233112D01*
X99062871Y-42160000D01*
X99058050Y-42092592D01*
X99057729Y-42083603D01*
X99057729Y-41736397D01*
X99058050Y-41727408D01*
X99062871Y-41660000D01*
X99058634Y-41600762D01*
X99057642Y-41586888D01*
X99037180Y-41444573D01*
X99021599Y-41372950D01*
X98995984Y-41304273D01*
X98936256Y-41173488D01*
X98857205Y-41050482D01*
X98857203Y-41050480D01*
X98853021Y-41043972D01*
X98833910Y-40990810D01*
X98839949Y-40934640D01*
X98869920Y-40886760D01*
X99461279Y-40295401D01*
X99502153Y-40268091D01*
X99550371Y-40258500D01*
X105676274Y-40258500D01*
X105737718Y-40274497D01*
G37*
G04 #@! TD.AperFunction*
G04 #@! TA.AperFunction,Conductor*
G36*
X111002898Y-20025634D02*
G01*
X111360905Y-20042186D01*
X111372491Y-20043259D01*
X111724556Y-20092370D01*
X111735975Y-20094504D01*
X112082006Y-20175891D01*
X112093194Y-20179074D01*
X112430241Y-20292041D01*
X112441073Y-20296237D01*
X112766275Y-20439827D01*
X112776666Y-20445002D01*
X113084048Y-20616213D01*
X113087210Y-20617974D01*
X113097103Y-20624099D01*
X113390376Y-20824996D01*
X113399642Y-20831994D01*
X113481224Y-20899738D01*
X113673128Y-21059093D01*
X113681728Y-21066934D01*
X113933065Y-21318271D01*
X113940906Y-21326871D01*
X114168003Y-21600354D01*
X114175005Y-21609627D01*
X114285930Y-21771556D01*
X114375899Y-21902894D01*
X114382025Y-21912789D01*
X114452370Y-22039081D01*
X114546948Y-22208882D01*
X114554990Y-22223319D01*
X114560175Y-22233732D01*
X114575657Y-22268794D01*
X114703758Y-22558916D01*
X114707962Y-22569768D01*
X114820924Y-22906802D01*
X114824109Y-22917996D01*
X114905492Y-23264013D01*
X114907631Y-23275454D01*
X114956739Y-23627507D01*
X114957813Y-23639094D01*
X114974366Y-23997101D01*
X114974500Y-24002921D01*
X114974500Y-61997079D01*
X114974366Y-62002899D01*
X114957813Y-62360905D01*
X114956739Y-62372492D01*
X114907631Y-62724545D01*
X114905492Y-62735986D01*
X114824109Y-63082003D01*
X114820924Y-63093197D01*
X114707962Y-63430231D01*
X114703758Y-63441083D01*
X114560178Y-63766262D01*
X114554990Y-63776680D01*
X114382025Y-64087210D01*
X114375899Y-64097105D01*
X114175011Y-64390365D01*
X114167997Y-64399653D01*
X113940906Y-64673128D01*
X113933065Y-64681728D01*
X113681728Y-64933065D01*
X113673128Y-64940906D01*
X113399653Y-65167997D01*
X113390365Y-65175011D01*
X113097105Y-65375899D01*
X113087210Y-65382025D01*
X112776680Y-65554990D01*
X112766262Y-65560178D01*
X112441083Y-65703758D01*
X112430231Y-65707962D01*
X112093197Y-65820924D01*
X112082003Y-65824109D01*
X111735986Y-65905492D01*
X111724545Y-65907631D01*
X111372492Y-65956739D01*
X111360905Y-65957813D01*
X111015425Y-65973786D01*
X111002897Y-65974366D01*
X110997079Y-65974500D01*
X24002921Y-65974500D01*
X23997102Y-65974366D01*
X23983918Y-65973756D01*
X23639094Y-65957813D01*
X23627507Y-65956739D01*
X23275454Y-65907631D01*
X23264013Y-65905492D01*
X22917996Y-65824109D01*
X22906802Y-65820924D01*
X22569768Y-65707962D01*
X22558916Y-65703758D01*
X22519685Y-65686436D01*
X22233732Y-65560175D01*
X22223324Y-65554992D01*
X22068054Y-65468507D01*
X21912789Y-65382025D01*
X21902894Y-65375899D01*
X21810220Y-65312416D01*
X21609627Y-65175005D01*
X21600354Y-65168003D01*
X21326871Y-64940906D01*
X21318271Y-64933065D01*
X21066934Y-64681728D01*
X21059093Y-64673128D01*
X20898133Y-64479291D01*
X20831994Y-64399642D01*
X20824996Y-64390376D01*
X20689463Y-64192522D01*
X22166687Y-64192522D01*
X22290432Y-64296356D01*
X22568571Y-64479291D01*
X22866089Y-64628710D01*
X23178923Y-64742572D01*
X23502876Y-64819350D01*
X23833540Y-64858000D01*
X24166460Y-64858000D01*
X24497123Y-64819350D01*
X24821076Y-64742572D01*
X25133910Y-64628710D01*
X25431428Y-64479291D01*
X25709567Y-64296356D01*
X25833310Y-64192522D01*
X109166687Y-64192522D01*
X109290432Y-64296356D01*
X109568571Y-64479291D01*
X109866089Y-64628710D01*
X110178923Y-64742572D01*
X110502876Y-64819350D01*
X110833540Y-64858000D01*
X111166460Y-64858000D01*
X111497123Y-64819350D01*
X111821076Y-64742572D01*
X112133910Y-64628710D01*
X112431428Y-64479291D01*
X112709567Y-64296356D01*
X112833311Y-64192521D01*
X111000001Y-62359210D01*
X110999999Y-62359210D01*
X109166687Y-64192521D01*
X109166687Y-64192522D01*
X25833310Y-64192522D01*
X25833311Y-64192521D01*
X24000001Y-62359210D01*
X23999999Y-62359210D01*
X22166687Y-64192521D01*
X22166687Y-64192522D01*
X20689463Y-64192522D01*
X20624099Y-64097103D01*
X20617974Y-64087210D01*
X20547630Y-63960919D01*
X20445002Y-63776666D01*
X20439827Y-63766275D01*
X20296237Y-63441073D01*
X20292041Y-63430241D01*
X20179074Y-63093194D01*
X20175890Y-63082003D01*
X20151700Y-62979154D01*
X20094504Y-62735975D01*
X20092370Y-62724556D01*
X20043259Y-62372491D01*
X20042186Y-62360904D01*
X20025634Y-62002898D01*
X20025567Y-62000000D01*
X21137156Y-62000000D01*
X21156515Y-62332356D01*
X21214325Y-62660215D01*
X21309809Y-62979154D01*
X21441669Y-63284842D01*
X21608127Y-63573153D01*
X21804226Y-63836562D01*
X23640789Y-62000001D01*
X24359210Y-62000001D01*
X26195772Y-63836562D01*
X26195773Y-63836562D01*
X26391872Y-63573154D01*
X26558330Y-63284842D01*
X26690190Y-62979154D01*
X26785674Y-62660215D01*
X26843484Y-62332356D01*
X26862843Y-62000000D01*
X26843484Y-61667643D01*
X26785674Y-61339784D01*
X26748017Y-61214000D01*
X36392000Y-61214000D01*
X36392000Y-62208589D01*
X36398505Y-62269093D01*
X36449554Y-62405962D01*
X36537095Y-62522904D01*
X36654037Y-62610445D01*
X36790906Y-62661494D01*
X36851411Y-62668000D01*
X37846000Y-62668000D01*
X38354000Y-62668000D01*
X39348589Y-62668000D01*
X39409093Y-62661494D01*
X39545962Y-62610445D01*
X39662904Y-62522904D01*
X39750445Y-62405962D01*
X39801494Y-62269093D01*
X39808000Y-62208589D01*
X39808000Y-61736437D01*
X39826814Y-61670201D01*
X39877639Y-61623745D01*
X39945295Y-61610944D01*
X40009578Y-61635621D01*
X40051290Y-61690405D01*
X40056377Y-61703368D01*
X40184413Y-61925131D01*
X40344065Y-62125330D01*
X40531784Y-62299508D01*
X40638833Y-62372492D01*
X40743355Y-62443754D01*
X40862959Y-62501352D01*
X40974064Y-62554858D01*
X41028635Y-62571690D01*
X41218757Y-62630335D01*
X41471966Y-62668500D01*
X41728032Y-62668500D01*
X41728034Y-62668500D01*
X41981243Y-62630335D01*
X42225935Y-62554858D01*
X42456646Y-62443754D01*
X42668219Y-62299505D01*
X42855931Y-62125334D01*
X43015587Y-61925131D01*
X43143622Y-61703369D01*
X43237174Y-61465001D01*
X43294155Y-61215353D01*
X43294256Y-61214000D01*
X65602000Y-61214000D01*
X65602000Y-62208589D01*
X65608505Y-62269093D01*
X65659554Y-62405962D01*
X65747095Y-62522904D01*
X65864037Y-62610445D01*
X66000906Y-62661494D01*
X66061411Y-62668000D01*
X67056000Y-62668000D01*
X67564000Y-62668000D01*
X68558589Y-62668000D01*
X68619093Y-62661494D01*
X68755962Y-62610445D01*
X68872904Y-62522904D01*
X68960445Y-62405962D01*
X69011494Y-62269093D01*
X69018000Y-62208589D01*
X69018000Y-61736437D01*
X69036814Y-61670201D01*
X69087639Y-61623745D01*
X69155295Y-61610944D01*
X69219578Y-61635621D01*
X69261290Y-61690405D01*
X69266377Y-61703368D01*
X69394413Y-61925131D01*
X69554065Y-62125330D01*
X69741784Y-62299508D01*
X69848833Y-62372492D01*
X69953355Y-62443754D01*
X70072959Y-62501352D01*
X70184064Y-62554858D01*
X70238635Y-62571690D01*
X70428757Y-62630335D01*
X70681966Y-62668500D01*
X70938032Y-62668500D01*
X70938034Y-62668500D01*
X71191243Y-62630335D01*
X71435935Y-62554858D01*
X71666646Y-62443754D01*
X71878219Y-62299505D01*
X72065931Y-62125334D01*
X72225587Y-61925131D01*
X72353622Y-61703369D01*
X72447174Y-61465001D01*
X72504155Y-61215353D01*
X72504256Y-61214000D01*
X87827000Y-61214000D01*
X87827000Y-62208589D01*
X87833505Y-62269093D01*
X87884554Y-62405962D01*
X87972095Y-62522904D01*
X88089037Y-62610445D01*
X88225906Y-62661494D01*
X88286411Y-62668000D01*
X89281000Y-62668000D01*
X89789000Y-62668000D01*
X90783589Y-62668000D01*
X90844093Y-62661494D01*
X90980962Y-62610445D01*
X91097904Y-62522904D01*
X91185445Y-62405962D01*
X91236494Y-62269093D01*
X91243000Y-62208589D01*
X91243000Y-61736437D01*
X91261814Y-61670201D01*
X91312639Y-61623745D01*
X91380295Y-61610944D01*
X91444578Y-61635621D01*
X91486290Y-61690405D01*
X91491377Y-61703368D01*
X91619413Y-61925131D01*
X91779065Y-62125330D01*
X91966784Y-62299508D01*
X92073833Y-62372492D01*
X92178355Y-62443754D01*
X92297959Y-62501352D01*
X92409064Y-62554858D01*
X92463635Y-62571690D01*
X92653757Y-62630335D01*
X92906966Y-62668500D01*
X93163032Y-62668500D01*
X93163034Y-62668500D01*
X93416243Y-62630335D01*
X93660935Y-62554858D01*
X93891646Y-62443754D01*
X94103219Y-62299505D01*
X94290931Y-62125334D01*
X94390881Y-62000000D01*
X108137156Y-62000000D01*
X108156515Y-62332356D01*
X108214325Y-62660215D01*
X108309809Y-62979154D01*
X108441669Y-63284842D01*
X108608127Y-63573153D01*
X108804226Y-63836562D01*
X110640789Y-62000001D01*
X111359210Y-62000001D01*
X113195772Y-63836562D01*
X113195773Y-63836562D01*
X113391872Y-63573154D01*
X113558330Y-63284842D01*
X113690190Y-62979154D01*
X113785674Y-62660215D01*
X113843484Y-62332356D01*
X113862843Y-62000000D01*
X113843484Y-61667643D01*
X113785674Y-61339784D01*
X113690190Y-61020845D01*
X113558330Y-60715157D01*
X113391872Y-60426846D01*
X113195772Y-60163436D01*
X111359210Y-61999999D01*
X111359210Y-62000001D01*
X110640789Y-62000001D01*
X110640789Y-61999999D01*
X108804226Y-60163436D01*
X108804225Y-60163436D01*
X108608129Y-60426842D01*
X108441669Y-60715157D01*
X108309809Y-61020845D01*
X108214325Y-61339784D01*
X108156515Y-61667643D01*
X108137156Y-62000000D01*
X94390881Y-62000000D01*
X94450587Y-61925131D01*
X94578622Y-61703369D01*
X94672174Y-61465001D01*
X94729155Y-61215353D01*
X94748291Y-60960000D01*
X94729155Y-60704647D01*
X94672174Y-60454999D01*
X94578622Y-60216631D01*
X94450587Y-59994869D01*
X94410672Y-59944818D01*
X94301148Y-59807477D01*
X109166687Y-59807477D01*
X110999999Y-61640789D01*
X111000000Y-61640789D01*
X112833311Y-59807476D01*
X112709567Y-59703643D01*
X112431428Y-59520708D01*
X112133910Y-59371289D01*
X111821076Y-59257427D01*
X111497123Y-59180649D01*
X111166460Y-59142000D01*
X110833540Y-59142000D01*
X110502876Y-59180649D01*
X110178923Y-59257427D01*
X109866089Y-59371289D01*
X109568571Y-59520708D01*
X109290433Y-59703643D01*
X109166687Y-59807477D01*
X94301148Y-59807477D01*
X94290934Y-59794669D01*
X94135994Y-59650906D01*
X94103219Y-59620495D01*
X93891646Y-59476246D01*
X93891645Y-59476245D01*
X93891643Y-59476244D01*
X93660935Y-59365141D01*
X93480722Y-59309554D01*
X93416243Y-59289665D01*
X93163034Y-59251500D01*
X92906966Y-59251500D01*
X92653757Y-59289665D01*
X92653753Y-59289666D01*
X92653754Y-59289666D01*
X92409064Y-59365141D01*
X92178354Y-59476246D01*
X91966784Y-59620491D01*
X91779065Y-59794669D01*
X91619413Y-59994868D01*
X91491377Y-60216631D01*
X91486290Y-60229595D01*
X91444578Y-60284379D01*
X91380295Y-60309056D01*
X91312639Y-60296255D01*
X91261814Y-60249799D01*
X91243000Y-60183563D01*
X91243000Y-59711411D01*
X91236494Y-59650906D01*
X91185445Y-59514037D01*
X91097904Y-59397095D01*
X90980962Y-59309554D01*
X90844093Y-59258505D01*
X90783589Y-59252000D01*
X89789000Y-59252000D01*
X89789000Y-62668000D01*
X89281000Y-62668000D01*
X89281000Y-61214000D01*
X87827000Y-61214000D01*
X72504256Y-61214000D01*
X72523291Y-60960000D01*
X72504256Y-60706000D01*
X87827000Y-60706000D01*
X89281000Y-60706000D01*
X89281000Y-59252000D01*
X88286411Y-59252000D01*
X88225906Y-59258505D01*
X88089037Y-59309554D01*
X87972095Y-59397095D01*
X87884554Y-59514037D01*
X87833505Y-59650906D01*
X87827000Y-59711411D01*
X87827000Y-60706000D01*
X72504256Y-60706000D01*
X72504155Y-60704647D01*
X72447174Y-60454999D01*
X72353622Y-60216631D01*
X72225587Y-59994869D01*
X72185672Y-59944818D01*
X72065934Y-59794669D01*
X71910994Y-59650906D01*
X71878219Y-59620495D01*
X71666646Y-59476246D01*
X71666645Y-59476245D01*
X71666643Y-59476244D01*
X71435935Y-59365141D01*
X71255722Y-59309554D01*
X71191243Y-59289665D01*
X70938034Y-59251500D01*
X70681966Y-59251500D01*
X70428757Y-59289665D01*
X70428753Y-59289666D01*
X70428754Y-59289666D01*
X70184064Y-59365141D01*
X69953354Y-59476246D01*
X69741784Y-59620491D01*
X69554065Y-59794669D01*
X69394413Y-59994868D01*
X69266377Y-60216631D01*
X69261290Y-60229595D01*
X69219578Y-60284379D01*
X69155295Y-60309056D01*
X69087639Y-60296255D01*
X69036814Y-60249799D01*
X69018000Y-60183563D01*
X69018000Y-59711411D01*
X69011494Y-59650906D01*
X68960445Y-59514037D01*
X68872904Y-59397095D01*
X68755962Y-59309554D01*
X68619093Y-59258505D01*
X68558589Y-59252000D01*
X67564000Y-59252000D01*
X67564000Y-62668000D01*
X67056000Y-62668000D01*
X67056000Y-61214000D01*
X65602000Y-61214000D01*
X43294256Y-61214000D01*
X43313291Y-60960000D01*
X43294256Y-60706000D01*
X65602000Y-60706000D01*
X67056000Y-60706000D01*
X67056000Y-59252000D01*
X66061411Y-59252000D01*
X66000906Y-59258505D01*
X65864037Y-59309554D01*
X65747095Y-59397095D01*
X65659554Y-59514037D01*
X65608505Y-59650906D01*
X65602000Y-59711411D01*
X65602000Y-60706000D01*
X43294256Y-60706000D01*
X43294155Y-60704647D01*
X43237174Y-60454999D01*
X43143622Y-60216631D01*
X43015587Y-59994869D01*
X42975672Y-59944818D01*
X42855934Y-59794669D01*
X42700994Y-59650906D01*
X42668219Y-59620495D01*
X42456646Y-59476246D01*
X42456645Y-59476245D01*
X42456643Y-59476244D01*
X42225935Y-59365141D01*
X42045722Y-59309554D01*
X41981243Y-59289665D01*
X41728034Y-59251500D01*
X41471966Y-59251500D01*
X41218757Y-59289665D01*
X41218753Y-59289666D01*
X41218754Y-59289666D01*
X40974064Y-59365141D01*
X40743354Y-59476246D01*
X40531784Y-59620491D01*
X40344065Y-59794669D01*
X40184413Y-59994868D01*
X40056377Y-60216631D01*
X40051290Y-60229595D01*
X40009578Y-60284379D01*
X39945295Y-60309056D01*
X39877639Y-60296255D01*
X39826814Y-60249799D01*
X39808000Y-60183563D01*
X39808000Y-59711411D01*
X39801494Y-59650906D01*
X39750445Y-59514037D01*
X39662904Y-59397095D01*
X39545962Y-59309554D01*
X39409093Y-59258505D01*
X39348589Y-59252000D01*
X38354000Y-59252000D01*
X38354000Y-62668000D01*
X37846000Y-62668000D01*
X37846000Y-61214000D01*
X36392000Y-61214000D01*
X26748017Y-61214000D01*
X26690190Y-61020845D01*
X26558330Y-60715157D01*
X26553043Y-60706000D01*
X36392000Y-60706000D01*
X37846000Y-60706000D01*
X37846000Y-59252000D01*
X36851411Y-59252000D01*
X36790906Y-59258505D01*
X36654037Y-59309554D01*
X36537095Y-59397095D01*
X36449554Y-59514037D01*
X36398505Y-59650906D01*
X36392000Y-59711411D01*
X36392000Y-60706000D01*
X26553043Y-60706000D01*
X26391872Y-60426846D01*
X26195772Y-60163436D01*
X24359210Y-61999999D01*
X24359210Y-62000001D01*
X23640789Y-62000001D01*
X23640789Y-61999999D01*
X21804226Y-60163436D01*
X21804225Y-60163436D01*
X21608129Y-60426842D01*
X21441669Y-60715157D01*
X21309809Y-61020845D01*
X21214325Y-61339784D01*
X21156515Y-61667643D01*
X21137156Y-62000000D01*
X20025567Y-62000000D01*
X20025500Y-61997079D01*
X20025500Y-59807477D01*
X22166687Y-59807477D01*
X23999999Y-61640789D01*
X24000000Y-61640789D01*
X25833311Y-59807476D01*
X25709567Y-59703643D01*
X25431428Y-59520708D01*
X25133910Y-59371289D01*
X24821076Y-59257427D01*
X24497123Y-59180649D01*
X24166460Y-59142000D01*
X23833540Y-59142000D01*
X23502876Y-59180649D01*
X23178923Y-59257427D01*
X22866089Y-59371289D01*
X22568571Y-59520708D01*
X22290433Y-59703643D01*
X22166687Y-59807477D01*
X20025500Y-59807477D01*
X20025500Y-46482000D01*
X22004844Y-46482000D01*
X22023436Y-46706368D01*
X22023436Y-46706371D01*
X22023437Y-46706372D01*
X22078702Y-46924611D01*
X22169139Y-47130790D01*
X22266091Y-47279186D01*
X22292278Y-47319268D01*
X22374529Y-47408616D01*
X22444762Y-47484908D01*
X22609792Y-47613357D01*
X22622424Y-47623189D01*
X22820426Y-47730342D01*
X23033365Y-47803444D01*
X23255431Y-47840500D01*
X23480566Y-47840500D01*
X23480569Y-47840500D01*
X23702635Y-47803444D01*
X23915574Y-47730342D01*
X24113576Y-47623189D01*
X24291240Y-47484906D01*
X24443722Y-47319268D01*
X24457888Y-47297584D01*
X24503402Y-47255686D01*
X24563371Y-47240500D01*
X31939559Y-47240500D01*
X31957820Y-47241830D01*
X31981789Y-47245341D01*
X32028253Y-47241275D01*
X32031647Y-47240979D01*
X32042628Y-47240500D01*
X32048177Y-47240500D01*
X32048180Y-47240500D01*
X32079301Y-47236861D01*
X32082889Y-47236495D01*
X32158426Y-47229887D01*
X32158430Y-47229885D01*
X32159751Y-47229770D01*
X32178856Y-47225535D01*
X32180106Y-47225079D01*
X32180113Y-47225079D01*
X32251400Y-47199132D01*
X32254769Y-47197961D01*
X32326738Y-47174114D01*
X32326739Y-47174112D01*
X32328007Y-47173693D01*
X32345613Y-47165169D01*
X32346725Y-47164437D01*
X32346732Y-47164435D01*
X32410138Y-47122730D01*
X32413161Y-47120806D01*
X32477651Y-47081030D01*
X32477652Y-47081028D01*
X32478788Y-47080328D01*
X32493959Y-47067970D01*
X32494871Y-47067002D01*
X32494874Y-47067001D01*
X32546929Y-47011824D01*
X32549448Y-47009231D01*
X34018777Y-45539902D01*
X34032624Y-45527936D01*
X34052058Y-45513469D01*
X34084228Y-45475128D01*
X34091645Y-45467034D01*
X34095580Y-45463101D01*
X34115043Y-45438484D01*
X34117268Y-45435753D01*
X34166032Y-45377640D01*
X34166034Y-45377634D01*
X34166892Y-45376613D01*
X34177403Y-45360114D01*
X34177965Y-45358908D01*
X34177967Y-45358906D01*
X34210022Y-45290159D01*
X34211572Y-45286958D01*
X34245609Y-45219188D01*
X34245610Y-45219183D01*
X34246207Y-45217995D01*
X34252631Y-45199517D01*
X34252901Y-45198209D01*
X34252902Y-45198207D01*
X34268251Y-45123866D01*
X34269001Y-45120484D01*
X34286500Y-45046656D01*
X34286500Y-45046651D01*
X34286807Y-45045356D01*
X34288796Y-45025888D01*
X34288757Y-45024560D01*
X34288758Y-45024558D01*
X34286553Y-44948776D01*
X34286500Y-44945112D01*
X34286500Y-40498371D01*
X34296091Y-40450153D01*
X34323405Y-40409276D01*
X35329276Y-39403405D01*
X35370153Y-39376091D01*
X35418371Y-39366500D01*
X45353629Y-39366500D01*
X45401847Y-39376091D01*
X45442724Y-39403405D01*
X46448595Y-40409276D01*
X46475909Y-40450153D01*
X46485500Y-40498371D01*
X46485500Y-44845629D01*
X46475909Y-44893847D01*
X46448595Y-44934724D01*
X45696724Y-45686595D01*
X45655847Y-45713909D01*
X45607629Y-45723500D01*
X44268926Y-45723500D01*
X44208541Y-45708088D01*
X44162929Y-45665622D01*
X44135205Y-45622482D01*
X44041051Y-45513821D01*
X43989220Y-45461989D01*
X43955976Y-45437103D01*
X43930535Y-45418058D01*
X43809589Y-45340331D01*
X43726458Y-45302367D01*
X43676577Y-45279587D01*
X43666053Y-45276497D01*
X43603671Y-45258180D01*
X43538622Y-45239080D01*
X43393889Y-45218271D01*
X43015682Y-45218271D01*
X42949145Y-45199270D01*
X42902676Y-45147999D01*
X42890289Y-45079920D01*
X42915720Y-45015566D01*
X42966902Y-44948865D01*
X43018224Y-44824963D01*
X43031775Y-44722034D01*
X43035729Y-44692001D01*
X43035729Y-44268397D01*
X43036050Y-44259408D01*
X43040871Y-44191999D01*
X43036050Y-44124592D01*
X43035729Y-44115603D01*
X43035729Y-43768397D01*
X43036050Y-43759408D01*
X43040871Y-43692000D01*
X43036050Y-43624592D01*
X43035729Y-43615603D01*
X43035729Y-43191999D01*
X43018224Y-43059037D01*
X43000556Y-43016384D01*
X42966902Y-42935136D01*
X42966901Y-42935135D01*
X42966901Y-42935134D01*
X42885261Y-42828739D01*
X42829796Y-42786179D01*
X42793494Y-42741945D01*
X42780500Y-42686217D01*
X42780500Y-41174800D01*
X42786667Y-41135865D01*
X42792819Y-41116926D01*
X42803542Y-41083928D01*
X42823504Y-40894000D01*
X42803542Y-40704072D01*
X42772931Y-40609862D01*
X42744527Y-40522443D01*
X42649041Y-40357057D01*
X42526867Y-40221369D01*
X42521253Y-40215134D01*
X42495524Y-40196441D01*
X42424616Y-40144923D01*
X42366752Y-40102882D01*
X42192288Y-40025206D01*
X42005487Y-39985500D01*
X41814513Y-39985500D01*
X41706980Y-40008357D01*
X41627711Y-40025206D01*
X41453246Y-40102883D01*
X41298747Y-40215133D01*
X41170958Y-40357057D01*
X41075472Y-40522443D01*
X41016458Y-40704070D01*
X40996496Y-40893999D01*
X41016458Y-41083929D01*
X41075472Y-41265556D01*
X41170958Y-41430942D01*
X41231136Y-41497776D01*
X41255131Y-41536932D01*
X41263500Y-41582087D01*
X41263500Y-42972353D01*
X41255556Y-43016384D01*
X41232726Y-43054864D01*
X41208795Y-43082482D01*
X41129745Y-43205485D01*
X41070013Y-43336279D01*
X41044399Y-43404953D01*
X41028819Y-43476574D01*
X41008358Y-43618881D01*
X41003128Y-43692000D01*
X41007950Y-43759408D01*
X41008271Y-43768397D01*
X41008271Y-44115603D01*
X41007950Y-44124592D01*
X41003128Y-44191999D01*
X41008358Y-44265118D01*
X41028819Y-44407425D01*
X41044399Y-44479046D01*
X41070013Y-44547720D01*
X41070016Y-44547727D01*
X41127307Y-44673175D01*
X41129745Y-44678514D01*
X41138412Y-44692000D01*
X41208795Y-44801518D01*
X41302949Y-44910179D01*
X41354780Y-44962011D01*
X41412172Y-45004974D01*
X41413464Y-45005941D01*
X41534410Y-45083668D01*
X41534413Y-45083669D01*
X41534414Y-45083670D01*
X41564450Y-45097387D01*
X41618105Y-45143879D01*
X41638107Y-45212000D01*
X41618105Y-45280121D01*
X41564450Y-45326612D01*
X41553336Y-45331688D01*
X41534410Y-45340331D01*
X41413464Y-45418058D01*
X41354779Y-45461989D01*
X41302949Y-45513820D01*
X41250060Y-45574859D01*
X41208795Y-45622482D01*
X41181070Y-45665622D01*
X41135459Y-45708088D01*
X41075074Y-45723500D01*
X38642586Y-45723500D01*
X38603649Y-45717333D01*
X38568529Y-45699438D01*
X38556752Y-45690882D01*
X38382288Y-45613206D01*
X38195487Y-45573500D01*
X38004513Y-45573500D01*
X37994694Y-45575586D01*
X37939086Y-45574859D01*
X37889206Y-45550261D01*
X37854774Y-45506585D01*
X37842500Y-45452340D01*
X37842500Y-45276441D01*
X37843830Y-45258180D01*
X37844067Y-45256556D01*
X37847341Y-45234211D01*
X37842979Y-45184353D01*
X37842500Y-45173372D01*
X37842500Y-45167823D01*
X37842475Y-45167609D01*
X37838862Y-45136705D01*
X37838492Y-45133079D01*
X37837695Y-45123971D01*
X37831887Y-45057573D01*
X37831886Y-45057570D01*
X37831770Y-45056242D01*
X37827537Y-45037147D01*
X37827079Y-45035889D01*
X37827079Y-45035887D01*
X37801137Y-44964611D01*
X37799977Y-44961277D01*
X37776114Y-44889261D01*
X37776111Y-44889256D01*
X37775691Y-44887988D01*
X37767167Y-44870380D01*
X37724775Y-44805925D01*
X37722807Y-44802836D01*
X37682328Y-44737211D01*
X37669964Y-44722034D01*
X37613825Y-44669069D01*
X37611197Y-44666516D01*
X36734126Y-43789445D01*
X36703388Y-43739286D01*
X36648527Y-43570444D01*
X36553041Y-43405057D01*
X36467201Y-43309722D01*
X36425253Y-43263134D01*
X36419469Y-43258932D01*
X36322003Y-43188118D01*
X36270752Y-43150882D01*
X36096288Y-43073206D01*
X35909487Y-43033500D01*
X35718513Y-43033500D01*
X35618004Y-43054864D01*
X35531711Y-43073206D01*
X35470992Y-43100240D01*
X35378440Y-43141447D01*
X35357246Y-43150883D01*
X35202747Y-43263133D01*
X35074958Y-43405057D01*
X34979472Y-43570443D01*
X34920458Y-43752070D01*
X34900496Y-43942000D01*
X34920458Y-44131929D01*
X34979472Y-44313556D01*
X35074958Y-44478942D01*
X35074960Y-44478944D01*
X35202747Y-44620866D01*
X35357248Y-44733118D01*
X35531712Y-44810794D01*
X35594772Y-44824197D01*
X35628695Y-44836713D01*
X35657668Y-44858349D01*
X36288595Y-45489276D01*
X36315909Y-45530153D01*
X36325500Y-45578371D01*
X36325500Y-47553235D01*
X36310231Y-47613357D01*
X36268124Y-47658908D01*
X36209386Y-47678847D01*
X36148253Y-47668342D01*
X36096288Y-47645206D01*
X35909487Y-47605500D01*
X35718513Y-47605500D01*
X35615205Y-47627459D01*
X35531711Y-47645206D01*
X35357246Y-47722883D01*
X35202747Y-47835133D01*
X35074958Y-47977057D01*
X34979472Y-48142443D01*
X34920458Y-48324070D01*
X34900496Y-48514000D01*
X34920458Y-48703929D01*
X34979472Y-48885555D01*
X35038619Y-48988000D01*
X35055500Y-49051000D01*
X35055500Y-50974340D01*
X35040088Y-51034725D01*
X34997621Y-51080338D01*
X34938489Y-51100019D01*
X34877158Y-51088954D01*
X34786577Y-51047587D01*
X34648622Y-51007080D01*
X34503889Y-50986271D01*
X33932000Y-50986271D01*
X33931999Y-50986271D01*
X33798446Y-51003853D01*
X33765554Y-51003853D01*
X33632001Y-50986271D01*
X33632000Y-50986271D01*
X33060111Y-50986271D01*
X32915378Y-51007080D01*
X32915375Y-51007080D01*
X32915374Y-51007081D01*
X32777425Y-51047586D01*
X32644410Y-51108331D01*
X32523464Y-51186058D01*
X32464779Y-51229989D01*
X32412949Y-51281820D01*
X32318795Y-51390481D01*
X32318795Y-51390482D01*
X32291070Y-51433622D01*
X32245459Y-51476088D01*
X32185074Y-51491500D01*
X28233002Y-51491500D01*
X28181977Y-51480706D01*
X28139694Y-51450173D01*
X28113398Y-51405134D01*
X28112115Y-51401262D01*
X28019030Y-51250348D01*
X28019028Y-51250346D01*
X28019027Y-51250344D01*
X27893655Y-51124972D01*
X27893652Y-51124970D01*
X27742738Y-51031885D01*
X27574426Y-50976113D01*
X27470545Y-50965500D01*
X27470540Y-50965500D01*
X25869459Y-50965500D01*
X25765573Y-50976113D01*
X25597262Y-51031885D01*
X25446344Y-51124972D01*
X25320972Y-51250344D01*
X25303262Y-51279057D01*
X25227885Y-51401262D01*
X25172113Y-51569573D01*
X25172113Y-51569574D01*
X25161500Y-51673459D01*
X25161500Y-51945628D01*
X25151909Y-51993846D01*
X25124597Y-52034720D01*
X24615318Y-52544000D01*
X24147225Y-53012093D01*
X24133377Y-53024061D01*
X24113941Y-53038531D01*
X24081771Y-53076869D01*
X24074357Y-53084961D01*
X24070422Y-53088895D01*
X24050997Y-53113461D01*
X24048688Y-53116294D01*
X23999119Y-53175369D01*
X23988589Y-53191899D01*
X23955995Y-53261794D01*
X23954401Y-53265087D01*
X23919795Y-53333997D01*
X23913363Y-53352500D01*
X23897759Y-53428064D01*
X23896967Y-53431637D01*
X23879192Y-53506640D01*
X23877202Y-53526114D01*
X23879447Y-53603259D01*
X23879500Y-53606923D01*
X23879500Y-57339559D01*
X23878170Y-57357820D01*
X23874659Y-57381788D01*
X23879021Y-57431647D01*
X23879500Y-57442628D01*
X23879500Y-57448184D01*
X23883135Y-57479290D01*
X23883507Y-57482932D01*
X23890228Y-57559744D01*
X23894469Y-57578873D01*
X23920846Y-57651342D01*
X23922049Y-57654804D01*
X23946304Y-57728000D01*
X23954837Y-57745627D01*
X23997232Y-57810084D01*
X23999171Y-57813127D01*
X24038970Y-57877651D01*
X24039674Y-57878792D01*
X24052038Y-57893967D01*
X24108155Y-57946911D01*
X24110784Y-57949465D01*
X24856092Y-58694773D01*
X24868060Y-58708620D01*
X24882531Y-58728058D01*
X24920870Y-58760228D01*
X24928974Y-58767655D01*
X24932899Y-58771580D01*
X24957502Y-58791034D01*
X24960284Y-58793300D01*
X24971879Y-58803030D01*
X25019382Y-58842890D01*
X25035889Y-58853405D01*
X25105794Y-58886002D01*
X25109085Y-58887596D01*
X25125208Y-58895693D01*
X25178000Y-58922206D01*
X25196485Y-58928631D01*
X25197791Y-58928900D01*
X25197794Y-58928902D01*
X25272113Y-58944247D01*
X25275525Y-58945003D01*
X25349344Y-58962500D01*
X25349347Y-58962500D01*
X25350642Y-58962807D01*
X25370111Y-58964796D01*
X25371438Y-58964757D01*
X25371442Y-58964758D01*
X25445697Y-58962597D01*
X25447224Y-58962553D01*
X25450888Y-58962500D01*
X72795559Y-58962500D01*
X72813820Y-58963830D01*
X72837789Y-58967341D01*
X72884253Y-58963275D01*
X72887647Y-58962979D01*
X72898628Y-58962500D01*
X72904177Y-58962500D01*
X72904180Y-58962500D01*
X72935301Y-58958861D01*
X72938889Y-58958495D01*
X73014426Y-58951887D01*
X73014430Y-58951885D01*
X73015751Y-58951770D01*
X73034856Y-58947535D01*
X73036106Y-58947079D01*
X73036113Y-58947079D01*
X73107400Y-58921132D01*
X73110769Y-58919961D01*
X73182738Y-58896114D01*
X73182739Y-58896112D01*
X73184007Y-58895693D01*
X73201613Y-58887169D01*
X73202725Y-58886437D01*
X73202732Y-58886435D01*
X73266138Y-58844730D01*
X73269161Y-58842806D01*
X73270416Y-58842032D01*
X73333651Y-58803030D01*
X73333652Y-58803028D01*
X73334788Y-58802328D01*
X73349959Y-58789970D01*
X73350871Y-58789002D01*
X73350874Y-58789001D01*
X73402929Y-58733824D01*
X73405448Y-58731231D01*
X76102333Y-56034346D01*
X76131303Y-56012713D01*
X76165223Y-56000198D01*
X76228288Y-55986794D01*
X76402752Y-55909118D01*
X76557253Y-55796866D01*
X76685040Y-55654944D01*
X76780527Y-55489556D01*
X76839542Y-55307928D01*
X76859504Y-55118000D01*
X76839542Y-54928072D01*
X76780527Y-54746444D01*
X76780527Y-54746443D01*
X76685041Y-54581057D01*
X76557252Y-54439133D01*
X76402753Y-54326883D01*
X76402752Y-54326882D01*
X76228288Y-54249206D01*
X76041487Y-54209500D01*
X75850513Y-54209500D01*
X75725978Y-54235970D01*
X75663711Y-54249206D01*
X75489246Y-54326883D01*
X75334747Y-54439133D01*
X75206958Y-54581057D01*
X75111473Y-54746442D01*
X75056613Y-54915283D01*
X75025876Y-54965441D01*
X74473596Y-55517723D01*
X74423436Y-55548461D01*
X74364789Y-55553077D01*
X74310439Y-55530564D01*
X74272233Y-55485831D01*
X74258500Y-55428628D01*
X74258500Y-52607000D01*
X74275381Y-52544000D01*
X74322114Y-52463056D01*
X74334527Y-52441556D01*
X74393542Y-52259928D01*
X74413504Y-52070000D01*
X74393542Y-51880072D01*
X74391385Y-51873435D01*
X74386769Y-51814791D01*
X74409281Y-51760440D01*
X74454015Y-51722233D01*
X74511218Y-51708500D01*
X76642056Y-51708500D01*
X76660317Y-51709830D01*
X76684286Y-51713341D01*
X76730750Y-51709275D01*
X76734144Y-51708979D01*
X76745125Y-51708500D01*
X76750674Y-51708500D01*
X76750677Y-51708500D01*
X76781798Y-51704861D01*
X76785386Y-51704495D01*
X76860923Y-51697887D01*
X76860927Y-51697885D01*
X76862248Y-51697770D01*
X76881353Y-51693535D01*
X76882603Y-51693079D01*
X76882610Y-51693079D01*
X76953897Y-51667132D01*
X76957266Y-51665961D01*
X77029235Y-51642114D01*
X77029236Y-51642112D01*
X77030504Y-51641693D01*
X77048110Y-51633169D01*
X77049222Y-51632437D01*
X77049229Y-51632435D01*
X77112635Y-51590730D01*
X77115658Y-51588806D01*
X77180148Y-51549030D01*
X77180149Y-51549028D01*
X77181285Y-51548328D01*
X77196456Y-51535970D01*
X77197368Y-51535002D01*
X77197371Y-51535001D01*
X77249426Y-51479824D01*
X77251945Y-51477231D01*
X82278777Y-46450399D01*
X82292624Y-46438433D01*
X82312058Y-46423966D01*
X82344228Y-46385625D01*
X82351645Y-46377531D01*
X82355580Y-46373598D01*
X82375043Y-46348981D01*
X82377268Y-46346250D01*
X82426032Y-46288137D01*
X82426034Y-46288131D01*
X82426892Y-46287110D01*
X82437403Y-46270611D01*
X82437965Y-46269405D01*
X82437967Y-46269403D01*
X82470022Y-46200656D01*
X82471572Y-46197455D01*
X82505609Y-46129685D01*
X82505610Y-46129680D01*
X82506207Y-46128492D01*
X82512631Y-46110014D01*
X82512901Y-46108706D01*
X82512902Y-46108704D01*
X82528251Y-46034363D01*
X82529001Y-46030981D01*
X82546500Y-45957153D01*
X82546500Y-45957148D01*
X82546807Y-45955853D01*
X82548796Y-45936385D01*
X82548757Y-45935057D01*
X82548758Y-45935055D01*
X82546553Y-45859273D01*
X82546500Y-45855609D01*
X82546500Y-39907000D01*
X82563381Y-39844000D01*
X82596151Y-39787240D01*
X82622527Y-39741556D01*
X82681542Y-39559928D01*
X82701504Y-39370000D01*
X82681542Y-39180072D01*
X82650931Y-39085862D01*
X82622527Y-38998443D01*
X82527041Y-38833057D01*
X82404867Y-38697369D01*
X82399253Y-38691134D01*
X82396687Y-38689270D01*
X82244138Y-38578436D01*
X82204191Y-38530148D01*
X82192448Y-38468588D01*
X82211814Y-38408986D01*
X82257498Y-38366085D01*
X82318199Y-38350500D01*
X92079500Y-38350500D01*
X92142500Y-38367381D01*
X92188619Y-38413500D01*
X92205500Y-38476500D01*
X92205500Y-43115559D01*
X92204170Y-43133820D01*
X92201671Y-43150883D01*
X92200659Y-43157789D01*
X92202054Y-43173729D01*
X92205021Y-43207647D01*
X92205500Y-43218628D01*
X92205500Y-43224184D01*
X92209135Y-43255290D01*
X92209507Y-43258932D01*
X92216228Y-43335744D01*
X92220469Y-43354873D01*
X92246846Y-43427342D01*
X92248049Y-43430804D01*
X92272304Y-43504000D01*
X92280837Y-43521627D01*
X92323232Y-43586084D01*
X92325171Y-43589127D01*
X92352616Y-43633621D01*
X92365674Y-43654792D01*
X92378038Y-43669967D01*
X92378998Y-43670873D01*
X92378999Y-43670874D01*
X92398498Y-43689270D01*
X92434155Y-43722911D01*
X92436784Y-43725465D01*
X93652092Y-44940773D01*
X93664060Y-44954620D01*
X93670257Y-44962944D01*
X93678531Y-44974058D01*
X93716870Y-45006228D01*
X93724974Y-45013654D01*
X93728899Y-45017580D01*
X93753502Y-45037034D01*
X93756284Y-45039300D01*
X93765050Y-45046656D01*
X93815382Y-45088890D01*
X93831889Y-45099405D01*
X93901794Y-45132002D01*
X93905094Y-45133600D01*
X93974000Y-45168206D01*
X93992485Y-45174631D01*
X93993791Y-45174900D01*
X93993794Y-45174902D01*
X94068113Y-45190247D01*
X94071525Y-45191003D01*
X94145344Y-45208500D01*
X94145347Y-45208500D01*
X94146642Y-45208807D01*
X94166111Y-45210796D01*
X94167438Y-45210757D01*
X94167442Y-45210758D01*
X94241697Y-45208597D01*
X94243224Y-45208553D01*
X94246888Y-45208500D01*
X95797074Y-45208500D01*
X95857459Y-45223912D01*
X95903070Y-45266377D01*
X95930795Y-45309518D01*
X96024949Y-45418179D01*
X96076780Y-45470011D01*
X96133852Y-45512734D01*
X96135464Y-45513941D01*
X96256410Y-45591668D01*
X96256413Y-45591669D01*
X96256414Y-45591670D01*
X96389423Y-45652413D01*
X96527378Y-45692920D01*
X96672111Y-45713729D01*
X97244000Y-45713729D01*
X97352578Y-45699434D01*
X97407537Y-45704387D01*
X97455113Y-45732355D01*
X97474656Y-45761058D01*
X97475093Y-45760741D01*
X97510431Y-45809380D01*
X97516948Y-45819301D01*
X97539458Y-45857363D01*
X97553778Y-45871683D01*
X97566618Y-45886716D01*
X97578526Y-45903105D01*
X97612598Y-45931292D01*
X97621378Y-45939282D01*
X99060751Y-47378655D01*
X99073834Y-47394985D01*
X99125665Y-47443656D01*
X99128477Y-47446381D01*
X99148230Y-47466134D01*
X99150183Y-47467649D01*
X99151424Y-47468612D01*
X99160444Y-47476316D01*
X99192679Y-47506586D01*
X99210435Y-47516347D01*
X99226951Y-47527196D01*
X99242959Y-47539613D01*
X99283525Y-47557167D01*
X99294188Y-47562391D01*
X99332938Y-47583694D01*
X99332940Y-47583695D01*
X99352562Y-47588733D01*
X99371267Y-47595137D01*
X99389855Y-47603181D01*
X99433522Y-47610096D01*
X99445129Y-47612500D01*
X99487970Y-47623500D01*
X99508231Y-47623500D01*
X99527939Y-47625050D01*
X99547943Y-47628219D01*
X99547943Y-47628218D01*
X99547944Y-47628219D01*
X99591954Y-47624059D01*
X99603811Y-47623500D01*
X101221107Y-47623500D01*
X101252440Y-47627458D01*
X101275970Y-47633500D01*
X101296224Y-47633500D01*
X101315934Y-47635051D01*
X101335942Y-47638220D01*
X101335942Y-47638219D01*
X101335943Y-47638220D01*
X101379961Y-47634058D01*
X101391819Y-47633500D01*
X105400976Y-47633500D01*
X105460238Y-47648306D01*
X105505572Y-47689245D01*
X105526323Y-47746693D01*
X105527113Y-47754426D01*
X105582885Y-47922738D01*
X105626788Y-47993915D01*
X105675972Y-48073655D01*
X105801344Y-48199027D01*
X105801346Y-48199028D01*
X105801348Y-48199030D01*
X105952262Y-48292115D01*
X106120574Y-48347887D01*
X106187308Y-48354704D01*
X106244755Y-48375457D01*
X106285694Y-48420791D01*
X106300500Y-48480052D01*
X106300500Y-51113475D01*
X106292131Y-51158629D01*
X106268136Y-51197786D01*
X106194958Y-51279057D01*
X106099472Y-51444443D01*
X106040458Y-51626070D01*
X106020496Y-51815999D01*
X106040458Y-52005929D01*
X106099472Y-52187556D01*
X106194958Y-52352942D01*
X106294105Y-52463056D01*
X106322747Y-52494866D01*
X106477248Y-52607118D01*
X106651712Y-52684794D01*
X106838513Y-52724500D01*
X107029485Y-52724500D01*
X107029487Y-52724500D01*
X107216288Y-52684794D01*
X107390752Y-52607118D01*
X107545253Y-52494866D01*
X107673040Y-52352944D01*
X107768527Y-52187556D01*
X107827542Y-52005928D01*
X107847504Y-51816000D01*
X107827542Y-51626072D01*
X107783817Y-51491500D01*
X107768527Y-51444443D01*
X107673041Y-51279057D01*
X107599864Y-51197786D01*
X107575869Y-51158629D01*
X107567500Y-51113475D01*
X107567500Y-48484499D01*
X107584381Y-48421499D01*
X107630500Y-48375380D01*
X107693500Y-48358499D01*
X107775540Y-48358499D01*
X107775544Y-48358499D01*
X107879426Y-48347887D01*
X108047738Y-48292115D01*
X108198652Y-48199030D01*
X108324030Y-48073652D01*
X108417115Y-47922738D01*
X108472887Y-47754426D01*
X108483500Y-47650545D01*
X108483499Y-46349456D01*
X108472887Y-46245574D01*
X108417115Y-46077262D01*
X108324030Y-45926348D01*
X108324028Y-45926346D01*
X108324027Y-45926344D01*
X108198655Y-45800972D01*
X108198652Y-45800970D01*
X108052691Y-45710940D01*
X108012215Y-45670836D01*
X107993544Y-45617000D01*
X108000498Y-45560443D01*
X108031655Y-45512735D01*
X108148476Y-45400772D01*
X108285985Y-45214847D01*
X108390095Y-45008357D01*
X108457811Y-44787243D01*
X108487184Y-44557865D01*
X108477369Y-44326822D01*
X108428649Y-44100762D01*
X108342426Y-43886187D01*
X108221179Y-43689270D01*
X108068398Y-43515676D01*
X107888476Y-43370400D01*
X107888475Y-43370399D01*
X107888471Y-43370396D01*
X107867270Y-43358553D01*
X107821426Y-43314617D01*
X107802832Y-43253901D01*
X107816209Y-43191827D01*
X107858161Y-43144161D01*
X107981523Y-43060783D01*
X108148476Y-42900772D01*
X108285985Y-42714847D01*
X108390095Y-42508357D01*
X108457811Y-42287243D01*
X108487184Y-42057865D01*
X108477369Y-41826822D01*
X108428649Y-41600762D01*
X108342426Y-41386187D01*
X108221179Y-41189270D01*
X108068398Y-41015676D01*
X107888476Y-40870400D01*
X107888475Y-40870399D01*
X107888471Y-40870396D01*
X107867270Y-40858553D01*
X107821426Y-40814617D01*
X107802832Y-40753901D01*
X107816209Y-40691827D01*
X107858161Y-40644161D01*
X107981523Y-40560783D01*
X108148476Y-40400772D01*
X108285985Y-40214847D01*
X108390095Y-40008357D01*
X108457811Y-39787243D01*
X108487184Y-39557865D01*
X108477369Y-39326822D01*
X108428649Y-39100762D01*
X108342426Y-38886187D01*
X108221179Y-38689270D01*
X108068398Y-38515676D01*
X107888476Y-38370400D01*
X107888475Y-38370399D01*
X107686591Y-38257620D01*
X107686590Y-38257619D01*
X107468550Y-38180581D01*
X107240625Y-38141500D01*
X106817287Y-38141500D01*
X106817286Y-38141500D01*
X106644581Y-38156198D01*
X106420793Y-38214469D01*
X106210070Y-38309721D01*
X106018478Y-38439216D01*
X105851524Y-38599227D01*
X105784076Y-38690424D01*
X105739498Y-38728009D01*
X105682772Y-38741500D01*
X99248441Y-38741500D01*
X99230180Y-38740170D01*
X99206211Y-38736659D01*
X99156353Y-38741021D01*
X99145372Y-38741500D01*
X99139815Y-38741500D01*
X99108708Y-38745135D01*
X99105067Y-38745507D01*
X99028251Y-38752228D01*
X99009139Y-38756465D01*
X98936653Y-38782846D01*
X98933198Y-38784047D01*
X98859995Y-38808305D01*
X98842373Y-38816837D01*
X98777927Y-38859224D01*
X98774838Y-38861192D01*
X98709218Y-38901667D01*
X98694036Y-38914034D01*
X98641087Y-38970156D01*
X98638534Y-38972783D01*
X97553225Y-40058092D01*
X97539377Y-40070061D01*
X97519941Y-40084531D01*
X97487771Y-40122869D01*
X97480357Y-40130961D01*
X97476422Y-40134895D01*
X97456997Y-40159461D01*
X97454688Y-40162294D01*
X97405119Y-40221369D01*
X97394589Y-40237899D01*
X97361995Y-40307794D01*
X97360401Y-40311087D01*
X97325795Y-40379997D01*
X97319363Y-40398500D01*
X97303759Y-40474064D01*
X97302967Y-40477637D01*
X97285192Y-40552640D01*
X97283202Y-40572114D01*
X97285447Y-40649259D01*
X97285500Y-40652923D01*
X97285500Y-40654217D01*
X97272506Y-40709945D01*
X97236204Y-40754179D01*
X97180738Y-40796739D01*
X97099098Y-40903134D01*
X97047775Y-41027037D01*
X97030271Y-41159999D01*
X97030271Y-41583603D01*
X97029950Y-41592592D01*
X97025128Y-41659999D01*
X97029950Y-41727408D01*
X97030271Y-41736397D01*
X97030271Y-42083603D01*
X97029950Y-42092592D01*
X97025128Y-42159999D01*
X97029950Y-42227408D01*
X97030271Y-42236397D01*
X97030271Y-42660001D01*
X97047775Y-42792962D01*
X97099097Y-42916864D01*
X97150280Y-42983566D01*
X97175711Y-43047920D01*
X97163324Y-43115999D01*
X97116855Y-43167270D01*
X97050318Y-43186271D01*
X96672111Y-43186271D01*
X96527378Y-43207080D01*
X96527375Y-43207080D01*
X96527374Y-43207081D01*
X96389425Y-43247586D01*
X96256410Y-43308331D01*
X96135464Y-43386058D01*
X96076779Y-43429989D01*
X96024949Y-43481820D01*
X95948158Y-43570444D01*
X95930795Y-43590482D01*
X95903070Y-43633622D01*
X95857459Y-43676088D01*
X95797074Y-43691500D01*
X94600371Y-43691500D01*
X94552153Y-43681909D01*
X94511276Y-43654595D01*
X93759405Y-42902724D01*
X93732091Y-42861847D01*
X93722500Y-42813629D01*
X93722500Y-38164441D01*
X93723830Y-38146180D01*
X93724515Y-38141500D01*
X93727341Y-38122211D01*
X93722979Y-38072353D01*
X93722500Y-38061372D01*
X93722500Y-38055823D01*
X93722500Y-38055820D01*
X93718862Y-38024705D01*
X93718492Y-38021079D01*
X93713781Y-37967224D01*
X93711887Y-37945573D01*
X93711886Y-37945570D01*
X93711770Y-37944242D01*
X93707537Y-37925147D01*
X93707079Y-37923889D01*
X93707079Y-37923887D01*
X93681137Y-37852611D01*
X93679977Y-37849277D01*
X93656114Y-37777261D01*
X93656111Y-37777256D01*
X93655691Y-37775988D01*
X93647170Y-37758386D01*
X93604776Y-37693928D01*
X93602808Y-37690839D01*
X93562326Y-37625209D01*
X93549964Y-37610034D01*
X93493825Y-37557069D01*
X93491197Y-37554516D01*
X93037909Y-37101228D01*
X93025937Y-37087375D01*
X93011470Y-37067943D01*
X93006154Y-37063482D01*
X92973127Y-37035769D01*
X92965032Y-37028351D01*
X92961101Y-37024420D01*
X92953081Y-37018078D01*
X92936528Y-37004989D01*
X92933690Y-37002677D01*
X92874622Y-36953113D01*
X92858110Y-36942594D01*
X92788205Y-36909996D01*
X92784909Y-36908401D01*
X92779622Y-36905746D01*
X92767954Y-36899886D01*
X92715996Y-36873792D01*
X92697504Y-36867365D01*
X92621942Y-36851762D01*
X92618367Y-36850969D01*
X92543356Y-36833191D01*
X92523885Y-36831202D01*
X92446741Y-36833447D01*
X92443077Y-36833500D01*
X75756441Y-36833500D01*
X75738180Y-36832170D01*
X75714211Y-36828659D01*
X75664353Y-36833021D01*
X75653372Y-36833500D01*
X75647815Y-36833500D01*
X75616708Y-36837135D01*
X75613067Y-36837507D01*
X75536251Y-36844228D01*
X75517139Y-36848465D01*
X75444653Y-36874846D01*
X75441198Y-36876047D01*
X75367995Y-36900305D01*
X75350373Y-36908837D01*
X75285927Y-36951224D01*
X75282838Y-36953192D01*
X75217218Y-36993667D01*
X75202036Y-37006034D01*
X75149087Y-37062156D01*
X75146534Y-37064783D01*
X73677225Y-38534092D01*
X73663377Y-38546061D01*
X73643941Y-38560531D01*
X73611771Y-38598869D01*
X73604357Y-38606961D01*
X73600422Y-38610895D01*
X73580997Y-38635461D01*
X73578688Y-38638294D01*
X73529119Y-38697369D01*
X73518589Y-38713899D01*
X73485995Y-38783794D01*
X73484401Y-38787087D01*
X73449795Y-38855997D01*
X73443363Y-38874500D01*
X73427759Y-38950064D01*
X73426967Y-38953637D01*
X73409192Y-39028640D01*
X73407202Y-39048114D01*
X73409447Y-39125259D01*
X73409500Y-39128923D01*
X73409500Y-41373000D01*
X73392619Y-41436000D01*
X73333472Y-41538444D01*
X73274458Y-41720070D01*
X73254496Y-41910000D01*
X73274458Y-42099929D01*
X73333472Y-42281556D01*
X73428958Y-42446942D01*
X73484255Y-42508355D01*
X73556747Y-42588866D01*
X73711248Y-42701118D01*
X73885712Y-42778794D01*
X74072513Y-42818500D01*
X74263485Y-42818500D01*
X74263487Y-42818500D01*
X74450288Y-42778794D01*
X74624752Y-42701118D01*
X74779253Y-42588866D01*
X74907040Y-42446944D01*
X75002527Y-42281556D01*
X75061542Y-42099928D01*
X75081504Y-41910000D01*
X75061542Y-41720072D01*
X75002527Y-41538444D01*
X74948331Y-41444574D01*
X74943381Y-41436000D01*
X74926500Y-41373000D01*
X74926500Y-39482371D01*
X74936091Y-39434153D01*
X74963405Y-39393276D01*
X75969276Y-38387405D01*
X76010153Y-38360091D01*
X76058371Y-38350500D01*
X81257801Y-38350500D01*
X81318502Y-38366085D01*
X81364186Y-38408986D01*
X81383552Y-38468588D01*
X81371809Y-38530148D01*
X81331862Y-38578436D01*
X81176747Y-38691133D01*
X81048958Y-38833057D01*
X80953472Y-38998443D01*
X80894458Y-39180070D01*
X80874496Y-39370000D01*
X80894458Y-39559929D01*
X80953472Y-39741555D01*
X81012619Y-39844000D01*
X81029500Y-39907000D01*
X81029500Y-45502126D01*
X81019909Y-45550344D01*
X80992595Y-45591221D01*
X76429221Y-50154595D01*
X76388344Y-50181909D01*
X76340126Y-50191500D01*
X47224273Y-50191500D01*
X47167071Y-50177767D01*
X47122338Y-50139562D01*
X47099825Y-50085213D01*
X47104439Y-50026567D01*
X47111028Y-50006284D01*
X47117387Y-49986715D01*
X47148123Y-49936556D01*
X47521276Y-49563404D01*
X47562154Y-49536091D01*
X47610372Y-49526500D01*
X76135559Y-49526500D01*
X76153820Y-49527830D01*
X76177789Y-49531341D01*
X76224253Y-49527275D01*
X76227647Y-49526979D01*
X76238628Y-49526500D01*
X76244177Y-49526500D01*
X76244180Y-49526500D01*
X76275301Y-49522861D01*
X76278889Y-49522495D01*
X76354426Y-49515887D01*
X76354430Y-49515885D01*
X76355751Y-49515770D01*
X76374856Y-49511535D01*
X76376106Y-49511079D01*
X76376113Y-49511079D01*
X76447400Y-49485132D01*
X76450769Y-49483961D01*
X76522738Y-49460114D01*
X76522739Y-49460112D01*
X76524007Y-49459693D01*
X76541613Y-49451169D01*
X76542725Y-49450437D01*
X76542732Y-49450435D01*
X76606138Y-49408730D01*
X76609161Y-49406806D01*
X76610416Y-49406032D01*
X76673651Y-49367030D01*
X76673652Y-49367028D01*
X76674788Y-49366328D01*
X76689959Y-49353970D01*
X76690871Y-49353002D01*
X76690874Y-49353001D01*
X76742929Y-49297824D01*
X76745448Y-49295231D01*
X78468777Y-47571902D01*
X78482624Y-47559936D01*
X78502058Y-47545469D01*
X78534226Y-47507131D01*
X78541642Y-47499037D01*
X78545581Y-47495100D01*
X78565012Y-47470523D01*
X78567286Y-47467731D01*
X78616032Y-47409640D01*
X78616033Y-47409636D01*
X78616890Y-47408616D01*
X78627402Y-47392117D01*
X78641652Y-47361556D01*
X78660036Y-47322131D01*
X78661544Y-47319015D01*
X78695609Y-47251188D01*
X78695610Y-47251179D01*
X78696212Y-47249983D01*
X78702634Y-47231509D01*
X78714485Y-47174114D01*
X78718241Y-47155919D01*
X78719022Y-47152397D01*
X78736500Y-47078656D01*
X78736500Y-47078654D01*
X78736808Y-47077355D01*
X78738797Y-47057885D01*
X78738758Y-47056560D01*
X78738759Y-47056558D01*
X78736553Y-46980741D01*
X78736500Y-46977077D01*
X78736500Y-42784372D01*
X78746091Y-42736154D01*
X78773404Y-42695277D01*
X79658331Y-41810349D01*
X79687305Y-41788713D01*
X79721230Y-41776198D01*
X79784283Y-41762795D01*
X79784282Y-41762795D01*
X79784288Y-41762794D01*
X79958752Y-41685118D01*
X80113253Y-41572866D01*
X80241040Y-41430944D01*
X80336527Y-41265556D01*
X80395542Y-41083928D01*
X80415504Y-40894000D01*
X80395542Y-40704072D01*
X80364931Y-40609862D01*
X80336527Y-40522443D01*
X80241041Y-40357057D01*
X80118867Y-40221369D01*
X80113253Y-40215134D01*
X80087524Y-40196441D01*
X80016616Y-40144923D01*
X79958752Y-40102882D01*
X79784288Y-40025206D01*
X79597487Y-39985500D01*
X79406513Y-39985500D01*
X79298980Y-40008357D01*
X79219711Y-40025206D01*
X79045246Y-40102883D01*
X78890747Y-40215133D01*
X78762958Y-40357057D01*
X78667473Y-40522443D01*
X78612612Y-40691285D01*
X78581874Y-40741443D01*
X77487225Y-41836092D01*
X77473377Y-41848061D01*
X77453941Y-41862531D01*
X77421771Y-41900869D01*
X77414357Y-41908961D01*
X77410422Y-41912895D01*
X77390997Y-41937461D01*
X77388688Y-41940294D01*
X77339119Y-41999369D01*
X77328589Y-42015899D01*
X77295995Y-42085794D01*
X77294401Y-42089087D01*
X77259795Y-42157997D01*
X77253363Y-42176500D01*
X77237759Y-42252064D01*
X77236967Y-42255637D01*
X77219192Y-42330640D01*
X77217202Y-42350114D01*
X77219447Y-42427259D01*
X77219500Y-42430923D01*
X77219500Y-46623629D01*
X77209909Y-46671847D01*
X77182595Y-46712724D01*
X75922724Y-47972595D01*
X75881847Y-47999909D01*
X75833629Y-48009500D01*
X47774199Y-48009500D01*
X47713498Y-47993915D01*
X47667814Y-47951014D01*
X47648448Y-47891412D01*
X47660191Y-47829852D01*
X47700138Y-47781564D01*
X47700752Y-47781118D01*
X47855253Y-47668866D01*
X47983040Y-47526944D01*
X48078527Y-47361556D01*
X48137542Y-47179928D01*
X48157504Y-46990000D01*
X48137542Y-46800072D01*
X48078527Y-46618444D01*
X48019381Y-46516000D01*
X48002500Y-46453000D01*
X48002500Y-45302367D01*
X48004796Y-45279888D01*
X48004757Y-45278560D01*
X48004758Y-45278558D01*
X48002553Y-45202776D01*
X48002500Y-45199112D01*
X48002500Y-40196441D01*
X48003830Y-40178180D01*
X48004067Y-40176556D01*
X48007341Y-40154211D01*
X48002979Y-40104353D01*
X48002500Y-40093372D01*
X48002500Y-40087823D01*
X48002115Y-40084531D01*
X47998862Y-40056705D01*
X47998492Y-40053079D01*
X47997654Y-40043500D01*
X47991887Y-39977573D01*
X47991886Y-39977570D01*
X47991770Y-39976242D01*
X47987537Y-39957147D01*
X47987079Y-39955889D01*
X47987079Y-39955887D01*
X47961137Y-39884611D01*
X47959977Y-39881277D01*
X47936114Y-39809261D01*
X47936111Y-39809256D01*
X47935691Y-39807988D01*
X47927170Y-39790386D01*
X47884776Y-39725928D01*
X47882808Y-39722839D01*
X47842326Y-39657209D01*
X47829964Y-39642034D01*
X47773825Y-39589069D01*
X47771197Y-39586516D01*
X46301909Y-38117228D01*
X46289937Y-38103375D01*
X46275470Y-38083943D01*
X46270154Y-38079482D01*
X46237127Y-38051769D01*
X46229032Y-38044351D01*
X46225101Y-38040420D01*
X46217081Y-38034078D01*
X46200528Y-38020989D01*
X46197690Y-38018677D01*
X46138622Y-37969113D01*
X46122110Y-37958594D01*
X46052205Y-37925996D01*
X46048909Y-37924401D01*
X46043622Y-37921746D01*
X46031954Y-37915886D01*
X45979996Y-37889792D01*
X45961504Y-37883365D01*
X45885942Y-37867762D01*
X45882367Y-37866969D01*
X45807356Y-37849191D01*
X45787885Y-37847202D01*
X45710741Y-37849447D01*
X45707077Y-37849500D01*
X35116441Y-37849500D01*
X35098180Y-37848170D01*
X35074211Y-37844659D01*
X35024353Y-37849021D01*
X35013372Y-37849500D01*
X35007815Y-37849500D01*
X34976708Y-37853135D01*
X34973067Y-37853507D01*
X34896251Y-37860228D01*
X34877139Y-37864465D01*
X34804653Y-37890846D01*
X34801198Y-37892047D01*
X34727995Y-37916305D01*
X34710373Y-37924837D01*
X34645927Y-37967224D01*
X34642838Y-37969192D01*
X34577218Y-38009667D01*
X34562036Y-38022034D01*
X34509087Y-38078156D01*
X34506534Y-38080783D01*
X33037225Y-39550092D01*
X33023377Y-39562061D01*
X33003941Y-39576531D01*
X32971771Y-39614869D01*
X32964357Y-39622961D01*
X32960422Y-39626895D01*
X32940997Y-39651461D01*
X32938688Y-39654294D01*
X32889119Y-39713369D01*
X32878589Y-39729899D01*
X32845995Y-39799794D01*
X32844401Y-39803087D01*
X32809795Y-39871997D01*
X32803363Y-39890500D01*
X32787759Y-39966064D01*
X32786967Y-39969637D01*
X32769192Y-40044640D01*
X32767202Y-40064114D01*
X32769447Y-40141259D01*
X32769500Y-40144923D01*
X32769500Y-44591629D01*
X32759909Y-44639847D01*
X32732595Y-44680724D01*
X31726724Y-45686595D01*
X31685847Y-45713909D01*
X31637629Y-45723500D01*
X24563371Y-45723500D01*
X24503402Y-45708314D01*
X24457888Y-45666415D01*
X24443722Y-45644732D01*
X24291240Y-45479094D01*
X24291239Y-45479093D01*
X24291237Y-45479091D01*
X24113579Y-45340813D01*
X24113577Y-45340812D01*
X24113576Y-45340811D01*
X24080317Y-45322812D01*
X24032047Y-45276498D01*
X24014288Y-45212000D01*
X24032047Y-45147502D01*
X24080317Y-45101187D01*
X24113576Y-45083189D01*
X24291240Y-44944906D01*
X24443722Y-44779268D01*
X24566860Y-44590791D01*
X24645009Y-44412627D01*
X24688598Y-44359699D01*
X24753453Y-44337433D01*
X24820364Y-44352428D01*
X24869514Y-44400241D01*
X24914953Y-44478944D01*
X25015660Y-44590790D01*
X25042741Y-44620866D01*
X25197242Y-44733118D01*
X25371706Y-44810794D01*
X25558507Y-44850500D01*
X25749479Y-44850500D01*
X25749481Y-44850500D01*
X25936282Y-44810794D01*
X26110746Y-44733118D01*
X26110749Y-44733115D01*
X26161997Y-44722223D01*
X26213244Y-44733115D01*
X26213248Y-44733118D01*
X26387712Y-44810794D01*
X26574513Y-44850500D01*
X26765485Y-44850500D01*
X26765487Y-44850500D01*
X26952288Y-44810794D01*
X27126752Y-44733118D01*
X27281253Y-44620866D01*
X27409040Y-44478944D01*
X27504527Y-44313556D01*
X27563542Y-44131928D01*
X27583504Y-43942000D01*
X27563542Y-43752072D01*
X27511038Y-43590482D01*
X27504527Y-43570443D01*
X27409041Y-43405057D01*
X27323201Y-43309722D01*
X27281253Y-43263134D01*
X27275469Y-43258932D01*
X27178003Y-43188118D01*
X27126752Y-43150882D01*
X26952288Y-43073206D01*
X26765487Y-43033500D01*
X26574513Y-43033500D01*
X26387712Y-43073206D01*
X26387710Y-43073206D01*
X26387709Y-43073207D01*
X26213245Y-43150883D01*
X26161997Y-43161776D01*
X26110749Y-43150883D01*
X25936284Y-43073207D01*
X25936282Y-43073206D01*
X25749481Y-43033500D01*
X25558507Y-43033500D01*
X25457998Y-43054864D01*
X25371705Y-43073206D01*
X25310986Y-43100240D01*
X25218434Y-43141447D01*
X25197240Y-43150883D01*
X25042741Y-43263133D01*
X24914953Y-43405056D01*
X24869514Y-43483758D01*
X24820363Y-43531571D01*
X24753453Y-43546566D01*
X24688598Y-43524300D01*
X24645009Y-43471372D01*
X24566860Y-43293209D01*
X24443722Y-43104732D01*
X24300523Y-42949178D01*
X24271287Y-42895575D01*
X24270684Y-42834519D01*
X24298859Y-42780348D01*
X24349188Y-42745787D01*
X24464204Y-42702889D01*
X24581261Y-42615261D01*
X24668889Y-42498204D01*
X24719989Y-42361201D01*
X24726500Y-42300638D01*
X24726500Y-40503362D01*
X24719989Y-40442799D01*
X24668889Y-40305796D01*
X24668888Y-40305794D01*
X24581261Y-40188738D01*
X24464205Y-40101111D01*
X24395702Y-40075560D01*
X24327201Y-40050011D01*
X24266638Y-40043500D01*
X22469362Y-40043500D01*
X22408799Y-40050011D01*
X22271794Y-40101111D01*
X22154738Y-40188738D01*
X22067111Y-40305794D01*
X22016010Y-40442799D01*
X22016011Y-40442799D01*
X22009500Y-40503362D01*
X22009500Y-42300638D01*
X22016011Y-42361201D01*
X22021317Y-42375427D01*
X22067111Y-42498205D01*
X22154738Y-42615261D01*
X22271794Y-42702888D01*
X22271795Y-42702888D01*
X22271796Y-42702889D01*
X22386809Y-42745787D01*
X22437140Y-42780348D01*
X22465315Y-42834519D01*
X22464712Y-42895574D01*
X22435475Y-42949178D01*
X22292281Y-43104728D01*
X22292279Y-43104730D01*
X22292278Y-43104732D01*
X22260795Y-43152920D01*
X22169139Y-43293209D01*
X22078702Y-43499388D01*
X22029927Y-43692000D01*
X22023436Y-43717632D01*
X22004844Y-43942000D01*
X22023436Y-44166368D01*
X22023436Y-44166371D01*
X22023437Y-44166372D01*
X22078702Y-44384611D01*
X22169139Y-44590790D01*
X22240489Y-44699999D01*
X22292278Y-44779268D01*
X22417622Y-44915427D01*
X22444762Y-44944908D01*
X22622418Y-45083185D01*
X22622420Y-45083186D01*
X22622424Y-45083189D01*
X22655682Y-45101187D01*
X22703952Y-45147503D01*
X22721711Y-45212000D01*
X22703952Y-45276497D01*
X22655682Y-45322812D01*
X22630794Y-45336281D01*
X22622418Y-45340814D01*
X22444762Y-45479091D01*
X22292278Y-45644731D01*
X22169139Y-45833209D01*
X22078702Y-46039388D01*
X22024532Y-46253303D01*
X22023436Y-46257632D01*
X22004844Y-46482000D01*
X20025500Y-46482000D01*
X20025500Y-36704000D01*
X23602001Y-36704000D01*
X23602001Y-37419130D01*
X23604810Y-37472036D01*
X23649514Y-37703177D01*
X23732636Y-37923436D01*
X23851787Y-38126481D01*
X24003535Y-38306464D01*
X24183518Y-38458212D01*
X24386563Y-38577363D01*
X24606822Y-38660486D01*
X24837962Y-38705189D01*
X24890871Y-38708000D01*
X25606000Y-38708000D01*
X25606000Y-36704000D01*
X26114000Y-36704000D01*
X26114000Y-38707999D01*
X26829130Y-38707999D01*
X26882036Y-38705189D01*
X27113177Y-38660485D01*
X27333436Y-38577363D01*
X27536481Y-38458212D01*
X27716464Y-38306464D01*
X27868212Y-38126481D01*
X27987363Y-37923436D01*
X28070486Y-37703177D01*
X28115189Y-37472037D01*
X28118000Y-37419129D01*
X28118000Y-36704000D01*
X26114000Y-36704000D01*
X25606000Y-36704000D01*
X23602001Y-36704000D01*
X20025500Y-36704000D01*
X20025500Y-36196000D01*
X23602000Y-36196000D01*
X25606000Y-36196000D01*
X26114000Y-36196000D01*
X28117999Y-36196000D01*
X28117999Y-35480870D01*
X28115189Y-35427963D01*
X28070485Y-35196822D01*
X27987363Y-34976563D01*
X27868212Y-34773518D01*
X27716464Y-34593535D01*
X27536481Y-34441787D01*
X27333436Y-34322636D01*
X27147284Y-34252385D01*
X27091755Y-34211133D01*
X27066372Y-34146784D01*
X27078786Y-34078732D01*
X27125254Y-34027489D01*
X27191772Y-34008500D01*
X30658638Y-34008500D01*
X30719201Y-34001989D01*
X30856204Y-33950889D01*
X30973261Y-33863261D01*
X31060889Y-33746204D01*
X31111989Y-33609201D01*
X31118500Y-33548638D01*
X31118500Y-29951362D01*
X31111989Y-29890799D01*
X31060889Y-29753796D01*
X31060888Y-29753794D01*
X30983189Y-29650000D01*
X83436496Y-29650000D01*
X83456458Y-29839929D01*
X83515472Y-30021556D01*
X83610958Y-30186942D01*
X83610960Y-30186944D01*
X83738747Y-30328866D01*
X83893248Y-30441118D01*
X84067712Y-30518794D01*
X84254513Y-30558500D01*
X84445485Y-30558500D01*
X84445487Y-30558500D01*
X84632288Y-30518794D01*
X84806752Y-30441118D01*
X84961253Y-30328866D01*
X84979437Y-30308670D01*
X85034136Y-30273148D01*
X85099270Y-30269734D01*
X85157384Y-30299345D01*
X85181482Y-30336454D01*
X85183851Y-30335087D01*
X85285958Y-30511942D01*
X85285960Y-30511944D01*
X85413747Y-30653866D01*
X85568248Y-30766118D01*
X85742712Y-30843794D01*
X85929513Y-30883500D01*
X86120485Y-30883500D01*
X86120487Y-30883500D01*
X86307288Y-30843794D01*
X86481752Y-30766118D01*
X86636253Y-30653866D01*
X86764040Y-30511944D01*
X86859527Y-30346556D01*
X86918542Y-30164928D01*
X86938504Y-29975000D01*
X86918542Y-29785072D01*
X86859527Y-29603444D01*
X86859527Y-29603443D01*
X86764041Y-29438057D01*
X86636252Y-29296133D01*
X86481753Y-29183883D01*
X86481752Y-29183882D01*
X86307288Y-29106206D01*
X86120487Y-29066500D01*
X85929513Y-29066500D01*
X85804978Y-29092970D01*
X85742711Y-29106206D01*
X85568246Y-29183883D01*
X85413745Y-29296134D01*
X85395560Y-29316331D01*
X85340856Y-29351853D01*
X85275720Y-29355263D01*
X85217606Y-29325646D01*
X85193518Y-29288544D01*
X85191149Y-29289913D01*
X85089041Y-29113057D01*
X84961252Y-28971133D01*
X84806753Y-28858883D01*
X84806752Y-28858882D01*
X84632288Y-28781206D01*
X84445487Y-28741500D01*
X84254513Y-28741500D01*
X84129978Y-28767970D01*
X84067711Y-28781206D01*
X83893246Y-28858883D01*
X83738747Y-28971133D01*
X83610958Y-29113057D01*
X83515472Y-29278443D01*
X83456458Y-29460070D01*
X83436496Y-29650000D01*
X30983189Y-29650000D01*
X30973261Y-29636738D01*
X30856205Y-29549111D01*
X30787702Y-29523561D01*
X30719201Y-29498011D01*
X30658638Y-29491500D01*
X27061362Y-29491500D01*
X27000799Y-29498011D01*
X26863794Y-29549111D01*
X26746738Y-29636738D01*
X26659111Y-29753794D01*
X26608011Y-29890799D01*
X26601500Y-29951362D01*
X26601500Y-33548638D01*
X26608011Y-33609200D01*
X26659111Y-33746205D01*
X26746738Y-33863261D01*
X26878298Y-33961746D01*
X26876987Y-33963497D01*
X26911647Y-33989059D01*
X26937238Y-34053427D01*
X26924939Y-34121594D01*
X26878467Y-34172960D01*
X26811867Y-34192000D01*
X26114000Y-34192000D01*
X26114000Y-36196000D01*
X25606000Y-36196000D01*
X25606000Y-34192001D01*
X24890870Y-34192001D01*
X24837963Y-34194810D01*
X24606822Y-34239514D01*
X24386563Y-34322636D01*
X24183518Y-34441787D01*
X24003535Y-34593535D01*
X23851787Y-34773518D01*
X23732636Y-34976563D01*
X23649513Y-35196822D01*
X23604810Y-35427962D01*
X23602000Y-35480871D01*
X23602000Y-36196000D01*
X20025500Y-36196000D01*
X20025500Y-32004000D01*
X20852000Y-32004000D01*
X20852000Y-32814605D01*
X20862466Y-32947591D01*
X20917795Y-33167170D01*
X21011444Y-33373344D01*
X21140400Y-33559482D01*
X21300517Y-33719599D01*
X21486655Y-33848555D01*
X21692829Y-33942204D01*
X21912408Y-33997533D01*
X22045395Y-34008000D01*
X22606000Y-34008000D01*
X22606000Y-32004000D01*
X23114000Y-32004000D01*
X23114000Y-34008000D01*
X23674605Y-34008000D01*
X23807591Y-33997533D01*
X24027170Y-33942204D01*
X24233344Y-33848555D01*
X24419482Y-33719599D01*
X24579599Y-33559482D01*
X24708555Y-33373344D01*
X24802204Y-33167170D01*
X24857533Y-32947591D01*
X24868000Y-32814605D01*
X24868000Y-32004000D01*
X23114000Y-32004000D01*
X22606000Y-32004000D01*
X20852000Y-32004000D01*
X20025500Y-32004000D01*
X20025500Y-31496000D01*
X20852000Y-31496000D01*
X22606000Y-31496000D01*
X22606000Y-29492000D01*
X23114000Y-29492000D01*
X23114000Y-31496000D01*
X24868000Y-31496000D01*
X24868000Y-30685395D01*
X24857533Y-30552408D01*
X24802204Y-30332829D01*
X24708555Y-30126655D01*
X24579599Y-29940517D01*
X24419482Y-29780400D01*
X24233344Y-29651444D01*
X24027170Y-29557795D01*
X23807591Y-29502466D01*
X23674605Y-29492000D01*
X23114000Y-29492000D01*
X22606000Y-29492000D01*
X22045395Y-29492000D01*
X21912408Y-29502466D01*
X21692829Y-29557795D01*
X21486655Y-29651444D01*
X21300517Y-29780400D01*
X21140400Y-29940517D01*
X21011444Y-30126655D01*
X20917795Y-30332829D01*
X20862466Y-30552408D01*
X20852000Y-30685395D01*
X20852000Y-31496000D01*
X20025500Y-31496000D01*
X20025500Y-26192522D01*
X22166687Y-26192522D01*
X22290432Y-26296356D01*
X22568571Y-26479291D01*
X22866089Y-26628710D01*
X23178923Y-26742572D01*
X23502876Y-26819350D01*
X23833540Y-26858000D01*
X24166460Y-26858000D01*
X24497123Y-26819350D01*
X24685150Y-26774787D01*
X32314421Y-26774787D01*
X32473608Y-26883320D01*
X32704247Y-26994390D01*
X32948865Y-27069844D01*
X33202006Y-27108000D01*
X33457994Y-27108000D01*
X33711134Y-27069844D01*
X33955752Y-26994390D01*
X34186392Y-26883320D01*
X34345578Y-26774787D01*
X33330001Y-25759210D01*
X33329999Y-25759210D01*
X32314421Y-26774786D01*
X32314421Y-26774787D01*
X24685150Y-26774787D01*
X24821076Y-26742572D01*
X25133910Y-26628710D01*
X25431428Y-26479291D01*
X25709567Y-26296356D01*
X25833311Y-26192521D01*
X24000001Y-24359210D01*
X23999999Y-24359210D01*
X22166687Y-26192521D01*
X22166687Y-26192522D01*
X20025500Y-26192522D01*
X20025500Y-24002921D01*
X20025567Y-24000000D01*
X21137156Y-24000000D01*
X21156515Y-24332356D01*
X21214325Y-24660215D01*
X21309809Y-24979154D01*
X21441669Y-25284842D01*
X21608127Y-25573153D01*
X21804226Y-25836562D01*
X23640789Y-24000001D01*
X24359210Y-24000001D01*
X26195772Y-25836562D01*
X26195773Y-25836562D01*
X26391872Y-25573154D01*
X26491844Y-25399999D01*
X31617211Y-25399999D01*
X31636341Y-25655279D01*
X31693305Y-25904854D01*
X31786830Y-26143151D01*
X31914827Y-26364848D01*
X31955250Y-26415537D01*
X31955252Y-26415537D01*
X32970790Y-25400001D01*
X33689210Y-25400001D01*
X34704747Y-26415538D01*
X34704748Y-26415537D01*
X34745172Y-26364850D01*
X34873169Y-26143151D01*
X34878210Y-26130309D01*
X34919923Y-26075525D01*
X34984206Y-26050849D01*
X35051862Y-26063651D01*
X35102686Y-26110106D01*
X35121500Y-26176342D01*
X35121500Y-26648638D01*
X35128011Y-26709200D01*
X35179111Y-26846205D01*
X35266738Y-26963261D01*
X35383794Y-27050888D01*
X35383795Y-27050888D01*
X35383796Y-27050889D01*
X35520799Y-27101989D01*
X35581362Y-27108500D01*
X38078638Y-27108500D01*
X38139201Y-27101989D01*
X38276204Y-27050889D01*
X38393261Y-26963261D01*
X38480889Y-26846204D01*
X38531989Y-26709201D01*
X38538500Y-26648638D01*
X38538500Y-26192522D01*
X109166687Y-26192522D01*
X109290432Y-26296356D01*
X109568571Y-26479291D01*
X109866089Y-26628710D01*
X110178923Y-26742572D01*
X110502876Y-26819350D01*
X110833540Y-26858000D01*
X111166460Y-26858000D01*
X111497123Y-26819350D01*
X111821076Y-26742572D01*
X112133910Y-26628710D01*
X112431428Y-26479291D01*
X112709567Y-26296356D01*
X112833311Y-26192521D01*
X111000001Y-24359210D01*
X110999999Y-24359210D01*
X109166687Y-26192521D01*
X109166687Y-26192522D01*
X38538500Y-26192522D01*
X38538500Y-24151362D01*
X38531989Y-24090799D01*
X38498122Y-23999999D01*
X108137156Y-23999999D01*
X108156515Y-24332356D01*
X108214325Y-24660215D01*
X108309809Y-24979154D01*
X108441669Y-25284842D01*
X108608127Y-25573153D01*
X108804226Y-25836562D01*
X110640789Y-24000001D01*
X110640789Y-24000000D01*
X111359210Y-24000000D01*
X113195772Y-25836562D01*
X113195773Y-25836562D01*
X113391872Y-25573154D01*
X113558330Y-25284842D01*
X113690190Y-24979154D01*
X113785674Y-24660215D01*
X113843484Y-24332356D01*
X113862843Y-23999999D01*
X113843484Y-23667643D01*
X113785674Y-23339784D01*
X113690190Y-23020845D01*
X113558330Y-22715157D01*
X113391872Y-22426846D01*
X113195772Y-22163436D01*
X111359210Y-23999998D01*
X111359210Y-24000000D01*
X110640789Y-24000000D01*
X110640789Y-23999999D01*
X108804226Y-22163436D01*
X108804225Y-22163436D01*
X108608129Y-22426842D01*
X108441669Y-22715157D01*
X108309809Y-23020845D01*
X108214325Y-23339784D01*
X108156515Y-23667643D01*
X108137156Y-23999999D01*
X38498122Y-23999999D01*
X38480889Y-23953796D01*
X38480888Y-23953794D01*
X38393261Y-23836738D01*
X38276205Y-23749111D01*
X38207702Y-23723560D01*
X38139201Y-23698011D01*
X38078638Y-23691500D01*
X35581362Y-23691500D01*
X35520799Y-23698011D01*
X35383794Y-23749111D01*
X35266738Y-23836738D01*
X35179111Y-23953794D01*
X35128011Y-24090799D01*
X35121500Y-24151362D01*
X35121500Y-24623658D01*
X35102686Y-24689894D01*
X35051862Y-24736349D01*
X34984206Y-24749151D01*
X34919923Y-24724475D01*
X34878210Y-24669691D01*
X34873169Y-24656848D01*
X34745172Y-24435150D01*
X34704748Y-24384461D01*
X34704747Y-24384460D01*
X33689210Y-25399999D01*
X33689210Y-25400001D01*
X32970790Y-25400001D01*
X32970790Y-25399999D01*
X31955252Y-24384461D01*
X31955250Y-24384461D01*
X31914827Y-24435151D01*
X31786830Y-24656848D01*
X31693305Y-24895145D01*
X31636341Y-25144720D01*
X31617211Y-25399999D01*
X26491844Y-25399999D01*
X26558330Y-25284842D01*
X26690190Y-24979154D01*
X26785674Y-24660215D01*
X26843484Y-24332356D01*
X26861374Y-24025212D01*
X32314421Y-24025212D01*
X33329999Y-25040790D01*
X33330001Y-25040790D01*
X34345578Y-24025211D01*
X34186392Y-23916679D01*
X33955752Y-23805609D01*
X33711134Y-23730155D01*
X33457994Y-23692000D01*
X33202006Y-23692000D01*
X32948865Y-23730155D01*
X32704247Y-23805609D01*
X32473606Y-23916681D01*
X32314421Y-24025210D01*
X32314421Y-24025212D01*
X26861374Y-24025212D01*
X26862843Y-24000000D01*
X26843484Y-23667643D01*
X26785674Y-23339784D01*
X26690190Y-23020845D01*
X26681198Y-22999999D01*
X68086496Y-22999999D01*
X68106458Y-23189929D01*
X68165472Y-23371556D01*
X68260958Y-23536942D01*
X68260960Y-23536944D01*
X68388747Y-23678866D01*
X68543248Y-23791118D01*
X68717712Y-23868794D01*
X68904513Y-23908500D01*
X69095485Y-23908500D01*
X69095487Y-23908500D01*
X69282288Y-23868794D01*
X69456752Y-23791118D01*
X69611253Y-23678866D01*
X69739040Y-23536944D01*
X69834527Y-23371556D01*
X69893542Y-23189928D01*
X69913504Y-23000000D01*
X69893542Y-22810072D01*
X69834527Y-22628444D01*
X69834527Y-22628443D01*
X69739041Y-22463057D01*
X69611252Y-22321133D01*
X69483634Y-22228413D01*
X69456752Y-22208882D01*
X69282288Y-22131206D01*
X69095487Y-22091500D01*
X68904513Y-22091500D01*
X68779978Y-22117970D01*
X68717711Y-22131206D01*
X68543246Y-22208883D01*
X68388747Y-22321133D01*
X68260958Y-22463057D01*
X68165472Y-22628443D01*
X68106458Y-22810070D01*
X68086496Y-22999999D01*
X26681198Y-22999999D01*
X26558330Y-22715157D01*
X26391872Y-22426846D01*
X26195772Y-22163436D01*
X24359210Y-23999999D01*
X24359210Y-24000001D01*
X23640789Y-24000001D01*
X23640789Y-23999999D01*
X21804226Y-22163436D01*
X21804225Y-22163436D01*
X21608129Y-22426842D01*
X21441669Y-22715157D01*
X21309809Y-23020845D01*
X21214325Y-23339784D01*
X21156515Y-23667643D01*
X21137156Y-24000000D01*
X20025567Y-24000000D01*
X20025634Y-23997102D01*
X20042186Y-23639095D01*
X20043260Y-23627507D01*
X20083395Y-23339784D01*
X20092370Y-23275439D01*
X20094504Y-23264028D01*
X20175892Y-22917987D01*
X20179075Y-22906802D01*
X20211496Y-22810072D01*
X20292043Y-22569751D01*
X20296234Y-22558934D01*
X20439831Y-22233715D01*
X20444997Y-22223341D01*
X20617980Y-21912778D01*
X20624092Y-21902905D01*
X20689462Y-21807477D01*
X22166687Y-21807477D01*
X23999999Y-23640789D01*
X24000000Y-23640789D01*
X25833311Y-21807476D01*
X25709567Y-21703643D01*
X25431428Y-21520708D01*
X25191078Y-21400000D01*
X47686496Y-21400000D01*
X47706458Y-21589929D01*
X47765472Y-21771556D01*
X47860958Y-21936942D01*
X47860960Y-21936944D01*
X47988747Y-22078866D01*
X48143248Y-22191118D01*
X48317712Y-22268794D01*
X48504513Y-22308500D01*
X48695485Y-22308500D01*
X48695487Y-22308500D01*
X48882288Y-22268794D01*
X49048756Y-22194677D01*
X49100000Y-22183786D01*
X49151243Y-22194677D01*
X49317712Y-22268794D01*
X49504513Y-22308500D01*
X49695485Y-22308500D01*
X49695487Y-22308500D01*
X49882288Y-22268794D01*
X50048756Y-22194677D01*
X50100000Y-22183786D01*
X50151243Y-22194677D01*
X50317712Y-22268794D01*
X50504513Y-22308500D01*
X50695485Y-22308500D01*
X50695487Y-22308500D01*
X50882288Y-22268794D01*
X51056752Y-22191118D01*
X51211253Y-22078866D01*
X51339040Y-21936944D01*
X51413788Y-21807477D01*
X109166687Y-21807477D01*
X110999999Y-23640789D01*
X111000000Y-23640789D01*
X112833311Y-21807476D01*
X112709567Y-21703643D01*
X112431428Y-21520708D01*
X112133910Y-21371289D01*
X111821076Y-21257427D01*
X111497123Y-21180649D01*
X111166460Y-21142000D01*
X110833540Y-21142000D01*
X110502876Y-21180649D01*
X110178923Y-21257427D01*
X109866089Y-21371289D01*
X109568571Y-21520708D01*
X109290433Y-21703643D01*
X109166687Y-21807477D01*
X51413788Y-21807477D01*
X51434527Y-21771556D01*
X51493542Y-21589928D01*
X51513504Y-21400000D01*
X51493542Y-21210072D01*
X51434527Y-21028444D01*
X51434527Y-21028443D01*
X51339041Y-20863057D01*
X51211252Y-20721133D01*
X51099999Y-20640303D01*
X51056752Y-20608882D01*
X50882288Y-20531206D01*
X50695487Y-20491500D01*
X50504513Y-20491500D01*
X50317712Y-20531206D01*
X50317710Y-20531206D01*
X50317709Y-20531207D01*
X50151247Y-20605320D01*
X50099999Y-20616213D01*
X50048753Y-20605320D01*
X49882288Y-20531206D01*
X49695487Y-20491500D01*
X49504513Y-20491500D01*
X49317712Y-20531206D01*
X49317710Y-20531206D01*
X49317709Y-20531207D01*
X49151247Y-20605320D01*
X49099999Y-20616213D01*
X49048753Y-20605320D01*
X48882288Y-20531206D01*
X48695487Y-20491500D01*
X48504513Y-20491500D01*
X48379978Y-20517970D01*
X48317711Y-20531206D01*
X48177696Y-20593544D01*
X48151249Y-20605320D01*
X48143246Y-20608883D01*
X47988747Y-20721133D01*
X47860958Y-20863057D01*
X47765472Y-21028443D01*
X47706458Y-21210070D01*
X47686496Y-21400000D01*
X25191078Y-21400000D01*
X25133910Y-21371289D01*
X24821076Y-21257427D01*
X24497123Y-21180649D01*
X24166460Y-21142000D01*
X23833540Y-21142000D01*
X23502876Y-21180649D01*
X23178923Y-21257427D01*
X22866089Y-21371289D01*
X22568571Y-21520708D01*
X22290433Y-21703643D01*
X22166687Y-21807477D01*
X20689462Y-21807477D01*
X20825003Y-21609612D01*
X20831985Y-21600367D01*
X21059102Y-21326860D01*
X21066923Y-21318282D01*
X21318282Y-21066923D01*
X21326860Y-21059102D01*
X21600367Y-20831985D01*
X21609612Y-20825003D01*
X21902905Y-20624092D01*
X21912778Y-20617980D01*
X22223341Y-20444997D01*
X22233715Y-20439831D01*
X22558934Y-20296234D01*
X22569751Y-20292043D01*
X22906811Y-20179072D01*
X22917987Y-20175892D01*
X23264028Y-20094504D01*
X23275439Y-20092370D01*
X23627510Y-20043259D01*
X23639092Y-20042186D01*
X23997101Y-20025634D01*
X24002921Y-20025500D01*
X24008285Y-20025500D01*
X110991715Y-20025500D01*
X110997079Y-20025500D01*
X111002898Y-20025634D01*
G37*
G04 #@! TD.AperFunction*
M02*
