G04 #@! TF.GenerationSoftware,KiCad,Pcbnew,5.1.9+dfsg1-1~bpo10+1*
G04 #@! TF.CreationDate,2021-11-09T16:35:55+00:00*
G04 #@! TF.ProjectId,PowerDistribution,506f7765-7244-4697-9374-726962757469,v1.0.0-RC2*
G04 #@! TF.SameCoordinates,Original*
G04 #@! TF.FileFunction,Soldermask,Top*
G04 #@! TF.FilePolarity,Negative*
%FSLAX46Y46*%
G04 Gerber Fmt 4.6, Leading zero omitted, Abs format (unit mm)*
G04 Created by KiCad (PCBNEW 5.1.9+dfsg1-1~bpo10+1) date 2021-11-09 16:35:55*
%MOMM*%
%LPD*%
G01*
G04 APERTURE LIST*
%ADD10C,0.100000*%
%ADD11R,1.840000X0.900000*%
%ADD12R,1.900000X0.900000*%
%ADD13R,1.220000X1.150000*%
%ADD14C,2.400000*%
%ADD15R,2.400000X2.400000*%
%ADD16C,4.700000*%
%ADD17O,1.950000X1.700000*%
%ADD18R,1.800000X2.500000*%
%ADD19R,1.000000X1.000000*%
%ADD20R,0.800000X0.900000*%
%ADD21R,4.100000X3.500000*%
%ADD22R,3.500000X3.500000*%
%ADD23R,1.500000X2.000000*%
%ADD24R,3.800000X2.000000*%
%ADD25O,1.700000X1.700000*%
%ADD26R,1.700000X1.700000*%
%ADD27R,2.000000X1.780000*%
%ADD28R,0.900000X0.800000*%
%ADD29O,2.000000X1.700000*%
G04 APERTURE END LIST*
G36*
G01*
X51150000Y-33675001D02*
X51150000Y-32824999D01*
G75*
G02*
X51399999Y-32575000I249999J0D01*
G01*
X52300001Y-32575000D01*
G75*
G02*
X52550000Y-32824999I0J-249999D01*
G01*
X52550000Y-33675001D01*
G75*
G02*
X52300001Y-33925000I-249999J0D01*
G01*
X51399999Y-33925000D01*
G75*
G02*
X51150000Y-33675001I0J249999D01*
G01*
G37*
G36*
G01*
X48450000Y-33675001D02*
X48450000Y-32824999D01*
G75*
G02*
X48699999Y-32575000I249999J0D01*
G01*
X49600001Y-32575000D01*
G75*
G02*
X49850000Y-32824999I0J-249999D01*
G01*
X49850000Y-33675001D01*
G75*
G02*
X49600001Y-33925000I-249999J0D01*
G01*
X48699999Y-33925000D01*
G75*
G02*
X48450000Y-33675001I0J249999D01*
G01*
G37*
G36*
G01*
X50300000Y-51550000D02*
X49200000Y-51550000D01*
G75*
G02*
X48950000Y-51300000I0J250000D01*
G01*
X48950000Y-48300000D01*
G75*
G02*
X49200000Y-48050000I250000J0D01*
G01*
X50300000Y-48050000D01*
G75*
G02*
X50550000Y-48300000I0J-250000D01*
G01*
X50550000Y-51300000D01*
G75*
G02*
X50300000Y-51550000I-250000J0D01*
G01*
G37*
G36*
G01*
X50300000Y-56950000D02*
X49200000Y-56950000D01*
G75*
G02*
X48950000Y-56700000I0J250000D01*
G01*
X48950000Y-53700000D01*
G75*
G02*
X49200000Y-53450000I250000J0D01*
G01*
X50300000Y-53450000D01*
G75*
G02*
X50550000Y-53700000I0J-250000D01*
G01*
X50550000Y-56700000D01*
G75*
G02*
X50300000Y-56950000I-250000J0D01*
G01*
G37*
G36*
G01*
X38950000Y-41200000D02*
X40050000Y-41200000D01*
G75*
G02*
X40300000Y-41450000I0J-250000D01*
G01*
X40300000Y-44450000D01*
G75*
G02*
X40050000Y-44700000I-250000J0D01*
G01*
X38950000Y-44700000D01*
G75*
G02*
X38700000Y-44450000I0J250000D01*
G01*
X38700000Y-41450000D01*
G75*
G02*
X38950000Y-41200000I250000J0D01*
G01*
G37*
G36*
G01*
X38950000Y-35800000D02*
X40050000Y-35800000D01*
G75*
G02*
X40300000Y-36050000I0J-250000D01*
G01*
X40300000Y-39050000D01*
G75*
G02*
X40050000Y-39300000I-250000J0D01*
G01*
X38950000Y-39300000D01*
G75*
G02*
X38700000Y-39050000I0J250000D01*
G01*
X38700000Y-36050000D01*
G75*
G02*
X38950000Y-35800000I250000J0D01*
G01*
G37*
G36*
G01*
X49200000Y-41200000D02*
X50300000Y-41200000D01*
G75*
G02*
X50550000Y-41450000I0J-250000D01*
G01*
X50550000Y-44450000D01*
G75*
G02*
X50300000Y-44700000I-250000J0D01*
G01*
X49200000Y-44700000D01*
G75*
G02*
X48950000Y-44450000I0J250000D01*
G01*
X48950000Y-41450000D01*
G75*
G02*
X49200000Y-41200000I250000J0D01*
G01*
G37*
G36*
G01*
X49200000Y-35800000D02*
X50300000Y-35800000D01*
G75*
G02*
X50550000Y-36050000I0J-250000D01*
G01*
X50550000Y-39050000D01*
G75*
G02*
X50300000Y-39300000I-250000J0D01*
G01*
X49200000Y-39300000D01*
G75*
G02*
X48950000Y-39050000I0J250000D01*
G01*
X48950000Y-36050000D01*
G75*
G02*
X49200000Y-35800000I250000J0D01*
G01*
G37*
D10*
G36*
X37750000Y-47300000D02*
G01*
X37750000Y-47800000D01*
X37749398Y-47800000D01*
X37749398Y-47824534D01*
X37744588Y-47873365D01*
X37735016Y-47921490D01*
X37720772Y-47968445D01*
X37701995Y-48013778D01*
X37678864Y-48057051D01*
X37651604Y-48097850D01*
X37620476Y-48135779D01*
X37585779Y-48170476D01*
X37547850Y-48201604D01*
X37507051Y-48228864D01*
X37463778Y-48251995D01*
X37418445Y-48270772D01*
X37371490Y-48285016D01*
X37323365Y-48294588D01*
X37274534Y-48299398D01*
X37250000Y-48299398D01*
X37250000Y-48300000D01*
X36750000Y-48300000D01*
X36750000Y-48299398D01*
X36725466Y-48299398D01*
X36676635Y-48294588D01*
X36628510Y-48285016D01*
X36581555Y-48270772D01*
X36536222Y-48251995D01*
X36492949Y-48228864D01*
X36452150Y-48201604D01*
X36414221Y-48170476D01*
X36379524Y-48135779D01*
X36348396Y-48097850D01*
X36321136Y-48057051D01*
X36298005Y-48013778D01*
X36279228Y-47968445D01*
X36264984Y-47921490D01*
X36255412Y-47873365D01*
X36250602Y-47824534D01*
X36250602Y-47800000D01*
X36250000Y-47800000D01*
X36250000Y-47300000D01*
X37750000Y-47300000D01*
G37*
G36*
X36250602Y-46500000D02*
G01*
X36250602Y-46475466D01*
X36255412Y-46426635D01*
X36264984Y-46378510D01*
X36279228Y-46331555D01*
X36298005Y-46286222D01*
X36321136Y-46242949D01*
X36348396Y-46202150D01*
X36379524Y-46164221D01*
X36414221Y-46129524D01*
X36452150Y-46098396D01*
X36492949Y-46071136D01*
X36536222Y-46048005D01*
X36581555Y-46029228D01*
X36628510Y-46014984D01*
X36676635Y-46005412D01*
X36725466Y-46000602D01*
X36750000Y-46000602D01*
X36750000Y-46000000D01*
X37250000Y-46000000D01*
X37250000Y-46000602D01*
X37274534Y-46000602D01*
X37323365Y-46005412D01*
X37371490Y-46014984D01*
X37418445Y-46029228D01*
X37463778Y-46048005D01*
X37507051Y-46071136D01*
X37547850Y-46098396D01*
X37585779Y-46129524D01*
X37620476Y-46164221D01*
X37651604Y-46202150D01*
X37678864Y-46242949D01*
X37701995Y-46286222D01*
X37720772Y-46331555D01*
X37735016Y-46378510D01*
X37744588Y-46426635D01*
X37749398Y-46475466D01*
X37749398Y-46500000D01*
X37750000Y-46500000D01*
X37750000Y-47000000D01*
X36250000Y-47000000D01*
X36250000Y-46500000D01*
X36250602Y-46500000D01*
G37*
D11*
X37250000Y-53700000D03*
D12*
X37250000Y-51300000D03*
D11*
X43250000Y-53700000D03*
X43250000Y-51300000D03*
G36*
G01*
X36372500Y-31759998D02*
X36372500Y-33010002D01*
G75*
G02*
X36122502Y-33260000I-249998J0D01*
G01*
X35497498Y-33260000D01*
G75*
G02*
X35247500Y-33010002I0J249998D01*
G01*
X35247500Y-31759998D01*
G75*
G02*
X35497498Y-31510000I249998J0D01*
G01*
X36122502Y-31510000D01*
G75*
G02*
X36372500Y-31759998I0J-249998D01*
G01*
G37*
G36*
G01*
X39297500Y-31759998D02*
X39297500Y-33010002D01*
G75*
G02*
X39047502Y-33260000I-249998J0D01*
G01*
X38422498Y-33260000D01*
G75*
G02*
X38172500Y-33010002I0J249998D01*
G01*
X38172500Y-31759998D01*
G75*
G02*
X38422498Y-31510000I249998J0D01*
G01*
X39047502Y-31510000D01*
G75*
G02*
X39297500Y-31759998I0J-249998D01*
G01*
G37*
D13*
X32800000Y-31825000D03*
X32800000Y-34925000D03*
D14*
X33330000Y-25400000D03*
D15*
X36830000Y-25400000D03*
G36*
G01*
X34915000Y-60690000D02*
X33665000Y-60690000D01*
G75*
G02*
X33415000Y-60440000I0J250000D01*
G01*
X33415000Y-59690000D01*
G75*
G02*
X33665000Y-59440000I250000J0D01*
G01*
X34915000Y-59440000D01*
G75*
G02*
X35165000Y-59690000I0J-250000D01*
G01*
X35165000Y-60440000D01*
G75*
G02*
X34915000Y-60690000I-250000J0D01*
G01*
G37*
G36*
G01*
X34915000Y-63490000D02*
X33665000Y-63490000D01*
G75*
G02*
X33415000Y-63240000I0J250000D01*
G01*
X33415000Y-62490000D01*
G75*
G02*
X33665000Y-62240000I250000J0D01*
G01*
X34915000Y-62240000D01*
G75*
G02*
X35165000Y-62490000I0J-250000D01*
G01*
X35165000Y-63240000D01*
G75*
G02*
X34915000Y-63490000I-250000J0D01*
G01*
G37*
D14*
X41600000Y-60960000D03*
D15*
X38100000Y-60960000D03*
D14*
X93035000Y-60960000D03*
D15*
X89535000Y-60960000D03*
D14*
X70810000Y-60960000D03*
D15*
X67310000Y-60960000D03*
D13*
X27940000Y-40868000D03*
X27940000Y-43968000D03*
D16*
X24000000Y-24000000D03*
D10*
G36*
X77866000Y-44716602D02*
G01*
X77890534Y-44716602D01*
X77939365Y-44721412D01*
X77987490Y-44730984D01*
X78034445Y-44745228D01*
X78079778Y-44764005D01*
X78123051Y-44787136D01*
X78163850Y-44814396D01*
X78201779Y-44845524D01*
X78236476Y-44880221D01*
X78267604Y-44918150D01*
X78294864Y-44958949D01*
X78317995Y-45002222D01*
X78336772Y-45047555D01*
X78351016Y-45094510D01*
X78360588Y-45142635D01*
X78365398Y-45191466D01*
X78365398Y-45216000D01*
X78366000Y-45216000D01*
X78366000Y-45716000D01*
X78365398Y-45716000D01*
X78365398Y-45740534D01*
X78360588Y-45789365D01*
X78351016Y-45837490D01*
X78336772Y-45884445D01*
X78317995Y-45929778D01*
X78294864Y-45973051D01*
X78267604Y-46013850D01*
X78236476Y-46051779D01*
X78201779Y-46086476D01*
X78163850Y-46117604D01*
X78123051Y-46144864D01*
X78079778Y-46167995D01*
X78034445Y-46186772D01*
X77987490Y-46201016D01*
X77939365Y-46210588D01*
X77890534Y-46215398D01*
X77866000Y-46215398D01*
X77866000Y-46216000D01*
X77366000Y-46216000D01*
X77366000Y-44716000D01*
X77866000Y-44716000D01*
X77866000Y-44716602D01*
G37*
G36*
X77066000Y-46216000D02*
G01*
X76566000Y-46216000D01*
X76566000Y-46215398D01*
X76541466Y-46215398D01*
X76492635Y-46210588D01*
X76444510Y-46201016D01*
X76397555Y-46186772D01*
X76352222Y-46167995D01*
X76308949Y-46144864D01*
X76268150Y-46117604D01*
X76230221Y-46086476D01*
X76195524Y-46051779D01*
X76164396Y-46013850D01*
X76137136Y-45973051D01*
X76114005Y-45929778D01*
X76095228Y-45884445D01*
X76080984Y-45837490D01*
X76071412Y-45789365D01*
X76066602Y-45740534D01*
X76066602Y-45716000D01*
X76066000Y-45716000D01*
X76066000Y-45216000D01*
X76066602Y-45216000D01*
X76066602Y-45191466D01*
X76071412Y-45142635D01*
X76080984Y-45094510D01*
X76095228Y-45047555D01*
X76114005Y-45002222D01*
X76137136Y-44958949D01*
X76164396Y-44918150D01*
X76195524Y-44880221D01*
X76230221Y-44845524D01*
X76268150Y-44814396D01*
X76308949Y-44787136D01*
X76352222Y-44764005D01*
X76397555Y-44745228D01*
X76444510Y-44730984D01*
X76492635Y-44721412D01*
X76541466Y-44716602D01*
X76566000Y-44716602D01*
X76566000Y-44716000D01*
X77066000Y-44716000D01*
X77066000Y-46216000D01*
G37*
D17*
X107000000Y-39500000D03*
X107000000Y-42000000D03*
X107000000Y-44500000D03*
G36*
G01*
X107725000Y-47850000D02*
X106275000Y-47850000D01*
G75*
G02*
X106025000Y-47600000I0J250000D01*
G01*
X106025000Y-46400000D01*
G75*
G02*
X106275000Y-46150000I250000J0D01*
G01*
X107725000Y-46150000D01*
G75*
G02*
X107975000Y-46400000I0J-250000D01*
G01*
X107975000Y-47600000D01*
G75*
G02*
X107725000Y-47850000I-250000J0D01*
G01*
G37*
D18*
X70612000Y-27051500D03*
X70612000Y-31051500D03*
D19*
X76000000Y-53250000D03*
X76000000Y-50750000D03*
G36*
G01*
X43637500Y-25025001D02*
X43637500Y-23774999D01*
G75*
G02*
X43887499Y-23525000I249999J0D01*
G01*
X44512501Y-23525000D01*
G75*
G02*
X44762500Y-23774999I0J-249999D01*
G01*
X44762500Y-25025001D01*
G75*
G02*
X44512501Y-25275000I-249999J0D01*
G01*
X43887499Y-25275000D01*
G75*
G02*
X43637500Y-25025001I0J249999D01*
G01*
G37*
G36*
G01*
X40712500Y-25025001D02*
X40712500Y-23774999D01*
G75*
G02*
X40962499Y-23525000I249999J0D01*
G01*
X41587501Y-23525000D01*
G75*
G02*
X41837500Y-23774999I0J-249999D01*
G01*
X41837500Y-25025001D01*
G75*
G02*
X41587501Y-25275000I-249999J0D01*
G01*
X40962499Y-25275000D01*
G75*
G02*
X40712500Y-25025001I0J249999D01*
G01*
G37*
G36*
G01*
X46637500Y-28274999D02*
X46637500Y-29525001D01*
G75*
G02*
X46387501Y-29775000I-249999J0D01*
G01*
X45762499Y-29775000D01*
G75*
G02*
X45512500Y-29525001I0J249999D01*
G01*
X45512500Y-28274999D01*
G75*
G02*
X45762499Y-28025000I249999J0D01*
G01*
X46387501Y-28025000D01*
G75*
G02*
X46637500Y-28274999I0J-249999D01*
G01*
G37*
G36*
G01*
X49562500Y-28274999D02*
X49562500Y-29525001D01*
G75*
G02*
X49312501Y-29775000I-249999J0D01*
G01*
X48687499Y-29775000D01*
G75*
G02*
X48437500Y-29525001I0J249999D01*
G01*
X48437500Y-28274999D01*
G75*
G02*
X48687499Y-28025000I249999J0D01*
G01*
X49312501Y-28025000D01*
G75*
G02*
X49562500Y-28274999I0J-249999D01*
G01*
G37*
D20*
X42300000Y-26900000D03*
X43250000Y-28900000D03*
X41350000Y-28900000D03*
D16*
X111000000Y-24000000D03*
X111000000Y-62000000D03*
X24000000Y-62000000D03*
D21*
X75000000Y-38400000D03*
X65500000Y-38400000D03*
G36*
G01*
X58374999Y-42437500D02*
X59625001Y-42437500D01*
G75*
G02*
X59875000Y-42687499I0J-249999D01*
G01*
X59875000Y-43312501D01*
G75*
G02*
X59625001Y-43562500I-249999J0D01*
G01*
X58374999Y-43562500D01*
G75*
G02*
X58125000Y-43312501I0J249999D01*
G01*
X58125000Y-42687499D01*
G75*
G02*
X58374999Y-42437500I249999J0D01*
G01*
G37*
G36*
G01*
X58374999Y-39512500D02*
X59625001Y-39512500D01*
G75*
G02*
X59875000Y-39762499I0J-249999D01*
G01*
X59875000Y-40387501D01*
G75*
G02*
X59625001Y-40637500I-249999J0D01*
G01*
X58374999Y-40637500D01*
G75*
G02*
X58125000Y-40387501I0J249999D01*
G01*
X58125000Y-39762499D01*
G75*
G02*
X58374999Y-39512500I249999J0D01*
G01*
G37*
G36*
G01*
X61187500Y-48625001D02*
X61187500Y-47374999D01*
G75*
G02*
X61437499Y-47125000I249999J0D01*
G01*
X62062501Y-47125000D01*
G75*
G02*
X62312500Y-47374999I0J-249999D01*
G01*
X62312500Y-48625001D01*
G75*
G02*
X62062501Y-48875000I-249999J0D01*
G01*
X61437499Y-48875000D01*
G75*
G02*
X61187500Y-48625001I0J249999D01*
G01*
G37*
G36*
G01*
X58262500Y-48625001D02*
X58262500Y-47374999D01*
G75*
G02*
X58512499Y-47125000I249999J0D01*
G01*
X59137501Y-47125000D01*
G75*
G02*
X59387500Y-47374999I0J-249999D01*
G01*
X59387500Y-48625001D01*
G75*
G02*
X59137501Y-48875000I-249999J0D01*
G01*
X58512499Y-48875000D01*
G75*
G02*
X58262500Y-48625001I0J249999D01*
G01*
G37*
G36*
G01*
X57375001Y-48562500D02*
X56124999Y-48562500D01*
G75*
G02*
X55875000Y-48312501I0J249999D01*
G01*
X55875000Y-47687499D01*
G75*
G02*
X56124999Y-47437500I249999J0D01*
G01*
X57375001Y-47437500D01*
G75*
G02*
X57625000Y-47687499I0J-249999D01*
G01*
X57625000Y-48312501D01*
G75*
G02*
X57375001Y-48562500I-249999J0D01*
G01*
G37*
G36*
G01*
X57375001Y-51487500D02*
X56124999Y-51487500D01*
G75*
G02*
X55875000Y-51237501I0J249999D01*
G01*
X55875000Y-50612499D01*
G75*
G02*
X56124999Y-50362500I249999J0D01*
G01*
X57375001Y-50362500D01*
G75*
G02*
X57625000Y-50612499I0J-249999D01*
G01*
X57625000Y-51237501D01*
G75*
G02*
X57375001Y-51487500I-249999J0D01*
G01*
G37*
G36*
G01*
X66325000Y-47349999D02*
X66325000Y-48650001D01*
G75*
G02*
X66075001Y-48900000I-249999J0D01*
G01*
X65424999Y-48900000D01*
G75*
G02*
X65175000Y-48650001I0J249999D01*
G01*
X65175000Y-47349999D01*
G75*
G02*
X65424999Y-47100000I249999J0D01*
G01*
X66075001Y-47100000D01*
G75*
G02*
X66325000Y-47349999I0J-249999D01*
G01*
G37*
G36*
G01*
X69275000Y-47349999D02*
X69275000Y-48650001D01*
G75*
G02*
X69025001Y-48900000I-249999J0D01*
G01*
X68374999Y-48900000D01*
G75*
G02*
X68125000Y-48650001I0J249999D01*
G01*
X68125000Y-47349999D01*
G75*
G02*
X68374999Y-47100000I249999J0D01*
G01*
X69025001Y-47100000D01*
G75*
G02*
X69275000Y-47349999I0J-249999D01*
G01*
G37*
G36*
G01*
X63005000Y-32750000D02*
X63305000Y-32750000D01*
G75*
G02*
X63455000Y-32900000I0J-150000D01*
G01*
X63455000Y-34550000D01*
G75*
G02*
X63305000Y-34700000I-150000J0D01*
G01*
X63005000Y-34700000D01*
G75*
G02*
X62855000Y-34550000I0J150000D01*
G01*
X62855000Y-32900000D01*
G75*
G02*
X63005000Y-32750000I150000J0D01*
G01*
G37*
G36*
G01*
X61735000Y-32750000D02*
X62035000Y-32750000D01*
G75*
G02*
X62185000Y-32900000I0J-150000D01*
G01*
X62185000Y-34550000D01*
G75*
G02*
X62035000Y-34700000I-150000J0D01*
G01*
X61735000Y-34700000D01*
G75*
G02*
X61585000Y-34550000I0J150000D01*
G01*
X61585000Y-32900000D01*
G75*
G02*
X61735000Y-32750000I150000J0D01*
G01*
G37*
G36*
G01*
X60465000Y-32750000D02*
X60765000Y-32750000D01*
G75*
G02*
X60915000Y-32900000I0J-150000D01*
G01*
X60915000Y-34550000D01*
G75*
G02*
X60765000Y-34700000I-150000J0D01*
G01*
X60465000Y-34700000D01*
G75*
G02*
X60315000Y-34550000I0J150000D01*
G01*
X60315000Y-32900000D01*
G75*
G02*
X60465000Y-32750000I150000J0D01*
G01*
G37*
G36*
G01*
X59195000Y-32750000D02*
X59495000Y-32750000D01*
G75*
G02*
X59645000Y-32900000I0J-150000D01*
G01*
X59645000Y-34550000D01*
G75*
G02*
X59495000Y-34700000I-150000J0D01*
G01*
X59195000Y-34700000D01*
G75*
G02*
X59045000Y-34550000I0J150000D01*
G01*
X59045000Y-32900000D01*
G75*
G02*
X59195000Y-32750000I150000J0D01*
G01*
G37*
G36*
G01*
X59195000Y-27800000D02*
X59495000Y-27800000D01*
G75*
G02*
X59645000Y-27950000I0J-150000D01*
G01*
X59645000Y-29600000D01*
G75*
G02*
X59495000Y-29750000I-150000J0D01*
G01*
X59195000Y-29750000D01*
G75*
G02*
X59045000Y-29600000I0J150000D01*
G01*
X59045000Y-27950000D01*
G75*
G02*
X59195000Y-27800000I150000J0D01*
G01*
G37*
G36*
G01*
X60465000Y-27800000D02*
X60765000Y-27800000D01*
G75*
G02*
X60915000Y-27950000I0J-150000D01*
G01*
X60915000Y-29600000D01*
G75*
G02*
X60765000Y-29750000I-150000J0D01*
G01*
X60465000Y-29750000D01*
G75*
G02*
X60315000Y-29600000I0J150000D01*
G01*
X60315000Y-27950000D01*
G75*
G02*
X60465000Y-27800000I150000J0D01*
G01*
G37*
G36*
G01*
X61735000Y-27800000D02*
X62035000Y-27800000D01*
G75*
G02*
X62185000Y-27950000I0J-150000D01*
G01*
X62185000Y-29600000D01*
G75*
G02*
X62035000Y-29750000I-150000J0D01*
G01*
X61735000Y-29750000D01*
G75*
G02*
X61585000Y-29600000I0J150000D01*
G01*
X61585000Y-27950000D01*
G75*
G02*
X61735000Y-27800000I150000J0D01*
G01*
G37*
G36*
G01*
X63005000Y-27800000D02*
X63305000Y-27800000D01*
G75*
G02*
X63455000Y-27950000I0J-150000D01*
G01*
X63455000Y-29600000D01*
G75*
G02*
X63305000Y-29750000I-150000J0D01*
G01*
X63005000Y-29750000D01*
G75*
G02*
X62855000Y-29600000I0J150000D01*
G01*
X62855000Y-27950000D01*
G75*
G02*
X63005000Y-27800000I150000J0D01*
G01*
G37*
D13*
X33250000Y-42800000D03*
X33250000Y-39700000D03*
G36*
G01*
X66350000Y-44599999D02*
X66350000Y-45900001D01*
G75*
G02*
X66100001Y-46150000I-249999J0D01*
G01*
X65449999Y-46150000D01*
G75*
G02*
X65200000Y-45900001I0J249999D01*
G01*
X65200000Y-44599999D01*
G75*
G02*
X65449999Y-44350000I249999J0D01*
G01*
X66100001Y-44350000D01*
G75*
G02*
X66350000Y-44599999I0J-249999D01*
G01*
G37*
G36*
G01*
X69300000Y-44599999D02*
X69300000Y-45900001D01*
G75*
G02*
X69050001Y-46150000I-249999J0D01*
G01*
X68399999Y-46150000D01*
G75*
G02*
X68150000Y-45900001I0J249999D01*
G01*
X68150000Y-44599999D01*
G75*
G02*
X68399999Y-44350000I249999J0D01*
G01*
X69050001Y-44350000D01*
G75*
G02*
X69300000Y-44599999I0J-249999D01*
G01*
G37*
G36*
G01*
X54575000Y-25349999D02*
X54575000Y-26650001D01*
G75*
G02*
X54325001Y-26900000I-249999J0D01*
G01*
X53674999Y-26900000D01*
G75*
G02*
X53425000Y-26650001I0J249999D01*
G01*
X53425000Y-25349999D01*
G75*
G02*
X53674999Y-25100000I249999J0D01*
G01*
X54325001Y-25100000D01*
G75*
G02*
X54575000Y-25349999I0J-249999D01*
G01*
G37*
G36*
G01*
X57525000Y-25349999D02*
X57525000Y-26650001D01*
G75*
G02*
X57275001Y-26900000I-249999J0D01*
G01*
X56624999Y-26900000D01*
G75*
G02*
X56375000Y-26650001I0J249999D01*
G01*
X56375000Y-25349999D01*
G75*
G02*
X56624999Y-25100000I249999J0D01*
G01*
X57275001Y-25100000D01*
G75*
G02*
X57525000Y-25349999I0J-249999D01*
G01*
G37*
G36*
G01*
X61175000Y-45900001D02*
X61175000Y-44599999D01*
G75*
G02*
X61424999Y-44350000I249999J0D01*
G01*
X62075001Y-44350000D01*
G75*
G02*
X62325000Y-44599999I0J-249999D01*
G01*
X62325000Y-45900001D01*
G75*
G02*
X62075001Y-46150000I-249999J0D01*
G01*
X61424999Y-46150000D01*
G75*
G02*
X61175000Y-45900001I0J249999D01*
G01*
G37*
G36*
G01*
X58225000Y-45900001D02*
X58225000Y-44599999D01*
G75*
G02*
X58474999Y-44350000I249999J0D01*
G01*
X59125001Y-44350000D01*
G75*
G02*
X59375000Y-44599999I0J-249999D01*
G01*
X59375000Y-45900001D01*
G75*
G02*
X59125001Y-46150000I-249999J0D01*
G01*
X58474999Y-46150000D01*
G75*
G02*
X58225000Y-45900001I0J249999D01*
G01*
G37*
G36*
G01*
X64400000Y-23400001D02*
X64400000Y-22099999D01*
G75*
G02*
X64649999Y-21850000I249999J0D01*
G01*
X65300001Y-21850000D01*
G75*
G02*
X65550000Y-22099999I0J-249999D01*
G01*
X65550000Y-23400001D01*
G75*
G02*
X65300001Y-23650000I-249999J0D01*
G01*
X64649999Y-23650000D01*
G75*
G02*
X64400000Y-23400001I0J249999D01*
G01*
G37*
G36*
G01*
X61450000Y-23400001D02*
X61450000Y-22099999D01*
G75*
G02*
X61699999Y-21850000I249999J0D01*
G01*
X62350001Y-21850000D01*
G75*
G02*
X62600000Y-22099999I0J-249999D01*
G01*
X62600000Y-23400001D01*
G75*
G02*
X62350001Y-23650000I-249999J0D01*
G01*
X61699999Y-23650000D01*
G75*
G02*
X61450000Y-23400001I0J249999D01*
G01*
G37*
G36*
G01*
X61400000Y-38650001D02*
X61400000Y-37349999D01*
G75*
G02*
X61649999Y-37100000I249999J0D01*
G01*
X62300001Y-37100000D01*
G75*
G02*
X62550000Y-37349999I0J-249999D01*
G01*
X62550000Y-38650001D01*
G75*
G02*
X62300001Y-38900000I-249999J0D01*
G01*
X61649999Y-38900000D01*
G75*
G02*
X61400000Y-38650001I0J249999D01*
G01*
G37*
G36*
G01*
X58450000Y-38650001D02*
X58450000Y-37349999D01*
G75*
G02*
X58699999Y-37100000I249999J0D01*
G01*
X59350001Y-37100000D01*
G75*
G02*
X59600000Y-37349999I0J-249999D01*
G01*
X59600000Y-38650001D01*
G75*
G02*
X59350001Y-38900000I-249999J0D01*
G01*
X58699999Y-38900000D01*
G75*
G02*
X58450000Y-38650001I0J249999D01*
G01*
G37*
G36*
G01*
X99625001Y-45100000D02*
X98374999Y-45100000D01*
G75*
G02*
X98125000Y-44850001I0J249999D01*
G01*
X98125000Y-44224999D01*
G75*
G02*
X98374999Y-43975000I249999J0D01*
G01*
X99625001Y-43975000D01*
G75*
G02*
X99875000Y-44224999I0J-249999D01*
G01*
X99875000Y-44850001D01*
G75*
G02*
X99625001Y-45100000I-249999J0D01*
G01*
G37*
G36*
G01*
X99625001Y-48025000D02*
X98374999Y-48025000D01*
G75*
G02*
X98125000Y-47775001I0J249999D01*
G01*
X98125000Y-47149999D01*
G75*
G02*
X98374999Y-46900000I249999J0D01*
G01*
X99625001Y-46900000D01*
G75*
G02*
X99875000Y-47149999I0J-249999D01*
G01*
X99875000Y-47775001D01*
G75*
G02*
X99625001Y-48025000I-249999J0D01*
G01*
G37*
G36*
G01*
X95625001Y-45012500D02*
X94374999Y-45012500D01*
G75*
G02*
X94125000Y-44762501I0J249999D01*
G01*
X94125000Y-44137499D01*
G75*
G02*
X94374999Y-43887500I249999J0D01*
G01*
X95625001Y-43887500D01*
G75*
G02*
X95875000Y-44137499I0J-249999D01*
G01*
X95875000Y-44762501D01*
G75*
G02*
X95625001Y-45012500I-249999J0D01*
G01*
G37*
G36*
G01*
X95625001Y-47937500D02*
X94374999Y-47937500D01*
G75*
G02*
X94125000Y-47687501I0J249999D01*
G01*
X94125000Y-47062499D01*
G75*
G02*
X94374999Y-46812500I249999J0D01*
G01*
X95625001Y-46812500D01*
G75*
G02*
X95875000Y-47062499I0J-249999D01*
G01*
X95875000Y-47687501D01*
G75*
G02*
X95625001Y-47937500I-249999J0D01*
G01*
G37*
G36*
G01*
X98124999Y-39150000D02*
X99375001Y-39150000D01*
G75*
G02*
X99625000Y-39399999I0J-249999D01*
G01*
X99625000Y-40025001D01*
G75*
G02*
X99375001Y-40275000I-249999J0D01*
G01*
X98124999Y-40275000D01*
G75*
G02*
X97875000Y-40025001I0J249999D01*
G01*
X97875000Y-39399999D01*
G75*
G02*
X98124999Y-39150000I249999J0D01*
G01*
G37*
G36*
G01*
X98124999Y-36225000D02*
X99375001Y-36225000D01*
G75*
G02*
X99625000Y-36474999I0J-249999D01*
G01*
X99625000Y-37100001D01*
G75*
G02*
X99375001Y-37350000I-249999J0D01*
G01*
X98124999Y-37350000D01*
G75*
G02*
X97875000Y-37100001I0J249999D01*
G01*
X97875000Y-36474999D01*
G75*
G02*
X98124999Y-36225000I249999J0D01*
G01*
G37*
G36*
G01*
X74100000Y-47374999D02*
X74100000Y-48625001D01*
G75*
G02*
X73850001Y-48875000I-249999J0D01*
G01*
X73224999Y-48875000D01*
G75*
G02*
X72975000Y-48625001I0J249999D01*
G01*
X72975000Y-47374999D01*
G75*
G02*
X73224999Y-47125000I249999J0D01*
G01*
X73850001Y-47125000D01*
G75*
G02*
X74100000Y-47374999I0J-249999D01*
G01*
G37*
G36*
G01*
X77025000Y-47374999D02*
X77025000Y-48625001D01*
G75*
G02*
X76775001Y-48875000I-249999J0D01*
G01*
X76149999Y-48875000D01*
G75*
G02*
X75900000Y-48625001I0J249999D01*
G01*
X75900000Y-47374999D01*
G75*
G02*
X76149999Y-47125000I249999J0D01*
G01*
X76775001Y-47125000D01*
G75*
G02*
X77025000Y-47374999I0J-249999D01*
G01*
G37*
G36*
G01*
X89650000Y-41849999D02*
X89650000Y-43150001D01*
G75*
G02*
X89400001Y-43400000I-249999J0D01*
G01*
X88749999Y-43400000D01*
G75*
G02*
X88500000Y-43150001I0J249999D01*
G01*
X88500000Y-41849999D01*
G75*
G02*
X88749999Y-41600000I249999J0D01*
G01*
X89400001Y-41600000D01*
G75*
G02*
X89650000Y-41849999I0J-249999D01*
G01*
G37*
G36*
G01*
X92600000Y-41849999D02*
X92600000Y-43150001D01*
G75*
G02*
X92350001Y-43400000I-249999J0D01*
G01*
X91699999Y-43400000D01*
G75*
G02*
X91450000Y-43150001I0J249999D01*
G01*
X91450000Y-41849999D01*
G75*
G02*
X91699999Y-41600000I249999J0D01*
G01*
X92350001Y-41600000D01*
G75*
G02*
X92600000Y-41849999I0J-249999D01*
G01*
G37*
G36*
G01*
X83810002Y-60695000D02*
X82559998Y-60695000D01*
G75*
G02*
X82310000Y-60445002I0J249998D01*
G01*
X82310000Y-59819998D01*
G75*
G02*
X82559998Y-59570000I249998J0D01*
G01*
X83810002Y-59570000D01*
G75*
G02*
X84060000Y-59819998I0J-249998D01*
G01*
X84060000Y-60445002D01*
G75*
G02*
X83810002Y-60695000I-249998J0D01*
G01*
G37*
G36*
G01*
X83810002Y-63620000D02*
X82559998Y-63620000D01*
G75*
G02*
X82310000Y-63370002I0J249998D01*
G01*
X82310000Y-62744998D01*
G75*
G02*
X82559998Y-62495000I249998J0D01*
G01*
X83810002Y-62495000D01*
G75*
G02*
X84060000Y-62744998I0J-249998D01*
G01*
X84060000Y-63370002D01*
G75*
G02*
X83810002Y-63620000I-249998J0D01*
G01*
G37*
G36*
G01*
X66350000Y-50599999D02*
X66350000Y-51900001D01*
G75*
G02*
X66100001Y-52150000I-249999J0D01*
G01*
X65449999Y-52150000D01*
G75*
G02*
X65200000Y-51900001I0J249999D01*
G01*
X65200000Y-50599999D01*
G75*
G02*
X65449999Y-50350000I249999J0D01*
G01*
X66100001Y-50350000D01*
G75*
G02*
X66350000Y-50599999I0J-249999D01*
G01*
G37*
G36*
G01*
X69300000Y-50599999D02*
X69300000Y-51900001D01*
G75*
G02*
X69050001Y-52150000I-249999J0D01*
G01*
X68399999Y-52150000D01*
G75*
G02*
X68150000Y-51900001I0J249999D01*
G01*
X68150000Y-50599999D01*
G75*
G02*
X68399999Y-50350000I249999J0D01*
G01*
X69050001Y-50350000D01*
G75*
G02*
X69300000Y-50599999I0J-249999D01*
G01*
G37*
G36*
G01*
X66799999Y-31075000D02*
X68100001Y-31075000D01*
G75*
G02*
X68350000Y-31324999I0J-249999D01*
G01*
X68350000Y-31975001D01*
G75*
G02*
X68100001Y-32225000I-249999J0D01*
G01*
X66799999Y-32225000D01*
G75*
G02*
X66550000Y-31975001I0J249999D01*
G01*
X66550000Y-31324999D01*
G75*
G02*
X66799999Y-31075000I249999J0D01*
G01*
G37*
G36*
G01*
X66799999Y-28125000D02*
X68100001Y-28125000D01*
G75*
G02*
X68350000Y-28374999I0J-249999D01*
G01*
X68350000Y-29025001D01*
G75*
G02*
X68100001Y-29275000I-249999J0D01*
G01*
X66799999Y-29275000D01*
G75*
G02*
X66550000Y-29025001I0J249999D01*
G01*
X66550000Y-28374999D01*
G75*
G02*
X66799999Y-28125000I249999J0D01*
G01*
G37*
G36*
G01*
X64400000Y-26150001D02*
X64400000Y-24849999D01*
G75*
G02*
X64649999Y-24600000I249999J0D01*
G01*
X65300001Y-24600000D01*
G75*
G02*
X65550000Y-24849999I0J-249999D01*
G01*
X65550000Y-26150001D01*
G75*
G02*
X65300001Y-26400000I-249999J0D01*
G01*
X64649999Y-26400000D01*
G75*
G02*
X64400000Y-26150001I0J249999D01*
G01*
G37*
G36*
G01*
X61450000Y-26150001D02*
X61450000Y-24849999D01*
G75*
G02*
X61699999Y-24600000I249999J0D01*
G01*
X62350001Y-24600000D01*
G75*
G02*
X62600000Y-24849999I0J-249999D01*
G01*
X62600000Y-26150001D01*
G75*
G02*
X62350001Y-26400000I-249999J0D01*
G01*
X61699999Y-26400000D01*
G75*
G02*
X61450000Y-26150001I0J249999D01*
G01*
G37*
G36*
G01*
X24110000Y-37325000D02*
X24110000Y-35575000D01*
G75*
G02*
X24985000Y-34700000I875000J0D01*
G01*
X26735000Y-34700000D01*
G75*
G02*
X27610000Y-35575000I0J-875000D01*
G01*
X27610000Y-37325000D01*
G75*
G02*
X26735000Y-38200000I-875000J0D01*
G01*
X24985000Y-38200000D01*
G75*
G02*
X24110000Y-37325000I0J875000D01*
G01*
G37*
G36*
G01*
X21360000Y-32750000D02*
X21360000Y-30750000D01*
G75*
G02*
X22110000Y-30000000I750000J0D01*
G01*
X23610000Y-30000000D01*
G75*
G02*
X24360000Y-30750000I0J-750000D01*
G01*
X24360000Y-32750000D01*
G75*
G02*
X23610000Y-33500000I-750000J0D01*
G01*
X22110000Y-33500000D01*
G75*
G02*
X21360000Y-32750000I0J750000D01*
G01*
G37*
D22*
X28860000Y-31750000D03*
G36*
G01*
X61585002Y-60695000D02*
X60334998Y-60695000D01*
G75*
G02*
X60085000Y-60445002I0J249998D01*
G01*
X60085000Y-59819998D01*
G75*
G02*
X60334998Y-59570000I249998J0D01*
G01*
X61585002Y-59570000D01*
G75*
G02*
X61835000Y-59819998I0J-249998D01*
G01*
X61835000Y-60445002D01*
G75*
G02*
X61585002Y-60695000I-249998J0D01*
G01*
G37*
G36*
G01*
X61585002Y-63620000D02*
X60334998Y-63620000D01*
G75*
G02*
X60085000Y-63370002I0J249998D01*
G01*
X60085000Y-62744998D01*
G75*
G02*
X60334998Y-62495000I249998J0D01*
G01*
X61585002Y-62495000D01*
G75*
G02*
X61835000Y-62744998I0J-249998D01*
G01*
X61835000Y-63370002D01*
G75*
G02*
X61585002Y-63620000I-249998J0D01*
G01*
G37*
G36*
G01*
X32375002Y-60502500D02*
X31124998Y-60502500D01*
G75*
G02*
X30875000Y-60252502I0J249998D01*
G01*
X30875000Y-59627498D01*
G75*
G02*
X31124998Y-59377500I249998J0D01*
G01*
X32375002Y-59377500D01*
G75*
G02*
X32625000Y-59627498I0J-249998D01*
G01*
X32625000Y-60252502D01*
G75*
G02*
X32375002Y-60502500I-249998J0D01*
G01*
G37*
G36*
G01*
X32375002Y-63427500D02*
X31124998Y-63427500D01*
G75*
G02*
X30875000Y-63177502I0J249998D01*
G01*
X30875000Y-62552498D01*
G75*
G02*
X31124998Y-62302500I249998J0D01*
G01*
X32375002Y-62302500D01*
G75*
G02*
X32625000Y-62552498I0J-249998D01*
G01*
X32625000Y-63177502D01*
G75*
G02*
X32375002Y-63427500I-249998J0D01*
G01*
G37*
D10*
G36*
X64250000Y-57315000D02*
G01*
X64250000Y-57815000D01*
X64249398Y-57815000D01*
X64249398Y-57839534D01*
X64244588Y-57888365D01*
X64235016Y-57936490D01*
X64220772Y-57983445D01*
X64201995Y-58028778D01*
X64178864Y-58072051D01*
X64151604Y-58112850D01*
X64120476Y-58150779D01*
X64085779Y-58185476D01*
X64047850Y-58216604D01*
X64007051Y-58243864D01*
X63963778Y-58266995D01*
X63918445Y-58285772D01*
X63871490Y-58300016D01*
X63823365Y-58309588D01*
X63774534Y-58314398D01*
X63750000Y-58314398D01*
X63750000Y-58315000D01*
X63250000Y-58315000D01*
X63250000Y-58314398D01*
X63225466Y-58314398D01*
X63176635Y-58309588D01*
X63128510Y-58300016D01*
X63081555Y-58285772D01*
X63036222Y-58266995D01*
X62992949Y-58243864D01*
X62952150Y-58216604D01*
X62914221Y-58185476D01*
X62879524Y-58150779D01*
X62848396Y-58112850D01*
X62821136Y-58072051D01*
X62798005Y-58028778D01*
X62779228Y-57983445D01*
X62764984Y-57936490D01*
X62755412Y-57888365D01*
X62750602Y-57839534D01*
X62750602Y-57815000D01*
X62750000Y-57815000D01*
X62750000Y-57315000D01*
X64250000Y-57315000D01*
G37*
G36*
X62750602Y-56515000D02*
G01*
X62750602Y-56490466D01*
X62755412Y-56441635D01*
X62764984Y-56393510D01*
X62779228Y-56346555D01*
X62798005Y-56301222D01*
X62821136Y-56257949D01*
X62848396Y-56217150D01*
X62879524Y-56179221D01*
X62914221Y-56144524D01*
X62952150Y-56113396D01*
X62992949Y-56086136D01*
X63036222Y-56063005D01*
X63081555Y-56044228D01*
X63128510Y-56029984D01*
X63176635Y-56020412D01*
X63225466Y-56015602D01*
X63250000Y-56015602D01*
X63250000Y-56015000D01*
X63750000Y-56015000D01*
X63750000Y-56015602D01*
X63774534Y-56015602D01*
X63823365Y-56020412D01*
X63871490Y-56029984D01*
X63918445Y-56044228D01*
X63963778Y-56063005D01*
X64007051Y-56086136D01*
X64047850Y-56113396D01*
X64085779Y-56144524D01*
X64120476Y-56179221D01*
X64151604Y-56217150D01*
X64178864Y-56257949D01*
X64201995Y-56301222D01*
X64220772Y-56346555D01*
X64235016Y-56393510D01*
X64244588Y-56441635D01*
X64249398Y-56490466D01*
X64249398Y-56515000D01*
X64250000Y-56515000D01*
X64250000Y-57015000D01*
X62750000Y-57015000D01*
X62750000Y-56515000D01*
X62750602Y-56515000D01*
G37*
G36*
X35040000Y-57315000D02*
G01*
X35040000Y-57815000D01*
X35039398Y-57815000D01*
X35039398Y-57839534D01*
X35034588Y-57888365D01*
X35025016Y-57936490D01*
X35010772Y-57983445D01*
X34991995Y-58028778D01*
X34968864Y-58072051D01*
X34941604Y-58112850D01*
X34910476Y-58150779D01*
X34875779Y-58185476D01*
X34837850Y-58216604D01*
X34797051Y-58243864D01*
X34753778Y-58266995D01*
X34708445Y-58285772D01*
X34661490Y-58300016D01*
X34613365Y-58309588D01*
X34564534Y-58314398D01*
X34540000Y-58314398D01*
X34540000Y-58315000D01*
X34040000Y-58315000D01*
X34040000Y-58314398D01*
X34015466Y-58314398D01*
X33966635Y-58309588D01*
X33918510Y-58300016D01*
X33871555Y-58285772D01*
X33826222Y-58266995D01*
X33782949Y-58243864D01*
X33742150Y-58216604D01*
X33704221Y-58185476D01*
X33669524Y-58150779D01*
X33638396Y-58112850D01*
X33611136Y-58072051D01*
X33588005Y-58028778D01*
X33569228Y-57983445D01*
X33554984Y-57936490D01*
X33545412Y-57888365D01*
X33540602Y-57839534D01*
X33540602Y-57815000D01*
X33540000Y-57815000D01*
X33540000Y-57315000D01*
X35040000Y-57315000D01*
G37*
G36*
X33540602Y-56515000D02*
G01*
X33540602Y-56490466D01*
X33545412Y-56441635D01*
X33554984Y-56393510D01*
X33569228Y-56346555D01*
X33588005Y-56301222D01*
X33611136Y-56257949D01*
X33638396Y-56217150D01*
X33669524Y-56179221D01*
X33704221Y-56144524D01*
X33742150Y-56113396D01*
X33782949Y-56086136D01*
X33826222Y-56063005D01*
X33871555Y-56044228D01*
X33918510Y-56029984D01*
X33966635Y-56020412D01*
X34015466Y-56015602D01*
X34040000Y-56015602D01*
X34040000Y-56015000D01*
X34540000Y-56015000D01*
X34540000Y-56015602D01*
X34564534Y-56015602D01*
X34613365Y-56020412D01*
X34661490Y-56029984D01*
X34708445Y-56044228D01*
X34753778Y-56063005D01*
X34797051Y-56086136D01*
X34837850Y-56113396D01*
X34875779Y-56144524D01*
X34910476Y-56179221D01*
X34941604Y-56217150D01*
X34968864Y-56257949D01*
X34991995Y-56301222D01*
X35010772Y-56346555D01*
X35025016Y-56393510D01*
X35034588Y-56441635D01*
X35039398Y-56490466D01*
X35039398Y-56515000D01*
X35040000Y-56515000D01*
X35040000Y-57015000D01*
X33540000Y-57015000D01*
X33540000Y-56515000D01*
X33540602Y-56515000D01*
G37*
G36*
X86475000Y-57315000D02*
G01*
X86475000Y-57815000D01*
X86474398Y-57815000D01*
X86474398Y-57839534D01*
X86469588Y-57888365D01*
X86460016Y-57936490D01*
X86445772Y-57983445D01*
X86426995Y-58028778D01*
X86403864Y-58072051D01*
X86376604Y-58112850D01*
X86345476Y-58150779D01*
X86310779Y-58185476D01*
X86272850Y-58216604D01*
X86232051Y-58243864D01*
X86188778Y-58266995D01*
X86143445Y-58285772D01*
X86096490Y-58300016D01*
X86048365Y-58309588D01*
X85999534Y-58314398D01*
X85975000Y-58314398D01*
X85975000Y-58315000D01*
X85475000Y-58315000D01*
X85475000Y-58314398D01*
X85450466Y-58314398D01*
X85401635Y-58309588D01*
X85353510Y-58300016D01*
X85306555Y-58285772D01*
X85261222Y-58266995D01*
X85217949Y-58243864D01*
X85177150Y-58216604D01*
X85139221Y-58185476D01*
X85104524Y-58150779D01*
X85073396Y-58112850D01*
X85046136Y-58072051D01*
X85023005Y-58028778D01*
X85004228Y-57983445D01*
X84989984Y-57936490D01*
X84980412Y-57888365D01*
X84975602Y-57839534D01*
X84975602Y-57815000D01*
X84975000Y-57815000D01*
X84975000Y-57315000D01*
X86475000Y-57315000D01*
G37*
G36*
X84975602Y-56515000D02*
G01*
X84975602Y-56490466D01*
X84980412Y-56441635D01*
X84989984Y-56393510D01*
X85004228Y-56346555D01*
X85023005Y-56301222D01*
X85046136Y-56257949D01*
X85073396Y-56217150D01*
X85104524Y-56179221D01*
X85139221Y-56144524D01*
X85177150Y-56113396D01*
X85217949Y-56086136D01*
X85261222Y-56063005D01*
X85306555Y-56044228D01*
X85353510Y-56029984D01*
X85401635Y-56020412D01*
X85450466Y-56015602D01*
X85475000Y-56015602D01*
X85475000Y-56015000D01*
X85975000Y-56015000D01*
X85975000Y-56015602D01*
X85999534Y-56015602D01*
X86048365Y-56020412D01*
X86096490Y-56029984D01*
X86143445Y-56044228D01*
X86188778Y-56063005D01*
X86232051Y-56086136D01*
X86272850Y-56113396D01*
X86310779Y-56144524D01*
X86345476Y-56179221D01*
X86376604Y-56217150D01*
X86403864Y-56257949D01*
X86426995Y-56301222D01*
X86445772Y-56346555D01*
X86460016Y-56393510D01*
X86469588Y-56441635D01*
X86474398Y-56490466D01*
X86474398Y-56515000D01*
X86475000Y-56515000D01*
X86475000Y-57015000D01*
X84975000Y-57015000D01*
X84975000Y-56515000D01*
X84975602Y-56515000D01*
G37*
G36*
G01*
X86350000Y-60820000D02*
X85100000Y-60820000D01*
G75*
G02*
X84850000Y-60570000I0J250000D01*
G01*
X84850000Y-59820000D01*
G75*
G02*
X85100000Y-59570000I250000J0D01*
G01*
X86350000Y-59570000D01*
G75*
G02*
X86600000Y-59820000I0J-250000D01*
G01*
X86600000Y-60570000D01*
G75*
G02*
X86350000Y-60820000I-250000J0D01*
G01*
G37*
G36*
G01*
X86350000Y-63620000D02*
X85100000Y-63620000D01*
G75*
G02*
X84850000Y-63370000I0J250000D01*
G01*
X84850000Y-62620000D01*
G75*
G02*
X85100000Y-62370000I250000J0D01*
G01*
X86350000Y-62370000D01*
G75*
G02*
X86600000Y-62620000I0J-250000D01*
G01*
X86600000Y-63370000D01*
G75*
G02*
X86350000Y-63620000I-250000J0D01*
G01*
G37*
G36*
G01*
X64125000Y-60820000D02*
X62875000Y-60820000D01*
G75*
G02*
X62625000Y-60570000I0J250000D01*
G01*
X62625000Y-59820000D01*
G75*
G02*
X62875000Y-59570000I250000J0D01*
G01*
X64125000Y-59570000D01*
G75*
G02*
X64375000Y-59820000I0J-250000D01*
G01*
X64375000Y-60570000D01*
G75*
G02*
X64125000Y-60820000I-250000J0D01*
G01*
G37*
G36*
G01*
X64125000Y-63620000D02*
X62875000Y-63620000D01*
G75*
G02*
X62625000Y-63370000I0J250000D01*
G01*
X62625000Y-62620000D01*
G75*
G02*
X62875000Y-62370000I250000J0D01*
G01*
X64125000Y-62370000D01*
G75*
G02*
X64375000Y-62620000I0J-250000D01*
G01*
X64375000Y-63370000D01*
G75*
G02*
X64125000Y-63620000I-250000J0D01*
G01*
G37*
D23*
X81550000Y-23350000D03*
X76950000Y-23350000D03*
X79250000Y-23350000D03*
D24*
X79250000Y-29650000D03*
G36*
G01*
X46622500Y-25724998D02*
X46622500Y-26975002D01*
G75*
G02*
X46372502Y-27225000I-249998J0D01*
G01*
X45747498Y-27225000D01*
G75*
G02*
X45497500Y-26975002I0J249998D01*
G01*
X45497500Y-25724998D01*
G75*
G02*
X45747498Y-25475000I249998J0D01*
G01*
X46372502Y-25475000D01*
G75*
G02*
X46622500Y-25724998I0J-249998D01*
G01*
G37*
G36*
G01*
X49547500Y-25724998D02*
X49547500Y-26975002D01*
G75*
G02*
X49297502Y-27225000I-249998J0D01*
G01*
X48672498Y-27225000D01*
G75*
G02*
X48422500Y-26975002I0J249998D01*
G01*
X48422500Y-25724998D01*
G75*
G02*
X48672498Y-25475000I249998J0D01*
G01*
X49297502Y-25475000D01*
G75*
G02*
X49547500Y-25724998I0J-249998D01*
G01*
G37*
D20*
X47500000Y-22150000D03*
X48450000Y-24150000D03*
X46550000Y-24150000D03*
X42250000Y-30900000D03*
X43200000Y-32900000D03*
X41300000Y-32900000D03*
D25*
X23368000Y-46482000D03*
X23368000Y-43942000D03*
D26*
X23368000Y-41402000D03*
G36*
G01*
X81900000Y-32925001D02*
X81900000Y-32074999D01*
G75*
G02*
X82149999Y-31825000I249999J0D01*
G01*
X83050001Y-31825000D01*
G75*
G02*
X83300000Y-32074999I0J-249999D01*
G01*
X83300000Y-32925001D01*
G75*
G02*
X83050001Y-33175000I-249999J0D01*
G01*
X82149999Y-33175000D01*
G75*
G02*
X81900000Y-32925001I0J249999D01*
G01*
G37*
G36*
G01*
X79200000Y-32925001D02*
X79200000Y-32074999D01*
G75*
G02*
X79449999Y-31825000I249999J0D01*
G01*
X80350001Y-31825000D01*
G75*
G02*
X80600000Y-32074999I0J-249999D01*
G01*
X80600000Y-32925001D01*
G75*
G02*
X80350001Y-33175000I-249999J0D01*
G01*
X79449999Y-33175000D01*
G75*
G02*
X79200000Y-32925001I0J249999D01*
G01*
G37*
G36*
G01*
X73552499Y-25288000D02*
X74402501Y-25288000D01*
G75*
G02*
X74652500Y-25537999I0J-249999D01*
G01*
X74652500Y-26438001D01*
G75*
G02*
X74402501Y-26688000I-249999J0D01*
G01*
X73552499Y-26688000D01*
G75*
G02*
X73302500Y-26438001I0J249999D01*
G01*
X73302500Y-25537999D01*
G75*
G02*
X73552499Y-25288000I249999J0D01*
G01*
G37*
G36*
G01*
X73552499Y-22588000D02*
X74402501Y-22588000D01*
G75*
G02*
X74652500Y-22837999I0J-249999D01*
G01*
X74652500Y-23738001D01*
G75*
G02*
X74402501Y-23988000I-249999J0D01*
G01*
X73552499Y-23988000D01*
G75*
G02*
X73302500Y-23738001I0J249999D01*
G01*
X73302500Y-22837999D01*
G75*
G02*
X73552499Y-22588000I249999J0D01*
G01*
G37*
D27*
X85985000Y-39520000D03*
X95515000Y-36980000D03*
X85985000Y-36980000D03*
X95515000Y-39520000D03*
X91765000Y-45190000D03*
X82235000Y-52810000D03*
X91765000Y-47730000D03*
X82235000Y-50270000D03*
X91765000Y-50270000D03*
X82235000Y-47730000D03*
X91765000Y-52810000D03*
X82235000Y-45190000D03*
G36*
G01*
X79124998Y-39150000D02*
X80375002Y-39150000D01*
G75*
G02*
X80625000Y-39399998I0J-249998D01*
G01*
X80625000Y-40025002D01*
G75*
G02*
X80375002Y-40275000I-249998J0D01*
G01*
X79124998Y-40275000D01*
G75*
G02*
X78875000Y-40025002I0J249998D01*
G01*
X78875000Y-39399998D01*
G75*
G02*
X79124998Y-39150000I249998J0D01*
G01*
G37*
G36*
G01*
X79124998Y-36225000D02*
X80375002Y-36225000D01*
G75*
G02*
X80625000Y-36474998I0J-249998D01*
G01*
X80625000Y-37100002D01*
G75*
G02*
X80375002Y-37350000I-249998J0D01*
G01*
X79124998Y-37350000D01*
G75*
G02*
X78875000Y-37100002I0J249998D01*
G01*
X78875000Y-36474998D01*
G75*
G02*
X79124998Y-36225000I249998J0D01*
G01*
G37*
D28*
X81750000Y-38250000D03*
X83750000Y-37300000D03*
X83750000Y-39200000D03*
D10*
G36*
X40250000Y-47300000D02*
G01*
X40250000Y-47800000D01*
X40249398Y-47800000D01*
X40249398Y-47824534D01*
X40244588Y-47873365D01*
X40235016Y-47921490D01*
X40220772Y-47968445D01*
X40201995Y-48013778D01*
X40178864Y-48057051D01*
X40151604Y-48097850D01*
X40120476Y-48135779D01*
X40085779Y-48170476D01*
X40047850Y-48201604D01*
X40007051Y-48228864D01*
X39963778Y-48251995D01*
X39918445Y-48270772D01*
X39871490Y-48285016D01*
X39823365Y-48294588D01*
X39774534Y-48299398D01*
X39750000Y-48299398D01*
X39750000Y-48300000D01*
X39250000Y-48300000D01*
X39250000Y-48299398D01*
X39225466Y-48299398D01*
X39176635Y-48294588D01*
X39128510Y-48285016D01*
X39081555Y-48270772D01*
X39036222Y-48251995D01*
X38992949Y-48228864D01*
X38952150Y-48201604D01*
X38914221Y-48170476D01*
X38879524Y-48135779D01*
X38848396Y-48097850D01*
X38821136Y-48057051D01*
X38798005Y-48013778D01*
X38779228Y-47968445D01*
X38764984Y-47921490D01*
X38755412Y-47873365D01*
X38750602Y-47824534D01*
X38750602Y-47800000D01*
X38750000Y-47800000D01*
X38750000Y-47300000D01*
X40250000Y-47300000D01*
G37*
G36*
X38750602Y-46500000D02*
G01*
X38750602Y-46475466D01*
X38755412Y-46426635D01*
X38764984Y-46378510D01*
X38779228Y-46331555D01*
X38798005Y-46286222D01*
X38821136Y-46242949D01*
X38848396Y-46202150D01*
X38879524Y-46164221D01*
X38914221Y-46129524D01*
X38952150Y-46098396D01*
X38992949Y-46071136D01*
X39036222Y-46048005D01*
X39081555Y-46029228D01*
X39128510Y-46014984D01*
X39176635Y-46005412D01*
X39225466Y-46000602D01*
X39250000Y-46000602D01*
X39250000Y-46000000D01*
X39750000Y-46000000D01*
X39750000Y-46000602D01*
X39774534Y-46000602D01*
X39823365Y-46005412D01*
X39871490Y-46014984D01*
X39918445Y-46029228D01*
X39963778Y-46048005D01*
X40007051Y-46071136D01*
X40047850Y-46098396D01*
X40085779Y-46129524D01*
X40120476Y-46164221D01*
X40151604Y-46202150D01*
X40178864Y-46242949D01*
X40201995Y-46286222D01*
X40220772Y-46331555D01*
X40235016Y-46378510D01*
X40244588Y-46426635D01*
X40249398Y-46475466D01*
X40249398Y-46500000D01*
X40250000Y-46500000D01*
X40250000Y-47000000D01*
X38750000Y-47000000D01*
X38750000Y-46500000D01*
X38750602Y-46500000D01*
G37*
G36*
X33900000Y-50500000D02*
G01*
X34400000Y-50500000D01*
X34400000Y-50500602D01*
X34424534Y-50500602D01*
X34473365Y-50505412D01*
X34521490Y-50514984D01*
X34568445Y-50529228D01*
X34613778Y-50548005D01*
X34657051Y-50571136D01*
X34697850Y-50598396D01*
X34735779Y-50629524D01*
X34770476Y-50664221D01*
X34801604Y-50702150D01*
X34828864Y-50742949D01*
X34851995Y-50786222D01*
X34870772Y-50831555D01*
X34885016Y-50878510D01*
X34894588Y-50926635D01*
X34899398Y-50975466D01*
X34899398Y-51000000D01*
X34900000Y-51000000D01*
X34900000Y-51500000D01*
X34899398Y-51500000D01*
X34899398Y-51524534D01*
X34894588Y-51573365D01*
X34885016Y-51621490D01*
X34870772Y-51668445D01*
X34851995Y-51713778D01*
X34828864Y-51757051D01*
X34801604Y-51797850D01*
X34770476Y-51835779D01*
X34735779Y-51870476D01*
X34697850Y-51901604D01*
X34657051Y-51928864D01*
X34613778Y-51951995D01*
X34568445Y-51970772D01*
X34521490Y-51985016D01*
X34473365Y-51994588D01*
X34424534Y-51999398D01*
X34400000Y-51999398D01*
X34400000Y-52000000D01*
X33900000Y-52000000D01*
X33900000Y-50500000D01*
G37*
G36*
X33100000Y-51999398D02*
G01*
X33075466Y-51999398D01*
X33026635Y-51994588D01*
X32978510Y-51985016D01*
X32931555Y-51970772D01*
X32886222Y-51951995D01*
X32842949Y-51928864D01*
X32802150Y-51901604D01*
X32764221Y-51870476D01*
X32729524Y-51835779D01*
X32698396Y-51797850D01*
X32671136Y-51757051D01*
X32648005Y-51713778D01*
X32629228Y-51668445D01*
X32614984Y-51621490D01*
X32605412Y-51573365D01*
X32600602Y-51524534D01*
X32600602Y-51500000D01*
X32600000Y-51500000D01*
X32600000Y-51000000D01*
X32600602Y-51000000D01*
X32600602Y-50975466D01*
X32605412Y-50926635D01*
X32614984Y-50878510D01*
X32629228Y-50831555D01*
X32648005Y-50786222D01*
X32671136Y-50742949D01*
X32698396Y-50702150D01*
X32729524Y-50664221D01*
X32764221Y-50629524D01*
X32802150Y-50598396D01*
X32842949Y-50571136D01*
X32886222Y-50548005D01*
X32931555Y-50529228D01*
X32978510Y-50514984D01*
X33026635Y-50505412D01*
X33075466Y-50500602D01*
X33100000Y-50500602D01*
X33100000Y-50500000D01*
X33600000Y-50500000D01*
X33600000Y-52000000D01*
X33100000Y-52000000D01*
X33100000Y-51999398D01*
G37*
G36*
X33900000Y-53000000D02*
G01*
X34400000Y-53000000D01*
X34400000Y-53000602D01*
X34424534Y-53000602D01*
X34473365Y-53005412D01*
X34521490Y-53014984D01*
X34568445Y-53029228D01*
X34613778Y-53048005D01*
X34657051Y-53071136D01*
X34697850Y-53098396D01*
X34735779Y-53129524D01*
X34770476Y-53164221D01*
X34801604Y-53202150D01*
X34828864Y-53242949D01*
X34851995Y-53286222D01*
X34870772Y-53331555D01*
X34885016Y-53378510D01*
X34894588Y-53426635D01*
X34899398Y-53475466D01*
X34899398Y-53500000D01*
X34900000Y-53500000D01*
X34900000Y-54000000D01*
X34899398Y-54000000D01*
X34899398Y-54024534D01*
X34894588Y-54073365D01*
X34885016Y-54121490D01*
X34870772Y-54168445D01*
X34851995Y-54213778D01*
X34828864Y-54257051D01*
X34801604Y-54297850D01*
X34770476Y-54335779D01*
X34735779Y-54370476D01*
X34697850Y-54401604D01*
X34657051Y-54428864D01*
X34613778Y-54451995D01*
X34568445Y-54470772D01*
X34521490Y-54485016D01*
X34473365Y-54494588D01*
X34424534Y-54499398D01*
X34400000Y-54499398D01*
X34400000Y-54500000D01*
X33900000Y-54500000D01*
X33900000Y-53000000D01*
G37*
G36*
X33100000Y-54499398D02*
G01*
X33075466Y-54499398D01*
X33026635Y-54494588D01*
X32978510Y-54485016D01*
X32931555Y-54470772D01*
X32886222Y-54451995D01*
X32842949Y-54428864D01*
X32802150Y-54401604D01*
X32764221Y-54370476D01*
X32729524Y-54335779D01*
X32698396Y-54297850D01*
X32671136Y-54257051D01*
X32648005Y-54213778D01*
X32629228Y-54168445D01*
X32614984Y-54121490D01*
X32605412Y-54073365D01*
X32600602Y-54024534D01*
X32600602Y-54000000D01*
X32600000Y-54000000D01*
X32600000Y-53500000D01*
X32600602Y-53500000D01*
X32600602Y-53475466D01*
X32605412Y-53426635D01*
X32614984Y-53378510D01*
X32629228Y-53331555D01*
X32648005Y-53286222D01*
X32671136Y-53242949D01*
X32698396Y-53202150D01*
X32729524Y-53164221D01*
X32764221Y-53129524D01*
X32802150Y-53098396D01*
X32842949Y-53071136D01*
X32886222Y-53048005D01*
X32931555Y-53029228D01*
X32978510Y-53014984D01*
X33026635Y-53005412D01*
X33075466Y-53000602D01*
X33100000Y-53000602D01*
X33100000Y-53000000D01*
X33600000Y-53000000D01*
X33600000Y-54500000D01*
X33100000Y-54500000D01*
X33100000Y-54499398D01*
G37*
D29*
X26670000Y-54824000D03*
G36*
G01*
X25920000Y-51474000D02*
X27420000Y-51474000D01*
G75*
G02*
X27670000Y-51724000I0J-250000D01*
G01*
X27670000Y-52924000D01*
G75*
G02*
X27420000Y-53174000I-250000J0D01*
G01*
X25920000Y-53174000D01*
G75*
G02*
X25670000Y-52924000I0J250000D01*
G01*
X25670000Y-51724000D01*
G75*
G02*
X25920000Y-51474000I250000J0D01*
G01*
G37*
M02*
