G04 #@! TF.GenerationSoftware,KiCad,Pcbnew,7.0.1.1-36-gbcf78dbe24-dirty-deb11*
G04 #@! TF.CreationDate,2023-04-30T11:41:34+00:00*
G04 #@! TF.ProjectId,PowerDistribution,506f7765-7244-4697-9374-726962757469,v1.0.0-RC2*
G04 #@! TF.SameCoordinates,Original*
G04 #@! TF.FileFunction,Soldermask,Top*
G04 #@! TF.FilePolarity,Negative*
%FSLAX46Y46*%
G04 Gerber Fmt 4.6, Leading zero omitted, Abs format (unit mm)*
G04 Created by KiCad (PCBNEW 7.0.1.1-36-gbcf78dbe24-dirty-deb11) date 2023-04-30 11:41:34*
%MOMM*%
%LPD*%
G01*
G04 APERTURE LIST*
%ADD10O,2.000000X1.700000*%
%ADD11R,1.700000X1.700000*%
%ADD12O,1.700000X1.700000*%
%ADD13R,1.500000X2.000000*%
%ADD14R,3.800000X2.000000*%
%ADD15R,2.000000X1.780000*%
%ADD16R,2.400000X2.400000*%
%ADD17C,2.400000*%
%ADD18O,1.950000X1.700000*%
%ADD19R,3.500000X3.500000*%
%ADD20R,4.100000X3.500000*%
%ADD21C,4.700000*%
%ADD22R,1.000000X1.000000*%
G04 APERTURE END LIST*
G36*
G01*
X25920000Y-51474000D02*
X27420000Y-51474000D01*
G75*
G02*
X27670000Y-51724000I0J-250000D01*
G01*
X27670000Y-52924000D01*
G75*
G02*
X27420000Y-53174000I-250000J0D01*
G01*
X25920000Y-53174000D01*
G75*
G02*
X25670000Y-52924000I0J250000D01*
G01*
X25670000Y-51724000D01*
G75*
G02*
X25920000Y-51474000I250000J0D01*
G01*
G37*
D10*
X26670000Y-54824000D03*
G36*
G01*
X48162000Y-32683000D02*
X48162000Y-31833000D01*
G75*
G02*
X48412000Y-31583000I250000J0D01*
G01*
X49312000Y-31583000D01*
G75*
G02*
X49562000Y-31833000I0J-250000D01*
G01*
X49562000Y-32683000D01*
G75*
G02*
X49312000Y-32933000I-250000J0D01*
G01*
X48412000Y-32933000D01*
G75*
G02*
X48162000Y-32683000I0J250000D01*
G01*
G37*
G36*
G01*
X50862000Y-32683000D02*
X50862000Y-31833000D01*
G75*
G02*
X51112000Y-31583000I250000J0D01*
G01*
X52012000Y-31583000D01*
G75*
G02*
X52262000Y-31833000I0J-250000D01*
G01*
X52262000Y-32683000D01*
G75*
G02*
X52012000Y-32933000I-250000J0D01*
G01*
X51112000Y-32933000D01*
G75*
G02*
X50862000Y-32683000I0J250000D01*
G01*
G37*
G36*
G01*
X73552500Y-22588000D02*
X74402500Y-22588000D01*
G75*
G02*
X74652500Y-22838000I0J-250000D01*
G01*
X74652500Y-23738000D01*
G75*
G02*
X74402500Y-23988000I-250000J0D01*
G01*
X73552500Y-23988000D01*
G75*
G02*
X73302500Y-23738000I0J250000D01*
G01*
X73302500Y-22838000D01*
G75*
G02*
X73552500Y-22588000I250000J0D01*
G01*
G37*
G36*
G01*
X73552500Y-25288000D02*
X74402500Y-25288000D01*
G75*
G02*
X74652500Y-25538000I0J-250000D01*
G01*
X74652500Y-26438000D01*
G75*
G02*
X74402500Y-26688000I-250000J0D01*
G01*
X73552500Y-26688000D01*
G75*
G02*
X73302500Y-26438000I0J250000D01*
G01*
X73302500Y-25538000D01*
G75*
G02*
X73552500Y-25288000I250000J0D01*
G01*
G37*
G36*
G01*
X79200000Y-32925000D02*
X79200000Y-32075000D01*
G75*
G02*
X79450000Y-31825000I250000J0D01*
G01*
X80350000Y-31825000D01*
G75*
G02*
X80600000Y-32075000I0J-250000D01*
G01*
X80600000Y-32925000D01*
G75*
G02*
X80350000Y-33175000I-250000J0D01*
G01*
X79450000Y-33175000D01*
G75*
G02*
X79200000Y-32925000I0J250000D01*
G01*
G37*
G36*
G01*
X81900000Y-32925000D02*
X81900000Y-32075000D01*
G75*
G02*
X82150000Y-31825000I250000J0D01*
G01*
X83050000Y-31825000D01*
G75*
G02*
X83300000Y-32075000I0J-250000D01*
G01*
X83300000Y-32925000D01*
G75*
G02*
X83050000Y-33175000I-250000J0D01*
G01*
X82150000Y-33175000D01*
G75*
G02*
X81900000Y-32925000I0J250000D01*
G01*
G37*
D11*
X23368000Y-41402000D03*
D12*
X23368000Y-43942000D03*
X23368000Y-46482000D03*
G36*
G01*
X41450000Y-33575000D02*
X41150000Y-33575000D01*
G75*
G02*
X41000000Y-33425000I0J150000D01*
G01*
X41000000Y-32250000D01*
G75*
G02*
X41150000Y-32100000I150000J0D01*
G01*
X41450000Y-32100000D01*
G75*
G02*
X41600000Y-32250000I0J-150000D01*
G01*
X41600000Y-33425000D01*
G75*
G02*
X41450000Y-33575000I-150000J0D01*
G01*
G37*
G36*
G01*
X43350000Y-33575000D02*
X43050000Y-33575000D01*
G75*
G02*
X42900000Y-33425000I0J150000D01*
G01*
X42900000Y-32250000D01*
G75*
G02*
X43050000Y-32100000I150000J0D01*
G01*
X43350000Y-32100000D01*
G75*
G02*
X43500000Y-32250000I0J-150000D01*
G01*
X43500000Y-33425000D01*
G75*
G02*
X43350000Y-33575000I-150000J0D01*
G01*
G37*
G36*
G01*
X42400000Y-31700000D02*
X42100000Y-31700000D01*
G75*
G02*
X41950000Y-31550000I0J150000D01*
G01*
X41950000Y-30375000D01*
G75*
G02*
X42100000Y-30225000I150000J0D01*
G01*
X42400000Y-30225000D01*
G75*
G02*
X42550000Y-30375000I0J-150000D01*
G01*
X42550000Y-31550000D01*
G75*
G02*
X42400000Y-31700000I-150000J0D01*
G01*
G37*
G36*
G01*
X46700000Y-24825000D02*
X46400000Y-24825000D01*
G75*
G02*
X46250000Y-24675000I0J150000D01*
G01*
X46250000Y-23500000D01*
G75*
G02*
X46400000Y-23350000I150000J0D01*
G01*
X46700000Y-23350000D01*
G75*
G02*
X46850000Y-23500000I0J-150000D01*
G01*
X46850000Y-24675000D01*
G75*
G02*
X46700000Y-24825000I-150000J0D01*
G01*
G37*
G36*
G01*
X48600000Y-24825000D02*
X48300000Y-24825000D01*
G75*
G02*
X48150000Y-24675000I0J150000D01*
G01*
X48150000Y-23500000D01*
G75*
G02*
X48300000Y-23350000I150000J0D01*
G01*
X48600000Y-23350000D01*
G75*
G02*
X48750000Y-23500000I0J-150000D01*
G01*
X48750000Y-24675000D01*
G75*
G02*
X48600000Y-24825000I-150000J0D01*
G01*
G37*
G36*
G01*
X47650000Y-22950000D02*
X47350000Y-22950000D01*
G75*
G02*
X47200000Y-22800000I0J150000D01*
G01*
X47200000Y-21625000D01*
G75*
G02*
X47350000Y-21475000I150000J0D01*
G01*
X47650000Y-21475000D01*
G75*
G02*
X47800000Y-21625000I0J-150000D01*
G01*
X47800000Y-22800000D01*
G75*
G02*
X47650000Y-22950000I-150000J0D01*
G01*
G37*
D13*
X81550000Y-23350000D03*
X79250000Y-23350000D03*
D14*
X79250000Y-29650000D03*
D13*
X76950000Y-23350000D03*
G36*
G01*
X49547500Y-25725000D02*
X49547500Y-26975000D01*
G75*
G02*
X49297500Y-27225000I-250000J0D01*
G01*
X48672500Y-27225000D01*
G75*
G02*
X48422500Y-26975000I0J250000D01*
G01*
X48422500Y-25725000D01*
G75*
G02*
X48672500Y-25475000I250000J0D01*
G01*
X49297500Y-25475000D01*
G75*
G02*
X49547500Y-25725000I0J-250000D01*
G01*
G37*
G36*
G01*
X46622500Y-25725000D02*
X46622500Y-26975000D01*
G75*
G02*
X46372500Y-27225000I-250000J0D01*
G01*
X45747500Y-27225000D01*
G75*
G02*
X45497500Y-26975000I0J250000D01*
G01*
X45497500Y-25725000D01*
G75*
G02*
X45747500Y-25475000I250000J0D01*
G01*
X46372500Y-25475000D01*
G75*
G02*
X46622500Y-25725000I0J-250000D01*
G01*
G37*
G36*
G01*
X98125000Y-36225000D02*
X99375000Y-36225000D01*
G75*
G02*
X99625000Y-36475000I0J-250000D01*
G01*
X99625000Y-37100000D01*
G75*
G02*
X99375000Y-37350000I-250000J0D01*
G01*
X98125000Y-37350000D01*
G75*
G02*
X97875000Y-37100000I0J250000D01*
G01*
X97875000Y-36475000D01*
G75*
G02*
X98125000Y-36225000I250000J0D01*
G01*
G37*
G36*
G01*
X98125000Y-39150000D02*
X99375000Y-39150000D01*
G75*
G02*
X99625000Y-39400000I0J-250000D01*
G01*
X99625000Y-40025000D01*
G75*
G02*
X99375000Y-40275000I-250000J0D01*
G01*
X98125000Y-40275000D01*
G75*
G02*
X97875000Y-40025000I0J250000D01*
G01*
X97875000Y-39400000D01*
G75*
G02*
X98125000Y-39150000I250000J0D01*
G01*
G37*
D15*
X82235000Y-45190000D03*
X82235000Y-47730000D03*
X82235000Y-50270000D03*
X82235000Y-52810000D03*
X91765000Y-52810000D03*
X91765000Y-50270000D03*
X91765000Y-47730000D03*
X91765000Y-45190000D03*
G36*
G01*
X75750000Y-50250000D02*
X76250000Y-50250000D01*
G75*
G02*
X76500000Y-50500000I0J-250000D01*
G01*
X76500000Y-51000000D01*
G75*
G02*
X76250000Y-51250000I-250000J0D01*
G01*
X75750000Y-51250000D01*
G75*
G02*
X75500000Y-51000000I0J250000D01*
G01*
X75500000Y-50500000D01*
G75*
G02*
X75750000Y-50250000I250000J0D01*
G01*
G37*
G36*
G01*
X75750000Y-52750000D02*
X76250000Y-52750000D01*
G75*
G02*
X76500000Y-53000000I0J-250000D01*
G01*
X76500000Y-53500000D01*
G75*
G02*
X76250000Y-53750000I-250000J0D01*
G01*
X75750000Y-53750000D01*
G75*
G02*
X75500000Y-53500000I0J250000D01*
G01*
X75500000Y-53000000D01*
G75*
G02*
X75750000Y-52750000I250000J0D01*
G01*
G37*
G36*
G01*
X77025000Y-47375000D02*
X77025000Y-48625000D01*
G75*
G02*
X76775000Y-48875000I-250000J0D01*
G01*
X76150000Y-48875000D01*
G75*
G02*
X75900000Y-48625000I0J250000D01*
G01*
X75900000Y-47375000D01*
G75*
G02*
X76150000Y-47125000I250000J0D01*
G01*
X76775000Y-47125000D01*
G75*
G02*
X77025000Y-47375000I0J-250000D01*
G01*
G37*
G36*
G01*
X74100000Y-47375000D02*
X74100000Y-48625000D01*
G75*
G02*
X73850000Y-48875000I-250000J0D01*
G01*
X73225000Y-48875000D01*
G75*
G02*
X72975000Y-48625000I0J250000D01*
G01*
X72975000Y-47375000D01*
G75*
G02*
X73225000Y-47125000I250000J0D01*
G01*
X73850000Y-47125000D01*
G75*
G02*
X74100000Y-47375000I0J-250000D01*
G01*
G37*
G36*
G01*
X95625000Y-47937500D02*
X94375000Y-47937500D01*
G75*
G02*
X94125000Y-47687500I0J250000D01*
G01*
X94125000Y-47062500D01*
G75*
G02*
X94375000Y-46812500I250000J0D01*
G01*
X95625000Y-46812500D01*
G75*
G02*
X95875000Y-47062500I0J-250000D01*
G01*
X95875000Y-47687500D01*
G75*
G02*
X95625000Y-47937500I-250000J0D01*
G01*
G37*
G36*
G01*
X95625000Y-45012500D02*
X94375000Y-45012500D01*
G75*
G02*
X94125000Y-44762500I0J250000D01*
G01*
X94125000Y-44137500D01*
G75*
G02*
X94375000Y-43887500I250000J0D01*
G01*
X95625000Y-43887500D01*
G75*
G02*
X95875000Y-44137500I0J-250000D01*
G01*
X95875000Y-44762500D01*
G75*
G02*
X95625000Y-45012500I-250000J0D01*
G01*
G37*
X95515000Y-39520000D03*
X95515000Y-36980000D03*
X85985000Y-36980000D03*
X85985000Y-39520000D03*
G36*
G01*
X84425000Y-39050000D02*
X84425000Y-39350000D01*
G75*
G02*
X84275000Y-39500000I-150000J0D01*
G01*
X83100000Y-39500000D01*
G75*
G02*
X82950000Y-39350000I0J150000D01*
G01*
X82950000Y-39050000D01*
G75*
G02*
X83100000Y-38900000I150000J0D01*
G01*
X84275000Y-38900000D01*
G75*
G02*
X84425000Y-39050000I0J-150000D01*
G01*
G37*
G36*
G01*
X84425000Y-37150000D02*
X84425000Y-37450000D01*
G75*
G02*
X84275000Y-37600000I-150000J0D01*
G01*
X83100000Y-37600000D01*
G75*
G02*
X82950000Y-37450000I0J150000D01*
G01*
X82950000Y-37150000D01*
G75*
G02*
X83100000Y-37000000I150000J0D01*
G01*
X84275000Y-37000000D01*
G75*
G02*
X84425000Y-37150000I0J-150000D01*
G01*
G37*
G36*
G01*
X82550000Y-38100000D02*
X82550000Y-38400000D01*
G75*
G02*
X82400000Y-38550000I-150000J0D01*
G01*
X81225000Y-38550000D01*
G75*
G02*
X81075000Y-38400000I0J150000D01*
G01*
X81075000Y-38100000D01*
G75*
G02*
X81225000Y-37950000I150000J0D01*
G01*
X82400000Y-37950000D01*
G75*
G02*
X82550000Y-38100000I0J-150000D01*
G01*
G37*
G36*
G01*
X92600000Y-41850000D02*
X92600000Y-43150000D01*
G75*
G02*
X92350000Y-43400000I-250000J0D01*
G01*
X91700000Y-43400000D01*
G75*
G02*
X91450000Y-43150000I0J250000D01*
G01*
X91450000Y-41850000D01*
G75*
G02*
X91700000Y-41600000I250000J0D01*
G01*
X92350000Y-41600000D01*
G75*
G02*
X92600000Y-41850000I0J-250000D01*
G01*
G37*
G36*
G01*
X89650000Y-41850000D02*
X89650000Y-43150000D01*
G75*
G02*
X89400000Y-43400000I-250000J0D01*
G01*
X88750000Y-43400000D01*
G75*
G02*
X88500000Y-43150000I0J250000D01*
G01*
X88500000Y-41850000D01*
G75*
G02*
X88750000Y-41600000I250000J0D01*
G01*
X89400000Y-41600000D01*
G75*
G02*
X89650000Y-41850000I0J-250000D01*
G01*
G37*
G36*
G01*
X79004000Y-36225000D02*
X80254000Y-36225000D01*
G75*
G02*
X80504000Y-36475000I0J-250000D01*
G01*
X80504000Y-37100000D01*
G75*
G02*
X80254000Y-37350000I-250000J0D01*
G01*
X79004000Y-37350000D01*
G75*
G02*
X78754000Y-37100000I0J250000D01*
G01*
X78754000Y-36475000D01*
G75*
G02*
X79004000Y-36225000I250000J0D01*
G01*
G37*
G36*
G01*
X79004000Y-39150000D02*
X80254000Y-39150000D01*
G75*
G02*
X80504000Y-39400000I0J-250000D01*
G01*
X80504000Y-40025000D01*
G75*
G02*
X80254000Y-40275000I-250000J0D01*
G01*
X79004000Y-40275000D01*
G75*
G02*
X78754000Y-40025000I0J250000D01*
G01*
X78754000Y-39400000D01*
G75*
G02*
X79004000Y-39150000I250000J0D01*
G01*
G37*
G36*
G01*
X99625000Y-48025000D02*
X98375000Y-48025000D01*
G75*
G02*
X98125000Y-47775000I0J250000D01*
G01*
X98125000Y-47150000D01*
G75*
G02*
X98375000Y-46900000I250000J0D01*
G01*
X99625000Y-46900000D01*
G75*
G02*
X99875000Y-47150000I0J-250000D01*
G01*
X99875000Y-47775000D01*
G75*
G02*
X99625000Y-48025000I-250000J0D01*
G01*
G37*
G36*
G01*
X99625000Y-45100000D02*
X98375000Y-45100000D01*
G75*
G02*
X98125000Y-44850000I0J250000D01*
G01*
X98125000Y-44225000D01*
G75*
G02*
X98375000Y-43975000I250000J0D01*
G01*
X99625000Y-43975000D01*
G75*
G02*
X99875000Y-44225000I0J-250000D01*
G01*
X99875000Y-44850000D01*
G75*
G02*
X99625000Y-45100000I-250000J0D01*
G01*
G37*
G36*
G01*
X39297500Y-31760000D02*
X39297500Y-33010000D01*
G75*
G02*
X39047500Y-33260000I-250000J0D01*
G01*
X38422500Y-33260000D01*
G75*
G02*
X38172500Y-33010000I0J250000D01*
G01*
X38172500Y-31760000D01*
G75*
G02*
X38422500Y-31510000I250000J0D01*
G01*
X39047500Y-31510000D01*
G75*
G02*
X39297500Y-31760000I0J-250000D01*
G01*
G37*
G36*
G01*
X36372500Y-31760000D02*
X36372500Y-33010000D01*
G75*
G02*
X36122500Y-33260000I-250000J0D01*
G01*
X35497500Y-33260000D01*
G75*
G02*
X35247500Y-33010000I0J250000D01*
G01*
X35247500Y-31760000D01*
G75*
G02*
X35497500Y-31510000I250000J0D01*
G01*
X36122500Y-31510000D01*
G75*
G02*
X36372500Y-31760000I0J-250000D01*
G01*
G37*
G36*
G01*
X34915000Y-63490000D02*
X33665000Y-63490000D01*
G75*
G02*
X33415000Y-63240000I0J250000D01*
G01*
X33415000Y-62490000D01*
G75*
G02*
X33665000Y-62240000I250000J0D01*
G01*
X34915000Y-62240000D01*
G75*
G02*
X35165000Y-62490000I0J-250000D01*
G01*
X35165000Y-63240000D01*
G75*
G02*
X34915000Y-63490000I-250000J0D01*
G01*
G37*
G36*
G01*
X34915000Y-60690000D02*
X33665000Y-60690000D01*
G75*
G02*
X33415000Y-60440000I0J250000D01*
G01*
X33415000Y-59690000D01*
G75*
G02*
X33665000Y-59440000I250000J0D01*
G01*
X34915000Y-59440000D01*
G75*
G02*
X35165000Y-59690000I0J-250000D01*
G01*
X35165000Y-60440000D01*
G75*
G02*
X34915000Y-60690000I-250000J0D01*
G01*
G37*
G36*
G01*
X86350000Y-63620000D02*
X85100000Y-63620000D01*
G75*
G02*
X84850000Y-63370000I0J250000D01*
G01*
X84850000Y-62620000D01*
G75*
G02*
X85100000Y-62370000I250000J0D01*
G01*
X86350000Y-62370000D01*
G75*
G02*
X86600000Y-62620000I0J-250000D01*
G01*
X86600000Y-63370000D01*
G75*
G02*
X86350000Y-63620000I-250000J0D01*
G01*
G37*
G36*
G01*
X86350000Y-60820000D02*
X85100000Y-60820000D01*
G75*
G02*
X84850000Y-60570000I0J250000D01*
G01*
X84850000Y-59820000D01*
G75*
G02*
X85100000Y-59570000I250000J0D01*
G01*
X86350000Y-59570000D01*
G75*
G02*
X86600000Y-59820000I0J-250000D01*
G01*
X86600000Y-60570000D01*
G75*
G02*
X86350000Y-60820000I-250000J0D01*
G01*
G37*
G36*
X86475000Y-57315000D02*
G01*
X86475000Y-57815000D01*
X86469911Y-57815000D01*
X86469911Y-57886157D01*
X86429816Y-58022708D01*
X86352875Y-58142430D01*
X86245320Y-58235627D01*
X86115866Y-58294746D01*
X85975000Y-58315000D01*
X85475000Y-58315000D01*
X85334134Y-58294746D01*
X85204680Y-58235627D01*
X85097125Y-58142430D01*
X85020184Y-58022708D01*
X84980089Y-57886157D01*
X84980089Y-57815000D01*
X84975000Y-57815000D01*
X84975000Y-57315000D01*
X86475000Y-57315000D01*
G37*
G36*
X84980089Y-56515000D02*
G01*
X84980089Y-56443843D01*
X85020184Y-56307292D01*
X85097125Y-56187570D01*
X85204680Y-56094373D01*
X85334134Y-56035254D01*
X85475000Y-56015000D01*
X85975000Y-56015000D01*
X86115866Y-56035254D01*
X86245320Y-56094373D01*
X86352875Y-56187570D01*
X86429816Y-56307292D01*
X86469911Y-56443843D01*
X86469911Y-56515000D01*
X86475000Y-56515000D01*
X86475000Y-57015000D01*
X84975000Y-57015000D01*
X84975000Y-56515000D01*
X84980089Y-56515000D01*
G37*
G36*
X35040000Y-57315000D02*
G01*
X35040000Y-57815000D01*
X35034911Y-57815000D01*
X35034911Y-57886157D01*
X34994816Y-58022708D01*
X34917875Y-58142430D01*
X34810320Y-58235627D01*
X34680866Y-58294746D01*
X34540000Y-58315000D01*
X34040000Y-58315000D01*
X33899134Y-58294746D01*
X33769680Y-58235627D01*
X33662125Y-58142430D01*
X33585184Y-58022708D01*
X33545089Y-57886157D01*
X33545089Y-57815000D01*
X33540000Y-57815000D01*
X33540000Y-57315000D01*
X35040000Y-57315000D01*
G37*
G36*
X33545089Y-56515000D02*
G01*
X33545089Y-56443843D01*
X33585184Y-56307292D01*
X33662125Y-56187570D01*
X33769680Y-56094373D01*
X33899134Y-56035254D01*
X34040000Y-56015000D01*
X34540000Y-56015000D01*
X34680866Y-56035254D01*
X34810320Y-56094373D01*
X34917875Y-56187570D01*
X34994816Y-56307292D01*
X35034911Y-56443843D01*
X35034911Y-56515000D01*
X35040000Y-56515000D01*
X35040000Y-57015000D01*
X33540000Y-57015000D01*
X33540000Y-56515000D01*
X33545089Y-56515000D01*
G37*
G36*
X64250000Y-57315000D02*
G01*
X64250000Y-57815000D01*
X64244911Y-57815000D01*
X64244911Y-57886157D01*
X64204816Y-58022708D01*
X64127875Y-58142430D01*
X64020320Y-58235627D01*
X63890866Y-58294746D01*
X63750000Y-58315000D01*
X63250000Y-58315000D01*
X63109134Y-58294746D01*
X62979680Y-58235627D01*
X62872125Y-58142430D01*
X62795184Y-58022708D01*
X62755089Y-57886157D01*
X62755089Y-57815000D01*
X62750000Y-57815000D01*
X62750000Y-57315000D01*
X64250000Y-57315000D01*
G37*
G36*
X62755089Y-56515000D02*
G01*
X62755089Y-56443843D01*
X62795184Y-56307292D01*
X62872125Y-56187570D01*
X62979680Y-56094373D01*
X63109134Y-56035254D01*
X63250000Y-56015000D01*
X63750000Y-56015000D01*
X63890866Y-56035254D01*
X64020320Y-56094373D01*
X64127875Y-56187570D01*
X64204816Y-56307292D01*
X64244911Y-56443843D01*
X64244911Y-56515000D01*
X64250000Y-56515000D01*
X64250000Y-57015000D01*
X62750000Y-57015000D01*
X62750000Y-56515000D01*
X62755089Y-56515000D01*
G37*
G36*
G01*
X32375000Y-63427500D02*
X31125000Y-63427500D01*
G75*
G02*
X30875000Y-63177500I0J250000D01*
G01*
X30875000Y-62552500D01*
G75*
G02*
X31125000Y-62302500I250000J0D01*
G01*
X32375000Y-62302500D01*
G75*
G02*
X32625000Y-62552500I0J-250000D01*
G01*
X32625000Y-63177500D01*
G75*
G02*
X32375000Y-63427500I-250000J0D01*
G01*
G37*
G36*
G01*
X32375000Y-60502500D02*
X31125000Y-60502500D01*
G75*
G02*
X30875000Y-60252500I0J250000D01*
G01*
X30875000Y-59627500D01*
G75*
G02*
X31125000Y-59377500I250000J0D01*
G01*
X32375000Y-59377500D01*
G75*
G02*
X32625000Y-59627500I0J-250000D01*
G01*
X32625000Y-60252500D01*
G75*
G02*
X32375000Y-60502500I-250000J0D01*
G01*
G37*
G36*
G01*
X61585000Y-63620000D02*
X60335000Y-63620000D01*
G75*
G02*
X60085000Y-63370000I0J250000D01*
G01*
X60085000Y-62745000D01*
G75*
G02*
X60335000Y-62495000I250000J0D01*
G01*
X61585000Y-62495000D01*
G75*
G02*
X61835000Y-62745000I0J-250000D01*
G01*
X61835000Y-63370000D01*
G75*
G02*
X61585000Y-63620000I-250000J0D01*
G01*
G37*
G36*
G01*
X61585000Y-60695000D02*
X60335000Y-60695000D01*
G75*
G02*
X60085000Y-60445000I0J250000D01*
G01*
X60085000Y-59820000D01*
G75*
G02*
X60335000Y-59570000I250000J0D01*
G01*
X61585000Y-59570000D01*
G75*
G02*
X61835000Y-59820000I0J-250000D01*
G01*
X61835000Y-60445000D01*
G75*
G02*
X61585000Y-60695000I-250000J0D01*
G01*
G37*
G36*
G01*
X83810000Y-63620000D02*
X82560000Y-63620000D01*
G75*
G02*
X82310000Y-63370000I0J250000D01*
G01*
X82310000Y-62745000D01*
G75*
G02*
X82560000Y-62495000I250000J0D01*
G01*
X83810000Y-62495000D01*
G75*
G02*
X84060000Y-62745000I0J-250000D01*
G01*
X84060000Y-63370000D01*
G75*
G02*
X83810000Y-63620000I-250000J0D01*
G01*
G37*
G36*
G01*
X83810000Y-60695000D02*
X82560000Y-60695000D01*
G75*
G02*
X82310000Y-60445000I0J250000D01*
G01*
X82310000Y-59820000D01*
G75*
G02*
X82560000Y-59570000I250000J0D01*
G01*
X83810000Y-59570000D01*
G75*
G02*
X84060000Y-59820000I0J-250000D01*
G01*
X84060000Y-60445000D01*
G75*
G02*
X83810000Y-60695000I-250000J0D01*
G01*
G37*
D16*
X38100000Y-60960000D03*
D17*
X41600000Y-60960000D03*
G36*
G01*
X107725000Y-47850000D02*
X106275000Y-47850000D01*
G75*
G02*
X106025000Y-47600000I0J250000D01*
G01*
X106025000Y-46400000D01*
G75*
G02*
X106275000Y-46150000I250000J0D01*
G01*
X107725000Y-46150000D01*
G75*
G02*
X107975000Y-46400000I0J-250000D01*
G01*
X107975000Y-47600000D01*
G75*
G02*
X107725000Y-47850000I-250000J0D01*
G01*
G37*
D18*
X107000000Y-44500000D03*
X107000000Y-42000000D03*
X107000000Y-39500000D03*
D19*
X28860000Y-31750000D03*
G36*
G01*
X21360000Y-32750000D02*
X21360000Y-30750000D01*
G75*
G02*
X22110000Y-30000000I750000J0D01*
G01*
X23610000Y-30000000D01*
G75*
G02*
X24360000Y-30750000I0J-750000D01*
G01*
X24360000Y-32750000D01*
G75*
G02*
X23610000Y-33500000I-750000J0D01*
G01*
X22110000Y-33500000D01*
G75*
G02*
X21360000Y-32750000I0J750000D01*
G01*
G37*
G36*
G01*
X24110000Y-37325000D02*
X24110000Y-35575000D01*
G75*
G02*
X24985000Y-34700000I875000J0D01*
G01*
X26735000Y-34700000D01*
G75*
G02*
X27610000Y-35575000I0J-875000D01*
G01*
X27610000Y-37325000D01*
G75*
G02*
X26735000Y-38200000I-875000J0D01*
G01*
X24985000Y-38200000D01*
G75*
G02*
X24110000Y-37325000I0J875000D01*
G01*
G37*
G36*
G01*
X61450000Y-26150000D02*
X61450000Y-24850000D01*
G75*
G02*
X61700000Y-24600000I250000J0D01*
G01*
X62350000Y-24600000D01*
G75*
G02*
X62600000Y-24850000I0J-250000D01*
G01*
X62600000Y-26150000D01*
G75*
G02*
X62350000Y-26400000I-250000J0D01*
G01*
X61700000Y-26400000D01*
G75*
G02*
X61450000Y-26150000I0J250000D01*
G01*
G37*
G36*
G01*
X64400000Y-26150000D02*
X64400000Y-24850000D01*
G75*
G02*
X64650000Y-24600000I250000J0D01*
G01*
X65300000Y-24600000D01*
G75*
G02*
X65550000Y-24850000I0J-250000D01*
G01*
X65550000Y-26150000D01*
G75*
G02*
X65300000Y-26400000I-250000J0D01*
G01*
X64650000Y-26400000D01*
G75*
G02*
X64400000Y-26150000I0J250000D01*
G01*
G37*
G36*
G01*
X66800000Y-28125000D02*
X68100000Y-28125000D01*
G75*
G02*
X68350000Y-28375000I0J-250000D01*
G01*
X68350000Y-29025000D01*
G75*
G02*
X68100000Y-29275000I-250000J0D01*
G01*
X66800000Y-29275000D01*
G75*
G02*
X66550000Y-29025000I0J250000D01*
G01*
X66550000Y-28375000D01*
G75*
G02*
X66800000Y-28125000I250000J0D01*
G01*
G37*
G36*
G01*
X66800000Y-31075000D02*
X68100000Y-31075000D01*
G75*
G02*
X68350000Y-31325000I0J-250000D01*
G01*
X68350000Y-31975000D01*
G75*
G02*
X68100000Y-32225000I-250000J0D01*
G01*
X66800000Y-32225000D01*
G75*
G02*
X66550000Y-31975000I0J250000D01*
G01*
X66550000Y-31325000D01*
G75*
G02*
X66800000Y-31075000I250000J0D01*
G01*
G37*
G36*
G01*
X69275000Y-47350000D02*
X69275000Y-48650000D01*
G75*
G02*
X69025000Y-48900000I-250000J0D01*
G01*
X68375000Y-48900000D01*
G75*
G02*
X68125000Y-48650000I0J250000D01*
G01*
X68125000Y-47350000D01*
G75*
G02*
X68375000Y-47100000I250000J0D01*
G01*
X69025000Y-47100000D01*
G75*
G02*
X69275000Y-47350000I0J-250000D01*
G01*
G37*
G36*
G01*
X66325000Y-47350000D02*
X66325000Y-48650000D01*
G75*
G02*
X66075000Y-48900000I-250000J0D01*
G01*
X65425000Y-48900000D01*
G75*
G02*
X65175000Y-48650000I0J250000D01*
G01*
X65175000Y-47350000D01*
G75*
G02*
X65425000Y-47100000I250000J0D01*
G01*
X66075000Y-47100000D01*
G75*
G02*
X66325000Y-47350000I0J-250000D01*
G01*
G37*
G36*
G01*
X69300000Y-50600000D02*
X69300000Y-51900000D01*
G75*
G02*
X69050000Y-52150000I-250000J0D01*
G01*
X68400000Y-52150000D01*
G75*
G02*
X68150000Y-51900000I0J250000D01*
G01*
X68150000Y-50600000D01*
G75*
G02*
X68400000Y-50350000I250000J0D01*
G01*
X69050000Y-50350000D01*
G75*
G02*
X69300000Y-50600000I0J-250000D01*
G01*
G37*
G36*
G01*
X66350000Y-50600000D02*
X66350000Y-51900000D01*
G75*
G02*
X66100000Y-52150000I-250000J0D01*
G01*
X65450000Y-52150000D01*
G75*
G02*
X65200000Y-51900000I0J250000D01*
G01*
X65200000Y-50600000D01*
G75*
G02*
X65450000Y-50350000I250000J0D01*
G01*
X66100000Y-50350000D01*
G75*
G02*
X66350000Y-50600000I0J-250000D01*
G01*
G37*
D20*
X65500000Y-38400000D03*
X75000000Y-38400000D03*
G36*
G01*
X57375000Y-51487500D02*
X56125000Y-51487500D01*
G75*
G02*
X55875000Y-51237500I0J250000D01*
G01*
X55875000Y-50612500D01*
G75*
G02*
X56125000Y-50362500I250000J0D01*
G01*
X57375000Y-50362500D01*
G75*
G02*
X57625000Y-50612500I0J-250000D01*
G01*
X57625000Y-51237500D01*
G75*
G02*
X57375000Y-51487500I-250000J0D01*
G01*
G37*
G36*
G01*
X57375000Y-48562500D02*
X56125000Y-48562500D01*
G75*
G02*
X55875000Y-48312500I0J250000D01*
G01*
X55875000Y-47687500D01*
G75*
G02*
X56125000Y-47437500I250000J0D01*
G01*
X57375000Y-47437500D01*
G75*
G02*
X57625000Y-47687500I0J-250000D01*
G01*
X57625000Y-48312500D01*
G75*
G02*
X57375000Y-48562500I-250000J0D01*
G01*
G37*
G36*
G01*
X58262500Y-48625000D02*
X58262500Y-47375000D01*
G75*
G02*
X58512500Y-47125000I250000J0D01*
G01*
X59137500Y-47125000D01*
G75*
G02*
X59387500Y-47375000I0J-250000D01*
G01*
X59387500Y-48625000D01*
G75*
G02*
X59137500Y-48875000I-250000J0D01*
G01*
X58512500Y-48875000D01*
G75*
G02*
X58262500Y-48625000I0J250000D01*
G01*
G37*
G36*
G01*
X61187500Y-48625000D02*
X61187500Y-47375000D01*
G75*
G02*
X61437500Y-47125000I250000J0D01*
G01*
X62062500Y-47125000D01*
G75*
G02*
X62312500Y-47375000I0J-250000D01*
G01*
X62312500Y-48625000D01*
G75*
G02*
X62062500Y-48875000I-250000J0D01*
G01*
X61437500Y-48875000D01*
G75*
G02*
X61187500Y-48625000I0J250000D01*
G01*
G37*
G36*
G01*
X58450000Y-38650000D02*
X58450000Y-37350000D01*
G75*
G02*
X58700000Y-37100000I250000J0D01*
G01*
X59350000Y-37100000D01*
G75*
G02*
X59600000Y-37350000I0J-250000D01*
G01*
X59600000Y-38650000D01*
G75*
G02*
X59350000Y-38900000I-250000J0D01*
G01*
X58700000Y-38900000D01*
G75*
G02*
X58450000Y-38650000I0J250000D01*
G01*
G37*
G36*
G01*
X61400000Y-38650000D02*
X61400000Y-37350000D01*
G75*
G02*
X61650000Y-37100000I250000J0D01*
G01*
X62300000Y-37100000D01*
G75*
G02*
X62550000Y-37350000I0J-250000D01*
G01*
X62550000Y-38650000D01*
G75*
G02*
X62300000Y-38900000I-250000J0D01*
G01*
X61650000Y-38900000D01*
G75*
G02*
X61400000Y-38650000I0J250000D01*
G01*
G37*
G36*
G01*
X61450000Y-23400000D02*
X61450000Y-22100000D01*
G75*
G02*
X61700000Y-21850000I250000J0D01*
G01*
X62350000Y-21850000D01*
G75*
G02*
X62600000Y-22100000I0J-250000D01*
G01*
X62600000Y-23400000D01*
G75*
G02*
X62350000Y-23650000I-250000J0D01*
G01*
X61700000Y-23650000D01*
G75*
G02*
X61450000Y-23400000I0J250000D01*
G01*
G37*
G36*
G01*
X64400000Y-23400000D02*
X64400000Y-22100000D01*
G75*
G02*
X64650000Y-21850000I250000J0D01*
G01*
X65300000Y-21850000D01*
G75*
G02*
X65550000Y-22100000I0J-250000D01*
G01*
X65550000Y-23400000D01*
G75*
G02*
X65300000Y-23650000I-250000J0D01*
G01*
X64650000Y-23650000D01*
G75*
G02*
X64400000Y-23400000I0J250000D01*
G01*
G37*
G36*
G01*
X58225000Y-45900000D02*
X58225000Y-44600000D01*
G75*
G02*
X58475000Y-44350000I250000J0D01*
G01*
X59125000Y-44350000D01*
G75*
G02*
X59375000Y-44600000I0J-250000D01*
G01*
X59375000Y-45900000D01*
G75*
G02*
X59125000Y-46150000I-250000J0D01*
G01*
X58475000Y-46150000D01*
G75*
G02*
X58225000Y-45900000I0J250000D01*
G01*
G37*
G36*
G01*
X61175000Y-45900000D02*
X61175000Y-44600000D01*
G75*
G02*
X61425000Y-44350000I250000J0D01*
G01*
X62075000Y-44350000D01*
G75*
G02*
X62325000Y-44600000I0J-250000D01*
G01*
X62325000Y-45900000D01*
G75*
G02*
X62075000Y-46150000I-250000J0D01*
G01*
X61425000Y-46150000D01*
G75*
G02*
X61175000Y-45900000I0J250000D01*
G01*
G37*
G36*
G01*
X57525000Y-25350000D02*
X57525000Y-26650000D01*
G75*
G02*
X57275000Y-26900000I-250000J0D01*
G01*
X56625000Y-26900000D01*
G75*
G02*
X56375000Y-26650000I0J250000D01*
G01*
X56375000Y-25350000D01*
G75*
G02*
X56625000Y-25100000I250000J0D01*
G01*
X57275000Y-25100000D01*
G75*
G02*
X57525000Y-25350000I0J-250000D01*
G01*
G37*
G36*
G01*
X54575000Y-25350000D02*
X54575000Y-26650000D01*
G75*
G02*
X54325000Y-26900000I-250000J0D01*
G01*
X53675000Y-26900000D01*
G75*
G02*
X53425000Y-26650000I0J250000D01*
G01*
X53425000Y-25350000D01*
G75*
G02*
X53675000Y-25100000I250000J0D01*
G01*
X54325000Y-25100000D01*
G75*
G02*
X54575000Y-25350000I0J-250000D01*
G01*
G37*
G36*
G01*
X69300000Y-44600000D02*
X69300000Y-45900000D01*
G75*
G02*
X69050000Y-46150000I-250000J0D01*
G01*
X68400000Y-46150000D01*
G75*
G02*
X68150000Y-45900000I0J250000D01*
G01*
X68150000Y-44600000D01*
G75*
G02*
X68400000Y-44350000I250000J0D01*
G01*
X69050000Y-44350000D01*
G75*
G02*
X69300000Y-44600000I0J-250000D01*
G01*
G37*
G36*
G01*
X66350000Y-44600000D02*
X66350000Y-45900000D01*
G75*
G02*
X66100000Y-46150000I-250000J0D01*
G01*
X65450000Y-46150000D01*
G75*
G02*
X65200000Y-45900000I0J250000D01*
G01*
X65200000Y-44600000D01*
G75*
G02*
X65450000Y-44350000I250000J0D01*
G01*
X66100000Y-44350000D01*
G75*
G02*
X66350000Y-44600000I0J-250000D01*
G01*
G37*
G36*
G01*
X71262000Y-32301500D02*
X69962000Y-32301500D01*
G75*
G02*
X69712000Y-32051500I0J250000D01*
G01*
X69712000Y-30051500D01*
G75*
G02*
X69962000Y-29801500I250000J0D01*
G01*
X71262000Y-29801500D01*
G75*
G02*
X71512000Y-30051500I0J-250000D01*
G01*
X71512000Y-32051500D01*
G75*
G02*
X71262000Y-32301500I-250000J0D01*
G01*
G37*
G36*
G01*
X71262000Y-28301500D02*
X69962000Y-28301500D01*
G75*
G02*
X69712000Y-28051500I0J250000D01*
G01*
X69712000Y-26051500D01*
G75*
G02*
X69962000Y-25801500I250000J0D01*
G01*
X71262000Y-25801500D01*
G75*
G02*
X71512000Y-26051500I0J-250000D01*
G01*
X71512000Y-28051500D01*
G75*
G02*
X71262000Y-28301500I-250000J0D01*
G01*
G37*
G36*
G01*
X58375000Y-39512500D02*
X59625000Y-39512500D01*
G75*
G02*
X59875000Y-39762500I0J-250000D01*
G01*
X59875000Y-40387500D01*
G75*
G02*
X59625000Y-40637500I-250000J0D01*
G01*
X58375000Y-40637500D01*
G75*
G02*
X58125000Y-40387500I0J250000D01*
G01*
X58125000Y-39762500D01*
G75*
G02*
X58375000Y-39512500I250000J0D01*
G01*
G37*
G36*
G01*
X58375000Y-42437500D02*
X59625000Y-42437500D01*
G75*
G02*
X59875000Y-42687500I0J-250000D01*
G01*
X59875000Y-43312500D01*
G75*
G02*
X59625000Y-43562500I-250000J0D01*
G01*
X58375000Y-43562500D01*
G75*
G02*
X58125000Y-43312500I0J250000D01*
G01*
X58125000Y-42687500D01*
G75*
G02*
X58375000Y-42437500I250000J0D01*
G01*
G37*
G36*
G01*
X63005000Y-27800000D02*
X63305000Y-27800000D01*
G75*
G02*
X63455000Y-27950000I0J-150000D01*
G01*
X63455000Y-29600000D01*
G75*
G02*
X63305000Y-29750000I-150000J0D01*
G01*
X63005000Y-29750000D01*
G75*
G02*
X62855000Y-29600000I0J150000D01*
G01*
X62855000Y-27950000D01*
G75*
G02*
X63005000Y-27800000I150000J0D01*
G01*
G37*
G36*
G01*
X61735000Y-27800000D02*
X62035000Y-27800000D01*
G75*
G02*
X62185000Y-27950000I0J-150000D01*
G01*
X62185000Y-29600000D01*
G75*
G02*
X62035000Y-29750000I-150000J0D01*
G01*
X61735000Y-29750000D01*
G75*
G02*
X61585000Y-29600000I0J150000D01*
G01*
X61585000Y-27950000D01*
G75*
G02*
X61735000Y-27800000I150000J0D01*
G01*
G37*
G36*
G01*
X60465000Y-27800000D02*
X60765000Y-27800000D01*
G75*
G02*
X60915000Y-27950000I0J-150000D01*
G01*
X60915000Y-29600000D01*
G75*
G02*
X60765000Y-29750000I-150000J0D01*
G01*
X60465000Y-29750000D01*
G75*
G02*
X60315000Y-29600000I0J150000D01*
G01*
X60315000Y-27950000D01*
G75*
G02*
X60465000Y-27800000I150000J0D01*
G01*
G37*
G36*
G01*
X59195000Y-27800000D02*
X59495000Y-27800000D01*
G75*
G02*
X59645000Y-27950000I0J-150000D01*
G01*
X59645000Y-29600000D01*
G75*
G02*
X59495000Y-29750000I-150000J0D01*
G01*
X59195000Y-29750000D01*
G75*
G02*
X59045000Y-29600000I0J150000D01*
G01*
X59045000Y-27950000D01*
G75*
G02*
X59195000Y-27800000I150000J0D01*
G01*
G37*
G36*
G01*
X59195000Y-32750000D02*
X59495000Y-32750000D01*
G75*
G02*
X59645000Y-32900000I0J-150000D01*
G01*
X59645000Y-34550000D01*
G75*
G02*
X59495000Y-34700000I-150000J0D01*
G01*
X59195000Y-34700000D01*
G75*
G02*
X59045000Y-34550000I0J150000D01*
G01*
X59045000Y-32900000D01*
G75*
G02*
X59195000Y-32750000I150000J0D01*
G01*
G37*
G36*
G01*
X60465000Y-32750000D02*
X60765000Y-32750000D01*
G75*
G02*
X60915000Y-32900000I0J-150000D01*
G01*
X60915000Y-34550000D01*
G75*
G02*
X60765000Y-34700000I-150000J0D01*
G01*
X60465000Y-34700000D01*
G75*
G02*
X60315000Y-34550000I0J150000D01*
G01*
X60315000Y-32900000D01*
G75*
G02*
X60465000Y-32750000I150000J0D01*
G01*
G37*
G36*
G01*
X61735000Y-32750000D02*
X62035000Y-32750000D01*
G75*
G02*
X62185000Y-32900000I0J-150000D01*
G01*
X62185000Y-34550000D01*
G75*
G02*
X62035000Y-34700000I-150000J0D01*
G01*
X61735000Y-34700000D01*
G75*
G02*
X61585000Y-34550000I0J150000D01*
G01*
X61585000Y-32900000D01*
G75*
G02*
X61735000Y-32750000I150000J0D01*
G01*
G37*
G36*
G01*
X63005000Y-32750000D02*
X63305000Y-32750000D01*
G75*
G02*
X63455000Y-32900000I0J-150000D01*
G01*
X63455000Y-34550000D01*
G75*
G02*
X63305000Y-34700000I-150000J0D01*
G01*
X63005000Y-34700000D01*
G75*
G02*
X62855000Y-34550000I0J150000D01*
G01*
X62855000Y-32900000D01*
G75*
G02*
X63005000Y-32750000I150000J0D01*
G01*
G37*
D16*
X89535000Y-60960000D03*
D17*
X93035000Y-60960000D03*
G36*
G01*
X64125000Y-63620000D02*
X62875000Y-63620000D01*
G75*
G02*
X62625000Y-63370000I0J250000D01*
G01*
X62625000Y-62620000D01*
G75*
G02*
X62875000Y-62370000I250000J0D01*
G01*
X64125000Y-62370000D01*
G75*
G02*
X64375000Y-62620000I0J-250000D01*
G01*
X64375000Y-63370000D01*
G75*
G02*
X64125000Y-63620000I-250000J0D01*
G01*
G37*
G36*
G01*
X64125000Y-60820000D02*
X62875000Y-60820000D01*
G75*
G02*
X62625000Y-60570000I0J250000D01*
G01*
X62625000Y-59820000D01*
G75*
G02*
X62875000Y-59570000I250000J0D01*
G01*
X64125000Y-59570000D01*
G75*
G02*
X64375000Y-59820000I0J-250000D01*
G01*
X64375000Y-60570000D01*
G75*
G02*
X64125000Y-60820000I-250000J0D01*
G01*
G37*
D16*
X67310000Y-60960000D03*
D17*
X70810000Y-60960000D03*
D21*
X24000000Y-62000000D03*
X111000000Y-62000000D03*
X111000000Y-24000000D03*
G36*
G01*
X49562500Y-28275000D02*
X49562500Y-29525000D01*
G75*
G02*
X49312500Y-29775000I-250000J0D01*
G01*
X48687500Y-29775000D01*
G75*
G02*
X48437500Y-29525000I0J250000D01*
G01*
X48437500Y-28275000D01*
G75*
G02*
X48687500Y-28025000I250000J0D01*
G01*
X49312500Y-28025000D01*
G75*
G02*
X49562500Y-28275000I0J-250000D01*
G01*
G37*
G36*
G01*
X46637500Y-28275000D02*
X46637500Y-29525000D01*
G75*
G02*
X46387500Y-29775000I-250000J0D01*
G01*
X45762500Y-29775000D01*
G75*
G02*
X45512500Y-29525000I0J250000D01*
G01*
X45512500Y-28275000D01*
G75*
G02*
X45762500Y-28025000I250000J0D01*
G01*
X46387500Y-28025000D01*
G75*
G02*
X46637500Y-28275000I0J-250000D01*
G01*
G37*
G36*
G01*
X40712500Y-25025000D02*
X40712500Y-23775000D01*
G75*
G02*
X40962500Y-23525000I250000J0D01*
G01*
X41587500Y-23525000D01*
G75*
G02*
X41837500Y-23775000I0J-250000D01*
G01*
X41837500Y-25025000D01*
G75*
G02*
X41587500Y-25275000I-250000J0D01*
G01*
X40962500Y-25275000D01*
G75*
G02*
X40712500Y-25025000I0J250000D01*
G01*
G37*
G36*
G01*
X43637500Y-25025000D02*
X43637500Y-23775000D01*
G75*
G02*
X43887500Y-23525000I250000J0D01*
G01*
X44512500Y-23525000D01*
G75*
G02*
X44762500Y-23775000I0J-250000D01*
G01*
X44762500Y-25025000D01*
G75*
G02*
X44512500Y-25275000I-250000J0D01*
G01*
X43887500Y-25275000D01*
G75*
G02*
X43637500Y-25025000I0J250000D01*
G01*
G37*
G36*
G01*
X41500000Y-29575000D02*
X41200000Y-29575000D01*
G75*
G02*
X41050000Y-29425000I0J150000D01*
G01*
X41050000Y-28250000D01*
G75*
G02*
X41200000Y-28100000I150000J0D01*
G01*
X41500000Y-28100000D01*
G75*
G02*
X41650000Y-28250000I0J-150000D01*
G01*
X41650000Y-29425000D01*
G75*
G02*
X41500000Y-29575000I-150000J0D01*
G01*
G37*
G36*
G01*
X43400000Y-29575000D02*
X43100000Y-29575000D01*
G75*
G02*
X42950000Y-29425000I0J150000D01*
G01*
X42950000Y-28250000D01*
G75*
G02*
X43100000Y-28100000I150000J0D01*
G01*
X43400000Y-28100000D01*
G75*
G02*
X43550000Y-28250000I0J-150000D01*
G01*
X43550000Y-29425000D01*
G75*
G02*
X43400000Y-29575000I-150000J0D01*
G01*
G37*
G36*
G01*
X42450000Y-27700000D02*
X42150000Y-27700000D01*
G75*
G02*
X42000000Y-27550000I0J150000D01*
G01*
X42000000Y-26375000D01*
G75*
G02*
X42150000Y-26225000I150000J0D01*
G01*
X42450000Y-26225000D01*
G75*
G02*
X42600000Y-26375000I0J-150000D01*
G01*
X42600000Y-27550000D01*
G75*
G02*
X42450000Y-27700000I-150000J0D01*
G01*
G37*
G36*
G01*
X33016000Y-34770000D02*
X32516000Y-34770000D01*
G75*
G02*
X32266000Y-34520000I0J250000D01*
G01*
X32266000Y-34020000D01*
G75*
G02*
X32516000Y-33770000I250000J0D01*
G01*
X33016000Y-33770000D01*
G75*
G02*
X33266000Y-34020000I0J-250000D01*
G01*
X33266000Y-34520000D01*
G75*
G02*
X33016000Y-34770000I-250000J0D01*
G01*
G37*
G36*
G01*
X33016000Y-32270000D02*
X32516000Y-32270000D01*
G75*
G02*
X32266000Y-32020000I0J250000D01*
G01*
X32266000Y-31520000D01*
G75*
G02*
X32516000Y-31270000I250000J0D01*
G01*
X33016000Y-31270000D01*
G75*
G02*
X33266000Y-31520000I0J-250000D01*
G01*
X33266000Y-32020000D01*
G75*
G02*
X33016000Y-32270000I-250000J0D01*
G01*
G37*
X24000000Y-24000000D03*
D16*
X36830000Y-25400000D03*
D17*
X33330000Y-25400000D03*
G36*
G01*
X50842000Y-43218000D02*
X49742000Y-43218000D01*
G75*
G02*
X49492000Y-42968000I0J250000D01*
G01*
X49492000Y-39968000D01*
G75*
G02*
X49742000Y-39718000I250000J0D01*
G01*
X50842000Y-39718000D01*
G75*
G02*
X51092000Y-39968000I0J-250000D01*
G01*
X51092000Y-42968000D01*
G75*
G02*
X50842000Y-43218000I-250000J0D01*
G01*
G37*
G36*
G01*
X50842000Y-37818000D02*
X49742000Y-37818000D01*
G75*
G02*
X49492000Y-37568000I0J250000D01*
G01*
X49492000Y-34568000D01*
G75*
G02*
X49742000Y-34318000I250000J0D01*
G01*
X50842000Y-34318000D01*
G75*
G02*
X51092000Y-34568000I0J-250000D01*
G01*
X51092000Y-37568000D01*
G75*
G02*
X50842000Y-37818000I-250000J0D01*
G01*
G37*
G36*
G01*
X49742000Y-43810000D02*
X50842000Y-43810000D01*
G75*
G02*
X51092000Y-44060000I0J-250000D01*
G01*
X51092000Y-47060000D01*
G75*
G02*
X50842000Y-47310000I-250000J0D01*
G01*
X49742000Y-47310000D01*
G75*
G02*
X49492000Y-47060000I0J250000D01*
G01*
X49492000Y-44060000D01*
G75*
G02*
X49742000Y-43810000I250000J0D01*
G01*
G37*
G36*
G01*
X49742000Y-49210000D02*
X50842000Y-49210000D01*
G75*
G02*
X51092000Y-49460000I0J-250000D01*
G01*
X51092000Y-52460000D01*
G75*
G02*
X50842000Y-52710000I-250000J0D01*
G01*
X49742000Y-52710000D01*
G75*
G02*
X49492000Y-52460000I0J250000D01*
G01*
X49492000Y-49460000D01*
G75*
G02*
X49742000Y-49210000I250000J0D01*
G01*
G37*
G36*
G01*
X50842000Y-63886000D02*
X49742000Y-63886000D01*
G75*
G02*
X49492000Y-63636000I0J250000D01*
G01*
X49492000Y-60636000D01*
G75*
G02*
X49742000Y-60386000I250000J0D01*
G01*
X50842000Y-60386000D01*
G75*
G02*
X51092000Y-60636000I0J-250000D01*
G01*
X51092000Y-63636000D01*
G75*
G02*
X50842000Y-63886000I-250000J0D01*
G01*
G37*
G36*
G01*
X50842000Y-58486000D02*
X49742000Y-58486000D01*
G75*
G02*
X49492000Y-58236000I0J250000D01*
G01*
X49492000Y-55236000D01*
G75*
G02*
X49742000Y-54986000I250000J0D01*
G01*
X50842000Y-54986000D01*
G75*
G02*
X51092000Y-55236000I0J-250000D01*
G01*
X51092000Y-58236000D01*
G75*
G02*
X50842000Y-58486000I-250000J0D01*
G01*
G37*
D22*
X35814000Y-36068000D03*
G36*
G01*
X39400000Y-43042000D02*
X39400000Y-44842000D01*
G75*
G02*
X39150000Y-45092000I-250000J0D01*
G01*
X37150000Y-45092000D01*
G75*
G02*
X36900000Y-44842000I0J250000D01*
G01*
X36900000Y-43042000D01*
G75*
G02*
X37150000Y-42792000I250000J0D01*
G01*
X39150000Y-42792000D01*
G75*
G02*
X39400000Y-43042000I0J-250000D01*
G01*
G37*
G36*
G01*
X35100000Y-43042000D02*
X35100000Y-44842000D01*
G75*
G02*
X34850000Y-45092000I-250000J0D01*
G01*
X32850000Y-45092000D01*
G75*
G02*
X32600000Y-44842000I0J250000D01*
G01*
X32600000Y-43042000D01*
G75*
G02*
X32850000Y-42792000I250000J0D01*
G01*
X34850000Y-42792000D01*
G75*
G02*
X35100000Y-43042000I0J-250000D01*
G01*
G37*
G36*
G01*
X39350000Y-47614000D02*
X39350000Y-49414000D01*
G75*
G02*
X39100000Y-49664000I-250000J0D01*
G01*
X37100000Y-49664000D01*
G75*
G02*
X36850000Y-49414000I0J250000D01*
G01*
X36850000Y-47614000D01*
G75*
G02*
X37100000Y-47364000I250000J0D01*
G01*
X39100000Y-47364000D01*
G75*
G02*
X39350000Y-47614000I0J-250000D01*
G01*
G37*
G36*
G01*
X35050000Y-47614000D02*
X35050000Y-49414000D01*
G75*
G02*
X34800000Y-49664000I-250000J0D01*
G01*
X32800000Y-49664000D01*
G75*
G02*
X32550000Y-49414000I0J250000D01*
G01*
X32550000Y-47614000D01*
G75*
G02*
X32800000Y-47364000I250000J0D01*
G01*
X34800000Y-47364000D01*
G75*
G02*
X35050000Y-47614000I0J-250000D01*
G01*
G37*
X102362000Y-52832000D03*
G36*
G01*
X32600000Y-40342000D02*
X32600000Y-38542000D01*
G75*
G02*
X32850000Y-38292000I250000J0D01*
G01*
X34850000Y-38292000D01*
G75*
G02*
X35100000Y-38542000I0J-250000D01*
G01*
X35100000Y-40342000D01*
G75*
G02*
X34850000Y-40592000I-250000J0D01*
G01*
X32850000Y-40592000D01*
G75*
G02*
X32600000Y-40342000I0J250000D01*
G01*
G37*
G36*
G01*
X36900000Y-40342000D02*
X36900000Y-38542000D01*
G75*
G02*
X37150000Y-38292000I250000J0D01*
G01*
X39150000Y-38292000D01*
G75*
G02*
X39400000Y-38542000I0J-250000D01*
G01*
X39400000Y-40342000D01*
G75*
G02*
X39150000Y-40592000I-250000J0D01*
G01*
X37150000Y-40592000D01*
G75*
G02*
X36900000Y-40342000I0J250000D01*
G01*
G37*
X74676000Y-60960000D03*
X53086000Y-23622000D03*
X96774000Y-60960000D03*
X37846000Y-36068000D03*
G36*
G01*
X29348000Y-45818000D02*
X27548000Y-45818000D01*
G75*
G02*
X27298000Y-45568000I0J250000D01*
G01*
X27298000Y-43568000D01*
G75*
G02*
X27548000Y-43318000I250000J0D01*
G01*
X29348000Y-43318000D01*
G75*
G02*
X29598000Y-43568000I0J-250000D01*
G01*
X29598000Y-45568000D01*
G75*
G02*
X29348000Y-45818000I-250000J0D01*
G01*
G37*
G36*
G01*
X29348000Y-41518000D02*
X27548000Y-41518000D01*
G75*
G02*
X27298000Y-41268000I0J250000D01*
G01*
X27298000Y-39268000D01*
G75*
G02*
X27548000Y-39018000I250000J0D01*
G01*
X29348000Y-39018000D01*
G75*
G02*
X29598000Y-39268000I0J-250000D01*
G01*
X29598000Y-41268000D01*
G75*
G02*
X29348000Y-41518000I-250000J0D01*
G01*
G37*
G36*
G01*
X42534000Y-42964000D02*
X44334000Y-42964000D01*
G75*
G02*
X44584000Y-43214000I0J-250000D01*
G01*
X44584000Y-45214000D01*
G75*
G02*
X44334000Y-45464000I-250000J0D01*
G01*
X42534000Y-45464000D01*
G75*
G02*
X42284000Y-45214000I0J250000D01*
G01*
X42284000Y-43214000D01*
G75*
G02*
X42534000Y-42964000I250000J0D01*
G01*
G37*
G36*
G01*
X42534000Y-47264000D02*
X44334000Y-47264000D01*
G75*
G02*
X44584000Y-47514000I0J-250000D01*
G01*
X44584000Y-49514000D01*
G75*
G02*
X44334000Y-49764000I-250000J0D01*
G01*
X42534000Y-49764000D01*
G75*
G02*
X42284000Y-49514000I0J250000D01*
G01*
X42284000Y-47514000D01*
G75*
G02*
X42534000Y-47264000I250000J0D01*
G01*
G37*
X45212000Y-60960000D03*
X99314000Y-52832000D03*
X44704000Y-53086000D03*
G36*
G01*
X32550000Y-53986000D02*
X32550000Y-52186000D01*
G75*
G02*
X32800000Y-51936000I250000J0D01*
G01*
X34800000Y-51936000D01*
G75*
G02*
X35050000Y-52186000I0J-250000D01*
G01*
X35050000Y-53986000D01*
G75*
G02*
X34800000Y-54236000I-250000J0D01*
G01*
X32800000Y-54236000D01*
G75*
G02*
X32550000Y-53986000I0J250000D01*
G01*
G37*
G36*
G01*
X36850000Y-53986000D02*
X36850000Y-52186000D01*
G75*
G02*
X37100000Y-51936000I250000J0D01*
G01*
X39100000Y-51936000D01*
G75*
G02*
X39350000Y-52186000I0J-250000D01*
G01*
X39350000Y-53986000D01*
G75*
G02*
X39100000Y-54236000I-250000J0D01*
G01*
X37100000Y-54236000D01*
G75*
G02*
X36850000Y-53986000I0J250000D01*
G01*
G37*
X42164000Y-53086000D03*
X44704000Y-21590000D03*
M02*
