<?xml version="1.0" encoding="UTF-8" standalone="no"?>
<svg
   version="1.1"
   width="16.7mm"
   height="11.35mm"
   viewBox="-10.225 -5.675 16.7 11.35"
   id="svg254"
   sodipodi:docname="TO-263-5_TabPin3.svg"
   inkscape:version="1.2.2 (b0a8486541, 2022-12-01)"
   xmlns:inkscape="http://www.inkscape.org/namespaces/inkscape"
   xmlns:sodipodi="http://sodipodi.sourceforge.net/DTD/sodipodi-0.dtd"
   xmlns="http://www.w3.org/2000/svg"
   xmlns:svg="http://www.w3.org/2000/svg">
  <defs
     id="defs258" />
  <sodipodi:namedview
     id="namedview256"
     pagecolor="#ffffff"
     bordercolor="#000000"
     borderopacity="0.25"
     inkscape:showpageshadow="2"
     inkscape:pageopacity="0.0"
     inkscape:pagecheckerboard="0"
     inkscape:deskcolor="#d1d1d1"
     inkscape:document-units="mm"
     showgrid="false"
     showguides="true"
     inkscape:zoom="8"
     inkscape:cx="13.125"
     inkscape:cy="21.5625"
     inkscape:window-width="1487"
     inkscape:window-height="941"
     inkscape:window-x="50"
     inkscape:window-y="28"
     inkscape:window-maximized="0"
     inkscape:current-layer="g1550">
    <sodipodi:guide
       position="4.5467181,9.0727585"
       orientation="1,0"
       id="guide1831"
       inkscape:locked="false" />
  </sodipodi:namedview>
  <title
     id="title2">Picture generated by PcbDraw </title>
  <desc
     id="desc4">Picture generated by PcbDraw</desc>
  <g
     id="KiCAD footprint top">
    <g
       id="substrate-copper"
       style="fill:#999999;stroke:#666666;fill-opacity:1">
      <g
         style="fill-opacity:1;stroke-opacity:1;stroke-linecap:round;stroke-linejoin:round;fill:#999999"
         id="g6"
         transform="translate(0 0) scale(1 1)" />
      <g
         style="fill-opacity:1;stroke-width:0;stroke-opacity:1;stroke-linecap:round;stroke-linejoin:round;fill:#999999"
         id="g40">
        <g
           id="g8"
           style="fill:#999999;fill-opacity:1" />
        <g
           style="fill-opacity:1;stroke-width:0;stroke-opacity:1;stroke-linecap:round;stroke-linejoin:round;fill:#999999"
           id="g10" />
        <g
           style="fill-opacity:1;stroke-width:0;stroke-opacity:1;stroke-linecap:round;stroke-linejoin:round;fill:#999999"
           id="g32">
          <path
             style="fill-opacity:1;stroke-width:0;stroke-opacity:1;stroke-linecap:round;stroke-linejoin:round;fill-rule:evenodd;fill:#999999"
             d="M -9.9500,-3.7000 -9.9310,-3.7957 -9.8768,-3.8768 -9.7957,-3.9310 -9.7000,-3.9500 -5.6000,-3.9500 -5.5043,-3.9310 -5.4232,-3.8768 -5.3690,-3.7957 -5.3500,-3.7000 -5.3500,-3.1000 -5.3690,-3.0043 -5.4232,-2.9232 -5.5043,-2.8690 -5.6000,-2.8500 -9.7000,-2.8500 -9.7957,-2.8690 -9.8768,-2.9232 -9.9310,-3.0043 -9.9500,-3.1000 Z"
             id="path12" />
          <path
             style="fill-opacity:1;stroke-width:0;stroke-opacity:1;stroke-linecap:round;stroke-linejoin:round;fill-rule:evenodd;fill:#999999"
             d="M -9.9500,-2.0000 -9.9310,-2.0957 -9.8768,-2.1768 -9.7957,-2.2310 -9.7000,-2.2500 -5.6000,-2.2500 -5.5043,-2.2310 -5.4232,-2.1768 -5.3690,-2.0957 -5.3500,-2.0000 -5.3500,-1.4000 -5.3690,-1.3043 -5.4232,-1.2232 -5.5043,-1.1690 -5.6000,-1.1500 -9.7000,-1.1500 -9.7957,-1.1690 -9.8768,-1.2232 -9.9310,-1.3043 -9.9500,-1.4000 Z"
             id="path14" />
          <path
             style="fill-opacity:1;stroke-width:0;stroke-opacity:1;stroke-linecap:round;stroke-linejoin:round;fill-rule:evenodd;fill:#999999"
             d="M -9.9500,-0.3000 -9.9310,-0.3957 -9.8768,-0.4768 -9.7957,-0.5310 -9.7000,-0.5500 -5.6000,-0.5500 -5.5043,-0.5310 -5.4232,-0.4768 -5.3690,-0.3957 -5.3500,-0.3000 -5.3500,0.3000 -5.3690,0.3957 -5.4232,0.4768 -5.5043,0.5310 -5.6000,0.5500 -9.7000,0.5500 -9.7957,0.5310 -9.8768,0.4768 -9.9310,0.3957 -9.9500,0.3000 Z"
             id="path16" />
          <path
             style="fill-opacity:1;stroke-width:0;stroke-opacity:1;stroke-linecap:round;stroke-linejoin:round;fill-rule:evenodd;fill:#999999"
             d="M -9.9500,1.4000 -9.9310,1.3043 -9.8768,1.2232 -9.7957,1.1690 -9.7000,1.1500 -5.6000,1.1500 -5.5043,1.1690 -5.4232,1.2232 -5.3690,1.3043 -5.3500,1.4000 -5.3500,2.0000 -5.3690,2.0957 -5.4232,2.1768 -5.5043,2.2310 -5.6000,2.2500 -9.7000,2.2500 -9.7957,2.2310 -9.8768,2.1768 -9.9310,2.0957 -9.9500,2.0000 Z"
             id="path18" />
          <path
             style="fill-opacity:1;stroke-width:0;stroke-opacity:1;stroke-linecap:round;stroke-linejoin:round;fill-rule:evenodd;fill:#999999"
             d="M -9.9500,3.1000 -9.9310,3.0043 -9.8768,2.9232 -9.7957,2.8690 -9.7000,2.8500 -5.6000,2.8500 -5.5043,2.8690 -5.4232,2.9232 -5.3690,3.0043 -5.3500,3.1000 -5.3500,3.7000 -5.3690,3.7957 -5.4232,3.8768 -5.5043,3.9310 -5.6000,3.9500 -9.7000,3.9500 -9.7957,3.9310 -9.8768,3.8768 -9.9310,3.7957 -9.9500,3.7000 Z"
             id="path20" />
          <path
             style="fill-opacity:1;stroke-width:0;stroke-opacity:1;stroke-linecap:round;stroke-linejoin:round;fill-rule:evenodd;fill:#999999"
             d="M -3.2000,-5.1500 -3.1810,-5.2457 -3.1268,-5.3268 -3.0457,-5.3810 -2.9500,-5.4000 5.9500,-5.4000 6.0457,-5.3810 6.1268,-5.3268 6.1810,-5.2457 6.2000,-5.1500 6.2000,5.1500 6.1810,5.2457 6.1268,5.3268 6.0457,5.3810 5.9500,5.4000 -2.9500,5.4000 -3.0457,5.3810 -3.1268,5.3268 -3.1810,5.2457 -3.2000,5.1500 Z"
             id="path22" />
          <path
             style="fill-opacity:1;stroke-width:0;stroke-opacity:1;stroke-linecap:round;stroke-linejoin:round;fill-rule:evenodd;fill:#999999"
             d="M 1.6500,0.4000 1.6690,0.3043 1.7232,0.2232 1.8043,0.1690 1.9000,0.1500 5.9500,0.1500 6.0457,0.1690 6.1268,0.2232 6.1810,0.3043 6.2000,0.4000 6.2000,5.1500 6.1810,5.2457 6.1268,5.3268 6.0457,5.3810 5.9500,5.4000 1.9000,5.4000 1.8043,5.3810 1.7232,5.3268 1.6690,5.2457 1.6500,5.1500 Z"
             id="path24" />
          <path
             style="fill-opacity:1;stroke-width:0;stroke-opacity:1;stroke-linecap:round;stroke-linejoin:round;fill-rule:evenodd;fill:#999999"
             d="M -3.2000,-5.1500 -3.1810,-5.2457 -3.1268,-5.3268 -3.0457,-5.3810 -2.9500,-5.4000 1.1000,-5.4000 1.1957,-5.3810 1.2768,-5.3268 1.3310,-5.2457 1.3500,-5.1500 1.3500,-0.4000 1.3310,-0.3043 1.2768,-0.2232 1.1957,-0.1690 1.1000,-0.1500 -2.9500,-0.1500 -3.0457,-0.1690 -3.1268,-0.2232 -3.1810,-0.3043 -3.2000,-0.4000 Z"
             id="path26" />
          <path
             style="fill-opacity:1;stroke-width:0;stroke-opacity:1;stroke-linecap:round;stroke-linejoin:round;fill-rule:evenodd;fill:#999999"
             d="M 1.6500,-5.1500 1.6690,-5.2457 1.7232,-5.3268 1.8043,-5.3810 1.9000,-5.4000 5.9500,-5.4000 6.0457,-5.3810 6.1268,-5.3268 6.1810,-5.2457 6.2000,-5.1500 6.2000,-0.4000 6.1810,-0.3043 6.1268,-0.2232 6.0457,-0.1690 5.9500,-0.1500 1.9000,-0.1500 1.8043,-0.1690 1.7232,-0.2232 1.6690,-0.3043 1.6500,-0.4000 Z"
             id="path28" />
          <path
             style="fill-opacity:1;stroke-width:0;stroke-opacity:1;stroke-linecap:round;stroke-linejoin:round;fill-rule:evenodd;fill:#999999"
             d="M -3.2000,0.4000 -3.1810,0.3043 -3.1268,0.2232 -3.0457,0.1690 -2.9500,0.1500 1.1000,0.1500 1.1957,0.1690 1.2768,0.2232 1.3310,0.3043 1.3500,0.4000 1.3500,5.1500 1.3310,5.2457 1.2768,5.3268 1.1957,5.3810 1.1000,5.4000 -2.9500,5.4000 -3.0457,5.3810 -3.1268,5.3268 -3.1810,5.2457 -3.2000,5.1500 Z"
             id="path30" />
        </g>
        <g
           id="g34"
           style="fill:#999999;fill-opacity:1" />
        <g
           id="g36"
           style="fill:#999999;fill-opacity:1" />
        <g
           id="g38"
           style="fill:#999999;fill-opacity:1" />
      </g>
      <g
         style="fill-opacity:1;stroke-width:0;stroke-opacity:1;stroke-linecap:round;stroke-linejoin:round;fill:#999999"
         id="g42" />
      <g
         style="fill-opacity:1;stroke-width:0;stroke-opacity:1;stroke-linecap:round;stroke-linejoin:round;fill:#999999"
         id="g44" />
    </g>
  </g>
  <rect
     id="origin"
     fill="red"
     width="0.393"
     height="0.393"
     x="0"
     y="0" />
  <g
     id="g1550"
     transform="matrix(0.00254032,0,0,0.00254032,-0.58708222,0.40142184)">
    <rect
       style="fill:#e6e6e6;fill-rule:evenodd;stroke:#cccccc;stroke-width:59.0477;stroke-linejoin:round;stroke-miterlimit:4;stroke-dasharray:none"
       id="rect832-3-7-3-3"
       height="1327.5399"
       x="87.105202"
       y="-2883.8025"
       transform="rotate(-90)"
       width="156.31058" />
    <rect
       style="fill:#e6e6e6;fill-rule:evenodd;stroke:#cccccc;stroke-width:59.0477;stroke-linejoin:round;stroke-miterlimit:4;stroke-dasharray:none"
       id="rect832-3-7-3-3-5"
       height="1327.5399"
       x="751.40631"
       y="-2887.5471"
       transform="rotate(-90)"
       width="156.31058" />
    <rect
       style="fill:#e6e6e6;fill-rule:evenodd;stroke:#cccccc;stroke-width:59.0477;stroke-linejoin:round;stroke-miterlimit:4;stroke-dasharray:none"
       id="rect832-3-7-3-3-3"
       height="1327.5399"
       x="1422.3173"
       y="-2887.5471"
       transform="rotate(-90)"
       width="156.31058" />
    <rect
       style="fill:#bababa;fill-opacity:1;fill-rule:evenodd;stroke:none;stroke-width:19.6826;stroke-linejoin:round;stroke-miterlimit:4;stroke-dasharray:none;stroke-opacity:1"
       id="rect832-3-7-3-3-3-5"
       height="261.52078"
       x="1392.7935"
       y="-2265.6775"
       transform="rotate(-90)"
       width="215.35828" />
    <rect
       style="fill:#bababa;fill-opacity:1;fill-rule:evenodd;stroke:none;stroke-width:19.6826;stroke-linejoin:round;stroke-miterlimit:4;stroke-dasharray:none;stroke-opacity:1"
       id="rect832-3-7-3-3-3-5-6"
       height="261.52078"
       x="721.88245"
       y="-2265.6775"
       transform="rotate(-90)"
       width="215.35829" />
    <rect
       style="fill:#bababa;fill-opacity:1;fill-rule:evenodd;stroke:none;stroke-width:19.6826;stroke-linejoin:round;stroke-miterlimit:4;stroke-dasharray:none;stroke-opacity:1"
       id="rect832-3-7-3-3-3-5-2"
       height="261.52078"
       x="57.581352"
       y="-2265.6775"
       transform="rotate(-90)"
       width="214.57201" />
    <rect
       style="fill:#e6e6e6;fill-rule:evenodd;stroke:#cccccc;stroke-width:59.0477;stroke-linejoin:round;stroke-miterlimit:4;stroke-dasharray:none"
       id="rect832-3-7-3-3-6"
       height="1327.5399"
       x="-584.01245"
       y="-2917.071"
       transform="rotate(-90)"
       width="156.31058" />
    <rect
       style="fill:#e6e6e6;fill-rule:evenodd;stroke:#cccccc;stroke-width:59.0477;stroke-linejoin:round;stroke-miterlimit:4;stroke-dasharray:none"
       id="rect832-3-7-3-3-7"
       height="1327.5399"
       x="-1258.9189"
       y="-2887.5471"
       transform="rotate(-90)"
       width="156.31058" />
    <rect
       style="display:inline;fill:#e6e6e6;fill-rule:evenodd;stroke:#cccccc;stroke-width:39.3651;stroke-linejoin:round;stroke-miterlimit:4;stroke-dasharray:none"
       id="rect832-3-7-3-3-6-5"
       height="903.55249"
       x="-1770.1467"
       y="1541.8409"
       transform="rotate(-90)"
       width="3856.334" />
    <rect
       style="fill:#bababa;fill-opacity:1;fill-rule:evenodd;stroke:none;stroke-width:19.6826;stroke-linejoin:round;stroke-miterlimit:4;stroke-dasharray:none;stroke-opacity:1"
       id="rect832-3-7-3-3-3-5-9"
       height="261.52078"
       x="-613.53632"
       y="-2265.6775"
       transform="rotate(-90)"
       width="215.19513" />
    <rect
       style="fill:#bababa;fill-opacity:1;fill-rule:evenodd;stroke:none;stroke-width:19.6826;stroke-linejoin:round;stroke-miterlimit:4;stroke-dasharray:none;stroke-opacity:1"
       id="rect832-3-7-3-3-3-5-1"
       height="261.52078"
       x="-1288.4427"
       y="-2265.6775"
       transform="rotate(-90)"
       width="215.35828" />
    <path
       id="rect658"
       style="display:inline;fill:#333333;stroke-width:44.85;stroke-linecap:round;stroke-linejoin:round;stop-color:#000000"
       d="m -1195.88,-2126.2762 h 3247.6224 v 3936.512 H -1589.5312 V -1732.625 Z"
       sodipodi:nodetypes="cccccc" />
  </g>
</svg>
