%TF.GenerationSoftware,KiCad,Pcbnew,5.1.6-c6e7f7d~86~ubuntu20.04.1*%
%TF.CreationDate,2020-06-23T12:58:49+02:00*%
%TF.ProjectId,BoostModule,426f6f73-744d-46f6-9475-6c652e6b6963,rev?*%
%TF.SameCoordinates,Original*%
%TF.FileFunction,Soldermask,Top*%
%TF.FilePolarity,Negative*%
%FSLAX46Y46*%
G04 Gerber Fmt 4.6, Leading zero omitted, Abs format (unit mm)*
G04 Created by KiCad (PCBNEW 5.1.6-c6e7f7d~86~ubuntu20.04.1) date 2020-06-23 12:58:49*
%MOMM*%
%LPD*%
G01*
G04 APERTURE LIST*
%ADD10C,3.100000*%
%ADD11R,3.100000X3.100000*%
%ADD12R,2.600000X1.900000*%
%ADD13C,2.600000*%
%ADD14R,0.800000X1.800000*%
%ADD15O,3.700000X2.100000*%
%ADD16C,1.800000*%
%ADD17R,3.600000X3.600000*%
G04 APERTURE END LIST*
D10*
%TO.C,J6*%
X104064000Y-65456000D03*
D11*
X104064000Y-60376000D03*
%TD*%
D12*
%TO.C,D12*%
X177000000Y-70000000D03*
X173000000Y-70000000D03*
%TD*%
%TO.C,D11*%
X169000000Y-70000000D03*
X165000000Y-70000000D03*
%TD*%
%TO.C,D10*%
X177000000Y-75000000D03*
X173000000Y-75000000D03*
%TD*%
%TO.C,D9*%
X169000000Y-75000000D03*
X165000000Y-75000000D03*
%TD*%
%TO.C,D8*%
X177000000Y-79750000D03*
X173000000Y-79750000D03*
%TD*%
%TO.C,D7*%
X169000000Y-79750000D03*
X165000000Y-79750000D03*
%TD*%
%TO.C,D6*%
X177000000Y-84500000D03*
X173000000Y-84500000D03*
%TD*%
%TO.C,D5*%
X169000000Y-84500000D03*
X165000000Y-84500000D03*
%TD*%
%TO.C,C8*%
G36*
G01*
X132781250Y-88162500D02*
X132218750Y-88162500D01*
G75*
G02*
X131975000Y-87918750I0J243750D01*
G01*
X131975000Y-87431250D01*
G75*
G02*
X132218750Y-87187500I243750J0D01*
G01*
X132781250Y-87187500D01*
G75*
G02*
X133025000Y-87431250I0J-243750D01*
G01*
X133025000Y-87918750D01*
G75*
G02*
X132781250Y-88162500I-243750J0D01*
G01*
G37*
G36*
G01*
X132781250Y-89737500D02*
X132218750Y-89737500D01*
G75*
G02*
X131975000Y-89493750I0J243750D01*
G01*
X131975000Y-89006250D01*
G75*
G02*
X132218750Y-88762500I243750J0D01*
G01*
X132781250Y-88762500D01*
G75*
G02*
X133025000Y-89006250I0J-243750D01*
G01*
X133025000Y-89493750D01*
G75*
G02*
X132781250Y-89737500I-243750J0D01*
G01*
G37*
%TD*%
%TO.C,C7*%
G36*
G01*
X120468750Y-68562500D02*
X121031250Y-68562500D01*
G75*
G02*
X121275000Y-68806250I0J-243750D01*
G01*
X121275000Y-69293750D01*
G75*
G02*
X121031250Y-69537500I-243750J0D01*
G01*
X120468750Y-69537500D01*
G75*
G02*
X120225000Y-69293750I0J243750D01*
G01*
X120225000Y-68806250D01*
G75*
G02*
X120468750Y-68562500I243750J0D01*
G01*
G37*
G36*
G01*
X120468750Y-66987500D02*
X121031250Y-66987500D01*
G75*
G02*
X121275000Y-67231250I0J-243750D01*
G01*
X121275000Y-67718750D01*
G75*
G02*
X121031250Y-67962500I-243750J0D01*
G01*
X120468750Y-67962500D01*
G75*
G02*
X120225000Y-67718750I0J243750D01*
G01*
X120225000Y-67231250D01*
G75*
G02*
X120468750Y-66987500I243750J0D01*
G01*
G37*
%TD*%
%TO.C,C6*%
G36*
G01*
X113212500Y-58655000D02*
X113212500Y-57345000D01*
G75*
G02*
X113482500Y-57075000I270000J0D01*
G01*
X114292500Y-57075000D01*
G75*
G02*
X114562500Y-57345000I0J-270000D01*
G01*
X114562500Y-58655000D01*
G75*
G02*
X114292500Y-58925000I-270000J0D01*
G01*
X113482500Y-58925000D01*
G75*
G02*
X113212500Y-58655000I0J270000D01*
G01*
G37*
G36*
G01*
X110412500Y-58655000D02*
X110412500Y-57345000D01*
G75*
G02*
X110682500Y-57075000I270000J0D01*
G01*
X111492500Y-57075000D01*
G75*
G02*
X111762500Y-57345000I0J-270000D01*
G01*
X111762500Y-58655000D01*
G75*
G02*
X111492500Y-58925000I-270000J0D01*
G01*
X110682500Y-58925000D01*
G75*
G02*
X110412500Y-58655000I0J270000D01*
G01*
G37*
%TD*%
%TO.C,C5*%
G36*
G01*
X113212500Y-64655000D02*
X113212500Y-63345000D01*
G75*
G02*
X113482500Y-63075000I270000J0D01*
G01*
X114292500Y-63075000D01*
G75*
G02*
X114562500Y-63345000I0J-270000D01*
G01*
X114562500Y-64655000D01*
G75*
G02*
X114292500Y-64925000I-270000J0D01*
G01*
X113482500Y-64925000D01*
G75*
G02*
X113212500Y-64655000I0J270000D01*
G01*
G37*
G36*
G01*
X110412500Y-64655000D02*
X110412500Y-63345000D01*
G75*
G02*
X110682500Y-63075000I270000J0D01*
G01*
X111492500Y-63075000D01*
G75*
G02*
X111762500Y-63345000I0J-270000D01*
G01*
X111762500Y-64655000D01*
G75*
G02*
X111492500Y-64925000I-270000J0D01*
G01*
X110682500Y-64925000D01*
G75*
G02*
X110412500Y-64655000I0J270000D01*
G01*
G37*
%TD*%
%TO.C,C4*%
G36*
G01*
X113212500Y-61655000D02*
X113212500Y-60345000D01*
G75*
G02*
X113482500Y-60075000I270000J0D01*
G01*
X114292500Y-60075000D01*
G75*
G02*
X114562500Y-60345000I0J-270000D01*
G01*
X114562500Y-61655000D01*
G75*
G02*
X114292500Y-61925000I-270000J0D01*
G01*
X113482500Y-61925000D01*
G75*
G02*
X113212500Y-61655000I0J270000D01*
G01*
G37*
G36*
G01*
X110412500Y-61655000D02*
X110412500Y-60345000D01*
G75*
G02*
X110682500Y-60075000I270000J0D01*
G01*
X111492500Y-60075000D01*
G75*
G02*
X111762500Y-60345000I0J-270000D01*
G01*
X111762500Y-61655000D01*
G75*
G02*
X111492500Y-61925000I-270000J0D01*
G01*
X110682500Y-61925000D01*
G75*
G02*
X110412500Y-61655000I0J270000D01*
G01*
G37*
%TD*%
%TO.C,C3*%
G36*
G01*
X122281250Y-52412500D02*
X121718750Y-52412500D01*
G75*
G02*
X121475000Y-52168750I0J243750D01*
G01*
X121475000Y-51681250D01*
G75*
G02*
X121718750Y-51437500I243750J0D01*
G01*
X122281250Y-51437500D01*
G75*
G02*
X122525000Y-51681250I0J-243750D01*
G01*
X122525000Y-52168750D01*
G75*
G02*
X122281250Y-52412500I-243750J0D01*
G01*
G37*
G36*
G01*
X122281250Y-53987500D02*
X121718750Y-53987500D01*
G75*
G02*
X121475000Y-53743750I0J243750D01*
G01*
X121475000Y-53256250D01*
G75*
G02*
X121718750Y-53012500I243750J0D01*
G01*
X122281250Y-53012500D01*
G75*
G02*
X122525000Y-53256250I0J-243750D01*
G01*
X122525000Y-53743750D01*
G75*
G02*
X122281250Y-53987500I-243750J0D01*
G01*
G37*
%TD*%
%TO.C,C2*%
G36*
G01*
X125945000Y-52762500D02*
X124635000Y-52762500D01*
G75*
G02*
X124365000Y-52492500I0J270000D01*
G01*
X124365000Y-51682500D01*
G75*
G02*
X124635000Y-51412500I270000J0D01*
G01*
X125945000Y-51412500D01*
G75*
G02*
X126215000Y-51682500I0J-270000D01*
G01*
X126215000Y-52492500D01*
G75*
G02*
X125945000Y-52762500I-270000J0D01*
G01*
G37*
G36*
G01*
X125945000Y-55562500D02*
X124635000Y-55562500D01*
G75*
G02*
X124365000Y-55292500I0J270000D01*
G01*
X124365000Y-54482500D01*
G75*
G02*
X124635000Y-54212500I270000J0D01*
G01*
X125945000Y-54212500D01*
G75*
G02*
X126215000Y-54482500I0J-270000D01*
G01*
X126215000Y-55292500D01*
G75*
G02*
X125945000Y-55562500I-270000J0D01*
G01*
G37*
%TD*%
%TO.C,C1*%
G36*
G01*
X140912500Y-85968750D02*
X140912500Y-86531250D01*
G75*
G02*
X140668750Y-86775000I-243750J0D01*
G01*
X140181250Y-86775000D01*
G75*
G02*
X139937500Y-86531250I0J243750D01*
G01*
X139937500Y-85968750D01*
G75*
G02*
X140181250Y-85725000I243750J0D01*
G01*
X140668750Y-85725000D01*
G75*
G02*
X140912500Y-85968750I0J-243750D01*
G01*
G37*
G36*
G01*
X142487500Y-85968750D02*
X142487500Y-86531250D01*
G75*
G02*
X142243750Y-86775000I-243750J0D01*
G01*
X141756250Y-86775000D01*
G75*
G02*
X141512500Y-86531250I0J243750D01*
G01*
X141512500Y-85968750D01*
G75*
G02*
X141756250Y-85725000I243750J0D01*
G01*
X142243750Y-85725000D01*
G75*
G02*
X142487500Y-85968750I0J-243750D01*
G01*
G37*
%TD*%
%TO.C,D3*%
G36*
G01*
X190700000Y-77718750D02*
X190700000Y-78281250D01*
G75*
G02*
X190456250Y-78525000I-243750J0D01*
G01*
X189968750Y-78525000D01*
G75*
G02*
X189725000Y-78281250I0J243750D01*
G01*
X189725000Y-77718750D01*
G75*
G02*
X189968750Y-77475000I243750J0D01*
G01*
X190456250Y-77475000D01*
G75*
G02*
X190700000Y-77718750I0J-243750D01*
G01*
G37*
G36*
G01*
X192275000Y-77718750D02*
X192275000Y-78281250D01*
G75*
G02*
X192031250Y-78525000I-243750J0D01*
G01*
X191543750Y-78525000D01*
G75*
G02*
X191300000Y-78281250I0J243750D01*
G01*
X191300000Y-77718750D01*
G75*
G02*
X191543750Y-77475000I243750J0D01*
G01*
X192031250Y-77475000D01*
G75*
G02*
X192275000Y-77718750I0J-243750D01*
G01*
G37*
%TD*%
%TO.C,D4*%
G36*
G01*
X190700000Y-92718750D02*
X190700000Y-93281250D01*
G75*
G02*
X190456250Y-93525000I-243750J0D01*
G01*
X189968750Y-93525000D01*
G75*
G02*
X189725000Y-93281250I0J243750D01*
G01*
X189725000Y-92718750D01*
G75*
G02*
X189968750Y-92475000I243750J0D01*
G01*
X190456250Y-92475000D01*
G75*
G02*
X190700000Y-92718750I0J-243750D01*
G01*
G37*
G36*
G01*
X192275000Y-92718750D02*
X192275000Y-93281250D01*
G75*
G02*
X192031250Y-93525000I-243750J0D01*
G01*
X191543750Y-93525000D01*
G75*
G02*
X191300000Y-93281250I0J243750D01*
G01*
X191300000Y-92718750D01*
G75*
G02*
X191543750Y-92475000I243750J0D01*
G01*
X192031250Y-92475000D01*
G75*
G02*
X192275000Y-92718750I0J-243750D01*
G01*
G37*
%TD*%
%TO.C,D2*%
G36*
G01*
X190700000Y-72718750D02*
X190700000Y-73281250D01*
G75*
G02*
X190456250Y-73525000I-243750J0D01*
G01*
X189968750Y-73525000D01*
G75*
G02*
X189725000Y-73281250I0J243750D01*
G01*
X189725000Y-72718750D01*
G75*
G02*
X189968750Y-72475000I243750J0D01*
G01*
X190456250Y-72475000D01*
G75*
G02*
X190700000Y-72718750I0J-243750D01*
G01*
G37*
G36*
G01*
X192275000Y-72718750D02*
X192275000Y-73281250D01*
G75*
G02*
X192031250Y-73525000I-243750J0D01*
G01*
X191543750Y-73525000D01*
G75*
G02*
X191300000Y-73281250I0J243750D01*
G01*
X191300000Y-72718750D01*
G75*
G02*
X191543750Y-72475000I243750J0D01*
G01*
X192031250Y-72475000D01*
G75*
G02*
X192275000Y-72718750I0J-243750D01*
G01*
G37*
%TD*%
%TO.C,D1*%
G36*
G01*
X190700000Y-57718750D02*
X190700000Y-58281250D01*
G75*
G02*
X190456250Y-58525000I-243750J0D01*
G01*
X189968750Y-58525000D01*
G75*
G02*
X189725000Y-58281250I0J243750D01*
G01*
X189725000Y-57718750D01*
G75*
G02*
X189968750Y-57475000I243750J0D01*
G01*
X190456250Y-57475000D01*
G75*
G02*
X190700000Y-57718750I0J-243750D01*
G01*
G37*
G36*
G01*
X192275000Y-57718750D02*
X192275000Y-58281250D01*
G75*
G02*
X192031250Y-58525000I-243750J0D01*
G01*
X191543750Y-58525000D01*
G75*
G02*
X191300000Y-58281250I0J243750D01*
G01*
X191300000Y-57718750D01*
G75*
G02*
X191543750Y-57475000I243750J0D01*
G01*
X192031250Y-57475000D01*
G75*
G02*
X192275000Y-57718750I0J-243750D01*
G01*
G37*
%TD*%
%TO.C,R12*%
G36*
G01*
X155425000Y-87706482D02*
X155425000Y-84793518D01*
G75*
G02*
X155693518Y-84525000I268518J0D01*
G01*
X156606482Y-84525000D01*
G75*
G02*
X156875000Y-84793518I0J-268518D01*
G01*
X156875000Y-87706482D01*
G75*
G02*
X156606482Y-87975000I-268518J0D01*
G01*
X155693518Y-87975000D01*
G75*
G02*
X155425000Y-87706482I0J268518D01*
G01*
G37*
G36*
G01*
X149625000Y-87706482D02*
X149625000Y-84793518D01*
G75*
G02*
X149893518Y-84525000I268518J0D01*
G01*
X150806482Y-84525000D01*
G75*
G02*
X151075000Y-84793518I0J-268518D01*
G01*
X151075000Y-87706482D01*
G75*
G02*
X150806482Y-87975000I-268518J0D01*
G01*
X149893518Y-87975000D01*
G75*
G02*
X149625000Y-87706482I0J268518D01*
G01*
G37*
%TD*%
%TO.C,R11*%
G36*
G01*
X155775000Y-64956482D02*
X155775000Y-62043518D01*
G75*
G02*
X156043518Y-61775000I268518J0D01*
G01*
X156956482Y-61775000D01*
G75*
G02*
X157225000Y-62043518I0J-268518D01*
G01*
X157225000Y-64956482D01*
G75*
G02*
X156956482Y-65225000I-268518J0D01*
G01*
X156043518Y-65225000D01*
G75*
G02*
X155775000Y-64956482I0J268518D01*
G01*
G37*
G36*
G01*
X149975000Y-64956482D02*
X149975000Y-62043518D01*
G75*
G02*
X150243518Y-61775000I268518J0D01*
G01*
X151156482Y-61775000D01*
G75*
G02*
X151425000Y-62043518I0J-268518D01*
G01*
X151425000Y-64956482D01*
G75*
G02*
X151156482Y-65225000I-268518J0D01*
G01*
X150243518Y-65225000D01*
G75*
G02*
X149975000Y-64956482I0J268518D01*
G01*
G37*
%TD*%
%TO.C,R10*%
G36*
G01*
X127700000Y-80218750D02*
X127700000Y-80781250D01*
G75*
G02*
X127456250Y-81025000I-243750J0D01*
G01*
X126968750Y-81025000D01*
G75*
G02*
X126725000Y-80781250I0J243750D01*
G01*
X126725000Y-80218750D01*
G75*
G02*
X126968750Y-79975000I243750J0D01*
G01*
X127456250Y-79975000D01*
G75*
G02*
X127700000Y-80218750I0J-243750D01*
G01*
G37*
G36*
G01*
X129275000Y-80218750D02*
X129275000Y-80781250D01*
G75*
G02*
X129031250Y-81025000I-243750J0D01*
G01*
X128543750Y-81025000D01*
G75*
G02*
X128300000Y-80781250I0J243750D01*
G01*
X128300000Y-80218750D01*
G75*
G02*
X128543750Y-79975000I243750J0D01*
G01*
X129031250Y-79975000D01*
G75*
G02*
X129275000Y-80218750I0J-243750D01*
G01*
G37*
%TD*%
%TO.C,R9*%
G36*
G01*
X125450000Y-92718750D02*
X125450000Y-93281250D01*
G75*
G02*
X125206250Y-93525000I-243750J0D01*
G01*
X124718750Y-93525000D01*
G75*
G02*
X124475000Y-93281250I0J243750D01*
G01*
X124475000Y-92718750D01*
G75*
G02*
X124718750Y-92475000I243750J0D01*
G01*
X125206250Y-92475000D01*
G75*
G02*
X125450000Y-92718750I0J-243750D01*
G01*
G37*
G36*
G01*
X127025000Y-92718750D02*
X127025000Y-93281250D01*
G75*
G02*
X126781250Y-93525000I-243750J0D01*
G01*
X126293750Y-93525000D01*
G75*
G02*
X126050000Y-93281250I0J243750D01*
G01*
X126050000Y-92718750D01*
G75*
G02*
X126293750Y-92475000I243750J0D01*
G01*
X126781250Y-92475000D01*
G75*
G02*
X127025000Y-92718750I0J-243750D01*
G01*
G37*
%TD*%
%TO.C,R8*%
G36*
G01*
X128262500Y-76781250D02*
X128262500Y-76218750D01*
G75*
G02*
X128506250Y-75975000I243750J0D01*
G01*
X128993750Y-75975000D01*
G75*
G02*
X129237500Y-76218750I0J-243750D01*
G01*
X129237500Y-76781250D01*
G75*
G02*
X128993750Y-77025000I-243750J0D01*
G01*
X128506250Y-77025000D01*
G75*
G02*
X128262500Y-76781250I0J243750D01*
G01*
G37*
G36*
G01*
X126687500Y-76781250D02*
X126687500Y-76218750D01*
G75*
G02*
X126931250Y-75975000I243750J0D01*
G01*
X127418750Y-75975000D01*
G75*
G02*
X127662500Y-76218750I0J-243750D01*
G01*
X127662500Y-76781250D01*
G75*
G02*
X127418750Y-77025000I-243750J0D01*
G01*
X126931250Y-77025000D01*
G75*
G02*
X126687500Y-76781250I0J243750D01*
G01*
G37*
%TD*%
%TO.C,R7*%
G36*
G01*
X130262500Y-63031250D02*
X130262500Y-62468750D01*
G75*
G02*
X130506250Y-62225000I243750J0D01*
G01*
X130993750Y-62225000D01*
G75*
G02*
X131237500Y-62468750I0J-243750D01*
G01*
X131237500Y-63031250D01*
G75*
G02*
X130993750Y-63275000I-243750J0D01*
G01*
X130506250Y-63275000D01*
G75*
G02*
X130262500Y-63031250I0J243750D01*
G01*
G37*
G36*
G01*
X128687500Y-63031250D02*
X128687500Y-62468750D01*
G75*
G02*
X128931250Y-62225000I243750J0D01*
G01*
X129418750Y-62225000D01*
G75*
G02*
X129662500Y-62468750I0J-243750D01*
G01*
X129662500Y-63031250D01*
G75*
G02*
X129418750Y-63275000I-243750J0D01*
G01*
X128931250Y-63275000D01*
G75*
G02*
X128687500Y-63031250I0J243750D01*
G01*
G37*
%TD*%
%TO.C,R6*%
G36*
G01*
X120912500Y-92718750D02*
X120912500Y-93281250D01*
G75*
G02*
X120668750Y-93525000I-243750J0D01*
G01*
X120181250Y-93525000D01*
G75*
G02*
X119937500Y-93281250I0J243750D01*
G01*
X119937500Y-92718750D01*
G75*
G02*
X120181250Y-92475000I243750J0D01*
G01*
X120668750Y-92475000D01*
G75*
G02*
X120912500Y-92718750I0J-243750D01*
G01*
G37*
G36*
G01*
X122487500Y-92718750D02*
X122487500Y-93281250D01*
G75*
G02*
X122243750Y-93525000I-243750J0D01*
G01*
X121756250Y-93525000D01*
G75*
G02*
X121512500Y-93281250I0J243750D01*
G01*
X121512500Y-92718750D01*
G75*
G02*
X121756250Y-92475000I243750J0D01*
G01*
X122243750Y-92475000D01*
G75*
G02*
X122487500Y-92718750I0J-243750D01*
G01*
G37*
%TD*%
%TO.C,R5*%
G36*
G01*
X123200000Y-80218750D02*
X123200000Y-80781250D01*
G75*
G02*
X122956250Y-81025000I-243750J0D01*
G01*
X122468750Y-81025000D01*
G75*
G02*
X122225000Y-80781250I0J243750D01*
G01*
X122225000Y-80218750D01*
G75*
G02*
X122468750Y-79975000I243750J0D01*
G01*
X122956250Y-79975000D01*
G75*
G02*
X123200000Y-80218750I0J-243750D01*
G01*
G37*
G36*
G01*
X124775000Y-80218750D02*
X124775000Y-80781250D01*
G75*
G02*
X124531250Y-81025000I-243750J0D01*
G01*
X124043750Y-81025000D01*
G75*
G02*
X123800000Y-80781250I0J243750D01*
G01*
X123800000Y-80218750D01*
G75*
G02*
X124043750Y-79975000I243750J0D01*
G01*
X124531250Y-79975000D01*
G75*
G02*
X124775000Y-80218750I0J-243750D01*
G01*
G37*
%TD*%
%TO.C,R4*%
G36*
G01*
X186300000Y-90781250D02*
X186300000Y-90218750D01*
G75*
G02*
X186543750Y-89975000I243750J0D01*
G01*
X187031250Y-89975000D01*
G75*
G02*
X187275000Y-90218750I0J-243750D01*
G01*
X187275000Y-90781250D01*
G75*
G02*
X187031250Y-91025000I-243750J0D01*
G01*
X186543750Y-91025000D01*
G75*
G02*
X186300000Y-90781250I0J243750D01*
G01*
G37*
G36*
G01*
X184725000Y-90781250D02*
X184725000Y-90218750D01*
G75*
G02*
X184968750Y-89975000I243750J0D01*
G01*
X185456250Y-89975000D01*
G75*
G02*
X185700000Y-90218750I0J-243750D01*
G01*
X185700000Y-90781250D01*
G75*
G02*
X185456250Y-91025000I-243750J0D01*
G01*
X184968750Y-91025000D01*
G75*
G02*
X184725000Y-90781250I0J243750D01*
G01*
G37*
%TD*%
%TO.C,R3*%
G36*
G01*
X186050000Y-80531250D02*
X186050000Y-79968750D01*
G75*
G02*
X186293750Y-79725000I243750J0D01*
G01*
X186781250Y-79725000D01*
G75*
G02*
X187025000Y-79968750I0J-243750D01*
G01*
X187025000Y-80531250D01*
G75*
G02*
X186781250Y-80775000I-243750J0D01*
G01*
X186293750Y-80775000D01*
G75*
G02*
X186050000Y-80531250I0J243750D01*
G01*
G37*
G36*
G01*
X184475000Y-80531250D02*
X184475000Y-79968750D01*
G75*
G02*
X184718750Y-79725000I243750J0D01*
G01*
X185206250Y-79725000D01*
G75*
G02*
X185450000Y-79968750I0J-243750D01*
G01*
X185450000Y-80531250D01*
G75*
G02*
X185206250Y-80775000I-243750J0D01*
G01*
X184718750Y-80775000D01*
G75*
G02*
X184475000Y-80531250I0J243750D01*
G01*
G37*
%TD*%
%TO.C,R2*%
G36*
G01*
X186050000Y-71031250D02*
X186050000Y-70468750D01*
G75*
G02*
X186293750Y-70225000I243750J0D01*
G01*
X186781250Y-70225000D01*
G75*
G02*
X187025000Y-70468750I0J-243750D01*
G01*
X187025000Y-71031250D01*
G75*
G02*
X186781250Y-71275000I-243750J0D01*
G01*
X186293750Y-71275000D01*
G75*
G02*
X186050000Y-71031250I0J243750D01*
G01*
G37*
G36*
G01*
X184475000Y-71031250D02*
X184475000Y-70468750D01*
G75*
G02*
X184718750Y-70225000I243750J0D01*
G01*
X185206250Y-70225000D01*
G75*
G02*
X185450000Y-70468750I0J-243750D01*
G01*
X185450000Y-71031250D01*
G75*
G02*
X185206250Y-71275000I-243750J0D01*
G01*
X184718750Y-71275000D01*
G75*
G02*
X184475000Y-71031250I0J243750D01*
G01*
G37*
%TD*%
%TO.C,R1*%
G36*
G01*
X186050000Y-60781250D02*
X186050000Y-60218750D01*
G75*
G02*
X186293750Y-59975000I243750J0D01*
G01*
X186781250Y-59975000D01*
G75*
G02*
X187025000Y-60218750I0J-243750D01*
G01*
X187025000Y-60781250D01*
G75*
G02*
X186781250Y-61025000I-243750J0D01*
G01*
X186293750Y-61025000D01*
G75*
G02*
X186050000Y-60781250I0J243750D01*
G01*
G37*
G36*
G01*
X184475000Y-60781250D02*
X184475000Y-60218750D01*
G75*
G02*
X184718750Y-59975000I243750J0D01*
G01*
X185206250Y-59975000D01*
G75*
G02*
X185450000Y-60218750I0J-243750D01*
G01*
X185450000Y-60781250D01*
G75*
G02*
X185206250Y-61025000I-243750J0D01*
G01*
X184718750Y-61025000D01*
G75*
G02*
X184475000Y-60781250I0J243750D01*
G01*
G37*
%TD*%
D13*
%TO.C,H4*%
X196000000Y-96000000D03*
%TD*%
%TO.C,H3*%
X196000000Y-54000000D03*
%TD*%
%TO.C,H2*%
X104000000Y-54000000D03*
%TD*%
%TO.C,H1*%
X104000000Y-96000000D03*
%TD*%
D14*
%TO.C,U3*%
X151715000Y-81850000D03*
X150445000Y-81850000D03*
X149175000Y-81850000D03*
X147905000Y-81850000D03*
X146635000Y-81850000D03*
X145365000Y-81850000D03*
X144095000Y-81850000D03*
X142825000Y-81850000D03*
X141555000Y-81850000D03*
X140285000Y-81850000D03*
X140285000Y-68150000D03*
X141555000Y-68150000D03*
X142825000Y-68150000D03*
X144095000Y-68150000D03*
X145365000Y-68150000D03*
X146635000Y-68150000D03*
X147905000Y-68150000D03*
X149175000Y-68150000D03*
X150445000Y-68150000D03*
X151715000Y-68150000D03*
%TD*%
%TO.C,U2*%
G36*
G01*
X131885000Y-69950000D02*
X132235000Y-69950000D01*
G75*
G02*
X132410000Y-70125000I0J-175000D01*
G01*
X132410000Y-71825000D01*
G75*
G02*
X132235000Y-72000000I-175000J0D01*
G01*
X131885000Y-72000000D01*
G75*
G02*
X131710000Y-71825000I0J175000D01*
G01*
X131710000Y-70125000D01*
G75*
G02*
X131885000Y-69950000I175000J0D01*
G01*
G37*
G36*
G01*
X130615000Y-69950000D02*
X130965000Y-69950000D01*
G75*
G02*
X131140000Y-70125000I0J-175000D01*
G01*
X131140000Y-71825000D01*
G75*
G02*
X130965000Y-72000000I-175000J0D01*
G01*
X130615000Y-72000000D01*
G75*
G02*
X130440000Y-71825000I0J175000D01*
G01*
X130440000Y-70125000D01*
G75*
G02*
X130615000Y-69950000I175000J0D01*
G01*
G37*
G36*
G01*
X129345000Y-69950000D02*
X129695000Y-69950000D01*
G75*
G02*
X129870000Y-70125000I0J-175000D01*
G01*
X129870000Y-71825000D01*
G75*
G02*
X129695000Y-72000000I-175000J0D01*
G01*
X129345000Y-72000000D01*
G75*
G02*
X129170000Y-71825000I0J175000D01*
G01*
X129170000Y-70125000D01*
G75*
G02*
X129345000Y-69950000I175000J0D01*
G01*
G37*
G36*
G01*
X128075000Y-69950000D02*
X128425000Y-69950000D01*
G75*
G02*
X128600000Y-70125000I0J-175000D01*
G01*
X128600000Y-71825000D01*
G75*
G02*
X128425000Y-72000000I-175000J0D01*
G01*
X128075000Y-72000000D01*
G75*
G02*
X127900000Y-71825000I0J175000D01*
G01*
X127900000Y-70125000D01*
G75*
G02*
X128075000Y-69950000I175000J0D01*
G01*
G37*
G36*
G01*
X126805000Y-69950000D02*
X127155000Y-69950000D01*
G75*
G02*
X127330000Y-70125000I0J-175000D01*
G01*
X127330000Y-71825000D01*
G75*
G02*
X127155000Y-72000000I-175000J0D01*
G01*
X126805000Y-72000000D01*
G75*
G02*
X126630000Y-71825000I0J175000D01*
G01*
X126630000Y-70125000D01*
G75*
G02*
X126805000Y-69950000I175000J0D01*
G01*
G37*
G36*
G01*
X125535000Y-69950000D02*
X125885000Y-69950000D01*
G75*
G02*
X126060000Y-70125000I0J-175000D01*
G01*
X126060000Y-71825000D01*
G75*
G02*
X125885000Y-72000000I-175000J0D01*
G01*
X125535000Y-72000000D01*
G75*
G02*
X125360000Y-71825000I0J175000D01*
G01*
X125360000Y-70125000D01*
G75*
G02*
X125535000Y-69950000I175000J0D01*
G01*
G37*
G36*
G01*
X124265000Y-69950000D02*
X124615000Y-69950000D01*
G75*
G02*
X124790000Y-70125000I0J-175000D01*
G01*
X124790000Y-71825000D01*
G75*
G02*
X124615000Y-72000000I-175000J0D01*
G01*
X124265000Y-72000000D01*
G75*
G02*
X124090000Y-71825000I0J175000D01*
G01*
X124090000Y-70125000D01*
G75*
G02*
X124265000Y-69950000I175000J0D01*
G01*
G37*
G36*
G01*
X124265000Y-65000000D02*
X124615000Y-65000000D01*
G75*
G02*
X124790000Y-65175000I0J-175000D01*
G01*
X124790000Y-66875000D01*
G75*
G02*
X124615000Y-67050000I-175000J0D01*
G01*
X124265000Y-67050000D01*
G75*
G02*
X124090000Y-66875000I0J175000D01*
G01*
X124090000Y-65175000D01*
G75*
G02*
X124265000Y-65000000I175000J0D01*
G01*
G37*
G36*
G01*
X125535000Y-65000000D02*
X125885000Y-65000000D01*
G75*
G02*
X126060000Y-65175000I0J-175000D01*
G01*
X126060000Y-66875000D01*
G75*
G02*
X125885000Y-67050000I-175000J0D01*
G01*
X125535000Y-67050000D01*
G75*
G02*
X125360000Y-66875000I0J175000D01*
G01*
X125360000Y-65175000D01*
G75*
G02*
X125535000Y-65000000I175000J0D01*
G01*
G37*
G36*
G01*
X126805000Y-65000000D02*
X127155000Y-65000000D01*
G75*
G02*
X127330000Y-65175000I0J-175000D01*
G01*
X127330000Y-66875000D01*
G75*
G02*
X127155000Y-67050000I-175000J0D01*
G01*
X126805000Y-67050000D01*
G75*
G02*
X126630000Y-66875000I0J175000D01*
G01*
X126630000Y-65175000D01*
G75*
G02*
X126805000Y-65000000I175000J0D01*
G01*
G37*
G36*
G01*
X128075000Y-65000000D02*
X128425000Y-65000000D01*
G75*
G02*
X128600000Y-65175000I0J-175000D01*
G01*
X128600000Y-66875000D01*
G75*
G02*
X128425000Y-67050000I-175000J0D01*
G01*
X128075000Y-67050000D01*
G75*
G02*
X127900000Y-66875000I0J175000D01*
G01*
X127900000Y-65175000D01*
G75*
G02*
X128075000Y-65000000I175000J0D01*
G01*
G37*
G36*
G01*
X129345000Y-65000000D02*
X129695000Y-65000000D01*
G75*
G02*
X129870000Y-65175000I0J-175000D01*
G01*
X129870000Y-66875000D01*
G75*
G02*
X129695000Y-67050000I-175000J0D01*
G01*
X129345000Y-67050000D01*
G75*
G02*
X129170000Y-66875000I0J175000D01*
G01*
X129170000Y-65175000D01*
G75*
G02*
X129345000Y-65000000I175000J0D01*
G01*
G37*
G36*
G01*
X130615000Y-65000000D02*
X130965000Y-65000000D01*
G75*
G02*
X131140000Y-65175000I0J-175000D01*
G01*
X131140000Y-66875000D01*
G75*
G02*
X130965000Y-67050000I-175000J0D01*
G01*
X130615000Y-67050000D01*
G75*
G02*
X130440000Y-66875000I0J175000D01*
G01*
X130440000Y-65175000D01*
G75*
G02*
X130615000Y-65000000I175000J0D01*
G01*
G37*
G36*
G01*
X131885000Y-65000000D02*
X132235000Y-65000000D01*
G75*
G02*
X132410000Y-65175000I0J-175000D01*
G01*
X132410000Y-66875000D01*
G75*
G02*
X132235000Y-67050000I-175000J0D01*
G01*
X131885000Y-67050000D01*
G75*
G02*
X131710000Y-66875000I0J175000D01*
G01*
X131710000Y-65175000D01*
G75*
G02*
X131885000Y-65000000I175000J0D01*
G01*
G37*
%TD*%
%TO.C,U1*%
G36*
G01*
X128980000Y-88200000D02*
X129330000Y-88200000D01*
G75*
G02*
X129505000Y-88375000I0J-175000D01*
G01*
X129505000Y-90075000D01*
G75*
G02*
X129330000Y-90250000I-175000J0D01*
G01*
X128980000Y-90250000D01*
G75*
G02*
X128805000Y-90075000I0J175000D01*
G01*
X128805000Y-88375000D01*
G75*
G02*
X128980000Y-88200000I175000J0D01*
G01*
G37*
G36*
G01*
X127710000Y-88200000D02*
X128060000Y-88200000D01*
G75*
G02*
X128235000Y-88375000I0J-175000D01*
G01*
X128235000Y-90075000D01*
G75*
G02*
X128060000Y-90250000I-175000J0D01*
G01*
X127710000Y-90250000D01*
G75*
G02*
X127535000Y-90075000I0J175000D01*
G01*
X127535000Y-88375000D01*
G75*
G02*
X127710000Y-88200000I175000J0D01*
G01*
G37*
G36*
G01*
X126440000Y-88200000D02*
X126790000Y-88200000D01*
G75*
G02*
X126965000Y-88375000I0J-175000D01*
G01*
X126965000Y-90075000D01*
G75*
G02*
X126790000Y-90250000I-175000J0D01*
G01*
X126440000Y-90250000D01*
G75*
G02*
X126265000Y-90075000I0J175000D01*
G01*
X126265000Y-88375000D01*
G75*
G02*
X126440000Y-88200000I175000J0D01*
G01*
G37*
G36*
G01*
X125170000Y-88200000D02*
X125520000Y-88200000D01*
G75*
G02*
X125695000Y-88375000I0J-175000D01*
G01*
X125695000Y-90075000D01*
G75*
G02*
X125520000Y-90250000I-175000J0D01*
G01*
X125170000Y-90250000D01*
G75*
G02*
X124995000Y-90075000I0J175000D01*
G01*
X124995000Y-88375000D01*
G75*
G02*
X125170000Y-88200000I175000J0D01*
G01*
G37*
G36*
G01*
X125170000Y-83250000D02*
X125520000Y-83250000D01*
G75*
G02*
X125695000Y-83425000I0J-175000D01*
G01*
X125695000Y-85125000D01*
G75*
G02*
X125520000Y-85300000I-175000J0D01*
G01*
X125170000Y-85300000D01*
G75*
G02*
X124995000Y-85125000I0J175000D01*
G01*
X124995000Y-83425000D01*
G75*
G02*
X125170000Y-83250000I175000J0D01*
G01*
G37*
G36*
G01*
X126440000Y-83250000D02*
X126790000Y-83250000D01*
G75*
G02*
X126965000Y-83425000I0J-175000D01*
G01*
X126965000Y-85125000D01*
G75*
G02*
X126790000Y-85300000I-175000J0D01*
G01*
X126440000Y-85300000D01*
G75*
G02*
X126265000Y-85125000I0J175000D01*
G01*
X126265000Y-83425000D01*
G75*
G02*
X126440000Y-83250000I175000J0D01*
G01*
G37*
G36*
G01*
X127710000Y-83250000D02*
X128060000Y-83250000D01*
G75*
G02*
X128235000Y-83425000I0J-175000D01*
G01*
X128235000Y-85125000D01*
G75*
G02*
X128060000Y-85300000I-175000J0D01*
G01*
X127710000Y-85300000D01*
G75*
G02*
X127535000Y-85125000I0J175000D01*
G01*
X127535000Y-83425000D01*
G75*
G02*
X127710000Y-83250000I175000J0D01*
G01*
G37*
G36*
G01*
X128980000Y-83250000D02*
X129330000Y-83250000D01*
G75*
G02*
X129505000Y-83425000I0J-175000D01*
G01*
X129505000Y-85125000D01*
G75*
G02*
X129330000Y-85300000I-175000J0D01*
G01*
X128980000Y-85300000D01*
G75*
G02*
X128805000Y-85125000I0J175000D01*
G01*
X128805000Y-83425000D01*
G75*
G02*
X128980000Y-83250000I175000J0D01*
G01*
G37*
%TD*%
D15*
%TO.C,J5*%
X192000000Y-83000000D03*
G36*
G01*
X193587500Y-89050000D02*
X190412500Y-89050000D01*
G75*
G02*
X190150000Y-88787500I0J262500D01*
G01*
X190150000Y-87212500D01*
G75*
G02*
X190412500Y-86950000I262500J0D01*
G01*
X193587500Y-86950000D01*
G75*
G02*
X193850000Y-87212500I0J-262500D01*
G01*
X193850000Y-88787500D01*
G75*
G02*
X193587500Y-89050000I-262500J0D01*
G01*
G37*
%TD*%
%TO.C,J4*%
X192000000Y-63000000D03*
G36*
G01*
X193587500Y-69050000D02*
X190412500Y-69050000D01*
G75*
G02*
X190150000Y-68787500I0J262500D01*
G01*
X190150000Y-67212500D01*
G75*
G02*
X190412500Y-66950000I262500J0D01*
G01*
X193587500Y-66950000D01*
G75*
G02*
X193850000Y-67212500I0J-262500D01*
G01*
X193850000Y-68787500D01*
G75*
G02*
X193587500Y-69050000I-262500J0D01*
G01*
G37*
%TD*%
D16*
%TO.C,J3*%
X142080000Y-54460000D03*
X139540000Y-54460000D03*
X137000000Y-54460000D03*
X142080000Y-57000000D03*
X139540000Y-57000000D03*
G36*
G01*
X137635294Y-57900000D02*
X136364706Y-57900000D01*
G75*
G02*
X136100000Y-57635294I0J264706D01*
G01*
X136100000Y-56364706D01*
G75*
G02*
X136364706Y-56100000I264706J0D01*
G01*
X137635294Y-56100000D01*
G75*
G02*
X137900000Y-56364706I0J-264706D01*
G01*
X137900000Y-57635294D01*
G75*
G02*
X137635294Y-57900000I-264706J0D01*
G01*
G37*
%TD*%
%TO.C,J2*%
X163080000Y-54460000D03*
X160540000Y-54460000D03*
X158000000Y-54460000D03*
X163080000Y-57000000D03*
X160540000Y-57000000D03*
G36*
G01*
X158635294Y-57900000D02*
X157364706Y-57900000D01*
G75*
G02*
X157100000Y-57635294I0J264706D01*
G01*
X157100000Y-56364706D01*
G75*
G02*
X157364706Y-56100000I264706J0D01*
G01*
X158635294Y-56100000D01*
G75*
G02*
X158900000Y-56364706I0J-264706D01*
G01*
X158900000Y-57635294D01*
G75*
G02*
X158635294Y-57900000I-264706J0D01*
G01*
G37*
%TD*%
%TO.C,J1*%
G36*
G01*
X109200000Y-80600000D02*
X109200000Y-78800000D01*
G75*
G02*
X110100000Y-77900000I900000J0D01*
G01*
X111900000Y-77900000D01*
G75*
G02*
X112800000Y-78800000I0J-900000D01*
G01*
X112800000Y-80600000D01*
G75*
G02*
X111900000Y-81500000I-900000J0D01*
G01*
X110100000Y-81500000D01*
G75*
G02*
X109200000Y-80600000I0J900000D01*
G01*
G37*
G36*
G01*
X106450000Y-76025000D02*
X106450000Y-73975000D01*
G75*
G02*
X107225000Y-73200000I775000J0D01*
G01*
X108775000Y-73200000D01*
G75*
G02*
X109550000Y-73975000I0J-775000D01*
G01*
X109550000Y-76025000D01*
G75*
G02*
X108775000Y-76800000I-775000J0D01*
G01*
X107225000Y-76800000D01*
G75*
G02*
X106450000Y-76025000I0J775000D01*
G01*
G37*
D17*
X114000000Y-75000000D03*
%TD*%
M02*
