%TF.GenerationSoftware,KiCad,Pcbnew,5.1.6-c6e7f7d~86~ubuntu20.04.1*%
%TF.CreationDate,2020-06-23T12:58:49+02:00*%
%TF.ProjectId,BoostModule,426f6f73-744d-46f6-9475-6c652e6b6963,rev?*%
%TF.SameCoordinates,Original*%
%TF.FileFunction,Copper,L2,Bot*%
%TF.FilePolarity,Positive*%
%FSLAX46Y46*%
G04 Gerber Fmt 4.6, Leading zero omitted, Abs format (unit mm)*
G04 Created by KiCad (PCBNEW 5.1.6-c6e7f7d~86~ubuntu20.04.1) date 2020-06-23 12:58:49*
%MOMM*%
%LPD*%
G01*
G04 APERTURE LIST*
%TA.AperFunction,ComponentPad*%
%ADD10C,3.000000*%
%TD*%
%TA.AperFunction,ComponentPad*%
%ADD11R,3.000000X3.000000*%
%TD*%
%TA.AperFunction,ComponentPad*%
%ADD12O,3.600000X2.000000*%
%TD*%
%TA.AperFunction,ComponentPad*%
%ADD13C,1.700000*%
%TD*%
%TA.AperFunction,ComponentPad*%
%ADD14R,3.500000X3.500000*%
%TD*%
%TA.AperFunction,ViaPad*%
%ADD15C,0.800000*%
%TD*%
%TA.AperFunction,Conductor*%
%ADD16C,0.250000*%
%TD*%
%TA.AperFunction,Conductor*%
%ADD17C,0.800000*%
%TD*%
%TA.AperFunction,Conductor*%
%ADD18C,0.254000*%
%TD*%
G04 APERTURE END LIST*
D10*
%TO.P,J6,2*%
%TO.N,/V_DCC*%
X104064000Y-65456000D03*
D11*
%TO.P,J6,1*%
%TO.N,GND*%
X104064000Y-60376000D03*
%TD*%
D12*
%TO.P,J5,2*%
%TO.N,/BoosModule/Out_B_J*%
X192000000Y-83000000D03*
%TO.P,J5,1*%
%TO.N,/BoosModule/Out_B_K*%
%TA.AperFunction,ComponentPad*%
G36*
G01*
X193550000Y-89000000D02*
X190450000Y-89000000D01*
G75*
G02*
X190200000Y-88750000I0J250000D01*
G01*
X190200000Y-87250000D01*
G75*
G02*
X190450000Y-87000000I250000J0D01*
G01*
X193550000Y-87000000D01*
G75*
G02*
X193800000Y-87250000I0J-250000D01*
G01*
X193800000Y-88750000D01*
G75*
G02*
X193550000Y-89000000I-250000J0D01*
G01*
G37*
%TD.AperFunction*%
%TD*%
%TO.P,J4,2*%
%TO.N,/BoosModule/Out_A_J*%
X192000000Y-63000000D03*
%TO.P,J4,1*%
%TO.N,/BoosModule/Out_A_K*%
%TA.AperFunction,ComponentPad*%
G36*
G01*
X193550000Y-69000000D02*
X190450000Y-69000000D01*
G75*
G02*
X190200000Y-68750000I0J250000D01*
G01*
X190200000Y-67250000D01*
G75*
G02*
X190450000Y-67000000I250000J0D01*
G01*
X193550000Y-67000000D01*
G75*
G02*
X193800000Y-67250000I0J-250000D01*
G01*
X193800000Y-68750000D01*
G75*
G02*
X193550000Y-69000000I-250000J0D01*
G01*
G37*
%TD.AperFunction*%
%TD*%
D13*
%TO.P,J3,6*%
%TO.N,+5V*%
X142080000Y-54460000D03*
%TO.P,J3,4*%
%TO.N,/BoosModule/Brake_B*%
X139540000Y-54460000D03*
%TO.P,J3,2*%
%TO.N,/BoosModule/DCC_B*%
X137000000Y-54460000D03*
%TO.P,J3,5*%
%TO.N,GND*%
X142080000Y-57000000D03*
%TO.P,J3,3*%
%TO.N,/BoosModule/Sns_B*%
X139540000Y-57000000D03*
%TO.P,J3,1*%
%TO.N,/BoosModule/en_B*%
%TA.AperFunction,ComponentPad*%
G36*
G01*
X137600000Y-57850000D02*
X136400000Y-57850000D01*
G75*
G02*
X136150000Y-57600000I0J250000D01*
G01*
X136150000Y-56400000D01*
G75*
G02*
X136400000Y-56150000I250000J0D01*
G01*
X137600000Y-56150000D01*
G75*
G02*
X137850000Y-56400000I0J-250000D01*
G01*
X137850000Y-57600000D01*
G75*
G02*
X137600000Y-57850000I-250000J0D01*
G01*
G37*
%TD.AperFunction*%
%TD*%
%TO.P,J2,6*%
%TO.N,+5V*%
X163080000Y-54460000D03*
%TO.P,J2,4*%
%TO.N,/BoosModule/Brake_A*%
X160540000Y-54460000D03*
%TO.P,J2,2*%
%TO.N,/BoosModule/DCC_A*%
X158000000Y-54460000D03*
%TO.P,J2,5*%
%TO.N,GND*%
X163080000Y-57000000D03*
%TO.P,J2,3*%
%TO.N,/BoosModule/Sns_A*%
X160540000Y-57000000D03*
%TO.P,J2,1*%
%TO.N,/BoosModule/en_A*%
%TA.AperFunction,ComponentPad*%
G36*
G01*
X158600000Y-57850000D02*
X157400000Y-57850000D01*
G75*
G02*
X157150000Y-57600000I0J250000D01*
G01*
X157150000Y-56400000D01*
G75*
G02*
X157400000Y-56150000I250000J0D01*
G01*
X158600000Y-56150000D01*
G75*
G02*
X158850000Y-56400000I0J-250000D01*
G01*
X158850000Y-57600000D01*
G75*
G02*
X158600000Y-57850000I-250000J0D01*
G01*
G37*
%TD.AperFunction*%
%TD*%
%TO.P,J1,3*%
%TO.N,GND*%
%TA.AperFunction,ComponentPad*%
G36*
G01*
X109250000Y-80575000D02*
X109250000Y-78825000D01*
G75*
G02*
X110125000Y-77950000I875000J0D01*
G01*
X111875000Y-77950000D01*
G75*
G02*
X112750000Y-78825000I0J-875000D01*
G01*
X112750000Y-80575000D01*
G75*
G02*
X111875000Y-81450000I-875000J0D01*
G01*
X110125000Y-81450000D01*
G75*
G02*
X109250000Y-80575000I0J875000D01*
G01*
G37*
%TD.AperFunction*%
%TO.P,J1,2*%
%TA.AperFunction,ComponentPad*%
G36*
G01*
X106500000Y-76000000D02*
X106500000Y-74000000D01*
G75*
G02*
X107250000Y-73250000I750000J0D01*
G01*
X108750000Y-73250000D01*
G75*
G02*
X109500000Y-74000000I0J-750000D01*
G01*
X109500000Y-76000000D01*
G75*
G02*
X108750000Y-76750000I-750000J0D01*
G01*
X107250000Y-76750000D01*
G75*
G02*
X106500000Y-76000000I0J750000D01*
G01*
G37*
%TD.AperFunction*%
D14*
%TO.P,J1,1*%
%TO.N,/V_DCC*%
X114000000Y-75000000D03*
%TD*%
D15*
%TO.N,GND*%
X138500000Y-67750000D03*
X134000000Y-72500000D03*
X142000000Y-72000000D03*
X136750000Y-88250000D03*
X139000000Y-64000000D03*
X133500000Y-64000000D03*
X152250000Y-74500000D03*
X158250000Y-74500000D03*
X161750000Y-82750000D03*
X154000000Y-55750000D03*
X153250000Y-81750000D03*
X153250000Y-68000000D03*
X139000000Y-81750000D03*
X162484000Y-70536000D03*
%TO.N,+5V*%
X119250000Y-53000000D03*
X119500000Y-64500000D03*
X133750000Y-78250000D03*
%TO.N,/V_DCC*%
X165450000Y-77550000D03*
X165500000Y-71800000D03*
X162484000Y-84500000D03*
%TO.N,/BoosModule/Brake_A*%
X142250000Y-59250000D03*
X140500000Y-62750000D03*
%TO.N,/BoosModule/DCC_A*%
X142280579Y-63160145D03*
%TO.N,/BoosModule/Sns_A*%
X126750000Y-87500000D03*
%TO.N,/BoosModule/en_A*%
X143000000Y-65250000D03*
%TO.N,/BoosModule/Brake_B*%
X130750000Y-57250000D03*
X130750000Y-76500000D03*
%TO.N,/BoosModule/DCC_B*%
X129500000Y-73250000D03*
%TO.N,/BoosModule/Sns_B*%
X135000000Y-58750000D03*
X133750000Y-83750000D03*
%TO.N,/BoosModule/en_B*%
X144000010Y-84500000D03*
%TO.N,/BoosModule/snsA*%
X126500000Y-86250000D03*
X155500000Y-67250000D03*
%TO.N,/BoosModule/snsB*%
X131000000Y-92500000D03*
X123500000Y-91000000D03*
%TD*%
D16*
%TO.N,+5V*%
X119250000Y-53000000D02*
X118750000Y-53500000D01*
X118750000Y-63750000D02*
X119500000Y-64500000D01*
X118750000Y-53500000D02*
X118750000Y-63750000D01*
X118750000Y-63750000D02*
X118750000Y-74500000D01*
X122500000Y-78250000D02*
X133750000Y-78250000D01*
X118750000Y-74500000D02*
X122500000Y-78250000D01*
D17*
%TO.N,/V_DCC*%
X165500000Y-77500000D02*
X165450000Y-77550000D01*
X165500000Y-71800000D02*
X165500000Y-77500000D01*
X165450000Y-83050000D02*
X164000000Y-84500000D01*
X165450000Y-77550000D02*
X165450000Y-83050000D01*
X164000000Y-84500000D02*
X162484000Y-84500000D01*
D16*
%TO.N,/BoosModule/Brake_A*%
X142250000Y-61000000D02*
X140500000Y-62750000D01*
X142250000Y-59250000D02*
X142250000Y-61000000D01*
%TO.N,/BoosModule/DCC_A*%
X158000000Y-54460000D02*
X150980724Y-54460000D01*
X150980724Y-54460000D02*
X142280579Y-63160145D01*
%TO.N,/BoosModule/Sns_A*%
X160540000Y-57000000D02*
X160540000Y-89460000D01*
X160540000Y-89460000D02*
X160000000Y-90000000D01*
X160000000Y-90000000D02*
X130000000Y-90000000D01*
X127500000Y-87500000D02*
X126750000Y-87500000D01*
X130000000Y-90000000D02*
X127500000Y-87500000D01*
%TO.N,/BoosModule/en_A*%
X149250000Y-57000000D02*
X143000000Y-63250000D01*
X158000000Y-57000000D02*
X149250000Y-57000000D01*
X143000000Y-63250000D02*
X143000000Y-65250000D01*
%TO.N,/BoosModule/Brake_B*%
X130750000Y-57250000D02*
X130750000Y-76500000D01*
%TO.N,/BoosModule/DCC_B*%
X137000000Y-54460000D02*
X132290000Y-54460000D01*
X129500000Y-57250000D02*
X129500000Y-73250000D01*
X132290000Y-54460000D02*
X129500000Y-57250000D01*
%TO.N,/BoosModule/Sns_B*%
X135000000Y-82500000D02*
X133750000Y-83750000D01*
X135000000Y-58750000D02*
X135000000Y-82500000D01*
%TO.N,/BoosModule/en_B*%
X139250000Y-84500000D02*
X144000010Y-84500000D01*
X137000000Y-82250000D02*
X139250000Y-84500000D01*
X137000000Y-57000000D02*
X137000000Y-82250000D01*
%TO.N,/BoosModule/snsA*%
X155500000Y-84750000D02*
X155500000Y-67250000D01*
X126500000Y-86250000D02*
X154000000Y-86250000D01*
X154000000Y-86250000D02*
X155500000Y-84750000D01*
%TO.N,/BoosModule/snsB*%
X131000000Y-92500000D02*
X129500000Y-91000000D01*
X129500000Y-91000000D02*
X123500000Y-91000000D01*
%TD*%
D18*
%TO.N,GND*%
G36*
X196648126Y-50726714D02*
G01*
X197271572Y-50914943D01*
X197846579Y-51220681D01*
X198351247Y-51632279D01*
X198766362Y-52134067D01*
X199076105Y-52706924D01*
X199268682Y-53329039D01*
X199340001Y-54007594D01*
X199340000Y-95967721D01*
X199273286Y-96648126D01*
X199085057Y-97271570D01*
X198779323Y-97846573D01*
X198367721Y-98351248D01*
X197865933Y-98766362D01*
X197293077Y-99076104D01*
X196670961Y-99268682D01*
X195992417Y-99340000D01*
X104032279Y-99340000D01*
X103351874Y-99273286D01*
X102728430Y-99085057D01*
X102153427Y-98779323D01*
X101648752Y-98367721D01*
X101233638Y-97865933D01*
X100923896Y-97293077D01*
X100731318Y-96670961D01*
X100660000Y-95992417D01*
X100660000Y-95814344D01*
X102115000Y-95814344D01*
X102115000Y-96185656D01*
X102187439Y-96549834D01*
X102329534Y-96892882D01*
X102535825Y-97201618D01*
X102798382Y-97464175D01*
X103107118Y-97670466D01*
X103450166Y-97812561D01*
X103814344Y-97885000D01*
X104185656Y-97885000D01*
X104549834Y-97812561D01*
X104892882Y-97670466D01*
X105201618Y-97464175D01*
X105464175Y-97201618D01*
X105670466Y-96892882D01*
X105812561Y-96549834D01*
X105885000Y-96185656D01*
X105885000Y-95814344D01*
X194115000Y-95814344D01*
X194115000Y-96185656D01*
X194187439Y-96549834D01*
X194329534Y-96892882D01*
X194535825Y-97201618D01*
X194798382Y-97464175D01*
X195107118Y-97670466D01*
X195450166Y-97812561D01*
X195814344Y-97885000D01*
X196185656Y-97885000D01*
X196549834Y-97812561D01*
X196892882Y-97670466D01*
X197201618Y-97464175D01*
X197464175Y-97201618D01*
X197670466Y-96892882D01*
X197812561Y-96549834D01*
X197885000Y-96185656D01*
X197885000Y-95814344D01*
X197812561Y-95450166D01*
X197670466Y-95107118D01*
X197464175Y-94798382D01*
X197201618Y-94535825D01*
X196892882Y-94329534D01*
X196549834Y-94187439D01*
X196185656Y-94115000D01*
X195814344Y-94115000D01*
X195450166Y-94187439D01*
X195107118Y-94329534D01*
X194798382Y-94535825D01*
X194535825Y-94798382D01*
X194329534Y-95107118D01*
X194187439Y-95450166D01*
X194115000Y-95814344D01*
X105885000Y-95814344D01*
X105812561Y-95450166D01*
X105670466Y-95107118D01*
X105464175Y-94798382D01*
X105201618Y-94535825D01*
X104892882Y-94329534D01*
X104549834Y-94187439D01*
X104185656Y-94115000D01*
X103814344Y-94115000D01*
X103450166Y-94187439D01*
X103107118Y-94329534D01*
X102798382Y-94535825D01*
X102535825Y-94798382D01*
X102329534Y-95107118D01*
X102187439Y-95450166D01*
X102115000Y-95814344D01*
X100660000Y-95814344D01*
X100660000Y-81450000D01*
X108611928Y-81450000D01*
X108624188Y-81574482D01*
X108660498Y-81694180D01*
X108719463Y-81804494D01*
X108798815Y-81901185D01*
X108895506Y-81980537D01*
X109005820Y-82039502D01*
X109125518Y-82075812D01*
X109250000Y-82088072D01*
X110714250Y-82085000D01*
X110873000Y-81926250D01*
X110873000Y-79827000D01*
X111127000Y-79827000D01*
X111127000Y-81926250D01*
X111285750Y-82085000D01*
X112750000Y-82088072D01*
X112874482Y-82075812D01*
X112994180Y-82039502D01*
X113104494Y-81980537D01*
X113201185Y-81901185D01*
X113280537Y-81804494D01*
X113339502Y-81694180D01*
X113375812Y-81574482D01*
X113388072Y-81450000D01*
X113385000Y-79985750D01*
X113226250Y-79827000D01*
X111127000Y-79827000D01*
X110873000Y-79827000D01*
X108773750Y-79827000D01*
X108615000Y-79985750D01*
X108611928Y-81450000D01*
X100660000Y-81450000D01*
X100660000Y-76750000D01*
X105861928Y-76750000D01*
X105874188Y-76874482D01*
X105910498Y-76994180D01*
X105969463Y-77104494D01*
X106048815Y-77201185D01*
X106145506Y-77280537D01*
X106255820Y-77339502D01*
X106375518Y-77375812D01*
X106500000Y-77388072D01*
X107714250Y-77385000D01*
X107873000Y-77226250D01*
X107873000Y-75127000D01*
X108127000Y-75127000D01*
X108127000Y-77226250D01*
X108285750Y-77385000D01*
X108956805Y-77386698D01*
X108895506Y-77419463D01*
X108798815Y-77498815D01*
X108719463Y-77595506D01*
X108660498Y-77705820D01*
X108624188Y-77825518D01*
X108611928Y-77950000D01*
X108615000Y-79414250D01*
X108773750Y-79573000D01*
X110873000Y-79573000D01*
X110873000Y-77473750D01*
X111127000Y-77473750D01*
X111127000Y-79573000D01*
X113226250Y-79573000D01*
X113385000Y-79414250D01*
X113388072Y-77950000D01*
X113375812Y-77825518D01*
X113339502Y-77705820D01*
X113280537Y-77595506D01*
X113201185Y-77498815D01*
X113104494Y-77419463D01*
X113045767Y-77388072D01*
X115750000Y-77388072D01*
X115874482Y-77375812D01*
X115994180Y-77339502D01*
X116104494Y-77280537D01*
X116201185Y-77201185D01*
X116280537Y-77104494D01*
X116339502Y-76994180D01*
X116375812Y-76874482D01*
X116388072Y-76750000D01*
X116388072Y-73250000D01*
X116375812Y-73125518D01*
X116339502Y-73005820D01*
X116280537Y-72895506D01*
X116201185Y-72798815D01*
X116104494Y-72719463D01*
X115994180Y-72660498D01*
X115874482Y-72624188D01*
X115750000Y-72611928D01*
X112250000Y-72611928D01*
X112125518Y-72624188D01*
X112005820Y-72660498D01*
X111895506Y-72719463D01*
X111798815Y-72798815D01*
X111719463Y-72895506D01*
X111660498Y-73005820D01*
X111624188Y-73125518D01*
X111611928Y-73250000D01*
X111611928Y-76750000D01*
X111624188Y-76874482D01*
X111660498Y-76994180D01*
X111719463Y-77104494D01*
X111798815Y-77201185D01*
X111895506Y-77280537D01*
X111957345Y-77313591D01*
X111285750Y-77315000D01*
X111127000Y-77473750D01*
X110873000Y-77473750D01*
X110714250Y-77315000D01*
X109793633Y-77313069D01*
X109854494Y-77280537D01*
X109951185Y-77201185D01*
X110030537Y-77104494D01*
X110089502Y-76994180D01*
X110125812Y-76874482D01*
X110138072Y-76750000D01*
X110135000Y-75285750D01*
X109976250Y-75127000D01*
X108127000Y-75127000D01*
X107873000Y-75127000D01*
X106023750Y-75127000D01*
X105865000Y-75285750D01*
X105861928Y-76750000D01*
X100660000Y-76750000D01*
X100660000Y-73250000D01*
X105861928Y-73250000D01*
X105865000Y-74714250D01*
X106023750Y-74873000D01*
X107873000Y-74873000D01*
X107873000Y-72773750D01*
X108127000Y-72773750D01*
X108127000Y-74873000D01*
X109976250Y-74873000D01*
X110135000Y-74714250D01*
X110138072Y-73250000D01*
X110125812Y-73125518D01*
X110089502Y-73005820D01*
X110030537Y-72895506D01*
X109951185Y-72798815D01*
X109854494Y-72719463D01*
X109744180Y-72660498D01*
X109624482Y-72624188D01*
X109500000Y-72611928D01*
X108285750Y-72615000D01*
X108127000Y-72773750D01*
X107873000Y-72773750D01*
X107714250Y-72615000D01*
X106500000Y-72611928D01*
X106375518Y-72624188D01*
X106255820Y-72660498D01*
X106145506Y-72719463D01*
X106048815Y-72798815D01*
X105969463Y-72895506D01*
X105910498Y-73005820D01*
X105874188Y-73125518D01*
X105861928Y-73250000D01*
X100660000Y-73250000D01*
X100660000Y-65245721D01*
X101929000Y-65245721D01*
X101929000Y-65666279D01*
X102011047Y-66078756D01*
X102171988Y-66467302D01*
X102405637Y-66816983D01*
X102703017Y-67114363D01*
X103052698Y-67348012D01*
X103441244Y-67508953D01*
X103853721Y-67591000D01*
X104274279Y-67591000D01*
X104686756Y-67508953D01*
X105075302Y-67348012D01*
X105424983Y-67114363D01*
X105722363Y-66816983D01*
X105956012Y-66467302D01*
X106116953Y-66078756D01*
X106199000Y-65666279D01*
X106199000Y-65245721D01*
X106116953Y-64833244D01*
X105956012Y-64444698D01*
X105722363Y-64095017D01*
X105424983Y-63797637D01*
X105075302Y-63563988D01*
X104686756Y-63403047D01*
X104274279Y-63321000D01*
X103853721Y-63321000D01*
X103441244Y-63403047D01*
X103052698Y-63563988D01*
X102703017Y-63797637D01*
X102405637Y-64095017D01*
X102171988Y-64444698D01*
X102011047Y-64833244D01*
X101929000Y-65245721D01*
X100660000Y-65245721D01*
X100660000Y-61876000D01*
X101925928Y-61876000D01*
X101938188Y-62000482D01*
X101974498Y-62120180D01*
X102033463Y-62230494D01*
X102112815Y-62327185D01*
X102209506Y-62406537D01*
X102319820Y-62465502D01*
X102439518Y-62501812D01*
X102564000Y-62514072D01*
X103778250Y-62511000D01*
X103937000Y-62352250D01*
X103937000Y-60503000D01*
X104191000Y-60503000D01*
X104191000Y-62352250D01*
X104349750Y-62511000D01*
X105564000Y-62514072D01*
X105688482Y-62501812D01*
X105808180Y-62465502D01*
X105918494Y-62406537D01*
X106015185Y-62327185D01*
X106094537Y-62230494D01*
X106153502Y-62120180D01*
X106189812Y-62000482D01*
X106202072Y-61876000D01*
X106199000Y-60661750D01*
X106040250Y-60503000D01*
X104191000Y-60503000D01*
X103937000Y-60503000D01*
X102087750Y-60503000D01*
X101929000Y-60661750D01*
X101925928Y-61876000D01*
X100660000Y-61876000D01*
X100660000Y-58876000D01*
X101925928Y-58876000D01*
X101929000Y-60090250D01*
X102087750Y-60249000D01*
X103937000Y-60249000D01*
X103937000Y-58399750D01*
X104191000Y-58399750D01*
X104191000Y-60249000D01*
X106040250Y-60249000D01*
X106199000Y-60090250D01*
X106202072Y-58876000D01*
X106189812Y-58751518D01*
X106153502Y-58631820D01*
X106094537Y-58521506D01*
X106015185Y-58424815D01*
X105918494Y-58345463D01*
X105808180Y-58286498D01*
X105688482Y-58250188D01*
X105564000Y-58237928D01*
X104349750Y-58241000D01*
X104191000Y-58399750D01*
X103937000Y-58399750D01*
X103778250Y-58241000D01*
X102564000Y-58237928D01*
X102439518Y-58250188D01*
X102319820Y-58286498D01*
X102209506Y-58345463D01*
X102112815Y-58424815D01*
X102033463Y-58521506D01*
X101974498Y-58631820D01*
X101938188Y-58751518D01*
X101925928Y-58876000D01*
X100660000Y-58876000D01*
X100660000Y-54032278D01*
X100681368Y-53814344D01*
X102115000Y-53814344D01*
X102115000Y-54185656D01*
X102187439Y-54549834D01*
X102329534Y-54892882D01*
X102535825Y-55201618D01*
X102798382Y-55464175D01*
X103107118Y-55670466D01*
X103450166Y-55812561D01*
X103814344Y-55885000D01*
X104185656Y-55885000D01*
X104549834Y-55812561D01*
X104892882Y-55670466D01*
X105201618Y-55464175D01*
X105464175Y-55201618D01*
X105670466Y-54892882D01*
X105812561Y-54549834D01*
X105885000Y-54185656D01*
X105885000Y-53814344D01*
X105822474Y-53500000D01*
X117986324Y-53500000D01*
X117990000Y-53537322D01*
X117990001Y-63712658D01*
X117990000Y-63712668D01*
X117990000Y-63712678D01*
X117986324Y-63750000D01*
X117990000Y-63787322D01*
X117990001Y-74462668D01*
X117986324Y-74500000D01*
X118000998Y-74648985D01*
X118044454Y-74792246D01*
X118115026Y-74924276D01*
X118186201Y-75011002D01*
X118210000Y-75040001D01*
X118238998Y-75063799D01*
X121936201Y-78761003D01*
X121959999Y-78790001D01*
X122075724Y-78884974D01*
X122207753Y-78955546D01*
X122351014Y-78999003D01*
X122462667Y-79010000D01*
X122462677Y-79010000D01*
X122500000Y-79013676D01*
X122537323Y-79010000D01*
X133046289Y-79010000D01*
X133090226Y-79053937D01*
X133259744Y-79167205D01*
X133448102Y-79245226D01*
X133648061Y-79285000D01*
X133851939Y-79285000D01*
X134051898Y-79245226D01*
X134240001Y-79167311D01*
X134240001Y-82185197D01*
X133710199Y-82715000D01*
X133648061Y-82715000D01*
X133448102Y-82754774D01*
X133259744Y-82832795D01*
X133090226Y-82946063D01*
X132946063Y-83090226D01*
X132832795Y-83259744D01*
X132754774Y-83448102D01*
X132715000Y-83648061D01*
X132715000Y-83851939D01*
X132754774Y-84051898D01*
X132832795Y-84240256D01*
X132946063Y-84409774D01*
X133090226Y-84553937D01*
X133259744Y-84667205D01*
X133448102Y-84745226D01*
X133648061Y-84785000D01*
X133851939Y-84785000D01*
X134051898Y-84745226D01*
X134240256Y-84667205D01*
X134409774Y-84553937D01*
X134553937Y-84409774D01*
X134667205Y-84240256D01*
X134745226Y-84051898D01*
X134785000Y-83851939D01*
X134785000Y-83789801D01*
X135511003Y-83063799D01*
X135540001Y-83040001D01*
X135573647Y-82999003D01*
X135634974Y-82924277D01*
X135705546Y-82792247D01*
X135728978Y-82715000D01*
X135749003Y-82648986D01*
X135760000Y-82537333D01*
X135760000Y-82537323D01*
X135763676Y-82500000D01*
X135760000Y-82462677D01*
X135760000Y-59453711D01*
X135803937Y-59409774D01*
X135917205Y-59240256D01*
X135995226Y-59051898D01*
X136035000Y-58851939D01*
X136035000Y-58648061D01*
X135995226Y-58448102D01*
X135962065Y-58368044D01*
X136060150Y-58420472D01*
X136226746Y-58471008D01*
X136240000Y-58472313D01*
X136240001Y-82212667D01*
X136236324Y-82250000D01*
X136250998Y-82398985D01*
X136294454Y-82542246D01*
X136365026Y-82674276D01*
X136398448Y-82715000D01*
X136460000Y-82790001D01*
X136488998Y-82813799D01*
X138686201Y-85011003D01*
X138709999Y-85040001D01*
X138738997Y-85063799D01*
X138825724Y-85134974D01*
X138957753Y-85205546D01*
X139101014Y-85249003D01*
X139250000Y-85263677D01*
X139287333Y-85260000D01*
X143296299Y-85260000D01*
X143340236Y-85303937D01*
X143509754Y-85417205D01*
X143685495Y-85490000D01*
X127203711Y-85490000D01*
X127159774Y-85446063D01*
X126990256Y-85332795D01*
X126801898Y-85254774D01*
X126601939Y-85215000D01*
X126398061Y-85215000D01*
X126198102Y-85254774D01*
X126009744Y-85332795D01*
X125840226Y-85446063D01*
X125696063Y-85590226D01*
X125582795Y-85759744D01*
X125504774Y-85948102D01*
X125465000Y-86148061D01*
X125465000Y-86351939D01*
X125504774Y-86551898D01*
X125582795Y-86740256D01*
X125696063Y-86909774D01*
X125822028Y-87035739D01*
X125754774Y-87198102D01*
X125715000Y-87398061D01*
X125715000Y-87601939D01*
X125754774Y-87801898D01*
X125832795Y-87990256D01*
X125946063Y-88159774D01*
X126090226Y-88303937D01*
X126259744Y-88417205D01*
X126448102Y-88495226D01*
X126648061Y-88535000D01*
X126851939Y-88535000D01*
X127051898Y-88495226D01*
X127240256Y-88417205D01*
X127301489Y-88376290D01*
X129165198Y-90240000D01*
X124203711Y-90240000D01*
X124159774Y-90196063D01*
X123990256Y-90082795D01*
X123801898Y-90004774D01*
X123601939Y-89965000D01*
X123398061Y-89965000D01*
X123198102Y-90004774D01*
X123009744Y-90082795D01*
X122840226Y-90196063D01*
X122696063Y-90340226D01*
X122582795Y-90509744D01*
X122504774Y-90698102D01*
X122465000Y-90898061D01*
X122465000Y-91101939D01*
X122504774Y-91301898D01*
X122582795Y-91490256D01*
X122696063Y-91659774D01*
X122840226Y-91803937D01*
X123009744Y-91917205D01*
X123198102Y-91995226D01*
X123398061Y-92035000D01*
X123601939Y-92035000D01*
X123801898Y-91995226D01*
X123990256Y-91917205D01*
X124159774Y-91803937D01*
X124203711Y-91760000D01*
X129185199Y-91760000D01*
X129965000Y-92539802D01*
X129965000Y-92601939D01*
X130004774Y-92801898D01*
X130082795Y-92990256D01*
X130196063Y-93159774D01*
X130340226Y-93303937D01*
X130509744Y-93417205D01*
X130698102Y-93495226D01*
X130898061Y-93535000D01*
X131101939Y-93535000D01*
X131301898Y-93495226D01*
X131490256Y-93417205D01*
X131659774Y-93303937D01*
X131803937Y-93159774D01*
X131917205Y-92990256D01*
X131995226Y-92801898D01*
X132035000Y-92601939D01*
X132035000Y-92398061D01*
X131995226Y-92198102D01*
X131917205Y-92009744D01*
X131803937Y-91840226D01*
X131659774Y-91696063D01*
X131490256Y-91582795D01*
X131301898Y-91504774D01*
X131101939Y-91465000D01*
X131039802Y-91465000D01*
X130334801Y-90760000D01*
X159962678Y-90760000D01*
X160000000Y-90763676D01*
X160037322Y-90760000D01*
X160037333Y-90760000D01*
X160148986Y-90749003D01*
X160292247Y-90705546D01*
X160424276Y-90634974D01*
X160540001Y-90540001D01*
X160563803Y-90510998D01*
X161051002Y-90023800D01*
X161080001Y-90000001D01*
X161174974Y-89884276D01*
X161245546Y-89752247D01*
X161289003Y-89608986D01*
X161300000Y-89497333D01*
X161300000Y-89497324D01*
X161303676Y-89460001D01*
X161300000Y-89422678D01*
X161300000Y-87250000D01*
X189561928Y-87250000D01*
X189561928Y-88750000D01*
X189578992Y-88923254D01*
X189629528Y-89089850D01*
X189711595Y-89243386D01*
X189822038Y-89377962D01*
X189956614Y-89488405D01*
X190110150Y-89570472D01*
X190276746Y-89621008D01*
X190450000Y-89638072D01*
X193550000Y-89638072D01*
X193723254Y-89621008D01*
X193889850Y-89570472D01*
X194043386Y-89488405D01*
X194177962Y-89377962D01*
X194288405Y-89243386D01*
X194370472Y-89089850D01*
X194421008Y-88923254D01*
X194438072Y-88750000D01*
X194438072Y-87250000D01*
X194421008Y-87076746D01*
X194370472Y-86910150D01*
X194288405Y-86756614D01*
X194177962Y-86622038D01*
X194043386Y-86511595D01*
X193889850Y-86429528D01*
X193723254Y-86378992D01*
X193550000Y-86361928D01*
X190450000Y-86361928D01*
X190276746Y-86378992D01*
X190110150Y-86429528D01*
X189956614Y-86511595D01*
X189822038Y-86622038D01*
X189711595Y-86756614D01*
X189629528Y-86910150D01*
X189578992Y-87076746D01*
X189561928Y-87250000D01*
X161300000Y-87250000D01*
X161300000Y-84500000D01*
X161443993Y-84500000D01*
X161449000Y-84550838D01*
X161449000Y-84601939D01*
X161458969Y-84652057D01*
X161463976Y-84702895D01*
X161478804Y-84751777D01*
X161488774Y-84801898D01*
X161508331Y-84849113D01*
X161523159Y-84897993D01*
X161547238Y-84943042D01*
X161566795Y-84990256D01*
X161595186Y-85032746D01*
X161619266Y-85077797D01*
X161651672Y-85117284D01*
X161680063Y-85159774D01*
X161716197Y-85195908D01*
X161748604Y-85235396D01*
X161788092Y-85267803D01*
X161824226Y-85303937D01*
X161866716Y-85332328D01*
X161906203Y-85364734D01*
X161951254Y-85388814D01*
X161993744Y-85417205D01*
X162040958Y-85436762D01*
X162086007Y-85460841D01*
X162134887Y-85475669D01*
X162182102Y-85495226D01*
X162232223Y-85505196D01*
X162281105Y-85520024D01*
X162331943Y-85525031D01*
X162382061Y-85535000D01*
X163949172Y-85535000D01*
X164000000Y-85540006D01*
X164050828Y-85535000D01*
X164050838Y-85535000D01*
X164202895Y-85520024D01*
X164397993Y-85460841D01*
X164577797Y-85364734D01*
X164735396Y-85235396D01*
X164767807Y-85195903D01*
X166145908Y-83817803D01*
X166185396Y-83785396D01*
X166217803Y-83745908D01*
X166314734Y-83627798D01*
X166380491Y-83504774D01*
X166410841Y-83447993D01*
X166470024Y-83252895D01*
X166485000Y-83100838D01*
X166485000Y-83100835D01*
X166490007Y-83050000D01*
X166485083Y-83000000D01*
X189557089Y-83000000D01*
X189588657Y-83320516D01*
X189682148Y-83628715D01*
X189833969Y-83912752D01*
X190038286Y-84161714D01*
X190287248Y-84366031D01*
X190571285Y-84517852D01*
X190879484Y-84611343D01*
X191119678Y-84635000D01*
X192880322Y-84635000D01*
X193120516Y-84611343D01*
X193428715Y-84517852D01*
X193712752Y-84366031D01*
X193961714Y-84161714D01*
X194166031Y-83912752D01*
X194317852Y-83628715D01*
X194411343Y-83320516D01*
X194442911Y-83000000D01*
X194411343Y-82679484D01*
X194317852Y-82371285D01*
X194166031Y-82087248D01*
X193961714Y-81838286D01*
X193712752Y-81633969D01*
X193428715Y-81482148D01*
X193120516Y-81388657D01*
X192880322Y-81365000D01*
X191119678Y-81365000D01*
X190879484Y-81388657D01*
X190571285Y-81482148D01*
X190287248Y-81633969D01*
X190038286Y-81838286D01*
X189833969Y-82087248D01*
X189682148Y-82371285D01*
X189588657Y-82679484D01*
X189557089Y-83000000D01*
X166485083Y-83000000D01*
X166485000Y-82999165D01*
X166485000Y-77818352D01*
X166520024Y-77702895D01*
X166535000Y-77550838D01*
X166535000Y-77550835D01*
X166540007Y-77500000D01*
X166535000Y-77449165D01*
X166535000Y-71698061D01*
X166525031Y-71647943D01*
X166520024Y-71597105D01*
X166505196Y-71548223D01*
X166495226Y-71498102D01*
X166475669Y-71450887D01*
X166460841Y-71402007D01*
X166436762Y-71356958D01*
X166417205Y-71309744D01*
X166388814Y-71267254D01*
X166364734Y-71222203D01*
X166332328Y-71182716D01*
X166303937Y-71140226D01*
X166267803Y-71104092D01*
X166235396Y-71064604D01*
X166195908Y-71032197D01*
X166159774Y-70996063D01*
X166117284Y-70967672D01*
X166077797Y-70935266D01*
X166032747Y-70911186D01*
X165990256Y-70882795D01*
X165943039Y-70863237D01*
X165897992Y-70839159D01*
X165849116Y-70824332D01*
X165801898Y-70804774D01*
X165751774Y-70794804D01*
X165702894Y-70779976D01*
X165652058Y-70774969D01*
X165601939Y-70765000D01*
X165550838Y-70765000D01*
X165500000Y-70759993D01*
X165449162Y-70765000D01*
X165398061Y-70765000D01*
X165347943Y-70774969D01*
X165297105Y-70779976D01*
X165248223Y-70794804D01*
X165198102Y-70804774D01*
X165150887Y-70824331D01*
X165102007Y-70839159D01*
X165056958Y-70863238D01*
X165009744Y-70882795D01*
X164967254Y-70911186D01*
X164922203Y-70935266D01*
X164882716Y-70967672D01*
X164840226Y-70996063D01*
X164804092Y-71032197D01*
X164764604Y-71064604D01*
X164732197Y-71104092D01*
X164696063Y-71140226D01*
X164667672Y-71182716D01*
X164635266Y-71222203D01*
X164611186Y-71267253D01*
X164582795Y-71309744D01*
X164563237Y-71356961D01*
X164539159Y-71402008D01*
X164524332Y-71450884D01*
X164504774Y-71498102D01*
X164494804Y-71548226D01*
X164479976Y-71597106D01*
X164474969Y-71647942D01*
X164465000Y-71698061D01*
X164465000Y-71749163D01*
X164465001Y-77223412D01*
X164454774Y-77248102D01*
X164444804Y-77298226D01*
X164429976Y-77347106D01*
X164424969Y-77397942D01*
X164415000Y-77448061D01*
X164415000Y-77499172D01*
X164409994Y-77550000D01*
X164415000Y-77600828D01*
X164415001Y-82621288D01*
X163571290Y-83465000D01*
X162382061Y-83465000D01*
X162331943Y-83474969D01*
X162281105Y-83479976D01*
X162232223Y-83494804D01*
X162182102Y-83504774D01*
X162134887Y-83524331D01*
X162086007Y-83539159D01*
X162040958Y-83563238D01*
X161993744Y-83582795D01*
X161951254Y-83611186D01*
X161906203Y-83635266D01*
X161866716Y-83667672D01*
X161824226Y-83696063D01*
X161788092Y-83732197D01*
X161748604Y-83764604D01*
X161716197Y-83804092D01*
X161680063Y-83840226D01*
X161651672Y-83882716D01*
X161619266Y-83922203D01*
X161595186Y-83967254D01*
X161566795Y-84009744D01*
X161547238Y-84056958D01*
X161523159Y-84102007D01*
X161508331Y-84150887D01*
X161488774Y-84198102D01*
X161478804Y-84248223D01*
X161463976Y-84297105D01*
X161458969Y-84347943D01*
X161449000Y-84398061D01*
X161449000Y-84449162D01*
X161443993Y-84500000D01*
X161300000Y-84500000D01*
X161300000Y-67250000D01*
X189561928Y-67250000D01*
X189561928Y-68750000D01*
X189578992Y-68923254D01*
X189629528Y-69089850D01*
X189711595Y-69243386D01*
X189822038Y-69377962D01*
X189956614Y-69488405D01*
X190110150Y-69570472D01*
X190276746Y-69621008D01*
X190450000Y-69638072D01*
X193550000Y-69638072D01*
X193723254Y-69621008D01*
X193889850Y-69570472D01*
X194043386Y-69488405D01*
X194177962Y-69377962D01*
X194288405Y-69243386D01*
X194370472Y-69089850D01*
X194421008Y-68923254D01*
X194438072Y-68750000D01*
X194438072Y-67250000D01*
X194421008Y-67076746D01*
X194370472Y-66910150D01*
X194288405Y-66756614D01*
X194177962Y-66622038D01*
X194043386Y-66511595D01*
X193889850Y-66429528D01*
X193723254Y-66378992D01*
X193550000Y-66361928D01*
X190450000Y-66361928D01*
X190276746Y-66378992D01*
X190110150Y-66429528D01*
X189956614Y-66511595D01*
X189822038Y-66622038D01*
X189711595Y-66756614D01*
X189629528Y-66910150D01*
X189578992Y-67076746D01*
X189561928Y-67250000D01*
X161300000Y-67250000D01*
X161300000Y-63000000D01*
X189557089Y-63000000D01*
X189588657Y-63320516D01*
X189682148Y-63628715D01*
X189833969Y-63912752D01*
X190038286Y-64161714D01*
X190287248Y-64366031D01*
X190571285Y-64517852D01*
X190879484Y-64611343D01*
X191119678Y-64635000D01*
X192880322Y-64635000D01*
X193120516Y-64611343D01*
X193428715Y-64517852D01*
X193712752Y-64366031D01*
X193961714Y-64161714D01*
X194166031Y-63912752D01*
X194317852Y-63628715D01*
X194411343Y-63320516D01*
X194442911Y-63000000D01*
X194411343Y-62679484D01*
X194317852Y-62371285D01*
X194166031Y-62087248D01*
X193961714Y-61838286D01*
X193712752Y-61633969D01*
X193428715Y-61482148D01*
X193120516Y-61388657D01*
X192880322Y-61365000D01*
X191119678Y-61365000D01*
X190879484Y-61388657D01*
X190571285Y-61482148D01*
X190287248Y-61633969D01*
X190038286Y-61838286D01*
X189833969Y-62087248D01*
X189682148Y-62371285D01*
X189588657Y-62679484D01*
X189557089Y-63000000D01*
X161300000Y-63000000D01*
X161300000Y-58278178D01*
X161486632Y-58153475D01*
X161611710Y-58028397D01*
X162231208Y-58028397D01*
X162308843Y-58277472D01*
X162572883Y-58403371D01*
X162856411Y-58475339D01*
X163148531Y-58490611D01*
X163438019Y-58448599D01*
X163713747Y-58350919D01*
X163851157Y-58277472D01*
X163928792Y-58028397D01*
X163080000Y-57179605D01*
X162231208Y-58028397D01*
X161611710Y-58028397D01*
X161693475Y-57946632D01*
X161809311Y-57773271D01*
X162051603Y-57848792D01*
X162900395Y-57000000D01*
X163259605Y-57000000D01*
X164108397Y-57848792D01*
X164357472Y-57771157D01*
X164483371Y-57507117D01*
X164555339Y-57223589D01*
X164570611Y-56931469D01*
X164528599Y-56641981D01*
X164430919Y-56366253D01*
X164357472Y-56228843D01*
X164108397Y-56151208D01*
X163259605Y-57000000D01*
X162900395Y-57000000D01*
X162051603Y-56151208D01*
X161809311Y-56226729D01*
X161693475Y-56053368D01*
X161486632Y-55846525D01*
X161312240Y-55730000D01*
X161486632Y-55613475D01*
X161693475Y-55406632D01*
X161810000Y-55232240D01*
X161926525Y-55406632D01*
X162133368Y-55613475D01*
X162306729Y-55729311D01*
X162231208Y-55971603D01*
X163080000Y-56820395D01*
X163928792Y-55971603D01*
X163853271Y-55729311D01*
X164026632Y-55613475D01*
X164233475Y-55406632D01*
X164395990Y-55163411D01*
X164507932Y-54893158D01*
X164565000Y-54606260D01*
X164565000Y-54313740D01*
X164507932Y-54026842D01*
X164419913Y-53814344D01*
X194115000Y-53814344D01*
X194115000Y-54185656D01*
X194187439Y-54549834D01*
X194329534Y-54892882D01*
X194535825Y-55201618D01*
X194798382Y-55464175D01*
X195107118Y-55670466D01*
X195450166Y-55812561D01*
X195814344Y-55885000D01*
X196185656Y-55885000D01*
X196549834Y-55812561D01*
X196892882Y-55670466D01*
X197201618Y-55464175D01*
X197464175Y-55201618D01*
X197670466Y-54892882D01*
X197812561Y-54549834D01*
X197885000Y-54185656D01*
X197885000Y-53814344D01*
X197812561Y-53450166D01*
X197670466Y-53107118D01*
X197464175Y-52798382D01*
X197201618Y-52535825D01*
X196892882Y-52329534D01*
X196549834Y-52187439D01*
X196185656Y-52115000D01*
X195814344Y-52115000D01*
X195450166Y-52187439D01*
X195107118Y-52329534D01*
X194798382Y-52535825D01*
X194535825Y-52798382D01*
X194329534Y-53107118D01*
X194187439Y-53450166D01*
X194115000Y-53814344D01*
X164419913Y-53814344D01*
X164395990Y-53756589D01*
X164233475Y-53513368D01*
X164026632Y-53306525D01*
X163783411Y-53144010D01*
X163513158Y-53032068D01*
X163226260Y-52975000D01*
X162933740Y-52975000D01*
X162646842Y-53032068D01*
X162376589Y-53144010D01*
X162133368Y-53306525D01*
X161926525Y-53513368D01*
X161810000Y-53687760D01*
X161693475Y-53513368D01*
X161486632Y-53306525D01*
X161243411Y-53144010D01*
X160973158Y-53032068D01*
X160686260Y-52975000D01*
X160393740Y-52975000D01*
X160106842Y-53032068D01*
X159836589Y-53144010D01*
X159593368Y-53306525D01*
X159386525Y-53513368D01*
X159270000Y-53687760D01*
X159153475Y-53513368D01*
X158946632Y-53306525D01*
X158703411Y-53144010D01*
X158433158Y-53032068D01*
X158146260Y-52975000D01*
X157853740Y-52975000D01*
X157566842Y-53032068D01*
X157296589Y-53144010D01*
X157053368Y-53306525D01*
X156846525Y-53513368D01*
X156721822Y-53700000D01*
X151018046Y-53700000D01*
X150980723Y-53696324D01*
X150943400Y-53700000D01*
X150943391Y-53700000D01*
X150831738Y-53710997D01*
X150715661Y-53746208D01*
X150688477Y-53754454D01*
X150556447Y-53825026D01*
X150489040Y-53880346D01*
X150440723Y-53919999D01*
X150416925Y-53948997D01*
X142240778Y-62125145D01*
X142199657Y-62125145D01*
X142761003Y-61563799D01*
X142790001Y-61540001D01*
X142884974Y-61424276D01*
X142955546Y-61292247D01*
X142999003Y-61148986D01*
X143010000Y-61037333D01*
X143010000Y-61037325D01*
X143013676Y-61000000D01*
X143010000Y-60962675D01*
X143010000Y-59953711D01*
X143053937Y-59909774D01*
X143167205Y-59740256D01*
X143245226Y-59551898D01*
X143285000Y-59351939D01*
X143285000Y-59148061D01*
X143245226Y-58948102D01*
X143167205Y-58759744D01*
X143053937Y-58590226D01*
X142909774Y-58446063D01*
X142743544Y-58334992D01*
X142851157Y-58277472D01*
X142928792Y-58028397D01*
X142080000Y-57179605D01*
X141231208Y-58028397D01*
X141308843Y-58277472D01*
X141572883Y-58403371D01*
X141631755Y-58418314D01*
X141590226Y-58446063D01*
X141446063Y-58590226D01*
X141332795Y-58759744D01*
X141254774Y-58948102D01*
X141215000Y-59148061D01*
X141215000Y-59351939D01*
X141254774Y-59551898D01*
X141332795Y-59740256D01*
X141446063Y-59909774D01*
X141490000Y-59953711D01*
X141490001Y-60685197D01*
X140460199Y-61715000D01*
X140398061Y-61715000D01*
X140198102Y-61754774D01*
X140009744Y-61832795D01*
X139840226Y-61946063D01*
X139696063Y-62090226D01*
X139582795Y-62259744D01*
X139504774Y-62448102D01*
X139465000Y-62648061D01*
X139465000Y-62851939D01*
X139504774Y-63051898D01*
X139582795Y-63240256D01*
X139696063Y-63409774D01*
X139840226Y-63553937D01*
X140009744Y-63667205D01*
X140198102Y-63745226D01*
X140398061Y-63785000D01*
X140601939Y-63785000D01*
X140801898Y-63745226D01*
X140990256Y-63667205D01*
X141159774Y-63553937D01*
X141279764Y-63433947D01*
X141285353Y-63462043D01*
X141363374Y-63650401D01*
X141476642Y-63819919D01*
X141620805Y-63964082D01*
X141790323Y-64077350D01*
X141978681Y-64155371D01*
X142178640Y-64195145D01*
X142240000Y-64195145D01*
X142240001Y-64546288D01*
X142196063Y-64590226D01*
X142082795Y-64759744D01*
X142004774Y-64948102D01*
X141965000Y-65148061D01*
X141965000Y-65351939D01*
X142004774Y-65551898D01*
X142082795Y-65740256D01*
X142196063Y-65909774D01*
X142340226Y-66053937D01*
X142509744Y-66167205D01*
X142698102Y-66245226D01*
X142898061Y-66285000D01*
X143101939Y-66285000D01*
X143301898Y-66245226D01*
X143490256Y-66167205D01*
X143659774Y-66053937D01*
X143803937Y-65909774D01*
X143917205Y-65740256D01*
X143995226Y-65551898D01*
X144035000Y-65351939D01*
X144035000Y-65148061D01*
X143995226Y-64948102D01*
X143917205Y-64759744D01*
X143803937Y-64590226D01*
X143760000Y-64546289D01*
X143760000Y-63564801D01*
X149564802Y-57760000D01*
X156527687Y-57760000D01*
X156528992Y-57773254D01*
X156579528Y-57939850D01*
X156661595Y-58093386D01*
X156772038Y-58227962D01*
X156906614Y-58338405D01*
X157060150Y-58420472D01*
X157226746Y-58471008D01*
X157400000Y-58488072D01*
X158600000Y-58488072D01*
X158773254Y-58471008D01*
X158939850Y-58420472D01*
X159093386Y-58338405D01*
X159227962Y-58227962D01*
X159338405Y-58093386D01*
X159406285Y-57966392D01*
X159593368Y-58153475D01*
X159780000Y-58278178D01*
X159780001Y-89145197D01*
X159685199Y-89240000D01*
X130314802Y-89240000D01*
X128084801Y-87010000D01*
X153962678Y-87010000D01*
X154000000Y-87013676D01*
X154037322Y-87010000D01*
X154037333Y-87010000D01*
X154148986Y-86999003D01*
X154292247Y-86955546D01*
X154424276Y-86884974D01*
X154540001Y-86790001D01*
X154563804Y-86760997D01*
X156011004Y-85313798D01*
X156040001Y-85290001D01*
X156134974Y-85174276D01*
X156205546Y-85042247D01*
X156249003Y-84898986D01*
X156260000Y-84787333D01*
X156260000Y-84787324D01*
X156263676Y-84750001D01*
X156260000Y-84712678D01*
X156260000Y-67953711D01*
X156303937Y-67909774D01*
X156417205Y-67740256D01*
X156495226Y-67551898D01*
X156535000Y-67351939D01*
X156535000Y-67148061D01*
X156495226Y-66948102D01*
X156417205Y-66759744D01*
X156303937Y-66590226D01*
X156159774Y-66446063D01*
X155990256Y-66332795D01*
X155801898Y-66254774D01*
X155601939Y-66215000D01*
X155398061Y-66215000D01*
X155198102Y-66254774D01*
X155009744Y-66332795D01*
X154840226Y-66446063D01*
X154696063Y-66590226D01*
X154582795Y-66759744D01*
X154504774Y-66948102D01*
X154465000Y-67148061D01*
X154465000Y-67351939D01*
X154504774Y-67551898D01*
X154582795Y-67740256D01*
X154696063Y-67909774D01*
X154740001Y-67953712D01*
X154740000Y-84435198D01*
X153685199Y-85490000D01*
X144314525Y-85490000D01*
X144490266Y-85417205D01*
X144659784Y-85303937D01*
X144803947Y-85159774D01*
X144917215Y-84990256D01*
X144995236Y-84801898D01*
X145035010Y-84601939D01*
X145035010Y-84398061D01*
X144995236Y-84198102D01*
X144917215Y-84009744D01*
X144803947Y-83840226D01*
X144659784Y-83696063D01*
X144490266Y-83582795D01*
X144301908Y-83504774D01*
X144101949Y-83465000D01*
X143898071Y-83465000D01*
X143698112Y-83504774D01*
X143509754Y-83582795D01*
X143340236Y-83696063D01*
X143296299Y-83740000D01*
X139564802Y-83740000D01*
X137760000Y-81935199D01*
X137760000Y-58472313D01*
X137773254Y-58471008D01*
X137939850Y-58420472D01*
X138093386Y-58338405D01*
X138227962Y-58227962D01*
X138338405Y-58093386D01*
X138406285Y-57966392D01*
X138593368Y-58153475D01*
X138836589Y-58315990D01*
X139106842Y-58427932D01*
X139393740Y-58485000D01*
X139686260Y-58485000D01*
X139973158Y-58427932D01*
X140243411Y-58315990D01*
X140486632Y-58153475D01*
X140693475Y-57946632D01*
X140809311Y-57773271D01*
X141051603Y-57848792D01*
X141900395Y-57000000D01*
X142259605Y-57000000D01*
X143108397Y-57848792D01*
X143357472Y-57771157D01*
X143483371Y-57507117D01*
X143555339Y-57223589D01*
X143570611Y-56931469D01*
X143528599Y-56641981D01*
X143430919Y-56366253D01*
X143357472Y-56228843D01*
X143108397Y-56151208D01*
X142259605Y-57000000D01*
X141900395Y-57000000D01*
X141051603Y-56151208D01*
X140809311Y-56226729D01*
X140693475Y-56053368D01*
X140486632Y-55846525D01*
X140312240Y-55730000D01*
X140486632Y-55613475D01*
X140693475Y-55406632D01*
X140810000Y-55232240D01*
X140926525Y-55406632D01*
X141133368Y-55613475D01*
X141306729Y-55729311D01*
X141231208Y-55971603D01*
X142080000Y-56820395D01*
X142928792Y-55971603D01*
X142853271Y-55729311D01*
X143026632Y-55613475D01*
X143233475Y-55406632D01*
X143395990Y-55163411D01*
X143507932Y-54893158D01*
X143565000Y-54606260D01*
X143565000Y-54313740D01*
X143507932Y-54026842D01*
X143395990Y-53756589D01*
X143233475Y-53513368D01*
X143026632Y-53306525D01*
X142783411Y-53144010D01*
X142513158Y-53032068D01*
X142226260Y-52975000D01*
X141933740Y-52975000D01*
X141646842Y-53032068D01*
X141376589Y-53144010D01*
X141133368Y-53306525D01*
X140926525Y-53513368D01*
X140810000Y-53687760D01*
X140693475Y-53513368D01*
X140486632Y-53306525D01*
X140243411Y-53144010D01*
X139973158Y-53032068D01*
X139686260Y-52975000D01*
X139393740Y-52975000D01*
X139106842Y-53032068D01*
X138836589Y-53144010D01*
X138593368Y-53306525D01*
X138386525Y-53513368D01*
X138270000Y-53687760D01*
X138153475Y-53513368D01*
X137946632Y-53306525D01*
X137703411Y-53144010D01*
X137433158Y-53032068D01*
X137146260Y-52975000D01*
X136853740Y-52975000D01*
X136566842Y-53032068D01*
X136296589Y-53144010D01*
X136053368Y-53306525D01*
X135846525Y-53513368D01*
X135721822Y-53700000D01*
X132327323Y-53700000D01*
X132290000Y-53696324D01*
X132252677Y-53700000D01*
X132252667Y-53700000D01*
X132141014Y-53710997D01*
X131997753Y-53754454D01*
X131865724Y-53825026D01*
X131749999Y-53919999D01*
X131726201Y-53948997D01*
X128989003Y-56686196D01*
X128959999Y-56709999D01*
X128919175Y-56759744D01*
X128865026Y-56825724D01*
X128851508Y-56851015D01*
X128794454Y-56957754D01*
X128750997Y-57101015D01*
X128740000Y-57212668D01*
X128740000Y-57212678D01*
X128736324Y-57250000D01*
X128740000Y-57287322D01*
X128740001Y-72546288D01*
X128696063Y-72590226D01*
X128582795Y-72759744D01*
X128504774Y-72948102D01*
X128465000Y-73148061D01*
X128465000Y-73351939D01*
X128504774Y-73551898D01*
X128582795Y-73740256D01*
X128696063Y-73909774D01*
X128840226Y-74053937D01*
X129009744Y-74167205D01*
X129198102Y-74245226D01*
X129398061Y-74285000D01*
X129601939Y-74285000D01*
X129801898Y-74245226D01*
X129990001Y-74167311D01*
X129990001Y-75796288D01*
X129946063Y-75840226D01*
X129832795Y-76009744D01*
X129754774Y-76198102D01*
X129715000Y-76398061D01*
X129715000Y-76601939D01*
X129754774Y-76801898D01*
X129832795Y-76990256D01*
X129946063Y-77159774D01*
X130090226Y-77303937D01*
X130259744Y-77417205D01*
X130435485Y-77490000D01*
X122814802Y-77490000D01*
X119510000Y-74185199D01*
X119510000Y-65535000D01*
X119601939Y-65535000D01*
X119801898Y-65495226D01*
X119990256Y-65417205D01*
X120159774Y-65303937D01*
X120303937Y-65159774D01*
X120417205Y-64990256D01*
X120495226Y-64801898D01*
X120535000Y-64601939D01*
X120535000Y-64398061D01*
X120495226Y-64198102D01*
X120417205Y-64009744D01*
X120303937Y-63840226D01*
X120159774Y-63696063D01*
X119990256Y-63582795D01*
X119801898Y-63504774D01*
X119601939Y-63465000D01*
X119539801Y-63465000D01*
X119510000Y-63435199D01*
X119510000Y-54003560D01*
X119551898Y-53995226D01*
X119740256Y-53917205D01*
X119909774Y-53803937D01*
X120053937Y-53659774D01*
X120167205Y-53490256D01*
X120245226Y-53301898D01*
X120285000Y-53101939D01*
X120285000Y-52898061D01*
X120245226Y-52698102D01*
X120167205Y-52509744D01*
X120053937Y-52340226D01*
X119909774Y-52196063D01*
X119740256Y-52082795D01*
X119551898Y-52004774D01*
X119351939Y-51965000D01*
X119148061Y-51965000D01*
X118948102Y-52004774D01*
X118759744Y-52082795D01*
X118590226Y-52196063D01*
X118446063Y-52340226D01*
X118332795Y-52509744D01*
X118254774Y-52698102D01*
X118215000Y-52898061D01*
X118215000Y-52955895D01*
X118209999Y-52959999D01*
X118176745Y-53000520D01*
X118115026Y-53075724D01*
X118075595Y-53149494D01*
X118044454Y-53207754D01*
X118000997Y-53351015D01*
X117990000Y-53462668D01*
X117990000Y-53462678D01*
X117986324Y-53500000D01*
X105822474Y-53500000D01*
X105812561Y-53450166D01*
X105670466Y-53107118D01*
X105464175Y-52798382D01*
X105201618Y-52535825D01*
X104892882Y-52329534D01*
X104549834Y-52187439D01*
X104185656Y-52115000D01*
X103814344Y-52115000D01*
X103450166Y-52187439D01*
X103107118Y-52329534D01*
X102798382Y-52535825D01*
X102535825Y-52798382D01*
X102329534Y-53107118D01*
X102187439Y-53450166D01*
X102115000Y-53814344D01*
X100681368Y-53814344D01*
X100726714Y-53351874D01*
X100914943Y-52728428D01*
X101220681Y-52153421D01*
X101632279Y-51648753D01*
X102134067Y-51233638D01*
X102706924Y-50923895D01*
X103329039Y-50731318D01*
X104007584Y-50660000D01*
X195967722Y-50660000D01*
X196648126Y-50726714D01*
G37*
X196648126Y-50726714D02*
X197271572Y-50914943D01*
X197846579Y-51220681D01*
X198351247Y-51632279D01*
X198766362Y-52134067D01*
X199076105Y-52706924D01*
X199268682Y-53329039D01*
X199340001Y-54007594D01*
X199340000Y-95967721D01*
X199273286Y-96648126D01*
X199085057Y-97271570D01*
X198779323Y-97846573D01*
X198367721Y-98351248D01*
X197865933Y-98766362D01*
X197293077Y-99076104D01*
X196670961Y-99268682D01*
X195992417Y-99340000D01*
X104032279Y-99340000D01*
X103351874Y-99273286D01*
X102728430Y-99085057D01*
X102153427Y-98779323D01*
X101648752Y-98367721D01*
X101233638Y-97865933D01*
X100923896Y-97293077D01*
X100731318Y-96670961D01*
X100660000Y-95992417D01*
X100660000Y-95814344D01*
X102115000Y-95814344D01*
X102115000Y-96185656D01*
X102187439Y-96549834D01*
X102329534Y-96892882D01*
X102535825Y-97201618D01*
X102798382Y-97464175D01*
X103107118Y-97670466D01*
X103450166Y-97812561D01*
X103814344Y-97885000D01*
X104185656Y-97885000D01*
X104549834Y-97812561D01*
X104892882Y-97670466D01*
X105201618Y-97464175D01*
X105464175Y-97201618D01*
X105670466Y-96892882D01*
X105812561Y-96549834D01*
X105885000Y-96185656D01*
X105885000Y-95814344D01*
X194115000Y-95814344D01*
X194115000Y-96185656D01*
X194187439Y-96549834D01*
X194329534Y-96892882D01*
X194535825Y-97201618D01*
X194798382Y-97464175D01*
X195107118Y-97670466D01*
X195450166Y-97812561D01*
X195814344Y-97885000D01*
X196185656Y-97885000D01*
X196549834Y-97812561D01*
X196892882Y-97670466D01*
X197201618Y-97464175D01*
X197464175Y-97201618D01*
X197670466Y-96892882D01*
X197812561Y-96549834D01*
X197885000Y-96185656D01*
X197885000Y-95814344D01*
X197812561Y-95450166D01*
X197670466Y-95107118D01*
X197464175Y-94798382D01*
X197201618Y-94535825D01*
X196892882Y-94329534D01*
X196549834Y-94187439D01*
X196185656Y-94115000D01*
X195814344Y-94115000D01*
X195450166Y-94187439D01*
X195107118Y-94329534D01*
X194798382Y-94535825D01*
X194535825Y-94798382D01*
X194329534Y-95107118D01*
X194187439Y-95450166D01*
X194115000Y-95814344D01*
X105885000Y-95814344D01*
X105812561Y-95450166D01*
X105670466Y-95107118D01*
X105464175Y-94798382D01*
X105201618Y-94535825D01*
X104892882Y-94329534D01*
X104549834Y-94187439D01*
X104185656Y-94115000D01*
X103814344Y-94115000D01*
X103450166Y-94187439D01*
X103107118Y-94329534D01*
X102798382Y-94535825D01*
X102535825Y-94798382D01*
X102329534Y-95107118D01*
X102187439Y-95450166D01*
X102115000Y-95814344D01*
X100660000Y-95814344D01*
X100660000Y-81450000D01*
X108611928Y-81450000D01*
X108624188Y-81574482D01*
X108660498Y-81694180D01*
X108719463Y-81804494D01*
X108798815Y-81901185D01*
X108895506Y-81980537D01*
X109005820Y-82039502D01*
X109125518Y-82075812D01*
X109250000Y-82088072D01*
X110714250Y-82085000D01*
X110873000Y-81926250D01*
X110873000Y-79827000D01*
X111127000Y-79827000D01*
X111127000Y-81926250D01*
X111285750Y-82085000D01*
X112750000Y-82088072D01*
X112874482Y-82075812D01*
X112994180Y-82039502D01*
X113104494Y-81980537D01*
X113201185Y-81901185D01*
X113280537Y-81804494D01*
X113339502Y-81694180D01*
X113375812Y-81574482D01*
X113388072Y-81450000D01*
X113385000Y-79985750D01*
X113226250Y-79827000D01*
X111127000Y-79827000D01*
X110873000Y-79827000D01*
X108773750Y-79827000D01*
X108615000Y-79985750D01*
X108611928Y-81450000D01*
X100660000Y-81450000D01*
X100660000Y-76750000D01*
X105861928Y-76750000D01*
X105874188Y-76874482D01*
X105910498Y-76994180D01*
X105969463Y-77104494D01*
X106048815Y-77201185D01*
X106145506Y-77280537D01*
X106255820Y-77339502D01*
X106375518Y-77375812D01*
X106500000Y-77388072D01*
X107714250Y-77385000D01*
X107873000Y-77226250D01*
X107873000Y-75127000D01*
X108127000Y-75127000D01*
X108127000Y-77226250D01*
X108285750Y-77385000D01*
X108956805Y-77386698D01*
X108895506Y-77419463D01*
X108798815Y-77498815D01*
X108719463Y-77595506D01*
X108660498Y-77705820D01*
X108624188Y-77825518D01*
X108611928Y-77950000D01*
X108615000Y-79414250D01*
X108773750Y-79573000D01*
X110873000Y-79573000D01*
X110873000Y-77473750D01*
X111127000Y-77473750D01*
X111127000Y-79573000D01*
X113226250Y-79573000D01*
X113385000Y-79414250D01*
X113388072Y-77950000D01*
X113375812Y-77825518D01*
X113339502Y-77705820D01*
X113280537Y-77595506D01*
X113201185Y-77498815D01*
X113104494Y-77419463D01*
X113045767Y-77388072D01*
X115750000Y-77388072D01*
X115874482Y-77375812D01*
X115994180Y-77339502D01*
X116104494Y-77280537D01*
X116201185Y-77201185D01*
X116280537Y-77104494D01*
X116339502Y-76994180D01*
X116375812Y-76874482D01*
X116388072Y-76750000D01*
X116388072Y-73250000D01*
X116375812Y-73125518D01*
X116339502Y-73005820D01*
X116280537Y-72895506D01*
X116201185Y-72798815D01*
X116104494Y-72719463D01*
X115994180Y-72660498D01*
X115874482Y-72624188D01*
X115750000Y-72611928D01*
X112250000Y-72611928D01*
X112125518Y-72624188D01*
X112005820Y-72660498D01*
X111895506Y-72719463D01*
X111798815Y-72798815D01*
X111719463Y-72895506D01*
X111660498Y-73005820D01*
X111624188Y-73125518D01*
X111611928Y-73250000D01*
X111611928Y-76750000D01*
X111624188Y-76874482D01*
X111660498Y-76994180D01*
X111719463Y-77104494D01*
X111798815Y-77201185D01*
X111895506Y-77280537D01*
X111957345Y-77313591D01*
X111285750Y-77315000D01*
X111127000Y-77473750D01*
X110873000Y-77473750D01*
X110714250Y-77315000D01*
X109793633Y-77313069D01*
X109854494Y-77280537D01*
X109951185Y-77201185D01*
X110030537Y-77104494D01*
X110089502Y-76994180D01*
X110125812Y-76874482D01*
X110138072Y-76750000D01*
X110135000Y-75285750D01*
X109976250Y-75127000D01*
X108127000Y-75127000D01*
X107873000Y-75127000D01*
X106023750Y-75127000D01*
X105865000Y-75285750D01*
X105861928Y-76750000D01*
X100660000Y-76750000D01*
X100660000Y-73250000D01*
X105861928Y-73250000D01*
X105865000Y-74714250D01*
X106023750Y-74873000D01*
X107873000Y-74873000D01*
X107873000Y-72773750D01*
X108127000Y-72773750D01*
X108127000Y-74873000D01*
X109976250Y-74873000D01*
X110135000Y-74714250D01*
X110138072Y-73250000D01*
X110125812Y-73125518D01*
X110089502Y-73005820D01*
X110030537Y-72895506D01*
X109951185Y-72798815D01*
X109854494Y-72719463D01*
X109744180Y-72660498D01*
X109624482Y-72624188D01*
X109500000Y-72611928D01*
X108285750Y-72615000D01*
X108127000Y-72773750D01*
X107873000Y-72773750D01*
X107714250Y-72615000D01*
X106500000Y-72611928D01*
X106375518Y-72624188D01*
X106255820Y-72660498D01*
X106145506Y-72719463D01*
X106048815Y-72798815D01*
X105969463Y-72895506D01*
X105910498Y-73005820D01*
X105874188Y-73125518D01*
X105861928Y-73250000D01*
X100660000Y-73250000D01*
X100660000Y-65245721D01*
X101929000Y-65245721D01*
X101929000Y-65666279D01*
X102011047Y-66078756D01*
X102171988Y-66467302D01*
X102405637Y-66816983D01*
X102703017Y-67114363D01*
X103052698Y-67348012D01*
X103441244Y-67508953D01*
X103853721Y-67591000D01*
X104274279Y-67591000D01*
X104686756Y-67508953D01*
X105075302Y-67348012D01*
X105424983Y-67114363D01*
X105722363Y-66816983D01*
X105956012Y-66467302D01*
X106116953Y-66078756D01*
X106199000Y-65666279D01*
X106199000Y-65245721D01*
X106116953Y-64833244D01*
X105956012Y-64444698D01*
X105722363Y-64095017D01*
X105424983Y-63797637D01*
X105075302Y-63563988D01*
X104686756Y-63403047D01*
X104274279Y-63321000D01*
X103853721Y-63321000D01*
X103441244Y-63403047D01*
X103052698Y-63563988D01*
X102703017Y-63797637D01*
X102405637Y-64095017D01*
X102171988Y-64444698D01*
X102011047Y-64833244D01*
X101929000Y-65245721D01*
X100660000Y-65245721D01*
X100660000Y-61876000D01*
X101925928Y-61876000D01*
X101938188Y-62000482D01*
X101974498Y-62120180D01*
X102033463Y-62230494D01*
X102112815Y-62327185D01*
X102209506Y-62406537D01*
X102319820Y-62465502D01*
X102439518Y-62501812D01*
X102564000Y-62514072D01*
X103778250Y-62511000D01*
X103937000Y-62352250D01*
X103937000Y-60503000D01*
X104191000Y-60503000D01*
X104191000Y-62352250D01*
X104349750Y-62511000D01*
X105564000Y-62514072D01*
X105688482Y-62501812D01*
X105808180Y-62465502D01*
X105918494Y-62406537D01*
X106015185Y-62327185D01*
X106094537Y-62230494D01*
X106153502Y-62120180D01*
X106189812Y-62000482D01*
X106202072Y-61876000D01*
X106199000Y-60661750D01*
X106040250Y-60503000D01*
X104191000Y-60503000D01*
X103937000Y-60503000D01*
X102087750Y-60503000D01*
X101929000Y-60661750D01*
X101925928Y-61876000D01*
X100660000Y-61876000D01*
X100660000Y-58876000D01*
X101925928Y-58876000D01*
X101929000Y-60090250D01*
X102087750Y-60249000D01*
X103937000Y-60249000D01*
X103937000Y-58399750D01*
X104191000Y-58399750D01*
X104191000Y-60249000D01*
X106040250Y-60249000D01*
X106199000Y-60090250D01*
X106202072Y-58876000D01*
X106189812Y-58751518D01*
X106153502Y-58631820D01*
X106094537Y-58521506D01*
X106015185Y-58424815D01*
X105918494Y-58345463D01*
X105808180Y-58286498D01*
X105688482Y-58250188D01*
X105564000Y-58237928D01*
X104349750Y-58241000D01*
X104191000Y-58399750D01*
X103937000Y-58399750D01*
X103778250Y-58241000D01*
X102564000Y-58237928D01*
X102439518Y-58250188D01*
X102319820Y-58286498D01*
X102209506Y-58345463D01*
X102112815Y-58424815D01*
X102033463Y-58521506D01*
X101974498Y-58631820D01*
X101938188Y-58751518D01*
X101925928Y-58876000D01*
X100660000Y-58876000D01*
X100660000Y-54032278D01*
X100681368Y-53814344D01*
X102115000Y-53814344D01*
X102115000Y-54185656D01*
X102187439Y-54549834D01*
X102329534Y-54892882D01*
X102535825Y-55201618D01*
X102798382Y-55464175D01*
X103107118Y-55670466D01*
X103450166Y-55812561D01*
X103814344Y-55885000D01*
X104185656Y-55885000D01*
X104549834Y-55812561D01*
X104892882Y-55670466D01*
X105201618Y-55464175D01*
X105464175Y-55201618D01*
X105670466Y-54892882D01*
X105812561Y-54549834D01*
X105885000Y-54185656D01*
X105885000Y-53814344D01*
X105822474Y-53500000D01*
X117986324Y-53500000D01*
X117990000Y-53537322D01*
X117990001Y-63712658D01*
X117990000Y-63712668D01*
X117990000Y-63712678D01*
X117986324Y-63750000D01*
X117990000Y-63787322D01*
X117990001Y-74462668D01*
X117986324Y-74500000D01*
X118000998Y-74648985D01*
X118044454Y-74792246D01*
X118115026Y-74924276D01*
X118186201Y-75011002D01*
X118210000Y-75040001D01*
X118238998Y-75063799D01*
X121936201Y-78761003D01*
X121959999Y-78790001D01*
X122075724Y-78884974D01*
X122207753Y-78955546D01*
X122351014Y-78999003D01*
X122462667Y-79010000D01*
X122462677Y-79010000D01*
X122500000Y-79013676D01*
X122537323Y-79010000D01*
X133046289Y-79010000D01*
X133090226Y-79053937D01*
X133259744Y-79167205D01*
X133448102Y-79245226D01*
X133648061Y-79285000D01*
X133851939Y-79285000D01*
X134051898Y-79245226D01*
X134240001Y-79167311D01*
X134240001Y-82185197D01*
X133710199Y-82715000D01*
X133648061Y-82715000D01*
X133448102Y-82754774D01*
X133259744Y-82832795D01*
X133090226Y-82946063D01*
X132946063Y-83090226D01*
X132832795Y-83259744D01*
X132754774Y-83448102D01*
X132715000Y-83648061D01*
X132715000Y-83851939D01*
X132754774Y-84051898D01*
X132832795Y-84240256D01*
X132946063Y-84409774D01*
X133090226Y-84553937D01*
X133259744Y-84667205D01*
X133448102Y-84745226D01*
X133648061Y-84785000D01*
X133851939Y-84785000D01*
X134051898Y-84745226D01*
X134240256Y-84667205D01*
X134409774Y-84553937D01*
X134553937Y-84409774D01*
X134667205Y-84240256D01*
X134745226Y-84051898D01*
X134785000Y-83851939D01*
X134785000Y-83789801D01*
X135511003Y-83063799D01*
X135540001Y-83040001D01*
X135573647Y-82999003D01*
X135634974Y-82924277D01*
X135705546Y-82792247D01*
X135728978Y-82715000D01*
X135749003Y-82648986D01*
X135760000Y-82537333D01*
X135760000Y-82537323D01*
X135763676Y-82500000D01*
X135760000Y-82462677D01*
X135760000Y-59453711D01*
X135803937Y-59409774D01*
X135917205Y-59240256D01*
X135995226Y-59051898D01*
X136035000Y-58851939D01*
X136035000Y-58648061D01*
X135995226Y-58448102D01*
X135962065Y-58368044D01*
X136060150Y-58420472D01*
X136226746Y-58471008D01*
X136240000Y-58472313D01*
X136240001Y-82212667D01*
X136236324Y-82250000D01*
X136250998Y-82398985D01*
X136294454Y-82542246D01*
X136365026Y-82674276D01*
X136398448Y-82715000D01*
X136460000Y-82790001D01*
X136488998Y-82813799D01*
X138686201Y-85011003D01*
X138709999Y-85040001D01*
X138738997Y-85063799D01*
X138825724Y-85134974D01*
X138957753Y-85205546D01*
X139101014Y-85249003D01*
X139250000Y-85263677D01*
X139287333Y-85260000D01*
X143296299Y-85260000D01*
X143340236Y-85303937D01*
X143509754Y-85417205D01*
X143685495Y-85490000D01*
X127203711Y-85490000D01*
X127159774Y-85446063D01*
X126990256Y-85332795D01*
X126801898Y-85254774D01*
X126601939Y-85215000D01*
X126398061Y-85215000D01*
X126198102Y-85254774D01*
X126009744Y-85332795D01*
X125840226Y-85446063D01*
X125696063Y-85590226D01*
X125582795Y-85759744D01*
X125504774Y-85948102D01*
X125465000Y-86148061D01*
X125465000Y-86351939D01*
X125504774Y-86551898D01*
X125582795Y-86740256D01*
X125696063Y-86909774D01*
X125822028Y-87035739D01*
X125754774Y-87198102D01*
X125715000Y-87398061D01*
X125715000Y-87601939D01*
X125754774Y-87801898D01*
X125832795Y-87990256D01*
X125946063Y-88159774D01*
X126090226Y-88303937D01*
X126259744Y-88417205D01*
X126448102Y-88495226D01*
X126648061Y-88535000D01*
X126851939Y-88535000D01*
X127051898Y-88495226D01*
X127240256Y-88417205D01*
X127301489Y-88376290D01*
X129165198Y-90240000D01*
X124203711Y-90240000D01*
X124159774Y-90196063D01*
X123990256Y-90082795D01*
X123801898Y-90004774D01*
X123601939Y-89965000D01*
X123398061Y-89965000D01*
X123198102Y-90004774D01*
X123009744Y-90082795D01*
X122840226Y-90196063D01*
X122696063Y-90340226D01*
X122582795Y-90509744D01*
X122504774Y-90698102D01*
X122465000Y-90898061D01*
X122465000Y-91101939D01*
X122504774Y-91301898D01*
X122582795Y-91490256D01*
X122696063Y-91659774D01*
X122840226Y-91803937D01*
X123009744Y-91917205D01*
X123198102Y-91995226D01*
X123398061Y-92035000D01*
X123601939Y-92035000D01*
X123801898Y-91995226D01*
X123990256Y-91917205D01*
X124159774Y-91803937D01*
X124203711Y-91760000D01*
X129185199Y-91760000D01*
X129965000Y-92539802D01*
X129965000Y-92601939D01*
X130004774Y-92801898D01*
X130082795Y-92990256D01*
X130196063Y-93159774D01*
X130340226Y-93303937D01*
X130509744Y-93417205D01*
X130698102Y-93495226D01*
X130898061Y-93535000D01*
X131101939Y-93535000D01*
X131301898Y-93495226D01*
X131490256Y-93417205D01*
X131659774Y-93303937D01*
X131803937Y-93159774D01*
X131917205Y-92990256D01*
X131995226Y-92801898D01*
X132035000Y-92601939D01*
X132035000Y-92398061D01*
X131995226Y-92198102D01*
X131917205Y-92009744D01*
X131803937Y-91840226D01*
X131659774Y-91696063D01*
X131490256Y-91582795D01*
X131301898Y-91504774D01*
X131101939Y-91465000D01*
X131039802Y-91465000D01*
X130334801Y-90760000D01*
X159962678Y-90760000D01*
X160000000Y-90763676D01*
X160037322Y-90760000D01*
X160037333Y-90760000D01*
X160148986Y-90749003D01*
X160292247Y-90705546D01*
X160424276Y-90634974D01*
X160540001Y-90540001D01*
X160563803Y-90510998D01*
X161051002Y-90023800D01*
X161080001Y-90000001D01*
X161174974Y-89884276D01*
X161245546Y-89752247D01*
X161289003Y-89608986D01*
X161300000Y-89497333D01*
X161300000Y-89497324D01*
X161303676Y-89460001D01*
X161300000Y-89422678D01*
X161300000Y-87250000D01*
X189561928Y-87250000D01*
X189561928Y-88750000D01*
X189578992Y-88923254D01*
X189629528Y-89089850D01*
X189711595Y-89243386D01*
X189822038Y-89377962D01*
X189956614Y-89488405D01*
X190110150Y-89570472D01*
X190276746Y-89621008D01*
X190450000Y-89638072D01*
X193550000Y-89638072D01*
X193723254Y-89621008D01*
X193889850Y-89570472D01*
X194043386Y-89488405D01*
X194177962Y-89377962D01*
X194288405Y-89243386D01*
X194370472Y-89089850D01*
X194421008Y-88923254D01*
X194438072Y-88750000D01*
X194438072Y-87250000D01*
X194421008Y-87076746D01*
X194370472Y-86910150D01*
X194288405Y-86756614D01*
X194177962Y-86622038D01*
X194043386Y-86511595D01*
X193889850Y-86429528D01*
X193723254Y-86378992D01*
X193550000Y-86361928D01*
X190450000Y-86361928D01*
X190276746Y-86378992D01*
X190110150Y-86429528D01*
X189956614Y-86511595D01*
X189822038Y-86622038D01*
X189711595Y-86756614D01*
X189629528Y-86910150D01*
X189578992Y-87076746D01*
X189561928Y-87250000D01*
X161300000Y-87250000D01*
X161300000Y-84500000D01*
X161443993Y-84500000D01*
X161449000Y-84550838D01*
X161449000Y-84601939D01*
X161458969Y-84652057D01*
X161463976Y-84702895D01*
X161478804Y-84751777D01*
X161488774Y-84801898D01*
X161508331Y-84849113D01*
X161523159Y-84897993D01*
X161547238Y-84943042D01*
X161566795Y-84990256D01*
X161595186Y-85032746D01*
X161619266Y-85077797D01*
X161651672Y-85117284D01*
X161680063Y-85159774D01*
X161716197Y-85195908D01*
X161748604Y-85235396D01*
X161788092Y-85267803D01*
X161824226Y-85303937D01*
X161866716Y-85332328D01*
X161906203Y-85364734D01*
X161951254Y-85388814D01*
X161993744Y-85417205D01*
X162040958Y-85436762D01*
X162086007Y-85460841D01*
X162134887Y-85475669D01*
X162182102Y-85495226D01*
X162232223Y-85505196D01*
X162281105Y-85520024D01*
X162331943Y-85525031D01*
X162382061Y-85535000D01*
X163949172Y-85535000D01*
X164000000Y-85540006D01*
X164050828Y-85535000D01*
X164050838Y-85535000D01*
X164202895Y-85520024D01*
X164397993Y-85460841D01*
X164577797Y-85364734D01*
X164735396Y-85235396D01*
X164767807Y-85195903D01*
X166145908Y-83817803D01*
X166185396Y-83785396D01*
X166217803Y-83745908D01*
X166314734Y-83627798D01*
X166380491Y-83504774D01*
X166410841Y-83447993D01*
X166470024Y-83252895D01*
X166485000Y-83100838D01*
X166485000Y-83100835D01*
X166490007Y-83050000D01*
X166485083Y-83000000D01*
X189557089Y-83000000D01*
X189588657Y-83320516D01*
X189682148Y-83628715D01*
X189833969Y-83912752D01*
X190038286Y-84161714D01*
X190287248Y-84366031D01*
X190571285Y-84517852D01*
X190879484Y-84611343D01*
X191119678Y-84635000D01*
X192880322Y-84635000D01*
X193120516Y-84611343D01*
X193428715Y-84517852D01*
X193712752Y-84366031D01*
X193961714Y-84161714D01*
X194166031Y-83912752D01*
X194317852Y-83628715D01*
X194411343Y-83320516D01*
X194442911Y-83000000D01*
X194411343Y-82679484D01*
X194317852Y-82371285D01*
X194166031Y-82087248D01*
X193961714Y-81838286D01*
X193712752Y-81633969D01*
X193428715Y-81482148D01*
X193120516Y-81388657D01*
X192880322Y-81365000D01*
X191119678Y-81365000D01*
X190879484Y-81388657D01*
X190571285Y-81482148D01*
X190287248Y-81633969D01*
X190038286Y-81838286D01*
X189833969Y-82087248D01*
X189682148Y-82371285D01*
X189588657Y-82679484D01*
X189557089Y-83000000D01*
X166485083Y-83000000D01*
X166485000Y-82999165D01*
X166485000Y-77818352D01*
X166520024Y-77702895D01*
X166535000Y-77550838D01*
X166535000Y-77550835D01*
X166540007Y-77500000D01*
X166535000Y-77449165D01*
X166535000Y-71698061D01*
X166525031Y-71647943D01*
X166520024Y-71597105D01*
X166505196Y-71548223D01*
X166495226Y-71498102D01*
X166475669Y-71450887D01*
X166460841Y-71402007D01*
X166436762Y-71356958D01*
X166417205Y-71309744D01*
X166388814Y-71267254D01*
X166364734Y-71222203D01*
X166332328Y-71182716D01*
X166303937Y-71140226D01*
X166267803Y-71104092D01*
X166235396Y-71064604D01*
X166195908Y-71032197D01*
X166159774Y-70996063D01*
X166117284Y-70967672D01*
X166077797Y-70935266D01*
X166032747Y-70911186D01*
X165990256Y-70882795D01*
X165943039Y-70863237D01*
X165897992Y-70839159D01*
X165849116Y-70824332D01*
X165801898Y-70804774D01*
X165751774Y-70794804D01*
X165702894Y-70779976D01*
X165652058Y-70774969D01*
X165601939Y-70765000D01*
X165550838Y-70765000D01*
X165500000Y-70759993D01*
X165449162Y-70765000D01*
X165398061Y-70765000D01*
X165347943Y-70774969D01*
X165297105Y-70779976D01*
X165248223Y-70794804D01*
X165198102Y-70804774D01*
X165150887Y-70824331D01*
X165102007Y-70839159D01*
X165056958Y-70863238D01*
X165009744Y-70882795D01*
X164967254Y-70911186D01*
X164922203Y-70935266D01*
X164882716Y-70967672D01*
X164840226Y-70996063D01*
X164804092Y-71032197D01*
X164764604Y-71064604D01*
X164732197Y-71104092D01*
X164696063Y-71140226D01*
X164667672Y-71182716D01*
X164635266Y-71222203D01*
X164611186Y-71267253D01*
X164582795Y-71309744D01*
X164563237Y-71356961D01*
X164539159Y-71402008D01*
X164524332Y-71450884D01*
X164504774Y-71498102D01*
X164494804Y-71548226D01*
X164479976Y-71597106D01*
X164474969Y-71647942D01*
X164465000Y-71698061D01*
X164465000Y-71749163D01*
X164465001Y-77223412D01*
X164454774Y-77248102D01*
X164444804Y-77298226D01*
X164429976Y-77347106D01*
X164424969Y-77397942D01*
X164415000Y-77448061D01*
X164415000Y-77499172D01*
X164409994Y-77550000D01*
X164415000Y-77600828D01*
X164415001Y-82621288D01*
X163571290Y-83465000D01*
X162382061Y-83465000D01*
X162331943Y-83474969D01*
X162281105Y-83479976D01*
X162232223Y-83494804D01*
X162182102Y-83504774D01*
X162134887Y-83524331D01*
X162086007Y-83539159D01*
X162040958Y-83563238D01*
X161993744Y-83582795D01*
X161951254Y-83611186D01*
X161906203Y-83635266D01*
X161866716Y-83667672D01*
X161824226Y-83696063D01*
X161788092Y-83732197D01*
X161748604Y-83764604D01*
X161716197Y-83804092D01*
X161680063Y-83840226D01*
X161651672Y-83882716D01*
X161619266Y-83922203D01*
X161595186Y-83967254D01*
X161566795Y-84009744D01*
X161547238Y-84056958D01*
X161523159Y-84102007D01*
X161508331Y-84150887D01*
X161488774Y-84198102D01*
X161478804Y-84248223D01*
X161463976Y-84297105D01*
X161458969Y-84347943D01*
X161449000Y-84398061D01*
X161449000Y-84449162D01*
X161443993Y-84500000D01*
X161300000Y-84500000D01*
X161300000Y-67250000D01*
X189561928Y-67250000D01*
X189561928Y-68750000D01*
X189578992Y-68923254D01*
X189629528Y-69089850D01*
X189711595Y-69243386D01*
X189822038Y-69377962D01*
X189956614Y-69488405D01*
X190110150Y-69570472D01*
X190276746Y-69621008D01*
X190450000Y-69638072D01*
X193550000Y-69638072D01*
X193723254Y-69621008D01*
X193889850Y-69570472D01*
X194043386Y-69488405D01*
X194177962Y-69377962D01*
X194288405Y-69243386D01*
X194370472Y-69089850D01*
X194421008Y-68923254D01*
X194438072Y-68750000D01*
X194438072Y-67250000D01*
X194421008Y-67076746D01*
X194370472Y-66910150D01*
X194288405Y-66756614D01*
X194177962Y-66622038D01*
X194043386Y-66511595D01*
X193889850Y-66429528D01*
X193723254Y-66378992D01*
X193550000Y-66361928D01*
X190450000Y-66361928D01*
X190276746Y-66378992D01*
X190110150Y-66429528D01*
X189956614Y-66511595D01*
X189822038Y-66622038D01*
X189711595Y-66756614D01*
X189629528Y-66910150D01*
X189578992Y-67076746D01*
X189561928Y-67250000D01*
X161300000Y-67250000D01*
X161300000Y-63000000D01*
X189557089Y-63000000D01*
X189588657Y-63320516D01*
X189682148Y-63628715D01*
X189833969Y-63912752D01*
X190038286Y-64161714D01*
X190287248Y-64366031D01*
X190571285Y-64517852D01*
X190879484Y-64611343D01*
X191119678Y-64635000D01*
X192880322Y-64635000D01*
X193120516Y-64611343D01*
X193428715Y-64517852D01*
X193712752Y-64366031D01*
X193961714Y-64161714D01*
X194166031Y-63912752D01*
X194317852Y-63628715D01*
X194411343Y-63320516D01*
X194442911Y-63000000D01*
X194411343Y-62679484D01*
X194317852Y-62371285D01*
X194166031Y-62087248D01*
X193961714Y-61838286D01*
X193712752Y-61633969D01*
X193428715Y-61482148D01*
X193120516Y-61388657D01*
X192880322Y-61365000D01*
X191119678Y-61365000D01*
X190879484Y-61388657D01*
X190571285Y-61482148D01*
X190287248Y-61633969D01*
X190038286Y-61838286D01*
X189833969Y-62087248D01*
X189682148Y-62371285D01*
X189588657Y-62679484D01*
X189557089Y-63000000D01*
X161300000Y-63000000D01*
X161300000Y-58278178D01*
X161486632Y-58153475D01*
X161611710Y-58028397D01*
X162231208Y-58028397D01*
X162308843Y-58277472D01*
X162572883Y-58403371D01*
X162856411Y-58475339D01*
X163148531Y-58490611D01*
X163438019Y-58448599D01*
X163713747Y-58350919D01*
X163851157Y-58277472D01*
X163928792Y-58028397D01*
X163080000Y-57179605D01*
X162231208Y-58028397D01*
X161611710Y-58028397D01*
X161693475Y-57946632D01*
X161809311Y-57773271D01*
X162051603Y-57848792D01*
X162900395Y-57000000D01*
X163259605Y-57000000D01*
X164108397Y-57848792D01*
X164357472Y-57771157D01*
X164483371Y-57507117D01*
X164555339Y-57223589D01*
X164570611Y-56931469D01*
X164528599Y-56641981D01*
X164430919Y-56366253D01*
X164357472Y-56228843D01*
X164108397Y-56151208D01*
X163259605Y-57000000D01*
X162900395Y-57000000D01*
X162051603Y-56151208D01*
X161809311Y-56226729D01*
X161693475Y-56053368D01*
X161486632Y-55846525D01*
X161312240Y-55730000D01*
X161486632Y-55613475D01*
X161693475Y-55406632D01*
X161810000Y-55232240D01*
X161926525Y-55406632D01*
X162133368Y-55613475D01*
X162306729Y-55729311D01*
X162231208Y-55971603D01*
X163080000Y-56820395D01*
X163928792Y-55971603D01*
X163853271Y-55729311D01*
X164026632Y-55613475D01*
X164233475Y-55406632D01*
X164395990Y-55163411D01*
X164507932Y-54893158D01*
X164565000Y-54606260D01*
X164565000Y-54313740D01*
X164507932Y-54026842D01*
X164419913Y-53814344D01*
X194115000Y-53814344D01*
X194115000Y-54185656D01*
X194187439Y-54549834D01*
X194329534Y-54892882D01*
X194535825Y-55201618D01*
X194798382Y-55464175D01*
X195107118Y-55670466D01*
X195450166Y-55812561D01*
X195814344Y-55885000D01*
X196185656Y-55885000D01*
X196549834Y-55812561D01*
X196892882Y-55670466D01*
X197201618Y-55464175D01*
X197464175Y-55201618D01*
X197670466Y-54892882D01*
X197812561Y-54549834D01*
X197885000Y-54185656D01*
X197885000Y-53814344D01*
X197812561Y-53450166D01*
X197670466Y-53107118D01*
X197464175Y-52798382D01*
X197201618Y-52535825D01*
X196892882Y-52329534D01*
X196549834Y-52187439D01*
X196185656Y-52115000D01*
X195814344Y-52115000D01*
X195450166Y-52187439D01*
X195107118Y-52329534D01*
X194798382Y-52535825D01*
X194535825Y-52798382D01*
X194329534Y-53107118D01*
X194187439Y-53450166D01*
X194115000Y-53814344D01*
X164419913Y-53814344D01*
X164395990Y-53756589D01*
X164233475Y-53513368D01*
X164026632Y-53306525D01*
X163783411Y-53144010D01*
X163513158Y-53032068D01*
X163226260Y-52975000D01*
X162933740Y-52975000D01*
X162646842Y-53032068D01*
X162376589Y-53144010D01*
X162133368Y-53306525D01*
X161926525Y-53513368D01*
X161810000Y-53687760D01*
X161693475Y-53513368D01*
X161486632Y-53306525D01*
X161243411Y-53144010D01*
X160973158Y-53032068D01*
X160686260Y-52975000D01*
X160393740Y-52975000D01*
X160106842Y-53032068D01*
X159836589Y-53144010D01*
X159593368Y-53306525D01*
X159386525Y-53513368D01*
X159270000Y-53687760D01*
X159153475Y-53513368D01*
X158946632Y-53306525D01*
X158703411Y-53144010D01*
X158433158Y-53032068D01*
X158146260Y-52975000D01*
X157853740Y-52975000D01*
X157566842Y-53032068D01*
X157296589Y-53144010D01*
X157053368Y-53306525D01*
X156846525Y-53513368D01*
X156721822Y-53700000D01*
X151018046Y-53700000D01*
X150980723Y-53696324D01*
X150943400Y-53700000D01*
X150943391Y-53700000D01*
X150831738Y-53710997D01*
X150715661Y-53746208D01*
X150688477Y-53754454D01*
X150556447Y-53825026D01*
X150489040Y-53880346D01*
X150440723Y-53919999D01*
X150416925Y-53948997D01*
X142240778Y-62125145D01*
X142199657Y-62125145D01*
X142761003Y-61563799D01*
X142790001Y-61540001D01*
X142884974Y-61424276D01*
X142955546Y-61292247D01*
X142999003Y-61148986D01*
X143010000Y-61037333D01*
X143010000Y-61037325D01*
X143013676Y-61000000D01*
X143010000Y-60962675D01*
X143010000Y-59953711D01*
X143053937Y-59909774D01*
X143167205Y-59740256D01*
X143245226Y-59551898D01*
X143285000Y-59351939D01*
X143285000Y-59148061D01*
X143245226Y-58948102D01*
X143167205Y-58759744D01*
X143053937Y-58590226D01*
X142909774Y-58446063D01*
X142743544Y-58334992D01*
X142851157Y-58277472D01*
X142928792Y-58028397D01*
X142080000Y-57179605D01*
X141231208Y-58028397D01*
X141308843Y-58277472D01*
X141572883Y-58403371D01*
X141631755Y-58418314D01*
X141590226Y-58446063D01*
X141446063Y-58590226D01*
X141332795Y-58759744D01*
X141254774Y-58948102D01*
X141215000Y-59148061D01*
X141215000Y-59351939D01*
X141254774Y-59551898D01*
X141332795Y-59740256D01*
X141446063Y-59909774D01*
X141490000Y-59953711D01*
X141490001Y-60685197D01*
X140460199Y-61715000D01*
X140398061Y-61715000D01*
X140198102Y-61754774D01*
X140009744Y-61832795D01*
X139840226Y-61946063D01*
X139696063Y-62090226D01*
X139582795Y-62259744D01*
X139504774Y-62448102D01*
X139465000Y-62648061D01*
X139465000Y-62851939D01*
X139504774Y-63051898D01*
X139582795Y-63240256D01*
X139696063Y-63409774D01*
X139840226Y-63553937D01*
X140009744Y-63667205D01*
X140198102Y-63745226D01*
X140398061Y-63785000D01*
X140601939Y-63785000D01*
X140801898Y-63745226D01*
X140990256Y-63667205D01*
X141159774Y-63553937D01*
X141279764Y-63433947D01*
X141285353Y-63462043D01*
X141363374Y-63650401D01*
X141476642Y-63819919D01*
X141620805Y-63964082D01*
X141790323Y-64077350D01*
X141978681Y-64155371D01*
X142178640Y-64195145D01*
X142240000Y-64195145D01*
X142240001Y-64546288D01*
X142196063Y-64590226D01*
X142082795Y-64759744D01*
X142004774Y-64948102D01*
X141965000Y-65148061D01*
X141965000Y-65351939D01*
X142004774Y-65551898D01*
X142082795Y-65740256D01*
X142196063Y-65909774D01*
X142340226Y-66053937D01*
X142509744Y-66167205D01*
X142698102Y-66245226D01*
X142898061Y-66285000D01*
X143101939Y-66285000D01*
X143301898Y-66245226D01*
X143490256Y-66167205D01*
X143659774Y-66053937D01*
X143803937Y-65909774D01*
X143917205Y-65740256D01*
X143995226Y-65551898D01*
X144035000Y-65351939D01*
X144035000Y-65148061D01*
X143995226Y-64948102D01*
X143917205Y-64759744D01*
X143803937Y-64590226D01*
X143760000Y-64546289D01*
X143760000Y-63564801D01*
X149564802Y-57760000D01*
X156527687Y-57760000D01*
X156528992Y-57773254D01*
X156579528Y-57939850D01*
X156661595Y-58093386D01*
X156772038Y-58227962D01*
X156906614Y-58338405D01*
X157060150Y-58420472D01*
X157226746Y-58471008D01*
X157400000Y-58488072D01*
X158600000Y-58488072D01*
X158773254Y-58471008D01*
X158939850Y-58420472D01*
X159093386Y-58338405D01*
X159227962Y-58227962D01*
X159338405Y-58093386D01*
X159406285Y-57966392D01*
X159593368Y-58153475D01*
X159780000Y-58278178D01*
X159780001Y-89145197D01*
X159685199Y-89240000D01*
X130314802Y-89240000D01*
X128084801Y-87010000D01*
X153962678Y-87010000D01*
X154000000Y-87013676D01*
X154037322Y-87010000D01*
X154037333Y-87010000D01*
X154148986Y-86999003D01*
X154292247Y-86955546D01*
X154424276Y-86884974D01*
X154540001Y-86790001D01*
X154563804Y-86760997D01*
X156011004Y-85313798D01*
X156040001Y-85290001D01*
X156134974Y-85174276D01*
X156205546Y-85042247D01*
X156249003Y-84898986D01*
X156260000Y-84787333D01*
X156260000Y-84787324D01*
X156263676Y-84750001D01*
X156260000Y-84712678D01*
X156260000Y-67953711D01*
X156303937Y-67909774D01*
X156417205Y-67740256D01*
X156495226Y-67551898D01*
X156535000Y-67351939D01*
X156535000Y-67148061D01*
X156495226Y-66948102D01*
X156417205Y-66759744D01*
X156303937Y-66590226D01*
X156159774Y-66446063D01*
X155990256Y-66332795D01*
X155801898Y-66254774D01*
X155601939Y-66215000D01*
X155398061Y-66215000D01*
X155198102Y-66254774D01*
X155009744Y-66332795D01*
X154840226Y-66446063D01*
X154696063Y-66590226D01*
X154582795Y-66759744D01*
X154504774Y-66948102D01*
X154465000Y-67148061D01*
X154465000Y-67351939D01*
X154504774Y-67551898D01*
X154582795Y-67740256D01*
X154696063Y-67909774D01*
X154740001Y-67953712D01*
X154740000Y-84435198D01*
X153685199Y-85490000D01*
X144314525Y-85490000D01*
X144490266Y-85417205D01*
X144659784Y-85303937D01*
X144803947Y-85159774D01*
X144917215Y-84990256D01*
X144995236Y-84801898D01*
X145035010Y-84601939D01*
X145035010Y-84398061D01*
X144995236Y-84198102D01*
X144917215Y-84009744D01*
X144803947Y-83840226D01*
X144659784Y-83696063D01*
X144490266Y-83582795D01*
X144301908Y-83504774D01*
X144101949Y-83465000D01*
X143898071Y-83465000D01*
X143698112Y-83504774D01*
X143509754Y-83582795D01*
X143340236Y-83696063D01*
X143296299Y-83740000D01*
X139564802Y-83740000D01*
X137760000Y-81935199D01*
X137760000Y-58472313D01*
X137773254Y-58471008D01*
X137939850Y-58420472D01*
X138093386Y-58338405D01*
X138227962Y-58227962D01*
X138338405Y-58093386D01*
X138406285Y-57966392D01*
X138593368Y-58153475D01*
X138836589Y-58315990D01*
X139106842Y-58427932D01*
X139393740Y-58485000D01*
X139686260Y-58485000D01*
X139973158Y-58427932D01*
X140243411Y-58315990D01*
X140486632Y-58153475D01*
X140693475Y-57946632D01*
X140809311Y-57773271D01*
X141051603Y-57848792D01*
X141900395Y-57000000D01*
X142259605Y-57000000D01*
X143108397Y-57848792D01*
X143357472Y-57771157D01*
X143483371Y-57507117D01*
X143555339Y-57223589D01*
X143570611Y-56931469D01*
X143528599Y-56641981D01*
X143430919Y-56366253D01*
X143357472Y-56228843D01*
X143108397Y-56151208D01*
X142259605Y-57000000D01*
X141900395Y-57000000D01*
X141051603Y-56151208D01*
X140809311Y-56226729D01*
X140693475Y-56053368D01*
X140486632Y-55846525D01*
X140312240Y-55730000D01*
X140486632Y-55613475D01*
X140693475Y-55406632D01*
X140810000Y-55232240D01*
X140926525Y-55406632D01*
X141133368Y-55613475D01*
X141306729Y-55729311D01*
X141231208Y-55971603D01*
X142080000Y-56820395D01*
X142928792Y-55971603D01*
X142853271Y-55729311D01*
X143026632Y-55613475D01*
X143233475Y-55406632D01*
X143395990Y-55163411D01*
X143507932Y-54893158D01*
X143565000Y-54606260D01*
X143565000Y-54313740D01*
X143507932Y-54026842D01*
X143395990Y-53756589D01*
X143233475Y-53513368D01*
X143026632Y-53306525D01*
X142783411Y-53144010D01*
X142513158Y-53032068D01*
X142226260Y-52975000D01*
X141933740Y-52975000D01*
X141646842Y-53032068D01*
X141376589Y-53144010D01*
X141133368Y-53306525D01*
X140926525Y-53513368D01*
X140810000Y-53687760D01*
X140693475Y-53513368D01*
X140486632Y-53306525D01*
X140243411Y-53144010D01*
X139973158Y-53032068D01*
X139686260Y-52975000D01*
X139393740Y-52975000D01*
X139106842Y-53032068D01*
X138836589Y-53144010D01*
X138593368Y-53306525D01*
X138386525Y-53513368D01*
X138270000Y-53687760D01*
X138153475Y-53513368D01*
X137946632Y-53306525D01*
X137703411Y-53144010D01*
X137433158Y-53032068D01*
X137146260Y-52975000D01*
X136853740Y-52975000D01*
X136566842Y-53032068D01*
X136296589Y-53144010D01*
X136053368Y-53306525D01*
X135846525Y-53513368D01*
X135721822Y-53700000D01*
X132327323Y-53700000D01*
X132290000Y-53696324D01*
X132252677Y-53700000D01*
X132252667Y-53700000D01*
X132141014Y-53710997D01*
X131997753Y-53754454D01*
X131865724Y-53825026D01*
X131749999Y-53919999D01*
X131726201Y-53948997D01*
X128989003Y-56686196D01*
X128959999Y-56709999D01*
X128919175Y-56759744D01*
X128865026Y-56825724D01*
X128851508Y-56851015D01*
X128794454Y-56957754D01*
X128750997Y-57101015D01*
X128740000Y-57212668D01*
X128740000Y-57212678D01*
X128736324Y-57250000D01*
X128740000Y-57287322D01*
X128740001Y-72546288D01*
X128696063Y-72590226D01*
X128582795Y-72759744D01*
X128504774Y-72948102D01*
X128465000Y-73148061D01*
X128465000Y-73351939D01*
X128504774Y-73551898D01*
X128582795Y-73740256D01*
X128696063Y-73909774D01*
X128840226Y-74053937D01*
X129009744Y-74167205D01*
X129198102Y-74245226D01*
X129398061Y-74285000D01*
X129601939Y-74285000D01*
X129801898Y-74245226D01*
X129990001Y-74167311D01*
X129990001Y-75796288D01*
X129946063Y-75840226D01*
X129832795Y-76009744D01*
X129754774Y-76198102D01*
X129715000Y-76398061D01*
X129715000Y-76601939D01*
X129754774Y-76801898D01*
X129832795Y-76990256D01*
X129946063Y-77159774D01*
X130090226Y-77303937D01*
X130259744Y-77417205D01*
X130435485Y-77490000D01*
X122814802Y-77490000D01*
X119510000Y-74185199D01*
X119510000Y-65535000D01*
X119601939Y-65535000D01*
X119801898Y-65495226D01*
X119990256Y-65417205D01*
X120159774Y-65303937D01*
X120303937Y-65159774D01*
X120417205Y-64990256D01*
X120495226Y-64801898D01*
X120535000Y-64601939D01*
X120535000Y-64398061D01*
X120495226Y-64198102D01*
X120417205Y-64009744D01*
X120303937Y-63840226D01*
X120159774Y-63696063D01*
X119990256Y-63582795D01*
X119801898Y-63504774D01*
X119601939Y-63465000D01*
X119539801Y-63465000D01*
X119510000Y-63435199D01*
X119510000Y-54003560D01*
X119551898Y-53995226D01*
X119740256Y-53917205D01*
X119909774Y-53803937D01*
X120053937Y-53659774D01*
X120167205Y-53490256D01*
X120245226Y-53301898D01*
X120285000Y-53101939D01*
X120285000Y-52898061D01*
X120245226Y-52698102D01*
X120167205Y-52509744D01*
X120053937Y-52340226D01*
X119909774Y-52196063D01*
X119740256Y-52082795D01*
X119551898Y-52004774D01*
X119351939Y-51965000D01*
X119148061Y-51965000D01*
X118948102Y-52004774D01*
X118759744Y-52082795D01*
X118590226Y-52196063D01*
X118446063Y-52340226D01*
X118332795Y-52509744D01*
X118254774Y-52698102D01*
X118215000Y-52898061D01*
X118215000Y-52955895D01*
X118209999Y-52959999D01*
X118176745Y-53000520D01*
X118115026Y-53075724D01*
X118075595Y-53149494D01*
X118044454Y-53207754D01*
X118000997Y-53351015D01*
X117990000Y-53462668D01*
X117990000Y-53462678D01*
X117986324Y-53500000D01*
X105822474Y-53500000D01*
X105812561Y-53450166D01*
X105670466Y-53107118D01*
X105464175Y-52798382D01*
X105201618Y-52535825D01*
X104892882Y-52329534D01*
X104549834Y-52187439D01*
X104185656Y-52115000D01*
X103814344Y-52115000D01*
X103450166Y-52187439D01*
X103107118Y-52329534D01*
X102798382Y-52535825D01*
X102535825Y-52798382D01*
X102329534Y-53107118D01*
X102187439Y-53450166D01*
X102115000Y-53814344D01*
X100681368Y-53814344D01*
X100726714Y-53351874D01*
X100914943Y-52728428D01*
X101220681Y-52153421D01*
X101632279Y-51648753D01*
X102134067Y-51233638D01*
X102706924Y-50923895D01*
X103329039Y-50731318D01*
X104007584Y-50660000D01*
X195967722Y-50660000D01*
X196648126Y-50726714D01*
G36*
X135846525Y-55406632D02*
G01*
X136033608Y-55593715D01*
X135906614Y-55661595D01*
X135772038Y-55772038D01*
X135661595Y-55906614D01*
X135579528Y-56060150D01*
X135528992Y-56226746D01*
X135511928Y-56400000D01*
X135511928Y-57600000D01*
X135528992Y-57773254D01*
X135561492Y-57880393D01*
X135490256Y-57832795D01*
X135301898Y-57754774D01*
X135101939Y-57715000D01*
X134898061Y-57715000D01*
X134698102Y-57754774D01*
X134509744Y-57832795D01*
X134340226Y-57946063D01*
X134196063Y-58090226D01*
X134082795Y-58259744D01*
X134004774Y-58448102D01*
X133965000Y-58648061D01*
X133965000Y-58851939D01*
X134004774Y-59051898D01*
X134082795Y-59240256D01*
X134196063Y-59409774D01*
X134240000Y-59453711D01*
X134240001Y-77332689D01*
X134051898Y-77254774D01*
X133851939Y-77215000D01*
X133648061Y-77215000D01*
X133448102Y-77254774D01*
X133259744Y-77332795D01*
X133090226Y-77446063D01*
X133046289Y-77490000D01*
X131064515Y-77490000D01*
X131240256Y-77417205D01*
X131409774Y-77303937D01*
X131553937Y-77159774D01*
X131667205Y-76990256D01*
X131745226Y-76801898D01*
X131785000Y-76601939D01*
X131785000Y-76398061D01*
X131745226Y-76198102D01*
X131667205Y-76009744D01*
X131553937Y-75840226D01*
X131510000Y-75796289D01*
X131510000Y-57953711D01*
X131553937Y-57909774D01*
X131667205Y-57740256D01*
X131745226Y-57551898D01*
X131785000Y-57351939D01*
X131785000Y-57148061D01*
X131745226Y-56948102D01*
X131667205Y-56759744D01*
X131553937Y-56590226D01*
X131409774Y-56446063D01*
X131391170Y-56433632D01*
X132604802Y-55220000D01*
X135721822Y-55220000D01*
X135846525Y-55406632D01*
G37*
X135846525Y-55406632D02*
X136033608Y-55593715D01*
X135906614Y-55661595D01*
X135772038Y-55772038D01*
X135661595Y-55906614D01*
X135579528Y-56060150D01*
X135528992Y-56226746D01*
X135511928Y-56400000D01*
X135511928Y-57600000D01*
X135528992Y-57773254D01*
X135561492Y-57880393D01*
X135490256Y-57832795D01*
X135301898Y-57754774D01*
X135101939Y-57715000D01*
X134898061Y-57715000D01*
X134698102Y-57754774D01*
X134509744Y-57832795D01*
X134340226Y-57946063D01*
X134196063Y-58090226D01*
X134082795Y-58259744D01*
X134004774Y-58448102D01*
X133965000Y-58648061D01*
X133965000Y-58851939D01*
X134004774Y-59051898D01*
X134082795Y-59240256D01*
X134196063Y-59409774D01*
X134240000Y-59453711D01*
X134240001Y-77332689D01*
X134051898Y-77254774D01*
X133851939Y-77215000D01*
X133648061Y-77215000D01*
X133448102Y-77254774D01*
X133259744Y-77332795D01*
X133090226Y-77446063D01*
X133046289Y-77490000D01*
X131064515Y-77490000D01*
X131240256Y-77417205D01*
X131409774Y-77303937D01*
X131553937Y-77159774D01*
X131667205Y-76990256D01*
X131745226Y-76801898D01*
X131785000Y-76601939D01*
X131785000Y-76398061D01*
X131745226Y-76198102D01*
X131667205Y-76009744D01*
X131553937Y-75840226D01*
X131510000Y-75796289D01*
X131510000Y-57953711D01*
X131553937Y-57909774D01*
X131667205Y-57740256D01*
X131745226Y-57551898D01*
X131785000Y-57351939D01*
X131785000Y-57148061D01*
X131745226Y-56948102D01*
X131667205Y-56759744D01*
X131553937Y-56590226D01*
X131409774Y-56446063D01*
X131391170Y-56433632D01*
X132604802Y-55220000D01*
X135721822Y-55220000D01*
X135846525Y-55406632D01*
G36*
X156846525Y-55406632D02*
G01*
X157033608Y-55593715D01*
X156906614Y-55661595D01*
X156772038Y-55772038D01*
X156661595Y-55906614D01*
X156579528Y-56060150D01*
X156528992Y-56226746D01*
X156527687Y-56240000D01*
X150275526Y-56240000D01*
X151295526Y-55220000D01*
X156721822Y-55220000D01*
X156846525Y-55406632D01*
G37*
X156846525Y-55406632D02*
X157033608Y-55593715D01*
X156906614Y-55661595D01*
X156772038Y-55772038D01*
X156661595Y-55906614D01*
X156579528Y-56060150D01*
X156528992Y-56226746D01*
X156527687Y-56240000D01*
X150275526Y-56240000D01*
X151295526Y-55220000D01*
X156721822Y-55220000D01*
X156846525Y-55406632D01*
%TD*%
M02*
