G04 #@! TF.GenerationSoftware,KiCad,Pcbnew,5.99.0-unknown-dd99b2dc2f~142~ubuntu21.10.1*
G04 #@! TF.CreationDate,2021-10-27T13:54:22+02:00*
G04 #@! TF.ProjectId,Stm32F103Board,53746d33-3246-4313-9033-426f6172642e,rev?*
G04 #@! TF.SameCoordinates,Original*
G04 #@! TF.FileFunction,Soldermask,Bot*
G04 #@! TF.FilePolarity,Negative*
%FSLAX46Y46*%
G04 Gerber Fmt 4.6, Leading zero omitted, Abs format (unit mm)*
G04 Created by KiCad (PCBNEW 5.99.0-unknown-dd99b2dc2f~142~ubuntu21.10.1) date 2021-10-27 13:54:22*
%MOMM*%
%LPD*%
G01*
G04 APERTURE LIST*
%ADD10O,1.700000X1.700000*%
%ADD11R,1.700000X1.700000*%
%ADD12C,1.879600*%
%ADD13C,2.700000*%
%ADD14C,1.700000*%
%ADD15O,1.700000X1.950000*%
%ADD16O,1.600000X1.600000*%
%ADD17R,1.600000X1.600000*%
G04 APERTURE END LIST*
D10*
X95580000Y-93250000D03*
X93040000Y-93250000D03*
D11*
X90500000Y-93250000D03*
D12*
X57120000Y-129540000D03*
X49500000Y-101600000D03*
X49500000Y-104140000D03*
X49500000Y-106680000D03*
X49500000Y-109220000D03*
X49500000Y-111760000D03*
X49500000Y-114300000D03*
X49500000Y-116840000D03*
X49500000Y-119380000D03*
X49500000Y-121920000D03*
X49500000Y-124460000D03*
X49500000Y-127000000D03*
X49500000Y-129540000D03*
X64740000Y-129540000D03*
X64740000Y-127000000D03*
X64740000Y-124460000D03*
X64740000Y-121920000D03*
X64740000Y-119380000D03*
X64740000Y-116840000D03*
X64740000Y-114300000D03*
X64740000Y-111760000D03*
X64740000Y-109220000D03*
X64740000Y-106680000D03*
X64740000Y-104140000D03*
X64740000Y-101600000D03*
X59660000Y-129540000D03*
X62200000Y-129540000D03*
X61819000Y-110363000D03*
X61819000Y-112903000D03*
X50770000Y-99060000D03*
X53310000Y-99060000D03*
X55850000Y-99060000D03*
X58390000Y-99060000D03*
X60930000Y-99060000D03*
X63470000Y-99060000D03*
D10*
X95850000Y-110080000D03*
X95850000Y-107540000D03*
D11*
X95850000Y-105000000D03*
D10*
X91190000Y-110080000D03*
X88650000Y-110080000D03*
X91190000Y-107540000D03*
X88650000Y-107540000D03*
X91190000Y-105000000D03*
D11*
X88650000Y-105000000D03*
D10*
X84000000Y-110080000D03*
X84000000Y-107540000D03*
D11*
X84000000Y-105000000D03*
D10*
X121500000Y-126780000D03*
X121500000Y-124240000D03*
X121500000Y-121700000D03*
X121500000Y-119160000D03*
X121500000Y-116620000D03*
X121500000Y-114080000D03*
X121500000Y-111540000D03*
D11*
X121500000Y-109000000D03*
D10*
X121500000Y-96780000D03*
X121500000Y-94240000D03*
X121500000Y-91700000D03*
X121500000Y-89160000D03*
X121500000Y-86620000D03*
X121500000Y-84080000D03*
X121500000Y-81540000D03*
D11*
X121500000Y-79000000D03*
D10*
X103000000Y-126780000D03*
X103000000Y-124240000D03*
X103000000Y-121700000D03*
X103000000Y-119160000D03*
X103000000Y-116620000D03*
X103000000Y-114080000D03*
X103000000Y-111540000D03*
D11*
X103000000Y-109000000D03*
D10*
X103000000Y-96780000D03*
X103000000Y-94240000D03*
X103000000Y-91700000D03*
X103000000Y-89160000D03*
X103000000Y-86620000D03*
X103000000Y-84080000D03*
X103000000Y-81540000D03*
D11*
X103000000Y-79000000D03*
D13*
X126000000Y-136000000D03*
X126000000Y-67000000D03*
X30000000Y-136000000D03*
X30000000Y-67000000D03*
D14*
X113540000Y-126780000D03*
X113540000Y-124240000D03*
X113540000Y-121700000D03*
X113540000Y-119160000D03*
X113540000Y-116620000D03*
X113540000Y-114080000D03*
X113540000Y-111540000D03*
X113540000Y-109000000D03*
X111000000Y-126780000D03*
X111000000Y-124240000D03*
X111000000Y-121700000D03*
X111000000Y-119160000D03*
X111000000Y-116620000D03*
X111000000Y-114080000D03*
X111000000Y-111540000D03*
G36*
G01*
X110150000Y-109600000D02*
X110150000Y-108400000D01*
G75*
G02*
X110400000Y-108150000I250000J0D01*
G01*
X111600000Y-108150000D01*
G75*
G02*
X111850000Y-108400000I0J-250000D01*
G01*
X111850000Y-109600000D01*
G75*
G02*
X111600000Y-109850000I-250000J0D01*
G01*
X110400000Y-109850000D01*
G75*
G02*
X110150000Y-109600000I0J250000D01*
G01*
G37*
X113540000Y-96780000D03*
X113540000Y-94240000D03*
X113540000Y-91700000D03*
X113540000Y-89160000D03*
X113540000Y-86620000D03*
X113540000Y-84080000D03*
X113540000Y-81540000D03*
X113540000Y-79000000D03*
X111000000Y-96780000D03*
X111000000Y-94240000D03*
X111000000Y-91700000D03*
X111000000Y-89160000D03*
X111000000Y-86620000D03*
X111000000Y-84080000D03*
X111000000Y-81540000D03*
G36*
G01*
X110150000Y-79600000D02*
X110150000Y-78400000D01*
G75*
G02*
X110400000Y-78150000I250000J0D01*
G01*
X111600000Y-78150000D01*
G75*
G02*
X111850000Y-78400000I0J-250000D01*
G01*
X111850000Y-79600000D01*
G75*
G02*
X111600000Y-79850000I-250000J0D01*
G01*
X110400000Y-79850000D01*
G75*
G02*
X110150000Y-79600000I0J250000D01*
G01*
G37*
D10*
X93000000Y-81920000D03*
X93000000Y-84460000D03*
D11*
X93000000Y-87000000D03*
D10*
X70920000Y-94000000D03*
X73460000Y-94000000D03*
D11*
X76000000Y-94000000D03*
D15*
X99500000Y-68000000D03*
X97000000Y-68000000D03*
X94500000Y-68000000D03*
G36*
G01*
X91150000Y-68725000D02*
X91150000Y-67275000D01*
G75*
G02*
X91400000Y-67025000I250000J0D01*
G01*
X92600000Y-67025000D01*
G75*
G02*
X92850000Y-67275000I0J-250000D01*
G01*
X92850000Y-68725000D01*
G75*
G02*
X92600000Y-68975000I-250000J0D01*
G01*
X91400000Y-68975000D01*
G75*
G02*
X91150000Y-68725000I0J250000D01*
G01*
G37*
D10*
X38060000Y-129540000D03*
X40600000Y-129540000D03*
D11*
X43140000Y-129540000D03*
D10*
X38060000Y-124460000D03*
X40600000Y-124460000D03*
D11*
X43140000Y-124460000D03*
D10*
X38060000Y-119380000D03*
X40600000Y-119380000D03*
D11*
X43140000Y-119380000D03*
D10*
X38060000Y-114300000D03*
X40600000Y-114300000D03*
D11*
X43140000Y-114300000D03*
D10*
X70920000Y-114000000D03*
X73460000Y-114000000D03*
D11*
X76000000Y-114000000D03*
D10*
X71000000Y-119380000D03*
X73540000Y-119380000D03*
D11*
X76080000Y-119380000D03*
D10*
X71080000Y-124460000D03*
X73620000Y-124460000D03*
D11*
X76160000Y-124460000D03*
D10*
X71080000Y-129540000D03*
X73620000Y-129540000D03*
D11*
X76160000Y-129540000D03*
D10*
X85000000Y-122460000D03*
X87540000Y-122460000D03*
X85000000Y-125000000D03*
X87540000Y-125000000D03*
X85000000Y-127540000D03*
D11*
X87540000Y-127540000D03*
D16*
X44440000Y-86240000D03*
X44440000Y-71000000D03*
X80000000Y-86240000D03*
X46980000Y-71000000D03*
X77460000Y-86240000D03*
X49520000Y-71000000D03*
X74920000Y-86240000D03*
X52060000Y-71000000D03*
X72380000Y-86240000D03*
X54600000Y-71000000D03*
X69840000Y-86240000D03*
X57140000Y-71000000D03*
X67300000Y-86240000D03*
X59680000Y-71000000D03*
X64760000Y-86240000D03*
X62220000Y-71000000D03*
X62220000Y-86240000D03*
X64760000Y-71000000D03*
X59680000Y-86240000D03*
X67300000Y-71000000D03*
X57140000Y-86240000D03*
X69840000Y-71000000D03*
X54600000Y-86240000D03*
X72380000Y-71000000D03*
X52060000Y-86240000D03*
X74920000Y-71000000D03*
X49520000Y-86240000D03*
X77460000Y-71000000D03*
X46980000Y-86240000D03*
D17*
X80000000Y-71000000D03*
M02*
