G04 #@! TF.GenerationSoftware,KiCad,Pcbnew,5.1.10-88a1d61d58~90~ubuntu21.04.1*
G04 #@! TF.CreationDate,2021-10-08T15:28:45+02:00*
G04 #@! TF.ProjectId,DccDecoder,44636344-6563-46f6-9465-722e6b696361,rev?*
G04 #@! TF.SameCoordinates,Original*
G04 #@! TF.FileFunction,Soldermask,Top*
G04 #@! TF.FilePolarity,Negative*
%FSLAX46Y46*%
G04 Gerber Fmt 4.6, Leading zero omitted, Abs format (unit mm)*
G04 Created by KiCad (PCBNEW 5.1.10-88a1d61d58~90~ubuntu21.04.1) date 2021-10-08 15:28:45*
%MOMM*%
%LPD*%
G01*
G04 APERTURE LIST*
%ADD10O,1.000000X1.000000*%
%ADD11R,1.000000X1.000000*%
%ADD12R,0.900000X0.800000*%
%ADD13C,0.100000*%
%ADD14O,1.700000X1.700000*%
%ADD15R,1.700000X1.700000*%
%ADD16R,0.800000X0.900000*%
%ADD17C,4.700000*%
%ADD18R,2.000000X2.400000*%
%ADD19C,2.000000*%
%ADD20R,2.400000X2.400000*%
%ADD21C,2.400000*%
%ADD22O,1.700000X1.950000*%
G04 APERTURE END LIST*
D10*
X85960000Y-45270000D03*
X85960000Y-44000000D03*
X87230000Y-45270000D03*
X87230000Y-44000000D03*
X88500000Y-45270000D03*
X88500000Y-44000000D03*
X89770000Y-45270000D03*
X89770000Y-44000000D03*
X91040000Y-45270000D03*
D11*
X91040000Y-44000000D03*
G36*
G01*
X47100000Y-52549999D02*
X47100000Y-53450001D01*
G75*
G02*
X46850001Y-53700000I-249999J0D01*
G01*
X46324999Y-53700000D01*
G75*
G02*
X46075000Y-53450001I0J249999D01*
G01*
X46075000Y-52549999D01*
G75*
G02*
X46324999Y-52300000I249999J0D01*
G01*
X46850001Y-52300000D01*
G75*
G02*
X47100000Y-52549999I0J-249999D01*
G01*
G37*
G36*
G01*
X48925000Y-52549999D02*
X48925000Y-53450001D01*
G75*
G02*
X48675001Y-53700000I-249999J0D01*
G01*
X48149999Y-53700000D01*
G75*
G02*
X47900000Y-53450001I0J249999D01*
G01*
X47900000Y-52549999D01*
G75*
G02*
X48149999Y-52300000I249999J0D01*
G01*
X48675001Y-52300000D01*
G75*
G02*
X48925000Y-52549999I0J-249999D01*
G01*
G37*
G36*
G01*
X65456250Y-46050000D02*
X64543750Y-46050000D01*
G75*
G02*
X64300000Y-45806250I0J243750D01*
G01*
X64300000Y-45318750D01*
G75*
G02*
X64543750Y-45075000I243750J0D01*
G01*
X65456250Y-45075000D01*
G75*
G02*
X65700000Y-45318750I0J-243750D01*
G01*
X65700000Y-45806250D01*
G75*
G02*
X65456250Y-46050000I-243750J0D01*
G01*
G37*
G36*
G01*
X65456250Y-47925000D02*
X64543750Y-47925000D01*
G75*
G02*
X64300000Y-47681250I0J243750D01*
G01*
X64300000Y-47193750D01*
G75*
G02*
X64543750Y-46950000I243750J0D01*
G01*
X65456250Y-46950000D01*
G75*
G02*
X65700000Y-47193750I0J-243750D01*
G01*
X65700000Y-47681250D01*
G75*
G02*
X65456250Y-47925000I-243750J0D01*
G01*
G37*
G36*
G01*
X77549999Y-65900000D02*
X78450001Y-65900000D01*
G75*
G02*
X78700000Y-66149999I0J-249999D01*
G01*
X78700000Y-66675001D01*
G75*
G02*
X78450001Y-66925000I-249999J0D01*
G01*
X77549999Y-66925000D01*
G75*
G02*
X77300000Y-66675001I0J249999D01*
G01*
X77300000Y-66149999D01*
G75*
G02*
X77549999Y-65900000I249999J0D01*
G01*
G37*
G36*
G01*
X77549999Y-64075000D02*
X78450001Y-64075000D01*
G75*
G02*
X78700000Y-64324999I0J-249999D01*
G01*
X78700000Y-64850001D01*
G75*
G02*
X78450001Y-65100000I-249999J0D01*
G01*
X77549999Y-65100000D01*
G75*
G02*
X77300000Y-64850001I0J249999D01*
G01*
X77300000Y-64324999D01*
G75*
G02*
X77549999Y-64075000I249999J0D01*
G01*
G37*
G36*
G01*
X69450001Y-65100000D02*
X68549999Y-65100000D01*
G75*
G02*
X68300000Y-64850001I0J249999D01*
G01*
X68300000Y-64324999D01*
G75*
G02*
X68549999Y-64075000I249999J0D01*
G01*
X69450001Y-64075000D01*
G75*
G02*
X69700000Y-64324999I0J-249999D01*
G01*
X69700000Y-64850001D01*
G75*
G02*
X69450001Y-65100000I-249999J0D01*
G01*
G37*
G36*
G01*
X69450001Y-66925000D02*
X68549999Y-66925000D01*
G75*
G02*
X68300000Y-66675001I0J249999D01*
G01*
X68300000Y-66149999D01*
G75*
G02*
X68549999Y-65900000I249999J0D01*
G01*
X69450001Y-65900000D01*
G75*
G02*
X69700000Y-66149999I0J-249999D01*
G01*
X69700000Y-66675001D01*
G75*
G02*
X69450001Y-66925000I-249999J0D01*
G01*
G37*
G36*
G01*
X77049999Y-46812500D02*
X77950001Y-46812500D01*
G75*
G02*
X78200000Y-47062499I0J-249999D01*
G01*
X78200000Y-47587501D01*
G75*
G02*
X77950001Y-47837500I-249999J0D01*
G01*
X77049999Y-47837500D01*
G75*
G02*
X76800000Y-47587501I0J249999D01*
G01*
X76800000Y-47062499D01*
G75*
G02*
X77049999Y-46812500I249999J0D01*
G01*
G37*
G36*
G01*
X77049999Y-44987500D02*
X77950001Y-44987500D01*
G75*
G02*
X78200000Y-45237499I0J-249999D01*
G01*
X78200000Y-45762501D01*
G75*
G02*
X77950001Y-46012500I-249999J0D01*
G01*
X77049999Y-46012500D01*
G75*
G02*
X76800000Y-45762501I0J249999D01*
G01*
X76800000Y-45237499D01*
G75*
G02*
X77049999Y-44987500I249999J0D01*
G01*
G37*
G36*
G01*
X78487500Y-53950001D02*
X78487500Y-53049999D01*
G75*
G02*
X78737499Y-52800000I249999J0D01*
G01*
X79262501Y-52800000D01*
G75*
G02*
X79512500Y-53049999I0J-249999D01*
G01*
X79512500Y-53950001D01*
G75*
G02*
X79262501Y-54200000I-249999J0D01*
G01*
X78737499Y-54200000D01*
G75*
G02*
X78487500Y-53950001I0J249999D01*
G01*
G37*
G36*
G01*
X76662500Y-53950001D02*
X76662500Y-53049999D01*
G75*
G02*
X76912499Y-52800000I249999J0D01*
G01*
X77437501Y-52800000D01*
G75*
G02*
X77687500Y-53049999I0J-249999D01*
G01*
X77687500Y-53950001D01*
G75*
G02*
X77437501Y-54200000I-249999J0D01*
G01*
X76912499Y-54200000D01*
G75*
G02*
X76662500Y-53950001I0J249999D01*
G01*
G37*
G36*
G01*
X78487500Y-55950001D02*
X78487500Y-55049999D01*
G75*
G02*
X78737499Y-54800000I249999J0D01*
G01*
X79262501Y-54800000D01*
G75*
G02*
X79512500Y-55049999I0J-249999D01*
G01*
X79512500Y-55950001D01*
G75*
G02*
X79262501Y-56200000I-249999J0D01*
G01*
X78737499Y-56200000D01*
G75*
G02*
X78487500Y-55950001I0J249999D01*
G01*
G37*
G36*
G01*
X76662500Y-55950001D02*
X76662500Y-55049999D01*
G75*
G02*
X76912499Y-54800000I249999J0D01*
G01*
X77437501Y-54800000D01*
G75*
G02*
X77687500Y-55049999I0J-249999D01*
G01*
X77687500Y-55950001D01*
G75*
G02*
X77437501Y-56200000I-249999J0D01*
G01*
X76912499Y-56200000D01*
G75*
G02*
X76662500Y-55950001I0J249999D01*
G01*
G37*
G36*
G01*
X47687500Y-62049999D02*
X47687500Y-62950001D01*
G75*
G02*
X47437501Y-63200000I-249999J0D01*
G01*
X46912499Y-63200000D01*
G75*
G02*
X46662500Y-62950001I0J249999D01*
G01*
X46662500Y-62049999D01*
G75*
G02*
X46912499Y-61800000I249999J0D01*
G01*
X47437501Y-61800000D01*
G75*
G02*
X47687500Y-62049999I0J-249999D01*
G01*
G37*
G36*
G01*
X49512500Y-62049999D02*
X49512500Y-62950001D01*
G75*
G02*
X49262501Y-63200000I-249999J0D01*
G01*
X48737499Y-63200000D01*
G75*
G02*
X48487500Y-62950001I0J249999D01*
G01*
X48487500Y-62049999D01*
G75*
G02*
X48737499Y-61800000I249999J0D01*
G01*
X49262501Y-61800000D01*
G75*
G02*
X49512500Y-62049999I0J-249999D01*
G01*
G37*
G36*
G01*
X36012500Y-62549999D02*
X36012500Y-63450001D01*
G75*
G02*
X35762501Y-63700000I-249999J0D01*
G01*
X35237499Y-63700000D01*
G75*
G02*
X34987500Y-63450001I0J249999D01*
G01*
X34987500Y-62549999D01*
G75*
G02*
X35237499Y-62300000I249999J0D01*
G01*
X35762501Y-62300000D01*
G75*
G02*
X36012500Y-62549999I0J-249999D01*
G01*
G37*
G36*
G01*
X37837500Y-62549999D02*
X37837500Y-63450001D01*
G75*
G02*
X37587501Y-63700000I-249999J0D01*
G01*
X37062499Y-63700000D01*
G75*
G02*
X36812500Y-63450001I0J249999D01*
G01*
X36812500Y-62549999D01*
G75*
G02*
X37062499Y-62300000I249999J0D01*
G01*
X37587501Y-62300000D01*
G75*
G02*
X37837500Y-62549999I0J-249999D01*
G01*
G37*
G36*
G01*
X47187500Y-58049999D02*
X47187500Y-58950001D01*
G75*
G02*
X46937501Y-59200000I-249999J0D01*
G01*
X46412499Y-59200000D01*
G75*
G02*
X46162500Y-58950001I0J249999D01*
G01*
X46162500Y-58049999D01*
G75*
G02*
X46412499Y-57800000I249999J0D01*
G01*
X46937501Y-57800000D01*
G75*
G02*
X47187500Y-58049999I0J-249999D01*
G01*
G37*
G36*
G01*
X49012500Y-58049999D02*
X49012500Y-58950001D01*
G75*
G02*
X48762501Y-59200000I-249999J0D01*
G01*
X48237499Y-59200000D01*
G75*
G02*
X47987500Y-58950001I0J249999D01*
G01*
X47987500Y-58049999D01*
G75*
G02*
X48237499Y-57800000I249999J0D01*
G01*
X48762501Y-57800000D01*
G75*
G02*
X49012500Y-58049999I0J-249999D01*
G01*
G37*
G36*
G01*
X36487500Y-58950001D02*
X36487500Y-58049999D01*
G75*
G02*
X36737499Y-57800000I249999J0D01*
G01*
X37262501Y-57800000D01*
G75*
G02*
X37512500Y-58049999I0J-249999D01*
G01*
X37512500Y-58950001D01*
G75*
G02*
X37262501Y-59200000I-249999J0D01*
G01*
X36737499Y-59200000D01*
G75*
G02*
X36487500Y-58950001I0J249999D01*
G01*
G37*
G36*
G01*
X34662500Y-58950001D02*
X34662500Y-58049999D01*
G75*
G02*
X34912499Y-57800000I249999J0D01*
G01*
X35437501Y-57800000D01*
G75*
G02*
X35687500Y-58049999I0J-249999D01*
G01*
X35687500Y-58950001D01*
G75*
G02*
X35437501Y-59200000I-249999J0D01*
G01*
X34912499Y-59200000D01*
G75*
G02*
X34662500Y-58950001I0J249999D01*
G01*
G37*
G36*
G01*
X36487500Y-51450001D02*
X36487500Y-50549999D01*
G75*
G02*
X36737499Y-50300000I249999J0D01*
G01*
X37262501Y-50300000D01*
G75*
G02*
X37512500Y-50549999I0J-249999D01*
G01*
X37512500Y-51450001D01*
G75*
G02*
X37262501Y-51700000I-249999J0D01*
G01*
X36737499Y-51700000D01*
G75*
G02*
X36487500Y-51450001I0J249999D01*
G01*
G37*
G36*
G01*
X34662500Y-51450001D02*
X34662500Y-50549999D01*
G75*
G02*
X34912499Y-50300000I249999J0D01*
G01*
X35437501Y-50300000D01*
G75*
G02*
X35687500Y-50549999I0J-249999D01*
G01*
X35687500Y-51450001D01*
G75*
G02*
X35437501Y-51700000I-249999J0D01*
G01*
X34912499Y-51700000D01*
G75*
G02*
X34662500Y-51450001I0J249999D01*
G01*
G37*
G36*
G01*
X101400000Y-57450001D02*
X101400000Y-56549999D01*
G75*
G02*
X101649999Y-56300000I249999J0D01*
G01*
X102175001Y-56300000D01*
G75*
G02*
X102425000Y-56549999I0J-249999D01*
G01*
X102425000Y-57450001D01*
G75*
G02*
X102175001Y-57700000I-249999J0D01*
G01*
X101649999Y-57700000D01*
G75*
G02*
X101400000Y-57450001I0J249999D01*
G01*
G37*
G36*
G01*
X99575000Y-57450001D02*
X99575000Y-56549999D01*
G75*
G02*
X99824999Y-56300000I249999J0D01*
G01*
X100350001Y-56300000D01*
G75*
G02*
X100600000Y-56549999I0J-249999D01*
G01*
X100600000Y-57450001D01*
G75*
G02*
X100350001Y-57700000I-249999J0D01*
G01*
X99824999Y-57700000D01*
G75*
G02*
X99575000Y-57450001I0J249999D01*
G01*
G37*
G36*
G01*
X99575000Y-55450001D02*
X99575000Y-54549999D01*
G75*
G02*
X99824999Y-54300000I249999J0D01*
G01*
X100350001Y-54300000D01*
G75*
G02*
X100600000Y-54549999I0J-249999D01*
G01*
X100600000Y-55450001D01*
G75*
G02*
X100350001Y-55700000I-249999J0D01*
G01*
X99824999Y-55700000D01*
G75*
G02*
X99575000Y-55450001I0J249999D01*
G01*
G37*
G36*
G01*
X101400000Y-55450001D02*
X101400000Y-54549999D01*
G75*
G02*
X101649999Y-54300000I249999J0D01*
G01*
X102175001Y-54300000D01*
G75*
G02*
X102425000Y-54549999I0J-249999D01*
G01*
X102425000Y-55450001D01*
G75*
G02*
X102175001Y-55700000I-249999J0D01*
G01*
X101649999Y-55700000D01*
G75*
G02*
X101400000Y-55450001I0J249999D01*
G01*
G37*
G36*
G01*
X100549999Y-61900000D02*
X101450001Y-61900000D01*
G75*
G02*
X101700000Y-62149999I0J-249999D01*
G01*
X101700000Y-62675001D01*
G75*
G02*
X101450001Y-62925000I-249999J0D01*
G01*
X100549999Y-62925000D01*
G75*
G02*
X100300000Y-62675001I0J249999D01*
G01*
X100300000Y-62149999D01*
G75*
G02*
X100549999Y-61900000I249999J0D01*
G01*
G37*
G36*
G01*
X100549999Y-60075000D02*
X101450001Y-60075000D01*
G75*
G02*
X101700000Y-60324999I0J-249999D01*
G01*
X101700000Y-60850001D01*
G75*
G02*
X101450001Y-61100000I-249999J0D01*
G01*
X100549999Y-61100000D01*
G75*
G02*
X100300000Y-60850001I0J249999D01*
G01*
X100300000Y-60324999D01*
G75*
G02*
X100549999Y-60075000I249999J0D01*
G01*
G37*
G36*
G01*
X77687500Y-57549999D02*
X77687500Y-58450001D01*
G75*
G02*
X77437501Y-58700000I-249999J0D01*
G01*
X76912499Y-58700000D01*
G75*
G02*
X76662500Y-58450001I0J249999D01*
G01*
X76662500Y-57549999D01*
G75*
G02*
X76912499Y-57300000I249999J0D01*
G01*
X77437501Y-57300000D01*
G75*
G02*
X77687500Y-57549999I0J-249999D01*
G01*
G37*
G36*
G01*
X79512500Y-57549999D02*
X79512500Y-58450001D01*
G75*
G02*
X79262501Y-58700000I-249999J0D01*
G01*
X78737499Y-58700000D01*
G75*
G02*
X78487500Y-58450001I0J249999D01*
G01*
X78487500Y-57549999D01*
G75*
G02*
X78737499Y-57300000I249999J0D01*
G01*
X79262501Y-57300000D01*
G75*
G02*
X79512500Y-57549999I0J-249999D01*
G01*
G37*
G36*
G01*
X64549999Y-50312500D02*
X65450001Y-50312500D01*
G75*
G02*
X65700000Y-50562499I0J-249999D01*
G01*
X65700000Y-51087501D01*
G75*
G02*
X65450001Y-51337500I-249999J0D01*
G01*
X64549999Y-51337500D01*
G75*
G02*
X64300000Y-51087501I0J249999D01*
G01*
X64300000Y-50562499D01*
G75*
G02*
X64549999Y-50312500I249999J0D01*
G01*
G37*
G36*
G01*
X64549999Y-48487500D02*
X65450001Y-48487500D01*
G75*
G02*
X65700000Y-48737499I0J-249999D01*
G01*
X65700000Y-49262501D01*
G75*
G02*
X65450001Y-49512500I-249999J0D01*
G01*
X64549999Y-49512500D01*
G75*
G02*
X64300000Y-49262501I0J249999D01*
G01*
X64300000Y-48737499D01*
G75*
G02*
X64549999Y-48487500I249999J0D01*
G01*
G37*
G36*
G01*
X60549999Y-50312500D02*
X61450001Y-50312500D01*
G75*
G02*
X61700000Y-50562499I0J-249999D01*
G01*
X61700000Y-51087501D01*
G75*
G02*
X61450001Y-51337500I-249999J0D01*
G01*
X60549999Y-51337500D01*
G75*
G02*
X60300000Y-51087501I0J249999D01*
G01*
X60300000Y-50562499D01*
G75*
G02*
X60549999Y-50312500I249999J0D01*
G01*
G37*
G36*
G01*
X60549999Y-48487500D02*
X61450001Y-48487500D01*
G75*
G02*
X61700000Y-48737499I0J-249999D01*
G01*
X61700000Y-49262501D01*
G75*
G02*
X61450001Y-49512500I-249999J0D01*
G01*
X60549999Y-49512500D01*
G75*
G02*
X60300000Y-49262501I0J249999D01*
G01*
X60300000Y-48737499D01*
G75*
G02*
X60549999Y-48487500I249999J0D01*
G01*
G37*
G36*
G01*
X56549999Y-50400000D02*
X57450001Y-50400000D01*
G75*
G02*
X57700000Y-50649999I0J-249999D01*
G01*
X57700000Y-51175001D01*
G75*
G02*
X57450001Y-51425000I-249999J0D01*
G01*
X56549999Y-51425000D01*
G75*
G02*
X56300000Y-51175001I0J249999D01*
G01*
X56300000Y-50649999D01*
G75*
G02*
X56549999Y-50400000I249999J0D01*
G01*
G37*
G36*
G01*
X56549999Y-48575000D02*
X57450001Y-48575000D01*
G75*
G02*
X57700000Y-48824999I0J-249999D01*
G01*
X57700000Y-49350001D01*
G75*
G02*
X57450001Y-49600000I-249999J0D01*
G01*
X56549999Y-49600000D01*
G75*
G02*
X56300000Y-49350001I0J249999D01*
G01*
X56300000Y-48824999D01*
G75*
G02*
X56549999Y-48575000I249999J0D01*
G01*
G37*
G36*
G01*
X97625000Y-62881250D02*
X97625000Y-62118750D01*
G75*
G02*
X97843750Y-61900000I218750J0D01*
G01*
X98281250Y-61900000D01*
G75*
G02*
X98500000Y-62118750I0J-218750D01*
G01*
X98500000Y-62881250D01*
G75*
G02*
X98281250Y-63100000I-218750J0D01*
G01*
X97843750Y-63100000D01*
G75*
G02*
X97625000Y-62881250I0J218750D01*
G01*
G37*
G36*
G01*
X95500000Y-62881250D02*
X95500000Y-62118750D01*
G75*
G02*
X95718750Y-61900000I218750J0D01*
G01*
X96156250Y-61900000D01*
G75*
G02*
X96375000Y-62118750I0J-218750D01*
G01*
X96375000Y-62881250D01*
G75*
G02*
X96156250Y-63100000I-218750J0D01*
G01*
X95718750Y-63100000D01*
G75*
G02*
X95500000Y-62881250I0J218750D01*
G01*
G37*
G36*
G01*
X77956250Y-42487500D02*
X77043750Y-42487500D01*
G75*
G02*
X76800000Y-42243750I0J243750D01*
G01*
X76800000Y-41756250D01*
G75*
G02*
X77043750Y-41512500I243750J0D01*
G01*
X77956250Y-41512500D01*
G75*
G02*
X78200000Y-41756250I0J-243750D01*
G01*
X78200000Y-42243750D01*
G75*
G02*
X77956250Y-42487500I-243750J0D01*
G01*
G37*
G36*
G01*
X77956250Y-44362500D02*
X77043750Y-44362500D01*
G75*
G02*
X76800000Y-44118750I0J243750D01*
G01*
X76800000Y-43631250D01*
G75*
G02*
X77043750Y-43387500I243750J0D01*
G01*
X77956250Y-43387500D01*
G75*
G02*
X78200000Y-43631250I0J-243750D01*
G01*
X78200000Y-44118750D01*
G75*
G02*
X77956250Y-44362500I-243750J0D01*
G01*
G37*
G36*
G01*
X61456250Y-46050000D02*
X60543750Y-46050000D01*
G75*
G02*
X60300000Y-45806250I0J243750D01*
G01*
X60300000Y-45318750D01*
G75*
G02*
X60543750Y-45075000I243750J0D01*
G01*
X61456250Y-45075000D01*
G75*
G02*
X61700000Y-45318750I0J-243750D01*
G01*
X61700000Y-45806250D01*
G75*
G02*
X61456250Y-46050000I-243750J0D01*
G01*
G37*
G36*
G01*
X61456250Y-47925000D02*
X60543750Y-47925000D01*
G75*
G02*
X60300000Y-47681250I0J243750D01*
G01*
X60300000Y-47193750D01*
G75*
G02*
X60543750Y-46950000I243750J0D01*
G01*
X61456250Y-46950000D01*
G75*
G02*
X61700000Y-47193750I0J-243750D01*
G01*
X61700000Y-47681250D01*
G75*
G02*
X61456250Y-47925000I-243750J0D01*
G01*
G37*
G36*
G01*
X57456250Y-46050000D02*
X56543750Y-46050000D01*
G75*
G02*
X56300000Y-45806250I0J243750D01*
G01*
X56300000Y-45318750D01*
G75*
G02*
X56543750Y-45075000I243750J0D01*
G01*
X57456250Y-45075000D01*
G75*
G02*
X57700000Y-45318750I0J-243750D01*
G01*
X57700000Y-45806250D01*
G75*
G02*
X57456250Y-46050000I-243750J0D01*
G01*
G37*
G36*
G01*
X57456250Y-47925000D02*
X56543750Y-47925000D01*
G75*
G02*
X56300000Y-47681250I0J243750D01*
G01*
X56300000Y-47193750D01*
G75*
G02*
X56543750Y-46950000I243750J0D01*
G01*
X57456250Y-46950000D01*
G75*
G02*
X57700000Y-47193750I0J-243750D01*
G01*
X57700000Y-47681250D01*
G75*
G02*
X57456250Y-47925000I-243750J0D01*
G01*
G37*
G36*
G01*
X95525000Y-65650000D02*
X96475000Y-65650000D01*
G75*
G02*
X96725000Y-65900000I0J-250000D01*
G01*
X96725000Y-66400000D01*
G75*
G02*
X96475000Y-66650000I-250000J0D01*
G01*
X95525000Y-66650000D01*
G75*
G02*
X95275000Y-66400000I0J250000D01*
G01*
X95275000Y-65900000D01*
G75*
G02*
X95525000Y-65650000I250000J0D01*
G01*
G37*
G36*
G01*
X95525000Y-63750000D02*
X96475000Y-63750000D01*
G75*
G02*
X96725000Y-64000000I0J-250000D01*
G01*
X96725000Y-64500000D01*
G75*
G02*
X96475000Y-64750000I-250000J0D01*
G01*
X95525000Y-64750000D01*
G75*
G02*
X95275000Y-64500000I0J250000D01*
G01*
X95275000Y-64000000D01*
G75*
G02*
X95525000Y-63750000I250000J0D01*
G01*
G37*
G36*
G01*
X97525000Y-65650000D02*
X98475000Y-65650000D01*
G75*
G02*
X98725000Y-65900000I0J-250000D01*
G01*
X98725000Y-66400000D01*
G75*
G02*
X98475000Y-66650000I-250000J0D01*
G01*
X97525000Y-66650000D01*
G75*
G02*
X97275000Y-66400000I0J250000D01*
G01*
X97275000Y-65900000D01*
G75*
G02*
X97525000Y-65650000I250000J0D01*
G01*
G37*
G36*
G01*
X97525000Y-63750000D02*
X98475000Y-63750000D01*
G75*
G02*
X98725000Y-64000000I0J-250000D01*
G01*
X98725000Y-64500000D01*
G75*
G02*
X98475000Y-64750000I-250000J0D01*
G01*
X97525000Y-64750000D01*
G75*
G02*
X97275000Y-64500000I0J250000D01*
G01*
X97275000Y-64000000D01*
G75*
G02*
X97525000Y-63750000I250000J0D01*
G01*
G37*
G36*
G01*
X96475000Y-59050000D02*
X95525000Y-59050000D01*
G75*
G02*
X95275000Y-58800000I0J250000D01*
G01*
X95275000Y-58300000D01*
G75*
G02*
X95525000Y-58050000I250000J0D01*
G01*
X96475000Y-58050000D01*
G75*
G02*
X96725000Y-58300000I0J-250000D01*
G01*
X96725000Y-58800000D01*
G75*
G02*
X96475000Y-59050000I-250000J0D01*
G01*
G37*
G36*
G01*
X96475000Y-60950000D02*
X95525000Y-60950000D01*
G75*
G02*
X95275000Y-60700000I0J250000D01*
G01*
X95275000Y-60200000D01*
G75*
G02*
X95525000Y-59950000I250000J0D01*
G01*
X96475000Y-59950000D01*
G75*
G02*
X96725000Y-60200000I0J-250000D01*
G01*
X96725000Y-60700000D01*
G75*
G02*
X96475000Y-60950000I-250000J0D01*
G01*
G37*
G36*
G01*
X92867000Y-65206000D02*
X91917000Y-65206000D01*
G75*
G02*
X91667000Y-64956000I0J250000D01*
G01*
X91667000Y-64456000D01*
G75*
G02*
X91917000Y-64206000I250000J0D01*
G01*
X92867000Y-64206000D01*
G75*
G02*
X93117000Y-64456000I0J-250000D01*
G01*
X93117000Y-64956000D01*
G75*
G02*
X92867000Y-65206000I-250000J0D01*
G01*
G37*
G36*
G01*
X92867000Y-67106000D02*
X91917000Y-67106000D01*
G75*
G02*
X91667000Y-66856000I0J250000D01*
G01*
X91667000Y-66356000D01*
G75*
G02*
X91917000Y-66106000I250000J0D01*
G01*
X92867000Y-66106000D01*
G75*
G02*
X93117000Y-66356000I0J-250000D01*
G01*
X93117000Y-66856000D01*
G75*
G02*
X92867000Y-67106000I-250000J0D01*
G01*
G37*
G36*
G01*
X83596000Y-65206000D02*
X82646000Y-65206000D01*
G75*
G02*
X82396000Y-64956000I0J250000D01*
G01*
X82396000Y-64456000D01*
G75*
G02*
X82646000Y-64206000I250000J0D01*
G01*
X83596000Y-64206000D01*
G75*
G02*
X83846000Y-64456000I0J-250000D01*
G01*
X83846000Y-64956000D01*
G75*
G02*
X83596000Y-65206000I-250000J0D01*
G01*
G37*
G36*
G01*
X83596000Y-67106000D02*
X82646000Y-67106000D01*
G75*
G02*
X82396000Y-66856000I0J250000D01*
G01*
X82396000Y-66356000D01*
G75*
G02*
X82646000Y-66106000I250000J0D01*
G01*
X83596000Y-66106000D01*
G75*
G02*
X83846000Y-66356000I0J-250000D01*
G01*
X83846000Y-66856000D01*
G75*
G02*
X83596000Y-67106000I-250000J0D01*
G01*
G37*
G36*
G01*
X98475000Y-59050000D02*
X97525000Y-59050000D01*
G75*
G02*
X97275000Y-58800000I0J250000D01*
G01*
X97275000Y-58300000D01*
G75*
G02*
X97525000Y-58050000I250000J0D01*
G01*
X98475000Y-58050000D01*
G75*
G02*
X98725000Y-58300000I0J-250000D01*
G01*
X98725000Y-58800000D01*
G75*
G02*
X98475000Y-59050000I-250000J0D01*
G01*
G37*
G36*
G01*
X98475000Y-60950000D02*
X97525000Y-60950000D01*
G75*
G02*
X97275000Y-60700000I0J250000D01*
G01*
X97275000Y-60200000D01*
G75*
G02*
X97525000Y-59950000I250000J0D01*
G01*
X98475000Y-59950000D01*
G75*
G02*
X98725000Y-60200000I0J-250000D01*
G01*
X98725000Y-60700000D01*
G75*
G02*
X98475000Y-60950000I-250000J0D01*
G01*
G37*
G36*
G01*
X100525000Y-65650000D02*
X101475000Y-65650000D01*
G75*
G02*
X101725000Y-65900000I0J-250000D01*
G01*
X101725000Y-66400000D01*
G75*
G02*
X101475000Y-66650000I-250000J0D01*
G01*
X100525000Y-66650000D01*
G75*
G02*
X100275000Y-66400000I0J250000D01*
G01*
X100275000Y-65900000D01*
G75*
G02*
X100525000Y-65650000I250000J0D01*
G01*
G37*
G36*
G01*
X100525000Y-63750000D02*
X101475000Y-63750000D01*
G75*
G02*
X101725000Y-64000000I0J-250000D01*
G01*
X101725000Y-64500000D01*
G75*
G02*
X101475000Y-64750000I-250000J0D01*
G01*
X100525000Y-64750000D01*
G75*
G02*
X100275000Y-64500000I0J250000D01*
G01*
X100275000Y-64000000D01*
G75*
G02*
X100525000Y-63750000I250000J0D01*
G01*
G37*
G36*
G01*
X94017678Y-49007927D02*
X93345927Y-49679678D01*
G75*
G02*
X92992373Y-49679678I-176777J176777D01*
G01*
X92638820Y-49326125D01*
G75*
G02*
X92638820Y-48972571I176777J176777D01*
G01*
X93310571Y-48300820D01*
G75*
G02*
X93664125Y-48300820I176777J-176777D01*
G01*
X94017678Y-48654373D01*
G75*
G02*
X94017678Y-49007927I-176777J-176777D01*
G01*
G37*
G36*
G01*
X95361180Y-50351429D02*
X94689429Y-51023180D01*
G75*
G02*
X94335875Y-51023180I-176777J176777D01*
G01*
X93982322Y-50669627D01*
G75*
G02*
X93982322Y-50316073I176777J176777D01*
G01*
X94654073Y-49644322D01*
G75*
G02*
X95007627Y-49644322I176777J-176777D01*
G01*
X95361180Y-49997875D01*
G75*
G02*
X95361180Y-50351429I-176777J-176777D01*
G01*
G37*
G36*
G01*
X82982322Y-60654073D02*
X83654073Y-59982322D01*
G75*
G02*
X84007627Y-59982322I176777J-176777D01*
G01*
X84361180Y-60335875D01*
G75*
G02*
X84361180Y-60689429I-176777J-176777D01*
G01*
X83689429Y-61361180D01*
G75*
G02*
X83335875Y-61361180I-176777J176777D01*
G01*
X82982322Y-61007627D01*
G75*
G02*
X82982322Y-60654073I176777J176777D01*
G01*
G37*
G36*
G01*
X81638820Y-59310571D02*
X82310571Y-58638820D01*
G75*
G02*
X82664125Y-58638820I176777J-176777D01*
G01*
X83017678Y-58992373D01*
G75*
G02*
X83017678Y-59345927I-176777J-176777D01*
G01*
X82345927Y-60017678D01*
G75*
G02*
X81992373Y-60017678I-176777J176777D01*
G01*
X81638820Y-59664125D01*
G75*
G02*
X81638820Y-59310571I176777J176777D01*
G01*
G37*
G36*
G01*
X84905000Y-58046000D02*
X83655000Y-58046000D01*
G75*
G02*
X83530000Y-57921000I0J125000D01*
G01*
X83530000Y-57671000D01*
G75*
G02*
X83655000Y-57546000I125000J0D01*
G01*
X84905000Y-57546000D01*
G75*
G02*
X85030000Y-57671000I0J-125000D01*
G01*
X85030000Y-57921000D01*
G75*
G02*
X84905000Y-58046000I-125000J0D01*
G01*
G37*
G36*
G01*
X84905000Y-57246000D02*
X83655000Y-57246000D01*
G75*
G02*
X83530000Y-57121000I0J125000D01*
G01*
X83530000Y-56871000D01*
G75*
G02*
X83655000Y-56746000I125000J0D01*
G01*
X84905000Y-56746000D01*
G75*
G02*
X85030000Y-56871000I0J-125000D01*
G01*
X85030000Y-57121000D01*
G75*
G02*
X84905000Y-57246000I-125000J0D01*
G01*
G37*
G36*
G01*
X84905000Y-56446000D02*
X83655000Y-56446000D01*
G75*
G02*
X83530000Y-56321000I0J125000D01*
G01*
X83530000Y-56071000D01*
G75*
G02*
X83655000Y-55946000I125000J0D01*
G01*
X84905000Y-55946000D01*
G75*
G02*
X85030000Y-56071000I0J-125000D01*
G01*
X85030000Y-56321000D01*
G75*
G02*
X84905000Y-56446000I-125000J0D01*
G01*
G37*
G36*
G01*
X84905000Y-55646000D02*
X83655000Y-55646000D01*
G75*
G02*
X83530000Y-55521000I0J125000D01*
G01*
X83530000Y-55271000D01*
G75*
G02*
X83655000Y-55146000I125000J0D01*
G01*
X84905000Y-55146000D01*
G75*
G02*
X85030000Y-55271000I0J-125000D01*
G01*
X85030000Y-55521000D01*
G75*
G02*
X84905000Y-55646000I-125000J0D01*
G01*
G37*
G36*
G01*
X84905000Y-54846000D02*
X83655000Y-54846000D01*
G75*
G02*
X83530000Y-54721000I0J125000D01*
G01*
X83530000Y-54471000D01*
G75*
G02*
X83655000Y-54346000I125000J0D01*
G01*
X84905000Y-54346000D01*
G75*
G02*
X85030000Y-54471000I0J-125000D01*
G01*
X85030000Y-54721000D01*
G75*
G02*
X84905000Y-54846000I-125000J0D01*
G01*
G37*
G36*
G01*
X84905000Y-54046000D02*
X83655000Y-54046000D01*
G75*
G02*
X83530000Y-53921000I0J125000D01*
G01*
X83530000Y-53671000D01*
G75*
G02*
X83655000Y-53546000I125000J0D01*
G01*
X84905000Y-53546000D01*
G75*
G02*
X85030000Y-53671000I0J-125000D01*
G01*
X85030000Y-53921000D01*
G75*
G02*
X84905000Y-54046000I-125000J0D01*
G01*
G37*
G36*
G01*
X84905000Y-53246000D02*
X83655000Y-53246000D01*
G75*
G02*
X83530000Y-53121000I0J125000D01*
G01*
X83530000Y-52871000D01*
G75*
G02*
X83655000Y-52746000I125000J0D01*
G01*
X84905000Y-52746000D01*
G75*
G02*
X85030000Y-52871000I0J-125000D01*
G01*
X85030000Y-53121000D01*
G75*
G02*
X84905000Y-53246000I-125000J0D01*
G01*
G37*
G36*
G01*
X84905000Y-52446000D02*
X83655000Y-52446000D01*
G75*
G02*
X83530000Y-52321000I0J125000D01*
G01*
X83530000Y-52071000D01*
G75*
G02*
X83655000Y-51946000I125000J0D01*
G01*
X84905000Y-51946000D01*
G75*
G02*
X85030000Y-52071000I0J-125000D01*
G01*
X85030000Y-52321000D01*
G75*
G02*
X84905000Y-52446000I-125000J0D01*
G01*
G37*
G36*
G01*
X85780000Y-51571000D02*
X85530000Y-51571000D01*
G75*
G02*
X85405000Y-51446000I0J125000D01*
G01*
X85405000Y-50196000D01*
G75*
G02*
X85530000Y-50071000I125000J0D01*
G01*
X85780000Y-50071000D01*
G75*
G02*
X85905000Y-50196000I0J-125000D01*
G01*
X85905000Y-51446000D01*
G75*
G02*
X85780000Y-51571000I-125000J0D01*
G01*
G37*
G36*
G01*
X86580000Y-51571000D02*
X86330000Y-51571000D01*
G75*
G02*
X86205000Y-51446000I0J125000D01*
G01*
X86205000Y-50196000D01*
G75*
G02*
X86330000Y-50071000I125000J0D01*
G01*
X86580000Y-50071000D01*
G75*
G02*
X86705000Y-50196000I0J-125000D01*
G01*
X86705000Y-51446000D01*
G75*
G02*
X86580000Y-51571000I-125000J0D01*
G01*
G37*
G36*
G01*
X87380000Y-51571000D02*
X87130000Y-51571000D01*
G75*
G02*
X87005000Y-51446000I0J125000D01*
G01*
X87005000Y-50196000D01*
G75*
G02*
X87130000Y-50071000I125000J0D01*
G01*
X87380000Y-50071000D01*
G75*
G02*
X87505000Y-50196000I0J-125000D01*
G01*
X87505000Y-51446000D01*
G75*
G02*
X87380000Y-51571000I-125000J0D01*
G01*
G37*
G36*
G01*
X88180000Y-51571000D02*
X87930000Y-51571000D01*
G75*
G02*
X87805000Y-51446000I0J125000D01*
G01*
X87805000Y-50196000D01*
G75*
G02*
X87930000Y-50071000I125000J0D01*
G01*
X88180000Y-50071000D01*
G75*
G02*
X88305000Y-50196000I0J-125000D01*
G01*
X88305000Y-51446000D01*
G75*
G02*
X88180000Y-51571000I-125000J0D01*
G01*
G37*
G36*
G01*
X88980000Y-51571000D02*
X88730000Y-51571000D01*
G75*
G02*
X88605000Y-51446000I0J125000D01*
G01*
X88605000Y-50196000D01*
G75*
G02*
X88730000Y-50071000I125000J0D01*
G01*
X88980000Y-50071000D01*
G75*
G02*
X89105000Y-50196000I0J-125000D01*
G01*
X89105000Y-51446000D01*
G75*
G02*
X88980000Y-51571000I-125000J0D01*
G01*
G37*
G36*
G01*
X89780000Y-51571000D02*
X89530000Y-51571000D01*
G75*
G02*
X89405000Y-51446000I0J125000D01*
G01*
X89405000Y-50196000D01*
G75*
G02*
X89530000Y-50071000I125000J0D01*
G01*
X89780000Y-50071000D01*
G75*
G02*
X89905000Y-50196000I0J-125000D01*
G01*
X89905000Y-51446000D01*
G75*
G02*
X89780000Y-51571000I-125000J0D01*
G01*
G37*
G36*
G01*
X90580000Y-51571000D02*
X90330000Y-51571000D01*
G75*
G02*
X90205000Y-51446000I0J125000D01*
G01*
X90205000Y-50196000D01*
G75*
G02*
X90330000Y-50071000I125000J0D01*
G01*
X90580000Y-50071000D01*
G75*
G02*
X90705000Y-50196000I0J-125000D01*
G01*
X90705000Y-51446000D01*
G75*
G02*
X90580000Y-51571000I-125000J0D01*
G01*
G37*
G36*
G01*
X91380000Y-51571000D02*
X91130000Y-51571000D01*
G75*
G02*
X91005000Y-51446000I0J125000D01*
G01*
X91005000Y-50196000D01*
G75*
G02*
X91130000Y-50071000I125000J0D01*
G01*
X91380000Y-50071000D01*
G75*
G02*
X91505000Y-50196000I0J-125000D01*
G01*
X91505000Y-51446000D01*
G75*
G02*
X91380000Y-51571000I-125000J0D01*
G01*
G37*
G36*
G01*
X93255000Y-52446000D02*
X92005000Y-52446000D01*
G75*
G02*
X91880000Y-52321000I0J125000D01*
G01*
X91880000Y-52071000D01*
G75*
G02*
X92005000Y-51946000I125000J0D01*
G01*
X93255000Y-51946000D01*
G75*
G02*
X93380000Y-52071000I0J-125000D01*
G01*
X93380000Y-52321000D01*
G75*
G02*
X93255000Y-52446000I-125000J0D01*
G01*
G37*
G36*
G01*
X93255000Y-53246000D02*
X92005000Y-53246000D01*
G75*
G02*
X91880000Y-53121000I0J125000D01*
G01*
X91880000Y-52871000D01*
G75*
G02*
X92005000Y-52746000I125000J0D01*
G01*
X93255000Y-52746000D01*
G75*
G02*
X93380000Y-52871000I0J-125000D01*
G01*
X93380000Y-53121000D01*
G75*
G02*
X93255000Y-53246000I-125000J0D01*
G01*
G37*
G36*
G01*
X93255000Y-54046000D02*
X92005000Y-54046000D01*
G75*
G02*
X91880000Y-53921000I0J125000D01*
G01*
X91880000Y-53671000D01*
G75*
G02*
X92005000Y-53546000I125000J0D01*
G01*
X93255000Y-53546000D01*
G75*
G02*
X93380000Y-53671000I0J-125000D01*
G01*
X93380000Y-53921000D01*
G75*
G02*
X93255000Y-54046000I-125000J0D01*
G01*
G37*
G36*
G01*
X93255000Y-54846000D02*
X92005000Y-54846000D01*
G75*
G02*
X91880000Y-54721000I0J125000D01*
G01*
X91880000Y-54471000D01*
G75*
G02*
X92005000Y-54346000I125000J0D01*
G01*
X93255000Y-54346000D01*
G75*
G02*
X93380000Y-54471000I0J-125000D01*
G01*
X93380000Y-54721000D01*
G75*
G02*
X93255000Y-54846000I-125000J0D01*
G01*
G37*
G36*
G01*
X93255000Y-55646000D02*
X92005000Y-55646000D01*
G75*
G02*
X91880000Y-55521000I0J125000D01*
G01*
X91880000Y-55271000D01*
G75*
G02*
X92005000Y-55146000I125000J0D01*
G01*
X93255000Y-55146000D01*
G75*
G02*
X93380000Y-55271000I0J-125000D01*
G01*
X93380000Y-55521000D01*
G75*
G02*
X93255000Y-55646000I-125000J0D01*
G01*
G37*
G36*
G01*
X93255000Y-56446000D02*
X92005000Y-56446000D01*
G75*
G02*
X91880000Y-56321000I0J125000D01*
G01*
X91880000Y-56071000D01*
G75*
G02*
X92005000Y-55946000I125000J0D01*
G01*
X93255000Y-55946000D01*
G75*
G02*
X93380000Y-56071000I0J-125000D01*
G01*
X93380000Y-56321000D01*
G75*
G02*
X93255000Y-56446000I-125000J0D01*
G01*
G37*
G36*
G01*
X93255000Y-57246000D02*
X92005000Y-57246000D01*
G75*
G02*
X91880000Y-57121000I0J125000D01*
G01*
X91880000Y-56871000D01*
G75*
G02*
X92005000Y-56746000I125000J0D01*
G01*
X93255000Y-56746000D01*
G75*
G02*
X93380000Y-56871000I0J-125000D01*
G01*
X93380000Y-57121000D01*
G75*
G02*
X93255000Y-57246000I-125000J0D01*
G01*
G37*
G36*
G01*
X93255000Y-58046000D02*
X92005000Y-58046000D01*
G75*
G02*
X91880000Y-57921000I0J125000D01*
G01*
X91880000Y-57671000D01*
G75*
G02*
X92005000Y-57546000I125000J0D01*
G01*
X93255000Y-57546000D01*
G75*
G02*
X93380000Y-57671000I0J-125000D01*
G01*
X93380000Y-57921000D01*
G75*
G02*
X93255000Y-58046000I-125000J0D01*
G01*
G37*
G36*
G01*
X91380000Y-59921000D02*
X91130000Y-59921000D01*
G75*
G02*
X91005000Y-59796000I0J125000D01*
G01*
X91005000Y-58546000D01*
G75*
G02*
X91130000Y-58421000I125000J0D01*
G01*
X91380000Y-58421000D01*
G75*
G02*
X91505000Y-58546000I0J-125000D01*
G01*
X91505000Y-59796000D01*
G75*
G02*
X91380000Y-59921000I-125000J0D01*
G01*
G37*
G36*
G01*
X90580000Y-59921000D02*
X90330000Y-59921000D01*
G75*
G02*
X90205000Y-59796000I0J125000D01*
G01*
X90205000Y-58546000D01*
G75*
G02*
X90330000Y-58421000I125000J0D01*
G01*
X90580000Y-58421000D01*
G75*
G02*
X90705000Y-58546000I0J-125000D01*
G01*
X90705000Y-59796000D01*
G75*
G02*
X90580000Y-59921000I-125000J0D01*
G01*
G37*
G36*
G01*
X89780000Y-59921000D02*
X89530000Y-59921000D01*
G75*
G02*
X89405000Y-59796000I0J125000D01*
G01*
X89405000Y-58546000D01*
G75*
G02*
X89530000Y-58421000I125000J0D01*
G01*
X89780000Y-58421000D01*
G75*
G02*
X89905000Y-58546000I0J-125000D01*
G01*
X89905000Y-59796000D01*
G75*
G02*
X89780000Y-59921000I-125000J0D01*
G01*
G37*
G36*
G01*
X88980000Y-59921000D02*
X88730000Y-59921000D01*
G75*
G02*
X88605000Y-59796000I0J125000D01*
G01*
X88605000Y-58546000D01*
G75*
G02*
X88730000Y-58421000I125000J0D01*
G01*
X88980000Y-58421000D01*
G75*
G02*
X89105000Y-58546000I0J-125000D01*
G01*
X89105000Y-59796000D01*
G75*
G02*
X88980000Y-59921000I-125000J0D01*
G01*
G37*
G36*
G01*
X88180000Y-59921000D02*
X87930000Y-59921000D01*
G75*
G02*
X87805000Y-59796000I0J125000D01*
G01*
X87805000Y-58546000D01*
G75*
G02*
X87930000Y-58421000I125000J0D01*
G01*
X88180000Y-58421000D01*
G75*
G02*
X88305000Y-58546000I0J-125000D01*
G01*
X88305000Y-59796000D01*
G75*
G02*
X88180000Y-59921000I-125000J0D01*
G01*
G37*
G36*
G01*
X87380000Y-59921000D02*
X87130000Y-59921000D01*
G75*
G02*
X87005000Y-59796000I0J125000D01*
G01*
X87005000Y-58546000D01*
G75*
G02*
X87130000Y-58421000I125000J0D01*
G01*
X87380000Y-58421000D01*
G75*
G02*
X87505000Y-58546000I0J-125000D01*
G01*
X87505000Y-59796000D01*
G75*
G02*
X87380000Y-59921000I-125000J0D01*
G01*
G37*
G36*
G01*
X86580000Y-59921000D02*
X86330000Y-59921000D01*
G75*
G02*
X86205000Y-59796000I0J125000D01*
G01*
X86205000Y-58546000D01*
G75*
G02*
X86330000Y-58421000I125000J0D01*
G01*
X86580000Y-58421000D01*
G75*
G02*
X86705000Y-58546000I0J-125000D01*
G01*
X86705000Y-59796000D01*
G75*
G02*
X86580000Y-59921000I-125000J0D01*
G01*
G37*
G36*
G01*
X85780000Y-59921000D02*
X85530000Y-59921000D01*
G75*
G02*
X85405000Y-59796000I0J125000D01*
G01*
X85405000Y-58546000D01*
G75*
G02*
X85530000Y-58421000I125000J0D01*
G01*
X85780000Y-58421000D01*
G75*
G02*
X85905000Y-58546000I0J-125000D01*
G01*
X85905000Y-59796000D01*
G75*
G02*
X85780000Y-59921000I-125000J0D01*
G01*
G37*
D12*
X72500000Y-65500000D03*
X74500000Y-64550000D03*
X74500000Y-66450000D03*
X63500000Y-65000000D03*
X65500000Y-64050000D03*
X65500000Y-65950000D03*
D13*
G36*
X60350000Y-62749398D02*
G01*
X60325466Y-62749398D01*
X60276635Y-62744588D01*
X60228510Y-62735016D01*
X60181555Y-62720772D01*
X60136222Y-62701995D01*
X60092949Y-62678864D01*
X60052150Y-62651604D01*
X60014221Y-62620476D01*
X59979524Y-62585779D01*
X59948396Y-62547850D01*
X59921136Y-62507051D01*
X59898005Y-62463778D01*
X59879228Y-62418445D01*
X59864984Y-62371490D01*
X59855412Y-62323365D01*
X59850602Y-62274534D01*
X59850602Y-62250000D01*
X59850000Y-62250000D01*
X59850000Y-61750000D01*
X59850602Y-61750000D01*
X59850602Y-61725466D01*
X59855412Y-61676635D01*
X59864984Y-61628510D01*
X59879228Y-61581555D01*
X59898005Y-61536222D01*
X59921136Y-61492949D01*
X59948396Y-61452150D01*
X59979524Y-61414221D01*
X60014221Y-61379524D01*
X60052150Y-61348396D01*
X60092949Y-61321136D01*
X60136222Y-61298005D01*
X60181555Y-61279228D01*
X60228510Y-61264984D01*
X60276635Y-61255412D01*
X60325466Y-61250602D01*
X60350000Y-61250602D01*
X60350000Y-61250000D01*
X60850000Y-61250000D01*
X60850000Y-62750000D01*
X60350000Y-62750000D01*
X60350000Y-62749398D01*
G37*
G36*
X61150000Y-61250000D02*
G01*
X61650000Y-61250000D01*
X61650000Y-61250602D01*
X61674534Y-61250602D01*
X61723365Y-61255412D01*
X61771490Y-61264984D01*
X61818445Y-61279228D01*
X61863778Y-61298005D01*
X61907051Y-61321136D01*
X61947850Y-61348396D01*
X61985779Y-61379524D01*
X62020476Y-61414221D01*
X62051604Y-61452150D01*
X62078864Y-61492949D01*
X62101995Y-61536222D01*
X62120772Y-61581555D01*
X62135016Y-61628510D01*
X62144588Y-61676635D01*
X62149398Y-61725466D01*
X62149398Y-61750000D01*
X62150000Y-61750000D01*
X62150000Y-62250000D01*
X62149398Y-62250000D01*
X62149398Y-62274534D01*
X62144588Y-62323365D01*
X62135016Y-62371490D01*
X62120772Y-62418445D01*
X62101995Y-62463778D01*
X62078864Y-62507051D01*
X62051604Y-62547850D01*
X62020476Y-62585779D01*
X61985779Y-62620476D01*
X61947850Y-62651604D01*
X61907051Y-62678864D01*
X61863778Y-62701995D01*
X61818445Y-62720772D01*
X61771490Y-62735016D01*
X61723365Y-62744588D01*
X61674534Y-62749398D01*
X61650000Y-62749398D01*
X61650000Y-62750000D01*
X61150000Y-62750000D01*
X61150000Y-61250000D01*
G37*
D14*
X81500000Y-41880000D03*
X81500000Y-44420000D03*
X81500000Y-46960000D03*
D15*
X81500000Y-49500000D03*
D16*
X36500000Y-67500000D03*
X35550000Y-65500000D03*
X37450000Y-65500000D03*
D12*
X42500000Y-63500000D03*
X44500000Y-62550000D03*
X44500000Y-64450000D03*
D14*
X45540000Y-67500000D03*
D15*
X43000000Y-67500000D03*
D14*
X57540000Y-67500000D03*
X55000000Y-67500000D03*
D15*
X52460000Y-67500000D03*
D12*
X42000000Y-58500000D03*
X44000000Y-57550000D03*
X44000000Y-59450000D03*
D14*
X31000000Y-61040000D03*
D15*
X31000000Y-58500000D03*
G36*
G01*
X27750000Y-62000000D02*
X26250000Y-62000000D01*
G75*
G02*
X26000000Y-61750000I0J250000D01*
G01*
X26000000Y-61250000D01*
G75*
G02*
X26250000Y-61000000I250000J0D01*
G01*
X27750000Y-61000000D01*
G75*
G02*
X28000000Y-61250000I0J-250000D01*
G01*
X28000000Y-61750000D01*
G75*
G02*
X27750000Y-62000000I-250000J0D01*
G01*
G37*
G36*
G01*
X27750000Y-59000000D02*
X26250000Y-59000000D01*
G75*
G02*
X26000000Y-58750000I0J250000D01*
G01*
X26000000Y-58250000D01*
G75*
G02*
X26250000Y-58000000I250000J0D01*
G01*
X27750000Y-58000000D01*
G75*
G02*
X28000000Y-58250000I0J-250000D01*
G01*
X28000000Y-58750000D01*
G75*
G02*
X27750000Y-59000000I-250000J0D01*
G01*
G37*
D14*
X30995000Y-53755000D03*
D15*
X30995000Y-51215000D03*
G36*
G01*
X27750000Y-54500000D02*
X26250000Y-54500000D01*
G75*
G02*
X26000000Y-54250000I0J250000D01*
G01*
X26000000Y-53750000D01*
G75*
G02*
X26250000Y-53500000I250000J0D01*
G01*
X27750000Y-53500000D01*
G75*
G02*
X28000000Y-53750000I0J-250000D01*
G01*
X28000000Y-54250000D01*
G75*
G02*
X27750000Y-54500000I-250000J0D01*
G01*
G37*
G36*
G01*
X27750000Y-51500000D02*
X26250000Y-51500000D01*
G75*
G02*
X26000000Y-51250000I0J250000D01*
G01*
X26000000Y-50750000D01*
G75*
G02*
X26250000Y-50500000I250000J0D01*
G01*
X27750000Y-50500000D01*
G75*
G02*
X28000000Y-50750000I0J-250000D01*
G01*
X28000000Y-51250000D01*
G75*
G02*
X27750000Y-51500000I-250000J0D01*
G01*
G37*
D12*
X42000000Y-52000000D03*
X44000000Y-51050000D03*
X44000000Y-52950000D03*
D15*
X110000000Y-58500000D03*
D14*
X107460000Y-58500000D03*
X104920000Y-58500000D03*
D13*
G36*
X113250000Y-61350000D02*
G01*
X113250000Y-60850000D01*
X113250602Y-60850000D01*
X113250602Y-60825466D01*
X113255412Y-60776635D01*
X113264984Y-60728510D01*
X113279228Y-60681555D01*
X113298005Y-60636222D01*
X113321136Y-60592949D01*
X113348396Y-60552150D01*
X113379524Y-60514221D01*
X113414221Y-60479524D01*
X113452150Y-60448396D01*
X113492949Y-60421136D01*
X113536222Y-60398005D01*
X113581555Y-60379228D01*
X113628510Y-60364984D01*
X113676635Y-60355412D01*
X113725466Y-60350602D01*
X113750000Y-60350602D01*
X113750000Y-60350000D01*
X114250000Y-60350000D01*
X114250000Y-60350602D01*
X114274534Y-60350602D01*
X114323365Y-60355412D01*
X114371490Y-60364984D01*
X114418445Y-60379228D01*
X114463778Y-60398005D01*
X114507051Y-60421136D01*
X114547850Y-60448396D01*
X114585779Y-60479524D01*
X114620476Y-60514221D01*
X114651604Y-60552150D01*
X114678864Y-60592949D01*
X114701995Y-60636222D01*
X114720772Y-60681555D01*
X114735016Y-60728510D01*
X114744588Y-60776635D01*
X114749398Y-60825466D01*
X114749398Y-60850000D01*
X114750000Y-60850000D01*
X114750000Y-61350000D01*
X113250000Y-61350000D01*
G37*
G36*
X114749398Y-62150000D02*
G01*
X114749398Y-62174534D01*
X114744588Y-62223365D01*
X114735016Y-62271490D01*
X114720772Y-62318445D01*
X114701995Y-62363778D01*
X114678864Y-62407051D01*
X114651604Y-62447850D01*
X114620476Y-62485779D01*
X114585779Y-62520476D01*
X114547850Y-62551604D01*
X114507051Y-62578864D01*
X114463778Y-62601995D01*
X114418445Y-62620772D01*
X114371490Y-62635016D01*
X114323365Y-62644588D01*
X114274534Y-62649398D01*
X114250000Y-62649398D01*
X114250000Y-62650000D01*
X113750000Y-62650000D01*
X113750000Y-62649398D01*
X113725466Y-62649398D01*
X113676635Y-62644588D01*
X113628510Y-62635016D01*
X113581555Y-62620772D01*
X113536222Y-62601995D01*
X113492949Y-62578864D01*
X113452150Y-62551604D01*
X113414221Y-62520476D01*
X113379524Y-62485779D01*
X113348396Y-62447850D01*
X113321136Y-62407051D01*
X113298005Y-62363778D01*
X113279228Y-62318445D01*
X113264984Y-62271490D01*
X113255412Y-62223365D01*
X113250602Y-62174534D01*
X113250602Y-62150000D01*
X113250000Y-62150000D01*
X113250000Y-61650000D01*
X114750000Y-61650000D01*
X114750000Y-62150000D01*
X114749398Y-62150000D01*
G37*
D14*
X117500000Y-48800000D03*
X117500000Y-51340000D03*
X117500000Y-53880000D03*
X117500000Y-56420000D03*
X117500000Y-58960000D03*
D15*
X117500000Y-61500000D03*
D17*
X116000000Y-66000000D03*
X29000000Y-66000000D03*
X29000000Y-44000000D03*
X116000000Y-44000000D03*
D18*
X85843000Y-65656000D03*
X89543000Y-65656000D03*
D19*
X104000000Y-67500000D03*
X104000000Y-63000000D03*
X110500000Y-67500000D03*
X110500000Y-63000000D03*
D20*
X39000000Y-45000000D03*
D21*
X35500000Y-45000000D03*
D20*
X73000000Y-45000000D03*
D21*
X69500000Y-45000000D03*
D20*
X51500000Y-45000000D03*
D21*
X48000000Y-45000000D03*
D22*
X101000000Y-48000000D03*
X103500000Y-48000000D03*
X106000000Y-48000000D03*
G36*
G01*
X109350000Y-47275000D02*
X109350000Y-48725000D01*
G75*
G02*
X109100000Y-48975000I-250000J0D01*
G01*
X107900000Y-48975000D01*
G75*
G02*
X107650000Y-48725000I0J250000D01*
G01*
X107650000Y-47275000D01*
G75*
G02*
X107900000Y-47025000I250000J0D01*
G01*
X109100000Y-47025000D01*
G75*
G02*
X109350000Y-47275000I0J-250000D01*
G01*
G37*
D13*
G36*
X60250602Y-42350000D02*
G01*
X60250602Y-42325466D01*
X60255412Y-42276635D01*
X60264984Y-42228510D01*
X60279228Y-42181555D01*
X60298005Y-42136222D01*
X60321136Y-42092949D01*
X60348396Y-42052150D01*
X60379524Y-42014221D01*
X60414221Y-41979524D01*
X60452150Y-41948396D01*
X60492949Y-41921136D01*
X60536222Y-41898005D01*
X60581555Y-41879228D01*
X60628510Y-41864984D01*
X60676635Y-41855412D01*
X60725466Y-41850602D01*
X60750000Y-41850602D01*
X60750000Y-41850000D01*
X61250000Y-41850000D01*
X61250000Y-41850602D01*
X61274534Y-41850602D01*
X61323365Y-41855412D01*
X61371490Y-41864984D01*
X61418445Y-41879228D01*
X61463778Y-41898005D01*
X61507051Y-41921136D01*
X61547850Y-41948396D01*
X61585779Y-41979524D01*
X61620476Y-42014221D01*
X61651604Y-42052150D01*
X61678864Y-42092949D01*
X61701995Y-42136222D01*
X61720772Y-42181555D01*
X61735016Y-42228510D01*
X61744588Y-42276635D01*
X61749398Y-42325466D01*
X61749398Y-42350000D01*
X61750000Y-42350000D01*
X61750000Y-42850000D01*
X60250000Y-42850000D01*
X60250000Y-42350000D01*
X60250602Y-42350000D01*
G37*
G36*
X61750000Y-43150000D02*
G01*
X61750000Y-43650000D01*
X61749398Y-43650000D01*
X61749398Y-43674534D01*
X61744588Y-43723365D01*
X61735016Y-43771490D01*
X61720772Y-43818445D01*
X61701995Y-43863778D01*
X61678864Y-43907051D01*
X61651604Y-43947850D01*
X61620476Y-43985779D01*
X61585779Y-44020476D01*
X61547850Y-44051604D01*
X61507051Y-44078864D01*
X61463778Y-44101995D01*
X61418445Y-44120772D01*
X61371490Y-44135016D01*
X61323365Y-44144588D01*
X61274534Y-44149398D01*
X61250000Y-44149398D01*
X61250000Y-44150000D01*
X60750000Y-44150000D01*
X60750000Y-44149398D01*
X60725466Y-44149398D01*
X60676635Y-44144588D01*
X60628510Y-44135016D01*
X60581555Y-44120772D01*
X60536222Y-44101995D01*
X60492949Y-44078864D01*
X60452150Y-44051604D01*
X60414221Y-44020476D01*
X60379524Y-43985779D01*
X60348396Y-43947850D01*
X60321136Y-43907051D01*
X60298005Y-43863778D01*
X60279228Y-43818445D01*
X60264984Y-43771490D01*
X60255412Y-43723365D01*
X60250602Y-43674534D01*
X60250602Y-43650000D01*
X60250000Y-43650000D01*
X60250000Y-43150000D01*
X61750000Y-43150000D01*
G37*
G36*
X56250602Y-42350000D02*
G01*
X56250602Y-42325466D01*
X56255412Y-42276635D01*
X56264984Y-42228510D01*
X56279228Y-42181555D01*
X56298005Y-42136222D01*
X56321136Y-42092949D01*
X56348396Y-42052150D01*
X56379524Y-42014221D01*
X56414221Y-41979524D01*
X56452150Y-41948396D01*
X56492949Y-41921136D01*
X56536222Y-41898005D01*
X56581555Y-41879228D01*
X56628510Y-41864984D01*
X56676635Y-41855412D01*
X56725466Y-41850602D01*
X56750000Y-41850602D01*
X56750000Y-41850000D01*
X57250000Y-41850000D01*
X57250000Y-41850602D01*
X57274534Y-41850602D01*
X57323365Y-41855412D01*
X57371490Y-41864984D01*
X57418445Y-41879228D01*
X57463778Y-41898005D01*
X57507051Y-41921136D01*
X57547850Y-41948396D01*
X57585779Y-41979524D01*
X57620476Y-42014221D01*
X57651604Y-42052150D01*
X57678864Y-42092949D01*
X57701995Y-42136222D01*
X57720772Y-42181555D01*
X57735016Y-42228510D01*
X57744588Y-42276635D01*
X57749398Y-42325466D01*
X57749398Y-42350000D01*
X57750000Y-42350000D01*
X57750000Y-42850000D01*
X56250000Y-42850000D01*
X56250000Y-42350000D01*
X56250602Y-42350000D01*
G37*
G36*
X57750000Y-43150000D02*
G01*
X57750000Y-43650000D01*
X57749398Y-43650000D01*
X57749398Y-43674534D01*
X57744588Y-43723365D01*
X57735016Y-43771490D01*
X57720772Y-43818445D01*
X57701995Y-43863778D01*
X57678864Y-43907051D01*
X57651604Y-43947850D01*
X57620476Y-43985779D01*
X57585779Y-44020476D01*
X57547850Y-44051604D01*
X57507051Y-44078864D01*
X57463778Y-44101995D01*
X57418445Y-44120772D01*
X57371490Y-44135016D01*
X57323365Y-44144588D01*
X57274534Y-44149398D01*
X57250000Y-44149398D01*
X57250000Y-44150000D01*
X56750000Y-44150000D01*
X56750000Y-44149398D01*
X56725466Y-44149398D01*
X56676635Y-44144588D01*
X56628510Y-44135016D01*
X56581555Y-44120772D01*
X56536222Y-44101995D01*
X56492949Y-44078864D01*
X56452150Y-44051604D01*
X56414221Y-44020476D01*
X56379524Y-43985779D01*
X56348396Y-43947850D01*
X56321136Y-43907051D01*
X56298005Y-43863778D01*
X56279228Y-43818445D01*
X56264984Y-43771490D01*
X56255412Y-43723365D01*
X56250602Y-43674534D01*
X56250602Y-43650000D01*
X56250000Y-43650000D01*
X56250000Y-43150000D01*
X57750000Y-43150000D01*
G37*
G36*
X64250602Y-42350000D02*
G01*
X64250602Y-42325466D01*
X64255412Y-42276635D01*
X64264984Y-42228510D01*
X64279228Y-42181555D01*
X64298005Y-42136222D01*
X64321136Y-42092949D01*
X64348396Y-42052150D01*
X64379524Y-42014221D01*
X64414221Y-41979524D01*
X64452150Y-41948396D01*
X64492949Y-41921136D01*
X64536222Y-41898005D01*
X64581555Y-41879228D01*
X64628510Y-41864984D01*
X64676635Y-41855412D01*
X64725466Y-41850602D01*
X64750000Y-41850602D01*
X64750000Y-41850000D01*
X65250000Y-41850000D01*
X65250000Y-41850602D01*
X65274534Y-41850602D01*
X65323365Y-41855412D01*
X65371490Y-41864984D01*
X65418445Y-41879228D01*
X65463778Y-41898005D01*
X65507051Y-41921136D01*
X65547850Y-41948396D01*
X65585779Y-41979524D01*
X65620476Y-42014221D01*
X65651604Y-42052150D01*
X65678864Y-42092949D01*
X65701995Y-42136222D01*
X65720772Y-42181555D01*
X65735016Y-42228510D01*
X65744588Y-42276635D01*
X65749398Y-42325466D01*
X65749398Y-42350000D01*
X65750000Y-42350000D01*
X65750000Y-42850000D01*
X64250000Y-42850000D01*
X64250000Y-42350000D01*
X64250602Y-42350000D01*
G37*
G36*
X65750000Y-43150000D02*
G01*
X65750000Y-43650000D01*
X65749398Y-43650000D01*
X65749398Y-43674534D01*
X65744588Y-43723365D01*
X65735016Y-43771490D01*
X65720772Y-43818445D01*
X65701995Y-43863778D01*
X65678864Y-43907051D01*
X65651604Y-43947850D01*
X65620476Y-43985779D01*
X65585779Y-44020476D01*
X65547850Y-44051604D01*
X65507051Y-44078864D01*
X65463778Y-44101995D01*
X65418445Y-44120772D01*
X65371490Y-44135016D01*
X65323365Y-44144588D01*
X65274534Y-44149398D01*
X65250000Y-44149398D01*
X65250000Y-44150000D01*
X64750000Y-44150000D01*
X64750000Y-44149398D01*
X64725466Y-44149398D01*
X64676635Y-44144588D01*
X64628510Y-44135016D01*
X64581555Y-44120772D01*
X64536222Y-44101995D01*
X64492949Y-44078864D01*
X64452150Y-44051604D01*
X64414221Y-44020476D01*
X64379524Y-43985779D01*
X64348396Y-43947850D01*
X64321136Y-43907051D01*
X64298005Y-43863778D01*
X64279228Y-43818445D01*
X64264984Y-43771490D01*
X64255412Y-43723365D01*
X64250602Y-43674534D01*
X64250602Y-43650000D01*
X64250000Y-43650000D01*
X64250000Y-43150000D01*
X65750000Y-43150000D01*
G37*
M02*
