G04 #@! TF.GenerationSoftware,KiCad,Pcbnew,7.0.7-7.0.7~ubuntu23.04.1*
G04 #@! TF.CreationDate,2023-08-18T10:36:28+00:00*
G04 #@! TF.ProjectId,LocoBuffer,4c6f636f-4275-4666-9665-722e6b696361,0.0.1*
G04 #@! TF.SameCoordinates,Original*
G04 #@! TF.FileFunction,Soldermask,Top*
G04 #@! TF.FilePolarity,Negative*
%FSLAX46Y46*%
G04 Gerber Fmt 4.6, Leading zero omitted, Abs format (unit mm)*
G04 Created by KiCad (PCBNEW 7.0.7-7.0.7~ubuntu23.04.1) date 2023-08-18 10:36:28*
%MOMM*%
%LPD*%
G01*
G04 APERTURE LIST*
%ADD10C,3.450000*%
%ADD11R,1.398000X1.398000*%
%ADD12C,1.398000*%
%ADD13C,5.700000*%
%ADD14R,2.000000X1.200000*%
%ADD15O,2.000000X1.200000*%
%ADD16R,0.850000X0.650000*%
%ADD17R,1.500000X1.500000*%
%ADD18R,3.250000X5.500000*%
%ADD19O,1.600000X2.000000*%
G04 APERTURE END LIST*
G36*
G01*
X41489956Y-117480000D02*
X40577456Y-117480000D01*
G75*
G02*
X40333706Y-117236250I0J243750D01*
G01*
X40333706Y-116748750D01*
G75*
G02*
X40577456Y-116505000I243750J0D01*
G01*
X41489956Y-116505000D01*
G75*
G02*
X41733706Y-116748750I0J-243750D01*
G01*
X41733706Y-117236250D01*
G75*
G02*
X41489956Y-117480000I-243750J0D01*
G01*
G37*
G36*
G01*
X41489956Y-115605000D02*
X40577456Y-115605000D01*
G75*
G02*
X40333706Y-115361250I0J243750D01*
G01*
X40333706Y-114873750D01*
G75*
G02*
X40577456Y-114630000I243750J0D01*
G01*
X41489956Y-114630000D01*
G75*
G02*
X41733706Y-114873750I0J-243750D01*
G01*
X41733706Y-115361250D01*
G75*
G02*
X41489956Y-115605000I-243750J0D01*
G01*
G37*
D10*
X38000000Y-83237500D03*
X38000000Y-92762500D03*
D11*
X43080000Y-90540000D03*
D12*
X41050000Y-89524000D03*
X43080000Y-88508000D03*
X41048000Y-87492000D03*
X43080000Y-86476000D03*
X41050000Y-85460000D03*
D10*
X38000000Y-97237500D03*
X38000000Y-106762500D03*
D11*
X43080000Y-104540000D03*
D12*
X41050000Y-103524000D03*
X43080000Y-102508000D03*
X41048000Y-101492000D03*
X43080000Y-100476000D03*
X41050000Y-99460000D03*
G36*
G01*
X52069800Y-110556800D02*
X52069800Y-109656800D01*
G75*
G02*
X52319800Y-109406800I250000J0D01*
G01*
X52844800Y-109406800D01*
G75*
G02*
X53094800Y-109656800I0J-250000D01*
G01*
X53094800Y-110556800D01*
G75*
G02*
X52844800Y-110806800I-250000J0D01*
G01*
X52319800Y-110806800D01*
G75*
G02*
X52069800Y-110556800I0J250000D01*
G01*
G37*
G36*
G01*
X53894800Y-110556800D02*
X53894800Y-109656800D01*
G75*
G02*
X54144800Y-109406800I250000J0D01*
G01*
X54669800Y-109406800D01*
G75*
G02*
X54919800Y-109656800I0J-250000D01*
G01*
X54919800Y-110556800D01*
G75*
G02*
X54669800Y-110806800I-250000J0D01*
G01*
X54144800Y-110806800D01*
G75*
G02*
X53894800Y-110556800I0J250000D01*
G01*
G37*
G36*
G01*
X54919800Y-111657800D02*
X54919800Y-112557800D01*
G75*
G02*
X54669800Y-112807800I-250000J0D01*
G01*
X54144800Y-112807800D01*
G75*
G02*
X53894800Y-112557800I0J250000D01*
G01*
X53894800Y-111657800D01*
G75*
G02*
X54144800Y-111407800I250000J0D01*
G01*
X54669800Y-111407800D01*
G75*
G02*
X54919800Y-111657800I0J-250000D01*
G01*
G37*
G36*
G01*
X53094800Y-111657800D02*
X53094800Y-112557800D01*
G75*
G02*
X52844800Y-112807800I-250000J0D01*
G01*
X52319800Y-112807800D01*
G75*
G02*
X52069800Y-112557800I0J250000D01*
G01*
X52069800Y-111657800D01*
G75*
G02*
X52319800Y-111407800I250000J0D01*
G01*
X52844800Y-111407800D01*
G75*
G02*
X53094800Y-111657800I0J-250000D01*
G01*
G37*
G36*
G01*
X61727000Y-103225000D02*
X61727000Y-104125000D01*
G75*
G02*
X61477000Y-104375000I-250000J0D01*
G01*
X60952000Y-104375000D01*
G75*
G02*
X60702000Y-104125000I0J250000D01*
G01*
X60702000Y-103225000D01*
G75*
G02*
X60952000Y-102975000I250000J0D01*
G01*
X61477000Y-102975000D01*
G75*
G02*
X61727000Y-103225000I0J-250000D01*
G01*
G37*
G36*
G01*
X59902000Y-103225000D02*
X59902000Y-104125000D01*
G75*
G02*
X59652000Y-104375000I-250000J0D01*
G01*
X59127000Y-104375000D01*
G75*
G02*
X58877000Y-104125000I0J250000D01*
G01*
X58877000Y-103225000D01*
G75*
G02*
X59127000Y-102975000I250000J0D01*
G01*
X59652000Y-102975000D01*
G75*
G02*
X59902000Y-103225000I0J-250000D01*
G01*
G37*
G36*
G01*
X52052500Y-108559000D02*
X52052500Y-107659000D01*
G75*
G02*
X52302500Y-107409000I250000J0D01*
G01*
X52827500Y-107409000D01*
G75*
G02*
X53077500Y-107659000I0J-250000D01*
G01*
X53077500Y-108559000D01*
G75*
G02*
X52827500Y-108809000I-250000J0D01*
G01*
X52302500Y-108809000D01*
G75*
G02*
X52052500Y-108559000I0J250000D01*
G01*
G37*
G36*
G01*
X53877500Y-108559000D02*
X53877500Y-107659000D01*
G75*
G02*
X54127500Y-107409000I250000J0D01*
G01*
X54652500Y-107409000D01*
G75*
G02*
X54902500Y-107659000I0J-250000D01*
G01*
X54902500Y-108559000D01*
G75*
G02*
X54652500Y-108809000I-250000J0D01*
G01*
X54127500Y-108809000D01*
G75*
G02*
X53877500Y-108559000I0J250000D01*
G01*
G37*
G36*
G01*
X54869000Y-105511000D02*
X54869000Y-106411000D01*
G75*
G02*
X54619000Y-106661000I-250000J0D01*
G01*
X54094000Y-106661000D01*
G75*
G02*
X53844000Y-106411000I0J250000D01*
G01*
X53844000Y-105511000D01*
G75*
G02*
X54094000Y-105261000I250000J0D01*
G01*
X54619000Y-105261000D01*
G75*
G02*
X54869000Y-105511000I0J-250000D01*
G01*
G37*
G36*
G01*
X53044000Y-105511000D02*
X53044000Y-106411000D01*
G75*
G02*
X52794000Y-106661000I-250000J0D01*
G01*
X52269000Y-106661000D01*
G75*
G02*
X52019000Y-106411000I0J250000D01*
G01*
X52019000Y-105511000D01*
G75*
G02*
X52269000Y-105261000I250000J0D01*
G01*
X52794000Y-105261000D01*
G75*
G02*
X53044000Y-105511000I0J-250000D01*
G01*
G37*
G36*
G01*
X41483706Y-113591500D02*
X40583706Y-113591500D01*
G75*
G02*
X40333706Y-113341500I0J250000D01*
G01*
X40333706Y-112816500D01*
G75*
G02*
X40583706Y-112566500I250000J0D01*
G01*
X41483706Y-112566500D01*
G75*
G02*
X41733706Y-112816500I0J-250000D01*
G01*
X41733706Y-113341500D01*
G75*
G02*
X41483706Y-113591500I-250000J0D01*
G01*
G37*
G36*
G01*
X41483706Y-111766500D02*
X40583706Y-111766500D01*
G75*
G02*
X40333706Y-111516500I0J250000D01*
G01*
X40333706Y-110991500D01*
G75*
G02*
X40583706Y-110741500I250000J0D01*
G01*
X41483706Y-110741500D01*
G75*
G02*
X41733706Y-110991500I0J-250000D01*
G01*
X41733706Y-111516500D01*
G75*
G02*
X41483706Y-111766500I-250000J0D01*
G01*
G37*
G36*
G01*
X61727500Y-105257000D02*
X61727500Y-106157000D01*
G75*
G02*
X61477500Y-106407000I-250000J0D01*
G01*
X60952500Y-106407000D01*
G75*
G02*
X60702500Y-106157000I0J250000D01*
G01*
X60702500Y-105257000D01*
G75*
G02*
X60952500Y-105007000I250000J0D01*
G01*
X61477500Y-105007000D01*
G75*
G02*
X61727500Y-105257000I0J-250000D01*
G01*
G37*
G36*
G01*
X59902500Y-105257000D02*
X59902500Y-106157000D01*
G75*
G02*
X59652500Y-106407000I-250000J0D01*
G01*
X59127500Y-106407000D01*
G75*
G02*
X58877500Y-106157000I0J250000D01*
G01*
X58877500Y-105257000D01*
G75*
G02*
X59127500Y-105007000I250000J0D01*
G01*
X59652500Y-105007000D01*
G75*
G02*
X59902500Y-105257000I0J-250000D01*
G01*
G37*
G36*
G01*
X44150706Y-113566000D02*
X43250706Y-113566000D01*
G75*
G02*
X43000706Y-113316000I0J250000D01*
G01*
X43000706Y-112791000D01*
G75*
G02*
X43250706Y-112541000I250000J0D01*
G01*
X44150706Y-112541000D01*
G75*
G02*
X44400706Y-112791000I0J-250000D01*
G01*
X44400706Y-113316000D01*
G75*
G02*
X44150706Y-113566000I-250000J0D01*
G01*
G37*
G36*
G01*
X44150706Y-111741000D02*
X43250706Y-111741000D01*
G75*
G02*
X43000706Y-111491000I0J250000D01*
G01*
X43000706Y-110966000D01*
G75*
G02*
X43250706Y-110716000I250000J0D01*
G01*
X44150706Y-110716000D01*
G75*
G02*
X44400706Y-110966000I0J-250000D01*
G01*
X44400706Y-111491000D01*
G75*
G02*
X44150706Y-111741000I-250000J0D01*
G01*
G37*
G36*
G01*
X45790706Y-110716000D02*
X46690706Y-110716000D01*
G75*
G02*
X46940706Y-110966000I0J-250000D01*
G01*
X46940706Y-111491000D01*
G75*
G02*
X46690706Y-111741000I-250000J0D01*
G01*
X45790706Y-111741000D01*
G75*
G02*
X45540706Y-111491000I0J250000D01*
G01*
X45540706Y-110966000D01*
G75*
G02*
X45790706Y-110716000I250000J0D01*
G01*
G37*
G36*
G01*
X45790706Y-112541000D02*
X46690706Y-112541000D01*
G75*
G02*
X46940706Y-112791000I0J-250000D01*
G01*
X46940706Y-113316000D01*
G75*
G02*
X46690706Y-113566000I-250000J0D01*
G01*
X45790706Y-113566000D01*
G75*
G02*
X45540706Y-113316000I0J250000D01*
G01*
X45540706Y-112791000D01*
G75*
G02*
X45790706Y-112541000I250000J0D01*
G01*
G37*
G36*
G01*
X58171000Y-114147000D02*
X58171000Y-115047000D01*
G75*
G02*
X57921000Y-115297000I-250000J0D01*
G01*
X57396000Y-115297000D01*
G75*
G02*
X57146000Y-115047000I0J250000D01*
G01*
X57146000Y-114147000D01*
G75*
G02*
X57396000Y-113897000I250000J0D01*
G01*
X57921000Y-113897000D01*
G75*
G02*
X58171000Y-114147000I0J-250000D01*
G01*
G37*
G36*
G01*
X56346000Y-114147000D02*
X56346000Y-115047000D01*
G75*
G02*
X56096000Y-115297000I-250000J0D01*
G01*
X55571000Y-115297000D01*
G75*
G02*
X55321000Y-115047000I0J250000D01*
G01*
X55321000Y-114147000D01*
G75*
G02*
X55571000Y-113897000I250000J0D01*
G01*
X56096000Y-113897000D01*
G75*
G02*
X56346000Y-114147000I0J-250000D01*
G01*
G37*
G36*
G01*
X58171000Y-116147000D02*
X58171000Y-117047000D01*
G75*
G02*
X57921000Y-117297000I-250000J0D01*
G01*
X57396000Y-117297000D01*
G75*
G02*
X57146000Y-117047000I0J250000D01*
G01*
X57146000Y-116147000D01*
G75*
G02*
X57396000Y-115897000I250000J0D01*
G01*
X57921000Y-115897000D01*
G75*
G02*
X58171000Y-116147000I0J-250000D01*
G01*
G37*
G36*
G01*
X56346000Y-116147000D02*
X56346000Y-117047000D01*
G75*
G02*
X56096000Y-117297000I-250000J0D01*
G01*
X55571000Y-117297000D01*
G75*
G02*
X55321000Y-117047000I0J250000D01*
G01*
X55321000Y-116147000D01*
G75*
G02*
X55571000Y-115897000I250000J0D01*
G01*
X56096000Y-115897000D01*
G75*
G02*
X56346000Y-116147000I0J-250000D01*
G01*
G37*
G36*
G01*
X56940000Y-108354000D02*
X56940000Y-108054000D01*
G75*
G02*
X57090000Y-107904000I150000J0D01*
G01*
X58740000Y-107904000D01*
G75*
G02*
X58890000Y-108054000I0J-150000D01*
G01*
X58890000Y-108354000D01*
G75*
G02*
X58740000Y-108504000I-150000J0D01*
G01*
X57090000Y-108504000D01*
G75*
G02*
X56940000Y-108354000I0J150000D01*
G01*
G37*
G36*
G01*
X56940000Y-109624000D02*
X56940000Y-109324000D01*
G75*
G02*
X57090000Y-109174000I150000J0D01*
G01*
X58740000Y-109174000D01*
G75*
G02*
X58890000Y-109324000I0J-150000D01*
G01*
X58890000Y-109624000D01*
G75*
G02*
X58740000Y-109774000I-150000J0D01*
G01*
X57090000Y-109774000D01*
G75*
G02*
X56940000Y-109624000I0J150000D01*
G01*
G37*
G36*
G01*
X56940000Y-110894000D02*
X56940000Y-110594000D01*
G75*
G02*
X57090000Y-110444000I150000J0D01*
G01*
X58740000Y-110444000D01*
G75*
G02*
X58890000Y-110594000I0J-150000D01*
G01*
X58890000Y-110894000D01*
G75*
G02*
X58740000Y-111044000I-150000J0D01*
G01*
X57090000Y-111044000D01*
G75*
G02*
X56940000Y-110894000I0J150000D01*
G01*
G37*
G36*
G01*
X56940000Y-112164000D02*
X56940000Y-111864000D01*
G75*
G02*
X57090000Y-111714000I150000J0D01*
G01*
X58740000Y-111714000D01*
G75*
G02*
X58890000Y-111864000I0J-150000D01*
G01*
X58890000Y-112164000D01*
G75*
G02*
X58740000Y-112314000I-150000J0D01*
G01*
X57090000Y-112314000D01*
G75*
G02*
X56940000Y-112164000I0J150000D01*
G01*
G37*
G36*
G01*
X61890000Y-112164000D02*
X61890000Y-111864000D01*
G75*
G02*
X62040000Y-111714000I150000J0D01*
G01*
X63690000Y-111714000D01*
G75*
G02*
X63840000Y-111864000I0J-150000D01*
G01*
X63840000Y-112164000D01*
G75*
G02*
X63690000Y-112314000I-150000J0D01*
G01*
X62040000Y-112314000D01*
G75*
G02*
X61890000Y-112164000I0J150000D01*
G01*
G37*
G36*
G01*
X61890000Y-110894000D02*
X61890000Y-110594000D01*
G75*
G02*
X62040000Y-110444000I150000J0D01*
G01*
X63690000Y-110444000D01*
G75*
G02*
X63840000Y-110594000I0J-150000D01*
G01*
X63840000Y-110894000D01*
G75*
G02*
X63690000Y-111044000I-150000J0D01*
G01*
X62040000Y-111044000D01*
G75*
G02*
X61890000Y-110894000I0J150000D01*
G01*
G37*
G36*
G01*
X61890000Y-109624000D02*
X61890000Y-109324000D01*
G75*
G02*
X62040000Y-109174000I150000J0D01*
G01*
X63690000Y-109174000D01*
G75*
G02*
X63840000Y-109324000I0J-150000D01*
G01*
X63840000Y-109624000D01*
G75*
G02*
X63690000Y-109774000I-150000J0D01*
G01*
X62040000Y-109774000D01*
G75*
G02*
X61890000Y-109624000I0J150000D01*
G01*
G37*
G36*
G01*
X61890000Y-108354000D02*
X61890000Y-108054000D01*
G75*
G02*
X62040000Y-107904000I150000J0D01*
G01*
X63690000Y-107904000D01*
G75*
G02*
X63840000Y-108054000I0J-150000D01*
G01*
X63840000Y-108354000D01*
G75*
G02*
X63690000Y-108504000I-150000J0D01*
G01*
X62040000Y-108504000D01*
G75*
G02*
X61890000Y-108354000I0J150000D01*
G01*
G37*
D13*
X35000000Y-75000000D03*
X35000000Y-115000000D03*
X150000000Y-115000000D03*
X150000000Y-75000000D03*
G36*
G01*
X44156956Y-117424500D02*
X43244456Y-117424500D01*
G75*
G02*
X43000706Y-117180750I0J243750D01*
G01*
X43000706Y-116693250D01*
G75*
G02*
X43244456Y-116449500I243750J0D01*
G01*
X44156956Y-116449500D01*
G75*
G02*
X44400706Y-116693250I0J-243750D01*
G01*
X44400706Y-117180750D01*
G75*
G02*
X44156956Y-117424500I-243750J0D01*
G01*
G37*
G36*
G01*
X44156956Y-115549500D02*
X43244456Y-115549500D01*
G75*
G02*
X43000706Y-115305750I0J243750D01*
G01*
X43000706Y-114818250D01*
G75*
G02*
X43244456Y-114574500I243750J0D01*
G01*
X44156956Y-114574500D01*
G75*
G02*
X44400706Y-114818250I0J-243750D01*
G01*
X44400706Y-115305750D01*
G75*
G02*
X44156956Y-115549500I-243750J0D01*
G01*
G37*
G36*
G01*
X47929706Y-114403000D02*
X48229706Y-114403000D01*
G75*
G02*
X48379706Y-114553000I0J-150000D01*
G01*
X48379706Y-115728000D01*
G75*
G02*
X48229706Y-115878000I-150000J0D01*
G01*
X47929706Y-115878000D01*
G75*
G02*
X47779706Y-115728000I0J150000D01*
G01*
X47779706Y-114553000D01*
G75*
G02*
X47929706Y-114403000I150000J0D01*
G01*
G37*
G36*
G01*
X46029706Y-114403000D02*
X46329706Y-114403000D01*
G75*
G02*
X46479706Y-114553000I0J-150000D01*
G01*
X46479706Y-115728000D01*
G75*
G02*
X46329706Y-115878000I-150000J0D01*
G01*
X46029706Y-115878000D01*
G75*
G02*
X45879706Y-115728000I0J150000D01*
G01*
X45879706Y-114553000D01*
G75*
G02*
X46029706Y-114403000I150000J0D01*
G01*
G37*
G36*
G01*
X46979706Y-116278000D02*
X47279706Y-116278000D01*
G75*
G02*
X47429706Y-116428000I0J-150000D01*
G01*
X47429706Y-117603000D01*
G75*
G02*
X47279706Y-117753000I-150000J0D01*
G01*
X46979706Y-117753000D01*
G75*
G02*
X46829706Y-117603000I0J150000D01*
G01*
X46829706Y-116428000D01*
G75*
G02*
X46979706Y-116278000I150000J0D01*
G01*
G37*
G36*
G01*
X54508500Y-116397000D02*
X54508500Y-116697000D01*
G75*
G02*
X54358500Y-116847000I-150000J0D01*
G01*
X53183500Y-116847000D01*
G75*
G02*
X53033500Y-116697000I0J150000D01*
G01*
X53033500Y-116397000D01*
G75*
G02*
X53183500Y-116247000I150000J0D01*
G01*
X54358500Y-116247000D01*
G75*
G02*
X54508500Y-116397000I0J-150000D01*
G01*
G37*
G36*
G01*
X54508500Y-114497000D02*
X54508500Y-114797000D01*
G75*
G02*
X54358500Y-114947000I-150000J0D01*
G01*
X53183500Y-114947000D01*
G75*
G02*
X53033500Y-114797000I0J150000D01*
G01*
X53033500Y-114497000D01*
G75*
G02*
X53183500Y-114347000I150000J0D01*
G01*
X54358500Y-114347000D01*
G75*
G02*
X54508500Y-114497000I0J-150000D01*
G01*
G37*
G36*
G01*
X52633500Y-115447000D02*
X52633500Y-115747000D01*
G75*
G02*
X52483500Y-115897000I-150000J0D01*
G01*
X51308500Y-115897000D01*
G75*
G02*
X51158500Y-115747000I0J150000D01*
G01*
X51158500Y-115447000D01*
G75*
G02*
X51308500Y-115297000I150000J0D01*
G01*
X52483500Y-115297000D01*
G75*
G02*
X52633500Y-115447000I0J-150000D01*
G01*
G37*
G36*
G01*
X75012500Y-112300000D02*
X75012500Y-113200000D01*
G75*
G02*
X74762500Y-113450000I-250000J0D01*
G01*
X74237500Y-113450000D01*
G75*
G02*
X73987500Y-113200000I0J250000D01*
G01*
X73987500Y-112300000D01*
G75*
G02*
X74237500Y-112050000I250000J0D01*
G01*
X74762500Y-112050000D01*
G75*
G02*
X75012500Y-112300000I0J-250000D01*
G01*
G37*
G36*
G01*
X73187500Y-112300000D02*
X73187500Y-113200000D01*
G75*
G02*
X72937500Y-113450000I-250000J0D01*
G01*
X72412500Y-113450000D01*
G75*
G02*
X72162500Y-113200000I0J250000D01*
G01*
X72162500Y-112300000D01*
G75*
G02*
X72412500Y-112050000I250000J0D01*
G01*
X72937500Y-112050000D01*
G75*
G02*
X73187500Y-112300000I0J-250000D01*
G01*
G37*
G36*
G01*
X81675000Y-114050000D02*
X81675000Y-114350000D01*
G75*
G02*
X81525000Y-114500000I-150000J0D01*
G01*
X80350000Y-114500000D01*
G75*
G02*
X80200000Y-114350000I0J150000D01*
G01*
X80200000Y-114050000D01*
G75*
G02*
X80350000Y-113900000I150000J0D01*
G01*
X81525000Y-113900000D01*
G75*
G02*
X81675000Y-114050000I0J-150000D01*
G01*
G37*
G36*
G01*
X81675000Y-112150000D02*
X81675000Y-112450000D01*
G75*
G02*
X81525000Y-112600000I-150000J0D01*
G01*
X80350000Y-112600000D01*
G75*
G02*
X80200000Y-112450000I0J150000D01*
G01*
X80200000Y-112150000D01*
G75*
G02*
X80350000Y-112000000I150000J0D01*
G01*
X81525000Y-112000000D01*
G75*
G02*
X81675000Y-112150000I0J-150000D01*
G01*
G37*
G36*
G01*
X79800000Y-113100000D02*
X79800000Y-113400000D01*
G75*
G02*
X79650000Y-113550000I-150000J0D01*
G01*
X78475000Y-113550000D01*
G75*
G02*
X78325000Y-113400000I0J150000D01*
G01*
X78325000Y-113100000D01*
G75*
G02*
X78475000Y-112950000I150000J0D01*
G01*
X79650000Y-112950000D01*
G75*
G02*
X79800000Y-113100000I0J-150000D01*
G01*
G37*
G36*
G01*
X52225000Y-88450000D02*
X51275000Y-88450000D01*
G75*
G02*
X51025000Y-88200000I0J250000D01*
G01*
X51025000Y-87700000D01*
G75*
G02*
X51275000Y-87450000I250000J0D01*
G01*
X52225000Y-87450000D01*
G75*
G02*
X52475000Y-87700000I0J-250000D01*
G01*
X52475000Y-88200000D01*
G75*
G02*
X52225000Y-88450000I-250000J0D01*
G01*
G37*
G36*
G01*
X52225000Y-86550000D02*
X51275000Y-86550000D01*
G75*
G02*
X51025000Y-86300000I0J250000D01*
G01*
X51025000Y-85800000D01*
G75*
G02*
X51275000Y-85550000I250000J0D01*
G01*
X52225000Y-85550000D01*
G75*
G02*
X52475000Y-85800000I0J-250000D01*
G01*
X52475000Y-86300000D01*
G75*
G02*
X52225000Y-86550000I-250000J0D01*
G01*
G37*
D14*
X119450000Y-117903440D03*
D15*
X119450000Y-115363440D03*
X119450000Y-112823440D03*
X119450000Y-110283440D03*
X119450000Y-107743440D03*
X119450000Y-105203440D03*
X119450000Y-102663440D03*
X119450000Y-100123440D03*
X119450000Y-97583440D03*
X119450000Y-95043440D03*
X119450000Y-92503440D03*
X119450000Y-89963440D03*
X119450000Y-87423440D03*
X119450000Y-84883440D03*
X119450000Y-82343440D03*
X119450000Y-79803440D03*
X119450000Y-77263440D03*
X119450000Y-74723440D03*
X119450000Y-72183440D03*
X94053680Y-72186160D03*
X94053680Y-74726160D03*
X94050000Y-77263440D03*
X94050000Y-79803440D03*
X94050000Y-82343440D03*
X94050000Y-84883440D03*
X94050000Y-87423440D03*
X94050000Y-89963440D03*
X94050000Y-92503440D03*
X94050000Y-95043440D03*
X94050000Y-97583440D03*
X94050000Y-100123440D03*
X94050000Y-102663440D03*
X94050000Y-105203440D03*
X94050000Y-107743440D03*
X94050000Y-110283440D03*
X94050000Y-112823440D03*
X94050000Y-115363440D03*
X94050000Y-117903440D03*
G36*
G01*
X61650000Y-97000000D02*
X60350000Y-97000000D01*
G75*
G02*
X60100000Y-96750000I0J250000D01*
G01*
X60100000Y-94750000D01*
G75*
G02*
X60350000Y-94500000I250000J0D01*
G01*
X61650000Y-94500000D01*
G75*
G02*
X61900000Y-94750000I0J-250000D01*
G01*
X61900000Y-96750000D01*
G75*
G02*
X61650000Y-97000000I-250000J0D01*
G01*
G37*
G36*
G01*
X61650000Y-93000000D02*
X60350000Y-93000000D01*
G75*
G02*
X60100000Y-92750000I0J250000D01*
G01*
X60100000Y-90750000D01*
G75*
G02*
X60350000Y-90500000I250000J0D01*
G01*
X61650000Y-90500000D01*
G75*
G02*
X61900000Y-90750000I0J-250000D01*
G01*
X61900000Y-92750000D01*
G75*
G02*
X61650000Y-93000000I-250000J0D01*
G01*
G37*
D16*
X66725000Y-115575000D03*
X66725000Y-116425000D03*
X65275000Y-116425000D03*
X65275000Y-115575000D03*
G36*
G01*
X88500000Y-99850000D02*
X88500000Y-101150000D01*
G75*
G02*
X88250000Y-101400000I-250000J0D01*
G01*
X86250000Y-101400000D01*
G75*
G02*
X86000000Y-101150000I0J250000D01*
G01*
X86000000Y-99850000D01*
G75*
G02*
X86250000Y-99600000I250000J0D01*
G01*
X88250000Y-99600000D01*
G75*
G02*
X88500000Y-99850000I0J-250000D01*
G01*
G37*
G36*
G01*
X84500000Y-99850000D02*
X84500000Y-101150000D01*
G75*
G02*
X84250000Y-101400000I-250000J0D01*
G01*
X82250000Y-101400000D01*
G75*
G02*
X82000000Y-101150000I0J250000D01*
G01*
X82000000Y-99850000D01*
G75*
G02*
X82250000Y-99600000I250000J0D01*
G01*
X84250000Y-99600000D01*
G75*
G02*
X84500000Y-99850000I0J-250000D01*
G01*
G37*
G36*
G01*
X45246500Y-77315000D02*
X46146500Y-77315000D01*
G75*
G02*
X46396500Y-77565000I0J-250000D01*
G01*
X46396500Y-78090000D01*
G75*
G02*
X46146500Y-78340000I-250000J0D01*
G01*
X45246500Y-78340000D01*
G75*
G02*
X44996500Y-78090000I0J250000D01*
G01*
X44996500Y-77565000D01*
G75*
G02*
X45246500Y-77315000I250000J0D01*
G01*
G37*
G36*
G01*
X45246500Y-79140000D02*
X46146500Y-79140000D01*
G75*
G02*
X46396500Y-79390000I0J-250000D01*
G01*
X46396500Y-79915000D01*
G75*
G02*
X46146500Y-80165000I-250000J0D01*
G01*
X45246500Y-80165000D01*
G75*
G02*
X44996500Y-79915000I0J250000D01*
G01*
X44996500Y-79390000D01*
G75*
G02*
X45246500Y-79140000I250000J0D01*
G01*
G37*
G36*
G01*
X84250000Y-97950000D02*
X82250000Y-97950000D01*
G75*
G02*
X82000000Y-97700000I0J250000D01*
G01*
X82000000Y-93800000D01*
G75*
G02*
X82250000Y-93550000I250000J0D01*
G01*
X84250000Y-93550000D01*
G75*
G02*
X84500000Y-93800000I0J-250000D01*
G01*
X84500000Y-97700000D01*
G75*
G02*
X84250000Y-97950000I-250000J0D01*
G01*
G37*
G36*
G01*
X84250000Y-90550000D02*
X82250000Y-90550000D01*
G75*
G02*
X82000000Y-90300000I0J250000D01*
G01*
X82000000Y-86400000D01*
G75*
G02*
X82250000Y-86150000I250000J0D01*
G01*
X84250000Y-86150000D01*
G75*
G02*
X84500000Y-86400000I0J-250000D01*
G01*
X84500000Y-90300000D01*
G75*
G02*
X84250000Y-90550000I-250000J0D01*
G01*
G37*
G36*
G01*
X42977750Y-72870000D02*
X43890250Y-72870000D01*
G75*
G02*
X44134000Y-73113750I0J-243750D01*
G01*
X44134000Y-73601250D01*
G75*
G02*
X43890250Y-73845000I-243750J0D01*
G01*
X42977750Y-73845000D01*
G75*
G02*
X42734000Y-73601250I0J243750D01*
G01*
X42734000Y-73113750D01*
G75*
G02*
X42977750Y-72870000I243750J0D01*
G01*
G37*
G36*
G01*
X42977750Y-74745000D02*
X43890250Y-74745000D01*
G75*
G02*
X44134000Y-74988750I0J-243750D01*
G01*
X44134000Y-75476250D01*
G75*
G02*
X43890250Y-75720000I-243750J0D01*
G01*
X42977750Y-75720000D01*
G75*
G02*
X42734000Y-75476250I0J243750D01*
G01*
X42734000Y-74988750D01*
G75*
G02*
X42977750Y-74745000I243750J0D01*
G01*
G37*
G36*
G01*
X55350000Y-90500000D02*
X56650000Y-90500000D01*
G75*
G02*
X56900000Y-90750000I0J-250000D01*
G01*
X56900000Y-92750000D01*
G75*
G02*
X56650000Y-93000000I-250000J0D01*
G01*
X55350000Y-93000000D01*
G75*
G02*
X55100000Y-92750000I0J250000D01*
G01*
X55100000Y-90750000D01*
G75*
G02*
X55350000Y-90500000I250000J0D01*
G01*
G37*
G36*
G01*
X55350000Y-94500000D02*
X56650000Y-94500000D01*
G75*
G02*
X56900000Y-94750000I0J-250000D01*
G01*
X56900000Y-96750000D01*
G75*
G02*
X56650000Y-97000000I-250000J0D01*
G01*
X55350000Y-97000000D01*
G75*
G02*
X55100000Y-96750000I0J250000D01*
G01*
X55100000Y-94750000D01*
G75*
G02*
X55350000Y-94500000I250000J0D01*
G01*
G37*
G36*
G01*
X132662500Y-113850000D02*
X132662500Y-112950000D01*
G75*
G02*
X132912500Y-112700000I250000J0D01*
G01*
X133437500Y-112700000D01*
G75*
G02*
X133687500Y-112950000I0J-250000D01*
G01*
X133687500Y-113850000D01*
G75*
G02*
X133437500Y-114100000I-250000J0D01*
G01*
X132912500Y-114100000D01*
G75*
G02*
X132662500Y-113850000I0J250000D01*
G01*
G37*
G36*
G01*
X134487500Y-113850000D02*
X134487500Y-112950000D01*
G75*
G02*
X134737500Y-112700000I250000J0D01*
G01*
X135262500Y-112700000D01*
G75*
G02*
X135512500Y-112950000I0J-250000D01*
G01*
X135512500Y-113850000D01*
G75*
G02*
X135262500Y-114100000I-250000J0D01*
G01*
X134737500Y-114100000D01*
G75*
G02*
X134487500Y-113850000I0J250000D01*
G01*
G37*
G36*
G01*
X81675000Y-117550000D02*
X81675000Y-117850000D01*
G75*
G02*
X81525000Y-118000000I-150000J0D01*
G01*
X80350000Y-118000000D01*
G75*
G02*
X80200000Y-117850000I0J150000D01*
G01*
X80200000Y-117550000D01*
G75*
G02*
X80350000Y-117400000I150000J0D01*
G01*
X81525000Y-117400000D01*
G75*
G02*
X81675000Y-117550000I0J-150000D01*
G01*
G37*
G36*
G01*
X81675000Y-115650000D02*
X81675000Y-115950000D01*
G75*
G02*
X81525000Y-116100000I-150000J0D01*
G01*
X80350000Y-116100000D01*
G75*
G02*
X80200000Y-115950000I0J150000D01*
G01*
X80200000Y-115650000D01*
G75*
G02*
X80350000Y-115500000I150000J0D01*
G01*
X81525000Y-115500000D01*
G75*
G02*
X81675000Y-115650000I0J-150000D01*
G01*
G37*
G36*
G01*
X79800000Y-116600000D02*
X79800000Y-116900000D01*
G75*
G02*
X79650000Y-117050000I-150000J0D01*
G01*
X78475000Y-117050000D01*
G75*
G02*
X78325000Y-116900000I0J150000D01*
G01*
X78325000Y-116600000D01*
G75*
G02*
X78475000Y-116450000I150000J0D01*
G01*
X79650000Y-116450000D01*
G75*
G02*
X79800000Y-116600000I0J-150000D01*
G01*
G37*
G36*
G01*
X67650000Y-88200000D02*
X67050000Y-88200000D01*
G75*
G02*
X66800000Y-87950000I0J250000D01*
G01*
X66800000Y-83850000D01*
G75*
G02*
X67050000Y-83600000I250000J0D01*
G01*
X67650000Y-83600000D01*
G75*
G02*
X67900000Y-83850000I0J-250000D01*
G01*
X67900000Y-87950000D01*
G75*
G02*
X67650000Y-88200000I-250000J0D01*
G01*
G37*
G36*
G01*
X69350000Y-88200000D02*
X68750000Y-88200000D01*
G75*
G02*
X68500000Y-87950000I0J250000D01*
G01*
X68500000Y-83850000D01*
G75*
G02*
X68750000Y-83600000I250000J0D01*
G01*
X69350000Y-83600000D01*
G75*
G02*
X69600000Y-83850000I0J-250000D01*
G01*
X69600000Y-87950000D01*
G75*
G02*
X69350000Y-88200000I-250000J0D01*
G01*
G37*
G36*
G01*
X71050000Y-88200000D02*
X70450000Y-88200000D01*
G75*
G02*
X70200000Y-87950000I0J250000D01*
G01*
X70200000Y-83850000D01*
G75*
G02*
X70450000Y-83600000I250000J0D01*
G01*
X71050000Y-83600000D01*
G75*
G02*
X71300000Y-83850000I0J-250000D01*
G01*
X71300000Y-87950000D01*
G75*
G02*
X71050000Y-88200000I-250000J0D01*
G01*
G37*
G36*
G01*
X75899998Y-81450000D02*
X65600002Y-81450000D01*
G75*
G02*
X65350000Y-81199998I0J250002D01*
G01*
X65350000Y-72300002D01*
G75*
G02*
X65600002Y-72050000I250002J0D01*
G01*
X75899998Y-72050000D01*
G75*
G02*
X76150000Y-72300002I0J-250002D01*
G01*
X76150000Y-81199998D01*
G75*
G02*
X75899998Y-81450000I-250002J0D01*
G01*
G37*
G36*
G01*
X72750000Y-88200000D02*
X72150000Y-88200000D01*
G75*
G02*
X71900000Y-87950000I0J250000D01*
G01*
X71900000Y-83850000D01*
G75*
G02*
X72150000Y-83600000I250000J0D01*
G01*
X72750000Y-83600000D01*
G75*
G02*
X73000000Y-83850000I0J-250000D01*
G01*
X73000000Y-87950000D01*
G75*
G02*
X72750000Y-88200000I-250000J0D01*
G01*
G37*
G36*
G01*
X74450000Y-88200000D02*
X73850000Y-88200000D01*
G75*
G02*
X73600000Y-87950000I0J250000D01*
G01*
X73600000Y-83850000D01*
G75*
G02*
X73850000Y-83600000I250000J0D01*
G01*
X74450000Y-83600000D01*
G75*
G02*
X74700000Y-83850000I0J-250000D01*
G01*
X74700000Y-87950000D01*
G75*
G02*
X74450000Y-88200000I-250000J0D01*
G01*
G37*
G36*
G01*
X45263750Y-72870000D02*
X46176250Y-72870000D01*
G75*
G02*
X46420000Y-73113750I0J-243750D01*
G01*
X46420000Y-73601250D01*
G75*
G02*
X46176250Y-73845000I-243750J0D01*
G01*
X45263750Y-73845000D01*
G75*
G02*
X45020000Y-73601250I0J243750D01*
G01*
X45020000Y-73113750D01*
G75*
G02*
X45263750Y-72870000I243750J0D01*
G01*
G37*
G36*
G01*
X45263750Y-74745000D02*
X46176250Y-74745000D01*
G75*
G02*
X46420000Y-74988750I0J-243750D01*
G01*
X46420000Y-75476250D01*
G75*
G02*
X46176250Y-75720000I-243750J0D01*
G01*
X45263750Y-75720000D01*
G75*
G02*
X45020000Y-75476250I0J243750D01*
G01*
X45020000Y-74988750D01*
G75*
G02*
X45263750Y-74745000I243750J0D01*
G01*
G37*
G36*
G01*
X89087500Y-115950000D02*
X89087500Y-116850000D01*
G75*
G02*
X88837500Y-117100000I-250000J0D01*
G01*
X88312500Y-117100000D01*
G75*
G02*
X88062500Y-116850000I0J250000D01*
G01*
X88062500Y-115950000D01*
G75*
G02*
X88312500Y-115700000I250000J0D01*
G01*
X88837500Y-115700000D01*
G75*
G02*
X89087500Y-115950000I0J-250000D01*
G01*
G37*
G36*
G01*
X87262500Y-115950000D02*
X87262500Y-116850000D01*
G75*
G02*
X87012500Y-117100000I-250000J0D01*
G01*
X86487500Y-117100000D01*
G75*
G02*
X86237500Y-116850000I0J250000D01*
G01*
X86237500Y-115950000D01*
G75*
G02*
X86487500Y-115700000I250000J0D01*
G01*
X87012500Y-115700000D01*
G75*
G02*
X87262500Y-115950000I0J-250000D01*
G01*
G37*
D17*
X127200000Y-109750000D03*
X135000000Y-109750000D03*
G36*
G01*
X75012500Y-116300000D02*
X75012500Y-117200000D01*
G75*
G02*
X74762500Y-117450000I-250000J0D01*
G01*
X74237500Y-117450000D01*
G75*
G02*
X73987500Y-117200000I0J250000D01*
G01*
X73987500Y-116300000D01*
G75*
G02*
X74237500Y-116050000I250000J0D01*
G01*
X74762500Y-116050000D01*
G75*
G02*
X75012500Y-116300000I0J-250000D01*
G01*
G37*
G36*
G01*
X73187500Y-116300000D02*
X73187500Y-117200000D01*
G75*
G02*
X72937500Y-117450000I-250000J0D01*
G01*
X72412500Y-117450000D01*
G75*
G02*
X72162500Y-117200000I0J250000D01*
G01*
X72162500Y-116300000D01*
G75*
G02*
X72412500Y-116050000I250000J0D01*
G01*
X72937500Y-116050000D01*
G75*
G02*
X73187500Y-116300000I0J-250000D01*
G01*
G37*
G36*
G01*
X51350000Y-90500000D02*
X52650000Y-90500000D01*
G75*
G02*
X52900000Y-90750000I0J-250000D01*
G01*
X52900000Y-92750000D01*
G75*
G02*
X52650000Y-93000000I-250000J0D01*
G01*
X51350000Y-93000000D01*
G75*
G02*
X51100000Y-92750000I0J250000D01*
G01*
X51100000Y-90750000D01*
G75*
G02*
X51350000Y-90500000I250000J0D01*
G01*
G37*
G36*
G01*
X51350000Y-94500000D02*
X52650000Y-94500000D01*
G75*
G02*
X52900000Y-94750000I0J-250000D01*
G01*
X52900000Y-96750000D01*
G75*
G02*
X52650000Y-97000000I-250000J0D01*
G01*
X51350000Y-97000000D01*
G75*
G02*
X51100000Y-96750000I0J250000D01*
G01*
X51100000Y-94750000D01*
G75*
G02*
X51350000Y-94500000I250000J0D01*
G01*
G37*
G36*
G01*
X89087500Y-113000000D02*
X89087500Y-113900000D01*
G75*
G02*
X88837500Y-114150000I-250000J0D01*
G01*
X88312500Y-114150000D01*
G75*
G02*
X88062500Y-113900000I0J250000D01*
G01*
X88062500Y-113000000D01*
G75*
G02*
X88312500Y-112750000I250000J0D01*
G01*
X88837500Y-112750000D01*
G75*
G02*
X89087500Y-113000000I0J-250000D01*
G01*
G37*
G36*
G01*
X87262500Y-113000000D02*
X87262500Y-113900000D01*
G75*
G02*
X87012500Y-114150000I-250000J0D01*
G01*
X86487500Y-114150000D01*
G75*
G02*
X86237500Y-113900000I0J250000D01*
G01*
X86237500Y-113000000D01*
G75*
G02*
X86487500Y-112750000I250000J0D01*
G01*
X87012500Y-112750000D01*
G75*
G02*
X87262500Y-113000000I0J-250000D01*
G01*
G37*
G36*
G01*
X89087500Y-110050000D02*
X89087500Y-110950000D01*
G75*
G02*
X88837500Y-111200000I-250000J0D01*
G01*
X88312500Y-111200000D01*
G75*
G02*
X88062500Y-110950000I0J250000D01*
G01*
X88062500Y-110050000D01*
G75*
G02*
X88312500Y-109800000I250000J0D01*
G01*
X88837500Y-109800000D01*
G75*
G02*
X89087500Y-110050000I0J-250000D01*
G01*
G37*
G36*
G01*
X87262500Y-110050000D02*
X87262500Y-110950000D01*
G75*
G02*
X87012500Y-111200000I-250000J0D01*
G01*
X86487500Y-111200000D01*
G75*
G02*
X86237500Y-110950000I0J250000D01*
G01*
X86237500Y-110050000D01*
G75*
G02*
X86487500Y-109800000I250000J0D01*
G01*
X87012500Y-109800000D01*
G75*
G02*
X87262500Y-110050000I0J-250000D01*
G01*
G37*
G36*
G01*
X75012500Y-114300000D02*
X75012500Y-115200000D01*
G75*
G02*
X74762500Y-115450000I-250000J0D01*
G01*
X74237500Y-115450000D01*
G75*
G02*
X73987500Y-115200000I0J250000D01*
G01*
X73987500Y-114300000D01*
G75*
G02*
X74237500Y-114050000I250000J0D01*
G01*
X74762500Y-114050000D01*
G75*
G02*
X75012500Y-114300000I0J-250000D01*
G01*
G37*
G36*
G01*
X73187500Y-114300000D02*
X73187500Y-115200000D01*
G75*
G02*
X72937500Y-115450000I-250000J0D01*
G01*
X72412500Y-115450000D01*
G75*
G02*
X72162500Y-115200000I0J250000D01*
G01*
X72162500Y-114300000D01*
G75*
G02*
X72412500Y-114050000I250000J0D01*
G01*
X72937500Y-114050000D01*
G75*
G02*
X73187500Y-114300000I0J-250000D01*
G01*
G37*
G36*
G01*
X59000000Y-88150000D02*
X57000000Y-88150000D01*
G75*
G02*
X56750000Y-87900000I0J250000D01*
G01*
X56750000Y-84000000D01*
G75*
G02*
X57000000Y-83750000I250000J0D01*
G01*
X59000000Y-83750000D01*
G75*
G02*
X59250000Y-84000000I0J-250000D01*
G01*
X59250000Y-87900000D01*
G75*
G02*
X59000000Y-88150000I-250000J0D01*
G01*
G37*
G36*
G01*
X59000000Y-80750000D02*
X57000000Y-80750000D01*
G75*
G02*
X56750000Y-80500000I0J250000D01*
G01*
X56750000Y-76600000D01*
G75*
G02*
X57000000Y-76350000I250000J0D01*
G01*
X59000000Y-76350000D01*
G75*
G02*
X59250000Y-76600000I0J-250000D01*
G01*
X59250000Y-80500000D01*
G75*
G02*
X59000000Y-80750000I-250000J0D01*
G01*
G37*
D18*
X65125000Y-95750000D03*
X76375000Y-95750000D03*
G36*
G01*
X42984000Y-77315000D02*
X43884000Y-77315000D01*
G75*
G02*
X44134000Y-77565000I0J-250000D01*
G01*
X44134000Y-78090000D01*
G75*
G02*
X43884000Y-78340000I-250000J0D01*
G01*
X42984000Y-78340000D01*
G75*
G02*
X42734000Y-78090000I0J250000D01*
G01*
X42734000Y-77565000D01*
G75*
G02*
X42984000Y-77315000I250000J0D01*
G01*
G37*
G36*
G01*
X42984000Y-79140000D02*
X43884000Y-79140000D01*
G75*
G02*
X44134000Y-79390000I0J-250000D01*
G01*
X44134000Y-79915000D01*
G75*
G02*
X43884000Y-80165000I-250000J0D01*
G01*
X42984000Y-80165000D01*
G75*
G02*
X42734000Y-79915000I0J250000D01*
G01*
X42734000Y-79390000D01*
G75*
G02*
X42984000Y-79140000I250000J0D01*
G01*
G37*
G36*
G01*
X142837500Y-112950000D02*
X142837500Y-113850000D01*
G75*
G02*
X142587500Y-114100000I-250000J0D01*
G01*
X142062500Y-114100000D01*
G75*
G02*
X141812500Y-113850000I0J250000D01*
G01*
X141812500Y-112950000D01*
G75*
G02*
X142062500Y-112700000I250000J0D01*
G01*
X142587500Y-112700000D01*
G75*
G02*
X142837500Y-112950000I0J-250000D01*
G01*
G37*
G36*
G01*
X141012500Y-112950000D02*
X141012500Y-113850000D01*
G75*
G02*
X140762500Y-114100000I-250000J0D01*
G01*
X140237500Y-114100000D01*
G75*
G02*
X139987500Y-113850000I0J250000D01*
G01*
X139987500Y-112950000D01*
G75*
G02*
X140237500Y-112700000I250000J0D01*
G01*
X140762500Y-112700000D01*
G75*
G02*
X141012500Y-112950000I0J-250000D01*
G01*
G37*
G36*
G01*
X81675000Y-110300000D02*
X81675000Y-110600000D01*
G75*
G02*
X81525000Y-110750000I-150000J0D01*
G01*
X80350000Y-110750000D01*
G75*
G02*
X80200000Y-110600000I0J150000D01*
G01*
X80200000Y-110300000D01*
G75*
G02*
X80350000Y-110150000I150000J0D01*
G01*
X81525000Y-110150000D01*
G75*
G02*
X81675000Y-110300000I0J-150000D01*
G01*
G37*
G36*
G01*
X81675000Y-108400000D02*
X81675000Y-108700000D01*
G75*
G02*
X81525000Y-108850000I-150000J0D01*
G01*
X80350000Y-108850000D01*
G75*
G02*
X80200000Y-108700000I0J150000D01*
G01*
X80200000Y-108400000D01*
G75*
G02*
X80350000Y-108250000I150000J0D01*
G01*
X81525000Y-108250000D01*
G75*
G02*
X81675000Y-108400000I0J-150000D01*
G01*
G37*
G36*
G01*
X79800000Y-109350000D02*
X79800000Y-109650000D01*
G75*
G02*
X79650000Y-109800000I-150000J0D01*
G01*
X78475000Y-109800000D01*
G75*
G02*
X78325000Y-109650000I0J150000D01*
G01*
X78325000Y-109350000D01*
G75*
G02*
X78475000Y-109200000I150000J0D01*
G01*
X79650000Y-109200000D01*
G75*
G02*
X79800000Y-109350000I0J-150000D01*
G01*
G37*
D19*
X133630000Y-80000000D03*
X136170000Y-80000000D03*
X138710000Y-80000000D03*
X141250000Y-80000000D03*
D17*
X148250000Y-109750000D03*
X140450000Y-109750000D03*
M02*
