G04 #@! TF.GenerationSoftware,KiCad,Pcbnew,7.0.2.1-36-g582732918d-dirty-deb11*
G04 #@! TF.CreationDate,2023-06-27T11:17:07+00:00*
G04 #@! TF.ProjectId,LocoBuffer,4c6f636f-4275-4666-9665-722e6b696361,rev?*
G04 #@! TF.SameCoordinates,Original*
G04 #@! TF.FileFunction,Copper,L4,Bot*
G04 #@! TF.FilePolarity,Positive*
%FSLAX46Y46*%
G04 Gerber Fmt 4.6, Leading zero omitted, Abs format (unit mm)*
G04 Created by KiCad (PCBNEW 7.0.2.1-36-g582732918d-dirty-deb11) date 2023-06-27 11:17:07*
%MOMM*%
%LPD*%
G01*
G04 APERTURE LIST*
G04 #@! TA.AperFunction,ComponentPad*
%ADD10R,1.398000X1.398000*%
G04 #@! TD*
G04 #@! TA.AperFunction,ComponentPad*
%ADD11C,1.398000*%
G04 #@! TD*
G04 #@! TA.AperFunction,ComponentPad*
%ADD12C,5.700000*%
G04 #@! TD*
G04 #@! TA.AperFunction,ComponentPad*
%ADD13R,2.000000X1.200000*%
G04 #@! TD*
G04 #@! TA.AperFunction,ComponentPad*
%ADD14O,2.000000X1.200000*%
G04 #@! TD*
G04 #@! TA.AperFunction,ComponentPad*
%ADD15R,1.700000X1.700000*%
G04 #@! TD*
G04 #@! TA.AperFunction,ComponentPad*
%ADD16O,1.700000X1.700000*%
G04 #@! TD*
G04 #@! TA.AperFunction,ViaPad*
%ADD17C,0.800000*%
G04 #@! TD*
G04 #@! TA.AperFunction,Conductor*
%ADD18C,0.400000*%
G04 #@! TD*
G04 #@! TA.AperFunction,Conductor*
%ADD19C,0.250000*%
G04 #@! TD*
G04 APERTURE END LIST*
D10*
X43080000Y-90540000D03*
D11*
X41050000Y-89524000D03*
X43080000Y-88508000D03*
X41048000Y-87492000D03*
X43080000Y-86476000D03*
X41050000Y-85460000D03*
D10*
X43080000Y-104540000D03*
D11*
X41050000Y-103524000D03*
X43080000Y-102508000D03*
X41048000Y-101492000D03*
X43080000Y-100476000D03*
X41050000Y-99460000D03*
D12*
X35000000Y-75000000D03*
X35000000Y-115000000D03*
X100000000Y-115000000D03*
X100000000Y-75000000D03*
D13*
X92710000Y-117403440D03*
D14*
X92710000Y-114863440D03*
X92710000Y-112323440D03*
X92710000Y-109783440D03*
X92710000Y-107243440D03*
X92710000Y-104703440D03*
X92710000Y-102163440D03*
X92710000Y-99623440D03*
X92710000Y-97083440D03*
X92710000Y-94543440D03*
X92710000Y-92003440D03*
X92710000Y-89463440D03*
X92710000Y-86923440D03*
X92710000Y-84383440D03*
X92710000Y-81843440D03*
X92710000Y-79303440D03*
X92710000Y-76763440D03*
X92710000Y-74223440D03*
X92710000Y-71683440D03*
X67313680Y-71686160D03*
X67313680Y-74226160D03*
X67310000Y-76763440D03*
X67310000Y-79303440D03*
X67310000Y-81843440D03*
X67310000Y-84383440D03*
X67310000Y-86923440D03*
X67310000Y-89463440D03*
X67310000Y-92003440D03*
X67310000Y-94543440D03*
X67310000Y-97083440D03*
X67310000Y-99623440D03*
X67310000Y-102163440D03*
X67310000Y-104703440D03*
X67310000Y-107243440D03*
X67310000Y-109783440D03*
X67310000Y-112323440D03*
X67310000Y-114863440D03*
X67310000Y-117403440D03*
D15*
X100250000Y-86920000D03*
D16*
X100250000Y-89460000D03*
X100250000Y-92000000D03*
X100250000Y-94540000D03*
D17*
X41033706Y-109117500D03*
X50800000Y-110109000D03*
X57762000Y-103675000D03*
X41529000Y-79629000D03*
X62865000Y-106807000D03*
X42291000Y-118999000D03*
X62738000Y-105410000D03*
X57277000Y-118110000D03*
X48133000Y-111252000D03*
D18*
X45212000Y-91567000D02*
X45212000Y-103378000D01*
X44050000Y-104540000D02*
X43080000Y-104540000D01*
X43080000Y-90540000D02*
X44185000Y-90540000D01*
X45212000Y-103378000D02*
X44050000Y-104540000D01*
X44185000Y-90540000D02*
X45212000Y-91567000D01*
D19*
X62738000Y-105410000D02*
X45085000Y-105410000D01*
X42291000Y-108204000D02*
X42291000Y-118999000D01*
X42291000Y-108204000D02*
X45085000Y-105410000D01*
X48260000Y-111379000D02*
X48133000Y-111252000D01*
X48260000Y-116967000D02*
X48260000Y-111379000D01*
X49403000Y-118110000D02*
X48260000Y-116967000D01*
X57277000Y-118110000D02*
X49403000Y-118110000D01*
D18*
X41050000Y-99460000D02*
X41050000Y-92104000D01*
X41050000Y-92104000D02*
X39624000Y-90678000D01*
X39624000Y-90678000D02*
X39624000Y-86886000D01*
X39624000Y-86886000D02*
X41050000Y-85460000D01*
G04 #@! TA.AperFunction,Conductor*
G36*
X104916621Y-70045502D02*
G01*
X104963114Y-70099158D01*
X104974500Y-70151500D01*
X104974500Y-119848500D01*
X104954498Y-119916621D01*
X104900842Y-119963114D01*
X104848500Y-119974500D01*
X42881760Y-119974500D01*
X42813639Y-119954498D01*
X42767146Y-119900842D01*
X42757042Y-119830568D01*
X42786536Y-119765988D01*
X42807699Y-119746564D01*
X42834880Y-119726815D01*
X42902253Y-119677866D01*
X43030040Y-119535944D01*
X43125527Y-119370556D01*
X43184542Y-119188928D01*
X43204504Y-118999000D01*
X43184542Y-118809072D01*
X43125527Y-118627444D01*
X43055082Y-118505430D01*
X43030042Y-118462059D01*
X43030041Y-118462058D01*
X43030040Y-118462056D01*
X42956862Y-118380782D01*
X42926146Y-118316777D01*
X42924499Y-118296486D01*
X42924499Y-111251999D01*
X47219496Y-111251999D01*
X47239457Y-111441927D01*
X47241475Y-111448137D01*
X47298473Y-111623556D01*
X47298476Y-111623561D01*
X47393958Y-111788941D01*
X47393965Y-111788951D01*
X47521744Y-111930864D01*
X47574560Y-111969237D01*
X47617914Y-112025459D01*
X47626499Y-112071173D01*
X47626499Y-116883153D01*
X47624751Y-116898993D01*
X47625043Y-116899021D01*
X47624297Y-116906906D01*
X47626469Y-116975973D01*
X47626500Y-116977953D01*
X47626500Y-117006851D01*
X47626501Y-117006872D01*
X47627378Y-117013820D01*
X47627844Y-117019732D01*
X47629326Y-117066888D01*
X47629327Y-117066893D01*
X47634977Y-117086339D01*
X47638986Y-117105697D01*
X47641525Y-117125793D01*
X47641526Y-117125799D01*
X47658893Y-117169662D01*
X47660816Y-117175279D01*
X47673982Y-117220593D01*
X47684294Y-117238031D01*
X47692988Y-117255779D01*
X47700444Y-117274609D01*
X47700450Y-117274620D01*
X47728177Y-117312783D01*
X47731437Y-117317746D01*
X47755460Y-117358365D01*
X47769779Y-117372684D01*
X47782617Y-117387714D01*
X47792156Y-117400843D01*
X47794528Y-117404107D01*
X47822794Y-117427491D01*
X47830886Y-117434185D01*
X47835267Y-117438171D01*
X48637444Y-118240349D01*
X48895755Y-118498660D01*
X48905720Y-118511097D01*
X48905947Y-118510910D01*
X48910999Y-118517017D01*
X48961372Y-118564320D01*
X48962761Y-118565666D01*
X48973008Y-118575914D01*
X48983224Y-118586130D01*
X48983228Y-118586133D01*
X48983230Y-118586135D01*
X48988782Y-118590442D01*
X48993269Y-118594273D01*
X49015959Y-118615581D01*
X49027677Y-118626585D01*
X49027679Y-118626586D01*
X49045428Y-118636343D01*
X49061953Y-118647198D01*
X49077959Y-118659614D01*
X49119686Y-118677670D01*
X49121262Y-118678352D01*
X49126583Y-118680958D01*
X49167940Y-118703695D01*
X49167948Y-118703697D01*
X49187558Y-118708732D01*
X49206267Y-118715137D01*
X49224855Y-118723181D01*
X49271477Y-118730564D01*
X49277262Y-118731763D01*
X49322970Y-118743500D01*
X49343224Y-118743500D01*
X49362934Y-118745051D01*
X49365141Y-118745400D01*
X49382943Y-118748220D01*
X49416870Y-118745012D01*
X49429917Y-118743780D01*
X49435850Y-118743500D01*
X56568800Y-118743500D01*
X56636921Y-118763502D01*
X56662437Y-118785190D01*
X56665747Y-118788866D01*
X56820248Y-118901118D01*
X56994712Y-118978794D01*
X57181513Y-119018500D01*
X57372487Y-119018500D01*
X57559288Y-118978794D01*
X57733752Y-118901118D01*
X57888253Y-118788866D01*
X57929101Y-118743500D01*
X58016034Y-118646951D01*
X58016035Y-118646949D01*
X58016040Y-118646944D01*
X58111527Y-118481556D01*
X58170542Y-118299928D01*
X58190504Y-118110000D01*
X58170542Y-117920072D01*
X58111527Y-117738444D01*
X58016040Y-117573056D01*
X58016038Y-117573054D01*
X58016034Y-117573048D01*
X57888255Y-117431135D01*
X57733752Y-117318882D01*
X57559288Y-117241206D01*
X57372487Y-117201500D01*
X57181513Y-117201500D01*
X56994711Y-117241206D01*
X56820247Y-117318882D01*
X56665747Y-117431133D01*
X56662437Y-117434810D01*
X56601991Y-117472050D01*
X56568800Y-117476500D01*
X49717595Y-117476500D01*
X49649474Y-117456498D01*
X49628499Y-117439595D01*
X49338344Y-117149440D01*
X65827126Y-117149440D01*
X66998314Y-117149440D01*
X66982359Y-117165395D01*
X66924835Y-117278292D01*
X66905014Y-117403440D01*
X66924835Y-117528588D01*
X66982359Y-117641485D01*
X66998314Y-117657440D01*
X65831480Y-117657440D01*
X65858175Y-117767478D01*
X65858177Y-117767485D01*
X65946077Y-117959955D01*
X65946079Y-117959959D01*
X66068821Y-118132327D01*
X66068822Y-118132328D01*
X66221964Y-118278349D01*
X66221965Y-118278350D01*
X66399975Y-118392748D01*
X66399980Y-118392751D01*
X66596414Y-118471392D01*
X66596420Y-118471393D01*
X66804194Y-118511439D01*
X66804203Y-118511440D01*
X67056000Y-118511440D01*
X67056000Y-117715126D01*
X67071955Y-117731081D01*
X67184852Y-117788605D01*
X67278519Y-117803440D01*
X67341481Y-117803440D01*
X67435148Y-117788605D01*
X67548045Y-117731081D01*
X67564000Y-117715126D01*
X67564000Y-118511440D01*
X67762779Y-118511440D01*
X67762800Y-118511438D01*
X67920633Y-118496367D01*
X67920648Y-118496364D01*
X68123677Y-118436750D01*
X68311754Y-118339789D01*
X68478085Y-118208984D01*
X68478091Y-118208979D01*
X68614036Y-118052089D01*
X91201500Y-118052089D01*
X91208009Y-118112636D01*
X91208011Y-118112644D01*
X91259110Y-118249642D01*
X91259112Y-118249647D01*
X91346738Y-118366701D01*
X91463792Y-118454327D01*
X91463794Y-118454328D01*
X91463796Y-118454329D01*
X91484513Y-118462056D01*
X91600795Y-118505428D01*
X91600803Y-118505430D01*
X91661350Y-118511939D01*
X91661355Y-118511939D01*
X91661362Y-118511940D01*
X91661368Y-118511940D01*
X93758632Y-118511940D01*
X93758638Y-118511940D01*
X93758645Y-118511939D01*
X93758649Y-118511939D01*
X93819196Y-118505430D01*
X93819199Y-118505429D01*
X93819201Y-118505429D01*
X93956204Y-118454329D01*
X94073261Y-118366701D01*
X94123248Y-118299927D01*
X94160887Y-118249647D01*
X94160887Y-118249646D01*
X94160889Y-118249644D01*
X94211989Y-118112641D01*
X94218500Y-118052078D01*
X94218500Y-116754802D01*
X94216239Y-116733768D01*
X94211990Y-116694243D01*
X94211988Y-116694235D01*
X94176054Y-116597895D01*
X94160889Y-116557236D01*
X94160888Y-116557234D01*
X94160887Y-116557232D01*
X94073261Y-116440178D01*
X93956207Y-116352552D01*
X93956202Y-116352550D01*
X93819204Y-116301451D01*
X93819196Y-116301449D01*
X93758649Y-116294940D01*
X93758638Y-116294940D01*
X91661362Y-116294940D01*
X91661350Y-116294940D01*
X91600803Y-116301449D01*
X91600795Y-116301451D01*
X91463797Y-116352550D01*
X91463792Y-116352552D01*
X91346738Y-116440178D01*
X91259112Y-116557232D01*
X91259110Y-116557237D01*
X91208011Y-116694235D01*
X91208009Y-116694243D01*
X91201500Y-116754790D01*
X91201500Y-118052089D01*
X68614036Y-118052089D01*
X68616656Y-118049065D01*
X68616657Y-118049064D01*
X68722454Y-117865817D01*
X68722458Y-117865808D01*
X68791662Y-117665855D01*
X68791664Y-117665849D01*
X68792873Y-117657440D01*
X67621686Y-117657440D01*
X67637641Y-117641485D01*
X67695165Y-117528588D01*
X67714986Y-117403440D01*
X67695165Y-117278292D01*
X67637641Y-117165395D01*
X67621686Y-117149440D01*
X68788519Y-117149440D01*
X68788519Y-117149439D01*
X68761824Y-117039401D01*
X68761822Y-117039394D01*
X68673922Y-116846924D01*
X68673920Y-116846920D01*
X68551178Y-116674552D01*
X68551177Y-116674551D01*
X68398035Y-116528530D01*
X68398034Y-116528529D01*
X68220024Y-116414131D01*
X68220019Y-116414128D01*
X68023585Y-116335487D01*
X68023579Y-116335486D01*
X67815805Y-116295440D01*
X67564000Y-116295440D01*
X67564000Y-117091753D01*
X67548045Y-117075799D01*
X67435148Y-117018275D01*
X67341481Y-117003440D01*
X67278519Y-117003440D01*
X67184852Y-117018275D01*
X67071955Y-117075799D01*
X67056000Y-117091753D01*
X67056000Y-116295440D01*
X66857221Y-116295440D01*
X66857199Y-116295441D01*
X66699366Y-116310512D01*
X66699351Y-116310515D01*
X66496322Y-116370129D01*
X66308245Y-116467090D01*
X66141914Y-116597895D01*
X66141908Y-116597900D01*
X66003343Y-116757814D01*
X66003342Y-116757815D01*
X65897545Y-116941062D01*
X65897541Y-116941071D01*
X65828337Y-117141024D01*
X65828335Y-117141030D01*
X65827126Y-117149440D01*
X49338344Y-117149440D01*
X48930404Y-116741499D01*
X48896379Y-116679187D01*
X48893500Y-116652404D01*
X48893500Y-114810454D01*
X65797718Y-114810454D01*
X65807790Y-115021903D01*
X65807792Y-115021916D01*
X65857700Y-115227638D01*
X65857702Y-115227644D01*
X65945644Y-115420211D01*
X65945648Y-115420218D01*
X66068435Y-115592648D01*
X66068439Y-115592653D01*
X66068441Y-115592655D01*
X66221654Y-115738743D01*
X66399746Y-115853196D01*
X66596279Y-115931876D01*
X66804151Y-115971940D01*
X66804155Y-115971940D01*
X67762801Y-115971940D01*
X67762803Y-115971940D01*
X67920739Y-115956859D01*
X68123862Y-115897217D01*
X68312026Y-115800211D01*
X68478432Y-115669348D01*
X68617065Y-115509358D01*
X68722913Y-115326022D01*
X68792153Y-115125967D01*
X68810264Y-115000001D01*
X68822281Y-114916425D01*
X68817233Y-114810454D01*
X91197718Y-114810454D01*
X91207790Y-115021903D01*
X91207792Y-115021916D01*
X91257700Y-115227638D01*
X91257702Y-115227644D01*
X91345644Y-115420211D01*
X91345648Y-115420218D01*
X91468435Y-115592648D01*
X91468439Y-115592653D01*
X91468441Y-115592655D01*
X91621654Y-115738743D01*
X91799746Y-115853196D01*
X91996279Y-115931876D01*
X92204151Y-115971940D01*
X92204155Y-115971940D01*
X93162801Y-115971940D01*
X93162803Y-115971940D01*
X93320739Y-115956859D01*
X93523862Y-115897217D01*
X93712026Y-115800211D01*
X93878432Y-115669348D01*
X94017065Y-115509358D01*
X94122913Y-115326022D01*
X94192153Y-115125967D01*
X94210264Y-115000002D01*
X96637068Y-115000002D01*
X96656782Y-115363597D01*
X96715689Y-115722926D01*
X96813106Y-116073787D01*
X96947881Y-116412046D01*
X96947885Y-116412055D01*
X97118445Y-116733768D01*
X97118447Y-116733772D01*
X97322792Y-117035158D01*
X97322791Y-117035158D01*
X97452695Y-117188093D01*
X98699994Y-115940794D01*
X98701570Y-115943365D01*
X98865130Y-116134870D01*
X99056635Y-116298430D01*
X99059203Y-116300004D01*
X97809134Y-117550073D01*
X97822892Y-117563105D01*
X98112761Y-117783458D01*
X98112767Y-117783462D01*
X98424772Y-117971189D01*
X98424779Y-117971193D01*
X98755239Y-118124081D01*
X98755251Y-118124086D01*
X99100310Y-118240349D01*
X99100327Y-118240354D01*
X99455920Y-118318626D01*
X99455949Y-118318631D01*
X99817927Y-118357999D01*
X99817943Y-118358000D01*
X100182057Y-118358000D01*
X100182072Y-118357999D01*
X100544050Y-118318631D01*
X100544079Y-118318626D01*
X100899672Y-118240354D01*
X100899689Y-118240349D01*
X101244748Y-118124086D01*
X101244760Y-118124081D01*
X101575220Y-117971193D01*
X101575227Y-117971189D01*
X101887232Y-117783462D01*
X101887238Y-117783458D01*
X102177113Y-117563101D01*
X102190865Y-117550074D01*
X100940795Y-116300004D01*
X100943365Y-116298430D01*
X101134870Y-116134870D01*
X101298430Y-115943365D01*
X101300004Y-115940795D01*
X102547302Y-117188093D01*
X102547303Y-117188093D01*
X102677203Y-117035165D01*
X102677205Y-117035161D01*
X102881552Y-116733772D01*
X102881554Y-116733768D01*
X103052114Y-116412055D01*
X103052118Y-116412046D01*
X103186893Y-116073787D01*
X103284310Y-115722926D01*
X103343217Y-115363597D01*
X103362932Y-115000002D01*
X103362932Y-114999997D01*
X103343217Y-114636402D01*
X103284310Y-114277073D01*
X103186893Y-113926212D01*
X103052118Y-113587953D01*
X103052114Y-113587944D01*
X102881554Y-113266231D01*
X102881552Y-113266227D01*
X102677207Y-112964841D01*
X102677208Y-112964841D01*
X102547302Y-112811905D01*
X101300004Y-114059203D01*
X101298430Y-114056635D01*
X101134870Y-113865130D01*
X100943365Y-113701570D01*
X100940794Y-113699994D01*
X102190864Y-112449924D01*
X102177107Y-112436894D01*
X101887238Y-112216541D01*
X101887232Y-112216537D01*
X101575227Y-112028810D01*
X101575220Y-112028806D01*
X101244760Y-111875918D01*
X101244748Y-111875913D01*
X100899689Y-111759650D01*
X100899672Y-111759645D01*
X100544079Y-111681373D01*
X100544050Y-111681368D01*
X100182072Y-111642000D01*
X99817927Y-111642000D01*
X99455949Y-111681368D01*
X99455920Y-111681373D01*
X99100327Y-111759645D01*
X99100310Y-111759650D01*
X98755251Y-111875913D01*
X98755239Y-111875918D01*
X98424779Y-112028806D01*
X98424772Y-112028810D01*
X98112767Y-112216537D01*
X98112761Y-112216541D01*
X97822880Y-112436903D01*
X97822874Y-112436909D01*
X97809134Y-112449923D01*
X97809133Y-112449924D01*
X99059204Y-113699995D01*
X99056635Y-113701570D01*
X98865130Y-113865130D01*
X98701570Y-114056635D01*
X98699995Y-114059204D01*
X97452696Y-112811905D01*
X97322791Y-112964842D01*
X97118447Y-113266227D01*
X97118445Y-113266231D01*
X96947885Y-113587944D01*
X96947881Y-113587953D01*
X96813106Y-113926212D01*
X96715689Y-114277073D01*
X96656782Y-114636402D01*
X96637068Y-114999997D01*
X96637068Y-115000002D01*
X94210264Y-115000002D01*
X94210264Y-115000001D01*
X94222281Y-114916425D01*
X94212209Y-114704976D01*
X94212208Y-114704971D01*
X94212208Y-114704966D01*
X94162298Y-114499236D01*
X94074356Y-114306669D01*
X94074353Y-114306665D01*
X94074351Y-114306661D01*
X93951564Y-114134231D01*
X93951555Y-114134221D01*
X93924321Y-114108254D01*
X93798346Y-113988137D01*
X93620254Y-113873684D01*
X93423721Y-113795004D01*
X93423720Y-113795003D01*
X93423718Y-113795003D01*
X93215853Y-113754940D01*
X93215849Y-113754940D01*
X92257197Y-113754940D01*
X92257195Y-113754940D01*
X92257177Y-113754941D01*
X92099271Y-113770019D01*
X92099256Y-113770022D01*
X91896135Y-113829663D01*
X91707976Y-113926667D01*
X91541564Y-114057534D01*
X91402938Y-114217517D01*
X91402930Y-114217528D01*
X91297089Y-114400852D01*
X91297086Y-114400859D01*
X91227848Y-114600909D01*
X91227845Y-114600920D01*
X91197718Y-114810454D01*
X68817233Y-114810454D01*
X68812209Y-114704976D01*
X68812208Y-114704971D01*
X68812208Y-114704966D01*
X68762298Y-114499236D01*
X68674356Y-114306669D01*
X68674353Y-114306665D01*
X68674351Y-114306661D01*
X68551564Y-114134231D01*
X68551555Y-114134221D01*
X68524321Y-114108254D01*
X68398346Y-113988137D01*
X68220254Y-113873684D01*
X68023721Y-113795004D01*
X68023720Y-113795003D01*
X68023718Y-113795003D01*
X67815853Y-113754940D01*
X67815849Y-113754940D01*
X66857197Y-113754940D01*
X66857195Y-113754940D01*
X66857177Y-113754941D01*
X66699271Y-113770019D01*
X66699256Y-113770022D01*
X66496135Y-113829663D01*
X66307976Y-113926667D01*
X66141564Y-114057534D01*
X66002938Y-114217517D01*
X66002930Y-114217528D01*
X65897089Y-114400852D01*
X65897086Y-114400859D01*
X65827848Y-114600909D01*
X65827845Y-114600920D01*
X65797718Y-114810454D01*
X48893500Y-114810454D01*
X48893500Y-112270454D01*
X65797718Y-112270454D01*
X65807790Y-112481903D01*
X65807792Y-112481916D01*
X65857700Y-112687638D01*
X65857702Y-112687644D01*
X65945644Y-112880211D01*
X65945648Y-112880218D01*
X66068435Y-113052648D01*
X66068439Y-113052653D01*
X66068441Y-113052655D01*
X66221654Y-113198743D01*
X66399746Y-113313196D01*
X66596279Y-113391876D01*
X66804151Y-113431940D01*
X66804155Y-113431940D01*
X67762801Y-113431940D01*
X67762803Y-113431940D01*
X67920739Y-113416859D01*
X68123862Y-113357217D01*
X68312026Y-113260211D01*
X68478432Y-113129348D01*
X68617065Y-112969358D01*
X68722913Y-112786022D01*
X68792153Y-112585967D01*
X68811713Y-112449923D01*
X68822281Y-112376425D01*
X68817233Y-112270454D01*
X91197718Y-112270454D01*
X91207790Y-112481903D01*
X91207792Y-112481916D01*
X91257700Y-112687638D01*
X91257702Y-112687644D01*
X91345644Y-112880211D01*
X91345648Y-112880218D01*
X91468435Y-113052648D01*
X91468439Y-113052653D01*
X91468441Y-113052655D01*
X91621654Y-113198743D01*
X91799746Y-113313196D01*
X91996279Y-113391876D01*
X92204151Y-113431940D01*
X92204155Y-113431940D01*
X93162801Y-113431940D01*
X93162803Y-113431940D01*
X93320739Y-113416859D01*
X93523862Y-113357217D01*
X93712026Y-113260211D01*
X93878432Y-113129348D01*
X94017065Y-112969358D01*
X94122913Y-112786022D01*
X94192153Y-112585967D01*
X94211713Y-112449923D01*
X94222281Y-112376425D01*
X94212209Y-112164976D01*
X94212208Y-112164971D01*
X94212208Y-112164966D01*
X94162298Y-111959236D01*
X94074356Y-111766669D01*
X94074353Y-111766665D01*
X94074351Y-111766661D01*
X93951564Y-111594231D01*
X93951555Y-111594221D01*
X93924321Y-111568254D01*
X93798346Y-111448137D01*
X93620254Y-111333684D01*
X93423721Y-111255004D01*
X93423720Y-111255003D01*
X93423718Y-111255003D01*
X93215853Y-111214940D01*
X93215849Y-111214940D01*
X92257197Y-111214940D01*
X92257195Y-111214940D01*
X92257177Y-111214941D01*
X92099271Y-111230019D01*
X92099256Y-111230022D01*
X91896135Y-111289663D01*
X91707976Y-111386667D01*
X91541564Y-111517534D01*
X91402938Y-111677517D01*
X91402930Y-111677528D01*
X91297089Y-111860852D01*
X91297086Y-111860859D01*
X91227848Y-112060909D01*
X91227845Y-112060920D01*
X91197718Y-112270454D01*
X68817233Y-112270454D01*
X68812209Y-112164976D01*
X68812208Y-112164971D01*
X68812208Y-112164966D01*
X68762298Y-111959236D01*
X68674356Y-111766669D01*
X68674353Y-111766665D01*
X68674351Y-111766661D01*
X68551564Y-111594231D01*
X68551555Y-111594221D01*
X68524321Y-111568254D01*
X68398346Y-111448137D01*
X68220254Y-111333684D01*
X68023721Y-111255004D01*
X68023720Y-111255003D01*
X68023718Y-111255003D01*
X67815853Y-111214940D01*
X67815849Y-111214940D01*
X66857197Y-111214940D01*
X66857195Y-111214940D01*
X66857177Y-111214941D01*
X66699271Y-111230019D01*
X66699256Y-111230022D01*
X66496135Y-111289663D01*
X66307976Y-111386667D01*
X66141564Y-111517534D01*
X66002938Y-111677517D01*
X66002930Y-111677528D01*
X65897089Y-111860852D01*
X65897086Y-111860859D01*
X65827848Y-112060909D01*
X65827845Y-112060920D01*
X65797718Y-112270454D01*
X48893500Y-112270454D01*
X48893500Y-111785535D01*
X48910380Y-111722536D01*
X48967527Y-111623556D01*
X49026542Y-111441928D01*
X49046504Y-111252000D01*
X49026542Y-111062072D01*
X48967527Y-110880444D01*
X48872040Y-110715056D01*
X48872038Y-110715054D01*
X48872034Y-110715048D01*
X48744255Y-110573135D01*
X48589752Y-110460882D01*
X48415288Y-110383206D01*
X48228487Y-110343500D01*
X48037513Y-110343500D01*
X47850711Y-110383206D01*
X47676247Y-110460882D01*
X47521744Y-110573135D01*
X47393965Y-110715048D01*
X47393958Y-110715058D01*
X47300542Y-110876860D01*
X47298473Y-110880444D01*
X47283999Y-110924986D01*
X47239457Y-111062072D01*
X47219496Y-111251999D01*
X42924499Y-111251999D01*
X42924499Y-110109000D01*
X49886496Y-110109000D01*
X49906457Y-110298927D01*
X49919874Y-110340218D01*
X49965473Y-110480556D01*
X49965476Y-110480561D01*
X50060958Y-110645941D01*
X50060965Y-110645951D01*
X50188744Y-110787864D01*
X50188747Y-110787866D01*
X50343248Y-110900118D01*
X50517712Y-110977794D01*
X50704513Y-111017500D01*
X50895487Y-111017500D01*
X51082288Y-110977794D01*
X51256752Y-110900118D01*
X51411253Y-110787866D01*
X51476810Y-110715058D01*
X51539034Y-110645951D01*
X51539035Y-110645949D01*
X51539040Y-110645944D01*
X51634527Y-110480556D01*
X51693542Y-110298928D01*
X51713504Y-110109000D01*
X51693542Y-109919072D01*
X51634527Y-109737444D01*
X51630491Y-109730454D01*
X65797718Y-109730454D01*
X65807790Y-109941903D01*
X65807792Y-109941916D01*
X65857700Y-110147638D01*
X65857702Y-110147644D01*
X65945644Y-110340211D01*
X65945648Y-110340218D01*
X66068435Y-110512648D01*
X66068439Y-110512653D01*
X66068441Y-110512655D01*
X66221654Y-110658743D01*
X66399746Y-110773196D01*
X66596279Y-110851876D01*
X66804151Y-110891940D01*
X66804155Y-110891940D01*
X67762801Y-110891940D01*
X67762803Y-110891940D01*
X67920739Y-110876859D01*
X68123862Y-110817217D01*
X68312026Y-110720211D01*
X68478432Y-110589348D01*
X68617065Y-110429358D01*
X68722913Y-110246022D01*
X68792153Y-110045967D01*
X68822281Y-109836424D01*
X68817233Y-109730454D01*
X91197718Y-109730454D01*
X91207790Y-109941903D01*
X91207792Y-109941916D01*
X91257700Y-110147638D01*
X91257702Y-110147644D01*
X91345644Y-110340211D01*
X91345648Y-110340218D01*
X91468435Y-110512648D01*
X91468439Y-110512653D01*
X91468441Y-110512655D01*
X91621654Y-110658743D01*
X91799746Y-110773196D01*
X91996279Y-110851876D01*
X92204151Y-110891940D01*
X92204155Y-110891940D01*
X93162801Y-110891940D01*
X93162803Y-110891940D01*
X93320739Y-110876859D01*
X93523862Y-110817217D01*
X93712026Y-110720211D01*
X93878432Y-110589348D01*
X94017065Y-110429358D01*
X94122913Y-110246022D01*
X94192153Y-110045967D01*
X94222281Y-109836424D01*
X94213613Y-109654451D01*
X94212209Y-109624976D01*
X94212208Y-109624971D01*
X94212208Y-109624966D01*
X94162298Y-109419236D01*
X94074356Y-109226669D01*
X94074353Y-109226665D01*
X94074351Y-109226661D01*
X93951564Y-109054231D01*
X93951555Y-109054221D01*
X93924321Y-109028254D01*
X93798346Y-108908137D01*
X93620254Y-108793684D01*
X93423721Y-108715004D01*
X93423720Y-108715003D01*
X93423718Y-108715003D01*
X93215853Y-108674940D01*
X93215849Y-108674940D01*
X92257197Y-108674940D01*
X92257195Y-108674940D01*
X92257177Y-108674941D01*
X92099271Y-108690019D01*
X92099256Y-108690022D01*
X91896135Y-108749663D01*
X91707976Y-108846667D01*
X91541564Y-108977534D01*
X91402938Y-109137517D01*
X91402930Y-109137528D01*
X91297089Y-109320852D01*
X91297086Y-109320859D01*
X91227848Y-109520909D01*
X91227845Y-109520920D01*
X91197718Y-109730454D01*
X68817233Y-109730454D01*
X68813613Y-109654451D01*
X68812209Y-109624976D01*
X68812208Y-109624971D01*
X68812208Y-109624966D01*
X68762298Y-109419236D01*
X68674356Y-109226669D01*
X68674353Y-109226665D01*
X68674351Y-109226661D01*
X68551564Y-109054231D01*
X68551555Y-109054221D01*
X68524321Y-109028254D01*
X68398346Y-108908137D01*
X68220254Y-108793684D01*
X68023721Y-108715004D01*
X68023720Y-108715003D01*
X68023718Y-108715003D01*
X67815853Y-108674940D01*
X67815849Y-108674940D01*
X66857197Y-108674940D01*
X66857195Y-108674940D01*
X66857177Y-108674941D01*
X66699271Y-108690019D01*
X66699256Y-108690022D01*
X66496135Y-108749663D01*
X66307976Y-108846667D01*
X66141564Y-108977534D01*
X66002938Y-109137517D01*
X66002930Y-109137528D01*
X65897089Y-109320852D01*
X65897086Y-109320859D01*
X65827848Y-109520909D01*
X65827845Y-109520920D01*
X65797718Y-109730454D01*
X51630491Y-109730454D01*
X51539040Y-109572056D01*
X51539038Y-109572054D01*
X51539034Y-109572048D01*
X51411255Y-109430135D01*
X51256752Y-109317882D01*
X51082288Y-109240206D01*
X50895487Y-109200500D01*
X50704513Y-109200500D01*
X50517711Y-109240206D01*
X50343247Y-109317882D01*
X50188744Y-109430135D01*
X50060965Y-109572048D01*
X50060958Y-109572058D01*
X49965476Y-109737438D01*
X49965473Y-109737445D01*
X49906457Y-109919072D01*
X49886496Y-110109000D01*
X42924499Y-110109000D01*
X42924499Y-108518593D01*
X42944501Y-108450473D01*
X42961404Y-108429499D01*
X45310499Y-106080405D01*
X45372811Y-106046379D01*
X45399594Y-106043500D01*
X62029801Y-106043500D01*
X62097922Y-106063502D01*
X62123434Y-106085186D01*
X62126747Y-106088866D01*
X62126749Y-106088867D01*
X62131167Y-106093774D01*
X62129131Y-106095606D01*
X62160014Y-106145736D01*
X62158662Y-106216720D01*
X62132104Y-106263231D01*
X62125959Y-106270055D01*
X62125958Y-106270057D01*
X62030476Y-106435438D01*
X62030473Y-106435445D01*
X61971457Y-106617072D01*
X61951496Y-106807000D01*
X61971457Y-106996927D01*
X62000067Y-107084976D01*
X62030473Y-107178556D01*
X62058841Y-107227691D01*
X62125958Y-107343941D01*
X62125965Y-107343951D01*
X62253744Y-107485864D01*
X62281418Y-107505970D01*
X62408248Y-107598118D01*
X62582712Y-107675794D01*
X62769513Y-107715500D01*
X62960487Y-107715500D01*
X63147288Y-107675794D01*
X63321752Y-107598118D01*
X63476253Y-107485866D01*
X63604040Y-107343944D01*
X63692658Y-107190454D01*
X65797718Y-107190454D01*
X65807790Y-107401903D01*
X65807792Y-107401916D01*
X65857700Y-107607638D01*
X65857702Y-107607644D01*
X65945644Y-107800211D01*
X65945648Y-107800218D01*
X66068435Y-107972648D01*
X66068439Y-107972653D01*
X66068441Y-107972655D01*
X66221654Y-108118743D01*
X66399746Y-108233196D01*
X66596279Y-108311876D01*
X66804151Y-108351940D01*
X66804155Y-108351940D01*
X67762801Y-108351940D01*
X67762803Y-108351940D01*
X67920739Y-108336859D01*
X68123862Y-108277217D01*
X68312026Y-108180211D01*
X68478432Y-108049348D01*
X68617065Y-107889358D01*
X68722913Y-107706022D01*
X68792153Y-107505967D01*
X68822281Y-107296424D01*
X68817233Y-107190454D01*
X91197718Y-107190454D01*
X91207790Y-107401903D01*
X91207792Y-107401916D01*
X91257700Y-107607638D01*
X91257702Y-107607644D01*
X91345644Y-107800211D01*
X91345648Y-107800218D01*
X91468435Y-107972648D01*
X91468439Y-107972653D01*
X91468441Y-107972655D01*
X91621654Y-108118743D01*
X91799746Y-108233196D01*
X91996279Y-108311876D01*
X92204151Y-108351940D01*
X92204155Y-108351940D01*
X93162801Y-108351940D01*
X93162803Y-108351940D01*
X93320739Y-108336859D01*
X93523862Y-108277217D01*
X93712026Y-108180211D01*
X93878432Y-108049348D01*
X94017065Y-107889358D01*
X94122913Y-107706022D01*
X94192153Y-107505967D01*
X94222281Y-107296424D01*
X94217233Y-107190454D01*
X94212209Y-107084976D01*
X94212208Y-107084971D01*
X94212208Y-107084966D01*
X94162298Y-106879236D01*
X94074356Y-106686669D01*
X94074353Y-106686665D01*
X94074351Y-106686661D01*
X93951564Y-106514231D01*
X93951555Y-106514221D01*
X93916331Y-106480635D01*
X93798346Y-106368137D01*
X93620254Y-106253684D01*
X93423721Y-106175004D01*
X93423720Y-106175003D01*
X93423718Y-106175003D01*
X93215853Y-106134940D01*
X93215849Y-106134940D01*
X92257197Y-106134940D01*
X92257195Y-106134940D01*
X92257177Y-106134941D01*
X92099271Y-106150019D01*
X92099256Y-106150022D01*
X91896135Y-106209663D01*
X91707976Y-106306667D01*
X91541564Y-106437534D01*
X91402938Y-106597517D01*
X91402930Y-106597528D01*
X91297089Y-106780852D01*
X91297086Y-106780859D01*
X91227848Y-106980909D01*
X91227845Y-106980920D01*
X91197718Y-107190454D01*
X68817233Y-107190454D01*
X68812209Y-107084976D01*
X68812208Y-107084971D01*
X68812208Y-107084966D01*
X68762298Y-106879236D01*
X68674356Y-106686669D01*
X68674353Y-106686665D01*
X68674351Y-106686661D01*
X68551564Y-106514231D01*
X68551555Y-106514221D01*
X68516331Y-106480635D01*
X68398346Y-106368137D01*
X68220254Y-106253684D01*
X68023721Y-106175004D01*
X68023720Y-106175003D01*
X68023718Y-106175003D01*
X67815853Y-106134940D01*
X67815849Y-106134940D01*
X66857197Y-106134940D01*
X66857195Y-106134940D01*
X66857177Y-106134941D01*
X66699271Y-106150019D01*
X66699256Y-106150022D01*
X66496135Y-106209663D01*
X66307976Y-106306667D01*
X66141564Y-106437534D01*
X66002938Y-106597517D01*
X66002930Y-106597528D01*
X65897089Y-106780852D01*
X65897086Y-106780859D01*
X65827848Y-106980909D01*
X65827845Y-106980920D01*
X65797718Y-107190454D01*
X63692658Y-107190454D01*
X63699527Y-107178556D01*
X63758542Y-106996928D01*
X63778504Y-106807000D01*
X63758542Y-106617072D01*
X63699527Y-106435444D01*
X63604040Y-106270056D01*
X63604038Y-106270054D01*
X63604034Y-106270048D01*
X63471835Y-106123226D01*
X63473877Y-106121386D01*
X63443000Y-106071320D01*
X63444319Y-106000336D01*
X63470901Y-105953761D01*
X63477040Y-105946944D01*
X63572527Y-105781556D01*
X63631542Y-105599928D01*
X63651504Y-105410000D01*
X63631542Y-105220072D01*
X63572527Y-105038444D01*
X63477040Y-104873056D01*
X63477038Y-104873054D01*
X63477034Y-104873048D01*
X63349255Y-104731135D01*
X63238207Y-104650454D01*
X65797718Y-104650454D01*
X65807790Y-104861903D01*
X65807792Y-104861916D01*
X65857700Y-105067638D01*
X65857702Y-105067644D01*
X65945644Y-105260211D01*
X65945648Y-105260218D01*
X66068435Y-105432648D01*
X66068439Y-105432653D01*
X66068441Y-105432655D01*
X66221654Y-105578743D01*
X66399746Y-105693196D01*
X66596279Y-105771876D01*
X66804151Y-105811940D01*
X66804155Y-105811940D01*
X67762801Y-105811940D01*
X67762803Y-105811940D01*
X67920739Y-105796859D01*
X68123862Y-105737217D01*
X68312026Y-105640211D01*
X68478432Y-105509348D01*
X68499351Y-105485207D01*
X68564518Y-105410000D01*
X68617065Y-105349358D01*
X68722913Y-105166022D01*
X68792153Y-104965967D01*
X68819215Y-104777750D01*
X68822281Y-104756425D01*
X68817233Y-104650454D01*
X91197718Y-104650454D01*
X91207790Y-104861903D01*
X91207792Y-104861916D01*
X91257700Y-105067638D01*
X91257702Y-105067644D01*
X91345644Y-105260211D01*
X91345648Y-105260218D01*
X91468435Y-105432648D01*
X91468439Y-105432653D01*
X91468441Y-105432655D01*
X91621654Y-105578743D01*
X91799746Y-105693196D01*
X91996279Y-105771876D01*
X92204151Y-105811940D01*
X92204155Y-105811940D01*
X93162801Y-105811940D01*
X93162803Y-105811940D01*
X93320739Y-105796859D01*
X93523862Y-105737217D01*
X93712026Y-105640211D01*
X93878432Y-105509348D01*
X93899351Y-105485207D01*
X93964518Y-105410000D01*
X94017065Y-105349358D01*
X94122913Y-105166022D01*
X94192153Y-104965967D01*
X94219215Y-104777750D01*
X94222281Y-104756425D01*
X94212209Y-104544976D01*
X94212208Y-104544971D01*
X94212208Y-104544966D01*
X94162298Y-104339236D01*
X94074356Y-104146669D01*
X94074353Y-104146665D01*
X94074351Y-104146661D01*
X93951564Y-103974231D01*
X93951555Y-103974221D01*
X93904610Y-103929459D01*
X93798346Y-103828137D01*
X93620254Y-103713684D01*
X93423721Y-103635004D01*
X93423720Y-103635003D01*
X93423718Y-103635003D01*
X93215853Y-103594940D01*
X93215849Y-103594940D01*
X92257197Y-103594940D01*
X92257195Y-103594940D01*
X92257177Y-103594941D01*
X92099271Y-103610019D01*
X92099256Y-103610022D01*
X91896135Y-103669663D01*
X91707976Y-103766667D01*
X91541564Y-103897534D01*
X91402938Y-104057517D01*
X91402930Y-104057528D01*
X91297089Y-104240852D01*
X91297086Y-104240859D01*
X91227848Y-104440909D01*
X91227845Y-104440920D01*
X91197718Y-104650454D01*
X68817233Y-104650454D01*
X68812209Y-104544976D01*
X68812208Y-104544971D01*
X68812208Y-104544966D01*
X68762298Y-104339236D01*
X68674356Y-104146669D01*
X68674353Y-104146665D01*
X68674351Y-104146661D01*
X68551564Y-103974231D01*
X68551555Y-103974221D01*
X68504610Y-103929459D01*
X68398346Y-103828137D01*
X68220254Y-103713684D01*
X68023721Y-103635004D01*
X68023720Y-103635003D01*
X68023718Y-103635003D01*
X67815853Y-103594940D01*
X67815849Y-103594940D01*
X66857197Y-103594940D01*
X66857195Y-103594940D01*
X66857177Y-103594941D01*
X66699271Y-103610019D01*
X66699256Y-103610022D01*
X66496135Y-103669663D01*
X66307976Y-103766667D01*
X66141564Y-103897534D01*
X66002938Y-104057517D01*
X66002930Y-104057528D01*
X65897089Y-104240852D01*
X65897086Y-104240859D01*
X65827848Y-104440909D01*
X65827845Y-104440920D01*
X65797718Y-104650454D01*
X63238207Y-104650454D01*
X63194752Y-104618882D01*
X63020288Y-104541206D01*
X62833487Y-104501500D01*
X62642513Y-104501500D01*
X62455711Y-104541206D01*
X62281247Y-104618882D01*
X62126747Y-104731133D01*
X62123437Y-104734810D01*
X62062991Y-104772050D01*
X62029800Y-104776500D01*
X58114406Y-104776500D01*
X58046285Y-104756498D01*
X57999792Y-104702842D01*
X57989688Y-104632568D01*
X58019182Y-104567988D01*
X58063157Y-104535393D01*
X58218752Y-104466118D01*
X58373253Y-104353866D01*
X58373255Y-104353864D01*
X58501034Y-104211951D01*
X58501035Y-104211949D01*
X58501040Y-104211944D01*
X58596527Y-104046556D01*
X58655542Y-103864928D01*
X58675504Y-103675000D01*
X58655542Y-103485072D01*
X58596527Y-103303444D01*
X58501040Y-103138056D01*
X58501038Y-103138054D01*
X58501034Y-103138048D01*
X58373255Y-102996135D01*
X58218752Y-102883882D01*
X58044288Y-102806206D01*
X57857487Y-102766500D01*
X57666513Y-102766500D01*
X57479711Y-102806206D01*
X57305247Y-102883882D01*
X57150744Y-102996135D01*
X57022965Y-103138048D01*
X57022958Y-103138058D01*
X56927476Y-103303438D01*
X56927473Y-103303445D01*
X56868457Y-103485072D01*
X56848496Y-103675000D01*
X56868457Y-103864927D01*
X56892328Y-103938393D01*
X56927473Y-104046556D01*
X56927476Y-104046561D01*
X57022958Y-104211941D01*
X57022965Y-104211951D01*
X57150744Y-104353864D01*
X57150747Y-104353866D01*
X57305248Y-104466118D01*
X57384718Y-104501500D01*
X57460843Y-104535393D01*
X57514939Y-104581373D01*
X57535588Y-104649301D01*
X57516236Y-104717609D01*
X57463025Y-104764610D01*
X57409594Y-104776500D01*
X45168854Y-104776500D01*
X45153012Y-104774750D01*
X45152985Y-104775044D01*
X45145091Y-104774297D01*
X45125127Y-104774925D01*
X45056412Y-104757072D01*
X45008257Y-104704902D01*
X44995952Y-104634980D01*
X45023403Y-104569505D01*
X45032066Y-104559902D01*
X45696519Y-103895449D01*
X45699231Y-103892896D01*
X45746215Y-103851273D01*
X45781867Y-103799621D01*
X45784079Y-103796615D01*
X45822775Y-103747226D01*
X45826954Y-103737939D01*
X45838162Y-103718065D01*
X45843954Y-103709675D01*
X45866204Y-103651002D01*
X45867651Y-103647512D01*
X45893388Y-103590329D01*
X45895225Y-103580300D01*
X45901349Y-103558335D01*
X45904965Y-103548801D01*
X45912528Y-103486509D01*
X45913093Y-103482796D01*
X45924401Y-103421093D01*
X45920614Y-103358498D01*
X45920500Y-103354696D01*
X45920500Y-101909440D01*
X65827126Y-101909440D01*
X66998314Y-101909440D01*
X66982359Y-101925395D01*
X66924835Y-102038292D01*
X66905014Y-102163440D01*
X66924835Y-102288588D01*
X66982359Y-102401485D01*
X66998314Y-102417440D01*
X65831480Y-102417440D01*
X65858175Y-102527478D01*
X65858177Y-102527485D01*
X65946077Y-102719955D01*
X65946079Y-102719959D01*
X66068821Y-102892327D01*
X66068822Y-102892328D01*
X66221964Y-103038349D01*
X66221965Y-103038350D01*
X66399975Y-103152748D01*
X66399980Y-103152751D01*
X66596414Y-103231392D01*
X66596420Y-103231393D01*
X66804194Y-103271439D01*
X66804203Y-103271440D01*
X67056000Y-103271440D01*
X67056000Y-102475126D01*
X67071955Y-102491081D01*
X67184852Y-102548605D01*
X67278519Y-102563440D01*
X67341481Y-102563440D01*
X67435148Y-102548605D01*
X67548045Y-102491081D01*
X67564000Y-102475126D01*
X67564000Y-103271440D01*
X67762779Y-103271440D01*
X67762800Y-103271438D01*
X67920633Y-103256367D01*
X67920648Y-103256364D01*
X68123677Y-103196750D01*
X68311754Y-103099789D01*
X68478085Y-102968984D01*
X68478091Y-102968979D01*
X68616656Y-102809065D01*
X68616657Y-102809064D01*
X68722454Y-102625817D01*
X68722458Y-102625808D01*
X68791662Y-102425855D01*
X68791664Y-102425849D01*
X68792873Y-102417440D01*
X67621686Y-102417440D01*
X67637641Y-102401485D01*
X67695165Y-102288588D01*
X67714986Y-102163440D01*
X67706594Y-102110454D01*
X91197718Y-102110454D01*
X91207790Y-102321903D01*
X91207792Y-102321916D01*
X91257700Y-102527638D01*
X91257702Y-102527644D01*
X91345644Y-102720211D01*
X91345648Y-102720218D01*
X91468435Y-102892648D01*
X91468439Y-102892653D01*
X91468441Y-102892655D01*
X91621654Y-103038743D01*
X91799746Y-103153196D01*
X91996279Y-103231876D01*
X92204151Y-103271940D01*
X92204155Y-103271940D01*
X93162801Y-103271940D01*
X93162803Y-103271940D01*
X93320739Y-103256859D01*
X93523862Y-103197217D01*
X93712026Y-103100211D01*
X93878432Y-102969348D01*
X93878748Y-102968984D01*
X93965707Y-102868628D01*
X94017065Y-102809358D01*
X94122913Y-102626022D01*
X94192153Y-102425967D01*
X94215123Y-102266209D01*
X94222281Y-102216425D01*
X94212209Y-102004976D01*
X94212208Y-102004971D01*
X94212208Y-102004966D01*
X94162298Y-101799236D01*
X94074356Y-101606669D01*
X94074353Y-101606665D01*
X94074351Y-101606661D01*
X93951564Y-101434231D01*
X93951555Y-101434221D01*
X93871506Y-101357895D01*
X93798346Y-101288137D01*
X93620254Y-101173684D01*
X93423721Y-101095004D01*
X93423720Y-101095003D01*
X93423718Y-101095003D01*
X93215853Y-101054940D01*
X93215849Y-101054940D01*
X92257197Y-101054940D01*
X92257195Y-101054940D01*
X92257177Y-101054941D01*
X92099271Y-101070019D01*
X92099256Y-101070022D01*
X91896135Y-101129663D01*
X91707976Y-101226667D01*
X91541564Y-101357534D01*
X91402938Y-101517517D01*
X91402930Y-101517528D01*
X91297089Y-101700852D01*
X91297086Y-101700859D01*
X91227848Y-101900909D01*
X91227845Y-101900920D01*
X91197718Y-102110454D01*
X67706594Y-102110454D01*
X67695165Y-102038292D01*
X67637641Y-101925395D01*
X67621686Y-101909440D01*
X68788519Y-101909440D01*
X68788519Y-101909439D01*
X68761824Y-101799401D01*
X68761822Y-101799394D01*
X68673922Y-101606924D01*
X68673920Y-101606920D01*
X68551178Y-101434552D01*
X68551177Y-101434551D01*
X68398035Y-101288530D01*
X68398034Y-101288529D01*
X68220024Y-101174131D01*
X68220019Y-101174128D01*
X68023585Y-101095487D01*
X68023579Y-101095486D01*
X67815805Y-101055440D01*
X67564000Y-101055440D01*
X67564000Y-101851753D01*
X67548045Y-101835799D01*
X67435148Y-101778275D01*
X67341481Y-101763440D01*
X67278519Y-101763440D01*
X67184852Y-101778275D01*
X67071955Y-101835799D01*
X67056000Y-101851753D01*
X67056000Y-101055440D01*
X66857221Y-101055440D01*
X66857199Y-101055441D01*
X66699366Y-101070512D01*
X66699351Y-101070515D01*
X66496322Y-101130129D01*
X66308245Y-101227090D01*
X66141914Y-101357895D01*
X66141908Y-101357900D01*
X66003343Y-101517814D01*
X66003342Y-101517815D01*
X65897545Y-101701062D01*
X65897541Y-101701071D01*
X65828337Y-101901024D01*
X65828335Y-101901030D01*
X65827126Y-101909440D01*
X45920500Y-101909440D01*
X45920500Y-99570454D01*
X65797718Y-99570454D01*
X65807790Y-99781903D01*
X65807792Y-99781916D01*
X65857700Y-99987638D01*
X65857702Y-99987644D01*
X65945644Y-100180211D01*
X65945648Y-100180218D01*
X66068435Y-100352648D01*
X66068439Y-100352653D01*
X66068441Y-100352655D01*
X66221654Y-100498743D01*
X66399746Y-100613196D01*
X66596279Y-100691876D01*
X66804151Y-100731940D01*
X66804155Y-100731940D01*
X67762801Y-100731940D01*
X67762803Y-100731940D01*
X67920739Y-100716859D01*
X68123862Y-100657217D01*
X68312026Y-100560211D01*
X68478432Y-100429348D01*
X68513800Y-100388532D01*
X68580473Y-100311587D01*
X68617065Y-100269358D01*
X68722913Y-100086022D01*
X68792153Y-99885967D01*
X68822281Y-99676424D01*
X68817233Y-99570454D01*
X91197718Y-99570454D01*
X91207790Y-99781903D01*
X91207792Y-99781916D01*
X91257700Y-99987638D01*
X91257702Y-99987644D01*
X91345644Y-100180211D01*
X91345648Y-100180218D01*
X91468435Y-100352648D01*
X91468439Y-100352653D01*
X91468441Y-100352655D01*
X91621654Y-100498743D01*
X91799746Y-100613196D01*
X91996279Y-100691876D01*
X92204151Y-100731940D01*
X92204155Y-100731940D01*
X93162801Y-100731940D01*
X93162803Y-100731940D01*
X93320739Y-100716859D01*
X93523862Y-100657217D01*
X93712026Y-100560211D01*
X93878432Y-100429348D01*
X93913800Y-100388532D01*
X93980473Y-100311587D01*
X94017065Y-100269358D01*
X94122913Y-100086022D01*
X94192153Y-99885967D01*
X94222281Y-99676424D01*
X94212261Y-99466076D01*
X94212209Y-99464976D01*
X94212208Y-99464971D01*
X94212208Y-99464966D01*
X94162298Y-99259236D01*
X94074356Y-99066669D01*
X94074353Y-99066665D01*
X94074351Y-99066661D01*
X93951564Y-98894231D01*
X93951555Y-98894221D01*
X93909309Y-98853940D01*
X93798346Y-98748137D01*
X93620254Y-98633684D01*
X93423721Y-98555004D01*
X93423720Y-98555003D01*
X93423718Y-98555003D01*
X93215853Y-98514940D01*
X93215849Y-98514940D01*
X92257197Y-98514940D01*
X92257195Y-98514940D01*
X92257177Y-98514941D01*
X92099271Y-98530019D01*
X92099256Y-98530022D01*
X91896135Y-98589663D01*
X91707976Y-98686667D01*
X91541564Y-98817534D01*
X91402938Y-98977517D01*
X91402930Y-98977528D01*
X91297089Y-99160852D01*
X91297086Y-99160859D01*
X91227848Y-99360909D01*
X91227845Y-99360920D01*
X91197718Y-99570454D01*
X68817233Y-99570454D01*
X68812261Y-99466076D01*
X68812209Y-99464976D01*
X68812208Y-99464971D01*
X68812208Y-99464966D01*
X68762298Y-99259236D01*
X68674356Y-99066669D01*
X68674353Y-99066665D01*
X68674351Y-99066661D01*
X68551564Y-98894231D01*
X68551555Y-98894221D01*
X68509309Y-98853940D01*
X68398346Y-98748137D01*
X68220254Y-98633684D01*
X68023721Y-98555004D01*
X68023720Y-98555003D01*
X68023718Y-98555003D01*
X67815853Y-98514940D01*
X67815849Y-98514940D01*
X66857197Y-98514940D01*
X66857195Y-98514940D01*
X66857177Y-98514941D01*
X66699271Y-98530019D01*
X66699256Y-98530022D01*
X66496135Y-98589663D01*
X66307976Y-98686667D01*
X66141564Y-98817534D01*
X66002938Y-98977517D01*
X66002930Y-98977528D01*
X65897089Y-99160852D01*
X65897086Y-99160859D01*
X65827848Y-99360909D01*
X65827845Y-99360920D01*
X65797718Y-99570454D01*
X45920500Y-99570454D01*
X45920500Y-97030454D01*
X65797718Y-97030454D01*
X65807790Y-97241903D01*
X65807792Y-97241916D01*
X65857700Y-97447638D01*
X65857702Y-97447644D01*
X65945644Y-97640211D01*
X65945648Y-97640218D01*
X66068435Y-97812648D01*
X66068439Y-97812653D01*
X66068441Y-97812655D01*
X66221654Y-97958743D01*
X66399746Y-98073196D01*
X66596279Y-98151876D01*
X66804151Y-98191940D01*
X66804155Y-98191940D01*
X67762801Y-98191940D01*
X67762803Y-98191940D01*
X67920739Y-98176859D01*
X68123862Y-98117217D01*
X68312026Y-98020211D01*
X68478432Y-97889348D01*
X68617065Y-97729358D01*
X68722913Y-97546022D01*
X68792153Y-97345967D01*
X68822281Y-97136424D01*
X68817233Y-97030454D01*
X91197718Y-97030454D01*
X91207790Y-97241903D01*
X91207792Y-97241916D01*
X91257700Y-97447638D01*
X91257702Y-97447644D01*
X91345644Y-97640211D01*
X91345648Y-97640218D01*
X91468435Y-97812648D01*
X91468439Y-97812653D01*
X91468441Y-97812655D01*
X91621654Y-97958743D01*
X91799746Y-98073196D01*
X91996279Y-98151876D01*
X92204151Y-98191940D01*
X92204155Y-98191940D01*
X93162801Y-98191940D01*
X93162803Y-98191940D01*
X93320739Y-98176859D01*
X93523862Y-98117217D01*
X93712026Y-98020211D01*
X93878432Y-97889348D01*
X94017065Y-97729358D01*
X94122913Y-97546022D01*
X94192153Y-97345967D01*
X94222281Y-97136424D01*
X94217233Y-97030454D01*
X94212209Y-96924976D01*
X94212208Y-96924971D01*
X94212208Y-96924966D01*
X94162298Y-96719236D01*
X94074356Y-96526669D01*
X94074353Y-96526665D01*
X94074351Y-96526661D01*
X93951564Y-96354231D01*
X93951555Y-96354221D01*
X93924321Y-96328254D01*
X93798346Y-96208137D01*
X93620254Y-96093684D01*
X93423721Y-96015004D01*
X93423720Y-96015003D01*
X93423718Y-96015003D01*
X93215853Y-95974940D01*
X93215849Y-95974940D01*
X92257197Y-95974940D01*
X92257195Y-95974940D01*
X92257177Y-95974941D01*
X92099271Y-95990019D01*
X92099256Y-95990022D01*
X91896135Y-96049663D01*
X91707976Y-96146667D01*
X91541564Y-96277534D01*
X91402938Y-96437517D01*
X91402930Y-96437528D01*
X91297089Y-96620852D01*
X91297086Y-96620859D01*
X91227848Y-96820909D01*
X91227845Y-96820920D01*
X91197718Y-97030454D01*
X68817233Y-97030454D01*
X68812209Y-96924976D01*
X68812208Y-96924971D01*
X68812208Y-96924966D01*
X68762298Y-96719236D01*
X68674356Y-96526669D01*
X68674353Y-96526665D01*
X68674351Y-96526661D01*
X68551564Y-96354231D01*
X68551555Y-96354221D01*
X68524321Y-96328254D01*
X68398346Y-96208137D01*
X68220254Y-96093684D01*
X68023721Y-96015004D01*
X68023720Y-96015003D01*
X68023718Y-96015003D01*
X67815853Y-95974940D01*
X67815849Y-95974940D01*
X66857197Y-95974940D01*
X66857195Y-95974940D01*
X66857177Y-95974941D01*
X66699271Y-95990019D01*
X66699256Y-95990022D01*
X66496135Y-96049663D01*
X66307976Y-96146667D01*
X66141564Y-96277534D01*
X66002938Y-96437517D01*
X66002930Y-96437528D01*
X65897089Y-96620852D01*
X65897086Y-96620859D01*
X65827848Y-96820909D01*
X65827845Y-96820920D01*
X65797718Y-97030454D01*
X45920500Y-97030454D01*
X45920500Y-94490454D01*
X65797718Y-94490454D01*
X65807790Y-94701903D01*
X65807792Y-94701916D01*
X65857700Y-94907638D01*
X65857702Y-94907644D01*
X65945644Y-95100211D01*
X65945648Y-95100218D01*
X66068435Y-95272648D01*
X66068439Y-95272653D01*
X66068441Y-95272655D01*
X66221654Y-95418743D01*
X66399746Y-95533196D01*
X66596279Y-95611876D01*
X66804151Y-95651940D01*
X66804155Y-95651940D01*
X67762801Y-95651940D01*
X67762803Y-95651940D01*
X67920739Y-95636859D01*
X68123862Y-95577217D01*
X68312026Y-95480211D01*
X68478432Y-95349348D01*
X68488978Y-95337178D01*
X68554120Y-95262000D01*
X68617065Y-95189358D01*
X68722913Y-95006022D01*
X68792153Y-94805967D01*
X68807548Y-94698891D01*
X68822281Y-94596425D01*
X68817233Y-94490454D01*
X91197718Y-94490454D01*
X91207790Y-94701903D01*
X91207792Y-94701916D01*
X91257700Y-94907638D01*
X91257702Y-94907644D01*
X91345644Y-95100211D01*
X91345648Y-95100218D01*
X91468435Y-95272648D01*
X91468439Y-95272653D01*
X91468441Y-95272655D01*
X91621654Y-95418743D01*
X91799746Y-95533196D01*
X91996279Y-95611876D01*
X92204151Y-95651940D01*
X92204155Y-95651940D01*
X93162801Y-95651940D01*
X93162803Y-95651940D01*
X93320739Y-95636859D01*
X93523862Y-95577217D01*
X93712026Y-95480211D01*
X93878432Y-95349348D01*
X93888978Y-95337178D01*
X93954120Y-95262000D01*
X94017065Y-95189358D01*
X94122913Y-95006022D01*
X94192153Y-94805967D01*
X94207548Y-94698891D01*
X94222281Y-94596425D01*
X94219593Y-94540000D01*
X98886844Y-94540000D01*
X98897021Y-94662821D01*
X98905437Y-94764375D01*
X98960702Y-94982612D01*
X98960703Y-94982613D01*
X99051141Y-95188793D01*
X99174275Y-95377265D01*
X99174279Y-95377270D01*
X99326762Y-95542908D01*
X99363313Y-95571357D01*
X99504424Y-95681189D01*
X99702426Y-95788342D01*
X99702427Y-95788342D01*
X99702428Y-95788343D01*
X99814227Y-95826723D01*
X99915365Y-95861444D01*
X100137431Y-95898500D01*
X100137435Y-95898500D01*
X100362565Y-95898500D01*
X100362569Y-95898500D01*
X100584635Y-95861444D01*
X100797574Y-95788342D01*
X100995576Y-95681189D01*
X101173240Y-95542906D01*
X101325722Y-95377268D01*
X101448860Y-95188791D01*
X101539296Y-94982616D01*
X101594564Y-94764368D01*
X101613156Y-94540000D01*
X101594564Y-94315632D01*
X101580298Y-94259297D01*
X101539297Y-94097387D01*
X101539296Y-94097386D01*
X101539296Y-94097384D01*
X101448860Y-93891209D01*
X101398564Y-93814225D01*
X101325724Y-93702734D01*
X101325720Y-93702729D01*
X101173237Y-93537091D01*
X101041994Y-93434940D01*
X100995576Y-93398811D01*
X100962319Y-93380813D01*
X100911929Y-93330802D01*
X100896576Y-93261485D01*
X100921136Y-93194872D01*
X100962320Y-93159186D01*
X100995576Y-93141189D01*
X101173240Y-93002906D01*
X101325722Y-92837268D01*
X101448860Y-92648791D01*
X101539296Y-92442616D01*
X101594564Y-92224368D01*
X101613156Y-92000000D01*
X101594564Y-91775632D01*
X101557869Y-91630727D01*
X101539297Y-91557387D01*
X101539296Y-91557386D01*
X101539296Y-91557384D01*
X101448860Y-91351209D01*
X101442140Y-91340924D01*
X101325724Y-91162734D01*
X101325720Y-91162729D01*
X101173237Y-90997091D01*
X101041994Y-90894940D01*
X100995576Y-90858811D01*
X100962319Y-90840813D01*
X100911929Y-90790802D01*
X100896576Y-90721485D01*
X100921136Y-90654872D01*
X100962320Y-90619186D01*
X100995576Y-90601189D01*
X101173240Y-90462906D01*
X101325722Y-90297268D01*
X101448860Y-90108791D01*
X101539296Y-89902616D01*
X101594564Y-89684368D01*
X101613156Y-89460000D01*
X101594564Y-89235632D01*
X101573429Y-89152171D01*
X101539297Y-89017387D01*
X101539296Y-89017386D01*
X101539296Y-89017384D01*
X101448860Y-88811209D01*
X101398564Y-88734225D01*
X101325724Y-88622734D01*
X101325714Y-88622722D01*
X101182159Y-88466782D01*
X101150737Y-88403117D01*
X101158723Y-88332571D01*
X101203582Y-88277542D01*
X101230827Y-88263388D01*
X101345965Y-88220444D01*
X101462904Y-88132904D01*
X101550444Y-88015965D01*
X101550444Y-88015964D01*
X101601494Y-87879093D01*
X101607999Y-87818597D01*
X101608000Y-87818585D01*
X101608000Y-87174000D01*
X100681116Y-87174000D01*
X100709493Y-87129844D01*
X100750000Y-86991889D01*
X100750000Y-86848111D01*
X100709493Y-86710156D01*
X100681116Y-86666000D01*
X101608000Y-86666000D01*
X101608000Y-86021414D01*
X101607999Y-86021402D01*
X101601494Y-85960906D01*
X101550444Y-85824035D01*
X101550444Y-85824034D01*
X101462904Y-85707095D01*
X101345965Y-85619555D01*
X101209093Y-85568505D01*
X101148597Y-85562000D01*
X100504000Y-85562000D01*
X100504000Y-86486325D01*
X100392315Y-86435320D01*
X100285763Y-86420000D01*
X100214237Y-86420000D01*
X100107685Y-86435320D01*
X99996000Y-86486325D01*
X99996000Y-85562000D01*
X99351402Y-85562000D01*
X99290906Y-85568505D01*
X99154035Y-85619555D01*
X99154034Y-85619555D01*
X99037095Y-85707095D01*
X98949555Y-85824034D01*
X98949555Y-85824035D01*
X98898505Y-85960906D01*
X98892000Y-86021402D01*
X98892000Y-86666000D01*
X99818884Y-86666000D01*
X99790507Y-86710156D01*
X99750000Y-86848111D01*
X99750000Y-86991889D01*
X99790507Y-87129844D01*
X99818884Y-87174000D01*
X98892000Y-87174000D01*
X98892000Y-87818597D01*
X98898505Y-87879093D01*
X98949555Y-88015964D01*
X98949555Y-88015965D01*
X99037095Y-88132904D01*
X99154034Y-88220444D01*
X99269172Y-88263388D01*
X99326008Y-88305935D01*
X99350819Y-88372455D01*
X99335728Y-88441829D01*
X99317841Y-88466782D01*
X99174280Y-88622729D01*
X99174275Y-88622734D01*
X99051141Y-88811206D01*
X98960703Y-89017386D01*
X98960702Y-89017387D01*
X98905437Y-89235624D01*
X98905436Y-89235630D01*
X98905436Y-89235632D01*
X98886844Y-89460000D01*
X98900445Y-89624140D01*
X98905437Y-89684375D01*
X98960702Y-89902612D01*
X98960703Y-89902613D01*
X98960704Y-89902616D01*
X99027176Y-90054157D01*
X99051141Y-90108793D01*
X99174275Y-90297265D01*
X99174279Y-90297270D01*
X99326762Y-90462908D01*
X99370841Y-90497216D01*
X99504424Y-90601189D01*
X99537680Y-90619186D01*
X99588071Y-90669200D01*
X99603423Y-90738516D01*
X99578862Y-90805129D01*
X99537680Y-90840813D01*
X99504426Y-90858810D01*
X99504424Y-90858811D01*
X99326762Y-90997091D01*
X99174279Y-91162729D01*
X99174275Y-91162734D01*
X99051141Y-91351206D01*
X98960703Y-91557386D01*
X98960702Y-91557387D01*
X98905437Y-91775624D01*
X98905436Y-91775630D01*
X98905436Y-91775632D01*
X98886844Y-92000000D01*
X98903791Y-92204522D01*
X98905437Y-92224375D01*
X98960702Y-92442612D01*
X98960703Y-92442613D01*
X98960704Y-92442616D01*
X99012286Y-92560211D01*
X99051141Y-92648793D01*
X99174275Y-92837265D01*
X99174279Y-92837270D01*
X99326762Y-93002908D01*
X99370841Y-93037216D01*
X99504424Y-93141189D01*
X99537680Y-93159186D01*
X99588071Y-93209200D01*
X99603423Y-93278516D01*
X99578862Y-93345129D01*
X99537680Y-93380813D01*
X99504426Y-93398810D01*
X99504424Y-93398811D01*
X99326762Y-93537091D01*
X99174279Y-93702729D01*
X99174275Y-93702734D01*
X99051141Y-93891206D01*
X98960703Y-94097386D01*
X98960702Y-94097387D01*
X98905437Y-94315624D01*
X98905436Y-94315630D01*
X98905436Y-94315632D01*
X98886844Y-94540000D01*
X94219593Y-94540000D01*
X94212209Y-94384976D01*
X94212208Y-94384971D01*
X94212208Y-94384966D01*
X94162298Y-94179236D01*
X94074356Y-93986669D01*
X94074353Y-93986665D01*
X94074351Y-93986661D01*
X93951564Y-93814231D01*
X93951555Y-93814221D01*
X93924321Y-93788254D01*
X93798346Y-93668137D01*
X93620254Y-93553684D01*
X93423721Y-93475004D01*
X93423720Y-93475003D01*
X93423718Y-93475003D01*
X93215853Y-93434940D01*
X93215849Y-93434940D01*
X92257197Y-93434940D01*
X92257195Y-93434940D01*
X92257177Y-93434941D01*
X92099271Y-93450019D01*
X92099256Y-93450022D01*
X91896135Y-93509663D01*
X91707976Y-93606667D01*
X91541564Y-93737534D01*
X91402938Y-93897517D01*
X91402930Y-93897528D01*
X91297089Y-94080852D01*
X91297086Y-94080859D01*
X91227848Y-94280909D01*
X91227845Y-94280920D01*
X91197718Y-94490454D01*
X68817233Y-94490454D01*
X68812209Y-94384976D01*
X68812208Y-94384971D01*
X68812208Y-94384966D01*
X68762298Y-94179236D01*
X68674356Y-93986669D01*
X68674353Y-93986665D01*
X68674351Y-93986661D01*
X68551564Y-93814231D01*
X68551555Y-93814221D01*
X68524321Y-93788254D01*
X68398346Y-93668137D01*
X68220254Y-93553684D01*
X68023721Y-93475004D01*
X68023720Y-93475003D01*
X68023718Y-93475003D01*
X67815853Y-93434940D01*
X67815849Y-93434940D01*
X66857197Y-93434940D01*
X66857195Y-93434940D01*
X66857177Y-93434941D01*
X66699271Y-93450019D01*
X66699256Y-93450022D01*
X66496135Y-93509663D01*
X66307976Y-93606667D01*
X66141564Y-93737534D01*
X66002938Y-93897517D01*
X66002930Y-93897528D01*
X65897089Y-94080852D01*
X65897086Y-94080859D01*
X65827848Y-94280909D01*
X65827845Y-94280920D01*
X65797718Y-94490454D01*
X45920500Y-94490454D01*
X45920500Y-91950454D01*
X65797718Y-91950454D01*
X65807790Y-92161903D01*
X65807792Y-92161916D01*
X65857700Y-92367638D01*
X65857702Y-92367644D01*
X65945644Y-92560211D01*
X65945648Y-92560218D01*
X66068435Y-92732648D01*
X66068439Y-92732653D01*
X66068441Y-92732655D01*
X66221654Y-92878743D01*
X66399746Y-92993196D01*
X66596279Y-93071876D01*
X66804151Y-93111940D01*
X66804155Y-93111940D01*
X67762801Y-93111940D01*
X67762803Y-93111940D01*
X67920739Y-93096859D01*
X68123862Y-93037217D01*
X68312026Y-92940211D01*
X68478432Y-92809348D01*
X68617065Y-92649358D01*
X68722913Y-92466022D01*
X68792153Y-92265967D01*
X68821636Y-92060908D01*
X68822281Y-92056425D01*
X68817233Y-91950454D01*
X91197718Y-91950454D01*
X91207790Y-92161903D01*
X91207792Y-92161916D01*
X91257700Y-92367638D01*
X91257702Y-92367644D01*
X91345644Y-92560211D01*
X91345648Y-92560218D01*
X91468435Y-92732648D01*
X91468439Y-92732653D01*
X91468441Y-92732655D01*
X91621654Y-92878743D01*
X91799746Y-92993196D01*
X91996279Y-93071876D01*
X92204151Y-93111940D01*
X92204155Y-93111940D01*
X93162801Y-93111940D01*
X93162803Y-93111940D01*
X93320739Y-93096859D01*
X93523862Y-93037217D01*
X93712026Y-92940211D01*
X93878432Y-92809348D01*
X94017065Y-92649358D01*
X94122913Y-92466022D01*
X94192153Y-92265967D01*
X94221636Y-92060908D01*
X94222281Y-92056425D01*
X94212209Y-91844976D01*
X94212208Y-91844971D01*
X94212208Y-91844966D01*
X94162298Y-91639236D01*
X94074356Y-91446669D01*
X94074353Y-91446665D01*
X94074351Y-91446661D01*
X93951564Y-91274231D01*
X93951555Y-91274221D01*
X93910762Y-91235325D01*
X93798346Y-91128137D01*
X93748895Y-91096357D01*
X93620254Y-91013684D01*
X93459328Y-90949259D01*
X93423721Y-90935004D01*
X93423720Y-90935003D01*
X93423718Y-90935003D01*
X93215853Y-90894940D01*
X93215849Y-90894940D01*
X92257197Y-90894940D01*
X92257195Y-90894940D01*
X92257177Y-90894941D01*
X92099271Y-90910019D01*
X92099256Y-90910022D01*
X91896135Y-90969663D01*
X91707976Y-91066667D01*
X91541564Y-91197534D01*
X91402938Y-91357517D01*
X91402930Y-91357528D01*
X91297089Y-91540852D01*
X91297086Y-91540859D01*
X91227848Y-91740909D01*
X91227845Y-91740920D01*
X91197718Y-91950454D01*
X68817233Y-91950454D01*
X68812209Y-91844976D01*
X68812208Y-91844971D01*
X68812208Y-91844966D01*
X68762298Y-91639236D01*
X68674356Y-91446669D01*
X68674353Y-91446665D01*
X68674351Y-91446661D01*
X68551564Y-91274231D01*
X68551555Y-91274221D01*
X68510762Y-91235325D01*
X68398346Y-91128137D01*
X68348895Y-91096357D01*
X68220254Y-91013684D01*
X68059328Y-90949259D01*
X68023721Y-90935004D01*
X68023720Y-90935003D01*
X68023718Y-90935003D01*
X67815853Y-90894940D01*
X67815849Y-90894940D01*
X66857197Y-90894940D01*
X66857195Y-90894940D01*
X66857177Y-90894941D01*
X66699271Y-90910019D01*
X66699256Y-90910022D01*
X66496135Y-90969663D01*
X66307976Y-91066667D01*
X66141564Y-91197534D01*
X66002938Y-91357517D01*
X66002930Y-91357528D01*
X65897089Y-91540852D01*
X65897086Y-91540859D01*
X65827848Y-91740909D01*
X65827845Y-91740920D01*
X65797718Y-91950454D01*
X45920500Y-91950454D01*
X45920500Y-91590302D01*
X45920615Y-91586497D01*
X45924401Y-91523907D01*
X45913095Y-91462216D01*
X45912525Y-91458469D01*
X45904965Y-91396199D01*
X45901347Y-91386662D01*
X45895225Y-91364696D01*
X45893388Y-91354669D01*
X45867651Y-91297485D01*
X45866194Y-91293967D01*
X45843954Y-91235326D01*
X45843951Y-91235320D01*
X45838163Y-91226935D01*
X45826958Y-91207070D01*
X45822775Y-91197774D01*
X45784088Y-91148395D01*
X45781846Y-91145348D01*
X45746215Y-91093727D01*
X45699249Y-91052119D01*
X45696503Y-91049533D01*
X44702464Y-90055494D01*
X44699880Y-90052750D01*
X44658273Y-90005785D01*
X44658270Y-90005783D01*
X44658271Y-90005783D01*
X44606655Y-89970154D01*
X44603590Y-89967899D01*
X44585146Y-89953449D01*
X44554226Y-89929225D01*
X44554222Y-89929223D01*
X44544919Y-89925035D01*
X44525069Y-89913840D01*
X44516675Y-89908046D01*
X44484462Y-89895829D01*
X44458043Y-89885809D01*
X44454528Y-89884353D01*
X44397332Y-89858612D01*
X44397330Y-89858611D01*
X44397329Y-89858611D01*
X44387286Y-89856770D01*
X44365347Y-89850655D01*
X44363072Y-89849792D01*
X44306465Y-89806944D01*
X44282456Y-89745440D01*
X44280990Y-89731802D01*
X44280988Y-89731795D01*
X44240004Y-89621916D01*
X44229889Y-89594796D01*
X44229888Y-89594794D01*
X44229887Y-89594792D01*
X44142261Y-89477738D01*
X44064673Y-89419657D01*
X44057784Y-89410454D01*
X65797718Y-89410454D01*
X65807790Y-89621903D01*
X65807792Y-89621916D01*
X65857700Y-89827638D01*
X65857702Y-89827644D01*
X65945644Y-90020211D01*
X65945648Y-90020218D01*
X66068435Y-90192648D01*
X66068439Y-90192653D01*
X66068441Y-90192655D01*
X66221654Y-90338743D01*
X66399746Y-90453196D01*
X66596279Y-90531876D01*
X66804151Y-90571940D01*
X66804155Y-90571940D01*
X67762801Y-90571940D01*
X67762803Y-90571940D01*
X67920739Y-90556859D01*
X68123862Y-90497217D01*
X68312026Y-90400211D01*
X68478432Y-90269348D01*
X68617065Y-90109358D01*
X68722913Y-89926022D01*
X68792153Y-89725967D01*
X68811013Y-89594792D01*
X68822281Y-89516425D01*
X68817233Y-89410454D01*
X91197718Y-89410454D01*
X91207790Y-89621903D01*
X91207792Y-89621916D01*
X91257700Y-89827638D01*
X91257702Y-89827644D01*
X91345644Y-90020211D01*
X91345648Y-90020218D01*
X91468435Y-90192648D01*
X91468439Y-90192653D01*
X91468441Y-90192655D01*
X91621654Y-90338743D01*
X91799746Y-90453196D01*
X91996279Y-90531876D01*
X92204151Y-90571940D01*
X92204155Y-90571940D01*
X93162801Y-90571940D01*
X93162803Y-90571940D01*
X93320739Y-90556859D01*
X93523862Y-90497217D01*
X93712026Y-90400211D01*
X93878432Y-90269348D01*
X94017065Y-90109358D01*
X94122913Y-89926022D01*
X94192153Y-89725967D01*
X94211013Y-89594792D01*
X94222281Y-89516425D01*
X94212209Y-89304976D01*
X94212208Y-89304971D01*
X94212208Y-89304966D01*
X94162298Y-89099236D01*
X94074356Y-88906669D01*
X94074353Y-88906665D01*
X94074351Y-88906661D01*
X93951564Y-88734231D01*
X93951555Y-88734221D01*
X93900664Y-88685697D01*
X93798346Y-88588137D01*
X93620254Y-88473684D01*
X93423721Y-88395004D01*
X93423720Y-88395003D01*
X93423718Y-88395003D01*
X93215853Y-88354940D01*
X93215849Y-88354940D01*
X92257197Y-88354940D01*
X92257195Y-88354940D01*
X92257177Y-88354941D01*
X92099271Y-88370019D01*
X92099256Y-88370022D01*
X91896135Y-88429663D01*
X91707976Y-88526667D01*
X91541564Y-88657534D01*
X91402938Y-88817517D01*
X91402930Y-88817528D01*
X91297089Y-89000852D01*
X91297086Y-89000859D01*
X91227848Y-89200909D01*
X91227845Y-89200920D01*
X91197718Y-89410454D01*
X68817233Y-89410454D01*
X68812209Y-89304976D01*
X68812208Y-89304971D01*
X68812208Y-89304966D01*
X68762298Y-89099236D01*
X68674356Y-88906669D01*
X68674353Y-88906665D01*
X68674351Y-88906661D01*
X68551564Y-88734231D01*
X68551555Y-88734221D01*
X68500664Y-88685697D01*
X68398346Y-88588137D01*
X68220254Y-88473684D01*
X68023721Y-88395004D01*
X68023720Y-88395003D01*
X68023718Y-88395003D01*
X67815853Y-88354940D01*
X67815849Y-88354940D01*
X66857197Y-88354940D01*
X66857195Y-88354940D01*
X66857177Y-88354941D01*
X66699271Y-88370019D01*
X66699256Y-88370022D01*
X66496135Y-88429663D01*
X66307976Y-88526667D01*
X66141564Y-88657534D01*
X66002938Y-88817517D01*
X66002930Y-88817528D01*
X65897089Y-89000852D01*
X65897086Y-89000859D01*
X65827848Y-89200909D01*
X65827845Y-89200920D01*
X65797718Y-89410454D01*
X44057784Y-89410454D01*
X44022126Y-89362821D01*
X44017061Y-89292006D01*
X44036969Y-89246518D01*
X44129720Y-89114056D01*
X44219013Y-88922567D01*
X44273697Y-88718481D01*
X44292112Y-88508000D01*
X44273697Y-88297519D01*
X44219013Y-88093433D01*
X44129720Y-87901944D01*
X44129719Y-87901943D01*
X44129718Y-87901940D01*
X44008538Y-87728877D01*
X44008535Y-87728873D01*
X44008532Y-87728869D01*
X43859131Y-87579468D01*
X43844698Y-87569362D01*
X43751836Y-87504339D01*
X43735012Y-87490221D01*
X43158921Y-86914130D01*
X43212647Y-86906033D01*
X43333509Y-86847829D01*
X43431844Y-86756587D01*
X43498917Y-86640413D01*
X43518374Y-86555165D01*
X44094578Y-87131369D01*
X44094580Y-87131369D01*
X44129285Y-87081806D01*
X44129286Y-87081805D01*
X44218540Y-86890398D01*
X44218542Y-86890393D01*
X44223885Y-86870454D01*
X65797718Y-86870454D01*
X65807790Y-87081903D01*
X65807792Y-87081916D01*
X65857700Y-87287638D01*
X65857702Y-87287644D01*
X65945644Y-87480211D01*
X65945648Y-87480218D01*
X66068435Y-87652648D01*
X66068439Y-87652653D01*
X66068441Y-87652655D01*
X66221654Y-87798743D01*
X66399746Y-87913196D01*
X66596279Y-87991876D01*
X66804151Y-88031940D01*
X66804155Y-88031940D01*
X67762801Y-88031940D01*
X67762803Y-88031940D01*
X67920739Y-88016859D01*
X68123862Y-87957217D01*
X68312026Y-87860211D01*
X68478432Y-87729348D01*
X68478841Y-87728877D01*
X68562335Y-87632519D01*
X68617065Y-87569358D01*
X68722913Y-87386022D01*
X68792153Y-87185967D01*
X68807758Y-87077433D01*
X68822281Y-86976425D01*
X68817233Y-86870454D01*
X91197718Y-86870454D01*
X91207790Y-87081903D01*
X91207792Y-87081916D01*
X91257700Y-87287638D01*
X91257702Y-87287644D01*
X91345644Y-87480211D01*
X91345648Y-87480218D01*
X91468435Y-87652648D01*
X91468439Y-87652653D01*
X91468441Y-87652655D01*
X91621654Y-87798743D01*
X91799746Y-87913196D01*
X91996279Y-87991876D01*
X92204151Y-88031940D01*
X92204155Y-88031940D01*
X93162801Y-88031940D01*
X93162803Y-88031940D01*
X93320739Y-88016859D01*
X93523862Y-87957217D01*
X93712026Y-87860211D01*
X93878432Y-87729348D01*
X93878841Y-87728877D01*
X93962335Y-87632519D01*
X94017065Y-87569358D01*
X94122913Y-87386022D01*
X94192153Y-87185967D01*
X94207758Y-87077433D01*
X94222281Y-86976425D01*
X94212209Y-86764976D01*
X94212208Y-86764971D01*
X94212208Y-86764966D01*
X94162298Y-86559236D01*
X94074356Y-86366669D01*
X94074353Y-86366665D01*
X94074351Y-86366661D01*
X93951564Y-86194231D01*
X93951555Y-86194221D01*
X93901095Y-86146108D01*
X93798346Y-86048137D01*
X93794969Y-86045967D01*
X93620254Y-85933684D01*
X93472587Y-85874567D01*
X93423721Y-85855004D01*
X93423720Y-85855003D01*
X93423718Y-85855003D01*
X93215853Y-85814940D01*
X93215849Y-85814940D01*
X92257197Y-85814940D01*
X92257195Y-85814940D01*
X92257177Y-85814941D01*
X92099271Y-85830019D01*
X92099256Y-85830022D01*
X91896135Y-85889663D01*
X91707976Y-85986667D01*
X91541564Y-86117534D01*
X91402938Y-86277517D01*
X91402930Y-86277528D01*
X91297089Y-86460852D01*
X91297086Y-86460859D01*
X91227848Y-86660909D01*
X91227845Y-86660920D01*
X91197718Y-86870454D01*
X68817233Y-86870454D01*
X68812209Y-86764976D01*
X68812208Y-86764971D01*
X68812208Y-86764966D01*
X68762298Y-86559236D01*
X68674356Y-86366669D01*
X68674353Y-86366665D01*
X68674351Y-86366661D01*
X68551564Y-86194231D01*
X68551555Y-86194221D01*
X68501095Y-86146108D01*
X68398346Y-86048137D01*
X68394969Y-86045967D01*
X68220254Y-85933684D01*
X68072587Y-85874567D01*
X68023721Y-85855004D01*
X68023720Y-85855003D01*
X68023718Y-85855003D01*
X67815853Y-85814940D01*
X67815849Y-85814940D01*
X66857197Y-85814940D01*
X66857195Y-85814940D01*
X66857177Y-85814941D01*
X66699271Y-85830019D01*
X66699256Y-85830022D01*
X66496135Y-85889663D01*
X66307976Y-85986667D01*
X66141564Y-86117534D01*
X66002938Y-86277517D01*
X66002930Y-86277528D01*
X65897089Y-86460852D01*
X65897086Y-86460859D01*
X65827848Y-86660909D01*
X65827845Y-86660920D01*
X65797718Y-86870454D01*
X44223885Y-86870454D01*
X44273203Y-86686392D01*
X44291610Y-86475999D01*
X44273203Y-86265607D01*
X44218542Y-86061606D01*
X44218540Y-86061601D01*
X44129285Y-85870194D01*
X44094579Y-85820629D01*
X43520179Y-86395029D01*
X43518743Y-86375860D01*
X43469734Y-86250987D01*
X43386095Y-86146108D01*
X43275259Y-86070541D01*
X43161376Y-86035412D01*
X43735369Y-85461418D01*
X43735369Y-85461417D01*
X43685809Y-85426715D01*
X43494398Y-85337459D01*
X43494393Y-85337457D01*
X43290392Y-85282796D01*
X43079999Y-85264389D01*
X42869607Y-85282796D01*
X42665606Y-85337457D01*
X42665601Y-85337459D01*
X42474193Y-85426714D01*
X42450377Y-85443390D01*
X42383102Y-85466076D01*
X42314242Y-85448789D01*
X42265659Y-85397018D01*
X42252589Y-85351162D01*
X42243697Y-85249519D01*
X42189013Y-85045433D01*
X42099720Y-84853944D01*
X42099719Y-84853943D01*
X42099718Y-84853940D01*
X41978538Y-84680877D01*
X41978535Y-84680873D01*
X41978532Y-84680869D01*
X41829131Y-84531468D01*
X41829127Y-84531465D01*
X41829122Y-84531461D01*
X41656059Y-84410281D01*
X41484869Y-84330454D01*
X65797718Y-84330454D01*
X65807790Y-84541903D01*
X65807792Y-84541916D01*
X65857700Y-84747638D01*
X65857702Y-84747644D01*
X65945644Y-84940211D01*
X65945648Y-84940218D01*
X66068435Y-85112648D01*
X66068439Y-85112653D01*
X66068441Y-85112655D01*
X66221654Y-85258743D01*
X66399746Y-85373196D01*
X66596279Y-85451876D01*
X66804151Y-85491940D01*
X66804155Y-85491940D01*
X67762801Y-85491940D01*
X67762803Y-85491940D01*
X67920739Y-85476859D01*
X68123862Y-85417217D01*
X68312026Y-85320211D01*
X68478432Y-85189348D01*
X68478748Y-85188984D01*
X68603135Y-85045434D01*
X68617065Y-85029358D01*
X68722913Y-84846022D01*
X68792153Y-84645967D01*
X68822281Y-84436424D01*
X68816176Y-84308261D01*
X68812209Y-84224976D01*
X68812208Y-84224971D01*
X68812208Y-84224966D01*
X68789033Y-84129440D01*
X91227126Y-84129440D01*
X92398314Y-84129440D01*
X92382359Y-84145395D01*
X92324835Y-84258292D01*
X92305014Y-84383440D01*
X92324835Y-84508588D01*
X92382359Y-84621485D01*
X92398314Y-84637440D01*
X91231480Y-84637440D01*
X91258175Y-84747478D01*
X91258177Y-84747485D01*
X91346077Y-84939955D01*
X91346079Y-84939959D01*
X91468821Y-85112327D01*
X91468822Y-85112328D01*
X91621964Y-85258349D01*
X91621965Y-85258350D01*
X91799975Y-85372748D01*
X91799980Y-85372751D01*
X91996414Y-85451392D01*
X91996420Y-85451393D01*
X92204194Y-85491439D01*
X92204203Y-85491440D01*
X92456000Y-85491440D01*
X92456000Y-84695126D01*
X92471955Y-84711081D01*
X92584852Y-84768605D01*
X92678519Y-84783440D01*
X92741481Y-84783440D01*
X92835148Y-84768605D01*
X92948045Y-84711081D01*
X92964000Y-84695126D01*
X92964000Y-85491440D01*
X93162779Y-85491440D01*
X93162800Y-85491438D01*
X93320633Y-85476367D01*
X93320648Y-85476364D01*
X93523677Y-85416750D01*
X93711754Y-85319789D01*
X93878085Y-85188984D01*
X93878091Y-85188979D01*
X94016656Y-85029065D01*
X94016657Y-85029064D01*
X94122454Y-84845817D01*
X94122458Y-84845808D01*
X94191662Y-84645855D01*
X94191664Y-84645849D01*
X94192873Y-84637440D01*
X93021686Y-84637440D01*
X93037641Y-84621485D01*
X93095165Y-84508588D01*
X93114986Y-84383440D01*
X93095165Y-84258292D01*
X93037641Y-84145395D01*
X93021686Y-84129440D01*
X94188519Y-84129440D01*
X94188519Y-84129439D01*
X94161824Y-84019401D01*
X94161822Y-84019394D01*
X94073922Y-83826924D01*
X94073920Y-83826920D01*
X93951178Y-83654552D01*
X93951177Y-83654551D01*
X93798035Y-83508530D01*
X93798034Y-83508529D01*
X93620024Y-83394131D01*
X93620019Y-83394128D01*
X93423585Y-83315487D01*
X93423579Y-83315486D01*
X93215805Y-83275440D01*
X92964000Y-83275440D01*
X92964000Y-84071754D01*
X92948045Y-84055799D01*
X92835148Y-83998275D01*
X92741481Y-83983440D01*
X92678519Y-83983440D01*
X92584852Y-83998275D01*
X92471955Y-84055799D01*
X92456000Y-84071753D01*
X92456000Y-83275440D01*
X92257221Y-83275440D01*
X92257199Y-83275441D01*
X92099366Y-83290512D01*
X92099351Y-83290515D01*
X91896322Y-83350129D01*
X91708245Y-83447090D01*
X91541914Y-83577895D01*
X91541908Y-83577900D01*
X91403343Y-83737814D01*
X91403342Y-83737815D01*
X91297545Y-83921062D01*
X91297541Y-83921071D01*
X91228337Y-84121024D01*
X91228335Y-84121030D01*
X91227126Y-84129440D01*
X68789033Y-84129440D01*
X68762298Y-84019236D01*
X68674356Y-83826669D01*
X68674354Y-83826666D01*
X68674353Y-83826664D01*
X68674351Y-83826661D01*
X68551564Y-83654231D01*
X68551555Y-83654221D01*
X68471506Y-83577895D01*
X68398346Y-83508137D01*
X68220254Y-83393684D01*
X68023721Y-83315004D01*
X68023720Y-83315003D01*
X68023718Y-83315003D01*
X67815853Y-83274940D01*
X67815849Y-83274940D01*
X66857197Y-83274940D01*
X66857195Y-83274940D01*
X66857177Y-83274941D01*
X66699271Y-83290019D01*
X66699256Y-83290022D01*
X66496135Y-83349663D01*
X66307976Y-83446667D01*
X66141564Y-83577534D01*
X66002938Y-83737517D01*
X66002930Y-83737528D01*
X65897089Y-83920852D01*
X65897086Y-83920859D01*
X65827848Y-84120909D01*
X65827845Y-84120920D01*
X65797718Y-84330454D01*
X41484869Y-84330454D01*
X41464569Y-84320988D01*
X41464565Y-84320986D01*
X41260484Y-84266303D01*
X41050000Y-84247888D01*
X40839515Y-84266303D01*
X40635434Y-84320986D01*
X40635430Y-84320988D01*
X40443940Y-84410281D01*
X40270877Y-84531461D01*
X40270866Y-84531470D01*
X40121470Y-84680866D01*
X40121461Y-84680877D01*
X40000281Y-84853940D01*
X39910988Y-85045430D01*
X39910986Y-85045434D01*
X39856303Y-85249515D01*
X39837888Y-85460000D01*
X39849673Y-85594705D01*
X39835683Y-85664310D01*
X39813247Y-85694781D01*
X39139511Y-86368518D01*
X39136740Y-86371126D01*
X39089784Y-86412726D01*
X39054157Y-86464339D01*
X39051904Y-86467401D01*
X39013227Y-86516769D01*
X39013222Y-86516779D01*
X39009035Y-86526080D01*
X38997846Y-86545921D01*
X38992045Y-86554326D01*
X38969807Y-86612961D01*
X38968351Y-86616476D01*
X38942613Y-86673665D01*
X38942609Y-86673678D01*
X38940770Y-86683711D01*
X38934651Y-86705661D01*
X38931034Y-86715199D01*
X38923476Y-86777441D01*
X38922904Y-86781201D01*
X38911598Y-86842906D01*
X38911598Y-86842907D01*
X38914201Y-86885944D01*
X38915385Y-86905508D01*
X38915500Y-86909313D01*
X38915500Y-90654685D01*
X38915385Y-90658488D01*
X38911598Y-90721093D01*
X38914258Y-90735610D01*
X38922902Y-90782783D01*
X38923475Y-90786546D01*
X38925464Y-90802925D01*
X38913817Y-90872960D01*
X38866156Y-90925580D01*
X38797612Y-90944080D01*
X38756350Y-90936166D01*
X38645817Y-90894940D01*
X38557984Y-90862180D01*
X38557980Y-90862179D01*
X38557977Y-90862178D01*
X38281863Y-90802113D01*
X38281864Y-90802113D01*
X38211424Y-90797075D01*
X38070553Y-90787000D01*
X37929447Y-90787000D01*
X37802662Y-90796067D01*
X37718135Y-90802113D01*
X37442022Y-90862178D01*
X37442017Y-90862179D01*
X37442016Y-90862180D01*
X37423637Y-90869035D01*
X37177251Y-90960931D01*
X37177247Y-90960933D01*
X36929238Y-91096357D01*
X36703020Y-91265700D01*
X36703011Y-91265708D01*
X36503208Y-91465511D01*
X36503200Y-91465520D01*
X36333857Y-91691738D01*
X36198433Y-91939747D01*
X36198431Y-91939751D01*
X36099678Y-92204522D01*
X36039613Y-92480635D01*
X36019454Y-92762499D01*
X36039613Y-93044364D01*
X36090550Y-93278516D01*
X36099680Y-93320484D01*
X36142370Y-93434940D01*
X36198431Y-93585248D01*
X36198433Y-93585252D01*
X36333857Y-93833261D01*
X36503200Y-94059479D01*
X36503208Y-94059488D01*
X36703011Y-94259291D01*
X36703020Y-94259299D01*
X36731903Y-94280920D01*
X36929236Y-94428641D01*
X37177251Y-94564068D01*
X37442016Y-94662820D01*
X37718139Y-94722887D01*
X37929447Y-94738000D01*
X37929453Y-94738000D01*
X38070547Y-94738000D01*
X38070553Y-94738000D01*
X38281861Y-94722887D01*
X38557984Y-94662820D01*
X38822749Y-94564068D01*
X39070764Y-94428641D01*
X39296982Y-94259297D01*
X39496797Y-94059482D01*
X39666141Y-93833264D01*
X39801568Y-93585249D01*
X39900320Y-93320484D01*
X39960387Y-93044361D01*
X39980546Y-92762500D01*
X39960387Y-92480639D01*
X39922524Y-92306586D01*
X39927588Y-92235772D01*
X39970135Y-92178936D01*
X40036655Y-92154125D01*
X40106029Y-92169216D01*
X40134739Y-92190709D01*
X40304595Y-92360565D01*
X40338621Y-92422877D01*
X40341500Y-92449660D01*
X40341500Y-98416420D01*
X40321498Y-98484541D01*
X40287774Y-98519631D01*
X40270866Y-98531470D01*
X40121465Y-98680872D01*
X40121461Y-98680877D01*
X40000281Y-98853940D01*
X39910988Y-99045430D01*
X39910986Y-99045434D01*
X39856303Y-99249515D01*
X39837888Y-99460000D01*
X39856303Y-99670484D01*
X39910986Y-99874565D01*
X39910988Y-99874569D01*
X40000281Y-100066059D01*
X40121461Y-100239122D01*
X40121470Y-100239133D01*
X40268241Y-100385904D01*
X40302267Y-100448216D01*
X40297202Y-100519031D01*
X40268242Y-100564094D01*
X40119465Y-100712872D01*
X40119461Y-100712877D01*
X39998281Y-100885940D01*
X39908988Y-101077430D01*
X39908986Y-101077434D01*
X39854303Y-101281515D01*
X39847652Y-101357534D01*
X39835888Y-101492000D01*
X39838147Y-101517815D01*
X39854303Y-101702484D01*
X39908986Y-101906565D01*
X39908988Y-101906569D01*
X39998281Y-102098059D01*
X40119461Y-102271122D01*
X40119465Y-102271127D01*
X40119468Y-102271131D01*
X40268869Y-102420532D01*
X40382837Y-102500333D01*
X40399655Y-102514445D01*
X40971079Y-103085869D01*
X40917353Y-103093967D01*
X40796491Y-103152171D01*
X40698156Y-103243413D01*
X40631083Y-103359587D01*
X40611625Y-103444834D01*
X40035419Y-102868628D01*
X40035418Y-102868628D01*
X40000717Y-102918188D01*
X39911459Y-103109602D01*
X39911457Y-103109606D01*
X39856796Y-103313607D01*
X39838389Y-103523999D01*
X39856796Y-103734392D01*
X39911457Y-103938393D01*
X39911459Y-103938398D01*
X40000715Y-104129809D01*
X40035417Y-104179369D01*
X40035418Y-104179369D01*
X40609820Y-103604968D01*
X40611257Y-103624140D01*
X40660266Y-103749013D01*
X40743905Y-103853892D01*
X40854741Y-103929459D01*
X40968620Y-103964586D01*
X40394629Y-104538578D01*
X40394629Y-104538579D01*
X40444198Y-104573288D01*
X40635601Y-104662540D01*
X40635606Y-104662542D01*
X40839607Y-104717203D01*
X41049999Y-104735610D01*
X41260392Y-104717203D01*
X41464393Y-104662542D01*
X41464398Y-104662540D01*
X41655808Y-104573284D01*
X41674226Y-104560388D01*
X41741499Y-104537698D01*
X41810360Y-104554981D01*
X41858945Y-104606750D01*
X41872499Y-104663599D01*
X41872499Y-105287632D01*
X41872500Y-105287649D01*
X41879009Y-105348196D01*
X41879011Y-105348204D01*
X41930110Y-105485202D01*
X41930112Y-105485207D01*
X42017738Y-105602261D01*
X42134792Y-105689887D01*
X42134794Y-105689888D01*
X42134796Y-105689889D01*
X42193875Y-105711924D01*
X42271795Y-105740988D01*
X42271803Y-105740990D01*
X42332350Y-105747499D01*
X42332355Y-105747499D01*
X42332362Y-105747500D01*
X42332368Y-105747500D01*
X43547405Y-105747500D01*
X43615526Y-105767502D01*
X43662019Y-105821158D01*
X43672123Y-105891432D01*
X43642629Y-105956012D01*
X43636514Y-105962579D01*
X42302670Y-107296424D01*
X41902336Y-107696758D01*
X41889901Y-107706721D01*
X41890089Y-107706948D01*
X41883979Y-107712002D01*
X41836694Y-107762355D01*
X41835319Y-107763774D01*
X41814863Y-107784231D01*
X41810560Y-107789777D01*
X41806714Y-107794279D01*
X41774417Y-107828674D01*
X41774411Y-107828683D01*
X41764651Y-107846435D01*
X41753803Y-107862950D01*
X41741386Y-107878958D01*
X41722645Y-107922264D01*
X41720034Y-107927594D01*
X41697305Y-107968939D01*
X41697303Y-107968944D01*
X41692267Y-107988559D01*
X41685864Y-108007262D01*
X41677819Y-108025852D01*
X41670437Y-108072456D01*
X41669233Y-108078268D01*
X41657500Y-108123968D01*
X41657500Y-108144223D01*
X41655949Y-108163933D01*
X41652780Y-108183942D01*
X41652779Y-108183950D01*
X41653675Y-108193425D01*
X41640170Y-108263125D01*
X41591125Y-108314459D01*
X41522113Y-108331128D01*
X41476987Y-108320384D01*
X41315994Y-108248706D01*
X41129193Y-108209000D01*
X40938219Y-108209000D01*
X40751417Y-108248706D01*
X40576953Y-108326382D01*
X40422450Y-108438635D01*
X40294671Y-108580548D01*
X40294664Y-108580558D01*
X40199182Y-108745938D01*
X40199179Y-108745945D01*
X40140163Y-108927572D01*
X40120202Y-109117500D01*
X40140163Y-109307427D01*
X40170232Y-109399970D01*
X40199179Y-109489056D01*
X40199182Y-109489061D01*
X40294664Y-109654441D01*
X40294671Y-109654451D01*
X40422450Y-109796364D01*
X40422453Y-109796366D01*
X40576954Y-109908618D01*
X40751418Y-109986294D01*
X40938219Y-110026000D01*
X41129193Y-110026000D01*
X41315994Y-109986294D01*
X41480252Y-109913161D01*
X41550618Y-109903728D01*
X41614915Y-109933834D01*
X41652729Y-109993923D01*
X41657500Y-110028269D01*
X41657500Y-118296474D01*
X41637498Y-118364595D01*
X41625137Y-118380784D01*
X41551957Y-118462059D01*
X41456968Y-118626586D01*
X41456473Y-118627444D01*
X41450138Y-118646941D01*
X41397457Y-118809072D01*
X41377496Y-118999000D01*
X41397457Y-119188927D01*
X41427526Y-119281470D01*
X41456473Y-119370556D01*
X41456476Y-119370561D01*
X41551958Y-119535941D01*
X41551965Y-119535951D01*
X41679744Y-119677864D01*
X41774301Y-119746564D01*
X41817655Y-119802786D01*
X41823730Y-119873523D01*
X41790598Y-119936314D01*
X41728778Y-119971226D01*
X41700240Y-119974500D01*
X30151500Y-119974500D01*
X30083379Y-119954498D01*
X30036886Y-119900842D01*
X30025500Y-119848500D01*
X30025500Y-115000002D01*
X31637068Y-115000002D01*
X31656782Y-115363597D01*
X31715689Y-115722926D01*
X31813106Y-116073787D01*
X31947881Y-116412046D01*
X31947885Y-116412055D01*
X32118445Y-116733768D01*
X32118447Y-116733772D01*
X32322792Y-117035158D01*
X32322791Y-117035158D01*
X32452695Y-117188093D01*
X33699994Y-115940794D01*
X33701570Y-115943365D01*
X33865130Y-116134870D01*
X34056635Y-116298430D01*
X34059203Y-116300004D01*
X32809134Y-117550073D01*
X32822892Y-117563105D01*
X33112761Y-117783458D01*
X33112767Y-117783462D01*
X33424772Y-117971189D01*
X33424779Y-117971193D01*
X33755239Y-118124081D01*
X33755251Y-118124086D01*
X34100310Y-118240349D01*
X34100327Y-118240354D01*
X34455920Y-118318626D01*
X34455949Y-118318631D01*
X34817927Y-118357999D01*
X34817943Y-118358000D01*
X35182057Y-118358000D01*
X35182072Y-118357999D01*
X35544050Y-118318631D01*
X35544079Y-118318626D01*
X35899672Y-118240354D01*
X35899689Y-118240349D01*
X36244748Y-118124086D01*
X36244760Y-118124081D01*
X36575220Y-117971193D01*
X36575227Y-117971189D01*
X36887232Y-117783462D01*
X36887238Y-117783458D01*
X37177113Y-117563101D01*
X37190865Y-117550074D01*
X35940795Y-116300004D01*
X35943365Y-116298430D01*
X36134870Y-116134870D01*
X36298430Y-115943365D01*
X36300004Y-115940795D01*
X37547302Y-117188093D01*
X37547303Y-117188093D01*
X37677203Y-117035165D01*
X37677205Y-117035161D01*
X37881552Y-116733772D01*
X37881554Y-116733768D01*
X38052114Y-116412055D01*
X38052118Y-116412046D01*
X38186893Y-116073787D01*
X38284310Y-115722926D01*
X38343217Y-115363597D01*
X38362932Y-115000002D01*
X38362932Y-114999997D01*
X38343217Y-114636402D01*
X38284310Y-114277073D01*
X38186893Y-113926212D01*
X38052118Y-113587953D01*
X38052114Y-113587944D01*
X37881554Y-113266231D01*
X37881552Y-113266227D01*
X37677207Y-112964841D01*
X37677208Y-112964841D01*
X37547302Y-112811905D01*
X36300004Y-114059203D01*
X36298430Y-114056635D01*
X36134870Y-113865130D01*
X35943365Y-113701570D01*
X35940794Y-113699994D01*
X37190864Y-112449924D01*
X37177107Y-112436894D01*
X36887238Y-112216541D01*
X36887232Y-112216537D01*
X36575227Y-112028810D01*
X36575220Y-112028806D01*
X36244760Y-111875918D01*
X36244748Y-111875913D01*
X35899689Y-111759650D01*
X35899672Y-111759645D01*
X35544079Y-111681373D01*
X35544050Y-111681368D01*
X35182072Y-111642000D01*
X34817927Y-111642000D01*
X34455949Y-111681368D01*
X34455920Y-111681373D01*
X34100327Y-111759645D01*
X34100310Y-111759650D01*
X33755251Y-111875913D01*
X33755239Y-111875918D01*
X33424779Y-112028806D01*
X33424772Y-112028810D01*
X33112767Y-112216537D01*
X33112761Y-112216541D01*
X32822880Y-112436903D01*
X32822874Y-112436909D01*
X32809134Y-112449923D01*
X32809133Y-112449924D01*
X34059204Y-113699995D01*
X34056635Y-113701570D01*
X33865130Y-113865130D01*
X33701570Y-114056635D01*
X33699995Y-114059204D01*
X32452696Y-112811905D01*
X32322791Y-112964842D01*
X32118447Y-113266227D01*
X32118445Y-113266231D01*
X31947885Y-113587944D01*
X31947881Y-113587953D01*
X31813106Y-113926212D01*
X31715689Y-114277073D01*
X31656782Y-114636402D01*
X31637068Y-114999997D01*
X31637068Y-115000002D01*
X30025500Y-115000002D01*
X30025500Y-106762499D01*
X36019454Y-106762499D01*
X36039613Y-107044364D01*
X36071394Y-107190456D01*
X36099680Y-107320484D01*
X36148409Y-107451134D01*
X36198431Y-107585248D01*
X36198433Y-107585252D01*
X36333857Y-107833261D01*
X36503200Y-108059479D01*
X36503208Y-108059488D01*
X36703011Y-108259291D01*
X36703020Y-108259299D01*
X36776706Y-108314459D01*
X36929236Y-108428641D01*
X37177251Y-108564068D01*
X37442016Y-108662820D01*
X37718139Y-108722887D01*
X37929447Y-108738000D01*
X37929453Y-108738000D01*
X38070547Y-108738000D01*
X38070553Y-108738000D01*
X38281861Y-108722887D01*
X38557984Y-108662820D01*
X38822749Y-108564068D01*
X39070764Y-108428641D01*
X39296982Y-108259297D01*
X39496797Y-108059482D01*
X39666141Y-107833264D01*
X39801568Y-107585249D01*
X39900320Y-107320484D01*
X39960387Y-107044361D01*
X39980546Y-106762500D01*
X39960387Y-106480639D01*
X39900320Y-106204516D01*
X39801568Y-105939751D01*
X39666141Y-105691736D01*
X39529608Y-105509348D01*
X39496799Y-105465520D01*
X39496791Y-105465511D01*
X39296988Y-105265708D01*
X39296979Y-105265700D01*
X39070761Y-105096357D01*
X38822752Y-104960933D01*
X38822748Y-104960931D01*
X38674017Y-104905458D01*
X38557984Y-104862180D01*
X38557980Y-104862179D01*
X38557977Y-104862178D01*
X38281863Y-104802113D01*
X38281864Y-104802113D01*
X38211424Y-104797075D01*
X38070553Y-104787000D01*
X37929447Y-104787000D01*
X37802662Y-104796067D01*
X37718135Y-104802113D01*
X37442022Y-104862178D01*
X37442017Y-104862179D01*
X37442016Y-104862180D01*
X37412851Y-104873058D01*
X37177251Y-104960931D01*
X37177247Y-104960933D01*
X36929238Y-105096357D01*
X36703020Y-105265700D01*
X36703011Y-105265708D01*
X36503208Y-105465511D01*
X36503200Y-105465520D01*
X36333857Y-105691738D01*
X36198433Y-105939747D01*
X36198431Y-105939751D01*
X36099678Y-106204522D01*
X36039613Y-106480635D01*
X36019454Y-106762499D01*
X30025500Y-106762499D01*
X30025500Y-97237500D01*
X36019454Y-97237500D01*
X36039613Y-97519364D01*
X36099678Y-97795477D01*
X36099680Y-97795484D01*
X36148409Y-97926134D01*
X36198431Y-98060248D01*
X36198433Y-98060252D01*
X36333857Y-98308261D01*
X36503200Y-98534479D01*
X36503208Y-98534488D01*
X36703011Y-98734291D01*
X36703020Y-98734299D01*
X36721503Y-98748135D01*
X36929236Y-98903641D01*
X37177251Y-99039068D01*
X37442016Y-99137820D01*
X37718139Y-99197887D01*
X37929447Y-99213000D01*
X37929453Y-99213000D01*
X38070547Y-99213000D01*
X38070553Y-99213000D01*
X38281861Y-99197887D01*
X38557984Y-99137820D01*
X38822749Y-99039068D01*
X39070764Y-98903641D01*
X39296982Y-98734297D01*
X39496797Y-98534482D01*
X39666141Y-98308264D01*
X39801568Y-98060249D01*
X39900320Y-97795484D01*
X39960387Y-97519361D01*
X39980546Y-97237500D01*
X39960387Y-96955639D01*
X39900320Y-96679516D01*
X39801568Y-96414751D01*
X39768521Y-96354231D01*
X39666142Y-96166738D01*
X39651117Y-96146667D01*
X39533855Y-95990022D01*
X39496799Y-95940520D01*
X39496791Y-95940511D01*
X39296988Y-95740708D01*
X39296979Y-95740700D01*
X39070761Y-95571357D01*
X38822752Y-95435933D01*
X38822748Y-95435931D01*
X38688634Y-95385909D01*
X38557984Y-95337180D01*
X38557980Y-95337179D01*
X38557977Y-95337178D01*
X38281863Y-95277113D01*
X38281864Y-95277113D01*
X38211424Y-95272075D01*
X38070553Y-95262000D01*
X37929447Y-95262000D01*
X37802662Y-95271067D01*
X37718135Y-95277113D01*
X37442022Y-95337178D01*
X37442017Y-95337179D01*
X37442016Y-95337180D01*
X37409392Y-95349348D01*
X37177251Y-95435931D01*
X37177247Y-95435933D01*
X36929238Y-95571357D01*
X36703020Y-95740700D01*
X36703011Y-95740708D01*
X36503208Y-95940511D01*
X36503200Y-95940520D01*
X36333857Y-96166738D01*
X36198433Y-96414747D01*
X36198431Y-96414751D01*
X36099678Y-96679522D01*
X36039613Y-96955635D01*
X36019454Y-97237500D01*
X30025500Y-97237500D01*
X30025500Y-83237500D01*
X36019454Y-83237500D01*
X36039613Y-83519364D01*
X36099678Y-83795477D01*
X36099680Y-83795484D01*
X36146440Y-83920852D01*
X36198431Y-84060248D01*
X36198433Y-84060252D01*
X36333857Y-84308261D01*
X36503200Y-84534479D01*
X36503208Y-84534488D01*
X36703011Y-84734291D01*
X36703020Y-84734299D01*
X36816767Y-84819448D01*
X36929236Y-84903641D01*
X37011907Y-84948783D01*
X37159468Y-85029358D01*
X37177251Y-85039068D01*
X37442016Y-85137820D01*
X37718139Y-85197887D01*
X37929447Y-85213000D01*
X37929453Y-85213000D01*
X38070547Y-85213000D01*
X38070553Y-85213000D01*
X38281861Y-85197887D01*
X38557984Y-85137820D01*
X38822749Y-85039068D01*
X39070764Y-84903641D01*
X39296982Y-84734297D01*
X39496797Y-84534482D01*
X39666141Y-84308264D01*
X39801568Y-84060249D01*
X39900320Y-83795484D01*
X39960387Y-83519361D01*
X39980546Y-83237500D01*
X39960387Y-82955639D01*
X39900320Y-82679516D01*
X39801568Y-82414751D01*
X39793632Y-82400218D01*
X39666142Y-82166738D01*
X39496799Y-81940520D01*
X39496791Y-81940511D01*
X39346734Y-81790454D01*
X65797718Y-81790454D01*
X65807790Y-82001903D01*
X65807792Y-82001916D01*
X65857700Y-82207638D01*
X65857702Y-82207644D01*
X65945644Y-82400211D01*
X65945648Y-82400218D01*
X66068435Y-82572648D01*
X66068439Y-82572653D01*
X66068441Y-82572655D01*
X66221654Y-82718743D01*
X66399746Y-82833196D01*
X66596279Y-82911876D01*
X66804151Y-82951940D01*
X66804155Y-82951940D01*
X67762801Y-82951940D01*
X67762803Y-82951940D01*
X67920739Y-82936859D01*
X68123862Y-82877217D01*
X68312026Y-82780211D01*
X68478432Y-82649348D01*
X68617065Y-82489358D01*
X68722913Y-82306022D01*
X68792153Y-82105967D01*
X68822281Y-81896424D01*
X68817233Y-81790454D01*
X91197718Y-81790454D01*
X91207790Y-82001903D01*
X91207792Y-82001916D01*
X91257700Y-82207638D01*
X91257702Y-82207644D01*
X91345644Y-82400211D01*
X91345648Y-82400218D01*
X91468435Y-82572648D01*
X91468439Y-82572653D01*
X91468441Y-82572655D01*
X91621654Y-82718743D01*
X91799746Y-82833196D01*
X91996279Y-82911876D01*
X92204151Y-82951940D01*
X92204155Y-82951940D01*
X93162801Y-82951940D01*
X93162803Y-82951940D01*
X93320739Y-82936859D01*
X93523862Y-82877217D01*
X93712026Y-82780211D01*
X93878432Y-82649348D01*
X94017065Y-82489358D01*
X94122913Y-82306022D01*
X94192153Y-82105967D01*
X94222281Y-81896424D01*
X94217233Y-81790454D01*
X94212209Y-81684976D01*
X94212208Y-81684971D01*
X94212208Y-81684966D01*
X94162298Y-81479236D01*
X94074356Y-81286669D01*
X94074353Y-81286665D01*
X94074351Y-81286661D01*
X93951564Y-81114231D01*
X93951555Y-81114221D01*
X93924321Y-81088254D01*
X93798346Y-80968137D01*
X93620254Y-80853684D01*
X93423721Y-80775004D01*
X93423720Y-80775003D01*
X93423718Y-80775003D01*
X93215853Y-80734940D01*
X93215849Y-80734940D01*
X92257197Y-80734940D01*
X92257195Y-80734940D01*
X92257177Y-80734941D01*
X92099271Y-80750019D01*
X92099256Y-80750022D01*
X91896135Y-80809663D01*
X91707976Y-80906667D01*
X91541564Y-81037534D01*
X91402938Y-81197517D01*
X91402930Y-81197528D01*
X91297089Y-81380852D01*
X91297086Y-81380859D01*
X91227848Y-81580909D01*
X91227845Y-81580920D01*
X91197718Y-81790454D01*
X68817233Y-81790454D01*
X68812209Y-81684976D01*
X68812208Y-81684971D01*
X68812208Y-81684966D01*
X68762298Y-81479236D01*
X68674356Y-81286669D01*
X68674353Y-81286665D01*
X68674351Y-81286661D01*
X68551564Y-81114231D01*
X68551555Y-81114221D01*
X68524321Y-81088254D01*
X68398346Y-80968137D01*
X68220254Y-80853684D01*
X68023721Y-80775004D01*
X68023720Y-80775003D01*
X68023718Y-80775003D01*
X67815853Y-80734940D01*
X67815849Y-80734940D01*
X66857197Y-80734940D01*
X66857195Y-80734940D01*
X66857177Y-80734941D01*
X66699271Y-80750019D01*
X66699256Y-80750022D01*
X66496135Y-80809663D01*
X66307976Y-80906667D01*
X66141564Y-81037534D01*
X66002938Y-81197517D01*
X66002930Y-81197528D01*
X65897089Y-81380852D01*
X65897086Y-81380859D01*
X65827848Y-81580909D01*
X65827845Y-81580920D01*
X65797718Y-81790454D01*
X39346734Y-81790454D01*
X39296988Y-81740708D01*
X39296979Y-81740700D01*
X39083536Y-81580920D01*
X39070764Y-81571359D01*
X39070762Y-81571358D01*
X39070761Y-81571357D01*
X38822752Y-81435933D01*
X38822748Y-81435931D01*
X38675092Y-81380859D01*
X38557984Y-81337180D01*
X38557980Y-81337179D01*
X38557977Y-81337178D01*
X38281863Y-81277113D01*
X38281864Y-81277113D01*
X38211424Y-81272075D01*
X38070553Y-81262000D01*
X37929447Y-81262000D01*
X37802662Y-81271067D01*
X37718135Y-81277113D01*
X37442022Y-81337178D01*
X37442017Y-81337179D01*
X37442016Y-81337180D01*
X37391141Y-81356155D01*
X37177251Y-81435931D01*
X37177247Y-81435933D01*
X36929238Y-81571357D01*
X36703020Y-81740700D01*
X36703011Y-81740708D01*
X36503208Y-81940511D01*
X36503200Y-81940520D01*
X36333857Y-82166738D01*
X36198433Y-82414747D01*
X36198431Y-82414751D01*
X36099678Y-82679522D01*
X36039613Y-82955635D01*
X36019454Y-83237500D01*
X30025500Y-83237500D01*
X30025500Y-79629000D01*
X40615496Y-79629000D01*
X40635457Y-79818927D01*
X40648874Y-79860218D01*
X40694473Y-80000556D01*
X40694476Y-80000561D01*
X40789958Y-80165941D01*
X40789965Y-80165951D01*
X40917744Y-80307864D01*
X40917747Y-80307866D01*
X41072248Y-80420118D01*
X41246712Y-80497794D01*
X41433513Y-80537500D01*
X41624487Y-80537500D01*
X41811288Y-80497794D01*
X41985752Y-80420118D01*
X42140253Y-80307866D01*
X42268040Y-80165944D01*
X42363527Y-80000556D01*
X42422542Y-79818928D01*
X42442504Y-79629000D01*
X42422542Y-79439072D01*
X42363527Y-79257444D01*
X42359491Y-79250454D01*
X65797718Y-79250454D01*
X65807790Y-79461903D01*
X65807792Y-79461916D01*
X65857700Y-79667638D01*
X65857702Y-79667644D01*
X65945644Y-79860211D01*
X65945648Y-79860218D01*
X66068435Y-80032648D01*
X66068439Y-80032653D01*
X66068441Y-80032655D01*
X66221654Y-80178743D01*
X66399746Y-80293196D01*
X66596279Y-80371876D01*
X66804151Y-80411940D01*
X66804155Y-80411940D01*
X67762801Y-80411940D01*
X67762803Y-80411940D01*
X67920739Y-80396859D01*
X68123862Y-80337217D01*
X68312026Y-80240211D01*
X68478432Y-80109348D01*
X68617065Y-79949358D01*
X68722913Y-79766022D01*
X68792153Y-79565967D01*
X68822281Y-79356424D01*
X68817233Y-79250454D01*
X91197718Y-79250454D01*
X91207790Y-79461903D01*
X91207792Y-79461916D01*
X91257700Y-79667638D01*
X91257702Y-79667644D01*
X91345644Y-79860211D01*
X91345648Y-79860218D01*
X91468435Y-80032648D01*
X91468439Y-80032653D01*
X91468441Y-80032655D01*
X91621654Y-80178743D01*
X91799746Y-80293196D01*
X91996279Y-80371876D01*
X92204151Y-80411940D01*
X92204155Y-80411940D01*
X93162801Y-80411940D01*
X93162803Y-80411940D01*
X93320739Y-80396859D01*
X93523862Y-80337217D01*
X93712026Y-80240211D01*
X93878432Y-80109348D01*
X94017065Y-79949358D01*
X94122913Y-79766022D01*
X94192153Y-79565967D01*
X94222281Y-79356424D01*
X94217233Y-79250454D01*
X94212209Y-79144976D01*
X94212208Y-79144971D01*
X94212208Y-79144966D01*
X94162298Y-78939236D01*
X94074356Y-78746669D01*
X94074353Y-78746665D01*
X94074351Y-78746661D01*
X93951564Y-78574231D01*
X93951555Y-78574221D01*
X93924321Y-78548254D01*
X93798346Y-78428137D01*
X93620254Y-78313684D01*
X93423721Y-78235004D01*
X93423720Y-78235003D01*
X93423718Y-78235003D01*
X93215853Y-78194940D01*
X93215849Y-78194940D01*
X92257197Y-78194940D01*
X92257195Y-78194940D01*
X92257177Y-78194941D01*
X92099271Y-78210019D01*
X92099256Y-78210022D01*
X91896135Y-78269663D01*
X91707976Y-78366667D01*
X91541564Y-78497534D01*
X91402938Y-78657517D01*
X91402930Y-78657528D01*
X91297089Y-78840852D01*
X91297086Y-78840859D01*
X91227848Y-79040909D01*
X91227845Y-79040920D01*
X91197718Y-79250454D01*
X68817233Y-79250454D01*
X68812209Y-79144976D01*
X68812208Y-79144971D01*
X68812208Y-79144966D01*
X68762298Y-78939236D01*
X68674356Y-78746669D01*
X68674353Y-78746665D01*
X68674351Y-78746661D01*
X68551564Y-78574231D01*
X68551555Y-78574221D01*
X68524321Y-78548254D01*
X68398346Y-78428137D01*
X68220254Y-78313684D01*
X68023721Y-78235004D01*
X68023720Y-78235003D01*
X68023718Y-78235003D01*
X67815853Y-78194940D01*
X67815849Y-78194940D01*
X66857197Y-78194940D01*
X66857195Y-78194940D01*
X66857177Y-78194941D01*
X66699271Y-78210019D01*
X66699256Y-78210022D01*
X66496135Y-78269663D01*
X66307976Y-78366667D01*
X66141564Y-78497534D01*
X66002938Y-78657517D01*
X66002930Y-78657528D01*
X65897089Y-78840852D01*
X65897086Y-78840859D01*
X65827848Y-79040909D01*
X65827845Y-79040920D01*
X65797718Y-79250454D01*
X42359491Y-79250454D01*
X42268040Y-79092056D01*
X42268038Y-79092054D01*
X42268034Y-79092048D01*
X42140255Y-78950135D01*
X41985752Y-78837882D01*
X41811288Y-78760206D01*
X41624487Y-78720500D01*
X41433513Y-78720500D01*
X41246711Y-78760206D01*
X41072247Y-78837882D01*
X40917744Y-78950135D01*
X40789965Y-79092048D01*
X40789958Y-79092058D01*
X40694476Y-79257438D01*
X40694473Y-79257445D01*
X40635457Y-79439072D01*
X40615496Y-79629000D01*
X30025500Y-79629000D01*
X30025500Y-75000002D01*
X31637068Y-75000002D01*
X31656782Y-75363597D01*
X31715689Y-75722926D01*
X31813106Y-76073787D01*
X31947881Y-76412046D01*
X31947885Y-76412055D01*
X32118445Y-76733768D01*
X32118447Y-76733772D01*
X32322792Y-77035158D01*
X32322791Y-77035158D01*
X32452695Y-77188093D01*
X33699994Y-75940794D01*
X33701570Y-75943365D01*
X33865130Y-76134870D01*
X34056635Y-76298430D01*
X34059203Y-76300004D01*
X32809134Y-77550073D01*
X32822892Y-77563105D01*
X33112761Y-77783458D01*
X33112767Y-77783462D01*
X33424772Y-77971189D01*
X33424779Y-77971193D01*
X33755239Y-78124081D01*
X33755251Y-78124086D01*
X34100310Y-78240349D01*
X34100327Y-78240354D01*
X34455920Y-78318626D01*
X34455949Y-78318631D01*
X34817927Y-78357999D01*
X34817943Y-78358000D01*
X35182057Y-78358000D01*
X35182072Y-78357999D01*
X35544050Y-78318631D01*
X35544079Y-78318626D01*
X35899672Y-78240354D01*
X35899689Y-78240349D01*
X36244748Y-78124086D01*
X36244760Y-78124081D01*
X36575220Y-77971193D01*
X36575227Y-77971189D01*
X36887232Y-77783462D01*
X36887238Y-77783458D01*
X37177113Y-77563101D01*
X37190865Y-77550074D01*
X35940795Y-76300004D01*
X35943365Y-76298430D01*
X36134870Y-76134870D01*
X36298430Y-75943365D01*
X36300004Y-75940795D01*
X37547302Y-77188093D01*
X37547303Y-77188093D01*
X37677203Y-77035165D01*
X37677205Y-77035161D01*
X37881552Y-76733772D01*
X37881554Y-76733768D01*
X37893914Y-76710454D01*
X65797718Y-76710454D01*
X65807790Y-76921903D01*
X65807792Y-76921916D01*
X65857700Y-77127638D01*
X65857702Y-77127644D01*
X65945644Y-77320211D01*
X65945648Y-77320218D01*
X66068435Y-77492648D01*
X66068439Y-77492653D01*
X66068441Y-77492655D01*
X66221654Y-77638743D01*
X66399746Y-77753196D01*
X66596279Y-77831876D01*
X66804151Y-77871940D01*
X66804155Y-77871940D01*
X67762801Y-77871940D01*
X67762803Y-77871940D01*
X67920739Y-77856859D01*
X68123862Y-77797217D01*
X68312026Y-77700211D01*
X68478432Y-77569348D01*
X68617065Y-77409358D01*
X68722913Y-77226022D01*
X68792153Y-77025967D01*
X68822281Y-76816424D01*
X68817233Y-76710454D01*
X91197718Y-76710454D01*
X91207790Y-76921903D01*
X91207792Y-76921916D01*
X91257700Y-77127638D01*
X91257702Y-77127644D01*
X91345644Y-77320211D01*
X91345648Y-77320218D01*
X91468435Y-77492648D01*
X91468439Y-77492653D01*
X91468441Y-77492655D01*
X91621654Y-77638743D01*
X91799746Y-77753196D01*
X91996279Y-77831876D01*
X92204151Y-77871940D01*
X92204155Y-77871940D01*
X93162801Y-77871940D01*
X93162803Y-77871940D01*
X93320739Y-77856859D01*
X93523862Y-77797217D01*
X93712026Y-77700211D01*
X93878432Y-77569348D01*
X94017065Y-77409358D01*
X94122913Y-77226022D01*
X94192153Y-77025967D01*
X94222281Y-76816424D01*
X94217233Y-76710454D01*
X94212209Y-76604976D01*
X94212208Y-76604971D01*
X94212208Y-76604966D01*
X94162298Y-76399236D01*
X94074356Y-76206669D01*
X94074353Y-76206665D01*
X94074351Y-76206661D01*
X93951564Y-76034231D01*
X93951555Y-76034221D01*
X93924321Y-76008254D01*
X93798346Y-75888137D01*
X93620254Y-75773684D01*
X93423721Y-75695004D01*
X93423720Y-75695003D01*
X93423718Y-75695003D01*
X93215853Y-75654940D01*
X93215849Y-75654940D01*
X92257197Y-75654940D01*
X92257195Y-75654940D01*
X92257177Y-75654941D01*
X92099271Y-75670019D01*
X92099256Y-75670022D01*
X91896135Y-75729663D01*
X91707976Y-75826667D01*
X91541564Y-75957534D01*
X91402938Y-76117517D01*
X91402930Y-76117528D01*
X91297089Y-76300852D01*
X91297086Y-76300859D01*
X91227848Y-76500909D01*
X91227845Y-76500920D01*
X91197718Y-76710454D01*
X68817233Y-76710454D01*
X68812209Y-76604976D01*
X68812208Y-76604971D01*
X68812208Y-76604966D01*
X68762298Y-76399236D01*
X68674356Y-76206669D01*
X68674353Y-76206665D01*
X68674351Y-76206661D01*
X68551564Y-76034231D01*
X68551555Y-76034221D01*
X68524321Y-76008254D01*
X68398346Y-75888137D01*
X68220254Y-75773684D01*
X68023721Y-75695004D01*
X68023720Y-75695003D01*
X68023718Y-75695003D01*
X67815853Y-75654940D01*
X67815849Y-75654940D01*
X66857197Y-75654940D01*
X66857195Y-75654940D01*
X66857177Y-75654941D01*
X66699271Y-75670019D01*
X66699256Y-75670022D01*
X66496135Y-75729663D01*
X66307976Y-75826667D01*
X66141564Y-75957534D01*
X66002938Y-76117517D01*
X66002930Y-76117528D01*
X65897089Y-76300852D01*
X65897086Y-76300859D01*
X65827848Y-76500909D01*
X65827845Y-76500920D01*
X65797718Y-76710454D01*
X37893914Y-76710454D01*
X38052114Y-76412055D01*
X38052118Y-76412046D01*
X38186893Y-76073787D01*
X38284310Y-75722926D01*
X38343217Y-75363597D01*
X38362932Y-75000002D01*
X38362932Y-74999997D01*
X38343217Y-74636402D01*
X38284310Y-74277073D01*
X38255462Y-74173174D01*
X65801398Y-74173174D01*
X65811470Y-74384623D01*
X65811472Y-74384636D01*
X65861380Y-74590358D01*
X65861382Y-74590364D01*
X65949324Y-74782931D01*
X65949328Y-74782938D01*
X66072115Y-74955368D01*
X66072119Y-74955373D01*
X66072121Y-74955375D01*
X66225334Y-75101463D01*
X66403426Y-75215916D01*
X66599959Y-75294596D01*
X66807831Y-75334660D01*
X66807835Y-75334660D01*
X67766481Y-75334660D01*
X67766483Y-75334660D01*
X67924419Y-75319579D01*
X68127542Y-75259937D01*
X68315706Y-75162931D01*
X68482112Y-75032068D01*
X68509899Y-75000001D01*
X68550930Y-74952648D01*
X68620745Y-74872078D01*
X68726593Y-74688742D01*
X68795833Y-74488687D01*
X68825961Y-74279144D01*
X68820784Y-74170456D01*
X68820784Y-74170454D01*
X91197718Y-74170454D01*
X91207790Y-74381903D01*
X91207792Y-74381916D01*
X91257700Y-74587638D01*
X91257702Y-74587644D01*
X91345644Y-74780211D01*
X91345648Y-74780218D01*
X91468435Y-74952648D01*
X91468439Y-74952653D01*
X91468441Y-74952655D01*
X91621654Y-75098743D01*
X91799746Y-75213196D01*
X91996279Y-75291876D01*
X92204151Y-75331940D01*
X92204155Y-75331940D01*
X93162801Y-75331940D01*
X93162803Y-75331940D01*
X93320739Y-75316859D01*
X93523862Y-75257217D01*
X93712026Y-75160211D01*
X93878432Y-75029348D01*
X93903861Y-75000002D01*
X96637068Y-75000002D01*
X96656782Y-75363597D01*
X96715689Y-75722926D01*
X96813106Y-76073787D01*
X96947881Y-76412046D01*
X96947885Y-76412055D01*
X97118445Y-76733768D01*
X97118447Y-76733772D01*
X97322792Y-77035158D01*
X97322791Y-77035158D01*
X97452695Y-77188093D01*
X98699994Y-75940794D01*
X98701570Y-75943365D01*
X98865130Y-76134870D01*
X99056635Y-76298430D01*
X99059203Y-76300004D01*
X97809134Y-77550073D01*
X97822892Y-77563105D01*
X98112761Y-77783458D01*
X98112767Y-77783462D01*
X98424772Y-77971189D01*
X98424779Y-77971193D01*
X98755239Y-78124081D01*
X98755251Y-78124086D01*
X99100310Y-78240349D01*
X99100327Y-78240354D01*
X99455920Y-78318626D01*
X99455949Y-78318631D01*
X99817927Y-78357999D01*
X99817943Y-78358000D01*
X100182057Y-78358000D01*
X100182072Y-78357999D01*
X100544050Y-78318631D01*
X100544079Y-78318626D01*
X100899672Y-78240354D01*
X100899689Y-78240349D01*
X101244748Y-78124086D01*
X101244760Y-78124081D01*
X101575220Y-77971193D01*
X101575227Y-77971189D01*
X101887232Y-77783462D01*
X101887238Y-77783458D01*
X102177113Y-77563101D01*
X102190864Y-77550074D01*
X100940795Y-76300004D01*
X100943365Y-76298430D01*
X101134870Y-76134870D01*
X101298430Y-75943365D01*
X101300004Y-75940795D01*
X102547302Y-77188093D01*
X102547303Y-77188093D01*
X102677203Y-77035165D01*
X102677205Y-77035161D01*
X102881552Y-76733772D01*
X102881554Y-76733768D01*
X103052114Y-76412055D01*
X103052118Y-76412046D01*
X103186893Y-76073787D01*
X103284310Y-75722926D01*
X103343217Y-75363597D01*
X103362932Y-75000002D01*
X103362932Y-74999997D01*
X103343217Y-74636402D01*
X103284310Y-74277073D01*
X103186893Y-73926212D01*
X103052118Y-73587953D01*
X103052114Y-73587944D01*
X102881554Y-73266231D01*
X102881552Y-73266227D01*
X102677207Y-72964841D01*
X102677208Y-72964841D01*
X102547302Y-72811905D01*
X101300004Y-74059203D01*
X101298430Y-74056635D01*
X101134870Y-73865130D01*
X100943365Y-73701570D01*
X100940794Y-73699994D01*
X102190864Y-72449924D01*
X102177107Y-72436894D01*
X101887238Y-72216541D01*
X101887232Y-72216537D01*
X101575227Y-72028810D01*
X101575220Y-72028806D01*
X101244760Y-71875918D01*
X101244748Y-71875913D01*
X100899689Y-71759650D01*
X100899672Y-71759645D01*
X100544079Y-71681373D01*
X100544050Y-71681368D01*
X100182072Y-71642000D01*
X99817927Y-71642000D01*
X99455949Y-71681368D01*
X99455920Y-71681373D01*
X99100327Y-71759645D01*
X99100310Y-71759650D01*
X98755251Y-71875913D01*
X98755239Y-71875918D01*
X98424779Y-72028806D01*
X98424772Y-72028810D01*
X98112767Y-72216537D01*
X98112761Y-72216541D01*
X97822880Y-72436903D01*
X97822874Y-72436909D01*
X97809134Y-72449923D01*
X97809133Y-72449924D01*
X99059204Y-73699995D01*
X99056635Y-73701570D01*
X98865130Y-73865130D01*
X98701570Y-74056635D01*
X98699995Y-74059204D01*
X97452696Y-72811905D01*
X97322791Y-72964842D01*
X97118447Y-73266227D01*
X97118445Y-73266231D01*
X96947885Y-73587944D01*
X96947881Y-73587953D01*
X96813106Y-73926212D01*
X96715689Y-74277073D01*
X96656782Y-74636402D01*
X96637068Y-74999997D01*
X96637068Y-75000002D01*
X93903861Y-75000002D01*
X93903862Y-75000001D01*
X93944893Y-74952648D01*
X94017065Y-74869358D01*
X94122913Y-74686022D01*
X94192153Y-74485967D01*
X94222281Y-74276424D01*
X94217233Y-74170454D01*
X94212209Y-74064976D01*
X94212208Y-74064971D01*
X94212208Y-74064966D01*
X94162298Y-73859236D01*
X94074356Y-73666669D01*
X94074353Y-73666665D01*
X94074351Y-73666661D01*
X93951564Y-73494231D01*
X93951555Y-73494221D01*
X93873978Y-73420252D01*
X93798346Y-73348137D01*
X93620254Y-73233684D01*
X93423721Y-73155004D01*
X93423720Y-73155003D01*
X93423718Y-73155003D01*
X93215853Y-73114940D01*
X93215849Y-73114940D01*
X92257197Y-73114940D01*
X92257195Y-73114940D01*
X92257177Y-73114941D01*
X92099271Y-73130019D01*
X92099256Y-73130022D01*
X91896135Y-73189663D01*
X91707976Y-73286667D01*
X91541564Y-73417534D01*
X91402938Y-73577517D01*
X91402930Y-73577528D01*
X91297089Y-73760852D01*
X91297086Y-73760859D01*
X91227848Y-73960909D01*
X91227845Y-73960920D01*
X91197718Y-74170454D01*
X68820784Y-74170454D01*
X68815889Y-74067696D01*
X68815888Y-74067691D01*
X68815888Y-74067686D01*
X68765978Y-73861956D01*
X68678036Y-73669389D01*
X68678033Y-73669385D01*
X68678031Y-73669381D01*
X68555244Y-73496951D01*
X68555235Y-73496941D01*
X68528001Y-73470974D01*
X68402026Y-73350857D01*
X68397790Y-73348135D01*
X68223934Y-73236404D01*
X68113975Y-73192383D01*
X68027401Y-73157724D01*
X68027400Y-73157723D01*
X68027398Y-73157723D01*
X67819533Y-73117660D01*
X67819529Y-73117660D01*
X66860877Y-73117660D01*
X66860875Y-73117660D01*
X66860857Y-73117661D01*
X66702951Y-73132739D01*
X66702936Y-73132742D01*
X66499815Y-73192383D01*
X66311656Y-73289387D01*
X66145244Y-73420254D01*
X66006618Y-73580237D01*
X66006610Y-73580248D01*
X65900769Y-73763572D01*
X65900766Y-73763579D01*
X65831528Y-73963629D01*
X65831525Y-73963640D01*
X65801398Y-74173174D01*
X38255462Y-74173174D01*
X38186893Y-73926212D01*
X38052118Y-73587953D01*
X38052114Y-73587944D01*
X37881554Y-73266231D01*
X37881552Y-73266227D01*
X37677207Y-72964841D01*
X37677208Y-72964841D01*
X37547302Y-72811905D01*
X36300004Y-74059203D01*
X36298430Y-74056635D01*
X36134870Y-73865130D01*
X35943365Y-73701570D01*
X35940794Y-73699994D01*
X37190864Y-72449924D01*
X37177107Y-72436894D01*
X36887238Y-72216541D01*
X36887232Y-72216537D01*
X36575227Y-72028810D01*
X36575220Y-72028806D01*
X36244760Y-71875918D01*
X36244748Y-71875913D01*
X35899689Y-71759650D01*
X35899672Y-71759645D01*
X35544079Y-71681373D01*
X35544050Y-71681368D01*
X35182072Y-71642000D01*
X34817927Y-71642000D01*
X34455949Y-71681368D01*
X34455920Y-71681373D01*
X34100327Y-71759645D01*
X34100310Y-71759650D01*
X33755251Y-71875913D01*
X33755239Y-71875918D01*
X33424779Y-72028806D01*
X33424772Y-72028810D01*
X33112767Y-72216537D01*
X33112761Y-72216541D01*
X32822880Y-72436903D01*
X32822874Y-72436909D01*
X32809134Y-72449923D01*
X32809133Y-72449924D01*
X34059204Y-73699995D01*
X34056635Y-73701570D01*
X33865130Y-73865130D01*
X33701570Y-74056635D01*
X33699995Y-74059204D01*
X32452696Y-72811905D01*
X32322791Y-72964842D01*
X32118447Y-73266227D01*
X32118445Y-73266231D01*
X31947885Y-73587944D01*
X31947881Y-73587953D01*
X31813106Y-73926212D01*
X31715689Y-74277073D01*
X31656782Y-74636402D01*
X31637068Y-74999997D01*
X31637068Y-75000002D01*
X30025500Y-75000002D01*
X30025500Y-71633174D01*
X65801398Y-71633174D01*
X65811470Y-71844623D01*
X65811472Y-71844636D01*
X65861380Y-72050358D01*
X65861382Y-72050364D01*
X65949324Y-72242931D01*
X65949328Y-72242938D01*
X66072115Y-72415368D01*
X66072119Y-72415373D01*
X66072121Y-72415375D01*
X66225334Y-72561463D01*
X66403426Y-72675916D01*
X66599959Y-72754596D01*
X66807831Y-72794660D01*
X66807835Y-72794660D01*
X67766481Y-72794660D01*
X67766483Y-72794660D01*
X67924419Y-72779579D01*
X68127542Y-72719937D01*
X68315706Y-72622931D01*
X68482112Y-72492068D01*
X68620745Y-72332078D01*
X68726593Y-72148742D01*
X68795833Y-71948687D01*
X68825961Y-71739144D01*
X68823209Y-71681368D01*
X68820784Y-71630454D01*
X91197718Y-71630454D01*
X91207790Y-71841903D01*
X91207792Y-71841916D01*
X91257700Y-72047638D01*
X91257702Y-72047644D01*
X91345644Y-72240211D01*
X91345648Y-72240218D01*
X91468435Y-72412648D01*
X91468439Y-72412653D01*
X91468441Y-72412655D01*
X91621654Y-72558743D01*
X91799746Y-72673196D01*
X91996279Y-72751876D01*
X92204151Y-72791940D01*
X92204155Y-72791940D01*
X93162801Y-72791940D01*
X93162803Y-72791940D01*
X93320739Y-72776859D01*
X93523862Y-72717217D01*
X93712026Y-72620211D01*
X93878432Y-72489348D01*
X94017065Y-72329358D01*
X94122913Y-72146022D01*
X94192153Y-71945967D01*
X94222281Y-71736424D01*
X94217233Y-71630454D01*
X94212209Y-71524976D01*
X94212208Y-71524971D01*
X94212208Y-71524966D01*
X94162298Y-71319236D01*
X94074356Y-71126669D01*
X94074353Y-71126665D01*
X94074351Y-71126661D01*
X93951564Y-70954231D01*
X93951555Y-70954221D01*
X93873978Y-70880252D01*
X93798346Y-70808137D01*
X93620254Y-70693684D01*
X93423721Y-70615004D01*
X93423720Y-70615003D01*
X93423718Y-70615003D01*
X93215853Y-70574940D01*
X93215849Y-70574940D01*
X92257197Y-70574940D01*
X92257195Y-70574940D01*
X92257177Y-70574941D01*
X92099271Y-70590019D01*
X92099256Y-70590022D01*
X91896135Y-70649663D01*
X91707976Y-70746667D01*
X91541564Y-70877534D01*
X91402938Y-71037517D01*
X91402930Y-71037528D01*
X91297089Y-71220852D01*
X91297086Y-71220859D01*
X91227848Y-71420909D01*
X91227845Y-71420920D01*
X91197718Y-71630454D01*
X68820784Y-71630454D01*
X68815889Y-71527696D01*
X68815888Y-71527691D01*
X68815888Y-71527686D01*
X68765978Y-71321956D01*
X68678036Y-71129389D01*
X68678033Y-71129385D01*
X68678031Y-71129381D01*
X68555244Y-70956951D01*
X68555235Y-70956941D01*
X68528001Y-70930974D01*
X68402026Y-70810857D01*
X68397790Y-70808135D01*
X68223934Y-70696404D01*
X68113975Y-70652383D01*
X68027401Y-70617724D01*
X68027400Y-70617723D01*
X68027398Y-70617723D01*
X67819533Y-70577660D01*
X67819529Y-70577660D01*
X66860877Y-70577660D01*
X66860875Y-70577660D01*
X66860857Y-70577661D01*
X66702951Y-70592739D01*
X66702936Y-70592742D01*
X66499815Y-70652383D01*
X66311656Y-70749387D01*
X66145244Y-70880254D01*
X66006618Y-71040237D01*
X66006610Y-71040248D01*
X65900769Y-71223572D01*
X65900766Y-71223579D01*
X65831528Y-71423629D01*
X65831525Y-71423640D01*
X65801398Y-71633174D01*
X30025500Y-71633174D01*
X30025500Y-70151500D01*
X30045502Y-70083379D01*
X30099158Y-70036886D01*
X30151500Y-70025500D01*
X104848500Y-70025500D01*
X104916621Y-70045502D01*
G37*
G04 #@! TD.AperFunction*
G04 #@! TA.AperFunction,Conductor*
G36*
X44094578Y-101131369D02*
G01*
X44094580Y-101131369D01*
X44129285Y-101081806D01*
X44129286Y-101081805D01*
X44218540Y-100890398D01*
X44218542Y-100890393D01*
X44255793Y-100751370D01*
X44292744Y-100690747D01*
X44356605Y-100659726D01*
X44427100Y-100668154D01*
X44481847Y-100713357D01*
X44503464Y-100780982D01*
X44503500Y-100783981D01*
X44503500Y-102198088D01*
X44483498Y-102266209D01*
X44429842Y-102312702D01*
X44359568Y-102322806D01*
X44294988Y-102293312D01*
X44256604Y-102233586D01*
X44255793Y-102230699D01*
X44223574Y-102110456D01*
X44219013Y-102093433D01*
X44129720Y-101901944D01*
X44129719Y-101901943D01*
X44129718Y-101901940D01*
X44008538Y-101728877D01*
X44008535Y-101728873D01*
X44008532Y-101728869D01*
X43859131Y-101579468D01*
X43859127Y-101579465D01*
X43751836Y-101504339D01*
X43735012Y-101490221D01*
X43158921Y-100914130D01*
X43212647Y-100906033D01*
X43333509Y-100847829D01*
X43431844Y-100756587D01*
X43498917Y-100640413D01*
X43518374Y-100555165D01*
X44094578Y-101131369D01*
G37*
G04 #@! TD.AperFunction*
G04 #@! TA.AperFunction,Conductor*
G36*
X41810360Y-90554981D02*
G01*
X41858945Y-90606750D01*
X41872499Y-90663599D01*
X41872499Y-91287632D01*
X41872500Y-91287649D01*
X41879009Y-91348196D01*
X41879011Y-91348204D01*
X41930110Y-91485202D01*
X41930112Y-91485207D01*
X42017738Y-91602261D01*
X42134792Y-91689887D01*
X42134794Y-91689888D01*
X42134796Y-91689889D01*
X42193875Y-91711924D01*
X42271795Y-91740988D01*
X42271803Y-91740990D01*
X42332350Y-91747499D01*
X42332355Y-91747499D01*
X42332362Y-91747500D01*
X42332368Y-91747500D01*
X43827632Y-91747500D01*
X43827638Y-91747500D01*
X43827645Y-91747499D01*
X43827649Y-91747499D01*
X43888196Y-91740990D01*
X43888199Y-91740989D01*
X43888201Y-91740989D01*
X43888416Y-91740909D01*
X43907045Y-91733960D01*
X44025204Y-91689889D01*
X44113780Y-91623581D01*
X44180299Y-91598770D01*
X44249673Y-91613861D01*
X44278384Y-91635354D01*
X44466595Y-91823565D01*
X44500621Y-91885877D01*
X44503500Y-91912660D01*
X44503500Y-100168018D01*
X44483498Y-100236139D01*
X44429842Y-100282632D01*
X44359568Y-100292736D01*
X44294988Y-100263242D01*
X44256604Y-100203516D01*
X44255793Y-100200629D01*
X44218542Y-100061606D01*
X44218540Y-100061601D01*
X44129285Y-99870194D01*
X44094579Y-99820629D01*
X43520179Y-100395029D01*
X43518743Y-100375860D01*
X43469734Y-100250987D01*
X43386095Y-100146108D01*
X43275259Y-100070541D01*
X43161376Y-100035412D01*
X43735369Y-99461418D01*
X43735369Y-99461417D01*
X43685809Y-99426715D01*
X43494398Y-99337459D01*
X43494393Y-99337457D01*
X43290392Y-99282796D01*
X43080000Y-99264389D01*
X42869607Y-99282796D01*
X42665606Y-99337457D01*
X42665601Y-99337459D01*
X42474193Y-99426714D01*
X42450377Y-99443390D01*
X42383102Y-99466076D01*
X42314242Y-99448789D01*
X42265659Y-99397018D01*
X42252589Y-99351162D01*
X42243697Y-99249519D01*
X42189013Y-99045433D01*
X42099720Y-98853944D01*
X42099719Y-98853943D01*
X42099718Y-98853940D01*
X41978538Y-98680877D01*
X41978534Y-98680872D01*
X41978532Y-98680869D01*
X41829131Y-98531468D01*
X41812225Y-98519630D01*
X41767899Y-98464172D01*
X41758500Y-98416420D01*
X41758500Y-92127319D01*
X41758615Y-92123514D01*
X41762402Y-92060908D01*
X41751092Y-91999193D01*
X41750525Y-91995470D01*
X41742965Y-91933199D01*
X41742964Y-91933196D01*
X41739351Y-91923668D01*
X41733227Y-91901702D01*
X41731389Y-91891671D01*
X41705642Y-91834466D01*
X41704200Y-91830986D01*
X41681954Y-91772325D01*
X41676161Y-91763933D01*
X41664958Y-91744070D01*
X41660775Y-91734775D01*
X41622083Y-91685389D01*
X41619852Y-91682355D01*
X41606951Y-91663666D01*
X41584215Y-91630727D01*
X41537249Y-91589119D01*
X41534503Y-91586533D01*
X40893237Y-90945267D01*
X40859211Y-90882955D01*
X40864276Y-90812140D01*
X40906823Y-90755304D01*
X40973343Y-90730493D01*
X40993314Y-90730651D01*
X41050000Y-90735610D01*
X41260392Y-90717203D01*
X41464393Y-90662542D01*
X41464398Y-90662540D01*
X41655808Y-90573284D01*
X41674226Y-90560388D01*
X41741499Y-90537698D01*
X41810360Y-90554981D01*
G37*
G04 #@! TD.AperFunction*
M02*
