G04 #@! TF.GenerationSoftware,KiCad,Pcbnew,7.0.7-7.0.7~ubuntu23.04.1*
G04 #@! TF.CreationDate,2023-08-18T10:36:28+00:00*
G04 #@! TF.ProjectId,LocoBuffer,4c6f636f-4275-4666-9665-722e6b696361,0.0.1*
G04 #@! TF.SameCoordinates,Original*
G04 #@! TF.FileFunction,Copper,L2,Inr*
G04 #@! TF.FilePolarity,Positive*
%FSLAX46Y46*%
G04 Gerber Fmt 4.6, Leading zero omitted, Abs format (unit mm)*
G04 Created by KiCad (PCBNEW 7.0.7-7.0.7~ubuntu23.04.1) date 2023-08-18 10:36:28*
%MOMM*%
%LPD*%
G01*
G04 APERTURE LIST*
G04 #@! TA.AperFunction,ComponentPad*
%ADD10R,1.398000X1.398000*%
G04 #@! TD*
G04 #@! TA.AperFunction,ComponentPad*
%ADD11C,1.398000*%
G04 #@! TD*
G04 #@! TA.AperFunction,ComponentPad*
%ADD12C,5.700000*%
G04 #@! TD*
G04 #@! TA.AperFunction,ComponentPad*
%ADD13R,2.000000X1.200000*%
G04 #@! TD*
G04 #@! TA.AperFunction,ComponentPad*
%ADD14O,2.000000X1.200000*%
G04 #@! TD*
G04 #@! TA.AperFunction,ComponentPad*
%ADD15O,1.600000X2.000000*%
G04 #@! TD*
G04 #@! TA.AperFunction,ViaPad*
%ADD16C,0.800000*%
G04 #@! TD*
G04 APERTURE END LIST*
D10*
X43080000Y-90540000D03*
D11*
X41050000Y-89524000D03*
X43080000Y-88508000D03*
X41048000Y-87492000D03*
X43080000Y-86476000D03*
X41050000Y-85460000D03*
D10*
X43080000Y-104540000D03*
D11*
X41050000Y-103524000D03*
X43080000Y-102508000D03*
X41048000Y-101492000D03*
X43080000Y-100476000D03*
X41050000Y-99460000D03*
D12*
X35000000Y-75000000D03*
X35000000Y-115000000D03*
X150000000Y-115000000D03*
X150000000Y-75000000D03*
D13*
X119450000Y-117903440D03*
D14*
X119450000Y-115363440D03*
X119450000Y-112823440D03*
X119450000Y-110283440D03*
X119450000Y-107743440D03*
X119450000Y-105203440D03*
X119450000Y-102663440D03*
X119450000Y-100123440D03*
X119450000Y-97583440D03*
X119450000Y-95043440D03*
X119450000Y-92503440D03*
X119450000Y-89963440D03*
X119450000Y-87423440D03*
X119450000Y-84883440D03*
X119450000Y-82343440D03*
X119450000Y-79803440D03*
X119450000Y-77263440D03*
X119450000Y-74723440D03*
X119450000Y-72183440D03*
X94053680Y-72186160D03*
X94053680Y-74726160D03*
X94050000Y-77263440D03*
X94050000Y-79803440D03*
X94050000Y-82343440D03*
X94050000Y-84883440D03*
X94050000Y-87423440D03*
X94050000Y-89963440D03*
X94050000Y-92503440D03*
X94050000Y-95043440D03*
X94050000Y-97583440D03*
X94050000Y-100123440D03*
X94050000Y-102663440D03*
X94050000Y-105203440D03*
X94050000Y-107743440D03*
X94050000Y-110283440D03*
X94050000Y-112823440D03*
X94050000Y-115363440D03*
X94050000Y-117903440D03*
D15*
X133630000Y-80000000D03*
X136170000Y-80000000D03*
X138710000Y-80000000D03*
X141250000Y-80000000D03*
D16*
X77500000Y-114750000D03*
X78500000Y-111250000D03*
X83750000Y-112000000D03*
X84500000Y-115000000D03*
X65250000Y-113750000D03*
X87500000Y-98000000D03*
X41033706Y-109117500D03*
X50800000Y-110109000D03*
X131600000Y-113400000D03*
X57762000Y-103675000D03*
X41529000Y-79629000D03*
X62865000Y-106807000D03*
X143350000Y-113350000D03*
X42291000Y-118999000D03*
X62738000Y-105410000D03*
X57277000Y-118110000D03*
X48133000Y-111252000D03*
X72500000Y-82750000D03*
X48500000Y-79500000D03*
X56000000Y-98250000D03*
X52000000Y-98250000D03*
G04 #@! TA.AperFunction,Conductor*
G36*
X154916621Y-70045502D02*
G01*
X154963114Y-70099158D01*
X154974500Y-70151500D01*
X154974500Y-119848500D01*
X154954498Y-119916621D01*
X154900842Y-119963114D01*
X154848500Y-119974500D01*
X42881760Y-119974500D01*
X42813639Y-119954498D01*
X42767146Y-119900842D01*
X42757042Y-119830568D01*
X42786536Y-119765988D01*
X42807699Y-119746564D01*
X42834880Y-119726815D01*
X42902253Y-119677866D01*
X43030040Y-119535944D01*
X43125527Y-119370556D01*
X43184542Y-119188928D01*
X43204504Y-118999000D01*
X43184542Y-118809072D01*
X43125527Y-118627444D01*
X43030040Y-118462056D01*
X43030038Y-118462054D01*
X43030034Y-118462048D01*
X42902255Y-118320135D01*
X42747752Y-118207882D01*
X42573288Y-118130206D01*
X42478227Y-118110000D01*
X56363496Y-118110000D01*
X56383457Y-118299927D01*
X56402327Y-118358000D01*
X56442473Y-118481556D01*
X56442476Y-118481561D01*
X56537958Y-118646941D01*
X56537965Y-118646951D01*
X56665744Y-118788864D01*
X56665747Y-118788866D01*
X56820248Y-118901118D01*
X56994712Y-118978794D01*
X57181513Y-119018500D01*
X57372487Y-119018500D01*
X57559288Y-118978794D01*
X57733752Y-118901118D01*
X57888253Y-118788866D01*
X57923569Y-118749644D01*
X58016034Y-118646951D01*
X58016035Y-118646949D01*
X58016040Y-118646944D01*
X58111527Y-118481556D01*
X58170542Y-118299928D01*
X58190504Y-118110000D01*
X58170542Y-117920072D01*
X58111527Y-117738444D01*
X58060140Y-117649440D01*
X92567126Y-117649440D01*
X93537716Y-117649440D01*
X93605837Y-117669442D01*
X93652330Y-117723098D01*
X93662434Y-117793372D01*
X93662165Y-117795150D01*
X93645014Y-117903439D01*
X93662165Y-118011730D01*
X93653065Y-118082141D01*
X93607343Y-118136455D01*
X93539515Y-118157427D01*
X93537716Y-118157440D01*
X92571480Y-118157440D01*
X92598175Y-118267478D01*
X92598177Y-118267485D01*
X92686077Y-118459955D01*
X92686079Y-118459959D01*
X92808821Y-118632327D01*
X92808822Y-118632328D01*
X92961964Y-118778349D01*
X92961965Y-118778350D01*
X93139975Y-118892748D01*
X93139980Y-118892751D01*
X93336414Y-118971392D01*
X93336420Y-118971393D01*
X93544194Y-119011439D01*
X93544203Y-119011440D01*
X93796000Y-119011440D01*
X93796000Y-118415724D01*
X93816002Y-118347603D01*
X93869658Y-118301110D01*
X93939932Y-118291006D01*
X93941713Y-118291275D01*
X94018519Y-118303440D01*
X94018521Y-118303440D01*
X94081479Y-118303440D01*
X94081481Y-118303440D01*
X94158290Y-118291275D01*
X94228701Y-118300375D01*
X94283015Y-118346097D01*
X94303987Y-118413926D01*
X94304000Y-118415724D01*
X94304000Y-119011440D01*
X94502779Y-119011440D01*
X94502800Y-119011438D01*
X94660633Y-118996367D01*
X94660648Y-118996364D01*
X94863677Y-118936750D01*
X95051754Y-118839789D01*
X95218085Y-118708984D01*
X95218091Y-118708979D01*
X95354036Y-118552089D01*
X117941500Y-118552089D01*
X117948009Y-118612636D01*
X117948011Y-118612644D01*
X117999110Y-118749642D01*
X117999112Y-118749647D01*
X118086738Y-118866701D01*
X118203792Y-118954327D01*
X118203794Y-118954328D01*
X118203796Y-118954329D01*
X118249543Y-118971392D01*
X118340795Y-119005428D01*
X118340803Y-119005430D01*
X118401350Y-119011939D01*
X118401355Y-119011939D01*
X118401362Y-119011940D01*
X118401368Y-119011940D01*
X120498632Y-119011940D01*
X120498638Y-119011940D01*
X120498645Y-119011939D01*
X120498649Y-119011939D01*
X120559196Y-119005430D01*
X120559199Y-119005429D01*
X120559201Y-119005429D01*
X120696204Y-118954329D01*
X120767286Y-118901118D01*
X120813261Y-118866701D01*
X120900887Y-118749647D01*
X120900887Y-118749646D01*
X120900889Y-118749644D01*
X120951989Y-118612641D01*
X120958500Y-118552078D01*
X120958500Y-117254802D01*
X120958499Y-117254790D01*
X120951990Y-117194243D01*
X120951988Y-117194235D01*
X120900889Y-117057237D01*
X120900887Y-117057232D01*
X120813261Y-116940178D01*
X120696207Y-116852552D01*
X120696202Y-116852550D01*
X120559204Y-116801451D01*
X120559196Y-116801449D01*
X120498649Y-116794940D01*
X120498638Y-116794940D01*
X118401362Y-116794940D01*
X118401350Y-116794940D01*
X118340803Y-116801449D01*
X118340795Y-116801451D01*
X118203797Y-116852550D01*
X118203792Y-116852552D01*
X118086738Y-116940178D01*
X117999112Y-117057232D01*
X117999110Y-117057237D01*
X117948011Y-117194235D01*
X117948009Y-117194243D01*
X117941500Y-117254790D01*
X117941500Y-118552089D01*
X95354036Y-118552089D01*
X95356656Y-118549065D01*
X95356657Y-118549064D01*
X95462454Y-118365817D01*
X95462458Y-118365808D01*
X95531662Y-118165855D01*
X95531664Y-118165849D01*
X95532873Y-118157440D01*
X94562284Y-118157440D01*
X94494163Y-118137438D01*
X94447670Y-118083782D01*
X94437566Y-118013508D01*
X94437835Y-118011730D01*
X94444256Y-117971189D01*
X94454986Y-117903440D01*
X94437834Y-117795150D01*
X94446935Y-117724739D01*
X94492657Y-117670425D01*
X94560485Y-117649453D01*
X94562284Y-117649440D01*
X95528519Y-117649440D01*
X95528519Y-117649439D01*
X95501824Y-117539401D01*
X95501822Y-117539394D01*
X95413922Y-117346924D01*
X95413920Y-117346920D01*
X95291178Y-117174552D01*
X95291177Y-117174551D01*
X95138035Y-117028530D01*
X95138034Y-117028529D01*
X94960024Y-116914131D01*
X94960019Y-116914128D01*
X94763585Y-116835487D01*
X94763579Y-116835486D01*
X94555805Y-116795440D01*
X94304000Y-116795440D01*
X94304000Y-117391155D01*
X94283998Y-117459276D01*
X94230342Y-117505769D01*
X94160068Y-117515873D01*
X94158292Y-117515604D01*
X94081481Y-117503440D01*
X94018519Y-117503440D01*
X93941708Y-117515604D01*
X93871297Y-117506503D01*
X93816984Y-117460780D01*
X93796013Y-117392952D01*
X93796000Y-117391155D01*
X93796000Y-116795440D01*
X93597221Y-116795440D01*
X93597199Y-116795441D01*
X93439366Y-116810512D01*
X93439351Y-116810515D01*
X93236322Y-116870129D01*
X93048245Y-116967090D01*
X92881914Y-117097895D01*
X92881908Y-117097900D01*
X92743343Y-117257814D01*
X92743342Y-117257815D01*
X92637545Y-117441062D01*
X92637541Y-117441071D01*
X92568337Y-117641024D01*
X92568335Y-117641030D01*
X92567126Y-117649440D01*
X58060140Y-117649440D01*
X58016040Y-117573056D01*
X58016038Y-117573054D01*
X58016034Y-117573048D01*
X57888255Y-117431135D01*
X57733752Y-117318882D01*
X57559288Y-117241206D01*
X57372487Y-117201500D01*
X57181513Y-117201500D01*
X56994711Y-117241206D01*
X56820247Y-117318882D01*
X56665744Y-117431135D01*
X56537965Y-117573048D01*
X56537958Y-117573058D01*
X56442476Y-117738438D01*
X56442473Y-117738444D01*
X56427999Y-117782986D01*
X56383457Y-117920072D01*
X56363496Y-118110000D01*
X42478227Y-118110000D01*
X42386487Y-118090500D01*
X42195513Y-118090500D01*
X42008711Y-118130206D01*
X41834247Y-118207882D01*
X41679744Y-118320135D01*
X41551965Y-118462048D01*
X41551958Y-118462058D01*
X41456476Y-118627438D01*
X41456473Y-118627444D01*
X41454886Y-118632328D01*
X41397457Y-118809072D01*
X41377496Y-118999000D01*
X41397457Y-119188927D01*
X41427526Y-119281470D01*
X41456473Y-119370556D01*
X41456476Y-119370561D01*
X41551958Y-119535941D01*
X41551965Y-119535951D01*
X41679744Y-119677864D01*
X41774301Y-119746564D01*
X41817655Y-119802786D01*
X41823730Y-119873523D01*
X41790598Y-119936314D01*
X41728778Y-119971226D01*
X41700240Y-119974500D01*
X30151500Y-119974500D01*
X30083379Y-119954498D01*
X30036886Y-119900842D01*
X30025500Y-119848500D01*
X30025500Y-115000002D01*
X31637068Y-115000002D01*
X31656782Y-115363597D01*
X31715689Y-115722926D01*
X31813106Y-116073787D01*
X31947881Y-116412046D01*
X31947885Y-116412055D01*
X32118445Y-116733768D01*
X32118447Y-116733772D01*
X32322792Y-117035158D01*
X32322791Y-117035158D01*
X32452695Y-117188093D01*
X33603277Y-116037511D01*
X33665589Y-116003486D01*
X33736404Y-116008550D01*
X33788181Y-116044773D01*
X33829078Y-116092658D01*
X33865130Y-116134870D01*
X33955222Y-116211816D01*
X33994031Y-116271267D01*
X33994537Y-116342262D01*
X33962486Y-116396722D01*
X32809134Y-117550074D01*
X32822892Y-117563105D01*
X33112761Y-117783458D01*
X33112767Y-117783462D01*
X33424772Y-117971189D01*
X33424779Y-117971193D01*
X33755239Y-118124081D01*
X33755251Y-118124086D01*
X34100310Y-118240349D01*
X34100327Y-118240354D01*
X34455920Y-118318626D01*
X34455949Y-118318631D01*
X34817927Y-118357999D01*
X34817943Y-118358000D01*
X35182057Y-118358000D01*
X35182072Y-118357999D01*
X35544050Y-118318631D01*
X35544079Y-118318626D01*
X35899672Y-118240354D01*
X35899689Y-118240349D01*
X36244748Y-118124086D01*
X36244760Y-118124081D01*
X36575220Y-117971193D01*
X36575227Y-117971189D01*
X36887232Y-117783462D01*
X36887238Y-117783458D01*
X37177113Y-117563101D01*
X37190864Y-117550074D01*
X36037512Y-116396722D01*
X36003486Y-116334410D01*
X36008551Y-116263595D01*
X36044774Y-116211818D01*
X36134870Y-116134870D01*
X36211818Y-116044775D01*
X36271265Y-116005968D01*
X36342260Y-116005460D01*
X36396722Y-116037512D01*
X37547302Y-117188093D01*
X37547303Y-117188093D01*
X37677203Y-117035165D01*
X37677205Y-117035161D01*
X37881552Y-116733772D01*
X37881554Y-116733768D01*
X38052114Y-116412055D01*
X38052118Y-116412046D01*
X38186893Y-116073787D01*
X38284310Y-115722926D01*
X38343217Y-115363597D01*
X38346099Y-115310454D01*
X92537718Y-115310454D01*
X92547790Y-115521903D01*
X92547792Y-115521916D01*
X92597700Y-115727638D01*
X92597702Y-115727644D01*
X92685644Y-115920211D01*
X92685648Y-115920218D01*
X92808435Y-116092648D01*
X92808439Y-116092653D01*
X92808441Y-116092655D01*
X92961654Y-116238743D01*
X93139746Y-116353196D01*
X93336279Y-116431876D01*
X93544151Y-116471940D01*
X93544155Y-116471940D01*
X94502801Y-116471940D01*
X94502803Y-116471940D01*
X94660739Y-116456859D01*
X94863862Y-116397217D01*
X95052026Y-116300211D01*
X95218432Y-116169348D01*
X95248309Y-116134869D01*
X95284893Y-116092648D01*
X95357065Y-116009358D01*
X95462913Y-115826022D01*
X95532153Y-115625967D01*
X95562281Y-115416424D01*
X95557233Y-115310454D01*
X117937718Y-115310454D01*
X117947790Y-115521903D01*
X117947792Y-115521916D01*
X117997700Y-115727638D01*
X117997702Y-115727644D01*
X118085644Y-115920211D01*
X118085648Y-115920218D01*
X118208435Y-116092648D01*
X118208439Y-116092653D01*
X118208441Y-116092655D01*
X118361654Y-116238743D01*
X118539746Y-116353196D01*
X118736279Y-116431876D01*
X118944151Y-116471940D01*
X118944155Y-116471940D01*
X119902801Y-116471940D01*
X119902803Y-116471940D01*
X120060739Y-116456859D01*
X120263862Y-116397217D01*
X120452026Y-116300211D01*
X120618432Y-116169348D01*
X120648309Y-116134869D01*
X120684893Y-116092648D01*
X120757065Y-116009358D01*
X120862913Y-115826022D01*
X120932153Y-115625967D01*
X120962281Y-115416424D01*
X120957233Y-115310454D01*
X120952209Y-115204976D01*
X120952208Y-115204971D01*
X120952208Y-115204966D01*
X120902484Y-115000002D01*
X146637068Y-115000002D01*
X146656782Y-115363597D01*
X146715689Y-115722926D01*
X146813106Y-116073787D01*
X146947881Y-116412046D01*
X146947885Y-116412055D01*
X147118445Y-116733768D01*
X147118447Y-116733772D01*
X147322792Y-117035158D01*
X147322791Y-117035158D01*
X147452695Y-117188093D01*
X148603277Y-116037511D01*
X148665589Y-116003486D01*
X148736404Y-116008550D01*
X148788181Y-116044773D01*
X148829078Y-116092658D01*
X148865130Y-116134870D01*
X148955222Y-116211816D01*
X148994031Y-116271267D01*
X148994537Y-116342262D01*
X148962486Y-116396722D01*
X147809134Y-117550074D01*
X147822892Y-117563105D01*
X148112761Y-117783458D01*
X148112767Y-117783462D01*
X148424772Y-117971189D01*
X148424779Y-117971193D01*
X148755239Y-118124081D01*
X148755251Y-118124086D01*
X149100310Y-118240349D01*
X149100327Y-118240354D01*
X149455920Y-118318626D01*
X149455949Y-118318631D01*
X149817927Y-118357999D01*
X149817943Y-118358000D01*
X150182057Y-118358000D01*
X150182072Y-118357999D01*
X150544050Y-118318631D01*
X150544079Y-118318626D01*
X150899672Y-118240354D01*
X150899689Y-118240349D01*
X151244748Y-118124086D01*
X151244760Y-118124081D01*
X151575220Y-117971193D01*
X151575227Y-117971189D01*
X151887232Y-117783462D01*
X151887238Y-117783458D01*
X152177113Y-117563101D01*
X152190864Y-117550074D01*
X151037512Y-116396722D01*
X151003486Y-116334410D01*
X151008551Y-116263595D01*
X151044774Y-116211818D01*
X151134870Y-116134870D01*
X151211818Y-116044775D01*
X151271265Y-116005968D01*
X151342260Y-116005460D01*
X151396722Y-116037512D01*
X152547302Y-117188093D01*
X152547303Y-117188093D01*
X152677203Y-117035165D01*
X152677205Y-117035161D01*
X152881552Y-116733772D01*
X152881554Y-116733768D01*
X153052114Y-116412055D01*
X153052118Y-116412046D01*
X153186893Y-116073787D01*
X153284310Y-115722926D01*
X153343217Y-115363597D01*
X153362932Y-115000002D01*
X153362932Y-114999997D01*
X153343217Y-114636402D01*
X153284310Y-114277073D01*
X153186893Y-113926212D01*
X153052118Y-113587953D01*
X153052114Y-113587944D01*
X152881554Y-113266231D01*
X152881552Y-113266227D01*
X152677207Y-112964841D01*
X152677208Y-112964841D01*
X152547303Y-112811905D01*
X151396722Y-113962486D01*
X151334410Y-113996512D01*
X151263594Y-113991447D01*
X151211816Y-113955222D01*
X151134870Y-113865130D01*
X151125604Y-113857216D01*
X151044774Y-113788181D01*
X151005967Y-113728733D01*
X151005459Y-113657739D01*
X151037511Y-113603277D01*
X152190864Y-112449924D01*
X152177107Y-112436894D01*
X151887238Y-112216541D01*
X151887232Y-112216537D01*
X151575227Y-112028810D01*
X151575220Y-112028806D01*
X151244760Y-111875918D01*
X151244748Y-111875913D01*
X150899689Y-111759650D01*
X150899672Y-111759645D01*
X150544079Y-111681373D01*
X150544050Y-111681368D01*
X150182072Y-111642000D01*
X149817927Y-111642000D01*
X149455949Y-111681368D01*
X149455920Y-111681373D01*
X149100327Y-111759645D01*
X149100310Y-111759650D01*
X148755251Y-111875913D01*
X148755239Y-111875918D01*
X148424779Y-112028806D01*
X148424772Y-112028810D01*
X148112767Y-112216537D01*
X148112761Y-112216541D01*
X147822880Y-112436903D01*
X147822874Y-112436909D01*
X147809134Y-112449923D01*
X147809133Y-112449923D01*
X148962487Y-113603277D01*
X148996513Y-113665589D01*
X148991448Y-113736404D01*
X148955223Y-113788183D01*
X148865130Y-113865130D01*
X148788183Y-113955223D01*
X148728732Y-113994032D01*
X148657737Y-113994538D01*
X148603277Y-113962487D01*
X147452696Y-112811905D01*
X147322791Y-112964842D01*
X147118447Y-113266227D01*
X147118445Y-113266231D01*
X146947885Y-113587944D01*
X146947881Y-113587953D01*
X146813106Y-113926212D01*
X146715689Y-114277073D01*
X146656782Y-114636402D01*
X146637068Y-114999997D01*
X146637068Y-115000002D01*
X120902484Y-115000002D01*
X120902298Y-114999236D01*
X120814356Y-114806669D01*
X120814353Y-114806665D01*
X120814351Y-114806661D01*
X120691564Y-114634231D01*
X120691555Y-114634221D01*
X120664321Y-114608254D01*
X120538346Y-114488137D01*
X120360254Y-114373684D01*
X120163721Y-114295004D01*
X120163720Y-114295003D01*
X120163718Y-114295003D01*
X119955853Y-114254940D01*
X119955849Y-114254940D01*
X118997197Y-114254940D01*
X118997195Y-114254940D01*
X118997177Y-114254941D01*
X118839271Y-114270019D01*
X118839256Y-114270022D01*
X118636135Y-114329663D01*
X118447976Y-114426667D01*
X118281564Y-114557534D01*
X118142938Y-114717517D01*
X118142930Y-114717528D01*
X118037089Y-114900852D01*
X118037086Y-114900859D01*
X117967848Y-115100909D01*
X117967845Y-115100920D01*
X117937718Y-115310454D01*
X95557233Y-115310454D01*
X95552209Y-115204976D01*
X95552208Y-115204971D01*
X95552208Y-115204966D01*
X95502298Y-114999236D01*
X95414356Y-114806669D01*
X95414353Y-114806665D01*
X95414351Y-114806661D01*
X95291564Y-114634231D01*
X95291555Y-114634221D01*
X95264321Y-114608254D01*
X95138346Y-114488137D01*
X94960254Y-114373684D01*
X94763721Y-114295004D01*
X94763720Y-114295003D01*
X94763718Y-114295003D01*
X94555853Y-114254940D01*
X94555849Y-114254940D01*
X93597197Y-114254940D01*
X93597195Y-114254940D01*
X93597177Y-114254941D01*
X93439271Y-114270019D01*
X93439256Y-114270022D01*
X93236135Y-114329663D01*
X93047976Y-114426667D01*
X92881564Y-114557534D01*
X92742938Y-114717517D01*
X92742930Y-114717528D01*
X92637089Y-114900852D01*
X92637086Y-114900859D01*
X92567848Y-115100909D01*
X92567845Y-115100920D01*
X92537718Y-115310454D01*
X38346099Y-115310454D01*
X38362932Y-115000002D01*
X38362932Y-114999997D01*
X38343217Y-114636402D01*
X38284310Y-114277073D01*
X38186893Y-113926212D01*
X38116683Y-113749999D01*
X64336496Y-113749999D01*
X64356457Y-113939927D01*
X64374202Y-113994538D01*
X64415473Y-114121556D01*
X64415476Y-114121561D01*
X64510958Y-114286941D01*
X64510965Y-114286951D01*
X64638744Y-114428864D01*
X64638747Y-114428866D01*
X64793248Y-114541118D01*
X64967712Y-114618794D01*
X65154513Y-114658500D01*
X65345487Y-114658500D01*
X65532288Y-114618794D01*
X65706752Y-114541118D01*
X65861253Y-114428866D01*
X65989040Y-114286944D01*
X66084527Y-114121556D01*
X66143542Y-113939928D01*
X66163504Y-113750000D01*
X66143542Y-113560072D01*
X66084527Y-113378444D01*
X65989040Y-113213056D01*
X65989038Y-113213054D01*
X65989034Y-113213048D01*
X65861255Y-113071135D01*
X65706752Y-112958882D01*
X65532288Y-112881206D01*
X65345487Y-112841500D01*
X65154513Y-112841500D01*
X64967711Y-112881206D01*
X64793247Y-112958882D01*
X64638744Y-113071135D01*
X64510965Y-113213048D01*
X64510958Y-113213058D01*
X64415476Y-113378438D01*
X64415473Y-113378445D01*
X64356457Y-113560072D01*
X64336496Y-113749999D01*
X38116683Y-113749999D01*
X38052118Y-113587953D01*
X38052114Y-113587944D01*
X37881554Y-113266231D01*
X37881552Y-113266227D01*
X37677207Y-112964841D01*
X37677208Y-112964841D01*
X37547303Y-112811905D01*
X36396722Y-113962486D01*
X36334410Y-113996512D01*
X36263594Y-113991447D01*
X36211816Y-113955222D01*
X36134870Y-113865130D01*
X36125604Y-113857216D01*
X36044774Y-113788181D01*
X36005967Y-113728733D01*
X36005459Y-113657739D01*
X36037511Y-113603277D01*
X36870334Y-112770454D01*
X92537718Y-112770454D01*
X92547790Y-112981903D01*
X92547792Y-112981916D01*
X92597700Y-113187638D01*
X92597702Y-113187644D01*
X92685644Y-113380211D01*
X92685648Y-113380218D01*
X92808435Y-113552648D01*
X92808439Y-113552653D01*
X92808441Y-113552655D01*
X92961654Y-113698743D01*
X93139746Y-113813196D01*
X93336279Y-113891876D01*
X93544151Y-113931940D01*
X93544155Y-113931940D01*
X94502801Y-113931940D01*
X94502803Y-113931940D01*
X94660739Y-113916859D01*
X94863862Y-113857217D01*
X95052026Y-113760211D01*
X95218432Y-113629348D01*
X95357065Y-113469358D01*
X95462913Y-113286022D01*
X95532153Y-113085967D01*
X95550425Y-112958882D01*
X95562281Y-112876425D01*
X95557233Y-112770454D01*
X117937718Y-112770454D01*
X117947790Y-112981903D01*
X117947792Y-112981916D01*
X117997700Y-113187638D01*
X117997702Y-113187644D01*
X118085644Y-113380211D01*
X118085648Y-113380218D01*
X118208435Y-113552648D01*
X118208439Y-113552653D01*
X118208441Y-113552655D01*
X118361654Y-113698743D01*
X118539746Y-113813196D01*
X118736279Y-113891876D01*
X118944151Y-113931940D01*
X118944155Y-113931940D01*
X119902801Y-113931940D01*
X119902803Y-113931940D01*
X120060739Y-113916859D01*
X120263862Y-113857217D01*
X120452026Y-113760211D01*
X120618432Y-113629348D01*
X120757065Y-113469358D01*
X120797108Y-113400000D01*
X130686496Y-113400000D01*
X130706457Y-113589927D01*
X130710795Y-113603277D01*
X130765473Y-113771556D01*
X130765476Y-113771561D01*
X130860958Y-113936941D01*
X130860965Y-113936951D01*
X130988744Y-114078864D01*
X131047511Y-114121561D01*
X131143248Y-114191118D01*
X131317712Y-114268794D01*
X131504513Y-114308500D01*
X131695487Y-114308500D01*
X131882288Y-114268794D01*
X132056752Y-114191118D01*
X132211253Y-114078866D01*
X132287638Y-113994032D01*
X132339034Y-113936951D01*
X132339035Y-113936949D01*
X132339040Y-113936944D01*
X132434527Y-113771556D01*
X132493542Y-113589928D01*
X132513504Y-113400000D01*
X132508249Y-113350000D01*
X142436496Y-113350000D01*
X142456457Y-113539927D01*
X142485512Y-113629345D01*
X142515473Y-113721556D01*
X142515476Y-113721561D01*
X142610958Y-113886941D01*
X142610965Y-113886951D01*
X142738744Y-114028864D01*
X142738747Y-114028866D01*
X142893248Y-114141118D01*
X143067712Y-114218794D01*
X143254513Y-114258500D01*
X143445487Y-114258500D01*
X143632288Y-114218794D01*
X143806752Y-114141118D01*
X143961253Y-114028866D01*
X144021022Y-113962486D01*
X144089034Y-113886951D01*
X144089035Y-113886949D01*
X144089040Y-113886944D01*
X144184527Y-113721556D01*
X144243542Y-113539928D01*
X144263504Y-113350000D01*
X144243542Y-113160072D01*
X144184527Y-112978444D01*
X144089040Y-112813056D01*
X144089038Y-112813054D01*
X144089034Y-112813048D01*
X143961255Y-112671135D01*
X143806752Y-112558882D01*
X143632288Y-112481206D01*
X143445487Y-112441500D01*
X143254513Y-112441500D01*
X143067711Y-112481206D01*
X142893247Y-112558882D01*
X142738744Y-112671135D01*
X142610965Y-112813048D01*
X142610958Y-112813058D01*
X142515476Y-112978438D01*
X142515473Y-112978445D01*
X142456457Y-113160072D01*
X142436496Y-113350000D01*
X132508249Y-113350000D01*
X132493542Y-113210072D01*
X132434527Y-113028444D01*
X132339040Y-112863056D01*
X132339038Y-112863054D01*
X132339034Y-112863048D01*
X132211255Y-112721135D01*
X132056752Y-112608882D01*
X131882288Y-112531206D01*
X131695487Y-112491500D01*
X131504513Y-112491500D01*
X131317711Y-112531206D01*
X131143247Y-112608882D01*
X130988744Y-112721135D01*
X130860965Y-112863048D01*
X130860958Y-112863058D01*
X130765476Y-113028438D01*
X130765473Y-113028445D01*
X130706457Y-113210072D01*
X130686496Y-113400000D01*
X120797108Y-113400000D01*
X120862913Y-113286022D01*
X120932153Y-113085967D01*
X120950425Y-112958882D01*
X120962281Y-112876425D01*
X120952209Y-112664976D01*
X120952208Y-112664971D01*
X120952208Y-112664966D01*
X120902298Y-112459236D01*
X120814356Y-112266669D01*
X120814353Y-112266665D01*
X120814351Y-112266661D01*
X120691564Y-112094231D01*
X120691555Y-112094221D01*
X120637958Y-112043117D01*
X120538346Y-111948137D01*
X120425963Y-111875913D01*
X120360254Y-111833684D01*
X120175326Y-111759650D01*
X120163721Y-111755004D01*
X120163720Y-111755003D01*
X120163718Y-111755003D01*
X119955853Y-111714940D01*
X119955849Y-111714940D01*
X118997197Y-111714940D01*
X118997195Y-111714940D01*
X118997177Y-111714941D01*
X118839271Y-111730019D01*
X118839256Y-111730022D01*
X118636135Y-111789663D01*
X118447976Y-111886667D01*
X118281564Y-112017534D01*
X118142938Y-112177517D01*
X118142930Y-112177528D01*
X118037089Y-112360852D01*
X118037086Y-112360859D01*
X117967848Y-112560909D01*
X117967845Y-112560920D01*
X117937718Y-112770454D01*
X95557233Y-112770454D01*
X95552209Y-112664976D01*
X95552208Y-112664971D01*
X95552208Y-112664966D01*
X95502298Y-112459236D01*
X95414356Y-112266669D01*
X95414353Y-112266665D01*
X95414351Y-112266661D01*
X95291564Y-112094231D01*
X95291555Y-112094221D01*
X95237958Y-112043117D01*
X95138346Y-111948137D01*
X95025963Y-111875913D01*
X94960254Y-111833684D01*
X94775326Y-111759650D01*
X94763721Y-111755004D01*
X94763720Y-111755003D01*
X94763718Y-111755003D01*
X94555853Y-111714940D01*
X94555849Y-111714940D01*
X93597197Y-111714940D01*
X93597195Y-111714940D01*
X93597177Y-111714941D01*
X93439271Y-111730019D01*
X93439256Y-111730022D01*
X93236135Y-111789663D01*
X93047976Y-111886667D01*
X92881564Y-112017534D01*
X92742938Y-112177517D01*
X92742930Y-112177528D01*
X92637089Y-112360852D01*
X92637086Y-112360859D01*
X92567848Y-112560909D01*
X92567845Y-112560920D01*
X92537718Y-112770454D01*
X36870334Y-112770454D01*
X37190864Y-112449924D01*
X37177107Y-112436894D01*
X36887238Y-112216541D01*
X36887232Y-112216537D01*
X36575227Y-112028810D01*
X36575220Y-112028806D01*
X36244760Y-111875918D01*
X36244748Y-111875913D01*
X35899689Y-111759650D01*
X35899672Y-111759645D01*
X35544079Y-111681373D01*
X35544050Y-111681368D01*
X35182072Y-111642000D01*
X34817927Y-111642000D01*
X34455949Y-111681368D01*
X34455920Y-111681373D01*
X34100327Y-111759645D01*
X34100310Y-111759650D01*
X33755251Y-111875913D01*
X33755239Y-111875918D01*
X33424779Y-112028806D01*
X33424772Y-112028810D01*
X33112767Y-112216537D01*
X33112761Y-112216541D01*
X32822880Y-112436903D01*
X32822874Y-112436909D01*
X32809134Y-112449923D01*
X32809133Y-112449923D01*
X33962487Y-113603277D01*
X33996513Y-113665589D01*
X33991448Y-113736404D01*
X33955223Y-113788183D01*
X33865130Y-113865130D01*
X33788183Y-113955223D01*
X33728732Y-113994032D01*
X33657737Y-113994538D01*
X33603277Y-113962487D01*
X32452696Y-112811905D01*
X32322791Y-112964842D01*
X32118447Y-113266227D01*
X32118445Y-113266231D01*
X31947885Y-113587944D01*
X31947881Y-113587953D01*
X31813106Y-113926212D01*
X31715689Y-114277073D01*
X31656782Y-114636402D01*
X31637068Y-114999997D01*
X31637068Y-115000002D01*
X30025500Y-115000002D01*
X30025500Y-111251999D01*
X47219496Y-111251999D01*
X47239457Y-111441927D01*
X47269526Y-111534470D01*
X47298473Y-111623556D01*
X47298476Y-111623561D01*
X47393958Y-111788941D01*
X47393965Y-111788951D01*
X47521744Y-111930864D01*
X47545518Y-111948137D01*
X47676248Y-112043118D01*
X47850712Y-112120794D01*
X48037513Y-112160500D01*
X48228487Y-112160500D01*
X48415288Y-112120794D01*
X48589752Y-112043118D01*
X48744253Y-111930866D01*
X48784050Y-111886667D01*
X48872034Y-111788951D01*
X48872035Y-111788949D01*
X48872040Y-111788944D01*
X48967527Y-111623556D01*
X49026542Y-111441928D01*
X49046504Y-111252000D01*
X49026542Y-111062072D01*
X48967527Y-110880444D01*
X48872040Y-110715056D01*
X48872038Y-110715054D01*
X48872034Y-110715048D01*
X48744255Y-110573135D01*
X48589752Y-110460882D01*
X48415288Y-110383206D01*
X48228487Y-110343500D01*
X48037513Y-110343500D01*
X47850711Y-110383206D01*
X47676247Y-110460882D01*
X47521744Y-110573135D01*
X47393965Y-110715048D01*
X47393958Y-110715058D01*
X47298476Y-110880438D01*
X47298473Y-110880444D01*
X47283999Y-110924986D01*
X47239457Y-111062072D01*
X47219496Y-111251999D01*
X30025500Y-111251999D01*
X30025500Y-110109000D01*
X49886496Y-110109000D01*
X49906457Y-110298927D01*
X49920940Y-110343500D01*
X49965473Y-110480556D01*
X49965476Y-110480561D01*
X50060958Y-110645941D01*
X50060965Y-110645951D01*
X50188744Y-110787864D01*
X50188747Y-110787866D01*
X50343248Y-110900118D01*
X50517712Y-110977794D01*
X50704513Y-111017500D01*
X50895487Y-111017500D01*
X51082288Y-110977794D01*
X51256752Y-110900118D01*
X51411253Y-110787866D01*
X51448925Y-110746027D01*
X51539034Y-110645951D01*
X51539035Y-110645949D01*
X51539040Y-110645944D01*
X51634527Y-110480556D01*
X51693542Y-110298928D01*
X51700739Y-110230454D01*
X92537718Y-110230454D01*
X92547790Y-110441903D01*
X92547792Y-110441916D01*
X92597700Y-110647638D01*
X92597702Y-110647644D01*
X92685644Y-110840211D01*
X92685648Y-110840218D01*
X92808435Y-111012648D01*
X92808439Y-111012653D01*
X92808441Y-111012655D01*
X92961654Y-111158743D01*
X93139746Y-111273196D01*
X93336279Y-111351876D01*
X93544151Y-111391940D01*
X93544155Y-111391940D01*
X94502801Y-111391940D01*
X94502803Y-111391940D01*
X94660739Y-111376859D01*
X94863862Y-111317217D01*
X95052026Y-111220211D01*
X95218432Y-111089348D01*
X95357065Y-110929358D01*
X95462913Y-110746022D01*
X95532153Y-110545967D01*
X95562281Y-110336424D01*
X95557233Y-110230454D01*
X117937718Y-110230454D01*
X117947790Y-110441903D01*
X117947792Y-110441916D01*
X117997700Y-110647638D01*
X117997702Y-110647644D01*
X118085644Y-110840211D01*
X118085648Y-110840218D01*
X118208435Y-111012648D01*
X118208439Y-111012653D01*
X118208441Y-111012655D01*
X118361654Y-111158743D01*
X118539746Y-111273196D01*
X118736279Y-111351876D01*
X118944151Y-111391940D01*
X118944155Y-111391940D01*
X119902801Y-111391940D01*
X119902803Y-111391940D01*
X120060739Y-111376859D01*
X120263862Y-111317217D01*
X120452026Y-111220211D01*
X120618432Y-111089348D01*
X120757065Y-110929358D01*
X120862913Y-110746022D01*
X120932153Y-110545967D01*
X120962281Y-110336424D01*
X120957233Y-110230454D01*
X120952209Y-110124976D01*
X120952208Y-110124971D01*
X120952208Y-110124966D01*
X120902298Y-109919236D01*
X120814356Y-109726669D01*
X120814353Y-109726665D01*
X120814351Y-109726661D01*
X120691564Y-109554231D01*
X120691555Y-109554221D01*
X120623217Y-109489061D01*
X120538346Y-109408137D01*
X120360254Y-109293684D01*
X120163721Y-109215004D01*
X120163720Y-109215003D01*
X120163718Y-109215003D01*
X119955853Y-109174940D01*
X119955849Y-109174940D01*
X118997197Y-109174940D01*
X118997195Y-109174940D01*
X118997177Y-109174941D01*
X118839271Y-109190019D01*
X118839256Y-109190022D01*
X118636135Y-109249663D01*
X118447976Y-109346667D01*
X118281564Y-109477534D01*
X118142938Y-109637517D01*
X118142930Y-109637528D01*
X118037089Y-109820852D01*
X118037086Y-109820859D01*
X117967848Y-110020909D01*
X117967845Y-110020920D01*
X117937718Y-110230454D01*
X95557233Y-110230454D01*
X95552209Y-110124976D01*
X95552208Y-110124971D01*
X95552208Y-110124966D01*
X95502298Y-109919236D01*
X95414356Y-109726669D01*
X95414353Y-109726665D01*
X95414351Y-109726661D01*
X95291564Y-109554231D01*
X95291555Y-109554221D01*
X95223217Y-109489061D01*
X95138346Y-109408137D01*
X94960254Y-109293684D01*
X94763721Y-109215004D01*
X94763720Y-109215003D01*
X94763718Y-109215003D01*
X94555853Y-109174940D01*
X94555849Y-109174940D01*
X93597197Y-109174940D01*
X93597195Y-109174940D01*
X93597177Y-109174941D01*
X93439271Y-109190019D01*
X93439256Y-109190022D01*
X93236135Y-109249663D01*
X93047976Y-109346667D01*
X92881564Y-109477534D01*
X92742938Y-109637517D01*
X92742930Y-109637528D01*
X92637089Y-109820852D01*
X92637086Y-109820859D01*
X92567848Y-110020909D01*
X92567845Y-110020920D01*
X92537718Y-110230454D01*
X51700739Y-110230454D01*
X51713504Y-110109000D01*
X51693542Y-109919072D01*
X51634527Y-109737444D01*
X51539040Y-109572056D01*
X51539038Y-109572054D01*
X51539034Y-109572048D01*
X51411255Y-109430135D01*
X51256752Y-109317882D01*
X51082288Y-109240206D01*
X50895487Y-109200500D01*
X50704513Y-109200500D01*
X50517711Y-109240206D01*
X50343247Y-109317882D01*
X50188744Y-109430135D01*
X50060965Y-109572048D01*
X50060958Y-109572058D01*
X49965476Y-109737438D01*
X49965473Y-109737445D01*
X49906457Y-109919072D01*
X49886496Y-110109000D01*
X30025500Y-110109000D01*
X30025500Y-109117500D01*
X40120202Y-109117500D01*
X40140163Y-109307427D01*
X40152914Y-109346669D01*
X40199179Y-109489056D01*
X40199182Y-109489061D01*
X40294664Y-109654441D01*
X40294671Y-109654451D01*
X40422450Y-109796364D01*
X40483705Y-109840868D01*
X40576954Y-109908618D01*
X40751418Y-109986294D01*
X40938219Y-110026000D01*
X41129193Y-110026000D01*
X41315994Y-109986294D01*
X41490458Y-109908618D01*
X41644959Y-109796366D01*
X41698018Y-109737438D01*
X41772740Y-109654451D01*
X41772741Y-109654449D01*
X41772746Y-109654444D01*
X41868233Y-109489056D01*
X41927248Y-109307428D01*
X41947210Y-109117500D01*
X41927248Y-108927572D01*
X41868233Y-108745944D01*
X41772746Y-108580556D01*
X41772744Y-108580554D01*
X41772740Y-108580548D01*
X41644961Y-108438635D01*
X41490458Y-108326382D01*
X41315994Y-108248706D01*
X41129193Y-108209000D01*
X40938219Y-108209000D01*
X40751417Y-108248706D01*
X40576953Y-108326382D01*
X40422450Y-108438635D01*
X40294671Y-108580548D01*
X40294664Y-108580558D01*
X40199182Y-108745938D01*
X40199179Y-108745945D01*
X40140163Y-108927572D01*
X40120202Y-109117500D01*
X30025500Y-109117500D01*
X30025500Y-106762499D01*
X36019454Y-106762499D01*
X36039613Y-107044364D01*
X36091060Y-107280859D01*
X36099680Y-107320484D01*
X36148409Y-107451134D01*
X36198431Y-107585248D01*
X36198433Y-107585252D01*
X36333857Y-107833261D01*
X36503200Y-108059479D01*
X36503208Y-108059488D01*
X36703011Y-108259291D01*
X36703020Y-108259299D01*
X36757673Y-108300211D01*
X36929236Y-108428641D01*
X37177251Y-108564068D01*
X37442016Y-108662820D01*
X37718139Y-108722887D01*
X37929447Y-108738000D01*
X37929453Y-108738000D01*
X38070547Y-108738000D01*
X38070553Y-108738000D01*
X38281861Y-108722887D01*
X38557984Y-108662820D01*
X38822749Y-108564068D01*
X39070764Y-108428641D01*
X39296982Y-108259297D01*
X39496797Y-108059482D01*
X39666141Y-107833264D01*
X39801568Y-107585249D01*
X39900320Y-107320484D01*
X39960387Y-107044361D01*
X39980546Y-106762500D01*
X39960387Y-106480639D01*
X39900320Y-106204516D01*
X39801568Y-105939751D01*
X39797689Y-105932648D01*
X39666142Y-105691738D01*
X39664756Y-105689887D01*
X39511534Y-105485204D01*
X39496799Y-105465520D01*
X39496791Y-105465511D01*
X39296988Y-105265708D01*
X39296979Y-105265700D01*
X39070761Y-105096357D01*
X38822752Y-104960933D01*
X38822748Y-104960931D01*
X38688634Y-104910909D01*
X38557984Y-104862180D01*
X38557980Y-104862179D01*
X38557977Y-104862178D01*
X38281863Y-104802113D01*
X38281864Y-104802113D01*
X38211424Y-104797075D01*
X38070553Y-104787000D01*
X37929447Y-104787000D01*
X37802662Y-104796067D01*
X37718135Y-104802113D01*
X37442022Y-104862178D01*
X37442017Y-104862179D01*
X37442016Y-104862180D01*
X37412851Y-104873058D01*
X37177251Y-104960931D01*
X37177247Y-104960933D01*
X36929238Y-105096357D01*
X36703020Y-105265700D01*
X36703011Y-105265708D01*
X36503208Y-105465511D01*
X36503200Y-105465520D01*
X36333857Y-105691738D01*
X36198433Y-105939747D01*
X36198431Y-105939751D01*
X36099678Y-106204522D01*
X36039613Y-106480635D01*
X36019454Y-106762499D01*
X30025500Y-106762499D01*
X30025500Y-101491999D01*
X39835888Y-101491999D01*
X39854303Y-101702484D01*
X39908986Y-101906565D01*
X39908988Y-101906569D01*
X39998281Y-102098059D01*
X40119461Y-102271122D01*
X40119465Y-102271127D01*
X40119468Y-102271131D01*
X40268869Y-102420532D01*
X40382837Y-102500333D01*
X40399655Y-102514445D01*
X40833513Y-102948302D01*
X40867538Y-103010615D01*
X40862474Y-103081430D01*
X40819927Y-103138266D01*
X40799092Y-103150918D01*
X40796494Y-103152169D01*
X40796488Y-103152173D01*
X40698158Y-103243410D01*
X40698155Y-103243413D01*
X40674859Y-103283763D01*
X40623476Y-103332755D01*
X40553762Y-103346190D01*
X40487851Y-103319802D01*
X40476645Y-103309856D01*
X40035418Y-102868628D01*
X40000717Y-102918188D01*
X39911459Y-103109602D01*
X39911457Y-103109606D01*
X39856796Y-103313607D01*
X39838389Y-103523999D01*
X39856796Y-103734392D01*
X39911457Y-103938393D01*
X39911459Y-103938398D01*
X40000715Y-104129809D01*
X40035417Y-104179369D01*
X40035419Y-104179369D01*
X40474278Y-103740509D01*
X40536591Y-103706484D01*
X40607406Y-103711548D01*
X40661884Y-103751043D01*
X40694826Y-103792350D01*
X40743905Y-103853892D01*
X40817692Y-103904199D01*
X40862708Y-103959099D01*
X40870897Y-104029622D01*
X40839658Y-104093377D01*
X40835808Y-104097400D01*
X40394629Y-104538578D01*
X40394629Y-104538579D01*
X40444198Y-104573288D01*
X40635601Y-104662540D01*
X40635606Y-104662542D01*
X40839607Y-104717203D01*
X41049999Y-104735610D01*
X41260392Y-104717203D01*
X41464393Y-104662542D01*
X41464398Y-104662540D01*
X41655808Y-104573284D01*
X41674226Y-104560388D01*
X41741499Y-104537698D01*
X41810360Y-104554981D01*
X41858945Y-104606750D01*
X41872499Y-104663599D01*
X41872499Y-105287632D01*
X41872500Y-105287649D01*
X41879009Y-105348196D01*
X41879011Y-105348204D01*
X41930110Y-105485202D01*
X41930112Y-105485207D01*
X42017738Y-105602261D01*
X42134792Y-105689887D01*
X42134794Y-105689888D01*
X42134796Y-105689889D01*
X42193875Y-105711924D01*
X42271795Y-105740988D01*
X42271803Y-105740990D01*
X42332350Y-105747499D01*
X42332355Y-105747499D01*
X42332362Y-105747500D01*
X42332368Y-105747500D01*
X43827632Y-105747500D01*
X43827638Y-105747500D01*
X43827645Y-105747499D01*
X43827649Y-105747499D01*
X43888196Y-105740990D01*
X43888199Y-105740989D01*
X43888201Y-105740989D01*
X44025204Y-105689889D01*
X44057087Y-105666022D01*
X44142261Y-105602261D01*
X44229887Y-105485207D01*
X44229887Y-105485206D01*
X44229889Y-105485204D01*
X44257939Y-105410000D01*
X61824496Y-105410000D01*
X61844457Y-105599927D01*
X61865933Y-105666020D01*
X61903473Y-105781556D01*
X61903476Y-105781561D01*
X61998958Y-105946941D01*
X61998965Y-105946951D01*
X62131165Y-106093774D01*
X62129121Y-106095613D01*
X62159997Y-106145672D01*
X62158682Y-106216656D01*
X62132104Y-106263231D01*
X62125959Y-106270055D01*
X62125958Y-106270057D01*
X62030476Y-106435438D01*
X62030473Y-106435445D01*
X61971457Y-106617072D01*
X61951496Y-106807000D01*
X61971457Y-106996927D01*
X61977078Y-107014225D01*
X62030473Y-107178556D01*
X62035157Y-107186669D01*
X62125958Y-107343941D01*
X62125965Y-107343951D01*
X62253744Y-107485864D01*
X62253747Y-107485866D01*
X62408248Y-107598118D01*
X62582712Y-107675794D01*
X62769513Y-107715500D01*
X62960487Y-107715500D01*
X63078319Y-107690454D01*
X92537718Y-107690454D01*
X92547790Y-107901903D01*
X92547792Y-107901916D01*
X92597700Y-108107638D01*
X92597702Y-108107644D01*
X92685644Y-108300211D01*
X92685648Y-108300218D01*
X92808435Y-108472648D01*
X92808439Y-108472653D01*
X92808441Y-108472655D01*
X92961654Y-108618743D01*
X93139746Y-108733196D01*
X93336279Y-108811876D01*
X93544151Y-108851940D01*
X93544155Y-108851940D01*
X94502801Y-108851940D01*
X94502803Y-108851940D01*
X94660739Y-108836859D01*
X94863862Y-108777217D01*
X95052026Y-108680211D01*
X95218432Y-108549348D01*
X95357065Y-108389358D01*
X95462913Y-108206022D01*
X95532153Y-108005967D01*
X95562281Y-107796424D01*
X95557233Y-107690454D01*
X117937718Y-107690454D01*
X117947790Y-107901903D01*
X117947792Y-107901916D01*
X117997700Y-108107638D01*
X117997702Y-108107644D01*
X118085644Y-108300211D01*
X118085648Y-108300218D01*
X118208435Y-108472648D01*
X118208439Y-108472653D01*
X118208441Y-108472655D01*
X118361654Y-108618743D01*
X118539746Y-108733196D01*
X118736279Y-108811876D01*
X118944151Y-108851940D01*
X118944155Y-108851940D01*
X119902801Y-108851940D01*
X119902803Y-108851940D01*
X120060739Y-108836859D01*
X120263862Y-108777217D01*
X120452026Y-108680211D01*
X120618432Y-108549348D01*
X120757065Y-108389358D01*
X120862913Y-108206022D01*
X120932153Y-108005967D01*
X120962281Y-107796424D01*
X120952835Y-107598118D01*
X120952209Y-107584976D01*
X120952208Y-107584971D01*
X120952208Y-107584966D01*
X120902298Y-107379236D01*
X120814356Y-107186669D01*
X120814353Y-107186665D01*
X120814351Y-107186661D01*
X120691564Y-107014231D01*
X120691555Y-107014221D01*
X120664321Y-106988254D01*
X120538346Y-106868137D01*
X120360254Y-106753684D01*
X120163721Y-106675004D01*
X120163720Y-106675003D01*
X120163718Y-106675003D01*
X119955853Y-106634940D01*
X119955849Y-106634940D01*
X118997197Y-106634940D01*
X118997195Y-106634940D01*
X118997177Y-106634941D01*
X118839271Y-106650019D01*
X118839256Y-106650022D01*
X118636135Y-106709663D01*
X118447976Y-106806667D01*
X118281564Y-106937534D01*
X118142938Y-107097517D01*
X118142930Y-107097528D01*
X118037089Y-107280852D01*
X118037086Y-107280859D01*
X117967848Y-107480909D01*
X117967845Y-107480920D01*
X117937718Y-107690454D01*
X95557233Y-107690454D01*
X95552835Y-107598118D01*
X95552209Y-107584976D01*
X95552208Y-107584971D01*
X95552208Y-107584966D01*
X95502298Y-107379236D01*
X95414356Y-107186669D01*
X95414353Y-107186665D01*
X95414351Y-107186661D01*
X95291564Y-107014231D01*
X95291555Y-107014221D01*
X95264321Y-106988254D01*
X95138346Y-106868137D01*
X94960254Y-106753684D01*
X94763721Y-106675004D01*
X94763720Y-106675003D01*
X94763718Y-106675003D01*
X94555853Y-106634940D01*
X94555849Y-106634940D01*
X93597197Y-106634940D01*
X93597195Y-106634940D01*
X93597177Y-106634941D01*
X93439271Y-106650019D01*
X93439256Y-106650022D01*
X93236135Y-106709663D01*
X93047976Y-106806667D01*
X92881564Y-106937534D01*
X92742938Y-107097517D01*
X92742930Y-107097528D01*
X92637089Y-107280852D01*
X92637086Y-107280859D01*
X92567848Y-107480909D01*
X92567845Y-107480920D01*
X92537718Y-107690454D01*
X63078319Y-107690454D01*
X63147288Y-107675794D01*
X63321752Y-107598118D01*
X63476253Y-107485866D01*
X63476255Y-107485864D01*
X63604034Y-107343951D01*
X63604035Y-107343949D01*
X63604040Y-107343944D01*
X63699527Y-107178556D01*
X63758542Y-106996928D01*
X63778504Y-106807000D01*
X63758542Y-106617072D01*
X63699527Y-106435444D01*
X63604040Y-106270056D01*
X63604038Y-106270054D01*
X63604034Y-106270048D01*
X63471835Y-106123226D01*
X63473877Y-106121386D01*
X63443000Y-106071320D01*
X63444319Y-106000336D01*
X63470901Y-105953761D01*
X63477040Y-105946944D01*
X63572527Y-105781556D01*
X63631542Y-105599928D01*
X63651504Y-105410000D01*
X63631542Y-105220072D01*
X63608922Y-105150454D01*
X92537718Y-105150454D01*
X92547790Y-105361903D01*
X92547792Y-105361916D01*
X92597700Y-105567638D01*
X92597702Y-105567644D01*
X92685644Y-105760211D01*
X92685648Y-105760218D01*
X92808435Y-105932648D01*
X92808439Y-105932653D01*
X92808441Y-105932655D01*
X92961654Y-106078743D01*
X93139746Y-106193196D01*
X93336279Y-106271876D01*
X93544151Y-106311940D01*
X93544155Y-106311940D01*
X94502801Y-106311940D01*
X94502803Y-106311940D01*
X94660739Y-106296859D01*
X94863862Y-106237217D01*
X95052026Y-106140211D01*
X95218432Y-106009348D01*
X95266601Y-105953759D01*
X95284893Y-105932648D01*
X95357065Y-105849358D01*
X95462913Y-105666022D01*
X95532153Y-105465967D01*
X95549086Y-105348196D01*
X95562281Y-105256425D01*
X95557233Y-105150454D01*
X117937718Y-105150454D01*
X117947790Y-105361903D01*
X117947792Y-105361916D01*
X117997700Y-105567638D01*
X117997702Y-105567644D01*
X118085644Y-105760211D01*
X118085648Y-105760218D01*
X118208435Y-105932648D01*
X118208439Y-105932653D01*
X118208441Y-105932655D01*
X118361654Y-106078743D01*
X118539746Y-106193196D01*
X118736279Y-106271876D01*
X118944151Y-106311940D01*
X118944155Y-106311940D01*
X119902801Y-106311940D01*
X119902803Y-106311940D01*
X120060739Y-106296859D01*
X120263862Y-106237217D01*
X120452026Y-106140211D01*
X120618432Y-106009348D01*
X120666601Y-105953759D01*
X120684893Y-105932648D01*
X120757065Y-105849358D01*
X120862913Y-105666022D01*
X120932153Y-105465967D01*
X120949086Y-105348196D01*
X120962281Y-105256425D01*
X120952209Y-105044976D01*
X120952208Y-105044971D01*
X120952208Y-105044966D01*
X120902298Y-104839236D01*
X120814356Y-104646669D01*
X120814353Y-104646665D01*
X120814351Y-104646661D01*
X120691564Y-104474231D01*
X120691555Y-104474221D01*
X120664321Y-104448254D01*
X120538346Y-104328137D01*
X120360254Y-104213684D01*
X120163721Y-104135004D01*
X120163720Y-104135003D01*
X120163718Y-104135003D01*
X119955853Y-104094940D01*
X119955849Y-104094940D01*
X118997197Y-104094940D01*
X118997195Y-104094940D01*
X118997177Y-104094941D01*
X118839271Y-104110019D01*
X118839256Y-104110022D01*
X118636135Y-104169663D01*
X118447976Y-104266667D01*
X118281564Y-104397534D01*
X118142938Y-104557517D01*
X118142930Y-104557528D01*
X118037089Y-104740852D01*
X118037086Y-104740859D01*
X117967848Y-104940909D01*
X117967845Y-104940920D01*
X117937718Y-105150454D01*
X95557233Y-105150454D01*
X95552209Y-105044976D01*
X95552208Y-105044971D01*
X95552208Y-105044966D01*
X95502298Y-104839236D01*
X95414356Y-104646669D01*
X95414353Y-104646665D01*
X95414351Y-104646661D01*
X95291564Y-104474231D01*
X95291555Y-104474221D01*
X95264321Y-104448254D01*
X95138346Y-104328137D01*
X94960254Y-104213684D01*
X94763721Y-104135004D01*
X94763720Y-104135003D01*
X94763718Y-104135003D01*
X94555853Y-104094940D01*
X94555849Y-104094940D01*
X93597197Y-104094940D01*
X93597195Y-104094940D01*
X93597177Y-104094941D01*
X93439271Y-104110019D01*
X93439256Y-104110022D01*
X93236135Y-104169663D01*
X93047976Y-104266667D01*
X92881564Y-104397534D01*
X92742938Y-104557517D01*
X92742930Y-104557528D01*
X92637089Y-104740852D01*
X92637086Y-104740859D01*
X92567848Y-104940909D01*
X92567845Y-104940920D01*
X92537718Y-105150454D01*
X63608922Y-105150454D01*
X63572527Y-105038444D01*
X63477040Y-104873056D01*
X63477038Y-104873054D01*
X63477034Y-104873048D01*
X63349255Y-104731135D01*
X63194752Y-104618882D01*
X63020288Y-104541206D01*
X62833487Y-104501500D01*
X62642513Y-104501500D01*
X62455711Y-104541206D01*
X62281247Y-104618882D01*
X62126744Y-104731135D01*
X61998965Y-104873048D01*
X61998958Y-104873058D01*
X61903476Y-105038438D01*
X61903473Y-105038445D01*
X61844457Y-105220072D01*
X61824496Y-105410000D01*
X44257939Y-105410000D01*
X44280989Y-105348201D01*
X44287500Y-105287638D01*
X44287500Y-103792362D01*
X44287499Y-103792350D01*
X44280990Y-103731803D01*
X44280988Y-103731795D01*
X44259804Y-103675000D01*
X56848496Y-103675000D01*
X56868457Y-103864927D01*
X56892328Y-103938393D01*
X56927473Y-104046556D01*
X56927476Y-104046561D01*
X57022958Y-104211941D01*
X57022965Y-104211951D01*
X57150744Y-104353864D01*
X57150747Y-104353866D01*
X57305248Y-104466118D01*
X57479712Y-104543794D01*
X57666513Y-104583500D01*
X57857487Y-104583500D01*
X58044288Y-104543794D01*
X58218752Y-104466118D01*
X58373253Y-104353866D01*
X58373255Y-104353864D01*
X58501034Y-104211951D01*
X58501035Y-104211949D01*
X58501040Y-104211944D01*
X58596527Y-104046556D01*
X58655542Y-103864928D01*
X58675504Y-103675000D01*
X58655542Y-103485072D01*
X58596527Y-103303444D01*
X58501040Y-103138056D01*
X58501038Y-103138054D01*
X58501034Y-103138048D01*
X58373255Y-102996135D01*
X58218752Y-102883882D01*
X58044288Y-102806206D01*
X57857487Y-102766500D01*
X57666513Y-102766500D01*
X57479711Y-102806206D01*
X57305247Y-102883882D01*
X57150744Y-102996135D01*
X57022965Y-103138048D01*
X57022958Y-103138058D01*
X56930046Y-103298987D01*
X56927473Y-103303444D01*
X56925550Y-103309362D01*
X56868457Y-103485072D01*
X56848496Y-103675000D01*
X44259804Y-103675000D01*
X44231909Y-103600212D01*
X44229889Y-103594796D01*
X44229888Y-103594794D01*
X44229887Y-103594792D01*
X44142261Y-103477738D01*
X44064673Y-103419657D01*
X44022126Y-103362821D01*
X44017061Y-103292006D01*
X44036969Y-103246518D01*
X44129720Y-103114056D01*
X44219013Y-102922567D01*
X44273697Y-102718481D01*
X44292112Y-102508000D01*
X44283489Y-102409440D01*
X92567126Y-102409440D01*
X93537716Y-102409440D01*
X93605837Y-102429442D01*
X93652330Y-102483098D01*
X93662434Y-102553372D01*
X93662165Y-102555150D01*
X93645014Y-102663439D01*
X93662165Y-102771730D01*
X93653065Y-102842141D01*
X93607343Y-102896455D01*
X93539515Y-102917427D01*
X93537716Y-102917440D01*
X92571480Y-102917440D01*
X92598175Y-103027478D01*
X92598177Y-103027485D01*
X92686077Y-103219955D01*
X92686079Y-103219959D01*
X92808821Y-103392327D01*
X92808822Y-103392328D01*
X92961964Y-103538349D01*
X92961965Y-103538350D01*
X93139975Y-103652748D01*
X93139980Y-103652751D01*
X93336414Y-103731392D01*
X93336420Y-103731393D01*
X93544194Y-103771439D01*
X93544203Y-103771440D01*
X93796000Y-103771440D01*
X93796000Y-103175724D01*
X93816002Y-103107603D01*
X93869658Y-103061110D01*
X93939932Y-103051006D01*
X93941713Y-103051275D01*
X94018519Y-103063440D01*
X94018521Y-103063440D01*
X94081479Y-103063440D01*
X94081481Y-103063440D01*
X94158290Y-103051275D01*
X94228701Y-103060375D01*
X94283015Y-103106097D01*
X94303987Y-103173926D01*
X94304000Y-103175724D01*
X94304000Y-103771440D01*
X94502779Y-103771440D01*
X94502800Y-103771438D01*
X94660633Y-103756367D01*
X94660648Y-103756364D01*
X94863677Y-103696750D01*
X95051754Y-103599789D01*
X95218085Y-103468984D01*
X95218091Y-103468979D01*
X95356656Y-103309065D01*
X95356657Y-103309064D01*
X95462454Y-103125817D01*
X95462458Y-103125808D01*
X95531662Y-102925855D01*
X95531664Y-102925849D01*
X95532873Y-102917440D01*
X94562284Y-102917440D01*
X94494163Y-102897438D01*
X94447670Y-102843782D01*
X94437566Y-102773508D01*
X94437835Y-102771730D01*
X94446268Y-102718484D01*
X94454986Y-102663440D01*
X94446594Y-102610454D01*
X117937718Y-102610454D01*
X117947790Y-102821903D01*
X117947792Y-102821916D01*
X117997700Y-103027638D01*
X117997702Y-103027644D01*
X118085644Y-103220211D01*
X118085648Y-103220218D01*
X118208435Y-103392648D01*
X118208439Y-103392653D01*
X118208441Y-103392655D01*
X118361654Y-103538743D01*
X118539746Y-103653196D01*
X118736279Y-103731876D01*
X118944151Y-103771940D01*
X118944155Y-103771940D01*
X119902801Y-103771940D01*
X119902803Y-103771940D01*
X120060739Y-103756859D01*
X120263862Y-103697217D01*
X120452026Y-103600211D01*
X120618432Y-103469348D01*
X120618748Y-103468984D01*
X120713541Y-103359587D01*
X120757065Y-103309358D01*
X120862913Y-103126022D01*
X120932153Y-102925967D01*
X120951905Y-102788588D01*
X120962281Y-102716425D01*
X120961694Y-102704112D01*
X120959757Y-102663439D01*
X120952209Y-102504976D01*
X120952208Y-102504971D01*
X120952208Y-102504966D01*
X120902298Y-102299236D01*
X120814356Y-102106669D01*
X120814353Y-102106665D01*
X120814351Y-102106661D01*
X120691564Y-101934231D01*
X120691555Y-101934221D01*
X120611506Y-101857895D01*
X120538346Y-101788137D01*
X120360254Y-101673684D01*
X120163721Y-101595004D01*
X120163720Y-101595003D01*
X120163718Y-101595003D01*
X119955853Y-101554940D01*
X119955849Y-101554940D01*
X118997197Y-101554940D01*
X118997195Y-101554940D01*
X118997177Y-101554941D01*
X118839271Y-101570019D01*
X118839256Y-101570022D01*
X118636135Y-101629663D01*
X118447976Y-101726667D01*
X118281564Y-101857534D01*
X118142938Y-102017517D01*
X118142930Y-102017528D01*
X118037089Y-102200852D01*
X118037086Y-102200859D01*
X117967848Y-102400909D01*
X117967845Y-102400920D01*
X117937718Y-102610454D01*
X94446594Y-102610454D01*
X94437834Y-102555150D01*
X94446935Y-102484739D01*
X94492657Y-102430425D01*
X94560485Y-102409453D01*
X94562284Y-102409440D01*
X95528519Y-102409440D01*
X95528519Y-102409439D01*
X95501824Y-102299401D01*
X95501822Y-102299394D01*
X95413922Y-102106924D01*
X95413920Y-102106920D01*
X95291178Y-101934552D01*
X95291177Y-101934551D01*
X95138035Y-101788530D01*
X95138034Y-101788529D01*
X94960024Y-101674131D01*
X94960019Y-101674128D01*
X94763585Y-101595487D01*
X94763579Y-101595486D01*
X94555805Y-101555440D01*
X94304000Y-101555440D01*
X94304000Y-102151155D01*
X94283998Y-102219276D01*
X94230342Y-102265769D01*
X94160068Y-102275873D01*
X94158292Y-102275604D01*
X94081481Y-102263440D01*
X94018519Y-102263440D01*
X93941708Y-102275604D01*
X93871297Y-102266503D01*
X93816984Y-102220780D01*
X93796013Y-102152952D01*
X93796000Y-102151155D01*
X93796000Y-101555440D01*
X93597221Y-101555440D01*
X93597199Y-101555441D01*
X93439366Y-101570512D01*
X93439351Y-101570515D01*
X93236322Y-101630129D01*
X93048245Y-101727090D01*
X92881914Y-101857895D01*
X92881908Y-101857900D01*
X92743343Y-102017814D01*
X92743342Y-102017815D01*
X92637545Y-102201062D01*
X92637541Y-102201071D01*
X92568337Y-102401024D01*
X92568335Y-102401030D01*
X92567126Y-102409440D01*
X44283489Y-102409440D01*
X44273697Y-102297519D01*
X44219013Y-102093433D01*
X44129720Y-101901944D01*
X44129719Y-101901943D01*
X44129718Y-101901940D01*
X44008538Y-101728877D01*
X44008535Y-101728873D01*
X44008532Y-101728869D01*
X43859131Y-101579468D01*
X43846345Y-101570515D01*
X43751836Y-101504339D01*
X43735012Y-101490222D01*
X43296486Y-101051697D01*
X43262461Y-100989384D01*
X43267525Y-100918569D01*
X43310072Y-100861733D01*
X43330908Y-100849081D01*
X43333509Y-100847829D01*
X43431844Y-100756587D01*
X43455139Y-100716237D01*
X43506521Y-100667245D01*
X43576234Y-100653808D01*
X43642145Y-100680195D01*
X43653354Y-100690143D01*
X44094579Y-101131369D01*
X44094580Y-101131369D01*
X44129285Y-101081806D01*
X44129286Y-101081805D01*
X44218540Y-100890398D01*
X44218542Y-100890393D01*
X44273203Y-100686392D01*
X44291610Y-100476000D01*
X44273203Y-100265607D01*
X44220913Y-100070454D01*
X92537718Y-100070454D01*
X92547790Y-100281903D01*
X92547792Y-100281916D01*
X92597700Y-100487638D01*
X92597702Y-100487644D01*
X92685644Y-100680211D01*
X92685648Y-100680218D01*
X92808435Y-100852648D01*
X92808439Y-100852653D01*
X92808441Y-100852655D01*
X92961654Y-100998743D01*
X93139746Y-101113196D01*
X93336279Y-101191876D01*
X93544151Y-101231940D01*
X93544155Y-101231940D01*
X94502801Y-101231940D01*
X94502803Y-101231940D01*
X94660739Y-101216859D01*
X94863862Y-101157217D01*
X95052026Y-101060211D01*
X95218432Y-100929348D01*
X95256046Y-100885940D01*
X95325408Y-100805892D01*
X95357065Y-100769358D01*
X95462913Y-100586022D01*
X95532153Y-100385967D01*
X95562281Y-100176424D01*
X95558839Y-100104171D01*
X95557233Y-100070454D01*
X117937718Y-100070454D01*
X117947790Y-100281903D01*
X117947792Y-100281916D01*
X117997700Y-100487638D01*
X117997702Y-100487644D01*
X118085644Y-100680211D01*
X118085648Y-100680218D01*
X118208435Y-100852648D01*
X118208439Y-100852653D01*
X118208441Y-100852655D01*
X118361654Y-100998743D01*
X118539746Y-101113196D01*
X118736279Y-101191876D01*
X118944151Y-101231940D01*
X118944155Y-101231940D01*
X119902801Y-101231940D01*
X119902803Y-101231940D01*
X120060739Y-101216859D01*
X120263862Y-101157217D01*
X120452026Y-101060211D01*
X120618432Y-100929348D01*
X120656046Y-100885940D01*
X120725408Y-100805892D01*
X120757065Y-100769358D01*
X120862913Y-100586022D01*
X120932153Y-100385967D01*
X120962281Y-100176424D01*
X120958839Y-100104171D01*
X120952209Y-99964976D01*
X120952208Y-99964971D01*
X120952208Y-99964966D01*
X120902298Y-99759236D01*
X120814356Y-99566669D01*
X120814353Y-99566665D01*
X120814351Y-99566661D01*
X120691564Y-99394231D01*
X120691555Y-99394221D01*
X120632022Y-99337457D01*
X120538346Y-99248137D01*
X120360254Y-99133684D01*
X120163721Y-99055004D01*
X120163720Y-99055003D01*
X120163718Y-99055003D01*
X119955853Y-99014940D01*
X119955849Y-99014940D01*
X118997197Y-99014940D01*
X118997195Y-99014940D01*
X118997177Y-99014941D01*
X118839271Y-99030019D01*
X118839256Y-99030022D01*
X118636135Y-99089663D01*
X118447976Y-99186667D01*
X118281564Y-99317534D01*
X118142938Y-99477517D01*
X118142930Y-99477528D01*
X118037089Y-99660852D01*
X118037086Y-99660859D01*
X117967848Y-99860909D01*
X117967845Y-99860920D01*
X117937718Y-100070454D01*
X95557233Y-100070454D01*
X95552209Y-99964976D01*
X95552208Y-99964971D01*
X95552208Y-99964966D01*
X95502298Y-99759236D01*
X95414356Y-99566669D01*
X95414353Y-99566665D01*
X95414351Y-99566661D01*
X95291564Y-99394231D01*
X95291555Y-99394221D01*
X95232022Y-99337457D01*
X95138346Y-99248137D01*
X94960254Y-99133684D01*
X94763721Y-99055004D01*
X94763720Y-99055003D01*
X94763718Y-99055003D01*
X94555853Y-99014940D01*
X94555849Y-99014940D01*
X93597197Y-99014940D01*
X93597195Y-99014940D01*
X93597177Y-99014941D01*
X93439271Y-99030019D01*
X93439256Y-99030022D01*
X93236135Y-99089663D01*
X93047976Y-99186667D01*
X92881564Y-99317534D01*
X92742938Y-99477517D01*
X92742930Y-99477528D01*
X92637089Y-99660852D01*
X92637086Y-99660859D01*
X92567848Y-99860909D01*
X92567845Y-99860920D01*
X92537718Y-100070454D01*
X44220913Y-100070454D01*
X44218542Y-100061606D01*
X44218540Y-100061601D01*
X44129285Y-99870194D01*
X44094579Y-99820628D01*
X43655719Y-100259489D01*
X43593407Y-100293515D01*
X43522592Y-100288450D01*
X43468114Y-100248955D01*
X43410271Y-100176424D01*
X43386095Y-100146108D01*
X43312306Y-100095799D01*
X43267290Y-100040898D01*
X43259101Y-99970375D01*
X43290340Y-99906621D01*
X43294190Y-99902597D01*
X43735369Y-99461419D01*
X43735369Y-99461417D01*
X43685809Y-99426715D01*
X43494398Y-99337459D01*
X43494393Y-99337457D01*
X43290392Y-99282796D01*
X43080000Y-99264389D01*
X42869607Y-99282796D01*
X42665606Y-99337457D01*
X42665601Y-99337459D01*
X42474193Y-99426714D01*
X42450377Y-99443390D01*
X42383102Y-99466076D01*
X42314242Y-99448789D01*
X42265659Y-99397018D01*
X42252589Y-99351162D01*
X42243697Y-99249519D01*
X42189013Y-99045433D01*
X42099720Y-98853944D01*
X42099719Y-98853943D01*
X42099718Y-98853940D01*
X41978538Y-98680877D01*
X41978535Y-98680873D01*
X41978532Y-98680869D01*
X41829131Y-98531468D01*
X41829127Y-98531465D01*
X41829122Y-98531461D01*
X41656059Y-98410281D01*
X41464569Y-98320988D01*
X41464565Y-98320986D01*
X41260484Y-98266303D01*
X41074140Y-98250000D01*
X51086496Y-98250000D01*
X51106457Y-98439927D01*
X51132544Y-98520211D01*
X51165473Y-98621556D01*
X51165476Y-98621561D01*
X51260958Y-98786941D01*
X51260965Y-98786951D01*
X51388744Y-98928864D01*
X51388747Y-98928866D01*
X51543248Y-99041118D01*
X51717712Y-99118794D01*
X51904513Y-99158500D01*
X52095487Y-99158500D01*
X52282288Y-99118794D01*
X52456752Y-99041118D01*
X52611253Y-98928866D01*
X52739040Y-98786944D01*
X52834527Y-98621556D01*
X52893542Y-98439928D01*
X52913504Y-98250000D01*
X55086496Y-98250000D01*
X55106457Y-98439927D01*
X55132544Y-98520211D01*
X55165473Y-98621556D01*
X55165476Y-98621561D01*
X55260958Y-98786941D01*
X55260965Y-98786951D01*
X55388744Y-98928864D01*
X55388747Y-98928866D01*
X55543248Y-99041118D01*
X55717712Y-99118794D01*
X55904513Y-99158500D01*
X56095487Y-99158500D01*
X56282288Y-99118794D01*
X56456752Y-99041118D01*
X56611253Y-98928866D01*
X56739040Y-98786944D01*
X56834527Y-98621556D01*
X56893542Y-98439928D01*
X56913504Y-98250000D01*
X56893542Y-98060072D01*
X56874023Y-98000000D01*
X86586496Y-98000000D01*
X86606457Y-98189927D01*
X86631274Y-98266303D01*
X86665473Y-98371556D01*
X86665476Y-98371561D01*
X86760958Y-98536941D01*
X86760965Y-98536951D01*
X86888744Y-98678864D01*
X86888747Y-98678866D01*
X87043248Y-98791118D01*
X87217712Y-98868794D01*
X87404513Y-98908500D01*
X87595487Y-98908500D01*
X87782288Y-98868794D01*
X87956752Y-98791118D01*
X88111253Y-98678866D01*
X88206399Y-98573196D01*
X88239034Y-98536951D01*
X88239035Y-98536949D01*
X88239040Y-98536944D01*
X88334527Y-98371556D01*
X88393542Y-98189928D01*
X88413504Y-98000000D01*
X88393542Y-97810072D01*
X88334527Y-97628444D01*
X88277952Y-97530454D01*
X92537718Y-97530454D01*
X92547790Y-97741903D01*
X92547792Y-97741916D01*
X92597700Y-97947638D01*
X92597702Y-97947644D01*
X92685644Y-98140211D01*
X92685648Y-98140218D01*
X92808435Y-98312648D01*
X92808439Y-98312653D01*
X92808441Y-98312655D01*
X92961654Y-98458743D01*
X93139746Y-98573196D01*
X93336279Y-98651876D01*
X93544151Y-98691940D01*
X93544155Y-98691940D01*
X94502801Y-98691940D01*
X94502803Y-98691940D01*
X94660739Y-98676859D01*
X94863862Y-98617217D01*
X95052026Y-98520211D01*
X95218432Y-98389348D01*
X95357065Y-98229358D01*
X95462913Y-98046022D01*
X95532153Y-97845967D01*
X95562281Y-97636424D01*
X95557233Y-97530454D01*
X117937718Y-97530454D01*
X117947790Y-97741903D01*
X117947792Y-97741916D01*
X117997700Y-97947638D01*
X117997702Y-97947644D01*
X118085644Y-98140211D01*
X118085648Y-98140218D01*
X118208435Y-98312648D01*
X118208439Y-98312653D01*
X118208441Y-98312655D01*
X118361654Y-98458743D01*
X118539746Y-98573196D01*
X118736279Y-98651876D01*
X118944151Y-98691940D01*
X118944155Y-98691940D01*
X119902801Y-98691940D01*
X119902803Y-98691940D01*
X120060739Y-98676859D01*
X120263862Y-98617217D01*
X120452026Y-98520211D01*
X120618432Y-98389348D01*
X120757065Y-98229358D01*
X120862913Y-98046022D01*
X120932153Y-97845967D01*
X120962281Y-97636424D01*
X120954023Y-97463058D01*
X120952209Y-97424976D01*
X120952208Y-97424971D01*
X120952208Y-97424966D01*
X120902298Y-97219236D01*
X120814356Y-97026669D01*
X120814353Y-97026665D01*
X120814351Y-97026661D01*
X120691564Y-96854231D01*
X120691555Y-96854221D01*
X120664321Y-96828254D01*
X120538346Y-96708137D01*
X120360254Y-96593684D01*
X120163721Y-96515004D01*
X120163720Y-96515003D01*
X120163718Y-96515003D01*
X119955853Y-96474940D01*
X119955849Y-96474940D01*
X118997197Y-96474940D01*
X118997195Y-96474940D01*
X118997177Y-96474941D01*
X118839271Y-96490019D01*
X118839256Y-96490022D01*
X118636135Y-96549663D01*
X118447976Y-96646667D01*
X118281564Y-96777534D01*
X118142938Y-96937517D01*
X118142930Y-96937528D01*
X118037089Y-97120852D01*
X118037086Y-97120859D01*
X117967848Y-97320909D01*
X117967845Y-97320920D01*
X117937718Y-97530454D01*
X95557233Y-97530454D01*
X95554023Y-97463058D01*
X95552209Y-97424976D01*
X95552208Y-97424971D01*
X95552208Y-97424966D01*
X95502298Y-97219236D01*
X95414356Y-97026669D01*
X95414353Y-97026665D01*
X95414351Y-97026661D01*
X95291564Y-96854231D01*
X95291555Y-96854221D01*
X95264321Y-96828254D01*
X95138346Y-96708137D01*
X94960254Y-96593684D01*
X94763721Y-96515004D01*
X94763720Y-96515003D01*
X94763718Y-96515003D01*
X94555853Y-96474940D01*
X94555849Y-96474940D01*
X93597197Y-96474940D01*
X93597195Y-96474940D01*
X93597177Y-96474941D01*
X93439271Y-96490019D01*
X93439256Y-96490022D01*
X93236135Y-96549663D01*
X93047976Y-96646667D01*
X92881564Y-96777534D01*
X92742938Y-96937517D01*
X92742930Y-96937528D01*
X92637089Y-97120852D01*
X92637086Y-97120859D01*
X92567848Y-97320909D01*
X92567845Y-97320920D01*
X92537718Y-97530454D01*
X88277952Y-97530454D01*
X88239040Y-97463056D01*
X88239038Y-97463054D01*
X88239034Y-97463048D01*
X88111255Y-97321135D01*
X87956752Y-97208882D01*
X87782288Y-97131206D01*
X87595487Y-97091500D01*
X87404513Y-97091500D01*
X87217711Y-97131206D01*
X87043247Y-97208882D01*
X86888744Y-97321135D01*
X86760965Y-97463048D01*
X86760958Y-97463058D01*
X86665476Y-97628438D01*
X86665473Y-97628445D01*
X86606457Y-97810072D01*
X86586496Y-98000000D01*
X56874023Y-98000000D01*
X56834527Y-97878444D01*
X56739040Y-97713056D01*
X56739038Y-97713054D01*
X56739034Y-97713048D01*
X56611255Y-97571135D01*
X56456752Y-97458882D01*
X56282288Y-97381206D01*
X56095487Y-97341500D01*
X55904513Y-97341500D01*
X55717711Y-97381206D01*
X55543247Y-97458882D01*
X55388744Y-97571135D01*
X55260965Y-97713048D01*
X55260958Y-97713058D01*
X55165476Y-97878438D01*
X55165473Y-97878445D01*
X55106457Y-98060072D01*
X55086496Y-98250000D01*
X52913504Y-98250000D01*
X52893542Y-98060072D01*
X52834527Y-97878444D01*
X52739040Y-97713056D01*
X52739038Y-97713054D01*
X52739034Y-97713048D01*
X52611255Y-97571135D01*
X52456752Y-97458882D01*
X52282288Y-97381206D01*
X52095487Y-97341500D01*
X51904513Y-97341500D01*
X51717711Y-97381206D01*
X51543247Y-97458882D01*
X51388744Y-97571135D01*
X51260965Y-97713048D01*
X51260958Y-97713058D01*
X51165476Y-97878438D01*
X51165473Y-97878445D01*
X51106457Y-98060072D01*
X51086496Y-98250000D01*
X41074140Y-98250000D01*
X41050000Y-98247888D01*
X40839515Y-98266303D01*
X40635434Y-98320986D01*
X40635430Y-98320988D01*
X40443940Y-98410281D01*
X40270877Y-98531461D01*
X40270866Y-98531470D01*
X40121470Y-98680866D01*
X40121461Y-98680877D01*
X40000281Y-98853940D01*
X39910988Y-99045430D01*
X39910986Y-99045434D01*
X39856303Y-99249515D01*
X39837888Y-99460000D01*
X39856303Y-99670484D01*
X39910986Y-99874565D01*
X39910988Y-99874569D01*
X40000281Y-100066059D01*
X40121461Y-100239122D01*
X40121470Y-100239133D01*
X40268241Y-100385904D01*
X40302267Y-100448216D01*
X40297202Y-100519031D01*
X40268242Y-100564094D01*
X40119465Y-100712872D01*
X40119461Y-100712877D01*
X39998281Y-100885940D01*
X39908988Y-101077430D01*
X39908986Y-101077434D01*
X39854303Y-101281515D01*
X39835888Y-101491999D01*
X30025500Y-101491999D01*
X30025500Y-97237500D01*
X36019454Y-97237500D01*
X36039613Y-97519364D01*
X36099678Y-97795477D01*
X36099680Y-97795484D01*
X36130623Y-97878445D01*
X36198431Y-98060248D01*
X36198433Y-98060252D01*
X36290775Y-98229362D01*
X36333859Y-98308264D01*
X36343383Y-98320986D01*
X36503200Y-98534479D01*
X36503208Y-98534488D01*
X36703011Y-98734291D01*
X36703020Y-98734299D01*
X36773342Y-98786941D01*
X36929236Y-98903641D01*
X36929238Y-98903642D01*
X37160684Y-99030022D01*
X37177251Y-99039068D01*
X37442016Y-99137820D01*
X37718139Y-99197887D01*
X37929447Y-99213000D01*
X37929453Y-99213000D01*
X38070547Y-99213000D01*
X38070553Y-99213000D01*
X38281861Y-99197887D01*
X38557984Y-99137820D01*
X38822749Y-99039068D01*
X39070764Y-98903641D01*
X39296982Y-98734297D01*
X39496797Y-98534482D01*
X39666141Y-98308264D01*
X39801568Y-98060249D01*
X39900320Y-97795484D01*
X39960387Y-97519361D01*
X39980546Y-97237500D01*
X39960387Y-96955639D01*
X39900320Y-96679516D01*
X39801568Y-96414751D01*
X39666141Y-96166736D01*
X39566174Y-96033195D01*
X39496799Y-95940520D01*
X39496791Y-95940511D01*
X39296988Y-95740708D01*
X39296979Y-95740700D01*
X39070761Y-95571357D01*
X38822752Y-95435933D01*
X38822748Y-95435931D01*
X38688634Y-95385909D01*
X38557984Y-95337180D01*
X38557980Y-95337179D01*
X38557977Y-95337178D01*
X38281863Y-95277113D01*
X38281864Y-95277113D01*
X38211424Y-95272075D01*
X38070553Y-95262000D01*
X37929447Y-95262000D01*
X37802662Y-95271067D01*
X37718135Y-95277113D01*
X37442022Y-95337178D01*
X37442017Y-95337179D01*
X37442016Y-95337180D01*
X37391141Y-95356155D01*
X37177251Y-95435931D01*
X37177247Y-95435933D01*
X36929238Y-95571357D01*
X36703020Y-95740700D01*
X36703011Y-95740708D01*
X36503208Y-95940511D01*
X36503200Y-95940520D01*
X36333857Y-96166738D01*
X36198433Y-96414747D01*
X36198431Y-96414751D01*
X36099678Y-96679522D01*
X36039613Y-96955635D01*
X36019454Y-97237500D01*
X30025500Y-97237500D01*
X30025500Y-94990454D01*
X92537718Y-94990454D01*
X92547790Y-95201903D01*
X92547792Y-95201916D01*
X92597700Y-95407638D01*
X92597702Y-95407644D01*
X92685644Y-95600211D01*
X92685648Y-95600218D01*
X92808435Y-95772648D01*
X92808439Y-95772653D01*
X92808441Y-95772655D01*
X92961654Y-95918743D01*
X93139746Y-96033196D01*
X93336279Y-96111876D01*
X93544151Y-96151940D01*
X93544155Y-96151940D01*
X94502801Y-96151940D01*
X94502803Y-96151940D01*
X94660739Y-96136859D01*
X94863862Y-96077217D01*
X95052026Y-95980211D01*
X95218432Y-95849348D01*
X95357065Y-95689358D01*
X95462913Y-95506022D01*
X95532153Y-95305967D01*
X95562281Y-95096424D01*
X95557233Y-94990454D01*
X117937718Y-94990454D01*
X117947790Y-95201903D01*
X117947792Y-95201916D01*
X117997700Y-95407638D01*
X117997702Y-95407644D01*
X118085644Y-95600211D01*
X118085648Y-95600218D01*
X118208435Y-95772648D01*
X118208439Y-95772653D01*
X118208441Y-95772655D01*
X118361654Y-95918743D01*
X118539746Y-96033196D01*
X118736279Y-96111876D01*
X118944151Y-96151940D01*
X118944155Y-96151940D01*
X119902801Y-96151940D01*
X119902803Y-96151940D01*
X120060739Y-96136859D01*
X120263862Y-96077217D01*
X120452026Y-95980211D01*
X120618432Y-95849348D01*
X120757065Y-95689358D01*
X120862913Y-95506022D01*
X120932153Y-95305967D01*
X120962281Y-95096424D01*
X120957233Y-94990454D01*
X120952209Y-94884976D01*
X120952208Y-94884971D01*
X120952208Y-94884966D01*
X120902298Y-94679236D01*
X120814356Y-94486669D01*
X120814353Y-94486665D01*
X120814351Y-94486661D01*
X120691564Y-94314231D01*
X120691555Y-94314221D01*
X120633946Y-94259291D01*
X120538346Y-94168137D01*
X120360254Y-94053684D01*
X120163721Y-93975004D01*
X120163720Y-93975003D01*
X120163718Y-93975003D01*
X119955853Y-93934940D01*
X119955849Y-93934940D01*
X118997197Y-93934940D01*
X118997195Y-93934940D01*
X118997177Y-93934941D01*
X118839271Y-93950019D01*
X118839256Y-93950022D01*
X118636135Y-94009663D01*
X118447976Y-94106667D01*
X118281564Y-94237534D01*
X118142938Y-94397517D01*
X118142930Y-94397528D01*
X118037089Y-94580852D01*
X118037086Y-94580859D01*
X117967848Y-94780909D01*
X117967845Y-94780920D01*
X117937718Y-94990454D01*
X95557233Y-94990454D01*
X95552209Y-94884976D01*
X95552208Y-94884971D01*
X95552208Y-94884966D01*
X95502298Y-94679236D01*
X95414356Y-94486669D01*
X95414353Y-94486665D01*
X95414351Y-94486661D01*
X95291564Y-94314231D01*
X95291555Y-94314221D01*
X95233946Y-94259291D01*
X95138346Y-94168137D01*
X94960254Y-94053684D01*
X94763721Y-93975004D01*
X94763720Y-93975003D01*
X94763718Y-93975003D01*
X94555853Y-93934940D01*
X94555849Y-93934940D01*
X93597197Y-93934940D01*
X93597195Y-93934940D01*
X93597177Y-93934941D01*
X93439271Y-93950019D01*
X93439256Y-93950022D01*
X93236135Y-94009663D01*
X93047976Y-94106667D01*
X92881564Y-94237534D01*
X92742938Y-94397517D01*
X92742930Y-94397528D01*
X92637089Y-94580852D01*
X92637086Y-94580859D01*
X92567848Y-94780909D01*
X92567845Y-94780920D01*
X92537718Y-94990454D01*
X30025500Y-94990454D01*
X30025500Y-92762499D01*
X36019454Y-92762499D01*
X36039613Y-93044364D01*
X36099678Y-93320477D01*
X36099680Y-93320484D01*
X36121410Y-93378744D01*
X36198431Y-93585248D01*
X36198433Y-93585252D01*
X36333857Y-93833261D01*
X36503200Y-94059479D01*
X36503208Y-94059488D01*
X36703011Y-94259291D01*
X36703020Y-94259299D01*
X36816768Y-94344448D01*
X36929236Y-94428641D01*
X37177251Y-94564068D01*
X37442016Y-94662820D01*
X37718139Y-94722887D01*
X37929447Y-94738000D01*
X37929453Y-94738000D01*
X38070547Y-94738000D01*
X38070553Y-94738000D01*
X38281861Y-94722887D01*
X38557984Y-94662820D01*
X38822749Y-94564068D01*
X39070764Y-94428641D01*
X39296982Y-94259297D01*
X39496797Y-94059482D01*
X39666141Y-93833264D01*
X39801568Y-93585249D01*
X39900320Y-93320484D01*
X39960387Y-93044361D01*
X39980546Y-92762500D01*
X39960387Y-92480639D01*
X39953821Y-92450454D01*
X92537718Y-92450454D01*
X92547790Y-92661903D01*
X92547792Y-92661916D01*
X92597700Y-92867638D01*
X92597702Y-92867644D01*
X92685644Y-93060211D01*
X92685648Y-93060218D01*
X92808435Y-93232648D01*
X92808439Y-93232653D01*
X92808441Y-93232655D01*
X92961654Y-93378743D01*
X93139746Y-93493196D01*
X93336279Y-93571876D01*
X93544151Y-93611940D01*
X93544155Y-93611940D01*
X94502801Y-93611940D01*
X94502803Y-93611940D01*
X94660739Y-93596859D01*
X94863862Y-93537217D01*
X95052026Y-93440211D01*
X95218432Y-93309348D01*
X95357065Y-93149358D01*
X95462913Y-92966022D01*
X95532153Y-92765967D01*
X95562281Y-92556424D01*
X95557233Y-92450454D01*
X117937718Y-92450454D01*
X117947790Y-92661903D01*
X117947792Y-92661916D01*
X117997700Y-92867638D01*
X117997702Y-92867644D01*
X118085644Y-93060211D01*
X118085648Y-93060218D01*
X118208435Y-93232648D01*
X118208439Y-93232653D01*
X118208441Y-93232655D01*
X118361654Y-93378743D01*
X118539746Y-93493196D01*
X118736279Y-93571876D01*
X118944151Y-93611940D01*
X118944155Y-93611940D01*
X119902801Y-93611940D01*
X119902803Y-93611940D01*
X120060739Y-93596859D01*
X120263862Y-93537217D01*
X120452026Y-93440211D01*
X120618432Y-93309348D01*
X120757065Y-93149358D01*
X120862913Y-92966022D01*
X120932153Y-92765967D01*
X120962281Y-92556424D01*
X120957233Y-92450454D01*
X120952209Y-92344976D01*
X120952208Y-92344971D01*
X120952208Y-92344966D01*
X120902298Y-92139236D01*
X120814356Y-91946669D01*
X120814353Y-91946665D01*
X120814351Y-91946661D01*
X120691564Y-91774231D01*
X120691555Y-91774221D01*
X120656701Y-91740988D01*
X120538346Y-91628137D01*
X120360254Y-91513684D01*
X120163721Y-91435004D01*
X120163720Y-91435003D01*
X120163718Y-91435003D01*
X119955853Y-91394940D01*
X119955849Y-91394940D01*
X118997197Y-91394940D01*
X118997195Y-91394940D01*
X118997177Y-91394941D01*
X118839271Y-91410019D01*
X118839256Y-91410022D01*
X118636135Y-91469663D01*
X118447976Y-91566667D01*
X118281564Y-91697534D01*
X118142938Y-91857517D01*
X118142930Y-91857528D01*
X118037089Y-92040852D01*
X118037086Y-92040859D01*
X117967848Y-92240909D01*
X117967845Y-92240920D01*
X117937718Y-92450454D01*
X95557233Y-92450454D01*
X95552209Y-92344976D01*
X95552208Y-92344971D01*
X95552208Y-92344966D01*
X95502298Y-92139236D01*
X95414356Y-91946669D01*
X95414353Y-91946665D01*
X95414351Y-91946661D01*
X95291564Y-91774231D01*
X95291555Y-91774221D01*
X95256701Y-91740988D01*
X95138346Y-91628137D01*
X94960254Y-91513684D01*
X94763721Y-91435004D01*
X94763720Y-91435003D01*
X94763718Y-91435003D01*
X94555853Y-91394940D01*
X94555849Y-91394940D01*
X93597197Y-91394940D01*
X93597195Y-91394940D01*
X93597177Y-91394941D01*
X93439271Y-91410019D01*
X93439256Y-91410022D01*
X93236135Y-91469663D01*
X93047976Y-91566667D01*
X92881564Y-91697534D01*
X92742938Y-91857517D01*
X92742930Y-91857528D01*
X92637089Y-92040852D01*
X92637086Y-92040859D01*
X92567848Y-92240909D01*
X92567845Y-92240920D01*
X92537718Y-92450454D01*
X39953821Y-92450454D01*
X39900320Y-92204516D01*
X39801568Y-91939751D01*
X39666141Y-91691736D01*
X39572516Y-91566667D01*
X39496799Y-91465520D01*
X39496791Y-91465511D01*
X39296988Y-91265708D01*
X39296979Y-91265700D01*
X39070761Y-91096357D01*
X38822752Y-90960933D01*
X38822748Y-90960931D01*
X38659949Y-90900211D01*
X38557984Y-90862180D01*
X38557980Y-90862179D01*
X38557977Y-90862178D01*
X38281863Y-90802113D01*
X38281864Y-90802113D01*
X38211424Y-90797075D01*
X38070553Y-90787000D01*
X37929447Y-90787000D01*
X37802662Y-90796067D01*
X37718135Y-90802113D01*
X37442022Y-90862178D01*
X37442017Y-90862179D01*
X37442016Y-90862180D01*
X37391141Y-90881155D01*
X37177251Y-90960931D01*
X37177247Y-90960933D01*
X36929238Y-91096357D01*
X36703020Y-91265700D01*
X36703011Y-91265708D01*
X36503208Y-91465511D01*
X36503200Y-91465520D01*
X36333857Y-91691738D01*
X36198433Y-91939747D01*
X36198431Y-91939751D01*
X36099678Y-92204522D01*
X36039613Y-92480635D01*
X36019454Y-92762499D01*
X30025500Y-92762499D01*
X30025500Y-87491999D01*
X39835888Y-87491999D01*
X39854303Y-87702484D01*
X39908986Y-87906565D01*
X39908988Y-87906569D01*
X39998281Y-88098059D01*
X40119461Y-88271122D01*
X40119465Y-88271127D01*
X40119468Y-88271131D01*
X40268869Y-88420532D01*
X40382837Y-88500333D01*
X40399655Y-88514445D01*
X40833513Y-88948302D01*
X40867538Y-89010615D01*
X40862474Y-89081430D01*
X40819927Y-89138266D01*
X40799092Y-89150918D01*
X40796494Y-89152169D01*
X40796488Y-89152173D01*
X40698158Y-89243410D01*
X40698155Y-89243413D01*
X40674859Y-89283763D01*
X40623476Y-89332755D01*
X40553762Y-89346190D01*
X40487851Y-89319802D01*
X40476645Y-89309856D01*
X40035418Y-88868628D01*
X40000717Y-88918188D01*
X39911459Y-89109602D01*
X39911457Y-89109606D01*
X39856796Y-89313607D01*
X39838389Y-89524000D01*
X39856796Y-89734392D01*
X39911457Y-89938393D01*
X39911459Y-89938398D01*
X40000715Y-90129809D01*
X40035417Y-90179369D01*
X40035419Y-90179369D01*
X40474278Y-89740509D01*
X40536591Y-89706484D01*
X40607406Y-89711548D01*
X40661884Y-89751043D01*
X40694826Y-89792350D01*
X40743905Y-89853892D01*
X40817692Y-89904199D01*
X40862708Y-89959099D01*
X40870897Y-90029622D01*
X40839658Y-90093377D01*
X40835808Y-90097400D01*
X40394629Y-90538578D01*
X40394629Y-90538579D01*
X40444198Y-90573288D01*
X40635601Y-90662540D01*
X40635606Y-90662542D01*
X40839607Y-90717203D01*
X41049999Y-90735610D01*
X41260392Y-90717203D01*
X41464393Y-90662542D01*
X41464398Y-90662540D01*
X41655808Y-90573284D01*
X41674226Y-90560388D01*
X41741499Y-90537698D01*
X41810360Y-90554981D01*
X41858945Y-90606750D01*
X41872499Y-90663599D01*
X41872499Y-91287632D01*
X41872500Y-91287649D01*
X41879009Y-91348196D01*
X41879011Y-91348204D01*
X41930110Y-91485202D01*
X41930112Y-91485207D01*
X42017738Y-91602261D01*
X42134792Y-91689887D01*
X42134794Y-91689888D01*
X42134796Y-91689889D01*
X42155293Y-91697534D01*
X42271795Y-91740988D01*
X42271803Y-91740990D01*
X42332350Y-91747499D01*
X42332355Y-91747499D01*
X42332362Y-91747500D01*
X42332368Y-91747500D01*
X43827632Y-91747500D01*
X43827638Y-91747500D01*
X43827645Y-91747499D01*
X43827649Y-91747499D01*
X43888196Y-91740990D01*
X43888199Y-91740989D01*
X43888201Y-91740989D01*
X44025204Y-91689889D01*
X44107698Y-91628135D01*
X44142261Y-91602261D01*
X44229887Y-91485207D01*
X44229887Y-91485206D01*
X44229889Y-91485204D01*
X44280989Y-91348201D01*
X44287500Y-91287638D01*
X44287500Y-89910454D01*
X92537718Y-89910454D01*
X92547790Y-90121903D01*
X92547792Y-90121916D01*
X92597700Y-90327638D01*
X92597702Y-90327644D01*
X92685644Y-90520211D01*
X92685648Y-90520218D01*
X92808435Y-90692648D01*
X92808439Y-90692653D01*
X92808441Y-90692655D01*
X92961654Y-90838743D01*
X93139746Y-90953196D01*
X93336279Y-91031876D01*
X93544151Y-91071940D01*
X93544155Y-91071940D01*
X94502801Y-91071940D01*
X94502803Y-91071940D01*
X94660739Y-91056859D01*
X94863862Y-90997217D01*
X95052026Y-90900211D01*
X95218432Y-90769348D01*
X95247667Y-90735610D01*
X95284893Y-90692648D01*
X95357065Y-90609358D01*
X95462913Y-90426022D01*
X95532153Y-90225967D01*
X95551217Y-90093377D01*
X95562281Y-90016425D01*
X95557233Y-89910454D01*
X117937718Y-89910454D01*
X117947790Y-90121903D01*
X117947792Y-90121916D01*
X117997700Y-90327638D01*
X117997702Y-90327644D01*
X118085644Y-90520211D01*
X118085648Y-90520218D01*
X118208435Y-90692648D01*
X118208439Y-90692653D01*
X118208441Y-90692655D01*
X118361654Y-90838743D01*
X118539746Y-90953196D01*
X118736279Y-91031876D01*
X118944151Y-91071940D01*
X118944155Y-91071940D01*
X119902801Y-91071940D01*
X119902803Y-91071940D01*
X120060739Y-91056859D01*
X120263862Y-90997217D01*
X120452026Y-90900211D01*
X120618432Y-90769348D01*
X120647667Y-90735610D01*
X120684893Y-90692648D01*
X120757065Y-90609358D01*
X120862913Y-90426022D01*
X120932153Y-90225967D01*
X120951217Y-90093377D01*
X120962281Y-90016425D01*
X120952209Y-89804976D01*
X120952208Y-89804971D01*
X120952208Y-89804966D01*
X120902298Y-89599236D01*
X120814356Y-89406669D01*
X120814353Y-89406665D01*
X120814351Y-89406661D01*
X120691564Y-89234231D01*
X120691555Y-89234221D01*
X120649485Y-89194108D01*
X120538346Y-89088137D01*
X120360254Y-88973684D01*
X120163721Y-88895004D01*
X120163720Y-88895003D01*
X120163718Y-88895003D01*
X119955853Y-88854940D01*
X119955849Y-88854940D01*
X118997197Y-88854940D01*
X118997195Y-88854940D01*
X118997177Y-88854941D01*
X118839271Y-88870019D01*
X118839256Y-88870022D01*
X118636135Y-88929663D01*
X118447976Y-89026667D01*
X118281564Y-89157534D01*
X118142938Y-89317517D01*
X118142930Y-89317528D01*
X118037089Y-89500852D01*
X118037086Y-89500859D01*
X117967848Y-89700909D01*
X117967845Y-89700920D01*
X117937718Y-89910454D01*
X95557233Y-89910454D01*
X95552209Y-89804976D01*
X95552208Y-89804971D01*
X95552208Y-89804966D01*
X95502298Y-89599236D01*
X95414356Y-89406669D01*
X95414353Y-89406665D01*
X95414351Y-89406661D01*
X95291564Y-89234231D01*
X95291555Y-89234221D01*
X95249485Y-89194108D01*
X95138346Y-89088137D01*
X94960254Y-88973684D01*
X94763721Y-88895004D01*
X94763720Y-88895003D01*
X94763718Y-88895003D01*
X94555853Y-88854940D01*
X94555849Y-88854940D01*
X93597197Y-88854940D01*
X93597195Y-88854940D01*
X93597177Y-88854941D01*
X93439271Y-88870019D01*
X93439256Y-88870022D01*
X93236135Y-88929663D01*
X93047976Y-89026667D01*
X92881564Y-89157534D01*
X92742938Y-89317517D01*
X92742930Y-89317528D01*
X92637089Y-89500852D01*
X92637086Y-89500859D01*
X92567848Y-89700909D01*
X92567845Y-89700920D01*
X92537718Y-89910454D01*
X44287500Y-89910454D01*
X44287500Y-89792362D01*
X44282840Y-89749013D01*
X44280990Y-89731803D01*
X44280988Y-89731795D01*
X44231545Y-89599236D01*
X44229889Y-89594796D01*
X44229888Y-89594794D01*
X44229887Y-89594792D01*
X44142261Y-89477738D01*
X44064673Y-89419657D01*
X44022126Y-89362821D01*
X44017061Y-89292006D01*
X44036969Y-89246518D01*
X44129720Y-89114056D01*
X44219013Y-88922567D01*
X44273697Y-88718481D01*
X44292112Y-88508000D01*
X44273697Y-88297519D01*
X44219013Y-88093433D01*
X44129720Y-87901944D01*
X44129719Y-87901943D01*
X44129718Y-87901940D01*
X44008538Y-87728877D01*
X44008535Y-87728873D01*
X44008532Y-87728869D01*
X43859131Y-87579468D01*
X43859127Y-87579465D01*
X43751836Y-87504339D01*
X43735012Y-87490222D01*
X43615244Y-87370454D01*
X92537718Y-87370454D01*
X92547790Y-87581903D01*
X92547792Y-87581916D01*
X92597700Y-87787638D01*
X92597702Y-87787644D01*
X92685644Y-87980211D01*
X92685648Y-87980218D01*
X92808435Y-88152648D01*
X92808439Y-88152653D01*
X92808441Y-88152655D01*
X92961654Y-88298743D01*
X93139746Y-88413196D01*
X93336279Y-88491876D01*
X93544151Y-88531940D01*
X93544155Y-88531940D01*
X94502801Y-88531940D01*
X94502803Y-88531940D01*
X94660739Y-88516859D01*
X94863862Y-88457217D01*
X95052026Y-88360211D01*
X95218432Y-88229348D01*
X95357065Y-88069358D01*
X95462913Y-87886022D01*
X95532153Y-87685967D01*
X95558267Y-87504339D01*
X95562281Y-87476425D01*
X95557233Y-87370454D01*
X117937718Y-87370454D01*
X117947790Y-87581903D01*
X117947792Y-87581916D01*
X117997700Y-87787638D01*
X117997702Y-87787644D01*
X118085644Y-87980211D01*
X118085648Y-87980218D01*
X118208435Y-88152648D01*
X118208439Y-88152653D01*
X118208441Y-88152655D01*
X118361654Y-88298743D01*
X118539746Y-88413196D01*
X118736279Y-88491876D01*
X118944151Y-88531940D01*
X118944155Y-88531940D01*
X119902801Y-88531940D01*
X119902803Y-88531940D01*
X120060739Y-88516859D01*
X120263862Y-88457217D01*
X120452026Y-88360211D01*
X120618432Y-88229348D01*
X120757065Y-88069358D01*
X120862913Y-87886022D01*
X120932153Y-87685967D01*
X120958267Y-87504339D01*
X120962281Y-87476425D01*
X120952209Y-87264976D01*
X120952208Y-87264971D01*
X120952208Y-87264966D01*
X120902298Y-87059236D01*
X120814356Y-86866669D01*
X120814353Y-86866665D01*
X120814351Y-86866661D01*
X120691564Y-86694231D01*
X120691555Y-86694221D01*
X120635122Y-86640413D01*
X120538346Y-86548137D01*
X120360254Y-86433684D01*
X120163721Y-86355004D01*
X120163720Y-86355003D01*
X120163718Y-86355003D01*
X119955853Y-86314940D01*
X119955849Y-86314940D01*
X118997197Y-86314940D01*
X118997195Y-86314940D01*
X118997177Y-86314941D01*
X118839271Y-86330019D01*
X118839256Y-86330022D01*
X118636135Y-86389663D01*
X118447976Y-86486667D01*
X118281564Y-86617534D01*
X118142938Y-86777517D01*
X118142930Y-86777528D01*
X118037089Y-86960852D01*
X118037086Y-86960859D01*
X117967848Y-87160909D01*
X117967845Y-87160920D01*
X117937718Y-87370454D01*
X95557233Y-87370454D01*
X95552209Y-87264976D01*
X95552208Y-87264971D01*
X95552208Y-87264966D01*
X95502298Y-87059236D01*
X95414356Y-86866669D01*
X95414353Y-86866665D01*
X95414351Y-86866661D01*
X95291564Y-86694231D01*
X95291555Y-86694221D01*
X95235122Y-86640413D01*
X95138346Y-86548137D01*
X94960254Y-86433684D01*
X94763721Y-86355004D01*
X94763720Y-86355003D01*
X94763718Y-86355003D01*
X94555853Y-86314940D01*
X94555849Y-86314940D01*
X93597197Y-86314940D01*
X93597195Y-86314940D01*
X93597177Y-86314941D01*
X93439271Y-86330019D01*
X93439256Y-86330022D01*
X93236135Y-86389663D01*
X93047976Y-86486667D01*
X92881564Y-86617534D01*
X92742938Y-86777517D01*
X92742930Y-86777528D01*
X92637089Y-86960852D01*
X92637086Y-86960859D01*
X92567848Y-87160909D01*
X92567845Y-87160920D01*
X92537718Y-87370454D01*
X43615244Y-87370454D01*
X43296486Y-87051697D01*
X43262461Y-86989384D01*
X43267525Y-86918569D01*
X43310072Y-86861733D01*
X43330908Y-86849081D01*
X43333509Y-86847829D01*
X43431844Y-86756587D01*
X43455139Y-86716237D01*
X43506521Y-86667245D01*
X43576234Y-86653808D01*
X43642145Y-86680195D01*
X43653354Y-86690143D01*
X44094579Y-87131369D01*
X44094580Y-87131369D01*
X44129285Y-87081806D01*
X44129286Y-87081805D01*
X44218540Y-86890398D01*
X44218542Y-86890393D01*
X44273203Y-86686392D01*
X44291610Y-86475999D01*
X44273203Y-86265607D01*
X44218542Y-86061606D01*
X44218540Y-86061601D01*
X44129285Y-85870194D01*
X44094579Y-85820628D01*
X43655719Y-86259489D01*
X43593407Y-86293515D01*
X43522592Y-86288450D01*
X43468114Y-86248955D01*
X43425415Y-86195413D01*
X43386095Y-86146108D01*
X43312306Y-86095799D01*
X43267290Y-86040898D01*
X43259101Y-85970375D01*
X43290340Y-85906621D01*
X43294190Y-85902597D01*
X43735369Y-85461419D01*
X43735369Y-85461417D01*
X43685809Y-85426715D01*
X43494398Y-85337459D01*
X43494393Y-85337457D01*
X43290392Y-85282796D01*
X43079999Y-85264389D01*
X42869607Y-85282796D01*
X42665606Y-85337457D01*
X42665601Y-85337459D01*
X42474193Y-85426714D01*
X42450377Y-85443390D01*
X42383102Y-85466076D01*
X42314242Y-85448789D01*
X42265659Y-85397018D01*
X42252589Y-85351162D01*
X42243697Y-85249519D01*
X42189013Y-85045433D01*
X42099720Y-84853944D01*
X42099719Y-84853943D01*
X42099718Y-84853940D01*
X42083273Y-84830454D01*
X92537718Y-84830454D01*
X92547790Y-85041903D01*
X92547792Y-85041916D01*
X92597700Y-85247638D01*
X92597702Y-85247644D01*
X92685644Y-85440211D01*
X92685648Y-85440218D01*
X92808435Y-85612648D01*
X92808439Y-85612653D01*
X92808441Y-85612655D01*
X92961654Y-85758743D01*
X93139746Y-85873196D01*
X93336279Y-85951876D01*
X93544151Y-85991940D01*
X93544155Y-85991940D01*
X94502801Y-85991940D01*
X94502803Y-85991940D01*
X94660739Y-85976859D01*
X94863862Y-85917217D01*
X95052026Y-85820211D01*
X95218432Y-85689348D01*
X95218748Y-85688984D01*
X95285171Y-85612327D01*
X95357065Y-85529358D01*
X95462913Y-85346022D01*
X95532153Y-85145967D01*
X95551905Y-85008588D01*
X95562281Y-84936425D01*
X95552209Y-84724976D01*
X95552208Y-84724971D01*
X95552208Y-84724966D01*
X95529033Y-84629440D01*
X117967126Y-84629440D01*
X118937716Y-84629440D01*
X119005837Y-84649442D01*
X119052330Y-84703098D01*
X119062434Y-84773372D01*
X119062165Y-84775150D01*
X119045014Y-84883440D01*
X119062165Y-84991730D01*
X119053065Y-85062141D01*
X119007343Y-85116455D01*
X118939515Y-85137427D01*
X118937716Y-85137440D01*
X117971480Y-85137440D01*
X117998175Y-85247478D01*
X117998177Y-85247485D01*
X118086077Y-85439955D01*
X118086079Y-85439959D01*
X118208821Y-85612327D01*
X118208822Y-85612328D01*
X118361964Y-85758349D01*
X118361965Y-85758350D01*
X118539975Y-85872748D01*
X118539980Y-85872751D01*
X118736414Y-85951392D01*
X118736420Y-85951393D01*
X118944194Y-85991439D01*
X118944203Y-85991440D01*
X119196000Y-85991440D01*
X119195999Y-85395724D01*
X119216001Y-85327603D01*
X119269657Y-85281110D01*
X119339930Y-85271006D01*
X119341708Y-85271275D01*
X119394257Y-85279597D01*
X119418519Y-85283440D01*
X119418520Y-85283440D01*
X119481479Y-85283440D01*
X119481481Y-85283440D01*
X119558290Y-85271275D01*
X119628701Y-85280375D01*
X119683015Y-85326097D01*
X119703987Y-85393926D01*
X119704000Y-85395724D01*
X119704000Y-85991440D01*
X119902779Y-85991440D01*
X119902800Y-85991438D01*
X120060633Y-85976367D01*
X120060648Y-85976364D01*
X120263677Y-85916750D01*
X120451754Y-85819789D01*
X120618085Y-85688984D01*
X120618091Y-85688979D01*
X120756656Y-85529065D01*
X120756657Y-85529064D01*
X120862454Y-85345817D01*
X120862458Y-85345808D01*
X120931662Y-85145855D01*
X120931664Y-85145849D01*
X120932873Y-85137440D01*
X119962284Y-85137440D01*
X119894163Y-85117438D01*
X119847670Y-85063782D01*
X119837566Y-84993508D01*
X119837835Y-84991730D01*
X119851786Y-84903642D01*
X119854986Y-84883440D01*
X119837834Y-84775150D01*
X119846935Y-84704739D01*
X119892657Y-84650425D01*
X119960485Y-84629453D01*
X119962284Y-84629440D01*
X120928519Y-84629440D01*
X120928519Y-84629439D01*
X120901824Y-84519401D01*
X120901822Y-84519394D01*
X120813922Y-84326924D01*
X120813920Y-84326920D01*
X120691178Y-84154552D01*
X120691177Y-84154551D01*
X120538035Y-84008530D01*
X120538034Y-84008529D01*
X120360024Y-83894131D01*
X120360019Y-83894128D01*
X120163585Y-83815487D01*
X120163579Y-83815486D01*
X119955805Y-83775440D01*
X119704000Y-83775440D01*
X119703999Y-84371155D01*
X119683997Y-84439276D01*
X119630341Y-84485769D01*
X119560067Y-84495872D01*
X119558291Y-84495604D01*
X119481481Y-84483440D01*
X119418519Y-84483440D01*
X119418518Y-84483440D01*
X119341707Y-84495604D01*
X119271296Y-84486503D01*
X119216983Y-84440780D01*
X119196012Y-84372951D01*
X119195999Y-84371155D01*
X119196000Y-83775440D01*
X118997221Y-83775440D01*
X118997199Y-83775441D01*
X118839366Y-83790512D01*
X118839351Y-83790515D01*
X118636322Y-83850129D01*
X118448245Y-83947090D01*
X118281914Y-84077895D01*
X118281908Y-84077900D01*
X118143343Y-84237814D01*
X118143342Y-84237815D01*
X118037545Y-84421062D01*
X118037541Y-84421071D01*
X117968337Y-84621024D01*
X117968335Y-84621030D01*
X117967126Y-84629440D01*
X95529033Y-84629440D01*
X95502298Y-84519236D01*
X95414356Y-84326669D01*
X95414353Y-84326665D01*
X95414351Y-84326661D01*
X95291564Y-84154231D01*
X95291555Y-84154221D01*
X95211506Y-84077895D01*
X95138346Y-84008137D01*
X94960254Y-83893684D01*
X94763721Y-83815004D01*
X94763720Y-83815003D01*
X94763718Y-83815003D01*
X94555853Y-83774940D01*
X94555849Y-83774940D01*
X93597197Y-83774940D01*
X93597195Y-83774940D01*
X93597177Y-83774941D01*
X93439271Y-83790019D01*
X93439256Y-83790022D01*
X93236135Y-83849663D01*
X93047976Y-83946667D01*
X92881564Y-84077534D01*
X92742938Y-84237517D01*
X92742930Y-84237528D01*
X92637089Y-84420852D01*
X92637086Y-84420859D01*
X92567848Y-84620909D01*
X92567845Y-84620920D01*
X92537718Y-84830454D01*
X42083273Y-84830454D01*
X41978538Y-84680877D01*
X41978535Y-84680873D01*
X41978532Y-84680869D01*
X41829131Y-84531468D01*
X41829127Y-84531465D01*
X41829122Y-84531461D01*
X41656059Y-84410281D01*
X41464569Y-84320988D01*
X41464565Y-84320986D01*
X41260484Y-84266303D01*
X41050000Y-84247888D01*
X40839515Y-84266303D01*
X40635434Y-84320986D01*
X40635430Y-84320988D01*
X40443940Y-84410281D01*
X40270877Y-84531461D01*
X40270866Y-84531470D01*
X40121470Y-84680866D01*
X40121461Y-84680877D01*
X40000281Y-84853940D01*
X39910988Y-85045430D01*
X39910986Y-85045434D01*
X39856303Y-85249515D01*
X39837888Y-85460000D01*
X39856303Y-85670484D01*
X39910986Y-85874565D01*
X39910988Y-85874569D01*
X40000281Y-86066059D01*
X40121461Y-86239122D01*
X40121470Y-86239133D01*
X40268241Y-86385904D01*
X40302267Y-86448216D01*
X40297202Y-86519031D01*
X40268242Y-86564094D01*
X40119465Y-86712872D01*
X40119461Y-86712877D01*
X39998281Y-86885940D01*
X39908988Y-87077430D01*
X39908986Y-87077434D01*
X39854303Y-87281515D01*
X39835888Y-87491999D01*
X30025500Y-87491999D01*
X30025500Y-83237500D01*
X36019454Y-83237500D01*
X36039613Y-83519364D01*
X36098598Y-83790512D01*
X36099680Y-83795484D01*
X36136307Y-83893684D01*
X36198431Y-84060248D01*
X36198433Y-84060252D01*
X36333857Y-84308261D01*
X36503200Y-84534479D01*
X36503208Y-84534488D01*
X36703011Y-84734291D01*
X36703020Y-84734299D01*
X36755216Y-84773372D01*
X36929236Y-84903641D01*
X37177251Y-85039068D01*
X37442016Y-85137820D01*
X37718139Y-85197887D01*
X37929447Y-85213000D01*
X37929453Y-85213000D01*
X38070547Y-85213000D01*
X38070553Y-85213000D01*
X38281861Y-85197887D01*
X38557984Y-85137820D01*
X38822749Y-85039068D01*
X39070764Y-84903641D01*
X39296982Y-84734297D01*
X39496797Y-84534482D01*
X39666141Y-84308264D01*
X39801568Y-84060249D01*
X39900320Y-83795484D01*
X39960387Y-83519361D01*
X39980546Y-83237500D01*
X39960387Y-82955639D01*
X39915653Y-82749999D01*
X71586496Y-82749999D01*
X71606457Y-82939927D01*
X71622519Y-82989358D01*
X71665473Y-83121556D01*
X71665476Y-83121561D01*
X71760958Y-83286941D01*
X71760965Y-83286951D01*
X71888744Y-83428864D01*
X71949999Y-83473368D01*
X72043248Y-83541118D01*
X72217712Y-83618794D01*
X72404513Y-83658500D01*
X72595487Y-83658500D01*
X72782288Y-83618794D01*
X72956752Y-83541118D01*
X73111253Y-83428866D01*
X73197395Y-83333196D01*
X73239034Y-83286951D01*
X73239035Y-83286949D01*
X73239040Y-83286944D01*
X73334527Y-83121556D01*
X73393542Y-82939928D01*
X73413504Y-82750000D01*
X73393542Y-82560072D01*
X73334527Y-82378444D01*
X73283726Y-82290454D01*
X92537718Y-82290454D01*
X92547790Y-82501903D01*
X92547792Y-82501916D01*
X92597700Y-82707638D01*
X92597702Y-82707644D01*
X92685644Y-82900211D01*
X92685648Y-82900218D01*
X92808435Y-83072648D01*
X92808439Y-83072653D01*
X92808441Y-83072655D01*
X92961654Y-83218743D01*
X93139746Y-83333196D01*
X93336279Y-83411876D01*
X93544151Y-83451940D01*
X93544155Y-83451940D01*
X94502801Y-83451940D01*
X94502803Y-83451940D01*
X94660739Y-83436859D01*
X94863862Y-83377217D01*
X95052026Y-83280211D01*
X95218432Y-83149348D01*
X95357065Y-82989358D01*
X95462913Y-82806022D01*
X95532153Y-82605967D01*
X95562281Y-82396424D01*
X95557233Y-82290454D01*
X117937718Y-82290454D01*
X117947790Y-82501903D01*
X117947792Y-82501916D01*
X117997700Y-82707638D01*
X117997702Y-82707644D01*
X118085644Y-82900211D01*
X118085648Y-82900218D01*
X118208435Y-83072648D01*
X118208439Y-83072653D01*
X118208441Y-83072655D01*
X118361654Y-83218743D01*
X118539746Y-83333196D01*
X118736279Y-83411876D01*
X118944151Y-83451940D01*
X118944155Y-83451940D01*
X119902801Y-83451940D01*
X119902803Y-83451940D01*
X120060739Y-83436859D01*
X120263862Y-83377217D01*
X120452026Y-83280211D01*
X120618432Y-83149348D01*
X120757065Y-82989358D01*
X120862913Y-82806022D01*
X120932153Y-82605967D01*
X120962281Y-82396424D01*
X120957233Y-82290454D01*
X120952209Y-82184976D01*
X120952208Y-82184971D01*
X120952208Y-82184966D01*
X120902298Y-81979236D01*
X120814356Y-81786669D01*
X120814353Y-81786665D01*
X120814351Y-81786661D01*
X120691564Y-81614231D01*
X120691555Y-81614221D01*
X120646600Y-81571357D01*
X120538346Y-81468137D01*
X120360254Y-81353684D01*
X120163721Y-81275004D01*
X120163720Y-81275003D01*
X120163718Y-81275003D01*
X119955853Y-81234940D01*
X119955849Y-81234940D01*
X118997197Y-81234940D01*
X118997195Y-81234940D01*
X118997177Y-81234941D01*
X118839271Y-81250019D01*
X118839256Y-81250022D01*
X118636135Y-81309663D01*
X118447976Y-81406667D01*
X118281564Y-81537534D01*
X118142938Y-81697517D01*
X118142930Y-81697528D01*
X118037089Y-81880852D01*
X118037086Y-81880859D01*
X117967848Y-82080909D01*
X117967845Y-82080920D01*
X117937718Y-82290454D01*
X95557233Y-82290454D01*
X95552209Y-82184976D01*
X95552208Y-82184971D01*
X95552208Y-82184966D01*
X95502298Y-81979236D01*
X95414356Y-81786669D01*
X95414353Y-81786665D01*
X95414351Y-81786661D01*
X95291564Y-81614231D01*
X95291555Y-81614221D01*
X95246600Y-81571357D01*
X95138346Y-81468137D01*
X94960254Y-81353684D01*
X94763721Y-81275004D01*
X94763720Y-81275003D01*
X94763718Y-81275003D01*
X94555853Y-81234940D01*
X94555849Y-81234940D01*
X93597197Y-81234940D01*
X93597195Y-81234940D01*
X93597177Y-81234941D01*
X93439271Y-81250019D01*
X93439256Y-81250022D01*
X93236135Y-81309663D01*
X93047976Y-81406667D01*
X92881564Y-81537534D01*
X92742938Y-81697517D01*
X92742930Y-81697528D01*
X92637089Y-81880852D01*
X92637086Y-81880859D01*
X92567848Y-82080909D01*
X92567845Y-82080920D01*
X92537718Y-82290454D01*
X73283726Y-82290454D01*
X73239040Y-82213056D01*
X73239038Y-82213054D01*
X73239034Y-82213048D01*
X73111255Y-82071135D01*
X72956752Y-81958882D01*
X72782288Y-81881206D01*
X72595487Y-81841500D01*
X72404513Y-81841500D01*
X72217711Y-81881206D01*
X72043247Y-81958882D01*
X71888744Y-82071135D01*
X71760965Y-82213048D01*
X71760958Y-82213058D01*
X71665476Y-82378438D01*
X71665473Y-82378445D01*
X71606457Y-82560072D01*
X71586496Y-82749999D01*
X39915653Y-82749999D01*
X39900320Y-82679516D01*
X39801568Y-82414751D01*
X39666141Y-82166736D01*
X39510544Y-81958882D01*
X39496799Y-81940520D01*
X39496791Y-81940511D01*
X39296988Y-81740708D01*
X39296979Y-81740700D01*
X39070761Y-81571357D01*
X38822752Y-81435933D01*
X38822748Y-81435931D01*
X38688634Y-81385909D01*
X38557984Y-81337180D01*
X38557980Y-81337179D01*
X38557977Y-81337178D01*
X38281863Y-81277113D01*
X38281864Y-81277113D01*
X38211424Y-81272075D01*
X38070553Y-81262000D01*
X37929447Y-81262000D01*
X37802662Y-81271067D01*
X37718135Y-81277113D01*
X37442022Y-81337178D01*
X37442017Y-81337179D01*
X37442016Y-81337180D01*
X37397767Y-81353684D01*
X37177251Y-81435931D01*
X37177247Y-81435933D01*
X36929238Y-81571357D01*
X36703020Y-81740700D01*
X36703011Y-81740708D01*
X36503208Y-81940511D01*
X36503200Y-81940520D01*
X36333857Y-82166738D01*
X36198433Y-82414747D01*
X36198431Y-82414751D01*
X36099678Y-82679522D01*
X36039613Y-82955635D01*
X36019454Y-83237500D01*
X30025500Y-83237500D01*
X30025500Y-79629000D01*
X40615496Y-79629000D01*
X40635457Y-79818927D01*
X40658529Y-79889932D01*
X40694473Y-80000556D01*
X40694476Y-80000561D01*
X40789958Y-80165941D01*
X40789965Y-80165951D01*
X40917744Y-80307864D01*
X40917747Y-80307866D01*
X41072248Y-80420118D01*
X41246712Y-80497794D01*
X41433513Y-80537500D01*
X41624487Y-80537500D01*
X41811288Y-80497794D01*
X41985752Y-80420118D01*
X42140253Y-80307866D01*
X42177925Y-80266027D01*
X42268034Y-80165951D01*
X42268035Y-80165949D01*
X42268040Y-80165944D01*
X42363527Y-80000556D01*
X42422542Y-79818928D01*
X42442504Y-79629000D01*
X42428946Y-79499999D01*
X47586496Y-79499999D01*
X47606457Y-79689927D01*
X47623661Y-79742873D01*
X47665473Y-79871556D01*
X47665476Y-79871561D01*
X47760958Y-80036941D01*
X47760965Y-80036951D01*
X47888744Y-80178864D01*
X47888747Y-80178866D01*
X48043248Y-80291118D01*
X48217712Y-80368794D01*
X48404513Y-80408500D01*
X48595487Y-80408500D01*
X48782288Y-80368794D01*
X48956752Y-80291118D01*
X49111253Y-80178866D01*
X49111255Y-80178864D01*
X49239034Y-80036951D01*
X49239035Y-80036949D01*
X49239040Y-80036944D01*
X49334527Y-79871556D01*
X49373876Y-79750454D01*
X92537718Y-79750454D01*
X92547790Y-79961903D01*
X92547792Y-79961916D01*
X92597700Y-80167638D01*
X92597702Y-80167644D01*
X92685644Y-80360211D01*
X92685648Y-80360218D01*
X92808435Y-80532648D01*
X92808444Y-80532658D01*
X92822345Y-80545912D01*
X92961654Y-80678743D01*
X93139746Y-80793196D01*
X93336279Y-80871876D01*
X93544151Y-80911940D01*
X93544155Y-80911940D01*
X94502801Y-80911940D01*
X94502803Y-80911940D01*
X94660739Y-80896859D01*
X94863862Y-80837217D01*
X95052026Y-80740211D01*
X95218432Y-80609348D01*
X95357065Y-80449358D01*
X95462913Y-80266022D01*
X95532153Y-80065967D01*
X95562281Y-79856424D01*
X95557233Y-79750454D01*
X117937718Y-79750454D01*
X117947790Y-79961903D01*
X117947792Y-79961916D01*
X117997700Y-80167638D01*
X117997702Y-80167644D01*
X118085644Y-80360211D01*
X118085648Y-80360218D01*
X118208435Y-80532648D01*
X118208444Y-80532658D01*
X118222345Y-80545912D01*
X118361654Y-80678743D01*
X118539746Y-80793196D01*
X118736279Y-80871876D01*
X118944151Y-80911940D01*
X118944155Y-80911940D01*
X119902801Y-80911940D01*
X119902803Y-80911940D01*
X120060739Y-80896859D01*
X120263862Y-80837217D01*
X120452026Y-80740211D01*
X120618432Y-80609348D01*
X120757065Y-80449358D01*
X120862913Y-80266022D01*
X120866000Y-80257104D01*
X132322000Y-80257104D01*
X132336951Y-80428002D01*
X132396186Y-80649068D01*
X132396188Y-80649073D01*
X132492912Y-80856498D01*
X132624184Y-81043974D01*
X132624189Y-81043980D01*
X132786019Y-81205810D01*
X132786025Y-81205815D01*
X132973501Y-81337087D01*
X133180926Y-81433811D01*
X133180931Y-81433813D01*
X133376000Y-81486081D01*
X133376000Y-80614033D01*
X133396002Y-80545912D01*
X133449658Y-80499419D01*
X133519926Y-80489315D01*
X133594237Y-80500000D01*
X133665763Y-80500000D01*
X133740069Y-80489316D01*
X133810341Y-80499419D01*
X133863997Y-80545911D01*
X133884000Y-80614031D01*
X133884000Y-81486081D01*
X134079068Y-81433813D01*
X134079073Y-81433811D01*
X134286498Y-81337087D01*
X134473974Y-81205815D01*
X134473980Y-81205810D01*
X134635810Y-81043980D01*
X134635815Y-81043974D01*
X134767087Y-80856498D01*
X134785529Y-80816951D01*
X134832446Y-80763666D01*
X134900723Y-80744205D01*
X134968683Y-80764747D01*
X135013919Y-80816951D01*
X135032477Y-80856749D01*
X135163802Y-81044300D01*
X135325700Y-81206198D01*
X135513251Y-81337523D01*
X135720757Y-81434284D01*
X135941913Y-81493543D01*
X136170000Y-81513498D01*
X136398087Y-81493543D01*
X136619243Y-81434284D01*
X136826749Y-81337523D01*
X137014300Y-81206198D01*
X137176198Y-81044300D01*
X137307523Y-80856749D01*
X137325804Y-80817543D01*
X137372721Y-80764258D01*
X137440998Y-80744796D01*
X137508958Y-80765337D01*
X137554195Y-80817543D01*
X137572477Y-80856749D01*
X137703802Y-81044300D01*
X137865700Y-81206198D01*
X138053251Y-81337523D01*
X138260757Y-81434284D01*
X138481913Y-81493543D01*
X138710000Y-81513498D01*
X138938087Y-81493543D01*
X139159243Y-81434284D01*
X139366749Y-81337523D01*
X139554300Y-81206198D01*
X139716198Y-81044300D01*
X139847523Y-80856749D01*
X139865804Y-80817543D01*
X139912721Y-80764258D01*
X139980998Y-80744796D01*
X140048958Y-80765337D01*
X140094195Y-80817543D01*
X140112477Y-80856749D01*
X140243802Y-81044300D01*
X140405700Y-81206198D01*
X140593251Y-81337523D01*
X140800757Y-81434284D01*
X141021913Y-81493543D01*
X141250000Y-81513498D01*
X141478087Y-81493543D01*
X141699243Y-81434284D01*
X141906749Y-81337523D01*
X142094300Y-81206198D01*
X142256198Y-81044300D01*
X142387523Y-80856749D01*
X142484284Y-80649243D01*
X142543543Y-80428087D01*
X142558500Y-80257127D01*
X142558500Y-79742873D01*
X142543543Y-79571913D01*
X142484284Y-79350757D01*
X142387523Y-79143251D01*
X142256198Y-78955700D01*
X142094300Y-78793802D01*
X141906749Y-78662477D01*
X141839688Y-78631206D01*
X141699246Y-78565717D01*
X141699240Y-78565715D01*
X141605771Y-78540670D01*
X141478087Y-78506457D01*
X141250000Y-78486502D01*
X141021913Y-78506457D01*
X140800759Y-78565715D01*
X140800753Y-78565717D01*
X140593250Y-78662477D01*
X140405703Y-78793799D01*
X140405697Y-78793804D01*
X140243804Y-78955697D01*
X140243799Y-78955703D01*
X140112477Y-79143250D01*
X140094195Y-79182457D01*
X140047278Y-79235742D01*
X139979001Y-79255203D01*
X139911041Y-79234661D01*
X139865805Y-79182457D01*
X139854180Y-79157528D01*
X139847523Y-79143251D01*
X139716198Y-78955700D01*
X139554300Y-78793802D01*
X139366749Y-78662477D01*
X139299688Y-78631206D01*
X139159246Y-78565717D01*
X139159240Y-78565715D01*
X139065771Y-78540670D01*
X138938087Y-78506457D01*
X138710000Y-78486502D01*
X138481913Y-78506457D01*
X138260759Y-78565715D01*
X138260753Y-78565717D01*
X138053250Y-78662477D01*
X137865703Y-78793799D01*
X137865697Y-78793804D01*
X137703804Y-78955697D01*
X137703799Y-78955703D01*
X137572477Y-79143250D01*
X137554195Y-79182457D01*
X137507278Y-79235742D01*
X137439001Y-79255203D01*
X137371041Y-79234661D01*
X137325805Y-79182457D01*
X137314180Y-79157528D01*
X137307523Y-79143251D01*
X137176198Y-78955700D01*
X137014300Y-78793802D01*
X136826749Y-78662477D01*
X136759688Y-78631206D01*
X136619246Y-78565717D01*
X136619240Y-78565715D01*
X136525771Y-78540670D01*
X136398087Y-78506457D01*
X136170000Y-78486502D01*
X135941913Y-78506457D01*
X135720759Y-78565715D01*
X135720753Y-78565717D01*
X135513250Y-78662477D01*
X135325703Y-78793799D01*
X135325697Y-78793804D01*
X135163804Y-78955697D01*
X135163799Y-78955703D01*
X135032475Y-79143252D01*
X135013918Y-79183049D01*
X134967001Y-79236333D01*
X134898724Y-79255794D01*
X134830764Y-79235252D01*
X134785530Y-79183049D01*
X134767089Y-79143503D01*
X134635815Y-78956025D01*
X134635810Y-78956019D01*
X134473980Y-78794189D01*
X134473974Y-78794184D01*
X134286498Y-78662912D01*
X134079073Y-78566188D01*
X134079071Y-78566187D01*
X133884000Y-78513917D01*
X133883999Y-78513917D01*
X133884000Y-79385966D01*
X133863998Y-79454087D01*
X133810342Y-79500580D01*
X133740069Y-79510683D01*
X133740068Y-79510683D01*
X133665768Y-79500000D01*
X133665763Y-79500000D01*
X133594237Y-79500000D01*
X133594231Y-79500000D01*
X133519932Y-79510683D01*
X133449658Y-79500580D01*
X133396002Y-79454087D01*
X133376000Y-79385966D01*
X133376000Y-78513917D01*
X133375999Y-78513917D01*
X133180928Y-78566187D01*
X133180926Y-78566188D01*
X132973501Y-78662912D01*
X132786025Y-78794184D01*
X132786019Y-78794189D01*
X132624189Y-78956019D01*
X132624184Y-78956025D01*
X132492912Y-79143501D01*
X132396188Y-79350926D01*
X132396186Y-79350931D01*
X132336951Y-79571997D01*
X132322000Y-79742896D01*
X132322000Y-79746000D01*
X133015156Y-79746000D01*
X133083277Y-79766002D01*
X133129770Y-79819658D01*
X133139874Y-79889932D01*
X133136053Y-79907496D01*
X133130000Y-79928111D01*
X133130000Y-80071888D01*
X133136053Y-80092504D01*
X133136052Y-80163500D01*
X133097667Y-80223226D01*
X133033086Y-80252718D01*
X133015156Y-80254000D01*
X132322000Y-80254000D01*
X132322000Y-80257104D01*
X120866000Y-80257104D01*
X120932153Y-80065967D01*
X120962281Y-79856424D01*
X120953363Y-79669202D01*
X120952209Y-79644976D01*
X120952208Y-79644971D01*
X120952208Y-79644966D01*
X120902298Y-79439236D01*
X120814356Y-79246669D01*
X120814353Y-79246665D01*
X120814351Y-79246661D01*
X120691564Y-79074231D01*
X120691555Y-79074221D01*
X120664321Y-79048254D01*
X120538346Y-78928137D01*
X120360254Y-78813684D01*
X120163721Y-78735004D01*
X120163720Y-78735003D01*
X120163718Y-78735003D01*
X119955853Y-78694940D01*
X119955849Y-78694940D01*
X118997197Y-78694940D01*
X118997195Y-78694940D01*
X118997177Y-78694941D01*
X118839271Y-78710019D01*
X118839256Y-78710022D01*
X118636135Y-78769663D01*
X118447976Y-78866667D01*
X118281564Y-78997534D01*
X118142938Y-79157517D01*
X118142930Y-79157528D01*
X118037089Y-79340852D01*
X118037086Y-79340859D01*
X117967848Y-79540909D01*
X117967845Y-79540920D01*
X117937718Y-79750454D01*
X95557233Y-79750454D01*
X95553363Y-79669202D01*
X95552209Y-79644976D01*
X95552208Y-79644971D01*
X95552208Y-79644966D01*
X95502298Y-79439236D01*
X95414356Y-79246669D01*
X95414353Y-79246665D01*
X95414351Y-79246661D01*
X95291564Y-79074231D01*
X95291555Y-79074221D01*
X95264321Y-79048254D01*
X95138346Y-78928137D01*
X94960254Y-78813684D01*
X94763721Y-78735004D01*
X94763720Y-78735003D01*
X94763718Y-78735003D01*
X94555853Y-78694940D01*
X94555849Y-78694940D01*
X93597197Y-78694940D01*
X93597195Y-78694940D01*
X93597177Y-78694941D01*
X93439271Y-78710019D01*
X93439256Y-78710022D01*
X93236135Y-78769663D01*
X93047976Y-78866667D01*
X92881564Y-78997534D01*
X92742938Y-79157517D01*
X92742930Y-79157528D01*
X92637089Y-79340852D01*
X92637086Y-79340859D01*
X92567848Y-79540909D01*
X92567845Y-79540920D01*
X92537718Y-79750454D01*
X49373876Y-79750454D01*
X49393542Y-79689928D01*
X49413504Y-79500000D01*
X49393542Y-79310072D01*
X49334527Y-79128444D01*
X49239040Y-78963056D01*
X49239038Y-78963054D01*
X49239034Y-78963048D01*
X49111255Y-78821135D01*
X48956752Y-78708882D01*
X48782288Y-78631206D01*
X48595487Y-78591500D01*
X48404513Y-78591500D01*
X48217711Y-78631206D01*
X48043247Y-78708882D01*
X47888744Y-78821135D01*
X47760965Y-78963048D01*
X47760958Y-78963058D01*
X47665476Y-79128438D01*
X47665473Y-79128445D01*
X47606457Y-79310072D01*
X47586496Y-79499999D01*
X42428946Y-79499999D01*
X42422542Y-79439072D01*
X42363527Y-79257444D01*
X42268040Y-79092056D01*
X42268038Y-79092054D01*
X42268034Y-79092048D01*
X42140255Y-78950135D01*
X41985752Y-78837882D01*
X41811288Y-78760206D01*
X41624487Y-78720500D01*
X41433513Y-78720500D01*
X41246711Y-78760206D01*
X41072247Y-78837882D01*
X40917744Y-78950135D01*
X40789965Y-79092048D01*
X40789958Y-79092058D01*
X40694476Y-79257438D01*
X40694473Y-79257445D01*
X40635457Y-79439072D01*
X40615496Y-79629000D01*
X30025500Y-79629000D01*
X30025500Y-75000002D01*
X31637068Y-75000002D01*
X31656782Y-75363597D01*
X31715689Y-75722926D01*
X31813106Y-76073787D01*
X31947881Y-76412046D01*
X31947885Y-76412055D01*
X32118445Y-76733768D01*
X32118447Y-76733772D01*
X32322792Y-77035158D01*
X32322791Y-77035158D01*
X32452695Y-77188093D01*
X33603277Y-76037511D01*
X33665589Y-76003486D01*
X33736404Y-76008550D01*
X33788181Y-76044773D01*
X33865130Y-76134869D01*
X33865130Y-76134870D01*
X33955222Y-76211816D01*
X33994031Y-76271267D01*
X33994537Y-76342262D01*
X33962486Y-76396722D01*
X32809134Y-77550074D01*
X32822892Y-77563105D01*
X33112761Y-77783458D01*
X33112767Y-77783462D01*
X33424772Y-77971189D01*
X33424779Y-77971193D01*
X33755239Y-78124081D01*
X33755251Y-78124086D01*
X34100310Y-78240349D01*
X34100327Y-78240354D01*
X34455920Y-78318626D01*
X34455949Y-78318631D01*
X34817927Y-78357999D01*
X34817943Y-78358000D01*
X35182057Y-78358000D01*
X35182072Y-78357999D01*
X35544050Y-78318631D01*
X35544079Y-78318626D01*
X35899672Y-78240354D01*
X35899689Y-78240349D01*
X36244748Y-78124086D01*
X36244760Y-78124081D01*
X36575220Y-77971193D01*
X36575227Y-77971189D01*
X36887232Y-77783462D01*
X36887238Y-77783458D01*
X37177113Y-77563101D01*
X37190864Y-77550074D01*
X36851244Y-77210454D01*
X92537718Y-77210454D01*
X92547790Y-77421903D01*
X92547792Y-77421916D01*
X92597700Y-77627638D01*
X92597702Y-77627644D01*
X92685644Y-77820211D01*
X92685648Y-77820218D01*
X92808435Y-77992648D01*
X92808439Y-77992653D01*
X92808441Y-77992655D01*
X92961654Y-78138743D01*
X93139746Y-78253196D01*
X93336279Y-78331876D01*
X93544151Y-78371940D01*
X93544155Y-78371940D01*
X94502801Y-78371940D01*
X94502803Y-78371940D01*
X94660739Y-78356859D01*
X94863862Y-78297217D01*
X95052026Y-78200211D01*
X95218432Y-78069348D01*
X95357065Y-77909358D01*
X95462913Y-77726022D01*
X95532153Y-77525967D01*
X95562281Y-77316424D01*
X95557233Y-77210454D01*
X117937718Y-77210454D01*
X117947790Y-77421903D01*
X117947792Y-77421916D01*
X117997700Y-77627638D01*
X117997702Y-77627644D01*
X118085644Y-77820211D01*
X118085648Y-77820218D01*
X118208435Y-77992648D01*
X118208439Y-77992653D01*
X118208441Y-77992655D01*
X118361654Y-78138743D01*
X118539746Y-78253196D01*
X118736279Y-78331876D01*
X118944151Y-78371940D01*
X118944155Y-78371940D01*
X119902801Y-78371940D01*
X119902803Y-78371940D01*
X120060739Y-78356859D01*
X120263862Y-78297217D01*
X120452026Y-78200211D01*
X120618432Y-78069348D01*
X120757065Y-77909358D01*
X120862913Y-77726022D01*
X120932153Y-77525967D01*
X120962281Y-77316424D01*
X120956168Y-77188093D01*
X120952209Y-77104976D01*
X120952208Y-77104971D01*
X120952208Y-77104966D01*
X120902298Y-76899236D01*
X120814356Y-76706669D01*
X120814353Y-76706665D01*
X120814351Y-76706661D01*
X120691564Y-76534231D01*
X120691555Y-76534221D01*
X120664321Y-76508254D01*
X120538346Y-76388137D01*
X120360254Y-76273684D01*
X120163721Y-76195004D01*
X120163720Y-76195003D01*
X120163718Y-76195003D01*
X119955853Y-76154940D01*
X119955849Y-76154940D01*
X118997197Y-76154940D01*
X118997195Y-76154940D01*
X118997177Y-76154941D01*
X118839271Y-76170019D01*
X118839256Y-76170022D01*
X118636135Y-76229663D01*
X118447976Y-76326667D01*
X118281564Y-76457534D01*
X118142938Y-76617517D01*
X118142930Y-76617528D01*
X118037089Y-76800852D01*
X118037086Y-76800859D01*
X117967848Y-77000909D01*
X117967845Y-77000920D01*
X117937718Y-77210454D01*
X95557233Y-77210454D01*
X95556168Y-77188093D01*
X95552209Y-77104976D01*
X95552208Y-77104971D01*
X95552208Y-77104966D01*
X95502298Y-76899236D01*
X95414356Y-76706669D01*
X95414353Y-76706665D01*
X95414351Y-76706661D01*
X95291564Y-76534231D01*
X95291555Y-76534221D01*
X95264321Y-76508254D01*
X95138346Y-76388137D01*
X94960254Y-76273684D01*
X94763721Y-76195004D01*
X94763720Y-76195003D01*
X94763718Y-76195003D01*
X94555853Y-76154940D01*
X94555849Y-76154940D01*
X93597197Y-76154940D01*
X93597195Y-76154940D01*
X93597177Y-76154941D01*
X93439271Y-76170019D01*
X93439256Y-76170022D01*
X93236135Y-76229663D01*
X93047976Y-76326667D01*
X92881564Y-76457534D01*
X92742938Y-76617517D01*
X92742930Y-76617528D01*
X92637089Y-76800852D01*
X92637086Y-76800859D01*
X92567848Y-77000909D01*
X92567845Y-77000920D01*
X92537718Y-77210454D01*
X36851244Y-77210454D01*
X36037512Y-76396722D01*
X36003486Y-76334410D01*
X36008551Y-76263595D01*
X36044774Y-76211818D01*
X36134870Y-76134870D01*
X36211818Y-76044775D01*
X36271265Y-76005968D01*
X36342260Y-76005460D01*
X36396722Y-76037512D01*
X37547302Y-77188093D01*
X37547303Y-77188093D01*
X37677203Y-77035165D01*
X37677205Y-77035161D01*
X37881552Y-76733772D01*
X37881554Y-76733768D01*
X38052114Y-76412055D01*
X38052118Y-76412046D01*
X38186893Y-76073787D01*
X38284310Y-75722926D01*
X38343217Y-75363597D01*
X38362932Y-75000002D01*
X38362932Y-74999997D01*
X38345211Y-74673174D01*
X92541398Y-74673174D01*
X92551470Y-74884623D01*
X92551472Y-74884636D01*
X92601380Y-75090358D01*
X92601382Y-75090364D01*
X92689324Y-75282931D01*
X92689328Y-75282938D01*
X92812115Y-75455368D01*
X92812119Y-75455373D01*
X92812121Y-75455375D01*
X92965334Y-75601463D01*
X93143426Y-75715916D01*
X93339959Y-75794596D01*
X93547831Y-75834660D01*
X93547835Y-75834660D01*
X94506481Y-75834660D01*
X94506483Y-75834660D01*
X94664419Y-75819579D01*
X94867542Y-75759937D01*
X95055706Y-75662931D01*
X95222112Y-75532068D01*
X95253404Y-75495956D01*
X95290930Y-75452648D01*
X95360745Y-75372078D01*
X95466593Y-75188742D01*
X95535833Y-74988687D01*
X95565961Y-74779144D01*
X95560784Y-74670456D01*
X95560784Y-74670454D01*
X117937718Y-74670454D01*
X117947790Y-74881903D01*
X117947792Y-74881916D01*
X117997700Y-75087638D01*
X117997702Y-75087644D01*
X118085644Y-75280211D01*
X118085648Y-75280218D01*
X118208435Y-75452648D01*
X118208439Y-75452653D01*
X118208441Y-75452655D01*
X118361654Y-75598743D01*
X118539746Y-75713196D01*
X118736279Y-75791876D01*
X118944151Y-75831940D01*
X118944155Y-75831940D01*
X119902801Y-75831940D01*
X119902803Y-75831940D01*
X120060739Y-75816859D01*
X120263862Y-75757217D01*
X120452026Y-75660211D01*
X120618432Y-75529348D01*
X120757065Y-75369358D01*
X120862913Y-75186022D01*
X120927295Y-75000002D01*
X146637068Y-75000002D01*
X146656782Y-75363597D01*
X146715689Y-75722926D01*
X146813106Y-76073787D01*
X146947881Y-76412046D01*
X146947885Y-76412055D01*
X147118445Y-76733768D01*
X147118447Y-76733772D01*
X147322792Y-77035158D01*
X147322791Y-77035158D01*
X147452695Y-77188093D01*
X148603277Y-76037511D01*
X148665589Y-76003486D01*
X148736404Y-76008550D01*
X148788181Y-76044773D01*
X148865129Y-76134869D01*
X148865130Y-76134870D01*
X148955222Y-76211816D01*
X148994031Y-76271267D01*
X148994537Y-76342262D01*
X148962486Y-76396722D01*
X147809134Y-77550074D01*
X147822892Y-77563105D01*
X148112761Y-77783458D01*
X148112767Y-77783462D01*
X148424772Y-77971189D01*
X148424779Y-77971193D01*
X148755239Y-78124081D01*
X148755251Y-78124086D01*
X149100310Y-78240349D01*
X149100327Y-78240354D01*
X149455920Y-78318626D01*
X149455949Y-78318631D01*
X149817927Y-78357999D01*
X149817943Y-78358000D01*
X150182057Y-78358000D01*
X150182072Y-78357999D01*
X150544050Y-78318631D01*
X150544079Y-78318626D01*
X150899672Y-78240354D01*
X150899689Y-78240349D01*
X151244748Y-78124086D01*
X151244760Y-78124081D01*
X151575220Y-77971193D01*
X151575227Y-77971189D01*
X151887232Y-77783462D01*
X151887238Y-77783458D01*
X152177113Y-77563101D01*
X152190864Y-77550074D01*
X151037512Y-76396722D01*
X151003486Y-76334410D01*
X151008551Y-76263595D01*
X151044774Y-76211818D01*
X151134870Y-76134870D01*
X151211818Y-76044775D01*
X151271265Y-76005968D01*
X151342260Y-76005460D01*
X151396722Y-76037512D01*
X152547302Y-77188093D01*
X152547303Y-77188093D01*
X152677203Y-77035165D01*
X152677205Y-77035161D01*
X152881552Y-76733772D01*
X152881554Y-76733768D01*
X153052114Y-76412055D01*
X153052118Y-76412046D01*
X153186893Y-76073787D01*
X153284310Y-75722926D01*
X153343217Y-75363597D01*
X153362932Y-75000002D01*
X153362932Y-74999997D01*
X153343217Y-74636402D01*
X153284310Y-74277073D01*
X153186893Y-73926212D01*
X153052118Y-73587953D01*
X153052114Y-73587944D01*
X152881554Y-73266231D01*
X152881552Y-73266227D01*
X152677207Y-72964841D01*
X152677208Y-72964841D01*
X152547303Y-72811905D01*
X151396722Y-73962486D01*
X151334410Y-73996512D01*
X151263594Y-73991447D01*
X151211816Y-73955222D01*
X151134870Y-73865130D01*
X151118156Y-73850855D01*
X151044774Y-73788181D01*
X151005967Y-73728733D01*
X151005459Y-73657739D01*
X151037511Y-73603277D01*
X152190864Y-72449924D01*
X152177107Y-72436894D01*
X151887238Y-72216541D01*
X151887232Y-72216537D01*
X151575227Y-72028810D01*
X151575220Y-72028806D01*
X151244760Y-71875918D01*
X151244748Y-71875913D01*
X150899689Y-71759650D01*
X150899672Y-71759645D01*
X150544079Y-71681373D01*
X150544050Y-71681368D01*
X150182072Y-71642000D01*
X149817927Y-71642000D01*
X149455949Y-71681368D01*
X149455920Y-71681373D01*
X149100327Y-71759645D01*
X149100310Y-71759650D01*
X148755251Y-71875913D01*
X148755239Y-71875918D01*
X148424779Y-72028806D01*
X148424772Y-72028810D01*
X148112767Y-72216537D01*
X148112761Y-72216541D01*
X147822880Y-72436903D01*
X147822874Y-72436909D01*
X147809134Y-72449923D01*
X147809133Y-72449923D01*
X148962487Y-73603277D01*
X148996513Y-73665589D01*
X148991448Y-73736404D01*
X148955223Y-73788183D01*
X148865130Y-73865130D01*
X148788183Y-73955223D01*
X148728732Y-73994032D01*
X148657737Y-73994538D01*
X148603277Y-73962487D01*
X147452696Y-72811905D01*
X147322791Y-72964842D01*
X147118447Y-73266227D01*
X147118445Y-73266231D01*
X146947885Y-73587944D01*
X146947881Y-73587953D01*
X146813106Y-73926212D01*
X146715689Y-74277073D01*
X146656782Y-74636402D01*
X146637068Y-74999997D01*
X146637068Y-75000002D01*
X120927295Y-75000002D01*
X120932153Y-74985967D01*
X120962281Y-74776424D01*
X120955611Y-74636402D01*
X120952209Y-74564976D01*
X120952208Y-74564971D01*
X120952208Y-74564966D01*
X120902298Y-74359236D01*
X120814356Y-74166669D01*
X120814353Y-74166665D01*
X120814351Y-74166661D01*
X120691564Y-73994231D01*
X120691555Y-73994221D01*
X120613978Y-73920252D01*
X120538346Y-73848137D01*
X120445057Y-73788184D01*
X120360254Y-73733684D01*
X120190161Y-73665589D01*
X120163721Y-73655004D01*
X120163720Y-73655003D01*
X120163718Y-73655003D01*
X119955853Y-73614940D01*
X119955849Y-73614940D01*
X118997197Y-73614940D01*
X118997195Y-73614940D01*
X118997177Y-73614941D01*
X118839271Y-73630019D01*
X118839256Y-73630022D01*
X118636135Y-73689663D01*
X118447976Y-73786667D01*
X118281564Y-73917534D01*
X118142938Y-74077517D01*
X118142930Y-74077528D01*
X118037089Y-74260852D01*
X118037086Y-74260859D01*
X117967848Y-74460909D01*
X117967845Y-74460920D01*
X117937718Y-74670454D01*
X95560784Y-74670454D01*
X95555889Y-74567696D01*
X95555888Y-74567691D01*
X95555888Y-74567686D01*
X95505978Y-74361956D01*
X95418036Y-74169389D01*
X95418033Y-74169385D01*
X95418031Y-74169381D01*
X95295244Y-73996951D01*
X95295235Y-73996941D01*
X95221056Y-73926212D01*
X95142026Y-73850857D01*
X95137790Y-73848135D01*
X94963934Y-73736404D01*
X94853975Y-73692383D01*
X94767401Y-73657724D01*
X94767400Y-73657723D01*
X94767398Y-73657723D01*
X94559533Y-73617660D01*
X94559529Y-73617660D01*
X93600877Y-73617660D01*
X93600875Y-73617660D01*
X93600857Y-73617661D01*
X93442951Y-73632739D01*
X93442936Y-73632742D01*
X93239815Y-73692383D01*
X93051656Y-73789387D01*
X92885244Y-73920254D01*
X92746618Y-74080237D01*
X92746610Y-74080248D01*
X92640769Y-74263572D01*
X92640766Y-74263579D01*
X92571528Y-74463629D01*
X92571525Y-74463640D01*
X92541398Y-74673174D01*
X38345211Y-74673174D01*
X38343217Y-74636402D01*
X38284310Y-74277073D01*
X38186893Y-73926212D01*
X38052118Y-73587953D01*
X38052114Y-73587944D01*
X37881554Y-73266231D01*
X37881552Y-73266227D01*
X37677207Y-72964841D01*
X37677208Y-72964841D01*
X37547303Y-72811905D01*
X36396722Y-73962486D01*
X36334410Y-73996512D01*
X36263594Y-73991447D01*
X36211816Y-73955222D01*
X36134870Y-73865130D01*
X36118156Y-73850855D01*
X36044774Y-73788181D01*
X36005967Y-73728733D01*
X36005459Y-73657739D01*
X36037511Y-73603277D01*
X37190864Y-72449924D01*
X37177107Y-72436894D01*
X36887238Y-72216541D01*
X36887232Y-72216537D01*
X36748681Y-72133174D01*
X92541398Y-72133174D01*
X92551470Y-72344623D01*
X92551472Y-72344636D01*
X92601380Y-72550358D01*
X92601382Y-72550364D01*
X92689324Y-72742931D01*
X92689328Y-72742938D01*
X92812115Y-72915368D01*
X92812119Y-72915373D01*
X92812121Y-72915375D01*
X92965334Y-73061463D01*
X93143426Y-73175916D01*
X93339959Y-73254596D01*
X93547831Y-73294660D01*
X93547835Y-73294660D01*
X94506481Y-73294660D01*
X94506483Y-73294660D01*
X94664419Y-73279579D01*
X94867542Y-73219937D01*
X95055706Y-73122931D01*
X95222112Y-72992068D01*
X95245705Y-72964841D01*
X95290930Y-72912648D01*
X95360745Y-72832078D01*
X95466593Y-72648742D01*
X95535833Y-72448687D01*
X95565961Y-72239144D01*
X95560784Y-72130456D01*
X95560784Y-72130454D01*
X117937718Y-72130454D01*
X117947790Y-72341903D01*
X117947792Y-72341916D01*
X117997700Y-72547638D01*
X117997702Y-72547644D01*
X118085644Y-72740211D01*
X118085648Y-72740218D01*
X118208435Y-72912648D01*
X118208439Y-72912653D01*
X118208441Y-72912655D01*
X118361654Y-73058743D01*
X118539746Y-73173196D01*
X118736279Y-73251876D01*
X118944151Y-73291940D01*
X118944155Y-73291940D01*
X119902801Y-73291940D01*
X119902803Y-73291940D01*
X120060739Y-73276859D01*
X120263862Y-73217217D01*
X120452026Y-73120211D01*
X120618432Y-72989348D01*
X120757065Y-72829358D01*
X120862913Y-72646022D01*
X120932153Y-72445967D01*
X120962281Y-72236424D01*
X120957233Y-72130454D01*
X120952209Y-72024976D01*
X120952208Y-72024971D01*
X120952208Y-72024966D01*
X120902298Y-71819236D01*
X120814356Y-71626669D01*
X120814353Y-71626665D01*
X120814351Y-71626661D01*
X120691564Y-71454231D01*
X120691555Y-71454221D01*
X120613978Y-71380252D01*
X120538346Y-71308137D01*
X120360254Y-71193684D01*
X120163721Y-71115004D01*
X120163720Y-71115003D01*
X120163718Y-71115003D01*
X119955853Y-71074940D01*
X119955849Y-71074940D01*
X118997197Y-71074940D01*
X118997195Y-71074940D01*
X118997177Y-71074941D01*
X118839271Y-71090019D01*
X118839256Y-71090022D01*
X118636135Y-71149663D01*
X118447976Y-71246667D01*
X118281564Y-71377534D01*
X118142938Y-71537517D01*
X118142930Y-71537528D01*
X118037089Y-71720852D01*
X118037086Y-71720859D01*
X117967848Y-71920909D01*
X117967845Y-71920920D01*
X117937718Y-72130454D01*
X95560784Y-72130454D01*
X95555889Y-72027696D01*
X95555888Y-72027691D01*
X95555888Y-72027686D01*
X95505978Y-71821956D01*
X95418036Y-71629389D01*
X95418033Y-71629385D01*
X95418031Y-71629381D01*
X95295244Y-71456951D01*
X95295235Y-71456941D01*
X95268001Y-71430974D01*
X95142026Y-71310857D01*
X95137790Y-71308135D01*
X94963934Y-71196404D01*
X94853975Y-71152383D01*
X94767401Y-71117724D01*
X94767400Y-71117723D01*
X94767398Y-71117723D01*
X94559533Y-71077660D01*
X94559529Y-71077660D01*
X93600877Y-71077660D01*
X93600875Y-71077660D01*
X93600857Y-71077661D01*
X93442951Y-71092739D01*
X93442936Y-71092742D01*
X93239815Y-71152383D01*
X93051656Y-71249387D01*
X92885244Y-71380254D01*
X92746618Y-71540237D01*
X92746610Y-71540248D01*
X92640769Y-71723572D01*
X92640766Y-71723579D01*
X92571528Y-71923629D01*
X92571525Y-71923640D01*
X92541398Y-72133174D01*
X36748681Y-72133174D01*
X36575227Y-72028810D01*
X36575220Y-72028806D01*
X36244760Y-71875918D01*
X36244748Y-71875913D01*
X35899689Y-71759650D01*
X35899672Y-71759645D01*
X35544079Y-71681373D01*
X35544050Y-71681368D01*
X35182072Y-71642000D01*
X34817927Y-71642000D01*
X34455949Y-71681368D01*
X34455920Y-71681373D01*
X34100327Y-71759645D01*
X34100310Y-71759650D01*
X33755251Y-71875913D01*
X33755239Y-71875918D01*
X33424779Y-72028806D01*
X33424772Y-72028810D01*
X33112767Y-72216537D01*
X33112761Y-72216541D01*
X32822880Y-72436903D01*
X32822874Y-72436909D01*
X32809134Y-72449923D01*
X32809133Y-72449923D01*
X33962487Y-73603277D01*
X33996513Y-73665589D01*
X33991448Y-73736404D01*
X33955223Y-73788183D01*
X33865130Y-73865130D01*
X33788183Y-73955223D01*
X33728732Y-73994032D01*
X33657737Y-73994538D01*
X33603277Y-73962487D01*
X32452696Y-72811905D01*
X32322791Y-72964842D01*
X32118447Y-73266227D01*
X32118445Y-73266231D01*
X31947885Y-73587944D01*
X31947881Y-73587953D01*
X31813106Y-73926212D01*
X31715689Y-74277073D01*
X31656782Y-74636402D01*
X31637068Y-74999997D01*
X31637068Y-75000002D01*
X30025500Y-75000002D01*
X30025500Y-70151500D01*
X30045502Y-70083379D01*
X30099158Y-70036886D01*
X30151500Y-70025500D01*
X154848500Y-70025500D01*
X154916621Y-70045502D01*
G37*
G04 #@! TD.AperFunction*
M02*
