G04 #@! TF.GenerationSoftware,KiCad,Pcbnew,7.0.5.1-1-g8f565ef7f0-dirty-deb11*
G04 #@! TF.CreationDate,2023-08-07T11:26:22+00:00*
G04 #@! TF.ProjectId,LocoBuffer,4c6f636f-4275-4666-9665-722e6b696361,0.0.1*
G04 #@! TF.SameCoordinates,Original*
G04 #@! TF.FileFunction,Copper,L3,Inr*
G04 #@! TF.FilePolarity,Positive*
%FSLAX46Y46*%
G04 Gerber Fmt 4.6, Leading zero omitted, Abs format (unit mm)*
G04 Created by KiCad (PCBNEW 7.0.5.1-1-g8f565ef7f0-dirty-deb11) date 2023-08-07 11:26:22*
%MOMM*%
%LPD*%
G01*
G04 APERTURE LIST*
G04 #@! TA.AperFunction,ComponentPad*
%ADD10R,1.398000X1.398000*%
G04 #@! TD*
G04 #@! TA.AperFunction,ComponentPad*
%ADD11C,1.398000*%
G04 #@! TD*
G04 #@! TA.AperFunction,ComponentPad*
%ADD12C,5.700000*%
G04 #@! TD*
G04 #@! TA.AperFunction,ComponentPad*
%ADD13R,2.000000X1.200000*%
G04 #@! TD*
G04 #@! TA.AperFunction,ComponentPad*
%ADD14O,2.000000X1.200000*%
G04 #@! TD*
G04 #@! TA.AperFunction,ComponentPad*
%ADD15R,1.700000X1.700000*%
G04 #@! TD*
G04 #@! TA.AperFunction,ComponentPad*
%ADD16O,1.700000X1.700000*%
G04 #@! TD*
G04 #@! TA.AperFunction,ViaPad*
%ADD17C,0.800000*%
G04 #@! TD*
G04 APERTURE END LIST*
D10*
X43080000Y-90540000D03*
D11*
X41050000Y-89524000D03*
X43080000Y-88508000D03*
X41048000Y-87492000D03*
X43080000Y-86476000D03*
X41050000Y-85460000D03*
D10*
X43080000Y-104540000D03*
D11*
X41050000Y-103524000D03*
X43080000Y-102508000D03*
X41048000Y-101492000D03*
X43080000Y-100476000D03*
X41050000Y-99460000D03*
D12*
X35000000Y-75000000D03*
X35000000Y-115000000D03*
X100000000Y-115000000D03*
X100000000Y-75000000D03*
D13*
X92710000Y-117403440D03*
D14*
X92710000Y-114863440D03*
X92710000Y-112323440D03*
X92710000Y-109783440D03*
X92710000Y-107243440D03*
X92710000Y-104703440D03*
X92710000Y-102163440D03*
X92710000Y-99623440D03*
X92710000Y-97083440D03*
X92710000Y-94543440D03*
X92710000Y-92003440D03*
X92710000Y-89463440D03*
X92710000Y-86923440D03*
X92710000Y-84383440D03*
X92710000Y-81843440D03*
X92710000Y-79303440D03*
X92710000Y-76763440D03*
X92710000Y-74223440D03*
X92710000Y-71683440D03*
X67313680Y-71686160D03*
X67313680Y-74226160D03*
X67310000Y-76763440D03*
X67310000Y-79303440D03*
X67310000Y-81843440D03*
X67310000Y-84383440D03*
X67310000Y-86923440D03*
X67310000Y-89463440D03*
X67310000Y-92003440D03*
X67310000Y-94543440D03*
X67310000Y-97083440D03*
X67310000Y-99623440D03*
X67310000Y-102163440D03*
X67310000Y-104703440D03*
X67310000Y-107243440D03*
X67310000Y-109783440D03*
X67310000Y-112323440D03*
X67310000Y-114863440D03*
X67310000Y-117403440D03*
D15*
X100250000Y-86920000D03*
D16*
X100250000Y-89460000D03*
X100250000Y-92000000D03*
X100250000Y-94540000D03*
D17*
X41033706Y-109117500D03*
X50800000Y-110109000D03*
X57762000Y-103675000D03*
X41529000Y-79629000D03*
X62865000Y-106807000D03*
X96750000Y-103000000D03*
X42291000Y-118999000D03*
X62738000Y-105410000D03*
X57277000Y-118110000D03*
X48133000Y-111252000D03*
X48500000Y-94500000D03*
X48500000Y-90500000D03*
G04 #@! TA.AperFunction,Conductor*
G36*
X104916621Y-70045502D02*
G01*
X104963114Y-70099158D01*
X104974500Y-70151500D01*
X104974500Y-119848500D01*
X104954498Y-119916621D01*
X104900842Y-119963114D01*
X104848500Y-119974500D01*
X42881760Y-119974500D01*
X42813639Y-119954498D01*
X42767146Y-119900842D01*
X42757042Y-119830568D01*
X42786536Y-119765988D01*
X42807699Y-119746564D01*
X42834880Y-119726815D01*
X42902253Y-119677866D01*
X43030040Y-119535944D01*
X43125527Y-119370556D01*
X43184542Y-119188928D01*
X43204504Y-118999000D01*
X43184542Y-118809072D01*
X43125527Y-118627444D01*
X43030040Y-118462056D01*
X43030038Y-118462054D01*
X43030034Y-118462048D01*
X42902255Y-118320135D01*
X42747752Y-118207882D01*
X42573288Y-118130206D01*
X42478227Y-118110000D01*
X56363496Y-118110000D01*
X56383457Y-118299927D01*
X56396547Y-118340212D01*
X56442473Y-118481556D01*
X56442476Y-118481561D01*
X56537958Y-118646941D01*
X56537965Y-118646951D01*
X56665744Y-118788864D01*
X56665747Y-118788866D01*
X56820248Y-118901118D01*
X56994712Y-118978794D01*
X57181513Y-119018500D01*
X57372487Y-119018500D01*
X57559288Y-118978794D01*
X57733752Y-118901118D01*
X57888253Y-118788866D01*
X58016040Y-118646944D01*
X58111527Y-118481556D01*
X58170542Y-118299928D01*
X58190504Y-118110000D01*
X58170542Y-117920072D01*
X58111527Y-117738444D01*
X58016040Y-117573056D01*
X58016038Y-117573054D01*
X58016034Y-117573048D01*
X57888255Y-117431135D01*
X57777207Y-117350454D01*
X65797718Y-117350454D01*
X65807790Y-117561903D01*
X65807792Y-117561916D01*
X65857700Y-117767638D01*
X65857702Y-117767644D01*
X65945644Y-117960211D01*
X65945648Y-117960218D01*
X66068435Y-118132648D01*
X66068439Y-118132653D01*
X66068441Y-118132655D01*
X66221654Y-118278743D01*
X66399746Y-118393196D01*
X66596279Y-118471876D01*
X66804151Y-118511940D01*
X66804155Y-118511940D01*
X67762801Y-118511940D01*
X67762803Y-118511940D01*
X67920739Y-118496859D01*
X68123862Y-118437217D01*
X68312026Y-118340211D01*
X68478432Y-118209348D01*
X68479703Y-118207882D01*
X68581415Y-118090500D01*
X68614744Y-118052037D01*
X91202000Y-118052037D01*
X91208505Y-118112533D01*
X91259555Y-118249404D01*
X91259555Y-118249405D01*
X91347095Y-118366344D01*
X91464034Y-118453884D01*
X91600906Y-118504934D01*
X91661402Y-118511439D01*
X91661415Y-118511440D01*
X92456000Y-118511440D01*
X92456000Y-117715126D01*
X92471955Y-117731081D01*
X92584852Y-117788605D01*
X92678519Y-117803440D01*
X92741481Y-117803440D01*
X92835148Y-117788605D01*
X92948045Y-117731081D01*
X92964000Y-117715126D01*
X92964000Y-118511440D01*
X93758585Y-118511440D01*
X93758597Y-118511439D01*
X93819093Y-118504934D01*
X93955964Y-118453884D01*
X93955965Y-118453884D01*
X94072904Y-118366344D01*
X94160444Y-118249405D01*
X94160444Y-118249404D01*
X94211494Y-118112533D01*
X94217999Y-118052037D01*
X94218000Y-118052025D01*
X94218000Y-117657440D01*
X93021686Y-117657440D01*
X93037641Y-117641485D01*
X93095165Y-117528588D01*
X93114986Y-117403440D01*
X93095165Y-117278292D01*
X93037641Y-117165395D01*
X93021686Y-117149440D01*
X94218000Y-117149440D01*
X94218000Y-116754854D01*
X94217999Y-116754842D01*
X94211494Y-116694346D01*
X94160444Y-116557475D01*
X94160444Y-116557474D01*
X94072904Y-116440535D01*
X93955965Y-116352995D01*
X93819093Y-116301945D01*
X93758597Y-116295440D01*
X92964000Y-116295440D01*
X92964000Y-117091753D01*
X92948045Y-117075799D01*
X92835148Y-117018275D01*
X92741481Y-117003440D01*
X92678519Y-117003440D01*
X92584852Y-117018275D01*
X92471955Y-117075799D01*
X92456000Y-117091753D01*
X92456000Y-116295440D01*
X91661402Y-116295440D01*
X91600906Y-116301945D01*
X91464035Y-116352995D01*
X91464034Y-116352995D01*
X91347095Y-116440535D01*
X91259555Y-116557474D01*
X91259555Y-116557475D01*
X91208505Y-116694346D01*
X91202000Y-116754842D01*
X91202000Y-117149440D01*
X92398314Y-117149440D01*
X92382359Y-117165395D01*
X92324835Y-117278292D01*
X92305014Y-117403440D01*
X92324835Y-117528588D01*
X92382359Y-117641485D01*
X92398314Y-117657440D01*
X91202000Y-117657440D01*
X91202000Y-118052037D01*
X68614744Y-118052037D01*
X68617065Y-118049358D01*
X68722913Y-117866022D01*
X68792153Y-117665967D01*
X68822281Y-117456424D01*
X68815729Y-117318882D01*
X68812209Y-117244976D01*
X68812208Y-117244971D01*
X68812208Y-117244966D01*
X68762298Y-117039236D01*
X68674356Y-116846669D01*
X68674353Y-116846665D01*
X68674351Y-116846661D01*
X68551564Y-116674231D01*
X68551555Y-116674221D01*
X68524321Y-116648254D01*
X68398346Y-116528137D01*
X68220254Y-116413684D01*
X68023721Y-116335004D01*
X68023720Y-116335003D01*
X68023718Y-116335003D01*
X67815853Y-116294940D01*
X67815849Y-116294940D01*
X66857197Y-116294940D01*
X66857195Y-116294940D01*
X66857177Y-116294941D01*
X66699271Y-116310019D01*
X66699256Y-116310022D01*
X66496135Y-116369663D01*
X66307976Y-116466667D01*
X66141564Y-116597534D01*
X66002938Y-116757517D01*
X66002930Y-116757528D01*
X65897089Y-116940852D01*
X65897086Y-116940859D01*
X65827848Y-117140909D01*
X65827845Y-117140920D01*
X65797718Y-117350454D01*
X57777207Y-117350454D01*
X57733752Y-117318882D01*
X57559288Y-117241206D01*
X57372487Y-117201500D01*
X57181513Y-117201500D01*
X56994711Y-117241206D01*
X56820247Y-117318882D01*
X56665744Y-117431135D01*
X56537965Y-117573048D01*
X56537958Y-117573058D01*
X56442476Y-117738438D01*
X56442473Y-117738445D01*
X56383457Y-117920072D01*
X56363496Y-118110000D01*
X42478227Y-118110000D01*
X42386487Y-118090500D01*
X42195513Y-118090500D01*
X42008711Y-118130206D01*
X41834247Y-118207882D01*
X41679744Y-118320135D01*
X41551965Y-118462048D01*
X41551958Y-118462058D01*
X41456476Y-118627438D01*
X41456473Y-118627445D01*
X41397457Y-118809072D01*
X41377496Y-118999000D01*
X41397457Y-119188927D01*
X41427526Y-119281470D01*
X41456473Y-119370556D01*
X41456476Y-119370561D01*
X41551958Y-119535941D01*
X41551965Y-119535951D01*
X41679744Y-119677864D01*
X41774301Y-119746564D01*
X41817655Y-119802786D01*
X41823730Y-119873523D01*
X41790598Y-119936314D01*
X41728778Y-119971226D01*
X41700240Y-119974500D01*
X30151500Y-119974500D01*
X30083379Y-119954498D01*
X30036886Y-119900842D01*
X30025500Y-119848500D01*
X30025500Y-115000002D01*
X31636567Y-115000002D01*
X31656284Y-115363651D01*
X31715200Y-115723034D01*
X31751340Y-115853196D01*
X31812632Y-116073949D01*
X31947431Y-116412269D01*
X32118018Y-116734031D01*
X32310740Y-117018275D01*
X32322393Y-117035461D01*
X32322392Y-117035461D01*
X32558162Y-117313030D01*
X32822545Y-117563468D01*
X32822560Y-117563481D01*
X33112485Y-117783876D01*
X33424540Y-117971634D01*
X33544228Y-118027007D01*
X33755053Y-118124546D01*
X33755065Y-118124551D01*
X34100186Y-118240836D01*
X34455857Y-118319125D01*
X34817907Y-118358500D01*
X34817915Y-118358500D01*
X35182085Y-118358500D01*
X35182093Y-118358500D01*
X35544143Y-118319125D01*
X35899814Y-118240836D01*
X36244935Y-118124551D01*
X36575460Y-117971634D01*
X36887515Y-117783876D01*
X37177440Y-117563481D01*
X37179095Y-117561914D01*
X37232258Y-117511554D01*
X37441837Y-117313031D01*
X37677606Y-117035463D01*
X37881982Y-116734031D01*
X38052569Y-116412269D01*
X38187368Y-116073949D01*
X38284798Y-115723039D01*
X38343716Y-115363651D01*
X38363433Y-115000000D01*
X38353156Y-114810454D01*
X65797718Y-114810454D01*
X65807790Y-115021903D01*
X65807792Y-115021916D01*
X65857700Y-115227638D01*
X65857702Y-115227644D01*
X65945644Y-115420211D01*
X65945648Y-115420218D01*
X66068435Y-115592648D01*
X66068439Y-115592653D01*
X66068441Y-115592655D01*
X66221654Y-115738743D01*
X66399746Y-115853196D01*
X66596279Y-115931876D01*
X66804151Y-115971940D01*
X66804155Y-115971940D01*
X67762801Y-115971940D01*
X67762803Y-115971940D01*
X67920739Y-115956859D01*
X68123862Y-115897217D01*
X68312026Y-115800211D01*
X68478432Y-115669348D01*
X68617065Y-115509358D01*
X68722913Y-115326022D01*
X68792153Y-115125967D01*
X68810264Y-115000002D01*
X68822281Y-114916425D01*
X68817233Y-114810454D01*
X91197718Y-114810454D01*
X91207790Y-115021903D01*
X91207792Y-115021916D01*
X91257700Y-115227638D01*
X91257702Y-115227644D01*
X91345644Y-115420211D01*
X91345648Y-115420218D01*
X91468435Y-115592648D01*
X91468439Y-115592653D01*
X91468441Y-115592655D01*
X91621654Y-115738743D01*
X91799746Y-115853196D01*
X91996279Y-115931876D01*
X92204151Y-115971940D01*
X92204155Y-115971940D01*
X93162801Y-115971940D01*
X93162803Y-115971940D01*
X93320739Y-115956859D01*
X93523862Y-115897217D01*
X93712026Y-115800211D01*
X93878432Y-115669348D01*
X94017065Y-115509358D01*
X94122913Y-115326022D01*
X94192153Y-115125967D01*
X94210264Y-115000002D01*
X96636567Y-115000002D01*
X96656284Y-115363651D01*
X96715200Y-115723034D01*
X96751340Y-115853196D01*
X96812632Y-116073949D01*
X96947431Y-116412269D01*
X97118018Y-116734031D01*
X97310740Y-117018275D01*
X97322393Y-117035461D01*
X97322392Y-117035461D01*
X97558162Y-117313030D01*
X97822545Y-117563468D01*
X97822560Y-117563481D01*
X98112485Y-117783876D01*
X98424540Y-117971634D01*
X98544228Y-118027007D01*
X98755053Y-118124546D01*
X98755065Y-118124551D01*
X99100186Y-118240836D01*
X99455857Y-118319125D01*
X99817907Y-118358500D01*
X99817915Y-118358500D01*
X100182085Y-118358500D01*
X100182093Y-118358500D01*
X100544143Y-118319125D01*
X100899814Y-118240836D01*
X101244935Y-118124551D01*
X101575460Y-117971634D01*
X101887515Y-117783876D01*
X102177440Y-117563481D01*
X102179095Y-117561914D01*
X102232258Y-117511554D01*
X102441837Y-117313031D01*
X102677606Y-117035463D01*
X102881982Y-116734031D01*
X103052569Y-116412269D01*
X103187368Y-116073949D01*
X103284798Y-115723039D01*
X103343716Y-115363651D01*
X103363433Y-115000000D01*
X103343716Y-114636349D01*
X103301982Y-114381780D01*
X103284799Y-114276965D01*
X103223874Y-114057534D01*
X103187368Y-113926051D01*
X103052569Y-113587731D01*
X102881982Y-113265969D01*
X102677606Y-112964537D01*
X102441837Y-112686969D01*
X102335214Y-112585970D01*
X102177454Y-112436531D01*
X102177439Y-112436518D01*
X102043818Y-112334942D01*
X101887515Y-112216124D01*
X101575460Y-112028366D01*
X101575454Y-112028363D01*
X101244946Y-111875453D01*
X101244934Y-111875448D01*
X100899823Y-111759167D01*
X100899822Y-111759166D01*
X100899814Y-111759164D01*
X100899809Y-111759162D01*
X100899806Y-111759162D01*
X100544159Y-111680878D01*
X100544146Y-111680875D01*
X100544143Y-111680875D01*
X100544140Y-111680874D01*
X100544131Y-111680873D01*
X100182100Y-111641500D01*
X100182093Y-111641500D01*
X99817907Y-111641500D01*
X99817899Y-111641500D01*
X99455868Y-111680873D01*
X99455840Y-111680878D01*
X99100193Y-111759162D01*
X99100176Y-111759167D01*
X98755065Y-111875448D01*
X98755053Y-111875453D01*
X98424545Y-112028363D01*
X98424538Y-112028367D01*
X98112487Y-112216122D01*
X97822560Y-112436518D01*
X97822545Y-112436531D01*
X97558162Y-112686969D01*
X97322393Y-112964538D01*
X97118017Y-113265969D01*
X97118015Y-113265973D01*
X96947430Y-113587733D01*
X96947426Y-113587742D01*
X96812632Y-113926050D01*
X96715200Y-114276965D01*
X96656284Y-114636348D01*
X96636567Y-114999997D01*
X96636567Y-115000002D01*
X94210264Y-115000002D01*
X94222281Y-114916425D01*
X94212209Y-114704976D01*
X94212208Y-114704971D01*
X94212208Y-114704966D01*
X94162298Y-114499236D01*
X94074356Y-114306669D01*
X94074353Y-114306665D01*
X94074351Y-114306661D01*
X93951564Y-114134231D01*
X93951555Y-114134221D01*
X93924321Y-114108254D01*
X93798346Y-113988137D01*
X93701738Y-113926051D01*
X93620254Y-113873684D01*
X93510295Y-113829663D01*
X93423721Y-113795004D01*
X93423720Y-113795003D01*
X93423718Y-113795003D01*
X93215853Y-113754940D01*
X93215849Y-113754940D01*
X92257197Y-113754940D01*
X92257195Y-113754940D01*
X92257177Y-113754941D01*
X92099271Y-113770019D01*
X92099256Y-113770022D01*
X91896135Y-113829663D01*
X91707976Y-113926667D01*
X91541564Y-114057534D01*
X91402938Y-114217517D01*
X91402930Y-114217528D01*
X91297089Y-114400852D01*
X91297086Y-114400859D01*
X91227848Y-114600909D01*
X91227845Y-114600920D01*
X91197718Y-114810454D01*
X68817233Y-114810454D01*
X68812209Y-114704976D01*
X68812208Y-114704971D01*
X68812208Y-114704966D01*
X68762298Y-114499236D01*
X68674356Y-114306669D01*
X68674353Y-114306665D01*
X68674351Y-114306661D01*
X68551564Y-114134231D01*
X68551555Y-114134221D01*
X68524321Y-114108254D01*
X68398346Y-113988137D01*
X68301738Y-113926051D01*
X68220254Y-113873684D01*
X68110295Y-113829663D01*
X68023721Y-113795004D01*
X68023720Y-113795003D01*
X68023718Y-113795003D01*
X67815853Y-113754940D01*
X67815849Y-113754940D01*
X66857197Y-113754940D01*
X66857195Y-113754940D01*
X66857177Y-113754941D01*
X66699271Y-113770019D01*
X66699256Y-113770022D01*
X66496135Y-113829663D01*
X66307976Y-113926667D01*
X66141564Y-114057534D01*
X66002938Y-114217517D01*
X66002930Y-114217528D01*
X65897089Y-114400852D01*
X65897086Y-114400859D01*
X65827848Y-114600909D01*
X65827845Y-114600920D01*
X65797718Y-114810454D01*
X38353156Y-114810454D01*
X38343716Y-114636349D01*
X38301982Y-114381780D01*
X38284799Y-114276965D01*
X38223874Y-114057534D01*
X38187368Y-113926051D01*
X38052569Y-113587731D01*
X37881982Y-113265969D01*
X37677606Y-112964537D01*
X37441837Y-112686969D01*
X37335214Y-112585970D01*
X37177454Y-112436531D01*
X37177439Y-112436518D01*
X37043818Y-112334942D01*
X36958985Y-112270454D01*
X65797718Y-112270454D01*
X65807790Y-112481903D01*
X65807792Y-112481916D01*
X65857700Y-112687638D01*
X65857702Y-112687644D01*
X65945644Y-112880211D01*
X65945648Y-112880218D01*
X66068435Y-113052648D01*
X66068439Y-113052653D01*
X66068441Y-113052655D01*
X66221654Y-113198743D01*
X66399746Y-113313196D01*
X66596279Y-113391876D01*
X66804151Y-113431940D01*
X66804155Y-113431940D01*
X67762801Y-113431940D01*
X67762803Y-113431940D01*
X67920739Y-113416859D01*
X68123862Y-113357217D01*
X68312026Y-113260211D01*
X68478432Y-113129348D01*
X68617065Y-112969358D01*
X68722913Y-112786022D01*
X68792153Y-112585967D01*
X68822281Y-112376424D01*
X68817233Y-112270454D01*
X91197718Y-112270454D01*
X91207790Y-112481903D01*
X91207792Y-112481916D01*
X91257700Y-112687638D01*
X91257702Y-112687644D01*
X91345644Y-112880211D01*
X91345648Y-112880218D01*
X91468435Y-113052648D01*
X91468439Y-113052653D01*
X91468441Y-113052655D01*
X91621654Y-113198743D01*
X91799746Y-113313196D01*
X91996279Y-113391876D01*
X92204151Y-113431940D01*
X92204155Y-113431940D01*
X93162801Y-113431940D01*
X93162803Y-113431940D01*
X93320739Y-113416859D01*
X93523862Y-113357217D01*
X93712026Y-113260211D01*
X93878432Y-113129348D01*
X94017065Y-112969358D01*
X94122913Y-112786022D01*
X94192153Y-112585967D01*
X94222281Y-112376424D01*
X94214645Y-112216122D01*
X94212209Y-112164976D01*
X94212208Y-112164971D01*
X94212208Y-112164966D01*
X94162298Y-111959236D01*
X94074356Y-111766669D01*
X94074353Y-111766665D01*
X94074351Y-111766661D01*
X93951564Y-111594231D01*
X93951555Y-111594221D01*
X93924321Y-111568254D01*
X93798346Y-111448137D01*
X93620254Y-111333684D01*
X93423721Y-111255004D01*
X93423720Y-111255003D01*
X93423718Y-111255003D01*
X93215853Y-111214940D01*
X93215849Y-111214940D01*
X92257197Y-111214940D01*
X92257195Y-111214940D01*
X92257177Y-111214941D01*
X92099271Y-111230019D01*
X92099256Y-111230022D01*
X91896135Y-111289663D01*
X91707976Y-111386667D01*
X91541564Y-111517534D01*
X91402938Y-111677517D01*
X91402930Y-111677528D01*
X91297089Y-111860852D01*
X91297086Y-111860859D01*
X91227848Y-112060909D01*
X91227845Y-112060920D01*
X91197718Y-112270454D01*
X68817233Y-112270454D01*
X68814645Y-112216122D01*
X68812209Y-112164976D01*
X68812208Y-112164971D01*
X68812208Y-112164966D01*
X68762298Y-111959236D01*
X68674356Y-111766669D01*
X68674353Y-111766665D01*
X68674351Y-111766661D01*
X68551564Y-111594231D01*
X68551555Y-111594221D01*
X68524321Y-111568254D01*
X68398346Y-111448137D01*
X68220254Y-111333684D01*
X68023721Y-111255004D01*
X68023720Y-111255003D01*
X68023718Y-111255003D01*
X67815853Y-111214940D01*
X67815849Y-111214940D01*
X66857197Y-111214940D01*
X66857195Y-111214940D01*
X66857177Y-111214941D01*
X66699271Y-111230019D01*
X66699256Y-111230022D01*
X66496135Y-111289663D01*
X66307976Y-111386667D01*
X66141564Y-111517534D01*
X66002938Y-111677517D01*
X66002930Y-111677528D01*
X65897089Y-111860852D01*
X65897086Y-111860859D01*
X65827848Y-112060909D01*
X65827845Y-112060920D01*
X65797718Y-112270454D01*
X36958985Y-112270454D01*
X36887515Y-112216124D01*
X36575460Y-112028366D01*
X36575454Y-112028363D01*
X36244946Y-111875453D01*
X36244934Y-111875448D01*
X35899823Y-111759167D01*
X35899822Y-111759166D01*
X35899814Y-111759164D01*
X35899809Y-111759162D01*
X35899806Y-111759162D01*
X35544159Y-111680878D01*
X35544146Y-111680875D01*
X35544143Y-111680875D01*
X35544140Y-111680874D01*
X35544131Y-111680873D01*
X35182100Y-111641500D01*
X35182093Y-111641500D01*
X34817907Y-111641500D01*
X34817899Y-111641500D01*
X34455868Y-111680873D01*
X34455840Y-111680878D01*
X34100193Y-111759162D01*
X34100176Y-111759167D01*
X33755065Y-111875448D01*
X33755053Y-111875453D01*
X33424545Y-112028363D01*
X33424538Y-112028367D01*
X33112487Y-112216122D01*
X32822560Y-112436518D01*
X32822545Y-112436531D01*
X32558162Y-112686969D01*
X32322393Y-112964538D01*
X32118017Y-113265969D01*
X32118015Y-113265973D01*
X31947430Y-113587733D01*
X31947426Y-113587742D01*
X31812632Y-113926050D01*
X31715200Y-114276965D01*
X31656284Y-114636348D01*
X31636567Y-114999997D01*
X31636567Y-115000002D01*
X30025500Y-115000002D01*
X30025500Y-111251999D01*
X47219496Y-111251999D01*
X47239457Y-111441927D01*
X47241475Y-111448137D01*
X47298473Y-111623556D01*
X47298476Y-111623561D01*
X47393958Y-111788941D01*
X47393965Y-111788951D01*
X47521744Y-111930864D01*
X47521747Y-111930866D01*
X47676248Y-112043118D01*
X47850712Y-112120794D01*
X48037513Y-112160500D01*
X48228487Y-112160500D01*
X48415288Y-112120794D01*
X48589752Y-112043118D01*
X48744253Y-111930866D01*
X48807288Y-111860859D01*
X48872034Y-111788951D01*
X48872035Y-111788949D01*
X48872040Y-111788944D01*
X48967527Y-111623556D01*
X49026542Y-111441928D01*
X49046504Y-111252000D01*
X49026542Y-111062072D01*
X48967527Y-110880444D01*
X48872040Y-110715056D01*
X48872038Y-110715054D01*
X48872034Y-110715048D01*
X48744255Y-110573135D01*
X48589752Y-110460882D01*
X48415288Y-110383206D01*
X48228487Y-110343500D01*
X48037513Y-110343500D01*
X47850711Y-110383206D01*
X47676247Y-110460882D01*
X47521744Y-110573135D01*
X47393965Y-110715048D01*
X47393958Y-110715058D01*
X47300542Y-110876860D01*
X47298473Y-110880444D01*
X47294738Y-110891939D01*
X47239457Y-111062072D01*
X47219496Y-111251999D01*
X30025500Y-111251999D01*
X30025500Y-109730454D01*
X65797718Y-109730454D01*
X65807790Y-109941903D01*
X65807792Y-109941916D01*
X65857700Y-110147638D01*
X65857702Y-110147644D01*
X65945644Y-110340211D01*
X65945648Y-110340218D01*
X66068435Y-110512648D01*
X66068439Y-110512653D01*
X66068441Y-110512655D01*
X66221654Y-110658743D01*
X66399746Y-110773196D01*
X66596279Y-110851876D01*
X66804151Y-110891940D01*
X66804155Y-110891940D01*
X67762801Y-110891940D01*
X67762803Y-110891940D01*
X67920739Y-110876859D01*
X68123862Y-110817217D01*
X68312026Y-110720211D01*
X68478432Y-110589348D01*
X68617065Y-110429358D01*
X68722913Y-110246022D01*
X68792153Y-110045967D01*
X68822281Y-109836424D01*
X68817233Y-109730454D01*
X91197718Y-109730454D01*
X91207790Y-109941903D01*
X91207792Y-109941916D01*
X91257700Y-110147638D01*
X91257702Y-110147644D01*
X91345644Y-110340211D01*
X91345648Y-110340218D01*
X91468435Y-110512648D01*
X91468439Y-110512653D01*
X91468441Y-110512655D01*
X91621654Y-110658743D01*
X91799746Y-110773196D01*
X91996279Y-110851876D01*
X92204151Y-110891940D01*
X92204155Y-110891940D01*
X93162801Y-110891940D01*
X93162803Y-110891940D01*
X93320739Y-110876859D01*
X93523862Y-110817217D01*
X93712026Y-110720211D01*
X93878432Y-110589348D01*
X94017065Y-110429358D01*
X94122913Y-110246022D01*
X94192153Y-110045967D01*
X94222281Y-109836424D01*
X94217233Y-109730454D01*
X94212209Y-109624976D01*
X94212208Y-109624971D01*
X94212208Y-109624966D01*
X94162298Y-109419236D01*
X94074356Y-109226669D01*
X94074353Y-109226665D01*
X94074351Y-109226661D01*
X93951564Y-109054231D01*
X93951555Y-109054221D01*
X93924321Y-109028254D01*
X93798346Y-108908137D01*
X93620254Y-108793684D01*
X93423721Y-108715004D01*
X93423720Y-108715003D01*
X93423718Y-108715003D01*
X93215853Y-108674940D01*
X93215849Y-108674940D01*
X92257197Y-108674940D01*
X92257195Y-108674940D01*
X92257177Y-108674941D01*
X92099271Y-108690019D01*
X92099256Y-108690022D01*
X91896135Y-108749663D01*
X91707976Y-108846667D01*
X91541564Y-108977534D01*
X91402938Y-109137517D01*
X91402930Y-109137528D01*
X91297089Y-109320852D01*
X91297086Y-109320859D01*
X91227848Y-109520909D01*
X91227845Y-109520920D01*
X91197718Y-109730454D01*
X68817233Y-109730454D01*
X68812209Y-109624976D01*
X68812208Y-109624971D01*
X68812208Y-109624966D01*
X68762298Y-109419236D01*
X68674356Y-109226669D01*
X68674353Y-109226665D01*
X68674351Y-109226661D01*
X68551564Y-109054231D01*
X68551555Y-109054221D01*
X68524321Y-109028254D01*
X68398346Y-108908137D01*
X68220254Y-108793684D01*
X68023721Y-108715004D01*
X68023720Y-108715003D01*
X68023718Y-108715003D01*
X67815853Y-108674940D01*
X67815849Y-108674940D01*
X66857197Y-108674940D01*
X66857195Y-108674940D01*
X66857177Y-108674941D01*
X66699271Y-108690019D01*
X66699256Y-108690022D01*
X66496135Y-108749663D01*
X66307976Y-108846667D01*
X66141564Y-108977534D01*
X66002938Y-109137517D01*
X66002930Y-109137528D01*
X65897089Y-109320852D01*
X65897086Y-109320859D01*
X65827848Y-109520909D01*
X65827845Y-109520920D01*
X65797718Y-109730454D01*
X30025500Y-109730454D01*
X30025500Y-106762499D01*
X36019454Y-106762499D01*
X36039613Y-107044364D01*
X36071394Y-107190456D01*
X36099680Y-107320484D01*
X36148409Y-107451134D01*
X36198431Y-107585248D01*
X36198433Y-107585252D01*
X36333857Y-107833261D01*
X36503200Y-108059479D01*
X36503208Y-108059488D01*
X36703011Y-108259291D01*
X36703020Y-108259299D01*
X36806626Y-108336857D01*
X36929236Y-108428641D01*
X37177251Y-108564068D01*
X37442016Y-108662820D01*
X37718139Y-108722887D01*
X37929447Y-108738000D01*
X37929453Y-108738000D01*
X38070547Y-108738000D01*
X38070553Y-108738000D01*
X38281861Y-108722887D01*
X38557984Y-108662820D01*
X38822749Y-108564068D01*
X39070764Y-108428641D01*
X39296982Y-108259297D01*
X39496797Y-108059482D01*
X39666141Y-107833264D01*
X39801568Y-107585249D01*
X39900320Y-107320484D01*
X39928606Y-107190454D01*
X65797718Y-107190454D01*
X65807790Y-107401903D01*
X65807792Y-107401916D01*
X65857700Y-107607638D01*
X65857702Y-107607644D01*
X65945644Y-107800211D01*
X65945648Y-107800218D01*
X66068435Y-107972648D01*
X66068439Y-107972653D01*
X66068441Y-107972655D01*
X66221654Y-108118743D01*
X66399746Y-108233196D01*
X66596279Y-108311876D01*
X66804151Y-108351940D01*
X66804155Y-108351940D01*
X67762801Y-108351940D01*
X67762803Y-108351940D01*
X67920739Y-108336859D01*
X68123862Y-108277217D01*
X68312026Y-108180211D01*
X68478432Y-108049348D01*
X68617065Y-107889358D01*
X68722913Y-107706022D01*
X68792153Y-107505967D01*
X68822281Y-107296424D01*
X68817233Y-107190454D01*
X91197718Y-107190454D01*
X91207790Y-107401903D01*
X91207792Y-107401916D01*
X91257700Y-107607638D01*
X91257702Y-107607644D01*
X91345644Y-107800211D01*
X91345648Y-107800218D01*
X91468435Y-107972648D01*
X91468439Y-107972653D01*
X91468441Y-107972655D01*
X91621654Y-108118743D01*
X91799746Y-108233196D01*
X91996279Y-108311876D01*
X92204151Y-108351940D01*
X92204155Y-108351940D01*
X93162801Y-108351940D01*
X93162803Y-108351940D01*
X93320739Y-108336859D01*
X93523862Y-108277217D01*
X93712026Y-108180211D01*
X93878432Y-108049348D01*
X94017065Y-107889358D01*
X94122913Y-107706022D01*
X94192153Y-107505967D01*
X94222281Y-107296424D01*
X94217233Y-107190454D01*
X94212209Y-107084976D01*
X94212208Y-107084971D01*
X94212208Y-107084966D01*
X94162298Y-106879236D01*
X94074356Y-106686669D01*
X94074353Y-106686665D01*
X94074351Y-106686661D01*
X93951564Y-106514231D01*
X93951555Y-106514221D01*
X93916331Y-106480635D01*
X93798346Y-106368137D01*
X93721109Y-106318500D01*
X93620254Y-106253684D01*
X93497438Y-106204516D01*
X93423721Y-106175004D01*
X93423720Y-106175003D01*
X93423718Y-106175003D01*
X93215853Y-106134940D01*
X93215849Y-106134940D01*
X92257197Y-106134940D01*
X92257195Y-106134940D01*
X92257177Y-106134941D01*
X92099271Y-106150019D01*
X92099256Y-106150022D01*
X91896135Y-106209663D01*
X91707976Y-106306667D01*
X91541564Y-106437534D01*
X91402938Y-106597517D01*
X91402930Y-106597528D01*
X91297089Y-106780852D01*
X91297086Y-106780859D01*
X91227848Y-106980909D01*
X91227845Y-106980920D01*
X91197718Y-107190454D01*
X68817233Y-107190454D01*
X68812209Y-107084976D01*
X68812208Y-107084971D01*
X68812208Y-107084966D01*
X68762298Y-106879236D01*
X68674356Y-106686669D01*
X68674353Y-106686665D01*
X68674351Y-106686661D01*
X68551564Y-106514231D01*
X68551555Y-106514221D01*
X68516331Y-106480635D01*
X68398346Y-106368137D01*
X68321109Y-106318500D01*
X68220254Y-106253684D01*
X68097438Y-106204516D01*
X68023721Y-106175004D01*
X68023720Y-106175003D01*
X68023718Y-106175003D01*
X67815853Y-106134940D01*
X67815849Y-106134940D01*
X66857197Y-106134940D01*
X66857195Y-106134940D01*
X66857177Y-106134941D01*
X66699271Y-106150019D01*
X66699256Y-106150022D01*
X66496135Y-106209663D01*
X66307976Y-106306667D01*
X66141564Y-106437534D01*
X66002938Y-106597517D01*
X66002930Y-106597528D01*
X65897089Y-106780852D01*
X65897086Y-106780859D01*
X65827848Y-106980909D01*
X65827845Y-106980920D01*
X65797718Y-107190454D01*
X39928606Y-107190454D01*
X39960387Y-107044361D01*
X39980546Y-106762500D01*
X39960387Y-106480639D01*
X39900320Y-106204516D01*
X39801568Y-105939751D01*
X39666141Y-105691736D01*
X39529608Y-105509348D01*
X39496799Y-105465520D01*
X39496791Y-105465511D01*
X39296988Y-105265708D01*
X39296979Y-105265700D01*
X39070761Y-105096357D01*
X38822752Y-104960933D01*
X38822748Y-104960931D01*
X38688634Y-104910909D01*
X38557984Y-104862180D01*
X38557980Y-104862179D01*
X38557977Y-104862178D01*
X38281863Y-104802113D01*
X38281864Y-104802113D01*
X38211424Y-104797075D01*
X38070553Y-104787000D01*
X37929447Y-104787000D01*
X37802662Y-104796067D01*
X37718135Y-104802113D01*
X37442022Y-104862178D01*
X37442017Y-104862179D01*
X37442016Y-104862180D01*
X37412851Y-104873058D01*
X37177251Y-104960931D01*
X37177247Y-104960933D01*
X36929238Y-105096357D01*
X36703020Y-105265700D01*
X36703011Y-105265708D01*
X36503208Y-105465511D01*
X36503200Y-105465520D01*
X36333857Y-105691738D01*
X36198433Y-105939747D01*
X36198431Y-105939751D01*
X36142816Y-106088864D01*
X36100948Y-106201118D01*
X36099678Y-106204522D01*
X36039613Y-106480635D01*
X36019454Y-106762499D01*
X30025500Y-106762499D01*
X30025500Y-101492000D01*
X39835888Y-101492000D01*
X39838121Y-101517522D01*
X39854303Y-101702484D01*
X39908986Y-101906565D01*
X39908988Y-101906569D01*
X39998281Y-102098059D01*
X40119461Y-102271122D01*
X40119470Y-102271133D01*
X40268241Y-102419904D01*
X40302267Y-102482216D01*
X40297202Y-102553031D01*
X40268242Y-102598094D01*
X40121465Y-102744872D01*
X40121461Y-102744877D01*
X40000281Y-102917940D01*
X39910988Y-103109430D01*
X39910986Y-103109434D01*
X39856303Y-103313515D01*
X39837888Y-103524000D01*
X39856303Y-103734484D01*
X39910986Y-103938565D01*
X39910988Y-103938569D01*
X40000281Y-104130059D01*
X40121461Y-104303122D01*
X40121465Y-104303127D01*
X40121468Y-104303131D01*
X40270869Y-104452532D01*
X40270873Y-104452535D01*
X40270877Y-104452538D01*
X40443940Y-104573718D01*
X40443943Y-104573719D01*
X40443944Y-104573720D01*
X40635433Y-104663013D01*
X40839519Y-104717697D01*
X41050000Y-104736112D01*
X41260481Y-104717697D01*
X41464567Y-104663013D01*
X41656056Y-104573720D01*
X41674230Y-104560994D01*
X41741502Y-104538307D01*
X41810363Y-104555591D01*
X41858947Y-104607361D01*
X41872500Y-104664208D01*
X41872500Y-105287649D01*
X41879009Y-105348196D01*
X41879011Y-105348204D01*
X41930110Y-105485202D01*
X41930112Y-105485207D01*
X42017738Y-105602261D01*
X42134792Y-105689887D01*
X42134794Y-105689888D01*
X42134796Y-105689889D01*
X42193875Y-105711924D01*
X42271795Y-105740988D01*
X42271803Y-105740990D01*
X42332350Y-105747499D01*
X42332355Y-105747499D01*
X42332362Y-105747500D01*
X42332368Y-105747500D01*
X43827632Y-105747500D01*
X43827638Y-105747500D01*
X43827645Y-105747499D01*
X43827649Y-105747499D01*
X43888196Y-105740990D01*
X43888199Y-105740989D01*
X43888201Y-105740989D01*
X44025204Y-105689889D01*
X44142261Y-105602261D01*
X44229889Y-105485204D01*
X44257939Y-105410000D01*
X61824496Y-105410000D01*
X61844457Y-105599927D01*
X61857547Y-105640212D01*
X61903473Y-105781556D01*
X61903476Y-105781561D01*
X61998958Y-105946941D01*
X61998965Y-105946951D01*
X62126744Y-106088864D01*
X62126747Y-106088866D01*
X62281248Y-106201118D01*
X62455712Y-106278794D01*
X62642513Y-106318500D01*
X62833487Y-106318500D01*
X63020288Y-106278794D01*
X63194752Y-106201118D01*
X63349253Y-106088866D01*
X63477040Y-105946944D01*
X63572527Y-105781556D01*
X63631542Y-105599928D01*
X63651504Y-105410000D01*
X63631542Y-105220072D01*
X63572527Y-105038444D01*
X63477040Y-104873056D01*
X63477038Y-104873054D01*
X63477034Y-104873048D01*
X63349255Y-104731135D01*
X63238207Y-104650454D01*
X65797718Y-104650454D01*
X65807790Y-104861903D01*
X65807792Y-104861916D01*
X65857700Y-105067638D01*
X65857702Y-105067644D01*
X65945644Y-105260211D01*
X65945648Y-105260218D01*
X66068435Y-105432648D01*
X66068439Y-105432653D01*
X66068441Y-105432655D01*
X66221654Y-105578743D01*
X66399746Y-105693196D01*
X66596279Y-105771876D01*
X66804151Y-105811940D01*
X66804155Y-105811940D01*
X67762801Y-105811940D01*
X67762803Y-105811940D01*
X67920739Y-105796859D01*
X68123862Y-105737217D01*
X68312026Y-105640211D01*
X68478432Y-105509348D01*
X68499351Y-105485207D01*
X68564518Y-105410000D01*
X68617065Y-105349358D01*
X68722913Y-105166022D01*
X68792153Y-104965967D01*
X68822281Y-104756424D01*
X68817233Y-104650454D01*
X91197718Y-104650454D01*
X91207790Y-104861903D01*
X91207792Y-104861916D01*
X91257700Y-105067638D01*
X91257702Y-105067644D01*
X91345644Y-105260211D01*
X91345648Y-105260218D01*
X91468435Y-105432648D01*
X91468439Y-105432653D01*
X91468441Y-105432655D01*
X91621654Y-105578743D01*
X91799746Y-105693196D01*
X91996279Y-105771876D01*
X92204151Y-105811940D01*
X92204155Y-105811940D01*
X93162801Y-105811940D01*
X93162803Y-105811940D01*
X93320739Y-105796859D01*
X93523862Y-105737217D01*
X93712026Y-105640211D01*
X93878432Y-105509348D01*
X93899351Y-105485207D01*
X93964518Y-105410000D01*
X94017065Y-105349358D01*
X94122913Y-105166022D01*
X94192153Y-104965967D01*
X94222281Y-104756424D01*
X94215729Y-104618882D01*
X94212209Y-104544976D01*
X94212208Y-104544971D01*
X94212208Y-104544966D01*
X94162298Y-104339236D01*
X94074356Y-104146669D01*
X94074353Y-104146665D01*
X94074351Y-104146661D01*
X93951564Y-103974231D01*
X93951555Y-103974221D01*
X93914160Y-103938565D01*
X93798346Y-103828137D01*
X93742660Y-103792350D01*
X93620254Y-103713684D01*
X93510295Y-103669663D01*
X93423721Y-103635004D01*
X93423720Y-103635003D01*
X93423718Y-103635003D01*
X93215853Y-103594940D01*
X93215849Y-103594940D01*
X92257197Y-103594940D01*
X92257195Y-103594940D01*
X92257177Y-103594941D01*
X92099271Y-103610019D01*
X92099256Y-103610022D01*
X91896135Y-103669663D01*
X91707976Y-103766667D01*
X91541564Y-103897534D01*
X91402938Y-104057517D01*
X91402930Y-104057528D01*
X91297089Y-104240852D01*
X91297086Y-104240859D01*
X91227848Y-104440909D01*
X91227845Y-104440920D01*
X91197718Y-104650454D01*
X68817233Y-104650454D01*
X68815729Y-104618882D01*
X68812209Y-104544976D01*
X68812208Y-104544971D01*
X68812208Y-104544966D01*
X68762298Y-104339236D01*
X68674356Y-104146669D01*
X68674353Y-104146665D01*
X68674351Y-104146661D01*
X68551564Y-103974231D01*
X68551555Y-103974221D01*
X68514160Y-103938565D01*
X68398346Y-103828137D01*
X68342660Y-103792350D01*
X68220254Y-103713684D01*
X68110295Y-103669663D01*
X68023721Y-103635004D01*
X68023720Y-103635003D01*
X68023718Y-103635003D01*
X67815853Y-103594940D01*
X67815849Y-103594940D01*
X66857197Y-103594940D01*
X66857195Y-103594940D01*
X66857177Y-103594941D01*
X66699271Y-103610019D01*
X66699256Y-103610022D01*
X66496135Y-103669663D01*
X66307976Y-103766667D01*
X66141564Y-103897534D01*
X66002938Y-104057517D01*
X66002930Y-104057528D01*
X65897089Y-104240852D01*
X65897086Y-104240859D01*
X65827848Y-104440909D01*
X65827845Y-104440920D01*
X65797718Y-104650454D01*
X63238207Y-104650454D01*
X63194752Y-104618882D01*
X63020288Y-104541206D01*
X62833487Y-104501500D01*
X62642513Y-104501500D01*
X62455711Y-104541206D01*
X62281247Y-104618882D01*
X62126744Y-104731135D01*
X61998965Y-104873048D01*
X61998958Y-104873058D01*
X61903476Y-105038438D01*
X61903473Y-105038445D01*
X61844457Y-105220072D01*
X61824496Y-105410000D01*
X44257939Y-105410000D01*
X44280556Y-105349362D01*
X44280988Y-105348204D01*
X44280990Y-105348196D01*
X44287499Y-105287649D01*
X44287500Y-105287632D01*
X44287500Y-103792367D01*
X44287499Y-103792350D01*
X44280990Y-103731803D01*
X44280988Y-103731795D01*
X44244886Y-103635004D01*
X44229889Y-103594796D01*
X44229888Y-103594794D01*
X44229887Y-103594792D01*
X44142261Y-103477738D01*
X44064673Y-103419657D01*
X44022126Y-103362821D01*
X44017061Y-103292006D01*
X44036969Y-103246518D01*
X44129720Y-103114056D01*
X44219013Y-102922567D01*
X44273697Y-102718481D01*
X44292112Y-102508000D01*
X44273697Y-102297519D01*
X44223574Y-102110454D01*
X65797718Y-102110454D01*
X65807790Y-102321903D01*
X65807792Y-102321916D01*
X65857700Y-102527638D01*
X65857702Y-102527644D01*
X65945644Y-102720211D01*
X65945648Y-102720218D01*
X66068435Y-102892648D01*
X66068439Y-102892653D01*
X66068441Y-102892655D01*
X66221654Y-103038743D01*
X66399746Y-103153196D01*
X66596279Y-103231876D01*
X66804151Y-103271940D01*
X66804155Y-103271940D01*
X67762801Y-103271940D01*
X67762803Y-103271940D01*
X67920739Y-103256859D01*
X68123862Y-103197217D01*
X68312026Y-103100211D01*
X68478432Y-102969348D01*
X68518967Y-102922569D01*
X68544893Y-102892648D01*
X68617065Y-102809358D01*
X68722913Y-102626022D01*
X68792153Y-102425967D01*
X68822281Y-102216424D01*
X68817233Y-102110454D01*
X91197718Y-102110454D01*
X91207790Y-102321903D01*
X91207792Y-102321916D01*
X91257700Y-102527638D01*
X91257702Y-102527644D01*
X91345644Y-102720211D01*
X91345648Y-102720218D01*
X91468435Y-102892648D01*
X91468439Y-102892653D01*
X91468441Y-102892655D01*
X91621654Y-103038743D01*
X91799746Y-103153196D01*
X91996279Y-103231876D01*
X92204151Y-103271940D01*
X92204155Y-103271940D01*
X93162801Y-103271940D01*
X93162803Y-103271940D01*
X93320739Y-103256859D01*
X93523862Y-103197217D01*
X93712026Y-103100211D01*
X93878432Y-102969348D01*
X93918967Y-102922569D01*
X93944893Y-102892648D01*
X94017065Y-102809358D01*
X94122913Y-102626022D01*
X94192153Y-102425967D01*
X94222281Y-102216424D01*
X94216643Y-102098059D01*
X94212209Y-102004976D01*
X94212208Y-102004971D01*
X94212208Y-102004966D01*
X94162298Y-101799236D01*
X94074356Y-101606669D01*
X94074353Y-101606665D01*
X94074351Y-101606661D01*
X93951564Y-101434231D01*
X93951555Y-101434221D01*
X93918709Y-101402903D01*
X93798346Y-101288137D01*
X93620254Y-101173684D01*
X93423721Y-101095004D01*
X93423720Y-101095003D01*
X93423718Y-101095003D01*
X93215853Y-101054940D01*
X93215849Y-101054940D01*
X92257197Y-101054940D01*
X92257195Y-101054940D01*
X92257177Y-101054941D01*
X92099271Y-101070019D01*
X92099256Y-101070022D01*
X91896135Y-101129663D01*
X91707976Y-101226667D01*
X91541564Y-101357534D01*
X91402938Y-101517517D01*
X91402930Y-101517528D01*
X91297089Y-101700852D01*
X91297086Y-101700859D01*
X91227848Y-101900909D01*
X91227845Y-101900920D01*
X91197718Y-102110454D01*
X68817233Y-102110454D01*
X68816643Y-102098059D01*
X68812209Y-102004976D01*
X68812208Y-102004971D01*
X68812208Y-102004966D01*
X68762298Y-101799236D01*
X68674356Y-101606669D01*
X68674353Y-101606665D01*
X68674351Y-101606661D01*
X68551564Y-101434231D01*
X68551555Y-101434221D01*
X68518709Y-101402903D01*
X68398346Y-101288137D01*
X68220254Y-101173684D01*
X68023721Y-101095004D01*
X68023720Y-101095003D01*
X68023718Y-101095003D01*
X67815853Y-101054940D01*
X67815849Y-101054940D01*
X66857197Y-101054940D01*
X66857195Y-101054940D01*
X66857177Y-101054941D01*
X66699271Y-101070019D01*
X66699256Y-101070022D01*
X66496135Y-101129663D01*
X66307976Y-101226667D01*
X66141564Y-101357534D01*
X66002938Y-101517517D01*
X66002930Y-101517528D01*
X65897089Y-101700852D01*
X65897086Y-101700859D01*
X65827848Y-101900909D01*
X65827845Y-101900920D01*
X65797718Y-102110454D01*
X44223574Y-102110454D01*
X44219013Y-102093433D01*
X44129720Y-101901944D01*
X44129719Y-101901943D01*
X44129718Y-101901940D01*
X44008538Y-101728877D01*
X44008534Y-101728872D01*
X44008532Y-101728869D01*
X43860756Y-101581094D01*
X43826732Y-101518782D01*
X43831797Y-101447966D01*
X43860754Y-101402908D01*
X44008532Y-101255131D01*
X44120654Y-101095004D01*
X44129718Y-101082059D01*
X44129718Y-101082058D01*
X44129720Y-101082056D01*
X44219013Y-100890567D01*
X44273697Y-100686481D01*
X44292112Y-100476000D01*
X44273697Y-100265519D01*
X44219013Y-100061433D01*
X44129720Y-99869944D01*
X44129719Y-99869943D01*
X44129718Y-99869940D01*
X44008538Y-99696877D01*
X44008535Y-99696873D01*
X44008532Y-99696869D01*
X43882117Y-99570454D01*
X65797718Y-99570454D01*
X65807790Y-99781903D01*
X65807792Y-99781916D01*
X65857700Y-99987638D01*
X65857702Y-99987644D01*
X65945644Y-100180211D01*
X65945648Y-100180218D01*
X66068435Y-100352648D01*
X66068439Y-100352653D01*
X66068441Y-100352655D01*
X66221654Y-100498743D01*
X66399746Y-100613196D01*
X66596279Y-100691876D01*
X66804151Y-100731940D01*
X66804155Y-100731940D01*
X67762801Y-100731940D01*
X67762803Y-100731940D01*
X67920739Y-100716859D01*
X68123862Y-100657217D01*
X68312026Y-100560211D01*
X68478432Y-100429348D01*
X68513800Y-100388532D01*
X68557870Y-100337672D01*
X68617065Y-100269358D01*
X68722913Y-100086022D01*
X68792153Y-99885967D01*
X68819340Y-99696877D01*
X68822281Y-99676425D01*
X68817233Y-99570454D01*
X91197718Y-99570454D01*
X91207790Y-99781903D01*
X91207792Y-99781916D01*
X91257700Y-99987638D01*
X91257702Y-99987644D01*
X91345644Y-100180211D01*
X91345648Y-100180218D01*
X91468435Y-100352648D01*
X91468439Y-100352653D01*
X91468441Y-100352655D01*
X91621654Y-100498743D01*
X91799746Y-100613196D01*
X91996279Y-100691876D01*
X92204151Y-100731940D01*
X92204155Y-100731940D01*
X93162801Y-100731940D01*
X93162803Y-100731940D01*
X93320739Y-100716859D01*
X93523862Y-100657217D01*
X93712026Y-100560211D01*
X93878432Y-100429348D01*
X93913800Y-100388532D01*
X93957870Y-100337672D01*
X94017065Y-100269358D01*
X94122913Y-100086022D01*
X94192153Y-99885967D01*
X94219340Y-99696877D01*
X94222281Y-99676425D01*
X94212209Y-99464976D01*
X94212208Y-99464971D01*
X94212208Y-99464966D01*
X94162298Y-99259236D01*
X94074356Y-99066669D01*
X94074353Y-99066665D01*
X94074351Y-99066661D01*
X93951564Y-98894231D01*
X93951555Y-98894221D01*
X93909309Y-98853940D01*
X93798346Y-98748137D01*
X93693670Y-98680866D01*
X93620254Y-98633684D01*
X93510295Y-98589663D01*
X93423721Y-98555004D01*
X93423720Y-98555003D01*
X93423718Y-98555003D01*
X93215853Y-98514940D01*
X93215849Y-98514940D01*
X92257197Y-98514940D01*
X92257195Y-98514940D01*
X92257177Y-98514941D01*
X92099271Y-98530019D01*
X92099256Y-98530022D01*
X91896135Y-98589663D01*
X91707976Y-98686667D01*
X91541564Y-98817534D01*
X91402938Y-98977517D01*
X91402930Y-98977528D01*
X91297089Y-99160852D01*
X91297086Y-99160859D01*
X91227848Y-99360909D01*
X91227845Y-99360920D01*
X91197718Y-99570454D01*
X68817233Y-99570454D01*
X68812209Y-99464976D01*
X68812208Y-99464971D01*
X68812208Y-99464966D01*
X68762298Y-99259236D01*
X68674356Y-99066669D01*
X68674353Y-99066665D01*
X68674351Y-99066661D01*
X68551564Y-98894231D01*
X68551555Y-98894221D01*
X68509309Y-98853940D01*
X68398346Y-98748137D01*
X68293670Y-98680866D01*
X68220254Y-98633684D01*
X68110295Y-98589663D01*
X68023721Y-98555004D01*
X68023720Y-98555003D01*
X68023718Y-98555003D01*
X67815853Y-98514940D01*
X67815849Y-98514940D01*
X66857197Y-98514940D01*
X66857195Y-98514940D01*
X66857177Y-98514941D01*
X66699271Y-98530019D01*
X66699256Y-98530022D01*
X66496135Y-98589663D01*
X66307976Y-98686667D01*
X66141564Y-98817534D01*
X66002938Y-98977517D01*
X66002930Y-98977528D01*
X65897089Y-99160852D01*
X65897086Y-99160859D01*
X65827848Y-99360909D01*
X65827845Y-99360920D01*
X65797718Y-99570454D01*
X43882117Y-99570454D01*
X43859131Y-99547468D01*
X43859127Y-99547465D01*
X43859122Y-99547461D01*
X43686059Y-99426281D01*
X43494569Y-99336988D01*
X43494565Y-99336986D01*
X43290484Y-99282303D01*
X43132620Y-99268491D01*
X43080000Y-99263888D01*
X43079999Y-99263888D01*
X42869515Y-99282303D01*
X42665434Y-99336986D01*
X42665430Y-99336988D01*
X42473941Y-99426281D01*
X42450328Y-99442815D01*
X42383054Y-99465502D01*
X42314194Y-99448216D01*
X42265610Y-99396446D01*
X42252539Y-99350587D01*
X42243697Y-99249519D01*
X42189013Y-99045433D01*
X42099720Y-98853944D01*
X42099719Y-98853943D01*
X42099718Y-98853940D01*
X41978538Y-98680877D01*
X41978535Y-98680873D01*
X41978532Y-98680869D01*
X41829131Y-98531468D01*
X41829127Y-98531465D01*
X41829122Y-98531461D01*
X41656059Y-98410281D01*
X41464569Y-98320988D01*
X41464565Y-98320986D01*
X41260484Y-98266303D01*
X41050000Y-98247888D01*
X40839515Y-98266303D01*
X40635434Y-98320986D01*
X40635430Y-98320988D01*
X40443940Y-98410281D01*
X40270877Y-98531461D01*
X40270866Y-98531470D01*
X40121470Y-98680866D01*
X40121461Y-98680877D01*
X40000281Y-98853940D01*
X39910988Y-99045430D01*
X39910986Y-99045434D01*
X39856303Y-99249515D01*
X39837888Y-99460000D01*
X39856303Y-99670484D01*
X39910986Y-99874565D01*
X39910988Y-99874569D01*
X40000281Y-100066059D01*
X40121461Y-100239122D01*
X40121470Y-100239133D01*
X40268241Y-100385904D01*
X40302267Y-100448216D01*
X40297202Y-100519031D01*
X40268242Y-100564094D01*
X40119465Y-100712872D01*
X40119461Y-100712877D01*
X39998281Y-100885940D01*
X39908988Y-101077430D01*
X39908986Y-101077434D01*
X39854303Y-101281515D01*
X39835888Y-101491999D01*
X39835888Y-101492000D01*
X30025500Y-101492000D01*
X30025500Y-97237500D01*
X36019454Y-97237500D01*
X36039613Y-97519364D01*
X36099678Y-97795477D01*
X36099680Y-97795484D01*
X36148409Y-97926134D01*
X36198431Y-98060248D01*
X36198433Y-98060252D01*
X36333857Y-98308261D01*
X36503200Y-98534479D01*
X36503208Y-98534488D01*
X36703011Y-98734291D01*
X36703020Y-98734299D01*
X36721503Y-98748135D01*
X36929236Y-98903641D01*
X37177251Y-99039068D01*
X37442016Y-99137820D01*
X37718139Y-99197887D01*
X37929447Y-99213000D01*
X37929453Y-99213000D01*
X38070547Y-99213000D01*
X38070553Y-99213000D01*
X38281861Y-99197887D01*
X38557984Y-99137820D01*
X38822749Y-99039068D01*
X39070764Y-98903641D01*
X39296982Y-98734297D01*
X39496797Y-98534482D01*
X39666141Y-98308264D01*
X39801568Y-98060249D01*
X39900320Y-97795484D01*
X39960387Y-97519361D01*
X39980546Y-97237500D01*
X39965738Y-97030454D01*
X65797718Y-97030454D01*
X65807790Y-97241903D01*
X65807792Y-97241916D01*
X65857700Y-97447638D01*
X65857702Y-97447644D01*
X65945644Y-97640211D01*
X65945648Y-97640218D01*
X66068435Y-97812648D01*
X66068439Y-97812653D01*
X66068441Y-97812655D01*
X66221654Y-97958743D01*
X66399746Y-98073196D01*
X66596279Y-98151876D01*
X66804151Y-98191940D01*
X66804155Y-98191940D01*
X67762801Y-98191940D01*
X67762803Y-98191940D01*
X67920739Y-98176859D01*
X68123862Y-98117217D01*
X68312026Y-98020211D01*
X68478432Y-97889348D01*
X68617065Y-97729358D01*
X68722913Y-97546022D01*
X68792153Y-97345967D01*
X68822281Y-97136424D01*
X68817233Y-97030454D01*
X91197718Y-97030454D01*
X91207790Y-97241903D01*
X91207792Y-97241916D01*
X91257700Y-97447638D01*
X91257702Y-97447644D01*
X91345644Y-97640211D01*
X91345648Y-97640218D01*
X91468435Y-97812648D01*
X91468439Y-97812653D01*
X91468441Y-97812655D01*
X91621654Y-97958743D01*
X91799746Y-98073196D01*
X91996279Y-98151876D01*
X92204151Y-98191940D01*
X92204155Y-98191940D01*
X93162801Y-98191940D01*
X93162803Y-98191940D01*
X93320739Y-98176859D01*
X93523862Y-98117217D01*
X93712026Y-98020211D01*
X93878432Y-97889348D01*
X94017065Y-97729358D01*
X94122913Y-97546022D01*
X94192153Y-97345967D01*
X94222281Y-97136424D01*
X94217233Y-97030454D01*
X94212209Y-96924976D01*
X94212208Y-96924971D01*
X94212208Y-96924966D01*
X94162298Y-96719236D01*
X94074356Y-96526669D01*
X94074353Y-96526665D01*
X94074351Y-96526661D01*
X93951564Y-96354231D01*
X93951555Y-96354221D01*
X93924321Y-96328254D01*
X93798346Y-96208137D01*
X93620254Y-96093684D01*
X93423721Y-96015004D01*
X93423720Y-96015003D01*
X93423718Y-96015003D01*
X93215853Y-95974940D01*
X93215849Y-95974940D01*
X92257197Y-95974940D01*
X92257195Y-95974940D01*
X92257177Y-95974941D01*
X92099271Y-95990019D01*
X92099256Y-95990022D01*
X91896135Y-96049663D01*
X91707976Y-96146667D01*
X91541564Y-96277534D01*
X91402938Y-96437517D01*
X91402930Y-96437528D01*
X91297089Y-96620852D01*
X91297086Y-96620859D01*
X91227848Y-96820909D01*
X91227845Y-96820920D01*
X91197718Y-97030454D01*
X68817233Y-97030454D01*
X68812209Y-96924976D01*
X68812208Y-96924971D01*
X68812208Y-96924966D01*
X68762298Y-96719236D01*
X68674356Y-96526669D01*
X68674353Y-96526665D01*
X68674351Y-96526661D01*
X68551564Y-96354231D01*
X68551555Y-96354221D01*
X68524321Y-96328254D01*
X68398346Y-96208137D01*
X68220254Y-96093684D01*
X68023721Y-96015004D01*
X68023720Y-96015003D01*
X68023718Y-96015003D01*
X67815853Y-95974940D01*
X67815849Y-95974940D01*
X66857197Y-95974940D01*
X66857195Y-95974940D01*
X66857177Y-95974941D01*
X66699271Y-95990019D01*
X66699256Y-95990022D01*
X66496135Y-96049663D01*
X66307976Y-96146667D01*
X66141564Y-96277534D01*
X66002938Y-96437517D01*
X66002930Y-96437528D01*
X65897089Y-96620852D01*
X65897086Y-96620859D01*
X65827848Y-96820909D01*
X65827845Y-96820920D01*
X65797718Y-97030454D01*
X39965738Y-97030454D01*
X39960387Y-96955639D01*
X39900320Y-96679516D01*
X39801568Y-96414751D01*
X39768521Y-96354231D01*
X39666142Y-96166738D01*
X39651117Y-96146667D01*
X39533855Y-95990022D01*
X39496799Y-95940520D01*
X39496791Y-95940511D01*
X39296988Y-95740708D01*
X39296979Y-95740700D01*
X39070761Y-95571357D01*
X38822752Y-95435933D01*
X38822748Y-95435931D01*
X38688634Y-95385909D01*
X38557984Y-95337180D01*
X38557980Y-95337179D01*
X38557977Y-95337178D01*
X38281863Y-95277113D01*
X38281864Y-95277113D01*
X38211424Y-95272075D01*
X38070553Y-95262000D01*
X37929447Y-95262000D01*
X37802662Y-95271067D01*
X37718135Y-95277113D01*
X37442022Y-95337178D01*
X37442017Y-95337179D01*
X37442016Y-95337180D01*
X37409392Y-95349348D01*
X37177251Y-95435931D01*
X37177247Y-95435933D01*
X36929238Y-95571357D01*
X36703020Y-95740700D01*
X36703011Y-95740708D01*
X36503208Y-95940511D01*
X36503200Y-95940520D01*
X36333857Y-96166738D01*
X36198433Y-96414747D01*
X36198431Y-96414751D01*
X36099678Y-96679522D01*
X36039613Y-96955635D01*
X36019454Y-97237500D01*
X30025500Y-97237500D01*
X30025500Y-92762499D01*
X36019454Y-92762499D01*
X36039613Y-93044364D01*
X36090550Y-93278516D01*
X36099680Y-93320484D01*
X36142370Y-93434940D01*
X36198431Y-93585248D01*
X36198433Y-93585252D01*
X36333857Y-93833261D01*
X36503200Y-94059479D01*
X36503208Y-94059488D01*
X36703011Y-94259291D01*
X36703020Y-94259299D01*
X36778262Y-94315624D01*
X36929236Y-94428641D01*
X37177251Y-94564068D01*
X37442016Y-94662820D01*
X37718139Y-94722887D01*
X37929447Y-94738000D01*
X37929453Y-94738000D01*
X38070547Y-94738000D01*
X38070553Y-94738000D01*
X38281861Y-94722887D01*
X38557984Y-94662820D01*
X38822749Y-94564068D01*
X38940082Y-94499999D01*
X47586496Y-94499999D01*
X47606457Y-94689927D01*
X47630645Y-94764368D01*
X47665473Y-94871556D01*
X47665476Y-94871561D01*
X47760958Y-95036941D01*
X47760965Y-95036951D01*
X47888744Y-95178864D01*
X47902410Y-95188793D01*
X48043248Y-95291118D01*
X48217712Y-95368794D01*
X48404513Y-95408500D01*
X48595487Y-95408500D01*
X48782288Y-95368794D01*
X48956752Y-95291118D01*
X49111253Y-95178866D01*
X49239040Y-95036944D01*
X49334527Y-94871556D01*
X49393542Y-94689928D01*
X49413504Y-94500000D01*
X49412501Y-94490454D01*
X65797718Y-94490454D01*
X65807790Y-94701903D01*
X65807792Y-94701916D01*
X65857700Y-94907638D01*
X65857702Y-94907644D01*
X65945644Y-95100211D01*
X65945648Y-95100218D01*
X66068435Y-95272648D01*
X66068439Y-95272653D01*
X66068441Y-95272655D01*
X66221654Y-95418743D01*
X66399746Y-95533196D01*
X66596279Y-95611876D01*
X66804151Y-95651940D01*
X66804155Y-95651940D01*
X67762801Y-95651940D01*
X67762803Y-95651940D01*
X67920739Y-95636859D01*
X68123862Y-95577217D01*
X68312026Y-95480211D01*
X68478432Y-95349348D01*
X68488978Y-95337178D01*
X68554120Y-95262000D01*
X68617065Y-95189358D01*
X68722913Y-95006022D01*
X68792153Y-94805967D01*
X68808837Y-94689927D01*
X68822281Y-94596425D01*
X68817233Y-94490454D01*
X91197718Y-94490454D01*
X91207790Y-94701903D01*
X91207792Y-94701916D01*
X91257700Y-94907638D01*
X91257702Y-94907644D01*
X91345644Y-95100211D01*
X91345648Y-95100218D01*
X91468435Y-95272648D01*
X91468439Y-95272653D01*
X91468441Y-95272655D01*
X91621654Y-95418743D01*
X91799746Y-95533196D01*
X91996279Y-95611876D01*
X92204151Y-95651940D01*
X92204155Y-95651940D01*
X93162801Y-95651940D01*
X93162803Y-95651940D01*
X93320739Y-95636859D01*
X93523862Y-95577217D01*
X93712026Y-95480211D01*
X93878432Y-95349348D01*
X93888978Y-95337178D01*
X93954120Y-95262000D01*
X94017065Y-95189358D01*
X94122913Y-95006022D01*
X94192153Y-94805967D01*
X94208837Y-94689927D01*
X94222281Y-94596425D01*
X94219593Y-94540000D01*
X98886844Y-94540000D01*
X98897021Y-94662821D01*
X98905437Y-94764375D01*
X98960702Y-94982612D01*
X98960703Y-94982613D01*
X98960704Y-94982616D01*
X99012286Y-95100211D01*
X99051141Y-95188793D01*
X99174275Y-95377265D01*
X99174279Y-95377270D01*
X99326762Y-95542908D01*
X99363313Y-95571357D01*
X99504424Y-95681189D01*
X99702426Y-95788342D01*
X99702427Y-95788342D01*
X99702428Y-95788343D01*
X99814227Y-95826723D01*
X99915365Y-95861444D01*
X100137431Y-95898500D01*
X100137435Y-95898500D01*
X100362565Y-95898500D01*
X100362569Y-95898500D01*
X100584635Y-95861444D01*
X100797574Y-95788342D01*
X100995576Y-95681189D01*
X101173240Y-95542906D01*
X101325722Y-95377268D01*
X101448860Y-95188791D01*
X101539296Y-94982616D01*
X101594564Y-94764368D01*
X101613156Y-94540000D01*
X101594564Y-94315632D01*
X101580298Y-94259297D01*
X101539297Y-94097387D01*
X101539296Y-94097386D01*
X101539296Y-94097384D01*
X101448860Y-93891209D01*
X101411001Y-93833261D01*
X101325724Y-93702734D01*
X101325720Y-93702729D01*
X101173237Y-93537091D01*
X101041994Y-93434940D01*
X100995576Y-93398811D01*
X100962319Y-93380813D01*
X100911929Y-93330802D01*
X100896576Y-93261485D01*
X100921136Y-93194872D01*
X100962320Y-93159186D01*
X100995576Y-93141189D01*
X101173240Y-93002906D01*
X101325722Y-92837268D01*
X101448860Y-92648791D01*
X101539296Y-92442616D01*
X101594564Y-92224368D01*
X101613156Y-92000000D01*
X101594564Y-91775632D01*
X101560024Y-91639235D01*
X101539297Y-91557387D01*
X101539296Y-91557386D01*
X101539296Y-91557384D01*
X101448860Y-91351209D01*
X101398564Y-91274225D01*
X101325724Y-91162734D01*
X101325720Y-91162729D01*
X101173237Y-90997091D01*
X101041994Y-90894940D01*
X100995576Y-90858811D01*
X100961792Y-90840528D01*
X100911402Y-90790516D01*
X100896050Y-90721199D01*
X100920610Y-90654586D01*
X100961793Y-90618901D01*
X100995300Y-90600767D01*
X100995301Y-90600767D01*
X101172902Y-90462534D01*
X101325325Y-90296958D01*
X101448419Y-90108548D01*
X101538820Y-89902456D01*
X101538823Y-89902449D01*
X101586544Y-89714000D01*
X100681116Y-89714000D01*
X100709493Y-89669844D01*
X100750000Y-89531889D01*
X100750000Y-89388111D01*
X100709493Y-89250156D01*
X100681116Y-89206000D01*
X101586544Y-89206000D01*
X101586544Y-89205999D01*
X101538823Y-89017550D01*
X101538820Y-89017543D01*
X101448419Y-88811451D01*
X101325325Y-88623041D01*
X101182018Y-88467367D01*
X101150598Y-88403702D01*
X101158585Y-88333156D01*
X101203444Y-88278127D01*
X101230679Y-88263977D01*
X101346204Y-88220889D01*
X101463261Y-88133261D01*
X101550889Y-88016204D01*
X101601989Y-87879201D01*
X101604031Y-87860212D01*
X101608499Y-87818649D01*
X101608500Y-87818632D01*
X101608500Y-86021367D01*
X101608499Y-86021350D01*
X101601990Y-85960803D01*
X101601988Y-85960795D01*
X101572924Y-85882875D01*
X101550889Y-85823796D01*
X101550888Y-85823794D01*
X101550887Y-85823792D01*
X101463261Y-85706738D01*
X101346207Y-85619112D01*
X101346202Y-85619110D01*
X101209204Y-85568011D01*
X101209196Y-85568009D01*
X101148649Y-85561500D01*
X101148638Y-85561500D01*
X99351362Y-85561500D01*
X99351350Y-85561500D01*
X99290803Y-85568009D01*
X99290795Y-85568011D01*
X99153797Y-85619110D01*
X99153792Y-85619112D01*
X99036738Y-85706738D01*
X98949112Y-85823792D01*
X98949110Y-85823797D01*
X98898011Y-85960795D01*
X98898009Y-85960803D01*
X98891500Y-86021350D01*
X98891500Y-87818649D01*
X98898009Y-87879196D01*
X98898011Y-87879204D01*
X98949110Y-88016202D01*
X98949112Y-88016207D01*
X99036738Y-88133261D01*
X99153792Y-88220887D01*
X99153796Y-88220889D01*
X99269312Y-88263975D01*
X99326148Y-88306522D01*
X99350958Y-88373042D01*
X99335866Y-88442416D01*
X99317981Y-88467367D01*
X99174674Y-88623041D01*
X99051580Y-88811451D01*
X98961179Y-89017543D01*
X98961176Y-89017550D01*
X98913455Y-89205999D01*
X98913456Y-89206000D01*
X99818884Y-89206000D01*
X99790507Y-89250156D01*
X99750000Y-89388111D01*
X99750000Y-89531889D01*
X99790507Y-89669844D01*
X99818884Y-89714000D01*
X98913455Y-89714000D01*
X98961176Y-89902449D01*
X98961179Y-89902456D01*
X99051580Y-90108548D01*
X99174674Y-90296958D01*
X99327097Y-90462534D01*
X99504698Y-90600767D01*
X99504704Y-90600771D01*
X99538207Y-90618902D01*
X99588597Y-90668915D01*
X99603949Y-90738232D01*
X99579388Y-90804845D01*
X99538207Y-90840528D01*
X99504430Y-90858807D01*
X99504424Y-90858811D01*
X99326762Y-90997091D01*
X99174279Y-91162729D01*
X99174275Y-91162734D01*
X99051141Y-91351206D01*
X98960703Y-91557386D01*
X98960702Y-91557387D01*
X98905437Y-91775624D01*
X98905436Y-91775630D01*
X98905436Y-91775632D01*
X98886844Y-92000000D01*
X98903791Y-92204522D01*
X98905437Y-92224375D01*
X98960702Y-92442612D01*
X98960703Y-92442613D01*
X98960704Y-92442616D01*
X99012286Y-92560211D01*
X99051141Y-92648793D01*
X99174275Y-92837265D01*
X99174279Y-92837270D01*
X99326762Y-93002908D01*
X99370841Y-93037216D01*
X99504424Y-93141189D01*
X99537680Y-93159186D01*
X99588071Y-93209200D01*
X99603423Y-93278516D01*
X99578862Y-93345129D01*
X99537680Y-93380813D01*
X99504426Y-93398810D01*
X99504424Y-93398811D01*
X99326762Y-93537091D01*
X99174279Y-93702729D01*
X99174275Y-93702734D01*
X99051141Y-93891206D01*
X98960703Y-94097386D01*
X98960702Y-94097387D01*
X98905437Y-94315624D01*
X98905436Y-94315630D01*
X98905436Y-94315632D01*
X98886844Y-94540000D01*
X94219593Y-94540000D01*
X94212209Y-94384976D01*
X94212208Y-94384971D01*
X94212208Y-94384966D01*
X94162298Y-94179236D01*
X94074356Y-93986669D01*
X94074353Y-93986665D01*
X94074351Y-93986661D01*
X93951564Y-93814231D01*
X93951555Y-93814221D01*
X93924321Y-93788254D01*
X93798346Y-93668137D01*
X93620254Y-93553684D01*
X93423721Y-93475004D01*
X93423720Y-93475003D01*
X93423718Y-93475003D01*
X93215853Y-93434940D01*
X93215849Y-93434940D01*
X92257197Y-93434940D01*
X92257195Y-93434940D01*
X92257177Y-93434941D01*
X92099271Y-93450019D01*
X92099256Y-93450022D01*
X91896135Y-93509663D01*
X91707976Y-93606667D01*
X91541564Y-93737534D01*
X91402938Y-93897517D01*
X91402930Y-93897528D01*
X91297089Y-94080852D01*
X91297086Y-94080859D01*
X91227848Y-94280909D01*
X91227845Y-94280920D01*
X91197718Y-94490454D01*
X68817233Y-94490454D01*
X68812209Y-94384976D01*
X68812208Y-94384971D01*
X68812208Y-94384966D01*
X68762298Y-94179236D01*
X68674356Y-93986669D01*
X68674353Y-93986665D01*
X68674351Y-93986661D01*
X68551564Y-93814231D01*
X68551555Y-93814221D01*
X68524321Y-93788254D01*
X68398346Y-93668137D01*
X68220254Y-93553684D01*
X68023721Y-93475004D01*
X68023720Y-93475003D01*
X68023718Y-93475003D01*
X67815853Y-93434940D01*
X67815849Y-93434940D01*
X66857197Y-93434940D01*
X66857195Y-93434940D01*
X66857177Y-93434941D01*
X66699271Y-93450019D01*
X66699256Y-93450022D01*
X66496135Y-93509663D01*
X66307976Y-93606667D01*
X66141564Y-93737534D01*
X66002938Y-93897517D01*
X66002930Y-93897528D01*
X65897089Y-94080852D01*
X65897086Y-94080859D01*
X65827848Y-94280909D01*
X65827845Y-94280920D01*
X65797718Y-94490454D01*
X49412501Y-94490454D01*
X49393542Y-94310072D01*
X49334527Y-94128444D01*
X49239040Y-93963056D01*
X49239038Y-93963054D01*
X49239034Y-93963048D01*
X49111255Y-93821135D01*
X48956752Y-93708882D01*
X48782288Y-93631206D01*
X48595487Y-93591500D01*
X48404513Y-93591500D01*
X48217711Y-93631206D01*
X48043247Y-93708882D01*
X47888744Y-93821135D01*
X47760965Y-93963048D01*
X47760958Y-93963058D01*
X47665476Y-94128438D01*
X47665473Y-94128445D01*
X47606457Y-94310072D01*
X47586496Y-94499999D01*
X38940082Y-94499999D01*
X39070764Y-94428641D01*
X39296982Y-94259297D01*
X39496797Y-94059482D01*
X39666141Y-93833264D01*
X39801568Y-93585249D01*
X39900320Y-93320484D01*
X39960387Y-93044361D01*
X39980546Y-92762500D01*
X39960387Y-92480639D01*
X39900320Y-92204516D01*
X39805560Y-91950454D01*
X65797718Y-91950454D01*
X65807790Y-92161903D01*
X65807792Y-92161916D01*
X65857700Y-92367638D01*
X65857702Y-92367644D01*
X65945644Y-92560211D01*
X65945648Y-92560218D01*
X66068435Y-92732648D01*
X66068439Y-92732653D01*
X66068441Y-92732655D01*
X66221654Y-92878743D01*
X66399746Y-92993196D01*
X66596279Y-93071876D01*
X66804151Y-93111940D01*
X66804155Y-93111940D01*
X67762801Y-93111940D01*
X67762803Y-93111940D01*
X67920739Y-93096859D01*
X68123862Y-93037217D01*
X68312026Y-92940211D01*
X68478432Y-92809348D01*
X68617065Y-92649358D01*
X68722913Y-92466022D01*
X68792153Y-92265967D01*
X68822281Y-92056424D01*
X68817233Y-91950454D01*
X91197718Y-91950454D01*
X91207790Y-92161903D01*
X91207792Y-92161916D01*
X91257700Y-92367638D01*
X91257702Y-92367644D01*
X91345644Y-92560211D01*
X91345648Y-92560218D01*
X91468435Y-92732648D01*
X91468439Y-92732653D01*
X91468441Y-92732655D01*
X91621654Y-92878743D01*
X91799746Y-92993196D01*
X91996279Y-93071876D01*
X92204151Y-93111940D01*
X92204155Y-93111940D01*
X93162801Y-93111940D01*
X93162803Y-93111940D01*
X93320739Y-93096859D01*
X93523862Y-93037217D01*
X93712026Y-92940211D01*
X93878432Y-92809348D01*
X94017065Y-92649358D01*
X94122913Y-92466022D01*
X94192153Y-92265967D01*
X94222281Y-92056424D01*
X94216723Y-91939747D01*
X94212209Y-91844976D01*
X94212208Y-91844971D01*
X94212208Y-91844966D01*
X94162298Y-91639236D01*
X94074356Y-91446669D01*
X94074353Y-91446665D01*
X94074351Y-91446661D01*
X93951564Y-91274231D01*
X93951555Y-91274221D01*
X93924321Y-91248254D01*
X93798346Y-91128137D01*
X93748895Y-91096357D01*
X93620254Y-91013684D01*
X93488483Y-90960931D01*
X93423721Y-90935004D01*
X93423720Y-90935003D01*
X93423718Y-90935003D01*
X93215853Y-90894940D01*
X93215849Y-90894940D01*
X92257197Y-90894940D01*
X92257195Y-90894940D01*
X92257177Y-90894941D01*
X92099271Y-90910019D01*
X92099256Y-90910022D01*
X91896135Y-90969663D01*
X91707976Y-91066667D01*
X91541564Y-91197534D01*
X91402938Y-91357517D01*
X91402930Y-91357528D01*
X91297089Y-91540852D01*
X91297086Y-91540859D01*
X91227848Y-91740909D01*
X91227845Y-91740920D01*
X91197718Y-91950454D01*
X68817233Y-91950454D01*
X68816723Y-91939747D01*
X68812209Y-91844976D01*
X68812208Y-91844971D01*
X68812208Y-91844966D01*
X68762298Y-91639236D01*
X68674356Y-91446669D01*
X68674353Y-91446665D01*
X68674351Y-91446661D01*
X68551564Y-91274231D01*
X68551555Y-91274221D01*
X68524321Y-91248254D01*
X68398346Y-91128137D01*
X68348895Y-91096357D01*
X68220254Y-91013684D01*
X68088483Y-90960931D01*
X68023721Y-90935004D01*
X68023720Y-90935003D01*
X68023718Y-90935003D01*
X67815853Y-90894940D01*
X67815849Y-90894940D01*
X66857197Y-90894940D01*
X66857195Y-90894940D01*
X66857177Y-90894941D01*
X66699271Y-90910019D01*
X66699256Y-90910022D01*
X66496135Y-90969663D01*
X66307976Y-91066667D01*
X66141564Y-91197534D01*
X66002938Y-91357517D01*
X66002930Y-91357528D01*
X65897089Y-91540852D01*
X65897086Y-91540859D01*
X65827848Y-91740909D01*
X65827845Y-91740920D01*
X65797718Y-91950454D01*
X39805560Y-91950454D01*
X39801568Y-91939751D01*
X39666141Y-91691736D01*
X39565567Y-91557384D01*
X39496799Y-91465520D01*
X39496791Y-91465511D01*
X39296988Y-91265708D01*
X39296979Y-91265700D01*
X39070761Y-91096357D01*
X38822752Y-90960933D01*
X38822748Y-90960931D01*
X38686246Y-90910019D01*
X38557984Y-90862180D01*
X38557980Y-90862179D01*
X38557977Y-90862178D01*
X38281863Y-90802113D01*
X38281864Y-90802113D01*
X38211424Y-90797075D01*
X38070553Y-90787000D01*
X37929447Y-90787000D01*
X37802662Y-90796067D01*
X37718135Y-90802113D01*
X37442022Y-90862178D01*
X37442017Y-90862179D01*
X37442016Y-90862180D01*
X37416878Y-90871556D01*
X37177251Y-90960931D01*
X37177247Y-90960933D01*
X36929238Y-91096357D01*
X36703020Y-91265700D01*
X36703011Y-91265708D01*
X36503208Y-91465511D01*
X36503200Y-91465520D01*
X36333857Y-91691738D01*
X36198433Y-91939747D01*
X36198431Y-91939751D01*
X36099678Y-92204522D01*
X36039613Y-92480635D01*
X36019454Y-92762499D01*
X30025500Y-92762499D01*
X30025500Y-87491999D01*
X39835888Y-87491999D01*
X39854303Y-87702484D01*
X39908986Y-87906565D01*
X39908988Y-87906569D01*
X39998281Y-88098059D01*
X40119461Y-88271122D01*
X40119470Y-88271133D01*
X40268241Y-88419904D01*
X40302267Y-88482216D01*
X40297202Y-88553031D01*
X40268242Y-88598094D01*
X40121465Y-88744872D01*
X40121461Y-88744877D01*
X40000281Y-88917940D01*
X39910988Y-89109430D01*
X39910986Y-89109434D01*
X39856303Y-89313515D01*
X39837888Y-89524000D01*
X39856303Y-89734484D01*
X39910986Y-89938565D01*
X39910988Y-89938569D01*
X40000281Y-90130059D01*
X40121461Y-90303122D01*
X40121465Y-90303127D01*
X40121468Y-90303131D01*
X40270869Y-90452532D01*
X40270873Y-90452535D01*
X40270877Y-90452538D01*
X40443940Y-90573718D01*
X40443943Y-90573719D01*
X40443944Y-90573720D01*
X40635433Y-90663013D01*
X40839519Y-90717697D01*
X41050000Y-90736112D01*
X41260481Y-90717697D01*
X41464567Y-90663013D01*
X41656056Y-90573720D01*
X41674230Y-90560994D01*
X41741502Y-90538307D01*
X41810363Y-90555591D01*
X41858947Y-90607361D01*
X41872500Y-90664208D01*
X41872500Y-91287649D01*
X41879009Y-91348196D01*
X41879011Y-91348204D01*
X41930110Y-91485202D01*
X41930112Y-91485207D01*
X42017738Y-91602261D01*
X42134792Y-91689887D01*
X42134794Y-91689888D01*
X42134796Y-91689889D01*
X42193875Y-91711924D01*
X42271795Y-91740988D01*
X42271803Y-91740990D01*
X42332350Y-91747499D01*
X42332355Y-91747499D01*
X42332362Y-91747500D01*
X42332368Y-91747500D01*
X43827632Y-91747500D01*
X43827638Y-91747500D01*
X43827645Y-91747499D01*
X43827649Y-91747499D01*
X43888196Y-91740990D01*
X43888199Y-91740989D01*
X43888201Y-91740989D01*
X43888416Y-91740909D01*
X43907045Y-91733960D01*
X44025204Y-91689889D01*
X44142261Y-91602261D01*
X44229889Y-91485204D01*
X44280989Y-91348201D01*
X44287500Y-91287638D01*
X44287500Y-90499999D01*
X47586496Y-90499999D01*
X47606457Y-90689927D01*
X47621464Y-90736111D01*
X47665473Y-90871556D01*
X47665476Y-90871561D01*
X47760958Y-91036941D01*
X47760965Y-91036951D01*
X47888744Y-91178864D01*
X47888747Y-91178866D01*
X48043248Y-91291118D01*
X48217712Y-91368794D01*
X48404513Y-91408500D01*
X48595487Y-91408500D01*
X48782288Y-91368794D01*
X48956752Y-91291118D01*
X49111253Y-91178866D01*
X49111255Y-91178864D01*
X49239034Y-91036951D01*
X49239035Y-91036949D01*
X49239040Y-91036944D01*
X49334527Y-90871556D01*
X49393542Y-90689928D01*
X49413504Y-90500000D01*
X49393542Y-90310072D01*
X49334527Y-90128444D01*
X49239040Y-89963056D01*
X49239038Y-89963054D01*
X49239034Y-89963048D01*
X49111255Y-89821135D01*
X48956752Y-89708882D01*
X48782288Y-89631206D01*
X48595487Y-89591500D01*
X48404513Y-89591500D01*
X48217711Y-89631206D01*
X48043247Y-89708882D01*
X47888744Y-89821135D01*
X47760965Y-89963048D01*
X47760958Y-89963058D01*
X47676496Y-90109351D01*
X47665473Y-90128444D01*
X47650999Y-90172986D01*
X47606457Y-90310072D01*
X47586496Y-90499999D01*
X44287500Y-90499999D01*
X44287500Y-89792362D01*
X44281278Y-89734484D01*
X44280990Y-89731802D01*
X44280988Y-89731795D01*
X44240004Y-89621916D01*
X44229889Y-89594796D01*
X44229888Y-89594794D01*
X44229887Y-89594792D01*
X44142261Y-89477738D01*
X44064673Y-89419657D01*
X44057784Y-89410454D01*
X65797718Y-89410454D01*
X65807790Y-89621903D01*
X65807792Y-89621916D01*
X65857700Y-89827638D01*
X65857702Y-89827644D01*
X65945644Y-90020211D01*
X65945648Y-90020218D01*
X66068435Y-90192648D01*
X66068439Y-90192653D01*
X66068441Y-90192655D01*
X66221654Y-90338743D01*
X66399746Y-90453196D01*
X66596279Y-90531876D01*
X66804151Y-90571940D01*
X66804155Y-90571940D01*
X67762801Y-90571940D01*
X67762803Y-90571940D01*
X67920739Y-90556859D01*
X68123862Y-90497217D01*
X68312026Y-90400211D01*
X68478432Y-90269348D01*
X68617065Y-90109358D01*
X68722913Y-89926022D01*
X68792153Y-89725967D01*
X68811487Y-89591500D01*
X68822281Y-89516425D01*
X68817233Y-89410454D01*
X91197718Y-89410454D01*
X91207790Y-89621903D01*
X91207792Y-89621916D01*
X91257700Y-89827638D01*
X91257702Y-89827644D01*
X91345644Y-90020211D01*
X91345648Y-90020218D01*
X91468435Y-90192648D01*
X91468439Y-90192653D01*
X91468441Y-90192655D01*
X91621654Y-90338743D01*
X91799746Y-90453196D01*
X91996279Y-90531876D01*
X92204151Y-90571940D01*
X92204155Y-90571940D01*
X93162801Y-90571940D01*
X93162803Y-90571940D01*
X93320739Y-90556859D01*
X93523862Y-90497217D01*
X93712026Y-90400211D01*
X93878432Y-90269348D01*
X94017065Y-90109358D01*
X94122913Y-89926022D01*
X94192153Y-89725967D01*
X94211487Y-89591500D01*
X94222281Y-89516425D01*
X94212209Y-89304976D01*
X94212208Y-89304971D01*
X94212208Y-89304966D01*
X94162298Y-89099236D01*
X94074356Y-88906669D01*
X94074353Y-88906665D01*
X94074351Y-88906661D01*
X93951564Y-88734231D01*
X93951555Y-88734221D01*
X93924321Y-88708254D01*
X93798346Y-88588137D01*
X93620254Y-88473684D01*
X93423721Y-88395004D01*
X93423720Y-88395003D01*
X93423718Y-88395003D01*
X93215853Y-88354940D01*
X93215849Y-88354940D01*
X92257197Y-88354940D01*
X92257195Y-88354940D01*
X92257177Y-88354941D01*
X92099271Y-88370019D01*
X92099256Y-88370022D01*
X91896135Y-88429663D01*
X91707976Y-88526667D01*
X91541564Y-88657534D01*
X91402938Y-88817517D01*
X91402930Y-88817528D01*
X91297089Y-89000852D01*
X91297086Y-89000859D01*
X91227848Y-89200909D01*
X91227845Y-89200920D01*
X91197718Y-89410454D01*
X68817233Y-89410454D01*
X68812209Y-89304976D01*
X68812208Y-89304971D01*
X68812208Y-89304966D01*
X68762298Y-89099236D01*
X68674356Y-88906669D01*
X68674353Y-88906665D01*
X68674351Y-88906661D01*
X68551564Y-88734231D01*
X68551555Y-88734221D01*
X68524321Y-88708254D01*
X68398346Y-88588137D01*
X68220254Y-88473684D01*
X68023721Y-88395004D01*
X68023720Y-88395003D01*
X68023718Y-88395003D01*
X67815853Y-88354940D01*
X67815849Y-88354940D01*
X66857197Y-88354940D01*
X66857195Y-88354940D01*
X66857177Y-88354941D01*
X66699271Y-88370019D01*
X66699256Y-88370022D01*
X66496135Y-88429663D01*
X66307976Y-88526667D01*
X66141564Y-88657534D01*
X66002938Y-88817517D01*
X66002930Y-88817528D01*
X65897089Y-89000852D01*
X65897086Y-89000859D01*
X65827848Y-89200909D01*
X65827845Y-89200920D01*
X65797718Y-89410454D01*
X44057784Y-89410454D01*
X44022126Y-89362821D01*
X44017061Y-89292006D01*
X44036969Y-89246518D01*
X44065340Y-89206000D01*
X44129720Y-89114056D01*
X44219013Y-88922567D01*
X44273697Y-88718481D01*
X44292112Y-88508000D01*
X44273697Y-88297519D01*
X44219013Y-88093433D01*
X44129720Y-87901944D01*
X44129719Y-87901943D01*
X44129718Y-87901940D01*
X44008538Y-87728877D01*
X44008535Y-87728873D01*
X44008532Y-87728869D01*
X43860758Y-87581095D01*
X43826732Y-87518783D01*
X43831797Y-87447968D01*
X43860758Y-87402905D01*
X43912183Y-87351480D01*
X44008532Y-87255131D01*
X44129720Y-87082056D01*
X44219013Y-86890567D01*
X44224402Y-86870454D01*
X65797718Y-86870454D01*
X65807790Y-87081903D01*
X65807792Y-87081916D01*
X65857700Y-87287638D01*
X65857702Y-87287644D01*
X65945644Y-87480211D01*
X65945648Y-87480218D01*
X66068435Y-87652648D01*
X66068439Y-87652653D01*
X66068441Y-87652655D01*
X66221654Y-87798743D01*
X66399746Y-87913196D01*
X66596279Y-87991876D01*
X66804151Y-88031940D01*
X66804155Y-88031940D01*
X67762801Y-88031940D01*
X67762803Y-88031940D01*
X67920739Y-88016859D01*
X68123862Y-87957217D01*
X68312026Y-87860211D01*
X68478432Y-87729348D01*
X68478841Y-87728877D01*
X68562335Y-87632519D01*
X68617065Y-87569358D01*
X68722913Y-87386022D01*
X68792153Y-87185967D01*
X68822281Y-86976424D01*
X68817233Y-86870454D01*
X91197718Y-86870454D01*
X91207790Y-87081903D01*
X91207792Y-87081916D01*
X91257700Y-87287638D01*
X91257702Y-87287644D01*
X91345644Y-87480211D01*
X91345648Y-87480218D01*
X91468435Y-87652648D01*
X91468439Y-87652653D01*
X91468441Y-87652655D01*
X91621654Y-87798743D01*
X91799746Y-87913196D01*
X91996279Y-87991876D01*
X92204151Y-88031940D01*
X92204155Y-88031940D01*
X93162801Y-88031940D01*
X93162803Y-88031940D01*
X93320739Y-88016859D01*
X93523862Y-87957217D01*
X93712026Y-87860211D01*
X93878432Y-87729348D01*
X93878841Y-87728877D01*
X93962335Y-87632519D01*
X94017065Y-87569358D01*
X94122913Y-87386022D01*
X94192153Y-87185967D01*
X94222281Y-86976424D01*
X94217233Y-86870454D01*
X94212209Y-86764976D01*
X94212208Y-86764971D01*
X94212208Y-86764966D01*
X94162298Y-86559236D01*
X94074356Y-86366669D01*
X94074353Y-86366665D01*
X94074351Y-86366661D01*
X93951564Y-86194231D01*
X93951555Y-86194221D01*
X93924321Y-86168254D01*
X93798346Y-86048137D01*
X93620254Y-85933684D01*
X93423721Y-85855004D01*
X93423720Y-85855003D01*
X93423718Y-85855003D01*
X93215853Y-85814940D01*
X93215849Y-85814940D01*
X92257197Y-85814940D01*
X92257195Y-85814940D01*
X92257177Y-85814941D01*
X92099271Y-85830019D01*
X92099256Y-85830022D01*
X91896135Y-85889663D01*
X91707976Y-85986667D01*
X91541564Y-86117534D01*
X91402938Y-86277517D01*
X91402930Y-86277528D01*
X91297089Y-86460852D01*
X91297086Y-86460859D01*
X91227848Y-86660909D01*
X91227845Y-86660920D01*
X91197718Y-86870454D01*
X68817233Y-86870454D01*
X68812209Y-86764976D01*
X68812208Y-86764971D01*
X68812208Y-86764966D01*
X68762298Y-86559236D01*
X68674356Y-86366669D01*
X68674353Y-86366665D01*
X68674351Y-86366661D01*
X68551564Y-86194231D01*
X68551555Y-86194221D01*
X68524321Y-86168254D01*
X68398346Y-86048137D01*
X68220254Y-85933684D01*
X68023721Y-85855004D01*
X68023720Y-85855003D01*
X68023718Y-85855003D01*
X67815853Y-85814940D01*
X67815849Y-85814940D01*
X66857197Y-85814940D01*
X66857195Y-85814940D01*
X66857177Y-85814941D01*
X66699271Y-85830019D01*
X66699256Y-85830022D01*
X66496135Y-85889663D01*
X66307976Y-85986667D01*
X66141564Y-86117534D01*
X66002938Y-86277517D01*
X66002930Y-86277528D01*
X65897089Y-86460852D01*
X65897086Y-86460859D01*
X65827848Y-86660909D01*
X65827845Y-86660920D01*
X65797718Y-86870454D01*
X44224402Y-86870454D01*
X44273697Y-86686481D01*
X44292112Y-86476000D01*
X44273697Y-86265519D01*
X44219013Y-86061433D01*
X44129720Y-85869944D01*
X44129719Y-85869943D01*
X44129718Y-85869940D01*
X44008538Y-85696877D01*
X44008535Y-85696873D01*
X44008532Y-85696869D01*
X43859131Y-85547468D01*
X43859127Y-85547465D01*
X43859122Y-85547461D01*
X43686059Y-85426281D01*
X43494569Y-85336988D01*
X43494565Y-85336986D01*
X43290484Y-85282303D01*
X43080000Y-85263888D01*
X42869515Y-85282303D01*
X42665434Y-85336986D01*
X42665430Y-85336988D01*
X42473941Y-85426281D01*
X42450328Y-85442815D01*
X42383054Y-85465502D01*
X42314194Y-85448216D01*
X42265610Y-85396446D01*
X42252539Y-85350587D01*
X42243697Y-85249519D01*
X42189013Y-85045433D01*
X42099720Y-84853944D01*
X42099719Y-84853943D01*
X42099718Y-84853940D01*
X41978538Y-84680877D01*
X41978535Y-84680873D01*
X41978532Y-84680869D01*
X41829131Y-84531468D01*
X41829127Y-84531465D01*
X41829122Y-84531461D01*
X41656059Y-84410281D01*
X41484869Y-84330454D01*
X65797718Y-84330454D01*
X65807790Y-84541903D01*
X65807792Y-84541916D01*
X65857700Y-84747638D01*
X65857702Y-84747644D01*
X65945644Y-84940211D01*
X65945648Y-84940218D01*
X66068435Y-85112648D01*
X66068439Y-85112653D01*
X66068441Y-85112655D01*
X66221654Y-85258743D01*
X66399746Y-85373196D01*
X66596279Y-85451876D01*
X66804151Y-85491940D01*
X66804155Y-85491940D01*
X67762801Y-85491940D01*
X67762803Y-85491940D01*
X67920739Y-85476859D01*
X68123862Y-85417217D01*
X68312026Y-85320211D01*
X68478432Y-85189348D01*
X68617065Y-85029358D01*
X68722913Y-84846022D01*
X68792153Y-84645967D01*
X68822281Y-84436424D01*
X68817233Y-84330454D01*
X91197718Y-84330454D01*
X91207790Y-84541903D01*
X91207792Y-84541916D01*
X91257700Y-84747638D01*
X91257702Y-84747644D01*
X91345644Y-84940211D01*
X91345648Y-84940218D01*
X91468435Y-85112648D01*
X91468439Y-85112653D01*
X91468441Y-85112655D01*
X91621654Y-85258743D01*
X91799746Y-85373196D01*
X91996279Y-85451876D01*
X92204151Y-85491940D01*
X92204155Y-85491940D01*
X93162801Y-85491940D01*
X93162803Y-85491940D01*
X93320739Y-85476859D01*
X93523862Y-85417217D01*
X93712026Y-85320211D01*
X93878432Y-85189348D01*
X94017065Y-85029358D01*
X94122913Y-84846022D01*
X94192153Y-84645967D01*
X94222281Y-84436424D01*
X94216176Y-84308261D01*
X94212209Y-84224976D01*
X94212208Y-84224971D01*
X94212208Y-84224966D01*
X94162298Y-84019236D01*
X94074356Y-83826669D01*
X94074354Y-83826666D01*
X94074353Y-83826664D01*
X94074351Y-83826661D01*
X93951564Y-83654231D01*
X93951555Y-83654221D01*
X93924321Y-83628254D01*
X93798346Y-83508137D01*
X93620254Y-83393684D01*
X93423721Y-83315004D01*
X93423720Y-83315003D01*
X93423718Y-83315003D01*
X93215853Y-83274940D01*
X93215849Y-83274940D01*
X92257197Y-83274940D01*
X92257195Y-83274940D01*
X92257177Y-83274941D01*
X92099271Y-83290019D01*
X92099256Y-83290022D01*
X91896135Y-83349663D01*
X91707976Y-83446667D01*
X91541564Y-83577534D01*
X91402938Y-83737517D01*
X91402930Y-83737528D01*
X91297089Y-83920852D01*
X91297086Y-83920859D01*
X91227848Y-84120909D01*
X91227845Y-84120920D01*
X91197718Y-84330454D01*
X68817233Y-84330454D01*
X68816176Y-84308261D01*
X68812209Y-84224976D01*
X68812208Y-84224971D01*
X68812208Y-84224966D01*
X68762298Y-84019236D01*
X68674356Y-83826669D01*
X68674354Y-83826666D01*
X68674353Y-83826664D01*
X68674351Y-83826661D01*
X68551564Y-83654231D01*
X68551555Y-83654221D01*
X68524321Y-83628254D01*
X68398346Y-83508137D01*
X68220254Y-83393684D01*
X68023721Y-83315004D01*
X68023720Y-83315003D01*
X68023718Y-83315003D01*
X67815853Y-83274940D01*
X67815849Y-83274940D01*
X66857197Y-83274940D01*
X66857195Y-83274940D01*
X66857177Y-83274941D01*
X66699271Y-83290019D01*
X66699256Y-83290022D01*
X66496135Y-83349663D01*
X66307976Y-83446667D01*
X66141564Y-83577534D01*
X66002938Y-83737517D01*
X66002930Y-83737528D01*
X65897089Y-83920852D01*
X65897086Y-83920859D01*
X65827848Y-84120909D01*
X65827845Y-84120920D01*
X65797718Y-84330454D01*
X41484869Y-84330454D01*
X41464569Y-84320988D01*
X41464565Y-84320986D01*
X41260484Y-84266303D01*
X41050000Y-84247888D01*
X40839515Y-84266303D01*
X40635434Y-84320986D01*
X40635430Y-84320988D01*
X40443940Y-84410281D01*
X40270877Y-84531461D01*
X40270866Y-84531470D01*
X40121470Y-84680866D01*
X40121461Y-84680877D01*
X40000281Y-84853940D01*
X39910988Y-85045430D01*
X39910986Y-85045434D01*
X39856303Y-85249515D01*
X39837888Y-85460000D01*
X39856303Y-85670484D01*
X39910986Y-85874565D01*
X39910988Y-85874569D01*
X40000281Y-86066059D01*
X40121461Y-86239122D01*
X40121470Y-86239133D01*
X40268241Y-86385904D01*
X40302267Y-86448216D01*
X40297202Y-86519031D01*
X40268242Y-86564094D01*
X40119465Y-86712872D01*
X40119461Y-86712877D01*
X39998281Y-86885940D01*
X39908988Y-87077430D01*
X39908986Y-87077434D01*
X39854303Y-87281515D01*
X39835888Y-87491999D01*
X30025500Y-87491999D01*
X30025500Y-83237500D01*
X36019454Y-83237500D01*
X36039613Y-83519364D01*
X36068952Y-83654231D01*
X36099680Y-83795484D01*
X36146440Y-83920852D01*
X36198431Y-84060248D01*
X36198433Y-84060252D01*
X36333857Y-84308261D01*
X36503200Y-84534479D01*
X36503208Y-84534488D01*
X36703011Y-84734291D01*
X36703020Y-84734299D01*
X36816767Y-84819448D01*
X36929236Y-84903641D01*
X37011907Y-84948783D01*
X37159468Y-85029358D01*
X37177251Y-85039068D01*
X37442016Y-85137820D01*
X37718139Y-85197887D01*
X37929447Y-85213000D01*
X37929453Y-85213000D01*
X38070547Y-85213000D01*
X38070553Y-85213000D01*
X38281861Y-85197887D01*
X38557984Y-85137820D01*
X38822749Y-85039068D01*
X39070764Y-84903641D01*
X39296982Y-84734297D01*
X39496797Y-84534482D01*
X39666141Y-84308264D01*
X39801568Y-84060249D01*
X39900320Y-83795484D01*
X39960387Y-83519361D01*
X39980546Y-83237500D01*
X39960387Y-82955639D01*
X39900320Y-82679516D01*
X39801568Y-82414751D01*
X39793632Y-82400218D01*
X39666142Y-82166738D01*
X39496799Y-81940520D01*
X39496791Y-81940511D01*
X39346734Y-81790454D01*
X65797718Y-81790454D01*
X65807790Y-82001903D01*
X65807792Y-82001916D01*
X65857700Y-82207638D01*
X65857702Y-82207644D01*
X65945644Y-82400211D01*
X65945648Y-82400218D01*
X66068435Y-82572648D01*
X66068439Y-82572653D01*
X66068441Y-82572655D01*
X66221654Y-82718743D01*
X66399746Y-82833196D01*
X66596279Y-82911876D01*
X66804151Y-82951940D01*
X66804155Y-82951940D01*
X67762801Y-82951940D01*
X67762803Y-82951940D01*
X67920739Y-82936859D01*
X68123862Y-82877217D01*
X68312026Y-82780211D01*
X68478432Y-82649348D01*
X68617065Y-82489358D01*
X68722913Y-82306022D01*
X68792153Y-82105967D01*
X68822281Y-81896424D01*
X68817233Y-81790454D01*
X91197718Y-81790454D01*
X91207790Y-82001903D01*
X91207792Y-82001916D01*
X91257700Y-82207638D01*
X91257702Y-82207644D01*
X91345644Y-82400211D01*
X91345648Y-82400218D01*
X91468435Y-82572648D01*
X91468439Y-82572653D01*
X91468441Y-82572655D01*
X91621654Y-82718743D01*
X91799746Y-82833196D01*
X91996279Y-82911876D01*
X92204151Y-82951940D01*
X92204155Y-82951940D01*
X93162801Y-82951940D01*
X93162803Y-82951940D01*
X93320739Y-82936859D01*
X93523862Y-82877217D01*
X93712026Y-82780211D01*
X93878432Y-82649348D01*
X94017065Y-82489358D01*
X94122913Y-82306022D01*
X94192153Y-82105967D01*
X94222281Y-81896424D01*
X94217233Y-81790454D01*
X94212209Y-81684976D01*
X94212208Y-81684971D01*
X94212208Y-81684966D01*
X94162298Y-81479236D01*
X94074356Y-81286669D01*
X94074353Y-81286665D01*
X94074351Y-81286661D01*
X93951564Y-81114231D01*
X93951555Y-81114221D01*
X93924321Y-81088254D01*
X93798346Y-80968137D01*
X93620254Y-80853684D01*
X93423721Y-80775004D01*
X93423720Y-80775003D01*
X93423718Y-80775003D01*
X93215853Y-80734940D01*
X93215849Y-80734940D01*
X92257197Y-80734940D01*
X92257195Y-80734940D01*
X92257177Y-80734941D01*
X92099271Y-80750019D01*
X92099256Y-80750022D01*
X91896135Y-80809663D01*
X91707976Y-80906667D01*
X91541564Y-81037534D01*
X91402938Y-81197517D01*
X91402930Y-81197528D01*
X91297089Y-81380852D01*
X91297086Y-81380859D01*
X91227848Y-81580909D01*
X91227845Y-81580920D01*
X91197718Y-81790454D01*
X68817233Y-81790454D01*
X68812209Y-81684976D01*
X68812208Y-81684971D01*
X68812208Y-81684966D01*
X68762298Y-81479236D01*
X68674356Y-81286669D01*
X68674353Y-81286665D01*
X68674351Y-81286661D01*
X68551564Y-81114231D01*
X68551555Y-81114221D01*
X68524321Y-81088254D01*
X68398346Y-80968137D01*
X68220254Y-80853684D01*
X68023721Y-80775004D01*
X68023720Y-80775003D01*
X68023718Y-80775003D01*
X67815853Y-80734940D01*
X67815849Y-80734940D01*
X66857197Y-80734940D01*
X66857195Y-80734940D01*
X66857177Y-80734941D01*
X66699271Y-80750019D01*
X66699256Y-80750022D01*
X66496135Y-80809663D01*
X66307976Y-80906667D01*
X66141564Y-81037534D01*
X66002938Y-81197517D01*
X66002930Y-81197528D01*
X65897089Y-81380852D01*
X65897086Y-81380859D01*
X65827848Y-81580909D01*
X65827845Y-81580920D01*
X65797718Y-81790454D01*
X39346734Y-81790454D01*
X39296988Y-81740708D01*
X39296979Y-81740700D01*
X39083536Y-81580920D01*
X39070764Y-81571359D01*
X39070762Y-81571358D01*
X39070761Y-81571357D01*
X38822752Y-81435933D01*
X38822748Y-81435931D01*
X38675092Y-81380859D01*
X38557984Y-81337180D01*
X38557980Y-81337179D01*
X38557977Y-81337178D01*
X38281863Y-81277113D01*
X38281864Y-81277113D01*
X38211424Y-81272075D01*
X38070553Y-81262000D01*
X37929447Y-81262000D01*
X37802662Y-81271067D01*
X37718135Y-81277113D01*
X37442022Y-81337178D01*
X37442017Y-81337179D01*
X37442016Y-81337180D01*
X37391141Y-81356155D01*
X37177251Y-81435931D01*
X37177247Y-81435933D01*
X36929238Y-81571357D01*
X36703020Y-81740700D01*
X36703011Y-81740708D01*
X36503208Y-81940511D01*
X36503200Y-81940520D01*
X36333857Y-82166738D01*
X36198433Y-82414747D01*
X36198431Y-82414751D01*
X36099678Y-82679522D01*
X36039613Y-82955635D01*
X36019454Y-83237500D01*
X30025500Y-83237500D01*
X30025500Y-79250454D01*
X65797718Y-79250454D01*
X65807790Y-79461903D01*
X65807792Y-79461916D01*
X65857700Y-79667638D01*
X65857702Y-79667644D01*
X65945644Y-79860211D01*
X65945648Y-79860218D01*
X66068435Y-80032648D01*
X66068439Y-80032653D01*
X66068441Y-80032655D01*
X66221654Y-80178743D01*
X66399746Y-80293196D01*
X66596279Y-80371876D01*
X66804151Y-80411940D01*
X66804155Y-80411940D01*
X67762801Y-80411940D01*
X67762803Y-80411940D01*
X67920739Y-80396859D01*
X68123862Y-80337217D01*
X68312026Y-80240211D01*
X68478432Y-80109348D01*
X68617065Y-79949358D01*
X68722913Y-79766022D01*
X68792153Y-79565967D01*
X68822281Y-79356424D01*
X68817233Y-79250454D01*
X91197718Y-79250454D01*
X91207790Y-79461903D01*
X91207792Y-79461916D01*
X91257700Y-79667638D01*
X91257702Y-79667644D01*
X91345644Y-79860211D01*
X91345648Y-79860218D01*
X91468435Y-80032648D01*
X91468439Y-80032653D01*
X91468441Y-80032655D01*
X91621654Y-80178743D01*
X91799746Y-80293196D01*
X91996279Y-80371876D01*
X92204151Y-80411940D01*
X92204155Y-80411940D01*
X93162801Y-80411940D01*
X93162803Y-80411940D01*
X93320739Y-80396859D01*
X93523862Y-80337217D01*
X93712026Y-80240211D01*
X93878432Y-80109348D01*
X94017065Y-79949358D01*
X94122913Y-79766022D01*
X94192153Y-79565967D01*
X94222281Y-79356424D01*
X94217233Y-79250454D01*
X94212209Y-79144976D01*
X94212208Y-79144971D01*
X94212208Y-79144966D01*
X94162298Y-78939236D01*
X94074356Y-78746669D01*
X94074353Y-78746665D01*
X94074351Y-78746661D01*
X93951564Y-78574231D01*
X93951555Y-78574221D01*
X93924321Y-78548254D01*
X93798346Y-78428137D01*
X93620254Y-78313684D01*
X93423721Y-78235004D01*
X93423720Y-78235003D01*
X93423718Y-78235003D01*
X93215853Y-78194940D01*
X93215849Y-78194940D01*
X92257197Y-78194940D01*
X92257195Y-78194940D01*
X92257177Y-78194941D01*
X92099271Y-78210019D01*
X92099256Y-78210022D01*
X91896135Y-78269663D01*
X91707976Y-78366667D01*
X91541564Y-78497534D01*
X91402938Y-78657517D01*
X91402930Y-78657528D01*
X91297089Y-78840852D01*
X91297086Y-78840859D01*
X91227848Y-79040909D01*
X91227845Y-79040920D01*
X91197718Y-79250454D01*
X68817233Y-79250454D01*
X68812209Y-79144976D01*
X68812208Y-79144971D01*
X68812208Y-79144966D01*
X68762298Y-78939236D01*
X68674356Y-78746669D01*
X68674353Y-78746665D01*
X68674351Y-78746661D01*
X68551564Y-78574231D01*
X68551555Y-78574221D01*
X68524321Y-78548254D01*
X68398346Y-78428137D01*
X68220254Y-78313684D01*
X68023721Y-78235004D01*
X68023720Y-78235003D01*
X68023718Y-78235003D01*
X67815853Y-78194940D01*
X67815849Y-78194940D01*
X66857197Y-78194940D01*
X66857195Y-78194940D01*
X66857177Y-78194941D01*
X66699271Y-78210019D01*
X66699256Y-78210022D01*
X66496135Y-78269663D01*
X66307976Y-78366667D01*
X66141564Y-78497534D01*
X66002938Y-78657517D01*
X66002930Y-78657528D01*
X65897089Y-78840852D01*
X65897086Y-78840859D01*
X65827848Y-79040909D01*
X65827845Y-79040920D01*
X65797718Y-79250454D01*
X30025500Y-79250454D01*
X30025500Y-75000002D01*
X31636567Y-75000002D01*
X31656284Y-75363651D01*
X31715200Y-75723034D01*
X31801603Y-76034225D01*
X31812632Y-76073949D01*
X31947431Y-76412269D01*
X31994425Y-76500909D01*
X32118015Y-76734026D01*
X32118017Y-76734030D01*
X32322393Y-77035461D01*
X32322392Y-77035461D01*
X32558162Y-77313030D01*
X32822545Y-77563468D01*
X32822560Y-77563481D01*
X33112485Y-77783876D01*
X33424540Y-77971634D01*
X33544228Y-78027007D01*
X33755053Y-78124546D01*
X33755065Y-78124551D01*
X34100186Y-78240836D01*
X34455857Y-78319125D01*
X34817907Y-78358500D01*
X34817915Y-78358500D01*
X35182085Y-78358500D01*
X35182093Y-78358500D01*
X35544143Y-78319125D01*
X35899814Y-78240836D01*
X36244935Y-78124551D01*
X36575460Y-77971634D01*
X36887515Y-77783876D01*
X37177440Y-77563481D01*
X37441837Y-77313031D01*
X37677606Y-77035463D01*
X37881982Y-76734031D01*
X37894482Y-76710454D01*
X65797718Y-76710454D01*
X65807790Y-76921903D01*
X65807792Y-76921916D01*
X65857700Y-77127638D01*
X65857702Y-77127644D01*
X65945644Y-77320211D01*
X65945648Y-77320218D01*
X66068435Y-77492648D01*
X66068439Y-77492653D01*
X66068441Y-77492655D01*
X66221654Y-77638743D01*
X66399746Y-77753196D01*
X66596279Y-77831876D01*
X66804151Y-77871940D01*
X66804155Y-77871940D01*
X67762801Y-77871940D01*
X67762803Y-77871940D01*
X67920739Y-77856859D01*
X68123862Y-77797217D01*
X68312026Y-77700211D01*
X68478432Y-77569348D01*
X68617065Y-77409358D01*
X68722913Y-77226022D01*
X68792153Y-77025967D01*
X68822281Y-76816424D01*
X68817233Y-76710454D01*
X91197718Y-76710454D01*
X91207790Y-76921903D01*
X91207792Y-76921916D01*
X91257700Y-77127638D01*
X91257702Y-77127644D01*
X91345644Y-77320211D01*
X91345648Y-77320218D01*
X91468435Y-77492648D01*
X91468439Y-77492653D01*
X91468441Y-77492655D01*
X91621654Y-77638743D01*
X91799746Y-77753196D01*
X91996279Y-77831876D01*
X92204151Y-77871940D01*
X92204155Y-77871940D01*
X93162801Y-77871940D01*
X93162803Y-77871940D01*
X93320739Y-77856859D01*
X93523862Y-77797217D01*
X93712026Y-77700211D01*
X93878432Y-77569348D01*
X94017065Y-77409358D01*
X94122913Y-77226022D01*
X94192153Y-77025967D01*
X94222281Y-76816424D01*
X94217233Y-76710454D01*
X94212209Y-76604976D01*
X94212208Y-76604971D01*
X94212208Y-76604966D01*
X94162298Y-76399236D01*
X94074356Y-76206669D01*
X94074353Y-76206665D01*
X94074351Y-76206661D01*
X93951564Y-76034231D01*
X93951555Y-76034221D01*
X93924321Y-76008254D01*
X93798346Y-75888137D01*
X93620254Y-75773684D01*
X93423721Y-75695004D01*
X93423720Y-75695003D01*
X93423718Y-75695003D01*
X93215853Y-75654940D01*
X93215849Y-75654940D01*
X92257197Y-75654940D01*
X92257195Y-75654940D01*
X92257177Y-75654941D01*
X92099271Y-75670019D01*
X92099256Y-75670022D01*
X91896135Y-75729663D01*
X91707976Y-75826667D01*
X91541564Y-75957534D01*
X91402938Y-76117517D01*
X91402930Y-76117528D01*
X91297089Y-76300852D01*
X91297086Y-76300859D01*
X91227848Y-76500909D01*
X91227845Y-76500920D01*
X91197718Y-76710454D01*
X68817233Y-76710454D01*
X68812209Y-76604976D01*
X68812208Y-76604971D01*
X68812208Y-76604966D01*
X68762298Y-76399236D01*
X68674356Y-76206669D01*
X68674353Y-76206665D01*
X68674351Y-76206661D01*
X68551564Y-76034231D01*
X68551555Y-76034221D01*
X68524321Y-76008254D01*
X68398346Y-75888137D01*
X68220254Y-75773684D01*
X68023721Y-75695004D01*
X68023720Y-75695003D01*
X68023718Y-75695003D01*
X67815853Y-75654940D01*
X67815849Y-75654940D01*
X66857197Y-75654940D01*
X66857195Y-75654940D01*
X66857177Y-75654941D01*
X66699271Y-75670019D01*
X66699256Y-75670022D01*
X66496135Y-75729663D01*
X66307976Y-75826667D01*
X66141564Y-75957534D01*
X66002938Y-76117517D01*
X66002930Y-76117528D01*
X65897089Y-76300852D01*
X65897086Y-76300859D01*
X65827848Y-76500909D01*
X65827845Y-76500920D01*
X65797718Y-76710454D01*
X37894482Y-76710454D01*
X38052569Y-76412269D01*
X38187368Y-76073949D01*
X38284798Y-75723039D01*
X38343716Y-75363651D01*
X38363433Y-75000000D01*
X38343716Y-74636349D01*
X38284798Y-74276961D01*
X38255982Y-74173174D01*
X65801398Y-74173174D01*
X65811470Y-74384623D01*
X65811472Y-74384636D01*
X65861380Y-74590358D01*
X65861382Y-74590364D01*
X65949324Y-74782931D01*
X65949328Y-74782938D01*
X66072115Y-74955368D01*
X66072119Y-74955373D01*
X66072121Y-74955375D01*
X66225334Y-75101463D01*
X66403426Y-75215916D01*
X66599959Y-75294596D01*
X66807831Y-75334660D01*
X66807835Y-75334660D01*
X67766481Y-75334660D01*
X67766483Y-75334660D01*
X67924419Y-75319579D01*
X68127542Y-75259937D01*
X68315706Y-75162931D01*
X68482112Y-75032068D01*
X68620745Y-74872078D01*
X68726593Y-74688742D01*
X68795833Y-74488687D01*
X68825961Y-74279144D01*
X68820784Y-74170456D01*
X68820784Y-74170454D01*
X91197718Y-74170454D01*
X91207790Y-74381903D01*
X91207792Y-74381916D01*
X91257700Y-74587638D01*
X91257702Y-74587644D01*
X91345644Y-74780211D01*
X91345648Y-74780218D01*
X91468435Y-74952648D01*
X91468439Y-74952653D01*
X91468441Y-74952655D01*
X91621654Y-75098743D01*
X91799746Y-75213196D01*
X91996279Y-75291876D01*
X92204151Y-75331940D01*
X92204155Y-75331940D01*
X93162801Y-75331940D01*
X93162803Y-75331940D01*
X93320739Y-75316859D01*
X93523862Y-75257217D01*
X93712026Y-75160211D01*
X93878432Y-75029348D01*
X93903861Y-75000002D01*
X96636567Y-75000002D01*
X96656284Y-75363651D01*
X96715200Y-75723034D01*
X96801603Y-76034225D01*
X96812632Y-76073949D01*
X96947431Y-76412269D01*
X96994425Y-76500909D01*
X97118015Y-76734026D01*
X97118017Y-76734030D01*
X97322393Y-77035461D01*
X97322392Y-77035461D01*
X97558162Y-77313030D01*
X97822545Y-77563468D01*
X97822560Y-77563481D01*
X98112485Y-77783876D01*
X98424540Y-77971634D01*
X98544228Y-78027007D01*
X98755053Y-78124546D01*
X98755065Y-78124551D01*
X99100186Y-78240836D01*
X99455857Y-78319125D01*
X99817907Y-78358500D01*
X99817915Y-78358500D01*
X100182085Y-78358500D01*
X100182093Y-78358500D01*
X100544143Y-78319125D01*
X100899814Y-78240836D01*
X101244935Y-78124551D01*
X101575460Y-77971634D01*
X101887515Y-77783876D01*
X102177440Y-77563481D01*
X102441837Y-77313031D01*
X102677606Y-77035463D01*
X102881982Y-76734031D01*
X103052569Y-76412269D01*
X103187368Y-76073949D01*
X103284798Y-75723039D01*
X103343716Y-75363651D01*
X103363433Y-75000000D01*
X103343716Y-74636349D01*
X103284798Y-74276961D01*
X103187368Y-73926051D01*
X103052569Y-73587731D01*
X102881982Y-73265969D01*
X102677606Y-72964537D01*
X102518190Y-72776859D01*
X102441837Y-72686969D01*
X102177454Y-72436531D01*
X102177439Y-72436518D01*
X101887512Y-72216122D01*
X101771002Y-72146020D01*
X101575460Y-72028366D01*
X101575454Y-72028363D01*
X101244946Y-71875453D01*
X101244934Y-71875448D01*
X100899823Y-71759167D01*
X100899822Y-71759166D01*
X100899814Y-71759164D01*
X100899809Y-71759162D01*
X100899806Y-71759162D01*
X100544159Y-71680878D01*
X100544146Y-71680875D01*
X100544143Y-71680875D01*
X100544140Y-71680874D01*
X100544131Y-71680873D01*
X100182100Y-71641500D01*
X100182093Y-71641500D01*
X99817907Y-71641500D01*
X99817899Y-71641500D01*
X99455868Y-71680873D01*
X99455840Y-71680878D01*
X99100193Y-71759162D01*
X99100176Y-71759167D01*
X98755065Y-71875448D01*
X98755053Y-71875453D01*
X98424545Y-72028363D01*
X98424538Y-72028367D01*
X98112487Y-72216122D01*
X97822560Y-72436518D01*
X97822545Y-72436531D01*
X97558162Y-72686969D01*
X97322393Y-72964538D01*
X97118017Y-73265969D01*
X97118015Y-73265973D01*
X96947430Y-73587733D01*
X96947426Y-73587742D01*
X96812632Y-73926050D01*
X96715200Y-74276965D01*
X96656284Y-74636348D01*
X96636567Y-74999997D01*
X96636567Y-75000002D01*
X93903861Y-75000002D01*
X93903863Y-75000000D01*
X93944893Y-74952648D01*
X94017065Y-74869358D01*
X94122913Y-74686022D01*
X94192153Y-74485967D01*
X94222281Y-74276424D01*
X94217233Y-74170454D01*
X94212209Y-74064976D01*
X94212208Y-74064971D01*
X94212208Y-74064966D01*
X94162298Y-73859236D01*
X94074356Y-73666669D01*
X94074353Y-73666665D01*
X94074351Y-73666661D01*
X93951564Y-73494231D01*
X93951555Y-73494221D01*
X93873978Y-73420252D01*
X93798346Y-73348137D01*
X93620254Y-73233684D01*
X93423721Y-73155004D01*
X93423720Y-73155003D01*
X93423718Y-73155003D01*
X93215853Y-73114940D01*
X93215849Y-73114940D01*
X92257197Y-73114940D01*
X92257195Y-73114940D01*
X92257177Y-73114941D01*
X92099271Y-73130019D01*
X92099256Y-73130022D01*
X91896135Y-73189663D01*
X91707976Y-73286667D01*
X91541564Y-73417534D01*
X91402938Y-73577517D01*
X91402930Y-73577528D01*
X91297089Y-73760852D01*
X91297086Y-73760859D01*
X91227848Y-73960909D01*
X91227845Y-73960920D01*
X91197718Y-74170454D01*
X68820784Y-74170454D01*
X68815889Y-74067696D01*
X68815888Y-74067691D01*
X68815888Y-74067686D01*
X68765978Y-73861956D01*
X68678036Y-73669389D01*
X68678033Y-73669385D01*
X68678031Y-73669381D01*
X68555244Y-73496951D01*
X68555235Y-73496941D01*
X68528001Y-73470974D01*
X68402026Y-73350857D01*
X68397790Y-73348135D01*
X68223934Y-73236404D01*
X68113975Y-73192383D01*
X68027401Y-73157724D01*
X68027400Y-73157723D01*
X68027398Y-73157723D01*
X67819533Y-73117660D01*
X67819529Y-73117660D01*
X66860877Y-73117660D01*
X66860875Y-73117660D01*
X66860857Y-73117661D01*
X66702951Y-73132739D01*
X66702936Y-73132742D01*
X66499815Y-73192383D01*
X66311656Y-73289387D01*
X66145244Y-73420254D01*
X66006618Y-73580237D01*
X66006610Y-73580248D01*
X65900769Y-73763572D01*
X65900766Y-73763579D01*
X65831528Y-73963629D01*
X65831525Y-73963640D01*
X65801398Y-74173174D01*
X38255982Y-74173174D01*
X38187368Y-73926051D01*
X38052569Y-73587731D01*
X37881982Y-73265969D01*
X37677606Y-72964537D01*
X37518190Y-72776859D01*
X37441837Y-72686969D01*
X37177454Y-72436531D01*
X37177439Y-72436518D01*
X36887512Y-72216122D01*
X36771002Y-72146020D01*
X36575460Y-72028366D01*
X36575454Y-72028363D01*
X36244946Y-71875453D01*
X36244934Y-71875448D01*
X35899823Y-71759167D01*
X35899822Y-71759166D01*
X35899814Y-71759164D01*
X35899809Y-71759162D01*
X35899806Y-71759162D01*
X35544159Y-71680878D01*
X35544146Y-71680875D01*
X35544143Y-71680875D01*
X35544140Y-71680874D01*
X35544131Y-71680873D01*
X35182100Y-71641500D01*
X35182093Y-71641500D01*
X34817907Y-71641500D01*
X34817899Y-71641500D01*
X34455868Y-71680873D01*
X34455840Y-71680878D01*
X34100193Y-71759162D01*
X34100176Y-71759167D01*
X33755065Y-71875448D01*
X33755053Y-71875453D01*
X33424545Y-72028363D01*
X33424538Y-72028367D01*
X33112487Y-72216122D01*
X32822560Y-72436518D01*
X32822545Y-72436531D01*
X32558162Y-72686969D01*
X32322393Y-72964538D01*
X32118017Y-73265969D01*
X32118015Y-73265973D01*
X31947430Y-73587733D01*
X31947426Y-73587742D01*
X31812632Y-73926050D01*
X31715200Y-74276965D01*
X31656284Y-74636348D01*
X31636567Y-74999997D01*
X31636567Y-75000002D01*
X30025500Y-75000002D01*
X30025500Y-71633174D01*
X65801398Y-71633174D01*
X65811470Y-71844623D01*
X65811472Y-71844636D01*
X65861380Y-72050358D01*
X65861382Y-72050364D01*
X65949324Y-72242931D01*
X65949328Y-72242938D01*
X66072115Y-72415368D01*
X66072119Y-72415373D01*
X66072121Y-72415375D01*
X66225334Y-72561463D01*
X66403426Y-72675916D01*
X66599959Y-72754596D01*
X66807831Y-72794660D01*
X66807835Y-72794660D01*
X67766481Y-72794660D01*
X67766483Y-72794660D01*
X67924419Y-72779579D01*
X68127542Y-72719937D01*
X68315706Y-72622931D01*
X68482112Y-72492068D01*
X68620745Y-72332078D01*
X68726593Y-72148742D01*
X68795833Y-71948687D01*
X68825961Y-71739144D01*
X68825121Y-71721513D01*
X68820784Y-71630454D01*
X91197718Y-71630454D01*
X91207790Y-71841903D01*
X91207792Y-71841916D01*
X91257700Y-72047638D01*
X91257702Y-72047644D01*
X91345644Y-72240211D01*
X91345648Y-72240218D01*
X91468435Y-72412648D01*
X91468439Y-72412653D01*
X91468441Y-72412655D01*
X91621654Y-72558743D01*
X91799746Y-72673196D01*
X91996279Y-72751876D01*
X92204151Y-72791940D01*
X92204155Y-72791940D01*
X93162801Y-72791940D01*
X93162803Y-72791940D01*
X93320739Y-72776859D01*
X93523862Y-72717217D01*
X93712026Y-72620211D01*
X93878432Y-72489348D01*
X93924199Y-72436531D01*
X93944893Y-72412648D01*
X94017065Y-72329358D01*
X94122913Y-72146022D01*
X94192153Y-71945967D01*
X94219011Y-71759167D01*
X94222281Y-71736425D01*
X94212209Y-71524976D01*
X94212208Y-71524971D01*
X94212208Y-71524966D01*
X94162298Y-71319236D01*
X94074356Y-71126669D01*
X94074353Y-71126665D01*
X94074351Y-71126661D01*
X93951564Y-70954231D01*
X93951555Y-70954221D01*
X93873978Y-70880252D01*
X93798346Y-70808137D01*
X93620254Y-70693684D01*
X93423721Y-70615004D01*
X93423720Y-70615003D01*
X93423718Y-70615003D01*
X93215853Y-70574940D01*
X93215849Y-70574940D01*
X92257197Y-70574940D01*
X92257195Y-70574940D01*
X92257177Y-70574941D01*
X92099271Y-70590019D01*
X92099256Y-70590022D01*
X91896135Y-70649663D01*
X91707976Y-70746667D01*
X91541564Y-70877534D01*
X91402938Y-71037517D01*
X91402930Y-71037528D01*
X91297089Y-71220852D01*
X91297086Y-71220859D01*
X91227848Y-71420909D01*
X91227845Y-71420920D01*
X91197718Y-71630454D01*
X68820784Y-71630454D01*
X68815889Y-71527696D01*
X68815888Y-71527691D01*
X68815888Y-71527686D01*
X68765978Y-71321956D01*
X68678036Y-71129389D01*
X68678033Y-71129385D01*
X68678031Y-71129381D01*
X68555244Y-70956951D01*
X68555235Y-70956941D01*
X68528001Y-70930974D01*
X68402026Y-70810857D01*
X68397790Y-70808135D01*
X68223934Y-70696404D01*
X68113975Y-70652383D01*
X68027401Y-70617724D01*
X68027400Y-70617723D01*
X68027398Y-70617723D01*
X67819533Y-70577660D01*
X67819529Y-70577660D01*
X66860877Y-70577660D01*
X66860875Y-70577660D01*
X66860857Y-70577661D01*
X66702951Y-70592739D01*
X66702936Y-70592742D01*
X66499815Y-70652383D01*
X66311656Y-70749387D01*
X66145244Y-70880254D01*
X66006618Y-71040237D01*
X66006610Y-71040248D01*
X65900769Y-71223572D01*
X65900766Y-71223579D01*
X65831528Y-71423629D01*
X65831525Y-71423640D01*
X65801398Y-71633174D01*
X30025500Y-71633174D01*
X30025500Y-70151500D01*
X30045502Y-70083379D01*
X30099158Y-70036886D01*
X30151500Y-70025500D01*
X104848500Y-70025500D01*
X104916621Y-70045502D01*
G37*
G04 #@! TD.AperFunction*
M02*
