G04 #@! TF.GenerationSoftware,KiCad,Pcbnew,7.0.5.1-1-g8f565ef7f0-dirty-deb11*
G04 #@! TF.CreationDate,2023-07-13T10:58:24+00:00*
G04 #@! TF.ProjectId,LocoBuffer,4c6f636f-4275-4666-9665-722e6b696361,rev?*
G04 #@! TF.SameCoordinates,Original*
G04 #@! TF.FileFunction,Legend,Bot*
G04 #@! TF.FilePolarity,Positive*
%FSLAX46Y46*%
G04 Gerber Fmt 4.6, Leading zero omitted, Abs format (unit mm)*
G04 Created by KiCad (PCBNEW 7.0.5.1-1-g8f565ef7f0-dirty-deb11) date 2023-07-13 10:58:24*
%MOMM*%
%LPD*%
G01*
G04 APERTURE LIST*
%ADD10C,0.150000*%
%ADD11C,3.450000*%
%ADD12R,1.398000X1.398000*%
%ADD13C,1.398000*%
%ADD14C,5.700000*%
%ADD15R,2.000000X1.200000*%
%ADD16O,2.000000X1.200000*%
%ADD17R,1.700000X1.700000*%
%ADD18O,1.700000X1.700000*%
G04 APERTURE END LIST*
D10*
X85937030Y-72759819D02*
X86413220Y-72759819D01*
X86413220Y-72759819D02*
X86413220Y-71759819D01*
X85460839Y-72759819D02*
X85556077Y-72712200D01*
X85556077Y-72712200D02*
X85603696Y-72664580D01*
X85603696Y-72664580D02*
X85651315Y-72569342D01*
X85651315Y-72569342D02*
X85651315Y-72283628D01*
X85651315Y-72283628D02*
X85603696Y-72188390D01*
X85603696Y-72188390D02*
X85556077Y-72140771D01*
X85556077Y-72140771D02*
X85460839Y-72093152D01*
X85460839Y-72093152D02*
X85317982Y-72093152D01*
X85317982Y-72093152D02*
X85222744Y-72140771D01*
X85222744Y-72140771D02*
X85175125Y-72188390D01*
X85175125Y-72188390D02*
X85127506Y-72283628D01*
X85127506Y-72283628D02*
X85127506Y-72569342D01*
X85127506Y-72569342D02*
X85175125Y-72664580D01*
X85175125Y-72664580D02*
X85222744Y-72712200D01*
X85222744Y-72712200D02*
X85317982Y-72759819D01*
X85317982Y-72759819D02*
X85460839Y-72759819D01*
X84270363Y-72712200D02*
X84365601Y-72759819D01*
X84365601Y-72759819D02*
X84556077Y-72759819D01*
X84556077Y-72759819D02*
X84651315Y-72712200D01*
X84651315Y-72712200D02*
X84698934Y-72664580D01*
X84698934Y-72664580D02*
X84746553Y-72569342D01*
X84746553Y-72569342D02*
X84746553Y-72283628D01*
X84746553Y-72283628D02*
X84698934Y-72188390D01*
X84698934Y-72188390D02*
X84651315Y-72140771D01*
X84651315Y-72140771D02*
X84556077Y-72093152D01*
X84556077Y-72093152D02*
X84365601Y-72093152D01*
X84365601Y-72093152D02*
X84270363Y-72140771D01*
X83698934Y-72759819D02*
X83794172Y-72712200D01*
X83794172Y-72712200D02*
X83841791Y-72664580D01*
X83841791Y-72664580D02*
X83889410Y-72569342D01*
X83889410Y-72569342D02*
X83889410Y-72283628D01*
X83889410Y-72283628D02*
X83841791Y-72188390D01*
X83841791Y-72188390D02*
X83794172Y-72140771D01*
X83794172Y-72140771D02*
X83698934Y-72093152D01*
X83698934Y-72093152D02*
X83556077Y-72093152D01*
X83556077Y-72093152D02*
X83460839Y-72140771D01*
X83460839Y-72140771D02*
X83413220Y-72188390D01*
X83413220Y-72188390D02*
X83365601Y-72283628D01*
X83365601Y-72283628D02*
X83365601Y-72569342D01*
X83365601Y-72569342D02*
X83413220Y-72664580D01*
X83413220Y-72664580D02*
X83460839Y-72712200D01*
X83460839Y-72712200D02*
X83556077Y-72759819D01*
X83556077Y-72759819D02*
X83698934Y-72759819D01*
X82937029Y-72759819D02*
X82937029Y-71759819D01*
X82937029Y-71759819D02*
X82365601Y-72759819D01*
X82365601Y-72759819D02*
X82365601Y-71759819D01*
X81508458Y-72712200D02*
X81603696Y-72759819D01*
X81603696Y-72759819D02*
X81794172Y-72759819D01*
X81794172Y-72759819D02*
X81889410Y-72712200D01*
X81889410Y-72712200D02*
X81937029Y-72616961D01*
X81937029Y-72616961D02*
X81937029Y-72236009D01*
X81937029Y-72236009D02*
X81889410Y-72140771D01*
X81889410Y-72140771D02*
X81794172Y-72093152D01*
X81794172Y-72093152D02*
X81603696Y-72093152D01*
X81603696Y-72093152D02*
X81508458Y-72140771D01*
X81508458Y-72140771D02*
X81460839Y-72236009D01*
X81460839Y-72236009D02*
X81460839Y-72331247D01*
X81460839Y-72331247D02*
X81937029Y-72426485D01*
X81175124Y-72093152D02*
X80794172Y-72093152D01*
X81032267Y-71759819D02*
X81032267Y-72616961D01*
X81032267Y-72616961D02*
X80984648Y-72712200D01*
X80984648Y-72712200D02*
X80889410Y-72759819D01*
X80889410Y-72759819D02*
X80794172Y-72759819D01*
X79365600Y-72236009D02*
X79222743Y-72283628D01*
X79222743Y-72283628D02*
X79175124Y-72331247D01*
X79175124Y-72331247D02*
X79127505Y-72426485D01*
X79127505Y-72426485D02*
X79127505Y-72569342D01*
X79127505Y-72569342D02*
X79175124Y-72664580D01*
X79175124Y-72664580D02*
X79222743Y-72712200D01*
X79222743Y-72712200D02*
X79317981Y-72759819D01*
X79317981Y-72759819D02*
X79698933Y-72759819D01*
X79698933Y-72759819D02*
X79698933Y-71759819D01*
X79698933Y-71759819D02*
X79365600Y-71759819D01*
X79365600Y-71759819D02*
X79270362Y-71807438D01*
X79270362Y-71807438D02*
X79222743Y-71855057D01*
X79222743Y-71855057D02*
X79175124Y-71950295D01*
X79175124Y-71950295D02*
X79175124Y-72045533D01*
X79175124Y-72045533D02*
X79222743Y-72140771D01*
X79222743Y-72140771D02*
X79270362Y-72188390D01*
X79270362Y-72188390D02*
X79365600Y-72236009D01*
X79365600Y-72236009D02*
X79698933Y-72236009D01*
X78270362Y-72093152D02*
X78270362Y-72759819D01*
X78698933Y-72093152D02*
X78698933Y-72616961D01*
X78698933Y-72616961D02*
X78651314Y-72712200D01*
X78651314Y-72712200D02*
X78556076Y-72759819D01*
X78556076Y-72759819D02*
X78413219Y-72759819D01*
X78413219Y-72759819D02*
X78317981Y-72712200D01*
X78317981Y-72712200D02*
X78270362Y-72664580D01*
X77937028Y-72093152D02*
X77556076Y-72093152D01*
X77794171Y-72759819D02*
X77794171Y-71902676D01*
X77794171Y-71902676D02*
X77746552Y-71807438D01*
X77746552Y-71807438D02*
X77651314Y-71759819D01*
X77651314Y-71759819D02*
X77556076Y-71759819D01*
X77365599Y-72093152D02*
X76984647Y-72093152D01*
X77222742Y-72759819D02*
X77222742Y-71902676D01*
X77222742Y-71902676D02*
X77175123Y-71807438D01*
X77175123Y-71807438D02*
X77079885Y-71759819D01*
X77079885Y-71759819D02*
X76984647Y-71759819D01*
X76270361Y-72712200D02*
X76365599Y-72759819D01*
X76365599Y-72759819D02*
X76556075Y-72759819D01*
X76556075Y-72759819D02*
X76651313Y-72712200D01*
X76651313Y-72712200D02*
X76698932Y-72616961D01*
X76698932Y-72616961D02*
X76698932Y-72236009D01*
X76698932Y-72236009D02*
X76651313Y-72140771D01*
X76651313Y-72140771D02*
X76556075Y-72093152D01*
X76556075Y-72093152D02*
X76365599Y-72093152D01*
X76365599Y-72093152D02*
X76270361Y-72140771D01*
X76270361Y-72140771D02*
X76222742Y-72236009D01*
X76222742Y-72236009D02*
X76222742Y-72331247D01*
X76222742Y-72331247D02*
X76698932Y-72426485D01*
X75794170Y-72759819D02*
X75794170Y-72093152D01*
X75794170Y-72283628D02*
X75746551Y-72188390D01*
X75746551Y-72188390D02*
X75698932Y-72140771D01*
X75698932Y-72140771D02*
X75603694Y-72093152D01*
X75603694Y-72093152D02*
X75508456Y-72093152D01*
X74413217Y-72236009D02*
X74079884Y-72236009D01*
X73937027Y-72759819D02*
X74413217Y-72759819D01*
X74413217Y-72759819D02*
X74413217Y-71759819D01*
X74413217Y-71759819D02*
X73937027Y-71759819D01*
X73556074Y-72712200D02*
X73413217Y-72759819D01*
X73413217Y-72759819D02*
X73175122Y-72759819D01*
X73175122Y-72759819D02*
X73079884Y-72712200D01*
X73079884Y-72712200D02*
X73032265Y-72664580D01*
X73032265Y-72664580D02*
X72984646Y-72569342D01*
X72984646Y-72569342D02*
X72984646Y-72474104D01*
X72984646Y-72474104D02*
X73032265Y-72378866D01*
X73032265Y-72378866D02*
X73079884Y-72331247D01*
X73079884Y-72331247D02*
X73175122Y-72283628D01*
X73175122Y-72283628D02*
X73365598Y-72236009D01*
X73365598Y-72236009D02*
X73460836Y-72188390D01*
X73460836Y-72188390D02*
X73508455Y-72140771D01*
X73508455Y-72140771D02*
X73556074Y-72045533D01*
X73556074Y-72045533D02*
X73556074Y-71950295D01*
X73556074Y-71950295D02*
X73508455Y-71855057D01*
X73508455Y-71855057D02*
X73460836Y-71807438D01*
X73460836Y-71807438D02*
X73365598Y-71759819D01*
X73365598Y-71759819D02*
X73127503Y-71759819D01*
X73127503Y-71759819D02*
X72984646Y-71807438D01*
X72556074Y-72759819D02*
X72556074Y-71759819D01*
X72556074Y-71759819D02*
X72175122Y-71759819D01*
X72175122Y-71759819D02*
X72079884Y-71807438D01*
X72079884Y-71807438D02*
X72032265Y-71855057D01*
X72032265Y-71855057D02*
X71984646Y-71950295D01*
X71984646Y-71950295D02*
X71984646Y-72093152D01*
X71984646Y-72093152D02*
X72032265Y-72188390D01*
X72032265Y-72188390D02*
X72079884Y-72236009D01*
X72079884Y-72236009D02*
X72175122Y-72283628D01*
X72175122Y-72283628D02*
X72556074Y-72283628D01*
X71651312Y-71759819D02*
X71032265Y-71759819D01*
X71032265Y-71759819D02*
X71365598Y-72140771D01*
X71365598Y-72140771D02*
X71222741Y-72140771D01*
X71222741Y-72140771D02*
X71127503Y-72188390D01*
X71127503Y-72188390D02*
X71079884Y-72236009D01*
X71079884Y-72236009D02*
X71032265Y-72331247D01*
X71032265Y-72331247D02*
X71032265Y-72569342D01*
X71032265Y-72569342D02*
X71079884Y-72664580D01*
X71079884Y-72664580D02*
X71127503Y-72712200D01*
X71127503Y-72712200D02*
X71222741Y-72759819D01*
X71222741Y-72759819D02*
X71508455Y-72759819D01*
X71508455Y-72759819D02*
X71603693Y-72712200D01*
X71603693Y-72712200D02*
X71651312Y-72664580D01*
X70651312Y-71855057D02*
X70603693Y-71807438D01*
X70603693Y-71807438D02*
X70508455Y-71759819D01*
X70508455Y-71759819D02*
X70270360Y-71759819D01*
X70270360Y-71759819D02*
X70175122Y-71807438D01*
X70175122Y-71807438D02*
X70127503Y-71855057D01*
X70127503Y-71855057D02*
X70079884Y-71950295D01*
X70079884Y-71950295D02*
X70079884Y-72045533D01*
X70079884Y-72045533D02*
X70127503Y-72188390D01*
X70127503Y-72188390D02*
X70698931Y-72759819D01*
X70698931Y-72759819D02*
X70079884Y-72759819D01*
X86556077Y-73369819D02*
X86222744Y-74369819D01*
X86222744Y-74369819D02*
X85889411Y-73369819D01*
X84603696Y-73369819D02*
X84508458Y-73369819D01*
X84508458Y-73369819D02*
X84413220Y-73417438D01*
X84413220Y-73417438D02*
X84365601Y-73465057D01*
X84365601Y-73465057D02*
X84317982Y-73560295D01*
X84317982Y-73560295D02*
X84270363Y-73750771D01*
X84270363Y-73750771D02*
X84270363Y-73988866D01*
X84270363Y-73988866D02*
X84317982Y-74179342D01*
X84317982Y-74179342D02*
X84365601Y-74274580D01*
X84365601Y-74274580D02*
X84413220Y-74322200D01*
X84413220Y-74322200D02*
X84508458Y-74369819D01*
X84508458Y-74369819D02*
X84603696Y-74369819D01*
X84603696Y-74369819D02*
X84698934Y-74322200D01*
X84698934Y-74322200D02*
X84746553Y-74274580D01*
X84746553Y-74274580D02*
X84794172Y-74179342D01*
X84794172Y-74179342D02*
X84841791Y-73988866D01*
X84841791Y-73988866D02*
X84841791Y-73750771D01*
X84841791Y-73750771D02*
X84794172Y-73560295D01*
X84794172Y-73560295D02*
X84746553Y-73465057D01*
X84746553Y-73465057D02*
X84698934Y-73417438D01*
X84698934Y-73417438D02*
X84603696Y-73369819D01*
X83841791Y-74274580D02*
X83794172Y-74322200D01*
X83794172Y-74322200D02*
X83841791Y-74369819D01*
X83841791Y-74369819D02*
X83889410Y-74322200D01*
X83889410Y-74322200D02*
X83841791Y-74274580D01*
X83841791Y-74274580D02*
X83841791Y-74369819D01*
X83175125Y-73369819D02*
X83079887Y-73369819D01*
X83079887Y-73369819D02*
X82984649Y-73417438D01*
X82984649Y-73417438D02*
X82937030Y-73465057D01*
X82937030Y-73465057D02*
X82889411Y-73560295D01*
X82889411Y-73560295D02*
X82841792Y-73750771D01*
X82841792Y-73750771D02*
X82841792Y-73988866D01*
X82841792Y-73988866D02*
X82889411Y-74179342D01*
X82889411Y-74179342D02*
X82937030Y-74274580D01*
X82937030Y-74274580D02*
X82984649Y-74322200D01*
X82984649Y-74322200D02*
X83079887Y-74369819D01*
X83079887Y-74369819D02*
X83175125Y-74369819D01*
X83175125Y-74369819D02*
X83270363Y-74322200D01*
X83270363Y-74322200D02*
X83317982Y-74274580D01*
X83317982Y-74274580D02*
X83365601Y-74179342D01*
X83365601Y-74179342D02*
X83413220Y-73988866D01*
X83413220Y-73988866D02*
X83413220Y-73750771D01*
X83413220Y-73750771D02*
X83365601Y-73560295D01*
X83365601Y-73560295D02*
X83317982Y-73465057D01*
X83317982Y-73465057D02*
X83270363Y-73417438D01*
X83270363Y-73417438D02*
X83175125Y-73369819D01*
X82413220Y-74274580D02*
X82365601Y-74322200D01*
X82365601Y-74322200D02*
X82413220Y-74369819D01*
X82413220Y-74369819D02*
X82460839Y-74322200D01*
X82460839Y-74322200D02*
X82413220Y-74274580D01*
X82413220Y-74274580D02*
X82413220Y-74369819D01*
X81413221Y-74369819D02*
X81984649Y-74369819D01*
X81698935Y-74369819D02*
X81698935Y-73369819D01*
X81698935Y-73369819D02*
X81794173Y-73512676D01*
X81794173Y-73512676D02*
X81889411Y-73607914D01*
X81889411Y-73607914D02*
X81984649Y-73655533D01*
X78069077Y-79429177D02*
X78069077Y-80036320D01*
X78069077Y-80036320D02*
X78109554Y-80157748D01*
X78109554Y-80157748D02*
X78190506Y-80238701D01*
X78190506Y-80238701D02*
X78311935Y-80279177D01*
X78311935Y-80279177D02*
X78392887Y-80279177D01*
X77259554Y-80279177D02*
X77664316Y-80279177D01*
X77664316Y-80279177D02*
X77664316Y-79429177D01*
X76490506Y-80198224D02*
X76530982Y-80238701D01*
X76530982Y-80238701D02*
X76652411Y-80279177D01*
X76652411Y-80279177D02*
X76733363Y-80279177D01*
X76733363Y-80279177D02*
X76854792Y-80238701D01*
X76854792Y-80238701D02*
X76935744Y-80157748D01*
X76935744Y-80157748D02*
X76976221Y-80076796D01*
X76976221Y-80076796D02*
X77016697Y-79914891D01*
X77016697Y-79914891D02*
X77016697Y-79793462D01*
X77016697Y-79793462D02*
X76976221Y-79631558D01*
X76976221Y-79631558D02*
X76935744Y-79550605D01*
X76935744Y-79550605D02*
X76854792Y-79469653D01*
X76854792Y-79469653D02*
X76733363Y-79429177D01*
X76733363Y-79429177D02*
X76652411Y-79429177D01*
X76652411Y-79429177D02*
X76530982Y-79469653D01*
X76530982Y-79469653D02*
X76490506Y-79510129D01*
X75883363Y-79429177D02*
X75883363Y-80036320D01*
X75883363Y-80036320D02*
X75923840Y-80157748D01*
X75923840Y-80157748D02*
X76004792Y-80238701D01*
X76004792Y-80238701D02*
X76126221Y-80279177D01*
X76126221Y-80279177D02*
X76207173Y-80279177D01*
X75073840Y-80279177D02*
X75478602Y-80279177D01*
X75478602Y-80279177D02*
X75478602Y-79429177D01*
X74304792Y-80198224D02*
X74345268Y-80238701D01*
X74345268Y-80238701D02*
X74466697Y-80279177D01*
X74466697Y-80279177D02*
X74547649Y-80279177D01*
X74547649Y-80279177D02*
X74669078Y-80238701D01*
X74669078Y-80238701D02*
X74750030Y-80157748D01*
X74750030Y-80157748D02*
X74790507Y-80076796D01*
X74790507Y-80076796D02*
X74830983Y-79914891D01*
X74830983Y-79914891D02*
X74830983Y-79793462D01*
X74830983Y-79793462D02*
X74790507Y-79631558D01*
X74790507Y-79631558D02*
X74750030Y-79550605D01*
X74750030Y-79550605D02*
X74669078Y-79469653D01*
X74669078Y-79469653D02*
X74547649Y-79429177D01*
X74547649Y-79429177D02*
X74466697Y-79429177D01*
X74466697Y-79429177D02*
X74345268Y-79469653D01*
X74345268Y-79469653D02*
X74304792Y-79510129D01*
X73697649Y-79429177D02*
X73697649Y-80036320D01*
X73697649Y-80036320D02*
X73738126Y-80157748D01*
X73738126Y-80157748D02*
X73819078Y-80238701D01*
X73819078Y-80238701D02*
X73940507Y-80279177D01*
X73940507Y-80279177D02*
X74021459Y-80279177D01*
X72888126Y-80279177D02*
X73292888Y-80279177D01*
X73292888Y-80279177D02*
X73292888Y-79429177D01*
X72119078Y-80198224D02*
X72159554Y-80238701D01*
X72159554Y-80238701D02*
X72280983Y-80279177D01*
X72280983Y-80279177D02*
X72361935Y-80279177D01*
X72361935Y-80279177D02*
X72483364Y-80238701D01*
X72483364Y-80238701D02*
X72564316Y-80157748D01*
X72564316Y-80157748D02*
X72604793Y-80076796D01*
X72604793Y-80076796D02*
X72645269Y-79914891D01*
X72645269Y-79914891D02*
X72645269Y-79793462D01*
X72645269Y-79793462D02*
X72604793Y-79631558D01*
X72604793Y-79631558D02*
X72564316Y-79550605D01*
X72564316Y-79550605D02*
X72483364Y-79469653D01*
X72483364Y-79469653D02*
X72361935Y-79429177D01*
X72361935Y-79429177D02*
X72280983Y-79429177D01*
X72280983Y-79429177D02*
X72159554Y-79469653D01*
X72159554Y-79469653D02*
X72119078Y-79510129D01*
X71511935Y-79429177D02*
X71511935Y-80036320D01*
X71511935Y-80036320D02*
X71552412Y-80157748D01*
X71552412Y-80157748D02*
X71633364Y-80238701D01*
X71633364Y-80238701D02*
X71754793Y-80279177D01*
X71754793Y-80279177D02*
X71835745Y-80279177D01*
X70702412Y-80279177D02*
X71107174Y-80279177D01*
X71107174Y-80279177D02*
X71107174Y-79429177D01*
X69933364Y-80198224D02*
X69973840Y-80238701D01*
X69973840Y-80238701D02*
X70095269Y-80279177D01*
X70095269Y-80279177D02*
X70176221Y-80279177D01*
X70176221Y-80279177D02*
X70297650Y-80238701D01*
X70297650Y-80238701D02*
X70378602Y-80157748D01*
X70378602Y-80157748D02*
X70419079Y-80076796D01*
X70419079Y-80076796D02*
X70459555Y-79914891D01*
X70459555Y-79914891D02*
X70459555Y-79793462D01*
X70459555Y-79793462D02*
X70419079Y-79631558D01*
X70419079Y-79631558D02*
X70378602Y-79550605D01*
X70378602Y-79550605D02*
X70297650Y-79469653D01*
X70297650Y-79469653D02*
X70176221Y-79429177D01*
X70176221Y-79429177D02*
X70095269Y-79429177D01*
X70095269Y-79429177D02*
X69973840Y-79469653D01*
X69973840Y-79469653D02*
X69933364Y-79510129D01*
%LPC*%
D11*
X38000000Y-83237500D03*
X38000000Y-92762500D03*
D12*
X43080000Y-90540000D03*
D13*
X41050000Y-89524000D03*
X43080000Y-88508000D03*
X41048000Y-87492000D03*
X43080000Y-86476000D03*
X41050000Y-85460000D03*
D11*
X38000000Y-97237500D03*
X38000000Y-106762500D03*
D12*
X43080000Y-104540000D03*
D13*
X41050000Y-103524000D03*
X43080000Y-102508000D03*
X41048000Y-101492000D03*
X43080000Y-100476000D03*
X41050000Y-99460000D03*
D14*
X35000000Y-75000000D03*
X35000000Y-115000000D03*
X100000000Y-115000000D03*
X100000000Y-75000000D03*
D15*
X92710000Y-117403440D03*
D16*
X92710000Y-114863440D03*
X92710000Y-112323440D03*
X92710000Y-109783440D03*
X92710000Y-107243440D03*
X92710000Y-104703440D03*
X92710000Y-102163440D03*
X92710000Y-99623440D03*
X92710000Y-97083440D03*
X92710000Y-94543440D03*
X92710000Y-92003440D03*
X92710000Y-89463440D03*
X92710000Y-86923440D03*
X92710000Y-84383440D03*
X92710000Y-81843440D03*
X92710000Y-79303440D03*
X92710000Y-76763440D03*
X92710000Y-74223440D03*
X92710000Y-71683440D03*
X67313680Y-71686160D03*
X67313680Y-74226160D03*
X67310000Y-76763440D03*
X67310000Y-79303440D03*
X67310000Y-81843440D03*
X67310000Y-84383440D03*
X67310000Y-86923440D03*
X67310000Y-89463440D03*
X67310000Y-92003440D03*
X67310000Y-94543440D03*
X67310000Y-97083440D03*
X67310000Y-99623440D03*
X67310000Y-102163440D03*
X67310000Y-104703440D03*
X67310000Y-107243440D03*
X67310000Y-109783440D03*
X67310000Y-112323440D03*
X67310000Y-114863440D03*
X67310000Y-117403440D03*
D17*
X100250000Y-86920000D03*
D18*
X100250000Y-89460000D03*
X100250000Y-92000000D03*
X100250000Y-94540000D03*
%LPD*%
M02*
