G04 #@! TF.GenerationSoftware,KiCad,Pcbnew,7.0.5.1-1-g8f565ef7f0-dirty-deb11*
G04 #@! TF.CreationDate,2023-08-07T11:26:22+00:00*
G04 #@! TF.ProjectId,LocoBuffer,4c6f636f-4275-4666-9665-722e6b696361,0.0.1*
G04 #@! TF.SameCoordinates,Original*
G04 #@! TF.FileFunction,Legend,Top*
G04 #@! TF.FilePolarity,Positive*
%FSLAX46Y46*%
G04 Gerber Fmt 4.6, Leading zero omitted, Abs format (unit mm)*
G04 Created by KiCad (PCBNEW 7.0.5.1-1-g8f565ef7f0-dirty-deb11) date 2023-08-07 11:26:22*
%MOMM*%
%LPD*%
G01*
G04 APERTURE LIST*
%ADD10C,0.150000*%
%ADD11C,0.120000*%
%ADD12C,0.127000*%
%ADD13C,0.300000*%
%ADD14C,3.450000*%
%ADD15R,1.398000X1.398000*%
%ADD16C,1.398000*%
%ADD17C,5.700000*%
%ADD18R,2.000000X1.200000*%
%ADD19O,2.000000X1.200000*%
%ADD20R,0.850000X0.650000*%
%ADD21R,1.500000X2.000000*%
%ADD22R,3.800000X2.000000*%
%ADD23R,1.700000X1.700000*%
%ADD24O,1.700000X1.700000*%
%ADD25R,1.500000X1.500000*%
G04 APERTURE END LIST*
D10*
X40867039Y-119199819D02*
X40533706Y-118723628D01*
X40295611Y-119199819D02*
X40295611Y-118199819D01*
X40295611Y-118199819D02*
X40676563Y-118199819D01*
X40676563Y-118199819D02*
X40771801Y-118247438D01*
X40771801Y-118247438D02*
X40819420Y-118295057D01*
X40819420Y-118295057D02*
X40867039Y-118390295D01*
X40867039Y-118390295D02*
X40867039Y-118533152D01*
X40867039Y-118533152D02*
X40819420Y-118628390D01*
X40819420Y-118628390D02*
X40771801Y-118676009D01*
X40771801Y-118676009D02*
X40676563Y-118723628D01*
X40676563Y-118723628D02*
X40295611Y-118723628D01*
X41200373Y-118199819D02*
X41867039Y-119199819D01*
X41867039Y-118199819D02*
X41200373Y-119199819D01*
X48564969Y-99224819D02*
X48088779Y-99224819D01*
X48088779Y-99224819D02*
X48088779Y-98224819D01*
X49041160Y-99224819D02*
X48945922Y-99177200D01*
X48945922Y-99177200D02*
X48898303Y-99129580D01*
X48898303Y-99129580D02*
X48850684Y-99034342D01*
X48850684Y-99034342D02*
X48850684Y-98748628D01*
X48850684Y-98748628D02*
X48898303Y-98653390D01*
X48898303Y-98653390D02*
X48945922Y-98605771D01*
X48945922Y-98605771D02*
X49041160Y-98558152D01*
X49041160Y-98558152D02*
X49184017Y-98558152D01*
X49184017Y-98558152D02*
X49279255Y-98605771D01*
X49279255Y-98605771D02*
X49326874Y-98653390D01*
X49326874Y-98653390D02*
X49374493Y-98748628D01*
X49374493Y-98748628D02*
X49374493Y-99034342D01*
X49374493Y-99034342D02*
X49326874Y-99129580D01*
X49326874Y-99129580D02*
X49279255Y-99177200D01*
X49279255Y-99177200D02*
X49184017Y-99224819D01*
X49184017Y-99224819D02*
X49041160Y-99224819D01*
X50231636Y-99177200D02*
X50136398Y-99224819D01*
X50136398Y-99224819D02*
X49945922Y-99224819D01*
X49945922Y-99224819D02*
X49850684Y-99177200D01*
X49850684Y-99177200D02*
X49803065Y-99129580D01*
X49803065Y-99129580D02*
X49755446Y-99034342D01*
X49755446Y-99034342D02*
X49755446Y-98748628D01*
X49755446Y-98748628D02*
X49803065Y-98653390D01*
X49803065Y-98653390D02*
X49850684Y-98605771D01*
X49850684Y-98605771D02*
X49945922Y-98558152D01*
X49945922Y-98558152D02*
X50136398Y-98558152D01*
X50136398Y-98558152D02*
X50231636Y-98605771D01*
X50803065Y-99224819D02*
X50707827Y-99177200D01*
X50707827Y-99177200D02*
X50660208Y-99129580D01*
X50660208Y-99129580D02*
X50612589Y-99034342D01*
X50612589Y-99034342D02*
X50612589Y-98748628D01*
X50612589Y-98748628D02*
X50660208Y-98653390D01*
X50660208Y-98653390D02*
X50707827Y-98605771D01*
X50707827Y-98605771D02*
X50803065Y-98558152D01*
X50803065Y-98558152D02*
X50945922Y-98558152D01*
X50945922Y-98558152D02*
X51041160Y-98605771D01*
X51041160Y-98605771D02*
X51088779Y-98653390D01*
X51088779Y-98653390D02*
X51136398Y-98748628D01*
X51136398Y-98748628D02*
X51136398Y-99034342D01*
X51136398Y-99034342D02*
X51088779Y-99129580D01*
X51088779Y-99129580D02*
X51041160Y-99177200D01*
X51041160Y-99177200D02*
X50945922Y-99224819D01*
X50945922Y-99224819D02*
X50803065Y-99224819D01*
X51564970Y-99224819D02*
X51564970Y-98224819D01*
X51564970Y-98224819D02*
X52136398Y-99224819D01*
X52136398Y-99224819D02*
X52136398Y-98224819D01*
X52993541Y-99177200D02*
X52898303Y-99224819D01*
X52898303Y-99224819D02*
X52707827Y-99224819D01*
X52707827Y-99224819D02*
X52612589Y-99177200D01*
X52612589Y-99177200D02*
X52564970Y-99081961D01*
X52564970Y-99081961D02*
X52564970Y-98701009D01*
X52564970Y-98701009D02*
X52612589Y-98605771D01*
X52612589Y-98605771D02*
X52707827Y-98558152D01*
X52707827Y-98558152D02*
X52898303Y-98558152D01*
X52898303Y-98558152D02*
X52993541Y-98605771D01*
X52993541Y-98605771D02*
X53041160Y-98701009D01*
X53041160Y-98701009D02*
X53041160Y-98796247D01*
X53041160Y-98796247D02*
X52564970Y-98891485D01*
X53326875Y-98558152D02*
X53707827Y-98558152D01*
X53469732Y-98224819D02*
X53469732Y-99081961D01*
X53469732Y-99081961D02*
X53517351Y-99177200D01*
X53517351Y-99177200D02*
X53612589Y-99224819D01*
X53612589Y-99224819D02*
X53707827Y-99224819D01*
X55136399Y-98701009D02*
X55279256Y-98748628D01*
X55279256Y-98748628D02*
X55326875Y-98796247D01*
X55326875Y-98796247D02*
X55374494Y-98891485D01*
X55374494Y-98891485D02*
X55374494Y-99034342D01*
X55374494Y-99034342D02*
X55326875Y-99129580D01*
X55326875Y-99129580D02*
X55279256Y-99177200D01*
X55279256Y-99177200D02*
X55184018Y-99224819D01*
X55184018Y-99224819D02*
X54803066Y-99224819D01*
X54803066Y-99224819D02*
X54803066Y-98224819D01*
X54803066Y-98224819D02*
X55136399Y-98224819D01*
X55136399Y-98224819D02*
X55231637Y-98272438D01*
X55231637Y-98272438D02*
X55279256Y-98320057D01*
X55279256Y-98320057D02*
X55326875Y-98415295D01*
X55326875Y-98415295D02*
X55326875Y-98510533D01*
X55326875Y-98510533D02*
X55279256Y-98605771D01*
X55279256Y-98605771D02*
X55231637Y-98653390D01*
X55231637Y-98653390D02*
X55136399Y-98701009D01*
X55136399Y-98701009D02*
X54803066Y-98701009D01*
X56231637Y-98558152D02*
X56231637Y-99224819D01*
X55803066Y-98558152D02*
X55803066Y-99081961D01*
X55803066Y-99081961D02*
X55850685Y-99177200D01*
X55850685Y-99177200D02*
X55945923Y-99224819D01*
X55945923Y-99224819D02*
X56088780Y-99224819D01*
X56088780Y-99224819D02*
X56184018Y-99177200D01*
X56184018Y-99177200D02*
X56231637Y-99129580D01*
X56564971Y-98558152D02*
X56945923Y-98558152D01*
X56707828Y-99224819D02*
X56707828Y-98367676D01*
X56707828Y-98367676D02*
X56755447Y-98272438D01*
X56755447Y-98272438D02*
X56850685Y-98224819D01*
X56850685Y-98224819D02*
X56945923Y-98224819D01*
X57136400Y-98558152D02*
X57517352Y-98558152D01*
X57279257Y-99224819D02*
X57279257Y-98367676D01*
X57279257Y-98367676D02*
X57326876Y-98272438D01*
X57326876Y-98272438D02*
X57422114Y-98224819D01*
X57422114Y-98224819D02*
X57517352Y-98224819D01*
X58231638Y-99177200D02*
X58136400Y-99224819D01*
X58136400Y-99224819D02*
X57945924Y-99224819D01*
X57945924Y-99224819D02*
X57850686Y-99177200D01*
X57850686Y-99177200D02*
X57803067Y-99081961D01*
X57803067Y-99081961D02*
X57803067Y-98701009D01*
X57803067Y-98701009D02*
X57850686Y-98605771D01*
X57850686Y-98605771D02*
X57945924Y-98558152D01*
X57945924Y-98558152D02*
X58136400Y-98558152D01*
X58136400Y-98558152D02*
X58231638Y-98605771D01*
X58231638Y-98605771D02*
X58279257Y-98701009D01*
X58279257Y-98701009D02*
X58279257Y-98796247D01*
X58279257Y-98796247D02*
X57803067Y-98891485D01*
X58707829Y-99224819D02*
X58707829Y-98558152D01*
X58707829Y-98748628D02*
X58755448Y-98653390D01*
X58755448Y-98653390D02*
X58803067Y-98605771D01*
X58803067Y-98605771D02*
X58898305Y-98558152D01*
X58898305Y-98558152D02*
X58993543Y-98558152D01*
X60088782Y-98701009D02*
X60422115Y-98701009D01*
X60564972Y-99224819D02*
X60088782Y-99224819D01*
X60088782Y-99224819D02*
X60088782Y-98224819D01*
X60088782Y-98224819D02*
X60564972Y-98224819D01*
X60945925Y-99177200D02*
X61088782Y-99224819D01*
X61088782Y-99224819D02*
X61326877Y-99224819D01*
X61326877Y-99224819D02*
X61422115Y-99177200D01*
X61422115Y-99177200D02*
X61469734Y-99129580D01*
X61469734Y-99129580D02*
X61517353Y-99034342D01*
X61517353Y-99034342D02*
X61517353Y-98939104D01*
X61517353Y-98939104D02*
X61469734Y-98843866D01*
X61469734Y-98843866D02*
X61422115Y-98796247D01*
X61422115Y-98796247D02*
X61326877Y-98748628D01*
X61326877Y-98748628D02*
X61136401Y-98701009D01*
X61136401Y-98701009D02*
X61041163Y-98653390D01*
X61041163Y-98653390D02*
X60993544Y-98605771D01*
X60993544Y-98605771D02*
X60945925Y-98510533D01*
X60945925Y-98510533D02*
X60945925Y-98415295D01*
X60945925Y-98415295D02*
X60993544Y-98320057D01*
X60993544Y-98320057D02*
X61041163Y-98272438D01*
X61041163Y-98272438D02*
X61136401Y-98224819D01*
X61136401Y-98224819D02*
X61374496Y-98224819D01*
X61374496Y-98224819D02*
X61517353Y-98272438D01*
X61945925Y-99224819D02*
X61945925Y-98224819D01*
X61945925Y-98224819D02*
X62326877Y-98224819D01*
X62326877Y-98224819D02*
X62422115Y-98272438D01*
X62422115Y-98272438D02*
X62469734Y-98320057D01*
X62469734Y-98320057D02*
X62517353Y-98415295D01*
X62517353Y-98415295D02*
X62517353Y-98558152D01*
X62517353Y-98558152D02*
X62469734Y-98653390D01*
X62469734Y-98653390D02*
X62422115Y-98701009D01*
X62422115Y-98701009D02*
X62326877Y-98748628D01*
X62326877Y-98748628D02*
X61945925Y-98748628D01*
X62850687Y-98224819D02*
X63469734Y-98224819D01*
X63469734Y-98224819D02*
X63136401Y-98605771D01*
X63136401Y-98605771D02*
X63279258Y-98605771D01*
X63279258Y-98605771D02*
X63374496Y-98653390D01*
X63374496Y-98653390D02*
X63422115Y-98701009D01*
X63422115Y-98701009D02*
X63469734Y-98796247D01*
X63469734Y-98796247D02*
X63469734Y-99034342D01*
X63469734Y-99034342D02*
X63422115Y-99129580D01*
X63422115Y-99129580D02*
X63374496Y-99177200D01*
X63374496Y-99177200D02*
X63279258Y-99224819D01*
X63279258Y-99224819D02*
X62993544Y-99224819D01*
X62993544Y-99224819D02*
X62898306Y-99177200D01*
X62898306Y-99177200D02*
X62850687Y-99129580D01*
X63850687Y-98320057D02*
X63898306Y-98272438D01*
X63898306Y-98272438D02*
X63993544Y-98224819D01*
X63993544Y-98224819D02*
X64231639Y-98224819D01*
X64231639Y-98224819D02*
X64326877Y-98272438D01*
X64326877Y-98272438D02*
X64374496Y-98320057D01*
X64374496Y-98320057D02*
X64422115Y-98415295D01*
X64422115Y-98415295D02*
X64422115Y-98510533D01*
X64422115Y-98510533D02*
X64374496Y-98653390D01*
X64374496Y-98653390D02*
X63803068Y-99224819D01*
X63803068Y-99224819D02*
X64422115Y-99224819D01*
X47945922Y-99834819D02*
X48279255Y-100834819D01*
X48279255Y-100834819D02*
X48612588Y-99834819D01*
X49898303Y-99834819D02*
X49993541Y-99834819D01*
X49993541Y-99834819D02*
X50088779Y-99882438D01*
X50088779Y-99882438D02*
X50136398Y-99930057D01*
X50136398Y-99930057D02*
X50184017Y-100025295D01*
X50184017Y-100025295D02*
X50231636Y-100215771D01*
X50231636Y-100215771D02*
X50231636Y-100453866D01*
X50231636Y-100453866D02*
X50184017Y-100644342D01*
X50184017Y-100644342D02*
X50136398Y-100739580D01*
X50136398Y-100739580D02*
X50088779Y-100787200D01*
X50088779Y-100787200D02*
X49993541Y-100834819D01*
X49993541Y-100834819D02*
X49898303Y-100834819D01*
X49898303Y-100834819D02*
X49803065Y-100787200D01*
X49803065Y-100787200D02*
X49755446Y-100739580D01*
X49755446Y-100739580D02*
X49707827Y-100644342D01*
X49707827Y-100644342D02*
X49660208Y-100453866D01*
X49660208Y-100453866D02*
X49660208Y-100215771D01*
X49660208Y-100215771D02*
X49707827Y-100025295D01*
X49707827Y-100025295D02*
X49755446Y-99930057D01*
X49755446Y-99930057D02*
X49803065Y-99882438D01*
X49803065Y-99882438D02*
X49898303Y-99834819D01*
X50660208Y-100739580D02*
X50707827Y-100787200D01*
X50707827Y-100787200D02*
X50660208Y-100834819D01*
X50660208Y-100834819D02*
X50612589Y-100787200D01*
X50612589Y-100787200D02*
X50660208Y-100739580D01*
X50660208Y-100739580D02*
X50660208Y-100834819D01*
X51326874Y-99834819D02*
X51422112Y-99834819D01*
X51422112Y-99834819D02*
X51517350Y-99882438D01*
X51517350Y-99882438D02*
X51564969Y-99930057D01*
X51564969Y-99930057D02*
X51612588Y-100025295D01*
X51612588Y-100025295D02*
X51660207Y-100215771D01*
X51660207Y-100215771D02*
X51660207Y-100453866D01*
X51660207Y-100453866D02*
X51612588Y-100644342D01*
X51612588Y-100644342D02*
X51564969Y-100739580D01*
X51564969Y-100739580D02*
X51517350Y-100787200D01*
X51517350Y-100787200D02*
X51422112Y-100834819D01*
X51422112Y-100834819D02*
X51326874Y-100834819D01*
X51326874Y-100834819D02*
X51231636Y-100787200D01*
X51231636Y-100787200D02*
X51184017Y-100739580D01*
X51184017Y-100739580D02*
X51136398Y-100644342D01*
X51136398Y-100644342D02*
X51088779Y-100453866D01*
X51088779Y-100453866D02*
X51088779Y-100215771D01*
X51088779Y-100215771D02*
X51136398Y-100025295D01*
X51136398Y-100025295D02*
X51184017Y-99930057D01*
X51184017Y-99930057D02*
X51231636Y-99882438D01*
X51231636Y-99882438D02*
X51326874Y-99834819D01*
X52088779Y-100739580D02*
X52136398Y-100787200D01*
X52136398Y-100787200D02*
X52088779Y-100834819D01*
X52088779Y-100834819D02*
X52041160Y-100787200D01*
X52041160Y-100787200D02*
X52088779Y-100739580D01*
X52088779Y-100739580D02*
X52088779Y-100834819D01*
X53088778Y-100834819D02*
X52517350Y-100834819D01*
X52803064Y-100834819D02*
X52803064Y-99834819D01*
X52803064Y-99834819D02*
X52707826Y-99977676D01*
X52707826Y-99977676D02*
X52612588Y-100072914D01*
X52612588Y-100072914D02*
X52517350Y-100120533D01*
X48254874Y-73822319D02*
X47778684Y-73822319D01*
X47778684Y-73822319D02*
X47778684Y-72822319D01*
X48588208Y-73155652D02*
X48588208Y-73822319D01*
X48588208Y-73250890D02*
X48635827Y-73203271D01*
X48635827Y-73203271D02*
X48731065Y-73155652D01*
X48731065Y-73155652D02*
X48873922Y-73155652D01*
X48873922Y-73155652D02*
X48969160Y-73203271D01*
X48969160Y-73203271D02*
X49016779Y-73298509D01*
X49016779Y-73298509D02*
X49016779Y-73822319D01*
X49350113Y-72822319D02*
X49921541Y-72822319D01*
X49635827Y-73822319D02*
X49635827Y-72822319D01*
X42938801Y-118199819D02*
X43510229Y-118199819D01*
X43224515Y-119199819D02*
X43224515Y-118199819D01*
X43748325Y-118199819D02*
X44414991Y-119199819D01*
X44414991Y-118199819D02*
X43748325Y-119199819D01*
X39184839Y-73822319D02*
X39184839Y-72822319D01*
X39184839Y-72822319D02*
X39565791Y-72822319D01*
X39565791Y-72822319D02*
X39661029Y-72869938D01*
X39661029Y-72869938D02*
X39708648Y-72917557D01*
X39708648Y-72917557D02*
X39756267Y-73012795D01*
X39756267Y-73012795D02*
X39756267Y-73155652D01*
X39756267Y-73155652D02*
X39708648Y-73250890D01*
X39708648Y-73250890D02*
X39661029Y-73298509D01*
X39661029Y-73298509D02*
X39565791Y-73346128D01*
X39565791Y-73346128D02*
X39184839Y-73346128D01*
X40089601Y-73155652D02*
X40280077Y-73822319D01*
X40280077Y-73822319D02*
X40470553Y-73346128D01*
X40470553Y-73346128D02*
X40661029Y-73822319D01*
X40661029Y-73822319D02*
X40851505Y-73155652D01*
X41232458Y-73822319D02*
X41232458Y-73155652D01*
X41232458Y-73346128D02*
X41280077Y-73250890D01*
X41280077Y-73250890D02*
X41327696Y-73203271D01*
X41327696Y-73203271D02*
X41422934Y-73155652D01*
X41422934Y-73155652D02*
X41518172Y-73155652D01*
X78086779Y-71119819D02*
X78086779Y-71929342D01*
X78086779Y-71929342D02*
X78134398Y-72024580D01*
X78134398Y-72024580D02*
X78182017Y-72072200D01*
X78182017Y-72072200D02*
X78277255Y-72119819D01*
X78277255Y-72119819D02*
X78467731Y-72119819D01*
X78467731Y-72119819D02*
X78562969Y-72072200D01*
X78562969Y-72072200D02*
X78610588Y-72024580D01*
X78610588Y-72024580D02*
X78658207Y-71929342D01*
X78658207Y-71929342D02*
X78658207Y-71119819D01*
X79086779Y-72072200D02*
X79229636Y-72119819D01*
X79229636Y-72119819D02*
X79467731Y-72119819D01*
X79467731Y-72119819D02*
X79562969Y-72072200D01*
X79562969Y-72072200D02*
X79610588Y-72024580D01*
X79610588Y-72024580D02*
X79658207Y-71929342D01*
X79658207Y-71929342D02*
X79658207Y-71834104D01*
X79658207Y-71834104D02*
X79610588Y-71738866D01*
X79610588Y-71738866D02*
X79562969Y-71691247D01*
X79562969Y-71691247D02*
X79467731Y-71643628D01*
X79467731Y-71643628D02*
X79277255Y-71596009D01*
X79277255Y-71596009D02*
X79182017Y-71548390D01*
X79182017Y-71548390D02*
X79134398Y-71500771D01*
X79134398Y-71500771D02*
X79086779Y-71405533D01*
X79086779Y-71405533D02*
X79086779Y-71310295D01*
X79086779Y-71310295D02*
X79134398Y-71215057D01*
X79134398Y-71215057D02*
X79182017Y-71167438D01*
X79182017Y-71167438D02*
X79277255Y-71119819D01*
X79277255Y-71119819D02*
X79515350Y-71119819D01*
X79515350Y-71119819D02*
X79658207Y-71167438D01*
X80420112Y-71596009D02*
X80562969Y-71643628D01*
X80562969Y-71643628D02*
X80610588Y-71691247D01*
X80610588Y-71691247D02*
X80658207Y-71786485D01*
X80658207Y-71786485D02*
X80658207Y-71929342D01*
X80658207Y-71929342D02*
X80610588Y-72024580D01*
X80610588Y-72024580D02*
X80562969Y-72072200D01*
X80562969Y-72072200D02*
X80467731Y-72119819D01*
X80467731Y-72119819D02*
X80086779Y-72119819D01*
X80086779Y-72119819D02*
X80086779Y-71119819D01*
X80086779Y-71119819D02*
X80420112Y-71119819D01*
X80420112Y-71119819D02*
X80515350Y-71167438D01*
X80515350Y-71167438D02*
X80562969Y-71215057D01*
X80562969Y-71215057D02*
X80610588Y-71310295D01*
X80610588Y-71310295D02*
X80610588Y-71405533D01*
X80610588Y-71405533D02*
X80562969Y-71500771D01*
X80562969Y-71500771D02*
X80515350Y-71548390D01*
X80515350Y-71548390D02*
X80420112Y-71596009D01*
X80420112Y-71596009D02*
X80086779Y-71596009D01*
X78539160Y-116334104D02*
X79015350Y-116334104D01*
X78443922Y-116619819D02*
X78777255Y-115619819D01*
X78777255Y-115619819D02*
X79110588Y-116619819D01*
X79443922Y-116619819D02*
X79443922Y-115619819D01*
X79443922Y-115619819D02*
X80015350Y-116619819D01*
X80015350Y-116619819D02*
X80015350Y-115619819D01*
X80348684Y-115619819D02*
X80920112Y-115619819D01*
X80634398Y-116619819D02*
X80634398Y-115619819D01*
X30442286Y-81359663D02*
X31157280Y-81359663D01*
X31157280Y-81359663D02*
X31300279Y-81407330D01*
X31300279Y-81407330D02*
X31395612Y-81502662D01*
X31395612Y-81502662D02*
X31443278Y-81645661D01*
X31443278Y-81645661D02*
X31443278Y-81740994D01*
X30537618Y-80930666D02*
X30489952Y-80883000D01*
X30489952Y-80883000D02*
X30442286Y-80787668D01*
X30442286Y-80787668D02*
X30442286Y-80549336D01*
X30442286Y-80549336D02*
X30489952Y-80454004D01*
X30489952Y-80454004D02*
X30537618Y-80406337D01*
X30537618Y-80406337D02*
X30632951Y-80358671D01*
X30632951Y-80358671D02*
X30728284Y-80358671D01*
X30728284Y-80358671D02*
X30871282Y-80406337D01*
X30871282Y-80406337D02*
X31443278Y-80978333D01*
X31443278Y-80978333D02*
X31443278Y-80358671D01*
X30569286Y-109426663D02*
X31284280Y-109426663D01*
X31284280Y-109426663D02*
X31427279Y-109474330D01*
X31427279Y-109474330D02*
X31522612Y-109569662D01*
X31522612Y-109569662D02*
X31570278Y-109712661D01*
X31570278Y-109712661D02*
X31570278Y-109807994D01*
X30569286Y-109045333D02*
X30569286Y-108425671D01*
X30569286Y-108425671D02*
X30950616Y-108759335D01*
X30950616Y-108759335D02*
X30950616Y-108616336D01*
X30950616Y-108616336D02*
X30998282Y-108521004D01*
X30998282Y-108521004D02*
X31045949Y-108473337D01*
X31045949Y-108473337D02*
X31141281Y-108425671D01*
X31141281Y-108425671D02*
X31379613Y-108425671D01*
X31379613Y-108425671D02*
X31474945Y-108473337D01*
X31474945Y-108473337D02*
X31522612Y-108521004D01*
X31522612Y-108521004D02*
X31570278Y-108616336D01*
X31570278Y-108616336D02*
X31570278Y-108902334D01*
X31570278Y-108902334D02*
X31522612Y-108997666D01*
X31522612Y-108997666D02*
X31474945Y-109045333D01*
X50754633Y-110509619D02*
X50421300Y-110033428D01*
X50183205Y-110509619D02*
X50183205Y-109509619D01*
X50183205Y-109509619D02*
X50564157Y-109509619D01*
X50564157Y-109509619D02*
X50659395Y-109557238D01*
X50659395Y-109557238D02*
X50707014Y-109604857D01*
X50707014Y-109604857D02*
X50754633Y-109700095D01*
X50754633Y-109700095D02*
X50754633Y-109842952D01*
X50754633Y-109842952D02*
X50707014Y-109938190D01*
X50707014Y-109938190D02*
X50659395Y-109985809D01*
X50659395Y-109985809D02*
X50564157Y-110033428D01*
X50564157Y-110033428D02*
X50183205Y-110033428D01*
X51707014Y-110509619D02*
X51135586Y-110509619D01*
X51421300Y-110509619D02*
X51421300Y-109509619D01*
X51421300Y-109509619D02*
X51326062Y-109652476D01*
X51326062Y-109652476D02*
X51230824Y-109747714D01*
X51230824Y-109747714D02*
X51135586Y-109795333D01*
X50764633Y-112359419D02*
X50431300Y-111883228D01*
X50193205Y-112359419D02*
X50193205Y-111359419D01*
X50193205Y-111359419D02*
X50574157Y-111359419D01*
X50574157Y-111359419D02*
X50669395Y-111407038D01*
X50669395Y-111407038D02*
X50717014Y-111454657D01*
X50717014Y-111454657D02*
X50764633Y-111549895D01*
X50764633Y-111549895D02*
X50764633Y-111692752D01*
X50764633Y-111692752D02*
X50717014Y-111787990D01*
X50717014Y-111787990D02*
X50669395Y-111835609D01*
X50669395Y-111835609D02*
X50574157Y-111883228D01*
X50574157Y-111883228D02*
X50193205Y-111883228D01*
X51145586Y-111454657D02*
X51193205Y-111407038D01*
X51193205Y-111407038D02*
X51288443Y-111359419D01*
X51288443Y-111359419D02*
X51526538Y-111359419D01*
X51526538Y-111359419D02*
X51621776Y-111407038D01*
X51621776Y-111407038D02*
X51669395Y-111454657D01*
X51669395Y-111454657D02*
X51717014Y-111549895D01*
X51717014Y-111549895D02*
X51717014Y-111645133D01*
X51717014Y-111645133D02*
X51669395Y-111787990D01*
X51669395Y-111787990D02*
X51097967Y-112359419D01*
X51097967Y-112359419D02*
X51717014Y-112359419D01*
X57341333Y-104129819D02*
X57008000Y-103653628D01*
X56769905Y-104129819D02*
X56769905Y-103129819D01*
X56769905Y-103129819D02*
X57150857Y-103129819D01*
X57150857Y-103129819D02*
X57246095Y-103177438D01*
X57246095Y-103177438D02*
X57293714Y-103225057D01*
X57293714Y-103225057D02*
X57341333Y-103320295D01*
X57341333Y-103320295D02*
X57341333Y-103463152D01*
X57341333Y-103463152D02*
X57293714Y-103558390D01*
X57293714Y-103558390D02*
X57246095Y-103606009D01*
X57246095Y-103606009D02*
X57150857Y-103653628D01*
X57150857Y-103653628D02*
X56769905Y-103653628D01*
X57674667Y-103129819D02*
X58293714Y-103129819D01*
X58293714Y-103129819D02*
X57960381Y-103510771D01*
X57960381Y-103510771D02*
X58103238Y-103510771D01*
X58103238Y-103510771D02*
X58198476Y-103558390D01*
X58198476Y-103558390D02*
X58246095Y-103606009D01*
X58246095Y-103606009D02*
X58293714Y-103701247D01*
X58293714Y-103701247D02*
X58293714Y-103939342D01*
X58293714Y-103939342D02*
X58246095Y-104034580D01*
X58246095Y-104034580D02*
X58198476Y-104082200D01*
X58198476Y-104082200D02*
X58103238Y-104129819D01*
X58103238Y-104129819D02*
X57817524Y-104129819D01*
X57817524Y-104129819D02*
X57722286Y-104082200D01*
X57722286Y-104082200D02*
X57674667Y-104034580D01*
X50737333Y-108701819D02*
X50404000Y-108225628D01*
X50165905Y-108701819D02*
X50165905Y-107701819D01*
X50165905Y-107701819D02*
X50546857Y-107701819D01*
X50546857Y-107701819D02*
X50642095Y-107749438D01*
X50642095Y-107749438D02*
X50689714Y-107797057D01*
X50689714Y-107797057D02*
X50737333Y-107892295D01*
X50737333Y-107892295D02*
X50737333Y-108035152D01*
X50737333Y-108035152D02*
X50689714Y-108130390D01*
X50689714Y-108130390D02*
X50642095Y-108178009D01*
X50642095Y-108178009D02*
X50546857Y-108225628D01*
X50546857Y-108225628D02*
X50165905Y-108225628D01*
X51594476Y-108035152D02*
X51594476Y-108701819D01*
X51356381Y-107654200D02*
X51118286Y-108368485D01*
X51118286Y-108368485D02*
X51737333Y-108368485D01*
X50711933Y-106390419D02*
X50378600Y-105914228D01*
X50140505Y-106390419D02*
X50140505Y-105390419D01*
X50140505Y-105390419D02*
X50521457Y-105390419D01*
X50521457Y-105390419D02*
X50616695Y-105438038D01*
X50616695Y-105438038D02*
X50664314Y-105485657D01*
X50664314Y-105485657D02*
X50711933Y-105580895D01*
X50711933Y-105580895D02*
X50711933Y-105723752D01*
X50711933Y-105723752D02*
X50664314Y-105818990D01*
X50664314Y-105818990D02*
X50616695Y-105866609D01*
X50616695Y-105866609D02*
X50521457Y-105914228D01*
X50521457Y-105914228D02*
X50140505Y-105914228D01*
X51616695Y-105390419D02*
X51140505Y-105390419D01*
X51140505Y-105390419D02*
X51092886Y-105866609D01*
X51092886Y-105866609D02*
X51140505Y-105818990D01*
X51140505Y-105818990D02*
X51235743Y-105771371D01*
X51235743Y-105771371D02*
X51473838Y-105771371D01*
X51473838Y-105771371D02*
X51569076Y-105818990D01*
X51569076Y-105818990D02*
X51616695Y-105866609D01*
X51616695Y-105866609D02*
X51664314Y-105961847D01*
X51664314Y-105961847D02*
X51664314Y-106199942D01*
X51664314Y-106199942D02*
X51616695Y-106295180D01*
X51616695Y-106295180D02*
X51569076Y-106342800D01*
X51569076Y-106342800D02*
X51473838Y-106390419D01*
X51473838Y-106390419D02*
X51235743Y-106390419D01*
X51235743Y-106390419D02*
X51140505Y-106342800D01*
X51140505Y-106342800D02*
X51092886Y-106295180D01*
X41416525Y-109624666D02*
X40940334Y-109957999D01*
X41416525Y-110196094D02*
X40416525Y-110196094D01*
X40416525Y-110196094D02*
X40416525Y-109815142D01*
X40416525Y-109815142D02*
X40464144Y-109719904D01*
X40464144Y-109719904D02*
X40511763Y-109672285D01*
X40511763Y-109672285D02*
X40607001Y-109624666D01*
X40607001Y-109624666D02*
X40749858Y-109624666D01*
X40749858Y-109624666D02*
X40845096Y-109672285D01*
X40845096Y-109672285D02*
X40892715Y-109719904D01*
X40892715Y-109719904D02*
X40940334Y-109815142D01*
X40940334Y-109815142D02*
X40940334Y-110196094D01*
X40416525Y-108767523D02*
X40416525Y-108957999D01*
X40416525Y-108957999D02*
X40464144Y-109053237D01*
X40464144Y-109053237D02*
X40511763Y-109100856D01*
X40511763Y-109100856D02*
X40654620Y-109196094D01*
X40654620Y-109196094D02*
X40845096Y-109243713D01*
X40845096Y-109243713D02*
X41226048Y-109243713D01*
X41226048Y-109243713D02*
X41321286Y-109196094D01*
X41321286Y-109196094D02*
X41368906Y-109148475D01*
X41368906Y-109148475D02*
X41416525Y-109053237D01*
X41416525Y-109053237D02*
X41416525Y-108862761D01*
X41416525Y-108862761D02*
X41368906Y-108767523D01*
X41368906Y-108767523D02*
X41321286Y-108719904D01*
X41321286Y-108719904D02*
X41226048Y-108672285D01*
X41226048Y-108672285D02*
X40987953Y-108672285D01*
X40987953Y-108672285D02*
X40892715Y-108719904D01*
X40892715Y-108719904D02*
X40845096Y-108767523D01*
X40845096Y-108767523D02*
X40797477Y-108862761D01*
X40797477Y-108862761D02*
X40797477Y-109053237D01*
X40797477Y-109053237D02*
X40845096Y-109148475D01*
X40845096Y-109148475D02*
X40892715Y-109196094D01*
X40892715Y-109196094D02*
X40987953Y-109243713D01*
X57341333Y-106161819D02*
X57008000Y-105685628D01*
X56769905Y-106161819D02*
X56769905Y-105161819D01*
X56769905Y-105161819D02*
X57150857Y-105161819D01*
X57150857Y-105161819D02*
X57246095Y-105209438D01*
X57246095Y-105209438D02*
X57293714Y-105257057D01*
X57293714Y-105257057D02*
X57341333Y-105352295D01*
X57341333Y-105352295D02*
X57341333Y-105495152D01*
X57341333Y-105495152D02*
X57293714Y-105590390D01*
X57293714Y-105590390D02*
X57246095Y-105638009D01*
X57246095Y-105638009D02*
X57150857Y-105685628D01*
X57150857Y-105685628D02*
X56769905Y-105685628D01*
X57674667Y-105161819D02*
X58341333Y-105161819D01*
X58341333Y-105161819D02*
X57912762Y-106161819D01*
X44257525Y-109599166D02*
X43781334Y-109932499D01*
X44257525Y-110170594D02*
X43257525Y-110170594D01*
X43257525Y-110170594D02*
X43257525Y-109789642D01*
X43257525Y-109789642D02*
X43305144Y-109694404D01*
X43305144Y-109694404D02*
X43352763Y-109646785D01*
X43352763Y-109646785D02*
X43448001Y-109599166D01*
X43448001Y-109599166D02*
X43590858Y-109599166D01*
X43590858Y-109599166D02*
X43686096Y-109646785D01*
X43686096Y-109646785D02*
X43733715Y-109694404D01*
X43733715Y-109694404D02*
X43781334Y-109789642D01*
X43781334Y-109789642D02*
X43781334Y-110170594D01*
X43686096Y-109027737D02*
X43638477Y-109122975D01*
X43638477Y-109122975D02*
X43590858Y-109170594D01*
X43590858Y-109170594D02*
X43495620Y-109218213D01*
X43495620Y-109218213D02*
X43448001Y-109218213D01*
X43448001Y-109218213D02*
X43352763Y-109170594D01*
X43352763Y-109170594D02*
X43305144Y-109122975D01*
X43305144Y-109122975D02*
X43257525Y-109027737D01*
X43257525Y-109027737D02*
X43257525Y-108837261D01*
X43257525Y-108837261D02*
X43305144Y-108742023D01*
X43305144Y-108742023D02*
X43352763Y-108694404D01*
X43352763Y-108694404D02*
X43448001Y-108646785D01*
X43448001Y-108646785D02*
X43495620Y-108646785D01*
X43495620Y-108646785D02*
X43590858Y-108694404D01*
X43590858Y-108694404D02*
X43638477Y-108742023D01*
X43638477Y-108742023D02*
X43686096Y-108837261D01*
X43686096Y-108837261D02*
X43686096Y-109027737D01*
X43686096Y-109027737D02*
X43733715Y-109122975D01*
X43733715Y-109122975D02*
X43781334Y-109170594D01*
X43781334Y-109170594D02*
X43876572Y-109218213D01*
X43876572Y-109218213D02*
X44067048Y-109218213D01*
X44067048Y-109218213D02*
X44162286Y-109170594D01*
X44162286Y-109170594D02*
X44209906Y-109122975D01*
X44209906Y-109122975D02*
X44257525Y-109027737D01*
X44257525Y-109027737D02*
X44257525Y-108837261D01*
X44257525Y-108837261D02*
X44209906Y-108742023D01*
X44209906Y-108742023D02*
X44162286Y-108694404D01*
X44162286Y-108694404D02*
X44067048Y-108646785D01*
X44067048Y-108646785D02*
X43876572Y-108646785D01*
X43876572Y-108646785D02*
X43781334Y-108694404D01*
X43781334Y-108694404D02*
X43733715Y-108742023D01*
X43733715Y-108742023D02*
X43686096Y-108837261D01*
X46733525Y-109599166D02*
X46257334Y-109932499D01*
X46733525Y-110170594D02*
X45733525Y-110170594D01*
X45733525Y-110170594D02*
X45733525Y-109789642D01*
X45733525Y-109789642D02*
X45781144Y-109694404D01*
X45781144Y-109694404D02*
X45828763Y-109646785D01*
X45828763Y-109646785D02*
X45924001Y-109599166D01*
X45924001Y-109599166D02*
X46066858Y-109599166D01*
X46066858Y-109599166D02*
X46162096Y-109646785D01*
X46162096Y-109646785D02*
X46209715Y-109694404D01*
X46209715Y-109694404D02*
X46257334Y-109789642D01*
X46257334Y-109789642D02*
X46257334Y-110170594D01*
X46733525Y-109122975D02*
X46733525Y-108932499D01*
X46733525Y-108932499D02*
X46685906Y-108837261D01*
X46685906Y-108837261D02*
X46638286Y-108789642D01*
X46638286Y-108789642D02*
X46495429Y-108694404D01*
X46495429Y-108694404D02*
X46304953Y-108646785D01*
X46304953Y-108646785D02*
X45924001Y-108646785D01*
X45924001Y-108646785D02*
X45828763Y-108694404D01*
X45828763Y-108694404D02*
X45781144Y-108742023D01*
X45781144Y-108742023D02*
X45733525Y-108837261D01*
X45733525Y-108837261D02*
X45733525Y-109027737D01*
X45733525Y-109027737D02*
X45781144Y-109122975D01*
X45781144Y-109122975D02*
X45828763Y-109170594D01*
X45828763Y-109170594D02*
X45924001Y-109218213D01*
X45924001Y-109218213D02*
X46162096Y-109218213D01*
X46162096Y-109218213D02*
X46257334Y-109170594D01*
X46257334Y-109170594D02*
X46304953Y-109122975D01*
X46304953Y-109122975D02*
X46352572Y-109027737D01*
X46352572Y-109027737D02*
X46352572Y-108837261D01*
X46352572Y-108837261D02*
X46304953Y-108742023D01*
X46304953Y-108742023D02*
X46257334Y-108694404D01*
X46257334Y-108694404D02*
X46162096Y-108646785D01*
X59118642Y-115127819D02*
X58785309Y-114651628D01*
X58547214Y-115127819D02*
X58547214Y-114127819D01*
X58547214Y-114127819D02*
X58928166Y-114127819D01*
X58928166Y-114127819D02*
X59023404Y-114175438D01*
X59023404Y-114175438D02*
X59071023Y-114223057D01*
X59071023Y-114223057D02*
X59118642Y-114318295D01*
X59118642Y-114318295D02*
X59118642Y-114461152D01*
X59118642Y-114461152D02*
X59071023Y-114556390D01*
X59071023Y-114556390D02*
X59023404Y-114604009D01*
X59023404Y-114604009D02*
X58928166Y-114651628D01*
X58928166Y-114651628D02*
X58547214Y-114651628D01*
X60071023Y-115127819D02*
X59499595Y-115127819D01*
X59785309Y-115127819D02*
X59785309Y-114127819D01*
X59785309Y-114127819D02*
X59690071Y-114270676D01*
X59690071Y-114270676D02*
X59594833Y-114365914D01*
X59594833Y-114365914D02*
X59499595Y-114413533D01*
X60690071Y-114127819D02*
X60785309Y-114127819D01*
X60785309Y-114127819D02*
X60880547Y-114175438D01*
X60880547Y-114175438D02*
X60928166Y-114223057D01*
X60928166Y-114223057D02*
X60975785Y-114318295D01*
X60975785Y-114318295D02*
X61023404Y-114508771D01*
X61023404Y-114508771D02*
X61023404Y-114746866D01*
X61023404Y-114746866D02*
X60975785Y-114937342D01*
X60975785Y-114937342D02*
X60928166Y-115032580D01*
X60928166Y-115032580D02*
X60880547Y-115080200D01*
X60880547Y-115080200D02*
X60785309Y-115127819D01*
X60785309Y-115127819D02*
X60690071Y-115127819D01*
X60690071Y-115127819D02*
X60594833Y-115080200D01*
X60594833Y-115080200D02*
X60547214Y-115032580D01*
X60547214Y-115032580D02*
X60499595Y-114937342D01*
X60499595Y-114937342D02*
X60451976Y-114746866D01*
X60451976Y-114746866D02*
X60451976Y-114508771D01*
X60451976Y-114508771D02*
X60499595Y-114318295D01*
X60499595Y-114318295D02*
X60547214Y-114223057D01*
X60547214Y-114223057D02*
X60594833Y-114175438D01*
X60594833Y-114175438D02*
X60690071Y-114127819D01*
X59118642Y-117159819D02*
X58785309Y-116683628D01*
X58547214Y-117159819D02*
X58547214Y-116159819D01*
X58547214Y-116159819D02*
X58928166Y-116159819D01*
X58928166Y-116159819D02*
X59023404Y-116207438D01*
X59023404Y-116207438D02*
X59071023Y-116255057D01*
X59071023Y-116255057D02*
X59118642Y-116350295D01*
X59118642Y-116350295D02*
X59118642Y-116493152D01*
X59118642Y-116493152D02*
X59071023Y-116588390D01*
X59071023Y-116588390D02*
X59023404Y-116636009D01*
X59023404Y-116636009D02*
X58928166Y-116683628D01*
X58928166Y-116683628D02*
X58547214Y-116683628D01*
X60071023Y-117159819D02*
X59499595Y-117159819D01*
X59785309Y-117159819D02*
X59785309Y-116159819D01*
X59785309Y-116159819D02*
X59690071Y-116302676D01*
X59690071Y-116302676D02*
X59594833Y-116397914D01*
X59594833Y-116397914D02*
X59499595Y-116445533D01*
X61023404Y-117159819D02*
X60451976Y-117159819D01*
X60737690Y-117159819D02*
X60737690Y-116159819D01*
X60737690Y-116159819D02*
X60642452Y-116302676D01*
X60642452Y-116302676D02*
X60547214Y-116397914D01*
X60547214Y-116397914D02*
X60451976Y-116445533D01*
X61445095Y-112908819D02*
X61445095Y-113718342D01*
X61445095Y-113718342D02*
X61492714Y-113813580D01*
X61492714Y-113813580D02*
X61540333Y-113861200D01*
X61540333Y-113861200D02*
X61635571Y-113908819D01*
X61635571Y-113908819D02*
X61826047Y-113908819D01*
X61826047Y-113908819D02*
X61921285Y-113861200D01*
X61921285Y-113861200D02*
X61968904Y-113813580D01*
X61968904Y-113813580D02*
X62016523Y-113718342D01*
X62016523Y-113718342D02*
X62016523Y-112908819D01*
X63016523Y-113908819D02*
X62445095Y-113908819D01*
X62730809Y-113908819D02*
X62730809Y-112908819D01*
X62730809Y-112908819D02*
X62635571Y-113051676D01*
X62635571Y-113051676D02*
X62540333Y-113146914D01*
X62540333Y-113146914D02*
X62445095Y-113194533D01*
X48418761Y-119041057D02*
X48323523Y-118993438D01*
X48323523Y-118993438D02*
X48228285Y-118898200D01*
X48228285Y-118898200D02*
X48085428Y-118755342D01*
X48085428Y-118755342D02*
X47990190Y-118707723D01*
X47990190Y-118707723D02*
X47894952Y-118707723D01*
X47942571Y-118945819D02*
X47847333Y-118898200D01*
X47847333Y-118898200D02*
X47752095Y-118802961D01*
X47752095Y-118802961D02*
X47704476Y-118612485D01*
X47704476Y-118612485D02*
X47704476Y-118279152D01*
X47704476Y-118279152D02*
X47752095Y-118088676D01*
X47752095Y-118088676D02*
X47847333Y-117993438D01*
X47847333Y-117993438D02*
X47942571Y-117945819D01*
X47942571Y-117945819D02*
X48133047Y-117945819D01*
X48133047Y-117945819D02*
X48228285Y-117993438D01*
X48228285Y-117993438D02*
X48323523Y-118088676D01*
X48323523Y-118088676D02*
X48371142Y-118279152D01*
X48371142Y-118279152D02*
X48371142Y-118612485D01*
X48371142Y-118612485D02*
X48323523Y-118802961D01*
X48323523Y-118802961D02*
X48228285Y-118898200D01*
X48228285Y-118898200D02*
X48133047Y-118945819D01*
X48133047Y-118945819D02*
X47942571Y-118945819D01*
X49323523Y-118945819D02*
X48752095Y-118945819D01*
X49037809Y-118945819D02*
X49037809Y-117945819D01*
X49037809Y-117945819D02*
X48942571Y-118088676D01*
X48942571Y-118088676D02*
X48847333Y-118183914D01*
X48847333Y-118183914D02*
X48752095Y-118231533D01*
X52738261Y-118547057D02*
X52643023Y-118499438D01*
X52643023Y-118499438D02*
X52547785Y-118404200D01*
X52547785Y-118404200D02*
X52404928Y-118261342D01*
X52404928Y-118261342D02*
X52309690Y-118213723D01*
X52309690Y-118213723D02*
X52214452Y-118213723D01*
X52262071Y-118451819D02*
X52166833Y-118404200D01*
X52166833Y-118404200D02*
X52071595Y-118308961D01*
X52071595Y-118308961D02*
X52023976Y-118118485D01*
X52023976Y-118118485D02*
X52023976Y-117785152D01*
X52023976Y-117785152D02*
X52071595Y-117594676D01*
X52071595Y-117594676D02*
X52166833Y-117499438D01*
X52166833Y-117499438D02*
X52262071Y-117451819D01*
X52262071Y-117451819D02*
X52452547Y-117451819D01*
X52452547Y-117451819D02*
X52547785Y-117499438D01*
X52547785Y-117499438D02*
X52643023Y-117594676D01*
X52643023Y-117594676D02*
X52690642Y-117785152D01*
X52690642Y-117785152D02*
X52690642Y-118118485D01*
X52690642Y-118118485D02*
X52643023Y-118308961D01*
X52643023Y-118308961D02*
X52547785Y-118404200D01*
X52547785Y-118404200D02*
X52452547Y-118451819D01*
X52452547Y-118451819D02*
X52262071Y-118451819D01*
X53071595Y-117547057D02*
X53119214Y-117499438D01*
X53119214Y-117499438D02*
X53214452Y-117451819D01*
X53214452Y-117451819D02*
X53452547Y-117451819D01*
X53452547Y-117451819D02*
X53547785Y-117499438D01*
X53547785Y-117499438D02*
X53595404Y-117547057D01*
X53595404Y-117547057D02*
X53643023Y-117642295D01*
X53643023Y-117642295D02*
X53643023Y-117737533D01*
X53643023Y-117737533D02*
X53595404Y-117880390D01*
X53595404Y-117880390D02*
X53023976Y-118451819D01*
X53023976Y-118451819D02*
X53643023Y-118451819D01*
X62857142Y-87854819D02*
X62523809Y-87378628D01*
X62285714Y-87854819D02*
X62285714Y-86854819D01*
X62285714Y-86854819D02*
X62666666Y-86854819D01*
X62666666Y-86854819D02*
X62761904Y-86902438D01*
X62761904Y-86902438D02*
X62809523Y-86950057D01*
X62809523Y-86950057D02*
X62857142Y-87045295D01*
X62857142Y-87045295D02*
X62857142Y-87188152D01*
X62857142Y-87188152D02*
X62809523Y-87283390D01*
X62809523Y-87283390D02*
X62761904Y-87331009D01*
X62761904Y-87331009D02*
X62666666Y-87378628D01*
X62666666Y-87378628D02*
X62285714Y-87378628D01*
X63809523Y-87854819D02*
X63238095Y-87854819D01*
X63523809Y-87854819D02*
X63523809Y-86854819D01*
X63523809Y-86854819D02*
X63428571Y-86997676D01*
X63428571Y-86997676D02*
X63333333Y-87092914D01*
X63333333Y-87092914D02*
X63238095Y-87140533D01*
X64666666Y-87188152D02*
X64666666Y-87854819D01*
X64428571Y-86807200D02*
X64190476Y-87521485D01*
X64190476Y-87521485D02*
X64809523Y-87521485D01*
X61010580Y-92065666D02*
X61058200Y-92113285D01*
X61058200Y-92113285D02*
X61105819Y-92256142D01*
X61105819Y-92256142D02*
X61105819Y-92351380D01*
X61105819Y-92351380D02*
X61058200Y-92494237D01*
X61058200Y-92494237D02*
X60962961Y-92589475D01*
X60962961Y-92589475D02*
X60867723Y-92637094D01*
X60867723Y-92637094D02*
X60677247Y-92684713D01*
X60677247Y-92684713D02*
X60534390Y-92684713D01*
X60534390Y-92684713D02*
X60343914Y-92637094D01*
X60343914Y-92637094D02*
X60248676Y-92589475D01*
X60248676Y-92589475D02*
X60153438Y-92494237D01*
X60153438Y-92494237D02*
X60105819Y-92351380D01*
X60105819Y-92351380D02*
X60105819Y-92256142D01*
X60105819Y-92256142D02*
X60153438Y-92113285D01*
X60153438Y-92113285D02*
X60201057Y-92065666D01*
X60201057Y-91684713D02*
X60153438Y-91637094D01*
X60153438Y-91637094D02*
X60105819Y-91541856D01*
X60105819Y-91541856D02*
X60105819Y-91303761D01*
X60105819Y-91303761D02*
X60153438Y-91208523D01*
X60153438Y-91208523D02*
X60201057Y-91160904D01*
X60201057Y-91160904D02*
X60296295Y-91113285D01*
X60296295Y-91113285D02*
X60391533Y-91113285D01*
X60391533Y-91113285D02*
X60534390Y-91160904D01*
X60534390Y-91160904D02*
X61105819Y-91732332D01*
X61105819Y-91732332D02*
X61105819Y-91113285D01*
X78988095Y-113704819D02*
X78988095Y-114514342D01*
X78988095Y-114514342D02*
X79035714Y-114609580D01*
X79035714Y-114609580D02*
X79083333Y-114657200D01*
X79083333Y-114657200D02*
X79178571Y-114704819D01*
X79178571Y-114704819D02*
X79369047Y-114704819D01*
X79369047Y-114704819D02*
X79464285Y-114657200D01*
X79464285Y-114657200D02*
X79511904Y-114609580D01*
X79511904Y-114609580D02*
X79559523Y-114514342D01*
X79559523Y-114514342D02*
X79559523Y-113704819D01*
X80511904Y-113704819D02*
X80035714Y-113704819D01*
X80035714Y-113704819D02*
X79988095Y-114181009D01*
X79988095Y-114181009D02*
X80035714Y-114133390D01*
X80035714Y-114133390D02*
X80130952Y-114085771D01*
X80130952Y-114085771D02*
X80369047Y-114085771D01*
X80369047Y-114085771D02*
X80464285Y-114133390D01*
X80464285Y-114133390D02*
X80511904Y-114181009D01*
X80511904Y-114181009D02*
X80559523Y-114276247D01*
X80559523Y-114276247D02*
X80559523Y-114514342D01*
X80559523Y-114514342D02*
X80511904Y-114609580D01*
X80511904Y-114609580D02*
X80464285Y-114657200D01*
X80464285Y-114657200D02*
X80369047Y-114704819D01*
X80369047Y-114704819D02*
X80130952Y-114704819D01*
X80130952Y-114704819D02*
X80035714Y-114657200D01*
X80035714Y-114657200D02*
X79988095Y-114609580D01*
X90807982Y-99974073D02*
X90874649Y-100007406D01*
X90874649Y-100007406D02*
X90974649Y-100007406D01*
X90974649Y-100007406D02*
X91074649Y-99974073D01*
X91074649Y-99974073D02*
X91141316Y-99907406D01*
X91141316Y-99907406D02*
X91174649Y-99840740D01*
X91174649Y-99840740D02*
X91207982Y-99707406D01*
X91207982Y-99707406D02*
X91207982Y-99607406D01*
X91207982Y-99607406D02*
X91174649Y-99474073D01*
X91174649Y-99474073D02*
X91141316Y-99407406D01*
X91141316Y-99407406D02*
X91074649Y-99340740D01*
X91074649Y-99340740D02*
X90974649Y-99307406D01*
X90974649Y-99307406D02*
X90907982Y-99307406D01*
X90907982Y-99307406D02*
X90807982Y-99340740D01*
X90807982Y-99340740D02*
X90774649Y-99374073D01*
X90774649Y-99374073D02*
X90774649Y-99607406D01*
X90774649Y-99607406D02*
X90907982Y-99607406D01*
X90474649Y-99307406D02*
X90474649Y-100007406D01*
X90474649Y-100007406D02*
X90207982Y-100007406D01*
X90207982Y-100007406D02*
X90141316Y-99974073D01*
X90141316Y-99974073D02*
X90107982Y-99940740D01*
X90107982Y-99940740D02*
X90074649Y-99874073D01*
X90074649Y-99874073D02*
X90074649Y-99774073D01*
X90074649Y-99774073D02*
X90107982Y-99707406D01*
X90107982Y-99707406D02*
X90141316Y-99674073D01*
X90141316Y-99674073D02*
X90207982Y-99640740D01*
X90207982Y-99640740D02*
X90474649Y-99640740D01*
X89774649Y-99307406D02*
X89774649Y-100007406D01*
X89307983Y-100007406D02*
X89174649Y-100007406D01*
X89174649Y-100007406D02*
X89107983Y-99974073D01*
X89107983Y-99974073D02*
X89041316Y-99907406D01*
X89041316Y-99907406D02*
X89007983Y-99774073D01*
X89007983Y-99774073D02*
X89007983Y-99540740D01*
X89007983Y-99540740D02*
X89041316Y-99407406D01*
X89041316Y-99407406D02*
X89107983Y-99340740D01*
X89107983Y-99340740D02*
X89174649Y-99307406D01*
X89174649Y-99307406D02*
X89307983Y-99307406D01*
X89307983Y-99307406D02*
X89374649Y-99340740D01*
X89374649Y-99340740D02*
X89441316Y-99407406D01*
X89441316Y-99407406D02*
X89474649Y-99540740D01*
X89474649Y-99540740D02*
X89474649Y-99774073D01*
X89474649Y-99774073D02*
X89441316Y-99907406D01*
X89441316Y-99907406D02*
X89374649Y-99974073D01*
X89374649Y-99974073D02*
X89307983Y-100007406D01*
X88774650Y-100007406D02*
X88341316Y-100007406D01*
X88341316Y-100007406D02*
X88574650Y-99740740D01*
X88574650Y-99740740D02*
X88474650Y-99740740D01*
X88474650Y-99740740D02*
X88407983Y-99707406D01*
X88407983Y-99707406D02*
X88374650Y-99674073D01*
X88374650Y-99674073D02*
X88341316Y-99607406D01*
X88341316Y-99607406D02*
X88341316Y-99440740D01*
X88341316Y-99440740D02*
X88374650Y-99374073D01*
X88374650Y-99374073D02*
X88407983Y-99340740D01*
X88407983Y-99340740D02*
X88474650Y-99307406D01*
X88474650Y-99307406D02*
X88674650Y-99307406D01*
X88674650Y-99307406D02*
X88741316Y-99340740D01*
X88741316Y-99340740D02*
X88774650Y-99374073D01*
X88107983Y-100007406D02*
X87674649Y-100007406D01*
X87674649Y-100007406D02*
X87907983Y-99740740D01*
X87907983Y-99740740D02*
X87807983Y-99740740D01*
X87807983Y-99740740D02*
X87741316Y-99707406D01*
X87741316Y-99707406D02*
X87707983Y-99674073D01*
X87707983Y-99674073D02*
X87674649Y-99607406D01*
X87674649Y-99607406D02*
X87674649Y-99440740D01*
X87674649Y-99440740D02*
X87707983Y-99374073D01*
X87707983Y-99374073D02*
X87741316Y-99340740D01*
X87741316Y-99340740D02*
X87807983Y-99307406D01*
X87807983Y-99307406D02*
X88007983Y-99307406D01*
X88007983Y-99307406D02*
X88074649Y-99340740D01*
X88074649Y-99340740D02*
X88107983Y-99374073D01*
X71945350Y-112674073D02*
X72012017Y-112707406D01*
X72012017Y-112707406D02*
X72112017Y-112707406D01*
X72112017Y-112707406D02*
X72212017Y-112674073D01*
X72212017Y-112674073D02*
X72278684Y-112607406D01*
X72278684Y-112607406D02*
X72312017Y-112540740D01*
X72312017Y-112540740D02*
X72345350Y-112407406D01*
X72345350Y-112407406D02*
X72345350Y-112307406D01*
X72345350Y-112307406D02*
X72312017Y-112174073D01*
X72312017Y-112174073D02*
X72278684Y-112107406D01*
X72278684Y-112107406D02*
X72212017Y-112040740D01*
X72212017Y-112040740D02*
X72112017Y-112007406D01*
X72112017Y-112007406D02*
X72045350Y-112007406D01*
X72045350Y-112007406D02*
X71945350Y-112040740D01*
X71945350Y-112040740D02*
X71912017Y-112074073D01*
X71912017Y-112074073D02*
X71912017Y-112307406D01*
X71912017Y-112307406D02*
X72045350Y-112307406D01*
X71612017Y-112007406D02*
X71612017Y-112707406D01*
X71612017Y-112707406D02*
X71345350Y-112707406D01*
X71345350Y-112707406D02*
X71278684Y-112674073D01*
X71278684Y-112674073D02*
X71245350Y-112640740D01*
X71245350Y-112640740D02*
X71212017Y-112574073D01*
X71212017Y-112574073D02*
X71212017Y-112474073D01*
X71212017Y-112474073D02*
X71245350Y-112407406D01*
X71245350Y-112407406D02*
X71278684Y-112374073D01*
X71278684Y-112374073D02*
X71345350Y-112340740D01*
X71345350Y-112340740D02*
X71612017Y-112340740D01*
X70912017Y-112007406D02*
X70912017Y-112707406D01*
X70445351Y-112707406D02*
X70312017Y-112707406D01*
X70312017Y-112707406D02*
X70245351Y-112674073D01*
X70245351Y-112674073D02*
X70178684Y-112607406D01*
X70178684Y-112607406D02*
X70145351Y-112474073D01*
X70145351Y-112474073D02*
X70145351Y-112240740D01*
X70145351Y-112240740D02*
X70178684Y-112107406D01*
X70178684Y-112107406D02*
X70245351Y-112040740D01*
X70245351Y-112040740D02*
X70312017Y-112007406D01*
X70312017Y-112007406D02*
X70445351Y-112007406D01*
X70445351Y-112007406D02*
X70512017Y-112040740D01*
X70512017Y-112040740D02*
X70578684Y-112107406D01*
X70578684Y-112107406D02*
X70612017Y-112240740D01*
X70612017Y-112240740D02*
X70612017Y-112474073D01*
X70612017Y-112474073D02*
X70578684Y-112607406D01*
X70578684Y-112607406D02*
X70512017Y-112674073D01*
X70512017Y-112674073D02*
X70445351Y-112707406D01*
X69878684Y-112640740D02*
X69845351Y-112674073D01*
X69845351Y-112674073D02*
X69778684Y-112707406D01*
X69778684Y-112707406D02*
X69612018Y-112707406D01*
X69612018Y-112707406D02*
X69545351Y-112674073D01*
X69545351Y-112674073D02*
X69512018Y-112640740D01*
X69512018Y-112640740D02*
X69478684Y-112574073D01*
X69478684Y-112574073D02*
X69478684Y-112507406D01*
X69478684Y-112507406D02*
X69512018Y-112407406D01*
X69512018Y-112407406D02*
X69912018Y-112007406D01*
X69912018Y-112007406D02*
X69478684Y-112007406D01*
X69212017Y-112640740D02*
X69178684Y-112674073D01*
X69178684Y-112674073D02*
X69112017Y-112707406D01*
X69112017Y-112707406D02*
X68945351Y-112707406D01*
X68945351Y-112707406D02*
X68878684Y-112674073D01*
X68878684Y-112674073D02*
X68845351Y-112640740D01*
X68845351Y-112640740D02*
X68812017Y-112574073D01*
X68812017Y-112574073D02*
X68812017Y-112507406D01*
X68812017Y-112507406D02*
X68845351Y-112407406D01*
X68845351Y-112407406D02*
X69245351Y-112007406D01*
X69245351Y-112007406D02*
X68812017Y-112007406D01*
X70964398Y-117901001D02*
X71059636Y-117948620D01*
X71059636Y-117948620D02*
X71202493Y-117948620D01*
X71202493Y-117948620D02*
X71345350Y-117901001D01*
X71345350Y-117901001D02*
X71440588Y-117805763D01*
X71440588Y-117805763D02*
X71488207Y-117710525D01*
X71488207Y-117710525D02*
X71535826Y-117520049D01*
X71535826Y-117520049D02*
X71535826Y-117377192D01*
X71535826Y-117377192D02*
X71488207Y-117186716D01*
X71488207Y-117186716D02*
X71440588Y-117091478D01*
X71440588Y-117091478D02*
X71345350Y-116996240D01*
X71345350Y-116996240D02*
X71202493Y-116948620D01*
X71202493Y-116948620D02*
X71107255Y-116948620D01*
X71107255Y-116948620D02*
X70964398Y-116996240D01*
X70964398Y-116996240D02*
X70916779Y-117043859D01*
X70916779Y-117043859D02*
X70916779Y-117377192D01*
X70916779Y-117377192D02*
X71107255Y-117377192D01*
X70488207Y-116948620D02*
X70488207Y-117948620D01*
X70488207Y-117948620D02*
X69916779Y-116948620D01*
X69916779Y-116948620D02*
X69916779Y-117948620D01*
X69440588Y-116948620D02*
X69440588Y-117948620D01*
X69440588Y-117948620D02*
X69202493Y-117948620D01*
X69202493Y-117948620D02*
X69059636Y-117901001D01*
X69059636Y-117901001D02*
X68964398Y-117805763D01*
X68964398Y-117805763D02*
X68916779Y-117710525D01*
X68916779Y-117710525D02*
X68869160Y-117520049D01*
X68869160Y-117520049D02*
X68869160Y-117377192D01*
X68869160Y-117377192D02*
X68916779Y-117186716D01*
X68916779Y-117186716D02*
X68964398Y-117091478D01*
X68964398Y-117091478D02*
X69059636Y-116996240D01*
X69059636Y-116996240D02*
X69202493Y-116948620D01*
X69202493Y-116948620D02*
X69440588Y-116948620D01*
X69878684Y-73907406D02*
X69878684Y-74607406D01*
X69878684Y-74607406D02*
X69712017Y-74607406D01*
X69712017Y-74607406D02*
X69612017Y-74574073D01*
X69612017Y-74574073D02*
X69545351Y-74507406D01*
X69545351Y-74507406D02*
X69512017Y-74440740D01*
X69512017Y-74440740D02*
X69478684Y-74307406D01*
X69478684Y-74307406D02*
X69478684Y-74207406D01*
X69478684Y-74207406D02*
X69512017Y-74074073D01*
X69512017Y-74074073D02*
X69545351Y-74007406D01*
X69545351Y-74007406D02*
X69612017Y-73940740D01*
X69612017Y-73940740D02*
X69712017Y-73907406D01*
X69712017Y-73907406D02*
X69878684Y-73907406D01*
X69045351Y-74607406D02*
X68978684Y-74607406D01*
X68978684Y-74607406D02*
X68912017Y-74574073D01*
X68912017Y-74574073D02*
X68878684Y-74540740D01*
X68878684Y-74540740D02*
X68845351Y-74474073D01*
X68845351Y-74474073D02*
X68812017Y-74340740D01*
X68812017Y-74340740D02*
X68812017Y-74174073D01*
X68812017Y-74174073D02*
X68845351Y-74040740D01*
X68845351Y-74040740D02*
X68878684Y-73974073D01*
X68878684Y-73974073D02*
X68912017Y-73940740D01*
X68912017Y-73940740D02*
X68978684Y-73907406D01*
X68978684Y-73907406D02*
X69045351Y-73907406D01*
X69045351Y-73907406D02*
X69112017Y-73940740D01*
X69112017Y-73940740D02*
X69145351Y-73974073D01*
X69145351Y-73974073D02*
X69178684Y-74040740D01*
X69178684Y-74040740D02*
X69212017Y-74174073D01*
X69212017Y-74174073D02*
X69212017Y-74340740D01*
X69212017Y-74340740D02*
X69178684Y-74474073D01*
X69178684Y-74474073D02*
X69145351Y-74540740D01*
X69145351Y-74540740D02*
X69112017Y-74574073D01*
X69112017Y-74574073D02*
X69045351Y-74607406D01*
X91174649Y-78987406D02*
X91174649Y-79687406D01*
X91174649Y-79687406D02*
X91007982Y-79687406D01*
X91007982Y-79687406D02*
X90907982Y-79654073D01*
X90907982Y-79654073D02*
X90841316Y-79587406D01*
X90841316Y-79587406D02*
X90807982Y-79520740D01*
X90807982Y-79520740D02*
X90774649Y-79387406D01*
X90774649Y-79387406D02*
X90774649Y-79287406D01*
X90774649Y-79287406D02*
X90807982Y-79154073D01*
X90807982Y-79154073D02*
X90841316Y-79087406D01*
X90841316Y-79087406D02*
X90907982Y-79020740D01*
X90907982Y-79020740D02*
X91007982Y-78987406D01*
X91007982Y-78987406D02*
X91174649Y-78987406D01*
X90507982Y-79620740D02*
X90474649Y-79654073D01*
X90474649Y-79654073D02*
X90407982Y-79687406D01*
X90407982Y-79687406D02*
X90241316Y-79687406D01*
X90241316Y-79687406D02*
X90174649Y-79654073D01*
X90174649Y-79654073D02*
X90141316Y-79620740D01*
X90141316Y-79620740D02*
X90107982Y-79554073D01*
X90107982Y-79554073D02*
X90107982Y-79487406D01*
X90107982Y-79487406D02*
X90141316Y-79387406D01*
X90141316Y-79387406D02*
X90541316Y-78987406D01*
X90541316Y-78987406D02*
X90107982Y-78987406D01*
X90807982Y-102514073D02*
X90874649Y-102547406D01*
X90874649Y-102547406D02*
X90974649Y-102547406D01*
X90974649Y-102547406D02*
X91074649Y-102514073D01*
X91074649Y-102514073D02*
X91141316Y-102447406D01*
X91141316Y-102447406D02*
X91174649Y-102380740D01*
X91174649Y-102380740D02*
X91207982Y-102247406D01*
X91207982Y-102247406D02*
X91207982Y-102147406D01*
X91207982Y-102147406D02*
X91174649Y-102014073D01*
X91174649Y-102014073D02*
X91141316Y-101947406D01*
X91141316Y-101947406D02*
X91074649Y-101880740D01*
X91074649Y-101880740D02*
X90974649Y-101847406D01*
X90974649Y-101847406D02*
X90907982Y-101847406D01*
X90907982Y-101847406D02*
X90807982Y-101880740D01*
X90807982Y-101880740D02*
X90774649Y-101914073D01*
X90774649Y-101914073D02*
X90774649Y-102147406D01*
X90774649Y-102147406D02*
X90907982Y-102147406D01*
X90474649Y-101847406D02*
X90474649Y-102547406D01*
X90474649Y-102547406D02*
X90207982Y-102547406D01*
X90207982Y-102547406D02*
X90141316Y-102514073D01*
X90141316Y-102514073D02*
X90107982Y-102480740D01*
X90107982Y-102480740D02*
X90074649Y-102414073D01*
X90074649Y-102414073D02*
X90074649Y-102314073D01*
X90074649Y-102314073D02*
X90107982Y-102247406D01*
X90107982Y-102247406D02*
X90141316Y-102214073D01*
X90141316Y-102214073D02*
X90207982Y-102180740D01*
X90207982Y-102180740D02*
X90474649Y-102180740D01*
X89774649Y-101847406D02*
X89774649Y-102547406D01*
X89307983Y-102547406D02*
X89174649Y-102547406D01*
X89174649Y-102547406D02*
X89107983Y-102514073D01*
X89107983Y-102514073D02*
X89041316Y-102447406D01*
X89041316Y-102447406D02*
X89007983Y-102314073D01*
X89007983Y-102314073D02*
X89007983Y-102080740D01*
X89007983Y-102080740D02*
X89041316Y-101947406D01*
X89041316Y-101947406D02*
X89107983Y-101880740D01*
X89107983Y-101880740D02*
X89174649Y-101847406D01*
X89174649Y-101847406D02*
X89307983Y-101847406D01*
X89307983Y-101847406D02*
X89374649Y-101880740D01*
X89374649Y-101880740D02*
X89441316Y-101947406D01*
X89441316Y-101947406D02*
X89474649Y-102080740D01*
X89474649Y-102080740D02*
X89474649Y-102314073D01*
X89474649Y-102314073D02*
X89441316Y-102447406D01*
X89441316Y-102447406D02*
X89374649Y-102514073D01*
X89374649Y-102514073D02*
X89307983Y-102547406D01*
X88774650Y-102547406D02*
X88341316Y-102547406D01*
X88341316Y-102547406D02*
X88574650Y-102280740D01*
X88574650Y-102280740D02*
X88474650Y-102280740D01*
X88474650Y-102280740D02*
X88407983Y-102247406D01*
X88407983Y-102247406D02*
X88374650Y-102214073D01*
X88374650Y-102214073D02*
X88341316Y-102147406D01*
X88341316Y-102147406D02*
X88341316Y-101980740D01*
X88341316Y-101980740D02*
X88374650Y-101914073D01*
X88374650Y-101914073D02*
X88407983Y-101880740D01*
X88407983Y-101880740D02*
X88474650Y-101847406D01*
X88474650Y-101847406D02*
X88674650Y-101847406D01*
X88674650Y-101847406D02*
X88741316Y-101880740D01*
X88741316Y-101880740D02*
X88774650Y-101914073D01*
X88074649Y-102480740D02*
X88041316Y-102514073D01*
X88041316Y-102514073D02*
X87974649Y-102547406D01*
X87974649Y-102547406D02*
X87807983Y-102547406D01*
X87807983Y-102547406D02*
X87741316Y-102514073D01*
X87741316Y-102514073D02*
X87707983Y-102480740D01*
X87707983Y-102480740D02*
X87674649Y-102414073D01*
X87674649Y-102414073D02*
X87674649Y-102347406D01*
X87674649Y-102347406D02*
X87707983Y-102247406D01*
X87707983Y-102247406D02*
X88107983Y-101847406D01*
X88107983Y-101847406D02*
X87674649Y-101847406D01*
X71945350Y-92354073D02*
X72012017Y-92387406D01*
X72012017Y-92387406D02*
X72112017Y-92387406D01*
X72112017Y-92387406D02*
X72212017Y-92354073D01*
X72212017Y-92354073D02*
X72278684Y-92287406D01*
X72278684Y-92287406D02*
X72312017Y-92220740D01*
X72312017Y-92220740D02*
X72345350Y-92087406D01*
X72345350Y-92087406D02*
X72345350Y-91987406D01*
X72345350Y-91987406D02*
X72312017Y-91854073D01*
X72312017Y-91854073D02*
X72278684Y-91787406D01*
X72278684Y-91787406D02*
X72212017Y-91720740D01*
X72212017Y-91720740D02*
X72112017Y-91687406D01*
X72112017Y-91687406D02*
X72045350Y-91687406D01*
X72045350Y-91687406D02*
X71945350Y-91720740D01*
X71945350Y-91720740D02*
X71912017Y-91754073D01*
X71912017Y-91754073D02*
X71912017Y-91987406D01*
X71912017Y-91987406D02*
X72045350Y-91987406D01*
X71612017Y-91687406D02*
X71612017Y-92387406D01*
X71612017Y-92387406D02*
X71345350Y-92387406D01*
X71345350Y-92387406D02*
X71278684Y-92354073D01*
X71278684Y-92354073D02*
X71245350Y-92320740D01*
X71245350Y-92320740D02*
X71212017Y-92254073D01*
X71212017Y-92254073D02*
X71212017Y-92154073D01*
X71212017Y-92154073D02*
X71245350Y-92087406D01*
X71245350Y-92087406D02*
X71278684Y-92054073D01*
X71278684Y-92054073D02*
X71345350Y-92020740D01*
X71345350Y-92020740D02*
X71612017Y-92020740D01*
X70912017Y-91687406D02*
X70912017Y-92387406D01*
X70445351Y-92387406D02*
X70312017Y-92387406D01*
X70312017Y-92387406D02*
X70245351Y-92354073D01*
X70245351Y-92354073D02*
X70178684Y-92287406D01*
X70178684Y-92287406D02*
X70145351Y-92154073D01*
X70145351Y-92154073D02*
X70145351Y-91920740D01*
X70145351Y-91920740D02*
X70178684Y-91787406D01*
X70178684Y-91787406D02*
X70245351Y-91720740D01*
X70245351Y-91720740D02*
X70312017Y-91687406D01*
X70312017Y-91687406D02*
X70445351Y-91687406D01*
X70445351Y-91687406D02*
X70512017Y-91720740D01*
X70512017Y-91720740D02*
X70578684Y-91787406D01*
X70578684Y-91787406D02*
X70612017Y-91920740D01*
X70612017Y-91920740D02*
X70612017Y-92154073D01*
X70612017Y-92154073D02*
X70578684Y-92287406D01*
X70578684Y-92287406D02*
X70512017Y-92354073D01*
X70512017Y-92354073D02*
X70445351Y-92387406D01*
X69478684Y-91687406D02*
X69878684Y-91687406D01*
X69678684Y-91687406D02*
X69678684Y-92387406D01*
X69678684Y-92387406D02*
X69745351Y-92287406D01*
X69745351Y-92287406D02*
X69812018Y-92220740D01*
X69812018Y-92220740D02*
X69878684Y-92187406D01*
X69245351Y-92387406D02*
X68778684Y-92387406D01*
X68778684Y-92387406D02*
X69078684Y-91687406D01*
X70078684Y-71434073D02*
X70112017Y-71400740D01*
X70112017Y-71400740D02*
X70212017Y-71367406D01*
X70212017Y-71367406D02*
X70278684Y-71367406D01*
X70278684Y-71367406D02*
X70378684Y-71400740D01*
X70378684Y-71400740D02*
X70445351Y-71467406D01*
X70445351Y-71467406D02*
X70478684Y-71534073D01*
X70478684Y-71534073D02*
X70512017Y-71667406D01*
X70512017Y-71667406D02*
X70512017Y-71767406D01*
X70512017Y-71767406D02*
X70478684Y-71900740D01*
X70478684Y-71900740D02*
X70445351Y-71967406D01*
X70445351Y-71967406D02*
X70378684Y-72034073D01*
X70378684Y-72034073D02*
X70278684Y-72067406D01*
X70278684Y-72067406D02*
X70212017Y-72067406D01*
X70212017Y-72067406D02*
X70112017Y-72034073D01*
X70112017Y-72034073D02*
X70078684Y-72000740D01*
X69445351Y-71367406D02*
X69778684Y-71367406D01*
X69778684Y-71367406D02*
X69778684Y-72067406D01*
X69212017Y-71367406D02*
X69212017Y-72067406D01*
X68812017Y-71367406D02*
X69112017Y-71767406D01*
X68812017Y-72067406D02*
X69212017Y-71667406D01*
X90807982Y-82194073D02*
X90874649Y-82227406D01*
X90874649Y-82227406D02*
X90974649Y-82227406D01*
X90974649Y-82227406D02*
X91074649Y-82194073D01*
X91074649Y-82194073D02*
X91141316Y-82127406D01*
X91141316Y-82127406D02*
X91174649Y-82060740D01*
X91174649Y-82060740D02*
X91207982Y-81927406D01*
X91207982Y-81927406D02*
X91207982Y-81827406D01*
X91207982Y-81827406D02*
X91174649Y-81694073D01*
X91174649Y-81694073D02*
X91141316Y-81627406D01*
X91141316Y-81627406D02*
X91074649Y-81560740D01*
X91074649Y-81560740D02*
X90974649Y-81527406D01*
X90974649Y-81527406D02*
X90907982Y-81527406D01*
X90907982Y-81527406D02*
X90807982Y-81560740D01*
X90807982Y-81560740D02*
X90774649Y-81594073D01*
X90774649Y-81594073D02*
X90774649Y-81827406D01*
X90774649Y-81827406D02*
X90907982Y-81827406D01*
X90474649Y-81527406D02*
X90474649Y-82227406D01*
X90474649Y-82227406D02*
X90207982Y-82227406D01*
X90207982Y-82227406D02*
X90141316Y-82194073D01*
X90141316Y-82194073D02*
X90107982Y-82160740D01*
X90107982Y-82160740D02*
X90074649Y-82094073D01*
X90074649Y-82094073D02*
X90074649Y-81994073D01*
X90074649Y-81994073D02*
X90107982Y-81927406D01*
X90107982Y-81927406D02*
X90141316Y-81894073D01*
X90141316Y-81894073D02*
X90207982Y-81860740D01*
X90207982Y-81860740D02*
X90474649Y-81860740D01*
X89774649Y-81527406D02*
X89774649Y-82227406D01*
X89307983Y-82227406D02*
X89174649Y-82227406D01*
X89174649Y-82227406D02*
X89107983Y-82194073D01*
X89107983Y-82194073D02*
X89041316Y-82127406D01*
X89041316Y-82127406D02*
X89007983Y-81994073D01*
X89007983Y-81994073D02*
X89007983Y-81760740D01*
X89007983Y-81760740D02*
X89041316Y-81627406D01*
X89041316Y-81627406D02*
X89107983Y-81560740D01*
X89107983Y-81560740D02*
X89174649Y-81527406D01*
X89174649Y-81527406D02*
X89307983Y-81527406D01*
X89307983Y-81527406D02*
X89374649Y-81560740D01*
X89374649Y-81560740D02*
X89441316Y-81627406D01*
X89441316Y-81627406D02*
X89474649Y-81760740D01*
X89474649Y-81760740D02*
X89474649Y-81994073D01*
X89474649Y-81994073D02*
X89441316Y-82127406D01*
X89441316Y-82127406D02*
X89374649Y-82194073D01*
X89374649Y-82194073D02*
X89307983Y-82227406D01*
X88341316Y-81527406D02*
X88741316Y-81527406D01*
X88541316Y-81527406D02*
X88541316Y-82227406D01*
X88541316Y-82227406D02*
X88607983Y-82127406D01*
X88607983Y-82127406D02*
X88674650Y-82060740D01*
X88674650Y-82060740D02*
X88741316Y-82027406D01*
X88107983Y-82227406D02*
X87674649Y-82227406D01*
X87674649Y-82227406D02*
X87907983Y-81960740D01*
X87907983Y-81960740D02*
X87807983Y-81960740D01*
X87807983Y-81960740D02*
X87741316Y-81927406D01*
X87741316Y-81927406D02*
X87707983Y-81894073D01*
X87707983Y-81894073D02*
X87674649Y-81827406D01*
X87674649Y-81827406D02*
X87674649Y-81660740D01*
X87674649Y-81660740D02*
X87707983Y-81594073D01*
X87707983Y-81594073D02*
X87741316Y-81560740D01*
X87741316Y-81560740D02*
X87807983Y-81527406D01*
X87807983Y-81527406D02*
X88007983Y-81527406D01*
X88007983Y-81527406D02*
X88074649Y-81560740D01*
X88074649Y-81560740D02*
X88107983Y-81594073D01*
X86874649Y-82260740D02*
X87474649Y-81360740D01*
X86641316Y-81527406D02*
X86641316Y-82227406D01*
X86641316Y-82227406D02*
X86407983Y-81727406D01*
X86407983Y-81727406D02*
X86174649Y-82227406D01*
X86174649Y-82227406D02*
X86174649Y-81527406D01*
X85941316Y-82227406D02*
X85541316Y-82227406D01*
X85741316Y-81527406D02*
X85741316Y-82227406D01*
X84907983Y-81594073D02*
X84941316Y-81560740D01*
X84941316Y-81560740D02*
X85041316Y-81527406D01*
X85041316Y-81527406D02*
X85107983Y-81527406D01*
X85107983Y-81527406D02*
X85207983Y-81560740D01*
X85207983Y-81560740D02*
X85274650Y-81627406D01*
X85274650Y-81627406D02*
X85307983Y-81694073D01*
X85307983Y-81694073D02*
X85341316Y-81827406D01*
X85341316Y-81827406D02*
X85341316Y-81927406D01*
X85341316Y-81927406D02*
X85307983Y-82060740D01*
X85307983Y-82060740D02*
X85274650Y-82127406D01*
X85274650Y-82127406D02*
X85207983Y-82194073D01*
X85207983Y-82194073D02*
X85107983Y-82227406D01*
X85107983Y-82227406D02*
X85041316Y-82227406D01*
X85041316Y-82227406D02*
X84941316Y-82194073D01*
X84941316Y-82194073D02*
X84907983Y-82160740D01*
X84607983Y-81527406D02*
X84607983Y-82227406D01*
X84207983Y-81527406D02*
X84507983Y-81927406D01*
X84207983Y-82227406D02*
X84607983Y-81827406D01*
X71278683Y-94894073D02*
X71345350Y-94927406D01*
X71345350Y-94927406D02*
X71445350Y-94927406D01*
X71445350Y-94927406D02*
X71545350Y-94894073D01*
X71545350Y-94894073D02*
X71612017Y-94827406D01*
X71612017Y-94827406D02*
X71645350Y-94760740D01*
X71645350Y-94760740D02*
X71678683Y-94627406D01*
X71678683Y-94627406D02*
X71678683Y-94527406D01*
X71678683Y-94527406D02*
X71645350Y-94394073D01*
X71645350Y-94394073D02*
X71612017Y-94327406D01*
X71612017Y-94327406D02*
X71545350Y-94260740D01*
X71545350Y-94260740D02*
X71445350Y-94227406D01*
X71445350Y-94227406D02*
X71378683Y-94227406D01*
X71378683Y-94227406D02*
X71278683Y-94260740D01*
X71278683Y-94260740D02*
X71245350Y-94294073D01*
X71245350Y-94294073D02*
X71245350Y-94527406D01*
X71245350Y-94527406D02*
X71378683Y-94527406D01*
X70945350Y-94227406D02*
X70945350Y-94927406D01*
X70945350Y-94927406D02*
X70678683Y-94927406D01*
X70678683Y-94927406D02*
X70612017Y-94894073D01*
X70612017Y-94894073D02*
X70578683Y-94860740D01*
X70578683Y-94860740D02*
X70545350Y-94794073D01*
X70545350Y-94794073D02*
X70545350Y-94694073D01*
X70545350Y-94694073D02*
X70578683Y-94627406D01*
X70578683Y-94627406D02*
X70612017Y-94594073D01*
X70612017Y-94594073D02*
X70678683Y-94560740D01*
X70678683Y-94560740D02*
X70945350Y-94560740D01*
X70245350Y-94227406D02*
X70245350Y-94927406D01*
X69778684Y-94927406D02*
X69645350Y-94927406D01*
X69645350Y-94927406D02*
X69578684Y-94894073D01*
X69578684Y-94894073D02*
X69512017Y-94827406D01*
X69512017Y-94827406D02*
X69478684Y-94694073D01*
X69478684Y-94694073D02*
X69478684Y-94460740D01*
X69478684Y-94460740D02*
X69512017Y-94327406D01*
X69512017Y-94327406D02*
X69578684Y-94260740D01*
X69578684Y-94260740D02*
X69645350Y-94227406D01*
X69645350Y-94227406D02*
X69778684Y-94227406D01*
X69778684Y-94227406D02*
X69845350Y-94260740D01*
X69845350Y-94260740D02*
X69912017Y-94327406D01*
X69912017Y-94327406D02*
X69945350Y-94460740D01*
X69945350Y-94460740D02*
X69945350Y-94694073D01*
X69945350Y-94694073D02*
X69912017Y-94827406D01*
X69912017Y-94827406D02*
X69845350Y-94894073D01*
X69845350Y-94894073D02*
X69778684Y-94927406D01*
X68845351Y-94927406D02*
X69178684Y-94927406D01*
X69178684Y-94927406D02*
X69212017Y-94594073D01*
X69212017Y-94594073D02*
X69178684Y-94627406D01*
X69178684Y-94627406D02*
X69112017Y-94660740D01*
X69112017Y-94660740D02*
X68945351Y-94660740D01*
X68945351Y-94660740D02*
X68878684Y-94627406D01*
X68878684Y-94627406D02*
X68845351Y-94594073D01*
X68845351Y-94594073D02*
X68812017Y-94527406D01*
X68812017Y-94527406D02*
X68812017Y-94360740D01*
X68812017Y-94360740D02*
X68845351Y-94294073D01*
X68845351Y-94294073D02*
X68878684Y-94260740D01*
X68878684Y-94260740D02*
X68945351Y-94227406D01*
X68945351Y-94227406D02*
X69112017Y-94227406D01*
X69112017Y-94227406D02*
X69178684Y-94260740D01*
X69178684Y-94260740D02*
X69212017Y-94294073D01*
X91274649Y-110167406D02*
X91041316Y-109467406D01*
X91041316Y-109467406D02*
X90807982Y-110167406D01*
X90574649Y-109467406D02*
X90574649Y-110167406D01*
X90574649Y-110167406D02*
X90174649Y-109467406D01*
X90174649Y-109467406D02*
X90174649Y-110167406D01*
X89341316Y-110200740D02*
X89941316Y-109300740D01*
X88741316Y-110134073D02*
X88807983Y-110167406D01*
X88807983Y-110167406D02*
X88907983Y-110167406D01*
X88907983Y-110167406D02*
X89007983Y-110134073D01*
X89007983Y-110134073D02*
X89074650Y-110067406D01*
X89074650Y-110067406D02*
X89107983Y-110000740D01*
X89107983Y-110000740D02*
X89141316Y-109867406D01*
X89141316Y-109867406D02*
X89141316Y-109767406D01*
X89141316Y-109767406D02*
X89107983Y-109634073D01*
X89107983Y-109634073D02*
X89074650Y-109567406D01*
X89074650Y-109567406D02*
X89007983Y-109500740D01*
X89007983Y-109500740D02*
X88907983Y-109467406D01*
X88907983Y-109467406D02*
X88841316Y-109467406D01*
X88841316Y-109467406D02*
X88741316Y-109500740D01*
X88741316Y-109500740D02*
X88707983Y-109534073D01*
X88707983Y-109534073D02*
X88707983Y-109767406D01*
X88707983Y-109767406D02*
X88841316Y-109767406D01*
X88407983Y-109467406D02*
X88407983Y-110167406D01*
X88407983Y-110167406D02*
X88141316Y-110167406D01*
X88141316Y-110167406D02*
X88074650Y-110134073D01*
X88074650Y-110134073D02*
X88041316Y-110100740D01*
X88041316Y-110100740D02*
X88007983Y-110034073D01*
X88007983Y-110034073D02*
X88007983Y-109934073D01*
X88007983Y-109934073D02*
X88041316Y-109867406D01*
X88041316Y-109867406D02*
X88074650Y-109834073D01*
X88074650Y-109834073D02*
X88141316Y-109800740D01*
X88141316Y-109800740D02*
X88407983Y-109800740D01*
X87707983Y-109467406D02*
X87707983Y-110167406D01*
X87241317Y-110167406D02*
X87107983Y-110167406D01*
X87107983Y-110167406D02*
X87041317Y-110134073D01*
X87041317Y-110134073D02*
X86974650Y-110067406D01*
X86974650Y-110067406D02*
X86941317Y-109934073D01*
X86941317Y-109934073D02*
X86941317Y-109700740D01*
X86941317Y-109700740D02*
X86974650Y-109567406D01*
X86974650Y-109567406D02*
X87041317Y-109500740D01*
X87041317Y-109500740D02*
X87107983Y-109467406D01*
X87107983Y-109467406D02*
X87241317Y-109467406D01*
X87241317Y-109467406D02*
X87307983Y-109500740D01*
X87307983Y-109500740D02*
X87374650Y-109567406D01*
X87374650Y-109567406D02*
X87407983Y-109700740D01*
X87407983Y-109700740D02*
X87407983Y-109934073D01*
X87407983Y-109934073D02*
X87374650Y-110067406D01*
X87374650Y-110067406D02*
X87307983Y-110134073D01*
X87307983Y-110134073D02*
X87241317Y-110167406D01*
X86707984Y-110167406D02*
X86274650Y-110167406D01*
X86274650Y-110167406D02*
X86507984Y-109900740D01*
X86507984Y-109900740D02*
X86407984Y-109900740D01*
X86407984Y-109900740D02*
X86341317Y-109867406D01*
X86341317Y-109867406D02*
X86307984Y-109834073D01*
X86307984Y-109834073D02*
X86274650Y-109767406D01*
X86274650Y-109767406D02*
X86274650Y-109600740D01*
X86274650Y-109600740D02*
X86307984Y-109534073D01*
X86307984Y-109534073D02*
X86341317Y-109500740D01*
X86341317Y-109500740D02*
X86407984Y-109467406D01*
X86407984Y-109467406D02*
X86607984Y-109467406D01*
X86607984Y-109467406D02*
X86674650Y-109500740D01*
X86674650Y-109500740D02*
X86707984Y-109534073D01*
X85941317Y-109467406D02*
X85807983Y-109467406D01*
X85807983Y-109467406D02*
X85741317Y-109500740D01*
X85741317Y-109500740D02*
X85707983Y-109534073D01*
X85707983Y-109534073D02*
X85641317Y-109634073D01*
X85641317Y-109634073D02*
X85607983Y-109767406D01*
X85607983Y-109767406D02*
X85607983Y-110034073D01*
X85607983Y-110034073D02*
X85641317Y-110100740D01*
X85641317Y-110100740D02*
X85674650Y-110134073D01*
X85674650Y-110134073D02*
X85741317Y-110167406D01*
X85741317Y-110167406D02*
X85874650Y-110167406D01*
X85874650Y-110167406D02*
X85941317Y-110134073D01*
X85941317Y-110134073D02*
X85974650Y-110100740D01*
X85974650Y-110100740D02*
X86007983Y-110034073D01*
X86007983Y-110034073D02*
X86007983Y-109867406D01*
X86007983Y-109867406D02*
X85974650Y-109800740D01*
X85974650Y-109800740D02*
X85941317Y-109767406D01*
X85941317Y-109767406D02*
X85874650Y-109734073D01*
X85874650Y-109734073D02*
X85741317Y-109734073D01*
X85741317Y-109734073D02*
X85674650Y-109767406D01*
X85674650Y-109767406D02*
X85641317Y-109800740D01*
X85641317Y-109800740D02*
X85607983Y-109867406D01*
X71945350Y-105054073D02*
X72012017Y-105087406D01*
X72012017Y-105087406D02*
X72112017Y-105087406D01*
X72112017Y-105087406D02*
X72212017Y-105054073D01*
X72212017Y-105054073D02*
X72278684Y-104987406D01*
X72278684Y-104987406D02*
X72312017Y-104920740D01*
X72312017Y-104920740D02*
X72345350Y-104787406D01*
X72345350Y-104787406D02*
X72345350Y-104687406D01*
X72345350Y-104687406D02*
X72312017Y-104554073D01*
X72312017Y-104554073D02*
X72278684Y-104487406D01*
X72278684Y-104487406D02*
X72212017Y-104420740D01*
X72212017Y-104420740D02*
X72112017Y-104387406D01*
X72112017Y-104387406D02*
X72045350Y-104387406D01*
X72045350Y-104387406D02*
X71945350Y-104420740D01*
X71945350Y-104420740D02*
X71912017Y-104454073D01*
X71912017Y-104454073D02*
X71912017Y-104687406D01*
X71912017Y-104687406D02*
X72045350Y-104687406D01*
X71612017Y-104387406D02*
X71612017Y-105087406D01*
X71612017Y-105087406D02*
X71345350Y-105087406D01*
X71345350Y-105087406D02*
X71278684Y-105054073D01*
X71278684Y-105054073D02*
X71245350Y-105020740D01*
X71245350Y-105020740D02*
X71212017Y-104954073D01*
X71212017Y-104954073D02*
X71212017Y-104854073D01*
X71212017Y-104854073D02*
X71245350Y-104787406D01*
X71245350Y-104787406D02*
X71278684Y-104754073D01*
X71278684Y-104754073D02*
X71345350Y-104720740D01*
X71345350Y-104720740D02*
X71612017Y-104720740D01*
X70912017Y-104387406D02*
X70912017Y-105087406D01*
X70445351Y-105087406D02*
X70312017Y-105087406D01*
X70312017Y-105087406D02*
X70245351Y-105054073D01*
X70245351Y-105054073D02*
X70178684Y-104987406D01*
X70178684Y-104987406D02*
X70145351Y-104854073D01*
X70145351Y-104854073D02*
X70145351Y-104620740D01*
X70145351Y-104620740D02*
X70178684Y-104487406D01*
X70178684Y-104487406D02*
X70245351Y-104420740D01*
X70245351Y-104420740D02*
X70312017Y-104387406D01*
X70312017Y-104387406D02*
X70445351Y-104387406D01*
X70445351Y-104387406D02*
X70512017Y-104420740D01*
X70512017Y-104420740D02*
X70578684Y-104487406D01*
X70578684Y-104487406D02*
X70612017Y-104620740D01*
X70612017Y-104620740D02*
X70612017Y-104854073D01*
X70612017Y-104854073D02*
X70578684Y-104987406D01*
X70578684Y-104987406D02*
X70512017Y-105054073D01*
X70512017Y-105054073D02*
X70445351Y-105087406D01*
X69878684Y-105020740D02*
X69845351Y-105054073D01*
X69845351Y-105054073D02*
X69778684Y-105087406D01*
X69778684Y-105087406D02*
X69612018Y-105087406D01*
X69612018Y-105087406D02*
X69545351Y-105054073D01*
X69545351Y-105054073D02*
X69512018Y-105020740D01*
X69512018Y-105020740D02*
X69478684Y-104954073D01*
X69478684Y-104954073D02*
X69478684Y-104887406D01*
X69478684Y-104887406D02*
X69512018Y-104787406D01*
X69512018Y-104787406D02*
X69912018Y-104387406D01*
X69912018Y-104387406D02*
X69478684Y-104387406D01*
X68812017Y-104387406D02*
X69212017Y-104387406D01*
X69012017Y-104387406D02*
X69012017Y-105087406D01*
X69012017Y-105087406D02*
X69078684Y-104987406D01*
X69078684Y-104987406D02*
X69145351Y-104920740D01*
X69145351Y-104920740D02*
X69212017Y-104887406D01*
X71278683Y-82194073D02*
X71345350Y-82227406D01*
X71345350Y-82227406D02*
X71445350Y-82227406D01*
X71445350Y-82227406D02*
X71545350Y-82194073D01*
X71545350Y-82194073D02*
X71612017Y-82127406D01*
X71612017Y-82127406D02*
X71645350Y-82060740D01*
X71645350Y-82060740D02*
X71678683Y-81927406D01*
X71678683Y-81927406D02*
X71678683Y-81827406D01*
X71678683Y-81827406D02*
X71645350Y-81694073D01*
X71645350Y-81694073D02*
X71612017Y-81627406D01*
X71612017Y-81627406D02*
X71545350Y-81560740D01*
X71545350Y-81560740D02*
X71445350Y-81527406D01*
X71445350Y-81527406D02*
X71378683Y-81527406D01*
X71378683Y-81527406D02*
X71278683Y-81560740D01*
X71278683Y-81560740D02*
X71245350Y-81594073D01*
X71245350Y-81594073D02*
X71245350Y-81827406D01*
X71245350Y-81827406D02*
X71378683Y-81827406D01*
X70945350Y-81527406D02*
X70945350Y-82227406D01*
X70945350Y-82227406D02*
X70678683Y-82227406D01*
X70678683Y-82227406D02*
X70612017Y-82194073D01*
X70612017Y-82194073D02*
X70578683Y-82160740D01*
X70578683Y-82160740D02*
X70545350Y-82094073D01*
X70545350Y-82094073D02*
X70545350Y-81994073D01*
X70545350Y-81994073D02*
X70578683Y-81927406D01*
X70578683Y-81927406D02*
X70612017Y-81894073D01*
X70612017Y-81894073D02*
X70678683Y-81860740D01*
X70678683Y-81860740D02*
X70945350Y-81860740D01*
X70245350Y-81527406D02*
X70245350Y-82227406D01*
X69778684Y-82227406D02*
X69645350Y-82227406D01*
X69645350Y-82227406D02*
X69578684Y-82194073D01*
X69578684Y-82194073D02*
X69512017Y-82127406D01*
X69512017Y-82127406D02*
X69478684Y-81994073D01*
X69478684Y-81994073D02*
X69478684Y-81760740D01*
X69478684Y-81760740D02*
X69512017Y-81627406D01*
X69512017Y-81627406D02*
X69578684Y-81560740D01*
X69578684Y-81560740D02*
X69645350Y-81527406D01*
X69645350Y-81527406D02*
X69778684Y-81527406D01*
X69778684Y-81527406D02*
X69845350Y-81560740D01*
X69845350Y-81560740D02*
X69912017Y-81627406D01*
X69912017Y-81627406D02*
X69945350Y-81760740D01*
X69945350Y-81760740D02*
X69945350Y-81994073D01*
X69945350Y-81994073D02*
X69912017Y-82127406D01*
X69912017Y-82127406D02*
X69845350Y-82194073D01*
X69845350Y-82194073D02*
X69778684Y-82227406D01*
X69212017Y-82160740D02*
X69178684Y-82194073D01*
X69178684Y-82194073D02*
X69112017Y-82227406D01*
X69112017Y-82227406D02*
X68945351Y-82227406D01*
X68945351Y-82227406D02*
X68878684Y-82194073D01*
X68878684Y-82194073D02*
X68845351Y-82160740D01*
X68845351Y-82160740D02*
X68812017Y-82094073D01*
X68812017Y-82094073D02*
X68812017Y-82027406D01*
X68812017Y-82027406D02*
X68845351Y-81927406D01*
X68845351Y-81927406D02*
X69245351Y-81527406D01*
X69245351Y-81527406D02*
X68812017Y-81527406D01*
X90807982Y-107594073D02*
X90874649Y-107627406D01*
X90874649Y-107627406D02*
X90974649Y-107627406D01*
X90974649Y-107627406D02*
X91074649Y-107594073D01*
X91074649Y-107594073D02*
X91141316Y-107527406D01*
X91141316Y-107527406D02*
X91174649Y-107460740D01*
X91174649Y-107460740D02*
X91207982Y-107327406D01*
X91207982Y-107327406D02*
X91207982Y-107227406D01*
X91207982Y-107227406D02*
X91174649Y-107094073D01*
X91174649Y-107094073D02*
X91141316Y-107027406D01*
X91141316Y-107027406D02*
X91074649Y-106960740D01*
X91074649Y-106960740D02*
X90974649Y-106927406D01*
X90974649Y-106927406D02*
X90907982Y-106927406D01*
X90907982Y-106927406D02*
X90807982Y-106960740D01*
X90807982Y-106960740D02*
X90774649Y-106994073D01*
X90774649Y-106994073D02*
X90774649Y-107227406D01*
X90774649Y-107227406D02*
X90907982Y-107227406D01*
X90474649Y-106927406D02*
X90474649Y-107627406D01*
X90474649Y-107627406D02*
X90207982Y-107627406D01*
X90207982Y-107627406D02*
X90141316Y-107594073D01*
X90141316Y-107594073D02*
X90107982Y-107560740D01*
X90107982Y-107560740D02*
X90074649Y-107494073D01*
X90074649Y-107494073D02*
X90074649Y-107394073D01*
X90074649Y-107394073D02*
X90107982Y-107327406D01*
X90107982Y-107327406D02*
X90141316Y-107294073D01*
X90141316Y-107294073D02*
X90207982Y-107260740D01*
X90207982Y-107260740D02*
X90474649Y-107260740D01*
X89774649Y-106927406D02*
X89774649Y-107627406D01*
X89307983Y-107627406D02*
X89174649Y-107627406D01*
X89174649Y-107627406D02*
X89107983Y-107594073D01*
X89107983Y-107594073D02*
X89041316Y-107527406D01*
X89041316Y-107527406D02*
X89007983Y-107394073D01*
X89007983Y-107394073D02*
X89007983Y-107160740D01*
X89007983Y-107160740D02*
X89041316Y-107027406D01*
X89041316Y-107027406D02*
X89107983Y-106960740D01*
X89107983Y-106960740D02*
X89174649Y-106927406D01*
X89174649Y-106927406D02*
X89307983Y-106927406D01*
X89307983Y-106927406D02*
X89374649Y-106960740D01*
X89374649Y-106960740D02*
X89441316Y-107027406D01*
X89441316Y-107027406D02*
X89474649Y-107160740D01*
X89474649Y-107160740D02*
X89474649Y-107394073D01*
X89474649Y-107394073D02*
X89441316Y-107527406D01*
X89441316Y-107527406D02*
X89374649Y-107594073D01*
X89374649Y-107594073D02*
X89307983Y-107627406D01*
X88774650Y-107627406D02*
X88341316Y-107627406D01*
X88341316Y-107627406D02*
X88574650Y-107360740D01*
X88574650Y-107360740D02*
X88474650Y-107360740D01*
X88474650Y-107360740D02*
X88407983Y-107327406D01*
X88407983Y-107327406D02*
X88374650Y-107294073D01*
X88374650Y-107294073D02*
X88341316Y-107227406D01*
X88341316Y-107227406D02*
X88341316Y-107060740D01*
X88341316Y-107060740D02*
X88374650Y-106994073D01*
X88374650Y-106994073D02*
X88407983Y-106960740D01*
X88407983Y-106960740D02*
X88474650Y-106927406D01*
X88474650Y-106927406D02*
X88674650Y-106927406D01*
X88674650Y-106927406D02*
X88741316Y-106960740D01*
X88741316Y-106960740D02*
X88774650Y-106994073D01*
X87741316Y-107394073D02*
X87741316Y-106927406D01*
X87907983Y-107660740D02*
X88074649Y-107160740D01*
X88074649Y-107160740D02*
X87641316Y-107160740D01*
X90807982Y-87274073D02*
X90874649Y-87307406D01*
X90874649Y-87307406D02*
X90974649Y-87307406D01*
X90974649Y-87307406D02*
X91074649Y-87274073D01*
X91074649Y-87274073D02*
X91141316Y-87207406D01*
X91141316Y-87207406D02*
X91174649Y-87140740D01*
X91174649Y-87140740D02*
X91207982Y-87007406D01*
X91207982Y-87007406D02*
X91207982Y-86907406D01*
X91207982Y-86907406D02*
X91174649Y-86774073D01*
X91174649Y-86774073D02*
X91141316Y-86707406D01*
X91141316Y-86707406D02*
X91074649Y-86640740D01*
X91074649Y-86640740D02*
X90974649Y-86607406D01*
X90974649Y-86607406D02*
X90907982Y-86607406D01*
X90907982Y-86607406D02*
X90807982Y-86640740D01*
X90807982Y-86640740D02*
X90774649Y-86674073D01*
X90774649Y-86674073D02*
X90774649Y-86907406D01*
X90774649Y-86907406D02*
X90907982Y-86907406D01*
X90474649Y-86607406D02*
X90474649Y-87307406D01*
X90474649Y-87307406D02*
X90207982Y-87307406D01*
X90207982Y-87307406D02*
X90141316Y-87274073D01*
X90141316Y-87274073D02*
X90107982Y-87240740D01*
X90107982Y-87240740D02*
X90074649Y-87174073D01*
X90074649Y-87174073D02*
X90074649Y-87074073D01*
X90074649Y-87074073D02*
X90107982Y-87007406D01*
X90107982Y-87007406D02*
X90141316Y-86974073D01*
X90141316Y-86974073D02*
X90207982Y-86940740D01*
X90207982Y-86940740D02*
X90474649Y-86940740D01*
X89774649Y-86607406D02*
X89774649Y-87307406D01*
X89307983Y-87307406D02*
X89174649Y-87307406D01*
X89174649Y-87307406D02*
X89107983Y-87274073D01*
X89107983Y-87274073D02*
X89041316Y-87207406D01*
X89041316Y-87207406D02*
X89007983Y-87074073D01*
X89007983Y-87074073D02*
X89007983Y-86840740D01*
X89007983Y-86840740D02*
X89041316Y-86707406D01*
X89041316Y-86707406D02*
X89107983Y-86640740D01*
X89107983Y-86640740D02*
X89174649Y-86607406D01*
X89174649Y-86607406D02*
X89307983Y-86607406D01*
X89307983Y-86607406D02*
X89374649Y-86640740D01*
X89374649Y-86640740D02*
X89441316Y-86707406D01*
X89441316Y-86707406D02*
X89474649Y-86840740D01*
X89474649Y-86840740D02*
X89474649Y-87074073D01*
X89474649Y-87074073D02*
X89441316Y-87207406D01*
X89441316Y-87207406D02*
X89374649Y-87274073D01*
X89374649Y-87274073D02*
X89307983Y-87307406D01*
X88341316Y-86607406D02*
X88741316Y-86607406D01*
X88541316Y-86607406D02*
X88541316Y-87307406D01*
X88541316Y-87307406D02*
X88607983Y-87207406D01*
X88607983Y-87207406D02*
X88674650Y-87140740D01*
X88674650Y-87140740D02*
X88741316Y-87107406D01*
X88074649Y-87240740D02*
X88041316Y-87274073D01*
X88041316Y-87274073D02*
X87974649Y-87307406D01*
X87974649Y-87307406D02*
X87807983Y-87307406D01*
X87807983Y-87307406D02*
X87741316Y-87274073D01*
X87741316Y-87274073D02*
X87707983Y-87240740D01*
X87707983Y-87240740D02*
X87674649Y-87174073D01*
X87674649Y-87174073D02*
X87674649Y-87107406D01*
X87674649Y-87107406D02*
X87707983Y-87007406D01*
X87707983Y-87007406D02*
X88107983Y-86607406D01*
X88107983Y-86607406D02*
X87674649Y-86607406D01*
X86874649Y-87340740D02*
X87474649Y-86440740D01*
X86641316Y-86607406D02*
X86641316Y-87307406D01*
X86641316Y-87307406D02*
X86407983Y-86807406D01*
X86407983Y-86807406D02*
X86174649Y-87307406D01*
X86174649Y-87307406D02*
X86174649Y-86607406D01*
X85941316Y-87307406D02*
X85541316Y-87307406D01*
X85741316Y-86607406D02*
X85741316Y-87307406D01*
X85307983Y-86607406D02*
X85307983Y-87307406D01*
X85307983Y-87307406D02*
X85141316Y-87307406D01*
X85141316Y-87307406D02*
X85041316Y-87274073D01*
X85041316Y-87274073D02*
X84974650Y-87207406D01*
X84974650Y-87207406D02*
X84941316Y-87140740D01*
X84941316Y-87140740D02*
X84907983Y-87007406D01*
X84907983Y-87007406D02*
X84907983Y-86907406D01*
X84907983Y-86907406D02*
X84941316Y-86774073D01*
X84941316Y-86774073D02*
X84974650Y-86707406D01*
X84974650Y-86707406D02*
X85041316Y-86640740D01*
X85041316Y-86640740D02*
X85141316Y-86607406D01*
X85141316Y-86607406D02*
X85307983Y-86607406D01*
X84607983Y-86607406D02*
X84607983Y-87307406D01*
X70964398Y-102661001D02*
X71059636Y-102708620D01*
X71059636Y-102708620D02*
X71202493Y-102708620D01*
X71202493Y-102708620D02*
X71345350Y-102661001D01*
X71345350Y-102661001D02*
X71440588Y-102565763D01*
X71440588Y-102565763D02*
X71488207Y-102470525D01*
X71488207Y-102470525D02*
X71535826Y-102280049D01*
X71535826Y-102280049D02*
X71535826Y-102137192D01*
X71535826Y-102137192D02*
X71488207Y-101946716D01*
X71488207Y-101946716D02*
X71440588Y-101851478D01*
X71440588Y-101851478D02*
X71345350Y-101756240D01*
X71345350Y-101756240D02*
X71202493Y-101708620D01*
X71202493Y-101708620D02*
X71107255Y-101708620D01*
X71107255Y-101708620D02*
X70964398Y-101756240D01*
X70964398Y-101756240D02*
X70916779Y-101803859D01*
X70916779Y-101803859D02*
X70916779Y-102137192D01*
X70916779Y-102137192D02*
X71107255Y-102137192D01*
X70488207Y-101708620D02*
X70488207Y-102708620D01*
X70488207Y-102708620D02*
X69916779Y-101708620D01*
X69916779Y-101708620D02*
X69916779Y-102708620D01*
X69440588Y-101708620D02*
X69440588Y-102708620D01*
X69440588Y-102708620D02*
X69202493Y-102708620D01*
X69202493Y-102708620D02*
X69059636Y-102661001D01*
X69059636Y-102661001D02*
X68964398Y-102565763D01*
X68964398Y-102565763D02*
X68916779Y-102470525D01*
X68916779Y-102470525D02*
X68869160Y-102280049D01*
X68869160Y-102280049D02*
X68869160Y-102137192D01*
X68869160Y-102137192D02*
X68916779Y-101946716D01*
X68916779Y-101946716D02*
X68964398Y-101851478D01*
X68964398Y-101851478D02*
X69059636Y-101756240D01*
X69059636Y-101756240D02*
X69202493Y-101708620D01*
X69202493Y-101708620D02*
X69440588Y-101708620D01*
X90579411Y-84881001D02*
X90674649Y-84928620D01*
X90674649Y-84928620D02*
X90817506Y-84928620D01*
X90817506Y-84928620D02*
X90960363Y-84881001D01*
X90960363Y-84881001D02*
X91055601Y-84785763D01*
X91055601Y-84785763D02*
X91103220Y-84690525D01*
X91103220Y-84690525D02*
X91150839Y-84500049D01*
X91150839Y-84500049D02*
X91150839Y-84357192D01*
X91150839Y-84357192D02*
X91103220Y-84166716D01*
X91103220Y-84166716D02*
X91055601Y-84071478D01*
X91055601Y-84071478D02*
X90960363Y-83976240D01*
X90960363Y-83976240D02*
X90817506Y-83928620D01*
X90817506Y-83928620D02*
X90722268Y-83928620D01*
X90722268Y-83928620D02*
X90579411Y-83976240D01*
X90579411Y-83976240D02*
X90531792Y-84023859D01*
X90531792Y-84023859D02*
X90531792Y-84357192D01*
X90531792Y-84357192D02*
X90722268Y-84357192D01*
X90103220Y-83928620D02*
X90103220Y-84928620D01*
X90103220Y-84928620D02*
X89531792Y-83928620D01*
X89531792Y-83928620D02*
X89531792Y-84928620D01*
X89055601Y-83928620D02*
X89055601Y-84928620D01*
X89055601Y-84928620D02*
X88817506Y-84928620D01*
X88817506Y-84928620D02*
X88674649Y-84881001D01*
X88674649Y-84881001D02*
X88579411Y-84785763D01*
X88579411Y-84785763D02*
X88531792Y-84690525D01*
X88531792Y-84690525D02*
X88484173Y-84500049D01*
X88484173Y-84500049D02*
X88484173Y-84357192D01*
X88484173Y-84357192D02*
X88531792Y-84166716D01*
X88531792Y-84166716D02*
X88579411Y-84071478D01*
X88579411Y-84071478D02*
X88674649Y-83976240D01*
X88674649Y-83976240D02*
X88817506Y-83928620D01*
X88817506Y-83928620D02*
X89055601Y-83928620D01*
X90630710Y-71977340D02*
X91106900Y-71977340D01*
X91106900Y-71977340D02*
X91154519Y-71501150D01*
X91154519Y-71501150D02*
X91106900Y-71548769D01*
X91106900Y-71548769D02*
X91011662Y-71596388D01*
X91011662Y-71596388D02*
X90773567Y-71596388D01*
X90773567Y-71596388D02*
X90678329Y-71548769D01*
X90678329Y-71548769D02*
X90630710Y-71501150D01*
X90630710Y-71501150D02*
X90583091Y-71405912D01*
X90583091Y-71405912D02*
X90583091Y-71167817D01*
X90583091Y-71167817D02*
X90630710Y-71072579D01*
X90630710Y-71072579D02*
X90678329Y-71024960D01*
X90678329Y-71024960D02*
X90773567Y-70977340D01*
X90773567Y-70977340D02*
X91011662Y-70977340D01*
X91011662Y-70977340D02*
X91106900Y-71024960D01*
X91106900Y-71024960D02*
X91154519Y-71072579D01*
X90297376Y-71977340D02*
X89964043Y-70977340D01*
X89964043Y-70977340D02*
X89630710Y-71977340D01*
X71945350Y-115214073D02*
X72012017Y-115247406D01*
X72012017Y-115247406D02*
X72112017Y-115247406D01*
X72112017Y-115247406D02*
X72212017Y-115214073D01*
X72212017Y-115214073D02*
X72278684Y-115147406D01*
X72278684Y-115147406D02*
X72312017Y-115080740D01*
X72312017Y-115080740D02*
X72345350Y-114947406D01*
X72345350Y-114947406D02*
X72345350Y-114847406D01*
X72345350Y-114847406D02*
X72312017Y-114714073D01*
X72312017Y-114714073D02*
X72278684Y-114647406D01*
X72278684Y-114647406D02*
X72212017Y-114580740D01*
X72212017Y-114580740D02*
X72112017Y-114547406D01*
X72112017Y-114547406D02*
X72045350Y-114547406D01*
X72045350Y-114547406D02*
X71945350Y-114580740D01*
X71945350Y-114580740D02*
X71912017Y-114614073D01*
X71912017Y-114614073D02*
X71912017Y-114847406D01*
X71912017Y-114847406D02*
X72045350Y-114847406D01*
X71612017Y-114547406D02*
X71612017Y-115247406D01*
X71612017Y-115247406D02*
X71345350Y-115247406D01*
X71345350Y-115247406D02*
X71278684Y-115214073D01*
X71278684Y-115214073D02*
X71245350Y-115180740D01*
X71245350Y-115180740D02*
X71212017Y-115114073D01*
X71212017Y-115114073D02*
X71212017Y-115014073D01*
X71212017Y-115014073D02*
X71245350Y-114947406D01*
X71245350Y-114947406D02*
X71278684Y-114914073D01*
X71278684Y-114914073D02*
X71345350Y-114880740D01*
X71345350Y-114880740D02*
X71612017Y-114880740D01*
X70912017Y-114547406D02*
X70912017Y-115247406D01*
X70445351Y-115247406D02*
X70312017Y-115247406D01*
X70312017Y-115247406D02*
X70245351Y-115214073D01*
X70245351Y-115214073D02*
X70178684Y-115147406D01*
X70178684Y-115147406D02*
X70145351Y-115014073D01*
X70145351Y-115014073D02*
X70145351Y-114780740D01*
X70145351Y-114780740D02*
X70178684Y-114647406D01*
X70178684Y-114647406D02*
X70245351Y-114580740D01*
X70245351Y-114580740D02*
X70312017Y-114547406D01*
X70312017Y-114547406D02*
X70445351Y-114547406D01*
X70445351Y-114547406D02*
X70512017Y-114580740D01*
X70512017Y-114580740D02*
X70578684Y-114647406D01*
X70578684Y-114647406D02*
X70612017Y-114780740D01*
X70612017Y-114780740D02*
X70612017Y-115014073D01*
X70612017Y-115014073D02*
X70578684Y-115147406D01*
X70578684Y-115147406D02*
X70512017Y-115214073D01*
X70512017Y-115214073D02*
X70445351Y-115247406D01*
X69878684Y-115180740D02*
X69845351Y-115214073D01*
X69845351Y-115214073D02*
X69778684Y-115247406D01*
X69778684Y-115247406D02*
X69612018Y-115247406D01*
X69612018Y-115247406D02*
X69545351Y-115214073D01*
X69545351Y-115214073D02*
X69512018Y-115180740D01*
X69512018Y-115180740D02*
X69478684Y-115114073D01*
X69478684Y-115114073D02*
X69478684Y-115047406D01*
X69478684Y-115047406D02*
X69512018Y-114947406D01*
X69512018Y-114947406D02*
X69912018Y-114547406D01*
X69912018Y-114547406D02*
X69478684Y-114547406D01*
X69245351Y-115247406D02*
X68812017Y-115247406D01*
X68812017Y-115247406D02*
X69045351Y-114980740D01*
X69045351Y-114980740D02*
X68945351Y-114980740D01*
X68945351Y-114980740D02*
X68878684Y-114947406D01*
X68878684Y-114947406D02*
X68845351Y-114914073D01*
X68845351Y-114914073D02*
X68812017Y-114847406D01*
X68812017Y-114847406D02*
X68812017Y-114680740D01*
X68812017Y-114680740D02*
X68845351Y-114614073D01*
X68845351Y-114614073D02*
X68878684Y-114580740D01*
X68878684Y-114580740D02*
X68945351Y-114547406D01*
X68945351Y-114547406D02*
X69145351Y-114547406D01*
X69145351Y-114547406D02*
X69212017Y-114580740D01*
X69212017Y-114580740D02*
X69245351Y-114614073D01*
X75478683Y-107594073D02*
X75545350Y-107627406D01*
X75545350Y-107627406D02*
X75645350Y-107627406D01*
X75645350Y-107627406D02*
X75745350Y-107594073D01*
X75745350Y-107594073D02*
X75812017Y-107527406D01*
X75812017Y-107527406D02*
X75845350Y-107460740D01*
X75845350Y-107460740D02*
X75878683Y-107327406D01*
X75878683Y-107327406D02*
X75878683Y-107227406D01*
X75878683Y-107227406D02*
X75845350Y-107094073D01*
X75845350Y-107094073D02*
X75812017Y-107027406D01*
X75812017Y-107027406D02*
X75745350Y-106960740D01*
X75745350Y-106960740D02*
X75645350Y-106927406D01*
X75645350Y-106927406D02*
X75578683Y-106927406D01*
X75578683Y-106927406D02*
X75478683Y-106960740D01*
X75478683Y-106960740D02*
X75445350Y-106994073D01*
X75445350Y-106994073D02*
X75445350Y-107227406D01*
X75445350Y-107227406D02*
X75578683Y-107227406D01*
X75145350Y-106927406D02*
X75145350Y-107627406D01*
X75145350Y-107627406D02*
X74878683Y-107627406D01*
X74878683Y-107627406D02*
X74812017Y-107594073D01*
X74812017Y-107594073D02*
X74778683Y-107560740D01*
X74778683Y-107560740D02*
X74745350Y-107494073D01*
X74745350Y-107494073D02*
X74745350Y-107394073D01*
X74745350Y-107394073D02*
X74778683Y-107327406D01*
X74778683Y-107327406D02*
X74812017Y-107294073D01*
X74812017Y-107294073D02*
X74878683Y-107260740D01*
X74878683Y-107260740D02*
X75145350Y-107260740D01*
X74445350Y-106927406D02*
X74445350Y-107627406D01*
X73978684Y-107627406D02*
X73845350Y-107627406D01*
X73845350Y-107627406D02*
X73778684Y-107594073D01*
X73778684Y-107594073D02*
X73712017Y-107527406D01*
X73712017Y-107527406D02*
X73678684Y-107394073D01*
X73678684Y-107394073D02*
X73678684Y-107160740D01*
X73678684Y-107160740D02*
X73712017Y-107027406D01*
X73712017Y-107027406D02*
X73778684Y-106960740D01*
X73778684Y-106960740D02*
X73845350Y-106927406D01*
X73845350Y-106927406D02*
X73978684Y-106927406D01*
X73978684Y-106927406D02*
X74045350Y-106960740D01*
X74045350Y-106960740D02*
X74112017Y-107027406D01*
X74112017Y-107027406D02*
X74145350Y-107160740D01*
X74145350Y-107160740D02*
X74145350Y-107394073D01*
X74145350Y-107394073D02*
X74112017Y-107527406D01*
X74112017Y-107527406D02*
X74045350Y-107594073D01*
X74045350Y-107594073D02*
X73978684Y-107627406D01*
X73445351Y-107627406D02*
X73012017Y-107627406D01*
X73012017Y-107627406D02*
X73245351Y-107360740D01*
X73245351Y-107360740D02*
X73145351Y-107360740D01*
X73145351Y-107360740D02*
X73078684Y-107327406D01*
X73078684Y-107327406D02*
X73045351Y-107294073D01*
X73045351Y-107294073D02*
X73012017Y-107227406D01*
X73012017Y-107227406D02*
X73012017Y-107060740D01*
X73012017Y-107060740D02*
X73045351Y-106994073D01*
X73045351Y-106994073D02*
X73078684Y-106960740D01*
X73078684Y-106960740D02*
X73145351Y-106927406D01*
X73145351Y-106927406D02*
X73345351Y-106927406D01*
X73345351Y-106927406D02*
X73412017Y-106960740D01*
X73412017Y-106960740D02*
X73445351Y-106994073D01*
X72212017Y-107660740D02*
X72812017Y-106760740D01*
X71978684Y-107627406D02*
X71978684Y-107060740D01*
X71978684Y-107060740D02*
X71945351Y-106994073D01*
X71945351Y-106994073D02*
X71912017Y-106960740D01*
X71912017Y-106960740D02*
X71845351Y-106927406D01*
X71845351Y-106927406D02*
X71712017Y-106927406D01*
X71712017Y-106927406D02*
X71645351Y-106960740D01*
X71645351Y-106960740D02*
X71612017Y-106994073D01*
X71612017Y-106994073D02*
X71578684Y-107060740D01*
X71578684Y-107060740D02*
X71578684Y-107627406D01*
X71112018Y-107627406D02*
X71045351Y-107627406D01*
X71045351Y-107627406D02*
X70978684Y-107594073D01*
X70978684Y-107594073D02*
X70945351Y-107560740D01*
X70945351Y-107560740D02*
X70912018Y-107494073D01*
X70912018Y-107494073D02*
X70878684Y-107360740D01*
X70878684Y-107360740D02*
X70878684Y-107194073D01*
X70878684Y-107194073D02*
X70912018Y-107060740D01*
X70912018Y-107060740D02*
X70945351Y-106994073D01*
X70945351Y-106994073D02*
X70978684Y-106960740D01*
X70978684Y-106960740D02*
X71045351Y-106927406D01*
X71045351Y-106927406D02*
X71112018Y-106927406D01*
X71112018Y-106927406D02*
X71178684Y-106960740D01*
X71178684Y-106960740D02*
X71212018Y-106994073D01*
X71212018Y-106994073D02*
X71245351Y-107060740D01*
X71245351Y-107060740D02*
X71278684Y-107194073D01*
X71278684Y-107194073D02*
X71278684Y-107360740D01*
X71278684Y-107360740D02*
X71245351Y-107494073D01*
X71245351Y-107494073D02*
X71212018Y-107560740D01*
X71212018Y-107560740D02*
X71178684Y-107594073D01*
X71178684Y-107594073D02*
X71112018Y-107627406D01*
X70178684Y-106927406D02*
X70412017Y-107260740D01*
X70578684Y-106927406D02*
X70578684Y-107627406D01*
X70578684Y-107627406D02*
X70312017Y-107627406D01*
X70312017Y-107627406D02*
X70245351Y-107594073D01*
X70245351Y-107594073D02*
X70212017Y-107560740D01*
X70212017Y-107560740D02*
X70178684Y-107494073D01*
X70178684Y-107494073D02*
X70178684Y-107394073D01*
X70178684Y-107394073D02*
X70212017Y-107327406D01*
X70212017Y-107327406D02*
X70245351Y-107294073D01*
X70245351Y-107294073D02*
X70312017Y-107260740D01*
X70312017Y-107260740D02*
X70578684Y-107260740D01*
X69945351Y-107627406D02*
X69478684Y-106927406D01*
X69478684Y-107627406D02*
X69945351Y-106927406D01*
X69212017Y-106927406D02*
X69212017Y-107627406D01*
X69212017Y-107627406D02*
X69045350Y-107627406D01*
X69045350Y-107627406D02*
X68945350Y-107594073D01*
X68945350Y-107594073D02*
X68878684Y-107527406D01*
X68878684Y-107527406D02*
X68845350Y-107460740D01*
X68845350Y-107460740D02*
X68812017Y-107327406D01*
X68812017Y-107327406D02*
X68812017Y-107227406D01*
X68812017Y-107227406D02*
X68845350Y-107094073D01*
X68845350Y-107094073D02*
X68878684Y-107027406D01*
X68878684Y-107027406D02*
X68945350Y-106960740D01*
X68945350Y-106960740D02*
X69045350Y-106927406D01*
X69045350Y-106927406D02*
X69212017Y-106927406D01*
X90807982Y-105054073D02*
X90874649Y-105087406D01*
X90874649Y-105087406D02*
X90974649Y-105087406D01*
X90974649Y-105087406D02*
X91074649Y-105054073D01*
X91074649Y-105054073D02*
X91141316Y-104987406D01*
X91141316Y-104987406D02*
X91174649Y-104920740D01*
X91174649Y-104920740D02*
X91207982Y-104787406D01*
X91207982Y-104787406D02*
X91207982Y-104687406D01*
X91207982Y-104687406D02*
X91174649Y-104554073D01*
X91174649Y-104554073D02*
X91141316Y-104487406D01*
X91141316Y-104487406D02*
X91074649Y-104420740D01*
X91074649Y-104420740D02*
X90974649Y-104387406D01*
X90974649Y-104387406D02*
X90907982Y-104387406D01*
X90907982Y-104387406D02*
X90807982Y-104420740D01*
X90807982Y-104420740D02*
X90774649Y-104454073D01*
X90774649Y-104454073D02*
X90774649Y-104687406D01*
X90774649Y-104687406D02*
X90907982Y-104687406D01*
X90474649Y-104387406D02*
X90474649Y-105087406D01*
X90474649Y-105087406D02*
X90207982Y-105087406D01*
X90207982Y-105087406D02*
X90141316Y-105054073D01*
X90141316Y-105054073D02*
X90107982Y-105020740D01*
X90107982Y-105020740D02*
X90074649Y-104954073D01*
X90074649Y-104954073D02*
X90074649Y-104854073D01*
X90074649Y-104854073D02*
X90107982Y-104787406D01*
X90107982Y-104787406D02*
X90141316Y-104754073D01*
X90141316Y-104754073D02*
X90207982Y-104720740D01*
X90207982Y-104720740D02*
X90474649Y-104720740D01*
X89774649Y-104387406D02*
X89774649Y-105087406D01*
X89307983Y-105087406D02*
X89174649Y-105087406D01*
X89174649Y-105087406D02*
X89107983Y-105054073D01*
X89107983Y-105054073D02*
X89041316Y-104987406D01*
X89041316Y-104987406D02*
X89007983Y-104854073D01*
X89007983Y-104854073D02*
X89007983Y-104620740D01*
X89007983Y-104620740D02*
X89041316Y-104487406D01*
X89041316Y-104487406D02*
X89107983Y-104420740D01*
X89107983Y-104420740D02*
X89174649Y-104387406D01*
X89174649Y-104387406D02*
X89307983Y-104387406D01*
X89307983Y-104387406D02*
X89374649Y-104420740D01*
X89374649Y-104420740D02*
X89441316Y-104487406D01*
X89441316Y-104487406D02*
X89474649Y-104620740D01*
X89474649Y-104620740D02*
X89474649Y-104854073D01*
X89474649Y-104854073D02*
X89441316Y-104987406D01*
X89441316Y-104987406D02*
X89374649Y-105054073D01*
X89374649Y-105054073D02*
X89307983Y-105087406D01*
X88774650Y-105087406D02*
X88341316Y-105087406D01*
X88341316Y-105087406D02*
X88574650Y-104820740D01*
X88574650Y-104820740D02*
X88474650Y-104820740D01*
X88474650Y-104820740D02*
X88407983Y-104787406D01*
X88407983Y-104787406D02*
X88374650Y-104754073D01*
X88374650Y-104754073D02*
X88341316Y-104687406D01*
X88341316Y-104687406D02*
X88341316Y-104520740D01*
X88341316Y-104520740D02*
X88374650Y-104454073D01*
X88374650Y-104454073D02*
X88407983Y-104420740D01*
X88407983Y-104420740D02*
X88474650Y-104387406D01*
X88474650Y-104387406D02*
X88674650Y-104387406D01*
X88674650Y-104387406D02*
X88741316Y-104420740D01*
X88741316Y-104420740D02*
X88774650Y-104454073D01*
X87707983Y-105087406D02*
X88041316Y-105087406D01*
X88041316Y-105087406D02*
X88074649Y-104754073D01*
X88074649Y-104754073D02*
X88041316Y-104787406D01*
X88041316Y-104787406D02*
X87974649Y-104820740D01*
X87974649Y-104820740D02*
X87807983Y-104820740D01*
X87807983Y-104820740D02*
X87741316Y-104787406D01*
X87741316Y-104787406D02*
X87707983Y-104754073D01*
X87707983Y-104754073D02*
X87674649Y-104687406D01*
X87674649Y-104687406D02*
X87674649Y-104520740D01*
X87674649Y-104520740D02*
X87707983Y-104454073D01*
X87707983Y-104454073D02*
X87741316Y-104420740D01*
X87741316Y-104420740D02*
X87807983Y-104387406D01*
X87807983Y-104387406D02*
X87974649Y-104387406D01*
X87974649Y-104387406D02*
X88041316Y-104420740D01*
X88041316Y-104420740D02*
X88074649Y-104454073D01*
X71945350Y-97434073D02*
X72012017Y-97467406D01*
X72012017Y-97467406D02*
X72112017Y-97467406D01*
X72112017Y-97467406D02*
X72212017Y-97434073D01*
X72212017Y-97434073D02*
X72278684Y-97367406D01*
X72278684Y-97367406D02*
X72312017Y-97300740D01*
X72312017Y-97300740D02*
X72345350Y-97167406D01*
X72345350Y-97167406D02*
X72345350Y-97067406D01*
X72345350Y-97067406D02*
X72312017Y-96934073D01*
X72312017Y-96934073D02*
X72278684Y-96867406D01*
X72278684Y-96867406D02*
X72212017Y-96800740D01*
X72212017Y-96800740D02*
X72112017Y-96767406D01*
X72112017Y-96767406D02*
X72045350Y-96767406D01*
X72045350Y-96767406D02*
X71945350Y-96800740D01*
X71945350Y-96800740D02*
X71912017Y-96834073D01*
X71912017Y-96834073D02*
X71912017Y-97067406D01*
X71912017Y-97067406D02*
X72045350Y-97067406D01*
X71612017Y-96767406D02*
X71612017Y-97467406D01*
X71612017Y-97467406D02*
X71345350Y-97467406D01*
X71345350Y-97467406D02*
X71278684Y-97434073D01*
X71278684Y-97434073D02*
X71245350Y-97400740D01*
X71245350Y-97400740D02*
X71212017Y-97334073D01*
X71212017Y-97334073D02*
X71212017Y-97234073D01*
X71212017Y-97234073D02*
X71245350Y-97167406D01*
X71245350Y-97167406D02*
X71278684Y-97134073D01*
X71278684Y-97134073D02*
X71345350Y-97100740D01*
X71345350Y-97100740D02*
X71612017Y-97100740D01*
X70912017Y-96767406D02*
X70912017Y-97467406D01*
X70445351Y-97467406D02*
X70312017Y-97467406D01*
X70312017Y-97467406D02*
X70245351Y-97434073D01*
X70245351Y-97434073D02*
X70178684Y-97367406D01*
X70178684Y-97367406D02*
X70145351Y-97234073D01*
X70145351Y-97234073D02*
X70145351Y-97000740D01*
X70145351Y-97000740D02*
X70178684Y-96867406D01*
X70178684Y-96867406D02*
X70245351Y-96800740D01*
X70245351Y-96800740D02*
X70312017Y-96767406D01*
X70312017Y-96767406D02*
X70445351Y-96767406D01*
X70445351Y-96767406D02*
X70512017Y-96800740D01*
X70512017Y-96800740D02*
X70578684Y-96867406D01*
X70578684Y-96867406D02*
X70612017Y-97000740D01*
X70612017Y-97000740D02*
X70612017Y-97234073D01*
X70612017Y-97234073D02*
X70578684Y-97367406D01*
X70578684Y-97367406D02*
X70512017Y-97434073D01*
X70512017Y-97434073D02*
X70445351Y-97467406D01*
X69478684Y-96767406D02*
X69878684Y-96767406D01*
X69678684Y-96767406D02*
X69678684Y-97467406D01*
X69678684Y-97467406D02*
X69745351Y-97367406D01*
X69745351Y-97367406D02*
X69812018Y-97300740D01*
X69812018Y-97300740D02*
X69878684Y-97267406D01*
X69078684Y-97167406D02*
X69145351Y-97200740D01*
X69145351Y-97200740D02*
X69178684Y-97234073D01*
X69178684Y-97234073D02*
X69212017Y-97300740D01*
X69212017Y-97300740D02*
X69212017Y-97334073D01*
X69212017Y-97334073D02*
X69178684Y-97400740D01*
X69178684Y-97400740D02*
X69145351Y-97434073D01*
X69145351Y-97434073D02*
X69078684Y-97467406D01*
X69078684Y-97467406D02*
X68945351Y-97467406D01*
X68945351Y-97467406D02*
X68878684Y-97434073D01*
X68878684Y-97434073D02*
X68845351Y-97400740D01*
X68845351Y-97400740D02*
X68812017Y-97334073D01*
X68812017Y-97334073D02*
X68812017Y-97300740D01*
X68812017Y-97300740D02*
X68845351Y-97234073D01*
X68845351Y-97234073D02*
X68878684Y-97200740D01*
X68878684Y-97200740D02*
X68945351Y-97167406D01*
X68945351Y-97167406D02*
X69078684Y-97167406D01*
X69078684Y-97167406D02*
X69145351Y-97134073D01*
X69145351Y-97134073D02*
X69178684Y-97100740D01*
X69178684Y-97100740D02*
X69212017Y-97034073D01*
X69212017Y-97034073D02*
X69212017Y-96900740D01*
X69212017Y-96900740D02*
X69178684Y-96834073D01*
X69178684Y-96834073D02*
X69145351Y-96800740D01*
X69145351Y-96800740D02*
X69078684Y-96767406D01*
X69078684Y-96767406D02*
X68945351Y-96767406D01*
X68945351Y-96767406D02*
X68878684Y-96800740D01*
X68878684Y-96800740D02*
X68845351Y-96834073D01*
X68845351Y-96834073D02*
X68812017Y-96900740D01*
X68812017Y-96900740D02*
X68812017Y-97034073D01*
X68812017Y-97034073D02*
X68845351Y-97100740D01*
X68845351Y-97100740D02*
X68878684Y-97134073D01*
X68878684Y-97134073D02*
X68945351Y-97167406D01*
X71278683Y-87274073D02*
X71345350Y-87307406D01*
X71345350Y-87307406D02*
X71445350Y-87307406D01*
X71445350Y-87307406D02*
X71545350Y-87274073D01*
X71545350Y-87274073D02*
X71612017Y-87207406D01*
X71612017Y-87207406D02*
X71645350Y-87140740D01*
X71645350Y-87140740D02*
X71678683Y-87007406D01*
X71678683Y-87007406D02*
X71678683Y-86907406D01*
X71678683Y-86907406D02*
X71645350Y-86774073D01*
X71645350Y-86774073D02*
X71612017Y-86707406D01*
X71612017Y-86707406D02*
X71545350Y-86640740D01*
X71545350Y-86640740D02*
X71445350Y-86607406D01*
X71445350Y-86607406D02*
X71378683Y-86607406D01*
X71378683Y-86607406D02*
X71278683Y-86640740D01*
X71278683Y-86640740D02*
X71245350Y-86674073D01*
X71245350Y-86674073D02*
X71245350Y-86907406D01*
X71245350Y-86907406D02*
X71378683Y-86907406D01*
X70945350Y-86607406D02*
X70945350Y-87307406D01*
X70945350Y-87307406D02*
X70678683Y-87307406D01*
X70678683Y-87307406D02*
X70612017Y-87274073D01*
X70612017Y-87274073D02*
X70578683Y-87240740D01*
X70578683Y-87240740D02*
X70545350Y-87174073D01*
X70545350Y-87174073D02*
X70545350Y-87074073D01*
X70545350Y-87074073D02*
X70578683Y-87007406D01*
X70578683Y-87007406D02*
X70612017Y-86974073D01*
X70612017Y-86974073D02*
X70678683Y-86940740D01*
X70678683Y-86940740D02*
X70945350Y-86940740D01*
X70245350Y-86607406D02*
X70245350Y-87307406D01*
X69778684Y-87307406D02*
X69645350Y-87307406D01*
X69645350Y-87307406D02*
X69578684Y-87274073D01*
X69578684Y-87274073D02*
X69512017Y-87207406D01*
X69512017Y-87207406D02*
X69478684Y-87074073D01*
X69478684Y-87074073D02*
X69478684Y-86840740D01*
X69478684Y-86840740D02*
X69512017Y-86707406D01*
X69512017Y-86707406D02*
X69578684Y-86640740D01*
X69578684Y-86640740D02*
X69645350Y-86607406D01*
X69645350Y-86607406D02*
X69778684Y-86607406D01*
X69778684Y-86607406D02*
X69845350Y-86640740D01*
X69845350Y-86640740D02*
X69912017Y-86707406D01*
X69912017Y-86707406D02*
X69945350Y-86840740D01*
X69945350Y-86840740D02*
X69945350Y-87074073D01*
X69945350Y-87074073D02*
X69912017Y-87207406D01*
X69912017Y-87207406D02*
X69845350Y-87274073D01*
X69845350Y-87274073D02*
X69778684Y-87307406D01*
X68878684Y-87074073D02*
X68878684Y-86607406D01*
X69045351Y-87340740D02*
X69212017Y-86840740D01*
X69212017Y-86840740D02*
X68778684Y-86840740D01*
X71945350Y-99974073D02*
X72012017Y-100007406D01*
X72012017Y-100007406D02*
X72112017Y-100007406D01*
X72112017Y-100007406D02*
X72212017Y-99974073D01*
X72212017Y-99974073D02*
X72278684Y-99907406D01*
X72278684Y-99907406D02*
X72312017Y-99840740D01*
X72312017Y-99840740D02*
X72345350Y-99707406D01*
X72345350Y-99707406D02*
X72345350Y-99607406D01*
X72345350Y-99607406D02*
X72312017Y-99474073D01*
X72312017Y-99474073D02*
X72278684Y-99407406D01*
X72278684Y-99407406D02*
X72212017Y-99340740D01*
X72212017Y-99340740D02*
X72112017Y-99307406D01*
X72112017Y-99307406D02*
X72045350Y-99307406D01*
X72045350Y-99307406D02*
X71945350Y-99340740D01*
X71945350Y-99340740D02*
X71912017Y-99374073D01*
X71912017Y-99374073D02*
X71912017Y-99607406D01*
X71912017Y-99607406D02*
X72045350Y-99607406D01*
X71612017Y-99307406D02*
X71612017Y-100007406D01*
X71612017Y-100007406D02*
X71345350Y-100007406D01*
X71345350Y-100007406D02*
X71278684Y-99974073D01*
X71278684Y-99974073D02*
X71245350Y-99940740D01*
X71245350Y-99940740D02*
X71212017Y-99874073D01*
X71212017Y-99874073D02*
X71212017Y-99774073D01*
X71212017Y-99774073D02*
X71245350Y-99707406D01*
X71245350Y-99707406D02*
X71278684Y-99674073D01*
X71278684Y-99674073D02*
X71345350Y-99640740D01*
X71345350Y-99640740D02*
X71612017Y-99640740D01*
X70912017Y-99307406D02*
X70912017Y-100007406D01*
X70445351Y-100007406D02*
X70312017Y-100007406D01*
X70312017Y-100007406D02*
X70245351Y-99974073D01*
X70245351Y-99974073D02*
X70178684Y-99907406D01*
X70178684Y-99907406D02*
X70145351Y-99774073D01*
X70145351Y-99774073D02*
X70145351Y-99540740D01*
X70145351Y-99540740D02*
X70178684Y-99407406D01*
X70178684Y-99407406D02*
X70245351Y-99340740D01*
X70245351Y-99340740D02*
X70312017Y-99307406D01*
X70312017Y-99307406D02*
X70445351Y-99307406D01*
X70445351Y-99307406D02*
X70512017Y-99340740D01*
X70512017Y-99340740D02*
X70578684Y-99407406D01*
X70578684Y-99407406D02*
X70612017Y-99540740D01*
X70612017Y-99540740D02*
X70612017Y-99774073D01*
X70612017Y-99774073D02*
X70578684Y-99907406D01*
X70578684Y-99907406D02*
X70512017Y-99974073D01*
X70512017Y-99974073D02*
X70445351Y-100007406D01*
X69478684Y-99307406D02*
X69878684Y-99307406D01*
X69678684Y-99307406D02*
X69678684Y-100007406D01*
X69678684Y-100007406D02*
X69745351Y-99907406D01*
X69745351Y-99907406D02*
X69812018Y-99840740D01*
X69812018Y-99840740D02*
X69878684Y-99807406D01*
X69145351Y-99307406D02*
X69012017Y-99307406D01*
X69012017Y-99307406D02*
X68945351Y-99340740D01*
X68945351Y-99340740D02*
X68912017Y-99374073D01*
X68912017Y-99374073D02*
X68845351Y-99474073D01*
X68845351Y-99474073D02*
X68812017Y-99607406D01*
X68812017Y-99607406D02*
X68812017Y-99874073D01*
X68812017Y-99874073D02*
X68845351Y-99940740D01*
X68845351Y-99940740D02*
X68878684Y-99974073D01*
X68878684Y-99974073D02*
X68945351Y-100007406D01*
X68945351Y-100007406D02*
X69078684Y-100007406D01*
X69078684Y-100007406D02*
X69145351Y-99974073D01*
X69145351Y-99974073D02*
X69178684Y-99940740D01*
X69178684Y-99940740D02*
X69212017Y-99874073D01*
X69212017Y-99874073D02*
X69212017Y-99707406D01*
X69212017Y-99707406D02*
X69178684Y-99640740D01*
X69178684Y-99640740D02*
X69145351Y-99607406D01*
X69145351Y-99607406D02*
X69078684Y-99574073D01*
X69078684Y-99574073D02*
X68945351Y-99574073D01*
X68945351Y-99574073D02*
X68878684Y-99607406D01*
X68878684Y-99607406D02*
X68845351Y-99640740D01*
X68845351Y-99640740D02*
X68812017Y-99707406D01*
X71945350Y-89814073D02*
X72012017Y-89847406D01*
X72012017Y-89847406D02*
X72112017Y-89847406D01*
X72112017Y-89847406D02*
X72212017Y-89814073D01*
X72212017Y-89814073D02*
X72278684Y-89747406D01*
X72278684Y-89747406D02*
X72312017Y-89680740D01*
X72312017Y-89680740D02*
X72345350Y-89547406D01*
X72345350Y-89547406D02*
X72345350Y-89447406D01*
X72345350Y-89447406D02*
X72312017Y-89314073D01*
X72312017Y-89314073D02*
X72278684Y-89247406D01*
X72278684Y-89247406D02*
X72212017Y-89180740D01*
X72212017Y-89180740D02*
X72112017Y-89147406D01*
X72112017Y-89147406D02*
X72045350Y-89147406D01*
X72045350Y-89147406D02*
X71945350Y-89180740D01*
X71945350Y-89180740D02*
X71912017Y-89214073D01*
X71912017Y-89214073D02*
X71912017Y-89447406D01*
X71912017Y-89447406D02*
X72045350Y-89447406D01*
X71612017Y-89147406D02*
X71612017Y-89847406D01*
X71612017Y-89847406D02*
X71345350Y-89847406D01*
X71345350Y-89847406D02*
X71278684Y-89814073D01*
X71278684Y-89814073D02*
X71245350Y-89780740D01*
X71245350Y-89780740D02*
X71212017Y-89714073D01*
X71212017Y-89714073D02*
X71212017Y-89614073D01*
X71212017Y-89614073D02*
X71245350Y-89547406D01*
X71245350Y-89547406D02*
X71278684Y-89514073D01*
X71278684Y-89514073D02*
X71345350Y-89480740D01*
X71345350Y-89480740D02*
X71612017Y-89480740D01*
X70912017Y-89147406D02*
X70912017Y-89847406D01*
X70445351Y-89847406D02*
X70312017Y-89847406D01*
X70312017Y-89847406D02*
X70245351Y-89814073D01*
X70245351Y-89814073D02*
X70178684Y-89747406D01*
X70178684Y-89747406D02*
X70145351Y-89614073D01*
X70145351Y-89614073D02*
X70145351Y-89380740D01*
X70145351Y-89380740D02*
X70178684Y-89247406D01*
X70178684Y-89247406D02*
X70245351Y-89180740D01*
X70245351Y-89180740D02*
X70312017Y-89147406D01*
X70312017Y-89147406D02*
X70445351Y-89147406D01*
X70445351Y-89147406D02*
X70512017Y-89180740D01*
X70512017Y-89180740D02*
X70578684Y-89247406D01*
X70578684Y-89247406D02*
X70612017Y-89380740D01*
X70612017Y-89380740D02*
X70612017Y-89614073D01*
X70612017Y-89614073D02*
X70578684Y-89747406D01*
X70578684Y-89747406D02*
X70512017Y-89814073D01*
X70512017Y-89814073D02*
X70445351Y-89847406D01*
X69478684Y-89147406D02*
X69878684Y-89147406D01*
X69678684Y-89147406D02*
X69678684Y-89847406D01*
X69678684Y-89847406D02*
X69745351Y-89747406D01*
X69745351Y-89747406D02*
X69812018Y-89680740D01*
X69812018Y-89680740D02*
X69878684Y-89647406D01*
X68878684Y-89847406D02*
X69012017Y-89847406D01*
X69012017Y-89847406D02*
X69078684Y-89814073D01*
X69078684Y-89814073D02*
X69112017Y-89780740D01*
X69112017Y-89780740D02*
X69178684Y-89680740D01*
X69178684Y-89680740D02*
X69212017Y-89547406D01*
X69212017Y-89547406D02*
X69212017Y-89280740D01*
X69212017Y-89280740D02*
X69178684Y-89214073D01*
X69178684Y-89214073D02*
X69145351Y-89180740D01*
X69145351Y-89180740D02*
X69078684Y-89147406D01*
X69078684Y-89147406D02*
X68945351Y-89147406D01*
X68945351Y-89147406D02*
X68878684Y-89180740D01*
X68878684Y-89180740D02*
X68845351Y-89214073D01*
X68845351Y-89214073D02*
X68812017Y-89280740D01*
X68812017Y-89280740D02*
X68812017Y-89447406D01*
X68812017Y-89447406D02*
X68845351Y-89514073D01*
X68845351Y-89514073D02*
X68878684Y-89547406D01*
X68878684Y-89547406D02*
X68945351Y-89580740D01*
X68945351Y-89580740D02*
X69078684Y-89580740D01*
X69078684Y-89580740D02*
X69145351Y-89547406D01*
X69145351Y-89547406D02*
X69178684Y-89514073D01*
X69178684Y-89514073D02*
X69212017Y-89447406D01*
X91174649Y-76447406D02*
X91174649Y-77147406D01*
X91174649Y-77147406D02*
X91007982Y-77147406D01*
X91007982Y-77147406D02*
X90907982Y-77114073D01*
X90907982Y-77114073D02*
X90841316Y-77047406D01*
X90841316Y-77047406D02*
X90807982Y-76980740D01*
X90807982Y-76980740D02*
X90774649Y-76847406D01*
X90774649Y-76847406D02*
X90774649Y-76747406D01*
X90774649Y-76747406D02*
X90807982Y-76614073D01*
X90807982Y-76614073D02*
X90841316Y-76547406D01*
X90841316Y-76547406D02*
X90907982Y-76480740D01*
X90907982Y-76480740D02*
X91007982Y-76447406D01*
X91007982Y-76447406D02*
X91174649Y-76447406D01*
X90541316Y-77147406D02*
X90107982Y-77147406D01*
X90107982Y-77147406D02*
X90341316Y-76880740D01*
X90341316Y-76880740D02*
X90241316Y-76880740D01*
X90241316Y-76880740D02*
X90174649Y-76847406D01*
X90174649Y-76847406D02*
X90141316Y-76814073D01*
X90141316Y-76814073D02*
X90107982Y-76747406D01*
X90107982Y-76747406D02*
X90107982Y-76580740D01*
X90107982Y-76580740D02*
X90141316Y-76514073D01*
X90141316Y-76514073D02*
X90174649Y-76480740D01*
X90174649Y-76480740D02*
X90241316Y-76447406D01*
X90241316Y-76447406D02*
X90441316Y-76447406D01*
X90441316Y-76447406D02*
X90507982Y-76480740D01*
X90507982Y-76480740D02*
X90541316Y-76514073D01*
X90807982Y-97434073D02*
X90874649Y-97467406D01*
X90874649Y-97467406D02*
X90974649Y-97467406D01*
X90974649Y-97467406D02*
X91074649Y-97434073D01*
X91074649Y-97434073D02*
X91141316Y-97367406D01*
X91141316Y-97367406D02*
X91174649Y-97300740D01*
X91174649Y-97300740D02*
X91207982Y-97167406D01*
X91207982Y-97167406D02*
X91207982Y-97067406D01*
X91207982Y-97067406D02*
X91174649Y-96934073D01*
X91174649Y-96934073D02*
X91141316Y-96867406D01*
X91141316Y-96867406D02*
X91074649Y-96800740D01*
X91074649Y-96800740D02*
X90974649Y-96767406D01*
X90974649Y-96767406D02*
X90907982Y-96767406D01*
X90907982Y-96767406D02*
X90807982Y-96800740D01*
X90807982Y-96800740D02*
X90774649Y-96834073D01*
X90774649Y-96834073D02*
X90774649Y-97067406D01*
X90774649Y-97067406D02*
X90907982Y-97067406D01*
X90474649Y-96767406D02*
X90474649Y-97467406D01*
X90474649Y-97467406D02*
X90207982Y-97467406D01*
X90207982Y-97467406D02*
X90141316Y-97434073D01*
X90141316Y-97434073D02*
X90107982Y-97400740D01*
X90107982Y-97400740D02*
X90074649Y-97334073D01*
X90074649Y-97334073D02*
X90074649Y-97234073D01*
X90074649Y-97234073D02*
X90107982Y-97167406D01*
X90107982Y-97167406D02*
X90141316Y-97134073D01*
X90141316Y-97134073D02*
X90207982Y-97100740D01*
X90207982Y-97100740D02*
X90474649Y-97100740D01*
X89774649Y-96767406D02*
X89774649Y-97467406D01*
X89307983Y-97467406D02*
X89174649Y-97467406D01*
X89174649Y-97467406D02*
X89107983Y-97434073D01*
X89107983Y-97434073D02*
X89041316Y-97367406D01*
X89041316Y-97367406D02*
X89007983Y-97234073D01*
X89007983Y-97234073D02*
X89007983Y-97000740D01*
X89007983Y-97000740D02*
X89041316Y-96867406D01*
X89041316Y-96867406D02*
X89107983Y-96800740D01*
X89107983Y-96800740D02*
X89174649Y-96767406D01*
X89174649Y-96767406D02*
X89307983Y-96767406D01*
X89307983Y-96767406D02*
X89374649Y-96800740D01*
X89374649Y-96800740D02*
X89441316Y-96867406D01*
X89441316Y-96867406D02*
X89474649Y-97000740D01*
X89474649Y-97000740D02*
X89474649Y-97234073D01*
X89474649Y-97234073D02*
X89441316Y-97367406D01*
X89441316Y-97367406D02*
X89374649Y-97434073D01*
X89374649Y-97434073D02*
X89307983Y-97467406D01*
X88741316Y-97400740D02*
X88707983Y-97434073D01*
X88707983Y-97434073D02*
X88641316Y-97467406D01*
X88641316Y-97467406D02*
X88474650Y-97467406D01*
X88474650Y-97467406D02*
X88407983Y-97434073D01*
X88407983Y-97434073D02*
X88374650Y-97400740D01*
X88374650Y-97400740D02*
X88341316Y-97334073D01*
X88341316Y-97334073D02*
X88341316Y-97267406D01*
X88341316Y-97267406D02*
X88374650Y-97167406D01*
X88374650Y-97167406D02*
X88774650Y-96767406D01*
X88774650Y-96767406D02*
X88341316Y-96767406D01*
X87707983Y-97467406D02*
X88041316Y-97467406D01*
X88041316Y-97467406D02*
X88074649Y-97134073D01*
X88074649Y-97134073D02*
X88041316Y-97167406D01*
X88041316Y-97167406D02*
X87974649Y-97200740D01*
X87974649Y-97200740D02*
X87807983Y-97200740D01*
X87807983Y-97200740D02*
X87741316Y-97167406D01*
X87741316Y-97167406D02*
X87707983Y-97134073D01*
X87707983Y-97134073D02*
X87674649Y-97067406D01*
X87674649Y-97067406D02*
X87674649Y-96900740D01*
X87674649Y-96900740D02*
X87707983Y-96834073D01*
X87707983Y-96834073D02*
X87741316Y-96800740D01*
X87741316Y-96800740D02*
X87807983Y-96767406D01*
X87807983Y-96767406D02*
X87974649Y-96767406D01*
X87974649Y-96767406D02*
X88041316Y-96800740D01*
X88041316Y-96800740D02*
X88074649Y-96834073D01*
X90807982Y-94894073D02*
X90874649Y-94927406D01*
X90874649Y-94927406D02*
X90974649Y-94927406D01*
X90974649Y-94927406D02*
X91074649Y-94894073D01*
X91074649Y-94894073D02*
X91141316Y-94827406D01*
X91141316Y-94827406D02*
X91174649Y-94760740D01*
X91174649Y-94760740D02*
X91207982Y-94627406D01*
X91207982Y-94627406D02*
X91207982Y-94527406D01*
X91207982Y-94527406D02*
X91174649Y-94394073D01*
X91174649Y-94394073D02*
X91141316Y-94327406D01*
X91141316Y-94327406D02*
X91074649Y-94260740D01*
X91074649Y-94260740D02*
X90974649Y-94227406D01*
X90974649Y-94227406D02*
X90907982Y-94227406D01*
X90907982Y-94227406D02*
X90807982Y-94260740D01*
X90807982Y-94260740D02*
X90774649Y-94294073D01*
X90774649Y-94294073D02*
X90774649Y-94527406D01*
X90774649Y-94527406D02*
X90907982Y-94527406D01*
X90474649Y-94227406D02*
X90474649Y-94927406D01*
X90474649Y-94927406D02*
X90207982Y-94927406D01*
X90207982Y-94927406D02*
X90141316Y-94894073D01*
X90141316Y-94894073D02*
X90107982Y-94860740D01*
X90107982Y-94860740D02*
X90074649Y-94794073D01*
X90074649Y-94794073D02*
X90074649Y-94694073D01*
X90074649Y-94694073D02*
X90107982Y-94627406D01*
X90107982Y-94627406D02*
X90141316Y-94594073D01*
X90141316Y-94594073D02*
X90207982Y-94560740D01*
X90207982Y-94560740D02*
X90474649Y-94560740D01*
X89774649Y-94227406D02*
X89774649Y-94927406D01*
X89307983Y-94927406D02*
X89174649Y-94927406D01*
X89174649Y-94927406D02*
X89107983Y-94894073D01*
X89107983Y-94894073D02*
X89041316Y-94827406D01*
X89041316Y-94827406D02*
X89007983Y-94694073D01*
X89007983Y-94694073D02*
X89007983Y-94460740D01*
X89007983Y-94460740D02*
X89041316Y-94327406D01*
X89041316Y-94327406D02*
X89107983Y-94260740D01*
X89107983Y-94260740D02*
X89174649Y-94227406D01*
X89174649Y-94227406D02*
X89307983Y-94227406D01*
X89307983Y-94227406D02*
X89374649Y-94260740D01*
X89374649Y-94260740D02*
X89441316Y-94327406D01*
X89441316Y-94327406D02*
X89474649Y-94460740D01*
X89474649Y-94460740D02*
X89474649Y-94694073D01*
X89474649Y-94694073D02*
X89441316Y-94827406D01*
X89441316Y-94827406D02*
X89374649Y-94894073D01*
X89374649Y-94894073D02*
X89307983Y-94927406D01*
X88741316Y-94860740D02*
X88707983Y-94894073D01*
X88707983Y-94894073D02*
X88641316Y-94927406D01*
X88641316Y-94927406D02*
X88474650Y-94927406D01*
X88474650Y-94927406D02*
X88407983Y-94894073D01*
X88407983Y-94894073D02*
X88374650Y-94860740D01*
X88374650Y-94860740D02*
X88341316Y-94794073D01*
X88341316Y-94794073D02*
X88341316Y-94727406D01*
X88341316Y-94727406D02*
X88374650Y-94627406D01*
X88374650Y-94627406D02*
X88774650Y-94227406D01*
X88774650Y-94227406D02*
X88341316Y-94227406D01*
X87741316Y-94927406D02*
X87874649Y-94927406D01*
X87874649Y-94927406D02*
X87941316Y-94894073D01*
X87941316Y-94894073D02*
X87974649Y-94860740D01*
X87974649Y-94860740D02*
X88041316Y-94760740D01*
X88041316Y-94760740D02*
X88074649Y-94627406D01*
X88074649Y-94627406D02*
X88074649Y-94360740D01*
X88074649Y-94360740D02*
X88041316Y-94294073D01*
X88041316Y-94294073D02*
X88007983Y-94260740D01*
X88007983Y-94260740D02*
X87941316Y-94227406D01*
X87941316Y-94227406D02*
X87807983Y-94227406D01*
X87807983Y-94227406D02*
X87741316Y-94260740D01*
X87741316Y-94260740D02*
X87707983Y-94294073D01*
X87707983Y-94294073D02*
X87674649Y-94360740D01*
X87674649Y-94360740D02*
X87674649Y-94527406D01*
X87674649Y-94527406D02*
X87707983Y-94594073D01*
X87707983Y-94594073D02*
X87741316Y-94627406D01*
X87741316Y-94627406D02*
X87807983Y-94660740D01*
X87807983Y-94660740D02*
X87941316Y-94660740D01*
X87941316Y-94660740D02*
X88007983Y-94627406D01*
X88007983Y-94627406D02*
X88041316Y-94594073D01*
X88041316Y-94594073D02*
X88074649Y-94527406D01*
X75312016Y-110134073D02*
X75378683Y-110167406D01*
X75378683Y-110167406D02*
X75478683Y-110167406D01*
X75478683Y-110167406D02*
X75578683Y-110134073D01*
X75578683Y-110134073D02*
X75645350Y-110067406D01*
X75645350Y-110067406D02*
X75678683Y-110000740D01*
X75678683Y-110000740D02*
X75712016Y-109867406D01*
X75712016Y-109867406D02*
X75712016Y-109767406D01*
X75712016Y-109767406D02*
X75678683Y-109634073D01*
X75678683Y-109634073D02*
X75645350Y-109567406D01*
X75645350Y-109567406D02*
X75578683Y-109500740D01*
X75578683Y-109500740D02*
X75478683Y-109467406D01*
X75478683Y-109467406D02*
X75412016Y-109467406D01*
X75412016Y-109467406D02*
X75312016Y-109500740D01*
X75312016Y-109500740D02*
X75278683Y-109534073D01*
X75278683Y-109534073D02*
X75278683Y-109767406D01*
X75278683Y-109767406D02*
X75412016Y-109767406D01*
X74978683Y-109467406D02*
X74978683Y-110167406D01*
X74978683Y-110167406D02*
X74712016Y-110167406D01*
X74712016Y-110167406D02*
X74645350Y-110134073D01*
X74645350Y-110134073D02*
X74612016Y-110100740D01*
X74612016Y-110100740D02*
X74578683Y-110034073D01*
X74578683Y-110034073D02*
X74578683Y-109934073D01*
X74578683Y-109934073D02*
X74612016Y-109867406D01*
X74612016Y-109867406D02*
X74645350Y-109834073D01*
X74645350Y-109834073D02*
X74712016Y-109800740D01*
X74712016Y-109800740D02*
X74978683Y-109800740D01*
X74278683Y-109467406D02*
X74278683Y-110167406D01*
X73812017Y-110167406D02*
X73678683Y-110167406D01*
X73678683Y-110167406D02*
X73612017Y-110134073D01*
X73612017Y-110134073D02*
X73545350Y-110067406D01*
X73545350Y-110067406D02*
X73512017Y-109934073D01*
X73512017Y-109934073D02*
X73512017Y-109700740D01*
X73512017Y-109700740D02*
X73545350Y-109567406D01*
X73545350Y-109567406D02*
X73612017Y-109500740D01*
X73612017Y-109500740D02*
X73678683Y-109467406D01*
X73678683Y-109467406D02*
X73812017Y-109467406D01*
X73812017Y-109467406D02*
X73878683Y-109500740D01*
X73878683Y-109500740D02*
X73945350Y-109567406D01*
X73945350Y-109567406D02*
X73978683Y-109700740D01*
X73978683Y-109700740D02*
X73978683Y-109934073D01*
X73978683Y-109934073D02*
X73945350Y-110067406D01*
X73945350Y-110067406D02*
X73878683Y-110134073D01*
X73878683Y-110134073D02*
X73812017Y-110167406D01*
X72845350Y-109467406D02*
X73245350Y-109467406D01*
X73045350Y-109467406D02*
X73045350Y-110167406D01*
X73045350Y-110167406D02*
X73112017Y-110067406D01*
X73112017Y-110067406D02*
X73178684Y-110000740D01*
X73178684Y-110000740D02*
X73245350Y-109967406D01*
X72045350Y-110200740D02*
X72645350Y-109300740D01*
X71812017Y-110167406D02*
X71812017Y-109600740D01*
X71812017Y-109600740D02*
X71778684Y-109534073D01*
X71778684Y-109534073D02*
X71745350Y-109500740D01*
X71745350Y-109500740D02*
X71678684Y-109467406D01*
X71678684Y-109467406D02*
X71545350Y-109467406D01*
X71545350Y-109467406D02*
X71478684Y-109500740D01*
X71478684Y-109500740D02*
X71445350Y-109534073D01*
X71445350Y-109534073D02*
X71412017Y-109600740D01*
X71412017Y-109600740D02*
X71412017Y-110167406D01*
X70945351Y-110167406D02*
X70878684Y-110167406D01*
X70878684Y-110167406D02*
X70812017Y-110134073D01*
X70812017Y-110134073D02*
X70778684Y-110100740D01*
X70778684Y-110100740D02*
X70745351Y-110034073D01*
X70745351Y-110034073D02*
X70712017Y-109900740D01*
X70712017Y-109900740D02*
X70712017Y-109734073D01*
X70712017Y-109734073D02*
X70745351Y-109600740D01*
X70745351Y-109600740D02*
X70778684Y-109534073D01*
X70778684Y-109534073D02*
X70812017Y-109500740D01*
X70812017Y-109500740D02*
X70878684Y-109467406D01*
X70878684Y-109467406D02*
X70945351Y-109467406D01*
X70945351Y-109467406D02*
X71012017Y-109500740D01*
X71012017Y-109500740D02*
X71045351Y-109534073D01*
X71045351Y-109534073D02*
X71078684Y-109600740D01*
X71078684Y-109600740D02*
X71112017Y-109734073D01*
X71112017Y-109734073D02*
X71112017Y-109900740D01*
X71112017Y-109900740D02*
X71078684Y-110034073D01*
X71078684Y-110034073D02*
X71045351Y-110100740D01*
X71045351Y-110100740D02*
X71012017Y-110134073D01*
X71012017Y-110134073D02*
X70945351Y-110167406D01*
X70512017Y-110167406D02*
X70112017Y-110167406D01*
X70312017Y-109467406D02*
X70312017Y-110167406D01*
X69945351Y-110167406D02*
X69478684Y-109467406D01*
X69478684Y-110167406D02*
X69945351Y-109467406D01*
X69212017Y-109467406D02*
X69212017Y-110167406D01*
X69212017Y-110167406D02*
X69045350Y-110167406D01*
X69045350Y-110167406D02*
X68945350Y-110134073D01*
X68945350Y-110134073D02*
X68878684Y-110067406D01*
X68878684Y-110067406D02*
X68845350Y-110000740D01*
X68845350Y-110000740D02*
X68812017Y-109867406D01*
X68812017Y-109867406D02*
X68812017Y-109767406D01*
X68812017Y-109767406D02*
X68845350Y-109634073D01*
X68845350Y-109634073D02*
X68878684Y-109567406D01*
X68878684Y-109567406D02*
X68945350Y-109500740D01*
X68945350Y-109500740D02*
X69045350Y-109467406D01*
X69045350Y-109467406D02*
X69212017Y-109467406D01*
X90774649Y-73974073D02*
X90807982Y-73940740D01*
X90807982Y-73940740D02*
X90907982Y-73907406D01*
X90907982Y-73907406D02*
X90974649Y-73907406D01*
X90974649Y-73907406D02*
X91074649Y-73940740D01*
X91074649Y-73940740D02*
X91141316Y-74007406D01*
X91141316Y-74007406D02*
X91174649Y-74074073D01*
X91174649Y-74074073D02*
X91207982Y-74207406D01*
X91207982Y-74207406D02*
X91207982Y-74307406D01*
X91207982Y-74307406D02*
X91174649Y-74440740D01*
X91174649Y-74440740D02*
X91141316Y-74507406D01*
X91141316Y-74507406D02*
X91074649Y-74574073D01*
X91074649Y-74574073D02*
X90974649Y-74607406D01*
X90974649Y-74607406D02*
X90907982Y-74607406D01*
X90907982Y-74607406D02*
X90807982Y-74574073D01*
X90807982Y-74574073D02*
X90774649Y-74540740D01*
X90474649Y-73907406D02*
X90474649Y-74607406D01*
X90474649Y-74607406D02*
X90241316Y-74107406D01*
X90241316Y-74107406D02*
X90007982Y-74607406D01*
X90007982Y-74607406D02*
X90007982Y-73907406D01*
X89674649Y-73907406D02*
X89674649Y-74607406D01*
X89674649Y-74607406D02*
X89507982Y-74607406D01*
X89507982Y-74607406D02*
X89407982Y-74574073D01*
X89407982Y-74574073D02*
X89341316Y-74507406D01*
X89341316Y-74507406D02*
X89307982Y-74440740D01*
X89307982Y-74440740D02*
X89274649Y-74307406D01*
X89274649Y-74307406D02*
X89274649Y-74207406D01*
X89274649Y-74207406D02*
X89307982Y-74074073D01*
X89307982Y-74074073D02*
X89341316Y-74007406D01*
X89341316Y-74007406D02*
X89407982Y-73940740D01*
X89407982Y-73940740D02*
X89507982Y-73907406D01*
X89507982Y-73907406D02*
X89674649Y-73907406D01*
X90807982Y-92354073D02*
X90874649Y-92387406D01*
X90874649Y-92387406D02*
X90974649Y-92387406D01*
X90974649Y-92387406D02*
X91074649Y-92354073D01*
X91074649Y-92354073D02*
X91141316Y-92287406D01*
X91141316Y-92287406D02*
X91174649Y-92220740D01*
X91174649Y-92220740D02*
X91207982Y-92087406D01*
X91207982Y-92087406D02*
X91207982Y-91987406D01*
X91207982Y-91987406D02*
X91174649Y-91854073D01*
X91174649Y-91854073D02*
X91141316Y-91787406D01*
X91141316Y-91787406D02*
X91074649Y-91720740D01*
X91074649Y-91720740D02*
X90974649Y-91687406D01*
X90974649Y-91687406D02*
X90907982Y-91687406D01*
X90907982Y-91687406D02*
X90807982Y-91720740D01*
X90807982Y-91720740D02*
X90774649Y-91754073D01*
X90774649Y-91754073D02*
X90774649Y-91987406D01*
X90774649Y-91987406D02*
X90907982Y-91987406D01*
X90474649Y-91687406D02*
X90474649Y-92387406D01*
X90474649Y-92387406D02*
X90207982Y-92387406D01*
X90207982Y-92387406D02*
X90141316Y-92354073D01*
X90141316Y-92354073D02*
X90107982Y-92320740D01*
X90107982Y-92320740D02*
X90074649Y-92254073D01*
X90074649Y-92254073D02*
X90074649Y-92154073D01*
X90074649Y-92154073D02*
X90107982Y-92087406D01*
X90107982Y-92087406D02*
X90141316Y-92054073D01*
X90141316Y-92054073D02*
X90207982Y-92020740D01*
X90207982Y-92020740D02*
X90474649Y-92020740D01*
X89774649Y-91687406D02*
X89774649Y-92387406D01*
X89307983Y-92387406D02*
X89174649Y-92387406D01*
X89174649Y-92387406D02*
X89107983Y-92354073D01*
X89107983Y-92354073D02*
X89041316Y-92287406D01*
X89041316Y-92287406D02*
X89007983Y-92154073D01*
X89007983Y-92154073D02*
X89007983Y-91920740D01*
X89007983Y-91920740D02*
X89041316Y-91787406D01*
X89041316Y-91787406D02*
X89107983Y-91720740D01*
X89107983Y-91720740D02*
X89174649Y-91687406D01*
X89174649Y-91687406D02*
X89307983Y-91687406D01*
X89307983Y-91687406D02*
X89374649Y-91720740D01*
X89374649Y-91720740D02*
X89441316Y-91787406D01*
X89441316Y-91787406D02*
X89474649Y-91920740D01*
X89474649Y-91920740D02*
X89474649Y-92154073D01*
X89474649Y-92154073D02*
X89441316Y-92287406D01*
X89441316Y-92287406D02*
X89374649Y-92354073D01*
X89374649Y-92354073D02*
X89307983Y-92387406D01*
X88741316Y-92320740D02*
X88707983Y-92354073D01*
X88707983Y-92354073D02*
X88641316Y-92387406D01*
X88641316Y-92387406D02*
X88474650Y-92387406D01*
X88474650Y-92387406D02*
X88407983Y-92354073D01*
X88407983Y-92354073D02*
X88374650Y-92320740D01*
X88374650Y-92320740D02*
X88341316Y-92254073D01*
X88341316Y-92254073D02*
X88341316Y-92187406D01*
X88341316Y-92187406D02*
X88374650Y-92087406D01*
X88374650Y-92087406D02*
X88774650Y-91687406D01*
X88774650Y-91687406D02*
X88341316Y-91687406D01*
X88107983Y-92387406D02*
X87641316Y-92387406D01*
X87641316Y-92387406D02*
X87941316Y-91687406D01*
X90807982Y-89814073D02*
X90874649Y-89847406D01*
X90874649Y-89847406D02*
X90974649Y-89847406D01*
X90974649Y-89847406D02*
X91074649Y-89814073D01*
X91074649Y-89814073D02*
X91141316Y-89747406D01*
X91141316Y-89747406D02*
X91174649Y-89680740D01*
X91174649Y-89680740D02*
X91207982Y-89547406D01*
X91207982Y-89547406D02*
X91207982Y-89447406D01*
X91207982Y-89447406D02*
X91174649Y-89314073D01*
X91174649Y-89314073D02*
X91141316Y-89247406D01*
X91141316Y-89247406D02*
X91074649Y-89180740D01*
X91074649Y-89180740D02*
X90974649Y-89147406D01*
X90974649Y-89147406D02*
X90907982Y-89147406D01*
X90907982Y-89147406D02*
X90807982Y-89180740D01*
X90807982Y-89180740D02*
X90774649Y-89214073D01*
X90774649Y-89214073D02*
X90774649Y-89447406D01*
X90774649Y-89447406D02*
X90907982Y-89447406D01*
X90474649Y-89147406D02*
X90474649Y-89847406D01*
X90474649Y-89847406D02*
X90207982Y-89847406D01*
X90207982Y-89847406D02*
X90141316Y-89814073D01*
X90141316Y-89814073D02*
X90107982Y-89780740D01*
X90107982Y-89780740D02*
X90074649Y-89714073D01*
X90074649Y-89714073D02*
X90074649Y-89614073D01*
X90074649Y-89614073D02*
X90107982Y-89547406D01*
X90107982Y-89547406D02*
X90141316Y-89514073D01*
X90141316Y-89514073D02*
X90207982Y-89480740D01*
X90207982Y-89480740D02*
X90474649Y-89480740D01*
X89774649Y-89147406D02*
X89774649Y-89847406D01*
X89307983Y-89847406D02*
X89174649Y-89847406D01*
X89174649Y-89847406D02*
X89107983Y-89814073D01*
X89107983Y-89814073D02*
X89041316Y-89747406D01*
X89041316Y-89747406D02*
X89007983Y-89614073D01*
X89007983Y-89614073D02*
X89007983Y-89380740D01*
X89007983Y-89380740D02*
X89041316Y-89247406D01*
X89041316Y-89247406D02*
X89107983Y-89180740D01*
X89107983Y-89180740D02*
X89174649Y-89147406D01*
X89174649Y-89147406D02*
X89307983Y-89147406D01*
X89307983Y-89147406D02*
X89374649Y-89180740D01*
X89374649Y-89180740D02*
X89441316Y-89247406D01*
X89441316Y-89247406D02*
X89474649Y-89380740D01*
X89474649Y-89380740D02*
X89474649Y-89614073D01*
X89474649Y-89614073D02*
X89441316Y-89747406D01*
X89441316Y-89747406D02*
X89374649Y-89814073D01*
X89374649Y-89814073D02*
X89307983Y-89847406D01*
X88341316Y-89147406D02*
X88741316Y-89147406D01*
X88541316Y-89147406D02*
X88541316Y-89847406D01*
X88541316Y-89847406D02*
X88607983Y-89747406D01*
X88607983Y-89747406D02*
X88674650Y-89680740D01*
X88674650Y-89680740D02*
X88741316Y-89647406D01*
X87741316Y-89614073D02*
X87741316Y-89147406D01*
X87907983Y-89880740D02*
X88074649Y-89380740D01*
X88074649Y-89380740D02*
X87641316Y-89380740D01*
X86874649Y-89880740D02*
X87474649Y-88980740D01*
X86641316Y-89147406D02*
X86641316Y-89847406D01*
X86641316Y-89847406D02*
X86407983Y-89347406D01*
X86407983Y-89347406D02*
X86174649Y-89847406D01*
X86174649Y-89847406D02*
X86174649Y-89147406D01*
X85941316Y-89847406D02*
X85541316Y-89847406D01*
X85741316Y-89147406D02*
X85741316Y-89847406D01*
X85307983Y-89147406D02*
X85307983Y-89847406D01*
X85307983Y-89847406D02*
X85074650Y-89347406D01*
X85074650Y-89347406D02*
X84841316Y-89847406D01*
X84841316Y-89847406D02*
X84841316Y-89147406D01*
X84541316Y-89180740D02*
X84441316Y-89147406D01*
X84441316Y-89147406D02*
X84274650Y-89147406D01*
X84274650Y-89147406D02*
X84207983Y-89180740D01*
X84207983Y-89180740D02*
X84174650Y-89214073D01*
X84174650Y-89214073D02*
X84141316Y-89280740D01*
X84141316Y-89280740D02*
X84141316Y-89347406D01*
X84141316Y-89347406D02*
X84174650Y-89414073D01*
X84174650Y-89414073D02*
X84207983Y-89447406D01*
X84207983Y-89447406D02*
X84274650Y-89480740D01*
X84274650Y-89480740D02*
X84407983Y-89514073D01*
X84407983Y-89514073D02*
X84474650Y-89547406D01*
X84474650Y-89547406D02*
X84507983Y-89580740D01*
X84507983Y-89580740D02*
X84541316Y-89647406D01*
X84541316Y-89647406D02*
X84541316Y-89714073D01*
X84541316Y-89714073D02*
X84507983Y-89780740D01*
X84507983Y-89780740D02*
X84474650Y-89814073D01*
X84474650Y-89814073D02*
X84407983Y-89847406D01*
X84407983Y-89847406D02*
X84241316Y-89847406D01*
X84241316Y-89847406D02*
X84141316Y-89814073D01*
X71278683Y-84734073D02*
X71345350Y-84767406D01*
X71345350Y-84767406D02*
X71445350Y-84767406D01*
X71445350Y-84767406D02*
X71545350Y-84734073D01*
X71545350Y-84734073D02*
X71612017Y-84667406D01*
X71612017Y-84667406D02*
X71645350Y-84600740D01*
X71645350Y-84600740D02*
X71678683Y-84467406D01*
X71678683Y-84467406D02*
X71678683Y-84367406D01*
X71678683Y-84367406D02*
X71645350Y-84234073D01*
X71645350Y-84234073D02*
X71612017Y-84167406D01*
X71612017Y-84167406D02*
X71545350Y-84100740D01*
X71545350Y-84100740D02*
X71445350Y-84067406D01*
X71445350Y-84067406D02*
X71378683Y-84067406D01*
X71378683Y-84067406D02*
X71278683Y-84100740D01*
X71278683Y-84100740D02*
X71245350Y-84134073D01*
X71245350Y-84134073D02*
X71245350Y-84367406D01*
X71245350Y-84367406D02*
X71378683Y-84367406D01*
X70945350Y-84067406D02*
X70945350Y-84767406D01*
X70945350Y-84767406D02*
X70678683Y-84767406D01*
X70678683Y-84767406D02*
X70612017Y-84734073D01*
X70612017Y-84734073D02*
X70578683Y-84700740D01*
X70578683Y-84700740D02*
X70545350Y-84634073D01*
X70545350Y-84634073D02*
X70545350Y-84534073D01*
X70545350Y-84534073D02*
X70578683Y-84467406D01*
X70578683Y-84467406D02*
X70612017Y-84434073D01*
X70612017Y-84434073D02*
X70678683Y-84400740D01*
X70678683Y-84400740D02*
X70945350Y-84400740D01*
X70245350Y-84067406D02*
X70245350Y-84767406D01*
X69778684Y-84767406D02*
X69645350Y-84767406D01*
X69645350Y-84767406D02*
X69578684Y-84734073D01*
X69578684Y-84734073D02*
X69512017Y-84667406D01*
X69512017Y-84667406D02*
X69478684Y-84534073D01*
X69478684Y-84534073D02*
X69478684Y-84300740D01*
X69478684Y-84300740D02*
X69512017Y-84167406D01*
X69512017Y-84167406D02*
X69578684Y-84100740D01*
X69578684Y-84100740D02*
X69645350Y-84067406D01*
X69645350Y-84067406D02*
X69778684Y-84067406D01*
X69778684Y-84067406D02*
X69845350Y-84100740D01*
X69845350Y-84100740D02*
X69912017Y-84167406D01*
X69912017Y-84167406D02*
X69945350Y-84300740D01*
X69945350Y-84300740D02*
X69945350Y-84534073D01*
X69945350Y-84534073D02*
X69912017Y-84667406D01*
X69912017Y-84667406D02*
X69845350Y-84734073D01*
X69845350Y-84734073D02*
X69778684Y-84767406D01*
X69045351Y-84767406D02*
X68978684Y-84767406D01*
X68978684Y-84767406D02*
X68912017Y-84734073D01*
X68912017Y-84734073D02*
X68878684Y-84700740D01*
X68878684Y-84700740D02*
X68845351Y-84634073D01*
X68845351Y-84634073D02*
X68812017Y-84500740D01*
X68812017Y-84500740D02*
X68812017Y-84334073D01*
X68812017Y-84334073D02*
X68845351Y-84200740D01*
X68845351Y-84200740D02*
X68878684Y-84134073D01*
X68878684Y-84134073D02*
X68912017Y-84100740D01*
X68912017Y-84100740D02*
X68978684Y-84067406D01*
X68978684Y-84067406D02*
X69045351Y-84067406D01*
X69045351Y-84067406D02*
X69112017Y-84100740D01*
X69112017Y-84100740D02*
X69145351Y-84134073D01*
X69145351Y-84134073D02*
X69178684Y-84200740D01*
X69178684Y-84200740D02*
X69212017Y-84334073D01*
X69212017Y-84334073D02*
X69212017Y-84500740D01*
X69212017Y-84500740D02*
X69178684Y-84634073D01*
X69178684Y-84634073D02*
X69145351Y-84700740D01*
X69145351Y-84700740D02*
X69112017Y-84734073D01*
X69112017Y-84734073D02*
X69045351Y-84767406D01*
X91198458Y-117948620D02*
X90579411Y-117948620D01*
X90579411Y-117948620D02*
X90912744Y-117567668D01*
X90912744Y-117567668D02*
X90769887Y-117567668D01*
X90769887Y-117567668D02*
X90674649Y-117520049D01*
X90674649Y-117520049D02*
X90627030Y-117472430D01*
X90627030Y-117472430D02*
X90579411Y-117377192D01*
X90579411Y-117377192D02*
X90579411Y-117139097D01*
X90579411Y-117139097D02*
X90627030Y-117043859D01*
X90627030Y-117043859D02*
X90674649Y-116996240D01*
X90674649Y-116996240D02*
X90769887Y-116948620D01*
X90769887Y-116948620D02*
X91055601Y-116948620D01*
X91055601Y-116948620D02*
X91150839Y-116996240D01*
X91150839Y-116996240D02*
X91198458Y-117043859D01*
X90293696Y-117948620D02*
X89960363Y-116948620D01*
X89960363Y-116948620D02*
X89627030Y-117948620D01*
X89388934Y-117948620D02*
X88769887Y-117948620D01*
X88769887Y-117948620D02*
X89103220Y-117567668D01*
X89103220Y-117567668D02*
X88960363Y-117567668D01*
X88960363Y-117567668D02*
X88865125Y-117520049D01*
X88865125Y-117520049D02*
X88817506Y-117472430D01*
X88817506Y-117472430D02*
X88769887Y-117377192D01*
X88769887Y-117377192D02*
X88769887Y-117139097D01*
X88769887Y-117139097D02*
X88817506Y-117043859D01*
X88817506Y-117043859D02*
X88865125Y-116996240D01*
X88865125Y-116996240D02*
X88960363Y-116948620D01*
X88960363Y-116948620D02*
X89246077Y-116948620D01*
X89246077Y-116948620D02*
X89341315Y-116996240D01*
X89341315Y-116996240D02*
X89388934Y-117043859D01*
X69878684Y-76447406D02*
X69878684Y-77147406D01*
X69878684Y-77147406D02*
X69712017Y-77147406D01*
X69712017Y-77147406D02*
X69612017Y-77114073D01*
X69612017Y-77114073D02*
X69545351Y-77047406D01*
X69545351Y-77047406D02*
X69512017Y-76980740D01*
X69512017Y-76980740D02*
X69478684Y-76847406D01*
X69478684Y-76847406D02*
X69478684Y-76747406D01*
X69478684Y-76747406D02*
X69512017Y-76614073D01*
X69512017Y-76614073D02*
X69545351Y-76547406D01*
X69545351Y-76547406D02*
X69612017Y-76480740D01*
X69612017Y-76480740D02*
X69712017Y-76447406D01*
X69712017Y-76447406D02*
X69878684Y-76447406D01*
X68812017Y-76447406D02*
X69212017Y-76447406D01*
X69012017Y-76447406D02*
X69012017Y-77147406D01*
X69012017Y-77147406D02*
X69078684Y-77047406D01*
X69078684Y-77047406D02*
X69145351Y-76980740D01*
X69145351Y-76980740D02*
X69212017Y-76947406D01*
X91208078Y-114935150D02*
X90874745Y-114935150D01*
X90731888Y-114411340D02*
X91208078Y-114411340D01*
X91208078Y-114411340D02*
X91208078Y-115411340D01*
X91208078Y-115411340D02*
X90731888Y-115411340D01*
X90303316Y-114411340D02*
X90303316Y-115411340D01*
X90303316Y-115411340D02*
X89731888Y-114411340D01*
X89731888Y-114411340D02*
X89731888Y-115411340D01*
X88541412Y-115458960D02*
X89398554Y-114173245D01*
X87636650Y-114411340D02*
X87969983Y-114887531D01*
X88208078Y-114411340D02*
X88208078Y-115411340D01*
X88208078Y-115411340D02*
X87827126Y-115411340D01*
X87827126Y-115411340D02*
X87731888Y-115363721D01*
X87731888Y-115363721D02*
X87684269Y-115316102D01*
X87684269Y-115316102D02*
X87636650Y-115220864D01*
X87636650Y-115220864D02*
X87636650Y-115078007D01*
X87636650Y-115078007D02*
X87684269Y-114982769D01*
X87684269Y-114982769D02*
X87731888Y-114935150D01*
X87731888Y-114935150D02*
X87827126Y-114887531D01*
X87827126Y-114887531D02*
X88208078Y-114887531D01*
X87208078Y-114935150D02*
X86874745Y-114935150D01*
X86731888Y-114411340D02*
X87208078Y-114411340D01*
X87208078Y-114411340D02*
X87208078Y-115411340D01*
X87208078Y-115411340D02*
X86731888Y-115411340D01*
X86350935Y-114458960D02*
X86208078Y-114411340D01*
X86208078Y-114411340D02*
X85969983Y-114411340D01*
X85969983Y-114411340D02*
X85874745Y-114458960D01*
X85874745Y-114458960D02*
X85827126Y-114506579D01*
X85827126Y-114506579D02*
X85779507Y-114601817D01*
X85779507Y-114601817D02*
X85779507Y-114697055D01*
X85779507Y-114697055D02*
X85827126Y-114792293D01*
X85827126Y-114792293D02*
X85874745Y-114839912D01*
X85874745Y-114839912D02*
X85969983Y-114887531D01*
X85969983Y-114887531D02*
X86160459Y-114935150D01*
X86160459Y-114935150D02*
X86255697Y-114982769D01*
X86255697Y-114982769D02*
X86303316Y-115030388D01*
X86303316Y-115030388D02*
X86350935Y-115125626D01*
X86350935Y-115125626D02*
X86350935Y-115220864D01*
X86350935Y-115220864D02*
X86303316Y-115316102D01*
X86303316Y-115316102D02*
X86255697Y-115363721D01*
X86255697Y-115363721D02*
X86160459Y-115411340D01*
X86160459Y-115411340D02*
X85922364Y-115411340D01*
X85922364Y-115411340D02*
X85779507Y-115363721D01*
X85350935Y-114935150D02*
X85017602Y-114935150D01*
X84874745Y-114411340D02*
X85350935Y-114411340D01*
X85350935Y-114411340D02*
X85350935Y-115411340D01*
X85350935Y-115411340D02*
X84874745Y-115411340D01*
X84589030Y-115411340D02*
X84017602Y-115411340D01*
X84303316Y-114411340D02*
X84303316Y-115411340D01*
X91274649Y-112707406D02*
X91041316Y-112007406D01*
X91041316Y-112007406D02*
X90807982Y-112707406D01*
X90574649Y-112007406D02*
X90574649Y-112707406D01*
X90574649Y-112707406D02*
X90307982Y-112707406D01*
X90307982Y-112707406D02*
X90241316Y-112674073D01*
X90241316Y-112674073D02*
X90207982Y-112640740D01*
X90207982Y-112640740D02*
X90174649Y-112574073D01*
X90174649Y-112574073D02*
X90174649Y-112474073D01*
X90174649Y-112474073D02*
X90207982Y-112407406D01*
X90207982Y-112407406D02*
X90241316Y-112374073D01*
X90241316Y-112374073D02*
X90307982Y-112340740D01*
X90307982Y-112340740D02*
X90574649Y-112340740D01*
X89374649Y-112740740D02*
X89974649Y-111840740D01*
X88774649Y-112674073D02*
X88841316Y-112707406D01*
X88841316Y-112707406D02*
X88941316Y-112707406D01*
X88941316Y-112707406D02*
X89041316Y-112674073D01*
X89041316Y-112674073D02*
X89107983Y-112607406D01*
X89107983Y-112607406D02*
X89141316Y-112540740D01*
X89141316Y-112540740D02*
X89174649Y-112407406D01*
X89174649Y-112407406D02*
X89174649Y-112307406D01*
X89174649Y-112307406D02*
X89141316Y-112174073D01*
X89141316Y-112174073D02*
X89107983Y-112107406D01*
X89107983Y-112107406D02*
X89041316Y-112040740D01*
X89041316Y-112040740D02*
X88941316Y-112007406D01*
X88941316Y-112007406D02*
X88874649Y-112007406D01*
X88874649Y-112007406D02*
X88774649Y-112040740D01*
X88774649Y-112040740D02*
X88741316Y-112074073D01*
X88741316Y-112074073D02*
X88741316Y-112307406D01*
X88741316Y-112307406D02*
X88874649Y-112307406D01*
X88441316Y-112007406D02*
X88441316Y-112707406D01*
X88441316Y-112707406D02*
X88174649Y-112707406D01*
X88174649Y-112707406D02*
X88107983Y-112674073D01*
X88107983Y-112674073D02*
X88074649Y-112640740D01*
X88074649Y-112640740D02*
X88041316Y-112574073D01*
X88041316Y-112574073D02*
X88041316Y-112474073D01*
X88041316Y-112474073D02*
X88074649Y-112407406D01*
X88074649Y-112407406D02*
X88107983Y-112374073D01*
X88107983Y-112374073D02*
X88174649Y-112340740D01*
X88174649Y-112340740D02*
X88441316Y-112340740D01*
X87741316Y-112007406D02*
X87741316Y-112707406D01*
X87274650Y-112707406D02*
X87141316Y-112707406D01*
X87141316Y-112707406D02*
X87074650Y-112674073D01*
X87074650Y-112674073D02*
X87007983Y-112607406D01*
X87007983Y-112607406D02*
X86974650Y-112474073D01*
X86974650Y-112474073D02*
X86974650Y-112240740D01*
X86974650Y-112240740D02*
X87007983Y-112107406D01*
X87007983Y-112107406D02*
X87074650Y-112040740D01*
X87074650Y-112040740D02*
X87141316Y-112007406D01*
X87141316Y-112007406D02*
X87274650Y-112007406D01*
X87274650Y-112007406D02*
X87341316Y-112040740D01*
X87341316Y-112040740D02*
X87407983Y-112107406D01*
X87407983Y-112107406D02*
X87441316Y-112240740D01*
X87441316Y-112240740D02*
X87441316Y-112474073D01*
X87441316Y-112474073D02*
X87407983Y-112607406D01*
X87407983Y-112607406D02*
X87341316Y-112674073D01*
X87341316Y-112674073D02*
X87274650Y-112707406D01*
X86741317Y-112707406D02*
X86307983Y-112707406D01*
X86307983Y-112707406D02*
X86541317Y-112440740D01*
X86541317Y-112440740D02*
X86441317Y-112440740D01*
X86441317Y-112440740D02*
X86374650Y-112407406D01*
X86374650Y-112407406D02*
X86341317Y-112374073D01*
X86341317Y-112374073D02*
X86307983Y-112307406D01*
X86307983Y-112307406D02*
X86307983Y-112140740D01*
X86307983Y-112140740D02*
X86341317Y-112074073D01*
X86341317Y-112074073D02*
X86374650Y-112040740D01*
X86374650Y-112040740D02*
X86441317Y-112007406D01*
X86441317Y-112007406D02*
X86641317Y-112007406D01*
X86641317Y-112007406D02*
X86707983Y-112040740D01*
X86707983Y-112040740D02*
X86741317Y-112074073D01*
X85707983Y-112707406D02*
X85841316Y-112707406D01*
X85841316Y-112707406D02*
X85907983Y-112674073D01*
X85907983Y-112674073D02*
X85941316Y-112640740D01*
X85941316Y-112640740D02*
X86007983Y-112540740D01*
X86007983Y-112540740D02*
X86041316Y-112407406D01*
X86041316Y-112407406D02*
X86041316Y-112140740D01*
X86041316Y-112140740D02*
X86007983Y-112074073D01*
X86007983Y-112074073D02*
X85974650Y-112040740D01*
X85974650Y-112040740D02*
X85907983Y-112007406D01*
X85907983Y-112007406D02*
X85774650Y-112007406D01*
X85774650Y-112007406D02*
X85707983Y-112040740D01*
X85707983Y-112040740D02*
X85674650Y-112074073D01*
X85674650Y-112074073D02*
X85641316Y-112140740D01*
X85641316Y-112140740D02*
X85641316Y-112307406D01*
X85641316Y-112307406D02*
X85674650Y-112374073D01*
X85674650Y-112374073D02*
X85707983Y-112407406D01*
X85707983Y-112407406D02*
X85774650Y-112440740D01*
X85774650Y-112440740D02*
X85907983Y-112440740D01*
X85907983Y-112440740D02*
X85974650Y-112407406D01*
X85974650Y-112407406D02*
X86007983Y-112374073D01*
X86007983Y-112374073D02*
X86041316Y-112307406D01*
X75445349Y-79654073D02*
X75512016Y-79687406D01*
X75512016Y-79687406D02*
X75612016Y-79687406D01*
X75612016Y-79687406D02*
X75712016Y-79654073D01*
X75712016Y-79654073D02*
X75778683Y-79587406D01*
X75778683Y-79587406D02*
X75812016Y-79520740D01*
X75812016Y-79520740D02*
X75845349Y-79387406D01*
X75845349Y-79387406D02*
X75845349Y-79287406D01*
X75845349Y-79287406D02*
X75812016Y-79154073D01*
X75812016Y-79154073D02*
X75778683Y-79087406D01*
X75778683Y-79087406D02*
X75712016Y-79020740D01*
X75712016Y-79020740D02*
X75612016Y-78987406D01*
X75612016Y-78987406D02*
X75545349Y-78987406D01*
X75545349Y-78987406D02*
X75445349Y-79020740D01*
X75445349Y-79020740D02*
X75412016Y-79054073D01*
X75412016Y-79054073D02*
X75412016Y-79287406D01*
X75412016Y-79287406D02*
X75545349Y-79287406D01*
X75112016Y-78987406D02*
X75112016Y-79687406D01*
X75112016Y-79687406D02*
X74845349Y-79687406D01*
X74845349Y-79687406D02*
X74778683Y-79654073D01*
X74778683Y-79654073D02*
X74745349Y-79620740D01*
X74745349Y-79620740D02*
X74712016Y-79554073D01*
X74712016Y-79554073D02*
X74712016Y-79454073D01*
X74712016Y-79454073D02*
X74745349Y-79387406D01*
X74745349Y-79387406D02*
X74778683Y-79354073D01*
X74778683Y-79354073D02*
X74845349Y-79320740D01*
X74845349Y-79320740D02*
X75112016Y-79320740D01*
X74412016Y-78987406D02*
X74412016Y-79687406D01*
X73945350Y-79687406D02*
X73812016Y-79687406D01*
X73812016Y-79687406D02*
X73745350Y-79654073D01*
X73745350Y-79654073D02*
X73678683Y-79587406D01*
X73678683Y-79587406D02*
X73645350Y-79454073D01*
X73645350Y-79454073D02*
X73645350Y-79220740D01*
X73645350Y-79220740D02*
X73678683Y-79087406D01*
X73678683Y-79087406D02*
X73745350Y-79020740D01*
X73745350Y-79020740D02*
X73812016Y-78987406D01*
X73812016Y-78987406D02*
X73945350Y-78987406D01*
X73945350Y-78987406D02*
X74012016Y-79020740D01*
X74012016Y-79020740D02*
X74078683Y-79087406D01*
X74078683Y-79087406D02*
X74112016Y-79220740D01*
X74112016Y-79220740D02*
X74112016Y-79454073D01*
X74112016Y-79454073D02*
X74078683Y-79587406D01*
X74078683Y-79587406D02*
X74012016Y-79654073D01*
X74012016Y-79654073D02*
X73945350Y-79687406D01*
X72978683Y-78987406D02*
X73378683Y-78987406D01*
X73178683Y-78987406D02*
X73178683Y-79687406D01*
X73178683Y-79687406D02*
X73245350Y-79587406D01*
X73245350Y-79587406D02*
X73312017Y-79520740D01*
X73312017Y-79520740D02*
X73378683Y-79487406D01*
X72345350Y-79687406D02*
X72678683Y-79687406D01*
X72678683Y-79687406D02*
X72712016Y-79354073D01*
X72712016Y-79354073D02*
X72678683Y-79387406D01*
X72678683Y-79387406D02*
X72612016Y-79420740D01*
X72612016Y-79420740D02*
X72445350Y-79420740D01*
X72445350Y-79420740D02*
X72378683Y-79387406D01*
X72378683Y-79387406D02*
X72345350Y-79354073D01*
X72345350Y-79354073D02*
X72312016Y-79287406D01*
X72312016Y-79287406D02*
X72312016Y-79120740D01*
X72312016Y-79120740D02*
X72345350Y-79054073D01*
X72345350Y-79054073D02*
X72378683Y-79020740D01*
X72378683Y-79020740D02*
X72445350Y-78987406D01*
X72445350Y-78987406D02*
X72612016Y-78987406D01*
X72612016Y-78987406D02*
X72678683Y-79020740D01*
X72678683Y-79020740D02*
X72712016Y-79054073D01*
X71512016Y-79720740D02*
X72112016Y-78820740D01*
X71278683Y-78987406D02*
X71278683Y-79687406D01*
X71278683Y-79687406D02*
X71045350Y-79187406D01*
X71045350Y-79187406D02*
X70812016Y-79687406D01*
X70812016Y-79687406D02*
X70812016Y-78987406D01*
X70578683Y-79687406D02*
X70178683Y-79687406D01*
X70378683Y-78987406D02*
X70378683Y-79687406D01*
X69945350Y-78987406D02*
X69945350Y-79687406D01*
X69945350Y-79687406D02*
X69778683Y-79687406D01*
X69778683Y-79687406D02*
X69678683Y-79654073D01*
X69678683Y-79654073D02*
X69612017Y-79587406D01*
X69612017Y-79587406D02*
X69578683Y-79520740D01*
X69578683Y-79520740D02*
X69545350Y-79387406D01*
X69545350Y-79387406D02*
X69545350Y-79287406D01*
X69545350Y-79287406D02*
X69578683Y-79154073D01*
X69578683Y-79154073D02*
X69612017Y-79087406D01*
X69612017Y-79087406D02*
X69678683Y-79020740D01*
X69678683Y-79020740D02*
X69778683Y-78987406D01*
X69778683Y-78987406D02*
X69945350Y-78987406D01*
X69112017Y-79687406D02*
X68978683Y-79687406D01*
X68978683Y-79687406D02*
X68912017Y-79654073D01*
X68912017Y-79654073D02*
X68845350Y-79587406D01*
X68845350Y-79587406D02*
X68812017Y-79454073D01*
X68812017Y-79454073D02*
X68812017Y-79220740D01*
X68812017Y-79220740D02*
X68845350Y-79087406D01*
X68845350Y-79087406D02*
X68912017Y-79020740D01*
X68912017Y-79020740D02*
X68978683Y-78987406D01*
X68978683Y-78987406D02*
X69112017Y-78987406D01*
X69112017Y-78987406D02*
X69178683Y-79020740D01*
X69178683Y-79020740D02*
X69245350Y-79087406D01*
X69245350Y-79087406D02*
X69278683Y-79220740D01*
X69278683Y-79220740D02*
X69278683Y-79454073D01*
X69278683Y-79454073D02*
X69245350Y-79587406D01*
X69245350Y-79587406D02*
X69178683Y-79654073D01*
X69178683Y-79654073D02*
X69112017Y-79687406D01*
X61754819Y-84488094D02*
X60754819Y-84488094D01*
X60754819Y-84488094D02*
X60754819Y-84249999D01*
X60754819Y-84249999D02*
X60802438Y-84107142D01*
X60802438Y-84107142D02*
X60897676Y-84011904D01*
X60897676Y-84011904D02*
X60992914Y-83964285D01*
X60992914Y-83964285D02*
X61183390Y-83916666D01*
X61183390Y-83916666D02*
X61326247Y-83916666D01*
X61326247Y-83916666D02*
X61516723Y-83964285D01*
X61516723Y-83964285D02*
X61611961Y-84011904D01*
X61611961Y-84011904D02*
X61707200Y-84107142D01*
X61707200Y-84107142D02*
X61754819Y-84249999D01*
X61754819Y-84249999D02*
X61754819Y-84488094D01*
X61183390Y-83345237D02*
X61135771Y-83440475D01*
X61135771Y-83440475D02*
X61088152Y-83488094D01*
X61088152Y-83488094D02*
X60992914Y-83535713D01*
X60992914Y-83535713D02*
X60945295Y-83535713D01*
X60945295Y-83535713D02*
X60850057Y-83488094D01*
X60850057Y-83488094D02*
X60802438Y-83440475D01*
X60802438Y-83440475D02*
X60754819Y-83345237D01*
X60754819Y-83345237D02*
X60754819Y-83154761D01*
X60754819Y-83154761D02*
X60802438Y-83059523D01*
X60802438Y-83059523D02*
X60850057Y-83011904D01*
X60850057Y-83011904D02*
X60945295Y-82964285D01*
X60945295Y-82964285D02*
X60992914Y-82964285D01*
X60992914Y-82964285D02*
X61088152Y-83011904D01*
X61088152Y-83011904D02*
X61135771Y-83059523D01*
X61135771Y-83059523D02*
X61183390Y-83154761D01*
X61183390Y-83154761D02*
X61183390Y-83345237D01*
X61183390Y-83345237D02*
X61231009Y-83440475D01*
X61231009Y-83440475D02*
X61278628Y-83488094D01*
X61278628Y-83488094D02*
X61373866Y-83535713D01*
X61373866Y-83535713D02*
X61564342Y-83535713D01*
X61564342Y-83535713D02*
X61659580Y-83488094D01*
X61659580Y-83488094D02*
X61707200Y-83440475D01*
X61707200Y-83440475D02*
X61754819Y-83345237D01*
X61754819Y-83345237D02*
X61754819Y-83154761D01*
X61754819Y-83154761D02*
X61707200Y-83059523D01*
X61707200Y-83059523D02*
X61659580Y-83011904D01*
X61659580Y-83011904D02*
X61564342Y-82964285D01*
X61564342Y-82964285D02*
X61373866Y-82964285D01*
X61373866Y-82964285D02*
X61278628Y-83011904D01*
X61278628Y-83011904D02*
X61231009Y-83059523D01*
X61231009Y-83059523D02*
X61183390Y-83154761D01*
X62136819Y-78843094D02*
X61136819Y-78843094D01*
X61136819Y-78843094D02*
X61136819Y-78604999D01*
X61136819Y-78604999D02*
X61184438Y-78462142D01*
X61184438Y-78462142D02*
X61279676Y-78366904D01*
X61279676Y-78366904D02*
X61374914Y-78319285D01*
X61374914Y-78319285D02*
X61565390Y-78271666D01*
X61565390Y-78271666D02*
X61708247Y-78271666D01*
X61708247Y-78271666D02*
X61898723Y-78319285D01*
X61898723Y-78319285D02*
X61993961Y-78366904D01*
X61993961Y-78366904D02*
X62089200Y-78462142D01*
X62089200Y-78462142D02*
X62136819Y-78604999D01*
X62136819Y-78604999D02*
X62136819Y-78843094D01*
X61136819Y-77366904D02*
X61136819Y-77843094D01*
X61136819Y-77843094D02*
X61613009Y-77890713D01*
X61613009Y-77890713D02*
X61565390Y-77843094D01*
X61565390Y-77843094D02*
X61517771Y-77747856D01*
X61517771Y-77747856D02*
X61517771Y-77509761D01*
X61517771Y-77509761D02*
X61565390Y-77414523D01*
X61565390Y-77414523D02*
X61613009Y-77366904D01*
X61613009Y-77366904D02*
X61708247Y-77319285D01*
X61708247Y-77319285D02*
X61946342Y-77319285D01*
X61946342Y-77319285D02*
X62041580Y-77366904D01*
X62041580Y-77366904D02*
X62089200Y-77414523D01*
X62089200Y-77414523D02*
X62136819Y-77509761D01*
X62136819Y-77509761D02*
X62136819Y-77747856D01*
X62136819Y-77747856D02*
X62089200Y-77843094D01*
X62089200Y-77843094D02*
X62041580Y-77890713D01*
X47801319Y-79382857D02*
X47325128Y-79716190D01*
X47801319Y-79954285D02*
X46801319Y-79954285D01*
X46801319Y-79954285D02*
X46801319Y-79573333D01*
X46801319Y-79573333D02*
X46848938Y-79478095D01*
X46848938Y-79478095D02*
X46896557Y-79430476D01*
X46896557Y-79430476D02*
X46991795Y-79382857D01*
X46991795Y-79382857D02*
X47134652Y-79382857D01*
X47134652Y-79382857D02*
X47229890Y-79430476D01*
X47229890Y-79430476D02*
X47277509Y-79478095D01*
X47277509Y-79478095D02*
X47325128Y-79573333D01*
X47325128Y-79573333D02*
X47325128Y-79954285D01*
X47801319Y-78430476D02*
X47801319Y-79001904D01*
X47801319Y-78716190D02*
X46801319Y-78716190D01*
X46801319Y-78716190D02*
X46944176Y-78811428D01*
X46944176Y-78811428D02*
X47039414Y-78906666D01*
X47039414Y-78906666D02*
X47087033Y-79001904D01*
X46801319Y-78097142D02*
X46801319Y-77478095D01*
X46801319Y-77478095D02*
X47182271Y-77811428D01*
X47182271Y-77811428D02*
X47182271Y-77668571D01*
X47182271Y-77668571D02*
X47229890Y-77573333D01*
X47229890Y-77573333D02*
X47277509Y-77525714D01*
X47277509Y-77525714D02*
X47372747Y-77478095D01*
X47372747Y-77478095D02*
X47610842Y-77478095D01*
X47610842Y-77478095D02*
X47706080Y-77525714D01*
X47706080Y-77525714D02*
X47753700Y-77573333D01*
X47753700Y-77573333D02*
X47801319Y-77668571D01*
X47801319Y-77668571D02*
X47801319Y-77954285D01*
X47801319Y-77954285D02*
X47753700Y-78049523D01*
X47753700Y-78049523D02*
X47706080Y-78097142D01*
X49263819Y-95238094D02*
X48263819Y-95238094D01*
X48263819Y-95238094D02*
X48263819Y-94999999D01*
X48263819Y-94999999D02*
X48311438Y-94857142D01*
X48311438Y-94857142D02*
X48406676Y-94761904D01*
X48406676Y-94761904D02*
X48501914Y-94714285D01*
X48501914Y-94714285D02*
X48692390Y-94666666D01*
X48692390Y-94666666D02*
X48835247Y-94666666D01*
X48835247Y-94666666D02*
X49025723Y-94714285D01*
X49025723Y-94714285D02*
X49120961Y-94761904D01*
X49120961Y-94761904D02*
X49216200Y-94857142D01*
X49216200Y-94857142D02*
X49263819Y-94999999D01*
X49263819Y-94999999D02*
X49263819Y-95238094D01*
X48263819Y-94333332D02*
X48263819Y-93714285D01*
X48263819Y-93714285D02*
X48644771Y-94047618D01*
X48644771Y-94047618D02*
X48644771Y-93904761D01*
X48644771Y-93904761D02*
X48692390Y-93809523D01*
X48692390Y-93809523D02*
X48740009Y-93761904D01*
X48740009Y-93761904D02*
X48835247Y-93714285D01*
X48835247Y-93714285D02*
X49073342Y-93714285D01*
X49073342Y-93714285D02*
X49168580Y-93761904D01*
X49168580Y-93761904D02*
X49216200Y-93809523D01*
X49216200Y-93809523D02*
X49263819Y-93904761D01*
X49263819Y-93904761D02*
X49263819Y-94190475D01*
X49263819Y-94190475D02*
X49216200Y-94285713D01*
X49216200Y-94285713D02*
X49168580Y-94333332D01*
X47899819Y-83692904D02*
X48709342Y-83692904D01*
X48709342Y-83692904D02*
X48804580Y-83645285D01*
X48804580Y-83645285D02*
X48852200Y-83597666D01*
X48852200Y-83597666D02*
X48899819Y-83502428D01*
X48899819Y-83502428D02*
X48899819Y-83311952D01*
X48899819Y-83311952D02*
X48852200Y-83216714D01*
X48852200Y-83216714D02*
X48804580Y-83169095D01*
X48804580Y-83169095D02*
X48709342Y-83121476D01*
X48709342Y-83121476D02*
X47899819Y-83121476D01*
X47995057Y-82692904D02*
X47947438Y-82645285D01*
X47947438Y-82645285D02*
X47899819Y-82550047D01*
X47899819Y-82550047D02*
X47899819Y-82311952D01*
X47899819Y-82311952D02*
X47947438Y-82216714D01*
X47947438Y-82216714D02*
X47995057Y-82169095D01*
X47995057Y-82169095D02*
X48090295Y-82121476D01*
X48090295Y-82121476D02*
X48185533Y-82121476D01*
X48185533Y-82121476D02*
X48328390Y-82169095D01*
X48328390Y-82169095D02*
X48899819Y-82740523D01*
X48899819Y-82740523D02*
X48899819Y-82121476D01*
X62857142Y-94854819D02*
X62523809Y-94378628D01*
X62285714Y-94854819D02*
X62285714Y-93854819D01*
X62285714Y-93854819D02*
X62666666Y-93854819D01*
X62666666Y-93854819D02*
X62761904Y-93902438D01*
X62761904Y-93902438D02*
X62809523Y-93950057D01*
X62809523Y-93950057D02*
X62857142Y-94045295D01*
X62857142Y-94045295D02*
X62857142Y-94188152D01*
X62857142Y-94188152D02*
X62809523Y-94283390D01*
X62809523Y-94283390D02*
X62761904Y-94331009D01*
X62761904Y-94331009D02*
X62666666Y-94378628D01*
X62666666Y-94378628D02*
X62285714Y-94378628D01*
X63809523Y-94854819D02*
X63238095Y-94854819D01*
X63523809Y-94854819D02*
X63523809Y-93854819D01*
X63523809Y-93854819D02*
X63428571Y-93997676D01*
X63428571Y-93997676D02*
X63333333Y-94092914D01*
X63333333Y-94092914D02*
X63238095Y-94140533D01*
X64666666Y-93854819D02*
X64476190Y-93854819D01*
X64476190Y-93854819D02*
X64380952Y-93902438D01*
X64380952Y-93902438D02*
X64333333Y-93950057D01*
X64333333Y-93950057D02*
X64238095Y-94092914D01*
X64238095Y-94092914D02*
X64190476Y-94283390D01*
X64190476Y-94283390D02*
X64190476Y-94664342D01*
X64190476Y-94664342D02*
X64238095Y-94759580D01*
X64238095Y-94759580D02*
X64285714Y-94807200D01*
X64285714Y-94807200D02*
X64380952Y-94854819D01*
X64380952Y-94854819D02*
X64571428Y-94854819D01*
X64571428Y-94854819D02*
X64666666Y-94807200D01*
X64666666Y-94807200D02*
X64714285Y-94759580D01*
X64714285Y-94759580D02*
X64761904Y-94664342D01*
X64761904Y-94664342D02*
X64761904Y-94426247D01*
X64761904Y-94426247D02*
X64714285Y-94331009D01*
X64714285Y-94331009D02*
X64666666Y-94283390D01*
X64666666Y-94283390D02*
X64571428Y-94235771D01*
X64571428Y-94235771D02*
X64380952Y-94235771D01*
X64380952Y-94235771D02*
X64285714Y-94283390D01*
X64285714Y-94283390D02*
X64238095Y-94331009D01*
X64238095Y-94331009D02*
X64190476Y-94426247D01*
X48977819Y-91238094D02*
X47977819Y-91238094D01*
X47977819Y-91238094D02*
X47977819Y-90999999D01*
X47977819Y-90999999D02*
X48025438Y-90857142D01*
X48025438Y-90857142D02*
X48120676Y-90761904D01*
X48120676Y-90761904D02*
X48215914Y-90714285D01*
X48215914Y-90714285D02*
X48406390Y-90666666D01*
X48406390Y-90666666D02*
X48549247Y-90666666D01*
X48549247Y-90666666D02*
X48739723Y-90714285D01*
X48739723Y-90714285D02*
X48834961Y-90761904D01*
X48834961Y-90761904D02*
X48930200Y-90857142D01*
X48930200Y-90857142D02*
X48977819Y-90999999D01*
X48977819Y-90999999D02*
X48977819Y-91238094D01*
X48311152Y-89809523D02*
X48977819Y-89809523D01*
X47930200Y-90047618D02*
X48644485Y-90285713D01*
X48644485Y-90285713D02*
X48644485Y-89666666D01*
X62857142Y-91354819D02*
X62523809Y-90878628D01*
X62285714Y-91354819D02*
X62285714Y-90354819D01*
X62285714Y-90354819D02*
X62666666Y-90354819D01*
X62666666Y-90354819D02*
X62761904Y-90402438D01*
X62761904Y-90402438D02*
X62809523Y-90450057D01*
X62809523Y-90450057D02*
X62857142Y-90545295D01*
X62857142Y-90545295D02*
X62857142Y-90688152D01*
X62857142Y-90688152D02*
X62809523Y-90783390D01*
X62809523Y-90783390D02*
X62761904Y-90831009D01*
X62761904Y-90831009D02*
X62666666Y-90878628D01*
X62666666Y-90878628D02*
X62285714Y-90878628D01*
X63809523Y-91354819D02*
X63238095Y-91354819D01*
X63523809Y-91354819D02*
X63523809Y-90354819D01*
X63523809Y-90354819D02*
X63428571Y-90497676D01*
X63428571Y-90497676D02*
X63333333Y-90592914D01*
X63333333Y-90592914D02*
X63238095Y-90640533D01*
X64714285Y-90354819D02*
X64238095Y-90354819D01*
X64238095Y-90354819D02*
X64190476Y-90831009D01*
X64190476Y-90831009D02*
X64238095Y-90783390D01*
X64238095Y-90783390D02*
X64333333Y-90735771D01*
X64333333Y-90735771D02*
X64571428Y-90735771D01*
X64571428Y-90735771D02*
X64666666Y-90783390D01*
X64666666Y-90783390D02*
X64714285Y-90831009D01*
X64714285Y-90831009D02*
X64761904Y-90926247D01*
X64761904Y-90926247D02*
X64761904Y-91164342D01*
X64761904Y-91164342D02*
X64714285Y-91259580D01*
X64714285Y-91259580D02*
X64666666Y-91307200D01*
X64666666Y-91307200D02*
X64571428Y-91354819D01*
X64571428Y-91354819D02*
X64333333Y-91354819D01*
X64333333Y-91354819D02*
X64238095Y-91307200D01*
X64238095Y-91307200D02*
X64190476Y-91259580D01*
X54189333Y-76813580D02*
X54141714Y-76861200D01*
X54141714Y-76861200D02*
X53998857Y-76908819D01*
X53998857Y-76908819D02*
X53903619Y-76908819D01*
X53903619Y-76908819D02*
X53760762Y-76861200D01*
X53760762Y-76861200D02*
X53665524Y-76765961D01*
X53665524Y-76765961D02*
X53617905Y-76670723D01*
X53617905Y-76670723D02*
X53570286Y-76480247D01*
X53570286Y-76480247D02*
X53570286Y-76337390D01*
X53570286Y-76337390D02*
X53617905Y-76146914D01*
X53617905Y-76146914D02*
X53665524Y-76051676D01*
X53665524Y-76051676D02*
X53760762Y-75956438D01*
X53760762Y-75956438D02*
X53903619Y-75908819D01*
X53903619Y-75908819D02*
X53998857Y-75908819D01*
X53998857Y-75908819D02*
X54141714Y-75956438D01*
X54141714Y-75956438D02*
X54189333Y-76004057D01*
X55141714Y-76908819D02*
X54570286Y-76908819D01*
X54856000Y-76908819D02*
X54856000Y-75908819D01*
X54856000Y-75908819D02*
X54760762Y-76051676D01*
X54760762Y-76051676D02*
X54665524Y-76146914D01*
X54665524Y-76146914D02*
X54570286Y-76194533D01*
X42110819Y-79382857D02*
X41634628Y-79716190D01*
X42110819Y-79954285D02*
X41110819Y-79954285D01*
X41110819Y-79954285D02*
X41110819Y-79573333D01*
X41110819Y-79573333D02*
X41158438Y-79478095D01*
X41158438Y-79478095D02*
X41206057Y-79430476D01*
X41206057Y-79430476D02*
X41301295Y-79382857D01*
X41301295Y-79382857D02*
X41444152Y-79382857D01*
X41444152Y-79382857D02*
X41539390Y-79430476D01*
X41539390Y-79430476D02*
X41587009Y-79478095D01*
X41587009Y-79478095D02*
X41634628Y-79573333D01*
X41634628Y-79573333D02*
X41634628Y-79954285D01*
X42110819Y-78430476D02*
X42110819Y-79001904D01*
X42110819Y-78716190D02*
X41110819Y-78716190D01*
X41110819Y-78716190D02*
X41253676Y-78811428D01*
X41253676Y-78811428D02*
X41348914Y-78906666D01*
X41348914Y-78906666D02*
X41396533Y-79001904D01*
X41206057Y-78049523D02*
X41158438Y-78001904D01*
X41158438Y-78001904D02*
X41110819Y-77906666D01*
X41110819Y-77906666D02*
X41110819Y-77668571D01*
X41110819Y-77668571D02*
X41158438Y-77573333D01*
X41158438Y-77573333D02*
X41206057Y-77525714D01*
X41206057Y-77525714D02*
X41301295Y-77478095D01*
X41301295Y-77478095D02*
X41396533Y-77478095D01*
X41396533Y-77478095D02*
X41539390Y-77525714D01*
X41539390Y-77525714D02*
X42110819Y-78097142D01*
X42110819Y-78097142D02*
X42110819Y-77478095D01*
X96107142Y-98704819D02*
X95773809Y-98228628D01*
X95535714Y-98704819D02*
X95535714Y-97704819D01*
X95535714Y-97704819D02*
X95916666Y-97704819D01*
X95916666Y-97704819D02*
X96011904Y-97752438D01*
X96011904Y-97752438D02*
X96059523Y-97800057D01*
X96059523Y-97800057D02*
X96107142Y-97895295D01*
X96107142Y-97895295D02*
X96107142Y-98038152D01*
X96107142Y-98038152D02*
X96059523Y-98133390D01*
X96059523Y-98133390D02*
X96011904Y-98181009D01*
X96011904Y-98181009D02*
X95916666Y-98228628D01*
X95916666Y-98228628D02*
X95535714Y-98228628D01*
X97059523Y-98704819D02*
X96488095Y-98704819D01*
X96773809Y-98704819D02*
X96773809Y-97704819D01*
X96773809Y-97704819D02*
X96678571Y-97847676D01*
X96678571Y-97847676D02*
X96583333Y-97942914D01*
X96583333Y-97942914D02*
X96488095Y-97990533D01*
X97392857Y-97704819D02*
X98059523Y-97704819D01*
X98059523Y-97704819D02*
X97630952Y-98704819D01*
X99916666Y-84044819D02*
X99916666Y-84759104D01*
X99916666Y-84759104D02*
X99869047Y-84901961D01*
X99869047Y-84901961D02*
X99773809Y-84997200D01*
X99773809Y-84997200D02*
X99630952Y-85044819D01*
X99630952Y-85044819D02*
X99535714Y-85044819D01*
X100916666Y-85044819D02*
X100345238Y-85044819D01*
X100630952Y-85044819D02*
X100630952Y-84044819D01*
X100630952Y-84044819D02*
X100535714Y-84187676D01*
X100535714Y-84187676D02*
X100440476Y-84282914D01*
X100440476Y-84282914D02*
X100345238Y-84330533D01*
X97657200Y-108583332D02*
X97704819Y-108440475D01*
X97704819Y-108440475D02*
X97704819Y-108202380D01*
X97704819Y-108202380D02*
X97657200Y-108107142D01*
X97657200Y-108107142D02*
X97609580Y-108059523D01*
X97609580Y-108059523D02*
X97514342Y-108011904D01*
X97514342Y-108011904D02*
X97419104Y-108011904D01*
X97419104Y-108011904D02*
X97323866Y-108059523D01*
X97323866Y-108059523D02*
X97276247Y-108107142D01*
X97276247Y-108107142D02*
X97228628Y-108202380D01*
X97228628Y-108202380D02*
X97181009Y-108392856D01*
X97181009Y-108392856D02*
X97133390Y-108488094D01*
X97133390Y-108488094D02*
X97085771Y-108535713D01*
X97085771Y-108535713D02*
X96990533Y-108583332D01*
X96990533Y-108583332D02*
X96895295Y-108583332D01*
X96895295Y-108583332D02*
X96800057Y-108535713D01*
X96800057Y-108535713D02*
X96752438Y-108488094D01*
X96752438Y-108488094D02*
X96704819Y-108392856D01*
X96704819Y-108392856D02*
X96704819Y-108154761D01*
X96704819Y-108154761D02*
X96752438Y-108011904D01*
X96704819Y-107678570D02*
X97704819Y-107440475D01*
X97704819Y-107440475D02*
X96990533Y-107249999D01*
X96990533Y-107249999D02*
X97704819Y-107059523D01*
X97704819Y-107059523D02*
X96704819Y-106821428D01*
X97704819Y-105916666D02*
X97704819Y-106488094D01*
X97704819Y-106202380D02*
X96704819Y-106202380D01*
X96704819Y-106202380D02*
X96847676Y-106297618D01*
X96847676Y-106297618D02*
X96942914Y-106392856D01*
X96942914Y-106392856D02*
X96990533Y-106488094D01*
D11*
X40073706Y-117740000D02*
X41993706Y-117740000D01*
X41993706Y-117740000D02*
X41993706Y-115055000D01*
X40073706Y-115055000D02*
X40073706Y-117740000D01*
D12*
X46890000Y-81965000D02*
X46890000Y-94035000D01*
X40000000Y-81965000D02*
X46890000Y-81965000D01*
X30380000Y-81965000D02*
X36000000Y-81965000D01*
X46890000Y-94035000D02*
X40000000Y-94035000D01*
X36000000Y-94035000D02*
X30380000Y-94035000D01*
X30380000Y-94035000D02*
X30380000Y-81965000D01*
D13*
X47800000Y-90800000D02*
G75*
G03*
X47800000Y-90800000I-100000J0D01*
G01*
D12*
X46890000Y-95965000D02*
X46890000Y-108035000D01*
X40000000Y-95965000D02*
X46890000Y-95965000D01*
X30380000Y-95965000D02*
X36000000Y-95965000D01*
X46890000Y-108035000D02*
X40000000Y-108035000D01*
X36000000Y-108035000D02*
X30380000Y-108035000D01*
X30380000Y-108035000D02*
X30380000Y-95965000D01*
D13*
X47800000Y-104800000D02*
G75*
G03*
X47800000Y-104800000I-100000J0D01*
G01*
D11*
X53267736Y-109371800D02*
X53721864Y-109371800D01*
X53267736Y-110841800D02*
X53721864Y-110841800D01*
X53721864Y-112842800D02*
X53267736Y-112842800D01*
X53721864Y-111372800D02*
X53267736Y-111372800D01*
X60529064Y-104410000D02*
X60074936Y-104410000D01*
X60529064Y-102940000D02*
X60074936Y-102940000D01*
X53250436Y-107374000D02*
X53704564Y-107374000D01*
X53250436Y-108844000D02*
X53704564Y-108844000D01*
X53671064Y-106696000D02*
X53216936Y-106696000D01*
X53671064Y-105226000D02*
X53216936Y-105226000D01*
X40298706Y-112393564D02*
X40298706Y-111939436D01*
X41768706Y-112393564D02*
X41768706Y-111939436D01*
X60529564Y-106442000D02*
X60075436Y-106442000D01*
X60529564Y-104972000D02*
X60075436Y-104972000D01*
X42965706Y-112368064D02*
X42965706Y-111913936D01*
X44435706Y-112368064D02*
X44435706Y-111913936D01*
X46975706Y-111913936D02*
X46975706Y-112368064D01*
X45505706Y-111913936D02*
X45505706Y-112368064D01*
X56973064Y-115332000D02*
X56518936Y-115332000D01*
X56973064Y-113862000D02*
X56518936Y-113862000D01*
X56973064Y-117332000D02*
X56518936Y-117332000D01*
X56973064Y-115862000D02*
X56518936Y-115862000D01*
X60390000Y-107549000D02*
X56940000Y-107549000D01*
X60390000Y-107549000D02*
X62340000Y-107549000D01*
X60390000Y-112669000D02*
X58440000Y-112669000D01*
X60390000Y-112669000D02*
X62340000Y-112669000D01*
X42740706Y-117684500D02*
X44660706Y-117684500D01*
X44660706Y-117684500D02*
X44660706Y-114999500D01*
X42740706Y-114999500D02*
X42740706Y-117684500D01*
X48689706Y-116078000D02*
X48689706Y-114403000D01*
X48689706Y-116078000D02*
X48689706Y-116728000D01*
X45569706Y-116078000D02*
X45569706Y-115428000D01*
X45569706Y-116078000D02*
X45569706Y-116728000D01*
X52833500Y-117157000D02*
X54508500Y-117157000D01*
X52833500Y-117157000D02*
X52183500Y-117157000D01*
X52833500Y-114037000D02*
X53483500Y-114037000D01*
X52833500Y-114037000D02*
X52183500Y-114037000D01*
X63727064Y-86485000D02*
X63272936Y-86485000D01*
X63727064Y-85015000D02*
X63272936Y-85015000D01*
X59711000Y-91187748D02*
X59711000Y-92610252D01*
X57891000Y-91187748D02*
X57891000Y-92610252D01*
X94210000Y-70583440D02*
X65810001Y-70583440D01*
X94209999Y-118503440D02*
X94210000Y-70583440D01*
X88979880Y-124416560D02*
X70996680Y-124416560D01*
X88979880Y-118523760D02*
X88979880Y-124416560D01*
X70996680Y-124416560D02*
X70996680Y-118523760D01*
X65810001Y-70583440D02*
X65810000Y-118503440D01*
X65810000Y-118503440D02*
X94209999Y-118503440D01*
X59850000Y-82800000D02*
X58700000Y-82800000D01*
X60300000Y-84700000D02*
X58700000Y-84700000D01*
X60832000Y-74595000D02*
X57532000Y-74595000D01*
X60832000Y-74595000D02*
X60832000Y-80105000D01*
X57532000Y-74595000D02*
X57532000Y-80105000D01*
X46431500Y-78512936D02*
X46431500Y-78967064D01*
X44961500Y-78512936D02*
X44961500Y-78967064D01*
X44394000Y-72610000D02*
X42474000Y-72610000D01*
X42474000Y-72610000D02*
X42474000Y-75295000D01*
X44394000Y-75295000D02*
X44394000Y-72610000D01*
X56510000Y-96150000D02*
X56510000Y-92850000D01*
X56510000Y-96150000D02*
X51000000Y-96150000D01*
X56510000Y-92850000D02*
X51000000Y-92850000D01*
X49535000Y-87031000D02*
X49535000Y-81021000D01*
X56355000Y-84781000D02*
X56355000Y-81021000D01*
X49535000Y-81021000D02*
X50795000Y-81021000D01*
X56355000Y-81021000D02*
X55095000Y-81021000D01*
X46680000Y-72610000D02*
X44760000Y-72610000D01*
X44760000Y-72610000D02*
X44760000Y-75295000D01*
X46680000Y-75295000D02*
X46680000Y-72610000D01*
X63727064Y-93485000D02*
X63272936Y-93485000D01*
X63727064Y-92015000D02*
X63272936Y-92015000D01*
X56510000Y-92150000D02*
X56510000Y-88850000D01*
X56510000Y-92150000D02*
X51000000Y-92150000D01*
X56510000Y-88850000D02*
X51000000Y-88850000D01*
X63727064Y-89985000D02*
X63272936Y-89985000D01*
X63727064Y-88515000D02*
X63272936Y-88515000D01*
X51497252Y-77364000D02*
X50074748Y-77364000D01*
X51497252Y-75544000D02*
X50074748Y-75544000D01*
X44169000Y-78512936D02*
X44169000Y-78967064D01*
X42699000Y-78512936D02*
X42699000Y-78967064D01*
X96015000Y-100977064D02*
X96015000Y-100522936D01*
X97485000Y-100977064D02*
X97485000Y-100522936D01*
X98920000Y-85590000D02*
X100250000Y-85590000D01*
X98920000Y-86920000D02*
X98920000Y-85590000D01*
X98920000Y-88190000D02*
X98920000Y-95870000D01*
X98920000Y-88190000D02*
X101580000Y-88190000D01*
X98920000Y-95870000D02*
X101580000Y-95870000D01*
X101580000Y-88190000D02*
X101580000Y-95870000D01*
X98400000Y-107060000D02*
X98400000Y-100940000D01*
X102100000Y-107060000D02*
X98400000Y-107060000D01*
X98400000Y-100940000D02*
X102100000Y-100940000D01*
X102100000Y-100940000D02*
X102100000Y-107060000D01*
%LPC*%
G36*
G01*
X41489956Y-117480000D02*
X40577456Y-117480000D01*
G75*
G02*
X40333706Y-117236250I0J243750D01*
G01*
X40333706Y-116748750D01*
G75*
G02*
X40577456Y-116505000I243750J0D01*
G01*
X41489956Y-116505000D01*
G75*
G02*
X41733706Y-116748750I0J-243750D01*
G01*
X41733706Y-117236250D01*
G75*
G02*
X41489956Y-117480000I-243750J0D01*
G01*
G37*
G36*
G01*
X41489956Y-115605000D02*
X40577456Y-115605000D01*
G75*
G02*
X40333706Y-115361250I0J243750D01*
G01*
X40333706Y-114873750D01*
G75*
G02*
X40577456Y-114630000I243750J0D01*
G01*
X41489956Y-114630000D01*
G75*
G02*
X41733706Y-114873750I0J-243750D01*
G01*
X41733706Y-115361250D01*
G75*
G02*
X41489956Y-115605000I-243750J0D01*
G01*
G37*
D14*
X38000000Y-83237500D03*
X38000000Y-92762500D03*
D15*
X43080000Y-90540000D03*
D16*
X41050000Y-89524000D03*
X43080000Y-88508000D03*
X41048000Y-87492000D03*
X43080000Y-86476000D03*
X41050000Y-85460000D03*
D14*
X38000000Y-97237500D03*
X38000000Y-106762500D03*
D15*
X43080000Y-104540000D03*
D16*
X41050000Y-103524000D03*
X43080000Y-102508000D03*
X41048000Y-101492000D03*
X43080000Y-100476000D03*
X41050000Y-99460000D03*
G36*
G01*
X52069800Y-110556800D02*
X52069800Y-109656800D01*
G75*
G02*
X52319800Y-109406800I250000J0D01*
G01*
X52844800Y-109406800D01*
G75*
G02*
X53094800Y-109656800I0J-250000D01*
G01*
X53094800Y-110556800D01*
G75*
G02*
X52844800Y-110806800I-250000J0D01*
G01*
X52319800Y-110806800D01*
G75*
G02*
X52069800Y-110556800I0J250000D01*
G01*
G37*
G36*
G01*
X53894800Y-110556800D02*
X53894800Y-109656800D01*
G75*
G02*
X54144800Y-109406800I250000J0D01*
G01*
X54669800Y-109406800D01*
G75*
G02*
X54919800Y-109656800I0J-250000D01*
G01*
X54919800Y-110556800D01*
G75*
G02*
X54669800Y-110806800I-250000J0D01*
G01*
X54144800Y-110806800D01*
G75*
G02*
X53894800Y-110556800I0J250000D01*
G01*
G37*
G36*
G01*
X54919800Y-111657800D02*
X54919800Y-112557800D01*
G75*
G02*
X54669800Y-112807800I-250000J0D01*
G01*
X54144800Y-112807800D01*
G75*
G02*
X53894800Y-112557800I0J250000D01*
G01*
X53894800Y-111657800D01*
G75*
G02*
X54144800Y-111407800I250000J0D01*
G01*
X54669800Y-111407800D01*
G75*
G02*
X54919800Y-111657800I0J-250000D01*
G01*
G37*
G36*
G01*
X53094800Y-111657800D02*
X53094800Y-112557800D01*
G75*
G02*
X52844800Y-112807800I-250000J0D01*
G01*
X52319800Y-112807800D01*
G75*
G02*
X52069800Y-112557800I0J250000D01*
G01*
X52069800Y-111657800D01*
G75*
G02*
X52319800Y-111407800I250000J0D01*
G01*
X52844800Y-111407800D01*
G75*
G02*
X53094800Y-111657800I0J-250000D01*
G01*
G37*
G36*
G01*
X61727000Y-103225000D02*
X61727000Y-104125000D01*
G75*
G02*
X61477000Y-104375000I-250000J0D01*
G01*
X60952000Y-104375000D01*
G75*
G02*
X60702000Y-104125000I0J250000D01*
G01*
X60702000Y-103225000D01*
G75*
G02*
X60952000Y-102975000I250000J0D01*
G01*
X61477000Y-102975000D01*
G75*
G02*
X61727000Y-103225000I0J-250000D01*
G01*
G37*
G36*
G01*
X59902000Y-103225000D02*
X59902000Y-104125000D01*
G75*
G02*
X59652000Y-104375000I-250000J0D01*
G01*
X59127000Y-104375000D01*
G75*
G02*
X58877000Y-104125000I0J250000D01*
G01*
X58877000Y-103225000D01*
G75*
G02*
X59127000Y-102975000I250000J0D01*
G01*
X59652000Y-102975000D01*
G75*
G02*
X59902000Y-103225000I0J-250000D01*
G01*
G37*
G36*
G01*
X52052500Y-108559000D02*
X52052500Y-107659000D01*
G75*
G02*
X52302500Y-107409000I250000J0D01*
G01*
X52827500Y-107409000D01*
G75*
G02*
X53077500Y-107659000I0J-250000D01*
G01*
X53077500Y-108559000D01*
G75*
G02*
X52827500Y-108809000I-250000J0D01*
G01*
X52302500Y-108809000D01*
G75*
G02*
X52052500Y-108559000I0J250000D01*
G01*
G37*
G36*
G01*
X53877500Y-108559000D02*
X53877500Y-107659000D01*
G75*
G02*
X54127500Y-107409000I250000J0D01*
G01*
X54652500Y-107409000D01*
G75*
G02*
X54902500Y-107659000I0J-250000D01*
G01*
X54902500Y-108559000D01*
G75*
G02*
X54652500Y-108809000I-250000J0D01*
G01*
X54127500Y-108809000D01*
G75*
G02*
X53877500Y-108559000I0J250000D01*
G01*
G37*
G36*
G01*
X54869000Y-105511000D02*
X54869000Y-106411000D01*
G75*
G02*
X54619000Y-106661000I-250000J0D01*
G01*
X54094000Y-106661000D01*
G75*
G02*
X53844000Y-106411000I0J250000D01*
G01*
X53844000Y-105511000D01*
G75*
G02*
X54094000Y-105261000I250000J0D01*
G01*
X54619000Y-105261000D01*
G75*
G02*
X54869000Y-105511000I0J-250000D01*
G01*
G37*
G36*
G01*
X53044000Y-105511000D02*
X53044000Y-106411000D01*
G75*
G02*
X52794000Y-106661000I-250000J0D01*
G01*
X52269000Y-106661000D01*
G75*
G02*
X52019000Y-106411000I0J250000D01*
G01*
X52019000Y-105511000D01*
G75*
G02*
X52269000Y-105261000I250000J0D01*
G01*
X52794000Y-105261000D01*
G75*
G02*
X53044000Y-105511000I0J-250000D01*
G01*
G37*
G36*
G01*
X41483706Y-113591500D02*
X40583706Y-113591500D01*
G75*
G02*
X40333706Y-113341500I0J250000D01*
G01*
X40333706Y-112816500D01*
G75*
G02*
X40583706Y-112566500I250000J0D01*
G01*
X41483706Y-112566500D01*
G75*
G02*
X41733706Y-112816500I0J-250000D01*
G01*
X41733706Y-113341500D01*
G75*
G02*
X41483706Y-113591500I-250000J0D01*
G01*
G37*
G36*
G01*
X41483706Y-111766500D02*
X40583706Y-111766500D01*
G75*
G02*
X40333706Y-111516500I0J250000D01*
G01*
X40333706Y-110991500D01*
G75*
G02*
X40583706Y-110741500I250000J0D01*
G01*
X41483706Y-110741500D01*
G75*
G02*
X41733706Y-110991500I0J-250000D01*
G01*
X41733706Y-111516500D01*
G75*
G02*
X41483706Y-111766500I-250000J0D01*
G01*
G37*
G36*
G01*
X61727500Y-105257000D02*
X61727500Y-106157000D01*
G75*
G02*
X61477500Y-106407000I-250000J0D01*
G01*
X60952500Y-106407000D01*
G75*
G02*
X60702500Y-106157000I0J250000D01*
G01*
X60702500Y-105257000D01*
G75*
G02*
X60952500Y-105007000I250000J0D01*
G01*
X61477500Y-105007000D01*
G75*
G02*
X61727500Y-105257000I0J-250000D01*
G01*
G37*
G36*
G01*
X59902500Y-105257000D02*
X59902500Y-106157000D01*
G75*
G02*
X59652500Y-106407000I-250000J0D01*
G01*
X59127500Y-106407000D01*
G75*
G02*
X58877500Y-106157000I0J250000D01*
G01*
X58877500Y-105257000D01*
G75*
G02*
X59127500Y-105007000I250000J0D01*
G01*
X59652500Y-105007000D01*
G75*
G02*
X59902500Y-105257000I0J-250000D01*
G01*
G37*
G36*
G01*
X44150706Y-113566000D02*
X43250706Y-113566000D01*
G75*
G02*
X43000706Y-113316000I0J250000D01*
G01*
X43000706Y-112791000D01*
G75*
G02*
X43250706Y-112541000I250000J0D01*
G01*
X44150706Y-112541000D01*
G75*
G02*
X44400706Y-112791000I0J-250000D01*
G01*
X44400706Y-113316000D01*
G75*
G02*
X44150706Y-113566000I-250000J0D01*
G01*
G37*
G36*
G01*
X44150706Y-111741000D02*
X43250706Y-111741000D01*
G75*
G02*
X43000706Y-111491000I0J250000D01*
G01*
X43000706Y-110966000D01*
G75*
G02*
X43250706Y-110716000I250000J0D01*
G01*
X44150706Y-110716000D01*
G75*
G02*
X44400706Y-110966000I0J-250000D01*
G01*
X44400706Y-111491000D01*
G75*
G02*
X44150706Y-111741000I-250000J0D01*
G01*
G37*
G36*
G01*
X45790706Y-110716000D02*
X46690706Y-110716000D01*
G75*
G02*
X46940706Y-110966000I0J-250000D01*
G01*
X46940706Y-111491000D01*
G75*
G02*
X46690706Y-111741000I-250000J0D01*
G01*
X45790706Y-111741000D01*
G75*
G02*
X45540706Y-111491000I0J250000D01*
G01*
X45540706Y-110966000D01*
G75*
G02*
X45790706Y-110716000I250000J0D01*
G01*
G37*
G36*
G01*
X45790706Y-112541000D02*
X46690706Y-112541000D01*
G75*
G02*
X46940706Y-112791000I0J-250000D01*
G01*
X46940706Y-113316000D01*
G75*
G02*
X46690706Y-113566000I-250000J0D01*
G01*
X45790706Y-113566000D01*
G75*
G02*
X45540706Y-113316000I0J250000D01*
G01*
X45540706Y-112791000D01*
G75*
G02*
X45790706Y-112541000I250000J0D01*
G01*
G37*
G36*
G01*
X58171000Y-114147000D02*
X58171000Y-115047000D01*
G75*
G02*
X57921000Y-115297000I-250000J0D01*
G01*
X57396000Y-115297000D01*
G75*
G02*
X57146000Y-115047000I0J250000D01*
G01*
X57146000Y-114147000D01*
G75*
G02*
X57396000Y-113897000I250000J0D01*
G01*
X57921000Y-113897000D01*
G75*
G02*
X58171000Y-114147000I0J-250000D01*
G01*
G37*
G36*
G01*
X56346000Y-114147000D02*
X56346000Y-115047000D01*
G75*
G02*
X56096000Y-115297000I-250000J0D01*
G01*
X55571000Y-115297000D01*
G75*
G02*
X55321000Y-115047000I0J250000D01*
G01*
X55321000Y-114147000D01*
G75*
G02*
X55571000Y-113897000I250000J0D01*
G01*
X56096000Y-113897000D01*
G75*
G02*
X56346000Y-114147000I0J-250000D01*
G01*
G37*
G36*
G01*
X58171000Y-116147000D02*
X58171000Y-117047000D01*
G75*
G02*
X57921000Y-117297000I-250000J0D01*
G01*
X57396000Y-117297000D01*
G75*
G02*
X57146000Y-117047000I0J250000D01*
G01*
X57146000Y-116147000D01*
G75*
G02*
X57396000Y-115897000I250000J0D01*
G01*
X57921000Y-115897000D01*
G75*
G02*
X58171000Y-116147000I0J-250000D01*
G01*
G37*
G36*
G01*
X56346000Y-116147000D02*
X56346000Y-117047000D01*
G75*
G02*
X56096000Y-117297000I-250000J0D01*
G01*
X55571000Y-117297000D01*
G75*
G02*
X55321000Y-117047000I0J250000D01*
G01*
X55321000Y-116147000D01*
G75*
G02*
X55571000Y-115897000I250000J0D01*
G01*
X56096000Y-115897000D01*
G75*
G02*
X56346000Y-116147000I0J-250000D01*
G01*
G37*
G36*
G01*
X56940000Y-108354000D02*
X56940000Y-108054000D01*
G75*
G02*
X57090000Y-107904000I150000J0D01*
G01*
X58740000Y-107904000D01*
G75*
G02*
X58890000Y-108054000I0J-150000D01*
G01*
X58890000Y-108354000D01*
G75*
G02*
X58740000Y-108504000I-150000J0D01*
G01*
X57090000Y-108504000D01*
G75*
G02*
X56940000Y-108354000I0J150000D01*
G01*
G37*
G36*
G01*
X56940000Y-109624000D02*
X56940000Y-109324000D01*
G75*
G02*
X57090000Y-109174000I150000J0D01*
G01*
X58740000Y-109174000D01*
G75*
G02*
X58890000Y-109324000I0J-150000D01*
G01*
X58890000Y-109624000D01*
G75*
G02*
X58740000Y-109774000I-150000J0D01*
G01*
X57090000Y-109774000D01*
G75*
G02*
X56940000Y-109624000I0J150000D01*
G01*
G37*
G36*
G01*
X56940000Y-110894000D02*
X56940000Y-110594000D01*
G75*
G02*
X57090000Y-110444000I150000J0D01*
G01*
X58740000Y-110444000D01*
G75*
G02*
X58890000Y-110594000I0J-150000D01*
G01*
X58890000Y-110894000D01*
G75*
G02*
X58740000Y-111044000I-150000J0D01*
G01*
X57090000Y-111044000D01*
G75*
G02*
X56940000Y-110894000I0J150000D01*
G01*
G37*
G36*
G01*
X56940000Y-112164000D02*
X56940000Y-111864000D01*
G75*
G02*
X57090000Y-111714000I150000J0D01*
G01*
X58740000Y-111714000D01*
G75*
G02*
X58890000Y-111864000I0J-150000D01*
G01*
X58890000Y-112164000D01*
G75*
G02*
X58740000Y-112314000I-150000J0D01*
G01*
X57090000Y-112314000D01*
G75*
G02*
X56940000Y-112164000I0J150000D01*
G01*
G37*
G36*
G01*
X61890000Y-112164000D02*
X61890000Y-111864000D01*
G75*
G02*
X62040000Y-111714000I150000J0D01*
G01*
X63690000Y-111714000D01*
G75*
G02*
X63840000Y-111864000I0J-150000D01*
G01*
X63840000Y-112164000D01*
G75*
G02*
X63690000Y-112314000I-150000J0D01*
G01*
X62040000Y-112314000D01*
G75*
G02*
X61890000Y-112164000I0J150000D01*
G01*
G37*
G36*
G01*
X61890000Y-110894000D02*
X61890000Y-110594000D01*
G75*
G02*
X62040000Y-110444000I150000J0D01*
G01*
X63690000Y-110444000D01*
G75*
G02*
X63840000Y-110594000I0J-150000D01*
G01*
X63840000Y-110894000D01*
G75*
G02*
X63690000Y-111044000I-150000J0D01*
G01*
X62040000Y-111044000D01*
G75*
G02*
X61890000Y-110894000I0J150000D01*
G01*
G37*
G36*
G01*
X61890000Y-109624000D02*
X61890000Y-109324000D01*
G75*
G02*
X62040000Y-109174000I150000J0D01*
G01*
X63690000Y-109174000D01*
G75*
G02*
X63840000Y-109324000I0J-150000D01*
G01*
X63840000Y-109624000D01*
G75*
G02*
X63690000Y-109774000I-150000J0D01*
G01*
X62040000Y-109774000D01*
G75*
G02*
X61890000Y-109624000I0J150000D01*
G01*
G37*
G36*
G01*
X61890000Y-108354000D02*
X61890000Y-108054000D01*
G75*
G02*
X62040000Y-107904000I150000J0D01*
G01*
X63690000Y-107904000D01*
G75*
G02*
X63840000Y-108054000I0J-150000D01*
G01*
X63840000Y-108354000D01*
G75*
G02*
X63690000Y-108504000I-150000J0D01*
G01*
X62040000Y-108504000D01*
G75*
G02*
X61890000Y-108354000I0J150000D01*
G01*
G37*
D17*
X35000000Y-75000000D03*
X35000000Y-115000000D03*
X100000000Y-115000000D03*
X100000000Y-75000000D03*
G36*
G01*
X44156956Y-117424500D02*
X43244456Y-117424500D01*
G75*
G02*
X43000706Y-117180750I0J243750D01*
G01*
X43000706Y-116693250D01*
G75*
G02*
X43244456Y-116449500I243750J0D01*
G01*
X44156956Y-116449500D01*
G75*
G02*
X44400706Y-116693250I0J-243750D01*
G01*
X44400706Y-117180750D01*
G75*
G02*
X44156956Y-117424500I-243750J0D01*
G01*
G37*
G36*
G01*
X44156956Y-115549500D02*
X43244456Y-115549500D01*
G75*
G02*
X43000706Y-115305750I0J243750D01*
G01*
X43000706Y-114818250D01*
G75*
G02*
X43244456Y-114574500I243750J0D01*
G01*
X44156956Y-114574500D01*
G75*
G02*
X44400706Y-114818250I0J-243750D01*
G01*
X44400706Y-115305750D01*
G75*
G02*
X44156956Y-115549500I-243750J0D01*
G01*
G37*
G36*
G01*
X47929706Y-114403000D02*
X48229706Y-114403000D01*
G75*
G02*
X48379706Y-114553000I0J-150000D01*
G01*
X48379706Y-115728000D01*
G75*
G02*
X48229706Y-115878000I-150000J0D01*
G01*
X47929706Y-115878000D01*
G75*
G02*
X47779706Y-115728000I0J150000D01*
G01*
X47779706Y-114553000D01*
G75*
G02*
X47929706Y-114403000I150000J0D01*
G01*
G37*
G36*
G01*
X46029706Y-114403000D02*
X46329706Y-114403000D01*
G75*
G02*
X46479706Y-114553000I0J-150000D01*
G01*
X46479706Y-115728000D01*
G75*
G02*
X46329706Y-115878000I-150000J0D01*
G01*
X46029706Y-115878000D01*
G75*
G02*
X45879706Y-115728000I0J150000D01*
G01*
X45879706Y-114553000D01*
G75*
G02*
X46029706Y-114403000I150000J0D01*
G01*
G37*
G36*
G01*
X46979706Y-116278000D02*
X47279706Y-116278000D01*
G75*
G02*
X47429706Y-116428000I0J-150000D01*
G01*
X47429706Y-117603000D01*
G75*
G02*
X47279706Y-117753000I-150000J0D01*
G01*
X46979706Y-117753000D01*
G75*
G02*
X46829706Y-117603000I0J150000D01*
G01*
X46829706Y-116428000D01*
G75*
G02*
X46979706Y-116278000I150000J0D01*
G01*
G37*
G36*
G01*
X54508500Y-116397000D02*
X54508500Y-116697000D01*
G75*
G02*
X54358500Y-116847000I-150000J0D01*
G01*
X53183500Y-116847000D01*
G75*
G02*
X53033500Y-116697000I0J150000D01*
G01*
X53033500Y-116397000D01*
G75*
G02*
X53183500Y-116247000I150000J0D01*
G01*
X54358500Y-116247000D01*
G75*
G02*
X54508500Y-116397000I0J-150000D01*
G01*
G37*
G36*
G01*
X54508500Y-114497000D02*
X54508500Y-114797000D01*
G75*
G02*
X54358500Y-114947000I-150000J0D01*
G01*
X53183500Y-114947000D01*
G75*
G02*
X53033500Y-114797000I0J150000D01*
G01*
X53033500Y-114497000D01*
G75*
G02*
X53183500Y-114347000I150000J0D01*
G01*
X54358500Y-114347000D01*
G75*
G02*
X54508500Y-114497000I0J-150000D01*
G01*
G37*
G36*
G01*
X52633500Y-115447000D02*
X52633500Y-115747000D01*
G75*
G02*
X52483500Y-115897000I-150000J0D01*
G01*
X51308500Y-115897000D01*
G75*
G02*
X51158500Y-115747000I0J150000D01*
G01*
X51158500Y-115447000D01*
G75*
G02*
X51308500Y-115297000I150000J0D01*
G01*
X52483500Y-115297000D01*
G75*
G02*
X52633500Y-115447000I0J-150000D01*
G01*
G37*
G36*
G01*
X64925000Y-85300000D02*
X64925000Y-86200000D01*
G75*
G02*
X64675000Y-86450000I-250000J0D01*
G01*
X64150000Y-86450000D01*
G75*
G02*
X63900000Y-86200000I0J250000D01*
G01*
X63900000Y-85300000D01*
G75*
G02*
X64150000Y-85050000I250000J0D01*
G01*
X64675000Y-85050000D01*
G75*
G02*
X64925000Y-85300000I0J-250000D01*
G01*
G37*
G36*
G01*
X63100000Y-85300000D02*
X63100000Y-86200000D01*
G75*
G02*
X62850000Y-86450000I-250000J0D01*
G01*
X62325000Y-86450000D01*
G75*
G02*
X62075000Y-86200000I0J250000D01*
G01*
X62075000Y-85300000D01*
G75*
G02*
X62325000Y-85050000I250000J0D01*
G01*
X62850000Y-85050000D01*
G75*
G02*
X63100000Y-85300000I0J-250000D01*
G01*
G37*
G36*
G01*
X58151000Y-89849000D02*
X59451000Y-89849000D01*
G75*
G02*
X59701000Y-90099000I0J-250000D01*
G01*
X59701000Y-90749000D01*
G75*
G02*
X59451000Y-90999000I-250000J0D01*
G01*
X58151000Y-90999000D01*
G75*
G02*
X57901000Y-90749000I0J250000D01*
G01*
X57901000Y-90099000D01*
G75*
G02*
X58151000Y-89849000I250000J0D01*
G01*
G37*
G36*
G01*
X58151000Y-92799000D02*
X59451000Y-92799000D01*
G75*
G02*
X59701000Y-93049000I0J-250000D01*
G01*
X59701000Y-93699000D01*
G75*
G02*
X59451000Y-93949000I-250000J0D01*
G01*
X58151000Y-93949000D01*
G75*
G02*
X57901000Y-93699000I0J250000D01*
G01*
X57901000Y-93049000D01*
G75*
G02*
X58151000Y-92799000I250000J0D01*
G01*
G37*
D18*
X92710000Y-117403440D03*
D19*
X92710000Y-114863440D03*
X92710000Y-112323440D03*
X92710000Y-109783440D03*
X92710000Y-107243440D03*
X92710000Y-104703440D03*
X92710000Y-102163440D03*
X92710000Y-99623440D03*
X92710000Y-97083440D03*
X92710000Y-94543440D03*
X92710000Y-92003440D03*
X92710000Y-89463440D03*
X92710000Y-86923440D03*
X92710000Y-84383440D03*
X92710000Y-81843440D03*
X92710000Y-79303440D03*
X92710000Y-76763440D03*
X92710000Y-74223440D03*
X92710000Y-71683440D03*
X67313680Y-71686160D03*
X67313680Y-74226160D03*
X67310000Y-76763440D03*
X67310000Y-79303440D03*
X67310000Y-81843440D03*
X67310000Y-84383440D03*
X67310000Y-86923440D03*
X67310000Y-89463440D03*
X67310000Y-92003440D03*
X67310000Y-94543440D03*
X67310000Y-97083440D03*
X67310000Y-99623440D03*
X67310000Y-102163440D03*
X67310000Y-104703440D03*
X67310000Y-107243440D03*
X67310000Y-109783440D03*
X67310000Y-112323440D03*
X67310000Y-114863440D03*
X67310000Y-117403440D03*
D20*
X60225000Y-83325000D03*
X60225000Y-84175000D03*
X58775000Y-84175000D03*
X58775000Y-83325000D03*
G36*
G01*
X58532000Y-74855000D02*
X59832000Y-74855000D01*
G75*
G02*
X60082000Y-75105000I0J-250000D01*
G01*
X60082000Y-77105000D01*
G75*
G02*
X59832000Y-77355000I-250000J0D01*
G01*
X58532000Y-77355000D01*
G75*
G02*
X58282000Y-77105000I0J250000D01*
G01*
X58282000Y-75105000D01*
G75*
G02*
X58532000Y-74855000I250000J0D01*
G01*
G37*
G36*
G01*
X58532000Y-78855000D02*
X59832000Y-78855000D01*
G75*
G02*
X60082000Y-79105000I0J-250000D01*
G01*
X60082000Y-81105000D01*
G75*
G02*
X59832000Y-81355000I-250000J0D01*
G01*
X58532000Y-81355000D01*
G75*
G02*
X58282000Y-81105000I0J250000D01*
G01*
X58282000Y-79105000D01*
G75*
G02*
X58532000Y-78855000I250000J0D01*
G01*
G37*
G36*
G01*
X45246500Y-77315000D02*
X46146500Y-77315000D01*
G75*
G02*
X46396500Y-77565000I0J-250000D01*
G01*
X46396500Y-78090000D01*
G75*
G02*
X46146500Y-78340000I-250000J0D01*
G01*
X45246500Y-78340000D01*
G75*
G02*
X44996500Y-78090000I0J250000D01*
G01*
X44996500Y-77565000D01*
G75*
G02*
X45246500Y-77315000I250000J0D01*
G01*
G37*
G36*
G01*
X45246500Y-79140000D02*
X46146500Y-79140000D01*
G75*
G02*
X46396500Y-79390000I0J-250000D01*
G01*
X46396500Y-79915000D01*
G75*
G02*
X46146500Y-80165000I-250000J0D01*
G01*
X45246500Y-80165000D01*
G75*
G02*
X44996500Y-79915000I0J250000D01*
G01*
X44996500Y-79390000D01*
G75*
G02*
X45246500Y-79140000I250000J0D01*
G01*
G37*
G36*
G01*
X42977750Y-72870000D02*
X43890250Y-72870000D01*
G75*
G02*
X44134000Y-73113750I0J-243750D01*
G01*
X44134000Y-73601250D01*
G75*
G02*
X43890250Y-73845000I-243750J0D01*
G01*
X42977750Y-73845000D01*
G75*
G02*
X42734000Y-73601250I0J243750D01*
G01*
X42734000Y-73113750D01*
G75*
G02*
X42977750Y-72870000I243750J0D01*
G01*
G37*
G36*
G01*
X42977750Y-74745000D02*
X43890250Y-74745000D01*
G75*
G02*
X44134000Y-74988750I0J-243750D01*
G01*
X44134000Y-75476250D01*
G75*
G02*
X43890250Y-75720000I-243750J0D01*
G01*
X42977750Y-75720000D01*
G75*
G02*
X42734000Y-75476250I0J243750D01*
G01*
X42734000Y-74988750D01*
G75*
G02*
X42977750Y-74745000I243750J0D01*
G01*
G37*
G36*
G01*
X56250000Y-93850000D02*
X56250000Y-95150000D01*
G75*
G02*
X56000000Y-95400000I-250000J0D01*
G01*
X54000000Y-95400000D01*
G75*
G02*
X53750000Y-95150000I0J250000D01*
G01*
X53750000Y-93850000D01*
G75*
G02*
X54000000Y-93600000I250000J0D01*
G01*
X56000000Y-93600000D01*
G75*
G02*
X56250000Y-93850000I0J-250000D01*
G01*
G37*
G36*
G01*
X52250000Y-93850000D02*
X52250000Y-95150000D01*
G75*
G02*
X52000000Y-95400000I-250000J0D01*
G01*
X50000000Y-95400000D01*
G75*
G02*
X49750000Y-95150000I0J250000D01*
G01*
X49750000Y-93850000D01*
G75*
G02*
X50000000Y-93600000I250000J0D01*
G01*
X52000000Y-93600000D01*
G75*
G02*
X52250000Y-93850000I0J-250000D01*
G01*
G37*
D21*
X50645000Y-86081000D03*
X52945000Y-86081000D03*
D22*
X52945000Y-79781000D03*
D21*
X55245000Y-86081000D03*
G36*
G01*
X45263750Y-72870000D02*
X46176250Y-72870000D01*
G75*
G02*
X46420000Y-73113750I0J-243750D01*
G01*
X46420000Y-73601250D01*
G75*
G02*
X46176250Y-73845000I-243750J0D01*
G01*
X45263750Y-73845000D01*
G75*
G02*
X45020000Y-73601250I0J243750D01*
G01*
X45020000Y-73113750D01*
G75*
G02*
X45263750Y-72870000I243750J0D01*
G01*
G37*
G36*
G01*
X45263750Y-74745000D02*
X46176250Y-74745000D01*
G75*
G02*
X46420000Y-74988750I0J-243750D01*
G01*
X46420000Y-75476250D01*
G75*
G02*
X46176250Y-75720000I-243750J0D01*
G01*
X45263750Y-75720000D01*
G75*
G02*
X45020000Y-75476250I0J243750D01*
G01*
X45020000Y-74988750D01*
G75*
G02*
X45263750Y-74745000I243750J0D01*
G01*
G37*
G36*
G01*
X64925000Y-92300000D02*
X64925000Y-93200000D01*
G75*
G02*
X64675000Y-93450000I-250000J0D01*
G01*
X64150000Y-93450000D01*
G75*
G02*
X63900000Y-93200000I0J250000D01*
G01*
X63900000Y-92300000D01*
G75*
G02*
X64150000Y-92050000I250000J0D01*
G01*
X64675000Y-92050000D01*
G75*
G02*
X64925000Y-92300000I0J-250000D01*
G01*
G37*
G36*
G01*
X63100000Y-92300000D02*
X63100000Y-93200000D01*
G75*
G02*
X62850000Y-93450000I-250000J0D01*
G01*
X62325000Y-93450000D01*
G75*
G02*
X62075000Y-93200000I0J250000D01*
G01*
X62075000Y-92300000D01*
G75*
G02*
X62325000Y-92050000I250000J0D01*
G01*
X62850000Y-92050000D01*
G75*
G02*
X63100000Y-92300000I0J-250000D01*
G01*
G37*
G36*
G01*
X56250000Y-89850000D02*
X56250000Y-91150000D01*
G75*
G02*
X56000000Y-91400000I-250000J0D01*
G01*
X54000000Y-91400000D01*
G75*
G02*
X53750000Y-91150000I0J250000D01*
G01*
X53750000Y-89850000D01*
G75*
G02*
X54000000Y-89600000I250000J0D01*
G01*
X56000000Y-89600000D01*
G75*
G02*
X56250000Y-89850000I0J-250000D01*
G01*
G37*
G36*
G01*
X52250000Y-89850000D02*
X52250000Y-91150000D01*
G75*
G02*
X52000000Y-91400000I-250000J0D01*
G01*
X50000000Y-91400000D01*
G75*
G02*
X49750000Y-91150000I0J250000D01*
G01*
X49750000Y-89850000D01*
G75*
G02*
X50000000Y-89600000I250000J0D01*
G01*
X52000000Y-89600000D01*
G75*
G02*
X52250000Y-89850000I0J-250000D01*
G01*
G37*
G36*
G01*
X64925000Y-88800000D02*
X64925000Y-89700000D01*
G75*
G02*
X64675000Y-89950000I-250000J0D01*
G01*
X64150000Y-89950000D01*
G75*
G02*
X63900000Y-89700000I0J250000D01*
G01*
X63900000Y-88800000D01*
G75*
G02*
X64150000Y-88550000I250000J0D01*
G01*
X64675000Y-88550000D01*
G75*
G02*
X64925000Y-88800000I0J-250000D01*
G01*
G37*
G36*
G01*
X63100000Y-88800000D02*
X63100000Y-89700000D01*
G75*
G02*
X62850000Y-89950000I-250000J0D01*
G01*
X62325000Y-89950000D01*
G75*
G02*
X62075000Y-89700000I0J250000D01*
G01*
X62075000Y-88800000D01*
G75*
G02*
X62325000Y-88550000I250000J0D01*
G01*
X62850000Y-88550000D01*
G75*
G02*
X63100000Y-88800000I0J-250000D01*
G01*
G37*
G36*
G01*
X52836000Y-75804000D02*
X52836000Y-77104000D01*
G75*
G02*
X52586000Y-77354000I-250000J0D01*
G01*
X51936000Y-77354000D01*
G75*
G02*
X51686000Y-77104000I0J250000D01*
G01*
X51686000Y-75804000D01*
G75*
G02*
X51936000Y-75554000I250000J0D01*
G01*
X52586000Y-75554000D01*
G75*
G02*
X52836000Y-75804000I0J-250000D01*
G01*
G37*
G36*
G01*
X49886000Y-75804000D02*
X49886000Y-77104000D01*
G75*
G02*
X49636000Y-77354000I-250000J0D01*
G01*
X48986000Y-77354000D01*
G75*
G02*
X48736000Y-77104000I0J250000D01*
G01*
X48736000Y-75804000D01*
G75*
G02*
X48986000Y-75554000I250000J0D01*
G01*
X49636000Y-75554000D01*
G75*
G02*
X49886000Y-75804000I0J-250000D01*
G01*
G37*
G36*
G01*
X42984000Y-77315000D02*
X43884000Y-77315000D01*
G75*
G02*
X44134000Y-77565000I0J-250000D01*
G01*
X44134000Y-78090000D01*
G75*
G02*
X43884000Y-78340000I-250000J0D01*
G01*
X42984000Y-78340000D01*
G75*
G02*
X42734000Y-78090000I0J250000D01*
G01*
X42734000Y-77565000D01*
G75*
G02*
X42984000Y-77315000I250000J0D01*
G01*
G37*
G36*
G01*
X42984000Y-79140000D02*
X43884000Y-79140000D01*
G75*
G02*
X44134000Y-79390000I0J-250000D01*
G01*
X44134000Y-79915000D01*
G75*
G02*
X43884000Y-80165000I-250000J0D01*
G01*
X42984000Y-80165000D01*
G75*
G02*
X42734000Y-79915000I0J250000D01*
G01*
X42734000Y-79390000D01*
G75*
G02*
X42984000Y-79140000I250000J0D01*
G01*
G37*
G36*
G01*
X97200000Y-102175000D02*
X96300000Y-102175000D01*
G75*
G02*
X96050000Y-101925000I0J250000D01*
G01*
X96050000Y-101400000D01*
G75*
G02*
X96300000Y-101150000I250000J0D01*
G01*
X97200000Y-101150000D01*
G75*
G02*
X97450000Y-101400000I0J-250000D01*
G01*
X97450000Y-101925000D01*
G75*
G02*
X97200000Y-102175000I-250000J0D01*
G01*
G37*
G36*
G01*
X97200000Y-100350000D02*
X96300000Y-100350000D01*
G75*
G02*
X96050000Y-100100000I0J250000D01*
G01*
X96050000Y-99575000D01*
G75*
G02*
X96300000Y-99325000I250000J0D01*
G01*
X97200000Y-99325000D01*
G75*
G02*
X97450000Y-99575000I0J-250000D01*
G01*
X97450000Y-100100000D01*
G75*
G02*
X97200000Y-100350000I-250000J0D01*
G01*
G37*
D23*
X100250000Y-86920000D03*
D24*
X100250000Y-89460000D03*
X100250000Y-92000000D03*
X100250000Y-94540000D03*
D25*
X100250000Y-107900000D03*
X100250000Y-100100000D03*
%LPD*%
M02*
