G04 #@! TF.GenerationSoftware,KiCad,Pcbnew,7.0.2.1-36-g582732918d-dirty-deb11*
G04 #@! TF.CreationDate,2023-07-17T11:44:52+00:00*
G04 #@! TF.ProjectId,LocoBuffer,4c6f636f-4275-4666-9665-722e6b696361,0.0.1*
G04 #@! TF.SameCoordinates,Original*
G04 #@! TF.FileFunction,Legend,Bot*
G04 #@! TF.FilePolarity,Positive*
%FSLAX46Y46*%
G04 Gerber Fmt 4.6, Leading zero omitted, Abs format (unit mm)*
G04 Created by KiCad (PCBNEW 7.0.2.1-36-g582732918d-dirty-deb11) date 2023-07-17 11:44:52*
%MOMM*%
%LPD*%
G01*
G04 APERTURE LIST*
%ADD10C,0.150000*%
%ADD11C,0.120000*%
%ADD12C,3.450000*%
%ADD13R,1.398000X1.398000*%
%ADD14C,1.398000*%
%ADD15C,5.700000*%
%ADD16R,2.000000X1.200000*%
%ADD17O,2.000000X1.200000*%
%ADD18R,1.700000X1.700000*%
%ADD19O,1.700000X1.700000*%
G04 APERTURE END LIST*
D10*
X86035714Y-72757619D02*
X86511904Y-72757619D01*
X86511904Y-72757619D02*
X86511904Y-71757619D01*
X85559523Y-72757619D02*
X85654761Y-72710000D01*
X85654761Y-72710000D02*
X85702380Y-72662380D01*
X85702380Y-72662380D02*
X85749999Y-72567142D01*
X85749999Y-72567142D02*
X85749999Y-72281428D01*
X85749999Y-72281428D02*
X85702380Y-72186190D01*
X85702380Y-72186190D02*
X85654761Y-72138571D01*
X85654761Y-72138571D02*
X85559523Y-72090952D01*
X85559523Y-72090952D02*
X85416666Y-72090952D01*
X85416666Y-72090952D02*
X85321428Y-72138571D01*
X85321428Y-72138571D02*
X85273809Y-72186190D01*
X85273809Y-72186190D02*
X85226190Y-72281428D01*
X85226190Y-72281428D02*
X85226190Y-72567142D01*
X85226190Y-72567142D02*
X85273809Y-72662380D01*
X85273809Y-72662380D02*
X85321428Y-72710000D01*
X85321428Y-72710000D02*
X85416666Y-72757619D01*
X85416666Y-72757619D02*
X85559523Y-72757619D01*
X84369047Y-72710000D02*
X84464285Y-72757619D01*
X84464285Y-72757619D02*
X84654761Y-72757619D01*
X84654761Y-72757619D02*
X84749999Y-72710000D01*
X84749999Y-72710000D02*
X84797618Y-72662380D01*
X84797618Y-72662380D02*
X84845237Y-72567142D01*
X84845237Y-72567142D02*
X84845237Y-72281428D01*
X84845237Y-72281428D02*
X84797618Y-72186190D01*
X84797618Y-72186190D02*
X84749999Y-72138571D01*
X84749999Y-72138571D02*
X84654761Y-72090952D01*
X84654761Y-72090952D02*
X84464285Y-72090952D01*
X84464285Y-72090952D02*
X84369047Y-72138571D01*
X83797618Y-72757619D02*
X83892856Y-72710000D01*
X83892856Y-72710000D02*
X83940475Y-72662380D01*
X83940475Y-72662380D02*
X83988094Y-72567142D01*
X83988094Y-72567142D02*
X83988094Y-72281428D01*
X83988094Y-72281428D02*
X83940475Y-72186190D01*
X83940475Y-72186190D02*
X83892856Y-72138571D01*
X83892856Y-72138571D02*
X83797618Y-72090952D01*
X83797618Y-72090952D02*
X83654761Y-72090952D01*
X83654761Y-72090952D02*
X83559523Y-72138571D01*
X83559523Y-72138571D02*
X83511904Y-72186190D01*
X83511904Y-72186190D02*
X83464285Y-72281428D01*
X83464285Y-72281428D02*
X83464285Y-72567142D01*
X83464285Y-72567142D02*
X83511904Y-72662380D01*
X83511904Y-72662380D02*
X83559523Y-72710000D01*
X83559523Y-72710000D02*
X83654761Y-72757619D01*
X83654761Y-72757619D02*
X83797618Y-72757619D01*
X83035713Y-72757619D02*
X83035713Y-71757619D01*
X83035713Y-71757619D02*
X82464285Y-72757619D01*
X82464285Y-72757619D02*
X82464285Y-71757619D01*
X81607142Y-72710000D02*
X81702380Y-72757619D01*
X81702380Y-72757619D02*
X81892856Y-72757619D01*
X81892856Y-72757619D02*
X81988094Y-72710000D01*
X81988094Y-72710000D02*
X82035713Y-72614761D01*
X82035713Y-72614761D02*
X82035713Y-72233809D01*
X82035713Y-72233809D02*
X81988094Y-72138571D01*
X81988094Y-72138571D02*
X81892856Y-72090952D01*
X81892856Y-72090952D02*
X81702380Y-72090952D01*
X81702380Y-72090952D02*
X81607142Y-72138571D01*
X81607142Y-72138571D02*
X81559523Y-72233809D01*
X81559523Y-72233809D02*
X81559523Y-72329047D01*
X81559523Y-72329047D02*
X82035713Y-72424285D01*
X81273808Y-72090952D02*
X80892856Y-72090952D01*
X81130951Y-71757619D02*
X81130951Y-72614761D01*
X81130951Y-72614761D02*
X81083332Y-72710000D01*
X81083332Y-72710000D02*
X80988094Y-72757619D01*
X80988094Y-72757619D02*
X80892856Y-72757619D01*
X79464284Y-72233809D02*
X79321427Y-72281428D01*
X79321427Y-72281428D02*
X79273808Y-72329047D01*
X79273808Y-72329047D02*
X79226189Y-72424285D01*
X79226189Y-72424285D02*
X79226189Y-72567142D01*
X79226189Y-72567142D02*
X79273808Y-72662380D01*
X79273808Y-72662380D02*
X79321427Y-72710000D01*
X79321427Y-72710000D02*
X79416665Y-72757619D01*
X79416665Y-72757619D02*
X79797617Y-72757619D01*
X79797617Y-72757619D02*
X79797617Y-71757619D01*
X79797617Y-71757619D02*
X79464284Y-71757619D01*
X79464284Y-71757619D02*
X79369046Y-71805238D01*
X79369046Y-71805238D02*
X79321427Y-71852857D01*
X79321427Y-71852857D02*
X79273808Y-71948095D01*
X79273808Y-71948095D02*
X79273808Y-72043333D01*
X79273808Y-72043333D02*
X79321427Y-72138571D01*
X79321427Y-72138571D02*
X79369046Y-72186190D01*
X79369046Y-72186190D02*
X79464284Y-72233809D01*
X79464284Y-72233809D02*
X79797617Y-72233809D01*
X78369046Y-72090952D02*
X78369046Y-72757619D01*
X78797617Y-72090952D02*
X78797617Y-72614761D01*
X78797617Y-72614761D02*
X78749998Y-72710000D01*
X78749998Y-72710000D02*
X78654760Y-72757619D01*
X78654760Y-72757619D02*
X78511903Y-72757619D01*
X78511903Y-72757619D02*
X78416665Y-72710000D01*
X78416665Y-72710000D02*
X78369046Y-72662380D01*
X78035712Y-72090952D02*
X77654760Y-72090952D01*
X77892855Y-72757619D02*
X77892855Y-71900476D01*
X77892855Y-71900476D02*
X77845236Y-71805238D01*
X77845236Y-71805238D02*
X77749998Y-71757619D01*
X77749998Y-71757619D02*
X77654760Y-71757619D01*
X77464283Y-72090952D02*
X77083331Y-72090952D01*
X77321426Y-72757619D02*
X77321426Y-71900476D01*
X77321426Y-71900476D02*
X77273807Y-71805238D01*
X77273807Y-71805238D02*
X77178569Y-71757619D01*
X77178569Y-71757619D02*
X77083331Y-71757619D01*
X76369045Y-72710000D02*
X76464283Y-72757619D01*
X76464283Y-72757619D02*
X76654759Y-72757619D01*
X76654759Y-72757619D02*
X76749997Y-72710000D01*
X76749997Y-72710000D02*
X76797616Y-72614761D01*
X76797616Y-72614761D02*
X76797616Y-72233809D01*
X76797616Y-72233809D02*
X76749997Y-72138571D01*
X76749997Y-72138571D02*
X76654759Y-72090952D01*
X76654759Y-72090952D02*
X76464283Y-72090952D01*
X76464283Y-72090952D02*
X76369045Y-72138571D01*
X76369045Y-72138571D02*
X76321426Y-72233809D01*
X76321426Y-72233809D02*
X76321426Y-72329047D01*
X76321426Y-72329047D02*
X76797616Y-72424285D01*
X75892854Y-72757619D02*
X75892854Y-72090952D01*
X75892854Y-72281428D02*
X75845235Y-72186190D01*
X75845235Y-72186190D02*
X75797616Y-72138571D01*
X75797616Y-72138571D02*
X75702378Y-72090952D01*
X75702378Y-72090952D02*
X75607140Y-72090952D01*
X74511901Y-72233809D02*
X74178568Y-72233809D01*
X74035711Y-72757619D02*
X74511901Y-72757619D01*
X74511901Y-72757619D02*
X74511901Y-71757619D01*
X74511901Y-71757619D02*
X74035711Y-71757619D01*
X73654758Y-72710000D02*
X73511901Y-72757619D01*
X73511901Y-72757619D02*
X73273806Y-72757619D01*
X73273806Y-72757619D02*
X73178568Y-72710000D01*
X73178568Y-72710000D02*
X73130949Y-72662380D01*
X73130949Y-72662380D02*
X73083330Y-72567142D01*
X73083330Y-72567142D02*
X73083330Y-72471904D01*
X73083330Y-72471904D02*
X73130949Y-72376666D01*
X73130949Y-72376666D02*
X73178568Y-72329047D01*
X73178568Y-72329047D02*
X73273806Y-72281428D01*
X73273806Y-72281428D02*
X73464282Y-72233809D01*
X73464282Y-72233809D02*
X73559520Y-72186190D01*
X73559520Y-72186190D02*
X73607139Y-72138571D01*
X73607139Y-72138571D02*
X73654758Y-72043333D01*
X73654758Y-72043333D02*
X73654758Y-71948095D01*
X73654758Y-71948095D02*
X73607139Y-71852857D01*
X73607139Y-71852857D02*
X73559520Y-71805238D01*
X73559520Y-71805238D02*
X73464282Y-71757619D01*
X73464282Y-71757619D02*
X73226187Y-71757619D01*
X73226187Y-71757619D02*
X73083330Y-71805238D01*
X72654758Y-72757619D02*
X72654758Y-71757619D01*
X72654758Y-71757619D02*
X72273806Y-71757619D01*
X72273806Y-71757619D02*
X72178568Y-71805238D01*
X72178568Y-71805238D02*
X72130949Y-71852857D01*
X72130949Y-71852857D02*
X72083330Y-71948095D01*
X72083330Y-71948095D02*
X72083330Y-72090952D01*
X72083330Y-72090952D02*
X72130949Y-72186190D01*
X72130949Y-72186190D02*
X72178568Y-72233809D01*
X72178568Y-72233809D02*
X72273806Y-72281428D01*
X72273806Y-72281428D02*
X72654758Y-72281428D01*
X71749996Y-71757619D02*
X71130949Y-71757619D01*
X71130949Y-71757619D02*
X71464282Y-72138571D01*
X71464282Y-72138571D02*
X71321425Y-72138571D01*
X71321425Y-72138571D02*
X71226187Y-72186190D01*
X71226187Y-72186190D02*
X71178568Y-72233809D01*
X71178568Y-72233809D02*
X71130949Y-72329047D01*
X71130949Y-72329047D02*
X71130949Y-72567142D01*
X71130949Y-72567142D02*
X71178568Y-72662380D01*
X71178568Y-72662380D02*
X71226187Y-72710000D01*
X71226187Y-72710000D02*
X71321425Y-72757619D01*
X71321425Y-72757619D02*
X71607139Y-72757619D01*
X71607139Y-72757619D02*
X71702377Y-72710000D01*
X71702377Y-72710000D02*
X71749996Y-72662380D01*
X70749996Y-71852857D02*
X70702377Y-71805238D01*
X70702377Y-71805238D02*
X70607139Y-71757619D01*
X70607139Y-71757619D02*
X70369044Y-71757619D01*
X70369044Y-71757619D02*
X70273806Y-71805238D01*
X70273806Y-71805238D02*
X70226187Y-71852857D01*
X70226187Y-71852857D02*
X70178568Y-71948095D01*
X70178568Y-71948095D02*
X70178568Y-72043333D01*
X70178568Y-72043333D02*
X70226187Y-72186190D01*
X70226187Y-72186190D02*
X70797615Y-72757619D01*
X70797615Y-72757619D02*
X70178568Y-72757619D01*
X86654761Y-73377619D02*
X86321428Y-74377619D01*
X86321428Y-74377619D02*
X85988095Y-73377619D01*
X84702380Y-73377619D02*
X84607142Y-73377619D01*
X84607142Y-73377619D02*
X84511904Y-73425238D01*
X84511904Y-73425238D02*
X84464285Y-73472857D01*
X84464285Y-73472857D02*
X84416666Y-73568095D01*
X84416666Y-73568095D02*
X84369047Y-73758571D01*
X84369047Y-73758571D02*
X84369047Y-73996666D01*
X84369047Y-73996666D02*
X84416666Y-74187142D01*
X84416666Y-74187142D02*
X84464285Y-74282380D01*
X84464285Y-74282380D02*
X84511904Y-74330000D01*
X84511904Y-74330000D02*
X84607142Y-74377619D01*
X84607142Y-74377619D02*
X84702380Y-74377619D01*
X84702380Y-74377619D02*
X84797618Y-74330000D01*
X84797618Y-74330000D02*
X84845237Y-74282380D01*
X84845237Y-74282380D02*
X84892856Y-74187142D01*
X84892856Y-74187142D02*
X84940475Y-73996666D01*
X84940475Y-73996666D02*
X84940475Y-73758571D01*
X84940475Y-73758571D02*
X84892856Y-73568095D01*
X84892856Y-73568095D02*
X84845237Y-73472857D01*
X84845237Y-73472857D02*
X84797618Y-73425238D01*
X84797618Y-73425238D02*
X84702380Y-73377619D01*
X83940475Y-74282380D02*
X83892856Y-74330000D01*
X83892856Y-74330000D02*
X83940475Y-74377619D01*
X83940475Y-74377619D02*
X83988094Y-74330000D01*
X83988094Y-74330000D02*
X83940475Y-74282380D01*
X83940475Y-74282380D02*
X83940475Y-74377619D01*
X83273809Y-73377619D02*
X83178571Y-73377619D01*
X83178571Y-73377619D02*
X83083333Y-73425238D01*
X83083333Y-73425238D02*
X83035714Y-73472857D01*
X83035714Y-73472857D02*
X82988095Y-73568095D01*
X82988095Y-73568095D02*
X82940476Y-73758571D01*
X82940476Y-73758571D02*
X82940476Y-73996666D01*
X82940476Y-73996666D02*
X82988095Y-74187142D01*
X82988095Y-74187142D02*
X83035714Y-74282380D01*
X83035714Y-74282380D02*
X83083333Y-74330000D01*
X83083333Y-74330000D02*
X83178571Y-74377619D01*
X83178571Y-74377619D02*
X83273809Y-74377619D01*
X83273809Y-74377619D02*
X83369047Y-74330000D01*
X83369047Y-74330000D02*
X83416666Y-74282380D01*
X83416666Y-74282380D02*
X83464285Y-74187142D01*
X83464285Y-74187142D02*
X83511904Y-73996666D01*
X83511904Y-73996666D02*
X83511904Y-73758571D01*
X83511904Y-73758571D02*
X83464285Y-73568095D01*
X83464285Y-73568095D02*
X83416666Y-73472857D01*
X83416666Y-73472857D02*
X83369047Y-73425238D01*
X83369047Y-73425238D02*
X83273809Y-73377619D01*
X82511904Y-74282380D02*
X82464285Y-74330000D01*
X82464285Y-74330000D02*
X82511904Y-74377619D01*
X82511904Y-74377619D02*
X82559523Y-74330000D01*
X82559523Y-74330000D02*
X82511904Y-74282380D01*
X82511904Y-74282380D02*
X82511904Y-74377619D01*
X81511905Y-74377619D02*
X82083333Y-74377619D01*
X81797619Y-74377619D02*
X81797619Y-73377619D01*
X81797619Y-73377619D02*
X81892857Y-73520476D01*
X81892857Y-73520476D02*
X81988095Y-73615714D01*
X81988095Y-73615714D02*
X82083333Y-73663333D01*
X78167761Y-79436977D02*
X78167761Y-80044120D01*
X78167761Y-80044120D02*
X78208238Y-80165548D01*
X78208238Y-80165548D02*
X78289190Y-80246501D01*
X78289190Y-80246501D02*
X78410619Y-80286977D01*
X78410619Y-80286977D02*
X78491571Y-80286977D01*
X77358238Y-80286977D02*
X77763000Y-80286977D01*
X77763000Y-80286977D02*
X77763000Y-79436977D01*
X76589190Y-80206024D02*
X76629666Y-80246501D01*
X76629666Y-80246501D02*
X76751095Y-80286977D01*
X76751095Y-80286977D02*
X76832047Y-80286977D01*
X76832047Y-80286977D02*
X76953476Y-80246501D01*
X76953476Y-80246501D02*
X77034428Y-80165548D01*
X77034428Y-80165548D02*
X77074905Y-80084596D01*
X77074905Y-80084596D02*
X77115381Y-79922691D01*
X77115381Y-79922691D02*
X77115381Y-79801262D01*
X77115381Y-79801262D02*
X77074905Y-79639358D01*
X77074905Y-79639358D02*
X77034428Y-79558405D01*
X77034428Y-79558405D02*
X76953476Y-79477453D01*
X76953476Y-79477453D02*
X76832047Y-79436977D01*
X76832047Y-79436977D02*
X76751095Y-79436977D01*
X76751095Y-79436977D02*
X76629666Y-79477453D01*
X76629666Y-79477453D02*
X76589190Y-79517929D01*
X75982047Y-79436977D02*
X75982047Y-80044120D01*
X75982047Y-80044120D02*
X76022524Y-80165548D01*
X76022524Y-80165548D02*
X76103476Y-80246501D01*
X76103476Y-80246501D02*
X76224905Y-80286977D01*
X76224905Y-80286977D02*
X76305857Y-80286977D01*
X75172524Y-80286977D02*
X75577286Y-80286977D01*
X75577286Y-80286977D02*
X75577286Y-79436977D01*
X74403476Y-80206024D02*
X74443952Y-80246501D01*
X74443952Y-80246501D02*
X74565381Y-80286977D01*
X74565381Y-80286977D02*
X74646333Y-80286977D01*
X74646333Y-80286977D02*
X74767762Y-80246501D01*
X74767762Y-80246501D02*
X74848714Y-80165548D01*
X74848714Y-80165548D02*
X74889191Y-80084596D01*
X74889191Y-80084596D02*
X74929667Y-79922691D01*
X74929667Y-79922691D02*
X74929667Y-79801262D01*
X74929667Y-79801262D02*
X74889191Y-79639358D01*
X74889191Y-79639358D02*
X74848714Y-79558405D01*
X74848714Y-79558405D02*
X74767762Y-79477453D01*
X74767762Y-79477453D02*
X74646333Y-79436977D01*
X74646333Y-79436977D02*
X74565381Y-79436977D01*
X74565381Y-79436977D02*
X74443952Y-79477453D01*
X74443952Y-79477453D02*
X74403476Y-79517929D01*
X73796333Y-79436977D02*
X73796333Y-80044120D01*
X73796333Y-80044120D02*
X73836810Y-80165548D01*
X73836810Y-80165548D02*
X73917762Y-80246501D01*
X73917762Y-80246501D02*
X74039191Y-80286977D01*
X74039191Y-80286977D02*
X74120143Y-80286977D01*
X72986810Y-80286977D02*
X73391572Y-80286977D01*
X73391572Y-80286977D02*
X73391572Y-79436977D01*
X72217762Y-80206024D02*
X72258238Y-80246501D01*
X72258238Y-80246501D02*
X72379667Y-80286977D01*
X72379667Y-80286977D02*
X72460619Y-80286977D01*
X72460619Y-80286977D02*
X72582048Y-80246501D01*
X72582048Y-80246501D02*
X72663000Y-80165548D01*
X72663000Y-80165548D02*
X72703477Y-80084596D01*
X72703477Y-80084596D02*
X72743953Y-79922691D01*
X72743953Y-79922691D02*
X72743953Y-79801262D01*
X72743953Y-79801262D02*
X72703477Y-79639358D01*
X72703477Y-79639358D02*
X72663000Y-79558405D01*
X72663000Y-79558405D02*
X72582048Y-79477453D01*
X72582048Y-79477453D02*
X72460619Y-79436977D01*
X72460619Y-79436977D02*
X72379667Y-79436977D01*
X72379667Y-79436977D02*
X72258238Y-79477453D01*
X72258238Y-79477453D02*
X72217762Y-79517929D01*
X71610619Y-79436977D02*
X71610619Y-80044120D01*
X71610619Y-80044120D02*
X71651096Y-80165548D01*
X71651096Y-80165548D02*
X71732048Y-80246501D01*
X71732048Y-80246501D02*
X71853477Y-80286977D01*
X71853477Y-80286977D02*
X71934429Y-80286977D01*
X70801096Y-80286977D02*
X71205858Y-80286977D01*
X71205858Y-80286977D02*
X71205858Y-79436977D01*
X70032048Y-80206024D02*
X70072524Y-80246501D01*
X70072524Y-80246501D02*
X70193953Y-80286977D01*
X70193953Y-80286977D02*
X70274905Y-80286977D01*
X70274905Y-80286977D02*
X70396334Y-80246501D01*
X70396334Y-80246501D02*
X70477286Y-80165548D01*
X70477286Y-80165548D02*
X70517763Y-80084596D01*
X70517763Y-80084596D02*
X70558239Y-79922691D01*
X70558239Y-79922691D02*
X70558239Y-79801262D01*
X70558239Y-79801262D02*
X70517763Y-79639358D01*
X70517763Y-79639358D02*
X70477286Y-79558405D01*
X70477286Y-79558405D02*
X70396334Y-79477453D01*
X70396334Y-79477453D02*
X70274905Y-79436977D01*
X70274905Y-79436977D02*
X70193953Y-79436977D01*
X70193953Y-79436977D02*
X70072524Y-79477453D01*
X70072524Y-79477453D02*
X70032048Y-79517929D01*
X53583333Y-86962619D02*
X53583333Y-87676904D01*
X53583333Y-87676904D02*
X53630952Y-87819761D01*
X53630952Y-87819761D02*
X53726190Y-87915000D01*
X53726190Y-87915000D02*
X53869047Y-87962619D01*
X53869047Y-87962619D02*
X53964285Y-87962619D01*
X53107142Y-87962619D02*
X53107142Y-86962619D01*
X53107142Y-86962619D02*
X52726190Y-86962619D01*
X52726190Y-86962619D02*
X52630952Y-87010238D01*
X52630952Y-87010238D02*
X52583333Y-87057857D01*
X52583333Y-87057857D02*
X52535714Y-87153095D01*
X52535714Y-87153095D02*
X52535714Y-87295952D01*
X52535714Y-87295952D02*
X52583333Y-87391190D01*
X52583333Y-87391190D02*
X52630952Y-87438809D01*
X52630952Y-87438809D02*
X52726190Y-87486428D01*
X52726190Y-87486428D02*
X53107142Y-87486428D01*
X52154761Y-87057857D02*
X52107142Y-87010238D01*
X52107142Y-87010238D02*
X52011904Y-86962619D01*
X52011904Y-86962619D02*
X51773809Y-86962619D01*
X51773809Y-86962619D02*
X51678571Y-87010238D01*
X51678571Y-87010238D02*
X51630952Y-87057857D01*
X51630952Y-87057857D02*
X51583333Y-87153095D01*
X51583333Y-87153095D02*
X51583333Y-87248333D01*
X51583333Y-87248333D02*
X51630952Y-87391190D01*
X51630952Y-87391190D02*
X52202380Y-87962619D01*
X52202380Y-87962619D02*
X51583333Y-87962619D01*
X53583333Y-92462619D02*
X53583333Y-93176904D01*
X53583333Y-93176904D02*
X53630952Y-93319761D01*
X53630952Y-93319761D02*
X53726190Y-93415000D01*
X53726190Y-93415000D02*
X53869047Y-93462619D01*
X53869047Y-93462619D02*
X53964285Y-93462619D01*
X53107142Y-93462619D02*
X53107142Y-92462619D01*
X53107142Y-92462619D02*
X52726190Y-92462619D01*
X52726190Y-92462619D02*
X52630952Y-92510238D01*
X52630952Y-92510238D02*
X52583333Y-92557857D01*
X52583333Y-92557857D02*
X52535714Y-92653095D01*
X52535714Y-92653095D02*
X52535714Y-92795952D01*
X52535714Y-92795952D02*
X52583333Y-92891190D01*
X52583333Y-92891190D02*
X52630952Y-92938809D01*
X52630952Y-92938809D02*
X52726190Y-92986428D01*
X52726190Y-92986428D02*
X53107142Y-92986428D01*
X51583333Y-93462619D02*
X52154761Y-93462619D01*
X51869047Y-93462619D02*
X51869047Y-92462619D01*
X51869047Y-92462619D02*
X51964285Y-92605476D01*
X51964285Y-92605476D02*
X52059523Y-92700714D01*
X52059523Y-92700714D02*
X52154761Y-92748333D01*
D11*
X52450000Y-91250000D02*
X53050000Y-91250000D01*
X53750000Y-90550000D02*
X53750000Y-89150000D01*
X51750000Y-89150000D02*
X51750000Y-90550000D01*
X53050000Y-88450000D02*
X52450000Y-88450000D01*
X51750000Y-90550000D02*
G75*
G03*
X52450000Y-91250000I699999J-1D01*
G01*
X53050000Y-91250000D02*
G75*
G03*
X53750000Y-90550000I1J699999D01*
G01*
X52450000Y-88450000D02*
G75*
G03*
X51750000Y-89150000I0J-700000D01*
G01*
X53750000Y-89150000D02*
G75*
G03*
X53050000Y-88450000I-700000J0D01*
G01*
X53050000Y-93850000D02*
X52450000Y-93850000D01*
X51750000Y-94550000D02*
X51750000Y-95950000D01*
X53750000Y-95950000D02*
X53750000Y-94550000D01*
X52450000Y-96650000D02*
X53050000Y-96650000D01*
X53750000Y-94550000D02*
G75*
G03*
X53050000Y-93850000I-699999J1D01*
G01*
X52450000Y-93850000D02*
G75*
G03*
X51750000Y-94550000I-1J-699999D01*
G01*
X53050000Y-96650000D02*
G75*
G03*
X53750000Y-95950000I0J700000D01*
G01*
X51750000Y-95950000D02*
G75*
G03*
X52450000Y-96650000I700000J0D01*
G01*
%LPC*%
D12*
X38000000Y-83237500D03*
X38000000Y-92762500D03*
D13*
X43080000Y-90540000D03*
D14*
X41050000Y-89524000D03*
X43080000Y-88508000D03*
X41048000Y-87492000D03*
X43080000Y-86476000D03*
X41050000Y-85460000D03*
D12*
X38000000Y-97237500D03*
X38000000Y-106762500D03*
D13*
X43080000Y-104540000D03*
D14*
X41050000Y-103524000D03*
X43080000Y-102508000D03*
X41048000Y-101492000D03*
X43080000Y-100476000D03*
X41050000Y-99460000D03*
D15*
X35000000Y-75000000D03*
X35000000Y-115000000D03*
X100000000Y-115000000D03*
X100000000Y-75000000D03*
D16*
X92710000Y-117403440D03*
D17*
X92710000Y-114863440D03*
X92710000Y-112323440D03*
X92710000Y-109783440D03*
X92710000Y-107243440D03*
X92710000Y-104703440D03*
X92710000Y-102163440D03*
X92710000Y-99623440D03*
X92710000Y-97083440D03*
X92710000Y-94543440D03*
X92710000Y-92003440D03*
X92710000Y-89463440D03*
X92710000Y-86923440D03*
X92710000Y-84383440D03*
X92710000Y-81843440D03*
X92710000Y-79303440D03*
X92710000Y-76763440D03*
X92710000Y-74223440D03*
X92710000Y-71683440D03*
X67313680Y-71686160D03*
X67313680Y-74226160D03*
X67310000Y-76763440D03*
X67310000Y-79303440D03*
X67310000Y-81843440D03*
X67310000Y-84383440D03*
X67310000Y-86923440D03*
X67310000Y-89463440D03*
X67310000Y-92003440D03*
X67310000Y-94543440D03*
X67310000Y-97083440D03*
X67310000Y-99623440D03*
X67310000Y-102163440D03*
X67310000Y-104703440D03*
X67310000Y-107243440D03*
X67310000Y-109783440D03*
X67310000Y-112323440D03*
X67310000Y-114863440D03*
X67310000Y-117403440D03*
D18*
X100250000Y-86920000D03*
D19*
X100250000Y-89460000D03*
X100250000Y-92000000D03*
X100250000Y-94540000D03*
G36*
X53500000Y-90000000D02*
G01*
X53500000Y-90500000D01*
X53494911Y-90500000D01*
X53494911Y-90571157D01*
X53454816Y-90707708D01*
X53377875Y-90827430D01*
X53270320Y-90920627D01*
X53140866Y-90979746D01*
X53000000Y-91000000D01*
X52500000Y-91000000D01*
X52359134Y-90979746D01*
X52229680Y-90920627D01*
X52122125Y-90827430D01*
X52045184Y-90707708D01*
X52005089Y-90571157D01*
X52005089Y-90500000D01*
X52000000Y-90500000D01*
X52000000Y-90000000D01*
X53500000Y-90000000D01*
G37*
G36*
X52005089Y-89200000D02*
G01*
X52005089Y-89128843D01*
X52045184Y-88992292D01*
X52122125Y-88872570D01*
X52229680Y-88779373D01*
X52359134Y-88720254D01*
X52500000Y-88700000D01*
X53000000Y-88700000D01*
X53140866Y-88720254D01*
X53270320Y-88779373D01*
X53377875Y-88872570D01*
X53454816Y-88992292D01*
X53494911Y-89128843D01*
X53494911Y-89200000D01*
X53500000Y-89200000D01*
X53500000Y-89700000D01*
X52000000Y-89700000D01*
X52000000Y-89200000D01*
X52005089Y-89200000D01*
G37*
G36*
X52000000Y-95100000D02*
G01*
X52000000Y-94600000D01*
X52005089Y-94600000D01*
X52005089Y-94528843D01*
X52045184Y-94392292D01*
X52122125Y-94272570D01*
X52229680Y-94179373D01*
X52359134Y-94120254D01*
X52500000Y-94100000D01*
X53000000Y-94100000D01*
X53140866Y-94120254D01*
X53270320Y-94179373D01*
X53377875Y-94272570D01*
X53454816Y-94392292D01*
X53494911Y-94528843D01*
X53494911Y-94600000D01*
X53500000Y-94600000D01*
X53500000Y-95100000D01*
X52000000Y-95100000D01*
G37*
G36*
X53494911Y-95900000D02*
G01*
X53494911Y-95971157D01*
X53454816Y-96107708D01*
X53377875Y-96227430D01*
X53270320Y-96320627D01*
X53140866Y-96379746D01*
X53000000Y-96400000D01*
X52500000Y-96400000D01*
X52359134Y-96379746D01*
X52229680Y-96320627D01*
X52122125Y-96227430D01*
X52045184Y-96107708D01*
X52005089Y-95971157D01*
X52005089Y-95900000D01*
X52000000Y-95900000D01*
X52000000Y-95400000D01*
X53500000Y-95400000D01*
X53500000Y-95900000D01*
X53494911Y-95900000D01*
G37*
%LPD*%
M02*
