G04 #@! TF.GenerationSoftware,KiCad,Pcbnew,7.0.7-7.0.7~ubuntu23.04.1*
G04 #@! TF.CreationDate,2023-08-18T10:36:28+00:00*
G04 #@! TF.ProjectId,LocoBuffer,4c6f636f-4275-4666-9665-722e6b696361,0.0.1*
G04 #@! TF.SameCoordinates,Original*
G04 #@! TF.FileFunction,Legend,Bot*
G04 #@! TF.FilePolarity,Positive*
%FSLAX46Y46*%
G04 Gerber Fmt 4.6, Leading zero omitted, Abs format (unit mm)*
G04 Created by KiCad (PCBNEW 7.0.7-7.0.7~ubuntu23.04.1) date 2023-08-18 10:36:28*
%MOMM*%
%LPD*%
G01*
G04 APERTURE LIST*
%ADD10C,0.150000*%
%ADD11C,0.120000*%
%ADD12C,3.450000*%
%ADD13R,1.398000X1.398000*%
%ADD14C,1.398000*%
%ADD15C,5.700000*%
%ADD16R,2.000000X1.200000*%
%ADD17O,2.000000X1.200000*%
%ADD18O,1.600000X2.000000*%
G04 APERTURE END LIST*
D10*
X85937030Y-72759819D02*
X86413220Y-72759819D01*
X86413220Y-72759819D02*
X86413220Y-71759819D01*
X85460839Y-72759819D02*
X85556077Y-72712200D01*
X85556077Y-72712200D02*
X85603696Y-72664580D01*
X85603696Y-72664580D02*
X85651315Y-72569342D01*
X85651315Y-72569342D02*
X85651315Y-72283628D01*
X85651315Y-72283628D02*
X85603696Y-72188390D01*
X85603696Y-72188390D02*
X85556077Y-72140771D01*
X85556077Y-72140771D02*
X85460839Y-72093152D01*
X85460839Y-72093152D02*
X85317982Y-72093152D01*
X85317982Y-72093152D02*
X85222744Y-72140771D01*
X85222744Y-72140771D02*
X85175125Y-72188390D01*
X85175125Y-72188390D02*
X85127506Y-72283628D01*
X85127506Y-72283628D02*
X85127506Y-72569342D01*
X85127506Y-72569342D02*
X85175125Y-72664580D01*
X85175125Y-72664580D02*
X85222744Y-72712200D01*
X85222744Y-72712200D02*
X85317982Y-72759819D01*
X85317982Y-72759819D02*
X85460839Y-72759819D01*
X84270363Y-72712200D02*
X84365601Y-72759819D01*
X84365601Y-72759819D02*
X84556077Y-72759819D01*
X84556077Y-72759819D02*
X84651315Y-72712200D01*
X84651315Y-72712200D02*
X84698934Y-72664580D01*
X84698934Y-72664580D02*
X84746553Y-72569342D01*
X84746553Y-72569342D02*
X84746553Y-72283628D01*
X84746553Y-72283628D02*
X84698934Y-72188390D01*
X84698934Y-72188390D02*
X84651315Y-72140771D01*
X84651315Y-72140771D02*
X84556077Y-72093152D01*
X84556077Y-72093152D02*
X84365601Y-72093152D01*
X84365601Y-72093152D02*
X84270363Y-72140771D01*
X83698934Y-72759819D02*
X83794172Y-72712200D01*
X83794172Y-72712200D02*
X83841791Y-72664580D01*
X83841791Y-72664580D02*
X83889410Y-72569342D01*
X83889410Y-72569342D02*
X83889410Y-72283628D01*
X83889410Y-72283628D02*
X83841791Y-72188390D01*
X83841791Y-72188390D02*
X83794172Y-72140771D01*
X83794172Y-72140771D02*
X83698934Y-72093152D01*
X83698934Y-72093152D02*
X83556077Y-72093152D01*
X83556077Y-72093152D02*
X83460839Y-72140771D01*
X83460839Y-72140771D02*
X83413220Y-72188390D01*
X83413220Y-72188390D02*
X83365601Y-72283628D01*
X83365601Y-72283628D02*
X83365601Y-72569342D01*
X83365601Y-72569342D02*
X83413220Y-72664580D01*
X83413220Y-72664580D02*
X83460839Y-72712200D01*
X83460839Y-72712200D02*
X83556077Y-72759819D01*
X83556077Y-72759819D02*
X83698934Y-72759819D01*
X82937029Y-72759819D02*
X82937029Y-71759819D01*
X82937029Y-71759819D02*
X82365601Y-72759819D01*
X82365601Y-72759819D02*
X82365601Y-71759819D01*
X81508458Y-72712200D02*
X81603696Y-72759819D01*
X81603696Y-72759819D02*
X81794172Y-72759819D01*
X81794172Y-72759819D02*
X81889410Y-72712200D01*
X81889410Y-72712200D02*
X81937029Y-72616961D01*
X81937029Y-72616961D02*
X81937029Y-72236009D01*
X81937029Y-72236009D02*
X81889410Y-72140771D01*
X81889410Y-72140771D02*
X81794172Y-72093152D01*
X81794172Y-72093152D02*
X81603696Y-72093152D01*
X81603696Y-72093152D02*
X81508458Y-72140771D01*
X81508458Y-72140771D02*
X81460839Y-72236009D01*
X81460839Y-72236009D02*
X81460839Y-72331247D01*
X81460839Y-72331247D02*
X81937029Y-72426485D01*
X81175124Y-72093152D02*
X80794172Y-72093152D01*
X81032267Y-71759819D02*
X81032267Y-72616961D01*
X81032267Y-72616961D02*
X80984648Y-72712200D01*
X80984648Y-72712200D02*
X80889410Y-72759819D01*
X80889410Y-72759819D02*
X80794172Y-72759819D01*
X79365600Y-72236009D02*
X79222743Y-72283628D01*
X79222743Y-72283628D02*
X79175124Y-72331247D01*
X79175124Y-72331247D02*
X79127505Y-72426485D01*
X79127505Y-72426485D02*
X79127505Y-72569342D01*
X79127505Y-72569342D02*
X79175124Y-72664580D01*
X79175124Y-72664580D02*
X79222743Y-72712200D01*
X79222743Y-72712200D02*
X79317981Y-72759819D01*
X79317981Y-72759819D02*
X79698933Y-72759819D01*
X79698933Y-72759819D02*
X79698933Y-71759819D01*
X79698933Y-71759819D02*
X79365600Y-71759819D01*
X79365600Y-71759819D02*
X79270362Y-71807438D01*
X79270362Y-71807438D02*
X79222743Y-71855057D01*
X79222743Y-71855057D02*
X79175124Y-71950295D01*
X79175124Y-71950295D02*
X79175124Y-72045533D01*
X79175124Y-72045533D02*
X79222743Y-72140771D01*
X79222743Y-72140771D02*
X79270362Y-72188390D01*
X79270362Y-72188390D02*
X79365600Y-72236009D01*
X79365600Y-72236009D02*
X79698933Y-72236009D01*
X78270362Y-72093152D02*
X78270362Y-72759819D01*
X78698933Y-72093152D02*
X78698933Y-72616961D01*
X78698933Y-72616961D02*
X78651314Y-72712200D01*
X78651314Y-72712200D02*
X78556076Y-72759819D01*
X78556076Y-72759819D02*
X78413219Y-72759819D01*
X78413219Y-72759819D02*
X78317981Y-72712200D01*
X78317981Y-72712200D02*
X78270362Y-72664580D01*
X77937028Y-72093152D02*
X77556076Y-72093152D01*
X77794171Y-72759819D02*
X77794171Y-71902676D01*
X77794171Y-71902676D02*
X77746552Y-71807438D01*
X77746552Y-71807438D02*
X77651314Y-71759819D01*
X77651314Y-71759819D02*
X77556076Y-71759819D01*
X77365599Y-72093152D02*
X76984647Y-72093152D01*
X77222742Y-72759819D02*
X77222742Y-71902676D01*
X77222742Y-71902676D02*
X77175123Y-71807438D01*
X77175123Y-71807438D02*
X77079885Y-71759819D01*
X77079885Y-71759819D02*
X76984647Y-71759819D01*
X76270361Y-72712200D02*
X76365599Y-72759819D01*
X76365599Y-72759819D02*
X76556075Y-72759819D01*
X76556075Y-72759819D02*
X76651313Y-72712200D01*
X76651313Y-72712200D02*
X76698932Y-72616961D01*
X76698932Y-72616961D02*
X76698932Y-72236009D01*
X76698932Y-72236009D02*
X76651313Y-72140771D01*
X76651313Y-72140771D02*
X76556075Y-72093152D01*
X76556075Y-72093152D02*
X76365599Y-72093152D01*
X76365599Y-72093152D02*
X76270361Y-72140771D01*
X76270361Y-72140771D02*
X76222742Y-72236009D01*
X76222742Y-72236009D02*
X76222742Y-72331247D01*
X76222742Y-72331247D02*
X76698932Y-72426485D01*
X75794170Y-72759819D02*
X75794170Y-72093152D01*
X75794170Y-72283628D02*
X75746551Y-72188390D01*
X75746551Y-72188390D02*
X75698932Y-72140771D01*
X75698932Y-72140771D02*
X75603694Y-72093152D01*
X75603694Y-72093152D02*
X75508456Y-72093152D01*
X74413217Y-72236009D02*
X74079884Y-72236009D01*
X73937027Y-72759819D02*
X74413217Y-72759819D01*
X74413217Y-72759819D02*
X74413217Y-71759819D01*
X74413217Y-71759819D02*
X73937027Y-71759819D01*
X73556074Y-72712200D02*
X73413217Y-72759819D01*
X73413217Y-72759819D02*
X73175122Y-72759819D01*
X73175122Y-72759819D02*
X73079884Y-72712200D01*
X73079884Y-72712200D02*
X73032265Y-72664580D01*
X73032265Y-72664580D02*
X72984646Y-72569342D01*
X72984646Y-72569342D02*
X72984646Y-72474104D01*
X72984646Y-72474104D02*
X73032265Y-72378866D01*
X73032265Y-72378866D02*
X73079884Y-72331247D01*
X73079884Y-72331247D02*
X73175122Y-72283628D01*
X73175122Y-72283628D02*
X73365598Y-72236009D01*
X73365598Y-72236009D02*
X73460836Y-72188390D01*
X73460836Y-72188390D02*
X73508455Y-72140771D01*
X73508455Y-72140771D02*
X73556074Y-72045533D01*
X73556074Y-72045533D02*
X73556074Y-71950295D01*
X73556074Y-71950295D02*
X73508455Y-71855057D01*
X73508455Y-71855057D02*
X73460836Y-71807438D01*
X73460836Y-71807438D02*
X73365598Y-71759819D01*
X73365598Y-71759819D02*
X73127503Y-71759819D01*
X73127503Y-71759819D02*
X72984646Y-71807438D01*
X72556074Y-72759819D02*
X72556074Y-71759819D01*
X72556074Y-71759819D02*
X72175122Y-71759819D01*
X72175122Y-71759819D02*
X72079884Y-71807438D01*
X72079884Y-71807438D02*
X72032265Y-71855057D01*
X72032265Y-71855057D02*
X71984646Y-71950295D01*
X71984646Y-71950295D02*
X71984646Y-72093152D01*
X71984646Y-72093152D02*
X72032265Y-72188390D01*
X72032265Y-72188390D02*
X72079884Y-72236009D01*
X72079884Y-72236009D02*
X72175122Y-72283628D01*
X72175122Y-72283628D02*
X72556074Y-72283628D01*
X71651312Y-71759819D02*
X71032265Y-71759819D01*
X71032265Y-71759819D02*
X71365598Y-72140771D01*
X71365598Y-72140771D02*
X71222741Y-72140771D01*
X71222741Y-72140771D02*
X71127503Y-72188390D01*
X71127503Y-72188390D02*
X71079884Y-72236009D01*
X71079884Y-72236009D02*
X71032265Y-72331247D01*
X71032265Y-72331247D02*
X71032265Y-72569342D01*
X71032265Y-72569342D02*
X71079884Y-72664580D01*
X71079884Y-72664580D02*
X71127503Y-72712200D01*
X71127503Y-72712200D02*
X71222741Y-72759819D01*
X71222741Y-72759819D02*
X71508455Y-72759819D01*
X71508455Y-72759819D02*
X71603693Y-72712200D01*
X71603693Y-72712200D02*
X71651312Y-72664580D01*
X70651312Y-71855057D02*
X70603693Y-71807438D01*
X70603693Y-71807438D02*
X70508455Y-71759819D01*
X70508455Y-71759819D02*
X70270360Y-71759819D01*
X70270360Y-71759819D02*
X70175122Y-71807438D01*
X70175122Y-71807438D02*
X70127503Y-71855057D01*
X70127503Y-71855057D02*
X70079884Y-71950295D01*
X70079884Y-71950295D02*
X70079884Y-72045533D01*
X70079884Y-72045533D02*
X70127503Y-72188390D01*
X70127503Y-72188390D02*
X70698931Y-72759819D01*
X70698931Y-72759819D02*
X70079884Y-72759819D01*
X86556077Y-73369819D02*
X86222744Y-74369819D01*
X86222744Y-74369819D02*
X85889411Y-73369819D01*
X84603696Y-73369819D02*
X84508458Y-73369819D01*
X84508458Y-73369819D02*
X84413220Y-73417438D01*
X84413220Y-73417438D02*
X84365601Y-73465057D01*
X84365601Y-73465057D02*
X84317982Y-73560295D01*
X84317982Y-73560295D02*
X84270363Y-73750771D01*
X84270363Y-73750771D02*
X84270363Y-73988866D01*
X84270363Y-73988866D02*
X84317982Y-74179342D01*
X84317982Y-74179342D02*
X84365601Y-74274580D01*
X84365601Y-74274580D02*
X84413220Y-74322200D01*
X84413220Y-74322200D02*
X84508458Y-74369819D01*
X84508458Y-74369819D02*
X84603696Y-74369819D01*
X84603696Y-74369819D02*
X84698934Y-74322200D01*
X84698934Y-74322200D02*
X84746553Y-74274580D01*
X84746553Y-74274580D02*
X84794172Y-74179342D01*
X84794172Y-74179342D02*
X84841791Y-73988866D01*
X84841791Y-73988866D02*
X84841791Y-73750771D01*
X84841791Y-73750771D02*
X84794172Y-73560295D01*
X84794172Y-73560295D02*
X84746553Y-73465057D01*
X84746553Y-73465057D02*
X84698934Y-73417438D01*
X84698934Y-73417438D02*
X84603696Y-73369819D01*
X83841791Y-74274580D02*
X83794172Y-74322200D01*
X83794172Y-74322200D02*
X83841791Y-74369819D01*
X83841791Y-74369819D02*
X83889410Y-74322200D01*
X83889410Y-74322200D02*
X83841791Y-74274580D01*
X83841791Y-74274580D02*
X83841791Y-74369819D01*
X83175125Y-73369819D02*
X83079887Y-73369819D01*
X83079887Y-73369819D02*
X82984649Y-73417438D01*
X82984649Y-73417438D02*
X82937030Y-73465057D01*
X82937030Y-73465057D02*
X82889411Y-73560295D01*
X82889411Y-73560295D02*
X82841792Y-73750771D01*
X82841792Y-73750771D02*
X82841792Y-73988866D01*
X82841792Y-73988866D02*
X82889411Y-74179342D01*
X82889411Y-74179342D02*
X82937030Y-74274580D01*
X82937030Y-74274580D02*
X82984649Y-74322200D01*
X82984649Y-74322200D02*
X83079887Y-74369819D01*
X83079887Y-74369819D02*
X83175125Y-74369819D01*
X83175125Y-74369819D02*
X83270363Y-74322200D01*
X83270363Y-74322200D02*
X83317982Y-74274580D01*
X83317982Y-74274580D02*
X83365601Y-74179342D01*
X83365601Y-74179342D02*
X83413220Y-73988866D01*
X83413220Y-73988866D02*
X83413220Y-73750771D01*
X83413220Y-73750771D02*
X83365601Y-73560295D01*
X83365601Y-73560295D02*
X83317982Y-73465057D01*
X83317982Y-73465057D02*
X83270363Y-73417438D01*
X83270363Y-73417438D02*
X83175125Y-73369819D01*
X82413220Y-74274580D02*
X82365601Y-74322200D01*
X82365601Y-74322200D02*
X82413220Y-74369819D01*
X82413220Y-74369819D02*
X82460839Y-74322200D01*
X82460839Y-74322200D02*
X82413220Y-74274580D01*
X82413220Y-74274580D02*
X82413220Y-74369819D01*
X81413221Y-74369819D02*
X81984649Y-74369819D01*
X81698935Y-74369819D02*
X81698935Y-73369819D01*
X81698935Y-73369819D02*
X81794173Y-73512676D01*
X81794173Y-73512676D02*
X81889411Y-73607914D01*
X81889411Y-73607914D02*
X81984649Y-73655533D01*
X78069077Y-79429177D02*
X78069077Y-80036320D01*
X78069077Y-80036320D02*
X78109554Y-80157748D01*
X78109554Y-80157748D02*
X78190506Y-80238701D01*
X78190506Y-80238701D02*
X78311935Y-80279177D01*
X78311935Y-80279177D02*
X78392887Y-80279177D01*
X77259554Y-80279177D02*
X77664316Y-80279177D01*
X77664316Y-80279177D02*
X77664316Y-79429177D01*
X76490506Y-80198224D02*
X76530982Y-80238701D01*
X76530982Y-80238701D02*
X76652411Y-80279177D01*
X76652411Y-80279177D02*
X76733363Y-80279177D01*
X76733363Y-80279177D02*
X76854792Y-80238701D01*
X76854792Y-80238701D02*
X76935744Y-80157748D01*
X76935744Y-80157748D02*
X76976221Y-80076796D01*
X76976221Y-80076796D02*
X77016697Y-79914891D01*
X77016697Y-79914891D02*
X77016697Y-79793462D01*
X77016697Y-79793462D02*
X76976221Y-79631558D01*
X76976221Y-79631558D02*
X76935744Y-79550605D01*
X76935744Y-79550605D02*
X76854792Y-79469653D01*
X76854792Y-79469653D02*
X76733363Y-79429177D01*
X76733363Y-79429177D02*
X76652411Y-79429177D01*
X76652411Y-79429177D02*
X76530982Y-79469653D01*
X76530982Y-79469653D02*
X76490506Y-79510129D01*
X75883363Y-79429177D02*
X75883363Y-80036320D01*
X75883363Y-80036320D02*
X75923840Y-80157748D01*
X75923840Y-80157748D02*
X76004792Y-80238701D01*
X76004792Y-80238701D02*
X76126221Y-80279177D01*
X76126221Y-80279177D02*
X76207173Y-80279177D01*
X75073840Y-80279177D02*
X75478602Y-80279177D01*
X75478602Y-80279177D02*
X75478602Y-79429177D01*
X74304792Y-80198224D02*
X74345268Y-80238701D01*
X74345268Y-80238701D02*
X74466697Y-80279177D01*
X74466697Y-80279177D02*
X74547649Y-80279177D01*
X74547649Y-80279177D02*
X74669078Y-80238701D01*
X74669078Y-80238701D02*
X74750030Y-80157748D01*
X74750030Y-80157748D02*
X74790507Y-80076796D01*
X74790507Y-80076796D02*
X74830983Y-79914891D01*
X74830983Y-79914891D02*
X74830983Y-79793462D01*
X74830983Y-79793462D02*
X74790507Y-79631558D01*
X74790507Y-79631558D02*
X74750030Y-79550605D01*
X74750030Y-79550605D02*
X74669078Y-79469653D01*
X74669078Y-79469653D02*
X74547649Y-79429177D01*
X74547649Y-79429177D02*
X74466697Y-79429177D01*
X74466697Y-79429177D02*
X74345268Y-79469653D01*
X74345268Y-79469653D02*
X74304792Y-79510129D01*
X73697649Y-79429177D02*
X73697649Y-80036320D01*
X73697649Y-80036320D02*
X73738126Y-80157748D01*
X73738126Y-80157748D02*
X73819078Y-80238701D01*
X73819078Y-80238701D02*
X73940507Y-80279177D01*
X73940507Y-80279177D02*
X74021459Y-80279177D01*
X72888126Y-80279177D02*
X73292888Y-80279177D01*
X73292888Y-80279177D02*
X73292888Y-79429177D01*
X72119078Y-80198224D02*
X72159554Y-80238701D01*
X72159554Y-80238701D02*
X72280983Y-80279177D01*
X72280983Y-80279177D02*
X72361935Y-80279177D01*
X72361935Y-80279177D02*
X72483364Y-80238701D01*
X72483364Y-80238701D02*
X72564316Y-80157748D01*
X72564316Y-80157748D02*
X72604793Y-80076796D01*
X72604793Y-80076796D02*
X72645269Y-79914891D01*
X72645269Y-79914891D02*
X72645269Y-79793462D01*
X72645269Y-79793462D02*
X72604793Y-79631558D01*
X72604793Y-79631558D02*
X72564316Y-79550605D01*
X72564316Y-79550605D02*
X72483364Y-79469653D01*
X72483364Y-79469653D02*
X72361935Y-79429177D01*
X72361935Y-79429177D02*
X72280983Y-79429177D01*
X72280983Y-79429177D02*
X72159554Y-79469653D01*
X72159554Y-79469653D02*
X72119078Y-79510129D01*
X71511935Y-79429177D02*
X71511935Y-80036320D01*
X71511935Y-80036320D02*
X71552412Y-80157748D01*
X71552412Y-80157748D02*
X71633364Y-80238701D01*
X71633364Y-80238701D02*
X71754793Y-80279177D01*
X71754793Y-80279177D02*
X71835745Y-80279177D01*
X70702412Y-80279177D02*
X71107174Y-80279177D01*
X71107174Y-80279177D02*
X71107174Y-79429177D01*
X69933364Y-80198224D02*
X69973840Y-80238701D01*
X69973840Y-80238701D02*
X70095269Y-80279177D01*
X70095269Y-80279177D02*
X70176221Y-80279177D01*
X70176221Y-80279177D02*
X70297650Y-80238701D01*
X70297650Y-80238701D02*
X70378602Y-80157748D01*
X70378602Y-80157748D02*
X70419079Y-80076796D01*
X70419079Y-80076796D02*
X70459555Y-79914891D01*
X70459555Y-79914891D02*
X70459555Y-79793462D01*
X70459555Y-79793462D02*
X70419079Y-79631558D01*
X70419079Y-79631558D02*
X70378602Y-79550605D01*
X70378602Y-79550605D02*
X70297650Y-79469653D01*
X70297650Y-79469653D02*
X70176221Y-79429177D01*
X70176221Y-79429177D02*
X70095269Y-79429177D01*
X70095269Y-79429177D02*
X69973840Y-79469653D01*
X69973840Y-79469653D02*
X69933364Y-79510129D01*
X47604819Y-94166666D02*
X48319104Y-94166666D01*
X48319104Y-94166666D02*
X48461961Y-94119047D01*
X48461961Y-94119047D02*
X48557200Y-94023809D01*
X48557200Y-94023809D02*
X48604819Y-93880952D01*
X48604819Y-93880952D02*
X48604819Y-93785714D01*
X48604819Y-94642857D02*
X47604819Y-94642857D01*
X47604819Y-94642857D02*
X47604819Y-95023809D01*
X47604819Y-95023809D02*
X47652438Y-95119047D01*
X47652438Y-95119047D02*
X47700057Y-95166666D01*
X47700057Y-95166666D02*
X47795295Y-95214285D01*
X47795295Y-95214285D02*
X47938152Y-95214285D01*
X47938152Y-95214285D02*
X48033390Y-95166666D01*
X48033390Y-95166666D02*
X48081009Y-95119047D01*
X48081009Y-95119047D02*
X48128628Y-95023809D01*
X48128628Y-95023809D02*
X48128628Y-94642857D01*
X47700057Y-95595238D02*
X47652438Y-95642857D01*
X47652438Y-95642857D02*
X47604819Y-95738095D01*
X47604819Y-95738095D02*
X47604819Y-95976190D01*
X47604819Y-95976190D02*
X47652438Y-96071428D01*
X47652438Y-96071428D02*
X47700057Y-96119047D01*
X47700057Y-96119047D02*
X47795295Y-96166666D01*
X47795295Y-96166666D02*
X47890533Y-96166666D01*
X47890533Y-96166666D02*
X48033390Y-96119047D01*
X48033390Y-96119047D02*
X48604819Y-95547619D01*
X48604819Y-95547619D02*
X48604819Y-96166666D01*
X47554819Y-99666666D02*
X48269104Y-99666666D01*
X48269104Y-99666666D02*
X48411961Y-99619047D01*
X48411961Y-99619047D02*
X48507200Y-99523809D01*
X48507200Y-99523809D02*
X48554819Y-99380952D01*
X48554819Y-99380952D02*
X48554819Y-99285714D01*
X48554819Y-100142857D02*
X47554819Y-100142857D01*
X47554819Y-100142857D02*
X47554819Y-100523809D01*
X47554819Y-100523809D02*
X47602438Y-100619047D01*
X47602438Y-100619047D02*
X47650057Y-100666666D01*
X47650057Y-100666666D02*
X47745295Y-100714285D01*
X47745295Y-100714285D02*
X47888152Y-100714285D01*
X47888152Y-100714285D02*
X47983390Y-100666666D01*
X47983390Y-100666666D02*
X48031009Y-100619047D01*
X48031009Y-100619047D02*
X48078628Y-100523809D01*
X48078628Y-100523809D02*
X48078628Y-100142857D01*
X48554819Y-101666666D02*
X48554819Y-101095238D01*
X48554819Y-101380952D02*
X47554819Y-101380952D01*
X47554819Y-101380952D02*
X47697676Y-101285714D01*
X47697676Y-101285714D02*
X47792914Y-101190476D01*
X47792914Y-101190476D02*
X47840533Y-101095238D01*
D11*
X51900000Y-95300000D02*
X51900000Y-94700000D01*
X51200000Y-94000000D02*
X49800000Y-94000000D01*
X49800000Y-96000000D02*
X51200000Y-96000000D01*
X49100000Y-94700000D02*
X49100000Y-95300000D01*
X51200000Y-96000000D02*
G75*
G03*
X51900000Y-95300000I1J699999D01*
G01*
X51900000Y-94700000D02*
G75*
G03*
X51200000Y-94000000I-699999J1D01*
G01*
X49100000Y-95300000D02*
G75*
G03*
X49800000Y-96000000I700000J0D01*
G01*
X49800000Y-94000000D02*
G75*
G03*
X49100000Y-94700000I0J-700000D01*
G01*
X51900000Y-100800000D02*
X51900000Y-100200000D01*
X51200000Y-99500000D02*
X49800000Y-99500000D01*
X49800000Y-101500000D02*
X51200000Y-101500000D01*
X49100000Y-100200000D02*
X49100000Y-100800000D01*
X51200000Y-101500000D02*
G75*
G03*
X51900000Y-100800000I1J699999D01*
G01*
X51900000Y-100200000D02*
G75*
G03*
X51200000Y-99500000I-699999J1D01*
G01*
X49100000Y-100800000D02*
G75*
G03*
X49800000Y-101500000I700000J0D01*
G01*
X49800000Y-99500000D02*
G75*
G03*
X49100000Y-100200000I0J-700000D01*
G01*
%LPC*%
D12*
X38000000Y-83237500D03*
X38000000Y-92762500D03*
D13*
X43080000Y-90540000D03*
D14*
X41050000Y-89524000D03*
X43080000Y-88508000D03*
X41048000Y-87492000D03*
X43080000Y-86476000D03*
X41050000Y-85460000D03*
D12*
X38000000Y-97237500D03*
X38000000Y-106762500D03*
D13*
X43080000Y-104540000D03*
D14*
X41050000Y-103524000D03*
X43080000Y-102508000D03*
X41048000Y-101492000D03*
X43080000Y-100476000D03*
X41050000Y-99460000D03*
D15*
X35000000Y-75000000D03*
X35000000Y-115000000D03*
X150000000Y-115000000D03*
X150000000Y-75000000D03*
D16*
X119450000Y-117903440D03*
D17*
X119450000Y-115363440D03*
X119450000Y-112823440D03*
X119450000Y-110283440D03*
X119450000Y-107743440D03*
X119450000Y-105203440D03*
X119450000Y-102663440D03*
X119450000Y-100123440D03*
X119450000Y-97583440D03*
X119450000Y-95043440D03*
X119450000Y-92503440D03*
X119450000Y-89963440D03*
X119450000Y-87423440D03*
X119450000Y-84883440D03*
X119450000Y-82343440D03*
X119450000Y-79803440D03*
X119450000Y-77263440D03*
X119450000Y-74723440D03*
X119450000Y-72183440D03*
X94053680Y-72186160D03*
X94053680Y-74726160D03*
X94050000Y-77263440D03*
X94050000Y-79803440D03*
X94050000Y-82343440D03*
X94050000Y-84883440D03*
X94050000Y-87423440D03*
X94050000Y-89963440D03*
X94050000Y-92503440D03*
X94050000Y-95043440D03*
X94050000Y-97583440D03*
X94050000Y-100123440D03*
X94050000Y-102663440D03*
X94050000Y-105203440D03*
X94050000Y-107743440D03*
X94050000Y-110283440D03*
X94050000Y-112823440D03*
X94050000Y-115363440D03*
X94050000Y-117903440D03*
D18*
X133630000Y-80000000D03*
X136170000Y-80000000D03*
X138710000Y-80000000D03*
X141250000Y-80000000D03*
G36*
X50650000Y-94250000D02*
G01*
X51150000Y-94250000D01*
X51150000Y-94255089D01*
X51221157Y-94255089D01*
X51357708Y-94295184D01*
X51477430Y-94372125D01*
X51570627Y-94479680D01*
X51629746Y-94609134D01*
X51650000Y-94750000D01*
X51650000Y-95250000D01*
X51629746Y-95390866D01*
X51570627Y-95520320D01*
X51477430Y-95627875D01*
X51357708Y-95704816D01*
X51221157Y-95744911D01*
X51150000Y-95744911D01*
X51150000Y-95750000D01*
X50650000Y-95750000D01*
X50650000Y-94250000D01*
G37*
G36*
X49850000Y-95744911D02*
G01*
X49778843Y-95744911D01*
X49642292Y-95704816D01*
X49522570Y-95627875D01*
X49429373Y-95520320D01*
X49370254Y-95390866D01*
X49350000Y-95250000D01*
X49350000Y-94750000D01*
X49370254Y-94609134D01*
X49429373Y-94479680D01*
X49522570Y-94372125D01*
X49642292Y-94295184D01*
X49778843Y-94255089D01*
X49850000Y-94255089D01*
X49850000Y-94250000D01*
X50350000Y-94250000D01*
X50350000Y-95750000D01*
X49850000Y-95750000D01*
X49850000Y-95744911D01*
G37*
G36*
X50650000Y-99750000D02*
G01*
X51150000Y-99750000D01*
X51150000Y-99755089D01*
X51221157Y-99755089D01*
X51357708Y-99795184D01*
X51477430Y-99872125D01*
X51570627Y-99979680D01*
X51629746Y-100109134D01*
X51650000Y-100250000D01*
X51650000Y-100750000D01*
X51629746Y-100890866D01*
X51570627Y-101020320D01*
X51477430Y-101127875D01*
X51357708Y-101204816D01*
X51221157Y-101244911D01*
X51150000Y-101244911D01*
X51150000Y-101250000D01*
X50650000Y-101250000D01*
X50650000Y-99750000D01*
G37*
G36*
X49850000Y-101244911D02*
G01*
X49778843Y-101244911D01*
X49642292Y-101204816D01*
X49522570Y-101127875D01*
X49429373Y-101020320D01*
X49370254Y-100890866D01*
X49350000Y-100750000D01*
X49350000Y-100250000D01*
X49370254Y-100109134D01*
X49429373Y-99979680D01*
X49522570Y-99872125D01*
X49642292Y-99795184D01*
X49778843Y-99755089D01*
X49850000Y-99755089D01*
X49850000Y-99750000D01*
X50350000Y-99750000D01*
X50350000Y-101250000D01*
X49850000Y-101250000D01*
X49850000Y-101244911D01*
G37*
%LPD*%
M02*
