M48
; DRILL file {KiCad 5.1.5-52549c5~86~ubuntu19.10.1} date vie 17 abr 2020 16:07:08 CEST
; FORMAT={-:-/ absolute / inch / decimal}
; #@! TF.CreationDate,2020-04-17T16:07:08+02:00
; #@! TF.GenerationSoftware,Kicad,Pcbnew,5.1.5-52549c5~86~ubuntu19.10.1
; #@! TF.FileFunction,Plated,1,2,PTH
FMAT,2
INCH
T1C0.0157
T2C0.0256
T3C0.0276
T4C0.0394
T5C0.0400
T6C0.0433
T7C0.0598
%
G90
G05
T1
X2.1385Y-5.0355
X2.5285Y-2.6455
X2.5985Y-5.0255
X2.6431Y-2.2157
X2.6931Y-2.5457
X2.7131Y-2.1357
X2.7685Y-4.8155
X2.7985Y-5.1355
X2.8185Y-5.0655
X2.8685Y-5.2755
X2.9116Y-2.8557
X2.9131Y-2.6957
X3.0285Y-4.5955
X3.0385Y-3.5855
X3.1631Y-2.5057
X3.1785Y-3.4955
X3.1785Y-5.1855
X3.1985Y-5.0355
X3.2246Y-4.4094
X3.2685Y-4.6555
X3.2685Y-5.0855
X3.3185Y-2.7055
X3.3715Y-4.8326
X3.3715Y-5.3426
X3.3885Y-4.9955
X3.4254Y-5.3386
X3.4601Y-4.8339
X3.5385Y-2.8255
X3.7485Y-4.7655
X3.8485Y-3.8755
X3.9185Y-2.7055
X3.9785Y-3.2455
X4.0085Y-3.4655
X4.034Y-3.7814
X4.0485Y-3.6455
X4.0585Y-3.1855
X4.1085Y-5.1355
X4.1185Y-3.4855
X4.1785Y-3.5055
X4.2285Y-3.1755
X4.2685Y-3.1855
X4.2785Y-2.9255
X4.2885Y-3.7455
X4.3Y-3.3934
X4.3101Y-3.4439
X4.3285Y-3.3655
X4.3385Y-3.1655
X4.3785Y-4.5555
X4.3885Y-3.8555
X4.4485Y-3.3555
X4.4485Y-3.4855
X4.4885Y-3.1055
X4.5085Y-4.4555
X4.5085Y-4.5055
X4.5485Y-3.1755
X4.5485Y-3.6855
X4.5685Y-3.6055
X4.5885Y-3.1255
X4.5985Y-4.8555
X4.6285Y-3.2355
X4.6285Y-3.7155
X4.6385Y-3.6255
X4.6439Y-5.0768
X4.6585Y-3.5555
X4.6585Y-5.4355
X4.6585Y-5.6355
X4.6885Y-3.3055
X4.6885Y-3.5855
X4.7285Y-3.4555
X4.7285Y-3.5155
X4.7285Y-4.1455
X4.8185Y-4.0855
X4.8185Y-4.2055
X4.8485Y-3.1755
X4.8985Y-3.1255
X4.9085Y-2.5655
X4.9685Y-2.8755
X5.0885Y-2.8055
X5.0885Y-3.3955
X5.1485Y-3.0355
X5.2885Y-2.6355
X5.4718Y-4.7068
X5.4718Y-4.9768
X5.4718Y-5.3268
X5.4718Y-5.5368
X5.5185Y-2.2255
X5.5285Y-3.9855
X5.5285Y-4.0855
X5.5685Y-4.1855
X5.5985Y-4.2855
T4
X4.8425Y-2.126
X4.9425Y-2.126
X5.0425Y-2.126
X5.1425Y-2.126
X5.2425Y-2.126
X5.3425Y-2.126
X4.1401Y-4.0455
X4.2385Y-4.0455
X4.3369Y-4.0455
X5.7255Y-3.6855
X5.7255Y-3.7855
X5.7255Y-3.8855
X5.7255Y-3.9855
X5.7255Y-4.0855
X5.7255Y-4.1855
X5.7255Y-4.2855
X5.7255Y-4.3855
X5.7155Y-2.2124
X5.7155Y-2.3124
X5.7155Y-2.4124
X5.7155Y-2.5124
X5.7155Y-2.6124
X5.7155Y-2.7124
X5.7155Y-2.8124
X5.7155Y-2.9124
X5.7155Y-3.0124
X5.7155Y-3.1124
T5
X3.7285Y-3.0255
X3.7285Y-3.1255
X3.8285Y-3.0255
X3.8285Y-3.1255
X3.9285Y-3.0255
X3.9285Y-3.1255
T6
X3.7402Y-2.0866
X3.7402Y-2.2638
X3.9961Y-2.0866
X3.9961Y-2.2638
T7
X5.7318Y-4.8768
X5.7318Y-5.0768
X5.7285Y-5.4355
X5.7285Y-5.6355
T2
G00X2.1748Y-2.9193
M15
G01X2.1906Y-2.9193
M16
G05
G00X2.1748Y-3.1098
M15
G01X2.1906Y-3.1098
M16
G05
T3
G00X2.0548Y-2.907
M15
G01X2.0744Y-2.907
M16
G05
G00X2.0548Y-3.122
M15
G01X2.0744Y-3.122
M16
G05
T4
G00X2.2835Y-4.3701
M15
G01X2.2835Y-4.4488
M16
G05
G00X2.3622Y-4.5945
M15
G01X2.4409Y-4.5945
M16
G05
G00X2.5197Y-4.3701
M15
G01X2.5197Y-4.4488
M16
G05
T0
M30
