%TF.GenerationSoftware,KiCad,Pcbnew,5.1.6-c6e7f7d~87~ubuntu20.04.1*%
%TF.CreationDate,2020-08-28T13:06:37+02:00*%
%TF.ProjectId,DCC,4443432e-6b69-4636-9164-5f7063625858,rev?*%
%TF.SameCoordinates,Original*%
%TF.FileFunction,Copper,L1,Top*%
%TF.FilePolarity,Positive*%
%FSLAX46Y46*%
G04 Gerber Fmt 4.6, Leading zero omitted, Abs format (unit mm)*
G04 Created by KiCad (PCBNEW 5.1.6-c6e7f7d~87~ubuntu20.04.1) date 2020-08-28 13:06:37*
%MOMM*%
%LPD*%
G01*
G04 APERTURE LIST*
%TA.AperFunction,EtchedComponent*%
%ADD10C,0.100000*%
%TD*%
%TA.AperFunction,ComponentPad*%
%ADD11O,1.600000X1.600000*%
%TD*%
%TA.AperFunction,ComponentPad*%
%ADD12R,1.600000X1.600000*%
%TD*%
%TA.AperFunction,ComponentPad*%
%ADD13O,1.400000X1.400000*%
%TD*%
%TA.AperFunction,ComponentPad*%
%ADD14C,1.400000*%
%TD*%
%TA.AperFunction,ComponentPad*%
%ADD15R,1.500000X1.050000*%
%TD*%
%TA.AperFunction,ComponentPad*%
%ADD16O,1.500000X1.050000*%
%TD*%
%TA.AperFunction,SMDPad,CuDef*%
%ADD17C,0.100000*%
%TD*%
%TA.AperFunction,ComponentPad*%
%ADD18O,1.950000X1.700000*%
%TD*%
%TA.AperFunction,ComponentPad*%
%ADD19C,3.000000*%
%TD*%
%TA.AperFunction,ComponentPad*%
%ADD20R,3.000000X3.000000*%
%TD*%
%TA.AperFunction,ComponentPad*%
%ADD21C,1.600000*%
%TD*%
%TA.AperFunction,Conductor*%
%ADD22C,0.250000*%
%TD*%
%TA.AperFunction,Conductor*%
%ADD23C,0.500000*%
%TD*%
%TA.AperFunction,Conductor*%
%ADD24C,0.254000*%
%TD*%
G04 APERTURE END LIST*
D10*
%TO.C,JP2*%
G36*
X65100000Y-89650800D02*
G01*
X65600000Y-89650800D01*
X65600000Y-89050800D01*
X65100000Y-89050800D01*
X65100000Y-89650800D01*
G37*
%TO.C,JP1*%
G36*
X65100000Y-80300000D02*
G01*
X65600000Y-80300000D01*
X65600000Y-79700000D01*
X65100000Y-79700000D01*
X65100000Y-80300000D01*
G37*
%TD*%
D11*
%TO.P,U2,4*%
%TO.N,Net-(Q1-Pad2)*%
X93880000Y-91738400D03*
%TO.P,U2,2*%
%TO.N,GND*%
X101500000Y-89198400D03*
%TO.P,U2,3*%
%TO.N,Net-(D1-Pad2)*%
X93880000Y-89198400D03*
D12*
%TO.P,U2,1*%
%TO.N,Net-(R3-Pad2)*%
X101500000Y-91738400D03*
%TD*%
D11*
%TO.P,U1,8*%
%TO.N,VCC*%
X101480600Y-74847400D03*
%TO.P,U1,4*%
%TO.N,N/C*%
X93860600Y-82467400D03*
%TO.P,U1,7*%
%TO.N,Net-(R4-Pad1)*%
X101480600Y-77387400D03*
%TO.P,U1,3*%
%TO.N,/K*%
X93860600Y-79927400D03*
%TO.P,U1,6*%
%TO.N,/DCC_IN*%
X101480600Y-79927400D03*
%TO.P,U1,2*%
%TO.N,Net-(D5-Pad1)*%
X93860600Y-77387400D03*
%TO.P,U1,5*%
%TO.N,GND*%
X101480600Y-82467400D03*
D12*
%TO.P,U1,1*%
%TO.N,Net-(U1-Pad1)*%
X93860600Y-74847400D03*
%TD*%
D13*
%TO.P,R5,2*%
%TO.N,VCC*%
X112120000Y-80000000D03*
D14*
%TO.P,R5,1*%
%TO.N,/DCC_IN*%
X104500000Y-80000000D03*
%TD*%
D13*
%TO.P,R4,2*%
%TO.N,VCC*%
X112120000Y-77387400D03*
D14*
%TO.P,R4,1*%
%TO.N,Net-(R4-Pad1)*%
X104500000Y-77387400D03*
%TD*%
D13*
%TO.P,R3,2*%
%TO.N,Net-(R3-Pad2)*%
X105722400Y-94120000D03*
D14*
%TO.P,R3,1*%
%TO.N,/ack*%
X105722400Y-86500000D03*
%TD*%
D13*
%TO.P,R2,2*%
%TO.N,/J*%
X71153000Y-74500000D03*
D14*
%TO.P,R2,1*%
%TO.N,Net-(D5-Pad1)*%
X78773000Y-74500000D03*
%TD*%
D13*
%TO.P,R1,2*%
%TO.N,Net-(D2-Pad1)*%
X83380000Y-94507000D03*
D14*
%TO.P,R1,1*%
%TO.N,Net-(Q1-Pad3)*%
X91000000Y-94507000D03*
%TD*%
D15*
%TO.P,Q1,1*%
%TO.N,Net-(D1-Pad2)*%
X86901000Y-89173000D03*
D16*
%TO.P,Q1,3*%
%TO.N,Net-(Q1-Pad3)*%
X86901000Y-91713000D03*
%TO.P,Q1,2*%
%TO.N,Net-(Q1-Pad2)*%
X86901000Y-90443000D03*
%TD*%
%TA.AperFunction,SMDPad,CuDef*%
D17*
%TO.P,JP2,1*%
%TO.N,/K_ACK*%
G36*
X65500000Y-88600800D02*
G01*
X66000000Y-88600800D01*
X66000000Y-88601402D01*
X66024534Y-88601402D01*
X66073365Y-88606212D01*
X66121490Y-88615784D01*
X66168445Y-88630028D01*
X66213778Y-88648805D01*
X66257051Y-88671936D01*
X66297850Y-88699196D01*
X66335779Y-88730324D01*
X66370476Y-88765021D01*
X66401604Y-88802950D01*
X66428864Y-88843749D01*
X66451995Y-88887022D01*
X66470772Y-88932355D01*
X66485016Y-88979310D01*
X66494588Y-89027435D01*
X66499398Y-89076266D01*
X66499398Y-89100800D01*
X66500000Y-89100800D01*
X66500000Y-89600800D01*
X66499398Y-89600800D01*
X66499398Y-89625334D01*
X66494588Y-89674165D01*
X66485016Y-89722290D01*
X66470772Y-89769245D01*
X66451995Y-89814578D01*
X66428864Y-89857851D01*
X66401604Y-89898650D01*
X66370476Y-89936579D01*
X66335779Y-89971276D01*
X66297850Y-90002404D01*
X66257051Y-90029664D01*
X66213778Y-90052795D01*
X66168445Y-90071572D01*
X66121490Y-90085816D01*
X66073365Y-90095388D01*
X66024534Y-90100198D01*
X66000000Y-90100198D01*
X66000000Y-90100800D01*
X65500000Y-90100800D01*
X65500000Y-88600800D01*
G37*
%TD.AperFunction*%
%TA.AperFunction,SMDPad,CuDef*%
%TO.P,JP2,2*%
%TO.N,/K*%
G36*
X64700000Y-90100198D02*
G01*
X64675466Y-90100198D01*
X64626635Y-90095388D01*
X64578510Y-90085816D01*
X64531555Y-90071572D01*
X64486222Y-90052795D01*
X64442949Y-90029664D01*
X64402150Y-90002404D01*
X64364221Y-89971276D01*
X64329524Y-89936579D01*
X64298396Y-89898650D01*
X64271136Y-89857851D01*
X64248005Y-89814578D01*
X64229228Y-89769245D01*
X64214984Y-89722290D01*
X64205412Y-89674165D01*
X64200602Y-89625334D01*
X64200602Y-89600800D01*
X64200000Y-89600800D01*
X64200000Y-89100800D01*
X64200602Y-89100800D01*
X64200602Y-89076266D01*
X64205412Y-89027435D01*
X64214984Y-88979310D01*
X64229228Y-88932355D01*
X64248005Y-88887022D01*
X64271136Y-88843749D01*
X64298396Y-88802950D01*
X64329524Y-88765021D01*
X64364221Y-88730324D01*
X64402150Y-88699196D01*
X64442949Y-88671936D01*
X64486222Y-88648805D01*
X64531555Y-88630028D01*
X64578510Y-88615784D01*
X64626635Y-88606212D01*
X64675466Y-88601402D01*
X64700000Y-88601402D01*
X64700000Y-88600800D01*
X65200000Y-88600800D01*
X65200000Y-90100800D01*
X64700000Y-90100800D01*
X64700000Y-90100198D01*
G37*
%TD.AperFunction*%
%TD*%
%TA.AperFunction,SMDPad,CuDef*%
%TO.P,JP1,1*%
%TO.N,/J_ACK*%
G36*
X65500000Y-79250000D02*
G01*
X66000000Y-79250000D01*
X66000000Y-79250602D01*
X66024534Y-79250602D01*
X66073365Y-79255412D01*
X66121490Y-79264984D01*
X66168445Y-79279228D01*
X66213778Y-79298005D01*
X66257051Y-79321136D01*
X66297850Y-79348396D01*
X66335779Y-79379524D01*
X66370476Y-79414221D01*
X66401604Y-79452150D01*
X66428864Y-79492949D01*
X66451995Y-79536222D01*
X66470772Y-79581555D01*
X66485016Y-79628510D01*
X66494588Y-79676635D01*
X66499398Y-79725466D01*
X66499398Y-79750000D01*
X66500000Y-79750000D01*
X66500000Y-80250000D01*
X66499398Y-80250000D01*
X66499398Y-80274534D01*
X66494588Y-80323365D01*
X66485016Y-80371490D01*
X66470772Y-80418445D01*
X66451995Y-80463778D01*
X66428864Y-80507051D01*
X66401604Y-80547850D01*
X66370476Y-80585779D01*
X66335779Y-80620476D01*
X66297850Y-80651604D01*
X66257051Y-80678864D01*
X66213778Y-80701995D01*
X66168445Y-80720772D01*
X66121490Y-80735016D01*
X66073365Y-80744588D01*
X66024534Y-80749398D01*
X66000000Y-80749398D01*
X66000000Y-80750000D01*
X65500000Y-80750000D01*
X65500000Y-79250000D01*
G37*
%TD.AperFunction*%
%TA.AperFunction,SMDPad,CuDef*%
%TO.P,JP1,2*%
%TO.N,/J*%
G36*
X64700000Y-80749398D02*
G01*
X64675466Y-80749398D01*
X64626635Y-80744588D01*
X64578510Y-80735016D01*
X64531555Y-80720772D01*
X64486222Y-80701995D01*
X64442949Y-80678864D01*
X64402150Y-80651604D01*
X64364221Y-80620476D01*
X64329524Y-80585779D01*
X64298396Y-80547850D01*
X64271136Y-80507051D01*
X64248005Y-80463778D01*
X64229228Y-80418445D01*
X64214984Y-80371490D01*
X64205412Y-80323365D01*
X64200602Y-80274534D01*
X64200602Y-80250000D01*
X64200000Y-80250000D01*
X64200000Y-79750000D01*
X64200602Y-79750000D01*
X64200602Y-79725466D01*
X64205412Y-79676635D01*
X64214984Y-79628510D01*
X64229228Y-79581555D01*
X64248005Y-79536222D01*
X64271136Y-79492949D01*
X64298396Y-79452150D01*
X64329524Y-79414221D01*
X64364221Y-79379524D01*
X64402150Y-79348396D01*
X64442949Y-79321136D01*
X64486222Y-79298005D01*
X64531555Y-79279228D01*
X64578510Y-79264984D01*
X64626635Y-79255412D01*
X64675466Y-79250602D01*
X64700000Y-79250602D01*
X64700000Y-79250000D01*
X65200000Y-79250000D01*
X65200000Y-80750000D01*
X64700000Y-80750000D01*
X64700000Y-80749398D01*
G37*
%TD.AperFunction*%
%TD*%
D18*
%TO.P,J2,4*%
%TO.N,GND*%
X121000000Y-81250000D03*
%TO.P,J2,3*%
%TO.N,/DCC_IN*%
X121000000Y-83750000D03*
%TO.P,J2,2*%
%TO.N,/ack*%
X121000000Y-86250000D03*
%TO.P,J2,1*%
%TO.N,VCC*%
%TA.AperFunction,ComponentPad*%
G36*
G01*
X121725000Y-89600000D02*
X120275000Y-89600000D01*
G75*
G02*
X120025000Y-89350000I0J250000D01*
G01*
X120025000Y-88150000D01*
G75*
G02*
X120275000Y-87900000I250000J0D01*
G01*
X121725000Y-87900000D01*
G75*
G02*
X121975000Y-88150000I0J-250000D01*
G01*
X121975000Y-89350000D01*
G75*
G02*
X121725000Y-89600000I-250000J0D01*
G01*
G37*
%TD.AperFunction*%
%TD*%
D19*
%TO.P,J1,2*%
%TO.N,/J*%
X54000000Y-82500000D03*
D20*
%TO.P,J1,1*%
%TO.N,/K*%
X54000000Y-87580000D03*
%TD*%
D11*
%TO.P,D5,2*%
%TO.N,/K*%
X87500000Y-82120000D03*
D12*
%TO.P,D5,1*%
%TO.N,Net-(D5-Pad1)*%
X87500000Y-74500000D03*
%TD*%
D11*
%TO.P,D4,2*%
%TO.N,/K_ACK*%
X70380000Y-89325400D03*
D12*
%TO.P,D4,1*%
%TO.N,Net-(D2-Pad1)*%
X78000000Y-89325400D03*
%TD*%
D11*
%TO.P,D3,2*%
%TO.N,Net-(D1-Pad2)*%
X78000000Y-85000000D03*
D12*
%TO.P,D3,1*%
%TO.N,/K_ACK*%
X70380000Y-85000000D03*
%TD*%
D11*
%TO.P,D2,2*%
%TO.N,/J_ACK*%
X72000000Y-94430800D03*
D12*
%TO.P,D2,1*%
%TO.N,Net-(D2-Pad1)*%
X79620000Y-94430800D03*
%TD*%
D11*
%TO.P,D1,2*%
%TO.N,Net-(D1-Pad2)*%
X79620000Y-80017800D03*
D12*
%TO.P,D1,1*%
%TO.N,/J_ACK*%
X72000000Y-80017800D03*
%TD*%
D21*
%TO.P,C1,2*%
%TO.N,GND*%
X107003200Y-74796600D03*
%TO.P,C1,1*%
%TO.N,VCC*%
X104503200Y-74796600D03*
%TD*%
D22*
%TO.N,Net-(D1-Pad2)*%
X79620000Y-83380000D02*
X78000000Y-85000000D01*
X79620000Y-80017800D02*
X79620000Y-83380000D01*
X78000000Y-85000000D02*
X85500000Y-85000000D01*
X86901000Y-86401000D02*
X86901000Y-89173000D01*
X85500000Y-85000000D02*
X86901000Y-86401000D01*
X93854600Y-89173000D02*
X93880000Y-89198400D01*
X86901000Y-89173000D02*
X93854600Y-89173000D01*
%TO.N,Net-(D2-Pad1)*%
X79696200Y-94507000D02*
X79620000Y-94430800D01*
X83380000Y-94507000D02*
X79696200Y-94507000D01*
X78000000Y-89325400D02*
X78575400Y-89325400D01*
X79620000Y-90370000D02*
X79620000Y-94430800D01*
X78575400Y-89325400D02*
X79620000Y-90370000D01*
%TO.N,Net-(D5-Pad1)*%
X78773000Y-74500000D02*
X87500000Y-74500000D01*
X87500000Y-74500000D02*
X89750000Y-74500000D01*
X92637400Y-77387400D02*
X93860600Y-77387400D01*
X89750000Y-74500000D02*
X92637400Y-77387400D01*
%TO.N,/DCC_IN*%
X104427400Y-79927400D02*
X104500000Y-80000000D01*
X101480600Y-79927400D02*
X104427400Y-79927400D01*
X108250000Y-83750000D02*
X121000000Y-83750000D01*
X104500000Y-80000000D02*
X108250000Y-83750000D01*
%TO.N,/ack*%
X120750000Y-86500000D02*
X121000000Y-86250000D01*
X105722400Y-86500000D02*
X120750000Y-86500000D01*
%TO.N,Net-(Q1-Pad3)*%
X86901000Y-91713000D02*
X86901000Y-93651000D01*
X87757000Y-94507000D02*
X91000000Y-94507000D01*
X86901000Y-93651000D02*
X87757000Y-94507000D01*
%TO.N,Net-(Q1-Pad2)*%
X86901000Y-90443000D02*
X91193000Y-90443000D01*
X91193000Y-90443000D02*
X92000000Y-91250000D01*
X93391600Y-91250000D02*
X93880000Y-91738400D01*
X92000000Y-91250000D02*
X93391600Y-91250000D01*
%TO.N,Net-(R3-Pad2)*%
X101500000Y-91738400D02*
X101500000Y-93000000D01*
X102620000Y-94120000D02*
X105722400Y-94120000D01*
X101500000Y-93000000D02*
X102620000Y-94120000D01*
%TO.N,Net-(R4-Pad1)*%
X101480600Y-77387400D02*
X104500000Y-77387400D01*
D23*
%TO.N,/J_ACK*%
X71982200Y-80000000D02*
X72000000Y-80017800D01*
X66000000Y-80000000D02*
X71982200Y-80000000D01*
X72000000Y-80017800D02*
X72000000Y-94430800D01*
%TO.N,/K_ACK*%
X70354600Y-89350800D02*
X70380000Y-89325400D01*
X66000000Y-89350800D02*
X70354600Y-89350800D01*
X70380000Y-89325400D02*
X70380000Y-85000000D01*
%TO.N,/K*%
X62929200Y-87580000D02*
X64700000Y-89350800D01*
X54000000Y-87580000D02*
X62929200Y-87580000D01*
%TO.N,/J*%
X64700000Y-80000000D02*
X61500000Y-80000000D01*
X61500000Y-80000000D02*
X59000000Y-82500000D01*
X59000000Y-82500000D02*
X54000000Y-82500000D01*
%TD*%
D24*
%TO.N,GND*%
G36*
X123259659Y-70688625D02*
G01*
X123509429Y-70764035D01*
X123739792Y-70886522D01*
X123941980Y-71051422D01*
X124108286Y-71252450D01*
X124232378Y-71481954D01*
X124309531Y-71731195D01*
X124340001Y-72021098D01*
X124340000Y-97967721D01*
X124311375Y-98259660D01*
X124235965Y-98509429D01*
X124113477Y-98739794D01*
X123948579Y-98941979D01*
X123747546Y-99108288D01*
X123518046Y-99232378D01*
X123268805Y-99309531D01*
X122978911Y-99340000D01*
X52032279Y-99340000D01*
X51740340Y-99311375D01*
X51490571Y-99235965D01*
X51260206Y-99113477D01*
X51058021Y-98948579D01*
X50891712Y-98747546D01*
X50767622Y-98518046D01*
X50690469Y-98268805D01*
X50660000Y-97978911D01*
X50660000Y-95804495D01*
X52015000Y-95804495D01*
X52015000Y-96195505D01*
X52091282Y-96579003D01*
X52240915Y-96940250D01*
X52458149Y-97265364D01*
X52734636Y-97541851D01*
X53059750Y-97759085D01*
X53420997Y-97908718D01*
X53804495Y-97985000D01*
X54195505Y-97985000D01*
X54579003Y-97908718D01*
X54940250Y-97759085D01*
X55265364Y-97541851D01*
X55541851Y-97265364D01*
X55759085Y-96940250D01*
X55908718Y-96579003D01*
X55985000Y-96195505D01*
X55985000Y-95804495D01*
X55908718Y-95420997D01*
X55759085Y-95059750D01*
X55541851Y-94734636D01*
X55265364Y-94458149D01*
X54940250Y-94240915D01*
X54579003Y-94091282D01*
X54195505Y-94015000D01*
X53804495Y-94015000D01*
X53420997Y-94091282D01*
X53059750Y-94240915D01*
X52734636Y-94458149D01*
X52458149Y-94734636D01*
X52240915Y-95059750D01*
X52091282Y-95420997D01*
X52015000Y-95804495D01*
X50660000Y-95804495D01*
X50660000Y-86080000D01*
X51861928Y-86080000D01*
X51861928Y-89080000D01*
X51874188Y-89204482D01*
X51910498Y-89324180D01*
X51969463Y-89434494D01*
X52048815Y-89531185D01*
X52145506Y-89610537D01*
X52255820Y-89669502D01*
X52375518Y-89705812D01*
X52500000Y-89718072D01*
X55500000Y-89718072D01*
X55624482Y-89705812D01*
X55744180Y-89669502D01*
X55854494Y-89610537D01*
X55951185Y-89531185D01*
X56030537Y-89434494D01*
X56089502Y-89324180D01*
X56125812Y-89204482D01*
X56138072Y-89080000D01*
X56138072Y-88465000D01*
X62562622Y-88465000D01*
X63561928Y-89464307D01*
X63561928Y-89600800D01*
X63564336Y-89625250D01*
X63564336Y-89649809D01*
X63576596Y-89774290D01*
X63595718Y-89870423D01*
X63632027Y-89990119D01*
X63669536Y-90080675D01*
X63728502Y-90190992D01*
X63782958Y-90272491D01*
X63862310Y-90369182D01*
X63931618Y-90438490D01*
X64028309Y-90517842D01*
X64109808Y-90572298D01*
X64220125Y-90631264D01*
X64310681Y-90668773D01*
X64430377Y-90705082D01*
X64526510Y-90724204D01*
X64650991Y-90736464D01*
X64675550Y-90736464D01*
X64700000Y-90738872D01*
X65200000Y-90738872D01*
X65324482Y-90726612D01*
X65350000Y-90718871D01*
X65375518Y-90726612D01*
X65500000Y-90738872D01*
X66000000Y-90738872D01*
X66024450Y-90736464D01*
X66049009Y-90736464D01*
X66173490Y-90724204D01*
X66269623Y-90705082D01*
X66389319Y-90668773D01*
X66479875Y-90631264D01*
X66590192Y-90572298D01*
X66671691Y-90517842D01*
X66768382Y-90438490D01*
X66837690Y-90369182D01*
X66917042Y-90272491D01*
X66941558Y-90235800D01*
X69262450Y-90235800D01*
X69265363Y-90240159D01*
X69465241Y-90440037D01*
X69700273Y-90597080D01*
X69961426Y-90705253D01*
X70238665Y-90760400D01*
X70521335Y-90760400D01*
X70798574Y-90705253D01*
X71059727Y-90597080D01*
X71115001Y-90560147D01*
X71115001Y-93296278D01*
X71085241Y-93316163D01*
X70885363Y-93516041D01*
X70728320Y-93751073D01*
X70620147Y-94012226D01*
X70565000Y-94289465D01*
X70565000Y-94572135D01*
X70620147Y-94849374D01*
X70728320Y-95110527D01*
X70885363Y-95345559D01*
X71085241Y-95545437D01*
X71320273Y-95702480D01*
X71581426Y-95810653D01*
X71858665Y-95865800D01*
X72141335Y-95865800D01*
X72418574Y-95810653D01*
X72679727Y-95702480D01*
X72914759Y-95545437D01*
X73114637Y-95345559D01*
X73271680Y-95110527D01*
X73379853Y-94849374D01*
X73435000Y-94572135D01*
X73435000Y-94289465D01*
X73379853Y-94012226D01*
X73271680Y-93751073D01*
X73114637Y-93516041D01*
X72914759Y-93316163D01*
X72885000Y-93296279D01*
X72885000Y-88525400D01*
X76561928Y-88525400D01*
X76561928Y-90125400D01*
X76574188Y-90249882D01*
X76610498Y-90369580D01*
X76669463Y-90479894D01*
X76748815Y-90576585D01*
X76845506Y-90655937D01*
X76955820Y-90714902D01*
X77075518Y-90751212D01*
X77200000Y-90763472D01*
X78800000Y-90763472D01*
X78860000Y-90757563D01*
X78860001Y-92992728D01*
X78820000Y-92992728D01*
X78695518Y-93004988D01*
X78575820Y-93041298D01*
X78465506Y-93100263D01*
X78368815Y-93179615D01*
X78289463Y-93276306D01*
X78230498Y-93386620D01*
X78194188Y-93506318D01*
X78181928Y-93630800D01*
X78181928Y-95230800D01*
X78194188Y-95355282D01*
X78230498Y-95474980D01*
X78289463Y-95585294D01*
X78368815Y-95681985D01*
X78465506Y-95761337D01*
X78575820Y-95820302D01*
X78695518Y-95856612D01*
X78820000Y-95868872D01*
X80420000Y-95868872D01*
X80544482Y-95856612D01*
X80664180Y-95820302D01*
X80774494Y-95761337D01*
X80871185Y-95681985D01*
X80950537Y-95585294D01*
X81009502Y-95474980D01*
X81045812Y-95355282D01*
X81054507Y-95267000D01*
X82282225Y-95267000D01*
X82343038Y-95358013D01*
X82528987Y-95543962D01*
X82747641Y-95690061D01*
X82990595Y-95790696D01*
X83248514Y-95842000D01*
X83511486Y-95842000D01*
X83769405Y-95790696D01*
X84012359Y-95690061D01*
X84231013Y-95543962D01*
X84416962Y-95358013D01*
X84563061Y-95139359D01*
X84663696Y-94896405D01*
X84715000Y-94638486D01*
X84715000Y-94375514D01*
X84663696Y-94117595D01*
X84563061Y-93874641D01*
X84416962Y-93655987D01*
X84231013Y-93470038D01*
X84012359Y-93323939D01*
X83769405Y-93223304D01*
X83511486Y-93172000D01*
X83248514Y-93172000D01*
X82990595Y-93223304D01*
X82747641Y-93323939D01*
X82528987Y-93470038D01*
X82343038Y-93655987D01*
X82282225Y-93747000D01*
X81058072Y-93747000D01*
X81058072Y-93630800D01*
X81045812Y-93506318D01*
X81009502Y-93386620D01*
X80950537Y-93276306D01*
X80871185Y-93179615D01*
X80774494Y-93100263D01*
X80664180Y-93041298D01*
X80544482Y-93004988D01*
X80420000Y-92992728D01*
X80380000Y-92992728D01*
X80380000Y-90407322D01*
X80383676Y-90369999D01*
X80380000Y-90332676D01*
X80380000Y-90332667D01*
X80369003Y-90221014D01*
X80325546Y-90077753D01*
X80254974Y-89945724D01*
X80219911Y-89902999D01*
X80183799Y-89858996D01*
X80183795Y-89858992D01*
X80160001Y-89829999D01*
X80131009Y-89806206D01*
X79438072Y-89113270D01*
X79438072Y-88525400D01*
X79425812Y-88400918D01*
X79389502Y-88281220D01*
X79330537Y-88170906D01*
X79251185Y-88074215D01*
X79154494Y-87994863D01*
X79044180Y-87935898D01*
X78924482Y-87899588D01*
X78800000Y-87887328D01*
X77200000Y-87887328D01*
X77075518Y-87899588D01*
X76955820Y-87935898D01*
X76845506Y-87994863D01*
X76748815Y-88074215D01*
X76669463Y-88170906D01*
X76610498Y-88281220D01*
X76574188Y-88400918D01*
X76561928Y-88525400D01*
X72885000Y-88525400D01*
X72885000Y-84858665D01*
X76565000Y-84858665D01*
X76565000Y-85141335D01*
X76620147Y-85418574D01*
X76728320Y-85679727D01*
X76885363Y-85914759D01*
X77085241Y-86114637D01*
X77320273Y-86271680D01*
X77581426Y-86379853D01*
X77858665Y-86435000D01*
X78141335Y-86435000D01*
X78418574Y-86379853D01*
X78679727Y-86271680D01*
X78914759Y-86114637D01*
X79114637Y-85914759D01*
X79218043Y-85760000D01*
X85185199Y-85760000D01*
X86141000Y-86715802D01*
X86141001Y-88010913D01*
X86026518Y-88022188D01*
X85906820Y-88058498D01*
X85796506Y-88117463D01*
X85699815Y-88196815D01*
X85620463Y-88293506D01*
X85561498Y-88403820D01*
X85525188Y-88523518D01*
X85512928Y-88648000D01*
X85512928Y-89698000D01*
X85525188Y-89822482D01*
X85561498Y-89942180D01*
X85596093Y-90006902D01*
X85532785Y-90215600D01*
X85510388Y-90443000D01*
X85532785Y-90670400D01*
X85599115Y-90889060D01*
X85700105Y-91078000D01*
X85599115Y-91266940D01*
X85532785Y-91485600D01*
X85510388Y-91713000D01*
X85532785Y-91940400D01*
X85599115Y-92159060D01*
X85706829Y-92360579D01*
X85851788Y-92537212D01*
X86028421Y-92682171D01*
X86141001Y-92742346D01*
X86141001Y-93613668D01*
X86137324Y-93651000D01*
X86141001Y-93688333D01*
X86151998Y-93799986D01*
X86160421Y-93827753D01*
X86195454Y-93943246D01*
X86266026Y-94075276D01*
X86317958Y-94138554D01*
X86361000Y-94191001D01*
X86389998Y-94214799D01*
X87193201Y-95018003D01*
X87216999Y-95047001D01*
X87332724Y-95141974D01*
X87464753Y-95212546D01*
X87608014Y-95256003D01*
X87719667Y-95267000D01*
X87719677Y-95267000D01*
X87757000Y-95270676D01*
X87794323Y-95267000D01*
X89902225Y-95267000D01*
X89963038Y-95358013D01*
X90148987Y-95543962D01*
X90367641Y-95690061D01*
X90610595Y-95790696D01*
X90868514Y-95842000D01*
X91131486Y-95842000D01*
X91320033Y-95804495D01*
X119015000Y-95804495D01*
X119015000Y-96195505D01*
X119091282Y-96579003D01*
X119240915Y-96940250D01*
X119458149Y-97265364D01*
X119734636Y-97541851D01*
X120059750Y-97759085D01*
X120420997Y-97908718D01*
X120804495Y-97985000D01*
X121195505Y-97985000D01*
X121579003Y-97908718D01*
X121940250Y-97759085D01*
X122265364Y-97541851D01*
X122541851Y-97265364D01*
X122759085Y-96940250D01*
X122908718Y-96579003D01*
X122985000Y-96195505D01*
X122985000Y-95804495D01*
X122908718Y-95420997D01*
X122759085Y-95059750D01*
X122541851Y-94734636D01*
X122265364Y-94458149D01*
X121940250Y-94240915D01*
X121579003Y-94091282D01*
X121195505Y-94015000D01*
X120804495Y-94015000D01*
X120420997Y-94091282D01*
X120059750Y-94240915D01*
X119734636Y-94458149D01*
X119458149Y-94734636D01*
X119240915Y-95059750D01*
X119091282Y-95420997D01*
X119015000Y-95804495D01*
X91320033Y-95804495D01*
X91389405Y-95790696D01*
X91632359Y-95690061D01*
X91851013Y-95543962D01*
X92036962Y-95358013D01*
X92183061Y-95139359D01*
X92283696Y-94896405D01*
X92335000Y-94638486D01*
X92335000Y-94375514D01*
X92283696Y-94117595D01*
X92183061Y-93874641D01*
X92036962Y-93655987D01*
X91851013Y-93470038D01*
X91632359Y-93323939D01*
X91389405Y-93223304D01*
X91131486Y-93172000D01*
X90868514Y-93172000D01*
X90610595Y-93223304D01*
X90367641Y-93323939D01*
X90148987Y-93470038D01*
X89963038Y-93655987D01*
X89902225Y-93747000D01*
X88071802Y-93747000D01*
X87661000Y-93336199D01*
X87661000Y-92742346D01*
X87773579Y-92682171D01*
X87950212Y-92537212D01*
X88095171Y-92360579D01*
X88202885Y-92159060D01*
X88269215Y-91940400D01*
X88291612Y-91713000D01*
X88269215Y-91485600D01*
X88202885Y-91266940D01*
X88168708Y-91203000D01*
X90878199Y-91203000D01*
X91436201Y-91761002D01*
X91459999Y-91790001D01*
X91575724Y-91884974D01*
X91707753Y-91955546D01*
X91851014Y-91999003D01*
X91962667Y-92010000D01*
X91962676Y-92010000D01*
X91999999Y-92013676D01*
X92037322Y-92010000D01*
X92470912Y-92010000D01*
X92500147Y-92156974D01*
X92608320Y-92418127D01*
X92765363Y-92653159D01*
X92965241Y-92853037D01*
X93200273Y-93010080D01*
X93461426Y-93118253D01*
X93738665Y-93173400D01*
X94021335Y-93173400D01*
X94298574Y-93118253D01*
X94559727Y-93010080D01*
X94794759Y-92853037D01*
X94994637Y-92653159D01*
X95151680Y-92418127D01*
X95259853Y-92156974D01*
X95315000Y-91879735D01*
X95315000Y-91597065D01*
X95259853Y-91319826D01*
X95151680Y-91058673D01*
X95071317Y-90938400D01*
X100061928Y-90938400D01*
X100061928Y-92538400D01*
X100074188Y-92662882D01*
X100110498Y-92782580D01*
X100169463Y-92892894D01*
X100248815Y-92989585D01*
X100345506Y-93068937D01*
X100455820Y-93127902D01*
X100575518Y-93164212D01*
X100700000Y-93176472D01*
X100759336Y-93176472D01*
X100794454Y-93292246D01*
X100865026Y-93424276D01*
X100932357Y-93506318D01*
X100960000Y-93540001D01*
X100988998Y-93563799D01*
X102056201Y-94631003D01*
X102079999Y-94660001D01*
X102195724Y-94754974D01*
X102327753Y-94825546D01*
X102471014Y-94869003D01*
X102582667Y-94880000D01*
X102582676Y-94880000D01*
X102619999Y-94883676D01*
X102657322Y-94880000D01*
X104624625Y-94880000D01*
X104685438Y-94971013D01*
X104871387Y-95156962D01*
X105090041Y-95303061D01*
X105332995Y-95403696D01*
X105590914Y-95455000D01*
X105853886Y-95455000D01*
X106111805Y-95403696D01*
X106354759Y-95303061D01*
X106573413Y-95156962D01*
X106759362Y-94971013D01*
X106905461Y-94752359D01*
X107006096Y-94509405D01*
X107057400Y-94251486D01*
X107057400Y-93988514D01*
X107006096Y-93730595D01*
X106905461Y-93487641D01*
X106759362Y-93268987D01*
X106573413Y-93083038D01*
X106354759Y-92936939D01*
X106111805Y-92836304D01*
X105853886Y-92785000D01*
X105590914Y-92785000D01*
X105332995Y-92836304D01*
X105090041Y-92936939D01*
X104871387Y-93083038D01*
X104685438Y-93268987D01*
X104624625Y-93360000D01*
X102934802Y-93360000D01*
X102647485Y-93072683D01*
X102654494Y-93068937D01*
X102751185Y-92989585D01*
X102830537Y-92892894D01*
X102889502Y-92782580D01*
X102925812Y-92662882D01*
X102938072Y-92538400D01*
X102938072Y-90938400D01*
X102925812Y-90813918D01*
X102889502Y-90694220D01*
X102830537Y-90583906D01*
X102751185Y-90487215D01*
X102654494Y-90407863D01*
X102544180Y-90348898D01*
X102424482Y-90312588D01*
X102399920Y-90310169D01*
X102563519Y-90161814D01*
X102731037Y-89935820D01*
X102851246Y-89681487D01*
X102891904Y-89547439D01*
X102769915Y-89325400D01*
X101627000Y-89325400D01*
X101627000Y-89345400D01*
X101373000Y-89345400D01*
X101373000Y-89325400D01*
X100230085Y-89325400D01*
X100108096Y-89547439D01*
X100148754Y-89681487D01*
X100268963Y-89935820D01*
X100436481Y-90161814D01*
X100600080Y-90310169D01*
X100575518Y-90312588D01*
X100455820Y-90348898D01*
X100345506Y-90407863D01*
X100248815Y-90487215D01*
X100169463Y-90583906D01*
X100110498Y-90694220D01*
X100074188Y-90813918D01*
X100061928Y-90938400D01*
X95071317Y-90938400D01*
X94994637Y-90823641D01*
X94794759Y-90623763D01*
X94562241Y-90468400D01*
X94794759Y-90313037D01*
X94994637Y-90113159D01*
X95151680Y-89878127D01*
X95259853Y-89616974D01*
X95315000Y-89339735D01*
X95315000Y-89057065D01*
X95273685Y-88849361D01*
X100108096Y-88849361D01*
X100230085Y-89071400D01*
X101373000Y-89071400D01*
X101373000Y-87927776D01*
X101627000Y-87927776D01*
X101627000Y-89071400D01*
X102769915Y-89071400D01*
X102891904Y-88849361D01*
X102851246Y-88715313D01*
X102731037Y-88460980D01*
X102563519Y-88234986D01*
X102355131Y-88046015D01*
X102113881Y-87901330D01*
X101849040Y-87806491D01*
X101627000Y-87927776D01*
X101373000Y-87927776D01*
X101150960Y-87806491D01*
X100886119Y-87901330D01*
X100644869Y-88046015D01*
X100436481Y-88234986D01*
X100268963Y-88460980D01*
X100148754Y-88715313D01*
X100108096Y-88849361D01*
X95273685Y-88849361D01*
X95259853Y-88779826D01*
X95151680Y-88518673D01*
X94994637Y-88283641D01*
X94794759Y-88083763D01*
X94559727Y-87926720D01*
X94298574Y-87818547D01*
X94021335Y-87763400D01*
X93738665Y-87763400D01*
X93461426Y-87818547D01*
X93200273Y-87926720D01*
X92965241Y-88083763D01*
X92765363Y-88283641D01*
X92678928Y-88413000D01*
X88243287Y-88413000D01*
X88240502Y-88403820D01*
X88181537Y-88293506D01*
X88102185Y-88196815D01*
X88005494Y-88117463D01*
X87895180Y-88058498D01*
X87775482Y-88022188D01*
X87661000Y-88010913D01*
X87661000Y-86438322D01*
X87664676Y-86400999D01*
X87661000Y-86363676D01*
X87661000Y-86363667D01*
X87650003Y-86252014D01*
X87606546Y-86108753D01*
X87535974Y-85976724D01*
X87441001Y-85860999D01*
X87412004Y-85837202D01*
X86063804Y-84489003D01*
X86040001Y-84459999D01*
X85924276Y-84365026D01*
X85792247Y-84294454D01*
X85648986Y-84250997D01*
X85537333Y-84240000D01*
X85537322Y-84240000D01*
X85500000Y-84236324D01*
X85462678Y-84240000D01*
X79834802Y-84240000D01*
X80131003Y-83943799D01*
X80160001Y-83920001D01*
X80219704Y-83847253D01*
X80254974Y-83804277D01*
X80325546Y-83672247D01*
X80369003Y-83528986D01*
X80380000Y-83417333D01*
X80380000Y-83417323D01*
X80383676Y-83380000D01*
X80380000Y-83342677D01*
X80380000Y-81978665D01*
X86065000Y-81978665D01*
X86065000Y-82261335D01*
X86120147Y-82538574D01*
X86228320Y-82799727D01*
X86385363Y-83034759D01*
X86585241Y-83234637D01*
X86820273Y-83391680D01*
X87081426Y-83499853D01*
X87358665Y-83555000D01*
X87641335Y-83555000D01*
X87918574Y-83499853D01*
X88179727Y-83391680D01*
X88414759Y-83234637D01*
X88614637Y-83034759D01*
X88771680Y-82799727D01*
X88879853Y-82538574D01*
X88935000Y-82261335D01*
X88935000Y-81978665D01*
X88879853Y-81701426D01*
X88771680Y-81440273D01*
X88614637Y-81205241D01*
X88414759Y-81005363D01*
X88179727Y-80848320D01*
X87918574Y-80740147D01*
X87641335Y-80685000D01*
X87358665Y-80685000D01*
X87081426Y-80740147D01*
X86820273Y-80848320D01*
X86585241Y-81005363D01*
X86385363Y-81205241D01*
X86228320Y-81440273D01*
X86120147Y-81701426D01*
X86065000Y-81978665D01*
X80380000Y-81978665D01*
X80380000Y-81235843D01*
X80534759Y-81132437D01*
X80734637Y-80932559D01*
X80891680Y-80697527D01*
X80999853Y-80436374D01*
X81055000Y-80159135D01*
X81055000Y-79876465D01*
X80999853Y-79599226D01*
X80891680Y-79338073D01*
X80734637Y-79103041D01*
X80534759Y-78903163D01*
X80299727Y-78746120D01*
X80038574Y-78637947D01*
X79761335Y-78582800D01*
X79478665Y-78582800D01*
X79201426Y-78637947D01*
X78940273Y-78746120D01*
X78705241Y-78903163D01*
X78505363Y-79103041D01*
X78348320Y-79338073D01*
X78240147Y-79599226D01*
X78185000Y-79876465D01*
X78185000Y-80159135D01*
X78240147Y-80436374D01*
X78348320Y-80697527D01*
X78505363Y-80932559D01*
X78705241Y-81132437D01*
X78860000Y-81235844D01*
X78860001Y-83065197D01*
X78323886Y-83601312D01*
X78141335Y-83565000D01*
X77858665Y-83565000D01*
X77581426Y-83620147D01*
X77320273Y-83728320D01*
X77085241Y-83885363D01*
X76885363Y-84085241D01*
X76728320Y-84320273D01*
X76620147Y-84581426D01*
X76565000Y-84858665D01*
X72885000Y-84858665D01*
X72885000Y-81447501D01*
X72924482Y-81443612D01*
X73044180Y-81407302D01*
X73154494Y-81348337D01*
X73251185Y-81268985D01*
X73330537Y-81172294D01*
X73389502Y-81061980D01*
X73425812Y-80942282D01*
X73438072Y-80817800D01*
X73438072Y-79217800D01*
X73425812Y-79093318D01*
X73389502Y-78973620D01*
X73330537Y-78863306D01*
X73251185Y-78766615D01*
X73154494Y-78687263D01*
X73044180Y-78628298D01*
X72924482Y-78591988D01*
X72800000Y-78579728D01*
X71200000Y-78579728D01*
X71075518Y-78591988D01*
X70955820Y-78628298D01*
X70845506Y-78687263D01*
X70748815Y-78766615D01*
X70669463Y-78863306D01*
X70610498Y-78973620D01*
X70574188Y-79093318D01*
X70572053Y-79115000D01*
X66941558Y-79115000D01*
X66917042Y-79078309D01*
X66837690Y-78981618D01*
X66768382Y-78912310D01*
X66671691Y-78832958D01*
X66590192Y-78778502D01*
X66479875Y-78719536D01*
X66389319Y-78682027D01*
X66269623Y-78645718D01*
X66173490Y-78626596D01*
X66049009Y-78614336D01*
X66024450Y-78614336D01*
X66000000Y-78611928D01*
X65500000Y-78611928D01*
X65375518Y-78624188D01*
X65350000Y-78631929D01*
X65324482Y-78624188D01*
X65200000Y-78611928D01*
X64700000Y-78611928D01*
X64675550Y-78614336D01*
X64650991Y-78614336D01*
X64526510Y-78626596D01*
X64430377Y-78645718D01*
X64310681Y-78682027D01*
X64220125Y-78719536D01*
X64109808Y-78778502D01*
X64028309Y-78832958D01*
X63931618Y-78912310D01*
X63862310Y-78981618D01*
X63782958Y-79078309D01*
X63758442Y-79115000D01*
X61543469Y-79115000D01*
X61500000Y-79110719D01*
X61456531Y-79115000D01*
X61456523Y-79115000D01*
X61326510Y-79127805D01*
X61159687Y-79178411D01*
X61026831Y-79249423D01*
X61005941Y-79260589D01*
X60904953Y-79343468D01*
X60904951Y-79343470D01*
X60871183Y-79371183D01*
X60843470Y-79404951D01*
X58633422Y-81615000D01*
X55944328Y-81615000D01*
X55892012Y-81488698D01*
X55658363Y-81139017D01*
X55360983Y-80841637D01*
X55011302Y-80607988D01*
X54622756Y-80447047D01*
X54210279Y-80365000D01*
X53789721Y-80365000D01*
X53377244Y-80447047D01*
X52988698Y-80607988D01*
X52639017Y-80841637D01*
X52341637Y-81139017D01*
X52107988Y-81488698D01*
X51947047Y-81877244D01*
X51865000Y-82289721D01*
X51865000Y-82710279D01*
X51947047Y-83122756D01*
X52107988Y-83511302D01*
X52341637Y-83860983D01*
X52639017Y-84158363D01*
X52988698Y-84392012D01*
X53377244Y-84552953D01*
X53789721Y-84635000D01*
X54210279Y-84635000D01*
X54622756Y-84552953D01*
X55011302Y-84392012D01*
X55360983Y-84158363D01*
X55658363Y-83860983D01*
X55892012Y-83511302D01*
X55944328Y-83385000D01*
X58956531Y-83385000D01*
X59000000Y-83389281D01*
X59043469Y-83385000D01*
X59043477Y-83385000D01*
X59173490Y-83372195D01*
X59340313Y-83321589D01*
X59494059Y-83239411D01*
X59628817Y-83128817D01*
X59656534Y-83095044D01*
X61866579Y-80885000D01*
X63758442Y-80885000D01*
X63782958Y-80921691D01*
X63862310Y-81018382D01*
X63931618Y-81087690D01*
X64028309Y-81167042D01*
X64109808Y-81221498D01*
X64220125Y-81280464D01*
X64310681Y-81317973D01*
X64430377Y-81354282D01*
X64526510Y-81373404D01*
X64650991Y-81385664D01*
X64675550Y-81385664D01*
X64700000Y-81388072D01*
X65200000Y-81388072D01*
X65324482Y-81375812D01*
X65350000Y-81368071D01*
X65375518Y-81375812D01*
X65500000Y-81388072D01*
X66000000Y-81388072D01*
X66024450Y-81385664D01*
X66049009Y-81385664D01*
X66173490Y-81373404D01*
X66269623Y-81354282D01*
X66389319Y-81317973D01*
X66479875Y-81280464D01*
X66590192Y-81221498D01*
X66671691Y-81167042D01*
X66768382Y-81087690D01*
X66837690Y-81018382D01*
X66917042Y-80921691D01*
X66941558Y-80885000D01*
X70568546Y-80885000D01*
X70574188Y-80942282D01*
X70610498Y-81061980D01*
X70669463Y-81172294D01*
X70748815Y-81268985D01*
X70845506Y-81348337D01*
X70955820Y-81407302D01*
X71075518Y-81443612D01*
X71115000Y-81447501D01*
X71115000Y-83561928D01*
X69580000Y-83561928D01*
X69455518Y-83574188D01*
X69335820Y-83610498D01*
X69225506Y-83669463D01*
X69128815Y-83748815D01*
X69049463Y-83845506D01*
X68990498Y-83955820D01*
X68954188Y-84075518D01*
X68941928Y-84200000D01*
X68941928Y-85800000D01*
X68954188Y-85924482D01*
X68990498Y-86044180D01*
X69049463Y-86154494D01*
X69128815Y-86251185D01*
X69225506Y-86330537D01*
X69335820Y-86389502D01*
X69455518Y-86425812D01*
X69495001Y-86429701D01*
X69495000Y-88190879D01*
X69465241Y-88210763D01*
X69265363Y-88410641D01*
X69228507Y-88465800D01*
X66941558Y-88465800D01*
X66917042Y-88429109D01*
X66837690Y-88332418D01*
X66768382Y-88263110D01*
X66671691Y-88183758D01*
X66590192Y-88129302D01*
X66479875Y-88070336D01*
X66389319Y-88032827D01*
X66269623Y-87996518D01*
X66173490Y-87977396D01*
X66049009Y-87965136D01*
X66024450Y-87965136D01*
X66000000Y-87962728D01*
X65500000Y-87962728D01*
X65375518Y-87974988D01*
X65350000Y-87982729D01*
X65324482Y-87974988D01*
X65200000Y-87962728D01*
X64700000Y-87962728D01*
X64675550Y-87965136D01*
X64650991Y-87965136D01*
X64573542Y-87972764D01*
X63585734Y-86984956D01*
X63558017Y-86951183D01*
X63423259Y-86840589D01*
X63269513Y-86758411D01*
X63102690Y-86707805D01*
X62972677Y-86695000D01*
X62972669Y-86695000D01*
X62929200Y-86690719D01*
X62885731Y-86695000D01*
X56138072Y-86695000D01*
X56138072Y-86080000D01*
X56125812Y-85955518D01*
X56089502Y-85835820D01*
X56030537Y-85725506D01*
X55951185Y-85628815D01*
X55854494Y-85549463D01*
X55744180Y-85490498D01*
X55624482Y-85454188D01*
X55500000Y-85441928D01*
X52500000Y-85441928D01*
X52375518Y-85454188D01*
X52255820Y-85490498D01*
X52145506Y-85549463D01*
X52048815Y-85628815D01*
X51969463Y-85725506D01*
X51910498Y-85835820D01*
X51874188Y-85955518D01*
X51861928Y-86080000D01*
X50660000Y-86080000D01*
X50660000Y-73804495D01*
X52015000Y-73804495D01*
X52015000Y-74195505D01*
X52091282Y-74579003D01*
X52240915Y-74940250D01*
X52458149Y-75265364D01*
X52734636Y-75541851D01*
X53059750Y-75759085D01*
X53420997Y-75908718D01*
X53804495Y-75985000D01*
X54195505Y-75985000D01*
X54579003Y-75908718D01*
X54940250Y-75759085D01*
X55265364Y-75541851D01*
X55541851Y-75265364D01*
X55759085Y-74940250D01*
X55908718Y-74579003D01*
X55950586Y-74368514D01*
X69818000Y-74368514D01*
X69818000Y-74631486D01*
X69869304Y-74889405D01*
X69969939Y-75132359D01*
X70116038Y-75351013D01*
X70301987Y-75536962D01*
X70520641Y-75683061D01*
X70763595Y-75783696D01*
X71021514Y-75835000D01*
X71284486Y-75835000D01*
X71542405Y-75783696D01*
X71785359Y-75683061D01*
X72004013Y-75536962D01*
X72189962Y-75351013D01*
X72336061Y-75132359D01*
X72436696Y-74889405D01*
X72488000Y-74631486D01*
X72488000Y-74368514D01*
X77438000Y-74368514D01*
X77438000Y-74631486D01*
X77489304Y-74889405D01*
X77589939Y-75132359D01*
X77736038Y-75351013D01*
X77921987Y-75536962D01*
X78140641Y-75683061D01*
X78383595Y-75783696D01*
X78641514Y-75835000D01*
X78904486Y-75835000D01*
X79162405Y-75783696D01*
X79405359Y-75683061D01*
X79624013Y-75536962D01*
X79809962Y-75351013D01*
X79870775Y-75260000D01*
X86061928Y-75260000D01*
X86061928Y-75300000D01*
X86074188Y-75424482D01*
X86110498Y-75544180D01*
X86169463Y-75654494D01*
X86248815Y-75751185D01*
X86345506Y-75830537D01*
X86455820Y-75889502D01*
X86575518Y-75925812D01*
X86700000Y-75938072D01*
X88300000Y-75938072D01*
X88424482Y-75925812D01*
X88544180Y-75889502D01*
X88654494Y-75830537D01*
X88751185Y-75751185D01*
X88830537Y-75654494D01*
X88889502Y-75544180D01*
X88925812Y-75424482D01*
X88938072Y-75300000D01*
X88938072Y-75260000D01*
X89435199Y-75260000D01*
X92073601Y-77898403D01*
X92097399Y-77927401D01*
X92213124Y-78022374D01*
X92345153Y-78092946D01*
X92488414Y-78136403D01*
X92600067Y-78147400D01*
X92600076Y-78147400D01*
X92637399Y-78151076D01*
X92644543Y-78150372D01*
X92745963Y-78302159D01*
X92945841Y-78502037D01*
X93178359Y-78657400D01*
X92945841Y-78812763D01*
X92745963Y-79012641D01*
X92588920Y-79247673D01*
X92480747Y-79508826D01*
X92425600Y-79786065D01*
X92425600Y-80068735D01*
X92480747Y-80345974D01*
X92588920Y-80607127D01*
X92745963Y-80842159D01*
X92945841Y-81042037D01*
X93178359Y-81197400D01*
X92945841Y-81352763D01*
X92745963Y-81552641D01*
X92588920Y-81787673D01*
X92480747Y-82048826D01*
X92425600Y-82326065D01*
X92425600Y-82608735D01*
X92480747Y-82885974D01*
X92588920Y-83147127D01*
X92745963Y-83382159D01*
X92945841Y-83582037D01*
X93180873Y-83739080D01*
X93442026Y-83847253D01*
X93719265Y-83902400D01*
X94001935Y-83902400D01*
X94279174Y-83847253D01*
X94540327Y-83739080D01*
X94775359Y-83582037D01*
X94975237Y-83382159D01*
X95132280Y-83147127D01*
X95240453Y-82885974D01*
X95254284Y-82816439D01*
X100088696Y-82816439D01*
X100129354Y-82950487D01*
X100249563Y-83204820D01*
X100417081Y-83430814D01*
X100625469Y-83619785D01*
X100866719Y-83764470D01*
X101131560Y-83859309D01*
X101353600Y-83738024D01*
X101353600Y-82594400D01*
X101607600Y-82594400D01*
X101607600Y-83738024D01*
X101829640Y-83859309D01*
X102094481Y-83764470D01*
X102335731Y-83619785D01*
X102544119Y-83430814D01*
X102711637Y-83204820D01*
X102831846Y-82950487D01*
X102872504Y-82816439D01*
X102750515Y-82594400D01*
X101607600Y-82594400D01*
X101353600Y-82594400D01*
X100210685Y-82594400D01*
X100088696Y-82816439D01*
X95254284Y-82816439D01*
X95295600Y-82608735D01*
X95295600Y-82326065D01*
X95240453Y-82048826D01*
X95132280Y-81787673D01*
X94975237Y-81552641D01*
X94775359Y-81352763D01*
X94542841Y-81197400D01*
X94775359Y-81042037D01*
X94975237Y-80842159D01*
X95132280Y-80607127D01*
X95240453Y-80345974D01*
X95295600Y-80068735D01*
X95295600Y-79786065D01*
X95240453Y-79508826D01*
X95132280Y-79247673D01*
X94975237Y-79012641D01*
X94775359Y-78812763D01*
X94542841Y-78657400D01*
X94775359Y-78502037D01*
X94975237Y-78302159D01*
X95132280Y-78067127D01*
X95240453Y-77805974D01*
X95295600Y-77528735D01*
X95295600Y-77246065D01*
X95240453Y-76968826D01*
X95132280Y-76707673D01*
X94975237Y-76472641D01*
X94776639Y-76274043D01*
X94785082Y-76273212D01*
X94904780Y-76236902D01*
X95015094Y-76177937D01*
X95111785Y-76098585D01*
X95191137Y-76001894D01*
X95250102Y-75891580D01*
X95286412Y-75771882D01*
X95298672Y-75647400D01*
X95298672Y-74706065D01*
X100045600Y-74706065D01*
X100045600Y-74988735D01*
X100100747Y-75265974D01*
X100208920Y-75527127D01*
X100365963Y-75762159D01*
X100565841Y-75962037D01*
X100798359Y-76117400D01*
X100565841Y-76272763D01*
X100365963Y-76472641D01*
X100208920Y-76707673D01*
X100100747Y-76968826D01*
X100045600Y-77246065D01*
X100045600Y-77528735D01*
X100100747Y-77805974D01*
X100208920Y-78067127D01*
X100365963Y-78302159D01*
X100565841Y-78502037D01*
X100798359Y-78657400D01*
X100565841Y-78812763D01*
X100365963Y-79012641D01*
X100208920Y-79247673D01*
X100100747Y-79508826D01*
X100045600Y-79786065D01*
X100045600Y-80068735D01*
X100100747Y-80345974D01*
X100208920Y-80607127D01*
X100365963Y-80842159D01*
X100565841Y-81042037D01*
X100800873Y-81199080D01*
X100811465Y-81203467D01*
X100625469Y-81315015D01*
X100417081Y-81503986D01*
X100249563Y-81729980D01*
X100129354Y-81984313D01*
X100088696Y-82118361D01*
X100210685Y-82340400D01*
X101353600Y-82340400D01*
X101353600Y-82320400D01*
X101607600Y-82320400D01*
X101607600Y-82340400D01*
X102750515Y-82340400D01*
X102872504Y-82118361D01*
X102831846Y-81984313D01*
X102711637Y-81729980D01*
X102544119Y-81503986D01*
X102335731Y-81315015D01*
X102149735Y-81203467D01*
X102160327Y-81199080D01*
X102395359Y-81042037D01*
X102595237Y-80842159D01*
X102698643Y-80687400D01*
X103353716Y-80687400D01*
X103463038Y-80851013D01*
X103648987Y-81036962D01*
X103867641Y-81183061D01*
X104110595Y-81283696D01*
X104368514Y-81335000D01*
X104631486Y-81335000D01*
X104738844Y-81313645D01*
X107686201Y-84261003D01*
X107709999Y-84290001D01*
X107825724Y-84384974D01*
X107957753Y-84455546D01*
X108101014Y-84499003D01*
X108212667Y-84510000D01*
X108212677Y-84510000D01*
X108250000Y-84513676D01*
X108287323Y-84510000D01*
X119597405Y-84510000D01*
X119634294Y-84579014D01*
X119819866Y-84805134D01*
X120045986Y-84990706D01*
X120063374Y-85000000D01*
X120045986Y-85009294D01*
X119819866Y-85194866D01*
X119634294Y-85420986D01*
X119496401Y-85678966D01*
X119477886Y-85740000D01*
X106820175Y-85740000D01*
X106759362Y-85648987D01*
X106573413Y-85463038D01*
X106354759Y-85316939D01*
X106111805Y-85216304D01*
X105853886Y-85165000D01*
X105590914Y-85165000D01*
X105332995Y-85216304D01*
X105090041Y-85316939D01*
X104871387Y-85463038D01*
X104685438Y-85648987D01*
X104539339Y-85867641D01*
X104438704Y-86110595D01*
X104387400Y-86368514D01*
X104387400Y-86631486D01*
X104438704Y-86889405D01*
X104539339Y-87132359D01*
X104685438Y-87351013D01*
X104871387Y-87536962D01*
X105090041Y-87683061D01*
X105332995Y-87783696D01*
X105590914Y-87835000D01*
X105853886Y-87835000D01*
X106111805Y-87783696D01*
X106354759Y-87683061D01*
X106573413Y-87536962D01*
X106759362Y-87351013D01*
X106820175Y-87260000D01*
X119782825Y-87260000D01*
X119819866Y-87305134D01*
X119883337Y-87357223D01*
X119781614Y-87411595D01*
X119647038Y-87522038D01*
X119536595Y-87656614D01*
X119454528Y-87810150D01*
X119403992Y-87976746D01*
X119386928Y-88150000D01*
X119386928Y-89350000D01*
X119403992Y-89523254D01*
X119454528Y-89689850D01*
X119536595Y-89843386D01*
X119647038Y-89977962D01*
X119781614Y-90088405D01*
X119935150Y-90170472D01*
X120101746Y-90221008D01*
X120275000Y-90238072D01*
X121725000Y-90238072D01*
X121898254Y-90221008D01*
X122064850Y-90170472D01*
X122218386Y-90088405D01*
X122352962Y-89977962D01*
X122463405Y-89843386D01*
X122545472Y-89689850D01*
X122596008Y-89523254D01*
X122613072Y-89350000D01*
X122613072Y-88150000D01*
X122596008Y-87976746D01*
X122545472Y-87810150D01*
X122463405Y-87656614D01*
X122352962Y-87522038D01*
X122218386Y-87411595D01*
X122116663Y-87357223D01*
X122180134Y-87305134D01*
X122365706Y-87079014D01*
X122503599Y-86821034D01*
X122588513Y-86541111D01*
X122617185Y-86250000D01*
X122588513Y-85958889D01*
X122503599Y-85678966D01*
X122365706Y-85420986D01*
X122180134Y-85194866D01*
X121954014Y-85009294D01*
X121936626Y-85000000D01*
X121954014Y-84990706D01*
X122180134Y-84805134D01*
X122365706Y-84579014D01*
X122503599Y-84321034D01*
X122588513Y-84041111D01*
X122617185Y-83750000D01*
X122588513Y-83458889D01*
X122503599Y-83178966D01*
X122365706Y-82920986D01*
X122180134Y-82694866D01*
X121954014Y-82509294D01*
X121928278Y-82495538D01*
X122134429Y-82339049D01*
X122327496Y-82121193D01*
X122474352Y-81869858D01*
X122566476Y-81606890D01*
X122445155Y-81377000D01*
X121127000Y-81377000D01*
X121127000Y-81397000D01*
X120873000Y-81397000D01*
X120873000Y-81377000D01*
X119554845Y-81377000D01*
X119433524Y-81606890D01*
X119525648Y-81869858D01*
X119672504Y-82121193D01*
X119865571Y-82339049D01*
X120071722Y-82495538D01*
X120045986Y-82509294D01*
X119819866Y-82694866D01*
X119634294Y-82920986D01*
X119597405Y-82990000D01*
X108564802Y-82990000D01*
X105813645Y-80238844D01*
X105835000Y-80131486D01*
X105835000Y-79868514D01*
X105783696Y-79610595D01*
X105683061Y-79367641D01*
X105536962Y-79148987D01*
X105351013Y-78963038D01*
X105132359Y-78816939D01*
X104889405Y-78716304D01*
X104775769Y-78693700D01*
X104889405Y-78671096D01*
X105132359Y-78570461D01*
X105351013Y-78424362D01*
X105536962Y-78238413D01*
X105683061Y-78019759D01*
X105783696Y-77776805D01*
X105835000Y-77518886D01*
X105835000Y-77255914D01*
X110785000Y-77255914D01*
X110785000Y-77518886D01*
X110836304Y-77776805D01*
X110936939Y-78019759D01*
X111083038Y-78238413D01*
X111268987Y-78424362D01*
X111487641Y-78570461D01*
X111730595Y-78671096D01*
X111844231Y-78693700D01*
X111730595Y-78716304D01*
X111487641Y-78816939D01*
X111268987Y-78963038D01*
X111083038Y-79148987D01*
X110936939Y-79367641D01*
X110836304Y-79610595D01*
X110785000Y-79868514D01*
X110785000Y-80131486D01*
X110836304Y-80389405D01*
X110936939Y-80632359D01*
X111083038Y-80851013D01*
X111268987Y-81036962D01*
X111487641Y-81183061D01*
X111730595Y-81283696D01*
X111988514Y-81335000D01*
X112251486Y-81335000D01*
X112509405Y-81283696D01*
X112752359Y-81183061D01*
X112971013Y-81036962D01*
X113114865Y-80893110D01*
X119433524Y-80893110D01*
X119554845Y-81123000D01*
X120873000Y-81123000D01*
X120873000Y-79923835D01*
X121127000Y-79923835D01*
X121127000Y-81123000D01*
X122445155Y-81123000D01*
X122566476Y-80893110D01*
X122474352Y-80630142D01*
X122327496Y-80378807D01*
X122134429Y-80160951D01*
X121902570Y-79984947D01*
X121640830Y-79857558D01*
X121359267Y-79783680D01*
X121127000Y-79923835D01*
X120873000Y-79923835D01*
X120640733Y-79783680D01*
X120359170Y-79857558D01*
X120097430Y-79984947D01*
X119865571Y-80160951D01*
X119672504Y-80378807D01*
X119525648Y-80630142D01*
X119433524Y-80893110D01*
X113114865Y-80893110D01*
X113156962Y-80851013D01*
X113303061Y-80632359D01*
X113403696Y-80389405D01*
X113455000Y-80131486D01*
X113455000Y-79868514D01*
X113403696Y-79610595D01*
X113303061Y-79367641D01*
X113156962Y-79148987D01*
X112971013Y-78963038D01*
X112752359Y-78816939D01*
X112509405Y-78716304D01*
X112395769Y-78693700D01*
X112509405Y-78671096D01*
X112752359Y-78570461D01*
X112971013Y-78424362D01*
X113156962Y-78238413D01*
X113303061Y-78019759D01*
X113403696Y-77776805D01*
X113455000Y-77518886D01*
X113455000Y-77255914D01*
X113403696Y-76997995D01*
X113303061Y-76755041D01*
X113156962Y-76536387D01*
X112971013Y-76350438D01*
X112752359Y-76204339D01*
X112509405Y-76103704D01*
X112251486Y-76052400D01*
X111988514Y-76052400D01*
X111730595Y-76103704D01*
X111487641Y-76204339D01*
X111268987Y-76350438D01*
X111083038Y-76536387D01*
X110936939Y-76755041D01*
X110836304Y-76997995D01*
X110785000Y-77255914D01*
X105835000Y-77255914D01*
X105783696Y-76997995D01*
X105683061Y-76755041D01*
X105536962Y-76536387D01*
X105351013Y-76350438D01*
X105132359Y-76204339D01*
X104993405Y-76146782D01*
X105182927Y-76068280D01*
X105417959Y-75911237D01*
X105539894Y-75789302D01*
X106190103Y-75789302D01*
X106261686Y-76033271D01*
X106517196Y-76154171D01*
X106791384Y-76222900D01*
X107073712Y-76236817D01*
X107353330Y-76195387D01*
X107619492Y-76100203D01*
X107744714Y-76033271D01*
X107816297Y-75789302D01*
X107003200Y-74976205D01*
X106190103Y-75789302D01*
X105539894Y-75789302D01*
X105617837Y-75711359D01*
X105751892Y-75510731D01*
X105766529Y-75538114D01*
X106010498Y-75609697D01*
X106823595Y-74796600D01*
X107182805Y-74796600D01*
X107995902Y-75609697D01*
X108239871Y-75538114D01*
X108360771Y-75282604D01*
X108429500Y-75008416D01*
X108443417Y-74726088D01*
X108401987Y-74446470D01*
X108306803Y-74180308D01*
X108239871Y-74055086D01*
X107995902Y-73983503D01*
X107182805Y-74796600D01*
X106823595Y-74796600D01*
X106010498Y-73983503D01*
X105766529Y-74055086D01*
X105752876Y-74083941D01*
X105617837Y-73881841D01*
X105539894Y-73803898D01*
X106190103Y-73803898D01*
X107003200Y-74616995D01*
X107815700Y-73804495D01*
X119015000Y-73804495D01*
X119015000Y-74195505D01*
X119091282Y-74579003D01*
X119240915Y-74940250D01*
X119458149Y-75265364D01*
X119734636Y-75541851D01*
X120059750Y-75759085D01*
X120420997Y-75908718D01*
X120804495Y-75985000D01*
X121195505Y-75985000D01*
X121579003Y-75908718D01*
X121940250Y-75759085D01*
X122265364Y-75541851D01*
X122541851Y-75265364D01*
X122759085Y-74940250D01*
X122908718Y-74579003D01*
X122985000Y-74195505D01*
X122985000Y-73804495D01*
X122908718Y-73420997D01*
X122759085Y-73059750D01*
X122541851Y-72734636D01*
X122265364Y-72458149D01*
X121940250Y-72240915D01*
X121579003Y-72091282D01*
X121195505Y-72015000D01*
X120804495Y-72015000D01*
X120420997Y-72091282D01*
X120059750Y-72240915D01*
X119734636Y-72458149D01*
X119458149Y-72734636D01*
X119240915Y-73059750D01*
X119091282Y-73420997D01*
X119015000Y-73804495D01*
X107815700Y-73804495D01*
X107816297Y-73803898D01*
X107744714Y-73559929D01*
X107489204Y-73439029D01*
X107215016Y-73370300D01*
X106932688Y-73356383D01*
X106653070Y-73397813D01*
X106386908Y-73492997D01*
X106261686Y-73559929D01*
X106190103Y-73803898D01*
X105539894Y-73803898D01*
X105417959Y-73681963D01*
X105182927Y-73524920D01*
X104921774Y-73416747D01*
X104644535Y-73361600D01*
X104361865Y-73361600D01*
X104084626Y-73416747D01*
X103823473Y-73524920D01*
X103588441Y-73681963D01*
X103388563Y-73881841D01*
X103231520Y-74116873D01*
X103123347Y-74378026D01*
X103068200Y-74655265D01*
X103068200Y-74937935D01*
X103123347Y-75215174D01*
X103231520Y-75476327D01*
X103388563Y-75711359D01*
X103588441Y-75911237D01*
X103823473Y-76068280D01*
X104009795Y-76145457D01*
X103867641Y-76204339D01*
X103648987Y-76350438D01*
X103463038Y-76536387D01*
X103402225Y-76627400D01*
X102698643Y-76627400D01*
X102595237Y-76472641D01*
X102395359Y-76272763D01*
X102162841Y-76117400D01*
X102395359Y-75962037D01*
X102595237Y-75762159D01*
X102752280Y-75527127D01*
X102860453Y-75265974D01*
X102915600Y-74988735D01*
X102915600Y-74706065D01*
X102860453Y-74428826D01*
X102752280Y-74167673D01*
X102595237Y-73932641D01*
X102395359Y-73732763D01*
X102160327Y-73575720D01*
X101899174Y-73467547D01*
X101621935Y-73412400D01*
X101339265Y-73412400D01*
X101062026Y-73467547D01*
X100800873Y-73575720D01*
X100565841Y-73732763D01*
X100365963Y-73932641D01*
X100208920Y-74167673D01*
X100100747Y-74428826D01*
X100045600Y-74706065D01*
X95298672Y-74706065D01*
X95298672Y-74047400D01*
X95286412Y-73922918D01*
X95250102Y-73803220D01*
X95191137Y-73692906D01*
X95111785Y-73596215D01*
X95015094Y-73516863D01*
X94904780Y-73457898D01*
X94785082Y-73421588D01*
X94660600Y-73409328D01*
X93060600Y-73409328D01*
X92936118Y-73421588D01*
X92816420Y-73457898D01*
X92706106Y-73516863D01*
X92609415Y-73596215D01*
X92530063Y-73692906D01*
X92471098Y-73803220D01*
X92434788Y-73922918D01*
X92422528Y-74047400D01*
X92422528Y-75647400D01*
X92434788Y-75771882D01*
X92471098Y-75891580D01*
X92530063Y-76001894D01*
X92609415Y-76098585D01*
X92706106Y-76177937D01*
X92816420Y-76236902D01*
X92936118Y-76273212D01*
X92944561Y-76274043D01*
X92771703Y-76446901D01*
X90313804Y-73989003D01*
X90290001Y-73959999D01*
X90174276Y-73865026D01*
X90042247Y-73794454D01*
X89898986Y-73750997D01*
X89787333Y-73740000D01*
X89787322Y-73740000D01*
X89750000Y-73736324D01*
X89712678Y-73740000D01*
X88938072Y-73740000D01*
X88938072Y-73700000D01*
X88925812Y-73575518D01*
X88889502Y-73455820D01*
X88830537Y-73345506D01*
X88751185Y-73248815D01*
X88654494Y-73169463D01*
X88544180Y-73110498D01*
X88424482Y-73074188D01*
X88300000Y-73061928D01*
X86700000Y-73061928D01*
X86575518Y-73074188D01*
X86455820Y-73110498D01*
X86345506Y-73169463D01*
X86248815Y-73248815D01*
X86169463Y-73345506D01*
X86110498Y-73455820D01*
X86074188Y-73575518D01*
X86061928Y-73700000D01*
X86061928Y-73740000D01*
X79870775Y-73740000D01*
X79809962Y-73648987D01*
X79624013Y-73463038D01*
X79405359Y-73316939D01*
X79162405Y-73216304D01*
X78904486Y-73165000D01*
X78641514Y-73165000D01*
X78383595Y-73216304D01*
X78140641Y-73316939D01*
X77921987Y-73463038D01*
X77736038Y-73648987D01*
X77589939Y-73867641D01*
X77489304Y-74110595D01*
X77438000Y-74368514D01*
X72488000Y-74368514D01*
X72436696Y-74110595D01*
X72336061Y-73867641D01*
X72189962Y-73648987D01*
X72004013Y-73463038D01*
X71785359Y-73316939D01*
X71542405Y-73216304D01*
X71284486Y-73165000D01*
X71021514Y-73165000D01*
X70763595Y-73216304D01*
X70520641Y-73316939D01*
X70301987Y-73463038D01*
X70116038Y-73648987D01*
X69969939Y-73867641D01*
X69869304Y-74110595D01*
X69818000Y-74368514D01*
X55950586Y-74368514D01*
X55985000Y-74195505D01*
X55985000Y-73804495D01*
X55908718Y-73420997D01*
X55759085Y-73059750D01*
X55541851Y-72734636D01*
X55265364Y-72458149D01*
X54940250Y-72240915D01*
X54579003Y-72091282D01*
X54195505Y-72015000D01*
X53804495Y-72015000D01*
X53420997Y-72091282D01*
X53059750Y-72240915D01*
X52734636Y-72458149D01*
X52458149Y-72734636D01*
X52240915Y-73059750D01*
X52091282Y-73420997D01*
X52015000Y-73804495D01*
X50660000Y-73804495D01*
X50660000Y-72032279D01*
X50688625Y-71740341D01*
X50764035Y-71490571D01*
X50886522Y-71260208D01*
X51051422Y-71058020D01*
X51252450Y-70891714D01*
X51481954Y-70767622D01*
X51731195Y-70690469D01*
X52021088Y-70660000D01*
X122967721Y-70660000D01*
X123259659Y-70688625D01*
G37*
X123259659Y-70688625D02*
X123509429Y-70764035D01*
X123739792Y-70886522D01*
X123941980Y-71051422D01*
X124108286Y-71252450D01*
X124232378Y-71481954D01*
X124309531Y-71731195D01*
X124340001Y-72021098D01*
X124340000Y-97967721D01*
X124311375Y-98259660D01*
X124235965Y-98509429D01*
X124113477Y-98739794D01*
X123948579Y-98941979D01*
X123747546Y-99108288D01*
X123518046Y-99232378D01*
X123268805Y-99309531D01*
X122978911Y-99340000D01*
X52032279Y-99340000D01*
X51740340Y-99311375D01*
X51490571Y-99235965D01*
X51260206Y-99113477D01*
X51058021Y-98948579D01*
X50891712Y-98747546D01*
X50767622Y-98518046D01*
X50690469Y-98268805D01*
X50660000Y-97978911D01*
X50660000Y-95804495D01*
X52015000Y-95804495D01*
X52015000Y-96195505D01*
X52091282Y-96579003D01*
X52240915Y-96940250D01*
X52458149Y-97265364D01*
X52734636Y-97541851D01*
X53059750Y-97759085D01*
X53420997Y-97908718D01*
X53804495Y-97985000D01*
X54195505Y-97985000D01*
X54579003Y-97908718D01*
X54940250Y-97759085D01*
X55265364Y-97541851D01*
X55541851Y-97265364D01*
X55759085Y-96940250D01*
X55908718Y-96579003D01*
X55985000Y-96195505D01*
X55985000Y-95804495D01*
X55908718Y-95420997D01*
X55759085Y-95059750D01*
X55541851Y-94734636D01*
X55265364Y-94458149D01*
X54940250Y-94240915D01*
X54579003Y-94091282D01*
X54195505Y-94015000D01*
X53804495Y-94015000D01*
X53420997Y-94091282D01*
X53059750Y-94240915D01*
X52734636Y-94458149D01*
X52458149Y-94734636D01*
X52240915Y-95059750D01*
X52091282Y-95420997D01*
X52015000Y-95804495D01*
X50660000Y-95804495D01*
X50660000Y-86080000D01*
X51861928Y-86080000D01*
X51861928Y-89080000D01*
X51874188Y-89204482D01*
X51910498Y-89324180D01*
X51969463Y-89434494D01*
X52048815Y-89531185D01*
X52145506Y-89610537D01*
X52255820Y-89669502D01*
X52375518Y-89705812D01*
X52500000Y-89718072D01*
X55500000Y-89718072D01*
X55624482Y-89705812D01*
X55744180Y-89669502D01*
X55854494Y-89610537D01*
X55951185Y-89531185D01*
X56030537Y-89434494D01*
X56089502Y-89324180D01*
X56125812Y-89204482D01*
X56138072Y-89080000D01*
X56138072Y-88465000D01*
X62562622Y-88465000D01*
X63561928Y-89464307D01*
X63561928Y-89600800D01*
X63564336Y-89625250D01*
X63564336Y-89649809D01*
X63576596Y-89774290D01*
X63595718Y-89870423D01*
X63632027Y-89990119D01*
X63669536Y-90080675D01*
X63728502Y-90190992D01*
X63782958Y-90272491D01*
X63862310Y-90369182D01*
X63931618Y-90438490D01*
X64028309Y-90517842D01*
X64109808Y-90572298D01*
X64220125Y-90631264D01*
X64310681Y-90668773D01*
X64430377Y-90705082D01*
X64526510Y-90724204D01*
X64650991Y-90736464D01*
X64675550Y-90736464D01*
X64700000Y-90738872D01*
X65200000Y-90738872D01*
X65324482Y-90726612D01*
X65350000Y-90718871D01*
X65375518Y-90726612D01*
X65500000Y-90738872D01*
X66000000Y-90738872D01*
X66024450Y-90736464D01*
X66049009Y-90736464D01*
X66173490Y-90724204D01*
X66269623Y-90705082D01*
X66389319Y-90668773D01*
X66479875Y-90631264D01*
X66590192Y-90572298D01*
X66671691Y-90517842D01*
X66768382Y-90438490D01*
X66837690Y-90369182D01*
X66917042Y-90272491D01*
X66941558Y-90235800D01*
X69262450Y-90235800D01*
X69265363Y-90240159D01*
X69465241Y-90440037D01*
X69700273Y-90597080D01*
X69961426Y-90705253D01*
X70238665Y-90760400D01*
X70521335Y-90760400D01*
X70798574Y-90705253D01*
X71059727Y-90597080D01*
X71115001Y-90560147D01*
X71115001Y-93296278D01*
X71085241Y-93316163D01*
X70885363Y-93516041D01*
X70728320Y-93751073D01*
X70620147Y-94012226D01*
X70565000Y-94289465D01*
X70565000Y-94572135D01*
X70620147Y-94849374D01*
X70728320Y-95110527D01*
X70885363Y-95345559D01*
X71085241Y-95545437D01*
X71320273Y-95702480D01*
X71581426Y-95810653D01*
X71858665Y-95865800D01*
X72141335Y-95865800D01*
X72418574Y-95810653D01*
X72679727Y-95702480D01*
X72914759Y-95545437D01*
X73114637Y-95345559D01*
X73271680Y-95110527D01*
X73379853Y-94849374D01*
X73435000Y-94572135D01*
X73435000Y-94289465D01*
X73379853Y-94012226D01*
X73271680Y-93751073D01*
X73114637Y-93516041D01*
X72914759Y-93316163D01*
X72885000Y-93296279D01*
X72885000Y-88525400D01*
X76561928Y-88525400D01*
X76561928Y-90125400D01*
X76574188Y-90249882D01*
X76610498Y-90369580D01*
X76669463Y-90479894D01*
X76748815Y-90576585D01*
X76845506Y-90655937D01*
X76955820Y-90714902D01*
X77075518Y-90751212D01*
X77200000Y-90763472D01*
X78800000Y-90763472D01*
X78860000Y-90757563D01*
X78860001Y-92992728D01*
X78820000Y-92992728D01*
X78695518Y-93004988D01*
X78575820Y-93041298D01*
X78465506Y-93100263D01*
X78368815Y-93179615D01*
X78289463Y-93276306D01*
X78230498Y-93386620D01*
X78194188Y-93506318D01*
X78181928Y-93630800D01*
X78181928Y-95230800D01*
X78194188Y-95355282D01*
X78230498Y-95474980D01*
X78289463Y-95585294D01*
X78368815Y-95681985D01*
X78465506Y-95761337D01*
X78575820Y-95820302D01*
X78695518Y-95856612D01*
X78820000Y-95868872D01*
X80420000Y-95868872D01*
X80544482Y-95856612D01*
X80664180Y-95820302D01*
X80774494Y-95761337D01*
X80871185Y-95681985D01*
X80950537Y-95585294D01*
X81009502Y-95474980D01*
X81045812Y-95355282D01*
X81054507Y-95267000D01*
X82282225Y-95267000D01*
X82343038Y-95358013D01*
X82528987Y-95543962D01*
X82747641Y-95690061D01*
X82990595Y-95790696D01*
X83248514Y-95842000D01*
X83511486Y-95842000D01*
X83769405Y-95790696D01*
X84012359Y-95690061D01*
X84231013Y-95543962D01*
X84416962Y-95358013D01*
X84563061Y-95139359D01*
X84663696Y-94896405D01*
X84715000Y-94638486D01*
X84715000Y-94375514D01*
X84663696Y-94117595D01*
X84563061Y-93874641D01*
X84416962Y-93655987D01*
X84231013Y-93470038D01*
X84012359Y-93323939D01*
X83769405Y-93223304D01*
X83511486Y-93172000D01*
X83248514Y-93172000D01*
X82990595Y-93223304D01*
X82747641Y-93323939D01*
X82528987Y-93470038D01*
X82343038Y-93655987D01*
X82282225Y-93747000D01*
X81058072Y-93747000D01*
X81058072Y-93630800D01*
X81045812Y-93506318D01*
X81009502Y-93386620D01*
X80950537Y-93276306D01*
X80871185Y-93179615D01*
X80774494Y-93100263D01*
X80664180Y-93041298D01*
X80544482Y-93004988D01*
X80420000Y-92992728D01*
X80380000Y-92992728D01*
X80380000Y-90407322D01*
X80383676Y-90369999D01*
X80380000Y-90332676D01*
X80380000Y-90332667D01*
X80369003Y-90221014D01*
X80325546Y-90077753D01*
X80254974Y-89945724D01*
X80219911Y-89902999D01*
X80183799Y-89858996D01*
X80183795Y-89858992D01*
X80160001Y-89829999D01*
X80131009Y-89806206D01*
X79438072Y-89113270D01*
X79438072Y-88525400D01*
X79425812Y-88400918D01*
X79389502Y-88281220D01*
X79330537Y-88170906D01*
X79251185Y-88074215D01*
X79154494Y-87994863D01*
X79044180Y-87935898D01*
X78924482Y-87899588D01*
X78800000Y-87887328D01*
X77200000Y-87887328D01*
X77075518Y-87899588D01*
X76955820Y-87935898D01*
X76845506Y-87994863D01*
X76748815Y-88074215D01*
X76669463Y-88170906D01*
X76610498Y-88281220D01*
X76574188Y-88400918D01*
X76561928Y-88525400D01*
X72885000Y-88525400D01*
X72885000Y-84858665D01*
X76565000Y-84858665D01*
X76565000Y-85141335D01*
X76620147Y-85418574D01*
X76728320Y-85679727D01*
X76885363Y-85914759D01*
X77085241Y-86114637D01*
X77320273Y-86271680D01*
X77581426Y-86379853D01*
X77858665Y-86435000D01*
X78141335Y-86435000D01*
X78418574Y-86379853D01*
X78679727Y-86271680D01*
X78914759Y-86114637D01*
X79114637Y-85914759D01*
X79218043Y-85760000D01*
X85185199Y-85760000D01*
X86141000Y-86715802D01*
X86141001Y-88010913D01*
X86026518Y-88022188D01*
X85906820Y-88058498D01*
X85796506Y-88117463D01*
X85699815Y-88196815D01*
X85620463Y-88293506D01*
X85561498Y-88403820D01*
X85525188Y-88523518D01*
X85512928Y-88648000D01*
X85512928Y-89698000D01*
X85525188Y-89822482D01*
X85561498Y-89942180D01*
X85596093Y-90006902D01*
X85532785Y-90215600D01*
X85510388Y-90443000D01*
X85532785Y-90670400D01*
X85599115Y-90889060D01*
X85700105Y-91078000D01*
X85599115Y-91266940D01*
X85532785Y-91485600D01*
X85510388Y-91713000D01*
X85532785Y-91940400D01*
X85599115Y-92159060D01*
X85706829Y-92360579D01*
X85851788Y-92537212D01*
X86028421Y-92682171D01*
X86141001Y-92742346D01*
X86141001Y-93613668D01*
X86137324Y-93651000D01*
X86141001Y-93688333D01*
X86151998Y-93799986D01*
X86160421Y-93827753D01*
X86195454Y-93943246D01*
X86266026Y-94075276D01*
X86317958Y-94138554D01*
X86361000Y-94191001D01*
X86389998Y-94214799D01*
X87193201Y-95018003D01*
X87216999Y-95047001D01*
X87332724Y-95141974D01*
X87464753Y-95212546D01*
X87608014Y-95256003D01*
X87719667Y-95267000D01*
X87719677Y-95267000D01*
X87757000Y-95270676D01*
X87794323Y-95267000D01*
X89902225Y-95267000D01*
X89963038Y-95358013D01*
X90148987Y-95543962D01*
X90367641Y-95690061D01*
X90610595Y-95790696D01*
X90868514Y-95842000D01*
X91131486Y-95842000D01*
X91320033Y-95804495D01*
X119015000Y-95804495D01*
X119015000Y-96195505D01*
X119091282Y-96579003D01*
X119240915Y-96940250D01*
X119458149Y-97265364D01*
X119734636Y-97541851D01*
X120059750Y-97759085D01*
X120420997Y-97908718D01*
X120804495Y-97985000D01*
X121195505Y-97985000D01*
X121579003Y-97908718D01*
X121940250Y-97759085D01*
X122265364Y-97541851D01*
X122541851Y-97265364D01*
X122759085Y-96940250D01*
X122908718Y-96579003D01*
X122985000Y-96195505D01*
X122985000Y-95804495D01*
X122908718Y-95420997D01*
X122759085Y-95059750D01*
X122541851Y-94734636D01*
X122265364Y-94458149D01*
X121940250Y-94240915D01*
X121579003Y-94091282D01*
X121195505Y-94015000D01*
X120804495Y-94015000D01*
X120420997Y-94091282D01*
X120059750Y-94240915D01*
X119734636Y-94458149D01*
X119458149Y-94734636D01*
X119240915Y-95059750D01*
X119091282Y-95420997D01*
X119015000Y-95804495D01*
X91320033Y-95804495D01*
X91389405Y-95790696D01*
X91632359Y-95690061D01*
X91851013Y-95543962D01*
X92036962Y-95358013D01*
X92183061Y-95139359D01*
X92283696Y-94896405D01*
X92335000Y-94638486D01*
X92335000Y-94375514D01*
X92283696Y-94117595D01*
X92183061Y-93874641D01*
X92036962Y-93655987D01*
X91851013Y-93470038D01*
X91632359Y-93323939D01*
X91389405Y-93223304D01*
X91131486Y-93172000D01*
X90868514Y-93172000D01*
X90610595Y-93223304D01*
X90367641Y-93323939D01*
X90148987Y-93470038D01*
X89963038Y-93655987D01*
X89902225Y-93747000D01*
X88071802Y-93747000D01*
X87661000Y-93336199D01*
X87661000Y-92742346D01*
X87773579Y-92682171D01*
X87950212Y-92537212D01*
X88095171Y-92360579D01*
X88202885Y-92159060D01*
X88269215Y-91940400D01*
X88291612Y-91713000D01*
X88269215Y-91485600D01*
X88202885Y-91266940D01*
X88168708Y-91203000D01*
X90878199Y-91203000D01*
X91436201Y-91761002D01*
X91459999Y-91790001D01*
X91575724Y-91884974D01*
X91707753Y-91955546D01*
X91851014Y-91999003D01*
X91962667Y-92010000D01*
X91962676Y-92010000D01*
X91999999Y-92013676D01*
X92037322Y-92010000D01*
X92470912Y-92010000D01*
X92500147Y-92156974D01*
X92608320Y-92418127D01*
X92765363Y-92653159D01*
X92965241Y-92853037D01*
X93200273Y-93010080D01*
X93461426Y-93118253D01*
X93738665Y-93173400D01*
X94021335Y-93173400D01*
X94298574Y-93118253D01*
X94559727Y-93010080D01*
X94794759Y-92853037D01*
X94994637Y-92653159D01*
X95151680Y-92418127D01*
X95259853Y-92156974D01*
X95315000Y-91879735D01*
X95315000Y-91597065D01*
X95259853Y-91319826D01*
X95151680Y-91058673D01*
X95071317Y-90938400D01*
X100061928Y-90938400D01*
X100061928Y-92538400D01*
X100074188Y-92662882D01*
X100110498Y-92782580D01*
X100169463Y-92892894D01*
X100248815Y-92989585D01*
X100345506Y-93068937D01*
X100455820Y-93127902D01*
X100575518Y-93164212D01*
X100700000Y-93176472D01*
X100759336Y-93176472D01*
X100794454Y-93292246D01*
X100865026Y-93424276D01*
X100932357Y-93506318D01*
X100960000Y-93540001D01*
X100988998Y-93563799D01*
X102056201Y-94631003D01*
X102079999Y-94660001D01*
X102195724Y-94754974D01*
X102327753Y-94825546D01*
X102471014Y-94869003D01*
X102582667Y-94880000D01*
X102582676Y-94880000D01*
X102619999Y-94883676D01*
X102657322Y-94880000D01*
X104624625Y-94880000D01*
X104685438Y-94971013D01*
X104871387Y-95156962D01*
X105090041Y-95303061D01*
X105332995Y-95403696D01*
X105590914Y-95455000D01*
X105853886Y-95455000D01*
X106111805Y-95403696D01*
X106354759Y-95303061D01*
X106573413Y-95156962D01*
X106759362Y-94971013D01*
X106905461Y-94752359D01*
X107006096Y-94509405D01*
X107057400Y-94251486D01*
X107057400Y-93988514D01*
X107006096Y-93730595D01*
X106905461Y-93487641D01*
X106759362Y-93268987D01*
X106573413Y-93083038D01*
X106354759Y-92936939D01*
X106111805Y-92836304D01*
X105853886Y-92785000D01*
X105590914Y-92785000D01*
X105332995Y-92836304D01*
X105090041Y-92936939D01*
X104871387Y-93083038D01*
X104685438Y-93268987D01*
X104624625Y-93360000D01*
X102934802Y-93360000D01*
X102647485Y-93072683D01*
X102654494Y-93068937D01*
X102751185Y-92989585D01*
X102830537Y-92892894D01*
X102889502Y-92782580D01*
X102925812Y-92662882D01*
X102938072Y-92538400D01*
X102938072Y-90938400D01*
X102925812Y-90813918D01*
X102889502Y-90694220D01*
X102830537Y-90583906D01*
X102751185Y-90487215D01*
X102654494Y-90407863D01*
X102544180Y-90348898D01*
X102424482Y-90312588D01*
X102399920Y-90310169D01*
X102563519Y-90161814D01*
X102731037Y-89935820D01*
X102851246Y-89681487D01*
X102891904Y-89547439D01*
X102769915Y-89325400D01*
X101627000Y-89325400D01*
X101627000Y-89345400D01*
X101373000Y-89345400D01*
X101373000Y-89325400D01*
X100230085Y-89325400D01*
X100108096Y-89547439D01*
X100148754Y-89681487D01*
X100268963Y-89935820D01*
X100436481Y-90161814D01*
X100600080Y-90310169D01*
X100575518Y-90312588D01*
X100455820Y-90348898D01*
X100345506Y-90407863D01*
X100248815Y-90487215D01*
X100169463Y-90583906D01*
X100110498Y-90694220D01*
X100074188Y-90813918D01*
X100061928Y-90938400D01*
X95071317Y-90938400D01*
X94994637Y-90823641D01*
X94794759Y-90623763D01*
X94562241Y-90468400D01*
X94794759Y-90313037D01*
X94994637Y-90113159D01*
X95151680Y-89878127D01*
X95259853Y-89616974D01*
X95315000Y-89339735D01*
X95315000Y-89057065D01*
X95273685Y-88849361D01*
X100108096Y-88849361D01*
X100230085Y-89071400D01*
X101373000Y-89071400D01*
X101373000Y-87927776D01*
X101627000Y-87927776D01*
X101627000Y-89071400D01*
X102769915Y-89071400D01*
X102891904Y-88849361D01*
X102851246Y-88715313D01*
X102731037Y-88460980D01*
X102563519Y-88234986D01*
X102355131Y-88046015D01*
X102113881Y-87901330D01*
X101849040Y-87806491D01*
X101627000Y-87927776D01*
X101373000Y-87927776D01*
X101150960Y-87806491D01*
X100886119Y-87901330D01*
X100644869Y-88046015D01*
X100436481Y-88234986D01*
X100268963Y-88460980D01*
X100148754Y-88715313D01*
X100108096Y-88849361D01*
X95273685Y-88849361D01*
X95259853Y-88779826D01*
X95151680Y-88518673D01*
X94994637Y-88283641D01*
X94794759Y-88083763D01*
X94559727Y-87926720D01*
X94298574Y-87818547D01*
X94021335Y-87763400D01*
X93738665Y-87763400D01*
X93461426Y-87818547D01*
X93200273Y-87926720D01*
X92965241Y-88083763D01*
X92765363Y-88283641D01*
X92678928Y-88413000D01*
X88243287Y-88413000D01*
X88240502Y-88403820D01*
X88181537Y-88293506D01*
X88102185Y-88196815D01*
X88005494Y-88117463D01*
X87895180Y-88058498D01*
X87775482Y-88022188D01*
X87661000Y-88010913D01*
X87661000Y-86438322D01*
X87664676Y-86400999D01*
X87661000Y-86363676D01*
X87661000Y-86363667D01*
X87650003Y-86252014D01*
X87606546Y-86108753D01*
X87535974Y-85976724D01*
X87441001Y-85860999D01*
X87412004Y-85837202D01*
X86063804Y-84489003D01*
X86040001Y-84459999D01*
X85924276Y-84365026D01*
X85792247Y-84294454D01*
X85648986Y-84250997D01*
X85537333Y-84240000D01*
X85537322Y-84240000D01*
X85500000Y-84236324D01*
X85462678Y-84240000D01*
X79834802Y-84240000D01*
X80131003Y-83943799D01*
X80160001Y-83920001D01*
X80219704Y-83847253D01*
X80254974Y-83804277D01*
X80325546Y-83672247D01*
X80369003Y-83528986D01*
X80380000Y-83417333D01*
X80380000Y-83417323D01*
X80383676Y-83380000D01*
X80380000Y-83342677D01*
X80380000Y-81978665D01*
X86065000Y-81978665D01*
X86065000Y-82261335D01*
X86120147Y-82538574D01*
X86228320Y-82799727D01*
X86385363Y-83034759D01*
X86585241Y-83234637D01*
X86820273Y-83391680D01*
X87081426Y-83499853D01*
X87358665Y-83555000D01*
X87641335Y-83555000D01*
X87918574Y-83499853D01*
X88179727Y-83391680D01*
X88414759Y-83234637D01*
X88614637Y-83034759D01*
X88771680Y-82799727D01*
X88879853Y-82538574D01*
X88935000Y-82261335D01*
X88935000Y-81978665D01*
X88879853Y-81701426D01*
X88771680Y-81440273D01*
X88614637Y-81205241D01*
X88414759Y-81005363D01*
X88179727Y-80848320D01*
X87918574Y-80740147D01*
X87641335Y-80685000D01*
X87358665Y-80685000D01*
X87081426Y-80740147D01*
X86820273Y-80848320D01*
X86585241Y-81005363D01*
X86385363Y-81205241D01*
X86228320Y-81440273D01*
X86120147Y-81701426D01*
X86065000Y-81978665D01*
X80380000Y-81978665D01*
X80380000Y-81235843D01*
X80534759Y-81132437D01*
X80734637Y-80932559D01*
X80891680Y-80697527D01*
X80999853Y-80436374D01*
X81055000Y-80159135D01*
X81055000Y-79876465D01*
X80999853Y-79599226D01*
X80891680Y-79338073D01*
X80734637Y-79103041D01*
X80534759Y-78903163D01*
X80299727Y-78746120D01*
X80038574Y-78637947D01*
X79761335Y-78582800D01*
X79478665Y-78582800D01*
X79201426Y-78637947D01*
X78940273Y-78746120D01*
X78705241Y-78903163D01*
X78505363Y-79103041D01*
X78348320Y-79338073D01*
X78240147Y-79599226D01*
X78185000Y-79876465D01*
X78185000Y-80159135D01*
X78240147Y-80436374D01*
X78348320Y-80697527D01*
X78505363Y-80932559D01*
X78705241Y-81132437D01*
X78860000Y-81235844D01*
X78860001Y-83065197D01*
X78323886Y-83601312D01*
X78141335Y-83565000D01*
X77858665Y-83565000D01*
X77581426Y-83620147D01*
X77320273Y-83728320D01*
X77085241Y-83885363D01*
X76885363Y-84085241D01*
X76728320Y-84320273D01*
X76620147Y-84581426D01*
X76565000Y-84858665D01*
X72885000Y-84858665D01*
X72885000Y-81447501D01*
X72924482Y-81443612D01*
X73044180Y-81407302D01*
X73154494Y-81348337D01*
X73251185Y-81268985D01*
X73330537Y-81172294D01*
X73389502Y-81061980D01*
X73425812Y-80942282D01*
X73438072Y-80817800D01*
X73438072Y-79217800D01*
X73425812Y-79093318D01*
X73389502Y-78973620D01*
X73330537Y-78863306D01*
X73251185Y-78766615D01*
X73154494Y-78687263D01*
X73044180Y-78628298D01*
X72924482Y-78591988D01*
X72800000Y-78579728D01*
X71200000Y-78579728D01*
X71075518Y-78591988D01*
X70955820Y-78628298D01*
X70845506Y-78687263D01*
X70748815Y-78766615D01*
X70669463Y-78863306D01*
X70610498Y-78973620D01*
X70574188Y-79093318D01*
X70572053Y-79115000D01*
X66941558Y-79115000D01*
X66917042Y-79078309D01*
X66837690Y-78981618D01*
X66768382Y-78912310D01*
X66671691Y-78832958D01*
X66590192Y-78778502D01*
X66479875Y-78719536D01*
X66389319Y-78682027D01*
X66269623Y-78645718D01*
X66173490Y-78626596D01*
X66049009Y-78614336D01*
X66024450Y-78614336D01*
X66000000Y-78611928D01*
X65500000Y-78611928D01*
X65375518Y-78624188D01*
X65350000Y-78631929D01*
X65324482Y-78624188D01*
X65200000Y-78611928D01*
X64700000Y-78611928D01*
X64675550Y-78614336D01*
X64650991Y-78614336D01*
X64526510Y-78626596D01*
X64430377Y-78645718D01*
X64310681Y-78682027D01*
X64220125Y-78719536D01*
X64109808Y-78778502D01*
X64028309Y-78832958D01*
X63931618Y-78912310D01*
X63862310Y-78981618D01*
X63782958Y-79078309D01*
X63758442Y-79115000D01*
X61543469Y-79115000D01*
X61500000Y-79110719D01*
X61456531Y-79115000D01*
X61456523Y-79115000D01*
X61326510Y-79127805D01*
X61159687Y-79178411D01*
X61026831Y-79249423D01*
X61005941Y-79260589D01*
X60904953Y-79343468D01*
X60904951Y-79343470D01*
X60871183Y-79371183D01*
X60843470Y-79404951D01*
X58633422Y-81615000D01*
X55944328Y-81615000D01*
X55892012Y-81488698D01*
X55658363Y-81139017D01*
X55360983Y-80841637D01*
X55011302Y-80607988D01*
X54622756Y-80447047D01*
X54210279Y-80365000D01*
X53789721Y-80365000D01*
X53377244Y-80447047D01*
X52988698Y-80607988D01*
X52639017Y-80841637D01*
X52341637Y-81139017D01*
X52107988Y-81488698D01*
X51947047Y-81877244D01*
X51865000Y-82289721D01*
X51865000Y-82710279D01*
X51947047Y-83122756D01*
X52107988Y-83511302D01*
X52341637Y-83860983D01*
X52639017Y-84158363D01*
X52988698Y-84392012D01*
X53377244Y-84552953D01*
X53789721Y-84635000D01*
X54210279Y-84635000D01*
X54622756Y-84552953D01*
X55011302Y-84392012D01*
X55360983Y-84158363D01*
X55658363Y-83860983D01*
X55892012Y-83511302D01*
X55944328Y-83385000D01*
X58956531Y-83385000D01*
X59000000Y-83389281D01*
X59043469Y-83385000D01*
X59043477Y-83385000D01*
X59173490Y-83372195D01*
X59340313Y-83321589D01*
X59494059Y-83239411D01*
X59628817Y-83128817D01*
X59656534Y-83095044D01*
X61866579Y-80885000D01*
X63758442Y-80885000D01*
X63782958Y-80921691D01*
X63862310Y-81018382D01*
X63931618Y-81087690D01*
X64028309Y-81167042D01*
X64109808Y-81221498D01*
X64220125Y-81280464D01*
X64310681Y-81317973D01*
X64430377Y-81354282D01*
X64526510Y-81373404D01*
X64650991Y-81385664D01*
X64675550Y-81385664D01*
X64700000Y-81388072D01*
X65200000Y-81388072D01*
X65324482Y-81375812D01*
X65350000Y-81368071D01*
X65375518Y-81375812D01*
X65500000Y-81388072D01*
X66000000Y-81388072D01*
X66024450Y-81385664D01*
X66049009Y-81385664D01*
X66173490Y-81373404D01*
X66269623Y-81354282D01*
X66389319Y-81317973D01*
X66479875Y-81280464D01*
X66590192Y-81221498D01*
X66671691Y-81167042D01*
X66768382Y-81087690D01*
X66837690Y-81018382D01*
X66917042Y-80921691D01*
X66941558Y-80885000D01*
X70568546Y-80885000D01*
X70574188Y-80942282D01*
X70610498Y-81061980D01*
X70669463Y-81172294D01*
X70748815Y-81268985D01*
X70845506Y-81348337D01*
X70955820Y-81407302D01*
X71075518Y-81443612D01*
X71115000Y-81447501D01*
X71115000Y-83561928D01*
X69580000Y-83561928D01*
X69455518Y-83574188D01*
X69335820Y-83610498D01*
X69225506Y-83669463D01*
X69128815Y-83748815D01*
X69049463Y-83845506D01*
X68990498Y-83955820D01*
X68954188Y-84075518D01*
X68941928Y-84200000D01*
X68941928Y-85800000D01*
X68954188Y-85924482D01*
X68990498Y-86044180D01*
X69049463Y-86154494D01*
X69128815Y-86251185D01*
X69225506Y-86330537D01*
X69335820Y-86389502D01*
X69455518Y-86425812D01*
X69495001Y-86429701D01*
X69495000Y-88190879D01*
X69465241Y-88210763D01*
X69265363Y-88410641D01*
X69228507Y-88465800D01*
X66941558Y-88465800D01*
X66917042Y-88429109D01*
X66837690Y-88332418D01*
X66768382Y-88263110D01*
X66671691Y-88183758D01*
X66590192Y-88129302D01*
X66479875Y-88070336D01*
X66389319Y-88032827D01*
X66269623Y-87996518D01*
X66173490Y-87977396D01*
X66049009Y-87965136D01*
X66024450Y-87965136D01*
X66000000Y-87962728D01*
X65500000Y-87962728D01*
X65375518Y-87974988D01*
X65350000Y-87982729D01*
X65324482Y-87974988D01*
X65200000Y-87962728D01*
X64700000Y-87962728D01*
X64675550Y-87965136D01*
X64650991Y-87965136D01*
X64573542Y-87972764D01*
X63585734Y-86984956D01*
X63558017Y-86951183D01*
X63423259Y-86840589D01*
X63269513Y-86758411D01*
X63102690Y-86707805D01*
X62972677Y-86695000D01*
X62972669Y-86695000D01*
X62929200Y-86690719D01*
X62885731Y-86695000D01*
X56138072Y-86695000D01*
X56138072Y-86080000D01*
X56125812Y-85955518D01*
X56089502Y-85835820D01*
X56030537Y-85725506D01*
X55951185Y-85628815D01*
X55854494Y-85549463D01*
X55744180Y-85490498D01*
X55624482Y-85454188D01*
X55500000Y-85441928D01*
X52500000Y-85441928D01*
X52375518Y-85454188D01*
X52255820Y-85490498D01*
X52145506Y-85549463D01*
X52048815Y-85628815D01*
X51969463Y-85725506D01*
X51910498Y-85835820D01*
X51874188Y-85955518D01*
X51861928Y-86080000D01*
X50660000Y-86080000D01*
X50660000Y-73804495D01*
X52015000Y-73804495D01*
X52015000Y-74195505D01*
X52091282Y-74579003D01*
X52240915Y-74940250D01*
X52458149Y-75265364D01*
X52734636Y-75541851D01*
X53059750Y-75759085D01*
X53420997Y-75908718D01*
X53804495Y-75985000D01*
X54195505Y-75985000D01*
X54579003Y-75908718D01*
X54940250Y-75759085D01*
X55265364Y-75541851D01*
X55541851Y-75265364D01*
X55759085Y-74940250D01*
X55908718Y-74579003D01*
X55950586Y-74368514D01*
X69818000Y-74368514D01*
X69818000Y-74631486D01*
X69869304Y-74889405D01*
X69969939Y-75132359D01*
X70116038Y-75351013D01*
X70301987Y-75536962D01*
X70520641Y-75683061D01*
X70763595Y-75783696D01*
X71021514Y-75835000D01*
X71284486Y-75835000D01*
X71542405Y-75783696D01*
X71785359Y-75683061D01*
X72004013Y-75536962D01*
X72189962Y-75351013D01*
X72336061Y-75132359D01*
X72436696Y-74889405D01*
X72488000Y-74631486D01*
X72488000Y-74368514D01*
X77438000Y-74368514D01*
X77438000Y-74631486D01*
X77489304Y-74889405D01*
X77589939Y-75132359D01*
X77736038Y-75351013D01*
X77921987Y-75536962D01*
X78140641Y-75683061D01*
X78383595Y-75783696D01*
X78641514Y-75835000D01*
X78904486Y-75835000D01*
X79162405Y-75783696D01*
X79405359Y-75683061D01*
X79624013Y-75536962D01*
X79809962Y-75351013D01*
X79870775Y-75260000D01*
X86061928Y-75260000D01*
X86061928Y-75300000D01*
X86074188Y-75424482D01*
X86110498Y-75544180D01*
X86169463Y-75654494D01*
X86248815Y-75751185D01*
X86345506Y-75830537D01*
X86455820Y-75889502D01*
X86575518Y-75925812D01*
X86700000Y-75938072D01*
X88300000Y-75938072D01*
X88424482Y-75925812D01*
X88544180Y-75889502D01*
X88654494Y-75830537D01*
X88751185Y-75751185D01*
X88830537Y-75654494D01*
X88889502Y-75544180D01*
X88925812Y-75424482D01*
X88938072Y-75300000D01*
X88938072Y-75260000D01*
X89435199Y-75260000D01*
X92073601Y-77898403D01*
X92097399Y-77927401D01*
X92213124Y-78022374D01*
X92345153Y-78092946D01*
X92488414Y-78136403D01*
X92600067Y-78147400D01*
X92600076Y-78147400D01*
X92637399Y-78151076D01*
X92644543Y-78150372D01*
X92745963Y-78302159D01*
X92945841Y-78502037D01*
X93178359Y-78657400D01*
X92945841Y-78812763D01*
X92745963Y-79012641D01*
X92588920Y-79247673D01*
X92480747Y-79508826D01*
X92425600Y-79786065D01*
X92425600Y-80068735D01*
X92480747Y-80345974D01*
X92588920Y-80607127D01*
X92745963Y-80842159D01*
X92945841Y-81042037D01*
X93178359Y-81197400D01*
X92945841Y-81352763D01*
X92745963Y-81552641D01*
X92588920Y-81787673D01*
X92480747Y-82048826D01*
X92425600Y-82326065D01*
X92425600Y-82608735D01*
X92480747Y-82885974D01*
X92588920Y-83147127D01*
X92745963Y-83382159D01*
X92945841Y-83582037D01*
X93180873Y-83739080D01*
X93442026Y-83847253D01*
X93719265Y-83902400D01*
X94001935Y-83902400D01*
X94279174Y-83847253D01*
X94540327Y-83739080D01*
X94775359Y-83582037D01*
X94975237Y-83382159D01*
X95132280Y-83147127D01*
X95240453Y-82885974D01*
X95254284Y-82816439D01*
X100088696Y-82816439D01*
X100129354Y-82950487D01*
X100249563Y-83204820D01*
X100417081Y-83430814D01*
X100625469Y-83619785D01*
X100866719Y-83764470D01*
X101131560Y-83859309D01*
X101353600Y-83738024D01*
X101353600Y-82594400D01*
X101607600Y-82594400D01*
X101607600Y-83738024D01*
X101829640Y-83859309D01*
X102094481Y-83764470D01*
X102335731Y-83619785D01*
X102544119Y-83430814D01*
X102711637Y-83204820D01*
X102831846Y-82950487D01*
X102872504Y-82816439D01*
X102750515Y-82594400D01*
X101607600Y-82594400D01*
X101353600Y-82594400D01*
X100210685Y-82594400D01*
X100088696Y-82816439D01*
X95254284Y-82816439D01*
X95295600Y-82608735D01*
X95295600Y-82326065D01*
X95240453Y-82048826D01*
X95132280Y-81787673D01*
X94975237Y-81552641D01*
X94775359Y-81352763D01*
X94542841Y-81197400D01*
X94775359Y-81042037D01*
X94975237Y-80842159D01*
X95132280Y-80607127D01*
X95240453Y-80345974D01*
X95295600Y-80068735D01*
X95295600Y-79786065D01*
X95240453Y-79508826D01*
X95132280Y-79247673D01*
X94975237Y-79012641D01*
X94775359Y-78812763D01*
X94542841Y-78657400D01*
X94775359Y-78502037D01*
X94975237Y-78302159D01*
X95132280Y-78067127D01*
X95240453Y-77805974D01*
X95295600Y-77528735D01*
X95295600Y-77246065D01*
X95240453Y-76968826D01*
X95132280Y-76707673D01*
X94975237Y-76472641D01*
X94776639Y-76274043D01*
X94785082Y-76273212D01*
X94904780Y-76236902D01*
X95015094Y-76177937D01*
X95111785Y-76098585D01*
X95191137Y-76001894D01*
X95250102Y-75891580D01*
X95286412Y-75771882D01*
X95298672Y-75647400D01*
X95298672Y-74706065D01*
X100045600Y-74706065D01*
X100045600Y-74988735D01*
X100100747Y-75265974D01*
X100208920Y-75527127D01*
X100365963Y-75762159D01*
X100565841Y-75962037D01*
X100798359Y-76117400D01*
X100565841Y-76272763D01*
X100365963Y-76472641D01*
X100208920Y-76707673D01*
X100100747Y-76968826D01*
X100045600Y-77246065D01*
X100045600Y-77528735D01*
X100100747Y-77805974D01*
X100208920Y-78067127D01*
X100365963Y-78302159D01*
X100565841Y-78502037D01*
X100798359Y-78657400D01*
X100565841Y-78812763D01*
X100365963Y-79012641D01*
X100208920Y-79247673D01*
X100100747Y-79508826D01*
X100045600Y-79786065D01*
X100045600Y-80068735D01*
X100100747Y-80345974D01*
X100208920Y-80607127D01*
X100365963Y-80842159D01*
X100565841Y-81042037D01*
X100800873Y-81199080D01*
X100811465Y-81203467D01*
X100625469Y-81315015D01*
X100417081Y-81503986D01*
X100249563Y-81729980D01*
X100129354Y-81984313D01*
X100088696Y-82118361D01*
X100210685Y-82340400D01*
X101353600Y-82340400D01*
X101353600Y-82320400D01*
X101607600Y-82320400D01*
X101607600Y-82340400D01*
X102750515Y-82340400D01*
X102872504Y-82118361D01*
X102831846Y-81984313D01*
X102711637Y-81729980D01*
X102544119Y-81503986D01*
X102335731Y-81315015D01*
X102149735Y-81203467D01*
X102160327Y-81199080D01*
X102395359Y-81042037D01*
X102595237Y-80842159D01*
X102698643Y-80687400D01*
X103353716Y-80687400D01*
X103463038Y-80851013D01*
X103648987Y-81036962D01*
X103867641Y-81183061D01*
X104110595Y-81283696D01*
X104368514Y-81335000D01*
X104631486Y-81335000D01*
X104738844Y-81313645D01*
X107686201Y-84261003D01*
X107709999Y-84290001D01*
X107825724Y-84384974D01*
X107957753Y-84455546D01*
X108101014Y-84499003D01*
X108212667Y-84510000D01*
X108212677Y-84510000D01*
X108250000Y-84513676D01*
X108287323Y-84510000D01*
X119597405Y-84510000D01*
X119634294Y-84579014D01*
X119819866Y-84805134D01*
X120045986Y-84990706D01*
X120063374Y-85000000D01*
X120045986Y-85009294D01*
X119819866Y-85194866D01*
X119634294Y-85420986D01*
X119496401Y-85678966D01*
X119477886Y-85740000D01*
X106820175Y-85740000D01*
X106759362Y-85648987D01*
X106573413Y-85463038D01*
X106354759Y-85316939D01*
X106111805Y-85216304D01*
X105853886Y-85165000D01*
X105590914Y-85165000D01*
X105332995Y-85216304D01*
X105090041Y-85316939D01*
X104871387Y-85463038D01*
X104685438Y-85648987D01*
X104539339Y-85867641D01*
X104438704Y-86110595D01*
X104387400Y-86368514D01*
X104387400Y-86631486D01*
X104438704Y-86889405D01*
X104539339Y-87132359D01*
X104685438Y-87351013D01*
X104871387Y-87536962D01*
X105090041Y-87683061D01*
X105332995Y-87783696D01*
X105590914Y-87835000D01*
X105853886Y-87835000D01*
X106111805Y-87783696D01*
X106354759Y-87683061D01*
X106573413Y-87536962D01*
X106759362Y-87351013D01*
X106820175Y-87260000D01*
X119782825Y-87260000D01*
X119819866Y-87305134D01*
X119883337Y-87357223D01*
X119781614Y-87411595D01*
X119647038Y-87522038D01*
X119536595Y-87656614D01*
X119454528Y-87810150D01*
X119403992Y-87976746D01*
X119386928Y-88150000D01*
X119386928Y-89350000D01*
X119403992Y-89523254D01*
X119454528Y-89689850D01*
X119536595Y-89843386D01*
X119647038Y-89977962D01*
X119781614Y-90088405D01*
X119935150Y-90170472D01*
X120101746Y-90221008D01*
X120275000Y-90238072D01*
X121725000Y-90238072D01*
X121898254Y-90221008D01*
X122064850Y-90170472D01*
X122218386Y-90088405D01*
X122352962Y-89977962D01*
X122463405Y-89843386D01*
X122545472Y-89689850D01*
X122596008Y-89523254D01*
X122613072Y-89350000D01*
X122613072Y-88150000D01*
X122596008Y-87976746D01*
X122545472Y-87810150D01*
X122463405Y-87656614D01*
X122352962Y-87522038D01*
X122218386Y-87411595D01*
X122116663Y-87357223D01*
X122180134Y-87305134D01*
X122365706Y-87079014D01*
X122503599Y-86821034D01*
X122588513Y-86541111D01*
X122617185Y-86250000D01*
X122588513Y-85958889D01*
X122503599Y-85678966D01*
X122365706Y-85420986D01*
X122180134Y-85194866D01*
X121954014Y-85009294D01*
X121936626Y-85000000D01*
X121954014Y-84990706D01*
X122180134Y-84805134D01*
X122365706Y-84579014D01*
X122503599Y-84321034D01*
X122588513Y-84041111D01*
X122617185Y-83750000D01*
X122588513Y-83458889D01*
X122503599Y-83178966D01*
X122365706Y-82920986D01*
X122180134Y-82694866D01*
X121954014Y-82509294D01*
X121928278Y-82495538D01*
X122134429Y-82339049D01*
X122327496Y-82121193D01*
X122474352Y-81869858D01*
X122566476Y-81606890D01*
X122445155Y-81377000D01*
X121127000Y-81377000D01*
X121127000Y-81397000D01*
X120873000Y-81397000D01*
X120873000Y-81377000D01*
X119554845Y-81377000D01*
X119433524Y-81606890D01*
X119525648Y-81869858D01*
X119672504Y-82121193D01*
X119865571Y-82339049D01*
X120071722Y-82495538D01*
X120045986Y-82509294D01*
X119819866Y-82694866D01*
X119634294Y-82920986D01*
X119597405Y-82990000D01*
X108564802Y-82990000D01*
X105813645Y-80238844D01*
X105835000Y-80131486D01*
X105835000Y-79868514D01*
X105783696Y-79610595D01*
X105683061Y-79367641D01*
X105536962Y-79148987D01*
X105351013Y-78963038D01*
X105132359Y-78816939D01*
X104889405Y-78716304D01*
X104775769Y-78693700D01*
X104889405Y-78671096D01*
X105132359Y-78570461D01*
X105351013Y-78424362D01*
X105536962Y-78238413D01*
X105683061Y-78019759D01*
X105783696Y-77776805D01*
X105835000Y-77518886D01*
X105835000Y-77255914D01*
X110785000Y-77255914D01*
X110785000Y-77518886D01*
X110836304Y-77776805D01*
X110936939Y-78019759D01*
X111083038Y-78238413D01*
X111268987Y-78424362D01*
X111487641Y-78570461D01*
X111730595Y-78671096D01*
X111844231Y-78693700D01*
X111730595Y-78716304D01*
X111487641Y-78816939D01*
X111268987Y-78963038D01*
X111083038Y-79148987D01*
X110936939Y-79367641D01*
X110836304Y-79610595D01*
X110785000Y-79868514D01*
X110785000Y-80131486D01*
X110836304Y-80389405D01*
X110936939Y-80632359D01*
X111083038Y-80851013D01*
X111268987Y-81036962D01*
X111487641Y-81183061D01*
X111730595Y-81283696D01*
X111988514Y-81335000D01*
X112251486Y-81335000D01*
X112509405Y-81283696D01*
X112752359Y-81183061D01*
X112971013Y-81036962D01*
X113114865Y-80893110D01*
X119433524Y-80893110D01*
X119554845Y-81123000D01*
X120873000Y-81123000D01*
X120873000Y-79923835D01*
X121127000Y-79923835D01*
X121127000Y-81123000D01*
X122445155Y-81123000D01*
X122566476Y-80893110D01*
X122474352Y-80630142D01*
X122327496Y-80378807D01*
X122134429Y-80160951D01*
X121902570Y-79984947D01*
X121640830Y-79857558D01*
X121359267Y-79783680D01*
X121127000Y-79923835D01*
X120873000Y-79923835D01*
X120640733Y-79783680D01*
X120359170Y-79857558D01*
X120097430Y-79984947D01*
X119865571Y-80160951D01*
X119672504Y-80378807D01*
X119525648Y-80630142D01*
X119433524Y-80893110D01*
X113114865Y-80893110D01*
X113156962Y-80851013D01*
X113303061Y-80632359D01*
X113403696Y-80389405D01*
X113455000Y-80131486D01*
X113455000Y-79868514D01*
X113403696Y-79610595D01*
X113303061Y-79367641D01*
X113156962Y-79148987D01*
X112971013Y-78963038D01*
X112752359Y-78816939D01*
X112509405Y-78716304D01*
X112395769Y-78693700D01*
X112509405Y-78671096D01*
X112752359Y-78570461D01*
X112971013Y-78424362D01*
X113156962Y-78238413D01*
X113303061Y-78019759D01*
X113403696Y-77776805D01*
X113455000Y-77518886D01*
X113455000Y-77255914D01*
X113403696Y-76997995D01*
X113303061Y-76755041D01*
X113156962Y-76536387D01*
X112971013Y-76350438D01*
X112752359Y-76204339D01*
X112509405Y-76103704D01*
X112251486Y-76052400D01*
X111988514Y-76052400D01*
X111730595Y-76103704D01*
X111487641Y-76204339D01*
X111268987Y-76350438D01*
X111083038Y-76536387D01*
X110936939Y-76755041D01*
X110836304Y-76997995D01*
X110785000Y-77255914D01*
X105835000Y-77255914D01*
X105783696Y-76997995D01*
X105683061Y-76755041D01*
X105536962Y-76536387D01*
X105351013Y-76350438D01*
X105132359Y-76204339D01*
X104993405Y-76146782D01*
X105182927Y-76068280D01*
X105417959Y-75911237D01*
X105539894Y-75789302D01*
X106190103Y-75789302D01*
X106261686Y-76033271D01*
X106517196Y-76154171D01*
X106791384Y-76222900D01*
X107073712Y-76236817D01*
X107353330Y-76195387D01*
X107619492Y-76100203D01*
X107744714Y-76033271D01*
X107816297Y-75789302D01*
X107003200Y-74976205D01*
X106190103Y-75789302D01*
X105539894Y-75789302D01*
X105617837Y-75711359D01*
X105751892Y-75510731D01*
X105766529Y-75538114D01*
X106010498Y-75609697D01*
X106823595Y-74796600D01*
X107182805Y-74796600D01*
X107995902Y-75609697D01*
X108239871Y-75538114D01*
X108360771Y-75282604D01*
X108429500Y-75008416D01*
X108443417Y-74726088D01*
X108401987Y-74446470D01*
X108306803Y-74180308D01*
X108239871Y-74055086D01*
X107995902Y-73983503D01*
X107182805Y-74796600D01*
X106823595Y-74796600D01*
X106010498Y-73983503D01*
X105766529Y-74055086D01*
X105752876Y-74083941D01*
X105617837Y-73881841D01*
X105539894Y-73803898D01*
X106190103Y-73803898D01*
X107003200Y-74616995D01*
X107815700Y-73804495D01*
X119015000Y-73804495D01*
X119015000Y-74195505D01*
X119091282Y-74579003D01*
X119240915Y-74940250D01*
X119458149Y-75265364D01*
X119734636Y-75541851D01*
X120059750Y-75759085D01*
X120420997Y-75908718D01*
X120804495Y-75985000D01*
X121195505Y-75985000D01*
X121579003Y-75908718D01*
X121940250Y-75759085D01*
X122265364Y-75541851D01*
X122541851Y-75265364D01*
X122759085Y-74940250D01*
X122908718Y-74579003D01*
X122985000Y-74195505D01*
X122985000Y-73804495D01*
X122908718Y-73420997D01*
X122759085Y-73059750D01*
X122541851Y-72734636D01*
X122265364Y-72458149D01*
X121940250Y-72240915D01*
X121579003Y-72091282D01*
X121195505Y-72015000D01*
X120804495Y-72015000D01*
X120420997Y-72091282D01*
X120059750Y-72240915D01*
X119734636Y-72458149D01*
X119458149Y-72734636D01*
X119240915Y-73059750D01*
X119091282Y-73420997D01*
X119015000Y-73804495D01*
X107815700Y-73804495D01*
X107816297Y-73803898D01*
X107744714Y-73559929D01*
X107489204Y-73439029D01*
X107215016Y-73370300D01*
X106932688Y-73356383D01*
X106653070Y-73397813D01*
X106386908Y-73492997D01*
X106261686Y-73559929D01*
X106190103Y-73803898D01*
X105539894Y-73803898D01*
X105417959Y-73681963D01*
X105182927Y-73524920D01*
X104921774Y-73416747D01*
X104644535Y-73361600D01*
X104361865Y-73361600D01*
X104084626Y-73416747D01*
X103823473Y-73524920D01*
X103588441Y-73681963D01*
X103388563Y-73881841D01*
X103231520Y-74116873D01*
X103123347Y-74378026D01*
X103068200Y-74655265D01*
X103068200Y-74937935D01*
X103123347Y-75215174D01*
X103231520Y-75476327D01*
X103388563Y-75711359D01*
X103588441Y-75911237D01*
X103823473Y-76068280D01*
X104009795Y-76145457D01*
X103867641Y-76204339D01*
X103648987Y-76350438D01*
X103463038Y-76536387D01*
X103402225Y-76627400D01*
X102698643Y-76627400D01*
X102595237Y-76472641D01*
X102395359Y-76272763D01*
X102162841Y-76117400D01*
X102395359Y-75962037D01*
X102595237Y-75762159D01*
X102752280Y-75527127D01*
X102860453Y-75265974D01*
X102915600Y-74988735D01*
X102915600Y-74706065D01*
X102860453Y-74428826D01*
X102752280Y-74167673D01*
X102595237Y-73932641D01*
X102395359Y-73732763D01*
X102160327Y-73575720D01*
X101899174Y-73467547D01*
X101621935Y-73412400D01*
X101339265Y-73412400D01*
X101062026Y-73467547D01*
X100800873Y-73575720D01*
X100565841Y-73732763D01*
X100365963Y-73932641D01*
X100208920Y-74167673D01*
X100100747Y-74428826D01*
X100045600Y-74706065D01*
X95298672Y-74706065D01*
X95298672Y-74047400D01*
X95286412Y-73922918D01*
X95250102Y-73803220D01*
X95191137Y-73692906D01*
X95111785Y-73596215D01*
X95015094Y-73516863D01*
X94904780Y-73457898D01*
X94785082Y-73421588D01*
X94660600Y-73409328D01*
X93060600Y-73409328D01*
X92936118Y-73421588D01*
X92816420Y-73457898D01*
X92706106Y-73516863D01*
X92609415Y-73596215D01*
X92530063Y-73692906D01*
X92471098Y-73803220D01*
X92434788Y-73922918D01*
X92422528Y-74047400D01*
X92422528Y-75647400D01*
X92434788Y-75771882D01*
X92471098Y-75891580D01*
X92530063Y-76001894D01*
X92609415Y-76098585D01*
X92706106Y-76177937D01*
X92816420Y-76236902D01*
X92936118Y-76273212D01*
X92944561Y-76274043D01*
X92771703Y-76446901D01*
X90313804Y-73989003D01*
X90290001Y-73959999D01*
X90174276Y-73865026D01*
X90042247Y-73794454D01*
X89898986Y-73750997D01*
X89787333Y-73740000D01*
X89787322Y-73740000D01*
X89750000Y-73736324D01*
X89712678Y-73740000D01*
X88938072Y-73740000D01*
X88938072Y-73700000D01*
X88925812Y-73575518D01*
X88889502Y-73455820D01*
X88830537Y-73345506D01*
X88751185Y-73248815D01*
X88654494Y-73169463D01*
X88544180Y-73110498D01*
X88424482Y-73074188D01*
X88300000Y-73061928D01*
X86700000Y-73061928D01*
X86575518Y-73074188D01*
X86455820Y-73110498D01*
X86345506Y-73169463D01*
X86248815Y-73248815D01*
X86169463Y-73345506D01*
X86110498Y-73455820D01*
X86074188Y-73575518D01*
X86061928Y-73700000D01*
X86061928Y-73740000D01*
X79870775Y-73740000D01*
X79809962Y-73648987D01*
X79624013Y-73463038D01*
X79405359Y-73316939D01*
X79162405Y-73216304D01*
X78904486Y-73165000D01*
X78641514Y-73165000D01*
X78383595Y-73216304D01*
X78140641Y-73316939D01*
X77921987Y-73463038D01*
X77736038Y-73648987D01*
X77589939Y-73867641D01*
X77489304Y-74110595D01*
X77438000Y-74368514D01*
X72488000Y-74368514D01*
X72436696Y-74110595D01*
X72336061Y-73867641D01*
X72189962Y-73648987D01*
X72004013Y-73463038D01*
X71785359Y-73316939D01*
X71542405Y-73216304D01*
X71284486Y-73165000D01*
X71021514Y-73165000D01*
X70763595Y-73216304D01*
X70520641Y-73316939D01*
X70301987Y-73463038D01*
X70116038Y-73648987D01*
X69969939Y-73867641D01*
X69869304Y-74110595D01*
X69818000Y-74368514D01*
X55950586Y-74368514D01*
X55985000Y-74195505D01*
X55985000Y-73804495D01*
X55908718Y-73420997D01*
X55759085Y-73059750D01*
X55541851Y-72734636D01*
X55265364Y-72458149D01*
X54940250Y-72240915D01*
X54579003Y-72091282D01*
X54195505Y-72015000D01*
X53804495Y-72015000D01*
X53420997Y-72091282D01*
X53059750Y-72240915D01*
X52734636Y-72458149D01*
X52458149Y-72734636D01*
X52240915Y-73059750D01*
X52091282Y-73420997D01*
X52015000Y-73804495D01*
X50660000Y-73804495D01*
X50660000Y-72032279D01*
X50688625Y-71740341D01*
X50764035Y-71490571D01*
X50886522Y-71260208D01*
X51051422Y-71058020D01*
X51252450Y-70891714D01*
X51481954Y-70767622D01*
X51731195Y-70690469D01*
X52021088Y-70660000D01*
X122967721Y-70660000D01*
X123259659Y-70688625D01*
%TD*%
M02*
