%TF.GenerationSoftware,KiCad,Pcbnew,5.1.6-c6e7f7d~87~ubuntu20.04.1*%
%TF.CreationDate,2020-08-28T13:06:37+02:00*%
%TF.ProjectId,DCC,4443432e-6b69-4636-9164-5f7063625858,rev?*%
%TF.SameCoordinates,Original*%
%TF.FileFunction,Soldermask,Bot*%
%TF.FilePolarity,Negative*%
%FSLAX46Y46*%
G04 Gerber Fmt 4.6, Leading zero omitted, Abs format (unit mm)*
G04 Created by KiCad (PCBNEW 5.1.6-c6e7f7d~87~ubuntu20.04.1) date 2020-08-28 13:06:37*
%MOMM*%
%LPD*%
G01*
G04 APERTURE LIST*
%ADD10C,2.800000*%
%ADD11O,1.700000X1.700000*%
%ADD12R,1.700000X1.700000*%
%ADD13O,1.500000X1.500000*%
%ADD14C,1.500000*%
%ADD15R,1.600000X1.150000*%
%ADD16O,1.600000X1.150000*%
%ADD17O,2.050000X1.800000*%
%ADD18C,3.100000*%
%ADD19R,3.100000X3.100000*%
%ADD20C,1.700000*%
G04 APERTURE END LIST*
D10*
%TO.C,H4*%
X121000000Y-96000000D03*
%TD*%
%TO.C,H3*%
X121000000Y-74000000D03*
%TD*%
%TO.C,H2*%
X54000000Y-96000000D03*
%TD*%
%TO.C,H1*%
X54000000Y-74000000D03*
%TD*%
D11*
%TO.C,U2*%
X93880000Y-91738400D03*
X101500000Y-89198400D03*
X93880000Y-89198400D03*
D12*
X101500000Y-91738400D03*
%TD*%
D11*
%TO.C,U1*%
X101480600Y-74847400D03*
X93860600Y-82467400D03*
X101480600Y-77387400D03*
X93860600Y-79927400D03*
X101480600Y-79927400D03*
X93860600Y-77387400D03*
X101480600Y-82467400D03*
D12*
X93860600Y-74847400D03*
%TD*%
D13*
%TO.C,R5*%
X112120000Y-80000000D03*
D14*
X104500000Y-80000000D03*
%TD*%
D13*
%TO.C,R4*%
X112120000Y-77387400D03*
D14*
X104500000Y-77387400D03*
%TD*%
D13*
%TO.C,R3*%
X105722400Y-94120000D03*
D14*
X105722400Y-86500000D03*
%TD*%
D13*
%TO.C,R2*%
X71153000Y-74500000D03*
D14*
X78773000Y-74500000D03*
%TD*%
D13*
%TO.C,R1*%
X83380000Y-94507000D03*
D14*
X91000000Y-94507000D03*
%TD*%
D15*
%TO.C,Q1*%
X86901000Y-89173000D03*
D16*
X86901000Y-91713000D03*
X86901000Y-90443000D03*
%TD*%
D17*
%TO.C,J2*%
X121000000Y-81250000D03*
X121000000Y-83750000D03*
X121000000Y-86250000D03*
G36*
G01*
X121760294Y-89650000D02*
X120239706Y-89650000D01*
G75*
G02*
X119975000Y-89385294I0J264706D01*
G01*
X119975000Y-88114706D01*
G75*
G02*
X120239706Y-87850000I264706J0D01*
G01*
X121760294Y-87850000D01*
G75*
G02*
X122025000Y-88114706I0J-264706D01*
G01*
X122025000Y-89385294D01*
G75*
G02*
X121760294Y-89650000I-264706J0D01*
G01*
G37*
%TD*%
D18*
%TO.C,J1*%
X54000000Y-82500000D03*
D19*
X54000000Y-87580000D03*
%TD*%
D11*
%TO.C,D5*%
X87500000Y-82120000D03*
D12*
X87500000Y-74500000D03*
%TD*%
D11*
%TO.C,D4*%
X70380000Y-89325400D03*
D12*
X78000000Y-89325400D03*
%TD*%
D11*
%TO.C,D3*%
X78000000Y-85000000D03*
D12*
X70380000Y-85000000D03*
%TD*%
D11*
%TO.C,D2*%
X72000000Y-94430800D03*
D12*
X79620000Y-94430800D03*
%TD*%
D11*
%TO.C,D1*%
X79620000Y-80017800D03*
D12*
X72000000Y-80017800D03*
%TD*%
D20*
%TO.C,C1*%
X107003200Y-74796600D03*
X104503200Y-74796600D03*
%TD*%
M02*
