G04 #@! TF.GenerationSoftware,KiCad,Pcbnew,5.1.5-52549c5~86~ubuntu19.10.1*
G04 #@! TF.CreationDate,2020-04-28T14:26:38+02:00*
G04 #@! TF.ProjectId,ArduinoDCC++,41726475-696e-46f4-9443-432b2b2e6b69,v.0.0.1c*
G04 #@! TF.SameCoordinates,Original*
G04 #@! TF.FileFunction,Copper,L2,Bot*
G04 #@! TF.FilePolarity,Positive*
%FSLAX46Y46*%
G04 Gerber Fmt 4.6, Leading zero omitted, Abs format (unit mm)*
G04 Created by KiCad (PCBNEW 5.1.5-52549c5~86~ubuntu19.10.1) date 2020-04-28 14:26:38*
%MOMM*%
%LPD*%
G04 APERTURE LIST*
%ADD10C,0.050000*%
%ADD11C,1.700000*%
%ADD12O,1.700000X1.700000*%
%ADD13R,1.700000X1.700000*%
%ADD14O,1.700000X1.350000*%
%ADD15O,1.500000X1.100000*%
%ADD16C,0.100000*%
%ADD17R,3.500000X3.500000*%
%ADD18C,3.000000*%
%ADD19R,3.000000X3.000000*%
%ADD20C,2.000000*%
%ADD21O,1.727200X1.727200*%
%ADD22R,1.727200X1.727200*%
%ADD23C,0.800000*%
%ADD24C,0.400000*%
%ADD25C,0.250000*%
%ADD26C,0.800000*%
%ADD27C,0.254000*%
G04 APERTURE END LIST*
D10*
X55000000Y-150000000D02*
X145000000Y-150000000D01*
X50000000Y-67000000D02*
X50000000Y-145000000D01*
X145000000Y-62000000D02*
X55000000Y-62000000D01*
X150000000Y-145000000D02*
X150000000Y-67000000D01*
X150000000Y-145000000D02*
G75*
G02X145000000Y-150000000I-5000000J0D01*
G01*
X145000000Y-62000000D02*
G75*
G02X150000000Y-67000000I0J-5000000D01*
G01*
X50000000Y-67000000D02*
G75*
G02X55000000Y-62000000I5000000J0D01*
G01*
X55000000Y-150000000D02*
G75*
G02X50000000Y-145000000I0J5000000D01*
G01*
D11*
X105031000Y-112916000D03*
X107531000Y-112916000D03*
X110031000Y-112916000D03*
D12*
X71463000Y-95771000D03*
X71463000Y-93231000D03*
X74003000Y-95771000D03*
X74003000Y-93231000D03*
X76543000Y-95771000D03*
D13*
X76543000Y-93231000D03*
D14*
X52441000Y-90983000D03*
X52441000Y-85523000D03*
D15*
X55441000Y-90673000D03*
X55441000Y-85833000D03*
G04 #@! TA.AperFunction,ComponentPad*
D16*
G36*
X61960765Y-117954213D02*
G01*
X62045704Y-117966813D01*
X62128999Y-117987677D01*
X62209848Y-118016605D01*
X62287472Y-118053319D01*
X62361124Y-118097464D01*
X62430094Y-118148616D01*
X62493718Y-118206282D01*
X62551384Y-118269906D01*
X62602536Y-118338876D01*
X62646681Y-118412528D01*
X62683395Y-118490152D01*
X62712323Y-118571001D01*
X62733187Y-118654296D01*
X62745787Y-118739235D01*
X62750000Y-118825000D01*
X62750000Y-120575000D01*
X62745787Y-120660765D01*
X62733187Y-120745704D01*
X62712323Y-120828999D01*
X62683395Y-120909848D01*
X62646681Y-120987472D01*
X62602536Y-121061124D01*
X62551384Y-121130094D01*
X62493718Y-121193718D01*
X62430094Y-121251384D01*
X62361124Y-121302536D01*
X62287472Y-121346681D01*
X62209848Y-121383395D01*
X62128999Y-121412323D01*
X62045704Y-121433187D01*
X61960765Y-121445787D01*
X61875000Y-121450000D01*
X60125000Y-121450000D01*
X60039235Y-121445787D01*
X59954296Y-121433187D01*
X59871001Y-121412323D01*
X59790152Y-121383395D01*
X59712528Y-121346681D01*
X59638876Y-121302536D01*
X59569906Y-121251384D01*
X59506282Y-121193718D01*
X59448616Y-121130094D01*
X59397464Y-121061124D01*
X59353319Y-120987472D01*
X59316605Y-120909848D01*
X59287677Y-120828999D01*
X59266813Y-120745704D01*
X59254213Y-120660765D01*
X59250000Y-120575000D01*
X59250000Y-118825000D01*
X59254213Y-118739235D01*
X59266813Y-118654296D01*
X59287677Y-118571001D01*
X59316605Y-118490152D01*
X59353319Y-118412528D01*
X59397464Y-118338876D01*
X59448616Y-118269906D01*
X59506282Y-118206282D01*
X59569906Y-118148616D01*
X59638876Y-118097464D01*
X59712528Y-118053319D01*
X59790152Y-118016605D01*
X59871001Y-117987677D01*
X59954296Y-117966813D01*
X60039235Y-117954213D01*
X60125000Y-117950000D01*
X61875000Y-117950000D01*
X61960765Y-117954213D01*
G37*
G04 #@! TD.AperFunction*
G04 #@! TA.AperFunction,ComponentPad*
G36*
X58823513Y-113253611D02*
G01*
X58896318Y-113264411D01*
X58967714Y-113282295D01*
X59037013Y-113307090D01*
X59103548Y-113338559D01*
X59166678Y-113376398D01*
X59225795Y-113420242D01*
X59280330Y-113469670D01*
X59329758Y-113524205D01*
X59373602Y-113583322D01*
X59411441Y-113646452D01*
X59442910Y-113712987D01*
X59467705Y-113782286D01*
X59485589Y-113853682D01*
X59496389Y-113926487D01*
X59500000Y-114000000D01*
X59500000Y-116000000D01*
X59496389Y-116073513D01*
X59485589Y-116146318D01*
X59467705Y-116217714D01*
X59442910Y-116287013D01*
X59411441Y-116353548D01*
X59373602Y-116416678D01*
X59329758Y-116475795D01*
X59280330Y-116530330D01*
X59225795Y-116579758D01*
X59166678Y-116623602D01*
X59103548Y-116661441D01*
X59037013Y-116692910D01*
X58967714Y-116717705D01*
X58896318Y-116735589D01*
X58823513Y-116746389D01*
X58750000Y-116750000D01*
X57250000Y-116750000D01*
X57176487Y-116746389D01*
X57103682Y-116735589D01*
X57032286Y-116717705D01*
X56962987Y-116692910D01*
X56896452Y-116661441D01*
X56833322Y-116623602D01*
X56774205Y-116579758D01*
X56719670Y-116530330D01*
X56670242Y-116475795D01*
X56626398Y-116416678D01*
X56588559Y-116353548D01*
X56557090Y-116287013D01*
X56532295Y-116217714D01*
X56514411Y-116146318D01*
X56503611Y-116073513D01*
X56500000Y-116000000D01*
X56500000Y-114000000D01*
X56503611Y-113926487D01*
X56514411Y-113853682D01*
X56532295Y-113782286D01*
X56557090Y-113712987D01*
X56588559Y-113646452D01*
X56626398Y-113583322D01*
X56670242Y-113524205D01*
X56719670Y-113469670D01*
X56774205Y-113420242D01*
X56833322Y-113376398D01*
X56896452Y-113338559D01*
X56962987Y-113307090D01*
X57032286Y-113282295D01*
X57103682Y-113264411D01*
X57176487Y-113253611D01*
X57250000Y-113250000D01*
X58750000Y-113250000D01*
X58823513Y-113253611D01*
G37*
G04 #@! TD.AperFunction*
D17*
X64000000Y-115000000D03*
D18*
X145504000Y-138080000D03*
D19*
X145504000Y-133000000D03*
D18*
X145588000Y-125080000D03*
D19*
X145588000Y-120000000D03*
D12*
X118000000Y-77700000D03*
X118000000Y-75160000D03*
X118000000Y-72620000D03*
X118000000Y-70080000D03*
X118000000Y-67540000D03*
D13*
X118000000Y-65000000D03*
D20*
X101500000Y-64684000D03*
X101500000Y-69184000D03*
X95000000Y-64684000D03*
X95000000Y-69184000D03*
D21*
X94704000Y-91072000D03*
X94704000Y-88532000D03*
X97244000Y-91072000D03*
X97244000Y-88532000D03*
X99784000Y-91072000D03*
D22*
X99784000Y-88532000D03*
D12*
X146780000Y-87000000D03*
X144240000Y-87000000D03*
X141700000Y-87000000D03*
X139160000Y-87000000D03*
X136620000Y-87000000D03*
X134080000Y-87000000D03*
X131540000Y-87000000D03*
D13*
X129000000Y-87000000D03*
D12*
X146860000Y-78000000D03*
X144320000Y-78000000D03*
X141780000Y-78000000D03*
X139240000Y-78000000D03*
X136700000Y-78000000D03*
X134160000Y-78000000D03*
X131620000Y-78000000D03*
X129080000Y-78000000D03*
X126540000Y-78000000D03*
D13*
X124000000Y-78000000D03*
D23*
X80342000Y-75330000D03*
X73955000Y-84220000D03*
X102832000Y-104280000D03*
X104356000Y-133442000D03*
X80734000Y-134712000D03*
X71082000Y-133442000D03*
X54318000Y-127902000D03*
X64224000Y-78880000D03*
X89878000Y-83452000D03*
X99530000Y-80404000D03*
X84290000Y-80404000D03*
X86068000Y-129886000D03*
X81242000Y-130902000D03*
X72860000Y-136998000D03*
X112992000Y-96914000D03*
X112992000Y-100216000D03*
X101816000Y-99708000D03*
X103086000Y-92596000D03*
X132296000Y-100470000D03*
X121374000Y-72911000D03*
X130137000Y-90945000D03*
X132804000Y-90183000D03*
X115405000Y-81928000D03*
X113373000Y-73038000D03*
X109563000Y-67196000D03*
X113119000Y-68720000D03*
X104229000Y-88913000D03*
X124803000Y-103518000D03*
X122390000Y-105296000D03*
X118453000Y-113043000D03*
X141821000Y-94628000D03*
X137757000Y-95390000D03*
X120485000Y-97041000D03*
X111849000Y-82944000D03*
X105753000Y-105677000D03*
X108166000Y-107201000D03*
X68912000Y-65932000D03*
X73992000Y-80156000D03*
X67134000Y-67964000D03*
X68404000Y-76346000D03*
X117818000Y-103772000D03*
X111214000Y-118710000D03*
X71590000Y-131664000D03*
X119088000Y-102756000D03*
X70320000Y-125314000D03*
X114516000Y-116170000D03*
X118326000Y-101994000D03*
X120104000Y-100978000D03*
X101054000Y-94120000D03*
X95212000Y-124044000D03*
X83020000Y-132172000D03*
X102464835Y-107732154D03*
X120104000Y-99454000D03*
X119088000Y-95644000D03*
X80734000Y-100470000D03*
X105000014Y-85992000D03*
X117564000Y-93866000D03*
X110198000Y-92088000D03*
X107404000Y-92342000D03*
X111000000Y-90564000D03*
X109944000Y-97167998D03*
X109219000Y-97875870D03*
X140932000Y-108598000D03*
X109476912Y-99159088D03*
X139916000Y-109360000D03*
X104610000Y-100216000D03*
X76924000Y-119726000D03*
X138138000Y-111138000D03*
X106134000Y-100724000D03*
X136614000Y-110630000D03*
X115532000Y-105296000D03*
X97752000Y-110122000D03*
X112484000Y-111011000D03*
X117564000Y-106058000D03*
X116040000Y-103264000D03*
X108420000Y-92596000D03*
X138984000Y-122552000D03*
X81904000Y-115000000D03*
X138984000Y-143634000D03*
X138984000Y-138300000D03*
X138984000Y-129410000D03*
X85635000Y-125747000D03*
X117954500Y-131950000D03*
X87886500Y-125781500D03*
X116801992Y-126330000D03*
X118326000Y-141062000D03*
X87005500Y-138600500D03*
X118326000Y-146142000D03*
X85635000Y-138701000D03*
X115532000Y-92342000D03*
X115532000Y-89421000D03*
X119977004Y-92342000D03*
X113000000Y-91000008D03*
X119977002Y-91072000D03*
X114516000Y-117440000D03*
X83020000Y-121250000D03*
X66002000Y-130648000D03*
X77178000Y-102756000D03*
D24*
X79326000Y-76346000D02*
X79326000Y-82696000D01*
X80342000Y-75330000D02*
X79326000Y-76346000D01*
X79326000Y-82696000D02*
X77802000Y-84220000D01*
X77802000Y-84220000D02*
X73955000Y-84220000D01*
X99784000Y-91072000D02*
X99784000Y-101232000D01*
X99784000Y-101232000D02*
X102832000Y-104280000D01*
X80734000Y-134712000D02*
X82004000Y-133442000D01*
X82004000Y-133442000D02*
X104356000Y-133442000D01*
X82004000Y-133442000D02*
X71082000Y-133442000D01*
X54318000Y-130902000D02*
X56858000Y-133442000D01*
X56858000Y-133442000D02*
X71082000Y-133442000D01*
X73955000Y-84220000D02*
X59138000Y-84220000D01*
X58382000Y-84976000D02*
X58382000Y-104026000D01*
X59138000Y-84220000D02*
X58382000Y-84976000D01*
X58382000Y-104026000D02*
X54318000Y-108090000D01*
X54318000Y-108090000D02*
X54318000Y-130902000D01*
X54318000Y-127902000D02*
X54318000Y-127902000D01*
D25*
X101500000Y-69184000D02*
X95000000Y-69184000D01*
X95000000Y-88236000D02*
X94704000Y-88532000D01*
X95000000Y-69184000D02*
X95000000Y-88236000D01*
X68912000Y-65932000D02*
X70436000Y-67456000D01*
X70436000Y-67456000D02*
X70436000Y-79140000D01*
X70436000Y-79140000D02*
X71452000Y-80156000D01*
X71452000Y-80156000D02*
X73992000Y-80156000D01*
X67134000Y-67964000D02*
X67134000Y-75076000D01*
X67134000Y-75076000D02*
X68404000Y-76346000D01*
X86576000Y-122774000D02*
X77686000Y-131664000D01*
X77686000Y-131664000D02*
X71590000Y-131664000D01*
X111214000Y-118710000D02*
X107150000Y-122774000D01*
X107150000Y-122774000D02*
X86576000Y-122774000D01*
X119852820Y-103772000D02*
X117818000Y-103772000D01*
X125565000Y-98059820D02*
X119852820Y-103772000D01*
X146860000Y-79202081D02*
X143372081Y-82690000D01*
X146860000Y-78000000D02*
X146860000Y-79202081D01*
X143372081Y-82690000D02*
X127470000Y-82690000D01*
X127470000Y-82690000D02*
X125565000Y-84595000D01*
X125565000Y-84595000D02*
X125565000Y-98059820D01*
X107150000Y-120488000D02*
X82708998Y-120488000D01*
X111468000Y-116170000D02*
X107150000Y-120488000D01*
X114516000Y-116170000D02*
X111468000Y-116170000D01*
X71647002Y-123986998D02*
X70320000Y-125314000D01*
X82708998Y-120488000D02*
X79210000Y-123986998D01*
X79210000Y-123986998D02*
X71647002Y-123986998D01*
X144320000Y-78000000D02*
X140519000Y-81801000D01*
X140519000Y-81801000D02*
X126708000Y-81801000D01*
X126708000Y-81801000D02*
X124803000Y-83706000D01*
X119653685Y-102756000D02*
X119088000Y-102756000D01*
X124803000Y-98185410D02*
X120232410Y-102756000D01*
X120232410Y-102756000D02*
X119653685Y-102756000D01*
X124803000Y-83706000D02*
X124803000Y-98185410D01*
X118891685Y-101994000D02*
X118326000Y-101994000D01*
X120358000Y-101994000D02*
X118891685Y-101994000D01*
X141780000Y-78000000D02*
X138487000Y-81293000D01*
X138487000Y-81293000D02*
X125313820Y-81293000D01*
X125313820Y-81293000D02*
X123279000Y-83327820D01*
X123279000Y-83327820D02*
X123279000Y-99073000D01*
X123279000Y-99073000D02*
X120358000Y-101994000D01*
X118451590Y-100978000D02*
X120104000Y-100978000D01*
X111593590Y-94120000D02*
X118451590Y-100978000D01*
X101054000Y-94120000D02*
X111593590Y-94120000D01*
X83020000Y-127265972D02*
X83020000Y-132172000D01*
X95212000Y-124044000D02*
X86241972Y-124044000D01*
X86241972Y-124044000D02*
X83020000Y-127265972D01*
X103557001Y-96623001D02*
X103557001Y-106639988D01*
X103557001Y-106639988D02*
X102864834Y-107332155D01*
X102864834Y-107332155D02*
X102464835Y-107732154D01*
X101054000Y-94120000D02*
X103557001Y-96623001D01*
X122701989Y-83268421D02*
X122701989Y-98380011D01*
X136709000Y-80531000D02*
X125439410Y-80531000D01*
X122701989Y-98380011D02*
X120503999Y-100578001D01*
X125439410Y-80531000D02*
X122701989Y-83268421D01*
X139240000Y-78000000D02*
X136709000Y-80531000D01*
X120503999Y-100578001D02*
X120104000Y-100978000D01*
X100897600Y-88532000D02*
X105723600Y-93358000D01*
X99784000Y-88532000D02*
X100897600Y-88532000D01*
X105723600Y-93358000D02*
X111468000Y-93358000D01*
X117564000Y-99454000D02*
X120104000Y-99454000D01*
X111468000Y-93358000D02*
X117564000Y-99454000D01*
X135850001Y-78849999D02*
X136700000Y-78000000D01*
X125565000Y-79769000D02*
X134931000Y-79769000D01*
X122136000Y-97422000D02*
X122136000Y-83198000D01*
X120104000Y-99454000D02*
X122136000Y-97422000D01*
X134931000Y-79769000D02*
X135850001Y-78849999D01*
X122136000Y-83198000D02*
X125565000Y-79769000D01*
X119088000Y-95644000D02*
X119850000Y-94882000D01*
X97244000Y-88532000D02*
X95892601Y-89883399D01*
X95892601Y-89883399D02*
X82684601Y-89883399D01*
X82684601Y-89883399D02*
X80734000Y-91834000D01*
X80734000Y-91834000D02*
X80734000Y-100470000D01*
X99784000Y-85992000D02*
X105000014Y-85992000D01*
X97244000Y-88532000D02*
X99784000Y-85992000D01*
X128230001Y-78849999D02*
X129080000Y-78000000D01*
X127904999Y-79175001D02*
X128230001Y-78849999D01*
X121685991Y-83011599D02*
X125522589Y-79175001D01*
X125522589Y-79175001D02*
X127904999Y-79175001D01*
X121685990Y-91706016D02*
X121685991Y-83011599D01*
X119526006Y-93866000D02*
X121685990Y-91706016D01*
X117564000Y-93866000D02*
X119526006Y-93866000D01*
X110198000Y-92088000D02*
X110198000Y-71802000D01*
X111920000Y-70080000D02*
X118000000Y-70080000D01*
X110198000Y-71802000D02*
X111920000Y-70080000D01*
X108711000Y-65000000D02*
X118000000Y-65000000D01*
X106134000Y-67577000D02*
X108711000Y-65000000D01*
X106134000Y-91072000D02*
X107404000Y-92342000D01*
X106134000Y-67577000D02*
X106134000Y-91072000D01*
X111000000Y-79620000D02*
X111000000Y-89998315D01*
X111000000Y-89998315D02*
X111000000Y-90564000D01*
X118000000Y-72620000D02*
X111000000Y-79620000D01*
X110197998Y-97167998D02*
X109944000Y-97167998D01*
X116802000Y-107836000D02*
X111214000Y-102248000D01*
X111214000Y-98184000D02*
X110197998Y-97167998D01*
X111214000Y-102248000D02*
X111214000Y-98184000D01*
X146780000Y-87000000D02*
X146780000Y-102623000D01*
X141567000Y-107836000D02*
X116802000Y-107836000D01*
X146780000Y-102623000D02*
X141567000Y-107836000D01*
X109219000Y-97875870D02*
X110706000Y-99362870D01*
X110706000Y-103010000D02*
X116294000Y-108598000D01*
X110706000Y-99362870D02*
X110706000Y-103010000D01*
X116294000Y-108598000D02*
X140932000Y-108598000D01*
X109476912Y-99159088D02*
X109476912Y-102796912D01*
X109476912Y-102796912D02*
X116040000Y-109360000D01*
X139916000Y-109360000D02*
X116040000Y-109360000D01*
X68796000Y-119726000D02*
X76924000Y-119726000D01*
X104610000Y-106877002D02*
X102127002Y-109360000D01*
X104610000Y-100216000D02*
X104610000Y-106877002D01*
X102127002Y-109360000D02*
X69558000Y-109360000D01*
X67526000Y-118456000D02*
X68796000Y-119726000D01*
X69558000Y-109360000D02*
X67526000Y-111392000D01*
X67526000Y-111392000D02*
X67526000Y-118456000D01*
X137757000Y-111519000D02*
X138138000Y-111138000D01*
X115347998Y-111519000D02*
X137757000Y-111519000D01*
X104610000Y-100216000D02*
X104610000Y-100781002D01*
X104610000Y-100781002D02*
X115347998Y-111519000D01*
X106896000Y-101486000D02*
X106134000Y-100724000D01*
X106896000Y-101994000D02*
X106896000Y-101486000D01*
X115278000Y-110376000D02*
X106896000Y-101994000D01*
X115278000Y-110376000D02*
X136360000Y-110376000D01*
X136360000Y-110376000D02*
X136614000Y-110630000D01*
X117056000Y-106820000D02*
X115532000Y-105296000D01*
X134080000Y-91702410D02*
X118708410Y-107074000D01*
X134080000Y-87000000D02*
X134080000Y-91702410D01*
X117310000Y-107074000D02*
X117056000Y-106820000D01*
X118708410Y-107074000D02*
X117310000Y-107074000D01*
X111595000Y-110122000D02*
X112484000Y-111011000D01*
X97752000Y-110122000D02*
X111595000Y-110122000D01*
X117564000Y-106058000D02*
X119088000Y-106058000D01*
X119088000Y-106058000D02*
X119088000Y-106021000D01*
X131540000Y-93606000D02*
X119088000Y-106058000D01*
X131540000Y-87000000D02*
X131540000Y-93606000D01*
X118072000Y-105296000D02*
X116040000Y-103264000D01*
X118965230Y-105296000D02*
X118072000Y-105296000D01*
X129000000Y-95261230D02*
X118965230Y-105296000D01*
X129000000Y-87000000D02*
X129000000Y-95261230D01*
X108420000Y-71000000D02*
X108420000Y-92596000D01*
X108420000Y-70580000D02*
X108420000Y-71000000D01*
X118000000Y-67540000D02*
X111460000Y-67540000D01*
X111460000Y-67540000D02*
X108420000Y-70580000D01*
X126540000Y-76797919D02*
X126540000Y-78000000D01*
X126540000Y-74877919D02*
X126540000Y-76797919D01*
X119202081Y-67540000D02*
X126540000Y-74877919D01*
X118000000Y-67540000D02*
X119202081Y-67540000D01*
D26*
X138984000Y-122552000D02*
X138984000Y-129410000D01*
X138984000Y-119302000D02*
X138984000Y-122552000D01*
X134682000Y-115000000D02*
X138984000Y-119302000D01*
X81904000Y-115000000D02*
X134682000Y-115000000D01*
X138984000Y-138300000D02*
X138984000Y-143634000D01*
X138984000Y-129410000D02*
X138984000Y-138300000D01*
X85635000Y-125747000D02*
X91838000Y-131950000D01*
X91838000Y-131950000D02*
X117954500Y-131950000D01*
X87886500Y-125781500D02*
X116253492Y-125781500D01*
X116253492Y-125781500D02*
X116801992Y-126330000D01*
X89467000Y-141062000D02*
X118326000Y-141062000D01*
X87005500Y-138600500D02*
X89467000Y-141062000D01*
X85635000Y-142661000D02*
X85635000Y-138701000D01*
X89116000Y-146142000D02*
X85635000Y-142661000D01*
X118326000Y-146142000D02*
X89116000Y-146142000D01*
D25*
X118000000Y-77700000D02*
X118000000Y-86953000D01*
X118000000Y-86953000D02*
X115532000Y-89421000D01*
X115532000Y-92342000D02*
X119977004Y-92342000D01*
X113000000Y-80160000D02*
X113000000Y-91000008D01*
X118000000Y-75160000D02*
X113000000Y-80160000D01*
X119905010Y-91000008D02*
X119977002Y-91072000D01*
X113000000Y-91000008D02*
X119905010Y-91000008D01*
X111410998Y-117440000D02*
X107150000Y-121700998D01*
X114516000Y-117440000D02*
X111410998Y-117440000D01*
X107150000Y-121700998D02*
X83470998Y-121700998D01*
X83470998Y-121700998D02*
X83020000Y-121250000D01*
X61430000Y-102756000D02*
X59906000Y-104280000D01*
X77178000Y-102756000D02*
X61430000Y-102756000D01*
X60160000Y-104026000D02*
X59906000Y-104280000D01*
X55334000Y-126584000D02*
X55334000Y-108852000D01*
X55334000Y-108852000D02*
X59906000Y-104280000D01*
X66002000Y-130648000D02*
X59398000Y-130648000D01*
X59398000Y-130648000D02*
X55334000Y-126584000D01*
D27*
G36*
X145768083Y-62731173D02*
G01*
X146511891Y-62934656D01*
X147207905Y-63266638D01*
X147834130Y-63716626D01*
X148370777Y-64270403D01*
X148800871Y-64910451D01*
X149110829Y-65616553D01*
X149292065Y-66371457D01*
X149340001Y-67024220D01*
X149340000Y-144970608D01*
X149268827Y-145768083D01*
X149065344Y-146511890D01*
X148733363Y-147207904D01*
X148283374Y-147834130D01*
X147729597Y-148370777D01*
X147089549Y-148800871D01*
X146383447Y-149110829D01*
X145628543Y-149292065D01*
X144975793Y-149340000D01*
X55029392Y-149340000D01*
X54231917Y-149268827D01*
X53488110Y-149065344D01*
X52792096Y-148733363D01*
X52165870Y-148283374D01*
X51629223Y-147729597D01*
X51199129Y-147089549D01*
X50889171Y-146383447D01*
X50707935Y-145628543D01*
X50660000Y-144975793D01*
X50660000Y-144804495D01*
X53015000Y-144804495D01*
X53015000Y-145195505D01*
X53091282Y-145579003D01*
X53240915Y-145940250D01*
X53458149Y-146265364D01*
X53734636Y-146541851D01*
X54059750Y-146759085D01*
X54420997Y-146908718D01*
X54804495Y-146985000D01*
X55195505Y-146985000D01*
X55579003Y-146908718D01*
X55940250Y-146759085D01*
X56265364Y-146541851D01*
X56541851Y-146265364D01*
X56759085Y-145940250D01*
X56908718Y-145579003D01*
X56985000Y-145195505D01*
X56985000Y-144804495D01*
X56908718Y-144420997D01*
X56759085Y-144059750D01*
X56541851Y-143734636D01*
X56265364Y-143458149D01*
X55940250Y-143240915D01*
X55579003Y-143091282D01*
X55195505Y-143015000D01*
X54804495Y-143015000D01*
X54420997Y-143091282D01*
X54059750Y-143240915D01*
X53734636Y-143458149D01*
X53458149Y-143734636D01*
X53240915Y-144059750D01*
X53091282Y-144420997D01*
X53015000Y-144804495D01*
X50660000Y-144804495D01*
X50660000Y-142661000D01*
X84594994Y-142661000D01*
X84600000Y-142711828D01*
X84600000Y-142711837D01*
X84614976Y-142863894D01*
X84674159Y-143058992D01*
X84770266Y-143238797D01*
X84899604Y-143396396D01*
X84939097Y-143428807D01*
X88348197Y-146837908D01*
X88380604Y-146877396D01*
X88420092Y-146909803D01*
X88538202Y-147006734D01*
X88626817Y-147054099D01*
X88718007Y-147102841D01*
X88913105Y-147162024D01*
X89065162Y-147177000D01*
X89065171Y-147177000D01*
X89115999Y-147182006D01*
X89166827Y-147177000D01*
X118427939Y-147177000D01*
X118478057Y-147167031D01*
X118528895Y-147162024D01*
X118577777Y-147147196D01*
X118627898Y-147137226D01*
X118675113Y-147117669D01*
X118723993Y-147102841D01*
X118769042Y-147078762D01*
X118816256Y-147059205D01*
X118858746Y-147030814D01*
X118903797Y-147006734D01*
X118943284Y-146974328D01*
X118985774Y-146945937D01*
X119021908Y-146909803D01*
X119061396Y-146877396D01*
X119093803Y-146837908D01*
X119129937Y-146801774D01*
X119158328Y-146759284D01*
X119190734Y-146719797D01*
X119214814Y-146674746D01*
X119243205Y-146632256D01*
X119262762Y-146585042D01*
X119286841Y-146539993D01*
X119301669Y-146491113D01*
X119321226Y-146443898D01*
X119331196Y-146393777D01*
X119346024Y-146344895D01*
X119351031Y-146294057D01*
X119361000Y-146243939D01*
X119361000Y-146192838D01*
X119366007Y-146142000D01*
X119361000Y-146091162D01*
X119361000Y-146040061D01*
X119351031Y-145989943D01*
X119346024Y-145939105D01*
X119331196Y-145890223D01*
X119321226Y-145840102D01*
X119301669Y-145792887D01*
X119286841Y-145744007D01*
X119262762Y-145698958D01*
X119243205Y-145651744D01*
X119214814Y-145609254D01*
X119190734Y-145564203D01*
X119158328Y-145524716D01*
X119129937Y-145482226D01*
X119093803Y-145446092D01*
X119061396Y-145406604D01*
X119021908Y-145374197D01*
X118985774Y-145338063D01*
X118943284Y-145309672D01*
X118903797Y-145277266D01*
X118858746Y-145253186D01*
X118816256Y-145224795D01*
X118769042Y-145205238D01*
X118723993Y-145181159D01*
X118675113Y-145166331D01*
X118627898Y-145146774D01*
X118577777Y-145136804D01*
X118528895Y-145121976D01*
X118478057Y-145116969D01*
X118427939Y-145107000D01*
X89544711Y-145107000D01*
X89242206Y-144804495D01*
X143015000Y-144804495D01*
X143015000Y-145195505D01*
X143091282Y-145579003D01*
X143240915Y-145940250D01*
X143458149Y-146265364D01*
X143734636Y-146541851D01*
X144059750Y-146759085D01*
X144420997Y-146908718D01*
X144804495Y-146985000D01*
X145195505Y-146985000D01*
X145579003Y-146908718D01*
X145940250Y-146759085D01*
X146265364Y-146541851D01*
X146541851Y-146265364D01*
X146759085Y-145940250D01*
X146908718Y-145579003D01*
X146985000Y-145195505D01*
X146985000Y-144804495D01*
X146908718Y-144420997D01*
X146759085Y-144059750D01*
X146541851Y-143734636D01*
X146265364Y-143458149D01*
X145940250Y-143240915D01*
X145579003Y-143091282D01*
X145195505Y-143015000D01*
X144804495Y-143015000D01*
X144420997Y-143091282D01*
X144059750Y-143240915D01*
X143734636Y-143458149D01*
X143458149Y-143734636D01*
X143240915Y-144059750D01*
X143091282Y-144420997D01*
X143015000Y-144804495D01*
X89242206Y-144804495D01*
X86670000Y-142232290D01*
X86670000Y-139728710D01*
X88699197Y-141757908D01*
X88731604Y-141797396D01*
X88771092Y-141829803D01*
X88889202Y-141926734D01*
X88985309Y-141978104D01*
X89069007Y-142022841D01*
X89264105Y-142082024D01*
X89416162Y-142097000D01*
X89416165Y-142097000D01*
X89467000Y-142102007D01*
X89517835Y-142097000D01*
X118427939Y-142097000D01*
X118478057Y-142087031D01*
X118528895Y-142082024D01*
X118577777Y-142067196D01*
X118627898Y-142057226D01*
X118675113Y-142037669D01*
X118723993Y-142022841D01*
X118769042Y-141998762D01*
X118816256Y-141979205D01*
X118858746Y-141950814D01*
X118903797Y-141926734D01*
X118943284Y-141894328D01*
X118985774Y-141865937D01*
X119021908Y-141829803D01*
X119061396Y-141797396D01*
X119093803Y-141757908D01*
X119129937Y-141721774D01*
X119158328Y-141679284D01*
X119190734Y-141639797D01*
X119214814Y-141594746D01*
X119243205Y-141552256D01*
X119262762Y-141505042D01*
X119286841Y-141459993D01*
X119301669Y-141411113D01*
X119321226Y-141363898D01*
X119331196Y-141313777D01*
X119346024Y-141264895D01*
X119351031Y-141214057D01*
X119361000Y-141163939D01*
X119361000Y-141112838D01*
X119366007Y-141062000D01*
X119361000Y-141011162D01*
X119361000Y-140960061D01*
X119351031Y-140909943D01*
X119346024Y-140859105D01*
X119331196Y-140810223D01*
X119321226Y-140760102D01*
X119301669Y-140712887D01*
X119286841Y-140664007D01*
X119262762Y-140618958D01*
X119243205Y-140571744D01*
X119214814Y-140529254D01*
X119190734Y-140484203D01*
X119158328Y-140444716D01*
X119129937Y-140402226D01*
X119093803Y-140366092D01*
X119061396Y-140326604D01*
X119021908Y-140294197D01*
X118985774Y-140258063D01*
X118943284Y-140229672D01*
X118903797Y-140197266D01*
X118858746Y-140173186D01*
X118816256Y-140144795D01*
X118769042Y-140125238D01*
X118723993Y-140101159D01*
X118675113Y-140086331D01*
X118627898Y-140066774D01*
X118577777Y-140056804D01*
X118528895Y-140041976D01*
X118478057Y-140036969D01*
X118427939Y-140027000D01*
X89895711Y-140027000D01*
X87809439Y-137940729D01*
X87809437Y-137940726D01*
X87665274Y-137796563D01*
X87622783Y-137768171D01*
X87583297Y-137735766D01*
X87538248Y-137711687D01*
X87495756Y-137683295D01*
X87448536Y-137663736D01*
X87403493Y-137639660D01*
X87354622Y-137624835D01*
X87307398Y-137605274D01*
X87257268Y-137595303D01*
X87208395Y-137580477D01*
X87157567Y-137575471D01*
X87107439Y-137565500D01*
X87056328Y-137565500D01*
X87005500Y-137560494D01*
X86954672Y-137565500D01*
X86903561Y-137565500D01*
X86853433Y-137575471D01*
X86802605Y-137580477D01*
X86753732Y-137595303D01*
X86703602Y-137605274D01*
X86656378Y-137624835D01*
X86607507Y-137639660D01*
X86562464Y-137663736D01*
X86515244Y-137683295D01*
X86472752Y-137711687D01*
X86427703Y-137735766D01*
X86388216Y-137768172D01*
X86345726Y-137796563D01*
X86309592Y-137832697D01*
X86270104Y-137865104D01*
X86261902Y-137875099D01*
X86252284Y-137868672D01*
X86212797Y-137836266D01*
X86167746Y-137812186D01*
X86125256Y-137783795D01*
X86078042Y-137764238D01*
X86032993Y-137740159D01*
X85984113Y-137725331D01*
X85936898Y-137705774D01*
X85886777Y-137695804D01*
X85837895Y-137680976D01*
X85787057Y-137675969D01*
X85736939Y-137666000D01*
X85685838Y-137666000D01*
X85635000Y-137660993D01*
X85584162Y-137666000D01*
X85533061Y-137666000D01*
X85482942Y-137675969D01*
X85432106Y-137680976D01*
X85383226Y-137695804D01*
X85333102Y-137705774D01*
X85285884Y-137725332D01*
X85237008Y-137740159D01*
X85191962Y-137764237D01*
X85144744Y-137783795D01*
X85102250Y-137812188D01*
X85057204Y-137836266D01*
X85017721Y-137868669D01*
X84975226Y-137897063D01*
X84939087Y-137933202D01*
X84899605Y-137965604D01*
X84867203Y-138005086D01*
X84831063Y-138041226D01*
X84802668Y-138083722D01*
X84770267Y-138123203D01*
X84746191Y-138168247D01*
X84717795Y-138210744D01*
X84698235Y-138257966D01*
X84674160Y-138303007D01*
X84659335Y-138351878D01*
X84639774Y-138399102D01*
X84629803Y-138449232D01*
X84614977Y-138498105D01*
X84609971Y-138548933D01*
X84600000Y-138599061D01*
X84600000Y-138802939D01*
X84600001Y-138802944D01*
X84600000Y-142610172D01*
X84594994Y-142661000D01*
X50660000Y-142661000D01*
X50660000Y-127800061D01*
X53283000Y-127800061D01*
X53283000Y-128003939D01*
X53322774Y-128203898D01*
X53400795Y-128392256D01*
X53483001Y-128515286D01*
X53483001Y-130860971D01*
X53478960Y-130902000D01*
X53495082Y-131065688D01*
X53542828Y-131223086D01*
X53620364Y-131368145D01*
X53620365Y-131368146D01*
X53724710Y-131495291D01*
X53756574Y-131521441D01*
X56238559Y-134003427D01*
X56264709Y-134035291D01*
X56391854Y-134139636D01*
X56536913Y-134217172D01*
X56694311Y-134264918D01*
X56816981Y-134277000D01*
X56816991Y-134277000D01*
X56857999Y-134281039D01*
X56899007Y-134277000D01*
X70468715Y-134277000D01*
X70591744Y-134359205D01*
X70780102Y-134437226D01*
X70980061Y-134477000D01*
X71183939Y-134477000D01*
X71383898Y-134437226D01*
X71572256Y-134359205D01*
X71695285Y-134277000D01*
X79793907Y-134277000D01*
X79738774Y-134410102D01*
X79699000Y-134610061D01*
X79699000Y-134813939D01*
X79738774Y-135013898D01*
X79816795Y-135202256D01*
X79930063Y-135371774D01*
X80074226Y-135515937D01*
X80243744Y-135629205D01*
X80432102Y-135707226D01*
X80632061Y-135747000D01*
X80835939Y-135747000D01*
X81035898Y-135707226D01*
X81224256Y-135629205D01*
X81393774Y-135515937D01*
X81537937Y-135371774D01*
X81651205Y-135202256D01*
X81729226Y-135013898D01*
X81758093Y-134868775D01*
X82349868Y-134277000D01*
X103742715Y-134277000D01*
X103865744Y-134359205D01*
X104054102Y-134437226D01*
X104254061Y-134477000D01*
X104457939Y-134477000D01*
X104657898Y-134437226D01*
X104846256Y-134359205D01*
X105015774Y-134245937D01*
X105159937Y-134101774D01*
X105273205Y-133932256D01*
X105351226Y-133743898D01*
X105391000Y-133543939D01*
X105391000Y-133340061D01*
X105351226Y-133140102D01*
X105286980Y-132985000D01*
X118056439Y-132985000D01*
X118106557Y-132975031D01*
X118157395Y-132970024D01*
X118206277Y-132955196D01*
X118256398Y-132945226D01*
X118303613Y-132925669D01*
X118352493Y-132910841D01*
X118397542Y-132886762D01*
X118444756Y-132867205D01*
X118487246Y-132838814D01*
X118532297Y-132814734D01*
X118571784Y-132782328D01*
X118614274Y-132753937D01*
X118650408Y-132717803D01*
X118689896Y-132685396D01*
X118722303Y-132645908D01*
X118758437Y-132609774D01*
X118786828Y-132567284D01*
X118819234Y-132527797D01*
X118843314Y-132482746D01*
X118871705Y-132440256D01*
X118891262Y-132393042D01*
X118915341Y-132347993D01*
X118930169Y-132299113D01*
X118949726Y-132251898D01*
X118959696Y-132201777D01*
X118974524Y-132152895D01*
X118979531Y-132102057D01*
X118989500Y-132051939D01*
X118989500Y-132000838D01*
X118994507Y-131950000D01*
X118989500Y-131899162D01*
X118989500Y-131848061D01*
X118979531Y-131797943D01*
X118974524Y-131747105D01*
X118959696Y-131698223D01*
X118949726Y-131648102D01*
X118930169Y-131600887D01*
X118915341Y-131552007D01*
X118891262Y-131506958D01*
X118871705Y-131459744D01*
X118843314Y-131417254D01*
X118819234Y-131372203D01*
X118786828Y-131332716D01*
X118758437Y-131290226D01*
X118722303Y-131254092D01*
X118689896Y-131214604D01*
X118650408Y-131182197D01*
X118614274Y-131146063D01*
X118571784Y-131117672D01*
X118532297Y-131085266D01*
X118487246Y-131061186D01*
X118444756Y-131032795D01*
X118397542Y-131013238D01*
X118352493Y-130989159D01*
X118303613Y-130974331D01*
X118256398Y-130954774D01*
X118206277Y-130944804D01*
X118157395Y-130929976D01*
X118106557Y-130924969D01*
X118056439Y-130915000D01*
X92266711Y-130915000D01*
X88168210Y-126816500D01*
X115824782Y-126816500D01*
X115998053Y-126989771D01*
X115998055Y-126989774D01*
X116142218Y-127133937D01*
X116184709Y-127162329D01*
X116224195Y-127194734D01*
X116269245Y-127218814D01*
X116311736Y-127247205D01*
X116358953Y-127266763D01*
X116403998Y-127290840D01*
X116452873Y-127305666D01*
X116500094Y-127325226D01*
X116550221Y-127335197D01*
X116599096Y-127350023D01*
X116649926Y-127355029D01*
X116700053Y-127365000D01*
X116751163Y-127365000D01*
X116801991Y-127370006D01*
X116852819Y-127365000D01*
X116903931Y-127365000D01*
X116954059Y-127355029D01*
X117004887Y-127350023D01*
X117053760Y-127335197D01*
X117103890Y-127325226D01*
X117151114Y-127305665D01*
X117199985Y-127290840D01*
X117245028Y-127266764D01*
X117292248Y-127247205D01*
X117334740Y-127218813D01*
X117379789Y-127194734D01*
X117419273Y-127162330D01*
X117461766Y-127133937D01*
X117497908Y-127097795D01*
X117537387Y-127065395D01*
X117569787Y-127025916D01*
X117605929Y-126989774D01*
X117634322Y-126947281D01*
X117666726Y-126907797D01*
X117690805Y-126862748D01*
X117719197Y-126820256D01*
X117738756Y-126773036D01*
X117762832Y-126727993D01*
X117777657Y-126679122D01*
X117797218Y-126631898D01*
X117807189Y-126581768D01*
X117822015Y-126532895D01*
X117827021Y-126482067D01*
X117836992Y-126431939D01*
X117836992Y-126380827D01*
X117841998Y-126329999D01*
X117836992Y-126279171D01*
X117836992Y-126228061D01*
X117827021Y-126177934D01*
X117822015Y-126127104D01*
X117807189Y-126078229D01*
X117797218Y-126028102D01*
X117777658Y-125980881D01*
X117762832Y-125932006D01*
X117738755Y-125886961D01*
X117719197Y-125839744D01*
X117690806Y-125797253D01*
X117666726Y-125752203D01*
X117634321Y-125712717D01*
X117605929Y-125670226D01*
X117461766Y-125526063D01*
X117461763Y-125526061D01*
X117021299Y-125085597D01*
X116988888Y-125046104D01*
X116831289Y-124916766D01*
X116651485Y-124820659D01*
X116456387Y-124761476D01*
X116304330Y-124746500D01*
X116304320Y-124746500D01*
X116253492Y-124741494D01*
X116202664Y-124746500D01*
X95973211Y-124746500D01*
X96015937Y-124703774D01*
X96129205Y-124534256D01*
X96207226Y-124345898D01*
X96247000Y-124145939D01*
X96247000Y-123942061D01*
X96207226Y-123742102D01*
X96129205Y-123553744D01*
X96116013Y-123534000D01*
X107112678Y-123534000D01*
X107150000Y-123537676D01*
X107187322Y-123534000D01*
X107187333Y-123534000D01*
X107298986Y-123523003D01*
X107442247Y-123479546D01*
X107574276Y-123408974D01*
X107690001Y-123314001D01*
X107713804Y-123284997D01*
X111253802Y-119745000D01*
X111315939Y-119745000D01*
X111515898Y-119705226D01*
X111704256Y-119627205D01*
X111873774Y-119513937D01*
X112017937Y-119369774D01*
X112131205Y-119200256D01*
X112209226Y-119011898D01*
X112249000Y-118811939D01*
X112249000Y-118608061D01*
X112209226Y-118408102D01*
X112131205Y-118219744D01*
X112118013Y-118200000D01*
X113812289Y-118200000D01*
X113856226Y-118243937D01*
X114025744Y-118357205D01*
X114214102Y-118435226D01*
X114414061Y-118475000D01*
X114617939Y-118475000D01*
X114817898Y-118435226D01*
X115006256Y-118357205D01*
X115175774Y-118243937D01*
X115319937Y-118099774D01*
X115433205Y-117930256D01*
X115511226Y-117741898D01*
X115551000Y-117541939D01*
X115551000Y-117338061D01*
X115511226Y-117138102D01*
X115433205Y-116949744D01*
X115336490Y-116805000D01*
X115433205Y-116660256D01*
X115511226Y-116471898D01*
X115551000Y-116271939D01*
X115551000Y-116068061D01*
X115544424Y-116035000D01*
X134253290Y-116035000D01*
X137949000Y-119730711D01*
X137949001Y-122450056D01*
X137949000Y-122450061D01*
X137949000Y-122501163D01*
X137949001Y-129308056D01*
X137949000Y-129308061D01*
X137949000Y-129359163D01*
X137949001Y-138198056D01*
X137949000Y-138198061D01*
X137949000Y-138249163D01*
X137949001Y-143532056D01*
X137949000Y-143532061D01*
X137949000Y-143735939D01*
X137958971Y-143786067D01*
X137963977Y-143836895D01*
X137978803Y-143885768D01*
X137988774Y-143935898D01*
X138008335Y-143983122D01*
X138023160Y-144031993D01*
X138047235Y-144077034D01*
X138066795Y-144124256D01*
X138095191Y-144166753D01*
X138119267Y-144211797D01*
X138151668Y-144251278D01*
X138180063Y-144293774D01*
X138216203Y-144329914D01*
X138248605Y-144369396D01*
X138288087Y-144401798D01*
X138324226Y-144437937D01*
X138366721Y-144466331D01*
X138406204Y-144498734D01*
X138451250Y-144522812D01*
X138493744Y-144551205D01*
X138540962Y-144570763D01*
X138586008Y-144594841D01*
X138634884Y-144609668D01*
X138682102Y-144629226D01*
X138732226Y-144639196D01*
X138781106Y-144654024D01*
X138831942Y-144659031D01*
X138882061Y-144669000D01*
X138933162Y-144669000D01*
X138984000Y-144674007D01*
X139034838Y-144669000D01*
X139085939Y-144669000D01*
X139136057Y-144659031D01*
X139186895Y-144654024D01*
X139235777Y-144639196D01*
X139285898Y-144629226D01*
X139333113Y-144609669D01*
X139381993Y-144594841D01*
X139427042Y-144570762D01*
X139474256Y-144551205D01*
X139516746Y-144522814D01*
X139561797Y-144498734D01*
X139601284Y-144466328D01*
X139643774Y-144437937D01*
X139679908Y-144401803D01*
X139719396Y-144369396D01*
X139751803Y-144329908D01*
X139787937Y-144293774D01*
X139816328Y-144251284D01*
X139848734Y-144211797D01*
X139872814Y-144166746D01*
X139901205Y-144124256D01*
X139920762Y-144077042D01*
X139944841Y-144031993D01*
X139959669Y-143983113D01*
X139979226Y-143935898D01*
X139989196Y-143885777D01*
X140004024Y-143836895D01*
X140009031Y-143786057D01*
X140019000Y-143735939D01*
X140019000Y-137869721D01*
X143369000Y-137869721D01*
X143369000Y-138290279D01*
X143451047Y-138702756D01*
X143611988Y-139091302D01*
X143845637Y-139440983D01*
X144143017Y-139738363D01*
X144492698Y-139972012D01*
X144881244Y-140132953D01*
X145293721Y-140215000D01*
X145714279Y-140215000D01*
X146126756Y-140132953D01*
X146515302Y-139972012D01*
X146864983Y-139738363D01*
X147162363Y-139440983D01*
X147396012Y-139091302D01*
X147556953Y-138702756D01*
X147639000Y-138290279D01*
X147639000Y-137869721D01*
X147556953Y-137457244D01*
X147396012Y-137068698D01*
X147162363Y-136719017D01*
X146864983Y-136421637D01*
X146515302Y-136187988D01*
X146126756Y-136027047D01*
X145714279Y-135945000D01*
X145293721Y-135945000D01*
X144881244Y-136027047D01*
X144492698Y-136187988D01*
X144143017Y-136421637D01*
X143845637Y-136719017D01*
X143611988Y-137068698D01*
X143451047Y-137457244D01*
X143369000Y-137869721D01*
X140019000Y-137869721D01*
X140019000Y-131500000D01*
X143365928Y-131500000D01*
X143365928Y-134500000D01*
X143378188Y-134624482D01*
X143414498Y-134744180D01*
X143473463Y-134854494D01*
X143552815Y-134951185D01*
X143649506Y-135030537D01*
X143759820Y-135089502D01*
X143879518Y-135125812D01*
X144004000Y-135138072D01*
X147004000Y-135138072D01*
X147128482Y-135125812D01*
X147248180Y-135089502D01*
X147358494Y-135030537D01*
X147455185Y-134951185D01*
X147534537Y-134854494D01*
X147593502Y-134744180D01*
X147629812Y-134624482D01*
X147642072Y-134500000D01*
X147642072Y-131500000D01*
X147629812Y-131375518D01*
X147593502Y-131255820D01*
X147534537Y-131145506D01*
X147455185Y-131048815D01*
X147358494Y-130969463D01*
X147248180Y-130910498D01*
X147128482Y-130874188D01*
X147004000Y-130861928D01*
X144004000Y-130861928D01*
X143879518Y-130874188D01*
X143759820Y-130910498D01*
X143649506Y-130969463D01*
X143552815Y-131048815D01*
X143473463Y-131145506D01*
X143414498Y-131255820D01*
X143378188Y-131375518D01*
X143365928Y-131500000D01*
X140019000Y-131500000D01*
X140019000Y-124869721D01*
X143453000Y-124869721D01*
X143453000Y-125290279D01*
X143535047Y-125702756D01*
X143695988Y-126091302D01*
X143929637Y-126440983D01*
X144227017Y-126738363D01*
X144576698Y-126972012D01*
X144965244Y-127132953D01*
X145377721Y-127215000D01*
X145798279Y-127215000D01*
X146210756Y-127132953D01*
X146599302Y-126972012D01*
X146948983Y-126738363D01*
X147246363Y-126440983D01*
X147480012Y-126091302D01*
X147640953Y-125702756D01*
X147723000Y-125290279D01*
X147723000Y-124869721D01*
X147640953Y-124457244D01*
X147480012Y-124068698D01*
X147246363Y-123719017D01*
X146948983Y-123421637D01*
X146599302Y-123187988D01*
X146210756Y-123027047D01*
X145798279Y-122945000D01*
X145377721Y-122945000D01*
X144965244Y-123027047D01*
X144576698Y-123187988D01*
X144227017Y-123421637D01*
X143929637Y-123719017D01*
X143695988Y-124068698D01*
X143535047Y-124457244D01*
X143453000Y-124869721D01*
X140019000Y-124869721D01*
X140019000Y-119352835D01*
X140024007Y-119302000D01*
X140017481Y-119235744D01*
X140004024Y-119099105D01*
X139944841Y-118904007D01*
X139861586Y-118748247D01*
X139848734Y-118724202D01*
X139751803Y-118606092D01*
X139719396Y-118566604D01*
X139679908Y-118534197D01*
X139645711Y-118500000D01*
X143449928Y-118500000D01*
X143449928Y-121500000D01*
X143462188Y-121624482D01*
X143498498Y-121744180D01*
X143557463Y-121854494D01*
X143636815Y-121951185D01*
X143733506Y-122030537D01*
X143843820Y-122089502D01*
X143963518Y-122125812D01*
X144088000Y-122138072D01*
X147088000Y-122138072D01*
X147212482Y-122125812D01*
X147332180Y-122089502D01*
X147442494Y-122030537D01*
X147539185Y-121951185D01*
X147618537Y-121854494D01*
X147677502Y-121744180D01*
X147713812Y-121624482D01*
X147726072Y-121500000D01*
X147726072Y-118500000D01*
X147713812Y-118375518D01*
X147677502Y-118255820D01*
X147618537Y-118145506D01*
X147539185Y-118048815D01*
X147442494Y-117969463D01*
X147332180Y-117910498D01*
X147212482Y-117874188D01*
X147088000Y-117861928D01*
X144088000Y-117861928D01*
X143963518Y-117874188D01*
X143843820Y-117910498D01*
X143733506Y-117969463D01*
X143636815Y-118048815D01*
X143557463Y-118145506D01*
X143498498Y-118255820D01*
X143462188Y-118375518D01*
X143449928Y-118500000D01*
X139645711Y-118500000D01*
X135449807Y-114304097D01*
X135417396Y-114264604D01*
X135259797Y-114135266D01*
X135079993Y-114039159D01*
X134884895Y-113979976D01*
X134732838Y-113965000D01*
X134732828Y-113965000D01*
X134682000Y-113959994D01*
X134631172Y-113965000D01*
X111082107Y-113965000D01*
X111184475Y-113862632D01*
X111346990Y-113619411D01*
X111458932Y-113349158D01*
X111516000Y-113062260D01*
X111516000Y-112769740D01*
X111458932Y-112482842D01*
X111346990Y-112212589D01*
X111184475Y-111969368D01*
X110977632Y-111762525D01*
X110734411Y-111600010D01*
X110464158Y-111488068D01*
X110177260Y-111431000D01*
X109884740Y-111431000D01*
X109597842Y-111488068D01*
X109327589Y-111600010D01*
X109084368Y-111762525D01*
X108877525Y-111969368D01*
X108768584Y-112132410D01*
X108559397Y-112067208D01*
X107710605Y-112916000D01*
X107724748Y-112930143D01*
X107545143Y-113109748D01*
X107531000Y-113095605D01*
X107516858Y-113109748D01*
X107337253Y-112930143D01*
X107351395Y-112916000D01*
X106502603Y-112067208D01*
X106293416Y-112132410D01*
X106184475Y-111969368D01*
X106102710Y-111887603D01*
X106682208Y-111887603D01*
X107531000Y-112736395D01*
X108379792Y-111887603D01*
X108302157Y-111638528D01*
X108038117Y-111512629D01*
X107754589Y-111440661D01*
X107462469Y-111425389D01*
X107172981Y-111467401D01*
X106897253Y-111565081D01*
X106759843Y-111638528D01*
X106682208Y-111887603D01*
X106102710Y-111887603D01*
X105977632Y-111762525D01*
X105734411Y-111600010D01*
X105464158Y-111488068D01*
X105177260Y-111431000D01*
X104884740Y-111431000D01*
X104597842Y-111488068D01*
X104327589Y-111600010D01*
X104084368Y-111762525D01*
X103877525Y-111969368D01*
X103715010Y-112212589D01*
X103603068Y-112482842D01*
X103546000Y-112769740D01*
X103546000Y-113062260D01*
X103603068Y-113349158D01*
X103715010Y-113619411D01*
X103877525Y-113862632D01*
X103979893Y-113965000D01*
X81802061Y-113965000D01*
X81751943Y-113974969D01*
X81701105Y-113979976D01*
X81652223Y-113994804D01*
X81602102Y-114004774D01*
X81554887Y-114024331D01*
X81506007Y-114039159D01*
X81460958Y-114063238D01*
X81413744Y-114082795D01*
X81371254Y-114111186D01*
X81326203Y-114135266D01*
X81286716Y-114167672D01*
X81244226Y-114196063D01*
X81208092Y-114232197D01*
X81168604Y-114264604D01*
X81136197Y-114304092D01*
X81100063Y-114340226D01*
X81071672Y-114382716D01*
X81039266Y-114422203D01*
X81015186Y-114467254D01*
X80986795Y-114509744D01*
X80967238Y-114556958D01*
X80943159Y-114602007D01*
X80928331Y-114650887D01*
X80908774Y-114698102D01*
X80898804Y-114748223D01*
X80883976Y-114797105D01*
X80878969Y-114847943D01*
X80869000Y-114898061D01*
X80869000Y-114949162D01*
X80863993Y-115000000D01*
X80869000Y-115050838D01*
X80869000Y-115101939D01*
X80878969Y-115152057D01*
X80883976Y-115202895D01*
X80898804Y-115251777D01*
X80908774Y-115301898D01*
X80928331Y-115349113D01*
X80943159Y-115397993D01*
X80967238Y-115443042D01*
X80986795Y-115490256D01*
X81015186Y-115532746D01*
X81039266Y-115577797D01*
X81071672Y-115617284D01*
X81100063Y-115659774D01*
X81136196Y-115695907D01*
X81168604Y-115735396D01*
X81208092Y-115767803D01*
X81244226Y-115803937D01*
X81286716Y-115832328D01*
X81326203Y-115864734D01*
X81371254Y-115888814D01*
X81413744Y-115917205D01*
X81460958Y-115936762D01*
X81506007Y-115960841D01*
X81554887Y-115975669D01*
X81602102Y-115995226D01*
X81652223Y-116005196D01*
X81701105Y-116020024D01*
X81751943Y-116025031D01*
X81802061Y-116035000D01*
X110528198Y-116035000D01*
X106835199Y-119728000D01*
X82746320Y-119728000D01*
X82708997Y-119724324D01*
X82671674Y-119728000D01*
X82671665Y-119728000D01*
X82560012Y-119738997D01*
X82416751Y-119782454D01*
X82284722Y-119853026D01*
X82284720Y-119853027D01*
X82284721Y-119853027D01*
X82197994Y-119924201D01*
X82197990Y-119924205D01*
X82168997Y-119947999D01*
X82145203Y-119976992D01*
X78895199Y-123226998D01*
X71684324Y-123226998D01*
X71647001Y-123223322D01*
X71609678Y-123226998D01*
X71609669Y-123226998D01*
X71498016Y-123237995D01*
X71354755Y-123281452D01*
X71222726Y-123352024D01*
X71107001Y-123446997D01*
X71083203Y-123475995D01*
X70280199Y-124279000D01*
X70218061Y-124279000D01*
X70018102Y-124318774D01*
X69829744Y-124396795D01*
X69660226Y-124510063D01*
X69516063Y-124654226D01*
X69402795Y-124823744D01*
X69324774Y-125012102D01*
X69285000Y-125212061D01*
X69285000Y-125415939D01*
X69324774Y-125615898D01*
X69402795Y-125804256D01*
X69516063Y-125973774D01*
X69660226Y-126117937D01*
X69829744Y-126231205D01*
X70018102Y-126309226D01*
X70218061Y-126349000D01*
X70421939Y-126349000D01*
X70621898Y-126309226D01*
X70810256Y-126231205D01*
X70979774Y-126117937D01*
X71123937Y-125973774D01*
X71237205Y-125804256D01*
X71315226Y-125615898D01*
X71355000Y-125415939D01*
X71355000Y-125353801D01*
X71961804Y-124746998D01*
X79172678Y-124746998D01*
X79210000Y-124750674D01*
X79247322Y-124746998D01*
X79247333Y-124746998D01*
X79358986Y-124736001D01*
X79502247Y-124692544D01*
X79634276Y-124621972D01*
X79750001Y-124526999D01*
X79773804Y-124497995D01*
X82289045Y-121982756D01*
X82360226Y-122053937D01*
X82529744Y-122167205D01*
X82718102Y-122245226D01*
X82918061Y-122285000D01*
X82984612Y-122285000D01*
X83046722Y-122335972D01*
X83178751Y-122406544D01*
X83322012Y-122450001D01*
X83433665Y-122460998D01*
X83433674Y-122460998D01*
X83470997Y-122464674D01*
X83508320Y-122460998D01*
X85814200Y-122460998D01*
X77371199Y-130904000D01*
X72293711Y-130904000D01*
X72249774Y-130860063D01*
X72080256Y-130746795D01*
X71891898Y-130668774D01*
X71691939Y-130629000D01*
X71488061Y-130629000D01*
X71288102Y-130668774D01*
X71099744Y-130746795D01*
X70930226Y-130860063D01*
X70786063Y-131004226D01*
X70672795Y-131173744D01*
X70594774Y-131362102D01*
X70555000Y-131562061D01*
X70555000Y-131765939D01*
X70594774Y-131965898D01*
X70672795Y-132154256D01*
X70786063Y-132323774D01*
X70887667Y-132425378D01*
X70780102Y-132446774D01*
X70591744Y-132524795D01*
X70468715Y-132607000D01*
X57203868Y-132607000D01*
X55153000Y-130556133D01*
X55153000Y-128515285D01*
X55235205Y-128392256D01*
X55313226Y-128203898D01*
X55353000Y-128003939D01*
X55353000Y-127800061D01*
X55322643Y-127647444D01*
X58834201Y-131159003D01*
X58857999Y-131188001D01*
X58886997Y-131211799D01*
X58973723Y-131282974D01*
X59105753Y-131353546D01*
X59249014Y-131397003D01*
X59360667Y-131408000D01*
X59360677Y-131408000D01*
X59398000Y-131411676D01*
X59435323Y-131408000D01*
X65298289Y-131408000D01*
X65342226Y-131451937D01*
X65511744Y-131565205D01*
X65700102Y-131643226D01*
X65900061Y-131683000D01*
X66103939Y-131683000D01*
X66303898Y-131643226D01*
X66492256Y-131565205D01*
X66661774Y-131451937D01*
X66805937Y-131307774D01*
X66919205Y-131138256D01*
X66997226Y-130949898D01*
X67037000Y-130749939D01*
X67037000Y-130546061D01*
X66997226Y-130346102D01*
X66919205Y-130157744D01*
X66805937Y-129988226D01*
X66661774Y-129844063D01*
X66492256Y-129730795D01*
X66303898Y-129652774D01*
X66103939Y-129613000D01*
X65900061Y-129613000D01*
X65700102Y-129652774D01*
X65511744Y-129730795D01*
X65342226Y-129844063D01*
X65298289Y-129888000D01*
X59712802Y-129888000D01*
X56094000Y-126269199D01*
X56094000Y-121450000D01*
X58611928Y-121450000D01*
X58624188Y-121574482D01*
X58660498Y-121694180D01*
X58719463Y-121804494D01*
X58798815Y-121901185D01*
X58895506Y-121980537D01*
X59005820Y-122039502D01*
X59125518Y-122075812D01*
X59250000Y-122088072D01*
X60714250Y-122085000D01*
X60873000Y-121926250D01*
X60873000Y-119827000D01*
X61127000Y-119827000D01*
X61127000Y-121926250D01*
X61285750Y-122085000D01*
X62750000Y-122088072D01*
X62874482Y-122075812D01*
X62994180Y-122039502D01*
X63104494Y-121980537D01*
X63201185Y-121901185D01*
X63280537Y-121804494D01*
X63339502Y-121694180D01*
X63375812Y-121574482D01*
X63388072Y-121450000D01*
X63385000Y-119985750D01*
X63226250Y-119827000D01*
X61127000Y-119827000D01*
X60873000Y-119827000D01*
X58773750Y-119827000D01*
X58615000Y-119985750D01*
X58611928Y-121450000D01*
X56094000Y-121450000D01*
X56094000Y-117238267D01*
X56145506Y-117280537D01*
X56255820Y-117339502D01*
X56375518Y-117375812D01*
X56500000Y-117388072D01*
X57714250Y-117385000D01*
X57873000Y-117226250D01*
X57873000Y-115127000D01*
X58127000Y-115127000D01*
X58127000Y-117226250D01*
X58285750Y-117385000D01*
X58956805Y-117386698D01*
X58895506Y-117419463D01*
X58798815Y-117498815D01*
X58719463Y-117595506D01*
X58660498Y-117705820D01*
X58624188Y-117825518D01*
X58611928Y-117950000D01*
X58615000Y-119414250D01*
X58773750Y-119573000D01*
X60873000Y-119573000D01*
X60873000Y-117473750D01*
X61127000Y-117473750D01*
X61127000Y-119573000D01*
X63226250Y-119573000D01*
X63385000Y-119414250D01*
X63388072Y-117950000D01*
X63375812Y-117825518D01*
X63339502Y-117705820D01*
X63280537Y-117595506D01*
X63201185Y-117498815D01*
X63104494Y-117419463D01*
X63045767Y-117388072D01*
X65750000Y-117388072D01*
X65874482Y-117375812D01*
X65994180Y-117339502D01*
X66104494Y-117280537D01*
X66201185Y-117201185D01*
X66280537Y-117104494D01*
X66339502Y-116994180D01*
X66375812Y-116874482D01*
X66388072Y-116750000D01*
X66388072Y-113250000D01*
X66375812Y-113125518D01*
X66339502Y-113005820D01*
X66280537Y-112895506D01*
X66201185Y-112798815D01*
X66104494Y-112719463D01*
X65994180Y-112660498D01*
X65874482Y-112624188D01*
X65750000Y-112611928D01*
X62250000Y-112611928D01*
X62125518Y-112624188D01*
X62005820Y-112660498D01*
X61895506Y-112719463D01*
X61798815Y-112798815D01*
X61719463Y-112895506D01*
X61660498Y-113005820D01*
X61624188Y-113125518D01*
X61611928Y-113250000D01*
X61611928Y-116750000D01*
X61624188Y-116874482D01*
X61660498Y-116994180D01*
X61719463Y-117104494D01*
X61798815Y-117201185D01*
X61895506Y-117280537D01*
X61957345Y-117313591D01*
X61285750Y-117315000D01*
X61127000Y-117473750D01*
X60873000Y-117473750D01*
X60714250Y-117315000D01*
X59793633Y-117313069D01*
X59854494Y-117280537D01*
X59951185Y-117201185D01*
X60030537Y-117104494D01*
X60089502Y-116994180D01*
X60125812Y-116874482D01*
X60138072Y-116750000D01*
X60135000Y-115285750D01*
X59976250Y-115127000D01*
X58127000Y-115127000D01*
X57873000Y-115127000D01*
X57853000Y-115127000D01*
X57853000Y-114873000D01*
X57873000Y-114873000D01*
X57873000Y-112773750D01*
X58127000Y-112773750D01*
X58127000Y-114873000D01*
X59976250Y-114873000D01*
X60135000Y-114714250D01*
X60138072Y-113250000D01*
X60125812Y-113125518D01*
X60089502Y-113005820D01*
X60030537Y-112895506D01*
X59951185Y-112798815D01*
X59854494Y-112719463D01*
X59744180Y-112660498D01*
X59624482Y-112624188D01*
X59500000Y-112611928D01*
X58285750Y-112615000D01*
X58127000Y-112773750D01*
X57873000Y-112773750D01*
X57714250Y-112615000D01*
X56500000Y-112611928D01*
X56375518Y-112624188D01*
X56255820Y-112660498D01*
X56145506Y-112719463D01*
X56094000Y-112761733D01*
X56094000Y-111392000D01*
X66762324Y-111392000D01*
X66766000Y-111429323D01*
X66766001Y-118418668D01*
X66762324Y-118456000D01*
X66766001Y-118493333D01*
X66776998Y-118604986D01*
X66777931Y-118608061D01*
X66820454Y-118748246D01*
X66891026Y-118880276D01*
X66961379Y-118966000D01*
X66986000Y-118996001D01*
X67014998Y-119019799D01*
X68232201Y-120237003D01*
X68255999Y-120266001D01*
X68371724Y-120360974D01*
X68503753Y-120431546D01*
X68647014Y-120475003D01*
X68758667Y-120486000D01*
X68758676Y-120486000D01*
X68795999Y-120489676D01*
X68833322Y-120486000D01*
X76220289Y-120486000D01*
X76264226Y-120529937D01*
X76433744Y-120643205D01*
X76622102Y-120721226D01*
X76822061Y-120761000D01*
X77025939Y-120761000D01*
X77225898Y-120721226D01*
X77414256Y-120643205D01*
X77583774Y-120529937D01*
X77727937Y-120385774D01*
X77841205Y-120216256D01*
X77919226Y-120027898D01*
X77959000Y-119827939D01*
X77959000Y-119624061D01*
X77919226Y-119424102D01*
X77841205Y-119235744D01*
X77727937Y-119066226D01*
X77583774Y-118922063D01*
X77414256Y-118808795D01*
X77225898Y-118730774D01*
X77025939Y-118691000D01*
X76822061Y-118691000D01*
X76622102Y-118730774D01*
X76433744Y-118808795D01*
X76264226Y-118922063D01*
X76220289Y-118966000D01*
X69110802Y-118966000D01*
X68286000Y-118141199D01*
X68286000Y-111706801D01*
X69872802Y-110120000D01*
X96717000Y-110120000D01*
X96717000Y-110223939D01*
X96756774Y-110423898D01*
X96834795Y-110612256D01*
X96948063Y-110781774D01*
X97092226Y-110925937D01*
X97261744Y-111039205D01*
X97450102Y-111117226D01*
X97650061Y-111157000D01*
X97853939Y-111157000D01*
X98053898Y-111117226D01*
X98242256Y-111039205D01*
X98411774Y-110925937D01*
X98455711Y-110882000D01*
X111280199Y-110882000D01*
X111449000Y-111050801D01*
X111449000Y-111112939D01*
X111488774Y-111312898D01*
X111566795Y-111501256D01*
X111680063Y-111670774D01*
X111824226Y-111814937D01*
X111993744Y-111928205D01*
X112182102Y-112006226D01*
X112382061Y-112046000D01*
X112585939Y-112046000D01*
X112785898Y-112006226D01*
X112974256Y-111928205D01*
X113143774Y-111814937D01*
X113287937Y-111670774D01*
X113401205Y-111501256D01*
X113479226Y-111312898D01*
X113519000Y-111112939D01*
X113519000Y-110909061D01*
X113483181Y-110728986D01*
X114784203Y-112030008D01*
X114807997Y-112059001D01*
X114836990Y-112082795D01*
X114836994Y-112082799D01*
X114854964Y-112097546D01*
X114923722Y-112153974D01*
X115055751Y-112224546D01*
X115199012Y-112268003D01*
X115310665Y-112279000D01*
X115310674Y-112279000D01*
X115347997Y-112282676D01*
X115385320Y-112279000D01*
X137719678Y-112279000D01*
X137757000Y-112282676D01*
X137794322Y-112279000D01*
X137794333Y-112279000D01*
X137905986Y-112268003D01*
X138049247Y-112224546D01*
X138145681Y-112173000D01*
X138239939Y-112173000D01*
X138439898Y-112133226D01*
X138628256Y-112055205D01*
X138797774Y-111941937D01*
X138941937Y-111797774D01*
X139055205Y-111628256D01*
X139133226Y-111439898D01*
X139173000Y-111239939D01*
X139173000Y-111036061D01*
X139133226Y-110836102D01*
X139055205Y-110647744D01*
X138941937Y-110478226D01*
X138797774Y-110334063D01*
X138628256Y-110220795D01*
X138439898Y-110142774D01*
X138325404Y-110120000D01*
X139212289Y-110120000D01*
X139256226Y-110163937D01*
X139425744Y-110277205D01*
X139614102Y-110355226D01*
X139814061Y-110395000D01*
X140017939Y-110395000D01*
X140217898Y-110355226D01*
X140406256Y-110277205D01*
X140575774Y-110163937D01*
X140719937Y-110019774D01*
X140833205Y-109850256D01*
X140911226Y-109661898D01*
X140916974Y-109633000D01*
X141033939Y-109633000D01*
X141233898Y-109593226D01*
X141422256Y-109515205D01*
X141591774Y-109401937D01*
X141735937Y-109257774D01*
X141849205Y-109088256D01*
X141927226Y-108899898D01*
X141967000Y-108699939D01*
X141967000Y-108496061D01*
X141964823Y-108485114D01*
X141991276Y-108470974D01*
X142107001Y-108376001D01*
X142130804Y-108346997D01*
X147291003Y-103186799D01*
X147320001Y-103163001D01*
X147414974Y-103047276D01*
X147485546Y-102915247D01*
X147529003Y-102771986D01*
X147540000Y-102660333D01*
X147540000Y-102660324D01*
X147543676Y-102623001D01*
X147540000Y-102585678D01*
X147540000Y-88278178D01*
X147726632Y-88153475D01*
X147933475Y-87946632D01*
X148095990Y-87703411D01*
X148207932Y-87433158D01*
X148265000Y-87146260D01*
X148265000Y-86853740D01*
X148207932Y-86566842D01*
X148095990Y-86296589D01*
X147933475Y-86053368D01*
X147726632Y-85846525D01*
X147483411Y-85684010D01*
X147213158Y-85572068D01*
X146926260Y-85515000D01*
X146633740Y-85515000D01*
X146346842Y-85572068D01*
X146076589Y-85684010D01*
X145833368Y-85846525D01*
X145626525Y-86053368D01*
X145510000Y-86227760D01*
X145393475Y-86053368D01*
X145186632Y-85846525D01*
X144943411Y-85684010D01*
X144673158Y-85572068D01*
X144386260Y-85515000D01*
X144093740Y-85515000D01*
X143806842Y-85572068D01*
X143536589Y-85684010D01*
X143293368Y-85846525D01*
X143086525Y-86053368D01*
X142970000Y-86227760D01*
X142853475Y-86053368D01*
X142646632Y-85846525D01*
X142403411Y-85684010D01*
X142133158Y-85572068D01*
X141846260Y-85515000D01*
X141553740Y-85515000D01*
X141266842Y-85572068D01*
X140996589Y-85684010D01*
X140753368Y-85846525D01*
X140546525Y-86053368D01*
X140430000Y-86227760D01*
X140313475Y-86053368D01*
X140106632Y-85846525D01*
X139863411Y-85684010D01*
X139593158Y-85572068D01*
X139306260Y-85515000D01*
X139013740Y-85515000D01*
X138726842Y-85572068D01*
X138456589Y-85684010D01*
X138213368Y-85846525D01*
X138006525Y-86053368D01*
X137890000Y-86227760D01*
X137773475Y-86053368D01*
X137566632Y-85846525D01*
X137323411Y-85684010D01*
X137053158Y-85572068D01*
X136766260Y-85515000D01*
X136473740Y-85515000D01*
X136186842Y-85572068D01*
X135916589Y-85684010D01*
X135673368Y-85846525D01*
X135466525Y-86053368D01*
X135350000Y-86227760D01*
X135233475Y-86053368D01*
X135026632Y-85846525D01*
X134783411Y-85684010D01*
X134513158Y-85572068D01*
X134226260Y-85515000D01*
X133933740Y-85515000D01*
X133646842Y-85572068D01*
X133376589Y-85684010D01*
X133133368Y-85846525D01*
X132926525Y-86053368D01*
X132810000Y-86227760D01*
X132693475Y-86053368D01*
X132486632Y-85846525D01*
X132243411Y-85684010D01*
X131973158Y-85572068D01*
X131686260Y-85515000D01*
X131393740Y-85515000D01*
X131106842Y-85572068D01*
X130836589Y-85684010D01*
X130593368Y-85846525D01*
X130461513Y-85978380D01*
X130439502Y-85905820D01*
X130380537Y-85795506D01*
X130301185Y-85698815D01*
X130204494Y-85619463D01*
X130094180Y-85560498D01*
X129974482Y-85524188D01*
X129850000Y-85511928D01*
X128150000Y-85511928D01*
X128025518Y-85524188D01*
X127905820Y-85560498D01*
X127795506Y-85619463D01*
X127698815Y-85698815D01*
X127619463Y-85795506D01*
X127560498Y-85905820D01*
X127524188Y-86025518D01*
X127511928Y-86150000D01*
X127511928Y-87850000D01*
X127524188Y-87974482D01*
X127560498Y-88094180D01*
X127619463Y-88204494D01*
X127698815Y-88301185D01*
X127795506Y-88380537D01*
X127905820Y-88439502D01*
X128025518Y-88475812D01*
X128150000Y-88488072D01*
X128240000Y-88488072D01*
X128240001Y-94946427D01*
X126325000Y-96861428D01*
X126325000Y-84909801D01*
X127784802Y-83450000D01*
X143334759Y-83450000D01*
X143372081Y-83453676D01*
X143409403Y-83450000D01*
X143409414Y-83450000D01*
X143521067Y-83439003D01*
X143664328Y-83395546D01*
X143796357Y-83324974D01*
X143912082Y-83230001D01*
X143935885Y-83200997D01*
X147371003Y-79765880D01*
X147400001Y-79742082D01*
X147494974Y-79626357D01*
X147565546Y-79494328D01*
X147609003Y-79351067D01*
X147615913Y-79280909D01*
X147806632Y-79153475D01*
X148013475Y-78946632D01*
X148175990Y-78703411D01*
X148287932Y-78433158D01*
X148345000Y-78146260D01*
X148345000Y-77853740D01*
X148287932Y-77566842D01*
X148175990Y-77296589D01*
X148013475Y-77053368D01*
X147806632Y-76846525D01*
X147563411Y-76684010D01*
X147293158Y-76572068D01*
X147006260Y-76515000D01*
X146713740Y-76515000D01*
X146426842Y-76572068D01*
X146156589Y-76684010D01*
X145913368Y-76846525D01*
X145706525Y-77053368D01*
X145590000Y-77227760D01*
X145473475Y-77053368D01*
X145266632Y-76846525D01*
X145023411Y-76684010D01*
X144753158Y-76572068D01*
X144466260Y-76515000D01*
X144173740Y-76515000D01*
X143886842Y-76572068D01*
X143616589Y-76684010D01*
X143373368Y-76846525D01*
X143166525Y-77053368D01*
X143050000Y-77227760D01*
X142933475Y-77053368D01*
X142726632Y-76846525D01*
X142483411Y-76684010D01*
X142213158Y-76572068D01*
X141926260Y-76515000D01*
X141633740Y-76515000D01*
X141346842Y-76572068D01*
X141076589Y-76684010D01*
X140833368Y-76846525D01*
X140626525Y-77053368D01*
X140510000Y-77227760D01*
X140393475Y-77053368D01*
X140186632Y-76846525D01*
X139943411Y-76684010D01*
X139673158Y-76572068D01*
X139386260Y-76515000D01*
X139093740Y-76515000D01*
X138806842Y-76572068D01*
X138536589Y-76684010D01*
X138293368Y-76846525D01*
X138086525Y-77053368D01*
X137970000Y-77227760D01*
X137853475Y-77053368D01*
X137646632Y-76846525D01*
X137403411Y-76684010D01*
X137133158Y-76572068D01*
X136846260Y-76515000D01*
X136553740Y-76515000D01*
X136266842Y-76572068D01*
X135996589Y-76684010D01*
X135753368Y-76846525D01*
X135546525Y-77053368D01*
X135430000Y-77227760D01*
X135313475Y-77053368D01*
X135106632Y-76846525D01*
X134863411Y-76684010D01*
X134593158Y-76572068D01*
X134306260Y-76515000D01*
X134013740Y-76515000D01*
X133726842Y-76572068D01*
X133456589Y-76684010D01*
X133213368Y-76846525D01*
X133006525Y-77053368D01*
X132884805Y-77235534D01*
X132815178Y-77118645D01*
X132620269Y-76902412D01*
X132386920Y-76728359D01*
X132124099Y-76603175D01*
X131976890Y-76558524D01*
X131747000Y-76679845D01*
X131747000Y-77873000D01*
X131767000Y-77873000D01*
X131767000Y-78127000D01*
X131747000Y-78127000D01*
X131747000Y-78147000D01*
X131493000Y-78147000D01*
X131493000Y-78127000D01*
X131473000Y-78127000D01*
X131473000Y-77873000D01*
X131493000Y-77873000D01*
X131493000Y-76679845D01*
X131263110Y-76558524D01*
X131115901Y-76603175D01*
X130853080Y-76728359D01*
X130619731Y-76902412D01*
X130424822Y-77118645D01*
X130355195Y-77235534D01*
X130233475Y-77053368D01*
X130026632Y-76846525D01*
X129783411Y-76684010D01*
X129513158Y-76572068D01*
X129226260Y-76515000D01*
X128933740Y-76515000D01*
X128646842Y-76572068D01*
X128376589Y-76684010D01*
X128133368Y-76846525D01*
X127926525Y-77053368D01*
X127810000Y-77227760D01*
X127693475Y-77053368D01*
X127486632Y-76846525D01*
X127300000Y-76721822D01*
X127300000Y-74915252D01*
X127303677Y-74877919D01*
X127289003Y-74728933D01*
X127245546Y-74585672D01*
X127174974Y-74453643D01*
X127080001Y-74337918D01*
X127051004Y-74314121D01*
X119765885Y-67029003D01*
X119742082Y-66999999D01*
X119626357Y-66905026D01*
X119494328Y-66834454D01*
X119351067Y-66790997D01*
X119280909Y-66784087D01*
X119153475Y-66593368D01*
X119048602Y-66488495D01*
X143015000Y-66488495D01*
X143015000Y-66879505D01*
X143091282Y-67263003D01*
X143240915Y-67624250D01*
X143458149Y-67949364D01*
X143734636Y-68225851D01*
X144059750Y-68443085D01*
X144420997Y-68592718D01*
X144804495Y-68669000D01*
X145195505Y-68669000D01*
X145579003Y-68592718D01*
X145940250Y-68443085D01*
X146265364Y-68225851D01*
X146541851Y-67949364D01*
X146759085Y-67624250D01*
X146908718Y-67263003D01*
X146985000Y-66879505D01*
X146985000Y-66488495D01*
X146908718Y-66104997D01*
X146759085Y-65743750D01*
X146541851Y-65418636D01*
X146265364Y-65142149D01*
X145940250Y-64924915D01*
X145579003Y-64775282D01*
X145195505Y-64699000D01*
X144804495Y-64699000D01*
X144420997Y-64775282D01*
X144059750Y-64924915D01*
X143734636Y-65142149D01*
X143458149Y-65418636D01*
X143240915Y-65743750D01*
X143091282Y-66104997D01*
X143015000Y-66488495D01*
X119048602Y-66488495D01*
X119021620Y-66461513D01*
X119094180Y-66439502D01*
X119204494Y-66380537D01*
X119301185Y-66301185D01*
X119380537Y-66204494D01*
X119439502Y-66094180D01*
X119475812Y-65974482D01*
X119488072Y-65850000D01*
X119488072Y-64150000D01*
X119475812Y-64025518D01*
X119439502Y-63905820D01*
X119380537Y-63795506D01*
X119301185Y-63698815D01*
X119204494Y-63619463D01*
X119094180Y-63560498D01*
X118974482Y-63524188D01*
X118850000Y-63511928D01*
X117150000Y-63511928D01*
X117025518Y-63524188D01*
X116905820Y-63560498D01*
X116795506Y-63619463D01*
X116698815Y-63698815D01*
X116619463Y-63795506D01*
X116560498Y-63905820D01*
X116524188Y-64025518D01*
X116511928Y-64150000D01*
X116511928Y-64240000D01*
X108748322Y-64240000D01*
X108710999Y-64236324D01*
X108673676Y-64240000D01*
X108673667Y-64240000D01*
X108562014Y-64250997D01*
X108418753Y-64294454D01*
X108286724Y-64365026D01*
X108170999Y-64459999D01*
X108147201Y-64488997D01*
X105623003Y-67013196D01*
X105593999Y-67036999D01*
X105538871Y-67104174D01*
X105499026Y-67152724D01*
X105492927Y-67164135D01*
X105428454Y-67284754D01*
X105384997Y-67428015D01*
X105374000Y-67539668D01*
X105374000Y-67539678D01*
X105370324Y-67577000D01*
X105374000Y-67614322D01*
X105374001Y-85026634D01*
X105301912Y-84996774D01*
X105101953Y-84957000D01*
X104898075Y-84957000D01*
X104698116Y-84996774D01*
X104509758Y-85074795D01*
X104340240Y-85188063D01*
X104296303Y-85232000D01*
X99821322Y-85232000D01*
X99783999Y-85228324D01*
X99746676Y-85232000D01*
X99746667Y-85232000D01*
X99635014Y-85242997D01*
X99491753Y-85286454D01*
X99359724Y-85357026D01*
X99343685Y-85370189D01*
X99272996Y-85428201D01*
X99272992Y-85428205D01*
X99243999Y-85451999D01*
X99220205Y-85480992D01*
X97621974Y-87079224D01*
X97391599Y-87033400D01*
X97096401Y-87033400D01*
X96806875Y-87090990D01*
X96534147Y-87203958D01*
X96288698Y-87367961D01*
X96079961Y-87576698D01*
X95974000Y-87735281D01*
X95868039Y-87576698D01*
X95760000Y-87468659D01*
X95760000Y-70638909D01*
X95774463Y-70632918D01*
X96042252Y-70453987D01*
X96269987Y-70226252D01*
X96448918Y-69958463D01*
X96454909Y-69944000D01*
X100045091Y-69944000D01*
X100051082Y-69958463D01*
X100230013Y-70226252D01*
X100457748Y-70453987D01*
X100725537Y-70632918D01*
X101023088Y-70756168D01*
X101338967Y-70819000D01*
X101661033Y-70819000D01*
X101976912Y-70756168D01*
X102274463Y-70632918D01*
X102542252Y-70453987D01*
X102769987Y-70226252D01*
X102948918Y-69958463D01*
X103072168Y-69660912D01*
X103135000Y-69345033D01*
X103135000Y-69022967D01*
X103072168Y-68707088D01*
X102948918Y-68409537D01*
X102769987Y-68141748D01*
X102542252Y-67914013D01*
X102274463Y-67735082D01*
X101976912Y-67611832D01*
X101661033Y-67549000D01*
X101338967Y-67549000D01*
X101023088Y-67611832D01*
X100725537Y-67735082D01*
X100457748Y-67914013D01*
X100230013Y-68141748D01*
X100051082Y-68409537D01*
X100045091Y-68424000D01*
X96454909Y-68424000D01*
X96448918Y-68409537D01*
X96269987Y-68141748D01*
X96042252Y-67914013D01*
X95774463Y-67735082D01*
X95476912Y-67611832D01*
X95161033Y-67549000D01*
X94838967Y-67549000D01*
X94523088Y-67611832D01*
X94225537Y-67735082D01*
X93957748Y-67914013D01*
X93730013Y-68141748D01*
X93551082Y-68409537D01*
X93427832Y-68707088D01*
X93365000Y-69022967D01*
X93365000Y-69345033D01*
X93427832Y-69660912D01*
X93551082Y-69958463D01*
X93730013Y-70226252D01*
X93957748Y-70453987D01*
X94225537Y-70632918D01*
X94240000Y-70638909D01*
X94240001Y-87102122D01*
X93994147Y-87203958D01*
X93748698Y-87367961D01*
X93539961Y-87576698D01*
X93375958Y-87822147D01*
X93262990Y-88094875D01*
X93205400Y-88384401D01*
X93205400Y-88679599D01*
X93262990Y-88969125D01*
X93326893Y-89123399D01*
X82721923Y-89123399D01*
X82684600Y-89119723D01*
X82647277Y-89123399D01*
X82647268Y-89123399D01*
X82535615Y-89134396D01*
X82392354Y-89177853D01*
X82260325Y-89248425D01*
X82260323Y-89248426D01*
X82260324Y-89248426D01*
X82173597Y-89319600D01*
X82173593Y-89319604D01*
X82144600Y-89343398D01*
X82120806Y-89372391D01*
X80223002Y-91270196D01*
X80193999Y-91293999D01*
X80150688Y-91346774D01*
X80099026Y-91409724D01*
X80055976Y-91490264D01*
X80028454Y-91541754D01*
X79984997Y-91685015D01*
X79974000Y-91796668D01*
X79974000Y-91796678D01*
X79970324Y-91834000D01*
X79974000Y-91871322D01*
X79974001Y-99766288D01*
X79930063Y-99810226D01*
X79816795Y-99979744D01*
X79738774Y-100168102D01*
X79699000Y-100368061D01*
X79699000Y-100571939D01*
X79738774Y-100771898D01*
X79816795Y-100960256D01*
X79930063Y-101129774D01*
X80074226Y-101273937D01*
X80243744Y-101387205D01*
X80432102Y-101465226D01*
X80632061Y-101505000D01*
X80835939Y-101505000D01*
X81035898Y-101465226D01*
X81224256Y-101387205D01*
X81393774Y-101273937D01*
X81537937Y-101129774D01*
X81651205Y-100960256D01*
X81729226Y-100771898D01*
X81769000Y-100571939D01*
X81769000Y-100368061D01*
X81729226Y-100168102D01*
X81651205Y-99979744D01*
X81537937Y-99810226D01*
X81494000Y-99766289D01*
X81494000Y-92148801D01*
X82211774Y-91431027D01*
X93249037Y-91431027D01*
X93347036Y-91707978D01*
X93497183Y-91960488D01*
X93693707Y-92178854D01*
X93929056Y-92354684D01*
X94194186Y-92481222D01*
X94344974Y-92526958D01*
X94577000Y-92405817D01*
X94577000Y-91199000D01*
X93369536Y-91199000D01*
X93249037Y-91431027D01*
X82211774Y-91431027D01*
X82999404Y-90643399D01*
X93273656Y-90643399D01*
X93249037Y-90712973D01*
X93369536Y-90945000D01*
X94577000Y-90945000D01*
X94577000Y-90925000D01*
X94831000Y-90925000D01*
X94831000Y-90945000D01*
X94851000Y-90945000D01*
X94851000Y-91199000D01*
X94831000Y-91199000D01*
X94831000Y-92405817D01*
X95063026Y-92526958D01*
X95213814Y-92481222D01*
X95478944Y-92354684D01*
X95714293Y-92178854D01*
X95910817Y-91960488D01*
X95969441Y-91861897D01*
X96079961Y-92027302D01*
X96288698Y-92236039D01*
X96534147Y-92400042D01*
X96806875Y-92513010D01*
X97096401Y-92570600D01*
X97391599Y-92570600D01*
X97681125Y-92513010D01*
X97953853Y-92400042D01*
X98199302Y-92236039D01*
X98408039Y-92027302D01*
X98514000Y-91868719D01*
X98619961Y-92027302D01*
X98828698Y-92236039D01*
X98949000Y-92316422D01*
X98949001Y-101190971D01*
X98944960Y-101232000D01*
X98961082Y-101395688D01*
X99008828Y-101553086D01*
X99040839Y-101612974D01*
X99086365Y-101698146D01*
X99190710Y-101825291D01*
X99222574Y-101851441D01*
X101807908Y-104436776D01*
X101836774Y-104581898D01*
X101914795Y-104770256D01*
X102028063Y-104939774D01*
X102172226Y-105083937D01*
X102341744Y-105197205D01*
X102530102Y-105275226D01*
X102730061Y-105315000D01*
X102797002Y-105315000D01*
X102797002Y-106325185D01*
X102425034Y-106697154D01*
X102362896Y-106697154D01*
X102162937Y-106736928D01*
X101974579Y-106814949D01*
X101805061Y-106928217D01*
X101660898Y-107072380D01*
X101547630Y-107241898D01*
X101469609Y-107430256D01*
X101429835Y-107630215D01*
X101429835Y-107834093D01*
X101469609Y-108034052D01*
X101547630Y-108222410D01*
X101660898Y-108391928D01*
X101805061Y-108536091D01*
X101847652Y-108564549D01*
X101812201Y-108600000D01*
X69595323Y-108600000D01*
X69558000Y-108596324D01*
X69520677Y-108600000D01*
X69520667Y-108600000D01*
X69409014Y-108610997D01*
X69265753Y-108654454D01*
X69133723Y-108725026D01*
X69057433Y-108787636D01*
X69017999Y-108819999D01*
X68994201Y-108848997D01*
X67015003Y-110828196D01*
X66985999Y-110851999D01*
X66939170Y-110909061D01*
X66891026Y-110967724D01*
X66823143Y-111094723D01*
X66820454Y-111099754D01*
X66776997Y-111243015D01*
X66766000Y-111354668D01*
X66766000Y-111354678D01*
X66762324Y-111392000D01*
X56094000Y-111392000D01*
X56094000Y-109166801D01*
X60469799Y-104791004D01*
X60469808Y-104790993D01*
X61744803Y-103516000D01*
X76474289Y-103516000D01*
X76518226Y-103559937D01*
X76687744Y-103673205D01*
X76876102Y-103751226D01*
X77076061Y-103791000D01*
X77279939Y-103791000D01*
X77479898Y-103751226D01*
X77668256Y-103673205D01*
X77837774Y-103559937D01*
X77981937Y-103415774D01*
X78095205Y-103246256D01*
X78173226Y-103057898D01*
X78213000Y-102857939D01*
X78213000Y-102654061D01*
X78173226Y-102454102D01*
X78095205Y-102265744D01*
X77981937Y-102096226D01*
X77837774Y-101952063D01*
X77668256Y-101838795D01*
X77479898Y-101760774D01*
X77279939Y-101721000D01*
X77076061Y-101721000D01*
X76876102Y-101760774D01*
X76687744Y-101838795D01*
X76518226Y-101952063D01*
X76474289Y-101996000D01*
X61467322Y-101996000D01*
X61429999Y-101992324D01*
X61392676Y-101996000D01*
X61392667Y-101996000D01*
X61281014Y-102006997D01*
X61137753Y-102050454D01*
X61005724Y-102121026D01*
X61005722Y-102121027D01*
X61005723Y-102121027D01*
X60918996Y-102192201D01*
X60918992Y-102192205D01*
X60889999Y-102215999D01*
X60866205Y-102244992D01*
X59648998Y-103462201D01*
X59395007Y-103716192D01*
X59394996Y-103716201D01*
X59217000Y-103894197D01*
X59217000Y-96127891D01*
X70021519Y-96127891D01*
X70118843Y-96402252D01*
X70267822Y-96652355D01*
X70462731Y-96868588D01*
X70696080Y-97042641D01*
X70958901Y-97167825D01*
X71106110Y-97212476D01*
X71336000Y-97091155D01*
X71336000Y-95898000D01*
X71590000Y-95898000D01*
X71590000Y-97091155D01*
X71819890Y-97212476D01*
X71967099Y-97167825D01*
X72229920Y-97042641D01*
X72463269Y-96868588D01*
X72658178Y-96652355D01*
X72733000Y-96526745D01*
X72807822Y-96652355D01*
X73002731Y-96868588D01*
X73236080Y-97042641D01*
X73498901Y-97167825D01*
X73646110Y-97212476D01*
X73876000Y-97091155D01*
X73876000Y-95898000D01*
X74130000Y-95898000D01*
X74130000Y-97091155D01*
X74359890Y-97212476D01*
X74507099Y-97167825D01*
X74769920Y-97042641D01*
X75003269Y-96868588D01*
X75198178Y-96652355D01*
X75273000Y-96526745D01*
X75347822Y-96652355D01*
X75542731Y-96868588D01*
X75776080Y-97042641D01*
X76038901Y-97167825D01*
X76186110Y-97212476D01*
X76416000Y-97091155D01*
X76416000Y-95898000D01*
X76670000Y-95898000D01*
X76670000Y-97091155D01*
X76899890Y-97212476D01*
X77047099Y-97167825D01*
X77309920Y-97042641D01*
X77543269Y-96868588D01*
X77738178Y-96652355D01*
X77887157Y-96402252D01*
X77984481Y-96127891D01*
X77863814Y-95898000D01*
X76670000Y-95898000D01*
X76416000Y-95898000D01*
X74130000Y-95898000D01*
X73876000Y-95898000D01*
X71590000Y-95898000D01*
X71336000Y-95898000D01*
X70142186Y-95898000D01*
X70021519Y-96127891D01*
X59217000Y-96127891D01*
X59217000Y-93084740D01*
X69978000Y-93084740D01*
X69978000Y-93377260D01*
X70035068Y-93664158D01*
X70147010Y-93934411D01*
X70309525Y-94177632D01*
X70516368Y-94384475D01*
X70692406Y-94502100D01*
X70462731Y-94673412D01*
X70267822Y-94889645D01*
X70118843Y-95139748D01*
X70021519Y-95414109D01*
X70142186Y-95644000D01*
X71336000Y-95644000D01*
X71336000Y-95624000D01*
X71590000Y-95624000D01*
X71590000Y-95644000D01*
X73876000Y-95644000D01*
X73876000Y-95624000D01*
X74130000Y-95624000D01*
X74130000Y-95644000D01*
X76416000Y-95644000D01*
X76416000Y-95624000D01*
X76670000Y-95624000D01*
X76670000Y-95644000D01*
X77863814Y-95644000D01*
X77984481Y-95414109D01*
X77887157Y-95139748D01*
X77738178Y-94889645D01*
X77561374Y-94693498D01*
X77637180Y-94670502D01*
X77747494Y-94611537D01*
X77844185Y-94532185D01*
X77923537Y-94435494D01*
X77982502Y-94325180D01*
X78018812Y-94205482D01*
X78031072Y-94081000D01*
X78031072Y-92381000D01*
X78018812Y-92256518D01*
X77982502Y-92136820D01*
X77923537Y-92026506D01*
X77844185Y-91929815D01*
X77747494Y-91850463D01*
X77637180Y-91791498D01*
X77517482Y-91755188D01*
X77393000Y-91742928D01*
X75693000Y-91742928D01*
X75568518Y-91755188D01*
X75448820Y-91791498D01*
X75338506Y-91850463D01*
X75241815Y-91929815D01*
X75162463Y-92026506D01*
X75103498Y-92136820D01*
X75081487Y-92209380D01*
X74949632Y-92077525D01*
X74706411Y-91915010D01*
X74436158Y-91803068D01*
X74149260Y-91746000D01*
X73856740Y-91746000D01*
X73569842Y-91803068D01*
X73299589Y-91915010D01*
X73056368Y-92077525D01*
X72849525Y-92284368D01*
X72733000Y-92458760D01*
X72616475Y-92284368D01*
X72409632Y-92077525D01*
X72166411Y-91915010D01*
X71896158Y-91803068D01*
X71609260Y-91746000D01*
X71316740Y-91746000D01*
X71029842Y-91803068D01*
X70759589Y-91915010D01*
X70516368Y-92077525D01*
X70309525Y-92284368D01*
X70147010Y-92527589D01*
X70035068Y-92797842D01*
X69978000Y-93084740D01*
X59217000Y-93084740D01*
X59217000Y-85321867D01*
X59483868Y-85055000D01*
X73341715Y-85055000D01*
X73464744Y-85137205D01*
X73653102Y-85215226D01*
X73853061Y-85255000D01*
X74056939Y-85255000D01*
X74256898Y-85215226D01*
X74445256Y-85137205D01*
X74568285Y-85055000D01*
X77760982Y-85055000D01*
X77802000Y-85059040D01*
X77843018Y-85055000D01*
X77843019Y-85055000D01*
X77965689Y-85042918D01*
X78123087Y-84995172D01*
X78268146Y-84917636D01*
X78395291Y-84813291D01*
X78421446Y-84781421D01*
X79887426Y-83315441D01*
X79919291Y-83289291D01*
X80023636Y-83162146D01*
X80101172Y-83017087D01*
X80148918Y-82859689D01*
X80161000Y-82737019D01*
X80161000Y-82737009D01*
X80165039Y-82696001D01*
X80161000Y-82654993D01*
X80161000Y-76691867D01*
X80498775Y-76354093D01*
X80643898Y-76325226D01*
X80832256Y-76247205D01*
X81001774Y-76133937D01*
X81145937Y-75989774D01*
X81259205Y-75820256D01*
X81337226Y-75631898D01*
X81377000Y-75431939D01*
X81377000Y-75228061D01*
X81337226Y-75028102D01*
X81259205Y-74839744D01*
X81145937Y-74670226D01*
X81001774Y-74526063D01*
X80832256Y-74412795D01*
X80643898Y-74334774D01*
X80443939Y-74295000D01*
X80240061Y-74295000D01*
X80040102Y-74334774D01*
X79851744Y-74412795D01*
X79682226Y-74526063D01*
X79538063Y-74670226D01*
X79424795Y-74839744D01*
X79346774Y-75028102D01*
X79317907Y-75173225D01*
X78764579Y-75726554D01*
X78732709Y-75752709D01*
X78665178Y-75834997D01*
X78628364Y-75879855D01*
X78550828Y-76024914D01*
X78503082Y-76182312D01*
X78486960Y-76346000D01*
X78491000Y-76387019D01*
X78491001Y-82350131D01*
X77456133Y-83385000D01*
X74568285Y-83385000D01*
X74445256Y-83302795D01*
X74256898Y-83224774D01*
X74056939Y-83185000D01*
X73853061Y-83185000D01*
X73653102Y-83224774D01*
X73464744Y-83302795D01*
X73341715Y-83385000D01*
X59179007Y-83385000D01*
X59137999Y-83380961D01*
X59096991Y-83385000D01*
X59096981Y-83385000D01*
X58974311Y-83397082D01*
X58816913Y-83444828D01*
X58671854Y-83522364D01*
X58544709Y-83626709D01*
X58518561Y-83658571D01*
X57820579Y-84356554D01*
X57788709Y-84382709D01*
X57717338Y-84469676D01*
X57684364Y-84509855D01*
X57606828Y-84654914D01*
X57559082Y-84812312D01*
X57542960Y-84976000D01*
X57547000Y-85017018D01*
X57547001Y-103680130D01*
X53756579Y-107470554D01*
X53724709Y-107496709D01*
X53653754Y-107583169D01*
X53620364Y-107623855D01*
X53542828Y-107768914D01*
X53495082Y-107926312D01*
X53478960Y-108090000D01*
X53483000Y-108131018D01*
X53483001Y-127288714D01*
X53400795Y-127411744D01*
X53322774Y-127600102D01*
X53283000Y-127800061D01*
X50660000Y-127800061D01*
X50660000Y-91312400D01*
X50998090Y-91312400D01*
X51001143Y-91336029D01*
X51094319Y-91576007D01*
X51232522Y-91793196D01*
X51410441Y-91979250D01*
X51621239Y-92127019D01*
X51856815Y-92230824D01*
X52108116Y-92286675D01*
X52314000Y-92136573D01*
X52314000Y-91110000D01*
X52568000Y-91110000D01*
X52568000Y-92136573D01*
X52773884Y-92286675D01*
X53025185Y-92230824D01*
X53260761Y-92127019D01*
X53471559Y-91979250D01*
X53649478Y-91793196D01*
X53787681Y-91576007D01*
X53880857Y-91336029D01*
X53883910Y-91312400D01*
X53760224Y-91110000D01*
X52568000Y-91110000D01*
X52314000Y-91110000D01*
X51121776Y-91110000D01*
X50998090Y-91312400D01*
X50660000Y-91312400D01*
X50660000Y-90982744D01*
X54097197Y-90982744D01*
X54101989Y-91021526D01*
X54191869Y-91237039D01*
X54322066Y-91430877D01*
X54487578Y-91595590D01*
X54682043Y-91724848D01*
X54897989Y-91813684D01*
X55127116Y-91858684D01*
X55314000Y-91703152D01*
X55314000Y-90800000D01*
X55568000Y-90800000D01*
X55568000Y-91703152D01*
X55754884Y-91858684D01*
X55984011Y-91813684D01*
X56199957Y-91724848D01*
X56394422Y-91595590D01*
X56559934Y-91430877D01*
X56690131Y-91237039D01*
X56780011Y-91021526D01*
X56784803Y-90982744D01*
X56659361Y-90800000D01*
X55568000Y-90800000D01*
X55314000Y-90800000D01*
X54222639Y-90800000D01*
X54097197Y-90982744D01*
X50660000Y-90982744D01*
X50660000Y-90653600D01*
X50998090Y-90653600D01*
X51121776Y-90856000D01*
X52314000Y-90856000D01*
X52314000Y-89829427D01*
X52568000Y-89829427D01*
X52568000Y-90856000D01*
X53760224Y-90856000D01*
X53883910Y-90653600D01*
X53880857Y-90629971D01*
X53787681Y-90389993D01*
X53770668Y-90363256D01*
X54097197Y-90363256D01*
X54222639Y-90546000D01*
X55314000Y-90546000D01*
X55314000Y-89642848D01*
X55568000Y-89642848D01*
X55568000Y-90546000D01*
X56659361Y-90546000D01*
X56784803Y-90363256D01*
X56780011Y-90324474D01*
X56690131Y-90108961D01*
X56559934Y-89915123D01*
X56394422Y-89750410D01*
X56199957Y-89621152D01*
X55984011Y-89532316D01*
X55754884Y-89487316D01*
X55568000Y-89642848D01*
X55314000Y-89642848D01*
X55127116Y-89487316D01*
X54897989Y-89532316D01*
X54682043Y-89621152D01*
X54487578Y-89750410D01*
X54322066Y-89915123D01*
X54191869Y-90108961D01*
X54101989Y-90324474D01*
X54097197Y-90363256D01*
X53770668Y-90363256D01*
X53649478Y-90172804D01*
X53471559Y-89986750D01*
X53260761Y-89838981D01*
X53025185Y-89735176D01*
X52773884Y-89679325D01*
X52568000Y-89829427D01*
X52314000Y-89829427D01*
X52108116Y-89679325D01*
X51856815Y-89735176D01*
X51621239Y-89838981D01*
X51410441Y-89986750D01*
X51232522Y-90172804D01*
X51094319Y-90389993D01*
X51001143Y-90629971D01*
X50998090Y-90653600D01*
X50660000Y-90653600D01*
X50660000Y-85852400D01*
X50998090Y-85852400D01*
X51001143Y-85876029D01*
X51094319Y-86116007D01*
X51232522Y-86333196D01*
X51410441Y-86519250D01*
X51621239Y-86667019D01*
X51856815Y-86770824D01*
X52108116Y-86826675D01*
X52314000Y-86676573D01*
X52314000Y-85650000D01*
X52568000Y-85650000D01*
X52568000Y-86676573D01*
X52773884Y-86826675D01*
X53025185Y-86770824D01*
X53260761Y-86667019D01*
X53471559Y-86519250D01*
X53649478Y-86333196D01*
X53770667Y-86142744D01*
X54097197Y-86142744D01*
X54101989Y-86181526D01*
X54191869Y-86397039D01*
X54322066Y-86590877D01*
X54487578Y-86755590D01*
X54682043Y-86884848D01*
X54897989Y-86973684D01*
X55127116Y-87018684D01*
X55314000Y-86863152D01*
X55314000Y-85960000D01*
X55568000Y-85960000D01*
X55568000Y-86863152D01*
X55754884Y-87018684D01*
X55984011Y-86973684D01*
X56199957Y-86884848D01*
X56394422Y-86755590D01*
X56559934Y-86590877D01*
X56690131Y-86397039D01*
X56780011Y-86181526D01*
X56784803Y-86142744D01*
X56659361Y-85960000D01*
X55568000Y-85960000D01*
X55314000Y-85960000D01*
X54222639Y-85960000D01*
X54097197Y-86142744D01*
X53770667Y-86142744D01*
X53787681Y-86116007D01*
X53880857Y-85876029D01*
X53883910Y-85852400D01*
X53760224Y-85650000D01*
X52568000Y-85650000D01*
X52314000Y-85650000D01*
X51121776Y-85650000D01*
X50998090Y-85852400D01*
X50660000Y-85852400D01*
X50660000Y-85523256D01*
X54097197Y-85523256D01*
X54222639Y-85706000D01*
X55314000Y-85706000D01*
X55314000Y-84802848D01*
X55568000Y-84802848D01*
X55568000Y-85706000D01*
X56659361Y-85706000D01*
X56784803Y-85523256D01*
X56780011Y-85484474D01*
X56690131Y-85268961D01*
X56559934Y-85075123D01*
X56394422Y-84910410D01*
X56199957Y-84781152D01*
X55984011Y-84692316D01*
X55754884Y-84647316D01*
X55568000Y-84802848D01*
X55314000Y-84802848D01*
X55127116Y-84647316D01*
X54897989Y-84692316D01*
X54682043Y-84781152D01*
X54487578Y-84910410D01*
X54322066Y-85075123D01*
X54191869Y-85268961D01*
X54101989Y-85484474D01*
X54097197Y-85523256D01*
X50660000Y-85523256D01*
X50660000Y-85193600D01*
X50998090Y-85193600D01*
X51121776Y-85396000D01*
X52314000Y-85396000D01*
X52314000Y-84369427D01*
X52568000Y-84369427D01*
X52568000Y-85396000D01*
X53760224Y-85396000D01*
X53883910Y-85193600D01*
X53880857Y-85169971D01*
X53787681Y-84929993D01*
X53649478Y-84712804D01*
X53471559Y-84526750D01*
X53260761Y-84378981D01*
X53025185Y-84275176D01*
X52773884Y-84219325D01*
X52568000Y-84369427D01*
X52314000Y-84369427D01*
X52108116Y-84219325D01*
X51856815Y-84275176D01*
X51621239Y-84378981D01*
X51410441Y-84526750D01*
X51232522Y-84712804D01*
X51094319Y-84929993D01*
X51001143Y-85169971D01*
X50998090Y-85193600D01*
X50660000Y-85193600D01*
X50660000Y-67029392D01*
X50708273Y-66488495D01*
X53015000Y-66488495D01*
X53015000Y-66879505D01*
X53091282Y-67263003D01*
X53240915Y-67624250D01*
X53458149Y-67949364D01*
X53734636Y-68225851D01*
X54059750Y-68443085D01*
X54420997Y-68592718D01*
X54804495Y-68669000D01*
X55195505Y-68669000D01*
X55579003Y-68592718D01*
X55940250Y-68443085D01*
X56265364Y-68225851D01*
X56541851Y-67949364D01*
X56600184Y-67862061D01*
X66099000Y-67862061D01*
X66099000Y-68065939D01*
X66138774Y-68265898D01*
X66216795Y-68454256D01*
X66330063Y-68623774D01*
X66374000Y-68667711D01*
X66374001Y-75038668D01*
X66370324Y-75076000D01*
X66384998Y-75224985D01*
X66428454Y-75368246D01*
X66499026Y-75500276D01*
X66556927Y-75570828D01*
X66594000Y-75616001D01*
X66622998Y-75639799D01*
X67369000Y-76385802D01*
X67369000Y-76447939D01*
X67408774Y-76647898D01*
X67486795Y-76836256D01*
X67600063Y-77005774D01*
X67744226Y-77149937D01*
X67913744Y-77263205D01*
X68102102Y-77341226D01*
X68302061Y-77381000D01*
X68505939Y-77381000D01*
X68705898Y-77341226D01*
X68894256Y-77263205D01*
X69063774Y-77149937D01*
X69207937Y-77005774D01*
X69321205Y-76836256D01*
X69399226Y-76647898D01*
X69439000Y-76447939D01*
X69439000Y-76244061D01*
X69399226Y-76044102D01*
X69321205Y-75855744D01*
X69207937Y-75686226D01*
X69063774Y-75542063D01*
X68894256Y-75428795D01*
X68705898Y-75350774D01*
X68505939Y-75311000D01*
X68443802Y-75311000D01*
X67894000Y-74761199D01*
X67894000Y-68667711D01*
X67937937Y-68623774D01*
X68051205Y-68454256D01*
X68129226Y-68265898D01*
X68169000Y-68065939D01*
X68169000Y-67862061D01*
X68129226Y-67662102D01*
X68051205Y-67473744D01*
X67937937Y-67304226D01*
X67793774Y-67160063D01*
X67624256Y-67046795D01*
X67435898Y-66968774D01*
X67235939Y-66929000D01*
X67032061Y-66929000D01*
X66832102Y-66968774D01*
X66643744Y-67046795D01*
X66474226Y-67160063D01*
X66330063Y-67304226D01*
X66216795Y-67473744D01*
X66138774Y-67662102D01*
X66099000Y-67862061D01*
X56600184Y-67862061D01*
X56759085Y-67624250D01*
X56908718Y-67263003D01*
X56985000Y-66879505D01*
X56985000Y-66488495D01*
X56908718Y-66104997D01*
X56794837Y-65830061D01*
X67877000Y-65830061D01*
X67877000Y-66033939D01*
X67916774Y-66233898D01*
X67994795Y-66422256D01*
X68108063Y-66591774D01*
X68252226Y-66735937D01*
X68421744Y-66849205D01*
X68610102Y-66927226D01*
X68810061Y-66967000D01*
X68872198Y-66967000D01*
X69676000Y-67770803D01*
X69676001Y-79102668D01*
X69672324Y-79140000D01*
X69676001Y-79177333D01*
X69686998Y-79288986D01*
X69696453Y-79320155D01*
X69730454Y-79432246D01*
X69801026Y-79564276D01*
X69872201Y-79651002D01*
X69896000Y-79680001D01*
X69924998Y-79703799D01*
X70888201Y-80667003D01*
X70911999Y-80696001D01*
X70940997Y-80719799D01*
X71027723Y-80790974D01*
X71159753Y-80861546D01*
X71303014Y-80905003D01*
X71414667Y-80916000D01*
X71414677Y-80916000D01*
X71452000Y-80919676D01*
X71489322Y-80916000D01*
X73288289Y-80916000D01*
X73332226Y-80959937D01*
X73501744Y-81073205D01*
X73690102Y-81151226D01*
X73890061Y-81191000D01*
X74093939Y-81191000D01*
X74293898Y-81151226D01*
X74482256Y-81073205D01*
X74651774Y-80959937D01*
X74795937Y-80815774D01*
X74909205Y-80646256D01*
X74987226Y-80457898D01*
X75027000Y-80257939D01*
X75027000Y-80054061D01*
X74987226Y-79854102D01*
X74909205Y-79665744D01*
X74795937Y-79496226D01*
X74651774Y-79352063D01*
X74482256Y-79238795D01*
X74293898Y-79160774D01*
X74093939Y-79121000D01*
X73890061Y-79121000D01*
X73690102Y-79160774D01*
X73501744Y-79238795D01*
X73332226Y-79352063D01*
X73288289Y-79396000D01*
X71766802Y-79396000D01*
X71196000Y-78825199D01*
X71196000Y-67493322D01*
X71199676Y-67455999D01*
X71196000Y-67418676D01*
X71196000Y-67418667D01*
X71185003Y-67307014D01*
X71141546Y-67163753D01*
X71070974Y-67031724D01*
X71044938Y-66999999D01*
X70999799Y-66944996D01*
X70999795Y-66944992D01*
X70976001Y-66915999D01*
X70947009Y-66892206D01*
X69947000Y-65892198D01*
X69947000Y-65830061D01*
X69944882Y-65819413D01*
X94044192Y-65819413D01*
X94139956Y-66083814D01*
X94429571Y-66224704D01*
X94741108Y-66306384D01*
X95062595Y-66325718D01*
X95381675Y-66281961D01*
X95686088Y-66176795D01*
X95860044Y-66083814D01*
X95955808Y-65819413D01*
X100544192Y-65819413D01*
X100639956Y-66083814D01*
X100929571Y-66224704D01*
X101241108Y-66306384D01*
X101562595Y-66325718D01*
X101881675Y-66281961D01*
X102186088Y-66176795D01*
X102360044Y-66083814D01*
X102455808Y-65819413D01*
X101500000Y-64863605D01*
X100544192Y-65819413D01*
X95955808Y-65819413D01*
X95000000Y-64863605D01*
X94044192Y-65819413D01*
X69944882Y-65819413D01*
X69907226Y-65630102D01*
X69829205Y-65441744D01*
X69715937Y-65272226D01*
X69571774Y-65128063D01*
X69402256Y-65014795D01*
X69213898Y-64936774D01*
X69013939Y-64897000D01*
X68810061Y-64897000D01*
X68610102Y-64936774D01*
X68421744Y-65014795D01*
X68252226Y-65128063D01*
X68108063Y-65272226D01*
X67994795Y-65441744D01*
X67916774Y-65630102D01*
X67877000Y-65830061D01*
X56794837Y-65830061D01*
X56759085Y-65743750D01*
X56541851Y-65418636D01*
X56265364Y-65142149D01*
X55940250Y-64924915D01*
X55579003Y-64775282D01*
X55434783Y-64746595D01*
X93358282Y-64746595D01*
X93402039Y-65065675D01*
X93507205Y-65370088D01*
X93600186Y-65544044D01*
X93864587Y-65639808D01*
X94820395Y-64684000D01*
X95179605Y-64684000D01*
X96135413Y-65639808D01*
X96399814Y-65544044D01*
X96540704Y-65254429D01*
X96622384Y-64942892D01*
X96634189Y-64746595D01*
X99858282Y-64746595D01*
X99902039Y-65065675D01*
X100007205Y-65370088D01*
X100100186Y-65544044D01*
X100364587Y-65639808D01*
X101320395Y-64684000D01*
X101679605Y-64684000D01*
X102635413Y-65639808D01*
X102899814Y-65544044D01*
X103040704Y-65254429D01*
X103122384Y-64942892D01*
X103141718Y-64621405D01*
X103097961Y-64302325D01*
X102992795Y-63997912D01*
X102899814Y-63823956D01*
X102635413Y-63728192D01*
X101679605Y-64684000D01*
X101320395Y-64684000D01*
X100364587Y-63728192D01*
X100100186Y-63823956D01*
X99959296Y-64113571D01*
X99877616Y-64425108D01*
X99858282Y-64746595D01*
X96634189Y-64746595D01*
X96641718Y-64621405D01*
X96597961Y-64302325D01*
X96492795Y-63997912D01*
X96399814Y-63823956D01*
X96135413Y-63728192D01*
X95179605Y-64684000D01*
X94820395Y-64684000D01*
X93864587Y-63728192D01*
X93600186Y-63823956D01*
X93459296Y-64113571D01*
X93377616Y-64425108D01*
X93358282Y-64746595D01*
X55434783Y-64746595D01*
X55195505Y-64699000D01*
X54804495Y-64699000D01*
X54420997Y-64775282D01*
X54059750Y-64924915D01*
X53734636Y-65142149D01*
X53458149Y-65418636D01*
X53240915Y-65743750D01*
X53091282Y-66104997D01*
X53015000Y-66488495D01*
X50708273Y-66488495D01*
X50731173Y-66231917D01*
X50934656Y-65488109D01*
X51266638Y-64792095D01*
X51716626Y-64165870D01*
X52270403Y-63629223D01*
X52390402Y-63548587D01*
X94044192Y-63548587D01*
X95000000Y-64504395D01*
X95955808Y-63548587D01*
X100544192Y-63548587D01*
X101500000Y-64504395D01*
X102455808Y-63548587D01*
X102360044Y-63284186D01*
X102070429Y-63143296D01*
X101758892Y-63061616D01*
X101437405Y-63042282D01*
X101118325Y-63086039D01*
X100813912Y-63191205D01*
X100639956Y-63284186D01*
X100544192Y-63548587D01*
X95955808Y-63548587D01*
X95860044Y-63284186D01*
X95570429Y-63143296D01*
X95258892Y-63061616D01*
X94937405Y-63042282D01*
X94618325Y-63086039D01*
X94313912Y-63191205D01*
X94139956Y-63284186D01*
X94044192Y-63548587D01*
X52390402Y-63548587D01*
X52910451Y-63199129D01*
X53616553Y-62889171D01*
X54371457Y-62707935D01*
X55024207Y-62660000D01*
X144970608Y-62660000D01*
X145768083Y-62731173D01*
G37*
X145768083Y-62731173D02*
X146511891Y-62934656D01*
X147207905Y-63266638D01*
X147834130Y-63716626D01*
X148370777Y-64270403D01*
X148800871Y-64910451D01*
X149110829Y-65616553D01*
X149292065Y-66371457D01*
X149340001Y-67024220D01*
X149340000Y-144970608D01*
X149268827Y-145768083D01*
X149065344Y-146511890D01*
X148733363Y-147207904D01*
X148283374Y-147834130D01*
X147729597Y-148370777D01*
X147089549Y-148800871D01*
X146383447Y-149110829D01*
X145628543Y-149292065D01*
X144975793Y-149340000D01*
X55029392Y-149340000D01*
X54231917Y-149268827D01*
X53488110Y-149065344D01*
X52792096Y-148733363D01*
X52165870Y-148283374D01*
X51629223Y-147729597D01*
X51199129Y-147089549D01*
X50889171Y-146383447D01*
X50707935Y-145628543D01*
X50660000Y-144975793D01*
X50660000Y-144804495D01*
X53015000Y-144804495D01*
X53015000Y-145195505D01*
X53091282Y-145579003D01*
X53240915Y-145940250D01*
X53458149Y-146265364D01*
X53734636Y-146541851D01*
X54059750Y-146759085D01*
X54420997Y-146908718D01*
X54804495Y-146985000D01*
X55195505Y-146985000D01*
X55579003Y-146908718D01*
X55940250Y-146759085D01*
X56265364Y-146541851D01*
X56541851Y-146265364D01*
X56759085Y-145940250D01*
X56908718Y-145579003D01*
X56985000Y-145195505D01*
X56985000Y-144804495D01*
X56908718Y-144420997D01*
X56759085Y-144059750D01*
X56541851Y-143734636D01*
X56265364Y-143458149D01*
X55940250Y-143240915D01*
X55579003Y-143091282D01*
X55195505Y-143015000D01*
X54804495Y-143015000D01*
X54420997Y-143091282D01*
X54059750Y-143240915D01*
X53734636Y-143458149D01*
X53458149Y-143734636D01*
X53240915Y-144059750D01*
X53091282Y-144420997D01*
X53015000Y-144804495D01*
X50660000Y-144804495D01*
X50660000Y-142661000D01*
X84594994Y-142661000D01*
X84600000Y-142711828D01*
X84600000Y-142711837D01*
X84614976Y-142863894D01*
X84674159Y-143058992D01*
X84770266Y-143238797D01*
X84899604Y-143396396D01*
X84939097Y-143428807D01*
X88348197Y-146837908D01*
X88380604Y-146877396D01*
X88420092Y-146909803D01*
X88538202Y-147006734D01*
X88626817Y-147054099D01*
X88718007Y-147102841D01*
X88913105Y-147162024D01*
X89065162Y-147177000D01*
X89065171Y-147177000D01*
X89115999Y-147182006D01*
X89166827Y-147177000D01*
X118427939Y-147177000D01*
X118478057Y-147167031D01*
X118528895Y-147162024D01*
X118577777Y-147147196D01*
X118627898Y-147137226D01*
X118675113Y-147117669D01*
X118723993Y-147102841D01*
X118769042Y-147078762D01*
X118816256Y-147059205D01*
X118858746Y-147030814D01*
X118903797Y-147006734D01*
X118943284Y-146974328D01*
X118985774Y-146945937D01*
X119021908Y-146909803D01*
X119061396Y-146877396D01*
X119093803Y-146837908D01*
X119129937Y-146801774D01*
X119158328Y-146759284D01*
X119190734Y-146719797D01*
X119214814Y-146674746D01*
X119243205Y-146632256D01*
X119262762Y-146585042D01*
X119286841Y-146539993D01*
X119301669Y-146491113D01*
X119321226Y-146443898D01*
X119331196Y-146393777D01*
X119346024Y-146344895D01*
X119351031Y-146294057D01*
X119361000Y-146243939D01*
X119361000Y-146192838D01*
X119366007Y-146142000D01*
X119361000Y-146091162D01*
X119361000Y-146040061D01*
X119351031Y-145989943D01*
X119346024Y-145939105D01*
X119331196Y-145890223D01*
X119321226Y-145840102D01*
X119301669Y-145792887D01*
X119286841Y-145744007D01*
X119262762Y-145698958D01*
X119243205Y-145651744D01*
X119214814Y-145609254D01*
X119190734Y-145564203D01*
X119158328Y-145524716D01*
X119129937Y-145482226D01*
X119093803Y-145446092D01*
X119061396Y-145406604D01*
X119021908Y-145374197D01*
X118985774Y-145338063D01*
X118943284Y-145309672D01*
X118903797Y-145277266D01*
X118858746Y-145253186D01*
X118816256Y-145224795D01*
X118769042Y-145205238D01*
X118723993Y-145181159D01*
X118675113Y-145166331D01*
X118627898Y-145146774D01*
X118577777Y-145136804D01*
X118528895Y-145121976D01*
X118478057Y-145116969D01*
X118427939Y-145107000D01*
X89544711Y-145107000D01*
X89242206Y-144804495D01*
X143015000Y-144804495D01*
X143015000Y-145195505D01*
X143091282Y-145579003D01*
X143240915Y-145940250D01*
X143458149Y-146265364D01*
X143734636Y-146541851D01*
X144059750Y-146759085D01*
X144420997Y-146908718D01*
X144804495Y-146985000D01*
X145195505Y-146985000D01*
X145579003Y-146908718D01*
X145940250Y-146759085D01*
X146265364Y-146541851D01*
X146541851Y-146265364D01*
X146759085Y-145940250D01*
X146908718Y-145579003D01*
X146985000Y-145195505D01*
X146985000Y-144804495D01*
X146908718Y-144420997D01*
X146759085Y-144059750D01*
X146541851Y-143734636D01*
X146265364Y-143458149D01*
X145940250Y-143240915D01*
X145579003Y-143091282D01*
X145195505Y-143015000D01*
X144804495Y-143015000D01*
X144420997Y-143091282D01*
X144059750Y-143240915D01*
X143734636Y-143458149D01*
X143458149Y-143734636D01*
X143240915Y-144059750D01*
X143091282Y-144420997D01*
X143015000Y-144804495D01*
X89242206Y-144804495D01*
X86670000Y-142232290D01*
X86670000Y-139728710D01*
X88699197Y-141757908D01*
X88731604Y-141797396D01*
X88771092Y-141829803D01*
X88889202Y-141926734D01*
X88985309Y-141978104D01*
X89069007Y-142022841D01*
X89264105Y-142082024D01*
X89416162Y-142097000D01*
X89416165Y-142097000D01*
X89467000Y-142102007D01*
X89517835Y-142097000D01*
X118427939Y-142097000D01*
X118478057Y-142087031D01*
X118528895Y-142082024D01*
X118577777Y-142067196D01*
X118627898Y-142057226D01*
X118675113Y-142037669D01*
X118723993Y-142022841D01*
X118769042Y-141998762D01*
X118816256Y-141979205D01*
X118858746Y-141950814D01*
X118903797Y-141926734D01*
X118943284Y-141894328D01*
X118985774Y-141865937D01*
X119021908Y-141829803D01*
X119061396Y-141797396D01*
X119093803Y-141757908D01*
X119129937Y-141721774D01*
X119158328Y-141679284D01*
X119190734Y-141639797D01*
X119214814Y-141594746D01*
X119243205Y-141552256D01*
X119262762Y-141505042D01*
X119286841Y-141459993D01*
X119301669Y-141411113D01*
X119321226Y-141363898D01*
X119331196Y-141313777D01*
X119346024Y-141264895D01*
X119351031Y-141214057D01*
X119361000Y-141163939D01*
X119361000Y-141112838D01*
X119366007Y-141062000D01*
X119361000Y-141011162D01*
X119361000Y-140960061D01*
X119351031Y-140909943D01*
X119346024Y-140859105D01*
X119331196Y-140810223D01*
X119321226Y-140760102D01*
X119301669Y-140712887D01*
X119286841Y-140664007D01*
X119262762Y-140618958D01*
X119243205Y-140571744D01*
X119214814Y-140529254D01*
X119190734Y-140484203D01*
X119158328Y-140444716D01*
X119129937Y-140402226D01*
X119093803Y-140366092D01*
X119061396Y-140326604D01*
X119021908Y-140294197D01*
X118985774Y-140258063D01*
X118943284Y-140229672D01*
X118903797Y-140197266D01*
X118858746Y-140173186D01*
X118816256Y-140144795D01*
X118769042Y-140125238D01*
X118723993Y-140101159D01*
X118675113Y-140086331D01*
X118627898Y-140066774D01*
X118577777Y-140056804D01*
X118528895Y-140041976D01*
X118478057Y-140036969D01*
X118427939Y-140027000D01*
X89895711Y-140027000D01*
X87809439Y-137940729D01*
X87809437Y-137940726D01*
X87665274Y-137796563D01*
X87622783Y-137768171D01*
X87583297Y-137735766D01*
X87538248Y-137711687D01*
X87495756Y-137683295D01*
X87448536Y-137663736D01*
X87403493Y-137639660D01*
X87354622Y-137624835D01*
X87307398Y-137605274D01*
X87257268Y-137595303D01*
X87208395Y-137580477D01*
X87157567Y-137575471D01*
X87107439Y-137565500D01*
X87056328Y-137565500D01*
X87005500Y-137560494D01*
X86954672Y-137565500D01*
X86903561Y-137565500D01*
X86853433Y-137575471D01*
X86802605Y-137580477D01*
X86753732Y-137595303D01*
X86703602Y-137605274D01*
X86656378Y-137624835D01*
X86607507Y-137639660D01*
X86562464Y-137663736D01*
X86515244Y-137683295D01*
X86472752Y-137711687D01*
X86427703Y-137735766D01*
X86388216Y-137768172D01*
X86345726Y-137796563D01*
X86309592Y-137832697D01*
X86270104Y-137865104D01*
X86261902Y-137875099D01*
X86252284Y-137868672D01*
X86212797Y-137836266D01*
X86167746Y-137812186D01*
X86125256Y-137783795D01*
X86078042Y-137764238D01*
X86032993Y-137740159D01*
X85984113Y-137725331D01*
X85936898Y-137705774D01*
X85886777Y-137695804D01*
X85837895Y-137680976D01*
X85787057Y-137675969D01*
X85736939Y-137666000D01*
X85685838Y-137666000D01*
X85635000Y-137660993D01*
X85584162Y-137666000D01*
X85533061Y-137666000D01*
X85482942Y-137675969D01*
X85432106Y-137680976D01*
X85383226Y-137695804D01*
X85333102Y-137705774D01*
X85285884Y-137725332D01*
X85237008Y-137740159D01*
X85191962Y-137764237D01*
X85144744Y-137783795D01*
X85102250Y-137812188D01*
X85057204Y-137836266D01*
X85017721Y-137868669D01*
X84975226Y-137897063D01*
X84939087Y-137933202D01*
X84899605Y-137965604D01*
X84867203Y-138005086D01*
X84831063Y-138041226D01*
X84802668Y-138083722D01*
X84770267Y-138123203D01*
X84746191Y-138168247D01*
X84717795Y-138210744D01*
X84698235Y-138257966D01*
X84674160Y-138303007D01*
X84659335Y-138351878D01*
X84639774Y-138399102D01*
X84629803Y-138449232D01*
X84614977Y-138498105D01*
X84609971Y-138548933D01*
X84600000Y-138599061D01*
X84600000Y-138802939D01*
X84600001Y-138802944D01*
X84600000Y-142610172D01*
X84594994Y-142661000D01*
X50660000Y-142661000D01*
X50660000Y-127800061D01*
X53283000Y-127800061D01*
X53283000Y-128003939D01*
X53322774Y-128203898D01*
X53400795Y-128392256D01*
X53483001Y-128515286D01*
X53483001Y-130860971D01*
X53478960Y-130902000D01*
X53495082Y-131065688D01*
X53542828Y-131223086D01*
X53620364Y-131368145D01*
X53620365Y-131368146D01*
X53724710Y-131495291D01*
X53756574Y-131521441D01*
X56238559Y-134003427D01*
X56264709Y-134035291D01*
X56391854Y-134139636D01*
X56536913Y-134217172D01*
X56694311Y-134264918D01*
X56816981Y-134277000D01*
X56816991Y-134277000D01*
X56857999Y-134281039D01*
X56899007Y-134277000D01*
X70468715Y-134277000D01*
X70591744Y-134359205D01*
X70780102Y-134437226D01*
X70980061Y-134477000D01*
X71183939Y-134477000D01*
X71383898Y-134437226D01*
X71572256Y-134359205D01*
X71695285Y-134277000D01*
X79793907Y-134277000D01*
X79738774Y-134410102D01*
X79699000Y-134610061D01*
X79699000Y-134813939D01*
X79738774Y-135013898D01*
X79816795Y-135202256D01*
X79930063Y-135371774D01*
X80074226Y-135515937D01*
X80243744Y-135629205D01*
X80432102Y-135707226D01*
X80632061Y-135747000D01*
X80835939Y-135747000D01*
X81035898Y-135707226D01*
X81224256Y-135629205D01*
X81393774Y-135515937D01*
X81537937Y-135371774D01*
X81651205Y-135202256D01*
X81729226Y-135013898D01*
X81758093Y-134868775D01*
X82349868Y-134277000D01*
X103742715Y-134277000D01*
X103865744Y-134359205D01*
X104054102Y-134437226D01*
X104254061Y-134477000D01*
X104457939Y-134477000D01*
X104657898Y-134437226D01*
X104846256Y-134359205D01*
X105015774Y-134245937D01*
X105159937Y-134101774D01*
X105273205Y-133932256D01*
X105351226Y-133743898D01*
X105391000Y-133543939D01*
X105391000Y-133340061D01*
X105351226Y-133140102D01*
X105286980Y-132985000D01*
X118056439Y-132985000D01*
X118106557Y-132975031D01*
X118157395Y-132970024D01*
X118206277Y-132955196D01*
X118256398Y-132945226D01*
X118303613Y-132925669D01*
X118352493Y-132910841D01*
X118397542Y-132886762D01*
X118444756Y-132867205D01*
X118487246Y-132838814D01*
X118532297Y-132814734D01*
X118571784Y-132782328D01*
X118614274Y-132753937D01*
X118650408Y-132717803D01*
X118689896Y-132685396D01*
X118722303Y-132645908D01*
X118758437Y-132609774D01*
X118786828Y-132567284D01*
X118819234Y-132527797D01*
X118843314Y-132482746D01*
X118871705Y-132440256D01*
X118891262Y-132393042D01*
X118915341Y-132347993D01*
X118930169Y-132299113D01*
X118949726Y-132251898D01*
X118959696Y-132201777D01*
X118974524Y-132152895D01*
X118979531Y-132102057D01*
X118989500Y-132051939D01*
X118989500Y-132000838D01*
X118994507Y-131950000D01*
X118989500Y-131899162D01*
X118989500Y-131848061D01*
X118979531Y-131797943D01*
X118974524Y-131747105D01*
X118959696Y-131698223D01*
X118949726Y-131648102D01*
X118930169Y-131600887D01*
X118915341Y-131552007D01*
X118891262Y-131506958D01*
X118871705Y-131459744D01*
X118843314Y-131417254D01*
X118819234Y-131372203D01*
X118786828Y-131332716D01*
X118758437Y-131290226D01*
X118722303Y-131254092D01*
X118689896Y-131214604D01*
X118650408Y-131182197D01*
X118614274Y-131146063D01*
X118571784Y-131117672D01*
X118532297Y-131085266D01*
X118487246Y-131061186D01*
X118444756Y-131032795D01*
X118397542Y-131013238D01*
X118352493Y-130989159D01*
X118303613Y-130974331D01*
X118256398Y-130954774D01*
X118206277Y-130944804D01*
X118157395Y-130929976D01*
X118106557Y-130924969D01*
X118056439Y-130915000D01*
X92266711Y-130915000D01*
X88168210Y-126816500D01*
X115824782Y-126816500D01*
X115998053Y-126989771D01*
X115998055Y-126989774D01*
X116142218Y-127133937D01*
X116184709Y-127162329D01*
X116224195Y-127194734D01*
X116269245Y-127218814D01*
X116311736Y-127247205D01*
X116358953Y-127266763D01*
X116403998Y-127290840D01*
X116452873Y-127305666D01*
X116500094Y-127325226D01*
X116550221Y-127335197D01*
X116599096Y-127350023D01*
X116649926Y-127355029D01*
X116700053Y-127365000D01*
X116751163Y-127365000D01*
X116801991Y-127370006D01*
X116852819Y-127365000D01*
X116903931Y-127365000D01*
X116954059Y-127355029D01*
X117004887Y-127350023D01*
X117053760Y-127335197D01*
X117103890Y-127325226D01*
X117151114Y-127305665D01*
X117199985Y-127290840D01*
X117245028Y-127266764D01*
X117292248Y-127247205D01*
X117334740Y-127218813D01*
X117379789Y-127194734D01*
X117419273Y-127162330D01*
X117461766Y-127133937D01*
X117497908Y-127097795D01*
X117537387Y-127065395D01*
X117569787Y-127025916D01*
X117605929Y-126989774D01*
X117634322Y-126947281D01*
X117666726Y-126907797D01*
X117690805Y-126862748D01*
X117719197Y-126820256D01*
X117738756Y-126773036D01*
X117762832Y-126727993D01*
X117777657Y-126679122D01*
X117797218Y-126631898D01*
X117807189Y-126581768D01*
X117822015Y-126532895D01*
X117827021Y-126482067D01*
X117836992Y-126431939D01*
X117836992Y-126380827D01*
X117841998Y-126329999D01*
X117836992Y-126279171D01*
X117836992Y-126228061D01*
X117827021Y-126177934D01*
X117822015Y-126127104D01*
X117807189Y-126078229D01*
X117797218Y-126028102D01*
X117777658Y-125980881D01*
X117762832Y-125932006D01*
X117738755Y-125886961D01*
X117719197Y-125839744D01*
X117690806Y-125797253D01*
X117666726Y-125752203D01*
X117634321Y-125712717D01*
X117605929Y-125670226D01*
X117461766Y-125526063D01*
X117461763Y-125526061D01*
X117021299Y-125085597D01*
X116988888Y-125046104D01*
X116831289Y-124916766D01*
X116651485Y-124820659D01*
X116456387Y-124761476D01*
X116304330Y-124746500D01*
X116304320Y-124746500D01*
X116253492Y-124741494D01*
X116202664Y-124746500D01*
X95973211Y-124746500D01*
X96015937Y-124703774D01*
X96129205Y-124534256D01*
X96207226Y-124345898D01*
X96247000Y-124145939D01*
X96247000Y-123942061D01*
X96207226Y-123742102D01*
X96129205Y-123553744D01*
X96116013Y-123534000D01*
X107112678Y-123534000D01*
X107150000Y-123537676D01*
X107187322Y-123534000D01*
X107187333Y-123534000D01*
X107298986Y-123523003D01*
X107442247Y-123479546D01*
X107574276Y-123408974D01*
X107690001Y-123314001D01*
X107713804Y-123284997D01*
X111253802Y-119745000D01*
X111315939Y-119745000D01*
X111515898Y-119705226D01*
X111704256Y-119627205D01*
X111873774Y-119513937D01*
X112017937Y-119369774D01*
X112131205Y-119200256D01*
X112209226Y-119011898D01*
X112249000Y-118811939D01*
X112249000Y-118608061D01*
X112209226Y-118408102D01*
X112131205Y-118219744D01*
X112118013Y-118200000D01*
X113812289Y-118200000D01*
X113856226Y-118243937D01*
X114025744Y-118357205D01*
X114214102Y-118435226D01*
X114414061Y-118475000D01*
X114617939Y-118475000D01*
X114817898Y-118435226D01*
X115006256Y-118357205D01*
X115175774Y-118243937D01*
X115319937Y-118099774D01*
X115433205Y-117930256D01*
X115511226Y-117741898D01*
X115551000Y-117541939D01*
X115551000Y-117338061D01*
X115511226Y-117138102D01*
X115433205Y-116949744D01*
X115336490Y-116805000D01*
X115433205Y-116660256D01*
X115511226Y-116471898D01*
X115551000Y-116271939D01*
X115551000Y-116068061D01*
X115544424Y-116035000D01*
X134253290Y-116035000D01*
X137949000Y-119730711D01*
X137949001Y-122450056D01*
X137949000Y-122450061D01*
X137949000Y-122501163D01*
X137949001Y-129308056D01*
X137949000Y-129308061D01*
X137949000Y-129359163D01*
X137949001Y-138198056D01*
X137949000Y-138198061D01*
X137949000Y-138249163D01*
X137949001Y-143532056D01*
X137949000Y-143532061D01*
X137949000Y-143735939D01*
X137958971Y-143786067D01*
X137963977Y-143836895D01*
X137978803Y-143885768D01*
X137988774Y-143935898D01*
X138008335Y-143983122D01*
X138023160Y-144031993D01*
X138047235Y-144077034D01*
X138066795Y-144124256D01*
X138095191Y-144166753D01*
X138119267Y-144211797D01*
X138151668Y-144251278D01*
X138180063Y-144293774D01*
X138216203Y-144329914D01*
X138248605Y-144369396D01*
X138288087Y-144401798D01*
X138324226Y-144437937D01*
X138366721Y-144466331D01*
X138406204Y-144498734D01*
X138451250Y-144522812D01*
X138493744Y-144551205D01*
X138540962Y-144570763D01*
X138586008Y-144594841D01*
X138634884Y-144609668D01*
X138682102Y-144629226D01*
X138732226Y-144639196D01*
X138781106Y-144654024D01*
X138831942Y-144659031D01*
X138882061Y-144669000D01*
X138933162Y-144669000D01*
X138984000Y-144674007D01*
X139034838Y-144669000D01*
X139085939Y-144669000D01*
X139136057Y-144659031D01*
X139186895Y-144654024D01*
X139235777Y-144639196D01*
X139285898Y-144629226D01*
X139333113Y-144609669D01*
X139381993Y-144594841D01*
X139427042Y-144570762D01*
X139474256Y-144551205D01*
X139516746Y-144522814D01*
X139561797Y-144498734D01*
X139601284Y-144466328D01*
X139643774Y-144437937D01*
X139679908Y-144401803D01*
X139719396Y-144369396D01*
X139751803Y-144329908D01*
X139787937Y-144293774D01*
X139816328Y-144251284D01*
X139848734Y-144211797D01*
X139872814Y-144166746D01*
X139901205Y-144124256D01*
X139920762Y-144077042D01*
X139944841Y-144031993D01*
X139959669Y-143983113D01*
X139979226Y-143935898D01*
X139989196Y-143885777D01*
X140004024Y-143836895D01*
X140009031Y-143786057D01*
X140019000Y-143735939D01*
X140019000Y-137869721D01*
X143369000Y-137869721D01*
X143369000Y-138290279D01*
X143451047Y-138702756D01*
X143611988Y-139091302D01*
X143845637Y-139440983D01*
X144143017Y-139738363D01*
X144492698Y-139972012D01*
X144881244Y-140132953D01*
X145293721Y-140215000D01*
X145714279Y-140215000D01*
X146126756Y-140132953D01*
X146515302Y-139972012D01*
X146864983Y-139738363D01*
X147162363Y-139440983D01*
X147396012Y-139091302D01*
X147556953Y-138702756D01*
X147639000Y-138290279D01*
X147639000Y-137869721D01*
X147556953Y-137457244D01*
X147396012Y-137068698D01*
X147162363Y-136719017D01*
X146864983Y-136421637D01*
X146515302Y-136187988D01*
X146126756Y-136027047D01*
X145714279Y-135945000D01*
X145293721Y-135945000D01*
X144881244Y-136027047D01*
X144492698Y-136187988D01*
X144143017Y-136421637D01*
X143845637Y-136719017D01*
X143611988Y-137068698D01*
X143451047Y-137457244D01*
X143369000Y-137869721D01*
X140019000Y-137869721D01*
X140019000Y-131500000D01*
X143365928Y-131500000D01*
X143365928Y-134500000D01*
X143378188Y-134624482D01*
X143414498Y-134744180D01*
X143473463Y-134854494D01*
X143552815Y-134951185D01*
X143649506Y-135030537D01*
X143759820Y-135089502D01*
X143879518Y-135125812D01*
X144004000Y-135138072D01*
X147004000Y-135138072D01*
X147128482Y-135125812D01*
X147248180Y-135089502D01*
X147358494Y-135030537D01*
X147455185Y-134951185D01*
X147534537Y-134854494D01*
X147593502Y-134744180D01*
X147629812Y-134624482D01*
X147642072Y-134500000D01*
X147642072Y-131500000D01*
X147629812Y-131375518D01*
X147593502Y-131255820D01*
X147534537Y-131145506D01*
X147455185Y-131048815D01*
X147358494Y-130969463D01*
X147248180Y-130910498D01*
X147128482Y-130874188D01*
X147004000Y-130861928D01*
X144004000Y-130861928D01*
X143879518Y-130874188D01*
X143759820Y-130910498D01*
X143649506Y-130969463D01*
X143552815Y-131048815D01*
X143473463Y-131145506D01*
X143414498Y-131255820D01*
X143378188Y-131375518D01*
X143365928Y-131500000D01*
X140019000Y-131500000D01*
X140019000Y-124869721D01*
X143453000Y-124869721D01*
X143453000Y-125290279D01*
X143535047Y-125702756D01*
X143695988Y-126091302D01*
X143929637Y-126440983D01*
X144227017Y-126738363D01*
X144576698Y-126972012D01*
X144965244Y-127132953D01*
X145377721Y-127215000D01*
X145798279Y-127215000D01*
X146210756Y-127132953D01*
X146599302Y-126972012D01*
X146948983Y-126738363D01*
X147246363Y-126440983D01*
X147480012Y-126091302D01*
X147640953Y-125702756D01*
X147723000Y-125290279D01*
X147723000Y-124869721D01*
X147640953Y-124457244D01*
X147480012Y-124068698D01*
X147246363Y-123719017D01*
X146948983Y-123421637D01*
X146599302Y-123187988D01*
X146210756Y-123027047D01*
X145798279Y-122945000D01*
X145377721Y-122945000D01*
X144965244Y-123027047D01*
X144576698Y-123187988D01*
X144227017Y-123421637D01*
X143929637Y-123719017D01*
X143695988Y-124068698D01*
X143535047Y-124457244D01*
X143453000Y-124869721D01*
X140019000Y-124869721D01*
X140019000Y-119352835D01*
X140024007Y-119302000D01*
X140017481Y-119235744D01*
X140004024Y-119099105D01*
X139944841Y-118904007D01*
X139861586Y-118748247D01*
X139848734Y-118724202D01*
X139751803Y-118606092D01*
X139719396Y-118566604D01*
X139679908Y-118534197D01*
X139645711Y-118500000D01*
X143449928Y-118500000D01*
X143449928Y-121500000D01*
X143462188Y-121624482D01*
X143498498Y-121744180D01*
X143557463Y-121854494D01*
X143636815Y-121951185D01*
X143733506Y-122030537D01*
X143843820Y-122089502D01*
X143963518Y-122125812D01*
X144088000Y-122138072D01*
X147088000Y-122138072D01*
X147212482Y-122125812D01*
X147332180Y-122089502D01*
X147442494Y-122030537D01*
X147539185Y-121951185D01*
X147618537Y-121854494D01*
X147677502Y-121744180D01*
X147713812Y-121624482D01*
X147726072Y-121500000D01*
X147726072Y-118500000D01*
X147713812Y-118375518D01*
X147677502Y-118255820D01*
X147618537Y-118145506D01*
X147539185Y-118048815D01*
X147442494Y-117969463D01*
X147332180Y-117910498D01*
X147212482Y-117874188D01*
X147088000Y-117861928D01*
X144088000Y-117861928D01*
X143963518Y-117874188D01*
X143843820Y-117910498D01*
X143733506Y-117969463D01*
X143636815Y-118048815D01*
X143557463Y-118145506D01*
X143498498Y-118255820D01*
X143462188Y-118375518D01*
X143449928Y-118500000D01*
X139645711Y-118500000D01*
X135449807Y-114304097D01*
X135417396Y-114264604D01*
X135259797Y-114135266D01*
X135079993Y-114039159D01*
X134884895Y-113979976D01*
X134732838Y-113965000D01*
X134732828Y-113965000D01*
X134682000Y-113959994D01*
X134631172Y-113965000D01*
X111082107Y-113965000D01*
X111184475Y-113862632D01*
X111346990Y-113619411D01*
X111458932Y-113349158D01*
X111516000Y-113062260D01*
X111516000Y-112769740D01*
X111458932Y-112482842D01*
X111346990Y-112212589D01*
X111184475Y-111969368D01*
X110977632Y-111762525D01*
X110734411Y-111600010D01*
X110464158Y-111488068D01*
X110177260Y-111431000D01*
X109884740Y-111431000D01*
X109597842Y-111488068D01*
X109327589Y-111600010D01*
X109084368Y-111762525D01*
X108877525Y-111969368D01*
X108768584Y-112132410D01*
X108559397Y-112067208D01*
X107710605Y-112916000D01*
X107724748Y-112930143D01*
X107545143Y-113109748D01*
X107531000Y-113095605D01*
X107516858Y-113109748D01*
X107337253Y-112930143D01*
X107351395Y-112916000D01*
X106502603Y-112067208D01*
X106293416Y-112132410D01*
X106184475Y-111969368D01*
X106102710Y-111887603D01*
X106682208Y-111887603D01*
X107531000Y-112736395D01*
X108379792Y-111887603D01*
X108302157Y-111638528D01*
X108038117Y-111512629D01*
X107754589Y-111440661D01*
X107462469Y-111425389D01*
X107172981Y-111467401D01*
X106897253Y-111565081D01*
X106759843Y-111638528D01*
X106682208Y-111887603D01*
X106102710Y-111887603D01*
X105977632Y-111762525D01*
X105734411Y-111600010D01*
X105464158Y-111488068D01*
X105177260Y-111431000D01*
X104884740Y-111431000D01*
X104597842Y-111488068D01*
X104327589Y-111600010D01*
X104084368Y-111762525D01*
X103877525Y-111969368D01*
X103715010Y-112212589D01*
X103603068Y-112482842D01*
X103546000Y-112769740D01*
X103546000Y-113062260D01*
X103603068Y-113349158D01*
X103715010Y-113619411D01*
X103877525Y-113862632D01*
X103979893Y-113965000D01*
X81802061Y-113965000D01*
X81751943Y-113974969D01*
X81701105Y-113979976D01*
X81652223Y-113994804D01*
X81602102Y-114004774D01*
X81554887Y-114024331D01*
X81506007Y-114039159D01*
X81460958Y-114063238D01*
X81413744Y-114082795D01*
X81371254Y-114111186D01*
X81326203Y-114135266D01*
X81286716Y-114167672D01*
X81244226Y-114196063D01*
X81208092Y-114232197D01*
X81168604Y-114264604D01*
X81136197Y-114304092D01*
X81100063Y-114340226D01*
X81071672Y-114382716D01*
X81039266Y-114422203D01*
X81015186Y-114467254D01*
X80986795Y-114509744D01*
X80967238Y-114556958D01*
X80943159Y-114602007D01*
X80928331Y-114650887D01*
X80908774Y-114698102D01*
X80898804Y-114748223D01*
X80883976Y-114797105D01*
X80878969Y-114847943D01*
X80869000Y-114898061D01*
X80869000Y-114949162D01*
X80863993Y-115000000D01*
X80869000Y-115050838D01*
X80869000Y-115101939D01*
X80878969Y-115152057D01*
X80883976Y-115202895D01*
X80898804Y-115251777D01*
X80908774Y-115301898D01*
X80928331Y-115349113D01*
X80943159Y-115397993D01*
X80967238Y-115443042D01*
X80986795Y-115490256D01*
X81015186Y-115532746D01*
X81039266Y-115577797D01*
X81071672Y-115617284D01*
X81100063Y-115659774D01*
X81136196Y-115695907D01*
X81168604Y-115735396D01*
X81208092Y-115767803D01*
X81244226Y-115803937D01*
X81286716Y-115832328D01*
X81326203Y-115864734D01*
X81371254Y-115888814D01*
X81413744Y-115917205D01*
X81460958Y-115936762D01*
X81506007Y-115960841D01*
X81554887Y-115975669D01*
X81602102Y-115995226D01*
X81652223Y-116005196D01*
X81701105Y-116020024D01*
X81751943Y-116025031D01*
X81802061Y-116035000D01*
X110528198Y-116035000D01*
X106835199Y-119728000D01*
X82746320Y-119728000D01*
X82708997Y-119724324D01*
X82671674Y-119728000D01*
X82671665Y-119728000D01*
X82560012Y-119738997D01*
X82416751Y-119782454D01*
X82284722Y-119853026D01*
X82284720Y-119853027D01*
X82284721Y-119853027D01*
X82197994Y-119924201D01*
X82197990Y-119924205D01*
X82168997Y-119947999D01*
X82145203Y-119976992D01*
X78895199Y-123226998D01*
X71684324Y-123226998D01*
X71647001Y-123223322D01*
X71609678Y-123226998D01*
X71609669Y-123226998D01*
X71498016Y-123237995D01*
X71354755Y-123281452D01*
X71222726Y-123352024D01*
X71107001Y-123446997D01*
X71083203Y-123475995D01*
X70280199Y-124279000D01*
X70218061Y-124279000D01*
X70018102Y-124318774D01*
X69829744Y-124396795D01*
X69660226Y-124510063D01*
X69516063Y-124654226D01*
X69402795Y-124823744D01*
X69324774Y-125012102D01*
X69285000Y-125212061D01*
X69285000Y-125415939D01*
X69324774Y-125615898D01*
X69402795Y-125804256D01*
X69516063Y-125973774D01*
X69660226Y-126117937D01*
X69829744Y-126231205D01*
X70018102Y-126309226D01*
X70218061Y-126349000D01*
X70421939Y-126349000D01*
X70621898Y-126309226D01*
X70810256Y-126231205D01*
X70979774Y-126117937D01*
X71123937Y-125973774D01*
X71237205Y-125804256D01*
X71315226Y-125615898D01*
X71355000Y-125415939D01*
X71355000Y-125353801D01*
X71961804Y-124746998D01*
X79172678Y-124746998D01*
X79210000Y-124750674D01*
X79247322Y-124746998D01*
X79247333Y-124746998D01*
X79358986Y-124736001D01*
X79502247Y-124692544D01*
X79634276Y-124621972D01*
X79750001Y-124526999D01*
X79773804Y-124497995D01*
X82289045Y-121982756D01*
X82360226Y-122053937D01*
X82529744Y-122167205D01*
X82718102Y-122245226D01*
X82918061Y-122285000D01*
X82984612Y-122285000D01*
X83046722Y-122335972D01*
X83178751Y-122406544D01*
X83322012Y-122450001D01*
X83433665Y-122460998D01*
X83433674Y-122460998D01*
X83470997Y-122464674D01*
X83508320Y-122460998D01*
X85814200Y-122460998D01*
X77371199Y-130904000D01*
X72293711Y-130904000D01*
X72249774Y-130860063D01*
X72080256Y-130746795D01*
X71891898Y-130668774D01*
X71691939Y-130629000D01*
X71488061Y-130629000D01*
X71288102Y-130668774D01*
X71099744Y-130746795D01*
X70930226Y-130860063D01*
X70786063Y-131004226D01*
X70672795Y-131173744D01*
X70594774Y-131362102D01*
X70555000Y-131562061D01*
X70555000Y-131765939D01*
X70594774Y-131965898D01*
X70672795Y-132154256D01*
X70786063Y-132323774D01*
X70887667Y-132425378D01*
X70780102Y-132446774D01*
X70591744Y-132524795D01*
X70468715Y-132607000D01*
X57203868Y-132607000D01*
X55153000Y-130556133D01*
X55153000Y-128515285D01*
X55235205Y-128392256D01*
X55313226Y-128203898D01*
X55353000Y-128003939D01*
X55353000Y-127800061D01*
X55322643Y-127647444D01*
X58834201Y-131159003D01*
X58857999Y-131188001D01*
X58886997Y-131211799D01*
X58973723Y-131282974D01*
X59105753Y-131353546D01*
X59249014Y-131397003D01*
X59360667Y-131408000D01*
X59360677Y-131408000D01*
X59398000Y-131411676D01*
X59435323Y-131408000D01*
X65298289Y-131408000D01*
X65342226Y-131451937D01*
X65511744Y-131565205D01*
X65700102Y-131643226D01*
X65900061Y-131683000D01*
X66103939Y-131683000D01*
X66303898Y-131643226D01*
X66492256Y-131565205D01*
X66661774Y-131451937D01*
X66805937Y-131307774D01*
X66919205Y-131138256D01*
X66997226Y-130949898D01*
X67037000Y-130749939D01*
X67037000Y-130546061D01*
X66997226Y-130346102D01*
X66919205Y-130157744D01*
X66805937Y-129988226D01*
X66661774Y-129844063D01*
X66492256Y-129730795D01*
X66303898Y-129652774D01*
X66103939Y-129613000D01*
X65900061Y-129613000D01*
X65700102Y-129652774D01*
X65511744Y-129730795D01*
X65342226Y-129844063D01*
X65298289Y-129888000D01*
X59712802Y-129888000D01*
X56094000Y-126269199D01*
X56094000Y-121450000D01*
X58611928Y-121450000D01*
X58624188Y-121574482D01*
X58660498Y-121694180D01*
X58719463Y-121804494D01*
X58798815Y-121901185D01*
X58895506Y-121980537D01*
X59005820Y-122039502D01*
X59125518Y-122075812D01*
X59250000Y-122088072D01*
X60714250Y-122085000D01*
X60873000Y-121926250D01*
X60873000Y-119827000D01*
X61127000Y-119827000D01*
X61127000Y-121926250D01*
X61285750Y-122085000D01*
X62750000Y-122088072D01*
X62874482Y-122075812D01*
X62994180Y-122039502D01*
X63104494Y-121980537D01*
X63201185Y-121901185D01*
X63280537Y-121804494D01*
X63339502Y-121694180D01*
X63375812Y-121574482D01*
X63388072Y-121450000D01*
X63385000Y-119985750D01*
X63226250Y-119827000D01*
X61127000Y-119827000D01*
X60873000Y-119827000D01*
X58773750Y-119827000D01*
X58615000Y-119985750D01*
X58611928Y-121450000D01*
X56094000Y-121450000D01*
X56094000Y-117238267D01*
X56145506Y-117280537D01*
X56255820Y-117339502D01*
X56375518Y-117375812D01*
X56500000Y-117388072D01*
X57714250Y-117385000D01*
X57873000Y-117226250D01*
X57873000Y-115127000D01*
X58127000Y-115127000D01*
X58127000Y-117226250D01*
X58285750Y-117385000D01*
X58956805Y-117386698D01*
X58895506Y-117419463D01*
X58798815Y-117498815D01*
X58719463Y-117595506D01*
X58660498Y-117705820D01*
X58624188Y-117825518D01*
X58611928Y-117950000D01*
X58615000Y-119414250D01*
X58773750Y-119573000D01*
X60873000Y-119573000D01*
X60873000Y-117473750D01*
X61127000Y-117473750D01*
X61127000Y-119573000D01*
X63226250Y-119573000D01*
X63385000Y-119414250D01*
X63388072Y-117950000D01*
X63375812Y-117825518D01*
X63339502Y-117705820D01*
X63280537Y-117595506D01*
X63201185Y-117498815D01*
X63104494Y-117419463D01*
X63045767Y-117388072D01*
X65750000Y-117388072D01*
X65874482Y-117375812D01*
X65994180Y-117339502D01*
X66104494Y-117280537D01*
X66201185Y-117201185D01*
X66280537Y-117104494D01*
X66339502Y-116994180D01*
X66375812Y-116874482D01*
X66388072Y-116750000D01*
X66388072Y-113250000D01*
X66375812Y-113125518D01*
X66339502Y-113005820D01*
X66280537Y-112895506D01*
X66201185Y-112798815D01*
X66104494Y-112719463D01*
X65994180Y-112660498D01*
X65874482Y-112624188D01*
X65750000Y-112611928D01*
X62250000Y-112611928D01*
X62125518Y-112624188D01*
X62005820Y-112660498D01*
X61895506Y-112719463D01*
X61798815Y-112798815D01*
X61719463Y-112895506D01*
X61660498Y-113005820D01*
X61624188Y-113125518D01*
X61611928Y-113250000D01*
X61611928Y-116750000D01*
X61624188Y-116874482D01*
X61660498Y-116994180D01*
X61719463Y-117104494D01*
X61798815Y-117201185D01*
X61895506Y-117280537D01*
X61957345Y-117313591D01*
X61285750Y-117315000D01*
X61127000Y-117473750D01*
X60873000Y-117473750D01*
X60714250Y-117315000D01*
X59793633Y-117313069D01*
X59854494Y-117280537D01*
X59951185Y-117201185D01*
X60030537Y-117104494D01*
X60089502Y-116994180D01*
X60125812Y-116874482D01*
X60138072Y-116750000D01*
X60135000Y-115285750D01*
X59976250Y-115127000D01*
X58127000Y-115127000D01*
X57873000Y-115127000D01*
X57853000Y-115127000D01*
X57853000Y-114873000D01*
X57873000Y-114873000D01*
X57873000Y-112773750D01*
X58127000Y-112773750D01*
X58127000Y-114873000D01*
X59976250Y-114873000D01*
X60135000Y-114714250D01*
X60138072Y-113250000D01*
X60125812Y-113125518D01*
X60089502Y-113005820D01*
X60030537Y-112895506D01*
X59951185Y-112798815D01*
X59854494Y-112719463D01*
X59744180Y-112660498D01*
X59624482Y-112624188D01*
X59500000Y-112611928D01*
X58285750Y-112615000D01*
X58127000Y-112773750D01*
X57873000Y-112773750D01*
X57714250Y-112615000D01*
X56500000Y-112611928D01*
X56375518Y-112624188D01*
X56255820Y-112660498D01*
X56145506Y-112719463D01*
X56094000Y-112761733D01*
X56094000Y-111392000D01*
X66762324Y-111392000D01*
X66766000Y-111429323D01*
X66766001Y-118418668D01*
X66762324Y-118456000D01*
X66766001Y-118493333D01*
X66776998Y-118604986D01*
X66777931Y-118608061D01*
X66820454Y-118748246D01*
X66891026Y-118880276D01*
X66961379Y-118966000D01*
X66986000Y-118996001D01*
X67014998Y-119019799D01*
X68232201Y-120237003D01*
X68255999Y-120266001D01*
X68371724Y-120360974D01*
X68503753Y-120431546D01*
X68647014Y-120475003D01*
X68758667Y-120486000D01*
X68758676Y-120486000D01*
X68795999Y-120489676D01*
X68833322Y-120486000D01*
X76220289Y-120486000D01*
X76264226Y-120529937D01*
X76433744Y-120643205D01*
X76622102Y-120721226D01*
X76822061Y-120761000D01*
X77025939Y-120761000D01*
X77225898Y-120721226D01*
X77414256Y-120643205D01*
X77583774Y-120529937D01*
X77727937Y-120385774D01*
X77841205Y-120216256D01*
X77919226Y-120027898D01*
X77959000Y-119827939D01*
X77959000Y-119624061D01*
X77919226Y-119424102D01*
X77841205Y-119235744D01*
X77727937Y-119066226D01*
X77583774Y-118922063D01*
X77414256Y-118808795D01*
X77225898Y-118730774D01*
X77025939Y-118691000D01*
X76822061Y-118691000D01*
X76622102Y-118730774D01*
X76433744Y-118808795D01*
X76264226Y-118922063D01*
X76220289Y-118966000D01*
X69110802Y-118966000D01*
X68286000Y-118141199D01*
X68286000Y-111706801D01*
X69872802Y-110120000D01*
X96717000Y-110120000D01*
X96717000Y-110223939D01*
X96756774Y-110423898D01*
X96834795Y-110612256D01*
X96948063Y-110781774D01*
X97092226Y-110925937D01*
X97261744Y-111039205D01*
X97450102Y-111117226D01*
X97650061Y-111157000D01*
X97853939Y-111157000D01*
X98053898Y-111117226D01*
X98242256Y-111039205D01*
X98411774Y-110925937D01*
X98455711Y-110882000D01*
X111280199Y-110882000D01*
X111449000Y-111050801D01*
X111449000Y-111112939D01*
X111488774Y-111312898D01*
X111566795Y-111501256D01*
X111680063Y-111670774D01*
X111824226Y-111814937D01*
X111993744Y-111928205D01*
X112182102Y-112006226D01*
X112382061Y-112046000D01*
X112585939Y-112046000D01*
X112785898Y-112006226D01*
X112974256Y-111928205D01*
X113143774Y-111814937D01*
X113287937Y-111670774D01*
X113401205Y-111501256D01*
X113479226Y-111312898D01*
X113519000Y-111112939D01*
X113519000Y-110909061D01*
X113483181Y-110728986D01*
X114784203Y-112030008D01*
X114807997Y-112059001D01*
X114836990Y-112082795D01*
X114836994Y-112082799D01*
X114854964Y-112097546D01*
X114923722Y-112153974D01*
X115055751Y-112224546D01*
X115199012Y-112268003D01*
X115310665Y-112279000D01*
X115310674Y-112279000D01*
X115347997Y-112282676D01*
X115385320Y-112279000D01*
X137719678Y-112279000D01*
X137757000Y-112282676D01*
X137794322Y-112279000D01*
X137794333Y-112279000D01*
X137905986Y-112268003D01*
X138049247Y-112224546D01*
X138145681Y-112173000D01*
X138239939Y-112173000D01*
X138439898Y-112133226D01*
X138628256Y-112055205D01*
X138797774Y-111941937D01*
X138941937Y-111797774D01*
X139055205Y-111628256D01*
X139133226Y-111439898D01*
X139173000Y-111239939D01*
X139173000Y-111036061D01*
X139133226Y-110836102D01*
X139055205Y-110647744D01*
X138941937Y-110478226D01*
X138797774Y-110334063D01*
X138628256Y-110220795D01*
X138439898Y-110142774D01*
X138325404Y-110120000D01*
X139212289Y-110120000D01*
X139256226Y-110163937D01*
X139425744Y-110277205D01*
X139614102Y-110355226D01*
X139814061Y-110395000D01*
X140017939Y-110395000D01*
X140217898Y-110355226D01*
X140406256Y-110277205D01*
X140575774Y-110163937D01*
X140719937Y-110019774D01*
X140833205Y-109850256D01*
X140911226Y-109661898D01*
X140916974Y-109633000D01*
X141033939Y-109633000D01*
X141233898Y-109593226D01*
X141422256Y-109515205D01*
X141591774Y-109401937D01*
X141735937Y-109257774D01*
X141849205Y-109088256D01*
X141927226Y-108899898D01*
X141967000Y-108699939D01*
X141967000Y-108496061D01*
X141964823Y-108485114D01*
X141991276Y-108470974D01*
X142107001Y-108376001D01*
X142130804Y-108346997D01*
X147291003Y-103186799D01*
X147320001Y-103163001D01*
X147414974Y-103047276D01*
X147485546Y-102915247D01*
X147529003Y-102771986D01*
X147540000Y-102660333D01*
X147540000Y-102660324D01*
X147543676Y-102623001D01*
X147540000Y-102585678D01*
X147540000Y-88278178D01*
X147726632Y-88153475D01*
X147933475Y-87946632D01*
X148095990Y-87703411D01*
X148207932Y-87433158D01*
X148265000Y-87146260D01*
X148265000Y-86853740D01*
X148207932Y-86566842D01*
X148095990Y-86296589D01*
X147933475Y-86053368D01*
X147726632Y-85846525D01*
X147483411Y-85684010D01*
X147213158Y-85572068D01*
X146926260Y-85515000D01*
X146633740Y-85515000D01*
X146346842Y-85572068D01*
X146076589Y-85684010D01*
X145833368Y-85846525D01*
X145626525Y-86053368D01*
X145510000Y-86227760D01*
X145393475Y-86053368D01*
X145186632Y-85846525D01*
X144943411Y-85684010D01*
X144673158Y-85572068D01*
X144386260Y-85515000D01*
X144093740Y-85515000D01*
X143806842Y-85572068D01*
X143536589Y-85684010D01*
X143293368Y-85846525D01*
X143086525Y-86053368D01*
X142970000Y-86227760D01*
X142853475Y-86053368D01*
X142646632Y-85846525D01*
X142403411Y-85684010D01*
X142133158Y-85572068D01*
X141846260Y-85515000D01*
X141553740Y-85515000D01*
X141266842Y-85572068D01*
X140996589Y-85684010D01*
X140753368Y-85846525D01*
X140546525Y-86053368D01*
X140430000Y-86227760D01*
X140313475Y-86053368D01*
X140106632Y-85846525D01*
X139863411Y-85684010D01*
X139593158Y-85572068D01*
X139306260Y-85515000D01*
X139013740Y-85515000D01*
X138726842Y-85572068D01*
X138456589Y-85684010D01*
X138213368Y-85846525D01*
X138006525Y-86053368D01*
X137890000Y-86227760D01*
X137773475Y-86053368D01*
X137566632Y-85846525D01*
X137323411Y-85684010D01*
X137053158Y-85572068D01*
X136766260Y-85515000D01*
X136473740Y-85515000D01*
X136186842Y-85572068D01*
X135916589Y-85684010D01*
X135673368Y-85846525D01*
X135466525Y-86053368D01*
X135350000Y-86227760D01*
X135233475Y-86053368D01*
X135026632Y-85846525D01*
X134783411Y-85684010D01*
X134513158Y-85572068D01*
X134226260Y-85515000D01*
X133933740Y-85515000D01*
X133646842Y-85572068D01*
X133376589Y-85684010D01*
X133133368Y-85846525D01*
X132926525Y-86053368D01*
X132810000Y-86227760D01*
X132693475Y-86053368D01*
X132486632Y-85846525D01*
X132243411Y-85684010D01*
X131973158Y-85572068D01*
X131686260Y-85515000D01*
X131393740Y-85515000D01*
X131106842Y-85572068D01*
X130836589Y-85684010D01*
X130593368Y-85846525D01*
X130461513Y-85978380D01*
X130439502Y-85905820D01*
X130380537Y-85795506D01*
X130301185Y-85698815D01*
X130204494Y-85619463D01*
X130094180Y-85560498D01*
X129974482Y-85524188D01*
X129850000Y-85511928D01*
X128150000Y-85511928D01*
X128025518Y-85524188D01*
X127905820Y-85560498D01*
X127795506Y-85619463D01*
X127698815Y-85698815D01*
X127619463Y-85795506D01*
X127560498Y-85905820D01*
X127524188Y-86025518D01*
X127511928Y-86150000D01*
X127511928Y-87850000D01*
X127524188Y-87974482D01*
X127560498Y-88094180D01*
X127619463Y-88204494D01*
X127698815Y-88301185D01*
X127795506Y-88380537D01*
X127905820Y-88439502D01*
X128025518Y-88475812D01*
X128150000Y-88488072D01*
X128240000Y-88488072D01*
X128240001Y-94946427D01*
X126325000Y-96861428D01*
X126325000Y-84909801D01*
X127784802Y-83450000D01*
X143334759Y-83450000D01*
X143372081Y-83453676D01*
X143409403Y-83450000D01*
X143409414Y-83450000D01*
X143521067Y-83439003D01*
X143664328Y-83395546D01*
X143796357Y-83324974D01*
X143912082Y-83230001D01*
X143935885Y-83200997D01*
X147371003Y-79765880D01*
X147400001Y-79742082D01*
X147494974Y-79626357D01*
X147565546Y-79494328D01*
X147609003Y-79351067D01*
X147615913Y-79280909D01*
X147806632Y-79153475D01*
X148013475Y-78946632D01*
X148175990Y-78703411D01*
X148287932Y-78433158D01*
X148345000Y-78146260D01*
X148345000Y-77853740D01*
X148287932Y-77566842D01*
X148175990Y-77296589D01*
X148013475Y-77053368D01*
X147806632Y-76846525D01*
X147563411Y-76684010D01*
X147293158Y-76572068D01*
X147006260Y-76515000D01*
X146713740Y-76515000D01*
X146426842Y-76572068D01*
X146156589Y-76684010D01*
X145913368Y-76846525D01*
X145706525Y-77053368D01*
X145590000Y-77227760D01*
X145473475Y-77053368D01*
X145266632Y-76846525D01*
X145023411Y-76684010D01*
X144753158Y-76572068D01*
X144466260Y-76515000D01*
X144173740Y-76515000D01*
X143886842Y-76572068D01*
X143616589Y-76684010D01*
X143373368Y-76846525D01*
X143166525Y-77053368D01*
X143050000Y-77227760D01*
X142933475Y-77053368D01*
X142726632Y-76846525D01*
X142483411Y-76684010D01*
X142213158Y-76572068D01*
X141926260Y-76515000D01*
X141633740Y-76515000D01*
X141346842Y-76572068D01*
X141076589Y-76684010D01*
X140833368Y-76846525D01*
X140626525Y-77053368D01*
X140510000Y-77227760D01*
X140393475Y-77053368D01*
X140186632Y-76846525D01*
X139943411Y-76684010D01*
X139673158Y-76572068D01*
X139386260Y-76515000D01*
X139093740Y-76515000D01*
X138806842Y-76572068D01*
X138536589Y-76684010D01*
X138293368Y-76846525D01*
X138086525Y-77053368D01*
X137970000Y-77227760D01*
X137853475Y-77053368D01*
X137646632Y-76846525D01*
X137403411Y-76684010D01*
X137133158Y-76572068D01*
X136846260Y-76515000D01*
X136553740Y-76515000D01*
X136266842Y-76572068D01*
X135996589Y-76684010D01*
X135753368Y-76846525D01*
X135546525Y-77053368D01*
X135430000Y-77227760D01*
X135313475Y-77053368D01*
X135106632Y-76846525D01*
X134863411Y-76684010D01*
X134593158Y-76572068D01*
X134306260Y-76515000D01*
X134013740Y-76515000D01*
X133726842Y-76572068D01*
X133456589Y-76684010D01*
X133213368Y-76846525D01*
X133006525Y-77053368D01*
X132884805Y-77235534D01*
X132815178Y-77118645D01*
X132620269Y-76902412D01*
X132386920Y-76728359D01*
X132124099Y-76603175D01*
X131976890Y-76558524D01*
X131747000Y-76679845D01*
X131747000Y-77873000D01*
X131767000Y-77873000D01*
X131767000Y-78127000D01*
X131747000Y-78127000D01*
X131747000Y-78147000D01*
X131493000Y-78147000D01*
X131493000Y-78127000D01*
X131473000Y-78127000D01*
X131473000Y-77873000D01*
X131493000Y-77873000D01*
X131493000Y-76679845D01*
X131263110Y-76558524D01*
X131115901Y-76603175D01*
X130853080Y-76728359D01*
X130619731Y-76902412D01*
X130424822Y-77118645D01*
X130355195Y-77235534D01*
X130233475Y-77053368D01*
X130026632Y-76846525D01*
X129783411Y-76684010D01*
X129513158Y-76572068D01*
X129226260Y-76515000D01*
X128933740Y-76515000D01*
X128646842Y-76572068D01*
X128376589Y-76684010D01*
X128133368Y-76846525D01*
X127926525Y-77053368D01*
X127810000Y-77227760D01*
X127693475Y-77053368D01*
X127486632Y-76846525D01*
X127300000Y-76721822D01*
X127300000Y-74915252D01*
X127303677Y-74877919D01*
X127289003Y-74728933D01*
X127245546Y-74585672D01*
X127174974Y-74453643D01*
X127080001Y-74337918D01*
X127051004Y-74314121D01*
X119765885Y-67029003D01*
X119742082Y-66999999D01*
X119626357Y-66905026D01*
X119494328Y-66834454D01*
X119351067Y-66790997D01*
X119280909Y-66784087D01*
X119153475Y-66593368D01*
X119048602Y-66488495D01*
X143015000Y-66488495D01*
X143015000Y-66879505D01*
X143091282Y-67263003D01*
X143240915Y-67624250D01*
X143458149Y-67949364D01*
X143734636Y-68225851D01*
X144059750Y-68443085D01*
X144420997Y-68592718D01*
X144804495Y-68669000D01*
X145195505Y-68669000D01*
X145579003Y-68592718D01*
X145940250Y-68443085D01*
X146265364Y-68225851D01*
X146541851Y-67949364D01*
X146759085Y-67624250D01*
X146908718Y-67263003D01*
X146985000Y-66879505D01*
X146985000Y-66488495D01*
X146908718Y-66104997D01*
X146759085Y-65743750D01*
X146541851Y-65418636D01*
X146265364Y-65142149D01*
X145940250Y-64924915D01*
X145579003Y-64775282D01*
X145195505Y-64699000D01*
X144804495Y-64699000D01*
X144420997Y-64775282D01*
X144059750Y-64924915D01*
X143734636Y-65142149D01*
X143458149Y-65418636D01*
X143240915Y-65743750D01*
X143091282Y-66104997D01*
X143015000Y-66488495D01*
X119048602Y-66488495D01*
X119021620Y-66461513D01*
X119094180Y-66439502D01*
X119204494Y-66380537D01*
X119301185Y-66301185D01*
X119380537Y-66204494D01*
X119439502Y-66094180D01*
X119475812Y-65974482D01*
X119488072Y-65850000D01*
X119488072Y-64150000D01*
X119475812Y-64025518D01*
X119439502Y-63905820D01*
X119380537Y-63795506D01*
X119301185Y-63698815D01*
X119204494Y-63619463D01*
X119094180Y-63560498D01*
X118974482Y-63524188D01*
X118850000Y-63511928D01*
X117150000Y-63511928D01*
X117025518Y-63524188D01*
X116905820Y-63560498D01*
X116795506Y-63619463D01*
X116698815Y-63698815D01*
X116619463Y-63795506D01*
X116560498Y-63905820D01*
X116524188Y-64025518D01*
X116511928Y-64150000D01*
X116511928Y-64240000D01*
X108748322Y-64240000D01*
X108710999Y-64236324D01*
X108673676Y-64240000D01*
X108673667Y-64240000D01*
X108562014Y-64250997D01*
X108418753Y-64294454D01*
X108286724Y-64365026D01*
X108170999Y-64459999D01*
X108147201Y-64488997D01*
X105623003Y-67013196D01*
X105593999Y-67036999D01*
X105538871Y-67104174D01*
X105499026Y-67152724D01*
X105492927Y-67164135D01*
X105428454Y-67284754D01*
X105384997Y-67428015D01*
X105374000Y-67539668D01*
X105374000Y-67539678D01*
X105370324Y-67577000D01*
X105374000Y-67614322D01*
X105374001Y-85026634D01*
X105301912Y-84996774D01*
X105101953Y-84957000D01*
X104898075Y-84957000D01*
X104698116Y-84996774D01*
X104509758Y-85074795D01*
X104340240Y-85188063D01*
X104296303Y-85232000D01*
X99821322Y-85232000D01*
X99783999Y-85228324D01*
X99746676Y-85232000D01*
X99746667Y-85232000D01*
X99635014Y-85242997D01*
X99491753Y-85286454D01*
X99359724Y-85357026D01*
X99343685Y-85370189D01*
X99272996Y-85428201D01*
X99272992Y-85428205D01*
X99243999Y-85451999D01*
X99220205Y-85480992D01*
X97621974Y-87079224D01*
X97391599Y-87033400D01*
X97096401Y-87033400D01*
X96806875Y-87090990D01*
X96534147Y-87203958D01*
X96288698Y-87367961D01*
X96079961Y-87576698D01*
X95974000Y-87735281D01*
X95868039Y-87576698D01*
X95760000Y-87468659D01*
X95760000Y-70638909D01*
X95774463Y-70632918D01*
X96042252Y-70453987D01*
X96269987Y-70226252D01*
X96448918Y-69958463D01*
X96454909Y-69944000D01*
X100045091Y-69944000D01*
X100051082Y-69958463D01*
X100230013Y-70226252D01*
X100457748Y-70453987D01*
X100725537Y-70632918D01*
X101023088Y-70756168D01*
X101338967Y-70819000D01*
X101661033Y-70819000D01*
X101976912Y-70756168D01*
X102274463Y-70632918D01*
X102542252Y-70453987D01*
X102769987Y-70226252D01*
X102948918Y-69958463D01*
X103072168Y-69660912D01*
X103135000Y-69345033D01*
X103135000Y-69022967D01*
X103072168Y-68707088D01*
X102948918Y-68409537D01*
X102769987Y-68141748D01*
X102542252Y-67914013D01*
X102274463Y-67735082D01*
X101976912Y-67611832D01*
X101661033Y-67549000D01*
X101338967Y-67549000D01*
X101023088Y-67611832D01*
X100725537Y-67735082D01*
X100457748Y-67914013D01*
X100230013Y-68141748D01*
X100051082Y-68409537D01*
X100045091Y-68424000D01*
X96454909Y-68424000D01*
X96448918Y-68409537D01*
X96269987Y-68141748D01*
X96042252Y-67914013D01*
X95774463Y-67735082D01*
X95476912Y-67611832D01*
X95161033Y-67549000D01*
X94838967Y-67549000D01*
X94523088Y-67611832D01*
X94225537Y-67735082D01*
X93957748Y-67914013D01*
X93730013Y-68141748D01*
X93551082Y-68409537D01*
X93427832Y-68707088D01*
X93365000Y-69022967D01*
X93365000Y-69345033D01*
X93427832Y-69660912D01*
X93551082Y-69958463D01*
X93730013Y-70226252D01*
X93957748Y-70453987D01*
X94225537Y-70632918D01*
X94240000Y-70638909D01*
X94240001Y-87102122D01*
X93994147Y-87203958D01*
X93748698Y-87367961D01*
X93539961Y-87576698D01*
X93375958Y-87822147D01*
X93262990Y-88094875D01*
X93205400Y-88384401D01*
X93205400Y-88679599D01*
X93262990Y-88969125D01*
X93326893Y-89123399D01*
X82721923Y-89123399D01*
X82684600Y-89119723D01*
X82647277Y-89123399D01*
X82647268Y-89123399D01*
X82535615Y-89134396D01*
X82392354Y-89177853D01*
X82260325Y-89248425D01*
X82260323Y-89248426D01*
X82260324Y-89248426D01*
X82173597Y-89319600D01*
X82173593Y-89319604D01*
X82144600Y-89343398D01*
X82120806Y-89372391D01*
X80223002Y-91270196D01*
X80193999Y-91293999D01*
X80150688Y-91346774D01*
X80099026Y-91409724D01*
X80055976Y-91490264D01*
X80028454Y-91541754D01*
X79984997Y-91685015D01*
X79974000Y-91796668D01*
X79974000Y-91796678D01*
X79970324Y-91834000D01*
X79974000Y-91871322D01*
X79974001Y-99766288D01*
X79930063Y-99810226D01*
X79816795Y-99979744D01*
X79738774Y-100168102D01*
X79699000Y-100368061D01*
X79699000Y-100571939D01*
X79738774Y-100771898D01*
X79816795Y-100960256D01*
X79930063Y-101129774D01*
X80074226Y-101273937D01*
X80243744Y-101387205D01*
X80432102Y-101465226D01*
X80632061Y-101505000D01*
X80835939Y-101505000D01*
X81035898Y-101465226D01*
X81224256Y-101387205D01*
X81393774Y-101273937D01*
X81537937Y-101129774D01*
X81651205Y-100960256D01*
X81729226Y-100771898D01*
X81769000Y-100571939D01*
X81769000Y-100368061D01*
X81729226Y-100168102D01*
X81651205Y-99979744D01*
X81537937Y-99810226D01*
X81494000Y-99766289D01*
X81494000Y-92148801D01*
X82211774Y-91431027D01*
X93249037Y-91431027D01*
X93347036Y-91707978D01*
X93497183Y-91960488D01*
X93693707Y-92178854D01*
X93929056Y-92354684D01*
X94194186Y-92481222D01*
X94344974Y-92526958D01*
X94577000Y-92405817D01*
X94577000Y-91199000D01*
X93369536Y-91199000D01*
X93249037Y-91431027D01*
X82211774Y-91431027D01*
X82999404Y-90643399D01*
X93273656Y-90643399D01*
X93249037Y-90712973D01*
X93369536Y-90945000D01*
X94577000Y-90945000D01*
X94577000Y-90925000D01*
X94831000Y-90925000D01*
X94831000Y-90945000D01*
X94851000Y-90945000D01*
X94851000Y-91199000D01*
X94831000Y-91199000D01*
X94831000Y-92405817D01*
X95063026Y-92526958D01*
X95213814Y-92481222D01*
X95478944Y-92354684D01*
X95714293Y-92178854D01*
X95910817Y-91960488D01*
X95969441Y-91861897D01*
X96079961Y-92027302D01*
X96288698Y-92236039D01*
X96534147Y-92400042D01*
X96806875Y-92513010D01*
X97096401Y-92570600D01*
X97391599Y-92570600D01*
X97681125Y-92513010D01*
X97953853Y-92400042D01*
X98199302Y-92236039D01*
X98408039Y-92027302D01*
X98514000Y-91868719D01*
X98619961Y-92027302D01*
X98828698Y-92236039D01*
X98949000Y-92316422D01*
X98949001Y-101190971D01*
X98944960Y-101232000D01*
X98961082Y-101395688D01*
X99008828Y-101553086D01*
X99040839Y-101612974D01*
X99086365Y-101698146D01*
X99190710Y-101825291D01*
X99222574Y-101851441D01*
X101807908Y-104436776D01*
X101836774Y-104581898D01*
X101914795Y-104770256D01*
X102028063Y-104939774D01*
X102172226Y-105083937D01*
X102341744Y-105197205D01*
X102530102Y-105275226D01*
X102730061Y-105315000D01*
X102797002Y-105315000D01*
X102797002Y-106325185D01*
X102425034Y-106697154D01*
X102362896Y-106697154D01*
X102162937Y-106736928D01*
X101974579Y-106814949D01*
X101805061Y-106928217D01*
X101660898Y-107072380D01*
X101547630Y-107241898D01*
X101469609Y-107430256D01*
X101429835Y-107630215D01*
X101429835Y-107834093D01*
X101469609Y-108034052D01*
X101547630Y-108222410D01*
X101660898Y-108391928D01*
X101805061Y-108536091D01*
X101847652Y-108564549D01*
X101812201Y-108600000D01*
X69595323Y-108600000D01*
X69558000Y-108596324D01*
X69520677Y-108600000D01*
X69520667Y-108600000D01*
X69409014Y-108610997D01*
X69265753Y-108654454D01*
X69133723Y-108725026D01*
X69057433Y-108787636D01*
X69017999Y-108819999D01*
X68994201Y-108848997D01*
X67015003Y-110828196D01*
X66985999Y-110851999D01*
X66939170Y-110909061D01*
X66891026Y-110967724D01*
X66823143Y-111094723D01*
X66820454Y-111099754D01*
X66776997Y-111243015D01*
X66766000Y-111354668D01*
X66766000Y-111354678D01*
X66762324Y-111392000D01*
X56094000Y-111392000D01*
X56094000Y-109166801D01*
X60469799Y-104791004D01*
X60469808Y-104790993D01*
X61744803Y-103516000D01*
X76474289Y-103516000D01*
X76518226Y-103559937D01*
X76687744Y-103673205D01*
X76876102Y-103751226D01*
X77076061Y-103791000D01*
X77279939Y-103791000D01*
X77479898Y-103751226D01*
X77668256Y-103673205D01*
X77837774Y-103559937D01*
X77981937Y-103415774D01*
X78095205Y-103246256D01*
X78173226Y-103057898D01*
X78213000Y-102857939D01*
X78213000Y-102654061D01*
X78173226Y-102454102D01*
X78095205Y-102265744D01*
X77981937Y-102096226D01*
X77837774Y-101952063D01*
X77668256Y-101838795D01*
X77479898Y-101760774D01*
X77279939Y-101721000D01*
X77076061Y-101721000D01*
X76876102Y-101760774D01*
X76687744Y-101838795D01*
X76518226Y-101952063D01*
X76474289Y-101996000D01*
X61467322Y-101996000D01*
X61429999Y-101992324D01*
X61392676Y-101996000D01*
X61392667Y-101996000D01*
X61281014Y-102006997D01*
X61137753Y-102050454D01*
X61005724Y-102121026D01*
X61005722Y-102121027D01*
X61005723Y-102121027D01*
X60918996Y-102192201D01*
X60918992Y-102192205D01*
X60889999Y-102215999D01*
X60866205Y-102244992D01*
X59648998Y-103462201D01*
X59395007Y-103716192D01*
X59394996Y-103716201D01*
X59217000Y-103894197D01*
X59217000Y-96127891D01*
X70021519Y-96127891D01*
X70118843Y-96402252D01*
X70267822Y-96652355D01*
X70462731Y-96868588D01*
X70696080Y-97042641D01*
X70958901Y-97167825D01*
X71106110Y-97212476D01*
X71336000Y-97091155D01*
X71336000Y-95898000D01*
X71590000Y-95898000D01*
X71590000Y-97091155D01*
X71819890Y-97212476D01*
X71967099Y-97167825D01*
X72229920Y-97042641D01*
X72463269Y-96868588D01*
X72658178Y-96652355D01*
X72733000Y-96526745D01*
X72807822Y-96652355D01*
X73002731Y-96868588D01*
X73236080Y-97042641D01*
X73498901Y-97167825D01*
X73646110Y-97212476D01*
X73876000Y-97091155D01*
X73876000Y-95898000D01*
X74130000Y-95898000D01*
X74130000Y-97091155D01*
X74359890Y-97212476D01*
X74507099Y-97167825D01*
X74769920Y-97042641D01*
X75003269Y-96868588D01*
X75198178Y-96652355D01*
X75273000Y-96526745D01*
X75347822Y-96652355D01*
X75542731Y-96868588D01*
X75776080Y-97042641D01*
X76038901Y-97167825D01*
X76186110Y-97212476D01*
X76416000Y-97091155D01*
X76416000Y-95898000D01*
X76670000Y-95898000D01*
X76670000Y-97091155D01*
X76899890Y-97212476D01*
X77047099Y-97167825D01*
X77309920Y-97042641D01*
X77543269Y-96868588D01*
X77738178Y-96652355D01*
X77887157Y-96402252D01*
X77984481Y-96127891D01*
X77863814Y-95898000D01*
X76670000Y-95898000D01*
X76416000Y-95898000D01*
X74130000Y-95898000D01*
X73876000Y-95898000D01*
X71590000Y-95898000D01*
X71336000Y-95898000D01*
X70142186Y-95898000D01*
X70021519Y-96127891D01*
X59217000Y-96127891D01*
X59217000Y-93084740D01*
X69978000Y-93084740D01*
X69978000Y-93377260D01*
X70035068Y-93664158D01*
X70147010Y-93934411D01*
X70309525Y-94177632D01*
X70516368Y-94384475D01*
X70692406Y-94502100D01*
X70462731Y-94673412D01*
X70267822Y-94889645D01*
X70118843Y-95139748D01*
X70021519Y-95414109D01*
X70142186Y-95644000D01*
X71336000Y-95644000D01*
X71336000Y-95624000D01*
X71590000Y-95624000D01*
X71590000Y-95644000D01*
X73876000Y-95644000D01*
X73876000Y-95624000D01*
X74130000Y-95624000D01*
X74130000Y-95644000D01*
X76416000Y-95644000D01*
X76416000Y-95624000D01*
X76670000Y-95624000D01*
X76670000Y-95644000D01*
X77863814Y-95644000D01*
X77984481Y-95414109D01*
X77887157Y-95139748D01*
X77738178Y-94889645D01*
X77561374Y-94693498D01*
X77637180Y-94670502D01*
X77747494Y-94611537D01*
X77844185Y-94532185D01*
X77923537Y-94435494D01*
X77982502Y-94325180D01*
X78018812Y-94205482D01*
X78031072Y-94081000D01*
X78031072Y-92381000D01*
X78018812Y-92256518D01*
X77982502Y-92136820D01*
X77923537Y-92026506D01*
X77844185Y-91929815D01*
X77747494Y-91850463D01*
X77637180Y-91791498D01*
X77517482Y-91755188D01*
X77393000Y-91742928D01*
X75693000Y-91742928D01*
X75568518Y-91755188D01*
X75448820Y-91791498D01*
X75338506Y-91850463D01*
X75241815Y-91929815D01*
X75162463Y-92026506D01*
X75103498Y-92136820D01*
X75081487Y-92209380D01*
X74949632Y-92077525D01*
X74706411Y-91915010D01*
X74436158Y-91803068D01*
X74149260Y-91746000D01*
X73856740Y-91746000D01*
X73569842Y-91803068D01*
X73299589Y-91915010D01*
X73056368Y-92077525D01*
X72849525Y-92284368D01*
X72733000Y-92458760D01*
X72616475Y-92284368D01*
X72409632Y-92077525D01*
X72166411Y-91915010D01*
X71896158Y-91803068D01*
X71609260Y-91746000D01*
X71316740Y-91746000D01*
X71029842Y-91803068D01*
X70759589Y-91915010D01*
X70516368Y-92077525D01*
X70309525Y-92284368D01*
X70147010Y-92527589D01*
X70035068Y-92797842D01*
X69978000Y-93084740D01*
X59217000Y-93084740D01*
X59217000Y-85321867D01*
X59483868Y-85055000D01*
X73341715Y-85055000D01*
X73464744Y-85137205D01*
X73653102Y-85215226D01*
X73853061Y-85255000D01*
X74056939Y-85255000D01*
X74256898Y-85215226D01*
X74445256Y-85137205D01*
X74568285Y-85055000D01*
X77760982Y-85055000D01*
X77802000Y-85059040D01*
X77843018Y-85055000D01*
X77843019Y-85055000D01*
X77965689Y-85042918D01*
X78123087Y-84995172D01*
X78268146Y-84917636D01*
X78395291Y-84813291D01*
X78421446Y-84781421D01*
X79887426Y-83315441D01*
X79919291Y-83289291D01*
X80023636Y-83162146D01*
X80101172Y-83017087D01*
X80148918Y-82859689D01*
X80161000Y-82737019D01*
X80161000Y-82737009D01*
X80165039Y-82696001D01*
X80161000Y-82654993D01*
X80161000Y-76691867D01*
X80498775Y-76354093D01*
X80643898Y-76325226D01*
X80832256Y-76247205D01*
X81001774Y-76133937D01*
X81145937Y-75989774D01*
X81259205Y-75820256D01*
X81337226Y-75631898D01*
X81377000Y-75431939D01*
X81377000Y-75228061D01*
X81337226Y-75028102D01*
X81259205Y-74839744D01*
X81145937Y-74670226D01*
X81001774Y-74526063D01*
X80832256Y-74412795D01*
X80643898Y-74334774D01*
X80443939Y-74295000D01*
X80240061Y-74295000D01*
X80040102Y-74334774D01*
X79851744Y-74412795D01*
X79682226Y-74526063D01*
X79538063Y-74670226D01*
X79424795Y-74839744D01*
X79346774Y-75028102D01*
X79317907Y-75173225D01*
X78764579Y-75726554D01*
X78732709Y-75752709D01*
X78665178Y-75834997D01*
X78628364Y-75879855D01*
X78550828Y-76024914D01*
X78503082Y-76182312D01*
X78486960Y-76346000D01*
X78491000Y-76387019D01*
X78491001Y-82350131D01*
X77456133Y-83385000D01*
X74568285Y-83385000D01*
X74445256Y-83302795D01*
X74256898Y-83224774D01*
X74056939Y-83185000D01*
X73853061Y-83185000D01*
X73653102Y-83224774D01*
X73464744Y-83302795D01*
X73341715Y-83385000D01*
X59179007Y-83385000D01*
X59137999Y-83380961D01*
X59096991Y-83385000D01*
X59096981Y-83385000D01*
X58974311Y-83397082D01*
X58816913Y-83444828D01*
X58671854Y-83522364D01*
X58544709Y-83626709D01*
X58518561Y-83658571D01*
X57820579Y-84356554D01*
X57788709Y-84382709D01*
X57717338Y-84469676D01*
X57684364Y-84509855D01*
X57606828Y-84654914D01*
X57559082Y-84812312D01*
X57542960Y-84976000D01*
X57547000Y-85017018D01*
X57547001Y-103680130D01*
X53756579Y-107470554D01*
X53724709Y-107496709D01*
X53653754Y-107583169D01*
X53620364Y-107623855D01*
X53542828Y-107768914D01*
X53495082Y-107926312D01*
X53478960Y-108090000D01*
X53483000Y-108131018D01*
X53483001Y-127288714D01*
X53400795Y-127411744D01*
X53322774Y-127600102D01*
X53283000Y-127800061D01*
X50660000Y-127800061D01*
X50660000Y-91312400D01*
X50998090Y-91312400D01*
X51001143Y-91336029D01*
X51094319Y-91576007D01*
X51232522Y-91793196D01*
X51410441Y-91979250D01*
X51621239Y-92127019D01*
X51856815Y-92230824D01*
X52108116Y-92286675D01*
X52314000Y-92136573D01*
X52314000Y-91110000D01*
X52568000Y-91110000D01*
X52568000Y-92136573D01*
X52773884Y-92286675D01*
X53025185Y-92230824D01*
X53260761Y-92127019D01*
X53471559Y-91979250D01*
X53649478Y-91793196D01*
X53787681Y-91576007D01*
X53880857Y-91336029D01*
X53883910Y-91312400D01*
X53760224Y-91110000D01*
X52568000Y-91110000D01*
X52314000Y-91110000D01*
X51121776Y-91110000D01*
X50998090Y-91312400D01*
X50660000Y-91312400D01*
X50660000Y-90982744D01*
X54097197Y-90982744D01*
X54101989Y-91021526D01*
X54191869Y-91237039D01*
X54322066Y-91430877D01*
X54487578Y-91595590D01*
X54682043Y-91724848D01*
X54897989Y-91813684D01*
X55127116Y-91858684D01*
X55314000Y-91703152D01*
X55314000Y-90800000D01*
X55568000Y-90800000D01*
X55568000Y-91703152D01*
X55754884Y-91858684D01*
X55984011Y-91813684D01*
X56199957Y-91724848D01*
X56394422Y-91595590D01*
X56559934Y-91430877D01*
X56690131Y-91237039D01*
X56780011Y-91021526D01*
X56784803Y-90982744D01*
X56659361Y-90800000D01*
X55568000Y-90800000D01*
X55314000Y-90800000D01*
X54222639Y-90800000D01*
X54097197Y-90982744D01*
X50660000Y-90982744D01*
X50660000Y-90653600D01*
X50998090Y-90653600D01*
X51121776Y-90856000D01*
X52314000Y-90856000D01*
X52314000Y-89829427D01*
X52568000Y-89829427D01*
X52568000Y-90856000D01*
X53760224Y-90856000D01*
X53883910Y-90653600D01*
X53880857Y-90629971D01*
X53787681Y-90389993D01*
X53770668Y-90363256D01*
X54097197Y-90363256D01*
X54222639Y-90546000D01*
X55314000Y-90546000D01*
X55314000Y-89642848D01*
X55568000Y-89642848D01*
X55568000Y-90546000D01*
X56659361Y-90546000D01*
X56784803Y-90363256D01*
X56780011Y-90324474D01*
X56690131Y-90108961D01*
X56559934Y-89915123D01*
X56394422Y-89750410D01*
X56199957Y-89621152D01*
X55984011Y-89532316D01*
X55754884Y-89487316D01*
X55568000Y-89642848D01*
X55314000Y-89642848D01*
X55127116Y-89487316D01*
X54897989Y-89532316D01*
X54682043Y-89621152D01*
X54487578Y-89750410D01*
X54322066Y-89915123D01*
X54191869Y-90108961D01*
X54101989Y-90324474D01*
X54097197Y-90363256D01*
X53770668Y-90363256D01*
X53649478Y-90172804D01*
X53471559Y-89986750D01*
X53260761Y-89838981D01*
X53025185Y-89735176D01*
X52773884Y-89679325D01*
X52568000Y-89829427D01*
X52314000Y-89829427D01*
X52108116Y-89679325D01*
X51856815Y-89735176D01*
X51621239Y-89838981D01*
X51410441Y-89986750D01*
X51232522Y-90172804D01*
X51094319Y-90389993D01*
X51001143Y-90629971D01*
X50998090Y-90653600D01*
X50660000Y-90653600D01*
X50660000Y-85852400D01*
X50998090Y-85852400D01*
X51001143Y-85876029D01*
X51094319Y-86116007D01*
X51232522Y-86333196D01*
X51410441Y-86519250D01*
X51621239Y-86667019D01*
X51856815Y-86770824D01*
X52108116Y-86826675D01*
X52314000Y-86676573D01*
X52314000Y-85650000D01*
X52568000Y-85650000D01*
X52568000Y-86676573D01*
X52773884Y-86826675D01*
X53025185Y-86770824D01*
X53260761Y-86667019D01*
X53471559Y-86519250D01*
X53649478Y-86333196D01*
X53770667Y-86142744D01*
X54097197Y-86142744D01*
X54101989Y-86181526D01*
X54191869Y-86397039D01*
X54322066Y-86590877D01*
X54487578Y-86755590D01*
X54682043Y-86884848D01*
X54897989Y-86973684D01*
X55127116Y-87018684D01*
X55314000Y-86863152D01*
X55314000Y-85960000D01*
X55568000Y-85960000D01*
X55568000Y-86863152D01*
X55754884Y-87018684D01*
X55984011Y-86973684D01*
X56199957Y-86884848D01*
X56394422Y-86755590D01*
X56559934Y-86590877D01*
X56690131Y-86397039D01*
X56780011Y-86181526D01*
X56784803Y-86142744D01*
X56659361Y-85960000D01*
X55568000Y-85960000D01*
X55314000Y-85960000D01*
X54222639Y-85960000D01*
X54097197Y-86142744D01*
X53770667Y-86142744D01*
X53787681Y-86116007D01*
X53880857Y-85876029D01*
X53883910Y-85852400D01*
X53760224Y-85650000D01*
X52568000Y-85650000D01*
X52314000Y-85650000D01*
X51121776Y-85650000D01*
X50998090Y-85852400D01*
X50660000Y-85852400D01*
X50660000Y-85523256D01*
X54097197Y-85523256D01*
X54222639Y-85706000D01*
X55314000Y-85706000D01*
X55314000Y-84802848D01*
X55568000Y-84802848D01*
X55568000Y-85706000D01*
X56659361Y-85706000D01*
X56784803Y-85523256D01*
X56780011Y-85484474D01*
X56690131Y-85268961D01*
X56559934Y-85075123D01*
X56394422Y-84910410D01*
X56199957Y-84781152D01*
X55984011Y-84692316D01*
X55754884Y-84647316D01*
X55568000Y-84802848D01*
X55314000Y-84802848D01*
X55127116Y-84647316D01*
X54897989Y-84692316D01*
X54682043Y-84781152D01*
X54487578Y-84910410D01*
X54322066Y-85075123D01*
X54191869Y-85268961D01*
X54101989Y-85484474D01*
X54097197Y-85523256D01*
X50660000Y-85523256D01*
X50660000Y-85193600D01*
X50998090Y-85193600D01*
X51121776Y-85396000D01*
X52314000Y-85396000D01*
X52314000Y-84369427D01*
X52568000Y-84369427D01*
X52568000Y-85396000D01*
X53760224Y-85396000D01*
X53883910Y-85193600D01*
X53880857Y-85169971D01*
X53787681Y-84929993D01*
X53649478Y-84712804D01*
X53471559Y-84526750D01*
X53260761Y-84378981D01*
X53025185Y-84275176D01*
X52773884Y-84219325D01*
X52568000Y-84369427D01*
X52314000Y-84369427D01*
X52108116Y-84219325D01*
X51856815Y-84275176D01*
X51621239Y-84378981D01*
X51410441Y-84526750D01*
X51232522Y-84712804D01*
X51094319Y-84929993D01*
X51001143Y-85169971D01*
X50998090Y-85193600D01*
X50660000Y-85193600D01*
X50660000Y-67029392D01*
X50708273Y-66488495D01*
X53015000Y-66488495D01*
X53015000Y-66879505D01*
X53091282Y-67263003D01*
X53240915Y-67624250D01*
X53458149Y-67949364D01*
X53734636Y-68225851D01*
X54059750Y-68443085D01*
X54420997Y-68592718D01*
X54804495Y-68669000D01*
X55195505Y-68669000D01*
X55579003Y-68592718D01*
X55940250Y-68443085D01*
X56265364Y-68225851D01*
X56541851Y-67949364D01*
X56600184Y-67862061D01*
X66099000Y-67862061D01*
X66099000Y-68065939D01*
X66138774Y-68265898D01*
X66216795Y-68454256D01*
X66330063Y-68623774D01*
X66374000Y-68667711D01*
X66374001Y-75038668D01*
X66370324Y-75076000D01*
X66384998Y-75224985D01*
X66428454Y-75368246D01*
X66499026Y-75500276D01*
X66556927Y-75570828D01*
X66594000Y-75616001D01*
X66622998Y-75639799D01*
X67369000Y-76385802D01*
X67369000Y-76447939D01*
X67408774Y-76647898D01*
X67486795Y-76836256D01*
X67600063Y-77005774D01*
X67744226Y-77149937D01*
X67913744Y-77263205D01*
X68102102Y-77341226D01*
X68302061Y-77381000D01*
X68505939Y-77381000D01*
X68705898Y-77341226D01*
X68894256Y-77263205D01*
X69063774Y-77149937D01*
X69207937Y-77005774D01*
X69321205Y-76836256D01*
X69399226Y-76647898D01*
X69439000Y-76447939D01*
X69439000Y-76244061D01*
X69399226Y-76044102D01*
X69321205Y-75855744D01*
X69207937Y-75686226D01*
X69063774Y-75542063D01*
X68894256Y-75428795D01*
X68705898Y-75350774D01*
X68505939Y-75311000D01*
X68443802Y-75311000D01*
X67894000Y-74761199D01*
X67894000Y-68667711D01*
X67937937Y-68623774D01*
X68051205Y-68454256D01*
X68129226Y-68265898D01*
X68169000Y-68065939D01*
X68169000Y-67862061D01*
X68129226Y-67662102D01*
X68051205Y-67473744D01*
X67937937Y-67304226D01*
X67793774Y-67160063D01*
X67624256Y-67046795D01*
X67435898Y-66968774D01*
X67235939Y-66929000D01*
X67032061Y-66929000D01*
X66832102Y-66968774D01*
X66643744Y-67046795D01*
X66474226Y-67160063D01*
X66330063Y-67304226D01*
X66216795Y-67473744D01*
X66138774Y-67662102D01*
X66099000Y-67862061D01*
X56600184Y-67862061D01*
X56759085Y-67624250D01*
X56908718Y-67263003D01*
X56985000Y-66879505D01*
X56985000Y-66488495D01*
X56908718Y-66104997D01*
X56794837Y-65830061D01*
X67877000Y-65830061D01*
X67877000Y-66033939D01*
X67916774Y-66233898D01*
X67994795Y-66422256D01*
X68108063Y-66591774D01*
X68252226Y-66735937D01*
X68421744Y-66849205D01*
X68610102Y-66927226D01*
X68810061Y-66967000D01*
X68872198Y-66967000D01*
X69676000Y-67770803D01*
X69676001Y-79102668D01*
X69672324Y-79140000D01*
X69676001Y-79177333D01*
X69686998Y-79288986D01*
X69696453Y-79320155D01*
X69730454Y-79432246D01*
X69801026Y-79564276D01*
X69872201Y-79651002D01*
X69896000Y-79680001D01*
X69924998Y-79703799D01*
X70888201Y-80667003D01*
X70911999Y-80696001D01*
X70940997Y-80719799D01*
X71027723Y-80790974D01*
X71159753Y-80861546D01*
X71303014Y-80905003D01*
X71414667Y-80916000D01*
X71414677Y-80916000D01*
X71452000Y-80919676D01*
X71489322Y-80916000D01*
X73288289Y-80916000D01*
X73332226Y-80959937D01*
X73501744Y-81073205D01*
X73690102Y-81151226D01*
X73890061Y-81191000D01*
X74093939Y-81191000D01*
X74293898Y-81151226D01*
X74482256Y-81073205D01*
X74651774Y-80959937D01*
X74795937Y-80815774D01*
X74909205Y-80646256D01*
X74987226Y-80457898D01*
X75027000Y-80257939D01*
X75027000Y-80054061D01*
X74987226Y-79854102D01*
X74909205Y-79665744D01*
X74795937Y-79496226D01*
X74651774Y-79352063D01*
X74482256Y-79238795D01*
X74293898Y-79160774D01*
X74093939Y-79121000D01*
X73890061Y-79121000D01*
X73690102Y-79160774D01*
X73501744Y-79238795D01*
X73332226Y-79352063D01*
X73288289Y-79396000D01*
X71766802Y-79396000D01*
X71196000Y-78825199D01*
X71196000Y-67493322D01*
X71199676Y-67455999D01*
X71196000Y-67418676D01*
X71196000Y-67418667D01*
X71185003Y-67307014D01*
X71141546Y-67163753D01*
X71070974Y-67031724D01*
X71044938Y-66999999D01*
X70999799Y-66944996D01*
X70999795Y-66944992D01*
X70976001Y-66915999D01*
X70947009Y-66892206D01*
X69947000Y-65892198D01*
X69947000Y-65830061D01*
X69944882Y-65819413D01*
X94044192Y-65819413D01*
X94139956Y-66083814D01*
X94429571Y-66224704D01*
X94741108Y-66306384D01*
X95062595Y-66325718D01*
X95381675Y-66281961D01*
X95686088Y-66176795D01*
X95860044Y-66083814D01*
X95955808Y-65819413D01*
X100544192Y-65819413D01*
X100639956Y-66083814D01*
X100929571Y-66224704D01*
X101241108Y-66306384D01*
X101562595Y-66325718D01*
X101881675Y-66281961D01*
X102186088Y-66176795D01*
X102360044Y-66083814D01*
X102455808Y-65819413D01*
X101500000Y-64863605D01*
X100544192Y-65819413D01*
X95955808Y-65819413D01*
X95000000Y-64863605D01*
X94044192Y-65819413D01*
X69944882Y-65819413D01*
X69907226Y-65630102D01*
X69829205Y-65441744D01*
X69715937Y-65272226D01*
X69571774Y-65128063D01*
X69402256Y-65014795D01*
X69213898Y-64936774D01*
X69013939Y-64897000D01*
X68810061Y-64897000D01*
X68610102Y-64936774D01*
X68421744Y-65014795D01*
X68252226Y-65128063D01*
X68108063Y-65272226D01*
X67994795Y-65441744D01*
X67916774Y-65630102D01*
X67877000Y-65830061D01*
X56794837Y-65830061D01*
X56759085Y-65743750D01*
X56541851Y-65418636D01*
X56265364Y-65142149D01*
X55940250Y-64924915D01*
X55579003Y-64775282D01*
X55434783Y-64746595D01*
X93358282Y-64746595D01*
X93402039Y-65065675D01*
X93507205Y-65370088D01*
X93600186Y-65544044D01*
X93864587Y-65639808D01*
X94820395Y-64684000D01*
X95179605Y-64684000D01*
X96135413Y-65639808D01*
X96399814Y-65544044D01*
X96540704Y-65254429D01*
X96622384Y-64942892D01*
X96634189Y-64746595D01*
X99858282Y-64746595D01*
X99902039Y-65065675D01*
X100007205Y-65370088D01*
X100100186Y-65544044D01*
X100364587Y-65639808D01*
X101320395Y-64684000D01*
X101679605Y-64684000D01*
X102635413Y-65639808D01*
X102899814Y-65544044D01*
X103040704Y-65254429D01*
X103122384Y-64942892D01*
X103141718Y-64621405D01*
X103097961Y-64302325D01*
X102992795Y-63997912D01*
X102899814Y-63823956D01*
X102635413Y-63728192D01*
X101679605Y-64684000D01*
X101320395Y-64684000D01*
X100364587Y-63728192D01*
X100100186Y-63823956D01*
X99959296Y-64113571D01*
X99877616Y-64425108D01*
X99858282Y-64746595D01*
X96634189Y-64746595D01*
X96641718Y-64621405D01*
X96597961Y-64302325D01*
X96492795Y-63997912D01*
X96399814Y-63823956D01*
X96135413Y-63728192D01*
X95179605Y-64684000D01*
X94820395Y-64684000D01*
X93864587Y-63728192D01*
X93600186Y-63823956D01*
X93459296Y-64113571D01*
X93377616Y-64425108D01*
X93358282Y-64746595D01*
X55434783Y-64746595D01*
X55195505Y-64699000D01*
X54804495Y-64699000D01*
X54420997Y-64775282D01*
X54059750Y-64924915D01*
X53734636Y-65142149D01*
X53458149Y-65418636D01*
X53240915Y-65743750D01*
X53091282Y-66104997D01*
X53015000Y-66488495D01*
X50708273Y-66488495D01*
X50731173Y-66231917D01*
X50934656Y-65488109D01*
X51266638Y-64792095D01*
X51716626Y-64165870D01*
X52270403Y-63629223D01*
X52390402Y-63548587D01*
X94044192Y-63548587D01*
X95000000Y-64504395D01*
X95955808Y-63548587D01*
X100544192Y-63548587D01*
X101500000Y-64504395D01*
X102455808Y-63548587D01*
X102360044Y-63284186D01*
X102070429Y-63143296D01*
X101758892Y-63061616D01*
X101437405Y-63042282D01*
X101118325Y-63086039D01*
X100813912Y-63191205D01*
X100639956Y-63284186D01*
X100544192Y-63548587D01*
X95955808Y-63548587D01*
X95860044Y-63284186D01*
X95570429Y-63143296D01*
X95258892Y-63061616D01*
X94937405Y-63042282D01*
X94618325Y-63086039D01*
X94313912Y-63191205D01*
X94139956Y-63284186D01*
X94044192Y-63548587D01*
X52390402Y-63548587D01*
X52910451Y-63199129D01*
X53616553Y-62889171D01*
X54371457Y-62707935D01*
X55024207Y-62660000D01*
X144970608Y-62660000D01*
X145768083Y-62731173D01*
G36*
X82260001Y-131468288D02*
G01*
X82216063Y-131512226D01*
X82102795Y-131681744D01*
X82024774Y-131870102D01*
X81985000Y-132070061D01*
X81985000Y-132273939D01*
X82024774Y-132473898D01*
X82079907Y-132607000D01*
X82045015Y-132607000D01*
X82003999Y-132602960D01*
X81962983Y-132607000D01*
X72017982Y-132607000D01*
X72080256Y-132581205D01*
X72249774Y-132467937D01*
X72293711Y-132424000D01*
X77648678Y-132424000D01*
X77686000Y-132427676D01*
X77723322Y-132424000D01*
X77723333Y-132424000D01*
X77834986Y-132413003D01*
X77978247Y-132369546D01*
X78110276Y-132298974D01*
X78226001Y-132204001D01*
X78249804Y-132174997D01*
X82260000Y-128164801D01*
X82260001Y-131468288D01*
G37*
X82260001Y-131468288D02*
X82216063Y-131512226D01*
X82102795Y-131681744D01*
X82024774Y-131870102D01*
X81985000Y-132070061D01*
X81985000Y-132273939D01*
X82024774Y-132473898D01*
X82079907Y-132607000D01*
X82045015Y-132607000D01*
X82003999Y-132602960D01*
X81962983Y-132607000D01*
X72017982Y-132607000D01*
X72080256Y-132581205D01*
X72249774Y-132467937D01*
X72293711Y-132424000D01*
X77648678Y-132424000D01*
X77686000Y-132427676D01*
X77723322Y-132424000D01*
X77723333Y-132424000D01*
X77834986Y-132413003D01*
X77978247Y-132369546D01*
X78110276Y-132298974D01*
X78226001Y-132204001D01*
X78249804Y-132174997D01*
X82260000Y-128164801D01*
X82260001Y-131468288D01*
G36*
X84975226Y-126550937D02*
G01*
X84975229Y-126550939D01*
X91031289Y-132607000D01*
X83960093Y-132607000D01*
X84015226Y-132473898D01*
X84055000Y-132273939D01*
X84055000Y-132070061D01*
X84015226Y-131870102D01*
X83937205Y-131681744D01*
X83823937Y-131512226D01*
X83780000Y-131468289D01*
X83780000Y-127580773D01*
X84892531Y-126468242D01*
X84975226Y-126550937D01*
G37*
X84975226Y-126550937D02*
X84975229Y-126550939D01*
X91031289Y-132607000D01*
X83960093Y-132607000D01*
X84015226Y-132473898D01*
X84055000Y-132273939D01*
X84055000Y-132070061D01*
X84015226Y-131870102D01*
X83937205Y-131681744D01*
X83823937Y-131512226D01*
X83780000Y-131468289D01*
X83780000Y-127580773D01*
X84892531Y-126468242D01*
X84975226Y-126550937D01*
G36*
X112766014Y-110011819D02*
G01*
X112585939Y-109976000D01*
X112523801Y-109976000D01*
X112158803Y-109611002D01*
X112135001Y-109581999D01*
X112019276Y-109487026D01*
X111887247Y-109416454D01*
X111743986Y-109372997D01*
X111632333Y-109362000D01*
X111632322Y-109362000D01*
X111595000Y-109358324D01*
X111557678Y-109362000D01*
X103199803Y-109362000D01*
X105121008Y-107440797D01*
X105150001Y-107417003D01*
X105173795Y-107388010D01*
X105173799Y-107388006D01*
X105233854Y-107314828D01*
X105244974Y-107301278D01*
X105315546Y-107169249D01*
X105359003Y-107025988D01*
X105370000Y-106914335D01*
X105370000Y-106914326D01*
X105373676Y-106877003D01*
X105370000Y-106839680D01*
X105370000Y-102615803D01*
X112766014Y-110011819D01*
G37*
X112766014Y-110011819D02*
X112585939Y-109976000D01*
X112523801Y-109976000D01*
X112158803Y-109611002D01*
X112135001Y-109581999D01*
X112019276Y-109487026D01*
X111887247Y-109416454D01*
X111743986Y-109372997D01*
X111632333Y-109362000D01*
X111632322Y-109362000D01*
X111595000Y-109358324D01*
X111557678Y-109362000D01*
X103199803Y-109362000D01*
X105121008Y-107440797D01*
X105150001Y-107417003D01*
X105173795Y-107388010D01*
X105173799Y-107388006D01*
X105233854Y-107314828D01*
X105244974Y-107301278D01*
X105315546Y-107169249D01*
X105359003Y-107025988D01*
X105370000Y-106914335D01*
X105370000Y-106914326D01*
X105373676Y-106877003D01*
X105370000Y-106839680D01*
X105370000Y-102615803D01*
X112766014Y-110011819D01*
G36*
X145626525Y-87946632D02*
G01*
X145833368Y-88153475D01*
X146020000Y-88278179D01*
X146020001Y-102308197D01*
X141252199Y-107076000D01*
X119781211Y-107076000D01*
X134591003Y-92266209D01*
X134620001Y-92242411D01*
X134672161Y-92178854D01*
X134714974Y-92126687D01*
X134785546Y-91994657D01*
X134787200Y-91989205D01*
X134829003Y-91851396D01*
X134840000Y-91739743D01*
X134840000Y-91739734D01*
X134843676Y-91702411D01*
X134840000Y-91665088D01*
X134840000Y-88278178D01*
X135026632Y-88153475D01*
X135233475Y-87946632D01*
X135350000Y-87772240D01*
X135466525Y-87946632D01*
X135673368Y-88153475D01*
X135916589Y-88315990D01*
X136186842Y-88427932D01*
X136473740Y-88485000D01*
X136766260Y-88485000D01*
X137053158Y-88427932D01*
X137323411Y-88315990D01*
X137566632Y-88153475D01*
X137773475Y-87946632D01*
X137890000Y-87772240D01*
X138006525Y-87946632D01*
X138213368Y-88153475D01*
X138456589Y-88315990D01*
X138726842Y-88427932D01*
X139013740Y-88485000D01*
X139306260Y-88485000D01*
X139593158Y-88427932D01*
X139863411Y-88315990D01*
X140106632Y-88153475D01*
X140313475Y-87946632D01*
X140430000Y-87772240D01*
X140546525Y-87946632D01*
X140753368Y-88153475D01*
X140996589Y-88315990D01*
X141266842Y-88427932D01*
X141553740Y-88485000D01*
X141846260Y-88485000D01*
X142133158Y-88427932D01*
X142403411Y-88315990D01*
X142646632Y-88153475D01*
X142853475Y-87946632D01*
X142970000Y-87772240D01*
X143086525Y-87946632D01*
X143293368Y-88153475D01*
X143536589Y-88315990D01*
X143806842Y-88427932D01*
X144093740Y-88485000D01*
X144386260Y-88485000D01*
X144673158Y-88427932D01*
X144943411Y-88315990D01*
X145186632Y-88153475D01*
X145393475Y-87946632D01*
X145510000Y-87772240D01*
X145626525Y-87946632D01*
G37*
X145626525Y-87946632D02*
X145833368Y-88153475D01*
X146020000Y-88278179D01*
X146020001Y-102308197D01*
X141252199Y-107076000D01*
X119781211Y-107076000D01*
X134591003Y-92266209D01*
X134620001Y-92242411D01*
X134672161Y-92178854D01*
X134714974Y-92126687D01*
X134785546Y-91994657D01*
X134787200Y-91989205D01*
X134829003Y-91851396D01*
X134840000Y-91739743D01*
X134840000Y-91739734D01*
X134843676Y-91702411D01*
X134840000Y-91665088D01*
X134840000Y-88278178D01*
X135026632Y-88153475D01*
X135233475Y-87946632D01*
X135350000Y-87772240D01*
X135466525Y-87946632D01*
X135673368Y-88153475D01*
X135916589Y-88315990D01*
X136186842Y-88427932D01*
X136473740Y-88485000D01*
X136766260Y-88485000D01*
X137053158Y-88427932D01*
X137323411Y-88315990D01*
X137566632Y-88153475D01*
X137773475Y-87946632D01*
X137890000Y-87772240D01*
X138006525Y-87946632D01*
X138213368Y-88153475D01*
X138456589Y-88315990D01*
X138726842Y-88427932D01*
X139013740Y-88485000D01*
X139306260Y-88485000D01*
X139593158Y-88427932D01*
X139863411Y-88315990D01*
X140106632Y-88153475D01*
X140313475Y-87946632D01*
X140430000Y-87772240D01*
X140546525Y-87946632D01*
X140753368Y-88153475D01*
X140996589Y-88315990D01*
X141266842Y-88427932D01*
X141553740Y-88485000D01*
X141846260Y-88485000D01*
X142133158Y-88427932D01*
X142403411Y-88315990D01*
X142646632Y-88153475D01*
X142853475Y-87946632D01*
X142970000Y-87772240D01*
X143086525Y-87946632D01*
X143293368Y-88153475D01*
X143536589Y-88315990D01*
X143806842Y-88427932D01*
X144093740Y-88485000D01*
X144386260Y-88485000D01*
X144673158Y-88427932D01*
X144943411Y-88315990D01*
X145186632Y-88153475D01*
X145393475Y-87946632D01*
X145510000Y-87772240D01*
X145626525Y-87946632D01*
G36*
X117627539Y-101228750D02*
G01*
X117522063Y-101334226D01*
X117408795Y-101503744D01*
X117330774Y-101692102D01*
X117291000Y-101892061D01*
X117291000Y-102095939D01*
X117330774Y-102295898D01*
X117408795Y-102484256D01*
X117522063Y-102653774D01*
X117623667Y-102755378D01*
X117516102Y-102776774D01*
X117327744Y-102854795D01*
X117158226Y-102968063D01*
X117056622Y-103069667D01*
X117035226Y-102962102D01*
X116957205Y-102773744D01*
X116843937Y-102604226D01*
X116699774Y-102460063D01*
X116530256Y-102346795D01*
X116341898Y-102268774D01*
X116141939Y-102229000D01*
X115938061Y-102229000D01*
X115738102Y-102268774D01*
X115549744Y-102346795D01*
X115380226Y-102460063D01*
X115236063Y-102604226D01*
X115122795Y-102773744D01*
X115044774Y-102962102D01*
X115005000Y-103162061D01*
X115005000Y-103365939D01*
X115044774Y-103565898D01*
X115122795Y-103754256D01*
X115236063Y-103923774D01*
X115380226Y-104067937D01*
X115549744Y-104181205D01*
X115738102Y-104259226D01*
X115938061Y-104299000D01*
X116000199Y-104299000D01*
X116934819Y-105233621D01*
X116904226Y-105254063D01*
X116760063Y-105398226D01*
X116739621Y-105428819D01*
X116567000Y-105256198D01*
X116567000Y-105194061D01*
X116527226Y-104994102D01*
X116449205Y-104805744D01*
X116335937Y-104636226D01*
X116191774Y-104492063D01*
X116022256Y-104378795D01*
X115833898Y-104300774D01*
X115633939Y-104261000D01*
X115430061Y-104261000D01*
X115230102Y-104300774D01*
X115041744Y-104378795D01*
X114872226Y-104492063D01*
X114728063Y-104636226D01*
X114707621Y-104666819D01*
X111974000Y-101933199D01*
X111974000Y-98221323D01*
X111977676Y-98184000D01*
X111974000Y-98146677D01*
X111974000Y-98146667D01*
X111963003Y-98035014D01*
X111919546Y-97891753D01*
X111848974Y-97759724D01*
X111754001Y-97643999D01*
X111725003Y-97620201D01*
X110916828Y-96812027D01*
X110861205Y-96677742D01*
X110747937Y-96508224D01*
X110603774Y-96364061D01*
X110434256Y-96250793D01*
X110245898Y-96172772D01*
X110045939Y-96132998D01*
X109842061Y-96132998D01*
X109642102Y-96172772D01*
X109453744Y-96250793D01*
X109284226Y-96364061D01*
X109140063Y-96508224D01*
X109026795Y-96677742D01*
X108948774Y-96866100D01*
X108947067Y-96874684D01*
X108917102Y-96880644D01*
X108728744Y-96958665D01*
X108559226Y-97071933D01*
X108415063Y-97216096D01*
X108301795Y-97385614D01*
X108223774Y-97573972D01*
X108184000Y-97773931D01*
X108184000Y-97977809D01*
X108223774Y-98177768D01*
X108301795Y-98366126D01*
X108415063Y-98535644D01*
X108556352Y-98676933D01*
X108481686Y-98857190D01*
X108441912Y-99057149D01*
X108441912Y-99261027D01*
X108481686Y-99460986D01*
X108559707Y-99649344D01*
X108672975Y-99818862D01*
X108716912Y-99862799D01*
X108716913Y-102740112D01*
X107656000Y-101679199D01*
X107656000Y-101523325D01*
X107659676Y-101486000D01*
X107656000Y-101448675D01*
X107656000Y-101448667D01*
X107645003Y-101337014D01*
X107601546Y-101193753D01*
X107530974Y-101061724D01*
X107436001Y-100945999D01*
X107407002Y-100922201D01*
X107169000Y-100684198D01*
X107169000Y-100622061D01*
X107129226Y-100422102D01*
X107051205Y-100233744D01*
X106937937Y-100064226D01*
X106793774Y-99920063D01*
X106624256Y-99806795D01*
X106435898Y-99728774D01*
X106235939Y-99689000D01*
X106032061Y-99689000D01*
X105832102Y-99728774D01*
X105643744Y-99806795D01*
X105578763Y-99850214D01*
X105527205Y-99725744D01*
X105413937Y-99556226D01*
X105269774Y-99412063D01*
X105100256Y-99298795D01*
X104911898Y-99220774D01*
X104711939Y-99181000D01*
X104508061Y-99181000D01*
X104317001Y-99219004D01*
X104317001Y-96660324D01*
X104320677Y-96623001D01*
X104317001Y-96585678D01*
X104317001Y-96585668D01*
X104306004Y-96474015D01*
X104262547Y-96330754D01*
X104234870Y-96278974D01*
X104191975Y-96198724D01*
X104120800Y-96111998D01*
X104097002Y-96083000D01*
X104068005Y-96059203D01*
X102888802Y-94880000D01*
X111278789Y-94880000D01*
X117627539Y-101228750D01*
G37*
X117627539Y-101228750D02*
X117522063Y-101334226D01*
X117408795Y-101503744D01*
X117330774Y-101692102D01*
X117291000Y-101892061D01*
X117291000Y-102095939D01*
X117330774Y-102295898D01*
X117408795Y-102484256D01*
X117522063Y-102653774D01*
X117623667Y-102755378D01*
X117516102Y-102776774D01*
X117327744Y-102854795D01*
X117158226Y-102968063D01*
X117056622Y-103069667D01*
X117035226Y-102962102D01*
X116957205Y-102773744D01*
X116843937Y-102604226D01*
X116699774Y-102460063D01*
X116530256Y-102346795D01*
X116341898Y-102268774D01*
X116141939Y-102229000D01*
X115938061Y-102229000D01*
X115738102Y-102268774D01*
X115549744Y-102346795D01*
X115380226Y-102460063D01*
X115236063Y-102604226D01*
X115122795Y-102773744D01*
X115044774Y-102962102D01*
X115005000Y-103162061D01*
X115005000Y-103365939D01*
X115044774Y-103565898D01*
X115122795Y-103754256D01*
X115236063Y-103923774D01*
X115380226Y-104067937D01*
X115549744Y-104181205D01*
X115738102Y-104259226D01*
X115938061Y-104299000D01*
X116000199Y-104299000D01*
X116934819Y-105233621D01*
X116904226Y-105254063D01*
X116760063Y-105398226D01*
X116739621Y-105428819D01*
X116567000Y-105256198D01*
X116567000Y-105194061D01*
X116527226Y-104994102D01*
X116449205Y-104805744D01*
X116335937Y-104636226D01*
X116191774Y-104492063D01*
X116022256Y-104378795D01*
X115833898Y-104300774D01*
X115633939Y-104261000D01*
X115430061Y-104261000D01*
X115230102Y-104300774D01*
X115041744Y-104378795D01*
X114872226Y-104492063D01*
X114728063Y-104636226D01*
X114707621Y-104666819D01*
X111974000Y-101933199D01*
X111974000Y-98221323D01*
X111977676Y-98184000D01*
X111974000Y-98146677D01*
X111974000Y-98146667D01*
X111963003Y-98035014D01*
X111919546Y-97891753D01*
X111848974Y-97759724D01*
X111754001Y-97643999D01*
X111725003Y-97620201D01*
X110916828Y-96812027D01*
X110861205Y-96677742D01*
X110747937Y-96508224D01*
X110603774Y-96364061D01*
X110434256Y-96250793D01*
X110245898Y-96172772D01*
X110045939Y-96132998D01*
X109842061Y-96132998D01*
X109642102Y-96172772D01*
X109453744Y-96250793D01*
X109284226Y-96364061D01*
X109140063Y-96508224D01*
X109026795Y-96677742D01*
X108948774Y-96866100D01*
X108947067Y-96874684D01*
X108917102Y-96880644D01*
X108728744Y-96958665D01*
X108559226Y-97071933D01*
X108415063Y-97216096D01*
X108301795Y-97385614D01*
X108223774Y-97573972D01*
X108184000Y-97773931D01*
X108184000Y-97977809D01*
X108223774Y-98177768D01*
X108301795Y-98366126D01*
X108415063Y-98535644D01*
X108556352Y-98676933D01*
X108481686Y-98857190D01*
X108441912Y-99057149D01*
X108441912Y-99261027D01*
X108481686Y-99460986D01*
X108559707Y-99649344D01*
X108672975Y-99818862D01*
X108716912Y-99862799D01*
X108716913Y-102740112D01*
X107656000Y-101679199D01*
X107656000Y-101523325D01*
X107659676Y-101486000D01*
X107656000Y-101448675D01*
X107656000Y-101448667D01*
X107645003Y-101337014D01*
X107601546Y-101193753D01*
X107530974Y-101061724D01*
X107436001Y-100945999D01*
X107407002Y-100922201D01*
X107169000Y-100684198D01*
X107169000Y-100622061D01*
X107129226Y-100422102D01*
X107051205Y-100233744D01*
X106937937Y-100064226D01*
X106793774Y-99920063D01*
X106624256Y-99806795D01*
X106435898Y-99728774D01*
X106235939Y-99689000D01*
X106032061Y-99689000D01*
X105832102Y-99728774D01*
X105643744Y-99806795D01*
X105578763Y-99850214D01*
X105527205Y-99725744D01*
X105413937Y-99556226D01*
X105269774Y-99412063D01*
X105100256Y-99298795D01*
X104911898Y-99220774D01*
X104711939Y-99181000D01*
X104508061Y-99181000D01*
X104317001Y-99219004D01*
X104317001Y-96660324D01*
X104320677Y-96623001D01*
X104317001Y-96585678D01*
X104317001Y-96585668D01*
X104306004Y-96474015D01*
X104262547Y-96330754D01*
X104234870Y-96278974D01*
X104191975Y-96198724D01*
X104120800Y-96111998D01*
X104097002Y-96083000D01*
X104068005Y-96059203D01*
X102888802Y-94880000D01*
X111278789Y-94880000D01*
X117627539Y-101228750D01*
G36*
X100752102Y-95115226D02*
G01*
X100952061Y-95155000D01*
X101014199Y-95155000D01*
X102797001Y-96937803D01*
X102797002Y-103064133D01*
X100619000Y-100886133D01*
X100619000Y-95060093D01*
X100752102Y-95115226D01*
G37*
X100752102Y-95115226D02*
X100952061Y-95155000D01*
X101014199Y-95155000D01*
X102797001Y-96937803D01*
X102797002Y-103064133D01*
X100619000Y-100886133D01*
X100619000Y-95060093D01*
X100752102Y-95115226D01*
G36*
X111965000Y-91101947D02*
G01*
X112004774Y-91301906D01*
X112082795Y-91490264D01*
X112196063Y-91659782D01*
X112340226Y-91803945D01*
X112509744Y-91917213D01*
X112698102Y-91995234D01*
X112898061Y-92035008D01*
X113101939Y-92035008D01*
X113301898Y-91995234D01*
X113490256Y-91917213D01*
X113659774Y-91803945D01*
X113703711Y-91760008D01*
X114676091Y-91760008D01*
X114614795Y-91851744D01*
X114536774Y-92040102D01*
X114497000Y-92240061D01*
X114497000Y-92443939D01*
X114536774Y-92643898D01*
X114614795Y-92832256D01*
X114728063Y-93001774D01*
X114872226Y-93145937D01*
X115041744Y-93259205D01*
X115230102Y-93337226D01*
X115430061Y-93377000D01*
X115633939Y-93377000D01*
X115833898Y-93337226D01*
X116022256Y-93259205D01*
X116191774Y-93145937D01*
X116235711Y-93102000D01*
X116864289Y-93102000D01*
X116760063Y-93206226D01*
X116646795Y-93375744D01*
X116568774Y-93564102D01*
X116529000Y-93764061D01*
X116529000Y-93967939D01*
X116568774Y-94167898D01*
X116646795Y-94356256D01*
X116760063Y-94525774D01*
X116904226Y-94669937D01*
X117073744Y-94783205D01*
X117262102Y-94861226D01*
X117462061Y-94901000D01*
X117665939Y-94901000D01*
X117865898Y-94861226D01*
X118054256Y-94783205D01*
X118223774Y-94669937D01*
X118267711Y-94626000D01*
X118900596Y-94626000D01*
X118786102Y-94648774D01*
X118597744Y-94726795D01*
X118428226Y-94840063D01*
X118284063Y-94984226D01*
X118170795Y-95153744D01*
X118092774Y-95342102D01*
X118053000Y-95542061D01*
X118053000Y-95745939D01*
X118092774Y-95945898D01*
X118170795Y-96134256D01*
X118284063Y-96303774D01*
X118428226Y-96447937D01*
X118597744Y-96561205D01*
X118786102Y-96639226D01*
X118986061Y-96679000D01*
X119189939Y-96679000D01*
X119389898Y-96639226D01*
X119578256Y-96561205D01*
X119747774Y-96447937D01*
X119891937Y-96303774D01*
X120005205Y-96134256D01*
X120083226Y-95945898D01*
X120123000Y-95745939D01*
X120123000Y-95683802D01*
X120413799Y-95393003D01*
X120484974Y-95306276D01*
X120555546Y-95174247D01*
X120599003Y-95030986D01*
X120613676Y-94882000D01*
X120599003Y-94733014D01*
X120555546Y-94589754D01*
X120484974Y-94457724D01*
X120390001Y-94341999D01*
X120274276Y-94247026D01*
X120238763Y-94228044D01*
X121376000Y-93090807D01*
X121376000Y-97107198D01*
X120064199Y-98419000D01*
X120002061Y-98419000D01*
X119802102Y-98458774D01*
X119613744Y-98536795D01*
X119444226Y-98650063D01*
X119400289Y-98694000D01*
X117878802Y-98694000D01*
X112031804Y-92847003D01*
X112008001Y-92817999D01*
X111892276Y-92723026D01*
X111760247Y-92652454D01*
X111616986Y-92608997D01*
X111505333Y-92598000D01*
X111505322Y-92598000D01*
X111468000Y-92594324D01*
X111430678Y-92598000D01*
X111102013Y-92598000D01*
X111115205Y-92578256D01*
X111193226Y-92389898D01*
X111233000Y-92189939D01*
X111233000Y-91986061D01*
X111193226Y-91786102D01*
X111115205Y-91597744D01*
X111114389Y-91596523D01*
X111301898Y-91559226D01*
X111490256Y-91481205D01*
X111659774Y-91367937D01*
X111803937Y-91223774D01*
X111917205Y-91054256D01*
X111965000Y-90938869D01*
X111965000Y-91101947D01*
G37*
X111965000Y-91101947D02*
X112004774Y-91301906D01*
X112082795Y-91490264D01*
X112196063Y-91659782D01*
X112340226Y-91803945D01*
X112509744Y-91917213D01*
X112698102Y-91995234D01*
X112898061Y-92035008D01*
X113101939Y-92035008D01*
X113301898Y-91995234D01*
X113490256Y-91917213D01*
X113659774Y-91803945D01*
X113703711Y-91760008D01*
X114676091Y-91760008D01*
X114614795Y-91851744D01*
X114536774Y-92040102D01*
X114497000Y-92240061D01*
X114497000Y-92443939D01*
X114536774Y-92643898D01*
X114614795Y-92832256D01*
X114728063Y-93001774D01*
X114872226Y-93145937D01*
X115041744Y-93259205D01*
X115230102Y-93337226D01*
X115430061Y-93377000D01*
X115633939Y-93377000D01*
X115833898Y-93337226D01*
X116022256Y-93259205D01*
X116191774Y-93145937D01*
X116235711Y-93102000D01*
X116864289Y-93102000D01*
X116760063Y-93206226D01*
X116646795Y-93375744D01*
X116568774Y-93564102D01*
X116529000Y-93764061D01*
X116529000Y-93967939D01*
X116568774Y-94167898D01*
X116646795Y-94356256D01*
X116760063Y-94525774D01*
X116904226Y-94669937D01*
X117073744Y-94783205D01*
X117262102Y-94861226D01*
X117462061Y-94901000D01*
X117665939Y-94901000D01*
X117865898Y-94861226D01*
X118054256Y-94783205D01*
X118223774Y-94669937D01*
X118267711Y-94626000D01*
X118900596Y-94626000D01*
X118786102Y-94648774D01*
X118597744Y-94726795D01*
X118428226Y-94840063D01*
X118284063Y-94984226D01*
X118170795Y-95153744D01*
X118092774Y-95342102D01*
X118053000Y-95542061D01*
X118053000Y-95745939D01*
X118092774Y-95945898D01*
X118170795Y-96134256D01*
X118284063Y-96303774D01*
X118428226Y-96447937D01*
X118597744Y-96561205D01*
X118786102Y-96639226D01*
X118986061Y-96679000D01*
X119189939Y-96679000D01*
X119389898Y-96639226D01*
X119578256Y-96561205D01*
X119747774Y-96447937D01*
X119891937Y-96303774D01*
X120005205Y-96134256D01*
X120083226Y-95945898D01*
X120123000Y-95745939D01*
X120123000Y-95683802D01*
X120413799Y-95393003D01*
X120484974Y-95306276D01*
X120555546Y-95174247D01*
X120599003Y-95030986D01*
X120613676Y-94882000D01*
X120599003Y-94733014D01*
X120555546Y-94589754D01*
X120484974Y-94457724D01*
X120390001Y-94341999D01*
X120274276Y-94247026D01*
X120238763Y-94228044D01*
X121376000Y-93090807D01*
X121376000Y-97107198D01*
X120064199Y-98419000D01*
X120002061Y-98419000D01*
X119802102Y-98458774D01*
X119613744Y-98536795D01*
X119444226Y-98650063D01*
X119400289Y-98694000D01*
X117878802Y-98694000D01*
X112031804Y-92847003D01*
X112008001Y-92817999D01*
X111892276Y-92723026D01*
X111760247Y-92652454D01*
X111616986Y-92608997D01*
X111505333Y-92598000D01*
X111505322Y-92598000D01*
X111468000Y-92594324D01*
X111430678Y-92598000D01*
X111102013Y-92598000D01*
X111115205Y-92578256D01*
X111193226Y-92389898D01*
X111233000Y-92189939D01*
X111233000Y-91986061D01*
X111193226Y-91786102D01*
X111115205Y-91597744D01*
X111114389Y-91596523D01*
X111301898Y-91559226D01*
X111490256Y-91481205D01*
X111659774Y-91367937D01*
X111803937Y-91223774D01*
X111917205Y-91054256D01*
X111965000Y-90938869D01*
X111965000Y-91101947D01*
G36*
X130593368Y-88153475D02*
G01*
X130780000Y-88278179D01*
X130780001Y-93291197D01*
X129760000Y-94311198D01*
X129760000Y-88488072D01*
X129850000Y-88488072D01*
X129974482Y-88475812D01*
X130094180Y-88439502D01*
X130204494Y-88380537D01*
X130301185Y-88301185D01*
X130380537Y-88204494D01*
X130439502Y-88094180D01*
X130461513Y-88021620D01*
X130593368Y-88153475D01*
G37*
X130593368Y-88153475D02*
X130780000Y-88278179D01*
X130780001Y-93291197D01*
X129760000Y-94311198D01*
X129760000Y-88488072D01*
X129850000Y-88488072D01*
X129974482Y-88475812D01*
X130094180Y-88439502D01*
X130204494Y-88380537D01*
X130301185Y-88301185D01*
X130380537Y-88204494D01*
X130439502Y-88094180D01*
X130461513Y-88021620D01*
X130593368Y-88153475D01*
G36*
X104650798Y-93360000D02*
G01*
X101757711Y-93360000D01*
X101713774Y-93316063D01*
X101544256Y-93202795D01*
X101355898Y-93124774D01*
X101155939Y-93085000D01*
X100952061Y-93085000D01*
X100752102Y-93124774D01*
X100619000Y-93179907D01*
X100619000Y-92316422D01*
X100739302Y-92236039D01*
X100948039Y-92027302D01*
X101112042Y-91781853D01*
X101225010Y-91509125D01*
X101282600Y-91219599D01*
X101282600Y-90924401D01*
X101225010Y-90634875D01*
X101112042Y-90362147D01*
X100948039Y-90116698D01*
X100833977Y-90002636D01*
X100891780Y-89985102D01*
X101002094Y-89926137D01*
X101098785Y-89846785D01*
X101116274Y-89825475D01*
X104650798Y-93360000D01*
G37*
X104650798Y-93360000D02*
X101757711Y-93360000D01*
X101713774Y-93316063D01*
X101544256Y-93202795D01*
X101355898Y-93124774D01*
X101155939Y-93085000D01*
X100952061Y-93085000D01*
X100752102Y-93124774D01*
X100619000Y-93179907D01*
X100619000Y-92316422D01*
X100739302Y-92236039D01*
X100948039Y-92027302D01*
X101112042Y-91781853D01*
X101225010Y-91509125D01*
X101282600Y-91219599D01*
X101282600Y-90924401D01*
X101225010Y-90634875D01*
X101112042Y-90362147D01*
X100948039Y-90116698D01*
X100833977Y-90002636D01*
X100891780Y-89985102D01*
X101002094Y-89926137D01*
X101098785Y-89846785D01*
X101116274Y-89825475D01*
X104650798Y-93360000D01*
G36*
X104340240Y-86795937D02*
G01*
X104509758Y-86909205D01*
X104698116Y-86987226D01*
X104898075Y-87027000D01*
X105101953Y-87027000D01*
X105301912Y-86987226D01*
X105374001Y-86957366D01*
X105374001Y-91034667D01*
X105370324Y-91072000D01*
X105384998Y-91220985D01*
X105428454Y-91364246D01*
X105499026Y-91496276D01*
X105569379Y-91582000D01*
X105594000Y-91612001D01*
X105622998Y-91635799D01*
X106369000Y-92381802D01*
X106369000Y-92443939D01*
X106399644Y-92598000D01*
X106038402Y-92598000D01*
X101461404Y-88021003D01*
X101437601Y-87991999D01*
X101321876Y-87897026D01*
X101285672Y-87877674D01*
X101285672Y-87668400D01*
X101273412Y-87543918D01*
X101237102Y-87424220D01*
X101178137Y-87313906D01*
X101098785Y-87217215D01*
X101002094Y-87137863D01*
X100891780Y-87078898D01*
X100772082Y-87042588D01*
X100647600Y-87030328D01*
X99820475Y-87030328D01*
X100098803Y-86752000D01*
X104296303Y-86752000D01*
X104340240Y-86795937D01*
G37*
X104340240Y-86795937D02*
X104509758Y-86909205D01*
X104698116Y-86987226D01*
X104898075Y-87027000D01*
X105101953Y-87027000D01*
X105301912Y-86987226D01*
X105374001Y-86957366D01*
X105374001Y-91034667D01*
X105370324Y-91072000D01*
X105384998Y-91220985D01*
X105428454Y-91364246D01*
X105499026Y-91496276D01*
X105569379Y-91582000D01*
X105594000Y-91612001D01*
X105622998Y-91635799D01*
X106369000Y-92381802D01*
X106369000Y-92443939D01*
X106399644Y-92598000D01*
X106038402Y-92598000D01*
X101461404Y-88021003D01*
X101437601Y-87991999D01*
X101321876Y-87897026D01*
X101285672Y-87877674D01*
X101285672Y-87668400D01*
X101273412Y-87543918D01*
X101237102Y-87424220D01*
X101178137Y-87313906D01*
X101098785Y-87217215D01*
X101002094Y-87137863D01*
X100891780Y-87078898D01*
X100772082Y-87042588D01*
X100647600Y-87030328D01*
X99820475Y-87030328D01*
X100098803Y-86752000D01*
X104296303Y-86752000D01*
X104340240Y-86795937D01*
G36*
X132926525Y-87946632D02*
G01*
X133133368Y-88153475D01*
X133320000Y-88278179D01*
X133320001Y-91387607D01*
X132300000Y-92407608D01*
X132300000Y-88278178D01*
X132486632Y-88153475D01*
X132693475Y-87946632D01*
X132810000Y-87772240D01*
X132926525Y-87946632D01*
G37*
X132926525Y-87946632D02*
X133133368Y-88153475D01*
X133320000Y-88278179D01*
X133320001Y-91387607D01*
X132300000Y-92407608D01*
X132300000Y-88278178D01*
X132486632Y-88153475D01*
X132693475Y-87946632D01*
X132810000Y-87772240D01*
X132926525Y-87946632D01*
G36*
X116846525Y-68486632D02*
G01*
X117053368Y-68693475D01*
X117227760Y-68810000D01*
X117053368Y-68926525D01*
X116846525Y-69133368D01*
X116721822Y-69320000D01*
X111957325Y-69320000D01*
X111920000Y-69316324D01*
X111882675Y-69320000D01*
X111882667Y-69320000D01*
X111771014Y-69330997D01*
X111627753Y-69374454D01*
X111495724Y-69445026D01*
X111379999Y-69539999D01*
X111356201Y-69568997D01*
X109686998Y-71238201D01*
X109658000Y-71261999D01*
X109634202Y-71290997D01*
X109634201Y-71290998D01*
X109563026Y-71377724D01*
X109492454Y-71509754D01*
X109448998Y-71653015D01*
X109434324Y-71802000D01*
X109438001Y-71839333D01*
X109438000Y-91384289D01*
X109394063Y-91428226D01*
X109280795Y-91597744D01*
X109202774Y-91786102D01*
X109181378Y-91893667D01*
X109180000Y-91892289D01*
X109180000Y-70894801D01*
X111774802Y-68300000D01*
X116721822Y-68300000D01*
X116846525Y-68486632D01*
G37*
X116846525Y-68486632D02*
X117053368Y-68693475D01*
X117227760Y-68810000D01*
X117053368Y-68926525D01*
X116846525Y-69133368D01*
X116721822Y-69320000D01*
X111957325Y-69320000D01*
X111920000Y-69316324D01*
X111882675Y-69320000D01*
X111882667Y-69320000D01*
X111771014Y-69330997D01*
X111627753Y-69374454D01*
X111495724Y-69445026D01*
X111379999Y-69539999D01*
X111356201Y-69568997D01*
X109686998Y-71238201D01*
X109658000Y-71261999D01*
X109634202Y-71290997D01*
X109634201Y-71290998D01*
X109563026Y-71377724D01*
X109492454Y-71509754D01*
X109448998Y-71653015D01*
X109434324Y-71802000D01*
X109438001Y-71839333D01*
X109438000Y-91384289D01*
X109394063Y-91428226D01*
X109280795Y-91597744D01*
X109202774Y-91786102D01*
X109181378Y-91893667D01*
X109180000Y-91892289D01*
X109180000Y-70894801D01*
X111774802Y-68300000D01*
X116721822Y-68300000D01*
X116846525Y-68486632D01*
G36*
X116511928Y-65850000D02*
G01*
X116524188Y-65974482D01*
X116560498Y-66094180D01*
X116619463Y-66204494D01*
X116698815Y-66301185D01*
X116795506Y-66380537D01*
X116905820Y-66439502D01*
X116978380Y-66461513D01*
X116846525Y-66593368D01*
X116721822Y-66780000D01*
X111497322Y-66780000D01*
X111459999Y-66776324D01*
X111422676Y-66780000D01*
X111422667Y-66780000D01*
X111311014Y-66790997D01*
X111167753Y-66834454D01*
X111035724Y-66905026D01*
X110919999Y-66999999D01*
X110896201Y-67028997D01*
X107909003Y-70016196D01*
X107879999Y-70039999D01*
X107824871Y-70107174D01*
X107785026Y-70155724D01*
X107741945Y-70236323D01*
X107714454Y-70287754D01*
X107670997Y-70431015D01*
X107660000Y-70542668D01*
X107660000Y-70542678D01*
X107656324Y-70580000D01*
X107660000Y-70617322D01*
X107660000Y-70962668D01*
X107660001Y-91337645D01*
X107505939Y-91307000D01*
X107443802Y-91307000D01*
X106894000Y-90757199D01*
X106894000Y-67891801D01*
X109025802Y-65760000D01*
X116511928Y-65760000D01*
X116511928Y-65850000D01*
G37*
X116511928Y-65850000D02*
X116524188Y-65974482D01*
X116560498Y-66094180D01*
X116619463Y-66204494D01*
X116698815Y-66301185D01*
X116795506Y-66380537D01*
X116905820Y-66439502D01*
X116978380Y-66461513D01*
X116846525Y-66593368D01*
X116721822Y-66780000D01*
X111497322Y-66780000D01*
X111459999Y-66776324D01*
X111422676Y-66780000D01*
X111422667Y-66780000D01*
X111311014Y-66790997D01*
X111167753Y-66834454D01*
X111035724Y-66905026D01*
X110919999Y-66999999D01*
X110896201Y-67028997D01*
X107909003Y-70016196D01*
X107879999Y-70039999D01*
X107824871Y-70107174D01*
X107785026Y-70155724D01*
X107741945Y-70236323D01*
X107714454Y-70287754D01*
X107670997Y-70431015D01*
X107660000Y-70542668D01*
X107660000Y-70542678D01*
X107656324Y-70580000D01*
X107660000Y-70617322D01*
X107660000Y-70962668D01*
X107660001Y-91337645D01*
X107505939Y-91307000D01*
X107443802Y-91307000D01*
X106894000Y-90757199D01*
X106894000Y-67891801D01*
X109025802Y-65760000D01*
X116511928Y-65760000D01*
X116511928Y-65850000D01*
G36*
X125780000Y-75192721D02*
G01*
X125780001Y-76721821D01*
X125593368Y-76846525D01*
X125461513Y-76978380D01*
X125439502Y-76905820D01*
X125380537Y-76795506D01*
X125301185Y-76698815D01*
X125204494Y-76619463D01*
X125094180Y-76560498D01*
X124974482Y-76524188D01*
X124850000Y-76511928D01*
X123150000Y-76511928D01*
X123025518Y-76524188D01*
X122905820Y-76560498D01*
X122795506Y-76619463D01*
X122698815Y-76698815D01*
X122619463Y-76795506D01*
X122560498Y-76905820D01*
X122524188Y-77025518D01*
X122511928Y-77150000D01*
X122511928Y-78850000D01*
X122524188Y-78974482D01*
X122560498Y-79094180D01*
X122619463Y-79204494D01*
X122698815Y-79301185D01*
X122795506Y-79380537D01*
X122905820Y-79439502D01*
X123025518Y-79475812D01*
X123150000Y-79488072D01*
X124134716Y-79488072D01*
X121174989Y-82447800D01*
X121145991Y-82471598D01*
X121122193Y-82500596D01*
X121122192Y-82500597D01*
X121051017Y-82587323D01*
X120980445Y-82719353D01*
X120959677Y-82787819D01*
X120936989Y-82862613D01*
X120932740Y-82905753D01*
X120922315Y-83011599D01*
X120925992Y-83048931D01*
X120925990Y-90658475D01*
X120894207Y-90581744D01*
X120780939Y-90412226D01*
X120636776Y-90268063D01*
X120467258Y-90154795D01*
X120278900Y-90076774D01*
X120078941Y-90037000D01*
X119875063Y-90037000D01*
X119675104Y-90076774D01*
X119486746Y-90154795D01*
X119359215Y-90240008D01*
X116169219Y-90240008D01*
X116191774Y-90224937D01*
X116335937Y-90080774D01*
X116449205Y-89911256D01*
X116527226Y-89722898D01*
X116567000Y-89522939D01*
X116567000Y-89460801D01*
X118511003Y-87516799D01*
X118540001Y-87493001D01*
X118596448Y-87424220D01*
X118634974Y-87377277D01*
X118705546Y-87245247D01*
X118714049Y-87217215D01*
X118749003Y-87101986D01*
X118760000Y-86990333D01*
X118760000Y-86990324D01*
X118763676Y-86953001D01*
X118760000Y-86915678D01*
X118760000Y-78978178D01*
X118946632Y-78853475D01*
X119153475Y-78646632D01*
X119315990Y-78403411D01*
X119427932Y-78133158D01*
X119485000Y-77846260D01*
X119485000Y-77553740D01*
X119427932Y-77266842D01*
X119315990Y-76996589D01*
X119153475Y-76753368D01*
X118946632Y-76546525D01*
X118772240Y-76430000D01*
X118946632Y-76313475D01*
X119153475Y-76106632D01*
X119315990Y-75863411D01*
X119427932Y-75593158D01*
X119485000Y-75306260D01*
X119485000Y-75013740D01*
X119427932Y-74726842D01*
X119315990Y-74456589D01*
X119153475Y-74213368D01*
X118946632Y-74006525D01*
X118772240Y-73890000D01*
X118946632Y-73773475D01*
X119153475Y-73566632D01*
X119315990Y-73323411D01*
X119427932Y-73053158D01*
X119485000Y-72766260D01*
X119485000Y-72473740D01*
X119427932Y-72186842D01*
X119315990Y-71916589D01*
X119153475Y-71673368D01*
X118946632Y-71466525D01*
X118772240Y-71350000D01*
X118946632Y-71233475D01*
X119153475Y-71026632D01*
X119315990Y-70783411D01*
X119427932Y-70513158D01*
X119485000Y-70226260D01*
X119485000Y-69933740D01*
X119427932Y-69646842D01*
X119315990Y-69376589D01*
X119153475Y-69133368D01*
X118946632Y-68926525D01*
X118772240Y-68810000D01*
X118946632Y-68693475D01*
X119113693Y-68526414D01*
X125780000Y-75192721D01*
G37*
X125780000Y-75192721D02*
X125780001Y-76721821D01*
X125593368Y-76846525D01*
X125461513Y-76978380D01*
X125439502Y-76905820D01*
X125380537Y-76795506D01*
X125301185Y-76698815D01*
X125204494Y-76619463D01*
X125094180Y-76560498D01*
X124974482Y-76524188D01*
X124850000Y-76511928D01*
X123150000Y-76511928D01*
X123025518Y-76524188D01*
X122905820Y-76560498D01*
X122795506Y-76619463D01*
X122698815Y-76698815D01*
X122619463Y-76795506D01*
X122560498Y-76905820D01*
X122524188Y-77025518D01*
X122511928Y-77150000D01*
X122511928Y-78850000D01*
X122524188Y-78974482D01*
X122560498Y-79094180D01*
X122619463Y-79204494D01*
X122698815Y-79301185D01*
X122795506Y-79380537D01*
X122905820Y-79439502D01*
X123025518Y-79475812D01*
X123150000Y-79488072D01*
X124134716Y-79488072D01*
X121174989Y-82447800D01*
X121145991Y-82471598D01*
X121122193Y-82500596D01*
X121122192Y-82500597D01*
X121051017Y-82587323D01*
X120980445Y-82719353D01*
X120959677Y-82787819D01*
X120936989Y-82862613D01*
X120932740Y-82905753D01*
X120922315Y-83011599D01*
X120925992Y-83048931D01*
X120925990Y-90658475D01*
X120894207Y-90581744D01*
X120780939Y-90412226D01*
X120636776Y-90268063D01*
X120467258Y-90154795D01*
X120278900Y-90076774D01*
X120078941Y-90037000D01*
X119875063Y-90037000D01*
X119675104Y-90076774D01*
X119486746Y-90154795D01*
X119359215Y-90240008D01*
X116169219Y-90240008D01*
X116191774Y-90224937D01*
X116335937Y-90080774D01*
X116449205Y-89911256D01*
X116527226Y-89722898D01*
X116567000Y-89522939D01*
X116567000Y-89460801D01*
X118511003Y-87516799D01*
X118540001Y-87493001D01*
X118596448Y-87424220D01*
X118634974Y-87377277D01*
X118705546Y-87245247D01*
X118714049Y-87217215D01*
X118749003Y-87101986D01*
X118760000Y-86990333D01*
X118760000Y-86990324D01*
X118763676Y-86953001D01*
X118760000Y-86915678D01*
X118760000Y-78978178D01*
X118946632Y-78853475D01*
X119153475Y-78646632D01*
X119315990Y-78403411D01*
X119427932Y-78133158D01*
X119485000Y-77846260D01*
X119485000Y-77553740D01*
X119427932Y-77266842D01*
X119315990Y-76996589D01*
X119153475Y-76753368D01*
X118946632Y-76546525D01*
X118772240Y-76430000D01*
X118946632Y-76313475D01*
X119153475Y-76106632D01*
X119315990Y-75863411D01*
X119427932Y-75593158D01*
X119485000Y-75306260D01*
X119485000Y-75013740D01*
X119427932Y-74726842D01*
X119315990Y-74456589D01*
X119153475Y-74213368D01*
X118946632Y-74006525D01*
X118772240Y-73890000D01*
X118946632Y-73773475D01*
X119153475Y-73566632D01*
X119315990Y-73323411D01*
X119427932Y-73053158D01*
X119485000Y-72766260D01*
X119485000Y-72473740D01*
X119427932Y-72186842D01*
X119315990Y-71916589D01*
X119153475Y-71673368D01*
X118946632Y-71466525D01*
X118772240Y-71350000D01*
X118946632Y-71233475D01*
X119153475Y-71026632D01*
X119315990Y-70783411D01*
X119427932Y-70513158D01*
X119485000Y-70226260D01*
X119485000Y-69933740D01*
X119427932Y-69646842D01*
X119315990Y-69376589D01*
X119153475Y-69133368D01*
X118946632Y-68926525D01*
X118772240Y-68810000D01*
X118946632Y-68693475D01*
X119113693Y-68526414D01*
X125780000Y-75192721D01*
G36*
X116515000Y-75306260D02*
G01*
X116558790Y-75526408D01*
X112489003Y-79596196D01*
X112459999Y-79619999D01*
X112410757Y-79680001D01*
X112365026Y-79735724D01*
X112340292Y-79781998D01*
X112294454Y-79867754D01*
X112250997Y-80011015D01*
X112240000Y-80122668D01*
X112240000Y-80122678D01*
X112236324Y-80160000D01*
X112240000Y-80197322D01*
X112240001Y-90296296D01*
X112196063Y-90340234D01*
X112082795Y-90509752D01*
X112035000Y-90625139D01*
X112035000Y-90462061D01*
X111995226Y-90262102D01*
X111917205Y-90073744D01*
X111803937Y-89904226D01*
X111760000Y-89860289D01*
X111760000Y-79934801D01*
X116515000Y-75179802D01*
X116515000Y-75306260D01*
G37*
X116515000Y-75306260D02*
X116558790Y-75526408D01*
X112489003Y-79596196D01*
X112459999Y-79619999D01*
X112410757Y-79680001D01*
X112365026Y-79735724D01*
X112340292Y-79781998D01*
X112294454Y-79867754D01*
X112250997Y-80011015D01*
X112240000Y-80122668D01*
X112240000Y-80122678D01*
X112236324Y-80160000D01*
X112240000Y-80197322D01*
X112240001Y-90296296D01*
X112196063Y-90340234D01*
X112082795Y-90509752D01*
X112035000Y-90625139D01*
X112035000Y-90462061D01*
X111995226Y-90262102D01*
X111917205Y-90073744D01*
X111803937Y-89904226D01*
X111760000Y-89860289D01*
X111760000Y-79934801D01*
X116515000Y-75179802D01*
X116515000Y-75306260D01*
G36*
X116515000Y-77846260D02*
G01*
X116572068Y-78133158D01*
X116684010Y-78403411D01*
X116846525Y-78646632D01*
X117053368Y-78853475D01*
X117240000Y-78978179D01*
X117240001Y-86638197D01*
X115492199Y-88386000D01*
X115430061Y-88386000D01*
X115230102Y-88425774D01*
X115041744Y-88503795D01*
X114872226Y-88617063D01*
X114728063Y-88761226D01*
X114614795Y-88930744D01*
X114536774Y-89119102D01*
X114497000Y-89319061D01*
X114497000Y-89522939D01*
X114536774Y-89722898D01*
X114614795Y-89911256D01*
X114728063Y-90080774D01*
X114872226Y-90224937D01*
X114894781Y-90240008D01*
X113760000Y-90240008D01*
X113760000Y-80474801D01*
X116515000Y-77719802D01*
X116515000Y-77846260D01*
G37*
X116515000Y-77846260D02*
X116572068Y-78133158D01*
X116684010Y-78403411D01*
X116846525Y-78646632D01*
X117053368Y-78853475D01*
X117240000Y-78978179D01*
X117240001Y-86638197D01*
X115492199Y-88386000D01*
X115430061Y-88386000D01*
X115230102Y-88425774D01*
X115041744Y-88503795D01*
X114872226Y-88617063D01*
X114728063Y-88761226D01*
X114614795Y-88930744D01*
X114536774Y-89119102D01*
X114497000Y-89319061D01*
X114497000Y-89522939D01*
X114536774Y-89722898D01*
X114614795Y-89911256D01*
X114728063Y-90080774D01*
X114872226Y-90224937D01*
X114894781Y-90240008D01*
X113760000Y-90240008D01*
X113760000Y-80474801D01*
X116515000Y-77719802D01*
X116515000Y-77846260D01*
G36*
X116846525Y-71026632D02*
G01*
X117053368Y-71233475D01*
X117227760Y-71350000D01*
X117053368Y-71466525D01*
X116846525Y-71673368D01*
X116684010Y-71916589D01*
X116572068Y-72186842D01*
X116515000Y-72473740D01*
X116515000Y-72766260D01*
X116558790Y-72986408D01*
X110958000Y-78587199D01*
X110958000Y-72116801D01*
X112234802Y-70840000D01*
X116721822Y-70840000D01*
X116846525Y-71026632D01*
G37*
X116846525Y-71026632D02*
X117053368Y-71233475D01*
X117227760Y-71350000D01*
X117053368Y-71466525D01*
X116846525Y-71673368D01*
X116684010Y-71916589D01*
X116572068Y-72186842D01*
X116515000Y-72473740D01*
X116515000Y-72766260D01*
X116558790Y-72986408D01*
X110958000Y-78587199D01*
X110958000Y-72116801D01*
X112234802Y-70840000D01*
X116721822Y-70840000D01*
X116846525Y-71026632D01*
M02*
