M48
; DRILL file {KiCad 7.0.5.1-1-g8f565ef7f0-dirty-deb11} date Wed Jun 21 17:13:58 2023
; FORMAT={-:-/ absolute / inch / decimal}
; #@! TF.CreationDate,2023-06-21T17:13:58+00:00
; #@! TF.GenerationSoftware,Kicad,Pcbnew,7.0.5.1-1-g8f565ef7f0-dirty-deb11
; #@! TF.FileFunction,Plated,1,4,PTH
FMAT,2
INCH
; #@! TA.AperFunction,Plated,PTH,ComponentDrill
T1C0.0079
; #@! TA.AperFunction,Plated,PTH,ViaDrill
T2C0.0157
; #@! TA.AperFunction,Plated,PTH,ComponentDrill
T3C0.0197
; #@! TA.AperFunction,Plated,PTH,ComponentDrill
T4C0.0350
; #@! TA.AperFunction,Plated,PTH,ComponentDrill
T5C0.1260
%
G90
G05
T1
X3.7426Y-3.6782
X3.7426Y-3.7382
X3.7726Y-3.6482
X3.7726Y-3.7082
X3.7726Y-3.7683
X3.8026Y-3.6782
X3.8026Y-3.7382
X3.8326Y-3.6482
X3.8326Y-3.7082
X3.8326Y-3.7683
X3.8626Y-3.6782
X3.8626Y-3.7382
T2
X1.68Y-4.605
X1.76Y-4.296
X1.91Y-3.54
X2.18Y-3.29
X2.31Y-3.54
X2.31Y-3.8
X2.315Y-4.345
X2.4755Y-3.4485
X2.476Y-3.414
X2.51Y-3.414
X2.51Y-3.448
X2.6Y-4.27
X2.6647Y-4.3038
X2.6669Y-4.3431
X2.805Y-4.095
X2.82Y-4.14
X2.83Y-4.62
X2.94Y-4.09
X2.975Y-3.5
X3.045Y-3.96
X3.075Y-4.485
X3.5616Y-4.365
X3.603Y-4.365
X3.72Y-4.25
X3.72Y-4.33
X3.96Y-3.96
X4.02Y-3.31
X4.02Y-3.96
T4
X1.6161Y-3.4446
X1.6161Y-3.9957
X1.6161Y-3.3646
X1.6161Y-3.5246
X1.6161Y-3.9157
X1.6161Y-4.0757
X1.6961Y-3.4046
X1.6961Y-3.4846
X1.6961Y-3.5646
X1.6961Y-3.9557
X1.6961Y-4.0357
X1.6961Y-4.1157
T5
X1.378Y-2.9528
X1.378Y-4.5276
X3.937Y-2.9528
X3.937Y-4.5276
T3
G00X3.4652Y-4.6462
M15
G01X3.4652Y-4.6738
M16
G05
G00X3.725Y-4.6462
M15
G01X3.725Y-4.6738
M16
G05
T0
M30
