G04 #@! TF.GenerationSoftware,KiCad,Pcbnew,5.1.10-88a1d61d58~90~ubuntu21.04.1*
G04 #@! TF.CreationDate,2021-08-23T11:27:44+02:00*
G04 #@! TF.ProjectId,DccDecoder,44636344-6563-46f6-9465-722e6b696361,rev?*
G04 #@! TF.SameCoordinates,Original*
G04 #@! TF.FileFunction,Legend,Bot*
G04 #@! TF.FilePolarity,Positive*
%FSLAX46Y46*%
G04 Gerber Fmt 4.6, Leading zero omitted, Abs format (unit mm)*
G04 Created by KiCad (PCBNEW 5.1.10-88a1d61d58~90~ubuntu21.04.1) date 2021-08-23 11:27:44*
%MOMM*%
%LPD*%
G01*
G04 APERTURE LIST*
%ADD10C,0.150000*%
%ADD11C,0.200000*%
%ADD12C,2.400000*%
%ADD13R,2.400000X2.400000*%
%ADD14C,4.700000*%
%ADD15O,1.950000X1.700000*%
%ADD16R,3.500000X3.500000*%
%ADD17O,1.700000X1.700000*%
%ADD18R,1.700000X1.700000*%
%ADD19O,2.000000X1.700000*%
G04 APERTURE END LIST*
D10*
X39448809Y-28011428D02*
X38686904Y-28011428D01*
X39067857Y-28392380D02*
X39067857Y-27630476D01*
X36925000Y-28392380D02*
X37496428Y-28392380D01*
X37210714Y-28392380D02*
X37210714Y-27392380D01*
X37305952Y-27535238D01*
X37401190Y-27630476D01*
X37496428Y-27678095D01*
X36544047Y-27487619D02*
X36496428Y-27440000D01*
X36401190Y-27392380D01*
X36163095Y-27392380D01*
X36067857Y-27440000D01*
X36020238Y-27487619D01*
X35972619Y-27582857D01*
X35972619Y-27678095D01*
X36020238Y-27820952D01*
X36591666Y-28392380D01*
X35972619Y-28392380D01*
X35686904Y-27392380D02*
X35353571Y-28392380D01*
X35020238Y-27392380D01*
X33925000Y-28392380D02*
X33925000Y-27392380D01*
X33686904Y-27392380D01*
X33544047Y-27440000D01*
X33448809Y-27535238D01*
X33401190Y-27630476D01*
X33353571Y-27820952D01*
X33353571Y-27963809D01*
X33401190Y-28154285D01*
X33448809Y-28249523D01*
X33544047Y-28344761D01*
X33686904Y-28392380D01*
X33925000Y-28392380D01*
X32353571Y-28297142D02*
X32401190Y-28344761D01*
X32544047Y-28392380D01*
X32639285Y-28392380D01*
X32782142Y-28344761D01*
X32877380Y-28249523D01*
X32925000Y-28154285D01*
X32972619Y-27963809D01*
X32972619Y-27820952D01*
X32925000Y-27630476D01*
X32877380Y-27535238D01*
X32782142Y-27440000D01*
X32639285Y-27392380D01*
X32544047Y-27392380D01*
X32401190Y-27440000D01*
X32353571Y-27487619D01*
X31163095Y-28011428D02*
X30401190Y-28011428D01*
X104280690Y-25425380D02*
X104280690Y-26139666D01*
X104328309Y-26282523D01*
X104423547Y-26377761D01*
X104566404Y-26425380D01*
X104661642Y-26425380D01*
X103804500Y-26425380D02*
X103804500Y-25425380D01*
X103423547Y-25425380D01*
X103328309Y-25473000D01*
X103280690Y-25520619D01*
X103233071Y-25615857D01*
X103233071Y-25758714D01*
X103280690Y-25853952D01*
X103328309Y-25901571D01*
X103423547Y-25949190D01*
X103804500Y-25949190D01*
X102280690Y-26425380D02*
X102852119Y-26425380D01*
X102566404Y-26425380D02*
X102566404Y-25425380D01*
X102661642Y-25568238D01*
X102756880Y-25663476D01*
X102852119Y-25711095D01*
X100280690Y-26425380D02*
X100328309Y-26425380D01*
X100423547Y-26377761D01*
X100566404Y-26234904D01*
X100804500Y-25949190D01*
X100899738Y-25806333D01*
X100947357Y-25663476D01*
X100947357Y-25568238D01*
X100899738Y-25473000D01*
X100804500Y-25425380D01*
X100756880Y-25425380D01*
X100661642Y-25473000D01*
X100614023Y-25568238D01*
X100614023Y-25615857D01*
X100661642Y-25711095D01*
X100709261Y-25758714D01*
X100994976Y-25949190D01*
X101042595Y-25996809D01*
X101090214Y-26092047D01*
X101090214Y-26234904D01*
X101042595Y-26330142D01*
X100994976Y-26377761D01*
X100899738Y-26425380D01*
X100756880Y-26425380D01*
X100661642Y-26377761D01*
X100614023Y-26330142D01*
X100471166Y-26139666D01*
X100423547Y-25996809D01*
X100423547Y-25901571D01*
X98804500Y-25425380D02*
X98804500Y-26139666D01*
X98852119Y-26282523D01*
X98947357Y-26377761D01*
X99090214Y-26425380D01*
X99185452Y-26425380D01*
X98328309Y-26425380D02*
X98328309Y-25425380D01*
X97947357Y-25425380D01*
X97852119Y-25473000D01*
X97804500Y-25520619D01*
X97756880Y-25615857D01*
X97756880Y-25758714D01*
X97804500Y-25853952D01*
X97852119Y-25901571D01*
X97947357Y-25949190D01*
X98328309Y-25949190D01*
X97375928Y-25520619D02*
X97328309Y-25473000D01*
X97233071Y-25425380D01*
X96994976Y-25425380D01*
X96899738Y-25473000D01*
X96852119Y-25520619D01*
X96804500Y-25615857D01*
X96804500Y-25711095D01*
X96852119Y-25853952D01*
X97423547Y-26425380D01*
X96804500Y-26425380D01*
X95185452Y-26377761D02*
X95280690Y-26425380D01*
X95471166Y-26425380D01*
X95566404Y-26377761D01*
X95614023Y-26330142D01*
X95661642Y-26234904D01*
X95661642Y-25949190D01*
X95614023Y-25853952D01*
X95566404Y-25806333D01*
X95471166Y-25758714D01*
X95280690Y-25758714D01*
X95185452Y-25806333D01*
X94328309Y-25758714D02*
X94328309Y-26425380D01*
X94756880Y-25758714D02*
X94756880Y-26282523D01*
X94709261Y-26377761D01*
X94614023Y-26425380D01*
X94471166Y-26425380D01*
X94375928Y-26377761D01*
X94328309Y-26330142D01*
X93994976Y-25758714D02*
X93614023Y-25758714D01*
X93852119Y-25425380D02*
X93852119Y-26282523D01*
X93804500Y-26377761D01*
X93709261Y-26425380D01*
X93614023Y-26425380D01*
X92661642Y-25758714D02*
X92280690Y-25758714D01*
X92518785Y-25425380D02*
X92518785Y-26282523D01*
X92471166Y-26377761D01*
X92375928Y-26425380D01*
X92280690Y-26425380D01*
X91804500Y-26425380D02*
X91899738Y-26377761D01*
X91947357Y-26330142D01*
X91994976Y-26234904D01*
X91994976Y-25949190D01*
X91947357Y-25853952D01*
X91899738Y-25806333D01*
X91804500Y-25758714D01*
X91661642Y-25758714D01*
X91566404Y-25806333D01*
X91518785Y-25853952D01*
X91471166Y-25949190D01*
X91471166Y-26234904D01*
X91518785Y-26330142D01*
X91566404Y-26377761D01*
X91661642Y-26425380D01*
X91804500Y-26425380D01*
X90280690Y-26425380D02*
X90280690Y-25758714D01*
X90280690Y-25949190D02*
X90233071Y-25853952D01*
X90185452Y-25806333D01*
X90090214Y-25758714D01*
X89994976Y-25758714D01*
X89280690Y-26377761D02*
X89375928Y-26425380D01*
X89566404Y-26425380D01*
X89661642Y-26377761D01*
X89709261Y-26282523D01*
X89709261Y-25901571D01*
X89661642Y-25806333D01*
X89566404Y-25758714D01*
X89375928Y-25758714D01*
X89280690Y-25806333D01*
X89233071Y-25901571D01*
X89233071Y-25996809D01*
X89709261Y-26092047D01*
X88804500Y-26425380D02*
X88804500Y-25758714D01*
X88804500Y-25853952D02*
X88756880Y-25806333D01*
X88661642Y-25758714D01*
X88518785Y-25758714D01*
X88423547Y-25806333D01*
X88375928Y-25901571D01*
X88375928Y-26425380D01*
X88375928Y-25901571D02*
X88328309Y-25806333D01*
X88233071Y-25758714D01*
X88090214Y-25758714D01*
X87994976Y-25806333D01*
X87947357Y-25901571D01*
X87947357Y-26425380D01*
X87328309Y-26425380D02*
X87423547Y-26377761D01*
X87471166Y-26330142D01*
X87518785Y-26234904D01*
X87518785Y-25949190D01*
X87471166Y-25853952D01*
X87423547Y-25806333D01*
X87328309Y-25758714D01*
X87185452Y-25758714D01*
X87090214Y-25806333D01*
X87042595Y-25853952D01*
X86994976Y-25949190D01*
X86994976Y-26234904D01*
X87042595Y-26330142D01*
X87090214Y-26377761D01*
X87185452Y-26425380D01*
X87328309Y-26425380D01*
X86661642Y-25758714D02*
X86423547Y-26425380D01*
X86185452Y-25758714D01*
X85423547Y-26377761D02*
X85518785Y-26425380D01*
X85709261Y-26425380D01*
X85804500Y-26377761D01*
X85852119Y-26282523D01*
X85852119Y-25901571D01*
X85804500Y-25806333D01*
X85709261Y-25758714D01*
X85518785Y-25758714D01*
X85423547Y-25806333D01*
X85375928Y-25901571D01*
X85375928Y-25996809D01*
X85852119Y-26092047D01*
X84185452Y-26425380D02*
X84185452Y-25425380D01*
X83947357Y-25425380D01*
X83804500Y-25473000D01*
X83709261Y-25568238D01*
X83661642Y-25663476D01*
X83614023Y-25853952D01*
X83614023Y-25996809D01*
X83661642Y-26187285D01*
X83709261Y-26282523D01*
X83804500Y-26377761D01*
X83947357Y-26425380D01*
X84185452Y-26425380D01*
X82614023Y-26330142D02*
X82661642Y-26377761D01*
X82804500Y-26425380D01*
X82899738Y-26425380D01*
X83042595Y-26377761D01*
X83137833Y-26282523D01*
X83185452Y-26187285D01*
X83233071Y-25996809D01*
X83233071Y-25853952D01*
X83185452Y-25663476D01*
X83137833Y-25568238D01*
X83042595Y-25473000D01*
X82899738Y-25425380D01*
X82804500Y-25425380D01*
X82661642Y-25473000D01*
X82614023Y-25520619D01*
X81614023Y-26330142D02*
X81661642Y-26377761D01*
X81804500Y-26425380D01*
X81899738Y-26425380D01*
X82042595Y-26377761D01*
X82137833Y-26282523D01*
X82185452Y-26187285D01*
X82233071Y-25996809D01*
X82233071Y-25853952D01*
X82185452Y-25663476D01*
X82137833Y-25568238D01*
X82042595Y-25473000D01*
X81899738Y-25425380D01*
X81804500Y-25425380D01*
X81661642Y-25473000D01*
X81614023Y-25520619D01*
X80423547Y-26425380D02*
X80423547Y-25425380D01*
X80042595Y-25425380D01*
X79947357Y-25473000D01*
X79899738Y-25520619D01*
X79852119Y-25615857D01*
X79852119Y-25758714D01*
X79899738Y-25853952D01*
X79947357Y-25901571D01*
X80042595Y-25949190D01*
X80423547Y-25949190D01*
X79280690Y-26425380D02*
X79375928Y-26377761D01*
X79423547Y-26330142D01*
X79471166Y-26234904D01*
X79471166Y-25949190D01*
X79423547Y-25853952D01*
X79375928Y-25806333D01*
X79280690Y-25758714D01*
X79137833Y-25758714D01*
X79042595Y-25806333D01*
X78994976Y-25853952D01*
X78947357Y-25949190D01*
X78947357Y-26234904D01*
X78994976Y-26330142D01*
X79042595Y-26377761D01*
X79137833Y-26425380D01*
X79280690Y-26425380D01*
X78614023Y-25758714D02*
X78423547Y-26425380D01*
X78233071Y-25949190D01*
X78042595Y-26425380D01*
X77852119Y-25758714D01*
X77090214Y-26377761D02*
X77185452Y-26425380D01*
X77375928Y-26425380D01*
X77471166Y-26377761D01*
X77518785Y-26282523D01*
X77518785Y-25901571D01*
X77471166Y-25806333D01*
X77375928Y-25758714D01*
X77185452Y-25758714D01*
X77090214Y-25806333D01*
X77042595Y-25901571D01*
X77042595Y-25996809D01*
X77518785Y-26092047D01*
X76614023Y-26425380D02*
X76614023Y-25758714D01*
X76614023Y-25949190D02*
X76566404Y-25853952D01*
X76518785Y-25806333D01*
X76423547Y-25758714D01*
X76328309Y-25758714D01*
X74804500Y-26425380D02*
X74804500Y-25901571D01*
X74852119Y-25806333D01*
X74947357Y-25758714D01*
X75137833Y-25758714D01*
X75233071Y-25806333D01*
X74804500Y-26377761D02*
X74899738Y-26425380D01*
X75137833Y-26425380D01*
X75233071Y-26377761D01*
X75280690Y-26282523D01*
X75280690Y-26187285D01*
X75233071Y-26092047D01*
X75137833Y-26044428D01*
X74899738Y-26044428D01*
X74804500Y-25996809D01*
X74328309Y-25758714D02*
X74328309Y-26425380D01*
X74328309Y-25853952D02*
X74280690Y-25806333D01*
X74185452Y-25758714D01*
X74042595Y-25758714D01*
X73947357Y-25806333D01*
X73899738Y-25901571D01*
X73899738Y-26425380D01*
X72994976Y-26425380D02*
X72994976Y-25425380D01*
X72994976Y-26377761D02*
X73090214Y-26425380D01*
X73280690Y-26425380D01*
X73375928Y-26377761D01*
X73423547Y-26330142D01*
X73471166Y-26234904D01*
X73471166Y-25949190D01*
X73423547Y-25853952D01*
X73375928Y-25806333D01*
X73280690Y-25758714D01*
X73090214Y-25758714D01*
X72994976Y-25806333D01*
X71804500Y-26139666D02*
X71328309Y-26139666D01*
X71899738Y-26425380D02*
X71566404Y-25425380D01*
X71233071Y-26425380D01*
X70328309Y-26330142D02*
X70375928Y-26377761D01*
X70518785Y-26425380D01*
X70614023Y-26425380D01*
X70756880Y-26377761D01*
X70852119Y-26282523D01*
X70899738Y-26187285D01*
X70947357Y-25996809D01*
X70947357Y-25853952D01*
X70899738Y-25663476D01*
X70852119Y-25568238D01*
X70756880Y-25473000D01*
X70614023Y-25425380D01*
X70518785Y-25425380D01*
X70375928Y-25473000D01*
X70328309Y-25520619D01*
X69899738Y-26425380D02*
X69899738Y-25425380D01*
X69328309Y-26425380D02*
X69756880Y-25853952D01*
X69328309Y-25425380D02*
X69899738Y-25996809D01*
X104280690Y-27075380D02*
X104280690Y-27789666D01*
X104328309Y-27932523D01*
X104423547Y-28027761D01*
X104566404Y-28075380D01*
X104661642Y-28075380D01*
X103804500Y-28075380D02*
X103804500Y-27075380D01*
X103423547Y-27075380D01*
X103328309Y-27123000D01*
X103280690Y-27170619D01*
X103233071Y-27265857D01*
X103233071Y-27408714D01*
X103280690Y-27503952D01*
X103328309Y-27551571D01*
X103423547Y-27599190D01*
X103804500Y-27599190D01*
X102899738Y-27075380D02*
X102280690Y-27075380D01*
X102614023Y-27456333D01*
X102471166Y-27456333D01*
X102375928Y-27503952D01*
X102328309Y-27551571D01*
X102280690Y-27646809D01*
X102280690Y-27884904D01*
X102328309Y-27980142D01*
X102375928Y-28027761D01*
X102471166Y-28075380D01*
X102756880Y-28075380D01*
X102852119Y-28027761D01*
X102899738Y-27980142D01*
X100280690Y-28075380D02*
X100328309Y-28075380D01*
X100423547Y-28027761D01*
X100566404Y-27884904D01*
X100804500Y-27599190D01*
X100899738Y-27456333D01*
X100947357Y-27313476D01*
X100947357Y-27218238D01*
X100899738Y-27123000D01*
X100804500Y-27075380D01*
X100756880Y-27075380D01*
X100661642Y-27123000D01*
X100614023Y-27218238D01*
X100614023Y-27265857D01*
X100661642Y-27361095D01*
X100709261Y-27408714D01*
X100994976Y-27599190D01*
X101042595Y-27646809D01*
X101090214Y-27742047D01*
X101090214Y-27884904D01*
X101042595Y-27980142D01*
X100994976Y-28027761D01*
X100899738Y-28075380D01*
X100756880Y-28075380D01*
X100661642Y-28027761D01*
X100614023Y-27980142D01*
X100471166Y-27789666D01*
X100423547Y-27646809D01*
X100423547Y-27551571D01*
X98804500Y-27075380D02*
X98804500Y-27789666D01*
X98852119Y-27932523D01*
X98947357Y-28027761D01*
X99090214Y-28075380D01*
X99185452Y-28075380D01*
X98328309Y-28075380D02*
X98328309Y-27075380D01*
X97947357Y-27075380D01*
X97852119Y-27123000D01*
X97804500Y-27170619D01*
X97756880Y-27265857D01*
X97756880Y-27408714D01*
X97804500Y-27503952D01*
X97852119Y-27551571D01*
X97947357Y-27599190D01*
X98328309Y-27599190D01*
X96899738Y-27408714D02*
X96899738Y-28075380D01*
X97137833Y-27027761D02*
X97375928Y-27742047D01*
X96756880Y-27742047D01*
X95185452Y-28027761D02*
X95280690Y-28075380D01*
X95471166Y-28075380D01*
X95566404Y-28027761D01*
X95614023Y-27980142D01*
X95661642Y-27884904D01*
X95661642Y-27599190D01*
X95614023Y-27503952D01*
X95566404Y-27456333D01*
X95471166Y-27408714D01*
X95280690Y-27408714D01*
X95185452Y-27456333D01*
X94328309Y-27408714D02*
X94328309Y-28075380D01*
X94756880Y-27408714D02*
X94756880Y-27932523D01*
X94709261Y-28027761D01*
X94614023Y-28075380D01*
X94471166Y-28075380D01*
X94375928Y-28027761D01*
X94328309Y-27980142D01*
X93994976Y-27408714D02*
X93614023Y-27408714D01*
X93852119Y-27075380D02*
X93852119Y-27932523D01*
X93804500Y-28027761D01*
X93709261Y-28075380D01*
X93614023Y-28075380D01*
X92661642Y-27408714D02*
X92280690Y-27408714D01*
X92518785Y-27075380D02*
X92518785Y-27932523D01*
X92471166Y-28027761D01*
X92375928Y-28075380D01*
X92280690Y-28075380D01*
X91804500Y-28075380D02*
X91899738Y-28027761D01*
X91947357Y-27980142D01*
X91994976Y-27884904D01*
X91994976Y-27599190D01*
X91947357Y-27503952D01*
X91899738Y-27456333D01*
X91804500Y-27408714D01*
X91661642Y-27408714D01*
X91566404Y-27456333D01*
X91518785Y-27503952D01*
X91471166Y-27599190D01*
X91471166Y-27884904D01*
X91518785Y-27980142D01*
X91566404Y-28027761D01*
X91661642Y-28075380D01*
X91804500Y-28075380D01*
X90280690Y-28075380D02*
X90280690Y-27408714D01*
X90280690Y-27599190D02*
X90233071Y-27503952D01*
X90185452Y-27456333D01*
X90090214Y-27408714D01*
X89994976Y-27408714D01*
X89280690Y-28027761D02*
X89375928Y-28075380D01*
X89566404Y-28075380D01*
X89661642Y-28027761D01*
X89709261Y-27932523D01*
X89709261Y-27551571D01*
X89661642Y-27456333D01*
X89566404Y-27408714D01*
X89375928Y-27408714D01*
X89280690Y-27456333D01*
X89233071Y-27551571D01*
X89233071Y-27646809D01*
X89709261Y-27742047D01*
X88804500Y-28075380D02*
X88804500Y-27408714D01*
X88804500Y-27503952D02*
X88756880Y-27456333D01*
X88661642Y-27408714D01*
X88518785Y-27408714D01*
X88423547Y-27456333D01*
X88375928Y-27551571D01*
X88375928Y-28075380D01*
X88375928Y-27551571D02*
X88328309Y-27456333D01*
X88233071Y-27408714D01*
X88090214Y-27408714D01*
X87994976Y-27456333D01*
X87947357Y-27551571D01*
X87947357Y-28075380D01*
X87328309Y-28075380D02*
X87423547Y-28027761D01*
X87471166Y-27980142D01*
X87518785Y-27884904D01*
X87518785Y-27599190D01*
X87471166Y-27503952D01*
X87423547Y-27456333D01*
X87328309Y-27408714D01*
X87185452Y-27408714D01*
X87090214Y-27456333D01*
X87042595Y-27503952D01*
X86994976Y-27599190D01*
X86994976Y-27884904D01*
X87042595Y-27980142D01*
X87090214Y-28027761D01*
X87185452Y-28075380D01*
X87328309Y-28075380D01*
X86661642Y-27408714D02*
X86423547Y-28075380D01*
X86185452Y-27408714D01*
X85423547Y-28027761D02*
X85518785Y-28075380D01*
X85709261Y-28075380D01*
X85804500Y-28027761D01*
X85852119Y-27932523D01*
X85852119Y-27551571D01*
X85804500Y-27456333D01*
X85709261Y-27408714D01*
X85518785Y-27408714D01*
X85423547Y-27456333D01*
X85375928Y-27551571D01*
X85375928Y-27646809D01*
X85852119Y-27742047D01*
X84185452Y-28075380D02*
X84185452Y-27075380D01*
X83947357Y-27075380D01*
X83804500Y-27123000D01*
X83709261Y-27218238D01*
X83661642Y-27313476D01*
X83614023Y-27503952D01*
X83614023Y-27646809D01*
X83661642Y-27837285D01*
X83709261Y-27932523D01*
X83804500Y-28027761D01*
X83947357Y-28075380D01*
X84185452Y-28075380D01*
X82614023Y-27980142D02*
X82661642Y-28027761D01*
X82804500Y-28075380D01*
X82899738Y-28075380D01*
X83042595Y-28027761D01*
X83137833Y-27932523D01*
X83185452Y-27837285D01*
X83233071Y-27646809D01*
X83233071Y-27503952D01*
X83185452Y-27313476D01*
X83137833Y-27218238D01*
X83042595Y-27123000D01*
X82899738Y-27075380D01*
X82804500Y-27075380D01*
X82661642Y-27123000D01*
X82614023Y-27170619D01*
X81614023Y-27980142D02*
X81661642Y-28027761D01*
X81804500Y-28075380D01*
X81899738Y-28075380D01*
X82042595Y-28027761D01*
X82137833Y-27932523D01*
X82185452Y-27837285D01*
X82233071Y-27646809D01*
X82233071Y-27503952D01*
X82185452Y-27313476D01*
X82137833Y-27218238D01*
X82042595Y-27123000D01*
X81899738Y-27075380D01*
X81804500Y-27075380D01*
X81661642Y-27123000D01*
X81614023Y-27170619D01*
X80423547Y-28075380D02*
X80423547Y-27075380D01*
X80042595Y-27075380D01*
X79947357Y-27123000D01*
X79899738Y-27170619D01*
X79852119Y-27265857D01*
X79852119Y-27408714D01*
X79899738Y-27503952D01*
X79947357Y-27551571D01*
X80042595Y-27599190D01*
X80423547Y-27599190D01*
X79280690Y-28075380D02*
X79375928Y-28027761D01*
X79423547Y-27980142D01*
X79471166Y-27884904D01*
X79471166Y-27599190D01*
X79423547Y-27503952D01*
X79375928Y-27456333D01*
X79280690Y-27408714D01*
X79137833Y-27408714D01*
X79042595Y-27456333D01*
X78994976Y-27503952D01*
X78947357Y-27599190D01*
X78947357Y-27884904D01*
X78994976Y-27980142D01*
X79042595Y-28027761D01*
X79137833Y-28075380D01*
X79280690Y-28075380D01*
X78614023Y-27408714D02*
X78423547Y-28075380D01*
X78233071Y-27599190D01*
X78042595Y-28075380D01*
X77852119Y-27408714D01*
X77090214Y-28027761D02*
X77185452Y-28075380D01*
X77375928Y-28075380D01*
X77471166Y-28027761D01*
X77518785Y-27932523D01*
X77518785Y-27551571D01*
X77471166Y-27456333D01*
X77375928Y-27408714D01*
X77185452Y-27408714D01*
X77090214Y-27456333D01*
X77042595Y-27551571D01*
X77042595Y-27646809D01*
X77518785Y-27742047D01*
X76614023Y-28075380D02*
X76614023Y-27408714D01*
X76614023Y-27599190D02*
X76566404Y-27503952D01*
X76518785Y-27456333D01*
X76423547Y-27408714D01*
X76328309Y-27408714D01*
X104280690Y-28725380D02*
X104280690Y-29439666D01*
X104328309Y-29582523D01*
X104423547Y-29677761D01*
X104566404Y-29725380D01*
X104661642Y-29725380D01*
X103804500Y-29725380D02*
X103804500Y-28725380D01*
X103423547Y-28725380D01*
X103328309Y-28773000D01*
X103280690Y-28820619D01*
X103233071Y-28915857D01*
X103233071Y-29058714D01*
X103280690Y-29153952D01*
X103328309Y-29201571D01*
X103423547Y-29249190D01*
X103804500Y-29249190D01*
X102328309Y-28725380D02*
X102804500Y-28725380D01*
X102852119Y-29201571D01*
X102804500Y-29153952D01*
X102709261Y-29106333D01*
X102471166Y-29106333D01*
X102375928Y-29153952D01*
X102328309Y-29201571D01*
X102280690Y-29296809D01*
X102280690Y-29534904D01*
X102328309Y-29630142D01*
X102375928Y-29677761D01*
X102471166Y-29725380D01*
X102709261Y-29725380D01*
X102804500Y-29677761D01*
X102852119Y-29630142D01*
X101804500Y-29677761D02*
X101804500Y-29725380D01*
X101852119Y-29820619D01*
X101899738Y-29868238D01*
X100328309Y-28725380D02*
X100328309Y-29439666D01*
X100375928Y-29582523D01*
X100471166Y-29677761D01*
X100614023Y-29725380D01*
X100709261Y-29725380D01*
X99852119Y-29725380D02*
X99852119Y-28725380D01*
X99471166Y-28725380D01*
X99375928Y-28773000D01*
X99328309Y-28820619D01*
X99280690Y-28915857D01*
X99280690Y-29058714D01*
X99328309Y-29153952D01*
X99375928Y-29201571D01*
X99471166Y-29249190D01*
X99852119Y-29249190D01*
X98423547Y-28725380D02*
X98614023Y-28725380D01*
X98709261Y-28773000D01*
X98756880Y-28820619D01*
X98852119Y-28963476D01*
X98899738Y-29153952D01*
X98899738Y-29534904D01*
X98852119Y-29630142D01*
X98804500Y-29677761D01*
X98709261Y-29725380D01*
X98518785Y-29725380D01*
X98423547Y-29677761D01*
X98375928Y-29630142D01*
X98328309Y-29534904D01*
X98328309Y-29296809D01*
X98375928Y-29201571D01*
X98423547Y-29153952D01*
X98518785Y-29106333D01*
X98709261Y-29106333D01*
X98804500Y-29153952D01*
X98852119Y-29201571D01*
X98899738Y-29296809D01*
X96328309Y-29725380D02*
X96375928Y-29725380D01*
X96471166Y-29677761D01*
X96614023Y-29534904D01*
X96852119Y-29249190D01*
X96947357Y-29106333D01*
X96994976Y-28963476D01*
X96994976Y-28868238D01*
X96947357Y-28773000D01*
X96852119Y-28725380D01*
X96804500Y-28725380D01*
X96709261Y-28773000D01*
X96661642Y-28868238D01*
X96661642Y-28915857D01*
X96709261Y-29011095D01*
X96756880Y-29058714D01*
X97042595Y-29249190D01*
X97090214Y-29296809D01*
X97137833Y-29392047D01*
X97137833Y-29534904D01*
X97090214Y-29630142D01*
X97042595Y-29677761D01*
X96947357Y-29725380D01*
X96804500Y-29725380D01*
X96709261Y-29677761D01*
X96661642Y-29630142D01*
X96518785Y-29439666D01*
X96471166Y-29296809D01*
X96471166Y-29201571D01*
X94852119Y-28725380D02*
X94852119Y-29439666D01*
X94899738Y-29582523D01*
X94994976Y-29677761D01*
X95137833Y-29725380D01*
X95233071Y-29725380D01*
X94375928Y-29725380D02*
X94375928Y-28725380D01*
X93994976Y-28725380D01*
X93899738Y-28773000D01*
X93852119Y-28820619D01*
X93804500Y-28915857D01*
X93804500Y-29058714D01*
X93852119Y-29153952D01*
X93899738Y-29201571D01*
X93994976Y-29249190D01*
X94375928Y-29249190D01*
X93471166Y-28725380D02*
X92804500Y-28725380D01*
X93233071Y-29725380D01*
X91233071Y-29677761D02*
X91328309Y-29725380D01*
X91518785Y-29725380D01*
X91614023Y-29677761D01*
X91661642Y-29630142D01*
X91709261Y-29534904D01*
X91709261Y-29249190D01*
X91661642Y-29153952D01*
X91614023Y-29106333D01*
X91518785Y-29058714D01*
X91328309Y-29058714D01*
X91233071Y-29106333D01*
X90375928Y-29058714D02*
X90375928Y-29725380D01*
X90804500Y-29058714D02*
X90804500Y-29582523D01*
X90756880Y-29677761D01*
X90661642Y-29725380D01*
X90518785Y-29725380D01*
X90423547Y-29677761D01*
X90375928Y-29630142D01*
X90042595Y-29058714D02*
X89661642Y-29058714D01*
X89899738Y-28725380D02*
X89899738Y-29582523D01*
X89852119Y-29677761D01*
X89756880Y-29725380D01*
X89661642Y-29725380D01*
X88709261Y-29058714D02*
X88328309Y-29058714D01*
X88566404Y-28725380D02*
X88566404Y-29582523D01*
X88518785Y-29677761D01*
X88423547Y-29725380D01*
X88328309Y-29725380D01*
X87852119Y-29725380D02*
X87947357Y-29677761D01*
X87994976Y-29630142D01*
X88042595Y-29534904D01*
X88042595Y-29249190D01*
X87994976Y-29153952D01*
X87947357Y-29106333D01*
X87852119Y-29058714D01*
X87709261Y-29058714D01*
X87614023Y-29106333D01*
X87566404Y-29153952D01*
X87518785Y-29249190D01*
X87518785Y-29534904D01*
X87566404Y-29630142D01*
X87614023Y-29677761D01*
X87709261Y-29725380D01*
X87852119Y-29725380D01*
X85899738Y-29725380D02*
X85899738Y-28725380D01*
X85899738Y-29677761D02*
X85994976Y-29725380D01*
X86185452Y-29725380D01*
X86280690Y-29677761D01*
X86328309Y-29630142D01*
X86375928Y-29534904D01*
X86375928Y-29249190D01*
X86328309Y-29153952D01*
X86280690Y-29106333D01*
X86185452Y-29058714D01*
X85994976Y-29058714D01*
X85899738Y-29106333D01*
X85423547Y-29725380D02*
X85423547Y-29058714D01*
X85423547Y-28725380D02*
X85471166Y-28773000D01*
X85423547Y-28820619D01*
X85375928Y-28773000D01*
X85423547Y-28725380D01*
X85423547Y-28820619D01*
X84994976Y-29677761D02*
X84899738Y-29725380D01*
X84709261Y-29725380D01*
X84614023Y-29677761D01*
X84566404Y-29582523D01*
X84566404Y-29534904D01*
X84614023Y-29439666D01*
X84709261Y-29392047D01*
X84852119Y-29392047D01*
X84947357Y-29344428D01*
X84994976Y-29249190D01*
X84994976Y-29201571D01*
X84947357Y-29106333D01*
X84852119Y-29058714D01*
X84709261Y-29058714D01*
X84614023Y-29106333D01*
X83709261Y-29725380D02*
X83709261Y-29201571D01*
X83756880Y-29106333D01*
X83852119Y-29058714D01*
X84042595Y-29058714D01*
X84137833Y-29106333D01*
X83709261Y-29677761D02*
X83804500Y-29725380D01*
X84042595Y-29725380D01*
X84137833Y-29677761D01*
X84185452Y-29582523D01*
X84185452Y-29487285D01*
X84137833Y-29392047D01*
X84042595Y-29344428D01*
X83804500Y-29344428D01*
X83709261Y-29296809D01*
X83233071Y-29725380D02*
X83233071Y-28725380D01*
X83233071Y-29106333D02*
X83137833Y-29058714D01*
X82947357Y-29058714D01*
X82852119Y-29106333D01*
X82804500Y-29153952D01*
X82756880Y-29249190D01*
X82756880Y-29534904D01*
X82804500Y-29630142D01*
X82852119Y-29677761D01*
X82947357Y-29725380D01*
X83137833Y-29725380D01*
X83233071Y-29677761D01*
X82185452Y-29725380D02*
X82280690Y-29677761D01*
X82328309Y-29582523D01*
X82328309Y-28725380D01*
X81423547Y-29677761D02*
X81518785Y-29725380D01*
X81709261Y-29725380D01*
X81804500Y-29677761D01*
X81852119Y-29582523D01*
X81852119Y-29201571D01*
X81804500Y-29106333D01*
X81709261Y-29058714D01*
X81518785Y-29058714D01*
X81423547Y-29106333D01*
X81375928Y-29201571D01*
X81375928Y-29296809D01*
X81852119Y-29392047D01*
X80042595Y-29725380D02*
X80137833Y-29677761D01*
X80185452Y-29582523D01*
X80185452Y-28725380D01*
X79280690Y-29677761D02*
X79375928Y-29725380D01*
X79566404Y-29725380D01*
X79661642Y-29677761D01*
X79709261Y-29582523D01*
X79709261Y-29201571D01*
X79661642Y-29106333D01*
X79566404Y-29058714D01*
X79375928Y-29058714D01*
X79280690Y-29106333D01*
X79233071Y-29201571D01*
X79233071Y-29296809D01*
X79709261Y-29392047D01*
X78375928Y-29725380D02*
X78375928Y-28725380D01*
X78375928Y-29677761D02*
X78471166Y-29725380D01*
X78661642Y-29725380D01*
X78756880Y-29677761D01*
X78804500Y-29630142D01*
X78852119Y-29534904D01*
X78852119Y-29249190D01*
X78804500Y-29153952D01*
X78756880Y-29106333D01*
X78661642Y-29058714D01*
X78471166Y-29058714D01*
X78375928Y-29106333D01*
X76852119Y-30106333D02*
X76899738Y-30058714D01*
X76994976Y-29915857D01*
X77042595Y-29820619D01*
X77090214Y-29677761D01*
X77137833Y-29439666D01*
X77137833Y-29249190D01*
X77090214Y-29011095D01*
X77042595Y-28868238D01*
X76994976Y-28773000D01*
X76899738Y-28630142D01*
X76852119Y-28582523D01*
X76566404Y-28725380D02*
X75947357Y-28725380D01*
X76280690Y-29106333D01*
X76137833Y-29106333D01*
X76042595Y-29153952D01*
X75994976Y-29201571D01*
X75947357Y-29296809D01*
X75947357Y-29534904D01*
X75994976Y-29630142D01*
X76042595Y-29677761D01*
X76137833Y-29725380D01*
X76423547Y-29725380D01*
X76518785Y-29677761D01*
X76566404Y-29630142D01*
X75661642Y-28725380D02*
X75328309Y-29725380D01*
X74994976Y-28725380D01*
X74614023Y-29677761D02*
X74614023Y-29725380D01*
X74661642Y-29820619D01*
X74709261Y-29868238D01*
X72947357Y-28725380D02*
X73423547Y-28725380D01*
X73471166Y-29201571D01*
X73423547Y-29153952D01*
X73328309Y-29106333D01*
X73090214Y-29106333D01*
X72994976Y-29153952D01*
X72947357Y-29201571D01*
X72899738Y-29296809D01*
X72899738Y-29534904D01*
X72947357Y-29630142D01*
X72994976Y-29677761D01*
X73090214Y-29725380D01*
X73328309Y-29725380D01*
X73423547Y-29677761D01*
X73471166Y-29630142D01*
X72614023Y-28725380D02*
X72280690Y-29725380D01*
X71947357Y-28725380D01*
X71566404Y-29677761D02*
X71566404Y-29725380D01*
X71614023Y-29820619D01*
X71661642Y-29868238D01*
X70518785Y-28725380D02*
X70185452Y-29725380D01*
X69852119Y-28725380D01*
X69518785Y-29725380D02*
X69518785Y-28725380D01*
X69280690Y-28725380D01*
X69137833Y-28773000D01*
X69042595Y-28868238D01*
X68994976Y-28963476D01*
X68947357Y-29153952D01*
X68947357Y-29296809D01*
X68994976Y-29487285D01*
X69042595Y-29582523D01*
X69137833Y-29677761D01*
X69280690Y-29725380D01*
X69518785Y-29725380D01*
X68518785Y-29725380D02*
X68518785Y-29058714D01*
X68518785Y-29249190D02*
X68471166Y-29153952D01*
X68423547Y-29106333D01*
X68328309Y-29058714D01*
X68233071Y-29058714D01*
X67899738Y-29725380D02*
X67899738Y-29058714D01*
X67899738Y-28725380D02*
X67947357Y-28773000D01*
X67899738Y-28820619D01*
X67852119Y-28773000D01*
X67899738Y-28725380D01*
X67899738Y-28820619D01*
X67518785Y-29058714D02*
X67280690Y-29725380D01*
X67042595Y-29058714D01*
X66280690Y-29677761D02*
X66375928Y-29725380D01*
X66566404Y-29725380D01*
X66661642Y-29677761D01*
X66709261Y-29582523D01*
X66709261Y-29201571D01*
X66661642Y-29106333D01*
X66566404Y-29058714D01*
X66375928Y-29058714D01*
X66280690Y-29106333D01*
X66233071Y-29201571D01*
X66233071Y-29296809D01*
X66709261Y-29392047D01*
X65899738Y-30106333D02*
X65852119Y-30058714D01*
X65756880Y-29915857D01*
X65709261Y-29820619D01*
X65661642Y-29677761D01*
X65614023Y-29439666D01*
X65614023Y-29249190D01*
X65661642Y-29011095D01*
X65709261Y-28868238D01*
X65756880Y-28773000D01*
X65852119Y-28630142D01*
X65899738Y-28582523D01*
X104280690Y-30375380D02*
X104280690Y-31089666D01*
X104328309Y-31232523D01*
X104423547Y-31327761D01*
X104566404Y-31375380D01*
X104661642Y-31375380D01*
X103804500Y-31375380D02*
X103804500Y-30375380D01*
X103423547Y-30375380D01*
X103328309Y-30423000D01*
X103280690Y-30470619D01*
X103233071Y-30565857D01*
X103233071Y-30708714D01*
X103280690Y-30803952D01*
X103328309Y-30851571D01*
X103423547Y-30899190D01*
X103804500Y-30899190D01*
X102661642Y-30803952D02*
X102756880Y-30756333D01*
X102804500Y-30708714D01*
X102852119Y-30613476D01*
X102852119Y-30565857D01*
X102804500Y-30470619D01*
X102756880Y-30423000D01*
X102661642Y-30375380D01*
X102471166Y-30375380D01*
X102375928Y-30423000D01*
X102328309Y-30470619D01*
X102280690Y-30565857D01*
X102280690Y-30613476D01*
X102328309Y-30708714D01*
X102375928Y-30756333D01*
X102471166Y-30803952D01*
X102661642Y-30803952D01*
X102756880Y-30851571D01*
X102804500Y-30899190D01*
X102852119Y-30994428D01*
X102852119Y-31184904D01*
X102804500Y-31280142D01*
X102756880Y-31327761D01*
X102661642Y-31375380D01*
X102471166Y-31375380D01*
X102375928Y-31327761D01*
X102328309Y-31280142D01*
X102280690Y-31184904D01*
X102280690Y-30994428D01*
X102328309Y-30899190D01*
X102375928Y-30851571D01*
X102471166Y-30803952D01*
X101137833Y-31327761D02*
X101042595Y-31375380D01*
X100852119Y-31375380D01*
X100756880Y-31327761D01*
X100709261Y-31232523D01*
X100709261Y-31184904D01*
X100756880Y-31089666D01*
X100852119Y-31042047D01*
X100994976Y-31042047D01*
X101090214Y-30994428D01*
X101137833Y-30899190D01*
X101137833Y-30851571D01*
X101090214Y-30756333D01*
X100994976Y-30708714D01*
X100852119Y-30708714D01*
X100756880Y-30756333D01*
X100137833Y-31375380D02*
X100233071Y-31327761D01*
X100280690Y-31280142D01*
X100328309Y-31184904D01*
X100328309Y-30899190D01*
X100280690Y-30803952D01*
X100233071Y-30756333D01*
X100137833Y-30708714D01*
X99994976Y-30708714D01*
X99899738Y-30756333D01*
X99852119Y-30803952D01*
X99804500Y-30899190D01*
X99804500Y-31184904D01*
X99852119Y-31280142D01*
X99899738Y-31327761D01*
X99994976Y-31375380D01*
X100137833Y-31375380D01*
X99233071Y-31375380D02*
X99328309Y-31327761D01*
X99375928Y-31232523D01*
X99375928Y-30375380D01*
X98423547Y-31375380D02*
X98423547Y-30375380D01*
X98423547Y-31327761D02*
X98518785Y-31375380D01*
X98709261Y-31375380D01*
X98804500Y-31327761D01*
X98852119Y-31280142D01*
X98899738Y-31184904D01*
X98899738Y-30899190D01*
X98852119Y-30803952D01*
X98804500Y-30756333D01*
X98709261Y-30708714D01*
X98518785Y-30708714D01*
X98423547Y-30756333D01*
X97566404Y-31327761D02*
X97661642Y-31375380D01*
X97852119Y-31375380D01*
X97947357Y-31327761D01*
X97994976Y-31232523D01*
X97994976Y-30851571D01*
X97947357Y-30756333D01*
X97852119Y-30708714D01*
X97661642Y-30708714D01*
X97566404Y-30756333D01*
X97518785Y-30851571D01*
X97518785Y-30946809D01*
X97994976Y-31042047D01*
X97090214Y-31375380D02*
X97090214Y-30708714D01*
X97090214Y-30899190D02*
X97042595Y-30803952D01*
X96994976Y-30756333D01*
X96899738Y-30708714D01*
X96804500Y-30708714D01*
X95852119Y-30708714D02*
X95471166Y-30708714D01*
X95709261Y-30375380D02*
X95709261Y-31232523D01*
X95661642Y-31327761D01*
X95566404Y-31375380D01*
X95471166Y-31375380D01*
X94994976Y-31375380D02*
X95090214Y-31327761D01*
X95137833Y-31280142D01*
X95185452Y-31184904D01*
X95185452Y-30899190D01*
X95137833Y-30803952D01*
X95090214Y-30756333D01*
X94994976Y-30708714D01*
X94852119Y-30708714D01*
X94756880Y-30756333D01*
X94709261Y-30803952D01*
X94661642Y-30899190D01*
X94661642Y-31184904D01*
X94709261Y-31280142D01*
X94756880Y-31327761D01*
X94852119Y-31375380D01*
X94994976Y-31375380D01*
X93471166Y-30708714D02*
X93471166Y-31708714D01*
X93471166Y-30756333D02*
X93375928Y-30708714D01*
X93185452Y-30708714D01*
X93090214Y-30756333D01*
X93042595Y-30803952D01*
X92994976Y-30899190D01*
X92994976Y-31184904D01*
X93042595Y-31280142D01*
X93090214Y-31327761D01*
X93185452Y-31375380D01*
X93375928Y-31375380D01*
X93471166Y-31327761D01*
X92423547Y-31375380D02*
X92518785Y-31327761D01*
X92566404Y-31280142D01*
X92614023Y-31184904D01*
X92614023Y-30899190D01*
X92566404Y-30803952D01*
X92518785Y-30756333D01*
X92423547Y-30708714D01*
X92280690Y-30708714D01*
X92185452Y-30756333D01*
X92137833Y-30803952D01*
X92090214Y-30899190D01*
X92090214Y-31184904D01*
X92137833Y-31280142D01*
X92185452Y-31327761D01*
X92280690Y-31375380D01*
X92423547Y-31375380D01*
X91756880Y-30708714D02*
X91566404Y-31375380D01*
X91375928Y-30899190D01*
X91185452Y-31375380D01*
X90994976Y-30708714D01*
X90233071Y-31327761D02*
X90328309Y-31375380D01*
X90518785Y-31375380D01*
X90614023Y-31327761D01*
X90661642Y-31232523D01*
X90661642Y-30851571D01*
X90614023Y-30756333D01*
X90518785Y-30708714D01*
X90328309Y-30708714D01*
X90233071Y-30756333D01*
X90185452Y-30851571D01*
X90185452Y-30946809D01*
X90661642Y-31042047D01*
X89756880Y-31375380D02*
X89756880Y-30708714D01*
X89756880Y-30899190D02*
X89709261Y-30803952D01*
X89661642Y-30756333D01*
X89566404Y-30708714D01*
X89471166Y-30708714D01*
X88375928Y-31375380D02*
X88375928Y-30375380D01*
X88042595Y-30708714D02*
X87661642Y-30708714D01*
X87899738Y-31375380D02*
X87899738Y-30518238D01*
X87852119Y-30423000D01*
X87756880Y-30375380D01*
X87661642Y-30375380D01*
X86899738Y-31375380D02*
X86899738Y-30851571D01*
X86947357Y-30756333D01*
X87042595Y-30708714D01*
X87233071Y-30708714D01*
X87328309Y-30756333D01*
X86899738Y-31327761D02*
X86994976Y-31375380D01*
X87233071Y-31375380D01*
X87328309Y-31327761D01*
X87375928Y-31232523D01*
X87375928Y-31137285D01*
X87328309Y-31042047D01*
X87233071Y-30994428D01*
X86994976Y-30994428D01*
X86899738Y-30946809D01*
X85994976Y-31327761D02*
X86090214Y-31375380D01*
X86280690Y-31375380D01*
X86375928Y-31327761D01*
X86423547Y-31280142D01*
X86471166Y-31184904D01*
X86471166Y-30899190D01*
X86423547Y-30803952D01*
X86375928Y-30756333D01*
X86280690Y-30708714D01*
X86090214Y-30708714D01*
X85994976Y-30756333D01*
X85185452Y-31327761D02*
X85280690Y-31375380D01*
X85471166Y-31375380D01*
X85566404Y-31327761D01*
X85614023Y-31232523D01*
X85614023Y-30851571D01*
X85566404Y-30756333D01*
X85471166Y-30708714D01*
X85280690Y-30708714D01*
X85185452Y-30756333D01*
X85137833Y-30851571D01*
X85137833Y-30946809D01*
X85614023Y-31042047D01*
X84090214Y-30708714D02*
X83709261Y-30708714D01*
X83947357Y-31375380D02*
X83947357Y-30518238D01*
X83899738Y-30423000D01*
X83804500Y-30375380D01*
X83709261Y-30375380D01*
X83375928Y-31375380D02*
X83375928Y-30708714D01*
X83375928Y-30899190D02*
X83328309Y-30803952D01*
X83280690Y-30756333D01*
X83185452Y-30708714D01*
X83090214Y-30708714D01*
X82614023Y-31375380D02*
X82709261Y-31327761D01*
X82756880Y-31280142D01*
X82804500Y-31184904D01*
X82804500Y-30899190D01*
X82756880Y-30803952D01*
X82709261Y-30756333D01*
X82614023Y-30708714D01*
X82471166Y-30708714D01*
X82375928Y-30756333D01*
X82328309Y-30803952D01*
X82280690Y-30899190D01*
X82280690Y-31184904D01*
X82328309Y-31280142D01*
X82375928Y-31327761D01*
X82471166Y-31375380D01*
X82614023Y-31375380D01*
X81852119Y-31375380D02*
X81852119Y-30708714D01*
X81852119Y-30803952D02*
X81804500Y-30756333D01*
X81709261Y-30708714D01*
X81566404Y-30708714D01*
X81471166Y-30756333D01*
X81423547Y-30851571D01*
X81423547Y-31375380D01*
X81423547Y-30851571D02*
X81375928Y-30756333D01*
X81280690Y-30708714D01*
X81137833Y-30708714D01*
X81042595Y-30756333D01*
X80994976Y-30851571D01*
X80994976Y-31375380D01*
X79280690Y-30375380D02*
X79756880Y-30375380D01*
X79804500Y-30851571D01*
X79756880Y-30803952D01*
X79661642Y-30756333D01*
X79423547Y-30756333D01*
X79328309Y-30803952D01*
X79280690Y-30851571D01*
X79233071Y-30946809D01*
X79233071Y-31184904D01*
X79280690Y-31280142D01*
X79328309Y-31327761D01*
X79423547Y-31375380D01*
X79661642Y-31375380D01*
X79756880Y-31327761D01*
X79804500Y-31280142D01*
X78947357Y-30375380D02*
X78614023Y-31375380D01*
X78280690Y-30375380D01*
X24121904Y-53221380D02*
X24121904Y-52221380D01*
X23883809Y-52221380D01*
X23740952Y-52269000D01*
X23645714Y-52364238D01*
X23598095Y-52459476D01*
X23550476Y-52649952D01*
X23550476Y-52792809D01*
X23598095Y-52983285D01*
X23645714Y-53078523D01*
X23740952Y-53173761D01*
X23883809Y-53221380D01*
X24121904Y-53221380D01*
X22550476Y-53126142D02*
X22598095Y-53173761D01*
X22740952Y-53221380D01*
X22836190Y-53221380D01*
X22979047Y-53173761D01*
X23074285Y-53078523D01*
X23121904Y-52983285D01*
X23169523Y-52792809D01*
X23169523Y-52649952D01*
X23121904Y-52459476D01*
X23074285Y-52364238D01*
X22979047Y-52269000D01*
X22836190Y-52221380D01*
X22740952Y-52221380D01*
X22598095Y-52269000D01*
X22550476Y-52316619D01*
X21550476Y-53126142D02*
X21598095Y-53173761D01*
X21740952Y-53221380D01*
X21836190Y-53221380D01*
X21979047Y-53173761D01*
X22074285Y-53078523D01*
X22121904Y-52983285D01*
X22169523Y-52792809D01*
X22169523Y-52649952D01*
X22121904Y-52459476D01*
X22074285Y-52364238D01*
X21979047Y-52269000D01*
X21836190Y-52221380D01*
X21740952Y-52221380D01*
X21598095Y-52269000D01*
X21550476Y-52316619D01*
X25002857Y-54823761D02*
X24860000Y-54871380D01*
X24621904Y-54871380D01*
X24526666Y-54823761D01*
X24479047Y-54776142D01*
X24431428Y-54680904D01*
X24431428Y-54585666D01*
X24479047Y-54490428D01*
X24526666Y-54442809D01*
X24621904Y-54395190D01*
X24812380Y-54347571D01*
X24907619Y-54299952D01*
X24955238Y-54252333D01*
X25002857Y-54157095D01*
X25002857Y-54061857D01*
X24955238Y-53966619D01*
X24907619Y-53919000D01*
X24812380Y-53871380D01*
X24574285Y-53871380D01*
X24431428Y-53919000D01*
X24002857Y-54871380D02*
X24002857Y-54204714D01*
X24002857Y-53871380D02*
X24050476Y-53919000D01*
X24002857Y-53966619D01*
X23955238Y-53919000D01*
X24002857Y-53871380D01*
X24002857Y-53966619D01*
X23098095Y-54204714D02*
X23098095Y-55014238D01*
X23145714Y-55109476D01*
X23193333Y-55157095D01*
X23288571Y-55204714D01*
X23431428Y-55204714D01*
X23526666Y-55157095D01*
X23098095Y-54823761D02*
X23193333Y-54871380D01*
X23383809Y-54871380D01*
X23479047Y-54823761D01*
X23526666Y-54776142D01*
X23574285Y-54680904D01*
X23574285Y-54395190D01*
X23526666Y-54299952D01*
X23479047Y-54252333D01*
X23383809Y-54204714D01*
X23193333Y-54204714D01*
X23098095Y-54252333D01*
X22621904Y-54204714D02*
X22621904Y-54871380D01*
X22621904Y-54299952D02*
X22574285Y-54252333D01*
X22479047Y-54204714D01*
X22336190Y-54204714D01*
X22240952Y-54252333D01*
X22193333Y-54347571D01*
X22193333Y-54871380D01*
X21288571Y-54871380D02*
X21288571Y-54347571D01*
X21336190Y-54252333D01*
X21431428Y-54204714D01*
X21621904Y-54204714D01*
X21717142Y-54252333D01*
X21288571Y-54823761D02*
X21383809Y-54871380D01*
X21621904Y-54871380D01*
X21717142Y-54823761D01*
X21764761Y-54728523D01*
X21764761Y-54633285D01*
X21717142Y-54538047D01*
X21621904Y-54490428D01*
X21383809Y-54490428D01*
X21288571Y-54442809D01*
X20669523Y-54871380D02*
X20764761Y-54823761D01*
X20812380Y-54728523D01*
X20812380Y-53871380D01*
X26130000Y-29027380D02*
X26701428Y-29027380D01*
X26415714Y-29027380D02*
X26415714Y-28027380D01*
X26510952Y-28170238D01*
X26606190Y-28265476D01*
X26701428Y-28313095D01*
X25749047Y-28122619D02*
X25701428Y-28075000D01*
X25606190Y-28027380D01*
X25368095Y-28027380D01*
X25272857Y-28075000D01*
X25225238Y-28122619D01*
X25177619Y-28217857D01*
X25177619Y-28313095D01*
X25225238Y-28455952D01*
X25796666Y-29027380D01*
X25177619Y-29027380D01*
X24891904Y-28027380D02*
X24558571Y-29027380D01*
X24225238Y-28027380D01*
X23130000Y-29027380D02*
X23130000Y-28027380D01*
X22891904Y-28027380D01*
X22749047Y-28075000D01*
X22653809Y-28170238D01*
X22606190Y-28265476D01*
X22558571Y-28455952D01*
X22558571Y-28598809D01*
X22606190Y-28789285D01*
X22653809Y-28884523D01*
X22749047Y-28979761D01*
X22891904Y-29027380D01*
X23130000Y-29027380D01*
X21558571Y-28932142D02*
X21606190Y-28979761D01*
X21749047Y-29027380D01*
X21844285Y-29027380D01*
X21987142Y-28979761D01*
X22082380Y-28884523D01*
X22130000Y-28789285D01*
X22177619Y-28598809D01*
X22177619Y-28455952D01*
X22130000Y-28265476D01*
X22082380Y-28170238D01*
X21987142Y-28075000D01*
X21844285Y-28027380D01*
X21749047Y-28027380D01*
X21606190Y-28075000D01*
X21558571Y-28122619D01*
D11*
X103022285Y-39580000D02*
X103136571Y-39522857D01*
X103308000Y-39522857D01*
X103479428Y-39580000D01*
X103593714Y-39694285D01*
X103650857Y-39808571D01*
X103708000Y-40037142D01*
X103708000Y-40208571D01*
X103650857Y-40437142D01*
X103593714Y-40551428D01*
X103479428Y-40665714D01*
X103308000Y-40722857D01*
X103193714Y-40722857D01*
X103022285Y-40665714D01*
X102965142Y-40608571D01*
X102965142Y-40208571D01*
X103193714Y-40208571D01*
X102450857Y-40722857D02*
X102450857Y-39522857D01*
X101765142Y-40722857D01*
X101765142Y-39522857D01*
X101193714Y-40722857D02*
X101193714Y-39522857D01*
X100908000Y-39522857D01*
X100736571Y-39580000D01*
X100622285Y-39694285D01*
X100565142Y-39808571D01*
X100508000Y-40037142D01*
X100508000Y-40208571D01*
X100565142Y-40437142D01*
X100622285Y-40551428D01*
X100736571Y-40665714D01*
X100908000Y-40722857D01*
X101193714Y-40722857D01*
X103622285Y-42722857D02*
X103622285Y-41522857D01*
X103336571Y-41522857D01*
X103165142Y-41580000D01*
X103050857Y-41694285D01*
X102993714Y-41808571D01*
X102936571Y-42037142D01*
X102936571Y-42208571D01*
X102993714Y-42437142D01*
X103050857Y-42551428D01*
X103165142Y-42665714D01*
X103336571Y-42722857D01*
X103622285Y-42722857D01*
X101736571Y-42608571D02*
X101793714Y-42665714D01*
X101965142Y-42722857D01*
X102079428Y-42722857D01*
X102250857Y-42665714D01*
X102365142Y-42551428D01*
X102422285Y-42437142D01*
X102479428Y-42208571D01*
X102479428Y-42037142D01*
X102422285Y-41808571D01*
X102365142Y-41694285D01*
X102250857Y-41580000D01*
X102079428Y-41522857D01*
X101965142Y-41522857D01*
X101793714Y-41580000D01*
X101736571Y-41637142D01*
X100536571Y-42608571D02*
X100593714Y-42665714D01*
X100765142Y-42722857D01*
X100879428Y-42722857D01*
X101050857Y-42665714D01*
X101165142Y-42551428D01*
X101222285Y-42437142D01*
X101279428Y-42208571D01*
X101279428Y-42037142D01*
X101222285Y-41808571D01*
X101165142Y-41694285D01*
X101050857Y-41580000D01*
X100879428Y-41522857D01*
X100765142Y-41522857D01*
X100593714Y-41580000D01*
X100536571Y-41637142D01*
X103593714Y-44380000D02*
X103022285Y-44380000D01*
X103708000Y-44722857D02*
X103308000Y-43522857D01*
X102908000Y-44722857D01*
X101822285Y-44608571D02*
X101879428Y-44665714D01*
X102050857Y-44722857D01*
X102165142Y-44722857D01*
X102336571Y-44665714D01*
X102450857Y-44551428D01*
X102508000Y-44437142D01*
X102565142Y-44208571D01*
X102565142Y-44037142D01*
X102508000Y-43808571D01*
X102450857Y-43694285D01*
X102336571Y-43580000D01*
X102165142Y-43522857D01*
X102050857Y-43522857D01*
X101879428Y-43580000D01*
X101822285Y-43637142D01*
X101308000Y-44722857D02*
X101308000Y-43522857D01*
X100622285Y-44722857D02*
X101136571Y-44037142D01*
X100622285Y-43522857D02*
X101308000Y-44208571D01*
X103650857Y-46265714D02*
X102736571Y-46265714D01*
X103193714Y-46722857D02*
X103193714Y-45808571D01*
X101593714Y-45522857D02*
X102165142Y-45522857D01*
X102222285Y-46094285D01*
X102165142Y-46037142D01*
X102050857Y-45980000D01*
X101765142Y-45980000D01*
X101650857Y-46037142D01*
X101593714Y-46094285D01*
X101536571Y-46208571D01*
X101536571Y-46494285D01*
X101593714Y-46608571D01*
X101650857Y-46665714D01*
X101765142Y-46722857D01*
X102050857Y-46722857D01*
X102165142Y-46665714D01*
X102222285Y-46608571D01*
X101193714Y-45522857D02*
X100793714Y-46722857D01*
X100393714Y-45522857D01*
D10*
X71881666Y-58491428D02*
X71119761Y-58491428D01*
X71500714Y-58872380D02*
X71500714Y-58110476D01*
X69405476Y-57872380D02*
X69881666Y-57872380D01*
X69929285Y-58348571D01*
X69881666Y-58300952D01*
X69786428Y-58253333D01*
X69548333Y-58253333D01*
X69453095Y-58300952D01*
X69405476Y-58348571D01*
X69357857Y-58443809D01*
X69357857Y-58681904D01*
X69405476Y-58777142D01*
X69453095Y-58824761D01*
X69548333Y-58872380D01*
X69786428Y-58872380D01*
X69881666Y-58824761D01*
X69929285Y-58777142D01*
X69072142Y-57872380D02*
X68738809Y-58872380D01*
X68405476Y-57872380D01*
X67310238Y-58491428D02*
X66548333Y-58491428D01*
X70445238Y-35561904D02*
X70445238Y-36133333D01*
X70483333Y-36247619D01*
X70559523Y-36323809D01*
X70673809Y-36361904D01*
X70750000Y-36361904D01*
X69683333Y-36361904D02*
X70064285Y-36361904D01*
X70064285Y-35561904D01*
X68959523Y-36285714D02*
X68997619Y-36323809D01*
X69111904Y-36361904D01*
X69188095Y-36361904D01*
X69302380Y-36323809D01*
X69378571Y-36247619D01*
X69416666Y-36171428D01*
X69454761Y-36019047D01*
X69454761Y-35904761D01*
X69416666Y-35752380D01*
X69378571Y-35676190D01*
X69302380Y-35600000D01*
X69188095Y-35561904D01*
X69111904Y-35561904D01*
X68997619Y-35600000D01*
X68959523Y-35638095D01*
X68388095Y-35561904D02*
X68388095Y-36133333D01*
X68426190Y-36247619D01*
X68502380Y-36323809D01*
X68616666Y-36361904D01*
X68692857Y-36361904D01*
X67626190Y-36361904D02*
X68007142Y-36361904D01*
X68007142Y-35561904D01*
X66902380Y-36285714D02*
X66940476Y-36323809D01*
X67054761Y-36361904D01*
X67130952Y-36361904D01*
X67245238Y-36323809D01*
X67321428Y-36247619D01*
X67359523Y-36171428D01*
X67397619Y-36019047D01*
X67397619Y-35904761D01*
X67359523Y-35752380D01*
X67321428Y-35676190D01*
X67245238Y-35600000D01*
X67130952Y-35561904D01*
X67054761Y-35561904D01*
X66940476Y-35600000D01*
X66902380Y-35638095D01*
X66330952Y-35561904D02*
X66330952Y-36133333D01*
X66369047Y-36247619D01*
X66445238Y-36323809D01*
X66559523Y-36361904D01*
X66635714Y-36361904D01*
X65569047Y-36361904D02*
X65950000Y-36361904D01*
X65950000Y-35561904D01*
X64845238Y-36285714D02*
X64883333Y-36323809D01*
X64997619Y-36361904D01*
X65073809Y-36361904D01*
X65188095Y-36323809D01*
X65264285Y-36247619D01*
X65302380Y-36171428D01*
X65340476Y-36019047D01*
X65340476Y-35904761D01*
X65302380Y-35752380D01*
X65264285Y-35676190D01*
X65188095Y-35600000D01*
X65073809Y-35561904D01*
X64997619Y-35561904D01*
X64883333Y-35600000D01*
X64845238Y-35638095D01*
X64273809Y-35561904D02*
X64273809Y-36133333D01*
X64311904Y-36247619D01*
X64388095Y-36323809D01*
X64502380Y-36361904D01*
X64578571Y-36361904D01*
X63511904Y-36361904D02*
X63892857Y-36361904D01*
X63892857Y-35561904D01*
X62788095Y-36285714D02*
X62826190Y-36323809D01*
X62940476Y-36361904D01*
X63016666Y-36361904D01*
X63130952Y-36323809D01*
X63207142Y-36247619D01*
X63245238Y-36171428D01*
X63283333Y-36019047D01*
X63283333Y-35904761D01*
X63245238Y-35752380D01*
X63207142Y-35676190D01*
X63130952Y-35600000D01*
X63016666Y-35561904D01*
X62940476Y-35561904D01*
X62826190Y-35600000D01*
X62788095Y-35638095D01*
X28201809Y-41236380D02*
X27868476Y-42236380D01*
X27535142Y-41236380D01*
X27201809Y-42236380D02*
X27201809Y-41569714D01*
X27201809Y-41236380D02*
X27249428Y-41284000D01*
X27201809Y-41331619D01*
X27154190Y-41284000D01*
X27201809Y-41236380D01*
X27201809Y-41331619D01*
X26725619Y-41569714D02*
X26725619Y-42236380D01*
X26725619Y-41664952D02*
X26678000Y-41617333D01*
X26582761Y-41569714D01*
X26439904Y-41569714D01*
X26344666Y-41617333D01*
X26297047Y-41712571D01*
X26297047Y-42236380D01*
X29368476Y-42886380D02*
X29035142Y-43886380D01*
X28701809Y-42886380D01*
X28368476Y-43886380D02*
X28368476Y-42886380D01*
X28130380Y-42886380D01*
X27987523Y-42934000D01*
X27892285Y-43029238D01*
X27844666Y-43124476D01*
X27797047Y-43314952D01*
X27797047Y-43457809D01*
X27844666Y-43648285D01*
X27892285Y-43743523D01*
X27987523Y-43838761D01*
X28130380Y-43886380D01*
X28368476Y-43886380D01*
X27368476Y-43886380D02*
X27368476Y-43219714D01*
X27368476Y-43410190D02*
X27320857Y-43314952D01*
X27273238Y-43267333D01*
X27178000Y-43219714D01*
X27082761Y-43219714D01*
X26749428Y-43886380D02*
X26749428Y-43219714D01*
X26749428Y-42886380D02*
X26797047Y-42934000D01*
X26749428Y-42981619D01*
X26701809Y-42934000D01*
X26749428Y-42886380D01*
X26749428Y-42981619D01*
X26368476Y-43219714D02*
X26130380Y-43886380D01*
X25892285Y-43219714D01*
X25130380Y-43838761D02*
X25225619Y-43886380D01*
X25416095Y-43886380D01*
X25511333Y-43838761D01*
X25558952Y-43743523D01*
X25558952Y-43362571D01*
X25511333Y-43267333D01*
X25416095Y-43219714D01*
X25225619Y-43219714D01*
X25130380Y-43267333D01*
X25082761Y-43362571D01*
X25082761Y-43457809D01*
X25558952Y-43553047D01*
X28297047Y-45536380D02*
X28297047Y-44536380D01*
X28058952Y-44536380D01*
X27916095Y-44584000D01*
X27820857Y-44679238D01*
X27773238Y-44774476D01*
X27725619Y-44964952D01*
X27725619Y-45107809D01*
X27773238Y-45298285D01*
X27820857Y-45393523D01*
X27916095Y-45488761D01*
X28058952Y-45536380D01*
X28297047Y-45536380D01*
X26868476Y-45488761D02*
X26963714Y-45536380D01*
X27154190Y-45536380D01*
X27249428Y-45488761D01*
X27297047Y-45441142D01*
X27344666Y-45345904D01*
X27344666Y-45060190D01*
X27297047Y-44964952D01*
X27249428Y-44917333D01*
X27154190Y-44869714D01*
X26963714Y-44869714D01*
X26868476Y-44917333D01*
X26011333Y-45488761D02*
X26106571Y-45536380D01*
X26297047Y-45536380D01*
X26392285Y-45488761D01*
X26439904Y-45441142D01*
X26487523Y-45345904D01*
X26487523Y-45060190D01*
X26439904Y-44964952D01*
X26392285Y-44917333D01*
X26297047Y-44869714D01*
X26106571Y-44869714D01*
X26011333Y-44917333D01*
X94106666Y-58491428D02*
X93344761Y-58491428D01*
X93725714Y-58872380D02*
X93725714Y-58110476D01*
X92201904Y-57872380D02*
X91582857Y-57872380D01*
X91916190Y-58253333D01*
X91773333Y-58253333D01*
X91678095Y-58300952D01*
X91630476Y-58348571D01*
X91582857Y-58443809D01*
X91582857Y-58681904D01*
X91630476Y-58777142D01*
X91678095Y-58824761D01*
X91773333Y-58872380D01*
X92059047Y-58872380D01*
X92154285Y-58824761D01*
X92201904Y-58777142D01*
X91297142Y-57872380D02*
X90963809Y-58872380D01*
X90630476Y-57872380D01*
X89535238Y-58491428D02*
X88773333Y-58491428D01*
X43417619Y-58491428D02*
X42655714Y-58491428D01*
X43036666Y-58872380D02*
X43036666Y-58110476D01*
X41560476Y-57872380D02*
X41227142Y-58872380D01*
X40893809Y-57872380D01*
X40560476Y-58872380D02*
X40560476Y-57872380D01*
X40322380Y-57872380D01*
X40179523Y-57920000D01*
X40084285Y-58015238D01*
X40036666Y-58110476D01*
X39989047Y-58300952D01*
X39989047Y-58443809D01*
X40036666Y-58634285D01*
X40084285Y-58729523D01*
X40179523Y-58824761D01*
X40322380Y-58872380D01*
X40560476Y-58872380D01*
X39560476Y-58872380D02*
X39560476Y-58205714D01*
X39560476Y-58396190D02*
X39512857Y-58300952D01*
X39465238Y-58253333D01*
X39370000Y-58205714D01*
X39274761Y-58205714D01*
X38941428Y-58872380D02*
X38941428Y-58205714D01*
X38941428Y-57872380D02*
X38989047Y-57920000D01*
X38941428Y-57967619D01*
X38893809Y-57920000D01*
X38941428Y-57872380D01*
X38941428Y-57967619D01*
X38560476Y-58205714D02*
X38322380Y-58872380D01*
X38084285Y-58205714D01*
X37322380Y-58824761D02*
X37417619Y-58872380D01*
X37608095Y-58872380D01*
X37703333Y-58824761D01*
X37750952Y-58729523D01*
X37750952Y-58348571D01*
X37703333Y-58253333D01*
X37608095Y-58205714D01*
X37417619Y-58205714D01*
X37322380Y-58253333D01*
X37274761Y-58348571D01*
X37274761Y-58443809D01*
X37750952Y-58539047D01*
X36084285Y-58491428D02*
X35322380Y-58491428D01*
X61154761Y-39377380D02*
X61154761Y-38377380D01*
X60916666Y-38377380D01*
X60773809Y-38425000D01*
X60678571Y-38520238D01*
X60630952Y-38615476D01*
X60583333Y-38805952D01*
X60583333Y-38948809D01*
X60630952Y-39139285D01*
X60678571Y-39234523D01*
X60773809Y-39329761D01*
X60916666Y-39377380D01*
X61154761Y-39377380D01*
X59726190Y-39329761D02*
X59821428Y-39377380D01*
X60011904Y-39377380D01*
X60107142Y-39329761D01*
X60154761Y-39282142D01*
X60202380Y-39186904D01*
X60202380Y-38901190D01*
X60154761Y-38805952D01*
X60107142Y-38758333D01*
X60011904Y-38710714D01*
X59821428Y-38710714D01*
X59726190Y-38758333D01*
X58869047Y-39329761D02*
X58964285Y-39377380D01*
X59154761Y-39377380D01*
X59250000Y-39329761D01*
X59297619Y-39282142D01*
X59345238Y-39186904D01*
X59345238Y-38901190D01*
X59297619Y-38805952D01*
X59250000Y-38758333D01*
X59154761Y-38710714D01*
X58964285Y-38710714D01*
X58869047Y-38758333D01*
X57678571Y-39377380D02*
X57678571Y-38377380D01*
X57297619Y-38377380D01*
X57202380Y-38425000D01*
X57154761Y-38472619D01*
X57107142Y-38567857D01*
X57107142Y-38710714D01*
X57154761Y-38805952D01*
X57202380Y-38853571D01*
X57297619Y-38901190D01*
X57678571Y-38901190D01*
X56535714Y-39377380D02*
X56630952Y-39329761D01*
X56678571Y-39282142D01*
X56726190Y-39186904D01*
X56726190Y-38901190D01*
X56678571Y-38805952D01*
X56630952Y-38758333D01*
X56535714Y-38710714D01*
X56392857Y-38710714D01*
X56297619Y-38758333D01*
X56250000Y-38805952D01*
X56202380Y-38901190D01*
X56202380Y-39186904D01*
X56250000Y-39282142D01*
X56297619Y-39329761D01*
X56392857Y-39377380D01*
X56535714Y-39377380D01*
X55869047Y-38710714D02*
X55678571Y-39377380D01*
X55488095Y-38901190D01*
X55297619Y-39377380D01*
X55107142Y-38710714D01*
X54345238Y-39329761D02*
X54440476Y-39377380D01*
X54630952Y-39377380D01*
X54726190Y-39329761D01*
X54773809Y-39234523D01*
X54773809Y-38853571D01*
X54726190Y-38758333D01*
X54630952Y-38710714D01*
X54440476Y-38710714D01*
X54345238Y-38758333D01*
X54297619Y-38853571D01*
X54297619Y-38948809D01*
X54773809Y-39044047D01*
X53869047Y-39377380D02*
X53869047Y-38710714D01*
X53869047Y-38901190D02*
X53821428Y-38805952D01*
X53773809Y-38758333D01*
X53678571Y-38710714D01*
X53583333Y-38710714D01*
X52488095Y-39377380D02*
X52488095Y-38377380D01*
X52250000Y-38377380D01*
X52107142Y-38425000D01*
X52011904Y-38520238D01*
X51964285Y-38615476D01*
X51916666Y-38805952D01*
X51916666Y-38948809D01*
X51964285Y-39139285D01*
X52011904Y-39234523D01*
X52107142Y-39329761D01*
X52250000Y-39377380D01*
X52488095Y-39377380D01*
X51488095Y-39377380D02*
X51488095Y-38710714D01*
X51488095Y-38377380D02*
X51535714Y-38425000D01*
X51488095Y-38472619D01*
X51440476Y-38425000D01*
X51488095Y-38377380D01*
X51488095Y-38472619D01*
X51059523Y-39329761D02*
X50964285Y-39377380D01*
X50773809Y-39377380D01*
X50678571Y-39329761D01*
X50630952Y-39234523D01*
X50630952Y-39186904D01*
X50678571Y-39091666D01*
X50773809Y-39044047D01*
X50916666Y-39044047D01*
X51011904Y-38996428D01*
X51059523Y-38901190D01*
X51059523Y-38853571D01*
X51011904Y-38758333D01*
X50916666Y-38710714D01*
X50773809Y-38710714D01*
X50678571Y-38758333D01*
X50345238Y-38710714D02*
X49964285Y-38710714D01*
X50202380Y-38377380D02*
X50202380Y-39234523D01*
X50154761Y-39329761D01*
X50059523Y-39377380D01*
X49964285Y-39377380D01*
X49630952Y-39377380D02*
X49630952Y-38710714D01*
X49630952Y-38901190D02*
X49583333Y-38805952D01*
X49535714Y-38758333D01*
X49440476Y-38710714D01*
X49345238Y-38710714D01*
X49011904Y-39377380D02*
X49011904Y-38710714D01*
X49011904Y-38377380D02*
X49059523Y-38425000D01*
X49011904Y-38472619D01*
X48964285Y-38425000D01*
X49011904Y-38377380D01*
X49011904Y-38472619D01*
X48535714Y-39377380D02*
X48535714Y-38377380D01*
X48535714Y-38758333D02*
X48440476Y-38710714D01*
X48250000Y-38710714D01*
X48154761Y-38758333D01*
X48107142Y-38805952D01*
X48059523Y-38901190D01*
X48059523Y-39186904D01*
X48107142Y-39282142D01*
X48154761Y-39329761D01*
X48250000Y-39377380D01*
X48440476Y-39377380D01*
X48535714Y-39329761D01*
X47202380Y-38710714D02*
X47202380Y-39377380D01*
X47630952Y-38710714D02*
X47630952Y-39234523D01*
X47583333Y-39329761D01*
X47488095Y-39377380D01*
X47345238Y-39377380D01*
X47250000Y-39329761D01*
X47202380Y-39282142D01*
X46869047Y-38710714D02*
X46488095Y-38710714D01*
X46726190Y-38377380D02*
X46726190Y-39234523D01*
X46678571Y-39329761D01*
X46583333Y-39377380D01*
X46488095Y-39377380D01*
X46154761Y-39377380D02*
X46154761Y-38710714D01*
X46154761Y-38377380D02*
X46202380Y-38425000D01*
X46154761Y-38472619D01*
X46107142Y-38425000D01*
X46154761Y-38377380D01*
X46154761Y-38472619D01*
X45535714Y-39377380D02*
X45630952Y-39329761D01*
X45678571Y-39282142D01*
X45726190Y-39186904D01*
X45726190Y-38901190D01*
X45678571Y-38805952D01*
X45630952Y-38758333D01*
X45535714Y-38710714D01*
X45392857Y-38710714D01*
X45297619Y-38758333D01*
X45250000Y-38805952D01*
X45202380Y-38901190D01*
X45202380Y-39186904D01*
X45250000Y-39282142D01*
X45297619Y-39329761D01*
X45392857Y-39377380D01*
X45535714Y-39377380D01*
X44773809Y-38710714D02*
X44773809Y-39377380D01*
X44773809Y-38805952D02*
X44726190Y-38758333D01*
X44630952Y-38710714D01*
X44488095Y-38710714D01*
X44392857Y-38758333D01*
X44345238Y-38853571D01*
X44345238Y-39377380D01*
X57011904Y-40503571D02*
X56869047Y-40551190D01*
X56821428Y-40598809D01*
X56773809Y-40694047D01*
X56773809Y-40836904D01*
X56821428Y-40932142D01*
X56869047Y-40979761D01*
X56964285Y-41027380D01*
X57345238Y-41027380D01*
X57345238Y-40027380D01*
X57011904Y-40027380D01*
X56916666Y-40075000D01*
X56869047Y-40122619D01*
X56821428Y-40217857D01*
X56821428Y-40313095D01*
X56869047Y-40408333D01*
X56916666Y-40455952D01*
X57011904Y-40503571D01*
X57345238Y-40503571D01*
X56202380Y-41027380D02*
X56297619Y-40979761D01*
X56345238Y-40932142D01*
X56392857Y-40836904D01*
X56392857Y-40551190D01*
X56345238Y-40455952D01*
X56297619Y-40408333D01*
X56202380Y-40360714D01*
X56059523Y-40360714D01*
X55964285Y-40408333D01*
X55916666Y-40455952D01*
X55869047Y-40551190D01*
X55869047Y-40836904D01*
X55916666Y-40932142D01*
X55964285Y-40979761D01*
X56059523Y-41027380D01*
X56202380Y-41027380D01*
X55011904Y-41027380D02*
X55011904Y-40503571D01*
X55059523Y-40408333D01*
X55154761Y-40360714D01*
X55345238Y-40360714D01*
X55440476Y-40408333D01*
X55011904Y-40979761D02*
X55107142Y-41027380D01*
X55345238Y-41027380D01*
X55440476Y-40979761D01*
X55488095Y-40884523D01*
X55488095Y-40789285D01*
X55440476Y-40694047D01*
X55345238Y-40646428D01*
X55107142Y-40646428D01*
X55011904Y-40598809D01*
X54535714Y-41027380D02*
X54535714Y-40360714D01*
X54535714Y-40551190D02*
X54488095Y-40455952D01*
X54440476Y-40408333D01*
X54345238Y-40360714D01*
X54250000Y-40360714D01*
X53488095Y-41027380D02*
X53488095Y-40027380D01*
X53488095Y-40979761D02*
X53583333Y-41027380D01*
X53773809Y-41027380D01*
X53869047Y-40979761D01*
X53916666Y-40932142D01*
X53964285Y-40836904D01*
X53964285Y-40551190D01*
X53916666Y-40455952D01*
X53869047Y-40408333D01*
X53773809Y-40360714D01*
X53583333Y-40360714D01*
X53488095Y-40408333D01*
X52345238Y-40360714D02*
X52107142Y-41027380D01*
X51869047Y-40360714D01*
X51297619Y-40027380D02*
X51202380Y-40027380D01*
X51107142Y-40075000D01*
X51059523Y-40122619D01*
X51011904Y-40217857D01*
X50964285Y-40408333D01*
X50964285Y-40646428D01*
X51011904Y-40836904D01*
X51059523Y-40932142D01*
X51107142Y-40979761D01*
X51202380Y-41027380D01*
X51297619Y-41027380D01*
X51392857Y-40979761D01*
X51440476Y-40932142D01*
X51488095Y-40836904D01*
X51535714Y-40646428D01*
X51535714Y-40408333D01*
X51488095Y-40217857D01*
X51440476Y-40122619D01*
X51392857Y-40075000D01*
X51297619Y-40027380D01*
X50535714Y-40932142D02*
X50488095Y-40979761D01*
X50535714Y-41027380D01*
X50583333Y-40979761D01*
X50535714Y-40932142D01*
X50535714Y-41027380D01*
X50154761Y-40027380D02*
X49535714Y-40027380D01*
X49869047Y-40408333D01*
X49726190Y-40408333D01*
X49630952Y-40455952D01*
X49583333Y-40503571D01*
X49535714Y-40598809D01*
X49535714Y-40836904D01*
X49583333Y-40932142D01*
X49630952Y-40979761D01*
X49726190Y-41027380D01*
X50011904Y-41027380D01*
X50107142Y-40979761D01*
X50154761Y-40932142D01*
X49107142Y-40932142D02*
X49059523Y-40979761D01*
X49107142Y-41027380D01*
X49154761Y-40979761D01*
X49107142Y-40932142D01*
X49107142Y-41027380D01*
X48440476Y-40027380D02*
X48345238Y-40027380D01*
X48249999Y-40075000D01*
X48202380Y-40122619D01*
X48154761Y-40217857D01*
X48107142Y-40408333D01*
X48107142Y-40646428D01*
X48154761Y-40836904D01*
X48202380Y-40932142D01*
X48249999Y-40979761D01*
X48345238Y-41027380D01*
X48440476Y-41027380D01*
X48535714Y-40979761D01*
X48583333Y-40932142D01*
X48630952Y-40836904D01*
X48678571Y-40646428D01*
X48678571Y-40408333D01*
X48630952Y-40217857D01*
X48583333Y-40122619D01*
X48535714Y-40075000D01*
X48440476Y-40027380D01*
%LPC*%
D12*
X33330000Y-25400000D03*
D13*
X36830000Y-25400000D03*
D12*
X41600000Y-60960000D03*
D13*
X38100000Y-60960000D03*
D12*
X93035000Y-60960000D03*
D13*
X89535000Y-60960000D03*
D12*
X70810000Y-60960000D03*
D13*
X67310000Y-60960000D03*
D14*
X24000000Y-24000000D03*
D15*
X107000000Y-39500000D03*
X107000000Y-42000000D03*
X107000000Y-44500000D03*
G36*
G01*
X107725000Y-47850000D02*
X106275000Y-47850000D01*
G75*
G02*
X106025000Y-47600000I0J250000D01*
G01*
X106025000Y-46400000D01*
G75*
G02*
X106275000Y-46150000I250000J0D01*
G01*
X107725000Y-46150000D01*
G75*
G02*
X107975000Y-46400000I0J-250000D01*
G01*
X107975000Y-47600000D01*
G75*
G02*
X107725000Y-47850000I-250000J0D01*
G01*
G37*
D14*
X111000000Y-24000000D03*
X111000000Y-62000000D03*
X24000000Y-62000000D03*
G36*
G01*
X24110000Y-37325000D02*
X24110000Y-35575000D01*
G75*
G02*
X24985000Y-34700000I875000J0D01*
G01*
X26735000Y-34700000D01*
G75*
G02*
X27610000Y-35575000I0J-875000D01*
G01*
X27610000Y-37325000D01*
G75*
G02*
X26735000Y-38200000I-875000J0D01*
G01*
X24985000Y-38200000D01*
G75*
G02*
X24110000Y-37325000I0J875000D01*
G01*
G37*
G36*
G01*
X21360000Y-32750000D02*
X21360000Y-30750000D01*
G75*
G02*
X22110000Y-30000000I750000J0D01*
G01*
X23610000Y-30000000D01*
G75*
G02*
X24360000Y-30750000I0J-750000D01*
G01*
X24360000Y-32750000D01*
G75*
G02*
X23610000Y-33500000I-750000J0D01*
G01*
X22110000Y-33500000D01*
G75*
G02*
X21360000Y-32750000I0J750000D01*
G01*
G37*
D16*
X28860000Y-31750000D03*
D17*
X23368000Y-46482000D03*
X23368000Y-43942000D03*
D18*
X23368000Y-41402000D03*
D19*
X26670000Y-54824000D03*
G36*
G01*
X25920000Y-51474000D02*
X27420000Y-51474000D01*
G75*
G02*
X27670000Y-51724000I0J-250000D01*
G01*
X27670000Y-52924000D01*
G75*
G02*
X27420000Y-53174000I-250000J0D01*
G01*
X25920000Y-53174000D01*
G75*
G02*
X25670000Y-52924000I0J250000D01*
G01*
X25670000Y-51724000D01*
G75*
G02*
X25920000Y-51474000I250000J0D01*
G01*
G37*
M02*
