<?xml version="1.0" encoding="UTF-8" standalone="no"?>
<svg
   version="1.1"
   width="27.52mm"
   height="27.42mm"
   viewBox="-13.46 -12.36 27.52 27.42"
   id="svg184"
   sodipodi:docname="128x64OLED.svg"
   inkscape:version="1.2.2 (b0a8486541, 2022-12-01)"
   xmlns:inkscape="http://www.inkscape.org/namespaces/inkscape"
   xmlns:sodipodi="http://sodipodi.sourceforge.net/DTD/sodipodi-0.dtd"
   xmlns="http://www.w3.org/2000/svg"
   xmlns:svg="http://www.w3.org/2000/svg">
  <defs
     id="defs188">
    <linearGradient
       id="SVGID_1_"
       gradientUnits="userSpaceOnUse"
       x1="37.939201"
       y1="1791.9222"
       x2="71.9552"
       y2="1791.9222"
       gradientTransform="translate(-16.679,-1720.3457)">
									<stop
   offset="0"
   style="stop-color:#CA7C05"
   id="stop881" />

									<stop
   offset="0.7895"
   style="stop-color:#FFC97D"
   id="stop883" />

									<stop
   offset="1"
   style="stop-color:#CE7500"
   id="stop885" />

								</linearGradient>
  </defs>
  <sodipodi:namedview
     id="namedview186"
     pagecolor="#ffffff"
     bordercolor="#000000"
     borderopacity="0.25"
     inkscape:showpageshadow="2"
     inkscape:pageopacity="0.0"
     inkscape:pagecheckerboard="0"
     inkscape:deskcolor="#d1d1d1"
     inkscape:document-units="mm"
     showgrid="false"
     inkscape:zoom="7.1887156"
     inkscape:cx="54.947228"
     inkscape:cy="25.247904"
     inkscape:window-width="1487"
     inkscape:window-height="941"
     inkscape:window-x="50"
     inkscape:window-y="28"
     inkscape:window-maximized="0"
     inkscape:current-layer="KiCAD footprint top" />
  <title
     id="title2">Picture generated by PcbDraw </title>
  <desc
     id="desc4">Picture generated by PcbDraw</desc>
  <g
     id="KiCAD footprint top">
    <g
       id="substrate-copper"
       style="display:inline;fill:#999999;fill-opacity:1;stroke:#666666">
      <g
         style="fill:#999999;fill-opacity:1;stroke-linecap:round;stroke-linejoin:round;stroke-opacity:1"
         id="g6" />
      <g
         style="fill:#999999;fill-opacity:1;stroke-width:0;stroke-linecap:round;stroke-linejoin:round;stroke-opacity:1"
         id="g26">
        <g
           id="g8"
           style="fill:#999999;fill-opacity:1" />
        <g
           style="fill:#999999;fill-opacity:1;stroke-width:1.6;stroke-linecap:round;stroke-linejoin:round;stroke-opacity:1"
           id="g18">
          <path
             d="m 4,-10.4 v -0.4"
             id="path10"
             style="fill:#999999;fill-opacity:1" />
          <path
             d="m 1.46,-10.4 v -0.4"
             id="path12"
             style="fill:#999999;fill-opacity:1" />
          <path
             d="m -3.62,-10.4 v -0.4"
             id="path14"
             style="fill:#999999;fill-opacity:1" />
          <path
             d="m -1.08,-10.4 v -0.4"
             id="path16"
             style="display:inline;fill:#999999;fill-opacity:0.62962651"
             inkscape:label="path16" />
        </g>
        <g
           id="g20"
           style="fill:#999999;fill-opacity:1" />
        <g
           id="g22"
           style="fill:#999999;fill-opacity:1" />
        <g
           id="g24"
           style="fill:#999999;fill-opacity:1" />
      </g>
      <g
         style="fill:#999999;fill-opacity:1;stroke-width:1.6;stroke-linecap:round;stroke-linejoin:round;stroke-opacity:1"
         id="g28" />
      <g
         style="fill:#999999;fill-opacity:1;stroke-width:0;stroke-linecap:round;stroke-linejoin:round;stroke-opacity:1"
         id="g32">
        <circle
           cx="4"
           cy="-10.6"
           r="0.175"
           id="circle30"
           style="fill:#999999;fill-opacity:1" />
      </g>
      <g
         style="fill:#999999;fill-opacity:1;stroke-width:0.0212;stroke-linecap:round;stroke-linejoin:round;stroke-opacity:1"
         id="g34" />
      <g
         style="fill:#999999;fill-opacity:1;stroke-width:0;stroke-linecap:round;stroke-linejoin:round;stroke-opacity:1"
         id="g38">
        <circle
           cx="1.46"
           cy="-10.6"
           r="0.175"
           id="circle36"
           style="fill:#999999;fill-opacity:1" />
      </g>
      <g
         style="fill:#999999;fill-opacity:1;stroke-width:0.0212;stroke-linecap:round;stroke-linejoin:round;stroke-opacity:1"
         id="g40" />
      <g
         style="fill:#999999;fill-opacity:1;stroke-width:0;stroke-linecap:round;stroke-linejoin:round;stroke-opacity:1"
         id="g44">
        <circle
           cx="-3.6199999"
           cy="-10.6"
           r="0.175"
           id="circle42"
           style="fill:#999999;fill-opacity:1" />
      </g>
      <g
         style="fill:#999999;fill-opacity:1;stroke-width:0.0212;stroke-linecap:round;stroke-linejoin:round;stroke-opacity:1"
         id="g46" />
      <g
         style="fill:#999999;fill-opacity:1;stroke-width:0;stroke-linecap:round;stroke-linejoin:round;stroke-opacity:1"
         id="g50">
        <circle
           cx="-1.08"
           cy="-10.6"
           r="0.175"
           id="circle48"
           style="fill:#999999;fill-opacity:1" />
      </g>
      <g
         style="fill:#999999;fill-opacity:1;stroke-width:0.0212;stroke-linecap:round;stroke-linejoin:round;stroke-opacity:1"
         id="g52" />
      <g
         style="fill:#999999;fill-opacity:1;stroke-width:0.0212;stroke-linecap:round;stroke-linejoin:round;stroke-opacity:1"
         id="g54" />
    </g>
  </g>
  <g
     transform="matrix(0.35390704,0,0,0.35390704,-13.344197,-12.43459)"
     id="g968"
     style="display:inline;stroke-width:0.747607">
	<g
   id="g966"
   style="stroke-width:0.742244"
   transform="matrix(1.0115824,0,0,1.0028849,-0.32721304,0.56678572)">
		<g
   id="g964"
   style="stroke-width:0.742244">
			<g
   id="g962"
   style="stroke-width:0.742244">
				<g
   id="g960"
   style="stroke-width:0.742244">
					<g
   id="g958"
   style="stroke-width:0.742244">
						<g
   id="g956"
   style="stroke-width:0.742244">
							<g
   id="breadboard"
   style="stroke-width:0.742244">
								<path
   fill="#165c7a"
   d="m 0,-0.355 v 76.917 h 19.275 c 0,0 0,-2.866 0,-4.251 0,-1.385 1.417,-1.417 1.417,-1.417 h 35.151 c 0,0 1.417,0.03 1.417,1.417 0,1.387 0,4.251 0,4.251 H 76.535 V -0.355 Z m 5.875,0.707 c 2.739,0 4.946,2.219 4.946,4.961 0,2.743 -2.209,4.96 -4.946,4.96 C 3.135,10.273 0.9,8.056 0.9,5.312 0.899,2.572 3.133,0.352 5.875,0.352 Z M 5.871,76.039 c -2.738,0 -4.961,-2.22 -4.961,-4.962 0,-2.743 2.222,-4.96 4.961,-4.96 2.739,0 4.96,2.217 4.96,4.96 0,2.743 -2.221,4.962 -4.96,4.962 z M 27.468,7.114 c -0.995,0 -1.798,-0.807 -1.798,-1.8 0,-0.993 0.806,-1.801 1.798,-1.801 0.995,0 1.801,0.809 1.801,1.801 0,0.994 -0.807,1.8 -1.801,1.8 z m 7.201,0 c -0.995,0 -1.801,-0.807 -1.801,-1.8 0,-0.993 0.807,-1.801 1.801,-1.801 0.992,0 1.798,0.809 1.798,1.801 0,0.994 -0.806,1.8 -1.798,1.8 z m 7.2,-10e-4 c -0.992,0 -1.799,-0.806 -1.799,-1.799 0,-0.993 0.807,-1.8 1.799,-1.8 0.994,0 1.801,0.808 1.801,1.8 0,0.994 -0.807,1.799 -1.801,1.799 z m 7.199,10e-4 c -0.993,0 -1.799,-0.807 -1.799,-1.8 0,-0.993 0.806,-1.801 1.799,-1.801 0.994,0 1.801,0.809 1.801,1.801 0,0.994 -0.806,1.8 -1.801,1.8 z m 21.595,68.925 c -2.743,0 -4.961,-2.22 -4.961,-4.961 0,-2.741 2.218,-4.961 4.961,-4.961 2.737,0 4.961,2.22 4.961,4.961 0,2.741 -2.224,4.961 -4.961,4.961 z M 70.659,10.274 c -2.74,0 -4.946,-2.217 -4.946,-4.96 0,-2.741 2.206,-4.96 4.946,-4.96 2.743,0 4.975,2.218 4.975,4.96 0,2.743 -2.235,4.96 -4.975,4.96 z"
   id="path868"
   style="stroke-width:0.613098" />

								<rect
   id="rect4903"
   x="0.56699997"
   y="10.7"
   fill="#3e3d40"
   width="75.400002"
   height="54.709"
   style="stroke-width:0.613098" />

								<rect
   id="rect4903_1_"
   x="0.56699997"
   y="10.7"
   width="75.400002"
   height="42.521"
   style="stroke-width:0.742244" />

								<rect
   x="3.401"
   y="13.535"
   opacity="0.8"
   fill="#2e2d30"
   enable-background="new    "
   width="69.732002"
   height="36.851002"
   id="rect872"
   style="stroke-width:0.613098" />

								<path
   opacity="0.2"
   fill="#58585a"
   enable-background="new    "
   d="M 3.401,50.384 V 13.535 h 33.063 c 8.254,21.904 19.804,36.851 19.804,36.851 H 3.401 Z"
   id="path874"
   style="stroke-width:0.613098" />

								<path
   id="path10269"
   fill="none"
   stroke="#f7bd13"
   stroke-width="0.818474"
   d="m 75.482,5.314 c 0,2.661 -2.159,4.818 -4.818,4.818 -2.661,0 -4.82,-2.157 -4.82,-4.818 0,-2.662 2.159,-4.818 4.82,-4.818 2.659,0 4.818,2.158 4.818,4.818 z" />

								<path
   id="path10269_2_"
   fill="none"
   stroke="#f7bd13"
   stroke-width="0.818474"
   d="m 10.69,5.314 c 0,2.661 -2.158,4.819 -4.818,4.819 -2.662,0 -4.82,-2.157 -4.82,-4.819 0,-2.662 2.158,-4.819 4.82,-4.819 2.66,0 4.818,2.159 4.818,4.819 z" />

								<path
   id="path10269_3_"
   fill="none"
   stroke="#f7bd13"
   stroke-width="0.818474"
   d="m 75.482,71.078 c 0,2.66 -2.159,4.818 -4.818,4.818 -2.661,0 -4.82,-2.156 -4.82,-4.818 0,-2.662 2.159,-4.818 4.82,-4.818 2.659,0 4.818,2.158 4.818,4.818 z" />

								<path
   id="path10269_4_"
   fill="none"
   stroke="#f7bd13"
   stroke-width="0.818474"
   d="m 10.69,71.078 c 0,2.661 -2.159,4.818 -4.818,4.818 -2.661,0 -4.82,-2.156 -4.82,-4.818 0,-2.662 2.159,-4.818 4.82,-4.818 2.659,0 4.818,2.158 4.818,4.818 z" />

								<path
   id="path10269_1_"
   display="none"
   fill="none"
   stroke="#f7bd13"
   stroke-width="0.818474"
   d="m 10.69,69.944 c 0,2.661 -2.158,4.819 -4.818,4.819 -2.662,0 -4.82,-2.157 -4.82,-4.819 0,-2.662 2.158,-4.818 4.82,-4.818 2.66,-0.001 4.818,2.157 4.818,4.818 z" />

								
									<linearGradient
   id="linearGradient1587"
   gradientUnits="userSpaceOnUse"
   x1="37.939201"
   y1="1791.9222"
   x2="71.9552"
   y2="1791.9222"
   gradientTransform="translate(-16.679,-1720.3457)">
									<stop
   offset="0"
   style="stop-color:#CA7C05"
   id="stop1581" />

									<stop
   offset="0.7895"
   style="stop-color:#FFC97D"
   id="stop1583" />

									<stop
   offset="1"
   style="stop-color:#CE7500"
   id="stop1585" />

								</linearGradient>

								<path
   fill="url(#SVGID_1_)"
   d="M 53.813,68.027 H 22.723 C 21.91,68.068 21.26,68.736 21.26,69.56 v 5.566 H 55.276 V 69.56 c -0.001,-0.824 -0.649,-1.492 -1.463,-1.533 z"
   id="path888"
   style="fill:url(#SVGID_1_);stroke-width:0.742244" />

								<path
   d="m 20.093,65.409 v 0.083 c 1.429,0 2.584,1.156 2.584,2.583 v 7.051 h 31.181 v -7.051 c 0,-1.427 1.156,-2.583 2.584,-2.583 v -0.083 z"
   id="path890"
   style="stroke-width:0.742244" />

								<rect
   x="20.093"
   y="53.221001"
   fill="#292929"
   width="36.348999"
   height="12.188"
   id="rect892"
   style="stroke-width:0.613098" />

								
									<rect
   id="rect4903_2_"
   x="0.56699997"
   y="53.220001"
   opacity="0.8"
   fill="#1a171b"
   enable-background="new    "
   width="75.400002"
   height="2.7349999"
   style="stroke-width:0.613098" />

								<g
   transform="translate(24.8096,10.1721)"
   id="g907"
   style="stroke-width:0.742244">
									<g
   id="g905"
   style="stroke-width:0.742244">
										<g
   id="g903"
   style="stroke-width:0.742244">
											<g
   id="g901"
   style="stroke-width:0.742244">
												<g
   id="g899"
   style="stroke-width:0.742244">
													<g
   id="g897"
   style="stroke-width:0.742244">
														<text
   transform="translate(0.0309)"
   fill="#ffffff"
   font-family="DroidSans"
   font-size="2.5px"
   id="text895"
   style="stroke-width:0.613098">GND</text>

													</g>

												</g>

											</g>

										</g>

									</g>

								</g>

								<g
   transform="translate(32.2183,10.1721)"
   id="g921"
   style="stroke-width:0.742244">
									<g
   id="g919"
   style="stroke-width:0.742244">
										<g
   id="g917"
   style="stroke-width:0.742244">
											<g
   id="g915"
   style="stroke-width:0.742244">
												<g
   id="g913"
   style="stroke-width:0.742244">
													<g
   id="g911"
   style="stroke-width:0.742244">
														<text
   transform="translate(0.2319)"
   fill="#ffffff"
   font-family="DroidSans"
   font-size="2.5px"
   id="text909"
   style="stroke-width:0.613098">VCC</text>

													</g>

												</g>

											</g>

										</g>

									</g>

								</g>

								<g
   transform="translate(39.7129,10.1721)"
   id="g935"
   style="stroke-width:0.742244">
									<g
   id="g933"
   style="stroke-width:0.742244">
										<g
   id="g931"
   style="stroke-width:0.742244">
											<g
   id="g929"
   style="stroke-width:0.742244">
												<g
   id="g927"
   style="stroke-width:0.742244">
													<g
   id="g925"
   style="stroke-width:0.742244">
														<text
   transform="translate(0.1399)"
   fill="#ffffff"
   font-family="DroidSans"
   font-size="2.5px"
   id="text923"
   style="stroke-width:0.613098">SCL</text>

													</g>

												</g>

											</g>

										</g>

									</g>

								</g>

								<g
   transform="translate(46.7754,10.1721)"
   id="g949"
   style="stroke-width:0.742244">
									<g
   id="g947"
   style="stroke-width:0.742244">
										<g
   id="g945"
   style="stroke-width:0.742244">
											<g
   id="g943"
   style="stroke-width:0.742244">
												<g
   id="g941"
   style="stroke-width:0.742244">
													<g
   id="g939"
   style="stroke-width:0.742244">
														<text
   transform="translate(0.0303)"
   fill="#ffffff"
   font-family="DroidSans"
   font-size="2.5px"
   id="text937"
   style="stroke-width:0.613098">SDA</text>

													</g>

												</g>

											</g>

										</g>

									</g>

								</g>

								<circle
   id="connector8pin"
   fill="none"
   stroke="#f7bd13"
   stroke-width="0.818474"
   cx="49.066002"
   cy="5.3140001"
   r="1.98" />

								<circle
   id="connector7pin"
   fill="none"
   stroke="#f7bd13"
   stroke-width="0.818474"
   cx="41.868999"
   cy="5.3140001"
   r="1.98" />

								<circle
   id="connector5pin"
   fill="none"
   stroke="#f7bd13"
   stroke-width="0.818474"
   cx="34.668999"
   cy="5.3140001"
   r="1.98" />

								<circle
   id="connector4pin"
   fill="none"
   stroke="#f7bd13"
   stroke-width="0.818474"
   cx="27.469"
   cy="5.3130002"
   r="1.979" />

							</g>

						</g>

					</g>

				</g>

			</g>

		</g>

	</g>

</g>
  <rect
     id="origin"
     fill="red"
     width="0.393"
     height="0.393"
     x="0"
     y="0" />
</svg>
