G04 #@! TF.GenerationSoftware,KiCad,Pcbnew,5.1.10-88a1d61d58~90~ubuntu21.04.1*
G04 #@! TF.CreationDate,2021-10-15T10:02:05+02:00*
G04 #@! TF.ProjectId,IndicatorLeds,496e6469-6361-4746-9f72-4c6564732e6b,rev?*
G04 #@! TF.SameCoordinates,Original*
G04 #@! TF.FileFunction,Other,Comment*
%FSLAX46Y46*%
G04 Gerber Fmt 4.6, Leading zero omitted, Abs format (unit mm)*
G04 Created by KiCad (PCBNEW 5.1.10-88a1d61d58~90~ubuntu21.04.1) date 2021-10-15 10:02:05*
%MOMM*%
%LPD*%
G01*
G04 APERTURE LIST*
%ADD10C,0.400000*%
G04 #@! TA.AperFunction,Profile*
%ADD11C,0.100000*%
G04 #@! TD*
G04 APERTURE END LIST*
D10*
X108904761Y-43548523D02*
X110904761Y-42881857D01*
X108904761Y-42215190D01*
X110142857Y-41548523D02*
X110142857Y-40024714D01*
X110714285Y-37929476D02*
X110809523Y-38024714D01*
X110904761Y-38310428D01*
X110904761Y-38500904D01*
X110809523Y-38786619D01*
X110619047Y-38977095D01*
X110428571Y-39072333D01*
X110047619Y-39167571D01*
X109761904Y-39167571D01*
X109380952Y-39072333D01*
X109190476Y-38977095D01*
X109000000Y-38786619D01*
X108904761Y-38500904D01*
X108904761Y-38310428D01*
X109000000Y-38024714D01*
X109095238Y-37929476D01*
X108904761Y-37072333D02*
X110523809Y-37072333D01*
X110714285Y-36977095D01*
X110809523Y-36881857D01*
X110904761Y-36691380D01*
X110904761Y-36310428D01*
X110809523Y-36119952D01*
X110714285Y-36024714D01*
X110523809Y-35929476D01*
X108904761Y-35929476D01*
X108904761Y-35262809D02*
X108904761Y-34119952D01*
X110904761Y-34691380D02*
X108904761Y-34691380D01*
X110000000Y-46999000D02*
X110000000Y-120501000D01*
X48904761Y-43548523D02*
X50904761Y-42881857D01*
X48904761Y-42215190D01*
X50142857Y-41548523D02*
X50142857Y-40024714D01*
X50714285Y-37929476D02*
X50809523Y-38024714D01*
X50904761Y-38310428D01*
X50904761Y-38500904D01*
X50809523Y-38786619D01*
X50619047Y-38977095D01*
X50428571Y-39072333D01*
X50047619Y-39167571D01*
X49761904Y-39167571D01*
X49380952Y-39072333D01*
X49190476Y-38977095D01*
X49000000Y-38786619D01*
X48904761Y-38500904D01*
X48904761Y-38310428D01*
X49000000Y-38024714D01*
X49095238Y-37929476D01*
X48904761Y-37072333D02*
X50523809Y-37072333D01*
X50714285Y-36977095D01*
X50809523Y-36881857D01*
X50904761Y-36691380D01*
X50904761Y-36310428D01*
X50809523Y-36119952D01*
X50714285Y-36024714D01*
X50523809Y-35929476D01*
X48904761Y-35929476D01*
X48904761Y-35262809D02*
X48904761Y-34119952D01*
X50904761Y-34691380D02*
X48904761Y-34691380D01*
X50000000Y-46999000D02*
X50000000Y-120501000D01*
X98904761Y-43548523D02*
X100904761Y-42881857D01*
X98904761Y-42215190D01*
X100142857Y-41548523D02*
X100142857Y-40024714D01*
X100714285Y-37929476D02*
X100809523Y-38024714D01*
X100904761Y-38310428D01*
X100904761Y-38500904D01*
X100809523Y-38786619D01*
X100619047Y-38977095D01*
X100428571Y-39072333D01*
X100047619Y-39167571D01*
X99761904Y-39167571D01*
X99380952Y-39072333D01*
X99190476Y-38977095D01*
X99000000Y-38786619D01*
X98904761Y-38500904D01*
X98904761Y-38310428D01*
X99000000Y-38024714D01*
X99095238Y-37929476D01*
X98904761Y-37072333D02*
X100523809Y-37072333D01*
X100714285Y-36977095D01*
X100809523Y-36881857D01*
X100904761Y-36691380D01*
X100904761Y-36310428D01*
X100809523Y-36119952D01*
X100714285Y-36024714D01*
X100523809Y-35929476D01*
X98904761Y-35929476D01*
X98904761Y-35262809D02*
X98904761Y-34119952D01*
X100904761Y-34691380D02*
X98904761Y-34691380D01*
X100000000Y-46999000D02*
X100000000Y-120501000D01*
X68904761Y-43548523D02*
X70904761Y-42881857D01*
X68904761Y-42215190D01*
X70142857Y-41548523D02*
X70142857Y-40024714D01*
X70714285Y-37929476D02*
X70809523Y-38024714D01*
X70904761Y-38310428D01*
X70904761Y-38500904D01*
X70809523Y-38786619D01*
X70619047Y-38977095D01*
X70428571Y-39072333D01*
X70047619Y-39167571D01*
X69761904Y-39167571D01*
X69380952Y-39072333D01*
X69190476Y-38977095D01*
X69000000Y-38786619D01*
X68904761Y-38500904D01*
X68904761Y-38310428D01*
X69000000Y-38024714D01*
X69095238Y-37929476D01*
X68904761Y-37072333D02*
X70523809Y-37072333D01*
X70714285Y-36977095D01*
X70809523Y-36881857D01*
X70904761Y-36691380D01*
X70904761Y-36310428D01*
X70809523Y-36119952D01*
X70714285Y-36024714D01*
X70523809Y-35929476D01*
X68904761Y-35929476D01*
X68904761Y-35262809D02*
X68904761Y-34119952D01*
X70904761Y-34691380D02*
X68904761Y-34691380D01*
X70000000Y-46999000D02*
X70000000Y-120501000D01*
X88904761Y-43548523D02*
X90904761Y-42881857D01*
X88904761Y-42215190D01*
X90142857Y-41548523D02*
X90142857Y-40024714D01*
X90714285Y-37929476D02*
X90809523Y-38024714D01*
X90904761Y-38310428D01*
X90904761Y-38500904D01*
X90809523Y-38786619D01*
X90619047Y-38977095D01*
X90428571Y-39072333D01*
X90047619Y-39167571D01*
X89761904Y-39167571D01*
X89380952Y-39072333D01*
X89190476Y-38977095D01*
X89000000Y-38786619D01*
X88904761Y-38500904D01*
X88904761Y-38310428D01*
X89000000Y-38024714D01*
X89095238Y-37929476D01*
X88904761Y-37072333D02*
X90523809Y-37072333D01*
X90714285Y-36977095D01*
X90809523Y-36881857D01*
X90904761Y-36691380D01*
X90904761Y-36310428D01*
X90809523Y-36119952D01*
X90714285Y-36024714D01*
X90523809Y-35929476D01*
X88904761Y-35929476D01*
X88904761Y-35262809D02*
X88904761Y-34119952D01*
X90904761Y-34691380D02*
X88904761Y-34691380D01*
X90000000Y-46999000D02*
X90000000Y-120501000D01*
X78904761Y-43548523D02*
X80904761Y-42881857D01*
X78904761Y-42215190D01*
X80142857Y-41548523D02*
X80142857Y-40024714D01*
X80714285Y-37929476D02*
X80809523Y-38024714D01*
X80904761Y-38310428D01*
X80904761Y-38500904D01*
X80809523Y-38786619D01*
X80619047Y-38977095D01*
X80428571Y-39072333D01*
X80047619Y-39167571D01*
X79761904Y-39167571D01*
X79380952Y-39072333D01*
X79190476Y-38977095D01*
X79000000Y-38786619D01*
X78904761Y-38500904D01*
X78904761Y-38310428D01*
X79000000Y-38024714D01*
X79095238Y-37929476D01*
X78904761Y-37072333D02*
X80523809Y-37072333D01*
X80714285Y-36977095D01*
X80809523Y-36881857D01*
X80904761Y-36691380D01*
X80904761Y-36310428D01*
X80809523Y-36119952D01*
X80714285Y-36024714D01*
X80523809Y-35929476D01*
X78904761Y-35929476D01*
X78904761Y-35262809D02*
X78904761Y-34119952D01*
X80904761Y-34691380D02*
X78904761Y-34691380D01*
X80000000Y-46999000D02*
X80000000Y-120501000D01*
X58904761Y-43548523D02*
X60904761Y-42881857D01*
X58904761Y-42215190D01*
X60142857Y-41548523D02*
X60142857Y-40024714D01*
X60714285Y-37929476D02*
X60809523Y-38024714D01*
X60904761Y-38310428D01*
X60904761Y-38500904D01*
X60809523Y-38786619D01*
X60619047Y-38977095D01*
X60428571Y-39072333D01*
X60047619Y-39167571D01*
X59761904Y-39167571D01*
X59380952Y-39072333D01*
X59190476Y-38977095D01*
X59000000Y-38786619D01*
X58904761Y-38500904D01*
X58904761Y-38310428D01*
X59000000Y-38024714D01*
X59095238Y-37929476D01*
X58904761Y-37072333D02*
X60523809Y-37072333D01*
X60714285Y-36977095D01*
X60809523Y-36881857D01*
X60904761Y-36691380D01*
X60904761Y-36310428D01*
X60809523Y-36119952D01*
X60714285Y-36024714D01*
X60523809Y-35929476D01*
X58904761Y-35929476D01*
X58904761Y-35262809D02*
X58904761Y-34119952D01*
X60904761Y-34691380D02*
X58904761Y-34691380D01*
X60000000Y-46999000D02*
X60000000Y-120501000D01*
X121451476Y-93904761D02*
X122118142Y-95904761D01*
X122784809Y-93904761D01*
X123451476Y-95142857D02*
X124975285Y-95142857D01*
X127070523Y-95714285D02*
X126975285Y-95809523D01*
X126689571Y-95904761D01*
X126499095Y-95904761D01*
X126213380Y-95809523D01*
X126022904Y-95619047D01*
X125927666Y-95428571D01*
X125832428Y-95047619D01*
X125832428Y-94761904D01*
X125927666Y-94380952D01*
X126022904Y-94190476D01*
X126213380Y-94000000D01*
X126499095Y-93904761D01*
X126689571Y-93904761D01*
X126975285Y-94000000D01*
X127070523Y-94095238D01*
X127927666Y-93904761D02*
X127927666Y-95523809D01*
X128022904Y-95714285D01*
X128118142Y-95809523D01*
X128308619Y-95904761D01*
X128689571Y-95904761D01*
X128880047Y-95809523D01*
X128975285Y-95714285D01*
X129070523Y-95523809D01*
X129070523Y-93904761D01*
X129737190Y-93904761D02*
X130880047Y-93904761D01*
X130308619Y-95904761D02*
X130308619Y-93904761D01*
X42000000Y-95000000D02*
X118001000Y-95000000D01*
X121451476Y-71404761D02*
X122118142Y-73404761D01*
X122784809Y-71404761D01*
X123451476Y-72642857D02*
X124975285Y-72642857D01*
X127070523Y-73214285D02*
X126975285Y-73309523D01*
X126689571Y-73404761D01*
X126499095Y-73404761D01*
X126213380Y-73309523D01*
X126022904Y-73119047D01*
X125927666Y-72928571D01*
X125832428Y-72547619D01*
X125832428Y-72261904D01*
X125927666Y-71880952D01*
X126022904Y-71690476D01*
X126213380Y-71500000D01*
X126499095Y-71404761D01*
X126689571Y-71404761D01*
X126975285Y-71500000D01*
X127070523Y-71595238D01*
X127927666Y-71404761D02*
X127927666Y-73023809D01*
X128022904Y-73214285D01*
X128118142Y-73309523D01*
X128308619Y-73404761D01*
X128689571Y-73404761D01*
X128880047Y-73309523D01*
X128975285Y-73214285D01*
X129070523Y-73023809D01*
X129070523Y-71404761D01*
X129737190Y-71404761D02*
X130880047Y-71404761D01*
X130308619Y-73404761D02*
X130308619Y-71404761D01*
X42000000Y-72500000D02*
X118001000Y-72500000D01*
D11*
X45000000Y-49999000D02*
X110000000Y-49999000D01*
X45000000Y-117501000D02*
X45000000Y-49999000D01*
X115001000Y-117501000D02*
X45000000Y-117501000D01*
X115001000Y-49999000D02*
X115001000Y-117501000D01*
X110000000Y-49999000D02*
X115001000Y-49999000D01*
M02*
