G04 #@! TF.GenerationSoftware,KiCad,Pcbnew,5.1.10-88a1d61d58~90~ubuntu21.04.1*
G04 #@! TF.CreationDate,2021-10-15T09:48:59+02:00*
G04 #@! TF.ProjectId,IndicatorLeds,496e6469-6361-4746-9f72-4c6564732e6b,rev?*
G04 #@! TF.SameCoordinates,Original*
G04 #@! TF.FileFunction,Soldermask,Bot*
G04 #@! TF.FilePolarity,Negative*
%FSLAX46Y46*%
G04 Gerber Fmt 4.6, Leading zero omitted, Abs format (unit mm)*
G04 Created by KiCad (PCBNEW 5.1.10-88a1d61d58~90~ubuntu21.04.1) date 2021-10-15 09:48:59*
%MOMM*%
%LPD*%
G01*
G04 APERTURE LIST*
G04 #@! TA.AperFunction,Profile*
%ADD10C,0.100000*%
G04 #@! TD*
%ADD11R,1.700000X1.700000*%
%ADD12O,1.700000X1.700000*%
%ADD13C,0.350000*%
G04 APERTURE END LIST*
D10*
X45000000Y-49999000D02*
X110000000Y-49999000D01*
X45000000Y-117501000D02*
X45000000Y-49999000D01*
X115001000Y-117501000D02*
X45000000Y-117501000D01*
X115001000Y-49999000D02*
X115001000Y-117501000D01*
X110000000Y-49999000D02*
X115001000Y-49999000D01*
D11*
G04 #@! TO.C,J1*
X107529026Y-115761011D03*
D12*
X107529026Y-113221011D03*
X104989026Y-115761011D03*
X104989026Y-113221011D03*
X102449026Y-115761011D03*
X102449026Y-113221011D03*
G04 #@! TD*
D13*
G04 #@! TO.C,JP1*
G36*
X104850026Y-104250011D02*
G01*
X104350026Y-104250011D01*
X104350026Y-104249409D01*
X104325492Y-104249409D01*
X104276661Y-104244599D01*
X104228536Y-104235027D01*
X104181581Y-104220783D01*
X104136248Y-104202006D01*
X104092975Y-104178875D01*
X104052176Y-104151615D01*
X104014247Y-104120487D01*
X103979550Y-104085790D01*
X103948422Y-104047861D01*
X103921162Y-104007062D01*
X103898031Y-103963789D01*
X103879254Y-103918456D01*
X103865010Y-103871501D01*
X103855438Y-103823376D01*
X103850628Y-103774545D01*
X103850628Y-103750011D01*
X103850026Y-103750011D01*
X103850026Y-103250011D01*
X103850628Y-103250011D01*
X103850628Y-103225477D01*
X103855438Y-103176646D01*
X103865010Y-103128521D01*
X103879254Y-103081566D01*
X103898031Y-103036233D01*
X103921162Y-102992960D01*
X103948422Y-102952161D01*
X103979550Y-102914232D01*
X104014247Y-102879535D01*
X104052176Y-102848407D01*
X104092975Y-102821147D01*
X104136248Y-102798016D01*
X104181581Y-102779239D01*
X104228536Y-102764995D01*
X104276661Y-102755423D01*
X104325492Y-102750613D01*
X104350026Y-102750613D01*
X104350026Y-102750011D01*
X104850026Y-102750011D01*
X104850026Y-104250011D01*
G37*
G36*
X105650026Y-102750613D02*
G01*
X105674560Y-102750613D01*
X105723391Y-102755423D01*
X105771516Y-102764995D01*
X105818471Y-102779239D01*
X105863804Y-102798016D01*
X105907077Y-102821147D01*
X105947876Y-102848407D01*
X105985805Y-102879535D01*
X106020502Y-102914232D01*
X106051630Y-102952161D01*
X106078890Y-102992960D01*
X106102021Y-103036233D01*
X106120798Y-103081566D01*
X106135042Y-103128521D01*
X106144614Y-103176646D01*
X106149424Y-103225477D01*
X106149424Y-103250011D01*
X106150026Y-103250011D01*
X106150026Y-103750011D01*
X106149424Y-103750011D01*
X106149424Y-103774545D01*
X106144614Y-103823376D01*
X106135042Y-103871501D01*
X106120798Y-103918456D01*
X106102021Y-103963789D01*
X106078890Y-104007062D01*
X106051630Y-104047861D01*
X106020502Y-104085790D01*
X105985805Y-104120487D01*
X105947876Y-104151615D01*
X105907077Y-104178875D01*
X105863804Y-104202006D01*
X105818471Y-104220783D01*
X105771516Y-104235027D01*
X105723391Y-104244599D01*
X105674560Y-104249409D01*
X105650026Y-104249409D01*
X105650026Y-104250011D01*
X105150026Y-104250011D01*
X105150026Y-102750011D01*
X105650026Y-102750011D01*
X105650026Y-102750613D01*
G37*
G04 #@! TD*
D11*
G04 #@! TO.C,J1*
X97529021Y-115761011D03*
D12*
X97529021Y-113221011D03*
X94989021Y-115761011D03*
X94989021Y-113221011D03*
X92449021Y-115761011D03*
X92449021Y-113221011D03*
G04 #@! TD*
D13*
G04 #@! TO.C,JP1*
G36*
X94850021Y-104250011D02*
G01*
X94350021Y-104250011D01*
X94350021Y-104249409D01*
X94325487Y-104249409D01*
X94276656Y-104244599D01*
X94228531Y-104235027D01*
X94181576Y-104220783D01*
X94136243Y-104202006D01*
X94092970Y-104178875D01*
X94052171Y-104151615D01*
X94014242Y-104120487D01*
X93979545Y-104085790D01*
X93948417Y-104047861D01*
X93921157Y-104007062D01*
X93898026Y-103963789D01*
X93879249Y-103918456D01*
X93865005Y-103871501D01*
X93855433Y-103823376D01*
X93850623Y-103774545D01*
X93850623Y-103750011D01*
X93850021Y-103750011D01*
X93850021Y-103250011D01*
X93850623Y-103250011D01*
X93850623Y-103225477D01*
X93855433Y-103176646D01*
X93865005Y-103128521D01*
X93879249Y-103081566D01*
X93898026Y-103036233D01*
X93921157Y-102992960D01*
X93948417Y-102952161D01*
X93979545Y-102914232D01*
X94014242Y-102879535D01*
X94052171Y-102848407D01*
X94092970Y-102821147D01*
X94136243Y-102798016D01*
X94181576Y-102779239D01*
X94228531Y-102764995D01*
X94276656Y-102755423D01*
X94325487Y-102750613D01*
X94350021Y-102750613D01*
X94350021Y-102750011D01*
X94850021Y-102750011D01*
X94850021Y-104250011D01*
G37*
G36*
X95650021Y-102750613D02*
G01*
X95674555Y-102750613D01*
X95723386Y-102755423D01*
X95771511Y-102764995D01*
X95818466Y-102779239D01*
X95863799Y-102798016D01*
X95907072Y-102821147D01*
X95947871Y-102848407D01*
X95985800Y-102879535D01*
X96020497Y-102914232D01*
X96051625Y-102952161D01*
X96078885Y-102992960D01*
X96102016Y-103036233D01*
X96120793Y-103081566D01*
X96135037Y-103128521D01*
X96144609Y-103176646D01*
X96149419Y-103225477D01*
X96149419Y-103250011D01*
X96150021Y-103250011D01*
X96150021Y-103750011D01*
X96149419Y-103750011D01*
X96149419Y-103774545D01*
X96144609Y-103823376D01*
X96135037Y-103871501D01*
X96120793Y-103918456D01*
X96102016Y-103963789D01*
X96078885Y-104007062D01*
X96051625Y-104047861D01*
X96020497Y-104085790D01*
X95985800Y-104120487D01*
X95947871Y-104151615D01*
X95907072Y-104178875D01*
X95863799Y-104202006D01*
X95818466Y-104220783D01*
X95771511Y-104235027D01*
X95723386Y-104244599D01*
X95674555Y-104249409D01*
X95650021Y-104249409D01*
X95650021Y-104250011D01*
X95150021Y-104250011D01*
X95150021Y-102750011D01*
X95650021Y-102750011D01*
X95650021Y-102750613D01*
G37*
G04 #@! TD*
D11*
G04 #@! TO.C,J1*
X87529016Y-115761011D03*
D12*
X87529016Y-113221011D03*
X84989016Y-115761011D03*
X84989016Y-113221011D03*
X82449016Y-115761011D03*
X82449016Y-113221011D03*
G04 #@! TD*
D13*
G04 #@! TO.C,JP1*
G36*
X84850016Y-104250011D02*
G01*
X84350016Y-104250011D01*
X84350016Y-104249409D01*
X84325482Y-104249409D01*
X84276651Y-104244599D01*
X84228526Y-104235027D01*
X84181571Y-104220783D01*
X84136238Y-104202006D01*
X84092965Y-104178875D01*
X84052166Y-104151615D01*
X84014237Y-104120487D01*
X83979540Y-104085790D01*
X83948412Y-104047861D01*
X83921152Y-104007062D01*
X83898021Y-103963789D01*
X83879244Y-103918456D01*
X83865000Y-103871501D01*
X83855428Y-103823376D01*
X83850618Y-103774545D01*
X83850618Y-103750011D01*
X83850016Y-103750011D01*
X83850016Y-103250011D01*
X83850618Y-103250011D01*
X83850618Y-103225477D01*
X83855428Y-103176646D01*
X83865000Y-103128521D01*
X83879244Y-103081566D01*
X83898021Y-103036233D01*
X83921152Y-102992960D01*
X83948412Y-102952161D01*
X83979540Y-102914232D01*
X84014237Y-102879535D01*
X84052166Y-102848407D01*
X84092965Y-102821147D01*
X84136238Y-102798016D01*
X84181571Y-102779239D01*
X84228526Y-102764995D01*
X84276651Y-102755423D01*
X84325482Y-102750613D01*
X84350016Y-102750613D01*
X84350016Y-102750011D01*
X84850016Y-102750011D01*
X84850016Y-104250011D01*
G37*
G36*
X85650016Y-102750613D02*
G01*
X85674550Y-102750613D01*
X85723381Y-102755423D01*
X85771506Y-102764995D01*
X85818461Y-102779239D01*
X85863794Y-102798016D01*
X85907067Y-102821147D01*
X85947866Y-102848407D01*
X85985795Y-102879535D01*
X86020492Y-102914232D01*
X86051620Y-102952161D01*
X86078880Y-102992960D01*
X86102011Y-103036233D01*
X86120788Y-103081566D01*
X86135032Y-103128521D01*
X86144604Y-103176646D01*
X86149414Y-103225477D01*
X86149414Y-103250011D01*
X86150016Y-103250011D01*
X86150016Y-103750011D01*
X86149414Y-103750011D01*
X86149414Y-103774545D01*
X86144604Y-103823376D01*
X86135032Y-103871501D01*
X86120788Y-103918456D01*
X86102011Y-103963789D01*
X86078880Y-104007062D01*
X86051620Y-104047861D01*
X86020492Y-104085790D01*
X85985795Y-104120487D01*
X85947866Y-104151615D01*
X85907067Y-104178875D01*
X85863794Y-104202006D01*
X85818461Y-104220783D01*
X85771506Y-104235027D01*
X85723381Y-104244599D01*
X85674550Y-104249409D01*
X85650016Y-104249409D01*
X85650016Y-104250011D01*
X85150016Y-104250011D01*
X85150016Y-102750011D01*
X85650016Y-102750011D01*
X85650016Y-102750613D01*
G37*
G04 #@! TD*
D11*
G04 #@! TO.C,J1*
X77529011Y-115761011D03*
D12*
X77529011Y-113221011D03*
X74989011Y-115761011D03*
X74989011Y-113221011D03*
X72449011Y-115761011D03*
X72449011Y-113221011D03*
G04 #@! TD*
D13*
G04 #@! TO.C,JP1*
G36*
X74850011Y-104250011D02*
G01*
X74350011Y-104250011D01*
X74350011Y-104249409D01*
X74325477Y-104249409D01*
X74276646Y-104244599D01*
X74228521Y-104235027D01*
X74181566Y-104220783D01*
X74136233Y-104202006D01*
X74092960Y-104178875D01*
X74052161Y-104151615D01*
X74014232Y-104120487D01*
X73979535Y-104085790D01*
X73948407Y-104047861D01*
X73921147Y-104007062D01*
X73898016Y-103963789D01*
X73879239Y-103918456D01*
X73864995Y-103871501D01*
X73855423Y-103823376D01*
X73850613Y-103774545D01*
X73850613Y-103750011D01*
X73850011Y-103750011D01*
X73850011Y-103250011D01*
X73850613Y-103250011D01*
X73850613Y-103225477D01*
X73855423Y-103176646D01*
X73864995Y-103128521D01*
X73879239Y-103081566D01*
X73898016Y-103036233D01*
X73921147Y-102992960D01*
X73948407Y-102952161D01*
X73979535Y-102914232D01*
X74014232Y-102879535D01*
X74052161Y-102848407D01*
X74092960Y-102821147D01*
X74136233Y-102798016D01*
X74181566Y-102779239D01*
X74228521Y-102764995D01*
X74276646Y-102755423D01*
X74325477Y-102750613D01*
X74350011Y-102750613D01*
X74350011Y-102750011D01*
X74850011Y-102750011D01*
X74850011Y-104250011D01*
G37*
G36*
X75650011Y-102750613D02*
G01*
X75674545Y-102750613D01*
X75723376Y-102755423D01*
X75771501Y-102764995D01*
X75818456Y-102779239D01*
X75863789Y-102798016D01*
X75907062Y-102821147D01*
X75947861Y-102848407D01*
X75985790Y-102879535D01*
X76020487Y-102914232D01*
X76051615Y-102952161D01*
X76078875Y-102992960D01*
X76102006Y-103036233D01*
X76120783Y-103081566D01*
X76135027Y-103128521D01*
X76144599Y-103176646D01*
X76149409Y-103225477D01*
X76149409Y-103250011D01*
X76150011Y-103250011D01*
X76150011Y-103750011D01*
X76149409Y-103750011D01*
X76149409Y-103774545D01*
X76144599Y-103823376D01*
X76135027Y-103871501D01*
X76120783Y-103918456D01*
X76102006Y-103963789D01*
X76078875Y-104007062D01*
X76051615Y-104047861D01*
X76020487Y-104085790D01*
X75985790Y-104120487D01*
X75947861Y-104151615D01*
X75907062Y-104178875D01*
X75863789Y-104202006D01*
X75818456Y-104220783D01*
X75771501Y-104235027D01*
X75723376Y-104244599D01*
X75674545Y-104249409D01*
X75650011Y-104249409D01*
X75650011Y-104250011D01*
X75150011Y-104250011D01*
X75150011Y-102750011D01*
X75650011Y-102750011D01*
X75650011Y-102750613D01*
G37*
G04 #@! TD*
D11*
G04 #@! TO.C,J1*
X67529006Y-115761011D03*
D12*
X67529006Y-113221011D03*
X64989006Y-115761011D03*
X64989006Y-113221011D03*
X62449006Y-115761011D03*
X62449006Y-113221011D03*
G04 #@! TD*
D13*
G04 #@! TO.C,JP1*
G36*
X64850006Y-104250011D02*
G01*
X64350006Y-104250011D01*
X64350006Y-104249409D01*
X64325472Y-104249409D01*
X64276641Y-104244599D01*
X64228516Y-104235027D01*
X64181561Y-104220783D01*
X64136228Y-104202006D01*
X64092955Y-104178875D01*
X64052156Y-104151615D01*
X64014227Y-104120487D01*
X63979530Y-104085790D01*
X63948402Y-104047861D01*
X63921142Y-104007062D01*
X63898011Y-103963789D01*
X63879234Y-103918456D01*
X63864990Y-103871501D01*
X63855418Y-103823376D01*
X63850608Y-103774545D01*
X63850608Y-103750011D01*
X63850006Y-103750011D01*
X63850006Y-103250011D01*
X63850608Y-103250011D01*
X63850608Y-103225477D01*
X63855418Y-103176646D01*
X63864990Y-103128521D01*
X63879234Y-103081566D01*
X63898011Y-103036233D01*
X63921142Y-102992960D01*
X63948402Y-102952161D01*
X63979530Y-102914232D01*
X64014227Y-102879535D01*
X64052156Y-102848407D01*
X64092955Y-102821147D01*
X64136228Y-102798016D01*
X64181561Y-102779239D01*
X64228516Y-102764995D01*
X64276641Y-102755423D01*
X64325472Y-102750613D01*
X64350006Y-102750613D01*
X64350006Y-102750011D01*
X64850006Y-102750011D01*
X64850006Y-104250011D01*
G37*
G36*
X65650006Y-102750613D02*
G01*
X65674540Y-102750613D01*
X65723371Y-102755423D01*
X65771496Y-102764995D01*
X65818451Y-102779239D01*
X65863784Y-102798016D01*
X65907057Y-102821147D01*
X65947856Y-102848407D01*
X65985785Y-102879535D01*
X66020482Y-102914232D01*
X66051610Y-102952161D01*
X66078870Y-102992960D01*
X66102001Y-103036233D01*
X66120778Y-103081566D01*
X66135022Y-103128521D01*
X66144594Y-103176646D01*
X66149404Y-103225477D01*
X66149404Y-103250011D01*
X66150006Y-103250011D01*
X66150006Y-103750011D01*
X66149404Y-103750011D01*
X66149404Y-103774545D01*
X66144594Y-103823376D01*
X66135022Y-103871501D01*
X66120778Y-103918456D01*
X66102001Y-103963789D01*
X66078870Y-104007062D01*
X66051610Y-104047861D01*
X66020482Y-104085790D01*
X65985785Y-104120487D01*
X65947856Y-104151615D01*
X65907057Y-104178875D01*
X65863784Y-104202006D01*
X65818451Y-104220783D01*
X65771496Y-104235027D01*
X65723371Y-104244599D01*
X65674540Y-104249409D01*
X65650006Y-104249409D01*
X65650006Y-104250011D01*
X65150006Y-104250011D01*
X65150006Y-102750011D01*
X65650006Y-102750011D01*
X65650006Y-102750613D01*
G37*
G04 #@! TD*
D11*
G04 #@! TO.C,J1*
X57529001Y-115761011D03*
D12*
X57529001Y-113221011D03*
X54989001Y-115761011D03*
X54989001Y-113221011D03*
X52449001Y-115761011D03*
X52449001Y-113221011D03*
G04 #@! TD*
D13*
G04 #@! TO.C,JP1*
G36*
X54850001Y-104250011D02*
G01*
X54350001Y-104250011D01*
X54350001Y-104249409D01*
X54325467Y-104249409D01*
X54276636Y-104244599D01*
X54228511Y-104235027D01*
X54181556Y-104220783D01*
X54136223Y-104202006D01*
X54092950Y-104178875D01*
X54052151Y-104151615D01*
X54014222Y-104120487D01*
X53979525Y-104085790D01*
X53948397Y-104047861D01*
X53921137Y-104007062D01*
X53898006Y-103963789D01*
X53879229Y-103918456D01*
X53864985Y-103871501D01*
X53855413Y-103823376D01*
X53850603Y-103774545D01*
X53850603Y-103750011D01*
X53850001Y-103750011D01*
X53850001Y-103250011D01*
X53850603Y-103250011D01*
X53850603Y-103225477D01*
X53855413Y-103176646D01*
X53864985Y-103128521D01*
X53879229Y-103081566D01*
X53898006Y-103036233D01*
X53921137Y-102992960D01*
X53948397Y-102952161D01*
X53979525Y-102914232D01*
X54014222Y-102879535D01*
X54052151Y-102848407D01*
X54092950Y-102821147D01*
X54136223Y-102798016D01*
X54181556Y-102779239D01*
X54228511Y-102764995D01*
X54276636Y-102755423D01*
X54325467Y-102750613D01*
X54350001Y-102750613D01*
X54350001Y-102750011D01*
X54850001Y-102750011D01*
X54850001Y-104250011D01*
G37*
G36*
X55650001Y-102750613D02*
G01*
X55674535Y-102750613D01*
X55723366Y-102755423D01*
X55771491Y-102764995D01*
X55818446Y-102779239D01*
X55863779Y-102798016D01*
X55907052Y-102821147D01*
X55947851Y-102848407D01*
X55985780Y-102879535D01*
X56020477Y-102914232D01*
X56051605Y-102952161D01*
X56078865Y-102992960D01*
X56101996Y-103036233D01*
X56120773Y-103081566D01*
X56135017Y-103128521D01*
X56144589Y-103176646D01*
X56149399Y-103225477D01*
X56149399Y-103250011D01*
X56150001Y-103250011D01*
X56150001Y-103750011D01*
X56149399Y-103750011D01*
X56149399Y-103774545D01*
X56144589Y-103823376D01*
X56135017Y-103871501D01*
X56120773Y-103918456D01*
X56101996Y-103963789D01*
X56078865Y-104007062D01*
X56051605Y-104047861D01*
X56020477Y-104085790D01*
X55985780Y-104120487D01*
X55947851Y-104151615D01*
X55907052Y-104178875D01*
X55863779Y-104202006D01*
X55818446Y-104220783D01*
X55771491Y-104235027D01*
X55723366Y-104244599D01*
X55674535Y-104249409D01*
X55650001Y-104249409D01*
X55650001Y-104250011D01*
X55150001Y-104250011D01*
X55150001Y-102750011D01*
X55650001Y-102750011D01*
X55650001Y-102750613D01*
G37*
G04 #@! TD*
D11*
G04 #@! TO.C,J1*
X107529026Y-93261006D03*
D12*
X107529026Y-90721006D03*
X104989026Y-93261006D03*
X104989026Y-90721006D03*
X102449026Y-93261006D03*
X102449026Y-90721006D03*
G04 #@! TD*
D13*
G04 #@! TO.C,JP1*
G36*
X104850026Y-81750006D02*
G01*
X104350026Y-81750006D01*
X104350026Y-81749404D01*
X104325492Y-81749404D01*
X104276661Y-81744594D01*
X104228536Y-81735022D01*
X104181581Y-81720778D01*
X104136248Y-81702001D01*
X104092975Y-81678870D01*
X104052176Y-81651610D01*
X104014247Y-81620482D01*
X103979550Y-81585785D01*
X103948422Y-81547856D01*
X103921162Y-81507057D01*
X103898031Y-81463784D01*
X103879254Y-81418451D01*
X103865010Y-81371496D01*
X103855438Y-81323371D01*
X103850628Y-81274540D01*
X103850628Y-81250006D01*
X103850026Y-81250006D01*
X103850026Y-80750006D01*
X103850628Y-80750006D01*
X103850628Y-80725472D01*
X103855438Y-80676641D01*
X103865010Y-80628516D01*
X103879254Y-80581561D01*
X103898031Y-80536228D01*
X103921162Y-80492955D01*
X103948422Y-80452156D01*
X103979550Y-80414227D01*
X104014247Y-80379530D01*
X104052176Y-80348402D01*
X104092975Y-80321142D01*
X104136248Y-80298011D01*
X104181581Y-80279234D01*
X104228536Y-80264990D01*
X104276661Y-80255418D01*
X104325492Y-80250608D01*
X104350026Y-80250608D01*
X104350026Y-80250006D01*
X104850026Y-80250006D01*
X104850026Y-81750006D01*
G37*
G36*
X105650026Y-80250608D02*
G01*
X105674560Y-80250608D01*
X105723391Y-80255418D01*
X105771516Y-80264990D01*
X105818471Y-80279234D01*
X105863804Y-80298011D01*
X105907077Y-80321142D01*
X105947876Y-80348402D01*
X105985805Y-80379530D01*
X106020502Y-80414227D01*
X106051630Y-80452156D01*
X106078890Y-80492955D01*
X106102021Y-80536228D01*
X106120798Y-80581561D01*
X106135042Y-80628516D01*
X106144614Y-80676641D01*
X106149424Y-80725472D01*
X106149424Y-80750006D01*
X106150026Y-80750006D01*
X106150026Y-81250006D01*
X106149424Y-81250006D01*
X106149424Y-81274540D01*
X106144614Y-81323371D01*
X106135042Y-81371496D01*
X106120798Y-81418451D01*
X106102021Y-81463784D01*
X106078890Y-81507057D01*
X106051630Y-81547856D01*
X106020502Y-81585785D01*
X105985805Y-81620482D01*
X105947876Y-81651610D01*
X105907077Y-81678870D01*
X105863804Y-81702001D01*
X105818471Y-81720778D01*
X105771516Y-81735022D01*
X105723391Y-81744594D01*
X105674560Y-81749404D01*
X105650026Y-81749404D01*
X105650026Y-81750006D01*
X105150026Y-81750006D01*
X105150026Y-80250006D01*
X105650026Y-80250006D01*
X105650026Y-80250608D01*
G37*
G04 #@! TD*
D11*
G04 #@! TO.C,J1*
X97529021Y-93261006D03*
D12*
X97529021Y-90721006D03*
X94989021Y-93261006D03*
X94989021Y-90721006D03*
X92449021Y-93261006D03*
X92449021Y-90721006D03*
G04 #@! TD*
D13*
G04 #@! TO.C,JP1*
G36*
X94850021Y-81750006D02*
G01*
X94350021Y-81750006D01*
X94350021Y-81749404D01*
X94325487Y-81749404D01*
X94276656Y-81744594D01*
X94228531Y-81735022D01*
X94181576Y-81720778D01*
X94136243Y-81702001D01*
X94092970Y-81678870D01*
X94052171Y-81651610D01*
X94014242Y-81620482D01*
X93979545Y-81585785D01*
X93948417Y-81547856D01*
X93921157Y-81507057D01*
X93898026Y-81463784D01*
X93879249Y-81418451D01*
X93865005Y-81371496D01*
X93855433Y-81323371D01*
X93850623Y-81274540D01*
X93850623Y-81250006D01*
X93850021Y-81250006D01*
X93850021Y-80750006D01*
X93850623Y-80750006D01*
X93850623Y-80725472D01*
X93855433Y-80676641D01*
X93865005Y-80628516D01*
X93879249Y-80581561D01*
X93898026Y-80536228D01*
X93921157Y-80492955D01*
X93948417Y-80452156D01*
X93979545Y-80414227D01*
X94014242Y-80379530D01*
X94052171Y-80348402D01*
X94092970Y-80321142D01*
X94136243Y-80298011D01*
X94181576Y-80279234D01*
X94228531Y-80264990D01*
X94276656Y-80255418D01*
X94325487Y-80250608D01*
X94350021Y-80250608D01*
X94350021Y-80250006D01*
X94850021Y-80250006D01*
X94850021Y-81750006D01*
G37*
G36*
X95650021Y-80250608D02*
G01*
X95674555Y-80250608D01*
X95723386Y-80255418D01*
X95771511Y-80264990D01*
X95818466Y-80279234D01*
X95863799Y-80298011D01*
X95907072Y-80321142D01*
X95947871Y-80348402D01*
X95985800Y-80379530D01*
X96020497Y-80414227D01*
X96051625Y-80452156D01*
X96078885Y-80492955D01*
X96102016Y-80536228D01*
X96120793Y-80581561D01*
X96135037Y-80628516D01*
X96144609Y-80676641D01*
X96149419Y-80725472D01*
X96149419Y-80750006D01*
X96150021Y-80750006D01*
X96150021Y-81250006D01*
X96149419Y-81250006D01*
X96149419Y-81274540D01*
X96144609Y-81323371D01*
X96135037Y-81371496D01*
X96120793Y-81418451D01*
X96102016Y-81463784D01*
X96078885Y-81507057D01*
X96051625Y-81547856D01*
X96020497Y-81585785D01*
X95985800Y-81620482D01*
X95947871Y-81651610D01*
X95907072Y-81678870D01*
X95863799Y-81702001D01*
X95818466Y-81720778D01*
X95771511Y-81735022D01*
X95723386Y-81744594D01*
X95674555Y-81749404D01*
X95650021Y-81749404D01*
X95650021Y-81750006D01*
X95150021Y-81750006D01*
X95150021Y-80250006D01*
X95650021Y-80250006D01*
X95650021Y-80250608D01*
G37*
G04 #@! TD*
D11*
G04 #@! TO.C,J1*
X87529016Y-93261006D03*
D12*
X87529016Y-90721006D03*
X84989016Y-93261006D03*
X84989016Y-90721006D03*
X82449016Y-93261006D03*
X82449016Y-90721006D03*
G04 #@! TD*
D13*
G04 #@! TO.C,JP1*
G36*
X84850016Y-81750006D02*
G01*
X84350016Y-81750006D01*
X84350016Y-81749404D01*
X84325482Y-81749404D01*
X84276651Y-81744594D01*
X84228526Y-81735022D01*
X84181571Y-81720778D01*
X84136238Y-81702001D01*
X84092965Y-81678870D01*
X84052166Y-81651610D01*
X84014237Y-81620482D01*
X83979540Y-81585785D01*
X83948412Y-81547856D01*
X83921152Y-81507057D01*
X83898021Y-81463784D01*
X83879244Y-81418451D01*
X83865000Y-81371496D01*
X83855428Y-81323371D01*
X83850618Y-81274540D01*
X83850618Y-81250006D01*
X83850016Y-81250006D01*
X83850016Y-80750006D01*
X83850618Y-80750006D01*
X83850618Y-80725472D01*
X83855428Y-80676641D01*
X83865000Y-80628516D01*
X83879244Y-80581561D01*
X83898021Y-80536228D01*
X83921152Y-80492955D01*
X83948412Y-80452156D01*
X83979540Y-80414227D01*
X84014237Y-80379530D01*
X84052166Y-80348402D01*
X84092965Y-80321142D01*
X84136238Y-80298011D01*
X84181571Y-80279234D01*
X84228526Y-80264990D01*
X84276651Y-80255418D01*
X84325482Y-80250608D01*
X84350016Y-80250608D01*
X84350016Y-80250006D01*
X84850016Y-80250006D01*
X84850016Y-81750006D01*
G37*
G36*
X85650016Y-80250608D02*
G01*
X85674550Y-80250608D01*
X85723381Y-80255418D01*
X85771506Y-80264990D01*
X85818461Y-80279234D01*
X85863794Y-80298011D01*
X85907067Y-80321142D01*
X85947866Y-80348402D01*
X85985795Y-80379530D01*
X86020492Y-80414227D01*
X86051620Y-80452156D01*
X86078880Y-80492955D01*
X86102011Y-80536228D01*
X86120788Y-80581561D01*
X86135032Y-80628516D01*
X86144604Y-80676641D01*
X86149414Y-80725472D01*
X86149414Y-80750006D01*
X86150016Y-80750006D01*
X86150016Y-81250006D01*
X86149414Y-81250006D01*
X86149414Y-81274540D01*
X86144604Y-81323371D01*
X86135032Y-81371496D01*
X86120788Y-81418451D01*
X86102011Y-81463784D01*
X86078880Y-81507057D01*
X86051620Y-81547856D01*
X86020492Y-81585785D01*
X85985795Y-81620482D01*
X85947866Y-81651610D01*
X85907067Y-81678870D01*
X85863794Y-81702001D01*
X85818461Y-81720778D01*
X85771506Y-81735022D01*
X85723381Y-81744594D01*
X85674550Y-81749404D01*
X85650016Y-81749404D01*
X85650016Y-81750006D01*
X85150016Y-81750006D01*
X85150016Y-80250006D01*
X85650016Y-80250006D01*
X85650016Y-80250608D01*
G37*
G04 #@! TD*
D11*
G04 #@! TO.C,J1*
X77529011Y-93261006D03*
D12*
X77529011Y-90721006D03*
X74989011Y-93261006D03*
X74989011Y-90721006D03*
X72449011Y-93261006D03*
X72449011Y-90721006D03*
G04 #@! TD*
D13*
G04 #@! TO.C,JP1*
G36*
X74850011Y-81750006D02*
G01*
X74350011Y-81750006D01*
X74350011Y-81749404D01*
X74325477Y-81749404D01*
X74276646Y-81744594D01*
X74228521Y-81735022D01*
X74181566Y-81720778D01*
X74136233Y-81702001D01*
X74092960Y-81678870D01*
X74052161Y-81651610D01*
X74014232Y-81620482D01*
X73979535Y-81585785D01*
X73948407Y-81547856D01*
X73921147Y-81507057D01*
X73898016Y-81463784D01*
X73879239Y-81418451D01*
X73864995Y-81371496D01*
X73855423Y-81323371D01*
X73850613Y-81274540D01*
X73850613Y-81250006D01*
X73850011Y-81250006D01*
X73850011Y-80750006D01*
X73850613Y-80750006D01*
X73850613Y-80725472D01*
X73855423Y-80676641D01*
X73864995Y-80628516D01*
X73879239Y-80581561D01*
X73898016Y-80536228D01*
X73921147Y-80492955D01*
X73948407Y-80452156D01*
X73979535Y-80414227D01*
X74014232Y-80379530D01*
X74052161Y-80348402D01*
X74092960Y-80321142D01*
X74136233Y-80298011D01*
X74181566Y-80279234D01*
X74228521Y-80264990D01*
X74276646Y-80255418D01*
X74325477Y-80250608D01*
X74350011Y-80250608D01*
X74350011Y-80250006D01*
X74850011Y-80250006D01*
X74850011Y-81750006D01*
G37*
G36*
X75650011Y-80250608D02*
G01*
X75674545Y-80250608D01*
X75723376Y-80255418D01*
X75771501Y-80264990D01*
X75818456Y-80279234D01*
X75863789Y-80298011D01*
X75907062Y-80321142D01*
X75947861Y-80348402D01*
X75985790Y-80379530D01*
X76020487Y-80414227D01*
X76051615Y-80452156D01*
X76078875Y-80492955D01*
X76102006Y-80536228D01*
X76120783Y-80581561D01*
X76135027Y-80628516D01*
X76144599Y-80676641D01*
X76149409Y-80725472D01*
X76149409Y-80750006D01*
X76150011Y-80750006D01*
X76150011Y-81250006D01*
X76149409Y-81250006D01*
X76149409Y-81274540D01*
X76144599Y-81323371D01*
X76135027Y-81371496D01*
X76120783Y-81418451D01*
X76102006Y-81463784D01*
X76078875Y-81507057D01*
X76051615Y-81547856D01*
X76020487Y-81585785D01*
X75985790Y-81620482D01*
X75947861Y-81651610D01*
X75907062Y-81678870D01*
X75863789Y-81702001D01*
X75818456Y-81720778D01*
X75771501Y-81735022D01*
X75723376Y-81744594D01*
X75674545Y-81749404D01*
X75650011Y-81749404D01*
X75650011Y-81750006D01*
X75150011Y-81750006D01*
X75150011Y-80250006D01*
X75650011Y-80250006D01*
X75650011Y-80250608D01*
G37*
G04 #@! TD*
D11*
G04 #@! TO.C,J1*
X67529006Y-93261006D03*
D12*
X67529006Y-90721006D03*
X64989006Y-93261006D03*
X64989006Y-90721006D03*
X62449006Y-93261006D03*
X62449006Y-90721006D03*
G04 #@! TD*
D13*
G04 #@! TO.C,JP1*
G36*
X64850006Y-81750006D02*
G01*
X64350006Y-81750006D01*
X64350006Y-81749404D01*
X64325472Y-81749404D01*
X64276641Y-81744594D01*
X64228516Y-81735022D01*
X64181561Y-81720778D01*
X64136228Y-81702001D01*
X64092955Y-81678870D01*
X64052156Y-81651610D01*
X64014227Y-81620482D01*
X63979530Y-81585785D01*
X63948402Y-81547856D01*
X63921142Y-81507057D01*
X63898011Y-81463784D01*
X63879234Y-81418451D01*
X63864990Y-81371496D01*
X63855418Y-81323371D01*
X63850608Y-81274540D01*
X63850608Y-81250006D01*
X63850006Y-81250006D01*
X63850006Y-80750006D01*
X63850608Y-80750006D01*
X63850608Y-80725472D01*
X63855418Y-80676641D01*
X63864990Y-80628516D01*
X63879234Y-80581561D01*
X63898011Y-80536228D01*
X63921142Y-80492955D01*
X63948402Y-80452156D01*
X63979530Y-80414227D01*
X64014227Y-80379530D01*
X64052156Y-80348402D01*
X64092955Y-80321142D01*
X64136228Y-80298011D01*
X64181561Y-80279234D01*
X64228516Y-80264990D01*
X64276641Y-80255418D01*
X64325472Y-80250608D01*
X64350006Y-80250608D01*
X64350006Y-80250006D01*
X64850006Y-80250006D01*
X64850006Y-81750006D01*
G37*
G36*
X65650006Y-80250608D02*
G01*
X65674540Y-80250608D01*
X65723371Y-80255418D01*
X65771496Y-80264990D01*
X65818451Y-80279234D01*
X65863784Y-80298011D01*
X65907057Y-80321142D01*
X65947856Y-80348402D01*
X65985785Y-80379530D01*
X66020482Y-80414227D01*
X66051610Y-80452156D01*
X66078870Y-80492955D01*
X66102001Y-80536228D01*
X66120778Y-80581561D01*
X66135022Y-80628516D01*
X66144594Y-80676641D01*
X66149404Y-80725472D01*
X66149404Y-80750006D01*
X66150006Y-80750006D01*
X66150006Y-81250006D01*
X66149404Y-81250006D01*
X66149404Y-81274540D01*
X66144594Y-81323371D01*
X66135022Y-81371496D01*
X66120778Y-81418451D01*
X66102001Y-81463784D01*
X66078870Y-81507057D01*
X66051610Y-81547856D01*
X66020482Y-81585785D01*
X65985785Y-81620482D01*
X65947856Y-81651610D01*
X65907057Y-81678870D01*
X65863784Y-81702001D01*
X65818451Y-81720778D01*
X65771496Y-81735022D01*
X65723371Y-81744594D01*
X65674540Y-81749404D01*
X65650006Y-81749404D01*
X65650006Y-81750006D01*
X65150006Y-81750006D01*
X65150006Y-80250006D01*
X65650006Y-80250006D01*
X65650006Y-80250608D01*
G37*
G04 #@! TD*
D11*
G04 #@! TO.C,J1*
X57529001Y-93261006D03*
D12*
X57529001Y-90721006D03*
X54989001Y-93261006D03*
X54989001Y-90721006D03*
X52449001Y-93261006D03*
X52449001Y-90721006D03*
G04 #@! TD*
D13*
G04 #@! TO.C,JP1*
G36*
X54850001Y-81750006D02*
G01*
X54350001Y-81750006D01*
X54350001Y-81749404D01*
X54325467Y-81749404D01*
X54276636Y-81744594D01*
X54228511Y-81735022D01*
X54181556Y-81720778D01*
X54136223Y-81702001D01*
X54092950Y-81678870D01*
X54052151Y-81651610D01*
X54014222Y-81620482D01*
X53979525Y-81585785D01*
X53948397Y-81547856D01*
X53921137Y-81507057D01*
X53898006Y-81463784D01*
X53879229Y-81418451D01*
X53864985Y-81371496D01*
X53855413Y-81323371D01*
X53850603Y-81274540D01*
X53850603Y-81250006D01*
X53850001Y-81250006D01*
X53850001Y-80750006D01*
X53850603Y-80750006D01*
X53850603Y-80725472D01*
X53855413Y-80676641D01*
X53864985Y-80628516D01*
X53879229Y-80581561D01*
X53898006Y-80536228D01*
X53921137Y-80492955D01*
X53948397Y-80452156D01*
X53979525Y-80414227D01*
X54014222Y-80379530D01*
X54052151Y-80348402D01*
X54092950Y-80321142D01*
X54136223Y-80298011D01*
X54181556Y-80279234D01*
X54228511Y-80264990D01*
X54276636Y-80255418D01*
X54325467Y-80250608D01*
X54350001Y-80250608D01*
X54350001Y-80250006D01*
X54850001Y-80250006D01*
X54850001Y-81750006D01*
G37*
G36*
X55650001Y-80250608D02*
G01*
X55674535Y-80250608D01*
X55723366Y-80255418D01*
X55771491Y-80264990D01*
X55818446Y-80279234D01*
X55863779Y-80298011D01*
X55907052Y-80321142D01*
X55947851Y-80348402D01*
X55985780Y-80379530D01*
X56020477Y-80414227D01*
X56051605Y-80452156D01*
X56078865Y-80492955D01*
X56101996Y-80536228D01*
X56120773Y-80581561D01*
X56135017Y-80628516D01*
X56144589Y-80676641D01*
X56149399Y-80725472D01*
X56149399Y-80750006D01*
X56150001Y-80750006D01*
X56150001Y-81250006D01*
X56149399Y-81250006D01*
X56149399Y-81274540D01*
X56144589Y-81323371D01*
X56135017Y-81371496D01*
X56120773Y-81418451D01*
X56101996Y-81463784D01*
X56078865Y-81507057D01*
X56051605Y-81547856D01*
X56020477Y-81585785D01*
X55985780Y-81620482D01*
X55947851Y-81651610D01*
X55907052Y-81678870D01*
X55863779Y-81702001D01*
X55818446Y-81720778D01*
X55771491Y-81735022D01*
X55723366Y-81744594D01*
X55674535Y-81749404D01*
X55650001Y-81749404D01*
X55650001Y-81750006D01*
X55150001Y-81750006D01*
X55150001Y-80250006D01*
X55650001Y-80250006D01*
X55650001Y-80250608D01*
G37*
G04 #@! TD*
D11*
G04 #@! TO.C,J1*
X107529026Y-70761001D03*
D12*
X107529026Y-68221001D03*
X104989026Y-70761001D03*
X104989026Y-68221001D03*
X102449026Y-70761001D03*
X102449026Y-68221001D03*
G04 #@! TD*
D13*
G04 #@! TO.C,JP1*
G36*
X104850026Y-59250001D02*
G01*
X104350026Y-59250001D01*
X104350026Y-59249399D01*
X104325492Y-59249399D01*
X104276661Y-59244589D01*
X104228536Y-59235017D01*
X104181581Y-59220773D01*
X104136248Y-59201996D01*
X104092975Y-59178865D01*
X104052176Y-59151605D01*
X104014247Y-59120477D01*
X103979550Y-59085780D01*
X103948422Y-59047851D01*
X103921162Y-59007052D01*
X103898031Y-58963779D01*
X103879254Y-58918446D01*
X103865010Y-58871491D01*
X103855438Y-58823366D01*
X103850628Y-58774535D01*
X103850628Y-58750001D01*
X103850026Y-58750001D01*
X103850026Y-58250001D01*
X103850628Y-58250001D01*
X103850628Y-58225467D01*
X103855438Y-58176636D01*
X103865010Y-58128511D01*
X103879254Y-58081556D01*
X103898031Y-58036223D01*
X103921162Y-57992950D01*
X103948422Y-57952151D01*
X103979550Y-57914222D01*
X104014247Y-57879525D01*
X104052176Y-57848397D01*
X104092975Y-57821137D01*
X104136248Y-57798006D01*
X104181581Y-57779229D01*
X104228536Y-57764985D01*
X104276661Y-57755413D01*
X104325492Y-57750603D01*
X104350026Y-57750603D01*
X104350026Y-57750001D01*
X104850026Y-57750001D01*
X104850026Y-59250001D01*
G37*
G36*
X105650026Y-57750603D02*
G01*
X105674560Y-57750603D01*
X105723391Y-57755413D01*
X105771516Y-57764985D01*
X105818471Y-57779229D01*
X105863804Y-57798006D01*
X105907077Y-57821137D01*
X105947876Y-57848397D01*
X105985805Y-57879525D01*
X106020502Y-57914222D01*
X106051630Y-57952151D01*
X106078890Y-57992950D01*
X106102021Y-58036223D01*
X106120798Y-58081556D01*
X106135042Y-58128511D01*
X106144614Y-58176636D01*
X106149424Y-58225467D01*
X106149424Y-58250001D01*
X106150026Y-58250001D01*
X106150026Y-58750001D01*
X106149424Y-58750001D01*
X106149424Y-58774535D01*
X106144614Y-58823366D01*
X106135042Y-58871491D01*
X106120798Y-58918446D01*
X106102021Y-58963779D01*
X106078890Y-59007052D01*
X106051630Y-59047851D01*
X106020502Y-59085780D01*
X105985805Y-59120477D01*
X105947876Y-59151605D01*
X105907077Y-59178865D01*
X105863804Y-59201996D01*
X105818471Y-59220773D01*
X105771516Y-59235017D01*
X105723391Y-59244589D01*
X105674560Y-59249399D01*
X105650026Y-59249399D01*
X105650026Y-59250001D01*
X105150026Y-59250001D01*
X105150026Y-57750001D01*
X105650026Y-57750001D01*
X105650026Y-57750603D01*
G37*
G04 #@! TD*
D11*
G04 #@! TO.C,J1*
X97529021Y-70761001D03*
D12*
X97529021Y-68221001D03*
X94989021Y-70761001D03*
X94989021Y-68221001D03*
X92449021Y-70761001D03*
X92449021Y-68221001D03*
G04 #@! TD*
D13*
G04 #@! TO.C,JP1*
G36*
X94850021Y-59250001D02*
G01*
X94350021Y-59250001D01*
X94350021Y-59249399D01*
X94325487Y-59249399D01*
X94276656Y-59244589D01*
X94228531Y-59235017D01*
X94181576Y-59220773D01*
X94136243Y-59201996D01*
X94092970Y-59178865D01*
X94052171Y-59151605D01*
X94014242Y-59120477D01*
X93979545Y-59085780D01*
X93948417Y-59047851D01*
X93921157Y-59007052D01*
X93898026Y-58963779D01*
X93879249Y-58918446D01*
X93865005Y-58871491D01*
X93855433Y-58823366D01*
X93850623Y-58774535D01*
X93850623Y-58750001D01*
X93850021Y-58750001D01*
X93850021Y-58250001D01*
X93850623Y-58250001D01*
X93850623Y-58225467D01*
X93855433Y-58176636D01*
X93865005Y-58128511D01*
X93879249Y-58081556D01*
X93898026Y-58036223D01*
X93921157Y-57992950D01*
X93948417Y-57952151D01*
X93979545Y-57914222D01*
X94014242Y-57879525D01*
X94052171Y-57848397D01*
X94092970Y-57821137D01*
X94136243Y-57798006D01*
X94181576Y-57779229D01*
X94228531Y-57764985D01*
X94276656Y-57755413D01*
X94325487Y-57750603D01*
X94350021Y-57750603D01*
X94350021Y-57750001D01*
X94850021Y-57750001D01*
X94850021Y-59250001D01*
G37*
G36*
X95650021Y-57750603D02*
G01*
X95674555Y-57750603D01*
X95723386Y-57755413D01*
X95771511Y-57764985D01*
X95818466Y-57779229D01*
X95863799Y-57798006D01*
X95907072Y-57821137D01*
X95947871Y-57848397D01*
X95985800Y-57879525D01*
X96020497Y-57914222D01*
X96051625Y-57952151D01*
X96078885Y-57992950D01*
X96102016Y-58036223D01*
X96120793Y-58081556D01*
X96135037Y-58128511D01*
X96144609Y-58176636D01*
X96149419Y-58225467D01*
X96149419Y-58250001D01*
X96150021Y-58250001D01*
X96150021Y-58750001D01*
X96149419Y-58750001D01*
X96149419Y-58774535D01*
X96144609Y-58823366D01*
X96135037Y-58871491D01*
X96120793Y-58918446D01*
X96102016Y-58963779D01*
X96078885Y-59007052D01*
X96051625Y-59047851D01*
X96020497Y-59085780D01*
X95985800Y-59120477D01*
X95947871Y-59151605D01*
X95907072Y-59178865D01*
X95863799Y-59201996D01*
X95818466Y-59220773D01*
X95771511Y-59235017D01*
X95723386Y-59244589D01*
X95674555Y-59249399D01*
X95650021Y-59249399D01*
X95650021Y-59250001D01*
X95150021Y-59250001D01*
X95150021Y-57750001D01*
X95650021Y-57750001D01*
X95650021Y-57750603D01*
G37*
G04 #@! TD*
D11*
G04 #@! TO.C,J1*
X87529016Y-70761001D03*
D12*
X87529016Y-68221001D03*
X84989016Y-70761001D03*
X84989016Y-68221001D03*
X82449016Y-70761001D03*
X82449016Y-68221001D03*
G04 #@! TD*
D13*
G04 #@! TO.C,JP1*
G36*
X84850016Y-59250001D02*
G01*
X84350016Y-59250001D01*
X84350016Y-59249399D01*
X84325482Y-59249399D01*
X84276651Y-59244589D01*
X84228526Y-59235017D01*
X84181571Y-59220773D01*
X84136238Y-59201996D01*
X84092965Y-59178865D01*
X84052166Y-59151605D01*
X84014237Y-59120477D01*
X83979540Y-59085780D01*
X83948412Y-59047851D01*
X83921152Y-59007052D01*
X83898021Y-58963779D01*
X83879244Y-58918446D01*
X83865000Y-58871491D01*
X83855428Y-58823366D01*
X83850618Y-58774535D01*
X83850618Y-58750001D01*
X83850016Y-58750001D01*
X83850016Y-58250001D01*
X83850618Y-58250001D01*
X83850618Y-58225467D01*
X83855428Y-58176636D01*
X83865000Y-58128511D01*
X83879244Y-58081556D01*
X83898021Y-58036223D01*
X83921152Y-57992950D01*
X83948412Y-57952151D01*
X83979540Y-57914222D01*
X84014237Y-57879525D01*
X84052166Y-57848397D01*
X84092965Y-57821137D01*
X84136238Y-57798006D01*
X84181571Y-57779229D01*
X84228526Y-57764985D01*
X84276651Y-57755413D01*
X84325482Y-57750603D01*
X84350016Y-57750603D01*
X84350016Y-57750001D01*
X84850016Y-57750001D01*
X84850016Y-59250001D01*
G37*
G36*
X85650016Y-57750603D02*
G01*
X85674550Y-57750603D01*
X85723381Y-57755413D01*
X85771506Y-57764985D01*
X85818461Y-57779229D01*
X85863794Y-57798006D01*
X85907067Y-57821137D01*
X85947866Y-57848397D01*
X85985795Y-57879525D01*
X86020492Y-57914222D01*
X86051620Y-57952151D01*
X86078880Y-57992950D01*
X86102011Y-58036223D01*
X86120788Y-58081556D01*
X86135032Y-58128511D01*
X86144604Y-58176636D01*
X86149414Y-58225467D01*
X86149414Y-58250001D01*
X86150016Y-58250001D01*
X86150016Y-58750001D01*
X86149414Y-58750001D01*
X86149414Y-58774535D01*
X86144604Y-58823366D01*
X86135032Y-58871491D01*
X86120788Y-58918446D01*
X86102011Y-58963779D01*
X86078880Y-59007052D01*
X86051620Y-59047851D01*
X86020492Y-59085780D01*
X85985795Y-59120477D01*
X85947866Y-59151605D01*
X85907067Y-59178865D01*
X85863794Y-59201996D01*
X85818461Y-59220773D01*
X85771506Y-59235017D01*
X85723381Y-59244589D01*
X85674550Y-59249399D01*
X85650016Y-59249399D01*
X85650016Y-59250001D01*
X85150016Y-59250001D01*
X85150016Y-57750001D01*
X85650016Y-57750001D01*
X85650016Y-57750603D01*
G37*
G04 #@! TD*
D11*
G04 #@! TO.C,J1*
X77529011Y-70761001D03*
D12*
X77529011Y-68221001D03*
X74989011Y-70761001D03*
X74989011Y-68221001D03*
X72449011Y-70761001D03*
X72449011Y-68221001D03*
G04 #@! TD*
D13*
G04 #@! TO.C,JP1*
G36*
X74850011Y-59250001D02*
G01*
X74350011Y-59250001D01*
X74350011Y-59249399D01*
X74325477Y-59249399D01*
X74276646Y-59244589D01*
X74228521Y-59235017D01*
X74181566Y-59220773D01*
X74136233Y-59201996D01*
X74092960Y-59178865D01*
X74052161Y-59151605D01*
X74014232Y-59120477D01*
X73979535Y-59085780D01*
X73948407Y-59047851D01*
X73921147Y-59007052D01*
X73898016Y-58963779D01*
X73879239Y-58918446D01*
X73864995Y-58871491D01*
X73855423Y-58823366D01*
X73850613Y-58774535D01*
X73850613Y-58750001D01*
X73850011Y-58750001D01*
X73850011Y-58250001D01*
X73850613Y-58250001D01*
X73850613Y-58225467D01*
X73855423Y-58176636D01*
X73864995Y-58128511D01*
X73879239Y-58081556D01*
X73898016Y-58036223D01*
X73921147Y-57992950D01*
X73948407Y-57952151D01*
X73979535Y-57914222D01*
X74014232Y-57879525D01*
X74052161Y-57848397D01*
X74092960Y-57821137D01*
X74136233Y-57798006D01*
X74181566Y-57779229D01*
X74228521Y-57764985D01*
X74276646Y-57755413D01*
X74325477Y-57750603D01*
X74350011Y-57750603D01*
X74350011Y-57750001D01*
X74850011Y-57750001D01*
X74850011Y-59250001D01*
G37*
G36*
X75650011Y-57750603D02*
G01*
X75674545Y-57750603D01*
X75723376Y-57755413D01*
X75771501Y-57764985D01*
X75818456Y-57779229D01*
X75863789Y-57798006D01*
X75907062Y-57821137D01*
X75947861Y-57848397D01*
X75985790Y-57879525D01*
X76020487Y-57914222D01*
X76051615Y-57952151D01*
X76078875Y-57992950D01*
X76102006Y-58036223D01*
X76120783Y-58081556D01*
X76135027Y-58128511D01*
X76144599Y-58176636D01*
X76149409Y-58225467D01*
X76149409Y-58250001D01*
X76150011Y-58250001D01*
X76150011Y-58750001D01*
X76149409Y-58750001D01*
X76149409Y-58774535D01*
X76144599Y-58823366D01*
X76135027Y-58871491D01*
X76120783Y-58918446D01*
X76102006Y-58963779D01*
X76078875Y-59007052D01*
X76051615Y-59047851D01*
X76020487Y-59085780D01*
X75985790Y-59120477D01*
X75947861Y-59151605D01*
X75907062Y-59178865D01*
X75863789Y-59201996D01*
X75818456Y-59220773D01*
X75771501Y-59235017D01*
X75723376Y-59244589D01*
X75674545Y-59249399D01*
X75650011Y-59249399D01*
X75650011Y-59250001D01*
X75150011Y-59250001D01*
X75150011Y-57750001D01*
X75650011Y-57750001D01*
X75650011Y-57750603D01*
G37*
G04 #@! TD*
D11*
G04 #@! TO.C,J1*
X67529006Y-70761001D03*
D12*
X67529006Y-68221001D03*
X64989006Y-70761001D03*
X64989006Y-68221001D03*
X62449006Y-70761001D03*
X62449006Y-68221001D03*
G04 #@! TD*
D13*
G04 #@! TO.C,JP1*
G36*
X64850006Y-59250001D02*
G01*
X64350006Y-59250001D01*
X64350006Y-59249399D01*
X64325472Y-59249399D01*
X64276641Y-59244589D01*
X64228516Y-59235017D01*
X64181561Y-59220773D01*
X64136228Y-59201996D01*
X64092955Y-59178865D01*
X64052156Y-59151605D01*
X64014227Y-59120477D01*
X63979530Y-59085780D01*
X63948402Y-59047851D01*
X63921142Y-59007052D01*
X63898011Y-58963779D01*
X63879234Y-58918446D01*
X63864990Y-58871491D01*
X63855418Y-58823366D01*
X63850608Y-58774535D01*
X63850608Y-58750001D01*
X63850006Y-58750001D01*
X63850006Y-58250001D01*
X63850608Y-58250001D01*
X63850608Y-58225467D01*
X63855418Y-58176636D01*
X63864990Y-58128511D01*
X63879234Y-58081556D01*
X63898011Y-58036223D01*
X63921142Y-57992950D01*
X63948402Y-57952151D01*
X63979530Y-57914222D01*
X64014227Y-57879525D01*
X64052156Y-57848397D01*
X64092955Y-57821137D01*
X64136228Y-57798006D01*
X64181561Y-57779229D01*
X64228516Y-57764985D01*
X64276641Y-57755413D01*
X64325472Y-57750603D01*
X64350006Y-57750603D01*
X64350006Y-57750001D01*
X64850006Y-57750001D01*
X64850006Y-59250001D01*
G37*
G36*
X65650006Y-57750603D02*
G01*
X65674540Y-57750603D01*
X65723371Y-57755413D01*
X65771496Y-57764985D01*
X65818451Y-57779229D01*
X65863784Y-57798006D01*
X65907057Y-57821137D01*
X65947856Y-57848397D01*
X65985785Y-57879525D01*
X66020482Y-57914222D01*
X66051610Y-57952151D01*
X66078870Y-57992950D01*
X66102001Y-58036223D01*
X66120778Y-58081556D01*
X66135022Y-58128511D01*
X66144594Y-58176636D01*
X66149404Y-58225467D01*
X66149404Y-58250001D01*
X66150006Y-58250001D01*
X66150006Y-58750001D01*
X66149404Y-58750001D01*
X66149404Y-58774535D01*
X66144594Y-58823366D01*
X66135022Y-58871491D01*
X66120778Y-58918446D01*
X66102001Y-58963779D01*
X66078870Y-59007052D01*
X66051610Y-59047851D01*
X66020482Y-59085780D01*
X65985785Y-59120477D01*
X65947856Y-59151605D01*
X65907057Y-59178865D01*
X65863784Y-59201996D01*
X65818451Y-59220773D01*
X65771496Y-59235017D01*
X65723371Y-59244589D01*
X65674540Y-59249399D01*
X65650006Y-59249399D01*
X65650006Y-59250001D01*
X65150006Y-59250001D01*
X65150006Y-57750001D01*
X65650006Y-57750001D01*
X65650006Y-57750603D01*
G37*
G04 #@! TD*
D11*
G04 #@! TO.C,J1*
X57529001Y-70761001D03*
D12*
X57529001Y-68221001D03*
X54989001Y-70761001D03*
X54989001Y-68221001D03*
X52449001Y-70761001D03*
X52449001Y-68221001D03*
G04 #@! TD*
D13*
G04 #@! TO.C,JP1*
G36*
X54850001Y-59250001D02*
G01*
X54350001Y-59250001D01*
X54350001Y-59249399D01*
X54325467Y-59249399D01*
X54276636Y-59244589D01*
X54228511Y-59235017D01*
X54181556Y-59220773D01*
X54136223Y-59201996D01*
X54092950Y-59178865D01*
X54052151Y-59151605D01*
X54014222Y-59120477D01*
X53979525Y-59085780D01*
X53948397Y-59047851D01*
X53921137Y-59007052D01*
X53898006Y-58963779D01*
X53879229Y-58918446D01*
X53864985Y-58871491D01*
X53855413Y-58823366D01*
X53850603Y-58774535D01*
X53850603Y-58750001D01*
X53850001Y-58750001D01*
X53850001Y-58250001D01*
X53850603Y-58250001D01*
X53850603Y-58225467D01*
X53855413Y-58176636D01*
X53864985Y-58128511D01*
X53879229Y-58081556D01*
X53898006Y-58036223D01*
X53921137Y-57992950D01*
X53948397Y-57952151D01*
X53979525Y-57914222D01*
X54014222Y-57879525D01*
X54052151Y-57848397D01*
X54092950Y-57821137D01*
X54136223Y-57798006D01*
X54181556Y-57779229D01*
X54228511Y-57764985D01*
X54276636Y-57755413D01*
X54325467Y-57750603D01*
X54350001Y-57750603D01*
X54350001Y-57750001D01*
X54850001Y-57750001D01*
X54850001Y-59250001D01*
G37*
G36*
X55650001Y-57750603D02*
G01*
X55674535Y-57750603D01*
X55723366Y-57755413D01*
X55771491Y-57764985D01*
X55818446Y-57779229D01*
X55863779Y-57798006D01*
X55907052Y-57821137D01*
X55947851Y-57848397D01*
X55985780Y-57879525D01*
X56020477Y-57914222D01*
X56051605Y-57952151D01*
X56078865Y-57992950D01*
X56101996Y-58036223D01*
X56120773Y-58081556D01*
X56135017Y-58128511D01*
X56144589Y-58176636D01*
X56149399Y-58225467D01*
X56149399Y-58250001D01*
X56150001Y-58250001D01*
X56150001Y-58750001D01*
X56149399Y-58750001D01*
X56149399Y-58774535D01*
X56144589Y-58823366D01*
X56135017Y-58871491D01*
X56120773Y-58918446D01*
X56101996Y-58963779D01*
X56078865Y-59007052D01*
X56051605Y-59047851D01*
X56020477Y-59085780D01*
X55985780Y-59120477D01*
X55947851Y-59151605D01*
X55907052Y-59178865D01*
X55863779Y-59201996D01*
X55818446Y-59220773D01*
X55771491Y-59235017D01*
X55723366Y-59244589D01*
X55674535Y-59249399D01*
X55650001Y-59249399D01*
X55650001Y-59250001D01*
X55150001Y-59250001D01*
X55150001Y-57750001D01*
X55650001Y-57750001D01*
X55650001Y-57750603D01*
G37*
G04 #@! TD*
M02*
