G04 #@! TF.GenerationSoftware,KiCad,Pcbnew,7.0.5.1-1-g8f565ef7f0-dirty-deb11*
G04 #@! TF.CreationDate,2023-05-31T17:10:36+00:00*
G04 #@! TF.ProjectId,AbcTestBoard,41626354-6573-4744-926f-6172642e6b69,rev?*
G04 #@! TF.SameCoordinates,Original*
G04 #@! TF.FileFunction,Copper,L1,Top*
G04 #@! TF.FilePolarity,Positive*
%FSLAX46Y46*%
G04 Gerber Fmt 4.6, Leading zero omitted, Abs format (unit mm)*
G04 Created by KiCad (PCBNEW 7.0.5.1-1-g8f565ef7f0-dirty-deb11) date 2023-05-31 17:10:36*
%MOMM*%
%LPD*%
G01*
G04 APERTURE LIST*
G04 #@! TA.AperFunction,ComponentPad*
%ADD10R,1.700000X1.700000*%
G04 #@! TD*
G04 #@! TA.AperFunction,ComponentPad*
%ADD11O,1.700000X1.700000*%
G04 #@! TD*
G04 #@! TA.AperFunction,SMDPad,CuDef*
%ADD12R,2.000000X1.780000*%
G04 #@! TD*
G04 #@! TA.AperFunction,ComponentPad*
%ADD13R,2.400000X2.400000*%
G04 #@! TD*
G04 #@! TA.AperFunction,ComponentPad*
%ADD14C,2.400000*%
G04 #@! TD*
G04 #@! TA.AperFunction,SMDPad,CuDef*
%ADD15C,1.500000*%
G04 #@! TD*
G04 #@! TA.AperFunction,SMDPad,CuDef*
%ADD16R,3.799840X1.998980*%
G04 #@! TD*
G04 #@! TA.AperFunction,SMDPad,CuDef*
%ADD17R,8.999220X11.501120*%
G04 #@! TD*
G04 #@! TA.AperFunction,ViaPad*
%ADD18C,0.800000*%
G04 #@! TD*
G04 #@! TA.AperFunction,Conductor*
%ADD19C,0.500000*%
G04 #@! TD*
G04 #@! TA.AperFunction,Conductor*
%ADD20C,0.250000*%
G04 #@! TD*
G04 APERTURE END LIST*
D10*
X67000000Y-104000000D03*
D11*
X64460000Y-104000000D03*
G04 #@! TA.AperFunction,SMDPad,CuDef*
G36*
G01*
X88800000Y-106035000D02*
X88800000Y-104785000D01*
G75*
G02*
X89050000Y-104535000I250000J0D01*
G01*
X89850000Y-104535000D01*
G75*
G02*
X90100000Y-104785000I0J-250000D01*
G01*
X90100000Y-106035000D01*
G75*
G02*
X89850000Y-106285000I-250000J0D01*
G01*
X89050000Y-106285000D01*
G75*
G02*
X88800000Y-106035000I0J250000D01*
G01*
G37*
G04 #@! TD.AperFunction*
G04 #@! TA.AperFunction,SMDPad,CuDef*
G36*
G01*
X91900000Y-106035000D02*
X91900000Y-104785000D01*
G75*
G02*
X92150000Y-104535000I250000J0D01*
G01*
X92950000Y-104535000D01*
G75*
G02*
X93200000Y-104785000I0J-250000D01*
G01*
X93200000Y-106035000D01*
G75*
G02*
X92950000Y-106285000I-250000J0D01*
G01*
X92150000Y-106285000D01*
G75*
G02*
X91900000Y-106035000I0J250000D01*
G01*
G37*
G04 #@! TD.AperFunction*
G04 #@! TA.AperFunction,SMDPad,CuDef*
G36*
G01*
X72730000Y-85715000D02*
X72730000Y-84465000D01*
G75*
G02*
X72980000Y-84215000I250000J0D01*
G01*
X73780000Y-84215000D01*
G75*
G02*
X74030000Y-84465000I0J-250000D01*
G01*
X74030000Y-85715000D01*
G75*
G02*
X73780000Y-85965000I-250000J0D01*
G01*
X72980000Y-85965000D01*
G75*
G02*
X72730000Y-85715000I0J250000D01*
G01*
G37*
G04 #@! TD.AperFunction*
G04 #@! TA.AperFunction,SMDPad,CuDef*
G36*
G01*
X75830000Y-85715000D02*
X75830000Y-84465000D01*
G75*
G02*
X76080000Y-84215000I250000J0D01*
G01*
X76880000Y-84215000D01*
G75*
G02*
X77130000Y-84465000I0J-250000D01*
G01*
X77130000Y-85715000D01*
G75*
G02*
X76880000Y-85965000I-250000J0D01*
G01*
X76080000Y-85965000D01*
G75*
G02*
X75830000Y-85715000I0J250000D01*
G01*
G37*
G04 #@! TD.AperFunction*
D12*
X84765000Y-105270000D03*
X84765000Y-102730000D03*
X75235000Y-102730000D03*
X75235000Y-105270000D03*
D13*
X45593000Y-83820000D03*
D14*
X45593000Y-87320000D03*
D15*
X74930000Y-93980000D03*
G04 #@! TA.AperFunction,SMDPad,CuDef*
G36*
G01*
X69325000Y-72200000D02*
X69325000Y-71900000D01*
G75*
G02*
X69475000Y-71750000I150000J0D01*
G01*
X70650000Y-71750000D01*
G75*
G02*
X70800000Y-71900000I0J-150000D01*
G01*
X70800000Y-72200000D01*
G75*
G02*
X70650000Y-72350000I-150000J0D01*
G01*
X69475000Y-72350000D01*
G75*
G02*
X69325000Y-72200000I0J150000D01*
G01*
G37*
G04 #@! TD.AperFunction*
G04 #@! TA.AperFunction,SMDPad,CuDef*
G36*
G01*
X69325000Y-74100000D02*
X69325000Y-73800000D01*
G75*
G02*
X69475000Y-73650000I150000J0D01*
G01*
X70650000Y-73650000D01*
G75*
G02*
X70800000Y-73800000I0J-150000D01*
G01*
X70800000Y-74100000D01*
G75*
G02*
X70650000Y-74250000I-150000J0D01*
G01*
X69475000Y-74250000D01*
G75*
G02*
X69325000Y-74100000I0J150000D01*
G01*
G37*
G04 #@! TD.AperFunction*
G04 #@! TA.AperFunction,SMDPad,CuDef*
G36*
G01*
X71200000Y-73150000D02*
X71200000Y-72850000D01*
G75*
G02*
X71350000Y-72700000I150000J0D01*
G01*
X72525000Y-72700000D01*
G75*
G02*
X72675000Y-72850000I0J-150000D01*
G01*
X72675000Y-73150000D01*
G75*
G02*
X72525000Y-73300000I-150000J0D01*
G01*
X71350000Y-73300000D01*
G75*
G02*
X71200000Y-73150000I0J150000D01*
G01*
G37*
G04 #@! TD.AperFunction*
D16*
X79540100Y-77002640D03*
D17*
X90639900Y-79502000D03*
D16*
X79540100Y-82001360D03*
D15*
X102870000Y-71120000D03*
G04 #@! TA.AperFunction,SMDPad,CuDef*
G36*
G01*
X59625000Y-71750000D02*
X58375000Y-71750000D01*
G75*
G02*
X58125000Y-71500000I0J250000D01*
G01*
X58125000Y-70700000D01*
G75*
G02*
X58375000Y-70450000I250000J0D01*
G01*
X59625000Y-70450000D01*
G75*
G02*
X59875000Y-70700000I0J-250000D01*
G01*
X59875000Y-71500000D01*
G75*
G02*
X59625000Y-71750000I-250000J0D01*
G01*
G37*
G04 #@! TD.AperFunction*
G04 #@! TA.AperFunction,SMDPad,CuDef*
G36*
G01*
X59625000Y-68650000D02*
X58375000Y-68650000D01*
G75*
G02*
X58125000Y-68400000I0J250000D01*
G01*
X58125000Y-67600000D01*
G75*
G02*
X58375000Y-67350000I250000J0D01*
G01*
X59625000Y-67350000D01*
G75*
G02*
X59875000Y-67600000I0J-250000D01*
G01*
X59875000Y-68400000D01*
G75*
G02*
X59625000Y-68650000I-250000J0D01*
G01*
G37*
G04 #@! TD.AperFunction*
X102870000Y-97790000D03*
G04 #@! TA.AperFunction,SMDPad,CuDef*
G36*
G01*
X50090000Y-101050000D02*
X50090000Y-102150000D01*
G75*
G02*
X49840000Y-102400000I-250000J0D01*
G01*
X47740000Y-102400000D01*
G75*
G02*
X47490000Y-102150000I0J250000D01*
G01*
X47490000Y-101050000D01*
G75*
G02*
X47740000Y-100800000I250000J0D01*
G01*
X49840000Y-100800000D01*
G75*
G02*
X50090000Y-101050000I0J-250000D01*
G01*
G37*
G04 #@! TD.AperFunction*
G04 #@! TA.AperFunction,SMDPad,CuDef*
G36*
G01*
X46490000Y-101050000D02*
X46490000Y-102150000D01*
G75*
G02*
X46240000Y-102400000I-250000J0D01*
G01*
X44140000Y-102400000D01*
G75*
G02*
X43890000Y-102150000I0J250000D01*
G01*
X43890000Y-101050000D01*
G75*
G02*
X44140000Y-100800000I250000J0D01*
G01*
X46240000Y-100800000D01*
G75*
G02*
X46490000Y-101050000I0J-250000D01*
G01*
G37*
G04 #@! TD.AperFunction*
G04 #@! TA.AperFunction,SMDPad,CuDef*
G36*
G01*
X77130000Y-87005000D02*
X77130000Y-88255000D01*
G75*
G02*
X76880000Y-88505000I-250000J0D01*
G01*
X76080000Y-88505000D01*
G75*
G02*
X75830000Y-88255000I0J250000D01*
G01*
X75830000Y-87005000D01*
G75*
G02*
X76080000Y-86755000I250000J0D01*
G01*
X76880000Y-86755000D01*
G75*
G02*
X77130000Y-87005000I0J-250000D01*
G01*
G37*
G04 #@! TD.AperFunction*
G04 #@! TA.AperFunction,SMDPad,CuDef*
G36*
G01*
X74030000Y-87005000D02*
X74030000Y-88255000D01*
G75*
G02*
X73780000Y-88505000I-250000J0D01*
G01*
X72980000Y-88505000D01*
G75*
G02*
X72730000Y-88255000I0J250000D01*
G01*
X72730000Y-87005000D01*
G75*
G02*
X72980000Y-86755000I250000J0D01*
G01*
X73780000Y-86755000D01*
G75*
G02*
X74030000Y-87005000I0J-250000D01*
G01*
G37*
G04 #@! TD.AperFunction*
D16*
X71259700Y-82001360D03*
D17*
X60159900Y-79502000D03*
D16*
X71259700Y-77002640D03*
D12*
X84765000Y-70270000D03*
X84765000Y-67730000D03*
X75235000Y-67730000D03*
X75235000Y-70270000D03*
G04 #@! TA.AperFunction,SMDPad,CuDef*
G36*
G01*
X77350000Y-73887500D02*
X77350000Y-74112500D01*
G75*
G02*
X77237500Y-74225000I-112500J0D01*
G01*
X76862500Y-74225000D01*
G75*
G02*
X76750000Y-74112500I0J112500D01*
G01*
X76750000Y-73887500D01*
G75*
G02*
X76862500Y-73775000I112500J0D01*
G01*
X77237500Y-73775000D01*
G75*
G02*
X77350000Y-73887500I0J-112500D01*
G01*
G37*
G04 #@! TD.AperFunction*
G04 #@! TA.AperFunction,SMDPad,CuDef*
G36*
G01*
X75250000Y-73887500D02*
X75250000Y-74112500D01*
G75*
G02*
X75137500Y-74225000I-112500J0D01*
G01*
X74762500Y-74225000D01*
G75*
G02*
X74650000Y-74112500I0J112500D01*
G01*
X74650000Y-73887500D01*
G75*
G02*
X74762500Y-73775000I112500J0D01*
G01*
X75137500Y-73775000D01*
G75*
G02*
X75250000Y-73887500I0J-112500D01*
G01*
G37*
G04 #@! TD.AperFunction*
G04 #@! TA.AperFunction,SMDPad,CuDef*
G36*
G01*
X88800000Y-70625000D02*
X88800000Y-69375000D01*
G75*
G02*
X89050000Y-69125000I250000J0D01*
G01*
X89850000Y-69125000D01*
G75*
G02*
X90100000Y-69375000I0J-250000D01*
G01*
X90100000Y-70625000D01*
G75*
G02*
X89850000Y-70875000I-250000J0D01*
G01*
X89050000Y-70875000D01*
G75*
G02*
X88800000Y-70625000I0J250000D01*
G01*
G37*
G04 #@! TD.AperFunction*
G04 #@! TA.AperFunction,SMDPad,CuDef*
G36*
G01*
X91900000Y-70625000D02*
X91900000Y-69375000D01*
G75*
G02*
X92150000Y-69125000I250000J0D01*
G01*
X92950000Y-69125000D01*
G75*
G02*
X93200000Y-69375000I0J-250000D01*
G01*
X93200000Y-70625000D01*
G75*
G02*
X92950000Y-70875000I-250000J0D01*
G01*
X92150000Y-70875000D01*
G75*
G02*
X91900000Y-70625000I0J250000D01*
G01*
G37*
G04 #@! TD.AperFunction*
D10*
X67000000Y-69000000D03*
D11*
X64460000Y-69000000D03*
G04 #@! TA.AperFunction,SMDPad,CuDef*
G36*
G01*
X56625000Y-106200000D02*
X55375000Y-106200000D01*
G75*
G02*
X55125000Y-105950000I0J250000D01*
G01*
X55125000Y-105150000D01*
G75*
G02*
X55375000Y-104900000I250000J0D01*
G01*
X56625000Y-104900000D01*
G75*
G02*
X56875000Y-105150000I0J-250000D01*
G01*
X56875000Y-105950000D01*
G75*
G02*
X56625000Y-106200000I-250000J0D01*
G01*
G37*
G04 #@! TD.AperFunction*
G04 #@! TA.AperFunction,SMDPad,CuDef*
G36*
G01*
X56625000Y-103100000D02*
X55375000Y-103100000D01*
G75*
G02*
X55125000Y-102850000I0J250000D01*
G01*
X55125000Y-102050000D01*
G75*
G02*
X55375000Y-101800000I250000J0D01*
G01*
X56625000Y-101800000D01*
G75*
G02*
X56875000Y-102050000I0J-250000D01*
G01*
X56875000Y-102850000D01*
G75*
G02*
X56625000Y-103100000I-250000J0D01*
G01*
G37*
G04 #@! TD.AperFunction*
D13*
X104140000Y-87221000D03*
D14*
X104140000Y-83721000D03*
G04 #@! TA.AperFunction,SMDPad,CuDef*
G36*
G01*
X69325000Y-100200000D02*
X69325000Y-99900000D01*
G75*
G02*
X69475000Y-99750000I150000J0D01*
G01*
X70650000Y-99750000D01*
G75*
G02*
X70800000Y-99900000I0J-150000D01*
G01*
X70800000Y-100200000D01*
G75*
G02*
X70650000Y-100350000I-150000J0D01*
G01*
X69475000Y-100350000D01*
G75*
G02*
X69325000Y-100200000I0J150000D01*
G01*
G37*
G04 #@! TD.AperFunction*
G04 #@! TA.AperFunction,SMDPad,CuDef*
G36*
G01*
X69325000Y-102100000D02*
X69325000Y-101800000D01*
G75*
G02*
X69475000Y-101650000I150000J0D01*
G01*
X70650000Y-101650000D01*
G75*
G02*
X70800000Y-101800000I0J-150000D01*
G01*
X70800000Y-102100000D01*
G75*
G02*
X70650000Y-102250000I-150000J0D01*
G01*
X69475000Y-102250000D01*
G75*
G02*
X69325000Y-102100000I0J150000D01*
G01*
G37*
G04 #@! TD.AperFunction*
G04 #@! TA.AperFunction,SMDPad,CuDef*
G36*
G01*
X71200000Y-101150000D02*
X71200000Y-100850000D01*
G75*
G02*
X71350000Y-100700000I150000J0D01*
G01*
X72525000Y-100700000D01*
G75*
G02*
X72675000Y-100850000I0J-150000D01*
G01*
X72675000Y-101150000D01*
G75*
G02*
X72525000Y-101300000I-150000J0D01*
G01*
X71350000Y-101300000D01*
G75*
G02*
X71200000Y-101150000I0J150000D01*
G01*
G37*
G04 #@! TD.AperFunction*
G04 #@! TA.AperFunction,SMDPad,CuDef*
G36*
G01*
X55375000Y-67350000D02*
X56625000Y-67350000D01*
G75*
G02*
X56875000Y-67600000I0J-250000D01*
G01*
X56875000Y-68400000D01*
G75*
G02*
X56625000Y-68650000I-250000J0D01*
G01*
X55375000Y-68650000D01*
G75*
G02*
X55125000Y-68400000I0J250000D01*
G01*
X55125000Y-67600000D01*
G75*
G02*
X55375000Y-67350000I250000J0D01*
G01*
G37*
G04 #@! TD.AperFunction*
G04 #@! TA.AperFunction,SMDPad,CuDef*
G36*
G01*
X55375000Y-70450000D02*
X56625000Y-70450000D01*
G75*
G02*
X56875000Y-70700000I0J-250000D01*
G01*
X56875000Y-71500000D01*
G75*
G02*
X56625000Y-71750000I-250000J0D01*
G01*
X55375000Y-71750000D01*
G75*
G02*
X55125000Y-71500000I0J250000D01*
G01*
X55125000Y-70700000D01*
G75*
G02*
X55375000Y-70450000I250000J0D01*
G01*
G37*
G04 #@! TD.AperFunction*
D16*
X79540100Y-91480640D03*
D17*
X90639900Y-93980000D03*
D16*
X79540100Y-96479360D03*
X71259700Y-96479360D03*
D17*
X60159900Y-93980000D03*
D16*
X71259700Y-91480640D03*
G04 #@! TA.AperFunction,SMDPad,CuDef*
G36*
G01*
X49610000Y-96407500D02*
X49610000Y-96632500D01*
G75*
G02*
X49497500Y-96745000I-112500J0D01*
G01*
X49122500Y-96745000D01*
G75*
G02*
X49010000Y-96632500I0J112500D01*
G01*
X49010000Y-96407500D01*
G75*
G02*
X49122500Y-96295000I112500J0D01*
G01*
X49497500Y-96295000D01*
G75*
G02*
X49610000Y-96407500I0J-112500D01*
G01*
G37*
G04 #@! TD.AperFunction*
G04 #@! TA.AperFunction,SMDPad,CuDef*
G36*
G01*
X47510000Y-96407500D02*
X47510000Y-96632500D01*
G75*
G02*
X47397500Y-96745000I-112500J0D01*
G01*
X47022500Y-96745000D01*
G75*
G02*
X46910000Y-96632500I0J112500D01*
G01*
X46910000Y-96407500D01*
G75*
G02*
X47022500Y-96295000I112500J0D01*
G01*
X47397500Y-96295000D01*
G75*
G02*
X47510000Y-96407500I0J-112500D01*
G01*
G37*
G04 #@! TD.AperFunction*
G04 #@! TA.AperFunction,SMDPad,CuDef*
G36*
G01*
X49610000Y-76087500D02*
X49610000Y-76312500D01*
G75*
G02*
X49497500Y-76425000I-112500J0D01*
G01*
X49122500Y-76425000D01*
G75*
G02*
X49010000Y-76312500I0J112500D01*
G01*
X49010000Y-76087500D01*
G75*
G02*
X49122500Y-75975000I112500J0D01*
G01*
X49497500Y-75975000D01*
G75*
G02*
X49610000Y-76087500I0J-112500D01*
G01*
G37*
G04 #@! TD.AperFunction*
G04 #@! TA.AperFunction,SMDPad,CuDef*
G36*
G01*
X47510000Y-76087500D02*
X47510000Y-76312500D01*
G75*
G02*
X47397500Y-76425000I-112500J0D01*
G01*
X47022500Y-76425000D01*
G75*
G02*
X46910000Y-76312500I0J112500D01*
G01*
X46910000Y-76087500D01*
G75*
G02*
X47022500Y-75975000I112500J0D01*
G01*
X47397500Y-75975000D01*
G75*
G02*
X47510000Y-76087500I0J-112500D01*
G01*
G37*
G04 #@! TD.AperFunction*
G04 #@! TA.AperFunction,SMDPad,CuDef*
G36*
G01*
X50090000Y-70570000D02*
X50090000Y-71670000D01*
G75*
G02*
X49840000Y-71920000I-250000J0D01*
G01*
X47740000Y-71920000D01*
G75*
G02*
X47490000Y-71670000I0J250000D01*
G01*
X47490000Y-70570000D01*
G75*
G02*
X47740000Y-70320000I250000J0D01*
G01*
X49840000Y-70320000D01*
G75*
G02*
X50090000Y-70570000I0J-250000D01*
G01*
G37*
G04 #@! TD.AperFunction*
G04 #@! TA.AperFunction,SMDPad,CuDef*
G36*
G01*
X46490000Y-70570000D02*
X46490000Y-71670000D01*
G75*
G02*
X46240000Y-71920000I-250000J0D01*
G01*
X44140000Y-71920000D01*
G75*
G02*
X43890000Y-71670000I0J250000D01*
G01*
X43890000Y-70570000D01*
G75*
G02*
X44140000Y-70320000I250000J0D01*
G01*
X46240000Y-70320000D01*
G75*
G02*
X46490000Y-70570000I0J-250000D01*
G01*
G37*
G04 #@! TD.AperFunction*
D10*
X106680000Y-105410000D03*
D11*
X106680000Y-102870000D03*
G04 #@! TA.AperFunction,SMDPad,CuDef*
G36*
G01*
X74650000Y-99172500D02*
X74650000Y-98947500D01*
G75*
G02*
X74762500Y-98835000I112500J0D01*
G01*
X75137500Y-98835000D01*
G75*
G02*
X75250000Y-98947500I0J-112500D01*
G01*
X75250000Y-99172500D01*
G75*
G02*
X75137500Y-99285000I-112500J0D01*
G01*
X74762500Y-99285000D01*
G75*
G02*
X74650000Y-99172500I0J112500D01*
G01*
G37*
G04 #@! TD.AperFunction*
G04 #@! TA.AperFunction,SMDPad,CuDef*
G36*
G01*
X76750000Y-99172500D02*
X76750000Y-98947500D01*
G75*
G02*
X76862500Y-98835000I112500J0D01*
G01*
X77237500Y-98835000D01*
G75*
G02*
X77350000Y-98947500I0J-112500D01*
G01*
X77350000Y-99172500D01*
G75*
G02*
X77237500Y-99285000I-112500J0D01*
G01*
X76862500Y-99285000D01*
G75*
G02*
X76750000Y-99172500I0J112500D01*
G01*
G37*
G04 #@! TD.AperFunction*
D15*
X74930000Y-80010000D03*
G04 #@! TA.AperFunction,SMDPad,CuDef*
G36*
G01*
X58375000Y-101800000D02*
X59625000Y-101800000D01*
G75*
G02*
X59875000Y-102050000I0J-250000D01*
G01*
X59875000Y-102850000D01*
G75*
G02*
X59625000Y-103100000I-250000J0D01*
G01*
X58375000Y-103100000D01*
G75*
G02*
X58125000Y-102850000I0J250000D01*
G01*
X58125000Y-102050000D01*
G75*
G02*
X58375000Y-101800000I250000J0D01*
G01*
G37*
G04 #@! TD.AperFunction*
G04 #@! TA.AperFunction,SMDPad,CuDef*
G36*
G01*
X58375000Y-104900000D02*
X59625000Y-104900000D01*
G75*
G02*
X59875000Y-105150000I0J-250000D01*
G01*
X59875000Y-105950000D01*
G75*
G02*
X59625000Y-106200000I-250000J0D01*
G01*
X58375000Y-106200000D01*
G75*
G02*
X58125000Y-105950000I0J250000D01*
G01*
X58125000Y-105150000D01*
G75*
G02*
X58375000Y-104900000I250000J0D01*
G01*
G37*
G04 #@! TD.AperFunction*
D18*
X45720000Y-96520000D03*
X46000000Y-105000000D03*
X46990000Y-77470000D03*
X78740000Y-78740000D03*
X102870000Y-76200000D03*
X72390000Y-80010000D03*
X72390000Y-93980000D03*
X100330000Y-97790000D03*
X78740000Y-93980000D03*
X54000000Y-101000000D03*
X68000000Y-102000000D03*
X94000000Y-66000000D03*
X90000000Y-108000000D03*
X88000000Y-67000000D03*
X90000000Y-102000000D03*
D19*
X47000000Y-66000000D02*
X65000000Y-66000000D01*
X44450000Y-81280000D02*
X46228000Y-79502000D01*
X46228000Y-79502000D02*
X60159900Y-79502000D01*
X45190000Y-67810000D02*
X47000000Y-66000000D01*
X45190000Y-76730000D02*
X44450000Y-77470000D01*
X67000000Y-69000000D02*
X67000000Y-67000000D01*
X74252500Y-66000000D02*
X75235000Y-66982500D01*
X67000000Y-67000000D02*
X66000000Y-66000000D01*
X45593000Y-82423000D02*
X44450000Y-81280000D01*
X75235000Y-66982500D02*
X75235000Y-67730000D01*
X45190000Y-71120000D02*
X45190000Y-76730000D01*
X66000000Y-66000000D02*
X65000000Y-66000000D01*
X45720000Y-96520000D02*
X47210000Y-96520000D01*
X45593000Y-83820000D02*
X45593000Y-82423000D01*
X45190000Y-71120000D02*
X45190000Y-67810000D01*
X44450000Y-77470000D02*
X44450000Y-81280000D01*
X65000000Y-66000000D02*
X74252500Y-66000000D01*
X75235000Y-102730000D02*
X73270000Y-102730000D01*
X45190000Y-104190000D02*
X46000000Y-105000000D01*
X46990000Y-77470000D02*
X46990000Y-76420000D01*
X45190000Y-101600000D02*
X45190000Y-104190000D01*
X45720000Y-93980000D02*
X44450000Y-92710000D01*
X72000000Y-104000000D02*
X67000000Y-104000000D01*
X45190000Y-99800000D02*
X45190000Y-101600000D01*
X73270000Y-102730000D02*
X72000000Y-104000000D01*
X60159900Y-93980000D02*
X45720000Y-93980000D01*
X46990000Y-76420000D02*
X47210000Y-76200000D01*
X44450000Y-88463000D02*
X45593000Y-87320000D01*
X44450000Y-99060000D02*
X45190000Y-99800000D01*
X44450000Y-92710000D02*
X44450000Y-88463000D01*
X44450000Y-92710000D02*
X44450000Y-99060000D01*
X104267000Y-80137000D02*
X104267000Y-83820000D01*
X103632000Y-79502000D02*
X104267000Y-80137000D01*
X90639900Y-79502000D02*
X103632000Y-79502000D01*
X102870000Y-93980000D02*
X104267000Y-92583000D01*
X104267000Y-92583000D02*
X104267000Y-87320000D01*
X90639900Y-93980000D02*
X102870000Y-93980000D01*
X75651360Y-82001360D02*
X79540100Y-82001360D01*
X74930000Y-81280000D02*
X75651360Y-82001360D01*
X76480000Y-85090000D02*
X78740000Y-85090000D01*
X71259700Y-77002640D02*
X74462640Y-77002640D01*
X74462640Y-77002640D02*
X74930000Y-77470000D01*
X79540100Y-84289900D02*
X79540100Y-82001360D01*
X74930000Y-77470000D02*
X74930000Y-81280000D01*
X78740000Y-85090000D02*
X79540100Y-84289900D01*
X73380000Y-87630000D02*
X72390000Y-87630000D01*
X72390000Y-87630000D02*
X71259700Y-88760300D01*
X74930000Y-95250000D02*
X76200000Y-96520000D01*
X71259700Y-91480640D02*
X73700640Y-91480640D01*
X73700640Y-91480640D02*
X74930000Y-92710000D01*
X74930000Y-92710000D02*
X74930000Y-95250000D01*
X71259700Y-88760300D02*
X71259700Y-91480640D01*
X76200000Y-96520000D02*
X76240640Y-96479360D01*
X76240640Y-96479360D02*
X79540100Y-96479360D01*
D20*
X71259700Y-83959700D02*
X71259700Y-82001360D01*
X73380000Y-85090000D02*
X72390000Y-85090000D01*
X79540100Y-77939900D02*
X78740000Y-78740000D01*
X79540100Y-77002640D02*
X79540100Y-77939900D01*
X79540100Y-74540100D02*
X79000000Y-74000000D01*
X79540100Y-77002640D02*
X79540100Y-74540100D01*
X72390000Y-85090000D02*
X71259700Y-83959700D01*
X102870000Y-71120000D02*
X102870000Y-76200000D01*
X71120000Y-81280000D02*
X71120000Y-81861660D01*
X72390000Y-80010000D02*
X71120000Y-81280000D01*
X77050000Y-74000000D02*
X79000000Y-74000000D01*
X74340000Y-74000000D02*
X73340000Y-73000000D01*
X74950000Y-74000000D02*
X74340000Y-74000000D01*
X73340000Y-73000000D02*
X71937500Y-73000000D01*
X71259700Y-95110300D02*
X72390000Y-93980000D01*
X79540100Y-91480640D02*
X79540100Y-93179900D01*
X76480000Y-87630000D02*
X78740000Y-87630000D01*
X74950000Y-99060000D02*
X72390000Y-99060000D01*
X100330000Y-97790000D02*
X102870000Y-97790000D01*
X71259700Y-97929700D02*
X71259700Y-96479360D01*
X78740000Y-87630000D02*
X79540100Y-88430100D01*
X71259700Y-96479360D02*
X71259700Y-95110300D01*
X72390000Y-99060000D02*
X71259700Y-97929700D01*
X79540100Y-93179900D02*
X78740000Y-93980000D01*
X79540100Y-88430100D02*
X79540100Y-91480640D01*
X77050000Y-99950000D02*
X77050000Y-99060000D01*
X71937500Y-101000000D02*
X76000000Y-101000000D01*
X76000000Y-101000000D02*
X77050000Y-99950000D01*
D19*
X56000000Y-71100000D02*
X57900000Y-73000000D01*
X68950000Y-73950000D02*
X70062500Y-73950000D01*
X68000000Y-73000000D02*
X68950000Y-73950000D01*
X48810000Y-71100000D02*
X56000000Y-71100000D01*
X48790000Y-71120000D02*
X48810000Y-71100000D01*
X49310000Y-76200000D02*
X49310000Y-71640000D01*
X57900000Y-73000000D02*
X68000000Y-73000000D01*
X49310000Y-71640000D02*
X48790000Y-71120000D01*
X68000000Y-102000000D02*
X70012500Y-102000000D01*
X70012500Y-102000000D02*
X70062500Y-101950000D01*
X53000000Y-102000000D02*
X54000000Y-101000000D01*
X48790000Y-101600000D02*
X49190000Y-102000000D01*
X49190000Y-102000000D02*
X53000000Y-102000000D01*
X49310000Y-96520000D02*
X49310000Y-101080000D01*
X49310000Y-101080000D02*
X48790000Y-101600000D01*
X53000000Y-102000000D02*
X56000000Y-102000000D01*
D20*
X94000000Y-68550000D02*
X92550000Y-70000000D01*
X94000000Y-66000000D02*
X94000000Y-68550000D01*
X95410000Y-108000000D02*
X90000000Y-108000000D01*
X92550000Y-105410000D02*
X98000000Y-105410000D01*
X98000000Y-105410000D02*
X95410000Y-108000000D01*
X98000000Y-105410000D02*
X106680000Y-105410000D01*
X84765000Y-67730000D02*
X87270000Y-67730000D01*
X84905000Y-102870000D02*
X91000000Y-102870000D01*
X90130000Y-102000000D02*
X91000000Y-102870000D01*
X90000000Y-102000000D02*
X90130000Y-102000000D01*
X91000000Y-102870000D02*
X106680000Y-102870000D01*
X87270000Y-67730000D02*
X88000000Y-67000000D01*
X84765000Y-102730000D02*
X84905000Y-102870000D01*
X84765000Y-70270000D02*
X86730000Y-70270000D01*
X86730000Y-70270000D02*
X87000000Y-70000000D01*
X87000000Y-70000000D02*
X89450000Y-70000000D01*
X89310000Y-105270000D02*
X84765000Y-105270000D01*
X89450000Y-105410000D02*
X89310000Y-105270000D01*
X59000000Y-68000000D02*
X61000000Y-68000000D01*
X61000000Y-68000000D02*
X62000000Y-69000000D01*
X62000000Y-69000000D02*
X64460000Y-69000000D01*
X65000000Y-71000000D02*
X64460000Y-70460000D01*
X69000000Y-71000000D02*
X65000000Y-71000000D01*
X69730000Y-70270000D02*
X69000000Y-71000000D01*
X64460000Y-70460000D02*
X64460000Y-69000000D01*
X75235000Y-70270000D02*
X69730000Y-70270000D01*
X64460000Y-105460000D02*
X64460000Y-104000000D01*
X75235000Y-105270000D02*
X72730000Y-105270000D01*
X60450000Y-105550000D02*
X62000000Y-104000000D01*
X65000000Y-106000000D02*
X64460000Y-105460000D01*
X62000000Y-104000000D02*
X64460000Y-104000000D01*
X72000000Y-106000000D02*
X65000000Y-106000000D01*
X59000000Y-105550000D02*
X60450000Y-105550000D01*
X72730000Y-105270000D02*
X72000000Y-106000000D01*
X59000000Y-71100000D02*
X61100000Y-71100000D01*
X59000000Y-71000000D02*
X59000000Y-71100000D01*
X62050000Y-72050000D02*
X70062500Y-72050000D01*
X61100000Y-71100000D02*
X62050000Y-72050000D01*
X56000000Y-68000000D02*
X59000000Y-71000000D01*
X56190000Y-105100000D02*
X59290000Y-102000000D01*
X56000000Y-105100000D02*
X56190000Y-105100000D01*
X62634510Y-102450000D02*
X65034510Y-100050000D01*
X65034510Y-100050000D02*
X70062500Y-100050000D01*
X59000000Y-102450000D02*
X62634510Y-102450000D01*
M02*
