%TF.GenerationSoftware,KiCad,Pcbnew,6.0.0-rc2-unknown-160328abc7~144~ubuntu21.10.1*%
%TF.CreationDate,2021-12-28T14:59:46+01:00*%
%TF.ProjectId,AbcTestBoard,41626354-6573-4744-926f-6172642e6b69,rev?*%
%TF.SameCoordinates,Original*%
%TF.FileFunction,Copper,L2,Bot*%
%TF.FilePolarity,Positive*%
%FSLAX46Y46*%
G04 Gerber Fmt 4.6, Leading zero omitted, Abs format (unit mm)*
G04 Created by KiCad (PCBNEW 6.0.0-rc2-unknown-160328abc7~144~ubuntu21.10.1) date 2021-12-28 14:59:46*
%MOMM*%
%LPD*%
G01*
G04 APERTURE LIST*
%TA.AperFunction,ComponentPad*%
%ADD10R,1.700000X1.700000*%
%TD*%
%TA.AperFunction,ComponentPad*%
%ADD11O,1.700000X1.700000*%
%TD*%
%TA.AperFunction,ComponentPad*%
%ADD12R,2.400000X2.400000*%
%TD*%
%TA.AperFunction,ComponentPad*%
%ADD13C,2.400000*%
%TD*%
%TA.AperFunction,ViaPad*%
%ADD14C,0.800000*%
%TD*%
%TA.AperFunction,Conductor*%
%ADD15C,0.250000*%
%TD*%
G04 APERTURE END LIST*
D10*
%TO.P,J2,1,Pin_1*%
%TO.N,/DCC_HIGH*%
X63495000Y-104145000D03*
D11*
%TO.P,J2,2,Pin_2*%
%TO.N,Net-(J2-Pad2)*%
X63495000Y-101605000D03*
%TO.P,J2,3,Pin_3*%
%TO.N,/DCC_HIGH*%
X66035000Y-104145000D03*
%TO.P,J2,4,Pin_4*%
%TO.N,Net-(J2-Pad2)*%
X66035000Y-101605000D03*
%TD*%
D12*
%TO.P,J5,1,Pin_1*%
%TO.N,/J_IN*%
X44450000Y-83820000D03*
D13*
%TO.P,J5,2,Pin_2*%
%TO.N,/K_IN*%
X44450000Y-87320000D03*
%TD*%
D10*
%TO.P,J1,1,Pin_1*%
%TO.N,/DCC_HIGH*%
X66045000Y-67310000D03*
D11*
%TO.P,J1,2,Pin_2*%
%TO.N,Net-(J1-Pad2)*%
X66045000Y-69850000D03*
%TO.P,J1,3,Pin_3*%
%TO.N,/DCC_HIGH*%
X63505000Y-67310000D03*
%TO.P,J1,4,Pin_4*%
%TO.N,Net-(J1-Pad2)*%
X63505000Y-69850000D03*
%TD*%
D10*
%TO.P,J3,1,Pin_1*%
%TO.N,/DCC_LOW*%
X83825000Y-67305000D03*
D11*
%TO.P,J3,2,Pin_2*%
%TO.N,Net-(J3-Pad2)*%
X83825000Y-69845000D03*
%TO.P,J3,3,Pin_3*%
%TO.N,/DCC_LOW*%
X81285000Y-67305000D03*
%TO.P,J3,4,Pin_4*%
%TO.N,Net-(J3-Pad2)*%
X81285000Y-69845000D03*
%TD*%
D10*
%TO.P,J4,1,Pin_1*%
%TO.N,/DCC_LOW*%
X81275000Y-104140000D03*
D11*
%TO.P,J4,2,Pin_2*%
%TO.N,Net-(J4-Pad2)*%
X81275000Y-101600000D03*
%TO.P,J4,3,Pin_3*%
%TO.N,/DCC_LOW*%
X83815000Y-104140000D03*
%TO.P,J4,4,Pin_4*%
%TO.N,Net-(J4-Pad2)*%
X83815000Y-101600000D03*
%TD*%
D12*
%TO.P,J6,1,Pin_1*%
%TO.N,/K_OUT*%
X104710000Y-87320000D03*
D13*
%TO.P,J6,2,Pin_2*%
%TO.N,/J_OUT*%
X104710000Y-83820000D03*
%TD*%
D14*
%TO.N,Net-(Q2-Pad1)*%
X68580000Y-86360000D03*
X69850000Y-92710000D03*
%TO.N,Net-(Q4-Pad1)*%
X86360000Y-86360000D03*
X87630000Y-92710000D03*
%TD*%
D15*
%TO.N,Net-(Q2-Pad1)*%
X69850000Y-92710000D02*
X69850000Y-87630000D01*
X69850000Y-87630000D02*
X68580000Y-86360000D01*
%TO.N,Net-(Q4-Pad1)*%
X87630000Y-92710000D02*
X87630000Y-87630000D01*
X87630000Y-87630000D02*
X86360000Y-86360000D01*
%TO.N,/DCC_HIGH*%
X57150000Y-69850000D02*
X57150000Y-102870000D01*
X58425000Y-104145000D02*
X66035000Y-104145000D01*
X63505000Y-67310000D02*
X59690000Y-67310000D01*
X59690000Y-67310000D02*
X57150000Y-69850000D01*
X57150000Y-102870000D02*
X58425000Y-104145000D01*
X66045000Y-67310000D02*
X63505000Y-67310000D01*
%TO.N,/DCC_LOW*%
X77470000Y-68580000D02*
X78745000Y-67305000D01*
X81285000Y-67305000D02*
X83825000Y-67305000D01*
X83815000Y-104140000D02*
X81275000Y-104140000D01*
X78740000Y-104140000D02*
X77470000Y-102870000D01*
X78745000Y-67305000D02*
X81285000Y-67305000D01*
X77470000Y-102870000D02*
X77470000Y-68580000D01*
X81275000Y-104140000D02*
X78740000Y-104140000D01*
%TD*%
M02*
