G04 #@! TF.GenerationSoftware,KiCad,Pcbnew,6.0.2-378541a8eb~116~ubuntu21.10.1*
G04 #@! TF.CreationDate,2022-03-31T10:48:05+02:00*
G04 #@! TF.ProjectId,AbcTestBoard,41626354-6573-4744-926f-6172642e6b69,rev?*
G04 #@! TF.SameCoordinates,Original*
G04 #@! TF.FileFunction,Copper,L1,Top*
G04 #@! TF.FilePolarity,Positive*
%FSLAX46Y46*%
G04 Gerber Fmt 4.6, Leading zero omitted, Abs format (unit mm)*
G04 Created by KiCad (PCBNEW 6.0.2-378541a8eb~116~ubuntu21.10.1) date 2022-03-31 10:48:05*
%MOMM*%
%LPD*%
G01*
G04 APERTURE LIST*
G04 #@! TA.AperFunction,ComponentPad*
%ADD10R,1.700000X1.700000*%
G04 #@! TD*
G04 #@! TA.AperFunction,ComponentPad*
%ADD11O,1.700000X1.700000*%
G04 #@! TD*
G04 #@! TA.AperFunction,SMDPad,CuDef*
%ADD12R,2.000000X1.780000*%
G04 #@! TD*
G04 #@! TA.AperFunction,ComponentPad*
%ADD13R,2.400000X2.400000*%
G04 #@! TD*
G04 #@! TA.AperFunction,ComponentPad*
%ADD14C,2.400000*%
G04 #@! TD*
G04 #@! TA.AperFunction,SMDPad,CuDef*
%ADD15C,1.500000*%
G04 #@! TD*
G04 #@! TA.AperFunction,SMDPad,CuDef*
%ADD16R,3.799840X1.998980*%
G04 #@! TD*
G04 #@! TA.AperFunction,SMDPad,CuDef*
%ADD17R,8.999220X11.501120*%
G04 #@! TD*
G04 #@! TA.AperFunction,SMDPad,CuDef*
%ADD18R,0.600000X0.450000*%
G04 #@! TD*
G04 #@! TA.AperFunction,ViaPad*
%ADD19C,0.800000*%
G04 #@! TD*
G04 #@! TA.AperFunction,Conductor*
%ADD20C,0.500000*%
G04 #@! TD*
G04 #@! TA.AperFunction,Conductor*
%ADD21C,0.250000*%
G04 #@! TD*
G04 APERTURE END LIST*
D10*
X69845000Y-105415000D03*
D11*
X69845000Y-102875000D03*
X72385000Y-105415000D03*
X72385000Y-102875000D03*
G04 #@! TA.AperFunction,SMDPad,CuDef*
G36*
G01*
X91780000Y-106035000D02*
X91780000Y-104785000D01*
G75*
G02*
X92030000Y-104535000I250000J0D01*
G01*
X92830000Y-104535000D01*
G75*
G02*
X93080000Y-104785000I0J-250000D01*
G01*
X93080000Y-106035000D01*
G75*
G02*
X92830000Y-106285000I-250000J0D01*
G01*
X92030000Y-106285000D01*
G75*
G02*
X91780000Y-106035000I0J250000D01*
G01*
G37*
G04 #@! TD.AperFunction*
G04 #@! TA.AperFunction,SMDPad,CuDef*
G36*
G01*
X94880000Y-106035000D02*
X94880000Y-104785000D01*
G75*
G02*
X95130000Y-104535000I250000J0D01*
G01*
X95930000Y-104535000D01*
G75*
G02*
X96180000Y-104785000I0J-250000D01*
G01*
X96180000Y-106035000D01*
G75*
G02*
X95930000Y-106285000I-250000J0D01*
G01*
X95130000Y-106285000D01*
G75*
G02*
X94880000Y-106035000I0J250000D01*
G01*
G37*
G04 #@! TD.AperFunction*
G04 #@! TA.AperFunction,SMDPad,CuDef*
G36*
G01*
X72730000Y-85715000D02*
X72730000Y-84465000D01*
G75*
G02*
X72980000Y-84215000I250000J0D01*
G01*
X73780000Y-84215000D01*
G75*
G02*
X74030000Y-84465000I0J-250000D01*
G01*
X74030000Y-85715000D01*
G75*
G02*
X73780000Y-85965000I-250000J0D01*
G01*
X72980000Y-85965000D01*
G75*
G02*
X72730000Y-85715000I0J250000D01*
G01*
G37*
G04 #@! TD.AperFunction*
G04 #@! TA.AperFunction,SMDPad,CuDef*
G36*
G01*
X75830000Y-85715000D02*
X75830000Y-84465000D01*
G75*
G02*
X76080000Y-84215000I250000J0D01*
G01*
X76880000Y-84215000D01*
G75*
G02*
X77130000Y-84465000I0J-250000D01*
G01*
X77130000Y-85715000D01*
G75*
G02*
X76880000Y-85965000I-250000J0D01*
G01*
X76080000Y-85965000D01*
G75*
G02*
X75830000Y-85715000I0J250000D01*
G01*
G37*
G04 #@! TD.AperFunction*
D12*
X87315000Y-105410000D03*
X87315000Y-102870000D03*
X77785000Y-102870000D03*
X77785000Y-105410000D03*
D13*
X45593000Y-83820000D03*
D14*
X45593000Y-87320000D03*
D15*
X74930000Y-93980000D03*
D16*
X79540100Y-77002640D03*
D17*
X90639900Y-79502000D03*
D16*
X79540100Y-82001360D03*
D15*
X102870000Y-71120000D03*
X102870000Y-97790000D03*
G04 #@! TA.AperFunction,SMDPad,CuDef*
G36*
G01*
X50090000Y-101050000D02*
X50090000Y-102150000D01*
G75*
G02*
X49840000Y-102400000I-250000J0D01*
G01*
X47740000Y-102400000D01*
G75*
G02*
X47490000Y-102150000I0J250000D01*
G01*
X47490000Y-101050000D01*
G75*
G02*
X47740000Y-100800000I250000J0D01*
G01*
X49840000Y-100800000D01*
G75*
G02*
X50090000Y-101050000I0J-250000D01*
G01*
G37*
G04 #@! TD.AperFunction*
G04 #@! TA.AperFunction,SMDPad,CuDef*
G36*
G01*
X46490000Y-101050000D02*
X46490000Y-102150000D01*
G75*
G02*
X46240000Y-102400000I-250000J0D01*
G01*
X44140000Y-102400000D01*
G75*
G02*
X43890000Y-102150000I0J250000D01*
G01*
X43890000Y-101050000D01*
G75*
G02*
X44140000Y-100800000I250000J0D01*
G01*
X46240000Y-100800000D01*
G75*
G02*
X46490000Y-101050000I0J-250000D01*
G01*
G37*
G04 #@! TD.AperFunction*
G04 #@! TA.AperFunction,SMDPad,CuDef*
G36*
G01*
X77130000Y-87005000D02*
X77130000Y-88255000D01*
G75*
G02*
X76880000Y-88505000I-250000J0D01*
G01*
X76080000Y-88505000D01*
G75*
G02*
X75830000Y-88255000I0J250000D01*
G01*
X75830000Y-87005000D01*
G75*
G02*
X76080000Y-86755000I250000J0D01*
G01*
X76880000Y-86755000D01*
G75*
G02*
X77130000Y-87005000I0J-250000D01*
G01*
G37*
G04 #@! TD.AperFunction*
G04 #@! TA.AperFunction,SMDPad,CuDef*
G36*
G01*
X74030000Y-87005000D02*
X74030000Y-88255000D01*
G75*
G02*
X73780000Y-88505000I-250000J0D01*
G01*
X72980000Y-88505000D01*
G75*
G02*
X72730000Y-88255000I0J250000D01*
G01*
X72730000Y-87005000D01*
G75*
G02*
X72980000Y-86755000I250000J0D01*
G01*
X73780000Y-86755000D01*
G75*
G02*
X74030000Y-87005000I0J-250000D01*
G01*
G37*
G04 #@! TD.AperFunction*
D16*
X71259700Y-82001360D03*
D17*
X60159900Y-79502000D03*
D16*
X71259700Y-77002640D03*
D12*
X70165000Y-67310000D03*
X70165000Y-69850000D03*
X79695000Y-69850000D03*
X79695000Y-67310000D03*
D18*
X77250000Y-73660000D03*
X75150000Y-73660000D03*
G04 #@! TA.AperFunction,SMDPad,CuDef*
G36*
G01*
X65700000Y-66685000D02*
X65700000Y-67935000D01*
G75*
G02*
X65450000Y-68185000I-250000J0D01*
G01*
X64650000Y-68185000D01*
G75*
G02*
X64400000Y-67935000I0J250000D01*
G01*
X64400000Y-66685000D01*
G75*
G02*
X64650000Y-66435000I250000J0D01*
G01*
X65450000Y-66435000D01*
G75*
G02*
X65700000Y-66685000I0J-250000D01*
G01*
G37*
G04 #@! TD.AperFunction*
G04 #@! TA.AperFunction,SMDPad,CuDef*
G36*
G01*
X62600000Y-66685000D02*
X62600000Y-67935000D01*
G75*
G02*
X62350000Y-68185000I-250000J0D01*
G01*
X61550000Y-68185000D01*
G75*
G02*
X61300000Y-67935000I0J250000D01*
G01*
X61300000Y-66685000D01*
G75*
G02*
X61550000Y-66435000I250000J0D01*
G01*
X62350000Y-66435000D01*
G75*
G02*
X62600000Y-66685000I0J-250000D01*
G01*
G37*
G04 #@! TD.AperFunction*
D10*
X87635000Y-67305000D03*
D11*
X87635000Y-69845000D03*
X85095000Y-67305000D03*
X85095000Y-69845000D03*
D13*
X104140000Y-87221000D03*
D14*
X104140000Y-83721000D03*
D16*
X79540100Y-91480640D03*
D17*
X90639900Y-93980000D03*
D16*
X79540100Y-96479360D03*
X71259700Y-96479360D03*
D17*
X60159900Y-93980000D03*
D16*
X71259700Y-91480640D03*
D18*
X49310000Y-96520000D03*
X47210000Y-96520000D03*
X49310000Y-76200000D03*
X47210000Y-76200000D03*
G04 #@! TA.AperFunction,SMDPad,CuDef*
G36*
G01*
X50090000Y-70570000D02*
X50090000Y-71670000D01*
G75*
G02*
X49840000Y-71920000I-250000J0D01*
G01*
X47740000Y-71920000D01*
G75*
G02*
X47490000Y-71670000I0J250000D01*
G01*
X47490000Y-70570000D01*
G75*
G02*
X47740000Y-70320000I250000J0D01*
G01*
X49840000Y-70320000D01*
G75*
G02*
X50090000Y-70570000I0J-250000D01*
G01*
G37*
G04 #@! TD.AperFunction*
G04 #@! TA.AperFunction,SMDPad,CuDef*
G36*
G01*
X46490000Y-70570000D02*
X46490000Y-71670000D01*
G75*
G02*
X46240000Y-71920000I-250000J0D01*
G01*
X44140000Y-71920000D01*
G75*
G02*
X43890000Y-71670000I0J250000D01*
G01*
X43890000Y-70570000D01*
G75*
G02*
X44140000Y-70320000I250000J0D01*
G01*
X46240000Y-70320000D01*
G75*
G02*
X46490000Y-70570000I0J-250000D01*
G01*
G37*
G04 #@! TD.AperFunction*
D10*
X106680000Y-105410000D03*
D11*
X106680000Y-102870000D03*
D18*
X73880000Y-99060000D03*
X75980000Y-99060000D03*
D15*
X74930000Y-80010000D03*
D19*
X45720000Y-96520000D03*
X46990000Y-77470000D03*
X78740000Y-78740000D03*
X102870000Y-76200000D03*
X72390000Y-80010000D03*
X72390000Y-93980000D03*
X100330000Y-97790000D03*
X78740000Y-93980000D03*
X53340000Y-71120000D03*
X62230000Y-71120000D03*
X97790000Y-105410000D03*
X97790000Y-102870000D03*
X64770000Y-71120000D03*
D20*
X44450000Y-81280000D02*
X46228000Y-79502000D01*
X46228000Y-79502000D02*
X60159900Y-79502000D01*
X45190000Y-76730000D02*
X44450000Y-77470000D01*
X45593000Y-82423000D02*
X44450000Y-81280000D01*
X45190000Y-71120000D02*
X45190000Y-76730000D01*
X45720000Y-96520000D02*
X47210000Y-96520000D01*
X45593000Y-83820000D02*
X45593000Y-82423000D01*
X44450000Y-77470000D02*
X44450000Y-81280000D01*
X46990000Y-77470000D02*
X46990000Y-76420000D01*
X45720000Y-93980000D02*
X44450000Y-92710000D01*
X45190000Y-99800000D02*
X45190000Y-101600000D01*
X60159900Y-93980000D02*
X45720000Y-93980000D01*
X46990000Y-76420000D02*
X47210000Y-76200000D01*
X44450000Y-88463000D02*
X45593000Y-87320000D01*
X44450000Y-99060000D02*
X45190000Y-99800000D01*
X44450000Y-92710000D02*
X44450000Y-88463000D01*
X44450000Y-92710000D02*
X44450000Y-99060000D01*
X104267000Y-80137000D02*
X104267000Y-83820000D01*
X103632000Y-79502000D02*
X104267000Y-80137000D01*
X90639900Y-79502000D02*
X103632000Y-79502000D01*
X102870000Y-93980000D02*
X104267000Y-92583000D01*
X104267000Y-92583000D02*
X104267000Y-87320000D01*
X90639900Y-93980000D02*
X102870000Y-93980000D01*
X75651360Y-82001360D02*
X79540100Y-82001360D01*
X74930000Y-81280000D02*
X75651360Y-82001360D01*
X76480000Y-85090000D02*
X78740000Y-85090000D01*
X71259700Y-77002640D02*
X74462640Y-77002640D01*
X74462640Y-77002640D02*
X74930000Y-77470000D01*
X79540100Y-84289900D02*
X79540100Y-82001360D01*
X74930000Y-77470000D02*
X74930000Y-81280000D01*
X78740000Y-85090000D02*
X79540100Y-84289900D01*
X73380000Y-87630000D02*
X72390000Y-87630000D01*
X72390000Y-87630000D02*
X71259700Y-88760300D01*
X74930000Y-95250000D02*
X76200000Y-96520000D01*
X71259700Y-91480640D02*
X73700640Y-91480640D01*
X73700640Y-91480640D02*
X74930000Y-92710000D01*
X74930000Y-92710000D02*
X74930000Y-95250000D01*
X71259700Y-88760300D02*
X71259700Y-91480640D01*
X76200000Y-96520000D02*
X76240640Y-96479360D01*
X76240640Y-96479360D02*
X79540100Y-96479360D01*
D21*
X71259700Y-83959700D02*
X71259700Y-82001360D01*
X73380000Y-85090000D02*
X72390000Y-85090000D01*
X71120000Y-81861660D02*
X71259700Y-82001360D01*
X78740000Y-73660000D02*
X79540100Y-74460100D01*
X79540100Y-77939900D02*
X78740000Y-78740000D01*
X79540100Y-77002640D02*
X79540100Y-77939900D01*
X72390000Y-85090000D02*
X71259700Y-83959700D01*
X102870000Y-71120000D02*
X102870000Y-76200000D01*
X71120000Y-81280000D02*
X71120000Y-81861660D01*
X77250000Y-73660000D02*
X78740000Y-73660000D01*
X79540100Y-74460100D02*
X79540100Y-77002640D01*
X72390000Y-80010000D02*
X71120000Y-81280000D01*
X76200000Y-72390000D02*
X75150000Y-73440000D01*
X79695000Y-71435000D02*
X78740000Y-72390000D01*
X78740000Y-72390000D02*
X76200000Y-72390000D01*
X79695000Y-69850000D02*
X79695000Y-71435000D01*
X87630000Y-69850000D02*
X87635000Y-69845000D01*
X75150000Y-73440000D02*
X75150000Y-73660000D01*
X79695000Y-69850000D02*
X87630000Y-69850000D01*
X71259700Y-95110300D02*
X72390000Y-93980000D01*
X79540100Y-91480640D02*
X79540100Y-93179900D01*
X76480000Y-87630000D02*
X78740000Y-87630000D01*
X100330000Y-97790000D02*
X102870000Y-97790000D01*
X71259700Y-97929700D02*
X71259700Y-96479360D01*
X72390000Y-99060000D02*
X71259700Y-97929700D01*
X78740000Y-87630000D02*
X79540100Y-88430100D01*
X71259700Y-96479360D02*
X71259700Y-95110300D01*
X73880000Y-99060000D02*
X72390000Y-99060000D01*
X79540100Y-93179900D02*
X78740000Y-93980000D01*
X79540100Y-88430100D02*
X79540100Y-91480640D01*
X72385000Y-102875000D02*
X77780000Y-102875000D01*
X75980000Y-101820000D02*
X74930000Y-102870000D01*
X75980000Y-99060000D02*
X75980000Y-101820000D01*
X69845000Y-102875000D02*
X72385000Y-102875000D01*
X77780000Y-102875000D02*
X77785000Y-102870000D01*
D20*
X48790000Y-71120000D02*
X53340000Y-71120000D01*
X87630000Y-67310000D02*
X87635000Y-67305000D01*
X49310000Y-76200000D02*
X49310000Y-71640000D01*
X79695000Y-67310000D02*
X87630000Y-67310000D01*
X49310000Y-71640000D02*
X48790000Y-71120000D01*
X72385000Y-105415000D02*
X77780000Y-105415000D01*
X77780000Y-105415000D02*
X77785000Y-105410000D01*
X49310000Y-96520000D02*
X49310000Y-101080000D01*
X48790000Y-101600000D02*
X57150000Y-101600000D01*
X60965000Y-105415000D02*
X69845000Y-105415000D01*
X57150000Y-101600000D02*
X60965000Y-105415000D01*
X49310000Y-101080000D02*
X48790000Y-101600000D01*
X69845000Y-105415000D02*
X72385000Y-105415000D01*
D21*
X61950000Y-67310000D02*
X61950000Y-70840000D01*
X61950000Y-70840000D02*
X62230000Y-71120000D01*
X97790000Y-105410000D02*
X106680000Y-105410000D01*
X95530000Y-105410000D02*
X97790000Y-105410000D01*
X70165000Y-69850000D02*
X66040000Y-69850000D01*
X87315000Y-102870000D02*
X97790000Y-102870000D01*
X66040000Y-69850000D02*
X64770000Y-71120000D01*
X97790000Y-102870000D02*
X106680000Y-102870000D01*
X65050000Y-67310000D02*
X70165000Y-67310000D01*
X92430000Y-105410000D02*
X87315000Y-105410000D01*
M02*
