<!DOCTYPE svg PUBLIC "-//W3C//DTD SVG 1.1//EN" "http://www.w3.org/Graphics/SVG/1.1/DTD/svg11.dtd">
<svg xmlns="http://www.w3.org/2000/svg" version="1.1" width="10.663501mm" height="29.543382mm" viewBox="38134 38375 4198 11631">
            <title>Picture generated by PcbDraw </title>
            <desc>Picture generated by PcbDraw</desc>
        <g transform="" id="boardContainer"><g clip-path="url(#cut-off)" mask="url(#hole-mask)"><defs><clipPath id="cut-off"><path d=" M 42322.0 47834.0 L 42322.0 38385.0 L 38385.0 38385.0 L 38385.0 47834.0 L 42322.0 47834.0 " style="fill-rule: evenodd;"/></clipPath></defs><g id="substrate-board" style="fill:#4ca06c; stroke:#4ca06c;"><path d=" M 42322.0 47834.0 L 42322.0 38385.0 L 38385.0 38385.0 L 38385.0 47834.0 L 42322.0 47834.0 " style="fill-rule: evenodd;"/><g style="fill:#000000; stroke: #000000;"><g style="fill-opacity:1; stroke-opacity:1; stroke-linecap:round; stroke-linejoin:round;" transform="translate(0 0) scale(1 1)">
</g>
<g style="fill-opacity:0.0; stroke-width:-0.000393701; stroke-opacity:1; stroke-linecap:round; stroke-linejoin:round;">
</g>
<g style="fill-opacity:0.0; stroke-width:19.685; stroke-opacity:1; stroke-linecap:round; stroke-linejoin:round;">
<path d="M38385 47834 L42322 47834 "/>
<path d="M38385 38385 L38385 47834 "/>
<path d="M42322 38385 L38385 38385 "/>
<path d="M42322 47834 L42322 38385 "/>
<g>
</g>
<g>
</g>
<g>
</g>
<g>
</g>
<g>
</g>
</g> 
</g></g><g id="substrate-clad" style="fill:#9c6b28; stroke:#9c6b28;"><g style="fill-opacity:1; stroke-opacity:1; stroke-linecap:round; stroke-linejoin:round;" transform="translate(0 0) scale(1 1)">
</g>
<g style="fill-opacity:0.0; stroke-width:-0.000393701; stroke-opacity:1; stroke-linecap:round; stroke-linejoin:round;">
<g>
</g>
<g style="fill-opacity:0.0; stroke-width:0; stroke-opacity:1; stroke-linecap:round; stroke-linejoin:round;">
</g>
<g style="fill-opacity:1.0; stroke-width:0; stroke-opacity:1; stroke-linecap:round; stroke-linejoin:round;">
<path style="fill-opacity:1.0; stroke-width:0; stroke-opacity:1; stroke-linecap:round; stroke-linejoin:round;fill-rule:evenodd;" d="M 39685,39527.6 39685,39921.3 39094.5,39921.3 39094.5,39527.6 Z"/> 
<path style="fill-opacity:1.0; stroke-width:0; stroke-opacity:1; stroke-linecap:round; stroke-linejoin:round;fill-rule:evenodd;" d="M 39685,40787.4 39685,41181.1 39094.5,41181.1 39094.5,40787.4 Z"/> 
<path style="fill-opacity:1.0; stroke-width:0; stroke-opacity:1; stroke-linecap:round; stroke-linejoin:round;fill-rule:evenodd;" d="M 41614.2,39527.6 41614.2,39921.3 41023.6,39921.3 41023.6,39527.6 Z"/> 
<path style="fill-opacity:1.0; stroke-width:0; stroke-opacity:1; stroke-linecap:round; stroke-linejoin:round;fill-rule:evenodd;" d="M 41614.2,40787.4 41614.2,41181.1 41023.6,41181.1 41023.6,40787.4 Z"/> 
</g>
<g>
</g>
<g style="fill-opacity:1.0; stroke-width:0; stroke-opacity:1; stroke-linecap:round; stroke-linejoin:round;">
<path style="fill-opacity:1.0; stroke-width:0; stroke-opacity:1; stroke-linecap:round; stroke-linejoin:round;fill-rule:evenodd;" d="M 39685,41496.1 39685,41889.8 39094.5,41889.8 39094.5,41496.1 Z"/> 
<path style="fill-opacity:1.0; stroke-width:0; stroke-opacity:1; stroke-linecap:round; stroke-linejoin:round;fill-rule:evenodd;" d="M 39685,42755.9 39685,43149.6 39094.5,43149.6 39094.5,42755.9 Z"/> 
<path style="fill-opacity:1.0; stroke-width:0; stroke-opacity:1; stroke-linecap:round; stroke-linejoin:round;fill-rule:evenodd;" d="M 41614.2,41496.1 41614.2,41889.8 41023.6,41889.8 41023.6,41496.1 Z"/> 
<path style="fill-opacity:1.0; stroke-width:0; stroke-opacity:1; stroke-linecap:round; stroke-linejoin:round;fill-rule:evenodd;" d="M 41614.2,42755.9 41614.2,43149.6 41023.6,43149.6 41023.6,42755.9 Z"/> 
</g>
<g>
</g>
<g style="fill-opacity:1.0; stroke-width:0; stroke-opacity:1; stroke-linecap:round; stroke-linejoin:round;">
<path style="fill-opacity:1.0; stroke-width:0; stroke-opacity:1; stroke-linecap:round; stroke-linejoin:round;fill-rule:evenodd;" d="M 39685,43464.6 39685,43858.3 39094.5,43858.3 39094.5,43464.6 Z"/> 
<path style="fill-opacity:1.0; stroke-width:0; stroke-opacity:1; stroke-linecap:round; stroke-linejoin:round;fill-rule:evenodd;" d="M 39685,44724.4 39685,45118.1 39094.5,45118.1 39094.5,44724.4 Z"/> 
<path style="fill-opacity:1.0; stroke-width:0; stroke-opacity:1; stroke-linecap:round; stroke-linejoin:round;fill-rule:evenodd;" d="M 41614.2,43464.6 41614.2,43858.3 41023.6,43858.3 41023.6,43464.6 Z"/> 
<path style="fill-opacity:1.0; stroke-width:0; stroke-opacity:1; stroke-linecap:round; stroke-linejoin:round;fill-rule:evenodd;" d="M 41614.2,44724.4 41614.2,45118.1 41023.6,45118.1 41023.6,44724.4 Z"/> 
</g>
<g>
</g>
<g style="fill-opacity:1.0; stroke-width:0; stroke-opacity:1; stroke-linecap:round; stroke-linejoin:round;">
<circle cx="39350" cy="46150" r="334.646"/> 
<circle cx="39350" cy="47150" r="334.646"/> 
<circle cx="40350" cy="46150" r="334.646"/> 
<circle cx="40350" cy="47150" r="334.646"/> 
<circle cx="41350" cy="46150" r="334.646"/> 
<path style="fill-opacity:1.0; stroke-width:0; stroke-opacity:1; stroke-linecap:round; stroke-linejoin:round;fill-rule:evenodd;" d="M 41684.6,47484.6 41015.4,47484.6 41015.4,46815.4 41684.6,46815.4 Z"/> 
</g>
<g>
</g>
<g>
</g>
<g>
</g>
</g> 
</g><g id="substrate-copper" style="fill:#417e5a; stroke:#417e5a;"><g style="fill-opacity:1; stroke-opacity:1; stroke-linecap:round; stroke-linejoin:round;" transform="translate(0 0) scale(1 1)">
</g>
<g style="fill-opacity:0.0; stroke-width:-0.000393701; stroke-opacity:1; stroke-linecap:round; stroke-linejoin:round;">
<g>
</g>
<g style="fill-opacity:0.0; stroke-width:0; stroke-opacity:1; stroke-linecap:round; stroke-linejoin:round;">
</g>
<g style="fill-opacity:1.0; stroke-width:0; stroke-opacity:1; stroke-linecap:round; stroke-linejoin:round;">
<path style="fill-opacity:1.0; stroke-width:0; stroke-opacity:1; stroke-linecap:round; stroke-linejoin:round;fill-rule:evenodd;" d="M 39685,39527.6 39685,39921.3 39094.5,39921.3 39094.5,39527.6 Z"/> 
<path style="fill-opacity:1.0; stroke-width:0; stroke-opacity:1; stroke-linecap:round; stroke-linejoin:round;fill-rule:evenodd;" d="M 39685,40787.4 39685,41181.1 39094.5,41181.1 39094.5,40787.4 Z"/> 
<path style="fill-opacity:1.0; stroke-width:0; stroke-opacity:1; stroke-linecap:round; stroke-linejoin:round;fill-rule:evenodd;" d="M 41614.2,39527.6 41614.2,39921.3 41023.6,39921.3 41023.6,39527.6 Z"/> 
<path style="fill-opacity:1.0; stroke-width:0; stroke-opacity:1; stroke-linecap:round; stroke-linejoin:round;fill-rule:evenodd;" d="M 41614.2,40787.4 41614.2,41181.1 41023.6,41181.1 41023.6,40787.4 Z"/> 
</g>
<g>
</g>
<g style="fill-opacity:1.0; stroke-width:0; stroke-opacity:1; stroke-linecap:round; stroke-linejoin:round;">
<path style="fill-opacity:1.0; stroke-width:0; stroke-opacity:1; stroke-linecap:round; stroke-linejoin:round;fill-rule:evenodd;" d="M 39685,41496.1 39685,41889.8 39094.5,41889.8 39094.5,41496.1 Z"/> 
<path style="fill-opacity:1.0; stroke-width:0; stroke-opacity:1; stroke-linecap:round; stroke-linejoin:round;fill-rule:evenodd;" d="M 39685,42755.9 39685,43149.6 39094.5,43149.6 39094.5,42755.9 Z"/> 
<path style="fill-opacity:1.0; stroke-width:0; stroke-opacity:1; stroke-linecap:round; stroke-linejoin:round;fill-rule:evenodd;" d="M 41614.2,41496.1 41614.2,41889.8 41023.6,41889.8 41023.6,41496.1 Z"/> 
<path style="fill-opacity:1.0; stroke-width:0; stroke-opacity:1; stroke-linecap:round; stroke-linejoin:round;fill-rule:evenodd;" d="M 41614.2,42755.9 41614.2,43149.6 41023.6,43149.6 41023.6,42755.9 Z"/> 
</g>
<g>
</g>
<g style="fill-opacity:1.0; stroke-width:0; stroke-opacity:1; stroke-linecap:round; stroke-linejoin:round;">
<path style="fill-opacity:1.0; stroke-width:0; stroke-opacity:1; stroke-linecap:round; stroke-linejoin:round;fill-rule:evenodd;" d="M 39685,43464.6 39685,43858.3 39094.5,43858.3 39094.5,43464.6 Z"/> 
<path style="fill-opacity:1.0; stroke-width:0; stroke-opacity:1; stroke-linecap:round; stroke-linejoin:round;fill-rule:evenodd;" d="M 39685,44724.4 39685,45118.1 39094.5,45118.1 39094.5,44724.4 Z"/> 
<path style="fill-opacity:1.0; stroke-width:0; stroke-opacity:1; stroke-linecap:round; stroke-linejoin:round;fill-rule:evenodd;" d="M 41614.2,43464.6 41614.2,43858.3 41023.6,43858.3 41023.6,43464.6 Z"/> 
<path style="fill-opacity:1.0; stroke-width:0; stroke-opacity:1; stroke-linecap:round; stroke-linejoin:round;fill-rule:evenodd;" d="M 41614.2,44724.4 41614.2,45118.1 41023.6,45118.1 41023.6,44724.4 Z"/> 
</g>
<g>
</g>
<g style="fill-opacity:1.0; stroke-width:0; stroke-opacity:1; stroke-linecap:round; stroke-linejoin:round;">
<circle cx="39350" cy="46150" r="334.646"/> 
<circle cx="39350" cy="47150" r="334.646"/> 
<circle cx="40350" cy="46150" r="334.646"/> 
<circle cx="40350" cy="47150" r="334.646"/> 
<circle cx="41350" cy="46150" r="334.646"/> 
<path style="fill-opacity:1.0; stroke-width:0; stroke-opacity:1; stroke-linecap:round; stroke-linejoin:round;fill-rule:evenodd;" d="M 41684.6,47484.6 41015.4,47484.6 41015.4,46815.4 41684.6,46815.4 Z"/> 
</g>
<g>
</g>
<g style="fill-opacity:1.0; stroke-width:0; stroke-opacity:1; stroke-linecap:round; stroke-linejoin:round;">
<circle cx="39950" cy="41700" r="157.48"/> 
</g>
<g style="fill-opacity:1.0; stroke-width:59.0551; stroke-opacity:1; stroke-linecap:round; stroke-linejoin:round;">
</g>
<g style="fill-opacity:1.0; stroke-width:0; stroke-opacity:1; stroke-linecap:round; stroke-linejoin:round;">
<circle cx="39900" cy="43650" r="157.48"/> 
</g>
<g style="fill-opacity:1.0; stroke-width:59.0551; stroke-opacity:1; stroke-linecap:round; stroke-linejoin:round;">
</g>
<g style="fill-opacity:1.0; stroke-width:0; stroke-opacity:1; stroke-linecap:round; stroke-linejoin:round;">
<circle cx="40157.5" cy="39960.6" r="157.48"/> 
</g>
<g style="fill-opacity:1.0; stroke-width:59.0551; stroke-opacity:1; stroke-linecap:round; stroke-linejoin:round;">
</g>
<g style="fill-opacity:1.0; stroke-width:0; stroke-opacity:1; stroke-linecap:round; stroke-linejoin:round;">
<circle cx="40748" cy="39763.8" r="157.48"/> 
</g>
<g style="fill-opacity:1.0; stroke-width:59.0551; stroke-opacity:1; stroke-linecap:round; stroke-linejoin:round;">
</g>
<g>
</g>
<g style="fill-opacity:1.0; stroke-width:59.0551; stroke-opacity:1; stroke-linecap:round; stroke-linejoin:round;">
</g>
<g style="fill-opacity:1.0; stroke-width:98.4252; stroke-opacity:1; stroke-linecap:round; stroke-linejoin:round;">
</g>
<g style="fill-opacity:0.0; stroke-width:98.4252; stroke-opacity:1; stroke-linecap:round; stroke-linejoin:round;">
<path d="M41318 43661 L41011 43661 "/>
<path d="M40302 42952 L39389 42952 "/>
<path d="M41011 43661 L40302 42952 "/>
<path d="M39389 44921 L39606 44921 "/>
<path d="M39812 46687 L39350 47150 "/>
<path d="M39812 45127 L39812 46687 "/>
<path d="M39606 44921 L39812 45127 "/>
<path d="M39942 41692 L39950 41700 "/>
<path d="M39389 41692 L39942 41692 "/>
<path d="M39888 43661 L39900 43650 "/>
<path d="M39389 43661 L39888 43661 "/>
<path d="M39389 39724 L39921 39724 "/>
<path d="M39921 39724 L40157 39960 "/>
<path d="M41318 41692 L41092 41692 "/>
<path d="M40384 40984 L39389 40984 "/>
<path d="M41092 41692 L40384 40984 "/>
<path d="M41279 39763 L41318 39724 "/>
<path d="M40748 39763 L41279 39763 "/>
</g>
<g>
</g>
<g style="fill-opacity:0.0; stroke-width:98.4252; stroke-opacity:1; stroke-linecap:round; stroke-linejoin:round;">
<g>
</g>
<g style="fill-opacity:1.0; stroke-width:100; stroke-opacity:1; stroke-linecap:round; stroke-linejoin:round;">
<path style="fill-opacity:1.0; stroke-width:100; stroke-opacity:1; stroke-linecap:round; stroke-linejoin:round;fill-rule:evenodd;" d="M 42063,47574.8 41918.5,47574.8 41931,47533.7 41935.9,47484.6 41934.6,47262.5 41872.1,47200 41400,47200 41400,47207.9 41300,47207.9 41300,47200 41292.1,47200 41292.1,47100 41300,47100 41300,46200 41400,46200 41400,47100 41872.1,47100 41934.6,47037.5 41935.9,46815.4 41931,46766.3 41916.7,46719.2 41893.5,46675.8 41862.3,46637.7 41824.2,46606.5 41780.8,46583.3 41750.9,46574.2 41820.5,46497 41879.2,46398.5 41917.5,46290.5 41870,46200 41400,46200 41300,46200 41292.1,46200 41292.1,46100 41300,46100 41300,45630.3 41400,45630.3 41400,46100 41870,46100 41917.5,46009.5 41879.2,45901.5 41820.5,45803 41743.8,45717.9 41651.9,45649.4 41548.5,45600.1 41490.5,45582.5 41400,45630.3 41300,45630.3 41209.5,45582.5 41151.5,45600.1 41048.1,45649.4 40956.2,45717.9 40879.5,45803 40852,45849 40804.1,45777.3 40722.7,45695.9 40626.9,45631.9 40520.5,45587.8 40407.6,45565.4 40292.4,45565.4 40179.5,45587.8 40111.8,45615.8 40111.8,45142.3 40113.3,45127.6 40112.3,45118.1 40772.4,45118.1 40777.2,45167.1 40791.5,45214.2 40814.7,45257.7 40846,45295.7 40884.1,45327 40927.5,45350.2 40974.6,45364.5 41023.6,45369.3 41206.4,45368.1 41268.9,45305.6 41268.9,44971.3 41368.9,44971.3 41368.9,45305.6 41431.4,45368.1 41614.2,45369.3 41663.2,45364.5 41710.3,45350.2 41753.7,45327 41791.8,45295.7 41823,45257.7 41846.3,45214.2 41860.6,45167.1 41865.4,45118.1 41864.2,45033.8 41801.7,44971.3 41368.9,44971.3 41268.9,44971.3 40836.1,44971.3 40773.6,45033.8 40772.4,45118.1 40112.3,45118.1 40111.8,45112.9 40111.8,45112.9 40107.5,45068.9 40090.4,45012.5 40062.6,44960.5 40025.2,44915 40013.8,44905.6 39936.2,44828.1 39936.2,44724.4 40772.4,44724.4 40773.6,44808.8 40836.1,44871.3 41268.9,44871.3 41268.9,44536.9 41368.9,44536.9 41368.9,44871.3 41801.7,44871.3 41864.2,44808.8 41865.4,44724.4 41860.6,44675.4 41846.3,44628.3 41823,44584.8 41791.8,44546.8 41753.7,44515.5 41710.3,44492.3 41663.2,44478 41614.2,44473.2 41431.4,44474.4 41368.9,44536.9 41268.9,44536.9 41206.4,44474.4 41023.6,44473.2 40974.6,44478 40927.5,44492.3 40884.1,44515.5 40846,44546.8 40814.7,44584.8 40791.5,44628.3 40777.2,44675.4 40772.4,44724.4 39936.2,44724.4 39931.4,44675.4 39917.1,44628.3 39893.9,44584.8 39862.7,44546.8 39824.6,44515.5 39781.2,44492.3 39734,44478 39685,44473.2 39094.5,44473.2 39045.5,44478 38998.4,44492.3 38954.9,44515.5 38916.9,44546.8 38885.6,44584.8 38862.4,44628.3 38848.1,44675.4 38843.3,44724.4 38843.3,45118.1 38848.1,45167.1 38862.4,45214.2 38885.6,45257.7 38916.9,45295.7 38954.9,45327 38998.4,45350.2 39045.5,45364.5 39094.5,45369.3 39513.4,45369.3 39513.4,45586.4 39407.6,45565.4 39292.4,45565.4 39179.5,45587.8 39073.1,45631.9 38977.3,45695.9 38895.9,45777.3 38831.9,45873.1 38787.8,45979.5 38765.4,46092.4 38765.4,46207.6 38787.8,46320.5 38831.9,46426.9 38895.9,46522.7 38977.3,46604.1 39046,46650 38977.3,46695.9 38895.9,46777.3 38831.9,46873.1 38787.8,46979.5 38765.4,47092.4 38765.4,47207.6 38787.8,47320.5 38831.9,47426.9 38895.9,47522.7 38948,47574.8 38645.7,47574.8 38645.7,42755.9 38843.3,42755.9 38843.3,43149.6 38848.1,43198.6 38862.4,43245.7 38885.6,43289.2 38900.3,43307.1 38885.6,43325 38862.4,43368.4 38848.1,43415.6 38843.3,43464.6 38843.3,43858.3 38848.1,43907.3 38862.4,43954.4 38885.6,43997.8 38916.9,44035.9 38954.9,44067.1 38998.4,44090.4 39045.5,44104.7 39094.5,44109.5 39685,44109.5 39734,44104.7 39781.2,44090.4 39824.6,44067.1 39841,44053.7 39859.9,44057.5 39940.1,44057.5 40018.9,44041.8 40093,44011.1 40159.8,43966.5 40216.5,43909.8 40261.1,43843 40291.8,43768.9 40307.5,43690.1 40307.5,43609.9 40291.8,43531.1 40261.1,43457 40216.5,43390.2 40159.8,43333.5 40093,43288.9 40018.9,43258.2 39987.6,43252 40178.8,43252 40772.4,43845.6 40772.4,43858.3 40777.2,43907.3 40791.5,43954.4 40814.7,43997.8 40846,44035.9 40884.1,44067.1 40927.5,44090.4 40974.6,44104.7 41023.6,44109.5 41614.2,44109.5 41663.2,44104.7 41710.3,44090.4 41753.7,44067.1 41791.8,44035.9 41823,43997.8 41846.3,43954.4 41860.6,43907.3 41865.4,43858.3 41865.4,43464.6 41860.6,43415.6 41846.3,43368.4 41823,43325 41808.3,43307.1 41823,43289.2 41846.3,43245.7 41860.6,43198.6 41865.4,43149.6 41864.2,43065.3 41801.7,43002.8 41368.9,43002.8 41368.9,43010.6 41268.9,43010.6 41268.9,43002.8 40836.1,43002.8 40806,43032.9 40529.1,42755.9 40772.4,42755.9 40773.6,42840.3 40836.1,42902.8 41268.9,42902.8 41268.9,42568.4 41368.9,42568.4 41368.9,42902.8 41801.7,42902.8 41864.2,42840.3 41865.4,42755.9 41860.6,42706.9 41846.3,42659.8 41823,42616.3 41791.8,42578.3 41753.7,42547 41710.3,42523.8 41663.2,42509.5 41614.2,42504.7 41431.4,42505.9 41368.9,42568.4 41268.9,42568.4 41206.4,42505.9 41023.6,42504.7 40974.6,42509.5 40927.5,42523.8 40884.1,42547 40846,42578.3 40814.7,42616.3 40791.5,42659.8 40777.2,42706.9 40772.4,42755.9 40529.1,42755.9 40524.7,42751.6 40515.4,42740.2 40469.8,42702.8 40417.8,42675 40361.4,42657.9 40317.5,42653.5 40317.4,42653.5 40302.8,42652.1 40288.1,42653.5 39913.8,42653.5 39893.9,42616.3 39862.7,42578.3 39824.6,42547 39781.2,42523.8 39734,42509.5 39685,42504.7 39094.5,42504.7 39045.5,42509.5 38998.4,42523.8 38954.9,42547 38916.9,42578.3 38885.6,42616.3 38862.4,42659.8 38848.1,42706.9 38843.3,42755.9 38645.7,42755.9 38645.7,40787.4 38843.3,40787.4 38843.3,41181.1 38848.1,41230.1 38862.4,41277.2 38885.6,41320.7 38900.3,41338.6 38885.6,41356.5 38862.4,41399.9 38848.1,41447.1 38843.3,41496.1 38843.3,41889.8 38848.1,41938.8 38862.4,41985.9 38885.6,42029.3 38916.9,42067.4 38954.9,42098.6 38998.4,42121.9 39045.5,42136.1 39094.5,42141 39685,42141 39734,42136.1 39781.2,42121.9 39824.6,42098.6 39832.6,42092.1 39909.9,42107.5 39990.1,42107.5 40068.9,42091.8 40143,42061.1 40209.8,42016.5 40266.5,41959.8 40311.1,41893 40341.8,41818.9 40357.5,41740.1 40357.5,41659.9 40341.8,41581.1 40311.1,41507 40266.5,41440.2 40209.8,41383.5 40143,41338.9 40068.9,41308.2 39990.1,41292.5 39909.9,41292.5 39908.8,41292.7 39913.8,41283.5 40260.3,41283.5 40772.4,41795.6 40772.4,41889.8 40777.2,41938.8 40791.5,41985.9 40814.7,42029.3 40846,42067.4 40884.1,42098.6 40927.5,42121.9 40974.6,42136.1 41023.6,42141 41614.2,42141 41663.2,42136.1 41710.3,42121.9 41753.7,42098.6 41791.8,42067.4 41823,42029.3 41846.3,41985.9 41860.6,41938.8 41865.4,41889.8 41865.4,41496.1 41860.6,41447.1 41846.3,41399.9 41823,41356.5 41808.3,41338.6 41823,41320.7 41846.3,41277.2 41860.6,41230.1 41865.4,41181.1 41864.2,41096.8 41801.7,41034.3 41368.9,41034.3 41368.9,41042.1 41268.9,41042.1 41268.9,41034.3 41261,41034.3 41261,40934.3 41268.9,40934.3 41268.9,40599.9 41368.9,40599.9 41368.9,40934.3 41801.7,40934.3 41864.2,40871.8 41865.4,40787.4 41860.6,40738.4 41846.3,40691.3 41823,40647.8 41791.8,40609.8 41753.7,40578.5 41710.3,40555.3 41663.2,40541 41614.2,40536.2 41431.4,40537.4 41368.9,40599.9 41268.9,40599.9 41206.4,40537.4 41023.6,40536.2 40974.6,40541 40927.5,40555.3 40884.1,40578.5 40846,40609.8 40814.7,40647.8 40791.5,40691.3 40777.2,40738.4 40772.4,40787.4 40773.6,40871.8 40836.1,40934.3 40773.6,40934.3 40773.6,40950.5 40606.2,40783.1 40596.9,40771.7 40551.3,40734.3 40499.3,40706.5 40442.9,40689.4 40398.9,40685 40398.9,40685 40384.3,40683.6 40369.6,40685 39913.8,40685 39893.9,40647.8 39862.7,40609.8 39824.6,40578.5 39781.2,40555.3 39734,40541 39685,40536.2 39094.5,40536.2 39045.5,40541 38998.4,40555.3 38954.9,40578.5 38916.9,40609.8 38885.6,40647.8 38862.4,40691.3 38848.1,40738.4 38843.3,40787.4 38645.7,40787.4 38645.7,39527.6 38843.3,39527.6 38843.3,39921.3 38848.1,39970.3 38862.4,40017.4 38885.6,40060.8 38916.9,40098.9 38954.9,40130.1 38998.4,40153.3 39045.5,40167.6 39094.5,40172.5 39685,40172.5 39734,40167.6 39781.2,40153.3 39793.5,40146.7 39796.4,40153.7 39841,40220.4 39897.7,40277.1 39964.5,40321.7 40038.6,40352.5 40117.3,40368.1 40197.6,40368.1 40276.3,40352.5 40350.5,40321.7 40417.2,40277.1 40474,40220.4 40518.6,40153.7 40535.8,40112.1 40555,40124.9 40629.2,40155.6 40707.9,40171.3 40788.2,40171.3 40866.9,40155.6 40903.4,40140.5 40927.5,40153.3 40974.6,40167.6 41023.6,40172.5 41614.2,40172.5 41663.2,40167.6 41710.3,40153.3 41753.7,40130.1 41791.8,40098.9 41823,40060.8 41846.3,40017.4 41860.6,39970.3 41865.4,39921.3 41865.4,39527.6 41860.6,39478.6 41846.3,39431.4 41823,39388 41791.8,39349.9 41753.7,39318.7 41710.3,39295.5 41663.2,39281.2 41614.2,39276.3 41023.6,39276.3 40974.6,39281.2 40927.5,39295.5 40884.1,39318.7 40846,39349.9 40833.4,39365.3 40788.2,39356.3 40707.9,39356.3 40629.2,39372 40555,39402.7 40488.3,39447.3 40431.5,39504 40386.9,39570.8 40369.7,39612.4 40350.5,39599.5 40276.3,39568.8 40197.6,39553.2 40173.2,39553.2 40143.2,39523.2 40133.9,39511.8 40088.3,39474.4 40036.3,39446.6 39979.9,39429.5 39936,39425.2 39935.9,39425.2 39921.3,39423.7 39913.4,39424.5 39893.9,39388 39862.7,39349.9 39824.6,39318.7 39781.2,39295.5 39734,39281.2 39685,39276.3 39094.5,39276.3 39045.5,39281.2 38998.4,39295.5 38954.9,39318.7 38916.9,39349.9 38885.6,39388 38862.4,39431.4 38848.1,39478.6 38843.3,39527.6 38645.7,39527.6 38645.7,38645.7 42063,38645.7 Z"/> 
</g>
</g>
</g>
<g style="fill-opacity:1.0; stroke-width:100; stroke-opacity:1; stroke-linecap:round; stroke-linejoin:round;">
</g>
<g style="fill-opacity:1.0; stroke-width:0; stroke-opacity:1; stroke-linecap:round; stroke-linejoin:round;">
<circle cx="39950" cy="41700" r="68.8976"/> 
</g>
<g style="fill-opacity:1.0; stroke-width:59.0551; stroke-opacity:1; stroke-linecap:round; stroke-linejoin:round;">
</g>
<g style="fill-opacity:1.0; stroke-width:0; stroke-opacity:1; stroke-linecap:round; stroke-linejoin:round;">
<circle cx="39900" cy="43650" r="68.8976"/> 
</g>
<g style="fill-opacity:1.0; stroke-width:59.0551; stroke-opacity:1; stroke-linecap:round; stroke-linejoin:round;">
</g>
<g style="fill-opacity:1.0; stroke-width:0; stroke-opacity:1; stroke-linecap:round; stroke-linejoin:round;">
<circle cx="40157.5" cy="39960.6" r="68.8976"/> 
</g>
<g style="fill-opacity:1.0; stroke-width:59.0551; stroke-opacity:1; stroke-linecap:round; stroke-linejoin:round;">
</g>
<g style="fill-opacity:1.0; stroke-width:0; stroke-opacity:1; stroke-linecap:round; stroke-linejoin:round;">
<circle cx="40748" cy="39763.8" r="68.8976"/> 
</g>
<g style="fill-opacity:1.0; stroke-width:59.0551; stroke-opacity:1; stroke-linecap:round; stroke-linejoin:round;">
</g>
<g style="fill-opacity:1.0; stroke-width:0; stroke-opacity:1; stroke-linecap:round; stroke-linejoin:round;">
<circle cx="39350" cy="46150" r="68.8976"/> 
</g>
<g style="fill-opacity:1.0; stroke-width:59.0551; stroke-opacity:1; stroke-linecap:round; stroke-linejoin:round;">
</g>
<g style="fill-opacity:1.0; stroke-width:0; stroke-opacity:1; stroke-linecap:round; stroke-linejoin:round;">
<circle cx="39350" cy="47150" r="68.8976"/> 
</g>
<g style="fill-opacity:1.0; stroke-width:59.0551; stroke-opacity:1; stroke-linecap:round; stroke-linejoin:round;">
</g>
<g style="fill-opacity:1.0; stroke-width:0; stroke-opacity:1; stroke-linecap:round; stroke-linejoin:round;">
<circle cx="40350" cy="46150" r="68.8976"/> 
</g>
<g style="fill-opacity:1.0; stroke-width:59.0551; stroke-opacity:1; stroke-linecap:round; stroke-linejoin:round;">
</g>
<g style="fill-opacity:1.0; stroke-width:0; stroke-opacity:1; stroke-linecap:round; stroke-linejoin:round;">
<circle cx="40350" cy="47150" r="68.8976"/> 
</g>
<g style="fill-opacity:1.0; stroke-width:59.0551; stroke-opacity:1; stroke-linecap:round; stroke-linejoin:round;">
</g>
<g style="fill-opacity:1.0; stroke-width:0; stroke-opacity:1; stroke-linecap:round; stroke-linejoin:round;">
<circle cx="41350" cy="46150" r="68.8976"/> 
</g>
<g style="fill-opacity:1.0; stroke-width:59.0551; stroke-opacity:1; stroke-linecap:round; stroke-linejoin:round;">
</g>
<g style="fill-opacity:1.0; stroke-width:0; stroke-opacity:1; stroke-linecap:round; stroke-linejoin:round;">
<circle cx="41350" cy="47150" r="68.8976"/> 
</g>
<g style="fill-opacity:1.0; stroke-width:59.0551; stroke-opacity:1; stroke-linecap:round; stroke-linejoin:round;">
</g>
<g style="fill-opacity:1.0; stroke-width:59.0551; stroke-opacity:1; stroke-linecap:round; stroke-linejoin:round;">
</g> 
</g><g id="substrate-pads" style="fill:#b5ae30; stroke:#b5ae30;" mask="url(#pads-mask)"><g style="fill-opacity:1; stroke-opacity:1; stroke-linecap:round; stroke-linejoin:round;" transform="translate(0 0) scale(1 1)">
</g>
<g style="fill-opacity:0.0; stroke-width:-0.000393701; stroke-opacity:1; stroke-linecap:round; stroke-linejoin:round;">
<g>
</g>
<g style="fill-opacity:0.0; stroke-width:0; stroke-opacity:1; stroke-linecap:round; stroke-linejoin:round;">
</g>
<g style="fill-opacity:1.0; stroke-width:0; stroke-opacity:1; stroke-linecap:round; stroke-linejoin:round;">
<path style="fill-opacity:1.0; stroke-width:0; stroke-opacity:1; stroke-linecap:round; stroke-linejoin:round;fill-rule:evenodd;" d="M 39685,39527.6 39685,39921.3 39094.5,39921.3 39094.5,39527.6 Z"/> 
<path style="fill-opacity:1.0; stroke-width:0; stroke-opacity:1; stroke-linecap:round; stroke-linejoin:round;fill-rule:evenodd;" d="M 39685,40787.4 39685,41181.1 39094.5,41181.1 39094.5,40787.4 Z"/> 
<path style="fill-opacity:1.0; stroke-width:0; stroke-opacity:1; stroke-linecap:round; stroke-linejoin:round;fill-rule:evenodd;" d="M 41614.2,39527.6 41614.2,39921.3 41023.6,39921.3 41023.6,39527.6 Z"/> 
<path style="fill-opacity:1.0; stroke-width:0; stroke-opacity:1; stroke-linecap:round; stroke-linejoin:round;fill-rule:evenodd;" d="M 41614.2,40787.4 41614.2,41181.1 41023.6,41181.1 41023.6,40787.4 Z"/> 
</g>
<g>
</g>
<g style="fill-opacity:1.0; stroke-width:0; stroke-opacity:1; stroke-linecap:round; stroke-linejoin:round;">
<path style="fill-opacity:1.0; stroke-width:0; stroke-opacity:1; stroke-linecap:round; stroke-linejoin:round;fill-rule:evenodd;" d="M 39685,41496.1 39685,41889.8 39094.5,41889.8 39094.5,41496.1 Z"/> 
<path style="fill-opacity:1.0; stroke-width:0; stroke-opacity:1; stroke-linecap:round; stroke-linejoin:round;fill-rule:evenodd;" d="M 39685,42755.9 39685,43149.6 39094.5,43149.6 39094.5,42755.9 Z"/> 
<path style="fill-opacity:1.0; stroke-width:0; stroke-opacity:1; stroke-linecap:round; stroke-linejoin:round;fill-rule:evenodd;" d="M 41614.2,41496.1 41614.2,41889.8 41023.6,41889.8 41023.6,41496.1 Z"/> 
<path style="fill-opacity:1.0; stroke-width:0; stroke-opacity:1; stroke-linecap:round; stroke-linejoin:round;fill-rule:evenodd;" d="M 41614.2,42755.9 41614.2,43149.6 41023.6,43149.6 41023.6,42755.9 Z"/> 
</g>
<g>
</g>
<g style="fill-opacity:1.0; stroke-width:0; stroke-opacity:1; stroke-linecap:round; stroke-linejoin:round;">
<path style="fill-opacity:1.0; stroke-width:0; stroke-opacity:1; stroke-linecap:round; stroke-linejoin:round;fill-rule:evenodd;" d="M 39685,43464.6 39685,43858.3 39094.5,43858.3 39094.5,43464.6 Z"/> 
<path style="fill-opacity:1.0; stroke-width:0; stroke-opacity:1; stroke-linecap:round; stroke-linejoin:round;fill-rule:evenodd;" d="M 39685,44724.4 39685,45118.1 39094.5,45118.1 39094.5,44724.4 Z"/> 
<path style="fill-opacity:1.0; stroke-width:0; stroke-opacity:1; stroke-linecap:round; stroke-linejoin:round;fill-rule:evenodd;" d="M 41614.2,43464.6 41614.2,43858.3 41023.6,43858.3 41023.6,43464.6 Z"/> 
<path style="fill-opacity:1.0; stroke-width:0; stroke-opacity:1; stroke-linecap:round; stroke-linejoin:round;fill-rule:evenodd;" d="M 41614.2,44724.4 41614.2,45118.1 41023.6,45118.1 41023.6,44724.4 Z"/> 
</g>
<g>
</g>
<g style="fill-opacity:1.0; stroke-width:0; stroke-opacity:1; stroke-linecap:round; stroke-linejoin:round;">
<circle cx="39350" cy="46150" r="334.646"/> 
<circle cx="39350" cy="47150" r="334.646"/> 
<circle cx="40350" cy="46150" r="334.646"/> 
<circle cx="40350" cy="47150" r="334.646"/> 
<circle cx="41350" cy="46150" r="334.646"/> 
<path style="fill-opacity:1.0; stroke-width:0; stroke-opacity:1; stroke-linecap:round; stroke-linejoin:round;fill-rule:evenodd;" d="M 41684.6,47484.6 41015.4,47484.6 41015.4,46815.4 41684.6,46815.4 Z"/> 
</g>
<g>
</g>
<g style="fill-opacity:1.0; stroke-width:0; stroke-opacity:1; stroke-linecap:round; stroke-linejoin:round;">
<circle cx="39950" cy="41700" r="157.48"/> 
</g>
<g style="fill-opacity:1.0; stroke-width:59.0551; stroke-opacity:1; stroke-linecap:round; stroke-linejoin:round;">
</g>
<g style="fill-opacity:1.0; stroke-width:0; stroke-opacity:1; stroke-linecap:round; stroke-linejoin:round;">
<circle cx="39900" cy="43650" r="157.48"/> 
</g>
<g style="fill-opacity:1.0; stroke-width:59.0551; stroke-opacity:1; stroke-linecap:round; stroke-linejoin:round;">
</g>
<g style="fill-opacity:1.0; stroke-width:0; stroke-opacity:1; stroke-linecap:round; stroke-linejoin:round;">
<circle cx="40157.5" cy="39960.6" r="157.48"/> 
</g>
<g style="fill-opacity:1.0; stroke-width:59.0551; stroke-opacity:1; stroke-linecap:round; stroke-linejoin:round;">
</g>
<g style="fill-opacity:1.0; stroke-width:0; stroke-opacity:1; stroke-linecap:round; stroke-linejoin:round;">
<circle cx="40748" cy="39763.8" r="157.48"/> 
</g>
<g style="fill-opacity:1.0; stroke-width:59.0551; stroke-opacity:1; stroke-linecap:round; stroke-linejoin:round;">
</g>
<g>
</g>
<g style="fill-opacity:1.0; stroke-width:59.0551; stroke-opacity:1; stroke-linecap:round; stroke-linejoin:round;">
</g>
<g style="fill-opacity:1.0; stroke-width:98.4252; stroke-opacity:1; stroke-linecap:round; stroke-linejoin:round;">
</g>
<g style="fill-opacity:0.0; stroke-width:98.4252; stroke-opacity:1; stroke-linecap:round; stroke-linejoin:round;">
<path d="M41318 43661 L41011 43661 "/>
<path d="M40302 42952 L39389 42952 "/>
<path d="M41011 43661 L40302 42952 "/>
<path d="M39389 44921 L39606 44921 "/>
<path d="M39812 46687 L39350 47150 "/>
<path d="M39812 45127 L39812 46687 "/>
<path d="M39606 44921 L39812 45127 "/>
<path d="M39942 41692 L39950 41700 "/>
<path d="M39389 41692 L39942 41692 "/>
<path d="M39888 43661 L39900 43650 "/>
<path d="M39389 43661 L39888 43661 "/>
<path d="M39389 39724 L39921 39724 "/>
<path d="M39921 39724 L40157 39960 "/>
<path d="M41318 41692 L41092 41692 "/>
<path d="M40384 40984 L39389 40984 "/>
<path d="M41092 41692 L40384 40984 "/>
<path d="M41279 39763 L41318 39724 "/>
<path d="M40748 39763 L41279 39763 "/>
</g>
<g>
</g>
<g style="fill-opacity:0.0; stroke-width:98.4252; stroke-opacity:1; stroke-linecap:round; stroke-linejoin:round;">
<g>
</g>
<g style="fill-opacity:1.0; stroke-width:100; stroke-opacity:1; stroke-linecap:round; stroke-linejoin:round;">
<path style="fill-opacity:1.0; stroke-width:100; stroke-opacity:1; stroke-linecap:round; stroke-linejoin:round;fill-rule:evenodd;" d="M 42063,47574.8 41918.5,47574.8 41931,47533.7 41935.9,47484.6 41934.6,47262.5 41872.1,47200 41400,47200 41400,47207.9 41300,47207.9 41300,47200 41292.1,47200 41292.1,47100 41300,47100 41300,46200 41400,46200 41400,47100 41872.1,47100 41934.6,47037.5 41935.9,46815.4 41931,46766.3 41916.7,46719.2 41893.5,46675.8 41862.3,46637.7 41824.2,46606.5 41780.8,46583.3 41750.9,46574.2 41820.5,46497 41879.2,46398.5 41917.5,46290.5 41870,46200 41400,46200 41300,46200 41292.1,46200 41292.1,46100 41300,46100 41300,45630.3 41400,45630.3 41400,46100 41870,46100 41917.5,46009.5 41879.2,45901.5 41820.5,45803 41743.8,45717.9 41651.9,45649.4 41548.5,45600.1 41490.5,45582.5 41400,45630.3 41300,45630.3 41209.5,45582.5 41151.5,45600.1 41048.1,45649.4 40956.2,45717.9 40879.5,45803 40852,45849 40804.1,45777.3 40722.7,45695.9 40626.9,45631.9 40520.5,45587.8 40407.6,45565.4 40292.4,45565.4 40179.5,45587.8 40111.8,45615.8 40111.8,45142.3 40113.3,45127.6 40112.3,45118.1 40772.4,45118.1 40777.2,45167.1 40791.5,45214.2 40814.7,45257.7 40846,45295.7 40884.1,45327 40927.5,45350.2 40974.6,45364.5 41023.6,45369.3 41206.4,45368.1 41268.9,45305.6 41268.9,44971.3 41368.9,44971.3 41368.9,45305.6 41431.4,45368.1 41614.2,45369.3 41663.2,45364.5 41710.3,45350.2 41753.7,45327 41791.8,45295.7 41823,45257.7 41846.3,45214.2 41860.6,45167.1 41865.4,45118.1 41864.2,45033.8 41801.7,44971.3 41368.9,44971.3 41268.9,44971.3 40836.1,44971.3 40773.6,45033.8 40772.4,45118.1 40112.3,45118.1 40111.8,45112.9 40111.8,45112.9 40107.5,45068.9 40090.4,45012.5 40062.6,44960.5 40025.2,44915 40013.8,44905.6 39936.2,44828.1 39936.2,44724.4 40772.4,44724.4 40773.6,44808.8 40836.1,44871.3 41268.9,44871.3 41268.9,44536.9 41368.9,44536.9 41368.9,44871.3 41801.7,44871.3 41864.2,44808.8 41865.4,44724.4 41860.6,44675.4 41846.3,44628.3 41823,44584.8 41791.8,44546.8 41753.7,44515.5 41710.3,44492.3 41663.2,44478 41614.2,44473.2 41431.4,44474.4 41368.9,44536.9 41268.9,44536.9 41206.4,44474.4 41023.6,44473.2 40974.6,44478 40927.5,44492.3 40884.1,44515.5 40846,44546.8 40814.7,44584.8 40791.5,44628.3 40777.2,44675.4 40772.4,44724.4 39936.2,44724.4 39931.4,44675.4 39917.1,44628.3 39893.9,44584.8 39862.7,44546.8 39824.6,44515.5 39781.2,44492.3 39734,44478 39685,44473.2 39094.5,44473.2 39045.5,44478 38998.4,44492.3 38954.9,44515.5 38916.9,44546.8 38885.6,44584.8 38862.4,44628.3 38848.1,44675.4 38843.3,44724.4 38843.3,45118.1 38848.1,45167.1 38862.4,45214.2 38885.6,45257.7 38916.9,45295.7 38954.9,45327 38998.4,45350.2 39045.5,45364.5 39094.5,45369.3 39513.4,45369.3 39513.4,45586.4 39407.6,45565.4 39292.4,45565.4 39179.5,45587.8 39073.1,45631.9 38977.3,45695.9 38895.9,45777.3 38831.9,45873.1 38787.8,45979.5 38765.4,46092.4 38765.4,46207.6 38787.8,46320.5 38831.9,46426.9 38895.9,46522.7 38977.3,46604.1 39046,46650 38977.3,46695.9 38895.9,46777.3 38831.9,46873.1 38787.8,46979.5 38765.4,47092.4 38765.4,47207.6 38787.8,47320.5 38831.9,47426.9 38895.9,47522.7 38948,47574.8 38645.7,47574.8 38645.7,42755.9 38843.3,42755.9 38843.3,43149.6 38848.1,43198.6 38862.4,43245.7 38885.6,43289.2 38900.3,43307.1 38885.6,43325 38862.4,43368.4 38848.1,43415.6 38843.3,43464.6 38843.3,43858.3 38848.1,43907.3 38862.4,43954.4 38885.6,43997.8 38916.9,44035.9 38954.9,44067.1 38998.4,44090.4 39045.5,44104.7 39094.5,44109.5 39685,44109.5 39734,44104.7 39781.2,44090.4 39824.6,44067.1 39841,44053.7 39859.9,44057.5 39940.1,44057.5 40018.9,44041.8 40093,44011.1 40159.8,43966.5 40216.5,43909.8 40261.1,43843 40291.8,43768.9 40307.5,43690.1 40307.5,43609.9 40291.8,43531.1 40261.1,43457 40216.5,43390.2 40159.8,43333.5 40093,43288.9 40018.9,43258.2 39987.6,43252 40178.8,43252 40772.4,43845.6 40772.4,43858.3 40777.2,43907.3 40791.5,43954.4 40814.7,43997.8 40846,44035.9 40884.1,44067.1 40927.5,44090.4 40974.6,44104.7 41023.6,44109.5 41614.2,44109.5 41663.2,44104.7 41710.3,44090.4 41753.7,44067.1 41791.8,44035.9 41823,43997.8 41846.3,43954.4 41860.6,43907.3 41865.4,43858.3 41865.4,43464.6 41860.6,43415.6 41846.3,43368.4 41823,43325 41808.3,43307.1 41823,43289.2 41846.3,43245.7 41860.6,43198.6 41865.4,43149.6 41864.2,43065.3 41801.7,43002.8 41368.9,43002.8 41368.9,43010.6 41268.9,43010.6 41268.9,43002.8 40836.1,43002.8 40806,43032.9 40529.1,42755.9 40772.4,42755.9 40773.6,42840.3 40836.1,42902.8 41268.9,42902.8 41268.9,42568.4 41368.9,42568.4 41368.9,42902.8 41801.7,42902.8 41864.2,42840.3 41865.4,42755.9 41860.6,42706.9 41846.3,42659.8 41823,42616.3 41791.8,42578.3 41753.7,42547 41710.3,42523.8 41663.2,42509.5 41614.2,42504.7 41431.4,42505.9 41368.9,42568.4 41268.9,42568.4 41206.4,42505.9 41023.6,42504.7 40974.6,42509.5 40927.5,42523.8 40884.1,42547 40846,42578.3 40814.7,42616.3 40791.5,42659.8 40777.2,42706.9 40772.4,42755.9 40529.1,42755.9 40524.7,42751.6 40515.4,42740.2 40469.8,42702.8 40417.8,42675 40361.4,42657.9 40317.5,42653.5 40317.4,42653.5 40302.8,42652.1 40288.1,42653.5 39913.8,42653.5 39893.9,42616.3 39862.7,42578.3 39824.6,42547 39781.2,42523.8 39734,42509.5 39685,42504.7 39094.5,42504.7 39045.5,42509.5 38998.4,42523.8 38954.9,42547 38916.9,42578.3 38885.6,42616.3 38862.4,42659.8 38848.1,42706.9 38843.3,42755.9 38645.7,42755.9 38645.7,40787.4 38843.3,40787.4 38843.3,41181.1 38848.1,41230.1 38862.4,41277.2 38885.6,41320.7 38900.3,41338.6 38885.6,41356.5 38862.4,41399.9 38848.1,41447.1 38843.3,41496.1 38843.3,41889.8 38848.1,41938.8 38862.4,41985.9 38885.6,42029.3 38916.9,42067.4 38954.9,42098.6 38998.4,42121.9 39045.5,42136.1 39094.5,42141 39685,42141 39734,42136.1 39781.2,42121.9 39824.6,42098.6 39832.6,42092.1 39909.9,42107.5 39990.1,42107.5 40068.9,42091.8 40143,42061.1 40209.8,42016.5 40266.5,41959.8 40311.1,41893 40341.8,41818.9 40357.5,41740.1 40357.5,41659.9 40341.8,41581.1 40311.1,41507 40266.5,41440.2 40209.8,41383.5 40143,41338.9 40068.9,41308.2 39990.1,41292.5 39909.9,41292.5 39908.8,41292.7 39913.8,41283.5 40260.3,41283.5 40772.4,41795.6 40772.4,41889.8 40777.2,41938.8 40791.5,41985.9 40814.7,42029.3 40846,42067.4 40884.1,42098.6 40927.5,42121.9 40974.6,42136.1 41023.6,42141 41614.2,42141 41663.2,42136.1 41710.3,42121.9 41753.7,42098.6 41791.8,42067.4 41823,42029.3 41846.3,41985.9 41860.6,41938.8 41865.4,41889.8 41865.4,41496.1 41860.6,41447.1 41846.3,41399.9 41823,41356.5 41808.3,41338.6 41823,41320.7 41846.3,41277.2 41860.6,41230.1 41865.4,41181.1 41864.2,41096.8 41801.7,41034.3 41368.9,41034.3 41368.9,41042.1 41268.9,41042.1 41268.9,41034.3 41261,41034.3 41261,40934.3 41268.9,40934.3 41268.9,40599.9 41368.9,40599.9 41368.9,40934.3 41801.7,40934.3 41864.2,40871.8 41865.4,40787.4 41860.6,40738.4 41846.3,40691.3 41823,40647.8 41791.8,40609.8 41753.7,40578.5 41710.3,40555.3 41663.2,40541 41614.2,40536.2 41431.4,40537.4 41368.9,40599.9 41268.9,40599.9 41206.4,40537.4 41023.6,40536.2 40974.6,40541 40927.5,40555.3 40884.1,40578.5 40846,40609.8 40814.7,40647.8 40791.5,40691.3 40777.2,40738.4 40772.4,40787.4 40773.6,40871.8 40836.1,40934.3 40773.6,40934.3 40773.6,40950.5 40606.2,40783.1 40596.9,40771.7 40551.3,40734.3 40499.3,40706.5 40442.9,40689.4 40398.9,40685 40398.9,40685 40384.3,40683.6 40369.6,40685 39913.8,40685 39893.9,40647.8 39862.7,40609.8 39824.6,40578.5 39781.2,40555.3 39734,40541 39685,40536.2 39094.5,40536.2 39045.5,40541 38998.4,40555.3 38954.9,40578.5 38916.9,40609.8 38885.6,40647.8 38862.4,40691.3 38848.1,40738.4 38843.3,40787.4 38645.7,40787.4 38645.7,39527.6 38843.3,39527.6 38843.3,39921.3 38848.1,39970.3 38862.4,40017.4 38885.6,40060.8 38916.9,40098.9 38954.9,40130.1 38998.4,40153.3 39045.5,40167.6 39094.5,40172.5 39685,40172.5 39734,40167.6 39781.2,40153.3 39793.5,40146.7 39796.4,40153.7 39841,40220.4 39897.7,40277.1 39964.5,40321.7 40038.6,40352.5 40117.3,40368.1 40197.6,40368.1 40276.3,40352.5 40350.5,40321.7 40417.2,40277.1 40474,40220.4 40518.6,40153.7 40535.8,40112.1 40555,40124.9 40629.2,40155.6 40707.9,40171.3 40788.2,40171.3 40866.9,40155.6 40903.4,40140.5 40927.5,40153.3 40974.6,40167.6 41023.6,40172.5 41614.2,40172.5 41663.2,40167.6 41710.3,40153.3 41753.7,40130.1 41791.8,40098.9 41823,40060.8 41846.3,40017.4 41860.6,39970.3 41865.4,39921.3 41865.4,39527.6 41860.6,39478.6 41846.3,39431.4 41823,39388 41791.8,39349.9 41753.7,39318.7 41710.3,39295.5 41663.2,39281.2 41614.2,39276.3 41023.6,39276.3 40974.6,39281.2 40927.5,39295.5 40884.1,39318.7 40846,39349.9 40833.4,39365.3 40788.2,39356.3 40707.9,39356.3 40629.2,39372 40555,39402.7 40488.3,39447.3 40431.5,39504 40386.9,39570.8 40369.7,39612.4 40350.5,39599.5 40276.3,39568.8 40197.6,39553.2 40173.2,39553.2 40143.2,39523.2 40133.9,39511.8 40088.3,39474.4 40036.3,39446.6 39979.9,39429.5 39936,39425.2 39935.9,39425.2 39921.3,39423.7 39913.4,39424.5 39893.9,39388 39862.7,39349.9 39824.6,39318.7 39781.2,39295.5 39734,39281.2 39685,39276.3 39094.5,39276.3 39045.5,39281.2 38998.4,39295.5 38954.9,39318.7 38916.9,39349.9 38885.6,39388 38862.4,39431.4 38848.1,39478.6 38843.3,39527.6 38645.7,39527.6 38645.7,38645.7 42063,38645.7 Z"/> 
</g>
</g>
</g>
<g style="fill-opacity:1.0; stroke-width:100; stroke-opacity:1; stroke-linecap:round; stroke-linejoin:round;">
</g>
<g style="fill-opacity:1.0; stroke-width:0; stroke-opacity:1; stroke-linecap:round; stroke-linejoin:round;">
<circle cx="39950" cy="41700" r="68.8976"/> 
</g>
<g style="fill-opacity:1.0; stroke-width:59.0551; stroke-opacity:1; stroke-linecap:round; stroke-linejoin:round;">
</g>
<g style="fill-opacity:1.0; stroke-width:0; stroke-opacity:1; stroke-linecap:round; stroke-linejoin:round;">
<circle cx="39900" cy="43650" r="68.8976"/> 
</g>
<g style="fill-opacity:1.0; stroke-width:59.0551; stroke-opacity:1; stroke-linecap:round; stroke-linejoin:round;">
</g>
<g style="fill-opacity:1.0; stroke-width:0; stroke-opacity:1; stroke-linecap:round; stroke-linejoin:round;">
<circle cx="40157.5" cy="39960.6" r="68.8976"/> 
</g>
<g style="fill-opacity:1.0; stroke-width:59.0551; stroke-opacity:1; stroke-linecap:round; stroke-linejoin:round;">
</g>
<g style="fill-opacity:1.0; stroke-width:0; stroke-opacity:1; stroke-linecap:round; stroke-linejoin:round;">
<circle cx="40748" cy="39763.8" r="68.8976"/> 
</g>
<g style="fill-opacity:1.0; stroke-width:59.0551; stroke-opacity:1; stroke-linecap:round; stroke-linejoin:round;">
</g>
<g style="fill-opacity:1.0; stroke-width:0; stroke-opacity:1; stroke-linecap:round; stroke-linejoin:round;">
<circle cx="39350" cy="46150" r="68.8976"/> 
</g>
<g style="fill-opacity:1.0; stroke-width:59.0551; stroke-opacity:1; stroke-linecap:round; stroke-linejoin:round;">
</g>
<g style="fill-opacity:1.0; stroke-width:0; stroke-opacity:1; stroke-linecap:round; stroke-linejoin:round;">
<circle cx="39350" cy="47150" r="68.8976"/> 
</g>
<g style="fill-opacity:1.0; stroke-width:59.0551; stroke-opacity:1; stroke-linecap:round; stroke-linejoin:round;">
</g>
<g style="fill-opacity:1.0; stroke-width:0; stroke-opacity:1; stroke-linecap:round; stroke-linejoin:round;">
<circle cx="40350" cy="46150" r="68.8976"/> 
</g>
<g style="fill-opacity:1.0; stroke-width:59.0551; stroke-opacity:1; stroke-linecap:round; stroke-linejoin:round;">
</g>
<g style="fill-opacity:1.0; stroke-width:0; stroke-opacity:1; stroke-linecap:round; stroke-linejoin:round;">
<circle cx="40350" cy="47150" r="68.8976"/> 
</g>
<g style="fill-opacity:1.0; stroke-width:59.0551; stroke-opacity:1; stroke-linecap:round; stroke-linejoin:round;">
</g>
<g style="fill-opacity:1.0; stroke-width:0; stroke-opacity:1; stroke-linecap:round; stroke-linejoin:round;">
<circle cx="41350" cy="46150" r="68.8976"/> 
</g>
<g style="fill-opacity:1.0; stroke-width:59.0551; stroke-opacity:1; stroke-linecap:round; stroke-linejoin:round;">
</g>
<g style="fill-opacity:1.0; stroke-width:0; stroke-opacity:1; stroke-linecap:round; stroke-linejoin:round;">
<circle cx="41350" cy="47150" r="68.8976"/> 
</g>
<g style="fill-opacity:1.0; stroke-width:59.0551; stroke-opacity:1; stroke-linecap:round; stroke-linejoin:round;">
</g>
<g style="fill-opacity:1.0; stroke-width:59.0551; stroke-opacity:1; stroke-linecap:round; stroke-linejoin:round;">
</g> 
</g><defs><mask id="pads-mask"><g style="fill:#ffffff; fill-opacity:1;stroke:#ffffff; stroke-opacity:1; stroke-linecap:round; stroke-linejoin:round;" transform="translate(0 0) scale(1 1)">
</g>
<g style="fill:#ffffff; fill-opacity:0.0;  stroke:#ffffff; stroke-width:-0.000393701; stroke-opacity:1;  stroke-linecap:round; stroke-linejoin:round;">
<g>
</g>
<g style="fill:#ffffff; fill-opacity:0.0;  stroke:#ffffff; stroke-width:0; stroke-opacity:1;  stroke-linecap:round; stroke-linejoin:round;">
</g>
<g style="fill:#ffffff; fill-opacity:1.0;  stroke:#ffffff; stroke-width:0; stroke-opacity:1;  stroke-linecap:round; stroke-linejoin:round;">
<path style="fill:#ffffff; fill-opacity:1.0;  stroke:#ffffff; stroke-width:0; stroke-opacity:1;  stroke-linecap:round; stroke-linejoin:round;fill-rule:evenodd;" d="M 39685,39527.6 39685,39921.3 39094.5,39921.3 39094.5,39527.6 Z"/> 
<path style="fill:#ffffff; fill-opacity:1.0;  stroke:#ffffff; stroke-width:0; stroke-opacity:1;  stroke-linecap:round; stroke-linejoin:round;fill-rule:evenodd;" d="M 39685,40787.4 39685,41181.1 39094.5,41181.1 39094.5,40787.4 Z"/> 
<path style="fill:#ffffff; fill-opacity:1.0;  stroke:#ffffff; stroke-width:0; stroke-opacity:1;  stroke-linecap:round; stroke-linejoin:round;fill-rule:evenodd;" d="M 41614.2,39527.6 41614.2,39921.3 41023.6,39921.3 41023.6,39527.6 Z"/> 
<path style="fill:#ffffff; fill-opacity:1.0;  stroke:#ffffff; stroke-width:0; stroke-opacity:1;  stroke-linecap:round; stroke-linejoin:round;fill-rule:evenodd;" d="M 41614.2,40787.4 41614.2,41181.1 41023.6,41181.1 41023.6,40787.4 Z"/> 
</g>
<g>
</g>
<g style="fill:#ffffff; fill-opacity:1.0;  stroke:#ffffff; stroke-width:0; stroke-opacity:1;  stroke-linecap:round; stroke-linejoin:round;">
<path style="fill:#ffffff; fill-opacity:1.0;  stroke:#ffffff; stroke-width:0; stroke-opacity:1;  stroke-linecap:round; stroke-linejoin:round;fill-rule:evenodd;" d="M 39685,41496.1 39685,41889.8 39094.5,41889.8 39094.5,41496.1 Z"/> 
<path style="fill:#ffffff; fill-opacity:1.0;  stroke:#ffffff; stroke-width:0; stroke-opacity:1;  stroke-linecap:round; stroke-linejoin:round;fill-rule:evenodd;" d="M 39685,42755.9 39685,43149.6 39094.5,43149.6 39094.5,42755.9 Z"/> 
<path style="fill:#ffffff; fill-opacity:1.0;  stroke:#ffffff; stroke-width:0; stroke-opacity:1;  stroke-linecap:round; stroke-linejoin:round;fill-rule:evenodd;" d="M 41614.2,41496.1 41614.2,41889.8 41023.6,41889.8 41023.6,41496.1 Z"/> 
<path style="fill:#ffffff; fill-opacity:1.0;  stroke:#ffffff; stroke-width:0; stroke-opacity:1;  stroke-linecap:round; stroke-linejoin:round;fill-rule:evenodd;" d="M 41614.2,42755.9 41614.2,43149.6 41023.6,43149.6 41023.6,42755.9 Z"/> 
</g>
<g>
</g>
<g style="fill:#ffffff; fill-opacity:1.0;  stroke:#ffffff; stroke-width:0; stroke-opacity:1;  stroke-linecap:round; stroke-linejoin:round;">
<path style="fill:#ffffff; fill-opacity:1.0;  stroke:#ffffff; stroke-width:0; stroke-opacity:1;  stroke-linecap:round; stroke-linejoin:round;fill-rule:evenodd;" d="M 39685,43464.6 39685,43858.3 39094.5,43858.3 39094.5,43464.6 Z"/> 
<path style="fill:#ffffff; fill-opacity:1.0;  stroke:#ffffff; stroke-width:0; stroke-opacity:1;  stroke-linecap:round; stroke-linejoin:round;fill-rule:evenodd;" d="M 39685,44724.4 39685,45118.1 39094.5,45118.1 39094.5,44724.4 Z"/> 
<path style="fill:#ffffff; fill-opacity:1.0;  stroke:#ffffff; stroke-width:0; stroke-opacity:1;  stroke-linecap:round; stroke-linejoin:round;fill-rule:evenodd;" d="M 41614.2,43464.6 41614.2,43858.3 41023.6,43858.3 41023.6,43464.6 Z"/> 
<path style="fill:#ffffff; fill-opacity:1.0;  stroke:#ffffff; stroke-width:0; stroke-opacity:1;  stroke-linecap:round; stroke-linejoin:round;fill-rule:evenodd;" d="M 41614.2,44724.4 41614.2,45118.1 41023.6,45118.1 41023.6,44724.4 Z"/> 
</g>
<g>
</g>
<g style="fill:#ffffff; fill-opacity:1.0;  stroke:#ffffff; stroke-width:0; stroke-opacity:1;  stroke-linecap:round; stroke-linejoin:round;">
<circle cx="39350" cy="46150" r="334.646"/> 
<circle cx="39350" cy="47150" r="334.646"/> 
<circle cx="40350" cy="46150" r="334.646"/> 
<circle cx="40350" cy="47150" r="334.646"/> 
<circle cx="41350" cy="46150" r="334.646"/> 
<path style="fill:#ffffff; fill-opacity:1.0;  stroke:#ffffff; stroke-width:0; stroke-opacity:1;  stroke-linecap:round; stroke-linejoin:round;fill-rule:evenodd;" d="M 41684.6,47484.6 41015.4,47484.6 41015.4,46815.4 41684.6,46815.4 Z"/> 
</g>
<g>
</g>
<g>
</g>
<g>
</g>
</g> 
</mask></defs><defs><mask id="pads-mask-silkscreen"><rect x="38134" y="38375" width="4198" height="11631" fill="white"/><g style="fill:#000000; fill-opacity:1;stroke:#000000; stroke-opacity:1; stroke-linecap:round; stroke-linejoin:round;" transform="translate(0 0) scale(1 1)">
</g>
<g style="fill:#000000; fill-opacity:0.0;  stroke:#000000; stroke-width:-0.000393701; stroke-opacity:1;  stroke-linecap:round; stroke-linejoin:round;">
<g>
</g>
<g style="fill:#000000; fill-opacity:0.0;  stroke:#000000; stroke-width:0; stroke-opacity:1;  stroke-linecap:round; stroke-linejoin:round;">
</g>
<g style="fill:#000000; fill-opacity:1.0;  stroke:#000000; stroke-width:0; stroke-opacity:1;  stroke-linecap:round; stroke-linejoin:round;">
<path style="fill:#000000; fill-opacity:1.0;  stroke:#000000; stroke-width:0; stroke-opacity:1;  stroke-linecap:round; stroke-linejoin:round;fill-rule:evenodd;" d="M 39685,39527.6 39685,39921.3 39094.5,39921.3 39094.5,39527.6 Z"/> 
<path style="fill:#000000; fill-opacity:1.0;  stroke:#000000; stroke-width:0; stroke-opacity:1;  stroke-linecap:round; stroke-linejoin:round;fill-rule:evenodd;" d="M 39685,40787.4 39685,41181.1 39094.5,41181.1 39094.5,40787.4 Z"/> 
<path style="fill:#000000; fill-opacity:1.0;  stroke:#000000; stroke-width:0; stroke-opacity:1;  stroke-linecap:round; stroke-linejoin:round;fill-rule:evenodd;" d="M 41614.2,39527.6 41614.2,39921.3 41023.6,39921.3 41023.6,39527.6 Z"/> 
<path style="fill:#000000; fill-opacity:1.0;  stroke:#000000; stroke-width:0; stroke-opacity:1;  stroke-linecap:round; stroke-linejoin:round;fill-rule:evenodd;" d="M 41614.2,40787.4 41614.2,41181.1 41023.6,41181.1 41023.6,40787.4 Z"/> 
</g>
<g>
</g>
<g style="fill:#000000; fill-opacity:1.0;  stroke:#000000; stroke-width:0; stroke-opacity:1;  stroke-linecap:round; stroke-linejoin:round;">
<path style="fill:#000000; fill-opacity:1.0;  stroke:#000000; stroke-width:0; stroke-opacity:1;  stroke-linecap:round; stroke-linejoin:round;fill-rule:evenodd;" d="M 39685,41496.1 39685,41889.8 39094.5,41889.8 39094.5,41496.1 Z"/> 
<path style="fill:#000000; fill-opacity:1.0;  stroke:#000000; stroke-width:0; stroke-opacity:1;  stroke-linecap:round; stroke-linejoin:round;fill-rule:evenodd;" d="M 39685,42755.9 39685,43149.6 39094.5,43149.6 39094.5,42755.9 Z"/> 
<path style="fill:#000000; fill-opacity:1.0;  stroke:#000000; stroke-width:0; stroke-opacity:1;  stroke-linecap:round; stroke-linejoin:round;fill-rule:evenodd;" d="M 41614.2,41496.1 41614.2,41889.8 41023.6,41889.8 41023.6,41496.1 Z"/> 
<path style="fill:#000000; fill-opacity:1.0;  stroke:#000000; stroke-width:0; stroke-opacity:1;  stroke-linecap:round; stroke-linejoin:round;fill-rule:evenodd;" d="M 41614.2,42755.9 41614.2,43149.6 41023.6,43149.6 41023.6,42755.9 Z"/> 
</g>
<g>
</g>
<g style="fill:#000000; fill-opacity:1.0;  stroke:#000000; stroke-width:0; stroke-opacity:1;  stroke-linecap:round; stroke-linejoin:round;">
<path style="fill:#000000; fill-opacity:1.0;  stroke:#000000; stroke-width:0; stroke-opacity:1;  stroke-linecap:round; stroke-linejoin:round;fill-rule:evenodd;" d="M 39685,43464.6 39685,43858.3 39094.5,43858.3 39094.5,43464.6 Z"/> 
<path style="fill:#000000; fill-opacity:1.0;  stroke:#000000; stroke-width:0; stroke-opacity:1;  stroke-linecap:round; stroke-linejoin:round;fill-rule:evenodd;" d="M 39685,44724.4 39685,45118.1 39094.5,45118.1 39094.5,44724.4 Z"/> 
<path style="fill:#000000; fill-opacity:1.0;  stroke:#000000; stroke-width:0; stroke-opacity:1;  stroke-linecap:round; stroke-linejoin:round;fill-rule:evenodd;" d="M 41614.2,43464.6 41614.2,43858.3 41023.6,43858.3 41023.6,43464.6 Z"/> 
<path style="fill:#000000; fill-opacity:1.0;  stroke:#000000; stroke-width:0; stroke-opacity:1;  stroke-linecap:round; stroke-linejoin:round;fill-rule:evenodd;" d="M 41614.2,44724.4 41614.2,45118.1 41023.6,45118.1 41023.6,44724.4 Z"/> 
</g>
<g>
</g>
<g style="fill:#000000; fill-opacity:1.0;  stroke:#000000; stroke-width:0; stroke-opacity:1;  stroke-linecap:round; stroke-linejoin:round;">
<circle cx="39350" cy="46150" r="334.646"/> 
<circle cx="39350" cy="47150" r="334.646"/> 
<circle cx="40350" cy="46150" r="334.646"/> 
<circle cx="40350" cy="47150" r="334.646"/> 
<circle cx="41350" cy="46150" r="334.646"/> 
<path style="fill:#000000; fill-opacity:1.0;  stroke:#000000; stroke-width:0; stroke-opacity:1;  stroke-linecap:round; stroke-linejoin:round;fill-rule:evenodd;" d="M 41684.6,47484.6 41015.4,47484.6 41015.4,46815.4 41684.6,46815.4 Z"/> 
</g>
<g>
</g>
<g>
</g>
<g>
</g>
</g> 
</mask></defs><g id="substrate-silk" style="fill:#f0f0f0; stroke:#f0f0f0;" mask="url(#pads-mask-silkscreen)"><g style="fill-opacity:1; stroke-opacity:1; stroke-linecap:round; stroke-linejoin:round;" transform="translate(0 0) scale(1 1)">
</g>
<g style="fill-opacity:0.0; stroke-width:-0.000393701; stroke-opacity:1; stroke-linecap:round; stroke-linejoin:round;">
</g>
<g style="fill-opacity:0.0; stroke-width:47.2441; stroke-opacity:1; stroke-linecap:round; stroke-linejoin:round;">
<path d="M39566 40551 L41141 40157 "/>
<path d="M40748 41732 L39960 42913 "/>
<path d="M38917 39271 L38917 39724 "/>
<path d="M38917 41240 L38917 41692 "/>
<path d="M38917 43208 L38917 43661 "/>
</g>
<g style="fill-opacity:0.0; stroke-width:59.0551; stroke-opacity:1; stroke-linecap:round; stroke-linejoin:round;">
<text x="41988.2" y="41181.1" textLength="374.954" font-size="524.934" lengthAdjust="spacingAndGlyphs" text-anchor="middle" opacity="0">1</text>
<path d="M42100 41162 L41875 41162 "/>
<path d="M41988 41162 L41988 40768 L41950 40824 L41913 40862 L41875 40881 "/>
<text x="41988.2" y="43149.6" textLength="451.725" font-size="524.934" lengthAdjust="spacingAndGlyphs" text-anchor="middle" opacity="0">1</text>
<path d="M42100 43130 L41875 43130 "/>
<path d="M41988 43130 L41988 42737 L41950 42793 L41913 42830 L41875 42849 "/>
<text x="41988.2" y="45118.1" textLength="451.725" font-size="524.934" lengthAdjust="spacingAndGlyphs" text-anchor="middle" opacity="0">1</text>
<path d="M42100 45099 L41875 45099 "/>
<path d="M41988 45099 L41988 44705 L41950 44761 L41913 44799 L41875 44818 "/>
<g>
</g>
</g> 
</g><g id="substrate-outline" style="fill:#000000; stroke:#000000;"><g style="fill-opacity:1; stroke-opacity:1; stroke-linecap:round; stroke-linejoin:round;" transform="translate(0 0) scale(1 1)">
</g>
<g style="fill-opacity:0.0; stroke-width:-0.000393701; stroke-opacity:1; stroke-linecap:round; stroke-linejoin:round;">
</g>
<g style="fill-opacity:0.0; stroke-width:19.685; stroke-opacity:1; stroke-linecap:round; stroke-linejoin:round;">
<path d="M38385 47834 L42322 47834 "/>
<path d="M38385 38385 L38385 47834 "/>
<path d="M42322 38385 L38385 38385 "/>
<path d="M42322 47834 L42322 38385 "/>
<g>
</g>
<g>
</g>
<g>
</g>
<g>
</g>
<g>
</g>
</g> 
</g><defs><mask id="hole-mask"><g><rect x="38134" y="38375" fill="white" width="4198" height="11631"/><polyline stroke-linecap="round" stroke="black" stroke-width="393" points="0.0 0 0.0 0" transform="translate(39350 46150) rotate(-90.0)"/><polyline stroke-linecap="round" stroke="black" stroke-width="393" points="0.0 0 0.0 0" transform="translate(39350 47150) rotate(-90.0)"/><polyline stroke-linecap="round" stroke="black" stroke-width="393" points="0.0 0 0.0 0" transform="translate(40350 46150) rotate(-90.0)"/><polyline stroke-linecap="round" stroke="black" stroke-width="393" points="0.0 0 0.0 0" transform="translate(40350 47150) rotate(-90.0)"/><polyline stroke-linecap="round" stroke="black" stroke-width="393" points="0.0 0 0.0 0" transform="translate(41350 46150) rotate(-90.0)"/><polyline stroke-linecap="round" stroke="black" stroke-width="393" points="0.0 0 0.0 0" transform="translate(41350 47150) rotate(-90.0)"/></g></mask></defs></g></g><g transform="" id="highlightContainer"/><g transform="" id="componentContainer"/></svg>