G04 #@! TF.GenerationSoftware,KiCad,Pcbnew,5.1.10-88a1d61d58~90~ubuntu21.04.1*
G04 #@! TF.CreationDate,2021-08-24T10:00:05+02:00*
G04 #@! TF.ProjectId,Detector_SMD_Simple,44657465-6374-46f7-925f-534d445f5369,rev?*
G04 #@! TF.SameCoordinates,Original*
G04 #@! TF.FileFunction,Copper,L2,Bot*
G04 #@! TF.FilePolarity,Positive*
%FSLAX46Y46*%
G04 Gerber Fmt 4.6, Leading zero omitted, Abs format (unit mm)*
G04 Created by KiCad (PCBNEW 5.1.10-88a1d61d58~90~ubuntu21.04.1) date 2021-08-24 10:00:05*
%MOMM*%
%LPD*%
G01*
G04 APERTURE LIST*
G04 #@! TA.AperFunction,ComponentPad*
%ADD10O,1.700000X1.700000*%
G04 #@! TD*
G04 #@! TA.AperFunction,ComponentPad*
%ADD11R,1.700000X1.700000*%
G04 #@! TD*
G04 #@! TA.AperFunction,ComponentPad*
%ADD12C,2.000000*%
G04 #@! TD*
G04 #@! TA.AperFunction,Conductor*
%ADD13C,0.254000*%
G04 #@! TD*
G04 #@! TA.AperFunction,Conductor*
%ADD14C,0.100000*%
G04 #@! TD*
G04 APERTURE END LIST*
D10*
X106250000Y-52540000D03*
X106250000Y-50000000D03*
D11*
X106250000Y-47460000D03*
D12*
X74150000Y-50000000D03*
X61450000Y-50000000D03*
D13*
X105901795Y-35757406D02*
X106638838Y-35984150D01*
X107324083Y-36337832D01*
X107935866Y-36807270D01*
X108454850Y-37377624D01*
X108864632Y-38030874D01*
X109152255Y-38746359D01*
X109310748Y-39511691D01*
X109340001Y-40019037D01*
X109340000Y-59970608D01*
X109268827Y-60768083D01*
X109065344Y-61511890D01*
X108733363Y-62207904D01*
X108283374Y-62834130D01*
X107729597Y-63370777D01*
X107089549Y-63800871D01*
X106383447Y-64110829D01*
X105633620Y-64290847D01*
X104863758Y-64335236D01*
X104098210Y-64242594D01*
X103361163Y-64015850D01*
X102675919Y-63662170D01*
X102064131Y-63192728D01*
X101545151Y-62622376D01*
X101135368Y-61969126D01*
X100847745Y-61253639D01*
X100689252Y-60488309D01*
X100658906Y-59962008D01*
X100657037Y-59949351D01*
X100657223Y-59922730D01*
X100656323Y-59913558D01*
X100642273Y-59779872D01*
X102765000Y-59779872D01*
X102765000Y-60220128D01*
X102850890Y-60651925D01*
X103019369Y-61058669D01*
X103263962Y-61424729D01*
X103575271Y-61736038D01*
X103941331Y-61980631D01*
X104348075Y-62149110D01*
X104779872Y-62235000D01*
X105220128Y-62235000D01*
X105651925Y-62149110D01*
X106058669Y-61980631D01*
X106424729Y-61736038D01*
X106736038Y-61424729D01*
X106980631Y-61058669D01*
X107149110Y-60651925D01*
X107235000Y-60220128D01*
X107235000Y-59779872D01*
X107149110Y-59348075D01*
X106980631Y-58941331D01*
X106736038Y-58575271D01*
X106424729Y-58263962D01*
X106058669Y-58019369D01*
X105651925Y-57850890D01*
X105220128Y-57765000D01*
X104779872Y-57765000D01*
X104348075Y-57850890D01*
X103941331Y-58019369D01*
X103575271Y-58263962D01*
X103263962Y-58575271D01*
X103019369Y-58941331D01*
X102850890Y-59348075D01*
X102765000Y-59779872D01*
X100642273Y-59779872D01*
X100605322Y-59428316D01*
X100593302Y-59369760D01*
X100582086Y-59310959D01*
X100579422Y-59302138D01*
X100435142Y-58836044D01*
X100411954Y-58780881D01*
X100389552Y-58725435D01*
X100385226Y-58717299D01*
X100153162Y-58288106D01*
X100119729Y-58238539D01*
X100086958Y-58188460D01*
X100081134Y-58181319D01*
X99770125Y-57805374D01*
X99727708Y-57763252D01*
X99685826Y-57720483D01*
X99678725Y-57714610D01*
X99300618Y-57406233D01*
X99250809Y-57373141D01*
X99201437Y-57339334D01*
X99193331Y-57334952D01*
X98762527Y-57105890D01*
X98707233Y-57083099D01*
X98652240Y-57059529D01*
X98643437Y-57056804D01*
X98176347Y-56915781D01*
X98117653Y-56904159D01*
X98059156Y-56891725D01*
X98049991Y-56890762D01*
X97564405Y-56843150D01*
X97564402Y-56843150D01*
X97532419Y-56840000D01*
X55532277Y-56840000D01*
X55337460Y-56820898D01*
X55181105Y-56773692D01*
X55036904Y-56697018D01*
X54910336Y-56593792D01*
X54806232Y-56467951D01*
X54728553Y-56324289D01*
X54680258Y-56168271D01*
X54660000Y-55975527D01*
X54660000Y-54967581D01*
X54650450Y-54870617D01*
X54612710Y-54746207D01*
X54551425Y-54631550D01*
X54468948Y-54531052D01*
X54368449Y-54448575D01*
X54253792Y-54387290D01*
X54129382Y-54349550D01*
X54000000Y-54336807D01*
X53996965Y-54337106D01*
X53231917Y-54268827D01*
X52488110Y-54065344D01*
X51792096Y-53733363D01*
X51165870Y-53283374D01*
X50791342Y-52896890D01*
X104808524Y-52896890D01*
X104853175Y-53044099D01*
X104978359Y-53306920D01*
X105152412Y-53540269D01*
X105368645Y-53735178D01*
X105618748Y-53884157D01*
X105893109Y-53981481D01*
X106123000Y-53860814D01*
X106123000Y-52667000D01*
X106377000Y-52667000D01*
X106377000Y-53860814D01*
X106606891Y-53981481D01*
X106881252Y-53884157D01*
X107131355Y-53735178D01*
X107347588Y-53540269D01*
X107521641Y-53306920D01*
X107646825Y-53044099D01*
X107691476Y-52896890D01*
X107570155Y-52667000D01*
X106377000Y-52667000D01*
X106123000Y-52667000D01*
X104929845Y-52667000D01*
X104808524Y-52896890D01*
X50791342Y-52896890D01*
X50629223Y-52729597D01*
X50199129Y-52089549D01*
X49889171Y-51383447D01*
X49709153Y-50633620D01*
X49664764Y-49863759D01*
X49674915Y-49779872D01*
X51765000Y-49779872D01*
X51765000Y-50220128D01*
X51850890Y-50651925D01*
X52019369Y-51058669D01*
X52263962Y-51424729D01*
X52575271Y-51736038D01*
X52941331Y-51980631D01*
X53348075Y-52149110D01*
X53779872Y-52235000D01*
X54220128Y-52235000D01*
X54651925Y-52149110D01*
X55058669Y-51980631D01*
X55424729Y-51736038D01*
X55736038Y-51424729D01*
X55929352Y-51135413D01*
X60494192Y-51135413D01*
X60589956Y-51399814D01*
X60879571Y-51540704D01*
X61191108Y-51622384D01*
X61512595Y-51641718D01*
X61831675Y-51597961D01*
X62136088Y-51492795D01*
X62310044Y-51399814D01*
X62405808Y-51135413D01*
X61450000Y-50179605D01*
X60494192Y-51135413D01*
X55929352Y-51135413D01*
X55980631Y-51058669D01*
X56149110Y-50651925D01*
X56235000Y-50220128D01*
X56235000Y-50062595D01*
X59808282Y-50062595D01*
X59852039Y-50381675D01*
X59957205Y-50686088D01*
X60050186Y-50860044D01*
X60314587Y-50955808D01*
X61270395Y-50000000D01*
X61629605Y-50000000D01*
X62585413Y-50955808D01*
X62849814Y-50860044D01*
X62990704Y-50570429D01*
X63072384Y-50258892D01*
X63091718Y-49937405D01*
X63078219Y-49838967D01*
X72515000Y-49838967D01*
X72515000Y-50161033D01*
X72577832Y-50476912D01*
X72701082Y-50774463D01*
X72880013Y-51042252D01*
X73107748Y-51269987D01*
X73375537Y-51448918D01*
X73673088Y-51572168D01*
X73988967Y-51635000D01*
X74311033Y-51635000D01*
X74626912Y-51572168D01*
X74924463Y-51448918D01*
X75192252Y-51269987D01*
X75419987Y-51042252D01*
X75598918Y-50774463D01*
X75722168Y-50476912D01*
X75785000Y-50161033D01*
X75785000Y-49838967D01*
X75722168Y-49523088D01*
X75598918Y-49225537D01*
X75419987Y-48957748D01*
X75192252Y-48730013D01*
X74924463Y-48551082D01*
X74626912Y-48427832D01*
X74311033Y-48365000D01*
X73988967Y-48365000D01*
X73673088Y-48427832D01*
X73375537Y-48551082D01*
X73107748Y-48730013D01*
X72880013Y-48957748D01*
X72701082Y-49225537D01*
X72577832Y-49523088D01*
X72515000Y-49838967D01*
X63078219Y-49838967D01*
X63047961Y-49618325D01*
X62942795Y-49313912D01*
X62849814Y-49139956D01*
X62585413Y-49044192D01*
X61629605Y-50000000D01*
X61270395Y-50000000D01*
X60314587Y-49044192D01*
X60050186Y-49139956D01*
X59909296Y-49429571D01*
X59827616Y-49741108D01*
X59808282Y-50062595D01*
X56235000Y-50062595D01*
X56235000Y-49779872D01*
X56149110Y-49348075D01*
X55980631Y-48941331D01*
X55929353Y-48864587D01*
X60494192Y-48864587D01*
X61450000Y-49820395D01*
X62405808Y-48864587D01*
X62310044Y-48600186D01*
X62020429Y-48459296D01*
X61708892Y-48377616D01*
X61387405Y-48358282D01*
X61068325Y-48402039D01*
X60763912Y-48507205D01*
X60589956Y-48600186D01*
X60494192Y-48864587D01*
X55929353Y-48864587D01*
X55736038Y-48575271D01*
X55424729Y-48263962D01*
X55058669Y-48019369D01*
X54651925Y-47850890D01*
X54220128Y-47765000D01*
X53779872Y-47765000D01*
X53348075Y-47850890D01*
X52941331Y-48019369D01*
X52575271Y-48263962D01*
X52263962Y-48575271D01*
X52019369Y-48941331D01*
X51850890Y-49348075D01*
X51765000Y-49779872D01*
X49674915Y-49779872D01*
X49757406Y-49098205D01*
X49984150Y-48361162D01*
X50337832Y-47675917D01*
X50807270Y-47064134D01*
X51306355Y-46610000D01*
X104761928Y-46610000D01*
X104761928Y-48310000D01*
X104774188Y-48434482D01*
X104810498Y-48554180D01*
X104869463Y-48664494D01*
X104948815Y-48761185D01*
X105045506Y-48840537D01*
X105155820Y-48899502D01*
X105228380Y-48921513D01*
X105096525Y-49053368D01*
X104934010Y-49296589D01*
X104822068Y-49566842D01*
X104765000Y-49853740D01*
X104765000Y-50146260D01*
X104822068Y-50433158D01*
X104934010Y-50703411D01*
X105096525Y-50946632D01*
X105303368Y-51153475D01*
X105485534Y-51275195D01*
X105368645Y-51344822D01*
X105152412Y-51539731D01*
X104978359Y-51773080D01*
X104853175Y-52035901D01*
X104808524Y-52183110D01*
X104929845Y-52413000D01*
X106123000Y-52413000D01*
X106123000Y-52393000D01*
X106377000Y-52393000D01*
X106377000Y-52413000D01*
X107570155Y-52413000D01*
X107691476Y-52183110D01*
X107646825Y-52035901D01*
X107521641Y-51773080D01*
X107347588Y-51539731D01*
X107131355Y-51344822D01*
X107014466Y-51275195D01*
X107196632Y-51153475D01*
X107403475Y-50946632D01*
X107565990Y-50703411D01*
X107677932Y-50433158D01*
X107735000Y-50146260D01*
X107735000Y-49853740D01*
X107677932Y-49566842D01*
X107565990Y-49296589D01*
X107403475Y-49053368D01*
X107271620Y-48921513D01*
X107344180Y-48899502D01*
X107454494Y-48840537D01*
X107551185Y-48761185D01*
X107630537Y-48664494D01*
X107689502Y-48554180D01*
X107725812Y-48434482D01*
X107738072Y-48310000D01*
X107738072Y-46610000D01*
X107725812Y-46485518D01*
X107689502Y-46365820D01*
X107630537Y-46255506D01*
X107551185Y-46158815D01*
X107454494Y-46079463D01*
X107344180Y-46020498D01*
X107224482Y-45984188D01*
X107100000Y-45971928D01*
X105400000Y-45971928D01*
X105275518Y-45984188D01*
X105155820Y-46020498D01*
X105045506Y-46079463D01*
X104948815Y-46158815D01*
X104869463Y-46255506D01*
X104810498Y-46365820D01*
X104774188Y-46485518D01*
X104761928Y-46610000D01*
X51306355Y-46610000D01*
X51377624Y-46545150D01*
X52030874Y-46135368D01*
X52746359Y-45847745D01*
X53511691Y-45689252D01*
X53986575Y-45661871D01*
X54000000Y-45663193D01*
X54129382Y-45650450D01*
X54253792Y-45612710D01*
X54368449Y-45551425D01*
X54468948Y-45468948D01*
X54551425Y-45368450D01*
X54612710Y-45253793D01*
X54650450Y-45129383D01*
X54660000Y-45032419D01*
X54660000Y-44032277D01*
X54679102Y-43837460D01*
X54726308Y-43681106D01*
X54802982Y-43536904D01*
X54906207Y-43410337D01*
X55032051Y-43306231D01*
X55175711Y-43228553D01*
X55331729Y-43180258D01*
X55524473Y-43160000D01*
X97532419Y-43160000D01*
X97561718Y-43157114D01*
X97577271Y-43157223D01*
X97586442Y-43156323D01*
X98071684Y-43105322D01*
X98130247Y-43093301D01*
X98189040Y-43082086D01*
X98197862Y-43079422D01*
X98663956Y-42935142D01*
X98719086Y-42911967D01*
X98774565Y-42889553D01*
X98782701Y-42885226D01*
X99211894Y-42653162D01*
X99261461Y-42619729D01*
X99311540Y-42586958D01*
X99318681Y-42581133D01*
X99694627Y-42270125D01*
X99736767Y-42227689D01*
X99779517Y-42185826D01*
X99785391Y-42178725D01*
X100093767Y-41800618D01*
X100126859Y-41750809D01*
X100160666Y-41701437D01*
X100165047Y-41693333D01*
X100165051Y-41693325D01*
X100394111Y-41262527D01*
X100416910Y-41207212D01*
X100440471Y-41152240D01*
X100443196Y-41143437D01*
X100584219Y-40676348D01*
X100595845Y-40617631D01*
X100608275Y-40559155D01*
X100609238Y-40549991D01*
X100656850Y-40064404D01*
X100656850Y-40062307D01*
X100657387Y-40058670D01*
X100682269Y-39779872D01*
X102765000Y-39779872D01*
X102765000Y-40220128D01*
X102850890Y-40651925D01*
X103019369Y-41058669D01*
X103263962Y-41424729D01*
X103575271Y-41736038D01*
X103941331Y-41980631D01*
X104348075Y-42149110D01*
X104779872Y-42235000D01*
X105220128Y-42235000D01*
X105651925Y-42149110D01*
X106058669Y-41980631D01*
X106424729Y-41736038D01*
X106736038Y-41424729D01*
X106980631Y-41058669D01*
X107149110Y-40651925D01*
X107235000Y-40220128D01*
X107235000Y-39779872D01*
X107149110Y-39348075D01*
X106980631Y-38941331D01*
X106736038Y-38575271D01*
X106424729Y-38263962D01*
X106058669Y-38019369D01*
X105651925Y-37850890D01*
X105220128Y-37765000D01*
X104779872Y-37765000D01*
X104348075Y-37850890D01*
X103941331Y-38019369D01*
X103575271Y-38263962D01*
X103263962Y-38575271D01*
X103019369Y-38941331D01*
X102850890Y-39348075D01*
X102765000Y-39779872D01*
X100682269Y-39779872D01*
X100731173Y-39231917D01*
X100934656Y-38488109D01*
X101266638Y-37792095D01*
X101716626Y-37165870D01*
X102270403Y-36629223D01*
X102910451Y-36199129D01*
X103616553Y-35889171D01*
X104366380Y-35709153D01*
X105136241Y-35664764D01*
X105901795Y-35757406D01*
G04 #@! TA.AperFunction,Conductor*
D14*
G36*
X105901795Y-35757406D02*
G01*
X106638838Y-35984150D01*
X107324083Y-36337832D01*
X107935866Y-36807270D01*
X108454850Y-37377624D01*
X108864632Y-38030874D01*
X109152255Y-38746359D01*
X109310748Y-39511691D01*
X109340001Y-40019037D01*
X109340000Y-59970608D01*
X109268827Y-60768083D01*
X109065344Y-61511890D01*
X108733363Y-62207904D01*
X108283374Y-62834130D01*
X107729597Y-63370777D01*
X107089549Y-63800871D01*
X106383447Y-64110829D01*
X105633620Y-64290847D01*
X104863758Y-64335236D01*
X104098210Y-64242594D01*
X103361163Y-64015850D01*
X102675919Y-63662170D01*
X102064131Y-63192728D01*
X101545151Y-62622376D01*
X101135368Y-61969126D01*
X100847745Y-61253639D01*
X100689252Y-60488309D01*
X100658906Y-59962008D01*
X100657037Y-59949351D01*
X100657223Y-59922730D01*
X100656323Y-59913558D01*
X100642273Y-59779872D01*
X102765000Y-59779872D01*
X102765000Y-60220128D01*
X102850890Y-60651925D01*
X103019369Y-61058669D01*
X103263962Y-61424729D01*
X103575271Y-61736038D01*
X103941331Y-61980631D01*
X104348075Y-62149110D01*
X104779872Y-62235000D01*
X105220128Y-62235000D01*
X105651925Y-62149110D01*
X106058669Y-61980631D01*
X106424729Y-61736038D01*
X106736038Y-61424729D01*
X106980631Y-61058669D01*
X107149110Y-60651925D01*
X107235000Y-60220128D01*
X107235000Y-59779872D01*
X107149110Y-59348075D01*
X106980631Y-58941331D01*
X106736038Y-58575271D01*
X106424729Y-58263962D01*
X106058669Y-58019369D01*
X105651925Y-57850890D01*
X105220128Y-57765000D01*
X104779872Y-57765000D01*
X104348075Y-57850890D01*
X103941331Y-58019369D01*
X103575271Y-58263962D01*
X103263962Y-58575271D01*
X103019369Y-58941331D01*
X102850890Y-59348075D01*
X102765000Y-59779872D01*
X100642273Y-59779872D01*
X100605322Y-59428316D01*
X100593302Y-59369760D01*
X100582086Y-59310959D01*
X100579422Y-59302138D01*
X100435142Y-58836044D01*
X100411954Y-58780881D01*
X100389552Y-58725435D01*
X100385226Y-58717299D01*
X100153162Y-58288106D01*
X100119729Y-58238539D01*
X100086958Y-58188460D01*
X100081134Y-58181319D01*
X99770125Y-57805374D01*
X99727708Y-57763252D01*
X99685826Y-57720483D01*
X99678725Y-57714610D01*
X99300618Y-57406233D01*
X99250809Y-57373141D01*
X99201437Y-57339334D01*
X99193331Y-57334952D01*
X98762527Y-57105890D01*
X98707233Y-57083099D01*
X98652240Y-57059529D01*
X98643437Y-57056804D01*
X98176347Y-56915781D01*
X98117653Y-56904159D01*
X98059156Y-56891725D01*
X98049991Y-56890762D01*
X97564405Y-56843150D01*
X97564402Y-56843150D01*
X97532419Y-56840000D01*
X55532277Y-56840000D01*
X55337460Y-56820898D01*
X55181105Y-56773692D01*
X55036904Y-56697018D01*
X54910336Y-56593792D01*
X54806232Y-56467951D01*
X54728553Y-56324289D01*
X54680258Y-56168271D01*
X54660000Y-55975527D01*
X54660000Y-54967581D01*
X54650450Y-54870617D01*
X54612710Y-54746207D01*
X54551425Y-54631550D01*
X54468948Y-54531052D01*
X54368449Y-54448575D01*
X54253792Y-54387290D01*
X54129382Y-54349550D01*
X54000000Y-54336807D01*
X53996965Y-54337106D01*
X53231917Y-54268827D01*
X52488110Y-54065344D01*
X51792096Y-53733363D01*
X51165870Y-53283374D01*
X50791342Y-52896890D01*
X104808524Y-52896890D01*
X104853175Y-53044099D01*
X104978359Y-53306920D01*
X105152412Y-53540269D01*
X105368645Y-53735178D01*
X105618748Y-53884157D01*
X105893109Y-53981481D01*
X106123000Y-53860814D01*
X106123000Y-52667000D01*
X106377000Y-52667000D01*
X106377000Y-53860814D01*
X106606891Y-53981481D01*
X106881252Y-53884157D01*
X107131355Y-53735178D01*
X107347588Y-53540269D01*
X107521641Y-53306920D01*
X107646825Y-53044099D01*
X107691476Y-52896890D01*
X107570155Y-52667000D01*
X106377000Y-52667000D01*
X106123000Y-52667000D01*
X104929845Y-52667000D01*
X104808524Y-52896890D01*
X50791342Y-52896890D01*
X50629223Y-52729597D01*
X50199129Y-52089549D01*
X49889171Y-51383447D01*
X49709153Y-50633620D01*
X49664764Y-49863759D01*
X49674915Y-49779872D01*
X51765000Y-49779872D01*
X51765000Y-50220128D01*
X51850890Y-50651925D01*
X52019369Y-51058669D01*
X52263962Y-51424729D01*
X52575271Y-51736038D01*
X52941331Y-51980631D01*
X53348075Y-52149110D01*
X53779872Y-52235000D01*
X54220128Y-52235000D01*
X54651925Y-52149110D01*
X55058669Y-51980631D01*
X55424729Y-51736038D01*
X55736038Y-51424729D01*
X55929352Y-51135413D01*
X60494192Y-51135413D01*
X60589956Y-51399814D01*
X60879571Y-51540704D01*
X61191108Y-51622384D01*
X61512595Y-51641718D01*
X61831675Y-51597961D01*
X62136088Y-51492795D01*
X62310044Y-51399814D01*
X62405808Y-51135413D01*
X61450000Y-50179605D01*
X60494192Y-51135413D01*
X55929352Y-51135413D01*
X55980631Y-51058669D01*
X56149110Y-50651925D01*
X56235000Y-50220128D01*
X56235000Y-50062595D01*
X59808282Y-50062595D01*
X59852039Y-50381675D01*
X59957205Y-50686088D01*
X60050186Y-50860044D01*
X60314587Y-50955808D01*
X61270395Y-50000000D01*
X61629605Y-50000000D01*
X62585413Y-50955808D01*
X62849814Y-50860044D01*
X62990704Y-50570429D01*
X63072384Y-50258892D01*
X63091718Y-49937405D01*
X63078219Y-49838967D01*
X72515000Y-49838967D01*
X72515000Y-50161033D01*
X72577832Y-50476912D01*
X72701082Y-50774463D01*
X72880013Y-51042252D01*
X73107748Y-51269987D01*
X73375537Y-51448918D01*
X73673088Y-51572168D01*
X73988967Y-51635000D01*
X74311033Y-51635000D01*
X74626912Y-51572168D01*
X74924463Y-51448918D01*
X75192252Y-51269987D01*
X75419987Y-51042252D01*
X75598918Y-50774463D01*
X75722168Y-50476912D01*
X75785000Y-50161033D01*
X75785000Y-49838967D01*
X75722168Y-49523088D01*
X75598918Y-49225537D01*
X75419987Y-48957748D01*
X75192252Y-48730013D01*
X74924463Y-48551082D01*
X74626912Y-48427832D01*
X74311033Y-48365000D01*
X73988967Y-48365000D01*
X73673088Y-48427832D01*
X73375537Y-48551082D01*
X73107748Y-48730013D01*
X72880013Y-48957748D01*
X72701082Y-49225537D01*
X72577832Y-49523088D01*
X72515000Y-49838967D01*
X63078219Y-49838967D01*
X63047961Y-49618325D01*
X62942795Y-49313912D01*
X62849814Y-49139956D01*
X62585413Y-49044192D01*
X61629605Y-50000000D01*
X61270395Y-50000000D01*
X60314587Y-49044192D01*
X60050186Y-49139956D01*
X59909296Y-49429571D01*
X59827616Y-49741108D01*
X59808282Y-50062595D01*
X56235000Y-50062595D01*
X56235000Y-49779872D01*
X56149110Y-49348075D01*
X55980631Y-48941331D01*
X55929353Y-48864587D01*
X60494192Y-48864587D01*
X61450000Y-49820395D01*
X62405808Y-48864587D01*
X62310044Y-48600186D01*
X62020429Y-48459296D01*
X61708892Y-48377616D01*
X61387405Y-48358282D01*
X61068325Y-48402039D01*
X60763912Y-48507205D01*
X60589956Y-48600186D01*
X60494192Y-48864587D01*
X55929353Y-48864587D01*
X55736038Y-48575271D01*
X55424729Y-48263962D01*
X55058669Y-48019369D01*
X54651925Y-47850890D01*
X54220128Y-47765000D01*
X53779872Y-47765000D01*
X53348075Y-47850890D01*
X52941331Y-48019369D01*
X52575271Y-48263962D01*
X52263962Y-48575271D01*
X52019369Y-48941331D01*
X51850890Y-49348075D01*
X51765000Y-49779872D01*
X49674915Y-49779872D01*
X49757406Y-49098205D01*
X49984150Y-48361162D01*
X50337832Y-47675917D01*
X50807270Y-47064134D01*
X51306355Y-46610000D01*
X104761928Y-46610000D01*
X104761928Y-48310000D01*
X104774188Y-48434482D01*
X104810498Y-48554180D01*
X104869463Y-48664494D01*
X104948815Y-48761185D01*
X105045506Y-48840537D01*
X105155820Y-48899502D01*
X105228380Y-48921513D01*
X105096525Y-49053368D01*
X104934010Y-49296589D01*
X104822068Y-49566842D01*
X104765000Y-49853740D01*
X104765000Y-50146260D01*
X104822068Y-50433158D01*
X104934010Y-50703411D01*
X105096525Y-50946632D01*
X105303368Y-51153475D01*
X105485534Y-51275195D01*
X105368645Y-51344822D01*
X105152412Y-51539731D01*
X104978359Y-51773080D01*
X104853175Y-52035901D01*
X104808524Y-52183110D01*
X104929845Y-52413000D01*
X106123000Y-52413000D01*
X106123000Y-52393000D01*
X106377000Y-52393000D01*
X106377000Y-52413000D01*
X107570155Y-52413000D01*
X107691476Y-52183110D01*
X107646825Y-52035901D01*
X107521641Y-51773080D01*
X107347588Y-51539731D01*
X107131355Y-51344822D01*
X107014466Y-51275195D01*
X107196632Y-51153475D01*
X107403475Y-50946632D01*
X107565990Y-50703411D01*
X107677932Y-50433158D01*
X107735000Y-50146260D01*
X107735000Y-49853740D01*
X107677932Y-49566842D01*
X107565990Y-49296589D01*
X107403475Y-49053368D01*
X107271620Y-48921513D01*
X107344180Y-48899502D01*
X107454494Y-48840537D01*
X107551185Y-48761185D01*
X107630537Y-48664494D01*
X107689502Y-48554180D01*
X107725812Y-48434482D01*
X107738072Y-48310000D01*
X107738072Y-46610000D01*
X107725812Y-46485518D01*
X107689502Y-46365820D01*
X107630537Y-46255506D01*
X107551185Y-46158815D01*
X107454494Y-46079463D01*
X107344180Y-46020498D01*
X107224482Y-45984188D01*
X107100000Y-45971928D01*
X105400000Y-45971928D01*
X105275518Y-45984188D01*
X105155820Y-46020498D01*
X105045506Y-46079463D01*
X104948815Y-46158815D01*
X104869463Y-46255506D01*
X104810498Y-46365820D01*
X104774188Y-46485518D01*
X104761928Y-46610000D01*
X51306355Y-46610000D01*
X51377624Y-46545150D01*
X52030874Y-46135368D01*
X52746359Y-45847745D01*
X53511691Y-45689252D01*
X53986575Y-45661871D01*
X54000000Y-45663193D01*
X54129382Y-45650450D01*
X54253792Y-45612710D01*
X54368449Y-45551425D01*
X54468948Y-45468948D01*
X54551425Y-45368450D01*
X54612710Y-45253793D01*
X54650450Y-45129383D01*
X54660000Y-45032419D01*
X54660000Y-44032277D01*
X54679102Y-43837460D01*
X54726308Y-43681106D01*
X54802982Y-43536904D01*
X54906207Y-43410337D01*
X55032051Y-43306231D01*
X55175711Y-43228553D01*
X55331729Y-43180258D01*
X55524473Y-43160000D01*
X97532419Y-43160000D01*
X97561718Y-43157114D01*
X97577271Y-43157223D01*
X97586442Y-43156323D01*
X98071684Y-43105322D01*
X98130247Y-43093301D01*
X98189040Y-43082086D01*
X98197862Y-43079422D01*
X98663956Y-42935142D01*
X98719086Y-42911967D01*
X98774565Y-42889553D01*
X98782701Y-42885226D01*
X99211894Y-42653162D01*
X99261461Y-42619729D01*
X99311540Y-42586958D01*
X99318681Y-42581133D01*
X99694627Y-42270125D01*
X99736767Y-42227689D01*
X99779517Y-42185826D01*
X99785391Y-42178725D01*
X100093767Y-41800618D01*
X100126859Y-41750809D01*
X100160666Y-41701437D01*
X100165047Y-41693333D01*
X100165051Y-41693325D01*
X100394111Y-41262527D01*
X100416910Y-41207212D01*
X100440471Y-41152240D01*
X100443196Y-41143437D01*
X100584219Y-40676348D01*
X100595845Y-40617631D01*
X100608275Y-40559155D01*
X100609238Y-40549991D01*
X100656850Y-40064404D01*
X100656850Y-40062307D01*
X100657387Y-40058670D01*
X100682269Y-39779872D01*
X102765000Y-39779872D01*
X102765000Y-40220128D01*
X102850890Y-40651925D01*
X103019369Y-41058669D01*
X103263962Y-41424729D01*
X103575271Y-41736038D01*
X103941331Y-41980631D01*
X104348075Y-42149110D01*
X104779872Y-42235000D01*
X105220128Y-42235000D01*
X105651925Y-42149110D01*
X106058669Y-41980631D01*
X106424729Y-41736038D01*
X106736038Y-41424729D01*
X106980631Y-41058669D01*
X107149110Y-40651925D01*
X107235000Y-40220128D01*
X107235000Y-39779872D01*
X107149110Y-39348075D01*
X106980631Y-38941331D01*
X106736038Y-38575271D01*
X106424729Y-38263962D01*
X106058669Y-38019369D01*
X105651925Y-37850890D01*
X105220128Y-37765000D01*
X104779872Y-37765000D01*
X104348075Y-37850890D01*
X103941331Y-38019369D01*
X103575271Y-38263962D01*
X103263962Y-38575271D01*
X103019369Y-38941331D01*
X102850890Y-39348075D01*
X102765000Y-39779872D01*
X100682269Y-39779872D01*
X100731173Y-39231917D01*
X100934656Y-38488109D01*
X101266638Y-37792095D01*
X101716626Y-37165870D01*
X102270403Y-36629223D01*
X102910451Y-36199129D01*
X103616553Y-35889171D01*
X104366380Y-35709153D01*
X105136241Y-35664764D01*
X105901795Y-35757406D01*
G37*
G04 #@! TD.AperFunction*
M02*
