G04 #@! TF.GenerationSoftware,KiCad,Pcbnew,5.1.10-88a1d61d58~90~ubuntu21.04.1*
G04 #@! TF.CreationDate,2021-08-24T10:00:05+02:00*
G04 #@! TF.ProjectId,Detector_SMD_Simple,44657465-6374-46f7-925f-534d445f5369,rev?*
G04 #@! TF.SameCoordinates,Original*
G04 #@! TF.FileFunction,Soldermask,Top*
G04 #@! TF.FilePolarity,Negative*
%FSLAX46Y46*%
G04 Gerber Fmt 4.6, Leading zero omitted, Abs format (unit mm)*
G04 Created by KiCad (PCBNEW 5.1.10-88a1d61d58~90~ubuntu21.04.1) date 2021-08-24 10:00:05*
%MOMM*%
%LPD*%
G01*
G04 APERTURE LIST*
%ADD10O,1.700000X1.700000*%
%ADD11R,1.700000X1.700000*%
%ADD12C,2.000000*%
%ADD13C,3.200000*%
%ADD14R,0.900000X0.800000*%
%ADD15R,0.900000X1.200000*%
G04 APERTURE END LIST*
G36*
G01*
X94974999Y-50900000D02*
X96225001Y-50900000D01*
G75*
G02*
X96475000Y-51149999I0J-249999D01*
G01*
X96475000Y-51775001D01*
G75*
G02*
X96225001Y-52025000I-249999J0D01*
G01*
X94974999Y-52025000D01*
G75*
G02*
X94725000Y-51775001I0J249999D01*
G01*
X94725000Y-51149999D01*
G75*
G02*
X94974999Y-50900000I249999J0D01*
G01*
G37*
G36*
G01*
X94974999Y-47975000D02*
X96225001Y-47975000D01*
G75*
G02*
X96475000Y-48224999I0J-249999D01*
G01*
X96475000Y-48850001D01*
G75*
G02*
X96225001Y-49100000I-249999J0D01*
G01*
X94974999Y-49100000D01*
G75*
G02*
X94725000Y-48850001I0J249999D01*
G01*
X94725000Y-48224999D01*
G75*
G02*
X94974999Y-47975000I249999J0D01*
G01*
G37*
G36*
G01*
X86474999Y-50900000D02*
X87725001Y-50900000D01*
G75*
G02*
X87975000Y-51149999I0J-249999D01*
G01*
X87975000Y-51775001D01*
G75*
G02*
X87725001Y-52025000I-249999J0D01*
G01*
X86474999Y-52025000D01*
G75*
G02*
X86225000Y-51775001I0J249999D01*
G01*
X86225000Y-51149999D01*
G75*
G02*
X86474999Y-50900000I249999J0D01*
G01*
G37*
G36*
G01*
X86474999Y-47975000D02*
X87725001Y-47975000D01*
G75*
G02*
X87975000Y-48224999I0J-249999D01*
G01*
X87975000Y-48850001D01*
G75*
G02*
X87725001Y-49100000I-249999J0D01*
G01*
X86474999Y-49100000D01*
G75*
G02*
X86225000Y-48850001I0J249999D01*
G01*
X86225000Y-48224999D01*
G75*
G02*
X86474999Y-47975000I249999J0D01*
G01*
G37*
G36*
G01*
X79850000Y-47349999D02*
X79850000Y-48650001D01*
G75*
G02*
X79600001Y-48900000I-249999J0D01*
G01*
X78949999Y-48900000D01*
G75*
G02*
X78700000Y-48650001I0J249999D01*
G01*
X78700000Y-47349999D01*
G75*
G02*
X78949999Y-47100000I249999J0D01*
G01*
X79600001Y-47100000D01*
G75*
G02*
X79850000Y-47349999I0J-249999D01*
G01*
G37*
G36*
G01*
X82800000Y-47349999D02*
X82800000Y-48650001D01*
G75*
G02*
X82550001Y-48900000I-249999J0D01*
G01*
X81899999Y-48900000D01*
G75*
G02*
X81650000Y-48650001I0J249999D01*
G01*
X81650000Y-47349999D01*
G75*
G02*
X81899999Y-47100000I249999J0D01*
G01*
X82550001Y-47100000D01*
G75*
G02*
X82800000Y-47349999I0J-249999D01*
G01*
G37*
G36*
G01*
X73600000Y-44450000D02*
X73600000Y-42950000D01*
G75*
G02*
X73850000Y-42700000I250000J0D01*
G01*
X74350000Y-42700000D01*
G75*
G02*
X74600000Y-42950000I0J-250000D01*
G01*
X74600000Y-44450000D01*
G75*
G02*
X74350000Y-44700000I-250000J0D01*
G01*
X73850000Y-44700000D01*
G75*
G02*
X73600000Y-44450000I0J250000D01*
G01*
G37*
G36*
G01*
X61000000Y-44450000D02*
X61000000Y-42950000D01*
G75*
G02*
X61250000Y-42700000I250000J0D01*
G01*
X61750000Y-42700000D01*
G75*
G02*
X62000000Y-42950000I0J-250000D01*
G01*
X62000000Y-44450000D01*
G75*
G02*
X61750000Y-44700000I-250000J0D01*
G01*
X61250000Y-44700000D01*
G75*
G02*
X61000000Y-44450000I0J250000D01*
G01*
G37*
D10*
X106250000Y-52540000D03*
X106250000Y-50000000D03*
D11*
X106250000Y-47460000D03*
D12*
X74150000Y-50000000D03*
X61450000Y-50000000D03*
D13*
X105000000Y-60000000D03*
X105000000Y-40000000D03*
X54000000Y-50000000D03*
D14*
X92600000Y-50000000D03*
X90600000Y-50950000D03*
X90600000Y-49050000D03*
D15*
X78950000Y-52000000D03*
X82250000Y-52000000D03*
M02*
