M48
; DRILL file {KiCad 5.1.10-88a1d61d58~90~ubuntu21.04.1} date Fri Jul 16 14:05:05 2021
; FORMAT={-:-/ absolute / inch / decimal}
; #@! TF.CreationDate,2021-07-16T14:05:05+02:00
; #@! TF.GenerationSoftware,Kicad,Pcbnew,5.1.10-88a1d61d58~90~ubuntu21.04.1
; #@! TF.FileFunction,Plated,1,2,PTH
FMAT,2
INCH
T1C0.0157
T2C0.0374
T3C0.0394
%
G90
G05
T1
X1.5748Y-1.063
X1.8504Y-1.6142
X2.2835Y-1.5354
X2.3228Y-2.2047
X2.3622Y-2.2835
X2.5197Y-1.7323
X2.5197Y-2.2835
X2.5984Y-0.9449
X3.0315Y-1.2992
T2
X2.8346Y-1.9882
X2.8346Y-2.0866
X2.8346Y-2.185
X2.8346Y-2.2835
T3
X0.9213Y-1.4232
X0.9213Y-1.5232
X0.9213Y-1.6232
X1.1024Y-2.5591
X1.1024Y-2.6575
X2.4803Y-2.6378
X2.4803Y-2.7378
X2.8346Y-1.4173
X2.874Y-0.9449
X2.9346Y-1.4173
X2.974Y-0.9449
T3
G00X0.9055Y-0.9449
M15
G01X0.9055Y-1.0236
M16
G05
G00X0.9843Y-1.1693
M15
G01X1.063Y-1.1693
M16
G05
G00X1.1417Y-0.9449
M15
G01X1.1417Y-1.0236
M16
G05
T0
M30
