%TF.GenerationSoftware,KiCad,Pcbnew,5.1.10-88a1d61d58~90~ubuntu21.04.1*%
%TF.CreationDate,2021-07-30T10:57:06+02:00*%
%TF.ProjectId,DccDecoder,44636344-6563-46f6-9465-722e6b696361,rev?*%
%TF.SameCoordinates,Original*%
%TF.FileFunction,Paste,Top*%
%TF.FilePolarity,Positive*%
%FSLAX46Y46*%
G04 Gerber Fmt 4.6, Leading zero omitted, Abs format (unit mm)*
G04 Created by KiCad (PCBNEW 5.1.10-88a1d61d58~90~ubuntu21.04.1) date 2021-07-30 10:57:06*
%MOMM*%
%LPD*%
G01*
G04 APERTURE LIST*
%ADD10R,1.220000X1.150000*%
%ADD11R,0.800000X0.900000*%
%ADD12R,4.100000X3.500000*%
%ADD13R,1.200000X0.900000*%
%ADD14R,1.150000X1.220000*%
%ADD15R,0.450000X0.600000*%
%ADD16R,1.900000X1.200000*%
%ADD17R,1.500000X2.000000*%
%ADD18R,3.800000X2.000000*%
%ADD19R,2.000000X1.780000*%
%ADD20R,0.900000X0.800000*%
G04 APERTURE END LIST*
D10*
%TO.C,D8*%
X32800000Y-30300000D03*
X32800000Y-27200000D03*
%TD*%
%TO.C,R15*%
G36*
G01*
X43637500Y-25025001D02*
X43637500Y-23774999D01*
G75*
G02*
X43887499Y-23525000I249999J0D01*
G01*
X44512501Y-23525000D01*
G75*
G02*
X44762500Y-23774999I0J-249999D01*
G01*
X44762500Y-25025001D01*
G75*
G02*
X44512501Y-25275000I-249999J0D01*
G01*
X43887499Y-25275000D01*
G75*
G02*
X43637500Y-25025001I0J249999D01*
G01*
G37*
G36*
G01*
X40712500Y-25025001D02*
X40712500Y-23774999D01*
G75*
G02*
X40962499Y-23525000I249999J0D01*
G01*
X41587501Y-23525000D01*
G75*
G02*
X41837500Y-23774999I0J-249999D01*
G01*
X41837500Y-25025001D01*
G75*
G02*
X41587501Y-25275000I-249999J0D01*
G01*
X40962499Y-25275000D01*
G75*
G02*
X40712500Y-25025001I0J249999D01*
G01*
G37*
%TD*%
%TO.C,R14*%
G36*
G01*
X46637500Y-28274999D02*
X46637500Y-29525001D01*
G75*
G02*
X46387501Y-29775000I-249999J0D01*
G01*
X45762499Y-29775000D01*
G75*
G02*
X45512500Y-29525001I0J249999D01*
G01*
X45512500Y-28274999D01*
G75*
G02*
X45762499Y-28025000I249999J0D01*
G01*
X46387501Y-28025000D01*
G75*
G02*
X46637500Y-28274999I0J-249999D01*
G01*
G37*
G36*
G01*
X49562500Y-28274999D02*
X49562500Y-29525001D01*
G75*
G02*
X49312501Y-29775000I-249999J0D01*
G01*
X48687499Y-29775000D01*
G75*
G02*
X48437500Y-29525001I0J249999D01*
G01*
X48437500Y-28274999D01*
G75*
G02*
X48687499Y-28025000I249999J0D01*
G01*
X49312501Y-28025000D01*
G75*
G02*
X49562500Y-28274999I0J-249999D01*
G01*
G37*
%TD*%
D11*
%TO.C,Q3*%
X42300000Y-26900000D03*
X43250000Y-28900000D03*
X41350000Y-28900000D03*
%TD*%
D12*
%TO.C,L1*%
X75000000Y-38400000D03*
X65500000Y-38400000D03*
%TD*%
%TO.C,R11*%
G36*
G01*
X58374999Y-42437500D02*
X59625001Y-42437500D01*
G75*
G02*
X59875000Y-42687499I0J-249999D01*
G01*
X59875000Y-43312501D01*
G75*
G02*
X59625001Y-43562500I-249999J0D01*
G01*
X58374999Y-43562500D01*
G75*
G02*
X58125000Y-43312501I0J249999D01*
G01*
X58125000Y-42687499D01*
G75*
G02*
X58374999Y-42437500I249999J0D01*
G01*
G37*
G36*
G01*
X58374999Y-39512500D02*
X59625001Y-39512500D01*
G75*
G02*
X59875000Y-39762499I0J-249999D01*
G01*
X59875000Y-40387501D01*
G75*
G02*
X59625001Y-40637500I-249999J0D01*
G01*
X58374999Y-40637500D01*
G75*
G02*
X58125000Y-40387501I0J249999D01*
G01*
X58125000Y-39762499D01*
G75*
G02*
X58374999Y-39512500I249999J0D01*
G01*
G37*
%TD*%
%TO.C,R13*%
G36*
G01*
X61187500Y-48625001D02*
X61187500Y-47374999D01*
G75*
G02*
X61437499Y-47125000I249999J0D01*
G01*
X62062501Y-47125000D01*
G75*
G02*
X62312500Y-47374999I0J-249999D01*
G01*
X62312500Y-48625001D01*
G75*
G02*
X62062501Y-48875000I-249999J0D01*
G01*
X61437499Y-48875000D01*
G75*
G02*
X61187500Y-48625001I0J249999D01*
G01*
G37*
G36*
G01*
X58262500Y-48625001D02*
X58262500Y-47374999D01*
G75*
G02*
X58512499Y-47125000I249999J0D01*
G01*
X59137501Y-47125000D01*
G75*
G02*
X59387500Y-47374999I0J-249999D01*
G01*
X59387500Y-48625001D01*
G75*
G02*
X59137501Y-48875000I-249999J0D01*
G01*
X58512499Y-48875000D01*
G75*
G02*
X58262500Y-48625001I0J249999D01*
G01*
G37*
%TD*%
%TO.C,R12*%
G36*
G01*
X57375001Y-48562500D02*
X56124999Y-48562500D01*
G75*
G02*
X55875000Y-48312501I0J249999D01*
G01*
X55875000Y-47687499D01*
G75*
G02*
X56124999Y-47437500I249999J0D01*
G01*
X57375001Y-47437500D01*
G75*
G02*
X57625000Y-47687499I0J-249999D01*
G01*
X57625000Y-48312501D01*
G75*
G02*
X57375001Y-48562500I-249999J0D01*
G01*
G37*
G36*
G01*
X57375001Y-51487500D02*
X56124999Y-51487500D01*
G75*
G02*
X55875000Y-51237501I0J249999D01*
G01*
X55875000Y-50612499D01*
G75*
G02*
X56124999Y-50362500I249999J0D01*
G01*
X57375001Y-50362500D01*
G75*
G02*
X57625000Y-50612499I0J-249999D01*
G01*
X57625000Y-51237501D01*
G75*
G02*
X57375001Y-51487500I-249999J0D01*
G01*
G37*
%TD*%
%TO.C,C11*%
G36*
G01*
X66325000Y-47349999D02*
X66325000Y-48650001D01*
G75*
G02*
X66075001Y-48900000I-249999J0D01*
G01*
X65424999Y-48900000D01*
G75*
G02*
X65175000Y-48650001I0J249999D01*
G01*
X65175000Y-47349999D01*
G75*
G02*
X65424999Y-47100000I249999J0D01*
G01*
X66075001Y-47100000D01*
G75*
G02*
X66325000Y-47349999I0J-249999D01*
G01*
G37*
G36*
G01*
X69275000Y-47349999D02*
X69275000Y-48650001D01*
G75*
G02*
X69025001Y-48900000I-249999J0D01*
G01*
X68374999Y-48900000D01*
G75*
G02*
X68125000Y-48650001I0J249999D01*
G01*
X68125000Y-47349999D01*
G75*
G02*
X68374999Y-47100000I249999J0D01*
G01*
X69025001Y-47100000D01*
G75*
G02*
X69275000Y-47349999I0J-249999D01*
G01*
G37*
%TD*%
%TO.C,U4*%
G36*
G01*
X63005000Y-32750000D02*
X63305000Y-32750000D01*
G75*
G02*
X63455000Y-32900000I0J-150000D01*
G01*
X63455000Y-34550000D01*
G75*
G02*
X63305000Y-34700000I-150000J0D01*
G01*
X63005000Y-34700000D01*
G75*
G02*
X62855000Y-34550000I0J150000D01*
G01*
X62855000Y-32900000D01*
G75*
G02*
X63005000Y-32750000I150000J0D01*
G01*
G37*
G36*
G01*
X61735000Y-32750000D02*
X62035000Y-32750000D01*
G75*
G02*
X62185000Y-32900000I0J-150000D01*
G01*
X62185000Y-34550000D01*
G75*
G02*
X62035000Y-34700000I-150000J0D01*
G01*
X61735000Y-34700000D01*
G75*
G02*
X61585000Y-34550000I0J150000D01*
G01*
X61585000Y-32900000D01*
G75*
G02*
X61735000Y-32750000I150000J0D01*
G01*
G37*
G36*
G01*
X60465000Y-32750000D02*
X60765000Y-32750000D01*
G75*
G02*
X60915000Y-32900000I0J-150000D01*
G01*
X60915000Y-34550000D01*
G75*
G02*
X60765000Y-34700000I-150000J0D01*
G01*
X60465000Y-34700000D01*
G75*
G02*
X60315000Y-34550000I0J150000D01*
G01*
X60315000Y-32900000D01*
G75*
G02*
X60465000Y-32750000I150000J0D01*
G01*
G37*
G36*
G01*
X59195000Y-32750000D02*
X59495000Y-32750000D01*
G75*
G02*
X59645000Y-32900000I0J-150000D01*
G01*
X59645000Y-34550000D01*
G75*
G02*
X59495000Y-34700000I-150000J0D01*
G01*
X59195000Y-34700000D01*
G75*
G02*
X59045000Y-34550000I0J150000D01*
G01*
X59045000Y-32900000D01*
G75*
G02*
X59195000Y-32750000I150000J0D01*
G01*
G37*
G36*
G01*
X59195000Y-27800000D02*
X59495000Y-27800000D01*
G75*
G02*
X59645000Y-27950000I0J-150000D01*
G01*
X59645000Y-29600000D01*
G75*
G02*
X59495000Y-29750000I-150000J0D01*
G01*
X59195000Y-29750000D01*
G75*
G02*
X59045000Y-29600000I0J150000D01*
G01*
X59045000Y-27950000D01*
G75*
G02*
X59195000Y-27800000I150000J0D01*
G01*
G37*
G36*
G01*
X60465000Y-27800000D02*
X60765000Y-27800000D01*
G75*
G02*
X60915000Y-27950000I0J-150000D01*
G01*
X60915000Y-29600000D01*
G75*
G02*
X60765000Y-29750000I-150000J0D01*
G01*
X60465000Y-29750000D01*
G75*
G02*
X60315000Y-29600000I0J150000D01*
G01*
X60315000Y-27950000D01*
G75*
G02*
X60465000Y-27800000I150000J0D01*
G01*
G37*
G36*
G01*
X61735000Y-27800000D02*
X62035000Y-27800000D01*
G75*
G02*
X62185000Y-27950000I0J-150000D01*
G01*
X62185000Y-29600000D01*
G75*
G02*
X62035000Y-29750000I-150000J0D01*
G01*
X61735000Y-29750000D01*
G75*
G02*
X61585000Y-29600000I0J150000D01*
G01*
X61585000Y-27950000D01*
G75*
G02*
X61735000Y-27800000I150000J0D01*
G01*
G37*
G36*
G01*
X63005000Y-27800000D02*
X63305000Y-27800000D01*
G75*
G02*
X63455000Y-27950000I0J-150000D01*
G01*
X63455000Y-29600000D01*
G75*
G02*
X63305000Y-29750000I-150000J0D01*
G01*
X63005000Y-29750000D01*
G75*
G02*
X62855000Y-29600000I0J150000D01*
G01*
X62855000Y-27950000D01*
G75*
G02*
X63005000Y-27800000I150000J0D01*
G01*
G37*
%TD*%
D13*
%TO.C,D7*%
X70200000Y-28500000D03*
X70200000Y-31800000D03*
%TD*%
D10*
%TO.C,D3*%
X35480000Y-29870000D03*
X35480000Y-32970000D03*
%TD*%
D14*
%TO.C,D2*%
X40470000Y-34770000D03*
X43570000Y-34770000D03*
%TD*%
D15*
%TO.C,D1*%
X76000000Y-53050000D03*
X76000000Y-50950000D03*
%TD*%
%TO.C,C13*%
G36*
G01*
X66350000Y-44599999D02*
X66350000Y-45900001D01*
G75*
G02*
X66100001Y-46150000I-249999J0D01*
G01*
X65449999Y-46150000D01*
G75*
G02*
X65200000Y-45900001I0J249999D01*
G01*
X65200000Y-44599999D01*
G75*
G02*
X65449999Y-44350000I249999J0D01*
G01*
X66100001Y-44350000D01*
G75*
G02*
X66350000Y-44599999I0J-249999D01*
G01*
G37*
G36*
G01*
X69300000Y-44599999D02*
X69300000Y-45900001D01*
G75*
G02*
X69050001Y-46150000I-249999J0D01*
G01*
X68399999Y-46150000D01*
G75*
G02*
X68150000Y-45900001I0J249999D01*
G01*
X68150000Y-44599999D01*
G75*
G02*
X68399999Y-44350000I249999J0D01*
G01*
X69050001Y-44350000D01*
G75*
G02*
X69300000Y-44599999I0J-249999D01*
G01*
G37*
%TD*%
%TO.C,C9*%
G36*
G01*
X54575000Y-25349999D02*
X54575000Y-26650001D01*
G75*
G02*
X54325001Y-26900000I-249999J0D01*
G01*
X53674999Y-26900000D01*
G75*
G02*
X53425000Y-26650001I0J249999D01*
G01*
X53425000Y-25349999D01*
G75*
G02*
X53674999Y-25100000I249999J0D01*
G01*
X54325001Y-25100000D01*
G75*
G02*
X54575000Y-25349999I0J-249999D01*
G01*
G37*
G36*
G01*
X57525000Y-25349999D02*
X57525000Y-26650001D01*
G75*
G02*
X57275001Y-26900000I-249999J0D01*
G01*
X56624999Y-26900000D01*
G75*
G02*
X56375000Y-26650001I0J249999D01*
G01*
X56375000Y-25349999D01*
G75*
G02*
X56624999Y-25100000I249999J0D01*
G01*
X57275001Y-25100000D01*
G75*
G02*
X57525000Y-25349999I0J-249999D01*
G01*
G37*
%TD*%
%TO.C,C8*%
G36*
G01*
X61175000Y-45900001D02*
X61175000Y-44599999D01*
G75*
G02*
X61424999Y-44350000I249999J0D01*
G01*
X62075001Y-44350000D01*
G75*
G02*
X62325000Y-44599999I0J-249999D01*
G01*
X62325000Y-45900001D01*
G75*
G02*
X62075001Y-46150000I-249999J0D01*
G01*
X61424999Y-46150000D01*
G75*
G02*
X61175000Y-45900001I0J249999D01*
G01*
G37*
G36*
G01*
X58225000Y-45900001D02*
X58225000Y-44599999D01*
G75*
G02*
X58474999Y-44350000I249999J0D01*
G01*
X59125001Y-44350000D01*
G75*
G02*
X59375000Y-44599999I0J-249999D01*
G01*
X59375000Y-45900001D01*
G75*
G02*
X59125001Y-46150000I-249999J0D01*
G01*
X58474999Y-46150000D01*
G75*
G02*
X58225000Y-45900001I0J249999D01*
G01*
G37*
%TD*%
%TO.C,C7*%
G36*
G01*
X64400000Y-23400001D02*
X64400000Y-22099999D01*
G75*
G02*
X64649999Y-21850000I249999J0D01*
G01*
X65300001Y-21850000D01*
G75*
G02*
X65550000Y-22099999I0J-249999D01*
G01*
X65550000Y-23400001D01*
G75*
G02*
X65300001Y-23650000I-249999J0D01*
G01*
X64649999Y-23650000D01*
G75*
G02*
X64400000Y-23400001I0J249999D01*
G01*
G37*
G36*
G01*
X61450000Y-23400001D02*
X61450000Y-22099999D01*
G75*
G02*
X61699999Y-21850000I249999J0D01*
G01*
X62350001Y-21850000D01*
G75*
G02*
X62600000Y-22099999I0J-249999D01*
G01*
X62600000Y-23400001D01*
G75*
G02*
X62350001Y-23650000I-249999J0D01*
G01*
X61699999Y-23650000D01*
G75*
G02*
X61450000Y-23400001I0J249999D01*
G01*
G37*
%TD*%
%TO.C,C6*%
G36*
G01*
X61400000Y-38650001D02*
X61400000Y-37349999D01*
G75*
G02*
X61649999Y-37100000I249999J0D01*
G01*
X62300001Y-37100000D01*
G75*
G02*
X62550000Y-37349999I0J-249999D01*
G01*
X62550000Y-38650001D01*
G75*
G02*
X62300001Y-38900000I-249999J0D01*
G01*
X61649999Y-38900000D01*
G75*
G02*
X61400000Y-38650001I0J249999D01*
G01*
G37*
G36*
G01*
X58450000Y-38650001D02*
X58450000Y-37349999D01*
G75*
G02*
X58699999Y-37100000I249999J0D01*
G01*
X59350001Y-37100000D01*
G75*
G02*
X59600000Y-37349999I0J-249999D01*
G01*
X59600000Y-38650001D01*
G75*
G02*
X59350001Y-38900000I-249999J0D01*
G01*
X58699999Y-38900000D01*
G75*
G02*
X58450000Y-38650001I0J249999D01*
G01*
G37*
%TD*%
%TO.C,R5*%
G36*
G01*
X99625001Y-45100000D02*
X98374999Y-45100000D01*
G75*
G02*
X98125000Y-44850001I0J249999D01*
G01*
X98125000Y-44224999D01*
G75*
G02*
X98374999Y-43975000I249999J0D01*
G01*
X99625001Y-43975000D01*
G75*
G02*
X99875000Y-44224999I0J-249999D01*
G01*
X99875000Y-44850001D01*
G75*
G02*
X99625001Y-45100000I-249999J0D01*
G01*
G37*
G36*
G01*
X99625001Y-48025000D02*
X98374999Y-48025000D01*
G75*
G02*
X98125000Y-47775001I0J249999D01*
G01*
X98125000Y-47149999D01*
G75*
G02*
X98374999Y-46900000I249999J0D01*
G01*
X99625001Y-46900000D01*
G75*
G02*
X99875000Y-47149999I0J-249999D01*
G01*
X99875000Y-47775001D01*
G75*
G02*
X99625001Y-48025000I-249999J0D01*
G01*
G37*
%TD*%
%TO.C,R4*%
G36*
G01*
X95625001Y-45012500D02*
X94374999Y-45012500D01*
G75*
G02*
X94125000Y-44762501I0J249999D01*
G01*
X94125000Y-44137499D01*
G75*
G02*
X94374999Y-43887500I249999J0D01*
G01*
X95625001Y-43887500D01*
G75*
G02*
X95875000Y-44137499I0J-249999D01*
G01*
X95875000Y-44762501D01*
G75*
G02*
X95625001Y-45012500I-249999J0D01*
G01*
G37*
G36*
G01*
X95625001Y-47937500D02*
X94374999Y-47937500D01*
G75*
G02*
X94125000Y-47687501I0J249999D01*
G01*
X94125000Y-47062499D01*
G75*
G02*
X94374999Y-46812500I249999J0D01*
G01*
X95625001Y-46812500D01*
G75*
G02*
X95875000Y-47062499I0J-249999D01*
G01*
X95875000Y-47687501D01*
G75*
G02*
X95625001Y-47937500I-249999J0D01*
G01*
G37*
%TD*%
%TO.C,R3*%
G36*
G01*
X98124999Y-39150000D02*
X99375001Y-39150000D01*
G75*
G02*
X99625000Y-39399999I0J-249999D01*
G01*
X99625000Y-40025001D01*
G75*
G02*
X99375001Y-40275000I-249999J0D01*
G01*
X98124999Y-40275000D01*
G75*
G02*
X97875000Y-40025001I0J249999D01*
G01*
X97875000Y-39399999D01*
G75*
G02*
X98124999Y-39150000I249999J0D01*
G01*
G37*
G36*
G01*
X98124999Y-36225000D02*
X99375001Y-36225000D01*
G75*
G02*
X99625000Y-36474999I0J-249999D01*
G01*
X99625000Y-37100001D01*
G75*
G02*
X99375001Y-37350000I-249999J0D01*
G01*
X98124999Y-37350000D01*
G75*
G02*
X97875000Y-37100001I0J249999D01*
G01*
X97875000Y-36474999D01*
G75*
G02*
X98124999Y-36225000I249999J0D01*
G01*
G37*
%TD*%
%TO.C,R2*%
G36*
G01*
X74100000Y-47374999D02*
X74100000Y-48625001D01*
G75*
G02*
X73850001Y-48875000I-249999J0D01*
G01*
X73224999Y-48875000D01*
G75*
G02*
X72975000Y-48625001I0J249999D01*
G01*
X72975000Y-47374999D01*
G75*
G02*
X73224999Y-47125000I249999J0D01*
G01*
X73850001Y-47125000D01*
G75*
G02*
X74100000Y-47374999I0J-249999D01*
G01*
G37*
G36*
G01*
X77025000Y-47374999D02*
X77025000Y-48625001D01*
G75*
G02*
X76775001Y-48875000I-249999J0D01*
G01*
X76149999Y-48875000D01*
G75*
G02*
X75900000Y-48625001I0J249999D01*
G01*
X75900000Y-47374999D01*
G75*
G02*
X76149999Y-47125000I249999J0D01*
G01*
X76775001Y-47125000D01*
G75*
G02*
X77025000Y-47374999I0J-249999D01*
G01*
G37*
%TD*%
%TO.C,C1*%
G36*
G01*
X47750000Y-35195001D02*
X47750000Y-34344999D01*
G75*
G02*
X47999999Y-34095000I249999J0D01*
G01*
X48900001Y-34095000D01*
G75*
G02*
X49150000Y-34344999I0J-249999D01*
G01*
X49150000Y-35195001D01*
G75*
G02*
X48900001Y-35445000I-249999J0D01*
G01*
X47999999Y-35445000D01*
G75*
G02*
X47750000Y-35195001I0J249999D01*
G01*
G37*
G36*
G01*
X45050000Y-35195001D02*
X45050000Y-34344999D01*
G75*
G02*
X45299999Y-34095000I249999J0D01*
G01*
X46200001Y-34095000D01*
G75*
G02*
X46450000Y-34344999I0J-249999D01*
G01*
X46450000Y-35195001D01*
G75*
G02*
X46200001Y-35445000I-249999J0D01*
G01*
X45299999Y-35445000D01*
G75*
G02*
X45050000Y-35195001I0J249999D01*
G01*
G37*
%TD*%
%TO.C,C3*%
G36*
G01*
X89650000Y-41849999D02*
X89650000Y-43150001D01*
G75*
G02*
X89400001Y-43400000I-249999J0D01*
G01*
X88749999Y-43400000D01*
G75*
G02*
X88500000Y-43150001I0J249999D01*
G01*
X88500000Y-41849999D01*
G75*
G02*
X88749999Y-41600000I249999J0D01*
G01*
X89400001Y-41600000D01*
G75*
G02*
X89650000Y-41849999I0J-249999D01*
G01*
G37*
G36*
G01*
X92600000Y-41849999D02*
X92600000Y-43150001D01*
G75*
G02*
X92350001Y-43400000I-249999J0D01*
G01*
X91699999Y-43400000D01*
G75*
G02*
X91450000Y-43150001I0J249999D01*
G01*
X91450000Y-41849999D01*
G75*
G02*
X91699999Y-41600000I249999J0D01*
G01*
X92350001Y-41600000D01*
G75*
G02*
X92600000Y-41849999I0J-249999D01*
G01*
G37*
%TD*%
%TO.C,R10*%
G36*
G01*
X85087498Y-63362500D02*
X86337502Y-63362500D01*
G75*
G02*
X86587500Y-63612498I0J-249998D01*
G01*
X86587500Y-64237502D01*
G75*
G02*
X86337502Y-64487500I-249998J0D01*
G01*
X85087498Y-64487500D01*
G75*
G02*
X84837500Y-64237502I0J249998D01*
G01*
X84837500Y-63612498D01*
G75*
G02*
X85087498Y-63362500I249998J0D01*
G01*
G37*
G36*
G01*
X85087498Y-60437500D02*
X86337502Y-60437500D01*
G75*
G02*
X86587500Y-60687498I0J-249998D01*
G01*
X86587500Y-61312502D01*
G75*
G02*
X86337502Y-61562500I-249998J0D01*
G01*
X85087498Y-61562500D01*
G75*
G02*
X84837500Y-61312502I0J249998D01*
G01*
X84837500Y-60687498D01*
G75*
G02*
X85087498Y-60437500I249998J0D01*
G01*
G37*
%TD*%
%TO.C,C12*%
G36*
G01*
X66350000Y-50599999D02*
X66350000Y-51900001D01*
G75*
G02*
X66100001Y-52150000I-249999J0D01*
G01*
X65449999Y-52150000D01*
G75*
G02*
X65200000Y-51900001I0J249999D01*
G01*
X65200000Y-50599999D01*
G75*
G02*
X65449999Y-50350000I249999J0D01*
G01*
X66100001Y-50350000D01*
G75*
G02*
X66350000Y-50599999I0J-249999D01*
G01*
G37*
G36*
G01*
X69300000Y-50599999D02*
X69300000Y-51900001D01*
G75*
G02*
X69050001Y-52150000I-249999J0D01*
G01*
X68399999Y-52150000D01*
G75*
G02*
X68150000Y-51900001I0J249999D01*
G01*
X68150000Y-50599999D01*
G75*
G02*
X68399999Y-50350000I249999J0D01*
G01*
X69050001Y-50350000D01*
G75*
G02*
X69300000Y-50599999I0J-249999D01*
G01*
G37*
%TD*%
%TO.C,C10*%
G36*
G01*
X66799999Y-31075000D02*
X68100001Y-31075000D01*
G75*
G02*
X68350000Y-31324999I0J-249999D01*
G01*
X68350000Y-31975001D01*
G75*
G02*
X68100001Y-32225000I-249999J0D01*
G01*
X66799999Y-32225000D01*
G75*
G02*
X66550000Y-31975001I0J249999D01*
G01*
X66550000Y-31324999D01*
G75*
G02*
X66799999Y-31075000I249999J0D01*
G01*
G37*
G36*
G01*
X66799999Y-28125000D02*
X68100001Y-28125000D01*
G75*
G02*
X68350000Y-28374999I0J-249999D01*
G01*
X68350000Y-29025001D01*
G75*
G02*
X68100001Y-29275000I-249999J0D01*
G01*
X66799999Y-29275000D01*
G75*
G02*
X66550000Y-29025001I0J249999D01*
G01*
X66550000Y-28374999D01*
G75*
G02*
X66799999Y-28125000I249999J0D01*
G01*
G37*
%TD*%
%TO.C,C5*%
G36*
G01*
X64400000Y-26150001D02*
X64400000Y-24849999D01*
G75*
G02*
X64649999Y-24600000I249999J0D01*
G01*
X65300001Y-24600000D01*
G75*
G02*
X65550000Y-24849999I0J-249999D01*
G01*
X65550000Y-26150001D01*
G75*
G02*
X65300001Y-26400000I-249999J0D01*
G01*
X64649999Y-26400000D01*
G75*
G02*
X64400000Y-26150001I0J249999D01*
G01*
G37*
G36*
G01*
X61450000Y-26150001D02*
X61450000Y-24849999D01*
G75*
G02*
X61699999Y-24600000I249999J0D01*
G01*
X62350001Y-24600000D01*
G75*
G02*
X62600000Y-24849999I0J-249999D01*
G01*
X62600000Y-26150001D01*
G75*
G02*
X62350001Y-26400000I-249999J0D01*
G01*
X61699999Y-26400000D01*
G75*
G02*
X61450000Y-26150001I0J249999D01*
G01*
G37*
%TD*%
%TO.C,R9*%
G36*
G01*
X64874998Y-63362500D02*
X66125002Y-63362500D01*
G75*
G02*
X66375000Y-63612498I0J-249998D01*
G01*
X66375000Y-64237502D01*
G75*
G02*
X66125002Y-64487500I-249998J0D01*
G01*
X64874998Y-64487500D01*
G75*
G02*
X64625000Y-64237502I0J249998D01*
G01*
X64625000Y-63612498D01*
G75*
G02*
X64874998Y-63362500I249998J0D01*
G01*
G37*
G36*
G01*
X64874998Y-60437500D02*
X66125002Y-60437500D01*
G75*
G02*
X66375000Y-60687498I0J-249998D01*
G01*
X66375000Y-61312502D01*
G75*
G02*
X66125002Y-61562500I-249998J0D01*
G01*
X64874998Y-61562500D01*
G75*
G02*
X64625000Y-61312502I0J249998D01*
G01*
X64625000Y-60687498D01*
G75*
G02*
X64874998Y-60437500I249998J0D01*
G01*
G37*
%TD*%
%TO.C,R6*%
G36*
G01*
X33874998Y-63362500D02*
X35125002Y-63362500D01*
G75*
G02*
X35375000Y-63612498I0J-249998D01*
G01*
X35375000Y-64237502D01*
G75*
G02*
X35125002Y-64487500I-249998J0D01*
G01*
X33874998Y-64487500D01*
G75*
G02*
X33625000Y-64237502I0J249998D01*
G01*
X33625000Y-63612498D01*
G75*
G02*
X33874998Y-63362500I249998J0D01*
G01*
G37*
G36*
G01*
X33874998Y-60437500D02*
X35125002Y-60437500D01*
G75*
G02*
X35375000Y-60687498I0J-249998D01*
G01*
X35375000Y-61312502D01*
G75*
G02*
X35125002Y-61562500I-249998J0D01*
G01*
X33874998Y-61562500D01*
G75*
G02*
X33625000Y-61312502I0J249998D01*
G01*
X33625000Y-60687498D01*
G75*
G02*
X33874998Y-60437500I249998J0D01*
G01*
G37*
%TD*%
%TO.C,D6*%
G36*
G01*
X88025000Y-59375000D02*
X88025000Y-58125000D01*
G75*
G02*
X88275000Y-57875000I250000J0D01*
G01*
X89025000Y-57875000D01*
G75*
G02*
X89275000Y-58125000I0J-250000D01*
G01*
X89275000Y-59375000D01*
G75*
G02*
X89025000Y-59625000I-250000J0D01*
G01*
X88275000Y-59625000D01*
G75*
G02*
X88025000Y-59375000I0J250000D01*
G01*
G37*
G36*
G01*
X85225000Y-59375000D02*
X85225000Y-58125000D01*
G75*
G02*
X85475000Y-57875000I250000J0D01*
G01*
X86225000Y-57875000D01*
G75*
G02*
X86475000Y-58125000I0J-250000D01*
G01*
X86475000Y-59375000D01*
G75*
G02*
X86225000Y-59625000I-250000J0D01*
G01*
X85475000Y-59625000D01*
G75*
G02*
X85225000Y-59375000I0J250000D01*
G01*
G37*
%TD*%
%TO.C,D5*%
G36*
G01*
X67625000Y-59375000D02*
X67625000Y-58125000D01*
G75*
G02*
X67875000Y-57875000I250000J0D01*
G01*
X68625000Y-57875000D01*
G75*
G02*
X68875000Y-58125000I0J-250000D01*
G01*
X68875000Y-59375000D01*
G75*
G02*
X68625000Y-59625000I-250000J0D01*
G01*
X67875000Y-59625000D01*
G75*
G02*
X67625000Y-59375000I0J250000D01*
G01*
G37*
G36*
G01*
X64825000Y-59375000D02*
X64825000Y-58125000D01*
G75*
G02*
X65075000Y-57875000I250000J0D01*
G01*
X65825000Y-57875000D01*
G75*
G02*
X66075000Y-58125000I0J-250000D01*
G01*
X66075000Y-59375000D01*
G75*
G02*
X65825000Y-59625000I-250000J0D01*
G01*
X65075000Y-59625000D01*
G75*
G02*
X64825000Y-59375000I0J250000D01*
G01*
G37*
%TD*%
%TO.C,D4*%
G36*
G01*
X36625000Y-59375000D02*
X36625000Y-58125000D01*
G75*
G02*
X36875000Y-57875000I250000J0D01*
G01*
X37625000Y-57875000D01*
G75*
G02*
X37875000Y-58125000I0J-250000D01*
G01*
X37875000Y-59375000D01*
G75*
G02*
X37625000Y-59625000I-250000J0D01*
G01*
X36875000Y-59625000D01*
G75*
G02*
X36625000Y-59375000I0J250000D01*
G01*
G37*
G36*
G01*
X33825000Y-59375000D02*
X33825000Y-58125000D01*
G75*
G02*
X34075000Y-57875000I250000J0D01*
G01*
X34825000Y-57875000D01*
G75*
G02*
X35075000Y-58125000I0J-250000D01*
G01*
X35075000Y-59375000D01*
G75*
G02*
X34825000Y-59625000I-250000J0D01*
G01*
X34075000Y-59625000D01*
G75*
G02*
X33825000Y-59375000I0J250000D01*
G01*
G37*
%TD*%
D16*
%TO.C,BR1*%
X39165580Y-48749590D03*
X39165580Y-43649590D03*
X47415580Y-48749590D03*
X47415580Y-43649590D03*
%TD*%
D17*
%TO.C,U1*%
X81550000Y-23350000D03*
X76950000Y-23350000D03*
X79250000Y-23350000D03*
D18*
X79250000Y-29650000D03*
%TD*%
%TO.C,R8*%
G36*
G01*
X46622500Y-25724998D02*
X46622500Y-26975002D01*
G75*
G02*
X46372502Y-27225000I-249998J0D01*
G01*
X45747498Y-27225000D01*
G75*
G02*
X45497500Y-26975002I0J249998D01*
G01*
X45497500Y-25724998D01*
G75*
G02*
X45747498Y-25475000I249998J0D01*
G01*
X46372502Y-25475000D01*
G75*
G02*
X46622500Y-25724998I0J-249998D01*
G01*
G37*
G36*
G01*
X49547500Y-25724998D02*
X49547500Y-26975002D01*
G75*
G02*
X49297502Y-27225000I-249998J0D01*
G01*
X48672498Y-27225000D01*
G75*
G02*
X48422500Y-26975002I0J249998D01*
G01*
X48422500Y-25724998D01*
G75*
G02*
X48672498Y-25475000I249998J0D01*
G01*
X49297502Y-25475000D01*
G75*
G02*
X49547500Y-25724998I0J-249998D01*
G01*
G37*
%TD*%
%TO.C,R7*%
G36*
G01*
X35657500Y-26984998D02*
X35657500Y-28235002D01*
G75*
G02*
X35407502Y-28485000I-249998J0D01*
G01*
X34782498Y-28485000D01*
G75*
G02*
X34532500Y-28235002I0J249998D01*
G01*
X34532500Y-26984998D01*
G75*
G02*
X34782498Y-26735000I249998J0D01*
G01*
X35407502Y-26735000D01*
G75*
G02*
X35657500Y-26984998I0J-249998D01*
G01*
G37*
G36*
G01*
X38582500Y-26984998D02*
X38582500Y-28235002D01*
G75*
G02*
X38332502Y-28485000I-249998J0D01*
G01*
X37707498Y-28485000D01*
G75*
G02*
X37457500Y-28235002I0J249998D01*
G01*
X37457500Y-26984998D01*
G75*
G02*
X37707498Y-26735000I249998J0D01*
G01*
X38332502Y-26735000D01*
G75*
G02*
X38582500Y-26984998I0J-249998D01*
G01*
G37*
%TD*%
D11*
%TO.C,Q4*%
X47500000Y-22150000D03*
X48450000Y-24150000D03*
X46550000Y-24150000D03*
%TD*%
%TO.C,Q2*%
X42250000Y-30900000D03*
X43200000Y-32900000D03*
X41300000Y-32900000D03*
%TD*%
%TO.C,C4*%
G36*
G01*
X81900000Y-32925001D02*
X81900000Y-32074999D01*
G75*
G02*
X82149999Y-31825000I249999J0D01*
G01*
X83050001Y-31825000D01*
G75*
G02*
X83300000Y-32074999I0J-249999D01*
G01*
X83300000Y-32925001D01*
G75*
G02*
X83050001Y-33175000I-249999J0D01*
G01*
X82149999Y-33175000D01*
G75*
G02*
X81900000Y-32925001I0J249999D01*
G01*
G37*
G36*
G01*
X79200000Y-32925001D02*
X79200000Y-32074999D01*
G75*
G02*
X79449999Y-31825000I249999J0D01*
G01*
X80350001Y-31825000D01*
G75*
G02*
X80600000Y-32074999I0J-249999D01*
G01*
X80600000Y-32925001D01*
G75*
G02*
X80350001Y-33175000I-249999J0D01*
G01*
X79449999Y-33175000D01*
G75*
G02*
X79200000Y-32925001I0J249999D01*
G01*
G37*
%TD*%
%TO.C,C2*%
G36*
G01*
X72824999Y-25150000D02*
X73675001Y-25150000D01*
G75*
G02*
X73925000Y-25399999I0J-249999D01*
G01*
X73925000Y-26300001D01*
G75*
G02*
X73675001Y-26550000I-249999J0D01*
G01*
X72824999Y-26550000D01*
G75*
G02*
X72575000Y-26300001I0J249999D01*
G01*
X72575000Y-25399999D01*
G75*
G02*
X72824999Y-25150000I249999J0D01*
G01*
G37*
G36*
G01*
X72824999Y-22450000D02*
X73675001Y-22450000D01*
G75*
G02*
X73925000Y-22699999I0J-249999D01*
G01*
X73925000Y-23600001D01*
G75*
G02*
X73675001Y-23850000I-249999J0D01*
G01*
X72824999Y-23850000D01*
G75*
G02*
X72575000Y-23600001I0J249999D01*
G01*
X72575000Y-22699999D01*
G75*
G02*
X72824999Y-22450000I249999J0D01*
G01*
G37*
%TD*%
D19*
%TO.C,U3*%
X85985000Y-39520000D03*
X95515000Y-36980000D03*
X85985000Y-36980000D03*
X95515000Y-39520000D03*
%TD*%
%TO.C,U2*%
X91765000Y-45190000D03*
X82235000Y-52810000D03*
X91765000Y-47730000D03*
X82235000Y-50270000D03*
X91765000Y-50270000D03*
X82235000Y-47730000D03*
X91765000Y-52810000D03*
X82235000Y-45190000D03*
%TD*%
%TO.C,R1*%
G36*
G01*
X79124998Y-39150000D02*
X80375002Y-39150000D01*
G75*
G02*
X80625000Y-39399998I0J-249998D01*
G01*
X80625000Y-40025002D01*
G75*
G02*
X80375002Y-40275000I-249998J0D01*
G01*
X79124998Y-40275000D01*
G75*
G02*
X78875000Y-40025002I0J249998D01*
G01*
X78875000Y-39399998D01*
G75*
G02*
X79124998Y-39150000I249998J0D01*
G01*
G37*
G36*
G01*
X79124998Y-36225000D02*
X80375002Y-36225000D01*
G75*
G02*
X80625000Y-36474998I0J-249998D01*
G01*
X80625000Y-37100002D01*
G75*
G02*
X80375002Y-37350000I-249998J0D01*
G01*
X79124998Y-37350000D01*
G75*
G02*
X78875000Y-37100002I0J249998D01*
G01*
X78875000Y-36474998D01*
G75*
G02*
X79124998Y-36225000I249998J0D01*
G01*
G37*
%TD*%
D20*
%TO.C,Q1*%
X81750000Y-38250000D03*
X83750000Y-37300000D03*
X83750000Y-39200000D03*
%TD*%
M02*
