%TF.GenerationSoftware,KiCad,Pcbnew,5.1.10-88a1d61d58~90~ubuntu21.04.1*%
%TF.CreationDate,2021-07-16T14:05:02+02:00*%
%TF.ProjectId,DccDetector,44636344-6574-4656-9374-6f722e6b6963,rev?*%
%TF.SameCoordinates,Original*%
%TF.FileFunction,Soldermask,Top*%
%TF.FilePolarity,Negative*%
%FSLAX46Y46*%
G04 Gerber Fmt 4.6, Leading zero omitted, Abs format (unit mm)*
G04 Created by KiCad (PCBNEW 5.1.10-88a1d61d58~90~ubuntu21.04.1) date 2021-07-16 14:05:02*
%MOMM*%
%LPD*%
G01*
G04 APERTURE LIST*
%ADD10R,3.500000X3.500000*%
%ADD11O,1.950000X1.700000*%
%ADD12O,1.700000X1.700000*%
%ADD13R,1.700000X1.700000*%
%ADD14C,0.100000*%
%ADD15R,1.900000X1.200000*%
%ADD16R,1.500000X2.000000*%
%ADD17R,3.800000X2.000000*%
%ADD18R,0.800000X0.900000*%
%ADD19R,0.900000X0.800000*%
%ADD20R,2.000000X1.780000*%
%ADD21O,2.000000X1.700000*%
%ADD22R,0.500000X0.500000*%
G04 APERTURE END LIST*
%TO.C,J2*%
G36*
G01*
X24250000Y-30575000D02*
X24250000Y-28825000D01*
G75*
G02*
X25125000Y-27950000I875000J0D01*
G01*
X26875000Y-27950000D01*
G75*
G02*
X27750000Y-28825000I0J-875000D01*
G01*
X27750000Y-30575000D01*
G75*
G02*
X26875000Y-31450000I-875000J0D01*
G01*
X25125000Y-31450000D01*
G75*
G02*
X24250000Y-30575000I0J875000D01*
G01*
G37*
G36*
G01*
X21500000Y-26000000D02*
X21500000Y-24000000D01*
G75*
G02*
X22250000Y-23250000I750000J0D01*
G01*
X23750000Y-23250000D01*
G75*
G02*
X24500000Y-24000000I0J-750000D01*
G01*
X24500000Y-26000000D01*
G75*
G02*
X23750000Y-26750000I-750000J0D01*
G01*
X22250000Y-26750000D01*
G75*
G02*
X21500000Y-26000000I0J750000D01*
G01*
G37*
D10*
X29000000Y-25000000D03*
%TD*%
D11*
%TO.C,J7*%
X72000000Y-50500000D03*
X72000000Y-53000000D03*
X72000000Y-55500000D03*
G36*
G01*
X72725000Y-58850000D02*
X71275000Y-58850000D01*
G75*
G02*
X71025000Y-58600000I0J250000D01*
G01*
X71025000Y-57400000D01*
G75*
G02*
X71275000Y-57150000I250000J0D01*
G01*
X72725000Y-57150000D01*
G75*
G02*
X72975000Y-57400000I0J-250000D01*
G01*
X72975000Y-58600000D01*
G75*
G02*
X72725000Y-58850000I-250000J0D01*
G01*
G37*
%TD*%
D12*
%TO.C,J6*%
X74540000Y-36000000D03*
D13*
X72000000Y-36000000D03*
%TD*%
D12*
%TO.C,J5*%
X63000000Y-69540000D03*
D13*
X63000000Y-67000000D03*
%TD*%
D12*
%TO.C,J4*%
X75540000Y-24000000D03*
D13*
X73000000Y-24000000D03*
%TD*%
%TO.C,R10*%
G36*
G01*
X66100000Y-30374999D02*
X66100000Y-31625001D01*
G75*
G02*
X65850001Y-31875000I-249999J0D01*
G01*
X65224999Y-31875000D01*
G75*
G02*
X64975000Y-31625001I0J249999D01*
G01*
X64975000Y-30374999D01*
G75*
G02*
X65224999Y-30125000I249999J0D01*
G01*
X65850001Y-30125000D01*
G75*
G02*
X66100000Y-30374999I0J-249999D01*
G01*
G37*
G36*
G01*
X69025000Y-30374999D02*
X69025000Y-31625001D01*
G75*
G02*
X68775001Y-31875000I-249999J0D01*
G01*
X68149999Y-31875000D01*
G75*
G02*
X67900000Y-31625001I0J249999D01*
G01*
X67900000Y-30374999D01*
G75*
G02*
X68149999Y-30125000I249999J0D01*
G01*
X68775001Y-30125000D01*
G75*
G02*
X69025000Y-30374999I0J-249999D01*
G01*
G37*
%TD*%
%TO.C,R9*%
G36*
G01*
X51637500Y-43374999D02*
X51637500Y-44625001D01*
G75*
G02*
X51387501Y-44875000I-249999J0D01*
G01*
X50762499Y-44875000D01*
G75*
G02*
X50512500Y-44625001I0J249999D01*
G01*
X50512500Y-43374999D01*
G75*
G02*
X50762499Y-43125000I249999J0D01*
G01*
X51387501Y-43125000D01*
G75*
G02*
X51637500Y-43374999I0J-249999D01*
G01*
G37*
G36*
G01*
X54562500Y-43374999D02*
X54562500Y-44625001D01*
G75*
G02*
X54312501Y-44875000I-249999J0D01*
G01*
X53687499Y-44875000D01*
G75*
G02*
X53437500Y-44625001I0J249999D01*
G01*
X53437500Y-43374999D01*
G75*
G02*
X53687499Y-43125000I249999J0D01*
G01*
X54312501Y-43125000D01*
G75*
G02*
X54562500Y-43374999I0J-249999D01*
G01*
G37*
%TD*%
%TO.C,R6*%
G36*
G01*
X53637500Y-23374999D02*
X53637500Y-24625001D01*
G75*
G02*
X53387501Y-24875000I-249999J0D01*
G01*
X52762499Y-24875000D01*
G75*
G02*
X52512500Y-24625001I0J249999D01*
G01*
X52512500Y-23374999D01*
G75*
G02*
X52762499Y-23125000I249999J0D01*
G01*
X53387501Y-23125000D01*
G75*
G02*
X53637500Y-23374999I0J-249999D01*
G01*
G37*
G36*
G01*
X56562500Y-23374999D02*
X56562500Y-24625001D01*
G75*
G02*
X56312501Y-24875000I-249999J0D01*
G01*
X55687499Y-24875000D01*
G75*
G02*
X55437500Y-24625001I0J249999D01*
G01*
X55437500Y-23374999D01*
G75*
G02*
X55687499Y-23125000I249999J0D01*
G01*
X56312501Y-23125000D01*
G75*
G02*
X56562500Y-23374999I0J-249999D01*
G01*
G37*
%TD*%
D14*
%TO.C,JP7*%
G36*
X61500000Y-44750000D02*
G01*
X61000000Y-44750000D01*
X61000000Y-44749398D01*
X60975466Y-44749398D01*
X60926635Y-44744588D01*
X60878510Y-44735016D01*
X60831555Y-44720772D01*
X60786222Y-44701995D01*
X60742949Y-44678864D01*
X60702150Y-44651604D01*
X60664221Y-44620476D01*
X60629524Y-44585779D01*
X60598396Y-44547850D01*
X60571136Y-44507051D01*
X60548005Y-44463778D01*
X60529228Y-44418445D01*
X60514984Y-44371490D01*
X60505412Y-44323365D01*
X60500602Y-44274534D01*
X60500602Y-44250000D01*
X60500000Y-44250000D01*
X60500000Y-43750000D01*
X60500602Y-43750000D01*
X60500602Y-43725466D01*
X60505412Y-43676635D01*
X60514984Y-43628510D01*
X60529228Y-43581555D01*
X60548005Y-43536222D01*
X60571136Y-43492949D01*
X60598396Y-43452150D01*
X60629524Y-43414221D01*
X60664221Y-43379524D01*
X60702150Y-43348396D01*
X60742949Y-43321136D01*
X60786222Y-43298005D01*
X60831555Y-43279228D01*
X60878510Y-43264984D01*
X60926635Y-43255412D01*
X60975466Y-43250602D01*
X61000000Y-43250602D01*
X61000000Y-43250000D01*
X61500000Y-43250000D01*
X61500000Y-44750000D01*
G37*
G36*
X62300000Y-43250602D02*
G01*
X62324534Y-43250602D01*
X62373365Y-43255412D01*
X62421490Y-43264984D01*
X62468445Y-43279228D01*
X62513778Y-43298005D01*
X62557051Y-43321136D01*
X62597850Y-43348396D01*
X62635779Y-43379524D01*
X62670476Y-43414221D01*
X62701604Y-43452150D01*
X62728864Y-43492949D01*
X62751995Y-43536222D01*
X62770772Y-43581555D01*
X62785016Y-43628510D01*
X62794588Y-43676635D01*
X62799398Y-43725466D01*
X62799398Y-43750000D01*
X62800000Y-43750000D01*
X62800000Y-44250000D01*
X62799398Y-44250000D01*
X62799398Y-44274534D01*
X62794588Y-44323365D01*
X62785016Y-44371490D01*
X62770772Y-44418445D01*
X62751995Y-44463778D01*
X62728864Y-44507051D01*
X62701604Y-44547850D01*
X62670476Y-44585779D01*
X62635779Y-44620476D01*
X62597850Y-44651604D01*
X62557051Y-44678864D01*
X62513778Y-44701995D01*
X62468445Y-44720772D01*
X62421490Y-44735016D01*
X62373365Y-44744588D01*
X62324534Y-44749398D01*
X62300000Y-44749398D01*
X62300000Y-44750000D01*
X61800000Y-44750000D01*
X61800000Y-43250000D01*
X62300000Y-43250000D01*
X62300000Y-43250602D01*
G37*
%TD*%
%TO.C,JP6*%
G36*
X63500000Y-24750000D02*
G01*
X63000000Y-24750000D01*
X63000000Y-24749398D01*
X62975466Y-24749398D01*
X62926635Y-24744588D01*
X62878510Y-24735016D01*
X62831555Y-24720772D01*
X62786222Y-24701995D01*
X62742949Y-24678864D01*
X62702150Y-24651604D01*
X62664221Y-24620476D01*
X62629524Y-24585779D01*
X62598396Y-24547850D01*
X62571136Y-24507051D01*
X62548005Y-24463778D01*
X62529228Y-24418445D01*
X62514984Y-24371490D01*
X62505412Y-24323365D01*
X62500602Y-24274534D01*
X62500602Y-24250000D01*
X62500000Y-24250000D01*
X62500000Y-23750000D01*
X62500602Y-23750000D01*
X62500602Y-23725466D01*
X62505412Y-23676635D01*
X62514984Y-23628510D01*
X62529228Y-23581555D01*
X62548005Y-23536222D01*
X62571136Y-23492949D01*
X62598396Y-23452150D01*
X62629524Y-23414221D01*
X62664221Y-23379524D01*
X62702150Y-23348396D01*
X62742949Y-23321136D01*
X62786222Y-23298005D01*
X62831555Y-23279228D01*
X62878510Y-23264984D01*
X62926635Y-23255412D01*
X62975466Y-23250602D01*
X63000000Y-23250602D01*
X63000000Y-23250000D01*
X63500000Y-23250000D01*
X63500000Y-24750000D01*
G37*
G36*
X64300000Y-23250602D02*
G01*
X64324534Y-23250602D01*
X64373365Y-23255412D01*
X64421490Y-23264984D01*
X64468445Y-23279228D01*
X64513778Y-23298005D01*
X64557051Y-23321136D01*
X64597850Y-23348396D01*
X64635779Y-23379524D01*
X64670476Y-23414221D01*
X64701604Y-23452150D01*
X64728864Y-23492949D01*
X64751995Y-23536222D01*
X64770772Y-23581555D01*
X64785016Y-23628510D01*
X64794588Y-23676635D01*
X64799398Y-23725466D01*
X64799398Y-23750000D01*
X64800000Y-23750000D01*
X64800000Y-24250000D01*
X64799398Y-24250000D01*
X64799398Y-24274534D01*
X64794588Y-24323365D01*
X64785016Y-24371490D01*
X64770772Y-24418445D01*
X64751995Y-24463778D01*
X64728864Y-24507051D01*
X64701604Y-24547850D01*
X64670476Y-24585779D01*
X64635779Y-24620476D01*
X64597850Y-24651604D01*
X64557051Y-24678864D01*
X64513778Y-24701995D01*
X64468445Y-24720772D01*
X64421490Y-24735016D01*
X64373365Y-24744588D01*
X64324534Y-24749398D01*
X64300000Y-24749398D01*
X64300000Y-24750000D01*
X63800000Y-24750000D01*
X63800000Y-23250000D01*
X64300000Y-23250000D01*
X64300000Y-23250602D01*
G37*
%TD*%
%TO.C,JP5*%
G36*
X75500000Y-31750000D02*
G01*
X75000000Y-31750000D01*
X75000000Y-31749398D01*
X74975466Y-31749398D01*
X74926635Y-31744588D01*
X74878510Y-31735016D01*
X74831555Y-31720772D01*
X74786222Y-31701995D01*
X74742949Y-31678864D01*
X74702150Y-31651604D01*
X74664221Y-31620476D01*
X74629524Y-31585779D01*
X74598396Y-31547850D01*
X74571136Y-31507051D01*
X74548005Y-31463778D01*
X74529228Y-31418445D01*
X74514984Y-31371490D01*
X74505412Y-31323365D01*
X74500602Y-31274534D01*
X74500602Y-31250000D01*
X74500000Y-31250000D01*
X74500000Y-30750000D01*
X74500602Y-30750000D01*
X74500602Y-30725466D01*
X74505412Y-30676635D01*
X74514984Y-30628510D01*
X74529228Y-30581555D01*
X74548005Y-30536222D01*
X74571136Y-30492949D01*
X74598396Y-30452150D01*
X74629524Y-30414221D01*
X74664221Y-30379524D01*
X74702150Y-30348396D01*
X74742949Y-30321136D01*
X74786222Y-30298005D01*
X74831555Y-30279228D01*
X74878510Y-30264984D01*
X74926635Y-30255412D01*
X74975466Y-30250602D01*
X75000000Y-30250602D01*
X75000000Y-30250000D01*
X75500000Y-30250000D01*
X75500000Y-31750000D01*
G37*
G36*
X76300000Y-30250602D02*
G01*
X76324534Y-30250602D01*
X76373365Y-30255412D01*
X76421490Y-30264984D01*
X76468445Y-30279228D01*
X76513778Y-30298005D01*
X76557051Y-30321136D01*
X76597850Y-30348396D01*
X76635779Y-30379524D01*
X76670476Y-30414221D01*
X76701604Y-30452150D01*
X76728864Y-30492949D01*
X76751995Y-30536222D01*
X76770772Y-30581555D01*
X76785016Y-30628510D01*
X76794588Y-30676635D01*
X76799398Y-30725466D01*
X76799398Y-30750000D01*
X76800000Y-30750000D01*
X76800000Y-31250000D01*
X76799398Y-31250000D01*
X76799398Y-31274534D01*
X76794588Y-31323365D01*
X76785016Y-31371490D01*
X76770772Y-31418445D01*
X76751995Y-31463778D01*
X76728864Y-31507051D01*
X76701604Y-31547850D01*
X76670476Y-31585779D01*
X76635779Y-31620476D01*
X76597850Y-31651604D01*
X76557051Y-31678864D01*
X76513778Y-31701995D01*
X76468445Y-31720772D01*
X76421490Y-31735016D01*
X76373365Y-31744588D01*
X76324534Y-31749398D01*
X76300000Y-31749398D01*
X76300000Y-31750000D01*
X75800000Y-31750000D01*
X75800000Y-30250000D01*
X76300000Y-30250000D01*
X76300000Y-30250602D01*
G37*
%TD*%
%TO.C,D6*%
G36*
G01*
X72375000Y-31625000D02*
X72375000Y-30375000D01*
G75*
G02*
X72625000Y-30125000I250000J0D01*
G01*
X73375000Y-30125000D01*
G75*
G02*
X73625000Y-30375000I0J-250000D01*
G01*
X73625000Y-31625000D01*
G75*
G02*
X73375000Y-31875000I-250000J0D01*
G01*
X72625000Y-31875000D01*
G75*
G02*
X72375000Y-31625000I0J250000D01*
G01*
G37*
G36*
G01*
X69575000Y-31625000D02*
X69575000Y-30375000D01*
G75*
G02*
X69825000Y-30125000I250000J0D01*
G01*
X70575000Y-30125000D01*
G75*
G02*
X70825000Y-30375000I0J-250000D01*
G01*
X70825000Y-31625000D01*
G75*
G02*
X70575000Y-31875000I-250000J0D01*
G01*
X69825000Y-31875000D01*
G75*
G02*
X69575000Y-31625000I0J250000D01*
G01*
G37*
%TD*%
%TO.C,D5*%
G36*
G01*
X58375000Y-44625000D02*
X58375000Y-43375000D01*
G75*
G02*
X58625000Y-43125000I250000J0D01*
G01*
X59375000Y-43125000D01*
G75*
G02*
X59625000Y-43375000I0J-250000D01*
G01*
X59625000Y-44625000D01*
G75*
G02*
X59375000Y-44875000I-250000J0D01*
G01*
X58625000Y-44875000D01*
G75*
G02*
X58375000Y-44625000I0J250000D01*
G01*
G37*
G36*
G01*
X55575000Y-44625000D02*
X55575000Y-43375000D01*
G75*
G02*
X55825000Y-43125000I250000J0D01*
G01*
X56575000Y-43125000D01*
G75*
G02*
X56825000Y-43375000I0J-250000D01*
G01*
X56825000Y-44625000D01*
G75*
G02*
X56575000Y-44875000I-250000J0D01*
G01*
X55825000Y-44875000D01*
G75*
G02*
X55575000Y-44625000I0J250000D01*
G01*
G37*
%TD*%
%TO.C,D4*%
G36*
G01*
X60375000Y-24625000D02*
X60375000Y-23375000D01*
G75*
G02*
X60625000Y-23125000I250000J0D01*
G01*
X61375000Y-23125000D01*
G75*
G02*
X61625000Y-23375000I0J-250000D01*
G01*
X61625000Y-24625000D01*
G75*
G02*
X61375000Y-24875000I-250000J0D01*
G01*
X60625000Y-24875000D01*
G75*
G02*
X60375000Y-24625000I0J250000D01*
G01*
G37*
G36*
G01*
X57575000Y-24625000D02*
X57575000Y-23375000D01*
G75*
G02*
X57825000Y-23125000I250000J0D01*
G01*
X58575000Y-23125000D01*
G75*
G02*
X58825000Y-23375000I0J-250000D01*
G01*
X58825000Y-24625000D01*
G75*
G02*
X58575000Y-24875000I-250000J0D01*
G01*
X57825000Y-24875000D01*
G75*
G02*
X57575000Y-24625000I0J250000D01*
G01*
G37*
%TD*%
D15*
%TO.C,BR1*%
X28165580Y-57749590D03*
X28165580Y-52649590D03*
X36415580Y-57749590D03*
X36415580Y-52649590D03*
%TD*%
%TO.C,D3*%
G36*
G01*
X29105000Y-36645000D02*
X27855000Y-36645000D01*
G75*
G02*
X27605000Y-36395000I0J250000D01*
G01*
X27605000Y-35645000D01*
G75*
G02*
X27855000Y-35395000I250000J0D01*
G01*
X29105000Y-35395000D01*
G75*
G02*
X29355000Y-35645000I0J-250000D01*
G01*
X29355000Y-36395000D01*
G75*
G02*
X29105000Y-36645000I-250000J0D01*
G01*
G37*
G36*
G01*
X29105000Y-39445000D02*
X27855000Y-39445000D01*
G75*
G02*
X27605000Y-39195000I0J250000D01*
G01*
X27605000Y-38445000D01*
G75*
G02*
X27855000Y-38195000I250000J0D01*
G01*
X29105000Y-38195000D01*
G75*
G02*
X29355000Y-38445000I0J-250000D01*
G01*
X29355000Y-39195000D01*
G75*
G02*
X29105000Y-39445000I-250000J0D01*
G01*
G37*
%TD*%
D16*
%TO.C,U4*%
X62300000Y-29850000D03*
X57700000Y-29850000D03*
X60000000Y-29850000D03*
D17*
X60000000Y-36150000D03*
%TD*%
%TO.C,R8*%
G36*
G01*
X34122500Y-30074999D02*
X34122500Y-31325001D01*
G75*
G02*
X33872501Y-31575000I-249999J0D01*
G01*
X33247499Y-31575000D01*
G75*
G02*
X32997500Y-31325001I0J249999D01*
G01*
X32997500Y-30074999D01*
G75*
G02*
X33247499Y-29825000I249999J0D01*
G01*
X33872501Y-29825000D01*
G75*
G02*
X34122500Y-30074999I0J-249999D01*
G01*
G37*
G36*
G01*
X37047500Y-30074999D02*
X37047500Y-31325001D01*
G75*
G02*
X36797501Y-31575000I-249999J0D01*
G01*
X36172499Y-31575000D01*
G75*
G02*
X35922500Y-31325001I0J249999D01*
G01*
X35922500Y-30074999D01*
G75*
G02*
X36172499Y-29825000I249999J0D01*
G01*
X36797501Y-29825000D01*
G75*
G02*
X37047500Y-30074999I0J-249999D01*
G01*
G37*
%TD*%
%TO.C,R7*%
G36*
G01*
X28657500Y-32984999D02*
X28657500Y-34235001D01*
G75*
G02*
X28407501Y-34485000I-249999J0D01*
G01*
X27782499Y-34485000D01*
G75*
G02*
X27532500Y-34235001I0J249999D01*
G01*
X27532500Y-32984999D01*
G75*
G02*
X27782499Y-32735000I249999J0D01*
G01*
X28407501Y-32735000D01*
G75*
G02*
X28657500Y-32984999I0J-249999D01*
G01*
G37*
G36*
G01*
X31582500Y-32984999D02*
X31582500Y-34235001D01*
G75*
G02*
X31332501Y-34485000I-249999J0D01*
G01*
X30707499Y-34485000D01*
G75*
G02*
X30457500Y-34235001I0J249999D01*
G01*
X30457500Y-32984999D01*
G75*
G02*
X30707499Y-32735000I249999J0D01*
G01*
X31332501Y-32735000D01*
G75*
G02*
X31582500Y-32984999I0J-249999D01*
G01*
G37*
%TD*%
D18*
%TO.C,Q4*%
X39910000Y-29070000D03*
X40860000Y-31070000D03*
X38960000Y-31070000D03*
%TD*%
D19*
%TO.C,Q3*%
X35830000Y-34880000D03*
X33830000Y-35830000D03*
X33830000Y-33930000D03*
%TD*%
D18*
%TO.C,Q2*%
X39910000Y-33610000D03*
X40860000Y-35610000D03*
X38960000Y-35610000D03*
%TD*%
D12*
%TO.C,J3*%
X23400000Y-41230000D03*
X23400000Y-38690000D03*
D13*
X23400000Y-36150000D03*
%TD*%
%TO.C,D2*%
G36*
G01*
X30245000Y-43145000D02*
X30245000Y-44395000D01*
G75*
G02*
X29995000Y-44645000I-250000J0D01*
G01*
X29245000Y-44645000D01*
G75*
G02*
X28995000Y-44395000I0J250000D01*
G01*
X28995000Y-43145000D01*
G75*
G02*
X29245000Y-42895000I250000J0D01*
G01*
X29995000Y-42895000D01*
G75*
G02*
X30245000Y-43145000I0J-250000D01*
G01*
G37*
G36*
G01*
X33045000Y-43145000D02*
X33045000Y-44395000D01*
G75*
G02*
X32795000Y-44645000I-250000J0D01*
G01*
X32045000Y-44645000D01*
G75*
G02*
X31795000Y-44395000I0J250000D01*
G01*
X31795000Y-43145000D01*
G75*
G02*
X32045000Y-42895000I250000J0D01*
G01*
X32795000Y-42895000D01*
G75*
G02*
X33045000Y-43145000I0J-250000D01*
G01*
G37*
%TD*%
%TO.C,C6*%
G36*
G01*
X62650000Y-39425001D02*
X62650000Y-38574999D01*
G75*
G02*
X62899999Y-38325000I249999J0D01*
G01*
X63800001Y-38325000D01*
G75*
G02*
X64050000Y-38574999I0J-249999D01*
G01*
X64050000Y-39425001D01*
G75*
G02*
X63800001Y-39675000I-249999J0D01*
G01*
X62899999Y-39675000D01*
G75*
G02*
X62650000Y-39425001I0J249999D01*
G01*
G37*
G36*
G01*
X59950000Y-39425001D02*
X59950000Y-38574999D01*
G75*
G02*
X60199999Y-38325000I249999J0D01*
G01*
X61100001Y-38325000D01*
G75*
G02*
X61350000Y-38574999I0J-249999D01*
G01*
X61350000Y-39425001D01*
G75*
G02*
X61100001Y-39675000I-249999J0D01*
G01*
X60199999Y-39675000D01*
G75*
G02*
X59950000Y-39425001I0J249999D01*
G01*
G37*
%TD*%
%TO.C,C5*%
G36*
G01*
X53574999Y-31650000D02*
X54425001Y-31650000D01*
G75*
G02*
X54675000Y-31899999I0J-249999D01*
G01*
X54675000Y-32800001D01*
G75*
G02*
X54425001Y-33050000I-249999J0D01*
G01*
X53574999Y-33050000D01*
G75*
G02*
X53325000Y-32800001I0J249999D01*
G01*
X53325000Y-31899999D01*
G75*
G02*
X53574999Y-31650000I249999J0D01*
G01*
G37*
G36*
G01*
X53574999Y-28950000D02*
X54425001Y-28950000D01*
G75*
G02*
X54675000Y-29199999I0J-249999D01*
G01*
X54675000Y-30100001D01*
G75*
G02*
X54425001Y-30350000I-249999J0D01*
G01*
X53574999Y-30350000D01*
G75*
G02*
X53325000Y-30100001I0J249999D01*
G01*
X53325000Y-29199999D01*
G75*
G02*
X53574999Y-28950000I249999J0D01*
G01*
G37*
%TD*%
%TO.C,C4*%
G36*
G01*
X36275000Y-44045001D02*
X36275000Y-43494999D01*
G75*
G02*
X36524999Y-43245000I249999J0D01*
G01*
X37100001Y-43245000D01*
G75*
G02*
X37350000Y-43494999I0J-249999D01*
G01*
X37350000Y-44045001D01*
G75*
G02*
X37100001Y-44295000I-249999J0D01*
G01*
X36524999Y-44295000D01*
G75*
G02*
X36275000Y-44045001I0J249999D01*
G01*
G37*
G36*
G01*
X34850000Y-44045001D02*
X34850000Y-43494999D01*
G75*
G02*
X35099999Y-43245000I249999J0D01*
G01*
X35675001Y-43245000D01*
G75*
G02*
X35925000Y-43494999I0J-249999D01*
G01*
X35925000Y-44045001D01*
G75*
G02*
X35675001Y-44295000I-249999J0D01*
G01*
X35099999Y-44295000D01*
G75*
G02*
X34850000Y-44045001I0J249999D01*
G01*
G37*
%TD*%
D20*
%TO.C,U3*%
X51235000Y-51270000D03*
X60765000Y-48730000D03*
X51235000Y-48730000D03*
X60765000Y-51270000D03*
%TD*%
%TO.C,U2*%
X56765000Y-60190000D03*
X47235000Y-67810000D03*
X56765000Y-62730000D03*
X47235000Y-65270000D03*
X56765000Y-65270000D03*
X47235000Y-62730000D03*
X56765000Y-67810000D03*
X47235000Y-60190000D03*
%TD*%
D16*
%TO.C,U1*%
X50300000Y-29850000D03*
X45700000Y-29850000D03*
X48000000Y-29850000D03*
D17*
X48000000Y-36150000D03*
%TD*%
%TO.C,R5*%
G36*
G01*
X64450001Y-60600000D02*
X63549999Y-60600000D01*
G75*
G02*
X63300000Y-60350001I0J249999D01*
G01*
X63300000Y-59824999D01*
G75*
G02*
X63549999Y-59575000I249999J0D01*
G01*
X64450001Y-59575000D01*
G75*
G02*
X64700000Y-59824999I0J-249999D01*
G01*
X64700000Y-60350001D01*
G75*
G02*
X64450001Y-60600000I-249999J0D01*
G01*
G37*
G36*
G01*
X64450001Y-62425000D02*
X63549999Y-62425000D01*
G75*
G02*
X63300000Y-62175001I0J249999D01*
G01*
X63300000Y-61649999D01*
G75*
G02*
X63549999Y-61400000I249999J0D01*
G01*
X64450001Y-61400000D01*
G75*
G02*
X64700000Y-61649999I0J-249999D01*
G01*
X64700000Y-62175001D01*
G75*
G02*
X64450001Y-62425000I-249999J0D01*
G01*
G37*
%TD*%
%TO.C,R4*%
G36*
G01*
X60450001Y-60512500D02*
X59549999Y-60512500D01*
G75*
G02*
X59300000Y-60262501I0J249999D01*
G01*
X59300000Y-59737499D01*
G75*
G02*
X59549999Y-59487500I249999J0D01*
G01*
X60450001Y-59487500D01*
G75*
G02*
X60700000Y-59737499I0J-249999D01*
G01*
X60700000Y-60262501D01*
G75*
G02*
X60450001Y-60512500I-249999J0D01*
G01*
G37*
G36*
G01*
X60450001Y-62337500D02*
X59549999Y-62337500D01*
G75*
G02*
X59300000Y-62087501I0J249999D01*
G01*
X59300000Y-61562499D01*
G75*
G02*
X59549999Y-61312500I249999J0D01*
G01*
X60450001Y-61312500D01*
G75*
G02*
X60700000Y-61562499I0J-249999D01*
G01*
X60700000Y-62087501D01*
G75*
G02*
X60450001Y-62337500I-249999J0D01*
G01*
G37*
%TD*%
%TO.C,R3*%
G36*
G01*
X63549999Y-50400000D02*
X64450001Y-50400000D01*
G75*
G02*
X64700000Y-50649999I0J-249999D01*
G01*
X64700000Y-51175001D01*
G75*
G02*
X64450001Y-51425000I-249999J0D01*
G01*
X63549999Y-51425000D01*
G75*
G02*
X63300000Y-51175001I0J249999D01*
G01*
X63300000Y-50649999D01*
G75*
G02*
X63549999Y-50400000I249999J0D01*
G01*
G37*
G36*
G01*
X63549999Y-48575000D02*
X64450001Y-48575000D01*
G75*
G02*
X64700000Y-48824999I0J-249999D01*
G01*
X64700000Y-49350001D01*
G75*
G02*
X64450001Y-49600000I-249999J0D01*
G01*
X63549999Y-49600000D01*
G75*
G02*
X63300000Y-49350001I0J249999D01*
G01*
X63300000Y-48824999D01*
G75*
G02*
X63549999Y-48575000I249999J0D01*
G01*
G37*
%TD*%
%TO.C,R2*%
G36*
G01*
X39600000Y-62549999D02*
X39600000Y-63450001D01*
G75*
G02*
X39350001Y-63700000I-249999J0D01*
G01*
X38824999Y-63700000D01*
G75*
G02*
X38575000Y-63450001I0J249999D01*
G01*
X38575000Y-62549999D01*
G75*
G02*
X38824999Y-62300000I249999J0D01*
G01*
X39350001Y-62300000D01*
G75*
G02*
X39600000Y-62549999I0J-249999D01*
G01*
G37*
G36*
G01*
X41425000Y-62549999D02*
X41425000Y-63450001D01*
G75*
G02*
X41175001Y-63700000I-249999J0D01*
G01*
X40649999Y-63700000D01*
G75*
G02*
X40400000Y-63450001I0J249999D01*
G01*
X40400000Y-62549999D01*
G75*
G02*
X40649999Y-62300000I249999J0D01*
G01*
X41175001Y-62300000D01*
G75*
G02*
X41425000Y-62549999I0J-249999D01*
G01*
G37*
%TD*%
%TO.C,R1*%
G36*
G01*
X44374999Y-50900000D02*
X45625001Y-50900000D01*
G75*
G02*
X45875000Y-51149999I0J-249999D01*
G01*
X45875000Y-51775001D01*
G75*
G02*
X45625001Y-52025000I-249999J0D01*
G01*
X44374999Y-52025000D01*
G75*
G02*
X44125000Y-51775001I0J249999D01*
G01*
X44125000Y-51149999D01*
G75*
G02*
X44374999Y-50900000I249999J0D01*
G01*
G37*
G36*
G01*
X44374999Y-47975000D02*
X45625001Y-47975000D01*
G75*
G02*
X45875000Y-48224999I0J-249999D01*
G01*
X45875000Y-48850001D01*
G75*
G02*
X45625001Y-49100000I-249999J0D01*
G01*
X44374999Y-49100000D01*
G75*
G02*
X44125000Y-48850001I0J249999D01*
G01*
X44125000Y-48224999D01*
G75*
G02*
X44374999Y-47975000I249999J0D01*
G01*
G37*
%TD*%
D19*
%TO.C,Q1*%
X47000000Y-50000000D03*
X49000000Y-49050000D03*
X49000000Y-50950000D03*
%TD*%
D14*
%TO.C,JP4*%
G36*
X33040000Y-47730000D02*
G01*
X33040000Y-48230000D01*
X33039398Y-48230000D01*
X33039398Y-48254534D01*
X33034588Y-48303365D01*
X33025016Y-48351490D01*
X33010772Y-48398445D01*
X32991995Y-48443778D01*
X32968864Y-48487051D01*
X32941604Y-48527850D01*
X32910476Y-48565779D01*
X32875779Y-48600476D01*
X32837850Y-48631604D01*
X32797051Y-48658864D01*
X32753778Y-48681995D01*
X32708445Y-48700772D01*
X32661490Y-48715016D01*
X32613365Y-48724588D01*
X32564534Y-48729398D01*
X32540000Y-48729398D01*
X32540000Y-48730000D01*
X32040000Y-48730000D01*
X32040000Y-48729398D01*
X32015466Y-48729398D01*
X31966635Y-48724588D01*
X31918510Y-48715016D01*
X31871555Y-48700772D01*
X31826222Y-48681995D01*
X31782949Y-48658864D01*
X31742150Y-48631604D01*
X31704221Y-48600476D01*
X31669524Y-48565779D01*
X31638396Y-48527850D01*
X31611136Y-48487051D01*
X31588005Y-48443778D01*
X31569228Y-48398445D01*
X31554984Y-48351490D01*
X31545412Y-48303365D01*
X31540602Y-48254534D01*
X31540602Y-48230000D01*
X31540000Y-48230000D01*
X31540000Y-47730000D01*
X33040000Y-47730000D01*
G37*
G36*
X31540602Y-46930000D02*
G01*
X31540602Y-46905466D01*
X31545412Y-46856635D01*
X31554984Y-46808510D01*
X31569228Y-46761555D01*
X31588005Y-46716222D01*
X31611136Y-46672949D01*
X31638396Y-46632150D01*
X31669524Y-46594221D01*
X31704221Y-46559524D01*
X31742150Y-46528396D01*
X31782949Y-46501136D01*
X31826222Y-46478005D01*
X31871555Y-46459228D01*
X31918510Y-46444984D01*
X31966635Y-46435412D01*
X32015466Y-46430602D01*
X32040000Y-46430602D01*
X32040000Y-46430000D01*
X32540000Y-46430000D01*
X32540000Y-46430602D01*
X32564534Y-46430602D01*
X32613365Y-46435412D01*
X32661490Y-46444984D01*
X32708445Y-46459228D01*
X32753778Y-46478005D01*
X32797051Y-46501136D01*
X32837850Y-46528396D01*
X32875779Y-46559524D01*
X32910476Y-46594221D01*
X32941604Y-46632150D01*
X32968864Y-46672949D01*
X32991995Y-46716222D01*
X33010772Y-46761555D01*
X33025016Y-46808510D01*
X33034588Y-46856635D01*
X33039398Y-46905466D01*
X33039398Y-46930000D01*
X33040000Y-46930000D01*
X33040000Y-47430000D01*
X31540000Y-47430000D01*
X31540000Y-46930000D01*
X31540602Y-46930000D01*
G37*
%TD*%
%TO.C,JP3*%
G36*
X38120000Y-47730000D02*
G01*
X38120000Y-48230000D01*
X38119398Y-48230000D01*
X38119398Y-48254534D01*
X38114588Y-48303365D01*
X38105016Y-48351490D01*
X38090772Y-48398445D01*
X38071995Y-48443778D01*
X38048864Y-48487051D01*
X38021604Y-48527850D01*
X37990476Y-48565779D01*
X37955779Y-48600476D01*
X37917850Y-48631604D01*
X37877051Y-48658864D01*
X37833778Y-48681995D01*
X37788445Y-48700772D01*
X37741490Y-48715016D01*
X37693365Y-48724588D01*
X37644534Y-48729398D01*
X37620000Y-48729398D01*
X37620000Y-48730000D01*
X37120000Y-48730000D01*
X37120000Y-48729398D01*
X37095466Y-48729398D01*
X37046635Y-48724588D01*
X36998510Y-48715016D01*
X36951555Y-48700772D01*
X36906222Y-48681995D01*
X36862949Y-48658864D01*
X36822150Y-48631604D01*
X36784221Y-48600476D01*
X36749524Y-48565779D01*
X36718396Y-48527850D01*
X36691136Y-48487051D01*
X36668005Y-48443778D01*
X36649228Y-48398445D01*
X36634984Y-48351490D01*
X36625412Y-48303365D01*
X36620602Y-48254534D01*
X36620602Y-48230000D01*
X36620000Y-48230000D01*
X36620000Y-47730000D01*
X38120000Y-47730000D01*
G37*
G36*
X36620602Y-46930000D02*
G01*
X36620602Y-46905466D01*
X36625412Y-46856635D01*
X36634984Y-46808510D01*
X36649228Y-46761555D01*
X36668005Y-46716222D01*
X36691136Y-46672949D01*
X36718396Y-46632150D01*
X36749524Y-46594221D01*
X36784221Y-46559524D01*
X36822150Y-46528396D01*
X36862949Y-46501136D01*
X36906222Y-46478005D01*
X36951555Y-46459228D01*
X36998510Y-46444984D01*
X37046635Y-46435412D01*
X37095466Y-46430602D01*
X37120000Y-46430602D01*
X37120000Y-46430000D01*
X37620000Y-46430000D01*
X37620000Y-46430602D01*
X37644534Y-46430602D01*
X37693365Y-46435412D01*
X37741490Y-46444984D01*
X37788445Y-46459228D01*
X37833778Y-46478005D01*
X37877051Y-46501136D01*
X37917850Y-46528396D01*
X37955779Y-46559524D01*
X37990476Y-46594221D01*
X38021604Y-46632150D01*
X38048864Y-46672949D01*
X38071995Y-46716222D01*
X38090772Y-46761555D01*
X38105016Y-46808510D01*
X38114588Y-46856635D01*
X38119398Y-46905466D01*
X38119398Y-46930000D01*
X38120000Y-46930000D01*
X38120000Y-47430000D01*
X36620000Y-47430000D01*
X36620000Y-46930000D01*
X36620602Y-46930000D01*
G37*
%TD*%
%TO.C,JP2*%
G36*
X24170000Y-51910000D02*
G01*
X24670000Y-51910000D01*
X24670000Y-51910602D01*
X24694534Y-51910602D01*
X24743365Y-51915412D01*
X24791490Y-51924984D01*
X24838445Y-51939228D01*
X24883778Y-51958005D01*
X24927051Y-51981136D01*
X24967850Y-52008396D01*
X25005779Y-52039524D01*
X25040476Y-52074221D01*
X25071604Y-52112150D01*
X25098864Y-52152949D01*
X25121995Y-52196222D01*
X25140772Y-52241555D01*
X25155016Y-52288510D01*
X25164588Y-52336635D01*
X25169398Y-52385466D01*
X25169398Y-52410000D01*
X25170000Y-52410000D01*
X25170000Y-52910000D01*
X25169398Y-52910000D01*
X25169398Y-52934534D01*
X25164588Y-52983365D01*
X25155016Y-53031490D01*
X25140772Y-53078445D01*
X25121995Y-53123778D01*
X25098864Y-53167051D01*
X25071604Y-53207850D01*
X25040476Y-53245779D01*
X25005779Y-53280476D01*
X24967850Y-53311604D01*
X24927051Y-53338864D01*
X24883778Y-53361995D01*
X24838445Y-53380772D01*
X24791490Y-53395016D01*
X24743365Y-53404588D01*
X24694534Y-53409398D01*
X24670000Y-53409398D01*
X24670000Y-53410000D01*
X24170000Y-53410000D01*
X24170000Y-51910000D01*
G37*
G36*
X23370000Y-53409398D02*
G01*
X23345466Y-53409398D01*
X23296635Y-53404588D01*
X23248510Y-53395016D01*
X23201555Y-53380772D01*
X23156222Y-53361995D01*
X23112949Y-53338864D01*
X23072150Y-53311604D01*
X23034221Y-53280476D01*
X22999524Y-53245779D01*
X22968396Y-53207850D01*
X22941136Y-53167051D01*
X22918005Y-53123778D01*
X22899228Y-53078445D01*
X22884984Y-53031490D01*
X22875412Y-52983365D01*
X22870602Y-52934534D01*
X22870602Y-52910000D01*
X22870000Y-52910000D01*
X22870000Y-52410000D01*
X22870602Y-52410000D01*
X22870602Y-52385466D01*
X22875412Y-52336635D01*
X22884984Y-52288510D01*
X22899228Y-52241555D01*
X22918005Y-52196222D01*
X22941136Y-52152949D01*
X22968396Y-52112150D01*
X22999524Y-52074221D01*
X23034221Y-52039524D01*
X23072150Y-52008396D01*
X23112949Y-51981136D01*
X23156222Y-51958005D01*
X23201555Y-51939228D01*
X23248510Y-51924984D01*
X23296635Y-51915412D01*
X23345466Y-51910602D01*
X23370000Y-51910602D01*
X23370000Y-51910000D01*
X23870000Y-51910000D01*
X23870000Y-53410000D01*
X23370000Y-53410000D01*
X23370000Y-53409398D01*
G37*
%TD*%
%TO.C,JP1*%
G36*
X24170000Y-56990000D02*
G01*
X24670000Y-56990000D01*
X24670000Y-56990602D01*
X24694534Y-56990602D01*
X24743365Y-56995412D01*
X24791490Y-57004984D01*
X24838445Y-57019228D01*
X24883778Y-57038005D01*
X24927051Y-57061136D01*
X24967850Y-57088396D01*
X25005779Y-57119524D01*
X25040476Y-57154221D01*
X25071604Y-57192150D01*
X25098864Y-57232949D01*
X25121995Y-57276222D01*
X25140772Y-57321555D01*
X25155016Y-57368510D01*
X25164588Y-57416635D01*
X25169398Y-57465466D01*
X25169398Y-57490000D01*
X25170000Y-57490000D01*
X25170000Y-57990000D01*
X25169398Y-57990000D01*
X25169398Y-58014534D01*
X25164588Y-58063365D01*
X25155016Y-58111490D01*
X25140772Y-58158445D01*
X25121995Y-58203778D01*
X25098864Y-58247051D01*
X25071604Y-58287850D01*
X25040476Y-58325779D01*
X25005779Y-58360476D01*
X24967850Y-58391604D01*
X24927051Y-58418864D01*
X24883778Y-58441995D01*
X24838445Y-58460772D01*
X24791490Y-58475016D01*
X24743365Y-58484588D01*
X24694534Y-58489398D01*
X24670000Y-58489398D01*
X24670000Y-58490000D01*
X24170000Y-58490000D01*
X24170000Y-56990000D01*
G37*
G36*
X23370000Y-58489398D02*
G01*
X23345466Y-58489398D01*
X23296635Y-58484588D01*
X23248510Y-58475016D01*
X23201555Y-58460772D01*
X23156222Y-58441995D01*
X23112949Y-58418864D01*
X23072150Y-58391604D01*
X23034221Y-58360476D01*
X22999524Y-58325779D01*
X22968396Y-58287850D01*
X22941136Y-58247051D01*
X22918005Y-58203778D01*
X22899228Y-58158445D01*
X22884984Y-58111490D01*
X22875412Y-58063365D01*
X22870602Y-58014534D01*
X22870602Y-57990000D01*
X22870000Y-57990000D01*
X22870000Y-57490000D01*
X22870602Y-57490000D01*
X22870602Y-57465466D01*
X22875412Y-57416635D01*
X22884984Y-57368510D01*
X22899228Y-57321555D01*
X22918005Y-57276222D01*
X22941136Y-57232949D01*
X22968396Y-57192150D01*
X22999524Y-57154221D01*
X23034221Y-57119524D01*
X23072150Y-57088396D01*
X23112949Y-57061136D01*
X23156222Y-57038005D01*
X23201555Y-57019228D01*
X23248510Y-57004984D01*
X23296635Y-56995412D01*
X23345466Y-56990602D01*
X23370000Y-56990602D01*
X23370000Y-56990000D01*
X23870000Y-56990000D01*
X23870000Y-58490000D01*
X23370000Y-58490000D01*
X23370000Y-58489398D01*
G37*
%TD*%
D21*
%TO.C,J1*%
X28000000Y-67500000D03*
G36*
G01*
X27250000Y-64150000D02*
X28750000Y-64150000D01*
G75*
G02*
X29000000Y-64400000I0J-250000D01*
G01*
X29000000Y-65600000D01*
G75*
G02*
X28750000Y-65850000I-250000J0D01*
G01*
X27250000Y-65850000D01*
G75*
G02*
X27000000Y-65600000I0J250000D01*
G01*
X27000000Y-64400000D01*
G75*
G02*
X27250000Y-64150000I250000J0D01*
G01*
G37*
%TD*%
D22*
%TO.C,D1*%
X41000000Y-68100000D03*
X41000000Y-65900000D03*
%TD*%
%TO.C,C3*%
G36*
G01*
X55550000Y-56525000D02*
X55550000Y-57475000D01*
G75*
G02*
X55300000Y-57725000I-250000J0D01*
G01*
X54800000Y-57725000D01*
G75*
G02*
X54550000Y-57475000I0J250000D01*
G01*
X54550000Y-56525000D01*
G75*
G02*
X54800000Y-56275000I250000J0D01*
G01*
X55300000Y-56275000D01*
G75*
G02*
X55550000Y-56525000I0J-250000D01*
G01*
G37*
G36*
G01*
X57450000Y-56525000D02*
X57450000Y-57475000D01*
G75*
G02*
X57200000Y-57725000I-250000J0D01*
G01*
X56700000Y-57725000D01*
G75*
G02*
X56450000Y-57475000I0J250000D01*
G01*
X56450000Y-56525000D01*
G75*
G02*
X56700000Y-56275000I250000J0D01*
G01*
X57200000Y-56275000D01*
G75*
G02*
X57450000Y-56525000I0J-250000D01*
G01*
G37*
%TD*%
%TO.C,C2*%
G36*
G01*
X49650000Y-39425001D02*
X49650000Y-38574999D01*
G75*
G02*
X49899999Y-38325000I249999J0D01*
G01*
X50800001Y-38325000D01*
G75*
G02*
X51050000Y-38574999I0J-249999D01*
G01*
X51050000Y-39425001D01*
G75*
G02*
X50800001Y-39675000I-249999J0D01*
G01*
X49899999Y-39675000D01*
G75*
G02*
X49650000Y-39425001I0J249999D01*
G01*
G37*
G36*
G01*
X46950000Y-39425001D02*
X46950000Y-38574999D01*
G75*
G02*
X47199999Y-38325000I249999J0D01*
G01*
X48100001Y-38325000D01*
G75*
G02*
X48350000Y-38574999I0J-249999D01*
G01*
X48350000Y-39425001D01*
G75*
G02*
X48100001Y-39675000I-249999J0D01*
G01*
X47199999Y-39675000D01*
G75*
G02*
X46950000Y-39425001I0J249999D01*
G01*
G37*
%TD*%
%TO.C,C1*%
G36*
G01*
X47650000Y-26425001D02*
X47650000Y-25574999D01*
G75*
G02*
X47899999Y-25325000I249999J0D01*
G01*
X48800001Y-25325000D01*
G75*
G02*
X49050000Y-25574999I0J-249999D01*
G01*
X49050000Y-26425001D01*
G75*
G02*
X48800001Y-26675000I-249999J0D01*
G01*
X47899999Y-26675000D01*
G75*
G02*
X47650000Y-26425001I0J249999D01*
G01*
G37*
G36*
G01*
X44950000Y-26425001D02*
X44950000Y-25574999D01*
G75*
G02*
X45199999Y-25325000I249999J0D01*
G01*
X46100001Y-25325000D01*
G75*
G02*
X46350000Y-25574999I0J-249999D01*
G01*
X46350000Y-26425001D01*
G75*
G02*
X46100001Y-26675000I-249999J0D01*
G01*
X45199999Y-26675000D01*
G75*
G02*
X44950000Y-26425001I0J249999D01*
G01*
G37*
%TD*%
M02*
