%TF.GenerationSoftware,KiCad,Pcbnew,5.1.10-88a1d61d58~90~ubuntu21.04.1*%
%TF.CreationDate,2021-07-30T10:57:06+02:00*%
%TF.ProjectId,DccDecoder,44636344-6563-46f6-9465-722e6b696361,rev?*%
%TF.SameCoordinates,Original*%
%TF.FileFunction,Copper,L2,Inr*%
%TF.FilePolarity,Positive*%
%FSLAX46Y46*%
G04 Gerber Fmt 4.6, Leading zero omitted, Abs format (unit mm)*
G04 Created by KiCad (PCBNEW 5.1.10-88a1d61d58~90~ubuntu21.04.1) date 2021-07-30 10:57:06*
%MOMM*%
%LPD*%
G01*
G04 APERTURE LIST*
%TA.AperFunction,ComponentPad*%
%ADD10C,4.700000*%
%TD*%
%TA.AperFunction,ComponentPad*%
%ADD11O,1.700000X1.700000*%
%TD*%
%TA.AperFunction,ComponentPad*%
%ADD12R,1.700000X1.700000*%
%TD*%
%TA.AperFunction,ComponentPad*%
%ADD13R,3.500000X3.500000*%
%TD*%
%TA.AperFunction,ComponentPad*%
%ADD14O,1.950000X1.700000*%
%TD*%
%TA.AperFunction,ComponentPad*%
%ADD15O,2.000000X1.700000*%
%TD*%
%TA.AperFunction,ViaPad*%
%ADD16C,0.800000*%
%TD*%
%TA.AperFunction,Conductor*%
%ADD17C,0.254000*%
%TD*%
%TA.AperFunction,Conductor*%
%ADD18C,0.100000*%
%TD*%
G04 APERTURE END LIST*
D10*
%TO.N,GND*%
%TO.C,H3*%
X111000000Y-24000000D03*
%TD*%
%TO.N,GND*%
%TO.C,H2*%
X111000000Y-62000000D03*
%TD*%
%TO.N,GND*%
%TO.C,H1*%
X24000000Y-62000000D03*
%TD*%
D11*
%TO.N,+3V3*%
%TO.C,J6*%
X92040000Y-63000000D03*
D12*
%TO.N,GND*%
X89500000Y-63000000D03*
%TD*%
D11*
%TO.N,+5V*%
%TO.C,J5*%
X71750000Y-63000000D03*
D12*
%TO.N,GND*%
X69210000Y-63000000D03*
%TD*%
%TO.N,GND*%
%TO.C,J2*%
%TA.AperFunction,ComponentPad*%
G36*
G01*
X24250000Y-30575000D02*
X24250000Y-28825000D01*
G75*
G02*
X25125000Y-27950000I875000J0D01*
G01*
X26875000Y-27950000D01*
G75*
G02*
X27750000Y-28825000I0J-875000D01*
G01*
X27750000Y-30575000D01*
G75*
G02*
X26875000Y-31450000I-875000J0D01*
G01*
X25125000Y-31450000D01*
G75*
G02*
X24250000Y-30575000I0J875000D01*
G01*
G37*
%TD.AperFunction*%
%TA.AperFunction,ComponentPad*%
G36*
G01*
X21500000Y-26000000D02*
X21500000Y-24000000D01*
G75*
G02*
X22250000Y-23250000I750000J0D01*
G01*
X23750000Y-23250000D01*
G75*
G02*
X24500000Y-24000000I0J-750000D01*
G01*
X24500000Y-26000000D01*
G75*
G02*
X23750000Y-26750000I-750000J0D01*
G01*
X22250000Y-26750000D01*
G75*
G02*
X21500000Y-26000000I0J750000D01*
G01*
G37*
%TD.AperFunction*%
D13*
%TO.N,/Power Distribution/Vin*%
X29000000Y-25000000D03*
%TD*%
D14*
%TO.N,GND*%
%TO.C,J7*%
X107000000Y-39500000D03*
%TO.N,/_dcc*%
X107000000Y-42000000D03*
%TO.N,/_ack*%
X107000000Y-44500000D03*
%TO.N,+5V*%
%TA.AperFunction,ComponentPad*%
G36*
G01*
X107725000Y-47850000D02*
X106275000Y-47850000D01*
G75*
G02*
X106025000Y-47600000I0J250000D01*
G01*
X106025000Y-46400000D01*
G75*
G02*
X106275000Y-46150000I250000J0D01*
G01*
X107725000Y-46150000D01*
G75*
G02*
X107975000Y-46400000I0J-250000D01*
G01*
X107975000Y-47600000D01*
G75*
G02*
X107725000Y-47850000I-250000J0D01*
G01*
G37*
%TD.AperFunction*%
%TD*%
D11*
%TO.N,Vdrive*%
%TO.C,J4*%
X40540000Y-63000000D03*
D12*
%TO.N,GND*%
X38000000Y-63000000D03*
%TD*%
D11*
%TO.N,/Dcc Interface/DccPower*%
%TO.C,J3*%
X23400000Y-41230000D03*
%TO.N,Vdrive*%
X23400000Y-38690000D03*
D12*
%TO.N,/Power Distribution/Vin*%
X23400000Y-36150000D03*
%TD*%
D15*
%TO.N,/Dcc Interface/J*%
%TO.C,J1*%
X27000000Y-49500000D03*
%TO.N,/Dcc Interface/K*%
%TA.AperFunction,ComponentPad*%
G36*
G01*
X26250000Y-46150000D02*
X27750000Y-46150000D01*
G75*
G02*
X28000000Y-46400000I0J-250000D01*
G01*
X28000000Y-47600000D01*
G75*
G02*
X27750000Y-47850000I-250000J0D01*
G01*
X26250000Y-47850000D01*
G75*
G02*
X26000000Y-47600000I0J250000D01*
G01*
X26000000Y-46400000D01*
G75*
G02*
X26250000Y-46150000I250000J0D01*
G01*
G37*
%TD.AperFunction*%
%TD*%
D16*
%TO.N,GND*%
X102000000Y-48500000D03*
X61250000Y-31250000D03*
X60250000Y-31250000D03*
X59250000Y-31250000D03*
X62250000Y-31250000D03*
X79500000Y-46500000D03*
X79500000Y-49500000D03*
X59000000Y-36000000D03*
X45800000Y-31400000D03*
X44200000Y-27400000D03*
%TO.N,Vdrive*%
X50600000Y-21400000D03*
X49600000Y-21400000D03*
X48600000Y-21400000D03*
X26310000Y-38690000D03*
X27439988Y-38690000D03*
X28750000Y-38690000D03*
%TO.N,+5V*%
X59000000Y-53000000D03*
X60000000Y-53000000D03*
X61000000Y-53000000D03*
X61000000Y-52000000D03*
X60000000Y-52000000D03*
X59000000Y-52000000D03*
X69000000Y-53000000D03*
X68000000Y-53000000D03*
X69000000Y-23000000D03*
%TO.N,/Dcc Interface/K*%
X74000000Y-53250000D03*
%TO.N,/Dcc Interface/J*%
X35500000Y-51500000D03*
X73500000Y-50000000D03*
%TO.N,+3V3*%
X86025000Y-29975000D03*
X84350000Y-29650000D03*
%TO.N,/Dcc Interface/DccP+*%
X51000000Y-48750000D03*
X78250410Y-42749590D03*
%TO.N,/Dcc Interface/DccP-*%
X51000000Y-39250000D03*
X78250000Y-38250000D03*
%TD*%
D17*
%TO.N,GND*%
X47796063Y-20740226D02*
X47682795Y-20909744D01*
X47604774Y-21098102D01*
X47565000Y-21298061D01*
X47565000Y-21501939D01*
X47604774Y-21701898D01*
X47682795Y-21890256D01*
X47796063Y-22059774D01*
X47940226Y-22203937D01*
X48109744Y-22317205D01*
X48298102Y-22395226D01*
X48498061Y-22435000D01*
X48701939Y-22435000D01*
X48901898Y-22395226D01*
X49090256Y-22317205D01*
X49100000Y-22310694D01*
X49109744Y-22317205D01*
X49298102Y-22395226D01*
X49498061Y-22435000D01*
X49701939Y-22435000D01*
X49901898Y-22395226D01*
X50090256Y-22317205D01*
X50100000Y-22310694D01*
X50109744Y-22317205D01*
X50298102Y-22395226D01*
X50498061Y-22435000D01*
X50701939Y-22435000D01*
X50901898Y-22395226D01*
X51090256Y-22317205D01*
X51259774Y-22203937D01*
X51403937Y-22059774D01*
X51517205Y-21890256D01*
X51595226Y-21701898D01*
X51635000Y-21501939D01*
X51635000Y-21298061D01*
X51595226Y-21098102D01*
X51517205Y-20909744D01*
X51403937Y-20740226D01*
X51323711Y-20660000D01*
X110967722Y-20660000D01*
X111648126Y-20726714D01*
X112271572Y-20914943D01*
X112846579Y-21220681D01*
X113351247Y-21632279D01*
X113766362Y-22134067D01*
X114076105Y-22706924D01*
X114268682Y-23329039D01*
X114340001Y-24007594D01*
X114340000Y-61967721D01*
X114273286Y-62648126D01*
X114085057Y-63271570D01*
X113779323Y-63846573D01*
X113367721Y-64351248D01*
X112865933Y-64766362D01*
X112293077Y-65076104D01*
X111670961Y-65268682D01*
X110992417Y-65340000D01*
X24032279Y-65340000D01*
X23351874Y-65273286D01*
X22728430Y-65085057D01*
X22153427Y-64779323D01*
X21648752Y-64367721D01*
X21233638Y-63865933D01*
X20923896Y-63293077D01*
X20787898Y-62853740D01*
X39055000Y-62853740D01*
X39055000Y-63146260D01*
X39112068Y-63433158D01*
X39224010Y-63703411D01*
X39386525Y-63946632D01*
X39593368Y-64153475D01*
X39836589Y-64315990D01*
X40106842Y-64427932D01*
X40393740Y-64485000D01*
X40686260Y-64485000D01*
X40973158Y-64427932D01*
X41243411Y-64315990D01*
X41486632Y-64153475D01*
X41693475Y-63946632D01*
X41855990Y-63703411D01*
X41967932Y-63433158D01*
X42025000Y-63146260D01*
X42025000Y-62853740D01*
X70265000Y-62853740D01*
X70265000Y-63146260D01*
X70322068Y-63433158D01*
X70434010Y-63703411D01*
X70596525Y-63946632D01*
X70803368Y-64153475D01*
X71046589Y-64315990D01*
X71316842Y-64427932D01*
X71603740Y-64485000D01*
X71896260Y-64485000D01*
X72183158Y-64427932D01*
X72453411Y-64315990D01*
X72696632Y-64153475D01*
X72903475Y-63946632D01*
X73065990Y-63703411D01*
X73177932Y-63433158D01*
X73235000Y-63146260D01*
X73235000Y-62853740D01*
X90555000Y-62853740D01*
X90555000Y-63146260D01*
X90612068Y-63433158D01*
X90724010Y-63703411D01*
X90886525Y-63946632D01*
X91093368Y-64153475D01*
X91336589Y-64315990D01*
X91606842Y-64427932D01*
X91893740Y-64485000D01*
X92186260Y-64485000D01*
X92473158Y-64427932D01*
X92743411Y-64315990D01*
X92986632Y-64153475D01*
X93193475Y-63946632D01*
X93355990Y-63703411D01*
X93467932Y-63433158D01*
X93525000Y-63146260D01*
X93525000Y-62853740D01*
X93467932Y-62566842D01*
X93355990Y-62296589D01*
X93193475Y-62053368D01*
X92986632Y-61846525D01*
X92743411Y-61684010D01*
X92473158Y-61572068D01*
X92186260Y-61515000D01*
X91893740Y-61515000D01*
X91606842Y-61572068D01*
X91336589Y-61684010D01*
X91093368Y-61846525D01*
X90886525Y-62053368D01*
X90724010Y-62296589D01*
X90612068Y-62566842D01*
X90555000Y-62853740D01*
X73235000Y-62853740D01*
X73177932Y-62566842D01*
X73065990Y-62296589D01*
X72903475Y-62053368D01*
X72696632Y-61846525D01*
X72453411Y-61684010D01*
X72183158Y-61572068D01*
X71896260Y-61515000D01*
X71603740Y-61515000D01*
X71316842Y-61572068D01*
X71046589Y-61684010D01*
X70803368Y-61846525D01*
X70596525Y-62053368D01*
X70434010Y-62296589D01*
X70322068Y-62566842D01*
X70265000Y-62853740D01*
X42025000Y-62853740D01*
X41967932Y-62566842D01*
X41855990Y-62296589D01*
X41693475Y-62053368D01*
X41486632Y-61846525D01*
X41243411Y-61684010D01*
X40973158Y-61572068D01*
X40686260Y-61515000D01*
X40393740Y-61515000D01*
X40106842Y-61572068D01*
X39836589Y-61684010D01*
X39593368Y-61846525D01*
X39386525Y-62053368D01*
X39224010Y-62296589D01*
X39112068Y-62566842D01*
X39055000Y-62853740D01*
X20787898Y-62853740D01*
X20731318Y-62670961D01*
X20660000Y-61992417D01*
X20660000Y-51398061D01*
X34465000Y-51398061D01*
X34465000Y-51601939D01*
X34504774Y-51801898D01*
X34582795Y-51990256D01*
X34696063Y-52159774D01*
X34840226Y-52303937D01*
X35009744Y-52417205D01*
X35198102Y-52495226D01*
X35398061Y-52535000D01*
X35601939Y-52535000D01*
X35801898Y-52495226D01*
X35990256Y-52417205D01*
X36159774Y-52303937D01*
X36303937Y-52159774D01*
X36417205Y-51990256D01*
X36455393Y-51898061D01*
X57965000Y-51898061D01*
X57965000Y-52101939D01*
X58004774Y-52301898D01*
X58082795Y-52490256D01*
X58089306Y-52500000D01*
X58082795Y-52509744D01*
X58004774Y-52698102D01*
X57965000Y-52898061D01*
X57965000Y-53101939D01*
X58004774Y-53301898D01*
X58082795Y-53490256D01*
X58196063Y-53659774D01*
X58340226Y-53803937D01*
X58509744Y-53917205D01*
X58698102Y-53995226D01*
X58898061Y-54035000D01*
X59101939Y-54035000D01*
X59301898Y-53995226D01*
X59490256Y-53917205D01*
X59500000Y-53910694D01*
X59509744Y-53917205D01*
X59698102Y-53995226D01*
X59898061Y-54035000D01*
X60101939Y-54035000D01*
X60301898Y-53995226D01*
X60490256Y-53917205D01*
X60500000Y-53910694D01*
X60509744Y-53917205D01*
X60698102Y-53995226D01*
X60898061Y-54035000D01*
X61101939Y-54035000D01*
X61301898Y-53995226D01*
X61490256Y-53917205D01*
X61659774Y-53803937D01*
X61803937Y-53659774D01*
X61917205Y-53490256D01*
X61995226Y-53301898D01*
X62035000Y-53101939D01*
X62035000Y-52898061D01*
X66965000Y-52898061D01*
X66965000Y-53101939D01*
X67004774Y-53301898D01*
X67082795Y-53490256D01*
X67196063Y-53659774D01*
X67340226Y-53803937D01*
X67509744Y-53917205D01*
X67698102Y-53995226D01*
X67898061Y-54035000D01*
X68101939Y-54035000D01*
X68301898Y-53995226D01*
X68490256Y-53917205D01*
X68500000Y-53910694D01*
X68509744Y-53917205D01*
X68698102Y-53995226D01*
X68898061Y-54035000D01*
X69101939Y-54035000D01*
X69301898Y-53995226D01*
X69490256Y-53917205D01*
X69659774Y-53803937D01*
X69803937Y-53659774D01*
X69917205Y-53490256D01*
X69995226Y-53301898D01*
X70025825Y-53148061D01*
X72965000Y-53148061D01*
X72965000Y-53351939D01*
X73004774Y-53551898D01*
X73082795Y-53740256D01*
X73196063Y-53909774D01*
X73340226Y-54053937D01*
X73509744Y-54167205D01*
X73698102Y-54245226D01*
X73898061Y-54285000D01*
X74101939Y-54285000D01*
X74301898Y-54245226D01*
X74490256Y-54167205D01*
X74659774Y-54053937D01*
X74803937Y-53909774D01*
X74917205Y-53740256D01*
X74995226Y-53551898D01*
X75035000Y-53351939D01*
X75035000Y-53148061D01*
X74995226Y-52948102D01*
X74917205Y-52759744D01*
X74803937Y-52590226D01*
X74659774Y-52446063D01*
X74490256Y-52332795D01*
X74301898Y-52254774D01*
X74101939Y-52215000D01*
X73898061Y-52215000D01*
X73698102Y-52254774D01*
X73509744Y-52332795D01*
X73340226Y-52446063D01*
X73196063Y-52590226D01*
X73082795Y-52759744D01*
X73004774Y-52948102D01*
X72965000Y-53148061D01*
X70025825Y-53148061D01*
X70035000Y-53101939D01*
X70035000Y-52898061D01*
X69995226Y-52698102D01*
X69917205Y-52509744D01*
X69803937Y-52340226D01*
X69659774Y-52196063D01*
X69490256Y-52082795D01*
X69301898Y-52004774D01*
X69101939Y-51965000D01*
X68898061Y-51965000D01*
X68698102Y-52004774D01*
X68509744Y-52082795D01*
X68500000Y-52089306D01*
X68490256Y-52082795D01*
X68301898Y-52004774D01*
X68101939Y-51965000D01*
X67898061Y-51965000D01*
X67698102Y-52004774D01*
X67509744Y-52082795D01*
X67340226Y-52196063D01*
X67196063Y-52340226D01*
X67082795Y-52509744D01*
X67004774Y-52698102D01*
X66965000Y-52898061D01*
X62035000Y-52898061D01*
X61995226Y-52698102D01*
X61917205Y-52509744D01*
X61910694Y-52500000D01*
X61917205Y-52490256D01*
X61995226Y-52301898D01*
X62035000Y-52101939D01*
X62035000Y-51898061D01*
X61995226Y-51698102D01*
X61917205Y-51509744D01*
X61803937Y-51340226D01*
X61659774Y-51196063D01*
X61490256Y-51082795D01*
X61301898Y-51004774D01*
X61101939Y-50965000D01*
X60898061Y-50965000D01*
X60698102Y-51004774D01*
X60509744Y-51082795D01*
X60500000Y-51089306D01*
X60490256Y-51082795D01*
X60301898Y-51004774D01*
X60101939Y-50965000D01*
X59898061Y-50965000D01*
X59698102Y-51004774D01*
X59509744Y-51082795D01*
X59500000Y-51089306D01*
X59490256Y-51082795D01*
X59301898Y-51004774D01*
X59101939Y-50965000D01*
X58898061Y-50965000D01*
X58698102Y-51004774D01*
X58509744Y-51082795D01*
X58340226Y-51196063D01*
X58196063Y-51340226D01*
X58082795Y-51509744D01*
X58004774Y-51698102D01*
X57965000Y-51898061D01*
X36455393Y-51898061D01*
X36495226Y-51801898D01*
X36535000Y-51601939D01*
X36535000Y-51398061D01*
X36495226Y-51198102D01*
X36417205Y-51009744D01*
X36303937Y-50840226D01*
X36159774Y-50696063D01*
X35990256Y-50582795D01*
X35801898Y-50504774D01*
X35601939Y-50465000D01*
X35398061Y-50465000D01*
X35198102Y-50504774D01*
X35009744Y-50582795D01*
X34840226Y-50696063D01*
X34696063Y-50840226D01*
X34582795Y-51009744D01*
X34504774Y-51198102D01*
X34465000Y-51398061D01*
X20660000Y-51398061D01*
X20660000Y-49500000D01*
X25357815Y-49500000D01*
X25386487Y-49791111D01*
X25471401Y-50071034D01*
X25609294Y-50329014D01*
X25794866Y-50555134D01*
X26020986Y-50740706D01*
X26278966Y-50878599D01*
X26558889Y-50963513D01*
X26777050Y-50985000D01*
X27222950Y-50985000D01*
X27441111Y-50963513D01*
X27721034Y-50878599D01*
X27979014Y-50740706D01*
X28205134Y-50555134D01*
X28390706Y-50329014D01*
X28528599Y-50071034D01*
X28581069Y-49898061D01*
X72465000Y-49898061D01*
X72465000Y-50101939D01*
X72504774Y-50301898D01*
X72582795Y-50490256D01*
X72696063Y-50659774D01*
X72840226Y-50803937D01*
X73009744Y-50917205D01*
X73198102Y-50995226D01*
X73398061Y-51035000D01*
X73601939Y-51035000D01*
X73801898Y-50995226D01*
X73990256Y-50917205D01*
X74159774Y-50803937D01*
X74303937Y-50659774D01*
X74417205Y-50490256D01*
X74495226Y-50301898D01*
X74535000Y-50101939D01*
X74535000Y-49898061D01*
X74495226Y-49698102D01*
X74417205Y-49509744D01*
X74303937Y-49340226D01*
X74159774Y-49196063D01*
X73990256Y-49082795D01*
X73801898Y-49004774D01*
X73601939Y-48965000D01*
X73398061Y-48965000D01*
X73198102Y-49004774D01*
X73009744Y-49082795D01*
X72840226Y-49196063D01*
X72696063Y-49340226D01*
X72582795Y-49509744D01*
X72504774Y-49698102D01*
X72465000Y-49898061D01*
X28581069Y-49898061D01*
X28613513Y-49791111D01*
X28642185Y-49500000D01*
X28613513Y-49208889D01*
X28528599Y-48928966D01*
X28390706Y-48670986D01*
X28371892Y-48648061D01*
X49965000Y-48648061D01*
X49965000Y-48851939D01*
X50004774Y-49051898D01*
X50082795Y-49240256D01*
X50196063Y-49409774D01*
X50340226Y-49553937D01*
X50509744Y-49667205D01*
X50698102Y-49745226D01*
X50898061Y-49785000D01*
X51101939Y-49785000D01*
X51301898Y-49745226D01*
X51490256Y-49667205D01*
X51659774Y-49553937D01*
X51803937Y-49409774D01*
X51917205Y-49240256D01*
X51995226Y-49051898D01*
X52035000Y-48851939D01*
X52035000Y-48648061D01*
X51995226Y-48448102D01*
X51917205Y-48259744D01*
X51803937Y-48090226D01*
X51659774Y-47946063D01*
X51490256Y-47832795D01*
X51301898Y-47754774D01*
X51101939Y-47715000D01*
X50898061Y-47715000D01*
X50698102Y-47754774D01*
X50509744Y-47832795D01*
X50340226Y-47946063D01*
X50196063Y-48090226D01*
X50082795Y-48259744D01*
X50004774Y-48448102D01*
X49965000Y-48648061D01*
X28371892Y-48648061D01*
X28205134Y-48444866D01*
X28141663Y-48392777D01*
X28243386Y-48338405D01*
X28377962Y-48227962D01*
X28488405Y-48093386D01*
X28570472Y-47939850D01*
X28621008Y-47773254D01*
X28638072Y-47600000D01*
X28638072Y-46400000D01*
X28621008Y-46226746D01*
X28570472Y-46060150D01*
X28488405Y-45906614D01*
X28377962Y-45772038D01*
X28243386Y-45661595D01*
X28089850Y-45579528D01*
X27923254Y-45528992D01*
X27750000Y-45511928D01*
X26250000Y-45511928D01*
X26076746Y-45528992D01*
X25910150Y-45579528D01*
X25756614Y-45661595D01*
X25622038Y-45772038D01*
X25511595Y-45906614D01*
X25429528Y-46060150D01*
X25378992Y-46226746D01*
X25361928Y-46400000D01*
X25361928Y-47600000D01*
X25378992Y-47773254D01*
X25429528Y-47939850D01*
X25511595Y-48093386D01*
X25622038Y-48227962D01*
X25756614Y-48338405D01*
X25858337Y-48392777D01*
X25794866Y-48444866D01*
X25609294Y-48670986D01*
X25471401Y-48928966D01*
X25386487Y-49208889D01*
X25357815Y-49500000D01*
X20660000Y-49500000D01*
X20660000Y-35300000D01*
X21911928Y-35300000D01*
X21911928Y-37000000D01*
X21924188Y-37124482D01*
X21960498Y-37244180D01*
X22019463Y-37354494D01*
X22098815Y-37451185D01*
X22195506Y-37530537D01*
X22305820Y-37589502D01*
X22378380Y-37611513D01*
X22246525Y-37743368D01*
X22084010Y-37986589D01*
X21972068Y-38256842D01*
X21915000Y-38543740D01*
X21915000Y-38836260D01*
X21972068Y-39123158D01*
X22084010Y-39393411D01*
X22246525Y-39636632D01*
X22453368Y-39843475D01*
X22627760Y-39960000D01*
X22453368Y-40076525D01*
X22246525Y-40283368D01*
X22084010Y-40526589D01*
X21972068Y-40796842D01*
X21915000Y-41083740D01*
X21915000Y-41376260D01*
X21972068Y-41663158D01*
X22084010Y-41933411D01*
X22246525Y-42176632D01*
X22453368Y-42383475D01*
X22696589Y-42545990D01*
X22966842Y-42657932D01*
X23253740Y-42715000D01*
X23546260Y-42715000D01*
X23833158Y-42657932D01*
X23857978Y-42647651D01*
X77215410Y-42647651D01*
X77215410Y-42851529D01*
X77255184Y-43051488D01*
X77333205Y-43239846D01*
X77446473Y-43409364D01*
X77590636Y-43553527D01*
X77760154Y-43666795D01*
X77948512Y-43744816D01*
X78148471Y-43784590D01*
X78352349Y-43784590D01*
X78552308Y-43744816D01*
X78740666Y-43666795D01*
X78910184Y-43553527D01*
X79054347Y-43409364D01*
X79167615Y-43239846D01*
X79245636Y-43051488D01*
X79285410Y-42851529D01*
X79285410Y-42647651D01*
X79245636Y-42447692D01*
X79167615Y-42259334D01*
X79054347Y-42089816D01*
X78964531Y-42000000D01*
X105382815Y-42000000D01*
X105411487Y-42291111D01*
X105496401Y-42571034D01*
X105634294Y-42829014D01*
X105819866Y-43055134D01*
X106045986Y-43240706D01*
X106063374Y-43250000D01*
X106045986Y-43259294D01*
X105819866Y-43444866D01*
X105634294Y-43670986D01*
X105496401Y-43928966D01*
X105411487Y-44208889D01*
X105382815Y-44500000D01*
X105411487Y-44791111D01*
X105496401Y-45071034D01*
X105634294Y-45329014D01*
X105819866Y-45555134D01*
X105883337Y-45607223D01*
X105781614Y-45661595D01*
X105647038Y-45772038D01*
X105536595Y-45906614D01*
X105454528Y-46060150D01*
X105403992Y-46226746D01*
X105386928Y-46400000D01*
X105386928Y-47600000D01*
X105403992Y-47773254D01*
X105454528Y-47939850D01*
X105536595Y-48093386D01*
X105647038Y-48227962D01*
X105781614Y-48338405D01*
X105935150Y-48420472D01*
X106101746Y-48471008D01*
X106275000Y-48488072D01*
X107725000Y-48488072D01*
X107898254Y-48471008D01*
X108064850Y-48420472D01*
X108218386Y-48338405D01*
X108352962Y-48227962D01*
X108463405Y-48093386D01*
X108545472Y-47939850D01*
X108596008Y-47773254D01*
X108613072Y-47600000D01*
X108613072Y-46400000D01*
X108596008Y-46226746D01*
X108545472Y-46060150D01*
X108463405Y-45906614D01*
X108352962Y-45772038D01*
X108218386Y-45661595D01*
X108116663Y-45607223D01*
X108180134Y-45555134D01*
X108365706Y-45329014D01*
X108503599Y-45071034D01*
X108588513Y-44791111D01*
X108617185Y-44500000D01*
X108588513Y-44208889D01*
X108503599Y-43928966D01*
X108365706Y-43670986D01*
X108180134Y-43444866D01*
X107954014Y-43259294D01*
X107936626Y-43250000D01*
X107954014Y-43240706D01*
X108180134Y-43055134D01*
X108365706Y-42829014D01*
X108503599Y-42571034D01*
X108588513Y-42291111D01*
X108617185Y-42000000D01*
X108588513Y-41708889D01*
X108503599Y-41428966D01*
X108365706Y-41170986D01*
X108180134Y-40944866D01*
X107954014Y-40759294D01*
X107696034Y-40621401D01*
X107416111Y-40536487D01*
X107197950Y-40515000D01*
X106802050Y-40515000D01*
X106583889Y-40536487D01*
X106303966Y-40621401D01*
X106045986Y-40759294D01*
X105819866Y-40944866D01*
X105634294Y-41170986D01*
X105496401Y-41428966D01*
X105411487Y-41708889D01*
X105382815Y-42000000D01*
X78964531Y-42000000D01*
X78910184Y-41945653D01*
X78740666Y-41832385D01*
X78552308Y-41754364D01*
X78352349Y-41714590D01*
X78148471Y-41714590D01*
X77948512Y-41754364D01*
X77760154Y-41832385D01*
X77590636Y-41945653D01*
X77446473Y-42089816D01*
X77333205Y-42259334D01*
X77255184Y-42447692D01*
X77215410Y-42647651D01*
X23857978Y-42647651D01*
X24103411Y-42545990D01*
X24346632Y-42383475D01*
X24553475Y-42176632D01*
X24715990Y-41933411D01*
X24827932Y-41663158D01*
X24885000Y-41376260D01*
X24885000Y-41083740D01*
X24827932Y-40796842D01*
X24715990Y-40526589D01*
X24553475Y-40283368D01*
X24346632Y-40076525D01*
X24172240Y-39960000D01*
X24346632Y-39843475D01*
X24553475Y-39636632D01*
X24715990Y-39393411D01*
X24827932Y-39123158D01*
X24885000Y-38836260D01*
X24885000Y-38588061D01*
X25275000Y-38588061D01*
X25275000Y-38791939D01*
X25314774Y-38991898D01*
X25392795Y-39180256D01*
X25506063Y-39349774D01*
X25650226Y-39493937D01*
X25819744Y-39607205D01*
X26008102Y-39685226D01*
X26208061Y-39725000D01*
X26411939Y-39725000D01*
X26611898Y-39685226D01*
X26800256Y-39607205D01*
X26874994Y-39557267D01*
X26949732Y-39607205D01*
X27138090Y-39685226D01*
X27338049Y-39725000D01*
X27541927Y-39725000D01*
X27741886Y-39685226D01*
X27930244Y-39607205D01*
X28094994Y-39497123D01*
X28259744Y-39607205D01*
X28448102Y-39685226D01*
X28648061Y-39725000D01*
X28851939Y-39725000D01*
X29051898Y-39685226D01*
X29240256Y-39607205D01*
X29409774Y-39493937D01*
X29553937Y-39349774D01*
X29667205Y-39180256D01*
X29680540Y-39148061D01*
X49965000Y-39148061D01*
X49965000Y-39351939D01*
X50004774Y-39551898D01*
X50082795Y-39740256D01*
X50196063Y-39909774D01*
X50340226Y-40053937D01*
X50509744Y-40167205D01*
X50698102Y-40245226D01*
X50898061Y-40285000D01*
X51101939Y-40285000D01*
X51301898Y-40245226D01*
X51490256Y-40167205D01*
X51659774Y-40053937D01*
X51803937Y-39909774D01*
X51917205Y-39740256D01*
X51995226Y-39551898D01*
X52035000Y-39351939D01*
X52035000Y-39148061D01*
X51995226Y-38948102D01*
X51917205Y-38759744D01*
X51803937Y-38590226D01*
X51659774Y-38446063D01*
X51490256Y-38332795D01*
X51301898Y-38254774D01*
X51101939Y-38215000D01*
X50898061Y-38215000D01*
X50698102Y-38254774D01*
X50509744Y-38332795D01*
X50340226Y-38446063D01*
X50196063Y-38590226D01*
X50082795Y-38759744D01*
X50004774Y-38948102D01*
X49965000Y-39148061D01*
X29680540Y-39148061D01*
X29745226Y-38991898D01*
X29785000Y-38791939D01*
X29785000Y-38588061D01*
X29745226Y-38388102D01*
X29667205Y-38199744D01*
X29632672Y-38148061D01*
X77215000Y-38148061D01*
X77215000Y-38351939D01*
X77254774Y-38551898D01*
X77332795Y-38740256D01*
X77446063Y-38909774D01*
X77590226Y-39053937D01*
X77759744Y-39167205D01*
X77948102Y-39245226D01*
X78148061Y-39285000D01*
X78351939Y-39285000D01*
X78551898Y-39245226D01*
X78740256Y-39167205D01*
X78909774Y-39053937D01*
X79053937Y-38909774D01*
X79167205Y-38740256D01*
X79245226Y-38551898D01*
X79285000Y-38351939D01*
X79285000Y-38148061D01*
X79245226Y-37948102D01*
X79167205Y-37759744D01*
X79053937Y-37590226D01*
X78909774Y-37446063D01*
X78740256Y-37332795D01*
X78551898Y-37254774D01*
X78351939Y-37215000D01*
X78148061Y-37215000D01*
X77948102Y-37254774D01*
X77759744Y-37332795D01*
X77590226Y-37446063D01*
X77446063Y-37590226D01*
X77332795Y-37759744D01*
X77254774Y-37948102D01*
X77215000Y-38148061D01*
X29632672Y-38148061D01*
X29553937Y-38030226D01*
X29409774Y-37886063D01*
X29240256Y-37772795D01*
X29051898Y-37694774D01*
X28851939Y-37655000D01*
X28648061Y-37655000D01*
X28448102Y-37694774D01*
X28259744Y-37772795D01*
X28094994Y-37882877D01*
X27930244Y-37772795D01*
X27741886Y-37694774D01*
X27541927Y-37655000D01*
X27338049Y-37655000D01*
X27138090Y-37694774D01*
X26949732Y-37772795D01*
X26874994Y-37822733D01*
X26800256Y-37772795D01*
X26611898Y-37694774D01*
X26411939Y-37655000D01*
X26208061Y-37655000D01*
X26008102Y-37694774D01*
X25819744Y-37772795D01*
X25650226Y-37886063D01*
X25506063Y-38030226D01*
X25392795Y-38199744D01*
X25314774Y-38388102D01*
X25275000Y-38588061D01*
X24885000Y-38588061D01*
X24885000Y-38543740D01*
X24827932Y-38256842D01*
X24715990Y-37986589D01*
X24553475Y-37743368D01*
X24421620Y-37611513D01*
X24494180Y-37589502D01*
X24604494Y-37530537D01*
X24701185Y-37451185D01*
X24780537Y-37354494D01*
X24839502Y-37244180D01*
X24875812Y-37124482D01*
X24888072Y-37000000D01*
X24888072Y-35300000D01*
X24875812Y-35175518D01*
X24839502Y-35055820D01*
X24780537Y-34945506D01*
X24701185Y-34848815D01*
X24604494Y-34769463D01*
X24494180Y-34710498D01*
X24374482Y-34674188D01*
X24250000Y-34661928D01*
X22550000Y-34661928D01*
X22425518Y-34674188D01*
X22305820Y-34710498D01*
X22195506Y-34769463D01*
X22098815Y-34848815D01*
X22019463Y-34945506D01*
X21960498Y-35055820D01*
X21924188Y-35175518D01*
X21911928Y-35300000D01*
X20660000Y-35300000D01*
X20660000Y-29548061D01*
X83315000Y-29548061D01*
X83315000Y-29751939D01*
X83354774Y-29951898D01*
X83432795Y-30140256D01*
X83546063Y-30309774D01*
X83690226Y-30453937D01*
X83859744Y-30567205D01*
X84048102Y-30645226D01*
X84248061Y-30685000D01*
X84451939Y-30685000D01*
X84651898Y-30645226D01*
X84840256Y-30567205D01*
X85009774Y-30453937D01*
X85075770Y-30387941D01*
X85107795Y-30465256D01*
X85221063Y-30634774D01*
X85365226Y-30778937D01*
X85534744Y-30892205D01*
X85723102Y-30970226D01*
X85923061Y-31010000D01*
X86126939Y-31010000D01*
X86326898Y-30970226D01*
X86515256Y-30892205D01*
X86684774Y-30778937D01*
X86828937Y-30634774D01*
X86942205Y-30465256D01*
X87020226Y-30276898D01*
X87060000Y-30076939D01*
X87060000Y-29873061D01*
X87020226Y-29673102D01*
X86942205Y-29484744D01*
X86828937Y-29315226D01*
X86684774Y-29171063D01*
X86515256Y-29057795D01*
X86326898Y-28979774D01*
X86126939Y-28940000D01*
X85923061Y-28940000D01*
X85723102Y-28979774D01*
X85534744Y-29057795D01*
X85365226Y-29171063D01*
X85299230Y-29237059D01*
X85267205Y-29159744D01*
X85153937Y-28990226D01*
X85009774Y-28846063D01*
X84840256Y-28732795D01*
X84651898Y-28654774D01*
X84451939Y-28615000D01*
X84248061Y-28615000D01*
X84048102Y-28654774D01*
X83859744Y-28732795D01*
X83690226Y-28846063D01*
X83546063Y-28990226D01*
X83432795Y-29159744D01*
X83354774Y-29348102D01*
X83315000Y-29548061D01*
X20660000Y-29548061D01*
X20660000Y-24032278D01*
X20726714Y-23351874D01*
X20757471Y-23250000D01*
X26611928Y-23250000D01*
X26611928Y-26750000D01*
X26624188Y-26874482D01*
X26660498Y-26994180D01*
X26719463Y-27104494D01*
X26798815Y-27201185D01*
X26895506Y-27280537D01*
X27005820Y-27339502D01*
X27125518Y-27375812D01*
X27250000Y-27388072D01*
X30750000Y-27388072D01*
X30874482Y-27375812D01*
X30994180Y-27339502D01*
X31104494Y-27280537D01*
X31201185Y-27201185D01*
X31280537Y-27104494D01*
X31339502Y-26994180D01*
X31375812Y-26874482D01*
X31388072Y-26750000D01*
X31388072Y-23250000D01*
X31375812Y-23125518D01*
X31339502Y-23005820D01*
X31281903Y-22898061D01*
X67965000Y-22898061D01*
X67965000Y-23101939D01*
X68004774Y-23301898D01*
X68082795Y-23490256D01*
X68196063Y-23659774D01*
X68340226Y-23803937D01*
X68509744Y-23917205D01*
X68698102Y-23995226D01*
X68898061Y-24035000D01*
X69101939Y-24035000D01*
X69301898Y-23995226D01*
X69490256Y-23917205D01*
X69659774Y-23803937D01*
X69803937Y-23659774D01*
X69917205Y-23490256D01*
X69995226Y-23301898D01*
X70035000Y-23101939D01*
X70035000Y-22898061D01*
X69995226Y-22698102D01*
X69917205Y-22509744D01*
X69803937Y-22340226D01*
X69659774Y-22196063D01*
X69490256Y-22082795D01*
X69301898Y-22004774D01*
X69101939Y-21965000D01*
X68898061Y-21965000D01*
X68698102Y-22004774D01*
X68509744Y-22082795D01*
X68340226Y-22196063D01*
X68196063Y-22340226D01*
X68082795Y-22509744D01*
X68004774Y-22698102D01*
X67965000Y-22898061D01*
X31281903Y-22898061D01*
X31280537Y-22895506D01*
X31201185Y-22798815D01*
X31104494Y-22719463D01*
X30994180Y-22660498D01*
X30874482Y-22624188D01*
X30750000Y-22611928D01*
X27250000Y-22611928D01*
X27125518Y-22624188D01*
X27005820Y-22660498D01*
X26895506Y-22719463D01*
X26798815Y-22798815D01*
X26719463Y-22895506D01*
X26660498Y-23005820D01*
X26624188Y-23125518D01*
X26611928Y-23250000D01*
X20757471Y-23250000D01*
X20914943Y-22728428D01*
X21220681Y-22153421D01*
X21632279Y-21648753D01*
X22134067Y-21233638D01*
X22706924Y-20923895D01*
X23329039Y-20731318D01*
X24007584Y-20660000D01*
X47876289Y-20660000D01*
X47796063Y-20740226D01*
%TA.AperFunction,Conductor*%
D18*
G36*
X47796063Y-20740226D02*
G01*
X47682795Y-20909744D01*
X47604774Y-21098102D01*
X47565000Y-21298061D01*
X47565000Y-21501939D01*
X47604774Y-21701898D01*
X47682795Y-21890256D01*
X47796063Y-22059774D01*
X47940226Y-22203937D01*
X48109744Y-22317205D01*
X48298102Y-22395226D01*
X48498061Y-22435000D01*
X48701939Y-22435000D01*
X48901898Y-22395226D01*
X49090256Y-22317205D01*
X49100000Y-22310694D01*
X49109744Y-22317205D01*
X49298102Y-22395226D01*
X49498061Y-22435000D01*
X49701939Y-22435000D01*
X49901898Y-22395226D01*
X50090256Y-22317205D01*
X50100000Y-22310694D01*
X50109744Y-22317205D01*
X50298102Y-22395226D01*
X50498061Y-22435000D01*
X50701939Y-22435000D01*
X50901898Y-22395226D01*
X51090256Y-22317205D01*
X51259774Y-22203937D01*
X51403937Y-22059774D01*
X51517205Y-21890256D01*
X51595226Y-21701898D01*
X51635000Y-21501939D01*
X51635000Y-21298061D01*
X51595226Y-21098102D01*
X51517205Y-20909744D01*
X51403937Y-20740226D01*
X51323711Y-20660000D01*
X110967722Y-20660000D01*
X111648126Y-20726714D01*
X112271572Y-20914943D01*
X112846579Y-21220681D01*
X113351247Y-21632279D01*
X113766362Y-22134067D01*
X114076105Y-22706924D01*
X114268682Y-23329039D01*
X114340001Y-24007594D01*
X114340000Y-61967721D01*
X114273286Y-62648126D01*
X114085057Y-63271570D01*
X113779323Y-63846573D01*
X113367721Y-64351248D01*
X112865933Y-64766362D01*
X112293077Y-65076104D01*
X111670961Y-65268682D01*
X110992417Y-65340000D01*
X24032279Y-65340000D01*
X23351874Y-65273286D01*
X22728430Y-65085057D01*
X22153427Y-64779323D01*
X21648752Y-64367721D01*
X21233638Y-63865933D01*
X20923896Y-63293077D01*
X20787898Y-62853740D01*
X39055000Y-62853740D01*
X39055000Y-63146260D01*
X39112068Y-63433158D01*
X39224010Y-63703411D01*
X39386525Y-63946632D01*
X39593368Y-64153475D01*
X39836589Y-64315990D01*
X40106842Y-64427932D01*
X40393740Y-64485000D01*
X40686260Y-64485000D01*
X40973158Y-64427932D01*
X41243411Y-64315990D01*
X41486632Y-64153475D01*
X41693475Y-63946632D01*
X41855990Y-63703411D01*
X41967932Y-63433158D01*
X42025000Y-63146260D01*
X42025000Y-62853740D01*
X70265000Y-62853740D01*
X70265000Y-63146260D01*
X70322068Y-63433158D01*
X70434010Y-63703411D01*
X70596525Y-63946632D01*
X70803368Y-64153475D01*
X71046589Y-64315990D01*
X71316842Y-64427932D01*
X71603740Y-64485000D01*
X71896260Y-64485000D01*
X72183158Y-64427932D01*
X72453411Y-64315990D01*
X72696632Y-64153475D01*
X72903475Y-63946632D01*
X73065990Y-63703411D01*
X73177932Y-63433158D01*
X73235000Y-63146260D01*
X73235000Y-62853740D01*
X90555000Y-62853740D01*
X90555000Y-63146260D01*
X90612068Y-63433158D01*
X90724010Y-63703411D01*
X90886525Y-63946632D01*
X91093368Y-64153475D01*
X91336589Y-64315990D01*
X91606842Y-64427932D01*
X91893740Y-64485000D01*
X92186260Y-64485000D01*
X92473158Y-64427932D01*
X92743411Y-64315990D01*
X92986632Y-64153475D01*
X93193475Y-63946632D01*
X93355990Y-63703411D01*
X93467932Y-63433158D01*
X93525000Y-63146260D01*
X93525000Y-62853740D01*
X93467932Y-62566842D01*
X93355990Y-62296589D01*
X93193475Y-62053368D01*
X92986632Y-61846525D01*
X92743411Y-61684010D01*
X92473158Y-61572068D01*
X92186260Y-61515000D01*
X91893740Y-61515000D01*
X91606842Y-61572068D01*
X91336589Y-61684010D01*
X91093368Y-61846525D01*
X90886525Y-62053368D01*
X90724010Y-62296589D01*
X90612068Y-62566842D01*
X90555000Y-62853740D01*
X73235000Y-62853740D01*
X73177932Y-62566842D01*
X73065990Y-62296589D01*
X72903475Y-62053368D01*
X72696632Y-61846525D01*
X72453411Y-61684010D01*
X72183158Y-61572068D01*
X71896260Y-61515000D01*
X71603740Y-61515000D01*
X71316842Y-61572068D01*
X71046589Y-61684010D01*
X70803368Y-61846525D01*
X70596525Y-62053368D01*
X70434010Y-62296589D01*
X70322068Y-62566842D01*
X70265000Y-62853740D01*
X42025000Y-62853740D01*
X41967932Y-62566842D01*
X41855990Y-62296589D01*
X41693475Y-62053368D01*
X41486632Y-61846525D01*
X41243411Y-61684010D01*
X40973158Y-61572068D01*
X40686260Y-61515000D01*
X40393740Y-61515000D01*
X40106842Y-61572068D01*
X39836589Y-61684010D01*
X39593368Y-61846525D01*
X39386525Y-62053368D01*
X39224010Y-62296589D01*
X39112068Y-62566842D01*
X39055000Y-62853740D01*
X20787898Y-62853740D01*
X20731318Y-62670961D01*
X20660000Y-61992417D01*
X20660000Y-51398061D01*
X34465000Y-51398061D01*
X34465000Y-51601939D01*
X34504774Y-51801898D01*
X34582795Y-51990256D01*
X34696063Y-52159774D01*
X34840226Y-52303937D01*
X35009744Y-52417205D01*
X35198102Y-52495226D01*
X35398061Y-52535000D01*
X35601939Y-52535000D01*
X35801898Y-52495226D01*
X35990256Y-52417205D01*
X36159774Y-52303937D01*
X36303937Y-52159774D01*
X36417205Y-51990256D01*
X36455393Y-51898061D01*
X57965000Y-51898061D01*
X57965000Y-52101939D01*
X58004774Y-52301898D01*
X58082795Y-52490256D01*
X58089306Y-52500000D01*
X58082795Y-52509744D01*
X58004774Y-52698102D01*
X57965000Y-52898061D01*
X57965000Y-53101939D01*
X58004774Y-53301898D01*
X58082795Y-53490256D01*
X58196063Y-53659774D01*
X58340226Y-53803937D01*
X58509744Y-53917205D01*
X58698102Y-53995226D01*
X58898061Y-54035000D01*
X59101939Y-54035000D01*
X59301898Y-53995226D01*
X59490256Y-53917205D01*
X59500000Y-53910694D01*
X59509744Y-53917205D01*
X59698102Y-53995226D01*
X59898061Y-54035000D01*
X60101939Y-54035000D01*
X60301898Y-53995226D01*
X60490256Y-53917205D01*
X60500000Y-53910694D01*
X60509744Y-53917205D01*
X60698102Y-53995226D01*
X60898061Y-54035000D01*
X61101939Y-54035000D01*
X61301898Y-53995226D01*
X61490256Y-53917205D01*
X61659774Y-53803937D01*
X61803937Y-53659774D01*
X61917205Y-53490256D01*
X61995226Y-53301898D01*
X62035000Y-53101939D01*
X62035000Y-52898061D01*
X66965000Y-52898061D01*
X66965000Y-53101939D01*
X67004774Y-53301898D01*
X67082795Y-53490256D01*
X67196063Y-53659774D01*
X67340226Y-53803937D01*
X67509744Y-53917205D01*
X67698102Y-53995226D01*
X67898061Y-54035000D01*
X68101939Y-54035000D01*
X68301898Y-53995226D01*
X68490256Y-53917205D01*
X68500000Y-53910694D01*
X68509744Y-53917205D01*
X68698102Y-53995226D01*
X68898061Y-54035000D01*
X69101939Y-54035000D01*
X69301898Y-53995226D01*
X69490256Y-53917205D01*
X69659774Y-53803937D01*
X69803937Y-53659774D01*
X69917205Y-53490256D01*
X69995226Y-53301898D01*
X70025825Y-53148061D01*
X72965000Y-53148061D01*
X72965000Y-53351939D01*
X73004774Y-53551898D01*
X73082795Y-53740256D01*
X73196063Y-53909774D01*
X73340226Y-54053937D01*
X73509744Y-54167205D01*
X73698102Y-54245226D01*
X73898061Y-54285000D01*
X74101939Y-54285000D01*
X74301898Y-54245226D01*
X74490256Y-54167205D01*
X74659774Y-54053937D01*
X74803937Y-53909774D01*
X74917205Y-53740256D01*
X74995226Y-53551898D01*
X75035000Y-53351939D01*
X75035000Y-53148061D01*
X74995226Y-52948102D01*
X74917205Y-52759744D01*
X74803937Y-52590226D01*
X74659774Y-52446063D01*
X74490256Y-52332795D01*
X74301898Y-52254774D01*
X74101939Y-52215000D01*
X73898061Y-52215000D01*
X73698102Y-52254774D01*
X73509744Y-52332795D01*
X73340226Y-52446063D01*
X73196063Y-52590226D01*
X73082795Y-52759744D01*
X73004774Y-52948102D01*
X72965000Y-53148061D01*
X70025825Y-53148061D01*
X70035000Y-53101939D01*
X70035000Y-52898061D01*
X69995226Y-52698102D01*
X69917205Y-52509744D01*
X69803937Y-52340226D01*
X69659774Y-52196063D01*
X69490256Y-52082795D01*
X69301898Y-52004774D01*
X69101939Y-51965000D01*
X68898061Y-51965000D01*
X68698102Y-52004774D01*
X68509744Y-52082795D01*
X68500000Y-52089306D01*
X68490256Y-52082795D01*
X68301898Y-52004774D01*
X68101939Y-51965000D01*
X67898061Y-51965000D01*
X67698102Y-52004774D01*
X67509744Y-52082795D01*
X67340226Y-52196063D01*
X67196063Y-52340226D01*
X67082795Y-52509744D01*
X67004774Y-52698102D01*
X66965000Y-52898061D01*
X62035000Y-52898061D01*
X61995226Y-52698102D01*
X61917205Y-52509744D01*
X61910694Y-52500000D01*
X61917205Y-52490256D01*
X61995226Y-52301898D01*
X62035000Y-52101939D01*
X62035000Y-51898061D01*
X61995226Y-51698102D01*
X61917205Y-51509744D01*
X61803937Y-51340226D01*
X61659774Y-51196063D01*
X61490256Y-51082795D01*
X61301898Y-51004774D01*
X61101939Y-50965000D01*
X60898061Y-50965000D01*
X60698102Y-51004774D01*
X60509744Y-51082795D01*
X60500000Y-51089306D01*
X60490256Y-51082795D01*
X60301898Y-51004774D01*
X60101939Y-50965000D01*
X59898061Y-50965000D01*
X59698102Y-51004774D01*
X59509744Y-51082795D01*
X59500000Y-51089306D01*
X59490256Y-51082795D01*
X59301898Y-51004774D01*
X59101939Y-50965000D01*
X58898061Y-50965000D01*
X58698102Y-51004774D01*
X58509744Y-51082795D01*
X58340226Y-51196063D01*
X58196063Y-51340226D01*
X58082795Y-51509744D01*
X58004774Y-51698102D01*
X57965000Y-51898061D01*
X36455393Y-51898061D01*
X36495226Y-51801898D01*
X36535000Y-51601939D01*
X36535000Y-51398061D01*
X36495226Y-51198102D01*
X36417205Y-51009744D01*
X36303937Y-50840226D01*
X36159774Y-50696063D01*
X35990256Y-50582795D01*
X35801898Y-50504774D01*
X35601939Y-50465000D01*
X35398061Y-50465000D01*
X35198102Y-50504774D01*
X35009744Y-50582795D01*
X34840226Y-50696063D01*
X34696063Y-50840226D01*
X34582795Y-51009744D01*
X34504774Y-51198102D01*
X34465000Y-51398061D01*
X20660000Y-51398061D01*
X20660000Y-49500000D01*
X25357815Y-49500000D01*
X25386487Y-49791111D01*
X25471401Y-50071034D01*
X25609294Y-50329014D01*
X25794866Y-50555134D01*
X26020986Y-50740706D01*
X26278966Y-50878599D01*
X26558889Y-50963513D01*
X26777050Y-50985000D01*
X27222950Y-50985000D01*
X27441111Y-50963513D01*
X27721034Y-50878599D01*
X27979014Y-50740706D01*
X28205134Y-50555134D01*
X28390706Y-50329014D01*
X28528599Y-50071034D01*
X28581069Y-49898061D01*
X72465000Y-49898061D01*
X72465000Y-50101939D01*
X72504774Y-50301898D01*
X72582795Y-50490256D01*
X72696063Y-50659774D01*
X72840226Y-50803937D01*
X73009744Y-50917205D01*
X73198102Y-50995226D01*
X73398061Y-51035000D01*
X73601939Y-51035000D01*
X73801898Y-50995226D01*
X73990256Y-50917205D01*
X74159774Y-50803937D01*
X74303937Y-50659774D01*
X74417205Y-50490256D01*
X74495226Y-50301898D01*
X74535000Y-50101939D01*
X74535000Y-49898061D01*
X74495226Y-49698102D01*
X74417205Y-49509744D01*
X74303937Y-49340226D01*
X74159774Y-49196063D01*
X73990256Y-49082795D01*
X73801898Y-49004774D01*
X73601939Y-48965000D01*
X73398061Y-48965000D01*
X73198102Y-49004774D01*
X73009744Y-49082795D01*
X72840226Y-49196063D01*
X72696063Y-49340226D01*
X72582795Y-49509744D01*
X72504774Y-49698102D01*
X72465000Y-49898061D01*
X28581069Y-49898061D01*
X28613513Y-49791111D01*
X28642185Y-49500000D01*
X28613513Y-49208889D01*
X28528599Y-48928966D01*
X28390706Y-48670986D01*
X28371892Y-48648061D01*
X49965000Y-48648061D01*
X49965000Y-48851939D01*
X50004774Y-49051898D01*
X50082795Y-49240256D01*
X50196063Y-49409774D01*
X50340226Y-49553937D01*
X50509744Y-49667205D01*
X50698102Y-49745226D01*
X50898061Y-49785000D01*
X51101939Y-49785000D01*
X51301898Y-49745226D01*
X51490256Y-49667205D01*
X51659774Y-49553937D01*
X51803937Y-49409774D01*
X51917205Y-49240256D01*
X51995226Y-49051898D01*
X52035000Y-48851939D01*
X52035000Y-48648061D01*
X51995226Y-48448102D01*
X51917205Y-48259744D01*
X51803937Y-48090226D01*
X51659774Y-47946063D01*
X51490256Y-47832795D01*
X51301898Y-47754774D01*
X51101939Y-47715000D01*
X50898061Y-47715000D01*
X50698102Y-47754774D01*
X50509744Y-47832795D01*
X50340226Y-47946063D01*
X50196063Y-48090226D01*
X50082795Y-48259744D01*
X50004774Y-48448102D01*
X49965000Y-48648061D01*
X28371892Y-48648061D01*
X28205134Y-48444866D01*
X28141663Y-48392777D01*
X28243386Y-48338405D01*
X28377962Y-48227962D01*
X28488405Y-48093386D01*
X28570472Y-47939850D01*
X28621008Y-47773254D01*
X28638072Y-47600000D01*
X28638072Y-46400000D01*
X28621008Y-46226746D01*
X28570472Y-46060150D01*
X28488405Y-45906614D01*
X28377962Y-45772038D01*
X28243386Y-45661595D01*
X28089850Y-45579528D01*
X27923254Y-45528992D01*
X27750000Y-45511928D01*
X26250000Y-45511928D01*
X26076746Y-45528992D01*
X25910150Y-45579528D01*
X25756614Y-45661595D01*
X25622038Y-45772038D01*
X25511595Y-45906614D01*
X25429528Y-46060150D01*
X25378992Y-46226746D01*
X25361928Y-46400000D01*
X25361928Y-47600000D01*
X25378992Y-47773254D01*
X25429528Y-47939850D01*
X25511595Y-48093386D01*
X25622038Y-48227962D01*
X25756614Y-48338405D01*
X25858337Y-48392777D01*
X25794866Y-48444866D01*
X25609294Y-48670986D01*
X25471401Y-48928966D01*
X25386487Y-49208889D01*
X25357815Y-49500000D01*
X20660000Y-49500000D01*
X20660000Y-35300000D01*
X21911928Y-35300000D01*
X21911928Y-37000000D01*
X21924188Y-37124482D01*
X21960498Y-37244180D01*
X22019463Y-37354494D01*
X22098815Y-37451185D01*
X22195506Y-37530537D01*
X22305820Y-37589502D01*
X22378380Y-37611513D01*
X22246525Y-37743368D01*
X22084010Y-37986589D01*
X21972068Y-38256842D01*
X21915000Y-38543740D01*
X21915000Y-38836260D01*
X21972068Y-39123158D01*
X22084010Y-39393411D01*
X22246525Y-39636632D01*
X22453368Y-39843475D01*
X22627760Y-39960000D01*
X22453368Y-40076525D01*
X22246525Y-40283368D01*
X22084010Y-40526589D01*
X21972068Y-40796842D01*
X21915000Y-41083740D01*
X21915000Y-41376260D01*
X21972068Y-41663158D01*
X22084010Y-41933411D01*
X22246525Y-42176632D01*
X22453368Y-42383475D01*
X22696589Y-42545990D01*
X22966842Y-42657932D01*
X23253740Y-42715000D01*
X23546260Y-42715000D01*
X23833158Y-42657932D01*
X23857978Y-42647651D01*
X77215410Y-42647651D01*
X77215410Y-42851529D01*
X77255184Y-43051488D01*
X77333205Y-43239846D01*
X77446473Y-43409364D01*
X77590636Y-43553527D01*
X77760154Y-43666795D01*
X77948512Y-43744816D01*
X78148471Y-43784590D01*
X78352349Y-43784590D01*
X78552308Y-43744816D01*
X78740666Y-43666795D01*
X78910184Y-43553527D01*
X79054347Y-43409364D01*
X79167615Y-43239846D01*
X79245636Y-43051488D01*
X79285410Y-42851529D01*
X79285410Y-42647651D01*
X79245636Y-42447692D01*
X79167615Y-42259334D01*
X79054347Y-42089816D01*
X78964531Y-42000000D01*
X105382815Y-42000000D01*
X105411487Y-42291111D01*
X105496401Y-42571034D01*
X105634294Y-42829014D01*
X105819866Y-43055134D01*
X106045986Y-43240706D01*
X106063374Y-43250000D01*
X106045986Y-43259294D01*
X105819866Y-43444866D01*
X105634294Y-43670986D01*
X105496401Y-43928966D01*
X105411487Y-44208889D01*
X105382815Y-44500000D01*
X105411487Y-44791111D01*
X105496401Y-45071034D01*
X105634294Y-45329014D01*
X105819866Y-45555134D01*
X105883337Y-45607223D01*
X105781614Y-45661595D01*
X105647038Y-45772038D01*
X105536595Y-45906614D01*
X105454528Y-46060150D01*
X105403992Y-46226746D01*
X105386928Y-46400000D01*
X105386928Y-47600000D01*
X105403992Y-47773254D01*
X105454528Y-47939850D01*
X105536595Y-48093386D01*
X105647038Y-48227962D01*
X105781614Y-48338405D01*
X105935150Y-48420472D01*
X106101746Y-48471008D01*
X106275000Y-48488072D01*
X107725000Y-48488072D01*
X107898254Y-48471008D01*
X108064850Y-48420472D01*
X108218386Y-48338405D01*
X108352962Y-48227962D01*
X108463405Y-48093386D01*
X108545472Y-47939850D01*
X108596008Y-47773254D01*
X108613072Y-47600000D01*
X108613072Y-46400000D01*
X108596008Y-46226746D01*
X108545472Y-46060150D01*
X108463405Y-45906614D01*
X108352962Y-45772038D01*
X108218386Y-45661595D01*
X108116663Y-45607223D01*
X108180134Y-45555134D01*
X108365706Y-45329014D01*
X108503599Y-45071034D01*
X108588513Y-44791111D01*
X108617185Y-44500000D01*
X108588513Y-44208889D01*
X108503599Y-43928966D01*
X108365706Y-43670986D01*
X108180134Y-43444866D01*
X107954014Y-43259294D01*
X107936626Y-43250000D01*
X107954014Y-43240706D01*
X108180134Y-43055134D01*
X108365706Y-42829014D01*
X108503599Y-42571034D01*
X108588513Y-42291111D01*
X108617185Y-42000000D01*
X108588513Y-41708889D01*
X108503599Y-41428966D01*
X108365706Y-41170986D01*
X108180134Y-40944866D01*
X107954014Y-40759294D01*
X107696034Y-40621401D01*
X107416111Y-40536487D01*
X107197950Y-40515000D01*
X106802050Y-40515000D01*
X106583889Y-40536487D01*
X106303966Y-40621401D01*
X106045986Y-40759294D01*
X105819866Y-40944866D01*
X105634294Y-41170986D01*
X105496401Y-41428966D01*
X105411487Y-41708889D01*
X105382815Y-42000000D01*
X78964531Y-42000000D01*
X78910184Y-41945653D01*
X78740666Y-41832385D01*
X78552308Y-41754364D01*
X78352349Y-41714590D01*
X78148471Y-41714590D01*
X77948512Y-41754364D01*
X77760154Y-41832385D01*
X77590636Y-41945653D01*
X77446473Y-42089816D01*
X77333205Y-42259334D01*
X77255184Y-42447692D01*
X77215410Y-42647651D01*
X23857978Y-42647651D01*
X24103411Y-42545990D01*
X24346632Y-42383475D01*
X24553475Y-42176632D01*
X24715990Y-41933411D01*
X24827932Y-41663158D01*
X24885000Y-41376260D01*
X24885000Y-41083740D01*
X24827932Y-40796842D01*
X24715990Y-40526589D01*
X24553475Y-40283368D01*
X24346632Y-40076525D01*
X24172240Y-39960000D01*
X24346632Y-39843475D01*
X24553475Y-39636632D01*
X24715990Y-39393411D01*
X24827932Y-39123158D01*
X24885000Y-38836260D01*
X24885000Y-38588061D01*
X25275000Y-38588061D01*
X25275000Y-38791939D01*
X25314774Y-38991898D01*
X25392795Y-39180256D01*
X25506063Y-39349774D01*
X25650226Y-39493937D01*
X25819744Y-39607205D01*
X26008102Y-39685226D01*
X26208061Y-39725000D01*
X26411939Y-39725000D01*
X26611898Y-39685226D01*
X26800256Y-39607205D01*
X26874994Y-39557267D01*
X26949732Y-39607205D01*
X27138090Y-39685226D01*
X27338049Y-39725000D01*
X27541927Y-39725000D01*
X27741886Y-39685226D01*
X27930244Y-39607205D01*
X28094994Y-39497123D01*
X28259744Y-39607205D01*
X28448102Y-39685226D01*
X28648061Y-39725000D01*
X28851939Y-39725000D01*
X29051898Y-39685226D01*
X29240256Y-39607205D01*
X29409774Y-39493937D01*
X29553937Y-39349774D01*
X29667205Y-39180256D01*
X29680540Y-39148061D01*
X49965000Y-39148061D01*
X49965000Y-39351939D01*
X50004774Y-39551898D01*
X50082795Y-39740256D01*
X50196063Y-39909774D01*
X50340226Y-40053937D01*
X50509744Y-40167205D01*
X50698102Y-40245226D01*
X50898061Y-40285000D01*
X51101939Y-40285000D01*
X51301898Y-40245226D01*
X51490256Y-40167205D01*
X51659774Y-40053937D01*
X51803937Y-39909774D01*
X51917205Y-39740256D01*
X51995226Y-39551898D01*
X52035000Y-39351939D01*
X52035000Y-39148061D01*
X51995226Y-38948102D01*
X51917205Y-38759744D01*
X51803937Y-38590226D01*
X51659774Y-38446063D01*
X51490256Y-38332795D01*
X51301898Y-38254774D01*
X51101939Y-38215000D01*
X50898061Y-38215000D01*
X50698102Y-38254774D01*
X50509744Y-38332795D01*
X50340226Y-38446063D01*
X50196063Y-38590226D01*
X50082795Y-38759744D01*
X50004774Y-38948102D01*
X49965000Y-39148061D01*
X29680540Y-39148061D01*
X29745226Y-38991898D01*
X29785000Y-38791939D01*
X29785000Y-38588061D01*
X29745226Y-38388102D01*
X29667205Y-38199744D01*
X29632672Y-38148061D01*
X77215000Y-38148061D01*
X77215000Y-38351939D01*
X77254774Y-38551898D01*
X77332795Y-38740256D01*
X77446063Y-38909774D01*
X77590226Y-39053937D01*
X77759744Y-39167205D01*
X77948102Y-39245226D01*
X78148061Y-39285000D01*
X78351939Y-39285000D01*
X78551898Y-39245226D01*
X78740256Y-39167205D01*
X78909774Y-39053937D01*
X79053937Y-38909774D01*
X79167205Y-38740256D01*
X79245226Y-38551898D01*
X79285000Y-38351939D01*
X79285000Y-38148061D01*
X79245226Y-37948102D01*
X79167205Y-37759744D01*
X79053937Y-37590226D01*
X78909774Y-37446063D01*
X78740256Y-37332795D01*
X78551898Y-37254774D01*
X78351939Y-37215000D01*
X78148061Y-37215000D01*
X77948102Y-37254774D01*
X77759744Y-37332795D01*
X77590226Y-37446063D01*
X77446063Y-37590226D01*
X77332795Y-37759744D01*
X77254774Y-37948102D01*
X77215000Y-38148061D01*
X29632672Y-38148061D01*
X29553937Y-38030226D01*
X29409774Y-37886063D01*
X29240256Y-37772795D01*
X29051898Y-37694774D01*
X28851939Y-37655000D01*
X28648061Y-37655000D01*
X28448102Y-37694774D01*
X28259744Y-37772795D01*
X28094994Y-37882877D01*
X27930244Y-37772795D01*
X27741886Y-37694774D01*
X27541927Y-37655000D01*
X27338049Y-37655000D01*
X27138090Y-37694774D01*
X26949732Y-37772795D01*
X26874994Y-37822733D01*
X26800256Y-37772795D01*
X26611898Y-37694774D01*
X26411939Y-37655000D01*
X26208061Y-37655000D01*
X26008102Y-37694774D01*
X25819744Y-37772795D01*
X25650226Y-37886063D01*
X25506063Y-38030226D01*
X25392795Y-38199744D01*
X25314774Y-38388102D01*
X25275000Y-38588061D01*
X24885000Y-38588061D01*
X24885000Y-38543740D01*
X24827932Y-38256842D01*
X24715990Y-37986589D01*
X24553475Y-37743368D01*
X24421620Y-37611513D01*
X24494180Y-37589502D01*
X24604494Y-37530537D01*
X24701185Y-37451185D01*
X24780537Y-37354494D01*
X24839502Y-37244180D01*
X24875812Y-37124482D01*
X24888072Y-37000000D01*
X24888072Y-35300000D01*
X24875812Y-35175518D01*
X24839502Y-35055820D01*
X24780537Y-34945506D01*
X24701185Y-34848815D01*
X24604494Y-34769463D01*
X24494180Y-34710498D01*
X24374482Y-34674188D01*
X24250000Y-34661928D01*
X22550000Y-34661928D01*
X22425518Y-34674188D01*
X22305820Y-34710498D01*
X22195506Y-34769463D01*
X22098815Y-34848815D01*
X22019463Y-34945506D01*
X21960498Y-35055820D01*
X21924188Y-35175518D01*
X21911928Y-35300000D01*
X20660000Y-35300000D01*
X20660000Y-29548061D01*
X83315000Y-29548061D01*
X83315000Y-29751939D01*
X83354774Y-29951898D01*
X83432795Y-30140256D01*
X83546063Y-30309774D01*
X83690226Y-30453937D01*
X83859744Y-30567205D01*
X84048102Y-30645226D01*
X84248061Y-30685000D01*
X84451939Y-30685000D01*
X84651898Y-30645226D01*
X84840256Y-30567205D01*
X85009774Y-30453937D01*
X85075770Y-30387941D01*
X85107795Y-30465256D01*
X85221063Y-30634774D01*
X85365226Y-30778937D01*
X85534744Y-30892205D01*
X85723102Y-30970226D01*
X85923061Y-31010000D01*
X86126939Y-31010000D01*
X86326898Y-30970226D01*
X86515256Y-30892205D01*
X86684774Y-30778937D01*
X86828937Y-30634774D01*
X86942205Y-30465256D01*
X87020226Y-30276898D01*
X87060000Y-30076939D01*
X87060000Y-29873061D01*
X87020226Y-29673102D01*
X86942205Y-29484744D01*
X86828937Y-29315226D01*
X86684774Y-29171063D01*
X86515256Y-29057795D01*
X86326898Y-28979774D01*
X86126939Y-28940000D01*
X85923061Y-28940000D01*
X85723102Y-28979774D01*
X85534744Y-29057795D01*
X85365226Y-29171063D01*
X85299230Y-29237059D01*
X85267205Y-29159744D01*
X85153937Y-28990226D01*
X85009774Y-28846063D01*
X84840256Y-28732795D01*
X84651898Y-28654774D01*
X84451939Y-28615000D01*
X84248061Y-28615000D01*
X84048102Y-28654774D01*
X83859744Y-28732795D01*
X83690226Y-28846063D01*
X83546063Y-28990226D01*
X83432795Y-29159744D01*
X83354774Y-29348102D01*
X83315000Y-29548061D01*
X20660000Y-29548061D01*
X20660000Y-24032278D01*
X20726714Y-23351874D01*
X20757471Y-23250000D01*
X26611928Y-23250000D01*
X26611928Y-26750000D01*
X26624188Y-26874482D01*
X26660498Y-26994180D01*
X26719463Y-27104494D01*
X26798815Y-27201185D01*
X26895506Y-27280537D01*
X27005820Y-27339502D01*
X27125518Y-27375812D01*
X27250000Y-27388072D01*
X30750000Y-27388072D01*
X30874482Y-27375812D01*
X30994180Y-27339502D01*
X31104494Y-27280537D01*
X31201185Y-27201185D01*
X31280537Y-27104494D01*
X31339502Y-26994180D01*
X31375812Y-26874482D01*
X31388072Y-26750000D01*
X31388072Y-23250000D01*
X31375812Y-23125518D01*
X31339502Y-23005820D01*
X31281903Y-22898061D01*
X67965000Y-22898061D01*
X67965000Y-23101939D01*
X68004774Y-23301898D01*
X68082795Y-23490256D01*
X68196063Y-23659774D01*
X68340226Y-23803937D01*
X68509744Y-23917205D01*
X68698102Y-23995226D01*
X68898061Y-24035000D01*
X69101939Y-24035000D01*
X69301898Y-23995226D01*
X69490256Y-23917205D01*
X69659774Y-23803937D01*
X69803937Y-23659774D01*
X69917205Y-23490256D01*
X69995226Y-23301898D01*
X70035000Y-23101939D01*
X70035000Y-22898061D01*
X69995226Y-22698102D01*
X69917205Y-22509744D01*
X69803937Y-22340226D01*
X69659774Y-22196063D01*
X69490256Y-22082795D01*
X69301898Y-22004774D01*
X69101939Y-21965000D01*
X68898061Y-21965000D01*
X68698102Y-22004774D01*
X68509744Y-22082795D01*
X68340226Y-22196063D01*
X68196063Y-22340226D01*
X68082795Y-22509744D01*
X68004774Y-22698102D01*
X67965000Y-22898061D01*
X31281903Y-22898061D01*
X31280537Y-22895506D01*
X31201185Y-22798815D01*
X31104494Y-22719463D01*
X30994180Y-22660498D01*
X30874482Y-22624188D01*
X30750000Y-22611928D01*
X27250000Y-22611928D01*
X27125518Y-22624188D01*
X27005820Y-22660498D01*
X26895506Y-22719463D01*
X26798815Y-22798815D01*
X26719463Y-22895506D01*
X26660498Y-23005820D01*
X26624188Y-23125518D01*
X26611928Y-23250000D01*
X20757471Y-23250000D01*
X20914943Y-22728428D01*
X21220681Y-22153421D01*
X21632279Y-21648753D01*
X22134067Y-21233638D01*
X22706924Y-20923895D01*
X23329039Y-20731318D01*
X24007584Y-20660000D01*
X47876289Y-20660000D01*
X47796063Y-20740226D01*
G37*
%TD.AperFunction*%
%TD*%
M02*
