%TF.GenerationSoftware,KiCad,Pcbnew,5.1.10-88a1d61d58~90~ubuntu21.04.1*%
%TF.CreationDate,2021-07-30T10:57:06+02:00*%
%TF.ProjectId,DccDecoder,44636344-6563-46f6-9465-722e6b696361,rev?*%
%TF.SameCoordinates,Original*%
%TF.FileFunction,Soldermask,Bot*%
%TF.FilePolarity,Negative*%
%FSLAX46Y46*%
G04 Gerber Fmt 4.6, Leading zero omitted, Abs format (unit mm)*
G04 Created by KiCad (PCBNEW 5.1.10-88a1d61d58~90~ubuntu21.04.1) date 2021-07-30 10:57:06*
%MOMM*%
%LPD*%
G01*
G04 APERTURE LIST*
%ADD10C,4.700000*%
%ADD11O,1.700000X1.700000*%
%ADD12R,1.700000X1.700000*%
%ADD13R,3.500000X3.500000*%
%ADD14O,1.950000X1.700000*%
%ADD15O,2.000000X1.700000*%
G04 APERTURE END LIST*
D10*
%TO.C,H3*%
X111000000Y-24000000D03*
%TD*%
%TO.C,H2*%
X111000000Y-62000000D03*
%TD*%
%TO.C,H1*%
X24000000Y-62000000D03*
%TD*%
D11*
%TO.C,J6*%
X92040000Y-63000000D03*
D12*
X89500000Y-63000000D03*
%TD*%
D11*
%TO.C,J5*%
X71750000Y-63000000D03*
D12*
X69210000Y-63000000D03*
%TD*%
%TO.C,J2*%
G36*
G01*
X24250000Y-30575000D02*
X24250000Y-28825000D01*
G75*
G02*
X25125000Y-27950000I875000J0D01*
G01*
X26875000Y-27950000D01*
G75*
G02*
X27750000Y-28825000I0J-875000D01*
G01*
X27750000Y-30575000D01*
G75*
G02*
X26875000Y-31450000I-875000J0D01*
G01*
X25125000Y-31450000D01*
G75*
G02*
X24250000Y-30575000I0J875000D01*
G01*
G37*
G36*
G01*
X21500000Y-26000000D02*
X21500000Y-24000000D01*
G75*
G02*
X22250000Y-23250000I750000J0D01*
G01*
X23750000Y-23250000D01*
G75*
G02*
X24500000Y-24000000I0J-750000D01*
G01*
X24500000Y-26000000D01*
G75*
G02*
X23750000Y-26750000I-750000J0D01*
G01*
X22250000Y-26750000D01*
G75*
G02*
X21500000Y-26000000I0J750000D01*
G01*
G37*
D13*
X29000000Y-25000000D03*
%TD*%
D14*
%TO.C,J7*%
X107000000Y-39500000D03*
X107000000Y-42000000D03*
X107000000Y-44500000D03*
G36*
G01*
X107725000Y-47850000D02*
X106275000Y-47850000D01*
G75*
G02*
X106025000Y-47600000I0J250000D01*
G01*
X106025000Y-46400000D01*
G75*
G02*
X106275000Y-46150000I250000J0D01*
G01*
X107725000Y-46150000D01*
G75*
G02*
X107975000Y-46400000I0J-250000D01*
G01*
X107975000Y-47600000D01*
G75*
G02*
X107725000Y-47850000I-250000J0D01*
G01*
G37*
%TD*%
D11*
%TO.C,J4*%
X40540000Y-63000000D03*
D12*
X38000000Y-63000000D03*
%TD*%
D11*
%TO.C,J3*%
X23400000Y-41230000D03*
X23400000Y-38690000D03*
D12*
X23400000Y-36150000D03*
%TD*%
D15*
%TO.C,J1*%
X27000000Y-49500000D03*
G36*
G01*
X26250000Y-46150000D02*
X27750000Y-46150000D01*
G75*
G02*
X28000000Y-46400000I0J-250000D01*
G01*
X28000000Y-47600000D01*
G75*
G02*
X27750000Y-47850000I-250000J0D01*
G01*
X26250000Y-47850000D01*
G75*
G02*
X26000000Y-47600000I0J250000D01*
G01*
X26000000Y-46400000D01*
G75*
G02*
X26250000Y-46150000I250000J0D01*
G01*
G37*
%TD*%
M02*
