%TF.GenerationSoftware,KiCad,Pcbnew,5.1.10-88a1d61d58~90~ubuntu21.04.1*%
%TF.CreationDate,2021-07-16T14:05:02+02:00*%
%TF.ProjectId,DccDetector,44636344-6574-4656-9374-6f722e6b6963,rev?*%
%TF.SameCoordinates,Original*%
%TF.FileFunction,Legend,Top*%
%TF.FilePolarity,Positive*%
%FSLAX46Y46*%
G04 Gerber Fmt 4.6, Leading zero omitted, Abs format (unit mm)*
G04 Created by KiCad (PCBNEW 5.1.10-88a1d61d58~90~ubuntu21.04.1) date 2021-07-16 14:05:02*
%MOMM*%
%LPD*%
G01*
G04 APERTURE LIST*
%ADD10C,0.150000*%
%ADD11C,0.120000*%
%ADD12C,0.127000*%
%ADD13C,0.015000*%
G04 APERTURE END LIST*
D10*
X31369047Y-25071428D02*
X32130952Y-25071428D01*
X31750000Y-25452380D02*
X31750000Y-24690476D01*
X68738095Y-66702380D02*
X68738095Y-65702380D01*
X68976190Y-65702380D01*
X69119047Y-65750000D01*
X69214285Y-65845238D01*
X69261904Y-65940476D01*
X69309523Y-66130952D01*
X69309523Y-66273809D01*
X69261904Y-66464285D01*
X69214285Y-66559523D01*
X69119047Y-66654761D01*
X68976190Y-66702380D01*
X68738095Y-66702380D01*
X70166666Y-66702380D02*
X70166666Y-66178571D01*
X70119047Y-66083333D01*
X70023809Y-66035714D01*
X69833333Y-66035714D01*
X69738095Y-66083333D01*
X70166666Y-66654761D02*
X70071428Y-66702380D01*
X69833333Y-66702380D01*
X69738095Y-66654761D01*
X69690476Y-66559523D01*
X69690476Y-66464285D01*
X69738095Y-66369047D01*
X69833333Y-66321428D01*
X70071428Y-66321428D01*
X70166666Y-66273809D01*
X70642857Y-66035714D02*
X70642857Y-66702380D01*
X70642857Y-66130952D02*
X70690476Y-66083333D01*
X70785714Y-66035714D01*
X70928571Y-66035714D01*
X71023809Y-66083333D01*
X71071428Y-66178571D01*
X71071428Y-66702380D01*
X71547619Y-66702380D02*
X71547619Y-66035714D01*
X71547619Y-65702380D02*
X71500000Y-65750000D01*
X71547619Y-65797619D01*
X71595238Y-65750000D01*
X71547619Y-65702380D01*
X71547619Y-65797619D01*
X72404761Y-66654761D02*
X72309523Y-66702380D01*
X72119047Y-66702380D01*
X72023809Y-66654761D01*
X71976190Y-66559523D01*
X71976190Y-66178571D01*
X72023809Y-66083333D01*
X72119047Y-66035714D01*
X72309523Y-66035714D01*
X72404761Y-66083333D01*
X72452380Y-66178571D01*
X72452380Y-66273809D01*
X71976190Y-66369047D01*
X73023809Y-66702380D02*
X72928571Y-66654761D01*
X72880952Y-66559523D01*
X72880952Y-65702380D01*
X74023809Y-65702380D02*
X74357142Y-66702380D01*
X74690476Y-65702380D01*
X75023809Y-66702380D02*
X75023809Y-66035714D01*
X75023809Y-65702380D02*
X74976190Y-65750000D01*
X75023809Y-65797619D01*
X75071428Y-65750000D01*
X75023809Y-65702380D01*
X75023809Y-65797619D01*
X75642857Y-66702380D02*
X75547619Y-66654761D01*
X75500000Y-66559523D01*
X75500000Y-65702380D01*
X76452380Y-66702380D02*
X76452380Y-66178571D01*
X76404761Y-66083333D01*
X76309523Y-66035714D01*
X76119047Y-66035714D01*
X76023809Y-66083333D01*
X76452380Y-66654761D02*
X76357142Y-66702380D01*
X76119047Y-66702380D01*
X76023809Y-66654761D01*
X75976190Y-66559523D01*
X75976190Y-66464285D01*
X76023809Y-66369047D01*
X76119047Y-66321428D01*
X76357142Y-66321428D01*
X76452380Y-66273809D01*
X76880952Y-66654761D02*
X76976190Y-66702380D01*
X77166666Y-66702380D01*
X77261904Y-66654761D01*
X77309523Y-66559523D01*
X77309523Y-66511904D01*
X77261904Y-66416666D01*
X77166666Y-66369047D01*
X77023809Y-66369047D01*
X76928571Y-66321428D01*
X76880952Y-66226190D01*
X76880952Y-66178571D01*
X76928571Y-66083333D01*
X77023809Y-66035714D01*
X77166666Y-66035714D01*
X77261904Y-66083333D01*
X33595238Y-22877380D02*
X33595238Y-21877380D01*
X33833333Y-21877380D01*
X33976190Y-21925000D01*
X34071428Y-22020238D01*
X34119047Y-22115476D01*
X34166666Y-22305952D01*
X34166666Y-22448809D01*
X34119047Y-22639285D01*
X34071428Y-22734523D01*
X33976190Y-22829761D01*
X33833333Y-22877380D01*
X33595238Y-22877380D01*
X35023809Y-22829761D02*
X34928571Y-22877380D01*
X34738095Y-22877380D01*
X34642857Y-22829761D01*
X34595238Y-22782142D01*
X34547619Y-22686904D01*
X34547619Y-22401190D01*
X34595238Y-22305952D01*
X34642857Y-22258333D01*
X34738095Y-22210714D01*
X34928571Y-22210714D01*
X35023809Y-22258333D01*
X35880952Y-22829761D02*
X35785714Y-22877380D01*
X35595238Y-22877380D01*
X35500000Y-22829761D01*
X35452380Y-22782142D01*
X35404761Y-22686904D01*
X35404761Y-22401190D01*
X35452380Y-22305952D01*
X35500000Y-22258333D01*
X35595238Y-22210714D01*
X35785714Y-22210714D01*
X35880952Y-22258333D01*
X37071428Y-22877380D02*
X37071428Y-21877380D01*
X37452380Y-21877380D01*
X37547619Y-21925000D01*
X37595238Y-21972619D01*
X37642857Y-22067857D01*
X37642857Y-22210714D01*
X37595238Y-22305952D01*
X37547619Y-22353571D01*
X37452380Y-22401190D01*
X37071428Y-22401190D01*
X38214285Y-22877380D02*
X38119047Y-22829761D01*
X38071428Y-22782142D01*
X38023809Y-22686904D01*
X38023809Y-22401190D01*
X38071428Y-22305952D01*
X38119047Y-22258333D01*
X38214285Y-22210714D01*
X38357142Y-22210714D01*
X38452380Y-22258333D01*
X38500000Y-22305952D01*
X38547619Y-22401190D01*
X38547619Y-22686904D01*
X38500000Y-22782142D01*
X38452380Y-22829761D01*
X38357142Y-22877380D01*
X38214285Y-22877380D01*
X38880952Y-22210714D02*
X39071428Y-22877380D01*
X39261904Y-22401190D01*
X39452380Y-22877380D01*
X39642857Y-22210714D01*
X40404761Y-22829761D02*
X40309523Y-22877380D01*
X40119047Y-22877380D01*
X40023809Y-22829761D01*
X39976190Y-22734523D01*
X39976190Y-22353571D01*
X40023809Y-22258333D01*
X40119047Y-22210714D01*
X40309523Y-22210714D01*
X40404761Y-22258333D01*
X40452380Y-22353571D01*
X40452380Y-22448809D01*
X39976190Y-22544047D01*
X40880952Y-22877380D02*
X40880952Y-22210714D01*
X40880952Y-22401190D02*
X40928571Y-22305952D01*
X40976190Y-22258333D01*
X41071428Y-22210714D01*
X41166666Y-22210714D01*
X42261904Y-22877380D02*
X42261904Y-21877380D01*
X42500000Y-21877380D01*
X42642857Y-21925000D01*
X42738095Y-22020238D01*
X42785714Y-22115476D01*
X42833333Y-22305952D01*
X42833333Y-22448809D01*
X42785714Y-22639285D01*
X42738095Y-22734523D01*
X42642857Y-22829761D01*
X42500000Y-22877380D01*
X42261904Y-22877380D01*
X43261904Y-22877380D02*
X43261904Y-22210714D01*
X43261904Y-21877380D02*
X43214285Y-21925000D01*
X43261904Y-21972619D01*
X43309523Y-21925000D01*
X43261904Y-21877380D01*
X43261904Y-21972619D01*
X43690476Y-22829761D02*
X43785714Y-22877380D01*
X43976190Y-22877380D01*
X44071428Y-22829761D01*
X44119047Y-22734523D01*
X44119047Y-22686904D01*
X44071428Y-22591666D01*
X43976190Y-22544047D01*
X43833333Y-22544047D01*
X43738095Y-22496428D01*
X43690476Y-22401190D01*
X43690476Y-22353571D01*
X43738095Y-22258333D01*
X43833333Y-22210714D01*
X43976190Y-22210714D01*
X44071428Y-22258333D01*
X44404761Y-22210714D02*
X44785714Y-22210714D01*
X44547619Y-21877380D02*
X44547619Y-22734523D01*
X44595238Y-22829761D01*
X44690476Y-22877380D01*
X44785714Y-22877380D01*
X45119047Y-22877380D02*
X45119047Y-22210714D01*
X45119047Y-22401190D02*
X45166666Y-22305952D01*
X45214285Y-22258333D01*
X45309523Y-22210714D01*
X45404761Y-22210714D01*
X45738095Y-22877380D02*
X45738095Y-22210714D01*
X45738095Y-21877380D02*
X45690476Y-21925000D01*
X45738095Y-21972619D01*
X45785714Y-21925000D01*
X45738095Y-21877380D01*
X45738095Y-21972619D01*
X46214285Y-22877380D02*
X46214285Y-21877380D01*
X46214285Y-22258333D02*
X46309523Y-22210714D01*
X46500000Y-22210714D01*
X46595238Y-22258333D01*
X46642857Y-22305952D01*
X46690476Y-22401190D01*
X46690476Y-22686904D01*
X46642857Y-22782142D01*
X46595238Y-22829761D01*
X46500000Y-22877380D01*
X46309523Y-22877380D01*
X46214285Y-22829761D01*
X47547619Y-22210714D02*
X47547619Y-22877380D01*
X47119047Y-22210714D02*
X47119047Y-22734523D01*
X47166666Y-22829761D01*
X47261904Y-22877380D01*
X47404761Y-22877380D01*
X47500000Y-22829761D01*
X47547619Y-22782142D01*
X47880952Y-22210714D02*
X48261904Y-22210714D01*
X48023809Y-21877380D02*
X48023809Y-22734523D01*
X48071428Y-22829761D01*
X48166666Y-22877380D01*
X48261904Y-22877380D01*
X48595238Y-22877380D02*
X48595238Y-22210714D01*
X48595238Y-21877380D02*
X48547619Y-21925000D01*
X48595238Y-21972619D01*
X48642857Y-21925000D01*
X48595238Y-21877380D01*
X48595238Y-21972619D01*
X49214285Y-22877380D02*
X49119047Y-22829761D01*
X49071428Y-22782142D01*
X49023809Y-22686904D01*
X49023809Y-22401190D01*
X49071428Y-22305952D01*
X49119047Y-22258333D01*
X49214285Y-22210714D01*
X49357142Y-22210714D01*
X49452380Y-22258333D01*
X49500000Y-22305952D01*
X49547619Y-22401190D01*
X49547619Y-22686904D01*
X49500000Y-22782142D01*
X49452380Y-22829761D01*
X49357142Y-22877380D01*
X49214285Y-22877380D01*
X49976190Y-22210714D02*
X49976190Y-22877380D01*
X49976190Y-22305952D02*
X50023809Y-22258333D01*
X50119047Y-22210714D01*
X50261904Y-22210714D01*
X50357142Y-22258333D01*
X50404761Y-22353571D01*
X50404761Y-22877380D01*
X40404761Y-24003571D02*
X40547619Y-24051190D01*
X40595238Y-24098809D01*
X40642857Y-24194047D01*
X40642857Y-24336904D01*
X40595238Y-24432142D01*
X40547619Y-24479761D01*
X40452380Y-24527380D01*
X40071428Y-24527380D01*
X40071428Y-23527380D01*
X40404761Y-23527380D01*
X40500000Y-23575000D01*
X40547619Y-23622619D01*
X40595238Y-23717857D01*
X40595238Y-23813095D01*
X40547619Y-23908333D01*
X40500000Y-23955952D01*
X40404761Y-24003571D01*
X40071428Y-24003571D01*
X41214285Y-24527380D02*
X41119047Y-24479761D01*
X41071428Y-24432142D01*
X41023809Y-24336904D01*
X41023809Y-24051190D01*
X41071428Y-23955952D01*
X41119047Y-23908333D01*
X41214285Y-23860714D01*
X41357142Y-23860714D01*
X41452380Y-23908333D01*
X41500000Y-23955952D01*
X41547619Y-24051190D01*
X41547619Y-24336904D01*
X41500000Y-24432142D01*
X41452380Y-24479761D01*
X41357142Y-24527380D01*
X41214285Y-24527380D01*
X42404761Y-24527380D02*
X42404761Y-24003571D01*
X42357142Y-23908333D01*
X42261904Y-23860714D01*
X42071428Y-23860714D01*
X41976190Y-23908333D01*
X42404761Y-24479761D02*
X42309523Y-24527380D01*
X42071428Y-24527380D01*
X41976190Y-24479761D01*
X41928571Y-24384523D01*
X41928571Y-24289285D01*
X41976190Y-24194047D01*
X42071428Y-24146428D01*
X42309523Y-24146428D01*
X42404761Y-24098809D01*
X42880952Y-24527380D02*
X42880952Y-23860714D01*
X42880952Y-24051190D02*
X42928571Y-23955952D01*
X42976190Y-23908333D01*
X43071428Y-23860714D01*
X43166666Y-23860714D01*
X43928571Y-24527380D02*
X43928571Y-23527380D01*
X43928571Y-24479761D02*
X43833333Y-24527380D01*
X43642857Y-24527380D01*
X43547619Y-24479761D01*
X43500000Y-24432142D01*
X43452380Y-24336904D01*
X43452380Y-24051190D01*
X43500000Y-23955952D01*
X43547619Y-23908333D01*
X43642857Y-23860714D01*
X43833333Y-23860714D01*
X43928571Y-23908333D01*
X55571428Y-45452380D02*
X55095238Y-45452380D01*
X55047619Y-45928571D01*
X55095238Y-45880952D01*
X55190476Y-45833333D01*
X55428571Y-45833333D01*
X55523809Y-45880952D01*
X55571428Y-45928571D01*
X55619047Y-46023809D01*
X55619047Y-46261904D01*
X55571428Y-46357142D01*
X55523809Y-46404761D01*
X55428571Y-46452380D01*
X55190476Y-46452380D01*
X55095238Y-46404761D01*
X55047619Y-46357142D01*
X55952380Y-45785714D02*
X56190476Y-46452380D01*
X56428571Y-45785714D01*
X57285714Y-46452380D02*
X56809523Y-46452380D01*
X56809523Y-45452380D01*
X58000000Y-46404761D02*
X57904761Y-46452380D01*
X57714285Y-46452380D01*
X57619047Y-46404761D01*
X57571428Y-46309523D01*
X57571428Y-45928571D01*
X57619047Y-45833333D01*
X57714285Y-45785714D01*
X57904761Y-45785714D01*
X58000000Y-45833333D01*
X58047619Y-45928571D01*
X58047619Y-46023809D01*
X57571428Y-46119047D01*
X58904761Y-46452380D02*
X58904761Y-45452380D01*
X58904761Y-46404761D02*
X58809523Y-46452380D01*
X58619047Y-46452380D01*
X58523809Y-46404761D01*
X58476190Y-46357142D01*
X58428571Y-46261904D01*
X58428571Y-45976190D01*
X58476190Y-45880952D01*
X58523809Y-45833333D01*
X58619047Y-45785714D01*
X58809523Y-45785714D01*
X58904761Y-45833333D01*
X69000000Y-32452380D02*
X69619047Y-32452380D01*
X69285714Y-32833333D01*
X69428571Y-32833333D01*
X69523809Y-32880952D01*
X69571428Y-32928571D01*
X69619047Y-33023809D01*
X69619047Y-33261904D01*
X69571428Y-33357142D01*
X69523809Y-33404761D01*
X69428571Y-33452380D01*
X69142857Y-33452380D01*
X69047619Y-33404761D01*
X69000000Y-33357142D01*
X69952380Y-32785714D02*
X70190476Y-33452380D01*
X70428571Y-32785714D01*
X71285714Y-33452380D02*
X70809523Y-33452380D01*
X70809523Y-32452380D01*
X72000000Y-33404761D02*
X71904761Y-33452380D01*
X71714285Y-33452380D01*
X71619047Y-33404761D01*
X71571428Y-33309523D01*
X71571428Y-32928571D01*
X71619047Y-32833333D01*
X71714285Y-32785714D01*
X71904761Y-32785714D01*
X72000000Y-32833333D01*
X72047619Y-32928571D01*
X72047619Y-33023809D01*
X71571428Y-33119047D01*
X72904761Y-33452380D02*
X72904761Y-32452380D01*
X72904761Y-33404761D02*
X72809523Y-33452380D01*
X72619047Y-33452380D01*
X72523809Y-33404761D01*
X72476190Y-33357142D01*
X72428571Y-33261904D01*
X72428571Y-32976190D01*
X72476190Y-32880952D01*
X72523809Y-32833333D01*
X72619047Y-32785714D01*
X72809523Y-32785714D01*
X72904761Y-32833333D01*
X56690476Y-25452380D02*
X57023809Y-26452380D01*
X57357142Y-25452380D01*
X57690476Y-26452380D02*
X57690476Y-25785714D01*
X57690476Y-25452380D02*
X57642857Y-25500000D01*
X57690476Y-25547619D01*
X57738095Y-25500000D01*
X57690476Y-25452380D01*
X57690476Y-25547619D01*
X58166666Y-25785714D02*
X58166666Y-26452380D01*
X58166666Y-25880952D02*
X58214285Y-25833333D01*
X58309523Y-25785714D01*
X58452380Y-25785714D01*
X58547619Y-25833333D01*
X58595238Y-25928571D01*
X58595238Y-26452380D01*
X59547619Y-26452380D02*
X59071428Y-26452380D01*
X59071428Y-25452380D01*
X60261904Y-26404761D02*
X60166666Y-26452380D01*
X59976190Y-26452380D01*
X59880952Y-26404761D01*
X59833333Y-26309523D01*
X59833333Y-25928571D01*
X59880952Y-25833333D01*
X59976190Y-25785714D01*
X60166666Y-25785714D01*
X60261904Y-25833333D01*
X60309523Y-25928571D01*
X60309523Y-26023809D01*
X59833333Y-26119047D01*
X61166666Y-26452380D02*
X61166666Y-25452380D01*
X61166666Y-26404761D02*
X61071428Y-26452380D01*
X60880952Y-26452380D01*
X60785714Y-26404761D01*
X60738095Y-26357142D01*
X60690476Y-26261904D01*
X60690476Y-25976190D01*
X60738095Y-25880952D01*
X60785714Y-25833333D01*
X60880952Y-25785714D01*
X61071428Y-25785714D01*
X61166666Y-25833333D01*
D11*
%TO.C,J2*%
X29900000Y-20400000D02*
X29900000Y-23000000D01*
X15200000Y-20400000D02*
X29900000Y-20400000D01*
X29900000Y-29600000D02*
X28000000Y-29600000D01*
X29900000Y-26900000D02*
X29900000Y-29600000D01*
X15200000Y-29600000D02*
X15200000Y-20400000D01*
X24000000Y-29600000D02*
X15200000Y-29600000D01*
X29050000Y-20200000D02*
X30100000Y-20200000D01*
X30100000Y-21250000D02*
X30100000Y-20200000D01*
%TO.C,J7*%
X69250000Y-60850000D02*
X70500000Y-60850000D01*
X69250000Y-59600000D02*
X69250000Y-60850000D01*
X74750000Y-48700000D02*
X74750000Y-54250000D01*
X71800000Y-48700000D02*
X74750000Y-48700000D01*
X71800000Y-47950000D02*
X71800000Y-48700000D01*
X74750000Y-59800000D02*
X74750000Y-54250000D01*
X71800000Y-59800000D02*
X74750000Y-59800000D01*
X71800000Y-60550000D02*
X71800000Y-59800000D01*
X69550000Y-47950000D02*
X69550000Y-49750000D01*
X70300000Y-47950000D02*
X69550000Y-47950000D01*
X70300000Y-49750000D02*
X70300000Y-47950000D01*
X69550000Y-49750000D02*
X70300000Y-49750000D01*
X69550000Y-58750000D02*
X69550000Y-60550000D01*
X70300000Y-58750000D02*
X69550000Y-58750000D01*
X70300000Y-60550000D02*
X70300000Y-58750000D01*
X69550000Y-60550000D02*
X70300000Y-60550000D01*
X69550000Y-51250000D02*
X69550000Y-57250000D01*
X70300000Y-51250000D02*
X69550000Y-51250000D01*
X70300000Y-57250000D02*
X70300000Y-51250000D01*
X69550000Y-57250000D02*
X70300000Y-57250000D01*
X69540000Y-47940000D02*
X69540000Y-60560000D01*
X75510000Y-47940000D02*
X69540000Y-47940000D01*
X75510000Y-60560000D02*
X75510000Y-47940000D01*
X69540000Y-60560000D02*
X75510000Y-60560000D01*
%TO.C,J6*%
X70670000Y-37330000D02*
X70670000Y-36000000D01*
X72000000Y-37330000D02*
X70670000Y-37330000D01*
X73270000Y-37330000D02*
X73270000Y-34670000D01*
X73270000Y-34670000D02*
X75870000Y-34670000D01*
X73270000Y-37330000D02*
X75870000Y-37330000D01*
X75870000Y-37330000D02*
X75870000Y-34670000D01*
%TO.C,J5*%
X61670000Y-65670000D02*
X63000000Y-65670000D01*
X61670000Y-67000000D02*
X61670000Y-65670000D01*
X61670000Y-68270000D02*
X64330000Y-68270000D01*
X64330000Y-68270000D02*
X64330000Y-70870000D01*
X61670000Y-68270000D02*
X61670000Y-70870000D01*
X61670000Y-70870000D02*
X64330000Y-70870000D01*
%TO.C,J4*%
X71670000Y-25330000D02*
X71670000Y-24000000D01*
X73000000Y-25330000D02*
X71670000Y-25330000D01*
X74270000Y-25330000D02*
X74270000Y-22670000D01*
X74270000Y-22670000D02*
X76870000Y-22670000D01*
X74270000Y-25330000D02*
X76870000Y-25330000D01*
X76870000Y-25330000D02*
X76870000Y-22670000D01*
%TO.C,R10*%
X67727064Y-30090000D02*
X66272936Y-30090000D01*
X67727064Y-31910000D02*
X66272936Y-31910000D01*
%TO.C,R9*%
X53264564Y-43090000D02*
X51810436Y-43090000D01*
X53264564Y-44910000D02*
X51810436Y-44910000D01*
%TO.C,R6*%
X55264564Y-23090000D02*
X53810436Y-23090000D01*
X55264564Y-24910000D02*
X53810436Y-24910000D01*
%TO.C,JP7*%
X60950000Y-43000000D02*
X62350000Y-43000000D01*
X63050000Y-43700000D02*
X63050000Y-44300000D01*
X62350000Y-45000000D02*
X60950000Y-45000000D01*
X60250000Y-44300000D02*
X60250000Y-43700000D01*
X60250000Y-43700000D02*
G75*
G02*
X60950000Y-43000000I700000J0D01*
G01*
X60950000Y-45000000D02*
G75*
G02*
X60250000Y-44300000I0J700000D01*
G01*
X63050000Y-44300000D02*
G75*
G02*
X62350000Y-45000000I-700000J0D01*
G01*
X62350000Y-43000000D02*
G75*
G02*
X63050000Y-43700000I0J-700000D01*
G01*
%TO.C,JP6*%
X62950000Y-23000000D02*
X64350000Y-23000000D01*
X65050000Y-23700000D02*
X65050000Y-24300000D01*
X64350000Y-25000000D02*
X62950000Y-25000000D01*
X62250000Y-24300000D02*
X62250000Y-23700000D01*
X62250000Y-23700000D02*
G75*
G02*
X62950000Y-23000000I700000J0D01*
G01*
X62950000Y-25000000D02*
G75*
G02*
X62250000Y-24300000I0J700000D01*
G01*
X65050000Y-24300000D02*
G75*
G02*
X64350000Y-25000000I-700000J0D01*
G01*
X64350000Y-23000000D02*
G75*
G02*
X65050000Y-23700000I0J-700000D01*
G01*
%TO.C,JP5*%
X74950000Y-30000000D02*
X76350000Y-30000000D01*
X77050000Y-30700000D02*
X77050000Y-31300000D01*
X76350000Y-32000000D02*
X74950000Y-32000000D01*
X74250000Y-31300000D02*
X74250000Y-30700000D01*
X74250000Y-30700000D02*
G75*
G02*
X74950000Y-30000000I700000J0D01*
G01*
X74950000Y-32000000D02*
G75*
G02*
X74250000Y-31300000I0J700000D01*
G01*
X77050000Y-31300000D02*
G75*
G02*
X76350000Y-32000000I-700000J0D01*
G01*
X76350000Y-30000000D02*
G75*
G02*
X77050000Y-30700000I0J-700000D01*
G01*
%TO.C,D6*%
X69315000Y-32135000D02*
X73200000Y-32135000D01*
X69315000Y-29865000D02*
X69315000Y-32135000D01*
X73200000Y-29865000D02*
X69315000Y-29865000D01*
%TO.C,D5*%
X55315000Y-45135000D02*
X59200000Y-45135000D01*
X55315000Y-42865000D02*
X55315000Y-45135000D01*
X59200000Y-42865000D02*
X55315000Y-42865000D01*
%TO.C,D4*%
X57315000Y-25135000D02*
X61200000Y-25135000D01*
X57315000Y-22865000D02*
X57315000Y-25135000D01*
X61200000Y-22865000D02*
X57315000Y-22865000D01*
%TO.C,BR1*%
X37890000Y-50200000D02*
X37890000Y-60200000D01*
X37890000Y-60200000D02*
X26690000Y-60200000D01*
X26690000Y-60200000D02*
X26690000Y-50200000D01*
X26690000Y-50200000D02*
X37890000Y-50200000D01*
X37890000Y-59700000D02*
X26690000Y-59700000D01*
D12*
X36822000Y-58970000D02*
X36322000Y-58970000D01*
X36572000Y-58720000D02*
X36572000Y-59220000D01*
X36557200Y-53523600D02*
X36557200Y-54023600D01*
D11*
%TO.C,D3*%
X29615000Y-39705000D02*
X29615000Y-35820000D01*
X27345000Y-39705000D02*
X29615000Y-39705000D01*
X27345000Y-35820000D02*
X27345000Y-39705000D01*
%TO.C,U4*%
X63410000Y-28900000D02*
X63410000Y-34910000D01*
X56590000Y-31150000D02*
X56590000Y-34910000D01*
X63410000Y-34910000D02*
X62150000Y-34910000D01*
X56590000Y-34910000D02*
X57850000Y-34910000D01*
%TO.C,R8*%
X35749564Y-29790000D02*
X34295436Y-29790000D01*
X35749564Y-31610000D02*
X34295436Y-31610000D01*
%TO.C,R7*%
X30284564Y-32700000D02*
X28830436Y-32700000D01*
X30284564Y-34520000D02*
X28830436Y-34520000D01*
%TO.C,Q4*%
X41490000Y-29310000D02*
X41490000Y-30770000D01*
X38330000Y-29310000D02*
X38330000Y-31470000D01*
X38330000Y-29310000D02*
X39260000Y-29310000D01*
X41490000Y-29310000D02*
X40560000Y-29310000D01*
%TO.C,Q3*%
X35590000Y-36460000D02*
X34130000Y-36460000D01*
X35590000Y-33300000D02*
X33430000Y-33300000D01*
X35590000Y-33300000D02*
X35590000Y-34230000D01*
X35590000Y-36460000D02*
X35590000Y-35530000D01*
%TO.C,Q2*%
X41490000Y-33850000D02*
X41490000Y-35310000D01*
X38330000Y-33850000D02*
X38330000Y-36010000D01*
X38330000Y-33850000D02*
X39260000Y-33850000D01*
X41490000Y-33850000D02*
X40560000Y-33850000D01*
%TO.C,J3*%
X22070000Y-34820000D02*
X23400000Y-34820000D01*
X22070000Y-36150000D02*
X22070000Y-34820000D01*
X22070000Y-37420000D02*
X24730000Y-37420000D01*
X24730000Y-37420000D02*
X24730000Y-42560000D01*
X22070000Y-37420000D02*
X22070000Y-42560000D01*
X22070000Y-42560000D02*
X24730000Y-42560000D01*
%TO.C,D2*%
X33305000Y-42635000D02*
X29420000Y-42635000D01*
X33305000Y-44905000D02*
X33305000Y-42635000D01*
X29420000Y-44905000D02*
X33305000Y-44905000D01*
%TO.C,C6*%
X59690000Y-39935000D02*
X63600000Y-39935000D01*
X59690000Y-38065000D02*
X59690000Y-39935000D01*
X63600000Y-38065000D02*
X59690000Y-38065000D01*
%TO.C,C5*%
X53065000Y-28690000D02*
X53065000Y-32600000D01*
X54935000Y-28690000D02*
X53065000Y-28690000D01*
X54935000Y-32600000D02*
X54935000Y-28690000D01*
%TO.C,C4*%
X34590000Y-44555000D02*
X36900000Y-44555000D01*
X34590000Y-42985000D02*
X34590000Y-44555000D01*
X36900000Y-42985000D02*
X34590000Y-42985000D01*
%TO.C,U3*%
X57000000Y-52600000D02*
X59235000Y-52600000D01*
X59235000Y-52600000D02*
X59235000Y-47400000D01*
X59235000Y-47400000D02*
X52765000Y-47400000D01*
X52765000Y-47400000D02*
X52765000Y-52600000D01*
X52765000Y-52600000D02*
X55000000Y-52600000D01*
X55000000Y-52600000D02*
G75*
G02*
X57000000Y-52600000I1000000J0D01*
G01*
%TO.C,U2*%
X51000000Y-58860000D02*
X48765000Y-58860000D01*
X48765000Y-58860000D02*
X48765000Y-69140000D01*
X48765000Y-69140000D02*
X55235000Y-69140000D01*
X55235000Y-69140000D02*
X55235000Y-58860000D01*
X55235000Y-58860000D02*
X53000000Y-58860000D01*
X53000000Y-58860000D02*
G75*
G02*
X51000000Y-58860000I-1000000J0D01*
G01*
%TO.C,U1*%
X44590000Y-34910000D02*
X45850000Y-34910000D01*
X51410000Y-34910000D02*
X50150000Y-34910000D01*
X44590000Y-31150000D02*
X44590000Y-34910000D01*
X51410000Y-28900000D02*
X51410000Y-34910000D01*
%TO.C,R5*%
X63265000Y-61227064D02*
X63265000Y-60772936D01*
X64735000Y-61227064D02*
X64735000Y-60772936D01*
%TO.C,R4*%
X59265000Y-61139564D02*
X59265000Y-60685436D01*
X60735000Y-61139564D02*
X60735000Y-60685436D01*
%TO.C,R3*%
X64735000Y-49772936D02*
X64735000Y-50227064D01*
X63265000Y-49772936D02*
X63265000Y-50227064D01*
%TO.C,R2*%
X40227064Y-63735000D02*
X39772936Y-63735000D01*
X40227064Y-62265000D02*
X39772936Y-62265000D01*
%TO.C,R1*%
X45910000Y-49272936D02*
X45910000Y-50727064D01*
X44090000Y-49272936D02*
X44090000Y-50727064D01*
%TO.C,Q1*%
X47240000Y-48420000D02*
X47240000Y-49350000D01*
X47240000Y-51580000D02*
X47240000Y-50650000D01*
X47240000Y-51580000D02*
X49400000Y-51580000D01*
X47240000Y-48420000D02*
X48700000Y-48420000D01*
%TO.C,JP4*%
X32590000Y-48980000D02*
X31990000Y-48980000D01*
X33290000Y-46880000D02*
X33290000Y-48280000D01*
X31990000Y-46180000D02*
X32590000Y-46180000D01*
X31290000Y-48280000D02*
X31290000Y-46880000D01*
X31990000Y-48980000D02*
G75*
G02*
X31290000Y-48280000I0J700000D01*
G01*
X33290000Y-48280000D02*
G75*
G02*
X32590000Y-48980000I-700000J0D01*
G01*
X32590000Y-46180000D02*
G75*
G02*
X33290000Y-46880000I0J-700000D01*
G01*
X31290000Y-46880000D02*
G75*
G02*
X31990000Y-46180000I700000J0D01*
G01*
%TO.C,JP3*%
X37670000Y-48980000D02*
X37070000Y-48980000D01*
X38370000Y-46880000D02*
X38370000Y-48280000D01*
X37070000Y-46180000D02*
X37670000Y-46180000D01*
X36370000Y-48280000D02*
X36370000Y-46880000D01*
X37070000Y-48980000D02*
G75*
G02*
X36370000Y-48280000I0J700000D01*
G01*
X38370000Y-48280000D02*
G75*
G02*
X37670000Y-48980000I-700000J0D01*
G01*
X37670000Y-46180000D02*
G75*
G02*
X38370000Y-46880000I0J-700000D01*
G01*
X36370000Y-46880000D02*
G75*
G02*
X37070000Y-46180000I700000J0D01*
G01*
%TO.C,JP2*%
X25420000Y-52360000D02*
X25420000Y-52960000D01*
X23320000Y-51660000D02*
X24720000Y-51660000D01*
X22620000Y-52960000D02*
X22620000Y-52360000D01*
X24720000Y-53660000D02*
X23320000Y-53660000D01*
X25420000Y-52960000D02*
G75*
G02*
X24720000Y-53660000I-700000J0D01*
G01*
X24720000Y-51660000D02*
G75*
G02*
X25420000Y-52360000I0J-700000D01*
G01*
X22620000Y-52360000D02*
G75*
G02*
X23320000Y-51660000I700000J0D01*
G01*
X23320000Y-53660000D02*
G75*
G02*
X22620000Y-52960000I0J700000D01*
G01*
%TO.C,JP1*%
X25420000Y-57440000D02*
X25420000Y-58040000D01*
X23320000Y-56740000D02*
X24720000Y-56740000D01*
X22620000Y-58040000D02*
X22620000Y-57440000D01*
X24720000Y-58740000D02*
X23320000Y-58740000D01*
X25420000Y-58040000D02*
G75*
G02*
X24720000Y-58740000I-700000J0D01*
G01*
X24720000Y-56740000D02*
G75*
G02*
X25420000Y-57440000I0J-700000D01*
G01*
X22620000Y-57440000D02*
G75*
G02*
X23320000Y-56740000I700000J0D01*
G01*
X23320000Y-58740000D02*
G75*
G02*
X22620000Y-58040000I0J700000D01*
G01*
%TO.C,J1*%
X20290000Y-66250000D02*
X20290000Y-62440000D01*
X20290000Y-62440000D02*
X32010000Y-62440000D01*
X32010000Y-62440000D02*
X32010000Y-63860000D01*
X32010000Y-63860000D02*
X27510000Y-63860000D01*
X20290000Y-66250000D02*
X20290000Y-70060000D01*
X20290000Y-70060000D02*
X32010000Y-70060000D01*
X32010000Y-70060000D02*
X32010000Y-68640000D01*
X32010000Y-68640000D02*
X27510000Y-68640000D01*
X26400000Y-64750000D02*
X20900000Y-64750000D01*
X20900000Y-64750000D02*
X20900000Y-65250000D01*
X20900000Y-65250000D02*
X26400000Y-65250000D01*
X26400000Y-65250000D02*
X26400000Y-64750000D01*
X26400000Y-67250000D02*
X20900000Y-67250000D01*
X20900000Y-67250000D02*
X20900000Y-67750000D01*
X20900000Y-67750000D02*
X26400000Y-67750000D01*
X26400000Y-67750000D02*
X26400000Y-67250000D01*
X29500000Y-65000000D02*
X30100000Y-64700000D01*
X30100000Y-64700000D02*
X30100000Y-65300000D01*
X30100000Y-65300000D02*
X29500000Y-65000000D01*
%TO.C,D1*%
X41850000Y-65500000D02*
X40150000Y-65500000D01*
X40150000Y-65500000D02*
X40150000Y-68050000D01*
X41850000Y-65500000D02*
X41850000Y-68050000D01*
%TO.C,C3*%
X56261252Y-57735000D02*
X55738748Y-57735000D01*
X56261252Y-56265000D02*
X55738748Y-56265000D01*
%TO.C,C2*%
X50600000Y-38065000D02*
X46690000Y-38065000D01*
X46690000Y-38065000D02*
X46690000Y-39935000D01*
X46690000Y-39935000D02*
X50600000Y-39935000D01*
%TO.C,C1*%
X48600000Y-25065000D02*
X44690000Y-25065000D01*
X44690000Y-25065000D02*
X44690000Y-26935000D01*
X44690000Y-26935000D02*
X48600000Y-26935000D01*
%TO.C,J2*%
D10*
X30666666Y-21452380D02*
X30666666Y-22166666D01*
X30619047Y-22309523D01*
X30523809Y-22404761D01*
X30380952Y-22452380D01*
X30285714Y-22452380D01*
X31095238Y-21547619D02*
X31142857Y-21500000D01*
X31238095Y-21452380D01*
X31476190Y-21452380D01*
X31571428Y-21500000D01*
X31619047Y-21547619D01*
X31666666Y-21642857D01*
X31666666Y-21738095D01*
X31619047Y-21880952D01*
X31047619Y-22452380D01*
X31666666Y-22452380D01*
%TO.C,J7*%
X67916666Y-53702380D02*
X67916666Y-54416666D01*
X67869047Y-54559523D01*
X67773809Y-54654761D01*
X67630952Y-54702380D01*
X67535714Y-54702380D01*
X68297619Y-53702380D02*
X68964285Y-53702380D01*
X68535714Y-54702380D01*
%TO.C,J6*%
X69336666Y-35452380D02*
X69336666Y-36166666D01*
X69289047Y-36309523D01*
X69193809Y-36404761D01*
X69050952Y-36452380D01*
X68955714Y-36452380D01*
X70241428Y-35452380D02*
X70050952Y-35452380D01*
X69955714Y-35500000D01*
X69908095Y-35547619D01*
X69812857Y-35690476D01*
X69765238Y-35880952D01*
X69765238Y-36261904D01*
X69812857Y-36357142D01*
X69860476Y-36404761D01*
X69955714Y-36452380D01*
X70146190Y-36452380D01*
X70241428Y-36404761D01*
X70289047Y-36357142D01*
X70336666Y-36261904D01*
X70336666Y-36023809D01*
X70289047Y-35928571D01*
X70241428Y-35880952D01*
X70146190Y-35833333D01*
X69955714Y-35833333D01*
X69860476Y-35880952D01*
X69812857Y-35928571D01*
X69765238Y-36023809D01*
%TO.C,J5*%
X65416666Y-69452380D02*
X65416666Y-70166666D01*
X65369047Y-70309523D01*
X65273809Y-70404761D01*
X65130952Y-70452380D01*
X65035714Y-70452380D01*
X66369047Y-69452380D02*
X65892857Y-69452380D01*
X65845238Y-69928571D01*
X65892857Y-69880952D01*
X65988095Y-69833333D01*
X66226190Y-69833333D01*
X66321428Y-69880952D01*
X66369047Y-69928571D01*
X66416666Y-70023809D01*
X66416666Y-70261904D01*
X66369047Y-70357142D01*
X66321428Y-70404761D01*
X66226190Y-70452380D01*
X65988095Y-70452380D01*
X65892857Y-70404761D01*
X65845238Y-70357142D01*
%TO.C,J4*%
X70166666Y-23452380D02*
X70166666Y-24166666D01*
X70119047Y-24309523D01*
X70023809Y-24404761D01*
X69880952Y-24452380D01*
X69785714Y-24452380D01*
X71071428Y-23785714D02*
X71071428Y-24452380D01*
X70833333Y-23404761D02*
X70595238Y-24119047D01*
X71214285Y-24119047D01*
%TO.C,R10*%
X66357142Y-29452380D02*
X66023809Y-28976190D01*
X65785714Y-29452380D02*
X65785714Y-28452380D01*
X66166666Y-28452380D01*
X66261904Y-28500000D01*
X66309523Y-28547619D01*
X66357142Y-28642857D01*
X66357142Y-28785714D01*
X66309523Y-28880952D01*
X66261904Y-28928571D01*
X66166666Y-28976190D01*
X65785714Y-28976190D01*
X67309523Y-29452380D02*
X66738095Y-29452380D01*
X67023809Y-29452380D02*
X67023809Y-28452380D01*
X66928571Y-28595238D01*
X66833333Y-28690476D01*
X66738095Y-28738095D01*
X67928571Y-28452380D02*
X68023809Y-28452380D01*
X68119047Y-28500000D01*
X68166666Y-28547619D01*
X68214285Y-28642857D01*
X68261904Y-28833333D01*
X68261904Y-29071428D01*
X68214285Y-29261904D01*
X68166666Y-29357142D01*
X68119047Y-29404761D01*
X68023809Y-29452380D01*
X67928571Y-29452380D01*
X67833333Y-29404761D01*
X67785714Y-29357142D01*
X67738095Y-29261904D01*
X67690476Y-29071428D01*
X67690476Y-28833333D01*
X67738095Y-28642857D01*
X67785714Y-28547619D01*
X67833333Y-28500000D01*
X67928571Y-28452380D01*
%TO.C,R9*%
X52370833Y-42452380D02*
X52037500Y-41976190D01*
X51799404Y-42452380D02*
X51799404Y-41452380D01*
X52180357Y-41452380D01*
X52275595Y-41500000D01*
X52323214Y-41547619D01*
X52370833Y-41642857D01*
X52370833Y-41785714D01*
X52323214Y-41880952D01*
X52275595Y-41928571D01*
X52180357Y-41976190D01*
X51799404Y-41976190D01*
X52847023Y-42452380D02*
X53037500Y-42452380D01*
X53132738Y-42404761D01*
X53180357Y-42357142D01*
X53275595Y-42214285D01*
X53323214Y-42023809D01*
X53323214Y-41642857D01*
X53275595Y-41547619D01*
X53227976Y-41500000D01*
X53132738Y-41452380D01*
X52942261Y-41452380D01*
X52847023Y-41500000D01*
X52799404Y-41547619D01*
X52751785Y-41642857D01*
X52751785Y-41880952D01*
X52799404Y-41976190D01*
X52847023Y-42023809D01*
X52942261Y-42071428D01*
X53132738Y-42071428D01*
X53227976Y-42023809D01*
X53275595Y-41976190D01*
X53323214Y-41880952D01*
%TO.C,R6*%
X54370833Y-22452380D02*
X54037500Y-21976190D01*
X53799404Y-22452380D02*
X53799404Y-21452380D01*
X54180357Y-21452380D01*
X54275595Y-21500000D01*
X54323214Y-21547619D01*
X54370833Y-21642857D01*
X54370833Y-21785714D01*
X54323214Y-21880952D01*
X54275595Y-21928571D01*
X54180357Y-21976190D01*
X53799404Y-21976190D01*
X55227976Y-21452380D02*
X55037500Y-21452380D01*
X54942261Y-21500000D01*
X54894642Y-21547619D01*
X54799404Y-21690476D01*
X54751785Y-21880952D01*
X54751785Y-22261904D01*
X54799404Y-22357142D01*
X54847023Y-22404761D01*
X54942261Y-22452380D01*
X55132738Y-22452380D01*
X55227976Y-22404761D01*
X55275595Y-22357142D01*
X55323214Y-22261904D01*
X55323214Y-22023809D01*
X55275595Y-21928571D01*
X55227976Y-21880952D01*
X55132738Y-21833333D01*
X54942261Y-21833333D01*
X54847023Y-21880952D01*
X54799404Y-21928571D01*
X54751785Y-22023809D01*
%TO.C,JP7*%
X60816666Y-41652380D02*
X60816666Y-42366666D01*
X60769047Y-42509523D01*
X60673809Y-42604761D01*
X60530952Y-42652380D01*
X60435714Y-42652380D01*
X61292857Y-42652380D02*
X61292857Y-41652380D01*
X61673809Y-41652380D01*
X61769047Y-41700000D01*
X61816666Y-41747619D01*
X61864285Y-41842857D01*
X61864285Y-41985714D01*
X61816666Y-42080952D01*
X61769047Y-42128571D01*
X61673809Y-42176190D01*
X61292857Y-42176190D01*
X62197619Y-41652380D02*
X62864285Y-41652380D01*
X62435714Y-42652380D01*
%TO.C,JP6*%
X62816666Y-21652380D02*
X62816666Y-22366666D01*
X62769047Y-22509523D01*
X62673809Y-22604761D01*
X62530952Y-22652380D01*
X62435714Y-22652380D01*
X63292857Y-22652380D02*
X63292857Y-21652380D01*
X63673809Y-21652380D01*
X63769047Y-21700000D01*
X63816666Y-21747619D01*
X63864285Y-21842857D01*
X63864285Y-21985714D01*
X63816666Y-22080952D01*
X63769047Y-22128571D01*
X63673809Y-22176190D01*
X63292857Y-22176190D01*
X64721428Y-21652380D02*
X64530952Y-21652380D01*
X64435714Y-21700000D01*
X64388095Y-21747619D01*
X64292857Y-21890476D01*
X64245238Y-22080952D01*
X64245238Y-22461904D01*
X64292857Y-22557142D01*
X64340476Y-22604761D01*
X64435714Y-22652380D01*
X64626190Y-22652380D01*
X64721428Y-22604761D01*
X64769047Y-22557142D01*
X64816666Y-22461904D01*
X64816666Y-22223809D01*
X64769047Y-22128571D01*
X64721428Y-22080952D01*
X64626190Y-22033333D01*
X64435714Y-22033333D01*
X64340476Y-22080952D01*
X64292857Y-22128571D01*
X64245238Y-22223809D01*
%TO.C,JP5*%
X74816666Y-28652380D02*
X74816666Y-29366666D01*
X74769047Y-29509523D01*
X74673809Y-29604761D01*
X74530952Y-29652380D01*
X74435714Y-29652380D01*
X75292857Y-29652380D02*
X75292857Y-28652380D01*
X75673809Y-28652380D01*
X75769047Y-28700000D01*
X75816666Y-28747619D01*
X75864285Y-28842857D01*
X75864285Y-28985714D01*
X75816666Y-29080952D01*
X75769047Y-29128571D01*
X75673809Y-29176190D01*
X75292857Y-29176190D01*
X76769047Y-28652380D02*
X76292857Y-28652380D01*
X76245238Y-29128571D01*
X76292857Y-29080952D01*
X76388095Y-29033333D01*
X76626190Y-29033333D01*
X76721428Y-29080952D01*
X76769047Y-29128571D01*
X76816666Y-29223809D01*
X76816666Y-29461904D01*
X76769047Y-29557142D01*
X76721428Y-29604761D01*
X76626190Y-29652380D01*
X76388095Y-29652380D01*
X76292857Y-29604761D01*
X76245238Y-29557142D01*
%TO.C,D6*%
X70861904Y-29632380D02*
X70861904Y-28632380D01*
X71100000Y-28632380D01*
X71242857Y-28680000D01*
X71338095Y-28775238D01*
X71385714Y-28870476D01*
X71433333Y-29060952D01*
X71433333Y-29203809D01*
X71385714Y-29394285D01*
X71338095Y-29489523D01*
X71242857Y-29584761D01*
X71100000Y-29632380D01*
X70861904Y-29632380D01*
X72290476Y-28632380D02*
X72100000Y-28632380D01*
X72004761Y-28680000D01*
X71957142Y-28727619D01*
X71861904Y-28870476D01*
X71814285Y-29060952D01*
X71814285Y-29441904D01*
X71861904Y-29537142D01*
X71909523Y-29584761D01*
X72004761Y-29632380D01*
X72195238Y-29632380D01*
X72290476Y-29584761D01*
X72338095Y-29537142D01*
X72385714Y-29441904D01*
X72385714Y-29203809D01*
X72338095Y-29108571D01*
X72290476Y-29060952D01*
X72195238Y-29013333D01*
X72004761Y-29013333D01*
X71909523Y-29060952D01*
X71861904Y-29108571D01*
X71814285Y-29203809D01*
%TO.C,D5*%
X56861904Y-42632380D02*
X56861904Y-41632380D01*
X57100000Y-41632380D01*
X57242857Y-41680000D01*
X57338095Y-41775238D01*
X57385714Y-41870476D01*
X57433333Y-42060952D01*
X57433333Y-42203809D01*
X57385714Y-42394285D01*
X57338095Y-42489523D01*
X57242857Y-42584761D01*
X57100000Y-42632380D01*
X56861904Y-42632380D01*
X58338095Y-41632380D02*
X57861904Y-41632380D01*
X57814285Y-42108571D01*
X57861904Y-42060952D01*
X57957142Y-42013333D01*
X58195238Y-42013333D01*
X58290476Y-42060952D01*
X58338095Y-42108571D01*
X58385714Y-42203809D01*
X58385714Y-42441904D01*
X58338095Y-42537142D01*
X58290476Y-42584761D01*
X58195238Y-42632380D01*
X57957142Y-42632380D01*
X57861904Y-42584761D01*
X57814285Y-42537142D01*
%TO.C,D4*%
X58861904Y-22632380D02*
X58861904Y-21632380D01*
X59100000Y-21632380D01*
X59242857Y-21680000D01*
X59338095Y-21775238D01*
X59385714Y-21870476D01*
X59433333Y-22060952D01*
X59433333Y-22203809D01*
X59385714Y-22394285D01*
X59338095Y-22489523D01*
X59242857Y-22584761D01*
X59100000Y-22632380D01*
X58861904Y-22632380D01*
X60290476Y-21965714D02*
X60290476Y-22632380D01*
X60052380Y-21584761D02*
X59814285Y-22299047D01*
X60433333Y-22299047D01*
%TO.C,BR1*%
D13*
X38420652Y-59204262D02*
X38512128Y-59234754D01*
X38542620Y-59265245D01*
X38573112Y-59326229D01*
X38573112Y-59417705D01*
X38542620Y-59478689D01*
X38512128Y-59509181D01*
X38451144Y-59539673D01*
X38207209Y-59539673D01*
X38207209Y-58899342D01*
X38420652Y-58899342D01*
X38481636Y-58929834D01*
X38512128Y-58960326D01*
X38542620Y-59021310D01*
X38542620Y-59082294D01*
X38512128Y-59143278D01*
X38481636Y-59173770D01*
X38420652Y-59204262D01*
X38207209Y-59204262D01*
X39213443Y-59539673D02*
X39000000Y-59234754D01*
X38847540Y-59539673D02*
X38847540Y-58899342D01*
X39091475Y-58899342D01*
X39152459Y-58929834D01*
X39182951Y-58960326D01*
X39213443Y-59021310D01*
X39213443Y-59112786D01*
X39182951Y-59173770D01*
X39152459Y-59204262D01*
X39091475Y-59234754D01*
X38847540Y-59234754D01*
X39823282Y-59539673D02*
X39457379Y-59539673D01*
X39640331Y-59539673D02*
X39640331Y-58899342D01*
X39579347Y-58990818D01*
X39518363Y-59051802D01*
X39457379Y-59082294D01*
D10*
X28097409Y-51034400D02*
X28145028Y-51082019D01*
X28192647Y-51034400D01*
X28145028Y-50986780D01*
X28097409Y-51034400D01*
X28192647Y-51034400D01*
%TO.C,D3*%
X29761904Y-37702380D02*
X29761904Y-36702380D01*
X30000000Y-36702380D01*
X30142857Y-36750000D01*
X30238095Y-36845238D01*
X30285714Y-36940476D01*
X30333333Y-37130952D01*
X30333333Y-37273809D01*
X30285714Y-37464285D01*
X30238095Y-37559523D01*
X30142857Y-37654761D01*
X30000000Y-37702380D01*
X29761904Y-37702380D01*
X30666666Y-36702380D02*
X31285714Y-36702380D01*
X30952380Y-37083333D01*
X31095238Y-37083333D01*
X31190476Y-37130952D01*
X31238095Y-37178571D01*
X31285714Y-37273809D01*
X31285714Y-37511904D01*
X31238095Y-37607142D01*
X31190476Y-37654761D01*
X31095238Y-37702380D01*
X30809523Y-37702380D01*
X30714285Y-37654761D01*
X30666666Y-37607142D01*
%TO.C,U4*%
X62488095Y-35702380D02*
X62488095Y-36511904D01*
X62535714Y-36607142D01*
X62583333Y-36654761D01*
X62678571Y-36702380D01*
X62869047Y-36702380D01*
X62964285Y-36654761D01*
X63011904Y-36607142D01*
X63059523Y-36511904D01*
X63059523Y-35702380D01*
X63964285Y-36035714D02*
X63964285Y-36702380D01*
X63726190Y-35654761D02*
X63488095Y-36369047D01*
X64107142Y-36369047D01*
%TO.C,R8*%
X34833333Y-29202380D02*
X34500000Y-28726190D01*
X34261904Y-29202380D02*
X34261904Y-28202380D01*
X34642857Y-28202380D01*
X34738095Y-28250000D01*
X34785714Y-28297619D01*
X34833333Y-28392857D01*
X34833333Y-28535714D01*
X34785714Y-28630952D01*
X34738095Y-28678571D01*
X34642857Y-28726190D01*
X34261904Y-28726190D01*
X35404761Y-28630952D02*
X35309523Y-28583333D01*
X35261904Y-28535714D01*
X35214285Y-28440476D01*
X35214285Y-28392857D01*
X35261904Y-28297619D01*
X35309523Y-28250000D01*
X35404761Y-28202380D01*
X35595238Y-28202380D01*
X35690476Y-28250000D01*
X35738095Y-28297619D01*
X35785714Y-28392857D01*
X35785714Y-28440476D01*
X35738095Y-28535714D01*
X35690476Y-28583333D01*
X35595238Y-28630952D01*
X35404761Y-28630952D01*
X35309523Y-28678571D01*
X35261904Y-28726190D01*
X35214285Y-28821428D01*
X35214285Y-29011904D01*
X35261904Y-29107142D01*
X35309523Y-29154761D01*
X35404761Y-29202380D01*
X35595238Y-29202380D01*
X35690476Y-29154761D01*
X35738095Y-29107142D01*
X35785714Y-29011904D01*
X35785714Y-28821428D01*
X35738095Y-28726190D01*
X35690476Y-28678571D01*
X35595238Y-28630952D01*
%TO.C,R7*%
X29433333Y-32202380D02*
X29100000Y-31726190D01*
X28861904Y-32202380D02*
X28861904Y-31202380D01*
X29242857Y-31202380D01*
X29338095Y-31250000D01*
X29385714Y-31297619D01*
X29433333Y-31392857D01*
X29433333Y-31535714D01*
X29385714Y-31630952D01*
X29338095Y-31678571D01*
X29242857Y-31726190D01*
X28861904Y-31726190D01*
X29766666Y-31202380D02*
X30433333Y-31202380D01*
X30004761Y-32202380D01*
%TO.C,Q4*%
X39904761Y-28297619D02*
X39809523Y-28250000D01*
X39714285Y-28154761D01*
X39571428Y-28011904D01*
X39476190Y-27964285D01*
X39380952Y-27964285D01*
X39428571Y-28202380D02*
X39333333Y-28154761D01*
X39238095Y-28059523D01*
X39190476Y-27869047D01*
X39190476Y-27535714D01*
X39238095Y-27345238D01*
X39333333Y-27250000D01*
X39428571Y-27202380D01*
X39619047Y-27202380D01*
X39714285Y-27250000D01*
X39809523Y-27345238D01*
X39857142Y-27535714D01*
X39857142Y-27869047D01*
X39809523Y-28059523D01*
X39714285Y-28154761D01*
X39619047Y-28202380D01*
X39428571Y-28202380D01*
X40714285Y-27535714D02*
X40714285Y-28202380D01*
X40476190Y-27154761D02*
X40238095Y-27869047D01*
X40857142Y-27869047D01*
%TO.C,Q3*%
X34654761Y-38047619D02*
X34559523Y-38000000D01*
X34464285Y-37904761D01*
X34321428Y-37761904D01*
X34226190Y-37714285D01*
X34130952Y-37714285D01*
X34178571Y-37952380D02*
X34083333Y-37904761D01*
X33988095Y-37809523D01*
X33940476Y-37619047D01*
X33940476Y-37285714D01*
X33988095Y-37095238D01*
X34083333Y-37000000D01*
X34178571Y-36952380D01*
X34369047Y-36952380D01*
X34464285Y-37000000D01*
X34559523Y-37095238D01*
X34607142Y-37285714D01*
X34607142Y-37619047D01*
X34559523Y-37809523D01*
X34464285Y-37904761D01*
X34369047Y-37952380D01*
X34178571Y-37952380D01*
X34940476Y-36952380D02*
X35559523Y-36952380D01*
X35226190Y-37333333D01*
X35369047Y-37333333D01*
X35464285Y-37380952D01*
X35511904Y-37428571D01*
X35559523Y-37523809D01*
X35559523Y-37761904D01*
X35511904Y-37857142D01*
X35464285Y-37904761D01*
X35369047Y-37952380D01*
X35083333Y-37952380D01*
X34988095Y-37904761D01*
X34940476Y-37857142D01*
%TO.C,Q2*%
X39904761Y-37547619D02*
X39809523Y-37500000D01*
X39714285Y-37404761D01*
X39571428Y-37261904D01*
X39476190Y-37214285D01*
X39380952Y-37214285D01*
X39428571Y-37452380D02*
X39333333Y-37404761D01*
X39238095Y-37309523D01*
X39190476Y-37119047D01*
X39190476Y-36785714D01*
X39238095Y-36595238D01*
X39333333Y-36500000D01*
X39428571Y-36452380D01*
X39619047Y-36452380D01*
X39714285Y-36500000D01*
X39809523Y-36595238D01*
X39857142Y-36785714D01*
X39857142Y-37119047D01*
X39809523Y-37309523D01*
X39714285Y-37404761D01*
X39619047Y-37452380D01*
X39428571Y-37452380D01*
X40238095Y-36547619D02*
X40285714Y-36500000D01*
X40380952Y-36452380D01*
X40619047Y-36452380D01*
X40714285Y-36500000D01*
X40761904Y-36547619D01*
X40809523Y-36642857D01*
X40809523Y-36738095D01*
X40761904Y-36880952D01*
X40190476Y-37452380D01*
X40809523Y-37452380D01*
%TO.C,J3*%
X23066666Y-33272380D02*
X23066666Y-33986666D01*
X23019047Y-34129523D01*
X22923809Y-34224761D01*
X22780952Y-34272380D01*
X22685714Y-34272380D01*
X23447619Y-33272380D02*
X24066666Y-33272380D01*
X23733333Y-33653333D01*
X23876190Y-33653333D01*
X23971428Y-33700952D01*
X24019047Y-33748571D01*
X24066666Y-33843809D01*
X24066666Y-34081904D01*
X24019047Y-34177142D01*
X23971428Y-34224761D01*
X23876190Y-34272380D01*
X23590476Y-34272380D01*
X23495238Y-34224761D01*
X23447619Y-34177142D01*
%TO.C,D2*%
X26761904Y-44202380D02*
X26761904Y-43202380D01*
X27000000Y-43202380D01*
X27142857Y-43250000D01*
X27238095Y-43345238D01*
X27285714Y-43440476D01*
X27333333Y-43630952D01*
X27333333Y-43773809D01*
X27285714Y-43964285D01*
X27238095Y-44059523D01*
X27142857Y-44154761D01*
X27000000Y-44202380D01*
X26761904Y-44202380D01*
X27714285Y-43297619D02*
X27761904Y-43250000D01*
X27857142Y-43202380D01*
X28095238Y-43202380D01*
X28190476Y-43250000D01*
X28238095Y-43297619D01*
X28285714Y-43392857D01*
X28285714Y-43488095D01*
X28238095Y-43630952D01*
X27666666Y-44202380D01*
X28285714Y-44202380D01*
%TO.C,C6*%
X58333333Y-39357142D02*
X58285714Y-39404761D01*
X58142857Y-39452380D01*
X58047619Y-39452380D01*
X57904761Y-39404761D01*
X57809523Y-39309523D01*
X57761904Y-39214285D01*
X57714285Y-39023809D01*
X57714285Y-38880952D01*
X57761904Y-38690476D01*
X57809523Y-38595238D01*
X57904761Y-38500000D01*
X58047619Y-38452380D01*
X58142857Y-38452380D01*
X58285714Y-38500000D01*
X58333333Y-38547619D01*
X59190476Y-38452380D02*
X59000000Y-38452380D01*
X58904761Y-38500000D01*
X58857142Y-38547619D01*
X58761904Y-38690476D01*
X58714285Y-38880952D01*
X58714285Y-39261904D01*
X58761904Y-39357142D01*
X58809523Y-39404761D01*
X58904761Y-39452380D01*
X59095238Y-39452380D01*
X59190476Y-39404761D01*
X59238095Y-39357142D01*
X59285714Y-39261904D01*
X59285714Y-39023809D01*
X59238095Y-38928571D01*
X59190476Y-38880952D01*
X59095238Y-38833333D01*
X58904761Y-38833333D01*
X58809523Y-38880952D01*
X58761904Y-38928571D01*
X58714285Y-39023809D01*
%TO.C,C5*%
X53833333Y-28357142D02*
X53785714Y-28404761D01*
X53642857Y-28452380D01*
X53547619Y-28452380D01*
X53404761Y-28404761D01*
X53309523Y-28309523D01*
X53261904Y-28214285D01*
X53214285Y-28023809D01*
X53214285Y-27880952D01*
X53261904Y-27690476D01*
X53309523Y-27595238D01*
X53404761Y-27500000D01*
X53547619Y-27452380D01*
X53642857Y-27452380D01*
X53785714Y-27500000D01*
X53833333Y-27547619D01*
X54738095Y-27452380D02*
X54261904Y-27452380D01*
X54214285Y-27928571D01*
X54261904Y-27880952D01*
X54357142Y-27833333D01*
X54595238Y-27833333D01*
X54690476Y-27880952D01*
X54738095Y-27928571D01*
X54785714Y-28023809D01*
X54785714Y-28261904D01*
X54738095Y-28357142D01*
X54690476Y-28404761D01*
X54595238Y-28452380D01*
X54357142Y-28452380D01*
X54261904Y-28404761D01*
X54214285Y-28357142D01*
%TO.C,C4*%
X35933333Y-42647142D02*
X35885714Y-42694761D01*
X35742857Y-42742380D01*
X35647619Y-42742380D01*
X35504761Y-42694761D01*
X35409523Y-42599523D01*
X35361904Y-42504285D01*
X35314285Y-42313809D01*
X35314285Y-42170952D01*
X35361904Y-41980476D01*
X35409523Y-41885238D01*
X35504761Y-41790000D01*
X35647619Y-41742380D01*
X35742857Y-41742380D01*
X35885714Y-41790000D01*
X35933333Y-41837619D01*
X36790476Y-42075714D02*
X36790476Y-42742380D01*
X36552380Y-41694761D02*
X36314285Y-42409047D01*
X36933333Y-42409047D01*
%TO.C,U3*%
X55238095Y-53052380D02*
X55238095Y-53861904D01*
X55285714Y-53957142D01*
X55333333Y-54004761D01*
X55428571Y-54052380D01*
X55619047Y-54052380D01*
X55714285Y-54004761D01*
X55761904Y-53957142D01*
X55809523Y-53861904D01*
X55809523Y-53052380D01*
X56190476Y-53052380D02*
X56809523Y-53052380D01*
X56476190Y-53433333D01*
X56619047Y-53433333D01*
X56714285Y-53480952D01*
X56761904Y-53528571D01*
X56809523Y-53623809D01*
X56809523Y-53861904D01*
X56761904Y-53957142D01*
X56714285Y-54004761D01*
X56619047Y-54052380D01*
X56333333Y-54052380D01*
X56238095Y-54004761D01*
X56190476Y-53957142D01*
%TO.C,U2*%
X58488095Y-68202380D02*
X58488095Y-69011904D01*
X58535714Y-69107142D01*
X58583333Y-69154761D01*
X58678571Y-69202380D01*
X58869047Y-69202380D01*
X58964285Y-69154761D01*
X59011904Y-69107142D01*
X59059523Y-69011904D01*
X59059523Y-68202380D01*
X59488095Y-68297619D02*
X59535714Y-68250000D01*
X59630952Y-68202380D01*
X59869047Y-68202380D01*
X59964285Y-68250000D01*
X60011904Y-68297619D01*
X60059523Y-68392857D01*
X60059523Y-68488095D01*
X60011904Y-68630952D01*
X59440476Y-69202380D01*
X60059523Y-69202380D01*
%TO.C,U1*%
X50488095Y-35702380D02*
X50488095Y-36511904D01*
X50535714Y-36607142D01*
X50583333Y-36654761D01*
X50678571Y-36702380D01*
X50869047Y-36702380D01*
X50964285Y-36654761D01*
X51011904Y-36607142D01*
X51059523Y-36511904D01*
X51059523Y-35702380D01*
X52059523Y-36702380D02*
X51488095Y-36702380D01*
X51773809Y-36702380D02*
X51773809Y-35702380D01*
X51678571Y-35845238D01*
X51583333Y-35940476D01*
X51488095Y-35988095D01*
%TO.C,R5*%
X63833333Y-63952380D02*
X63500000Y-63476190D01*
X63261904Y-63952380D02*
X63261904Y-62952380D01*
X63642857Y-62952380D01*
X63738095Y-63000000D01*
X63785714Y-63047619D01*
X63833333Y-63142857D01*
X63833333Y-63285714D01*
X63785714Y-63380952D01*
X63738095Y-63428571D01*
X63642857Y-63476190D01*
X63261904Y-63476190D01*
X64738095Y-62952380D02*
X64261904Y-62952380D01*
X64214285Y-63428571D01*
X64261904Y-63380952D01*
X64357142Y-63333333D01*
X64595238Y-63333333D01*
X64690476Y-63380952D01*
X64738095Y-63428571D01*
X64785714Y-63523809D01*
X64785714Y-63761904D01*
X64738095Y-63857142D01*
X64690476Y-63904761D01*
X64595238Y-63952380D01*
X64357142Y-63952380D01*
X64261904Y-63904761D01*
X64214285Y-63857142D01*
%TO.C,R4*%
X59833333Y-63952380D02*
X59500000Y-63476190D01*
X59261904Y-63952380D02*
X59261904Y-62952380D01*
X59642857Y-62952380D01*
X59738095Y-63000000D01*
X59785714Y-63047619D01*
X59833333Y-63142857D01*
X59833333Y-63285714D01*
X59785714Y-63380952D01*
X59738095Y-63428571D01*
X59642857Y-63476190D01*
X59261904Y-63476190D01*
X60690476Y-63285714D02*
X60690476Y-63952380D01*
X60452380Y-62904761D02*
X60214285Y-63619047D01*
X60833333Y-63619047D01*
%TO.C,R3*%
X63833333Y-47952380D02*
X63500000Y-47476190D01*
X63261904Y-47952380D02*
X63261904Y-46952380D01*
X63642857Y-46952380D01*
X63738095Y-47000000D01*
X63785714Y-47047619D01*
X63833333Y-47142857D01*
X63833333Y-47285714D01*
X63785714Y-47380952D01*
X63738095Y-47428571D01*
X63642857Y-47476190D01*
X63261904Y-47476190D01*
X64166666Y-46952380D02*
X64785714Y-46952380D01*
X64452380Y-47333333D01*
X64595238Y-47333333D01*
X64690476Y-47380952D01*
X64738095Y-47428571D01*
X64785714Y-47523809D01*
X64785714Y-47761904D01*
X64738095Y-47857142D01*
X64690476Y-47904761D01*
X64595238Y-47952380D01*
X64309523Y-47952380D01*
X64214285Y-47904761D01*
X64166666Y-47857142D01*
%TO.C,R2*%
X42583333Y-63452380D02*
X42250000Y-62976190D01*
X42011904Y-63452380D02*
X42011904Y-62452380D01*
X42392857Y-62452380D01*
X42488095Y-62500000D01*
X42535714Y-62547619D01*
X42583333Y-62642857D01*
X42583333Y-62785714D01*
X42535714Y-62880952D01*
X42488095Y-62928571D01*
X42392857Y-62976190D01*
X42011904Y-62976190D01*
X42964285Y-62547619D02*
X43011904Y-62500000D01*
X43107142Y-62452380D01*
X43345238Y-62452380D01*
X43440476Y-62500000D01*
X43488095Y-62547619D01*
X43535714Y-62642857D01*
X43535714Y-62738095D01*
X43488095Y-62880952D01*
X42916666Y-63452380D01*
X43535714Y-63452380D01*
%TO.C,R1*%
X44833333Y-47452380D02*
X44500000Y-46976190D01*
X44261904Y-47452380D02*
X44261904Y-46452380D01*
X44642857Y-46452380D01*
X44738095Y-46500000D01*
X44785714Y-46547619D01*
X44833333Y-46642857D01*
X44833333Y-46785714D01*
X44785714Y-46880952D01*
X44738095Y-46928571D01*
X44642857Y-46976190D01*
X44261904Y-46976190D01*
X45785714Y-47452380D02*
X45214285Y-47452380D01*
X45500000Y-47452380D02*
X45500000Y-46452380D01*
X45404761Y-46595238D01*
X45309523Y-46690476D01*
X45214285Y-46738095D01*
%TO.C,Q1*%
X47904761Y-53047619D02*
X47809523Y-53000000D01*
X47714285Y-52904761D01*
X47571428Y-52761904D01*
X47476190Y-52714285D01*
X47380952Y-52714285D01*
X47428571Y-52952380D02*
X47333333Y-52904761D01*
X47238095Y-52809523D01*
X47190476Y-52619047D01*
X47190476Y-52285714D01*
X47238095Y-52095238D01*
X47333333Y-52000000D01*
X47428571Y-51952380D01*
X47619047Y-51952380D01*
X47714285Y-52000000D01*
X47809523Y-52095238D01*
X47857142Y-52285714D01*
X47857142Y-52619047D01*
X47809523Y-52809523D01*
X47714285Y-52904761D01*
X47619047Y-52952380D01*
X47428571Y-52952380D01*
X48809523Y-52952380D02*
X48238095Y-52952380D01*
X48523809Y-52952380D02*
X48523809Y-51952380D01*
X48428571Y-52095238D01*
X48333333Y-52190476D01*
X48238095Y-52238095D01*
%TO.C,JP4*%
X28666666Y-46952380D02*
X28666666Y-47666666D01*
X28619047Y-47809523D01*
X28523809Y-47904761D01*
X28380952Y-47952380D01*
X28285714Y-47952380D01*
X29142857Y-47952380D02*
X29142857Y-46952380D01*
X29523809Y-46952380D01*
X29619047Y-47000000D01*
X29666666Y-47047619D01*
X29714285Y-47142857D01*
X29714285Y-47285714D01*
X29666666Y-47380952D01*
X29619047Y-47428571D01*
X29523809Y-47476190D01*
X29142857Y-47476190D01*
X30571428Y-47285714D02*
X30571428Y-47952380D01*
X30333333Y-46904761D02*
X30095238Y-47619047D01*
X30714285Y-47619047D01*
%TO.C,JP3*%
X38916666Y-47032380D02*
X38916666Y-47746666D01*
X38869047Y-47889523D01*
X38773809Y-47984761D01*
X38630952Y-48032380D01*
X38535714Y-48032380D01*
X39392857Y-48032380D02*
X39392857Y-47032380D01*
X39773809Y-47032380D01*
X39869047Y-47080000D01*
X39916666Y-47127619D01*
X39964285Y-47222857D01*
X39964285Y-47365714D01*
X39916666Y-47460952D01*
X39869047Y-47508571D01*
X39773809Y-47556190D01*
X39392857Y-47556190D01*
X40297619Y-47032380D02*
X40916666Y-47032380D01*
X40583333Y-47413333D01*
X40726190Y-47413333D01*
X40821428Y-47460952D01*
X40869047Y-47508571D01*
X40916666Y-47603809D01*
X40916666Y-47841904D01*
X40869047Y-47937142D01*
X40821428Y-47984761D01*
X40726190Y-48032380D01*
X40440476Y-48032380D01*
X40345238Y-47984761D01*
X40297619Y-47937142D01*
%TO.C,JP2*%
X23186666Y-53912380D02*
X23186666Y-54626666D01*
X23139047Y-54769523D01*
X23043809Y-54864761D01*
X22900952Y-54912380D01*
X22805714Y-54912380D01*
X23662857Y-54912380D02*
X23662857Y-53912380D01*
X24043809Y-53912380D01*
X24139047Y-53960000D01*
X24186666Y-54007619D01*
X24234285Y-54102857D01*
X24234285Y-54245714D01*
X24186666Y-54340952D01*
X24139047Y-54388571D01*
X24043809Y-54436190D01*
X23662857Y-54436190D01*
X24615238Y-54007619D02*
X24662857Y-53960000D01*
X24758095Y-53912380D01*
X24996190Y-53912380D01*
X25091428Y-53960000D01*
X25139047Y-54007619D01*
X25186666Y-54102857D01*
X25186666Y-54198095D01*
X25139047Y-54340952D01*
X24567619Y-54912380D01*
X25186666Y-54912380D01*
%TO.C,JP1*%
X23186666Y-58992380D02*
X23186666Y-59706666D01*
X23139047Y-59849523D01*
X23043809Y-59944761D01*
X22900952Y-59992380D01*
X22805714Y-59992380D01*
X23662857Y-59992380D02*
X23662857Y-58992380D01*
X24043809Y-58992380D01*
X24139047Y-59040000D01*
X24186666Y-59087619D01*
X24234285Y-59182857D01*
X24234285Y-59325714D01*
X24186666Y-59420952D01*
X24139047Y-59468571D01*
X24043809Y-59516190D01*
X23662857Y-59516190D01*
X25186666Y-59992380D02*
X24615238Y-59992380D01*
X24900952Y-59992380D02*
X24900952Y-58992380D01*
X24805714Y-59135238D01*
X24710476Y-59230476D01*
X24615238Y-59278095D01*
%TO.C,J1*%
X32552380Y-66583333D02*
X33266666Y-66583333D01*
X33409523Y-66630952D01*
X33504761Y-66726190D01*
X33552380Y-66869047D01*
X33552380Y-66964285D01*
X33552380Y-65583333D02*
X33552380Y-66154761D01*
X33552380Y-65869047D02*
X32552380Y-65869047D01*
X32695238Y-65964285D01*
X32790476Y-66059523D01*
X32838095Y-66154761D01*
%TO.C,D1*%
X42111904Y-67452380D02*
X42111904Y-66452380D01*
X42350000Y-66452380D01*
X42492857Y-66500000D01*
X42588095Y-66595238D01*
X42635714Y-66690476D01*
X42683333Y-66880952D01*
X42683333Y-67023809D01*
X42635714Y-67214285D01*
X42588095Y-67309523D01*
X42492857Y-67404761D01*
X42350000Y-67452380D01*
X42111904Y-67452380D01*
X43635714Y-67452380D02*
X43064285Y-67452380D01*
X43350000Y-67452380D02*
X43350000Y-66452380D01*
X43254761Y-66595238D01*
X43159523Y-66690476D01*
X43064285Y-66738095D01*
%TO.C,C3*%
X58583333Y-57357142D02*
X58535714Y-57404761D01*
X58392857Y-57452380D01*
X58297619Y-57452380D01*
X58154761Y-57404761D01*
X58059523Y-57309523D01*
X58011904Y-57214285D01*
X57964285Y-57023809D01*
X57964285Y-56880952D01*
X58011904Y-56690476D01*
X58059523Y-56595238D01*
X58154761Y-56500000D01*
X58297619Y-56452380D01*
X58392857Y-56452380D01*
X58535714Y-56500000D01*
X58583333Y-56547619D01*
X58916666Y-56452380D02*
X59535714Y-56452380D01*
X59202380Y-56833333D01*
X59345238Y-56833333D01*
X59440476Y-56880952D01*
X59488095Y-56928571D01*
X59535714Y-57023809D01*
X59535714Y-57261904D01*
X59488095Y-57357142D01*
X59440476Y-57404761D01*
X59345238Y-57452380D01*
X59059523Y-57452380D01*
X58964285Y-57404761D01*
X58916666Y-57357142D01*
%TO.C,C2*%
X45333333Y-39357142D02*
X45285714Y-39404761D01*
X45142857Y-39452380D01*
X45047619Y-39452380D01*
X44904761Y-39404761D01*
X44809523Y-39309523D01*
X44761904Y-39214285D01*
X44714285Y-39023809D01*
X44714285Y-38880952D01*
X44761904Y-38690476D01*
X44809523Y-38595238D01*
X44904761Y-38500000D01*
X45047619Y-38452380D01*
X45142857Y-38452380D01*
X45285714Y-38500000D01*
X45333333Y-38547619D01*
X45714285Y-38547619D02*
X45761904Y-38500000D01*
X45857142Y-38452380D01*
X46095238Y-38452380D01*
X46190476Y-38500000D01*
X46238095Y-38547619D01*
X46285714Y-38642857D01*
X46285714Y-38738095D01*
X46238095Y-38880952D01*
X45666666Y-39452380D01*
X46285714Y-39452380D01*
%TO.C,C1*%
X46833333Y-24607142D02*
X46785714Y-24654761D01*
X46642857Y-24702380D01*
X46547619Y-24702380D01*
X46404761Y-24654761D01*
X46309523Y-24559523D01*
X46261904Y-24464285D01*
X46214285Y-24273809D01*
X46214285Y-24130952D01*
X46261904Y-23940476D01*
X46309523Y-23845238D01*
X46404761Y-23750000D01*
X46547619Y-23702380D01*
X46642857Y-23702380D01*
X46785714Y-23750000D01*
X46833333Y-23797619D01*
X47785714Y-24702380D02*
X47214285Y-24702380D01*
X47500000Y-24702380D02*
X47500000Y-23702380D01*
X47404761Y-23845238D01*
X47309523Y-23940476D01*
X47214285Y-23988095D01*
%TD*%
M02*
